#Air_conditioner_(1)_1145_186.obj

v -0.698555 1.029299 -0.2851906
v 0.698555 1.029299 -0.2851906
v 0.698555 1.029299 0.2851906
v -0.698555 1.029299 0.2851906
v 0.698555 1.029299 -0.2851906
v 0.6668928 0.02432323 -0.2793884
v 0.6668928 0.02432323 0.2851906
v 0.698555 1.029299 0.2851906
v -0.6615577 0.02432323 0.2851906
v -0.698555 1.029299 0.2851906
v 0.698555 1.029299 0.2851906
v 0.6668928 0.02432323 0.2851906
v 0.6668928 0.02432323 -0.2793884
v 0.698555 1.029299 -0.2851906
v -0.698555 1.029299 -0.2851906
v -0.6615577 0.02432323 -0.2793884
v -0.698555 1.029299 -0.2851906
v -0.698555 1.029299 0.2851906
v -0.6615577 0.02432323 0.2851906
v -0.6615577 0.02432323 -0.2793884
v -0.6615577 0.02432323 -0.2793884
v -0.6615577 0.02432323 0.2851906
v 0.6668928 0.02432323 0.2851906
v 0.6668928 0.02432323 -0.2793884

vn 0 1 0
vn 0 1 0
vn 0 1 0
vn 0 1 0
vn 0.9995041 -0.03148979 0
vn 0.9995041 -0.03148979 0
vn 0.9995041 -0.03148979 0
vn 0.9995041 -0.03148979 0
vn 0 0 1
vn 0 0 1
vn 0 0 1
vn 0 0 1
vn 0 -0.005774725 -0.9999833
vn 0 -0.005774725 -0.9999833
vn 0 -0.005774726 -0.9999833
vn 0 -0.005774726 -0.9999833
vn -0.9993231 -0.03678918 0
vn -0.9993231 -0.03678918 0
vn -0.9993231 -0.03678918 0
vn -0.9993231 -0.03678918 0
vn 0 -1 0
vn 0 -1 0
vn 0 -1 0
vn 0 -1 0

vt 0.8164063 0.8730469
vt 0.8505859 0.8730469
vt 0.8505859 0.8588867
vt 0.8164063 0.8588867
vt 0.8647461 0.8588867
vt 0.8647461 0.8320313
vt 0.8505859 0.8320313
vt 0.8505859 0.8588867
vt 0.8164063 0.8320313
vt 0.8164063 0.8588867
vt 0.8505859 0.8588867
vt 0.8505859 0.8320313
vt 0.8647461 0.8320313
vt 0.8647461 0.8588867
vt 0.8984375 0.8588867
vt 0.8984375 0.8320313
vt 0.8647461 0.8588867
vt 0.8505859 0.8588867
vt 0.8505859 0.8320313
vt 0.8647461 0.8320313
vt 0.8540039 0.8754883
vt 0.8540039 0.8613281
vt 0.8876953 0.8613281
vt 0.8876953 0.8754883

g Air_conditioner_(1)_1145_186
usemtl Air_conditioner_(1)_1145_186
usemap Air_conditioner_(1)_1145_186
f 1/1/1 3/3/3 2/2/2
f 1/1/1 4/4/4 3/3/3
f 5/5/5 7/7/7 6/6/6
f 5/5/5 8/8/8 7/7/7
f 9/9/9 11/11/11 10/10/10
f 9/9/9 12/12/12 11/11/11
f 13/13/13 15/15/15 14/14/14
f 13/13/13 16/16/16 15/15/15
f 17/17/17 19/19/19 18/18/18
f 17/17/17 20/20/20 19/19/19
f 21/21/21 23/23/23 22/22/22
f 21/21/21 24/24/24 23/23/23
