#alpha_2587_553.obj

v 1.148566 1.450531 -0.4521897
v 0.1122244 1.016875 -0.6184912
v 0.1818433 0.6037095 -1.380335
v 1.427095 1.054437 -1.303458
v 1.148566 1.450531 -0.4521897
v 1.427095 1.054437 -1.303458
v 0.1818433 0.6037095 -1.380335
v 0.1122244 1.016875 -0.6184912
v -0.8844086 0.4740292 0.1089615
v -0.7675366 0.1615131 -0.97658
v -1.545095 0.334074 -1.325274
v -1.807943 0.7336949 -0.08796698
v -0.8844086 0.4740292 0.1089615
v -1.807943 0.7336949 -0.08796698
v -1.545095 0.334074 -1.325274
v -0.7675366 0.1615131 -0.97658
v -1.100746 0.2455475 -1.547603
v -0.5300409 0.5301423 -2.034649
v -0.1397244 0.2242582 -1.04176
v -0.4293334 0.1276793 -0.9213437
v -0.4293334 0.1276793 -0.9213437
v -0.1397244 0.2242582 -1.04176
v -0.5300409 0.5301423 -2.034649
v -1.100746 0.2455475 -1.547603
v 1.277974 0.4362061 -1.12039
v 0.8754581 0.2787085 -1.783167
v 0.04902134 0.4464521 -1.321113
v 0.127525 0.5558723 -0.8997347
v 1.277974 0.4362061 -1.12039
v 0.127525 0.5558723 -0.8997347
v 0.04902134 0.4464521 -1.321113
v 0.8754581 0.2787085 -1.783167
v -0.2387412 1.633144 0.9559879
v -0.893218 1.301506 0.6597207
v -0.4539306 1.192481 -0.1886669
v -0.04054732 1.348807 -0.1693656
v -0.2387412 1.633144 0.9559879
v -0.04054732 1.348807 -0.1693656
v -0.4539306 1.192481 -0.1886669
v -0.893218 1.301506 0.6597207
v 0.3513253 1.175329 -0.8899452
v 0.03495723 1.275112 -0.4669603
v -0.7442104 1.324383 -1.061359
v -0.4278423 1.2246 -1.484344
v -1.022833 1.092328 -0.7153667
v -0.2436635 1.043057 -0.1209645
v 0.3513253 1.175329 -0.8899452
v -0.4278423 1.2246 -1.484344
v -0.7442104 1.324383 -1.061359
v 0.03495723 1.275112 -0.4669603
v -1.022833 1.092328 -0.7153667
v -0.2436635 1.043057 -0.1209645
v 0.9124931 1.064802 -0.9916365
v 0.6135071 1.079029 -1.045395
v 0.7113996 1.071664 -1.591769
v 1.010386 1.057438 -1.538011
v 0.4842186 0.906427 -1.630248
v 0.3863279 0.9137915 -1.08387
v 0.9124931 1.064802 -0.9916365
v 1.010386 1.057438 -1.538011
v 0.7113996 1.071664 -1.591769
v 0.6135071 1.079029 -1.045395
v 0.4842186 0.906427 -1.630248
v 0.3863279 0.9137915 -1.08387
v 0.1143193 1.210072 -0.1938505
v 0.07653857 1.264501 -0.4773464
v 0.5435139 1.459767 -0.5064638
v 0.5812964 1.405338 -0.2229645
v 0.5756668 1.346745 -0.7512637
v 0.1086915 1.151479 -0.7221463
v 0.1143193 1.210072 -0.1938505
v 0.5812964 1.405338 -0.2229645
v 0.5435139 1.459767 -0.5064638
v 0.07653857 1.264501 -0.4773464
v 0.5756668 1.346745 -0.7512637
v 0.1086915 1.151479 -0.7221463
v 0.5450314 0.6063566 -0.871551
v 0.08645686 0.7054486 -0.9706928
v 0.1744664 0.381638 -1.73535
v 0.633041 0.2825461 -1.636209
v -0.2361464 0.2063918 -1.70866
v -0.3241576 0.5302023 -0.9439976
v 0.5450314 0.6063566 -0.871551
v 0.633041 0.2825461 -1.636209
v 0.1744664 0.381638 -1.73535
v 0.08645686 0.7054486 -0.9706928
v -0.2361464 0.2063918 -1.70866
v -0.3241576 0.5302023 -0.9439976
v -0.8141909 0.3058926 -0.60712
v -1.147238 0.4735042 -0.5010154
v -1.270616 0.6543303 -1.173917
v -0.9375687 0.4867187 -1.280022
v -1.622046 0.5830878 -1.128626
v -1.49867 0.4022616 -0.4557276
v -0.8141909 0.3058926 -0.60712
v -0.9375687 0.4867187 -1.280022
v -1.270616 0.6543303 -1.173917
v -1.147238 0.4735042 -0.5010154
v -1.622046 0.5830878 -1.128626
v -1.49867 0.4022616 -0.4557276
v -0.7903121 0.04308054 1.601389
v -1.527452 0.04308054 -0.5041611
v 0.3638455 0.04308054 -1.166294
v 1.153576 0.04308054 1.089476
v 1.243616 1.274435 -0.9272643
v 1.091139 1.211744 -0.5395467
v 0.705062 1.312028 -0.6751616
v 0.8575383 1.374719 -1.062879
v 1.243616 1.274435 -0.9272643
v 0.8575383 1.374719 -1.062879
v 0.705062 1.312028 -0.6751616
v 1.091139 1.211744 -0.5395467
v -0.8018757 0.4465117 -0.07744654
v -1.183032 0.5734698 0.04945398
v -1.31793 0.5673845 -0.3496326
v -0.9367734 0.4404264 -0.4765331
v -0.8018757 0.4465117 -0.07744654
v -0.9367734 0.4404264 -0.4765331
v -1.31793 0.5673845 -0.3496326
v -1.183032 0.5734698 0.04945398

vn 0.5498286 0.8350554 -0.0192627
vn 0.5498286 0.8350554 -0.0192627
vn 0.5498286 0.8350554 -0.01926273
vn 0.5498286 0.8350554 -0.0192627
vn -0.5498286 -0.8350554 0.01926267
vn -0.5498286 -0.8350554 0.0192627
vn -0.5498286 -0.8350554 0.01926267
vn -0.5498286 -0.8350554 0.0192627
vn -0.06199341 -0.9223127 -0.3814395
vn -0.06199339 -0.9223127 -0.3814395
vn -0.06199342 -0.9223127 -0.3814394
vn -0.06199339 -0.9223127 -0.3814394
vn 0.06199338 0.9223128 0.3814393
vn 0.06199338 0.9223127 0.3814393
vn 0.06199338 0.9223128 0.3814393
vn 0.06199338 0.9223128 0.3814393
vn -0.2326758 0.9230618 -0.3062988
vn -0.2326758 0.9230618 -0.3062987
vn -0.2326758 0.9230618 -0.3062987
vn -0.2326758 0.9230618 -0.3062987
vn 0.2326757 -0.9230618 0.3062988
vn 0.2326758 -0.9230618 0.3062988
vn 0.2326758 -0.9230618 0.3062988
vn 0.2326758 -0.9230618 0.3062988
vn -0.2065338 -0.9643387 -0.1655135
vn -0.2065338 -0.9643387 -0.1655135
vn -0.2065338 -0.9643387 -0.1655135
vn -0.2065338 -0.9643387 -0.1655135
vn 0.2065338 0.9643387 0.1655134
vn 0.2065337 0.9643387 0.1655134
vn 0.2065337 0.9643387 0.1655134
vn 0.2065338 0.9643387 0.1655134
vn 0.4047622 0.9008217 -0.1571236
vn 0.4047622 0.9008217 -0.1571236
vn 0.4047623 0.9008217 -0.1571236
vn 0.4047622 0.9008217 -0.1571236
vn -0.4047623 -0.9008217 0.1571236
vn -0.4047623 -0.9008217 0.1571236
vn -0.4047623 -0.9008217 0.1571236
vn -0.4047623 -0.9008217 0.1571236
vn 0.0336571 0.9813372 0.1893267
vn -0.1020395 0.9895996 -0.1013926
vn -0.1020395 0.9895996 -0.1013926
vn 0.03365709 0.9813372 0.1893267
vn -0.2358745 0.8849315 -0.4015713
vn -0.2358745 0.8849315 -0.4015713
vn -0.03365719 -0.9813371 -0.1893267
vn -0.03365721 -0.9813371 -0.1893267
vn 0.1020395 -0.9895996 0.1013926
vn 0.1020395 -0.9895996 0.1013926
vn 0.2358745 -0.8849315 0.4015713
vn 0.2358745 -0.8849315 0.4015713
vn -0.01826057 0.998817 0.04506672
vn 0.1770903 0.9621973 -0.2069188
vn 0.1770901 0.9621974 -0.2069186
vn -0.01826058 0.998817 0.04506673
vn 0.3662973 0.8125343 -0.4534473
vn 0.3662973 0.8125343 -0.4534472
vn 0.01826067 -0.998817 -0.04506671
vn 0.01826067 -0.998817 -0.04506671
vn -0.1770902 -0.9621973 0.2069187
vn -0.1770904 -0.9621972 0.206919
vn -0.3662974 -0.8125341 0.4534474
vn -0.3662974 -0.8125341 0.4534474
vn -0.02726497 0.9043832 -0.4258493
vn 0.2663592 0.9161314 -0.2995931
vn 0.2681074 0.9159104 -0.2987083
vn -0.02726495 0.9043832 -0.4258494
vn 0.5523558 0.8235596 -0.1290447
vn 0.5523558 0.8235597 -0.1290447
vn 0.02726507 -0.9043832 0.4258495
vn 0.02726507 -0.9043832 0.4258495
vn -0.2681072 -0.9159104 0.2987083
vn -0.266359 -0.9161315 0.2995932
vn -0.5523558 -0.8235596 0.1290445
vn -0.5523558 -0.8235597 0.1290445
vn 0.1837314 0.8975339 0.4008437
vn 0.3705226 0.9179011 0.1420231
vn 0.3715702 0.9177333 0.140361
vn 0.1837314 0.8975339 0.4008437
vn 0.5293634 0.8344191 -0.1533597
vn 0.5293634 0.8344191 -0.1533597
vn -0.1837314 -0.8975338 -0.4008438
vn -0.1837314 -0.8975338 -0.4008438
vn -0.3715702 -0.9177333 -0.140361
vn -0.3705227 -0.9179011 -0.1420231
vn -0.5293634 -0.8344191 0.1533597
vn -0.5293634 -0.8344191 0.1533597
vn -0.3513713 0.8647225 0.3588775
vn -0.2834659 0.9571571 0.05913784
vn -0.283466 0.9571571 0.05913794
vn -0.3513714 0.8647225 0.3588775
vn -0.1781139 0.9464899 -0.2691325
vn -0.1781139 0.9464899 -0.2691325
vn 0.3513713 -0.8647225 -0.3588775
vn 0.3513713 -0.8647225 -0.3588775
vn 0.283466 -0.9571571 -0.05913787
vn 0.2834659 -0.9571571 -0.05913781
vn 0.1781139 -0.9464899 0.2691325
vn 0.1781139 -0.9464899 0.2691326
vn 0 1 0
vn 0 1 0
vn 0 1 0
vn 0 1 0
vn -0.2765694 0.9597924 0.04804211
vn -0.2765694 0.9597924 0.0480421
vn -0.2765693 0.9597924 0.0480421
vn -0.2765693 0.9597924 0.0480421
vn 0.2765692 -0.9597924 -0.04804212
vn 0.2765693 -0.9597924 -0.04804213
vn 0.2765692 -0.9597924 -0.04804212
vn 0.2765693 -0.9597924 -0.04804213
vn -0.03374183 0.9534073 0.2997932
vn -0.03374185 0.9534073 0.2997932
vn -0.03374185 0.9534073 0.2997932
vn -0.03374185 0.9534073 0.2997932
vn 0.03374172 -0.9534073 -0.2997932
vn 0.03374171 -0.9534073 -0.2997932
vn 0.0337417 -0.9534073 -0.2997932
vn 0.0337417 -0.9534073 -0.2997932

vt 0.7475586 0.06384277
vt 0.7514648 0.1036377
vt 0.7827148 0.1065674
vt 0.7827148 0.05969238
vt 0.7475586 0.06384277
vt 0.7827148 0.05969238
vt 0.7827148 0.1065674
vt 0.7514648 0.1036377
vt 0.7475586 0.06384277
vt 0.7514648 0.1036377
vt 0.7827148 0.1065674
vt 0.7827148 0.05969238
vt 0.7475586 0.06384277
vt 0.7827148 0.05969238
vt 0.7827148 0.1065674
vt 0.7514648 0.1036377
vt 0.7104492 0.08880615
vt 0.7104492 0.1160889
vt 0.7470703 0.1010742
vt 0.7436523 0.09014893
vt 0.7436523 0.09014893
vt 0.7470703 0.1010742
vt 0.7104492 0.1160889
vt 0.7104492 0.08880615
vt 0.7104492 0.1172485
vt 0.7104492 0.144165
vt 0.7451172 0.144165
vt 0.7504883 0.1300049
vt 0.7104492 0.1172485
vt 0.7504883 0.1300049
vt 0.7451172 0.144165
vt 0.7104492 0.144165
vt 0.7104492 0.1172485
vt 0.7104492 0.144165
vt 0.7451172 0.144165
vt 0.7504883 0.1300049
vt 0.7104492 0.1172485
vt 0.7504883 0.1300049
vt 0.7451172 0.144165
vt 0.7104492 0.144165
vt 0.6503906 0.03137207
vt 0.6503906 0.05950928
vt 0.7075195 0.05950928
vt 0.7075195 0.03137207
vt 0.7075195 0.08551025
vt 0.6503906 0.08551025
vt 0.6503906 0.03137207
vt 0.7075195 0.03137207
vt 0.7075195 0.05950928
vt 0.6503906 0.05950928
vt 0.7075195 0.08551025
vt 0.6503906 0.08551025
vt 0.6503906 0.03137207
vt 0.6503906 0.05950928
vt 0.7075195 0.05950928
vt 0.7075195 0.03137207
vt 0.7075195 0.08551025
vt 0.6503906 0.08551025
vt 0.6503906 0.03137207
vt 0.7075195 0.03137207
vt 0.7075195 0.05950928
vt 0.6503906 0.05950928
vt 0.7075195 0.08551025
vt 0.6503906 0.08551025
vt 0.6503906 0.08843994
vt 0.6503906 0.1165771
vt 0.7075195 0.1165771
vt 0.7075195 0.08843994
vt 0.7075195 0.1425781
vt 0.6503906 0.1425781
vt 0.6503906 0.08843994
vt 0.7075195 0.08843994
vt 0.7075195 0.1165771
vt 0.6503906 0.1165771
vt 0.7075195 0.1425781
vt 0.6503906 0.1425781
vt 0.6503906 0.08843994
vt 0.6503906 0.1165771
vt 0.7075195 0.1165771
vt 0.7075195 0.08843994
vt 0.7075195 0.1425781
vt 0.6503906 0.1425781
vt 0.6503906 0.08843994
vt 0.7075195 0.08843994
vt 0.7075195 0.1165771
vt 0.6503906 0.1165771
vt 0.7075195 0.1425781
vt 0.6503906 0.1425781
vt 0.6503906 0.03137207
vt 0.6503906 0.05950928
vt 0.7075195 0.05950928
vt 0.7075195 0.03137207
vt 0.7075195 0.08551025
vt 0.6503906 0.08551025
vt 0.6503906 0.03137207
vt 0.7075195 0.03137207
vt 0.7075195 0.05950928
vt 0.6503906 0.05950928
vt 0.7075195 0.08551025
vt 0.6503906 0.08551025
vt 0.7104492 0.0682373
vt 0.7104492 0.144165
vt 0.7827148 0.144165
vt 0.7827148 0.05969238
vt 0.6601563 0.02832031
vt 0.6875 0.02832031
vt 0.6875 0.002780914
vt 0.6601563 0.002780914
vt 0.6601563 0.02832031
vt 0.6601563 0.002780914
vt 0.6875 0.002780914
vt 0.6875 0.02832031
vt 0.6601563 0.02832031
vt 0.6875 0.02832031
vt 0.6875 0.002780914
vt 0.6601563 0.002780914
vt 0.6601563 0.02832031
vt 0.6601563 0.002780914
vt 0.6875 0.002780914
vt 0.6875 0.02832031

g alpha_2587_553
usemtl alpha_2587_553
usemap alpha_2587_553
f 1/1/1 3/3/3 2/2/2
f 1/1/1 4/4/4 3/3/3
f 5/5/5 7/7/7 6/6/6
f 5/5/5 8/8/8 7/7/7
f 9/9/9 11/11/11 10/10/10
f 9/9/9 12/12/12 11/11/11
f 13/13/13 15/15/15 14/14/14
f 13/13/13 16/16/16 15/15/15
f 17/17/17 19/19/19 18/18/18
f 17/17/17 20/20/20 19/19/19
f 21/21/21 23/23/23 22/22/22
f 21/21/21 24/24/24 23/23/23
f 25/25/25 27/27/27 26/26/26
f 25/25/25 28/28/28 27/27/27
f 29/29/29 31/31/31 30/30/30
f 29/29/29 32/32/32 31/31/31
f 33/33/33 35/35/35 34/34/34
f 33/33/33 36/36/36 35/35/35
f 37/37/37 39/39/39 38/38/38
f 37/37/37 40/40/40 39/39/39
f 41/41/41 43/43/43 42/42/42
f 41/41/41 44/44/44 43/43/43
f 42/42/42 43/43/43 45/45/45
f 42/42/42 45/45/45 46/46/46
f 47/47/47 49/49/49 48/48/48
f 47/47/47 50/50/50 49/49/49
f 50/50/50 51/51/51 49/49/49
f 50/50/50 52/52/52 51/51/51
f 53/53/53 55/55/55 54/54/54
f 53/53/53 56/56/56 55/55/55
f 54/54/54 55/55/55 57/57/57
f 54/54/54 57/57/57 58/58/58
f 59/59/59 61/61/61 60/60/60
f 59/59/59 62/62/62 61/61/61
f 62/62/62 63/63/63 61/61/61
f 62/62/62 64/64/64 63/63/63
f 65/65/65 67/67/67 66/66/66
f 65/65/65 68/68/68 67/67/67
f 66/66/66 67/67/67 69/69/69
f 66/66/66 69/69/69 70/70/70
f 71/71/71 73/73/73 72/72/72
f 71/71/71 74/74/74 73/73/73
f 74/74/74 75/75/75 73/73/73
f 74/74/74 76/76/76 75/75/75
f 77/77/77 79/79/79 78/78/78
f 77/77/77 80/80/80 79/79/79
f 78/78/78 79/79/79 81/81/81
f 78/78/78 81/81/81 82/82/82
f 83/83/83 85/85/85 84/84/84
f 83/83/83 86/86/86 85/85/85
f 86/86/86 87/87/87 85/85/85
f 86/86/86 88/88/88 87/87/87
f 89/89/89 91/91/91 90/90/90
f 89/89/89 92/92/92 91/91/91
f 90/90/90 91/91/91 93/93/93
f 90/90/90 93/93/93 94/94/94
f 95/95/95 97/97/97 96/96/96
f 95/95/95 98/98/98 97/97/97
f 98/98/98 99/99/99 97/97/97
f 98/98/98 100/100/100 99/99/99
f 101/101/101 103/103/103 102/102/102
f 101/101/101 104/104/104 103/103/103
f 105/105/105 107/107/107 106/106/106
f 105/105/105 108/108/108 107/107/107
f 109/109/109 111/111/111 110/110/110
f 109/109/109 112/112/112 111/111/111
f 113/113/113 115/115/115 114/114/114
f 113/113/113 116/116/116 115/115/115
f 117/117/117 119/119/119 118/118/118
f 117/117/117 120/120/120 119/119/119
