#alpha_1354_229.obj

v 1.148567 1.450531 -0.4521885
v 0.1122265 1.016875 -0.6184912
v 0.1818447 0.6037095 -1.380336
v 1.427095 1.054437 -1.303457
v 1.148567 1.450531 -0.4521885
v 1.427095 1.054437 -1.303457
v 0.1818447 0.6037095 -1.380336
v 0.1122265 1.016875 -0.6184912
v -0.884407 0.4740292 0.1089592
v -0.7675362 0.1615131 -0.9765778
v -1.545094 0.334074 -1.325274
v -1.807945 0.7336949 -0.08796787
v -0.884407 0.4740292 0.1089592
v -1.807945 0.7336949 -0.08796787
v -1.545094 0.334074 -1.325274
v -0.7675362 0.1615131 -0.9765778
v -1.100746 0.2455475 -1.547602
v -0.5300407 0.5301423 -2.034649
v -0.1397247 0.2242582 -1.041759
v -0.4293327 0.1276793 -0.9213438
v -0.4293327 0.1276793 -0.9213438
v -0.1397247 0.2242582 -1.041759
v -0.5300407 0.5301423 -2.034649
v -1.100746 0.2455475 -1.547602
v 1.277975 0.4362061 -1.12039
v 0.8754578 0.2787085 -1.783165
v 0.04902077 0.4464521 -1.321114
v 0.1275253 0.5558723 -0.8997326
v 1.277975 0.4362061 -1.12039
v 0.1275253 0.5558723 -0.8997326
v 0.04902077 0.4464521 -1.321114
v 0.8754578 0.2787085 -1.783165
v -0.2387409 1.633144 0.955986
v -0.893219 1.301506 0.6597223
v -0.4539318 1.192481 -0.1886683
v -0.04054642 1.348807 -0.1693659
v -0.2387409 1.633144 0.955986
v -0.04054642 1.348807 -0.1693659
v -0.4539318 1.192481 -0.1886683
v -0.893219 1.301506 0.6597223
v 0.351326 1.175329 -0.889946
v 0.03495789 1.275112 -0.4669609
v -0.7442112 1.324383 -1.06136
v -0.4278412 1.2246 -1.484344
v -1.022833 1.092328 -0.7153645
v -0.2436638 1.043057 -0.1209655
v 0.351326 1.175329 -0.889946
v -0.4278412 1.2246 -1.484344
v -0.7442112 1.324383 -1.06136
v 0.03495789 1.275112 -0.4669609
v -1.022833 1.092328 -0.7153645
v -0.2436638 1.043057 -0.1209655
v 0.9124928 1.064802 -0.9916353
v 0.6135082 1.079029 -1.045395
v 0.711401 1.071664 -1.591769
v 1.010384 1.057438 -1.538011
v 0.4842186 0.906427 -1.630245
v 0.3863258 0.9137915 -1.08387
v 0.9124928 1.064802 -0.9916353
v 1.010384 1.057438 -1.538011
v 0.711401 1.071664 -1.591769
v 0.6135082 1.079029 -1.045395
v 0.4842186 0.906427 -1.630245
v 0.3863258 0.9137915 -1.08387
v 0.1143188 1.210072 -0.1938486
v 0.07653809 1.264501 -0.4773474
v 0.5435143 1.459767 -0.506464
v 0.581295 1.405338 -0.2229648
v 0.5756683 1.346745 -0.7512636
v 0.1086903 1.151479 -0.722147
v 0.1143188 1.210072 -0.1938486
v 0.581295 1.405338 -0.2229648
v 0.5435143 1.459767 -0.506464
v 0.07653809 1.264501 -0.4773474
v 0.5756683 1.346745 -0.7512636
v 0.1086903 1.151479 -0.722147
v 0.5450306 0.6063566 -0.8715496
v 0.0864563 0.7054486 -0.9706907
v 0.1744652 0.381638 -1.735351
v 0.6330414 0.2825461 -1.636209
v -0.236145 0.2063918 -1.708658
v -0.3241558 0.5302023 -0.9439983
v 0.5450306 0.6063566 -0.8715496
v 0.6330414 0.2825461 -1.636209
v 0.1744652 0.381638 -1.735351
v 0.0864563 0.7054486 -0.9706907
v -0.236145 0.2063918 -1.708658
v -0.3241558 0.5302023 -0.9439983
v -0.8141937 0.3058926 -0.6071205
v -1.14724 0.4735042 -0.5010157
v -1.270615 0.6543303 -1.173917
v -0.9375687 0.4867187 -1.280022
v -1.622046 0.5830878 -1.128628
v -1.498671 0.4022616 -0.4557266
v -0.8141937 0.3058926 -0.6071205
v -0.9375687 0.4867187 -1.280022
v -1.270615 0.6543303 -1.173917
v -1.14724 0.4735042 -0.5010157
v -1.622046 0.5830878 -1.128628
v -1.498671 0.4022616 -0.4557266
v -0.7903137 0.04308054 1.601388
v -1.527452 0.04308054 -0.5041599
v 0.3638458 0.04308054 -1.166292
v 1.153576 0.04308054 1.089474
v 1.243614 1.274435 -0.9272642
v 1.091139 1.211744 -0.539547
v 0.7050629 1.312028 -0.6751623
v 0.8575382 1.374719 -1.06288
v 1.243614 1.274435 -0.9272642
v 0.8575382 1.374719 -1.06288
v 0.7050629 1.312028 -0.6751623
v 1.091139 1.211744 -0.539547
v -0.8018761 0.4465117 -0.07744741
v -1.183033 0.5734698 0.04945374
v -1.31793 0.5673845 -0.3496323
v -0.9367733 0.4404263 -0.4765329
v -0.8018761 0.4465117 -0.07744741
v -0.9367733 0.4404263 -0.4765329
v -1.31793 0.5673845 -0.3496323
v -1.183033 0.5734698 0.04945374

vn -0.2727564 0.8350554 -0.4777933
vn -0.2727564 0.8350554 -0.4777933
vn -0.2727565 0.8350554 -0.4777933
vn -0.2727564 0.8350554 -0.4777933
vn 0.2727564 -0.8350554 0.4777933
vn 0.2727564 -0.8350554 0.4777933
vn 0.2727564 -0.8350554 0.4777933
vn 0.2727564 -0.8350554 0.4777933
vn -0.3088496 -0.9223127 0.2322739
vn -0.3088496 -0.9223127 0.2322739
vn -0.3088496 -0.9223127 0.2322739
vn -0.3088496 -0.9223127 0.2322739
vn 0.3088495 0.9223128 -0.2322738
vn 0.3088495 0.9223127 -0.2322738
vn 0.3088495 0.9223128 -0.2322738
vn 0.3088495 0.9223128 -0.2322738
vn -0.1629515 0.9230618 0.3484304
vn -0.1629515 0.9230618 0.3484304
vn -0.1629515 0.9230618 0.3484304
vn -0.1629515 0.9230618 0.3484304
vn 0.1629515 -0.9230618 -0.3484304
vn 0.1629515 -0.9230618 -0.3484304
vn 0.1629515 -0.9230618 -0.3484304
vn 0.1629515 -0.9230618 -0.3484304
vn -0.05047486 -0.9643387 0.2598138
vn -0.05047486 -0.9643387 0.2598138
vn -0.05047486 -0.9643387 0.2598138
vn -0.05047486 -0.9643387 0.2598138
vn 0.05047484 0.9643387 -0.2598137
vn 0.05047484 0.9643387 -0.2598137
vn 0.05047484 0.9643387 -0.2598137
vn 0.05047484 0.9643387 -0.2598137
vn -0.3273371 0.9008217 -0.2852554
vn -0.3273371 0.9008217 -0.2852554
vn -0.3273371 0.9008217 -0.2852555
vn -0.3273371 0.9008217 -0.2852554
vn 0.3273371 -0.9008217 0.2852555
vn 0.3273371 -0.9008217 0.2852555
vn 0.3273371 -0.9008217 0.2852555
vn 0.3273371 -0.9008217 0.2852555
vn 0.1519544 0.9813372 -0.1178443
vn -0.04230618 0.9895996 0.1374871
vn -0.04230615 0.9895996 0.1374871
vn 0.1519544 0.9813372 -0.1178443
vn -0.2458066 0.8849315 0.3955697
vn -0.2458066 0.8849315 0.3955697
vn -0.1519543 -0.9813371 0.1178444
vn -0.1519543 -0.9813371 0.1178444
vn 0.04230615 -0.9895996 -0.1374871
vn 0.04230618 -0.9895996 -0.1374871
vn 0.2458066 -0.8849315 -0.3955697
vn 0.2458066 -0.8849315 -0.3955697
vn 0.04838888 0.998817 -0.004793053
vn -0.2655385 0.9621973 -0.06054452
vn -0.2655382 0.9621974 -0.06054446
vn 0.04838889 0.998817 -0.004793053
vn -0.5717776 0.8125343 -0.1133948
vn -0.5717776 0.8125343 -0.1133948
vn -0.04838892 -0.998817 0.004792968
vn -0.04838892 -0.998817 0.004792968
vn 0.2655384 -0.9621973 0.06054444
vn 0.2655388 -0.9621972 0.0605445
vn 0.5717779 -0.8125341 0.1133948
vn 0.5717779 -0.8125341 0.1133948
vn -0.3643155 0.9043832 0.2221828
vn -0.3890965 0.9161314 -0.0964732
vn -0.3891263 0.9159104 -0.09843237
vn -0.3643156 0.9043832 0.2221828
vn -0.3711194 0.8235596 -0.4289753
vn -0.3711194 0.8235597 -0.4289753
vn 0.3643156 -0.9043832 -0.222183
vn 0.3643156 -0.9043832 -0.222183
vn 0.3891262 -0.9159104 0.09843221
vn 0.3890965 -0.9161315 0.09647306
vn 0.3711193 -0.8235596 0.4289754
vn 0.3711193 -0.8235597 0.4289754
vn 0.2694122 0.8975339 -0.3490701
vn -0.04658541 0.9179011 -0.3940652
vn -0.04854403 0.9177333 -0.3942195
vn 0.2694122 0.8975339 -0.3490701
vn -0.381952 0.8344191 -0.3973126
vn -0.381952 0.8344191 -0.3973127
vn -0.2694123 -0.8975338 0.3490701
vn -0.2694123 -0.8975338 0.3490701
vn 0.04854404 -0.9177333 0.3942196
vn 0.04658542 -0.9179011 0.3940653
vn 0.3819521 -0.8344191 0.3973126
vn 0.3819521 -0.8344191 0.3973126
vn 0.4811156 0.8647225 0.1441618
vn 0.1841823 0.9571571 0.2234437
vn 0.1841824 0.9571571 0.2234437
vn 0.4811156 0.8647225 0.1441619
vn -0.1554235 0.9464899 0.2828434
vn -0.1554235 0.9464899 0.2828434
vn -0.4811156 -0.8647225 -0.1441618
vn -0.4811156 -0.8647225 -0.1441619
vn -0.1841823 -0.9571571 -0.2234437
vn -0.1841823 -0.9571571 -0.2234437
vn 0.1554236 -0.9464899 -0.2828434
vn 0.1554236 -0.9464899 -0.2828434
vn 0 1 0
vn 0 1 0
vn 0 1 0
vn 0 1 0
vn 0.1711521 0.9597924 0.2224985
vn 0.1711521 0.9597924 0.2224985
vn 0.1711521 0.9597924 0.2224985
vn 0.1711521 0.9597924 0.2224985
vn -0.1711521 -0.9597924 -0.2224984
vn -0.1711521 -0.9597924 -0.2224984
vn -0.1711521 -0.9597924 -0.2224984
vn -0.1711521 -0.9597924 -0.2224984
vn 0.2810926 0.9534073 -0.1095511
vn 0.2810926 0.9534073 -0.1095511
vn 0.2810926 0.9534073 -0.1095511
vn 0.2810926 0.9534073 -0.1095511
vn -0.2810926 -0.9534073 0.1095512
vn -0.2810925 -0.9534073 0.1095512
vn -0.2810925 -0.9534073 0.1095512
vn -0.2810925 -0.9534073 0.1095512

vt 0.7475586 0.06384277
vt 0.7514648 0.1036377
vt 0.7827148 0.1065674
vt 0.7827148 0.05969238
vt 0.7475586 0.06384277
vt 0.7827148 0.05969238
vt 0.7827148 0.1065674
vt 0.7514648 0.1036377
vt 0.7475586 0.06384277
vt 0.7514648 0.1036377
vt 0.7827148 0.1065674
vt 0.7827148 0.05969238
vt 0.7475586 0.06384277
vt 0.7827148 0.05969238
vt 0.7827148 0.1065674
vt 0.7514648 0.1036377
vt 0.7104492 0.08880615
vt 0.7104492 0.1160889
vt 0.7470703 0.1010742
vt 0.7436523 0.09014893
vt 0.7436523 0.09014893
vt 0.7470703 0.1010742
vt 0.7104492 0.1160889
vt 0.7104492 0.08880615
vt 0.7104492 0.1172485
vt 0.7104492 0.144165
vt 0.7451172 0.144165
vt 0.7504883 0.1300049
vt 0.7104492 0.1172485
vt 0.7504883 0.1300049
vt 0.7451172 0.144165
vt 0.7104492 0.144165
vt 0.7104492 0.1172485
vt 0.7104492 0.144165
vt 0.7451172 0.144165
vt 0.7504883 0.1300049
vt 0.7104492 0.1172485
vt 0.7504883 0.1300049
vt 0.7451172 0.144165
vt 0.7104492 0.144165
vt 0.6503906 0.03137207
vt 0.6503906 0.05950928
vt 0.7075195 0.05950928
vt 0.7075195 0.03137207
vt 0.7075195 0.08551025
vt 0.6503906 0.08551025
vt 0.6503906 0.03137207
vt 0.7075195 0.03137207
vt 0.7075195 0.05950928
vt 0.6503906 0.05950928
vt 0.7075195 0.08551025
vt 0.6503906 0.08551025
vt 0.6503906 0.03137207
vt 0.6503906 0.05950928
vt 0.7075195 0.05950928
vt 0.7075195 0.03137207
vt 0.7075195 0.08551025
vt 0.6503906 0.08551025
vt 0.6503906 0.03137207
vt 0.7075195 0.03137207
vt 0.7075195 0.05950928
vt 0.6503906 0.05950928
vt 0.7075195 0.08551025
vt 0.6503906 0.08551025
vt 0.6503906 0.08843994
vt 0.6503906 0.1165771
vt 0.7075195 0.1165771
vt 0.7075195 0.08843994
vt 0.7075195 0.1425781
vt 0.6503906 0.1425781
vt 0.6503906 0.08843994
vt 0.7075195 0.08843994
vt 0.7075195 0.1165771
vt 0.6503906 0.1165771
vt 0.7075195 0.1425781
vt 0.6503906 0.1425781
vt 0.6503906 0.08843994
vt 0.6503906 0.1165771
vt 0.7075195 0.1165771
vt 0.7075195 0.08843994
vt 0.7075195 0.1425781
vt 0.6503906 0.1425781
vt 0.6503906 0.08843994
vt 0.7075195 0.08843994
vt 0.7075195 0.1165771
vt 0.6503906 0.1165771
vt 0.7075195 0.1425781
vt 0.6503906 0.1425781
vt 0.6503906 0.03137207
vt 0.6503906 0.05950928
vt 0.7075195 0.05950928
vt 0.7075195 0.03137207
vt 0.7075195 0.08551025
vt 0.6503906 0.08551025
vt 0.6503906 0.03137207
vt 0.7075195 0.03137207
vt 0.7075195 0.05950928
vt 0.6503906 0.05950928
vt 0.7075195 0.08551025
vt 0.6503906 0.08551025
vt 0.7104492 0.0682373
vt 0.7104492 0.144165
vt 0.7827148 0.144165
vt 0.7827148 0.05969238
vt 0.6601563 0.02832031
vt 0.6875 0.02832031
vt 0.6875 0.002780914
vt 0.6601563 0.002780914
vt 0.6601563 0.02832031
vt 0.6601563 0.002780914
vt 0.6875 0.002780914
vt 0.6875 0.02832031
vt 0.6601563 0.02832031
vt 0.6875 0.02832031
vt 0.6875 0.002780914
vt 0.6601563 0.002780914
vt 0.6601563 0.02832031
vt 0.6601563 0.002780914
vt 0.6875 0.002780914
vt 0.6875 0.02832031

g alpha_1354_229
usemtl alpha_1354_229
usemap alpha_1354_229
f 1/1/1 3/3/3 2/2/2
f 1/1/1 4/4/4 3/3/3
f 5/5/5 7/7/7 6/6/6
f 5/5/5 8/8/8 7/7/7
f 9/9/9 11/11/11 10/10/10
f 9/9/9 12/12/12 11/11/11
f 13/13/13 15/15/15 14/14/14
f 13/13/13 16/16/16 15/15/15
f 17/17/17 19/19/19 18/18/18
f 17/17/17 20/20/20 19/19/19
f 21/21/21 23/23/23 22/22/22
f 21/21/21 24/24/24 23/23/23
f 25/25/25 27/27/27 26/26/26
f 25/25/25 28/28/28 27/27/27
f 29/29/29 31/31/31 30/30/30
f 29/29/29 32/32/32 31/31/31
f 33/33/33 35/35/35 34/34/34
f 33/33/33 36/36/36 35/35/35
f 37/37/37 39/39/39 38/38/38
f 37/37/37 40/40/40 39/39/39
f 41/41/41 43/43/43 42/42/42
f 41/41/41 44/44/44 43/43/43
f 42/42/42 43/43/43 45/45/45
f 42/42/42 45/45/45 46/46/46
f 47/47/47 49/49/49 48/48/48
f 47/47/47 50/50/50 49/49/49
f 50/50/50 51/51/51 49/49/49
f 50/50/50 52/52/52 51/51/51
f 53/53/53 55/55/55 54/54/54
f 53/53/53 56/56/56 55/55/55
f 54/54/54 55/55/55 57/57/57
f 54/54/54 57/57/57 58/58/58
f 59/59/59 61/61/61 60/60/60
f 59/59/59 62/62/62 61/61/61
f 62/62/62 63/63/63 61/61/61
f 62/62/62 64/64/64 63/63/63
f 65/65/65 67/67/67 66/66/66
f 65/65/65 68/68/68 67/67/67
f 66/66/66 67/67/67 69/69/69
f 66/66/66 69/69/69 70/70/70
f 71/71/71 73/73/73 72/72/72
f 71/71/71 74/74/74 73/73/73
f 74/74/74 75/75/75 73/73/73
f 74/74/74 76/76/76 75/75/75
f 77/77/77 79/79/79 78/78/78
f 77/77/77 80/80/80 79/79/79
f 78/78/78 79/79/79 81/81/81
f 78/78/78 81/81/81 82/82/82
f 83/83/83 85/85/85 84/84/84
f 83/83/83 86/86/86 85/85/85
f 86/86/86 87/87/87 85/85/85
f 86/86/86 88/88/88 87/87/87
f 89/89/89 91/91/91 90/90/90
f 89/89/89 92/92/92 91/91/91
f 90/90/90 91/91/91 93/93/93
f 90/90/90 93/93/93 94/94/94
f 95/95/95 97/97/97 96/96/96
f 95/95/95 98/98/98 97/97/97
f 98/98/98 99/99/99 97/97/97
f 98/98/98 100/100/100 99/99/99
f 101/101/101 103/103/103 102/102/102
f 101/101/101 104/104/104 103/103/103
f 105/105/105 107/107/107 106/106/106
f 105/105/105 108/108/108 107/107/107
f 109/109/109 111/111/111 110/110/110
f 109/109/109 112/112/112 111/111/111
f 113/113/113 115/115/115 114/114/114
f 113/113/113 116/116/116 115/115/115
f 117/117/117 119/119/119 118/118/118
f 117/117/117 120/120/120 119/119/119
