#Alpha_3040_483.obj

v -0.3356439 0.2777315 1.03639
v -1.129507 0.1608478 1.030809
v -0.6717886 0.07648957 0.02328092
v -0.3645819 0.1362255 0.1220448
v -0.3645819 0.1362255 0.1220448
v -0.6717886 0.07648957 0.02328092
v -1.129507 0.1608478 1.030809
v -0.3356439 0.2777315 1.03639
v -0.4905641 0.3428391 -1.164054
v 0.2181334 0.6808587 -0.9985237
v -0.2479941 0.1965102 -0.1154196
v -0.5167465 0.09337044 -0.2730059
v -0.5167465 0.09337044 -0.2730059
v -0.2479941 0.1965102 -0.1154196
v 0.2181334 0.6808587 -0.9985237
v -0.4905641 0.3428391 -1.164054
v -0.2326063 0.5319947 -1.231051
v 0.1448705 0.5564677 -1.045536
v -0.04219443 0.595341 -0.6700374
v -0.4196712 0.570868 -0.8555555
v -0.2326063 0.5319947 -1.231051
v -0.4196712 0.570868 -0.8555555
v -0.04219443 0.595341 -0.6700374
v 0.1448705 0.5564677 -1.045536
v -1.577806 0.6769722 -1.238495
v -0.7986341 0.6155729 -1.420243
v -1.081071 0.1934528 -0.4290029
v -1.33435 0.2472973 -0.4404863
v -1.33435 0.2472973 -0.4404863
v -1.081071 0.1934528 -0.4290029
v -0.7986341 0.6155729 -1.420243
v -1.577806 0.6769722 -1.238495
v -1.262181 0.352392 -0.9266539
v -1.225119 0.4374886 -0.5138996
v -1.992654 0.5021714 -0.4583192
v -2.029714 0.4170748 -0.8710734
v -1.981995 0.3256547 -0.1057343
v -1.214463 0.260972 -0.1613147
v -1.262181 0.352392 -0.9266539
v -2.029714 0.4170748 -0.8710734
v -1.992654 0.5021714 -0.4583192
v -1.225119 0.4374886 -0.5138996
v -1.981995 0.3256547 -0.1057343
v -1.214463 0.260972 -0.1613147
v -0.1335215 0.1441713 -0.3703896
v 0.6984795 0.3083283 -0.01782006
v -0.01006498 0.8536618 1.400317
v -0.842066 0.689505 1.047748
v 0.6124324 0.4805941 1.854795
v 1.320975 -0.06473956 0.4366582
v -0.1335215 0.1441713 -0.3703896
v -0.842066 0.689505 1.047748
v -0.01006498 0.8536618 1.400317
v 0.6984795 0.3083283 -0.01782006
v 0.6124324 0.4805941 1.854795
v 1.320975 -0.06473956 0.4366582
v -1.230245 0.3132074 -0.3083676
v -1.159846 0.4303713 -0.5654244
v -0.6906809 0.5254434 -0.3984225
v -0.7610784 0.4082797 -0.1413694
v -0.5904943 0.4599502 -0.6421621
v -1.059661 0.3648779 -0.8091602
v -1.230245 0.3132074 -0.3083676
v -0.7610784 0.4082797 -0.1413694
v -0.6906809 0.5254434 -0.3984225
v -1.159846 0.4303713 -0.5654244
v -0.5904943 0.4599502 -0.6421621
v -1.059661 0.3648779 -0.8091602
v 1.78376 0.1349387 -1.029046
v 0.9552574 0.06476724 -0.2554974
v 1.218436 0.6000682 0.3770759
v 2.246957 0.7687746 -0.4435333
v 1.78376 0.1349387 -1.029046
v 2.246957 0.7687746 -0.4435333
v 1.218436 0.6000682 0.3770759
v 0.9552574 0.06476724 -0.2554974
v -0.6399834 0.2932726 -0.004192389
v -0.3175434 0.3968586 0.2464194
v -0.5544758 0.3150785 0.5850605
v -0.8769158 0.2114925 0.3344487
v -0.6399834 0.2932726 -0.004192389
v -0.8769158 0.2114925 0.3344487
v -0.5544758 0.3150785 0.5850605
v -0.3175434 0.3968586 0.2464194
v -0.5323381 0.8070896 -0.4867397
v 0.06690363 0.9200945 -1.008324
v 0.2429774 0.06380057 -0.3245848
v -0.03876733 0.09568715 -0.1593525
v -0.03876733 0.09568715 -0.1593525
v 0.2429774 0.06380057 -0.3245848
v 0.06690363 0.9200945 -1.008324
v -0.5323381 0.8070896 -0.4867397
v 2.004287 0.08723702 0.2337117
v 0.3517022 0.08723702 1.732266
v -0.994368 0.08723702 0.2478392
v 0.7761185 0.08723702 -1.357629
v 1.236478 0.1841538 -0.03105462
v 0.8414164 0.3588783 -0.04763508
v 0.9913468 0.6289654 -0.773762
v 1.386406 0.454241 -0.7571816
v 0.6127157 0.5447261 -0.883276
v 0.4627872 0.2746389 -0.1571491
v 1.236478 0.1841538 -0.03105462
v 1.386406 0.454241 -0.7571816
v 0.9913468 0.6289654 -0.773762
v 0.8414164 0.3588783 -0.04763508
v 0.6127157 0.5447261 -0.883276
v 0.4627872 0.2746389 -0.1571491
v 1.289032 0.5592995 -0.3418568
v 1.706877 0.5662984 -0.2883615
v 1.654768 0.510341 0.1259526
v 1.236925 0.5033422 0.07245719
v 1.289032 0.5592995 -0.3418568
v 1.236925 0.5033422 0.07245719
v 1.654768 0.510341 0.1259526
v 1.706877 0.5662984 -0.2883615
v -1.583236 0.323963 -0.4377714
v -1.101543 0.5024385 -0.009550313
v -1.859046 0.4631971 0.8741781
v -2.340739 0.2847219 0.4459571
v -1.417386 0.2215902 1.242462
v -0.6598825 0.2608313 0.358734
v -1.583236 0.323963 -0.4377714
v -2.340739 0.2847219 0.4459571
v -1.859046 0.4631971 0.8741781
v -1.101543 0.5024385 -0.009550313
v -1.417386 0.2215902 1.242462
v -0.6598825 0.2608313 0.358734

vn 0.1430723 0.978743 0.146944
vn 0.1430724 0.978743 0.146944
vn 0.1430723 0.978743 0.146944
vn 0.1430723 0.978743 0.146944
vn -0.1430723 -0.978743 -0.146944
vn -0.1430723 -0.978743 -0.146944
vn -0.1430724 -0.978743 -0.146944
vn -0.1430723 -0.978743 -0.146944
vn 0.4619058 0.8575175 -0.2265099
vn 0.4619058 0.8575175 -0.2265099
vn 0.4619058 0.8575175 -0.22651
vn 0.4619058 0.8575175 -0.2265099
vn -0.4619057 -0.8575176 0.2265099
vn -0.4619057 -0.8575175 0.22651
vn -0.4619057 -0.8575176 0.22651
vn -0.4619057 -0.8575176 0.2265099
vn 0.0111432 0.9940385 0.1084585
vn 0.0111432 0.9940385 0.1084585
vn 0.0111432 0.9940385 0.1084585
vn 0.0111432 0.9940385 0.1084585
vn -0.01114324 -0.9940385 -0.1084585
vn -0.01114324 -0.9940385 -0.1084585
vn -0.01114324 -0.9940385 -0.1084585
vn -0.01114324 -0.9940385 -0.1084585
vn -0.1695224 0.8883984 -0.4266268
vn -0.1695224 0.8883984 -0.4266267
vn -0.1695224 0.8883984 -0.4266267
vn -0.1695224 0.8883984 -0.4266267
vn 0.1695224 -0.8883985 0.4266267
vn 0.1695224 -0.8883985 0.4266267
vn 0.1695224 -0.8883985 0.4266267
vn 0.1695224 -0.8883985 0.4266267
vn -0.06724007 0.9759741 0.2072517
vn -0.09152881 0.9894294 -0.1124806
vn -0.0915288 0.9894295 -0.1124804
vn -0.06724007 0.9759741 0.2072517
vn -0.1070792 0.8903502 -0.4425049
vn -0.1070792 0.8903502 -0.4425048
vn 0.06723998 -0.9759741 -0.2072517
vn 0.06723999 -0.9759741 -0.2072517
vn 0.09152873 -0.9894295 0.1124803
vn 0.09152875 -0.9894294 0.1124805
vn 0.1070792 -0.8903503 0.4425048
vn 0.1070791 -0.8903503 0.4425047
vn 0.02632488 0.9285687 0.3702258
vn -0.2620039 0.9373682 0.2295534
vn -0.2620038 0.9373683 0.2295535
vn 0.02632487 0.9285687 0.3702258
vn -0.5411927 0.8392681 0.05234018
vn -0.5411927 0.8392681 0.05234017
vn -0.02632464 -0.9285687 -0.3702259
vn -0.02632464 -0.9285687 -0.3702258
vn 0.2620039 -0.9373682 -0.2295535
vn 0.262004 -0.9373682 -0.2295534
vn 0.5411927 -0.8392681 -0.05234018
vn 0.5411927 -0.8392681 -0.05234018
vn 0.2981354 0.896737 -0.327075
vn 0.2089964 0.9774343 -0.03070339
vn 0.2083725 0.9776242 -0.02884239
vn 0.2981354 0.896737 -0.327075
vn 0.08887598 0.9521633 0.2923802
vn 0.08887599 0.9521632 0.2923802
vn -0.298135 -0.8967372 0.327075
vn -0.298135 -0.8967371 0.327075
vn -0.2083722 -0.9776242 0.02884238
vn -0.2089962 -0.9774343 0.03070337
vn -0.08887598 -0.9521632 -0.2923802
vn -0.08887599 -0.9521632 -0.2923802
vn -0.4778993 -0.7585047 -0.4430381
vn -0.4778993 -0.7585048 -0.4430381
vn -0.4778993 -0.7585048 -0.443038
vn -0.4778993 -0.7585048 -0.4430381
vn 0.4778995 0.7585047 0.443038
vn 0.4778995 0.7585047 0.443038
vn 0.4778995 0.7585046 0.4430381
vn 0.4778995 0.7585047 0.443038
vn 0.3130842 0.9496697 -0.01028981
vn 0.3130842 0.9496697 -0.0102898
vn 0.3130842 0.9496697 -0.01028981
vn 0.3130842 0.9496697 -0.0102898
vn -0.3130843 -0.9496695 0.01028978
vn -0.3130843 -0.9496696 0.01028978
vn -0.3130843 -0.9496695 0.01028978
vn -0.3130843 -0.9496696 0.01028978
vn -0.4505431 0.6117937 -0.6501688
vn -0.4505431 0.6117936 -0.6501688
vn -0.4505431 0.6117936 -0.6501688
vn -0.4505431 0.6117936 -0.6501688
vn 0.4505436 -0.6117935 0.6501687
vn 0.4505436 -0.6117934 0.6501687
vn 0.4505436 -0.6117934 0.6501687
vn 0.4505436 -0.6117934 0.6501687
vn 0 1 0
vn 0 1 0
vn 0 1 0
vn 0 1 0
vn -0.3587974 0.8482263 -0.3895851
vn -0.05082551 0.9325781 -0.3573722
vn -0.05082563 0.9325781 -0.3573722
vn -0.3587974 0.8482263 -0.3895851
vn 0.2853198 0.9160612 -0.2818234
vn 0.2853198 0.9160612 -0.2818235
vn 0.3587976 -0.8482262 0.3895851
vn 0.3587975 -0.8482262 0.3895851
vn 0.05082574 -0.932578 0.3573722
vn 0.05082558 -0.9325781 0.3573721
vn -0.2853198 -0.9160612 0.2818234
vn -0.2853198 -0.9160612 0.2818234
vn 0.0332001 0.9910014 -0.1296691
vn 0.0332001 0.9910014 -0.1296691
vn 0.0332001 0.9910014 -0.1296691
vn 0.0332001 0.9910014 -0.1296691
vn -0.03320006 -0.9910014 0.1296691
vn -0.03320006 -0.9910014 0.1296691
vn -0.03320006 -0.9910014 0.1296691
vn -0.03320006 -0.9910014 0.1296691
vn 0.224089 0.9630621 0.1493167
vn -0.01650722 0.9981526 -0.05847131
vn -0.01800454 0.998051 -0.05975026
vn 0.224089 0.9630621 0.1493167
vn -0.2740285 0.9213274 -0.2757974
vn -0.2740285 0.9213274 -0.2757974
vn -0.2240891 -0.9630621 -0.1493167
vn -0.224089 -0.9630621 -0.1493167
vn 0.01800445 -0.998051 0.05975026
vn 0.01650712 -0.9981526 0.05847131
vn 0.2740285 -0.9213274 0.2757974
vn 0.2740284 -0.9213274 0.2757974

vt 0.7104492 0.08880615
vt 0.7104492 0.1160889
vt 0.7470703 0.1010742
vt 0.7436523 0.09014893
vt 0.7436523 0.09014893
vt 0.7470703 0.1010742
vt 0.7104492 0.1160889
vt 0.7104492 0.08880615
vt 0.7104492 0.08880615
vt 0.7104492 0.1160889
vt 0.7470703 0.1010742
vt 0.7436523 0.09014893
vt 0.7436523 0.09014893
vt 0.7470703 0.1010742
vt 0.7104492 0.1160889
vt 0.7104492 0.08880615
vt 0.6601563 0.02832031
vt 0.6875 0.02832031
vt 0.6875 0.002780914
vt 0.6601563 0.002780914
vt 0.6601563 0.02832031
vt 0.6601563 0.002780914
vt 0.6875 0.002780914
vt 0.6875 0.02832031
vt 0.706543 0.09033203
vt 0.706543 0.1160889
vt 0.7412109 0.1019287
vt 0.737793 0.09161377
vt 0.737793 0.09161377
vt 0.7412109 0.1019287
vt 0.706543 0.1160889
vt 0.706543 0.09033203
vt 0.6503906 0.03137207
vt 0.6503906 0.05950928
vt 0.7075195 0.05950928
vt 0.7075195 0.03137207
vt 0.7075195 0.08551025
vt 0.6503906 0.08551025
vt 0.6503906 0.03137207
vt 0.7075195 0.03137207
vt 0.7075195 0.05950928
vt 0.6503906 0.05950928
vt 0.7075195 0.08551025
vt 0.6503906 0.08551025
vt 0.6503906 0.03137207
vt 0.6503906 0.05950928
vt 0.7075195 0.05950928
vt 0.7075195 0.03137207
vt 0.7075195 0.08551025
vt 0.6503906 0.08551025
vt 0.6503906 0.03137207
vt 0.7075195 0.03137207
vt 0.7075195 0.05950928
vt 0.6503906 0.05950928
vt 0.7075195 0.08551025
vt 0.6503906 0.08551025
vt 0.6503906 0.08843994
vt 0.6503906 0.1165771
vt 0.7075195 0.1165771
vt 0.7075195 0.08843994
vt 0.7075195 0.1425781
vt 0.6503906 0.1425781
vt 0.6503906 0.08843994
vt 0.7075195 0.08843994
vt 0.7075195 0.1165771
vt 0.6503906 0.1165771
vt 0.7075195 0.1425781
vt 0.6503906 0.1425781
vt 0.7475586 0.06384277
vt 0.7514648 0.1036377
vt 0.7827148 0.1065674
vt 0.7827148 0.05969238
vt 0.7475586 0.06384277
vt 0.7827148 0.05969238
vt 0.7827148 0.1065674
vt 0.7514648 0.1036377
vt 0.6601563 0.02832031
vt 0.6875 0.02832031
vt 0.6875 0.002780914
vt 0.6601563 0.002780914
vt 0.6601563 0.02832031
vt 0.6601563 0.002780914
vt 0.6875 0.002780914
vt 0.6875 0.02832031
vt 0.7104492 0.08880615
vt 0.7104492 0.1160889
vt 0.7470703 0.1010742
vt 0.7436523 0.09014893
vt 0.7436523 0.09014893
vt 0.7470703 0.1010742
vt 0.7104492 0.1160889
vt 0.7104492 0.08880615
vt 0.7104492 0.0682373
vt 0.7104492 0.144165
vt 0.7827148 0.144165
vt 0.7827148 0.05969238
vt 0.6503906 0.03137207
vt 0.6503906 0.05950928
vt 0.7075195 0.05950928
vt 0.7075195 0.03137207
vt 0.7075195 0.08551025
vt 0.6503906 0.08551025
vt 0.6503906 0.03137207
vt 0.7075195 0.03137207
vt 0.7075195 0.05950928
vt 0.6503906 0.05950928
vt 0.7075195 0.08551025
vt 0.6503906 0.08551025
vt 0.6601563 0.02832031
vt 0.6875 0.02832031
vt 0.6875 0.002780914
vt 0.6601563 0.002780914
vt 0.6601563 0.02832031
vt 0.6601563 0.002780914
vt 0.6875 0.002780914
vt 0.6875 0.02832031
vt 0.6503906 0.08843994
vt 0.6503906 0.1165771
vt 0.7075195 0.1165771
vt 0.7075195 0.08843994
vt 0.7075195 0.1425781
vt 0.6503906 0.1425781
vt 0.6503906 0.08843994
vt 0.7075195 0.08843994
vt 0.7075195 0.1165771
vt 0.6503906 0.1165771
vt 0.7075195 0.1425781
vt 0.6503906 0.1425781

g Alpha_3040_483
usemtl Alpha_3040_483
usemap Alpha_3040_483
f 1/1/1 3/3/3 2/2/2
f 1/1/1 4/4/4 3/3/3
f 5/5/5 7/7/7 6/6/6
f 5/5/5 8/8/8 7/7/7
f 9/9/9 11/11/11 10/10/10
f 9/9/9 12/12/12 11/11/11
f 13/13/13 15/15/15 14/14/14
f 13/13/13 16/16/16 15/15/15
f 17/17/17 19/19/19 18/18/18
f 17/17/17 20/20/20 19/19/19
f 21/21/21 23/23/23 22/22/22
f 21/21/21 24/24/24 23/23/23
f 25/25/25 27/27/27 26/26/26
f 25/25/25 28/28/28 27/27/27
f 29/29/29 31/31/31 30/30/30
f 29/29/29 32/32/32 31/31/31
f 33/33/33 35/35/35 34/34/34
f 33/33/33 36/36/36 35/35/35
f 34/34/34 35/35/35 37/37/37
f 34/34/34 37/37/37 38/38/38
f 39/39/39 41/41/41 40/40/40
f 39/39/39 42/42/42 41/41/41
f 42/42/42 43/43/43 41/41/41
f 42/42/42 44/44/44 43/43/43
f 45/45/45 47/47/47 46/46/46
f 45/45/45 48/48/48 47/47/47
f 46/46/46 47/47/47 49/49/49
f 46/46/46 49/49/49 50/50/50
f 51/51/51 53/53/53 52/52/52
f 51/51/51 54/54/54 53/53/53
f 54/54/54 55/55/55 53/53/53
f 54/54/54 56/56/56 55/55/55
f 57/57/57 59/59/59 58/58/58
f 57/57/57 60/60/60 59/59/59
f 58/58/58 59/59/59 61/61/61
f 58/58/58 61/61/61 62/62/62
f 63/63/63 65/65/65 64/64/64
f 63/63/63 66/66/66 65/65/65
f 66/66/66 67/67/67 65/65/65
f 66/66/66 68/68/68 67/67/67
f 69/69/69 71/71/71 70/70/70
f 69/69/69 72/72/72 71/71/71
f 73/73/73 75/75/75 74/74/74
f 73/73/73 76/76/76 75/75/75
f 77/77/77 79/79/79 78/78/78
f 77/77/77 80/80/80 79/79/79
f 81/81/81 83/83/83 82/82/82
f 81/81/81 84/84/84 83/83/83
f 85/85/85 87/87/87 86/86/86
f 85/85/85 88/88/88 87/87/87
f 89/89/89 91/91/91 90/90/90
f 89/89/89 92/92/92 91/91/91
f 93/93/93 95/95/95 94/94/94
f 93/93/93 96/96/96 95/95/95
f 97/97/97 99/99/99 98/98/98
f 97/97/97 100/100/100 99/99/99
f 98/98/98 99/99/99 101/101/101
f 98/98/98 101/101/101 102/102/102
f 103/103/103 105/105/105 104/104/104
f 103/103/103 106/106/106 105/105/105
f 106/106/106 107/107/107 105/105/105
f 106/106/106 108/108/108 107/107/107
f 109/109/109 111/111/111 110/110/110
f 109/109/109 112/112/112 111/111/111
f 113/113/113 115/115/115 114/114/114
f 113/113/113 116/116/116 115/115/115
f 117/117/117 119/119/119 118/118/118
f 117/117/117 120/120/120 119/119/119
f 118/118/118 119/119/119 121/121/121
f 118/118/118 121/121/121 122/122/122
f 123/123/123 125/125/125 124/124/124
f 123/123/123 126/126/126 125/125/125
f 126/126/126 127/127/127 125/125/125
f 126/126/126 128/128/128 127/127/127
