#alpha_2348_659.obj

v 1.148568 1.450531 -0.4521884
v 0.1122259 1.016875 -0.6184921
v 0.1818455 0.6037095 -1.380336
v 1.427094 1.054437 -1.303459
v 1.148568 1.450531 -0.4521884
v 1.427094 1.054437 -1.303459
v 0.1818455 0.6037095 -1.380336
v 0.1122259 1.016875 -0.6184921
v -0.884406 0.4740292 0.1089585
v -0.7675378 0.1615131 -0.9765782
v -1.545091 0.334074 -1.325274
v -1.807945 0.7336949 -0.08796745
v -0.884406 0.4740292 0.1089585
v -1.807945 0.7336949 -0.08796745
v -1.545091 0.334074 -1.325274
v -0.7675378 0.1615131 -0.9765782
v -1.100746 0.2455475 -1.547603
v -0.5300409 0.5301423 -2.034649
v -0.1397249 0.2242582 -1.041759
v -0.4293326 0.1276793 -0.9213449
v -0.4293326 0.1276793 -0.9213449
v -0.1397249 0.2242582 -1.041759
v -0.5300409 0.5301423 -2.034649
v -1.100746 0.2455475 -1.547603
v 1.277975 0.4362061 -1.120389
v 0.8754585 0.2787085 -1.783164
v 0.04902169 0.4464521 -1.321113
v 0.1275262 0.5558723 -0.8997316
v 1.277975 0.4362061 -1.120389
v 0.1275262 0.5558723 -0.8997316
v 0.04902169 0.4464521 -1.321113
v 0.8754585 0.2787085 -1.783164
v -0.2387417 1.633144 0.9559872
v -0.8932209 1.301506 0.6597226
v -0.4539296 1.192481 -0.1886675
v -0.04054676 1.348807 -0.1693671
v -0.2387417 1.633144 0.9559872
v -0.04054676 1.348807 -0.1693671
v -0.4539296 1.192481 -0.1886675
v -0.8932209 1.301506 0.6597226
v 0.3513268 1.175329 -0.8899448
v 0.03495618 1.275112 -0.4669621
v -0.7442104 1.324383 -1.06136
v -0.4278421 1.2246 -1.484346
v -1.022834 1.092328 -0.7153644
v -0.2436635 1.043057 -0.1209647
v 0.3513268 1.175329 -0.8899448
v -0.4278421 1.2246 -1.484346
v -0.7442104 1.324383 -1.06136
v 0.03495618 1.275112 -0.4669621
v -1.022834 1.092328 -0.7153644
v -0.2436635 1.043057 -0.1209647
v 0.9124923 1.064802 -0.9916351
v 0.6135089 1.079029 -1.045394
v 0.7114009 1.071664 -1.591769
v 1.010384 1.057438 -1.53801
v 0.4842191 0.906427 -1.630244
v 0.3863271 0.9137915 -1.08387
v 0.9124923 1.064802 -0.9916351
v 1.010384 1.057438 -1.53801
v 0.7114009 1.071664 -1.591769
v 0.6135089 1.079029 -1.045394
v 0.4842191 0.906427 -1.630244
v 0.3863271 0.9137915 -1.08387
v 0.1143197 1.210072 -0.1938481
v 0.07653819 1.264501 -0.4773473
v 0.5435153 1.459767 -0.5064625
v 0.5812946 1.405338 -0.2229664
v 0.5756671 1.346745 -0.7512646
v 0.1086922 1.151479 -0.7221462
v 0.1143197 1.210072 -0.1938481
v 0.5812946 1.405338 -0.2229664
v 0.5435153 1.459767 -0.5064625
v 0.07653819 1.264501 -0.4773473
v 0.5756671 1.346745 -0.7512646
v 0.1086922 1.151479 -0.7221462
v 0.5450296 0.6063566 -0.8715499
v 0.08645599 0.7054486 -0.9706908
v 0.1744662 0.381638 -1.73535
v 0.6330414 0.2825461 -1.63621
v -0.2361446 0.2063918 -1.708658
v -0.3241549 0.5302023 -0.9439986
v 0.5450296 0.6063566 -0.8715499
v 0.6330414 0.2825461 -1.63621
v 0.1744662 0.381638 -1.73535
v 0.08645599 0.7054486 -0.9706908
v -0.2361446 0.2063918 -1.708658
v -0.3241549 0.5302023 -0.9439986
v -0.8141928 0.3058926 -0.6071201
v -1.147239 0.4735042 -0.5010185
v -1.270616 0.6543303 -1.173918
v -0.9375681 0.4867187 -1.280021
v -1.622045 0.5830878 -1.128628
v -1.498669 0.4022616 -0.4557267
v -0.8141928 0.3058926 -0.6071201
v -0.9375681 0.4867187 -1.280021
v -1.270616 0.6543303 -1.173918
v -1.147239 0.4735042 -0.5010185
v -1.622045 0.5830878 -1.128628
v -1.498669 0.4022616 -0.4557267
v -0.790313 0.04308054 1.601387
v -1.527453 0.04308054 -0.5041604
v 0.3638454 0.04308054 -1.166294
v 1.153576 0.04308054 1.089473
v 1.243615 1.274435 -0.9272653
v 1.091139 1.211744 -0.5395461
v 0.7050628 1.312028 -0.6751605
v 0.8575388 1.374719 -1.06288
v 1.243615 1.274435 -0.9272653
v 0.8575388 1.374719 -1.06288
v 0.7050628 1.312028 -0.6751605
v 1.091139 1.211744 -0.5395461
v -0.8018759 0.4465117 -0.07744831
v -1.183034 0.5734698 0.04945379
v -1.31793 0.5673845 -0.3496335
v -0.9367703 0.4404264 -0.4765325
v -0.8018759 0.4465117 -0.07744831
v -0.9367703 0.4404264 -0.4765325
v -1.31793 0.5673845 -0.3496335
v -1.183034 0.5734698 0.04945379

vn 0.06287208 0.8350554 -0.5465616
vn 0.06287208 0.8350554 -0.5465616
vn 0.06287205 0.8350554 -0.5465617
vn 0.06287208 0.8350554 -0.5465616
vn -0.06287211 -0.8350554 0.5465616
vn -0.06287208 -0.8350554 0.5465616
vn -0.06287211 -0.8350554 0.5465617
vn -0.06287208 -0.8350554 0.5465616
vn -0.3864185 -0.9223127 0.004470229
vn -0.3864185 -0.9223127 0.004470214
vn -0.3864185 -0.9223127 0.004470244
vn -0.3864185 -0.9223127 0.004470229
vn 0.3864183 0.9223128 -0.004470199
vn 0.3864183 0.9223127 -0.004470214
vn 0.3864183 0.9223128 -0.004470229
vn 0.3864183 0.9223128 -0.004470199
vn -0.3375467 0.9230618 0.1844429
vn -0.3375467 0.9230618 0.1844428
vn -0.3375467 0.9230618 0.1844428
vn -0.3375466 0.9230618 0.1844428
vn 0.3375467 -0.9230618 -0.1844428
vn 0.3375467 -0.9230618 -0.1844428
vn 0.3375467 -0.9230618 -0.1844428
vn 0.3375467 -0.9230618 -0.1844428
vn -0.1944379 -0.9643387 0.1795685
vn -0.1944379 -0.9643387 0.1795685
vn -0.1944379 -0.9643387 0.1795685
vn -0.1944379 -0.9643387 0.1795685
vn 0.1944378 0.9643387 -0.1795684
vn 0.1944378 0.9643387 -0.1795684
vn 0.1944378 0.9643387 -0.1795684
vn 0.1944378 0.9643387 -0.1795684
vn -0.09506369 0.9008217 -0.4236545
vn -0.09506375 0.9008217 -0.4236545
vn -0.0950637 0.9008217 -0.4236546
vn -0.09506375 0.9008217 -0.4236545
vn 0.09506369 -0.9008217 0.4236546
vn 0.0950637 -0.9008217 0.4236546
vn 0.09506369 -0.9008217 0.4236546
vn 0.0950637 -0.9008217 0.4236546
vn 0.1922282 0.9813372 -0.005073354
vn -0.1154639 0.9895996 0.08579397
vn -0.1154639 0.9895996 0.08579399
vn 0.1922282 0.9813372 -0.005073346
vn -0.4322324 0.8849315 0.1734111
vn -0.4322324 0.8849315 0.1734111
vn -0.1922282 -0.9813371 0.005073458
vn -0.1922282 -0.9813371 0.005073465
vn 0.1154639 -0.9895996 -0.08579393
vn 0.1154639 -0.9895996 -0.08579393
vn 0.4322324 -0.8849315 -0.1734111
vn 0.4322324 -0.8849315 -0.1734111
vn 0.04184303 0.998817 0.02477132
vn -0.1782243 0.9621973 -0.2059428
vn -0.1782241 0.9621974 -0.2059426
vn 0.04184304 0.998817 0.02477132
vn -0.3938109 0.8125343 -0.4297686
vn -0.3938108 0.8125343 -0.4297686
vn -0.04184301 -0.998817 -0.0247714
vn -0.04184301 -0.998817 -0.0247714
vn 0.1782243 -0.9621973 0.2059427
vn 0.1782245 -0.9621972 0.2059429
vn 0.393811 -0.8125341 0.4297688
vn 0.393811 -0.8125341 0.4297688
vn -0.4251584 0.9043832 -0.03648728
vn -0.2565639 0.9161314 -0.308023
vn -0.2554285 0.9159104 -0.3096199
vn -0.4251584 0.9043832 -0.0364873
vn -0.04530802 0.8235596 -0.5654172
vn -0.04530805 0.8235597 -0.5654172
vn 0.4251586 -0.9043832 0.03648721
vn 0.4251586 -0.9043832 0.03648721
vn 0.2554286 -0.9159104 0.3096197
vn 0.256564 -0.9161315 0.3080229
vn 0.04530787 -0.8235596 0.5654172
vn 0.0453079 -0.8235597 0.5654172
vn 0.4237441 0.8975339 -0.1219584
vn 0.1956426 0.9179011 -0.3452268
vn 0.1941551 0.9177333 -0.3465103
vn 0.4237441 0.8975339 -0.1219584
vn -0.07277727 0.8344191 -0.5463041
vn -0.07277726 0.8344191 -0.5463041
vn -0.4237441 -0.8975338 0.1219583
vn -0.4237442 -0.8975338 0.1219583
vn -0.1941551 -0.9177333 0.3465103
vn -0.1956427 -0.9179011 0.3452269
vn 0.07277735 -0.8344191 0.5463041
vn 0.0727773 -0.8344191 0.5463041
vn 0.3025206 0.8647225 0.4009192
vn 0.01624379 0.9571571 0.289113
vn 0.01624386 0.9571571 0.2891131
vn 0.3025206 0.8647225 0.4009192
vn -0.292666 0.9464899 0.1360275
vn -0.292666 0.9464899 0.1360274
vn -0.3025206 -0.8647225 -0.4009192
vn -0.3025205 -0.8647225 -0.4009192
vn -0.01624379 -0.9571571 -0.2891131
vn -0.01624373 -0.9571571 -0.289113
vn 0.292666 -0.9464899 -0.1360274
vn 0.2926661 -0.9464899 -0.1360274
vn 0 1 0
vn 0 1 0
vn 0 1 0
vn 0 1 0
vn 0.006299406 0.9597924 0.2806403
vn 0.006299376 0.9597924 0.2806403
vn 0.006299406 0.9597924 0.2806402
vn 0.006299406 0.9597924 0.2806402
vn -0.006299421 -0.9597924 -0.2806402
vn -0.006299436 -0.9597924 -0.2806402
vn -0.006299421 -0.9597924 -0.2806402
vn -0.006299436 -0.9597924 -0.2806402
vn 0.2914198 0.9534073 0.07803186
vn 0.2914198 0.9534073 0.07803188
vn 0.2914198 0.9534073 0.07803188
vn 0.2914198 0.9534073 0.07803188
vn -0.2914199 -0.9534073 -0.07803174
vn -0.2914198 -0.9534073 -0.07803173
vn -0.2914198 -0.9534073 -0.07803172
vn -0.2914198 -0.9534073 -0.07803172

vt 0.7475586 0.06384277
vt 0.7514648 0.1036377
vt 0.7827148 0.1065674
vt 0.7827148 0.05969238
vt 0.7475586 0.06384277
vt 0.7827148 0.05969238
vt 0.7827148 0.1065674
vt 0.7514648 0.1036377
vt 0.7475586 0.06384277
vt 0.7514648 0.1036377
vt 0.7827148 0.1065674
vt 0.7827148 0.05969238
vt 0.7475586 0.06384277
vt 0.7827148 0.05969238
vt 0.7827148 0.1065674
vt 0.7514648 0.1036377
vt 0.7104492 0.08880615
vt 0.7104492 0.1160889
vt 0.7470703 0.1010742
vt 0.7436523 0.09014893
vt 0.7436523 0.09014893
vt 0.7470703 0.1010742
vt 0.7104492 0.1160889
vt 0.7104492 0.08880615
vt 0.7104492 0.1172485
vt 0.7104492 0.144165
vt 0.7451172 0.144165
vt 0.7504883 0.1300049
vt 0.7104492 0.1172485
vt 0.7504883 0.1300049
vt 0.7451172 0.144165
vt 0.7104492 0.144165
vt 0.7104492 0.1172485
vt 0.7104492 0.144165
vt 0.7451172 0.144165
vt 0.7504883 0.1300049
vt 0.7104492 0.1172485
vt 0.7504883 0.1300049
vt 0.7451172 0.144165
vt 0.7104492 0.144165
vt 0.6503906 0.03137207
vt 0.6503906 0.05950928
vt 0.7075195 0.05950928
vt 0.7075195 0.03137207
vt 0.7075195 0.08551025
vt 0.6503906 0.08551025
vt 0.6503906 0.03137207
vt 0.7075195 0.03137207
vt 0.7075195 0.05950928
vt 0.6503906 0.05950928
vt 0.7075195 0.08551025
vt 0.6503906 0.08551025
vt 0.6503906 0.03137207
vt 0.6503906 0.05950928
vt 0.7075195 0.05950928
vt 0.7075195 0.03137207
vt 0.7075195 0.08551025
vt 0.6503906 0.08551025
vt 0.6503906 0.03137207
vt 0.7075195 0.03137207
vt 0.7075195 0.05950928
vt 0.6503906 0.05950928
vt 0.7075195 0.08551025
vt 0.6503906 0.08551025
vt 0.6503906 0.08843994
vt 0.6503906 0.1165771
vt 0.7075195 0.1165771
vt 0.7075195 0.08843994
vt 0.7075195 0.1425781
vt 0.6503906 0.1425781
vt 0.6503906 0.08843994
vt 0.7075195 0.08843994
vt 0.7075195 0.1165771
vt 0.6503906 0.1165771
vt 0.7075195 0.1425781
vt 0.6503906 0.1425781
vt 0.6503906 0.08843994
vt 0.6503906 0.1165771
vt 0.7075195 0.1165771
vt 0.7075195 0.08843994
vt 0.7075195 0.1425781
vt 0.6503906 0.1425781
vt 0.6503906 0.08843994
vt 0.7075195 0.08843994
vt 0.7075195 0.1165771
vt 0.6503906 0.1165771
vt 0.7075195 0.1425781
vt 0.6503906 0.1425781
vt 0.6503906 0.03137207
vt 0.6503906 0.05950928
vt 0.7075195 0.05950928
vt 0.7075195 0.03137207
vt 0.7075195 0.08551025
vt 0.6503906 0.08551025
vt 0.6503906 0.03137207
vt 0.7075195 0.03137207
vt 0.7075195 0.05950928
vt 0.6503906 0.05950928
vt 0.7075195 0.08551025
vt 0.6503906 0.08551025
vt 0.7104492 0.0682373
vt 0.7104492 0.144165
vt 0.7827148 0.144165
vt 0.7827148 0.05969238
vt 0.6601563 0.02832031
vt 0.6875 0.02832031
vt 0.6875 0.002780914
vt 0.6601563 0.002780914
vt 0.6601563 0.02832031
vt 0.6601563 0.002780914
vt 0.6875 0.002780914
vt 0.6875 0.02832031
vt 0.6601563 0.02832031
vt 0.6875 0.02832031
vt 0.6875 0.002780914
vt 0.6601563 0.002780914
vt 0.6601563 0.02832031
vt 0.6601563 0.002780914
vt 0.6875 0.002780914
vt 0.6875 0.02832031

g alpha_2348_659
usemtl alpha_2348_659
usemap alpha_2348_659
f 1/1/1 3/3/3 2/2/2
f 1/1/1 4/4/4 3/3/3
f 5/5/5 7/7/7 6/6/6
f 5/5/5 8/8/8 7/7/7
f 9/9/9 11/11/11 10/10/10
f 9/9/9 12/12/12 11/11/11
f 13/13/13 15/15/15 14/14/14
f 13/13/13 16/16/16 15/15/15
f 17/17/17 19/19/19 18/18/18
f 17/17/17 20/20/20 19/19/19
f 21/21/21 23/23/23 22/22/22
f 21/21/21 24/24/24 23/23/23
f 25/25/25 27/27/27 26/26/26
f 25/25/25 28/28/28 27/27/27
f 29/29/29 31/31/31 30/30/30
f 29/29/29 32/32/32 31/31/31
f 33/33/33 35/35/35 34/34/34
f 33/33/33 36/36/36 35/35/35
f 37/37/37 39/39/39 38/38/38
f 37/37/37 40/40/40 39/39/39
f 41/41/41 43/43/43 42/42/42
f 41/41/41 44/44/44 43/43/43
f 42/42/42 43/43/43 45/45/45
f 42/42/42 45/45/45 46/46/46
f 47/47/47 49/49/49 48/48/48
f 47/47/47 50/50/50 49/49/49
f 50/50/50 51/51/51 49/49/49
f 50/50/50 52/52/52 51/51/51
f 53/53/53 55/55/55 54/54/54
f 53/53/53 56/56/56 55/55/55
f 54/54/54 55/55/55 57/57/57
f 54/54/54 57/57/57 58/58/58
f 59/59/59 61/61/61 60/60/60
f 59/59/59 62/62/62 61/61/61
f 62/62/62 63/63/63 61/61/61
f 62/62/62 64/64/64 63/63/63
f 65/65/65 67/67/67 66/66/66
f 65/65/65 68/68/68 67/67/67
f 66/66/66 67/67/67 69/69/69
f 66/66/66 69/69/69 70/70/70
f 71/71/71 73/73/73 72/72/72
f 71/71/71 74/74/74 73/73/73
f 74/74/74 75/75/75 73/73/73
f 74/74/74 76/76/76 75/75/75
f 77/77/77 79/79/79 78/78/78
f 77/77/77 80/80/80 79/79/79
f 78/78/78 79/79/79 81/81/81
f 78/78/78 81/81/81 82/82/82
f 83/83/83 85/85/85 84/84/84
f 83/83/83 86/86/86 85/85/85
f 86/86/86 87/87/87 85/85/85
f 86/86/86 88/88/88 87/87/87
f 89/89/89 91/91/91 90/90/90
f 89/89/89 92/92/92 91/91/91
f 90/90/90 91/91/91 93/93/93
f 90/90/90 93/93/93 94/94/94
f 95/95/95 97/97/97 96/96/96
f 95/95/95 98/98/98 97/97/97
f 98/98/98 99/99/99 97/97/97
f 98/98/98 100/100/100 99/99/99
f 101/101/101 103/103/103 102/102/102
f 101/101/101 104/104/104 103/103/103
f 105/105/105 107/107/107 106/106/106
f 105/105/105 108/108/108 107/107/107
f 109/109/109 111/111/111 110/110/110
f 109/109/109 112/112/112 111/111/111
f 113/113/113 115/115/115 114/114/114
f 113/113/113 116/116/116 115/115/115
f 117/117/117 119/119/119 118/118/118
f 117/117/117 120/120/120 119/119/119
