#alpha_1551_255.obj

v 0.8744358 1.668639 0.347237
v 0.3625261 1.683017 0.9650167
v -0.03933098 1.144934 0.08143716
v 0.2253854 1.190007 -0.1072219
v 0.2253854 1.190007 -0.1072219
v -0.03933098 1.144934 0.08143716
v 0.3625261 1.683017 0.9650167
v 0.8744358 1.668639 0.347237
v -2.524084 0.5522573 0.8251618
v -2.115013 0.3518698 1.485779
v -1.595771 0.06034493 0.5492217
v -1.826244 0.1767969 0.3466882
v -1.826244 0.1767969 0.3466882
v -1.595771 0.06034493 0.5492217
v -2.115013 0.3518698 1.485779
v -2.524084 0.5522573 0.8251618
v -0.5140234 0.8248929 -0.8993582
v -0.03933098 1.144934 0.08143716
v 0.7462109 1.433347 -0.154572
v 0.305841 1.098082 -1.360137
v -0.5140234 0.8248929 -0.8993582
v 0.305841 1.098082 -1.360137
v 0.7462109 1.433347 -0.154572
v -0.03933098 1.144934 0.08143716
v -1.805335 0.4929128 0.7311894
v -0.6330696 0.9923765 0.3774142
v -0.09225591 0.96349 1.23284
v -1.40229 0.3640843 1.790205
v -1.805335 0.4929128 0.7311894
v -1.40229 0.3640843 1.790205
v -0.09225591 0.96349 1.23284
v -0.6330696 0.9923765 0.3774142
v -1.392456 0.3428391 -0.7116181
v -0.6837582 0.6808587 -0.5460858
v -1.149886 0.1965102 0.3370191
v -1.41864 0.09337044 0.1794317
v -1.41864 0.09337044 0.1794317
v -1.149886 0.1965102 0.3370191
v -0.6837582 0.6808587 -0.5460858
v -1.392456 0.3428391 -0.7116181
v -0.5385842 0.8933288 0.2231379
v -0.1314981 1.265527 0.2333492
v 0.006334914 1.087848 1.214964
v -0.4007511 0.7156492 1.204753
v 0.5149017 1.131426 1.151439
v 0.3770689 1.309106 0.1698282
v -0.5385842 0.8933288 0.2231379
v -0.4007511 0.7156492 1.204753
v 0.006334914 1.087848 1.214964
v -0.1314981 1.265527 0.2333492
v 0.5149017 1.131426 1.151439
v 0.3770689 1.309106 0.1698282
v 0.2948589 1.614199 0.3140141
v 0.6172981 1.717785 0.5646255
v 0.380366 1.636005 0.9032688
v 0.05792676 1.532419 0.6526573
v 0.2948589 1.614199 0.3140141
v 0.05792676 1.532419 0.6526573
v 0.380366 1.636005 0.9032688
v 0.6172981 1.717785 0.5646255
v -1.134497 0.5319947 -0.778615
v -0.7570208 0.5564677 -0.5930977
v -0.9440858 0.595341 -0.2176002
v -1.321562 0.570868 -0.4031174
v -1.134497 0.5319947 -0.778615
v -1.321562 0.570868 -0.4031174
v -0.9440858 0.595341 -0.2176002
v -0.7570208 0.5564677 -0.5930977
v 0.05967237 0.8979312 -0.9514737
v -0.1109713 0.9973686 -0.7375713
v -0.5232592 0.9054477 -1.017953
v -0.3526136 0.8060105 -1.231855
v -0.6561877 0.8233954 -0.7958465
v -0.2439017 0.9153162 -0.5154651
v 0.05967237 0.8979312 -0.9514737
v -0.3526136 0.8060105 -1.231855
v -0.5232592 0.9054477 -1.017953
v -0.1109713 0.9973686 -0.7375713
v -0.6561877 0.8233954 -0.7958465
v -0.2439017 0.9153162 -0.5154651
v -1.147334 0.6941588 1.043604
v -0.8758135 0.7617133 1.124076
v -1.008981 0.7335362 1.612457
v -1.280499 0.6659818 1.531988
v -0.7696108 0.6196328 1.671305
v -0.6364453 0.6478099 1.182922
v -1.147334 0.6941588 1.043604
v -1.280499 0.6659818 1.531988
v -1.008981 0.7335362 1.612457
v -0.8758135 0.7617133 1.124076
v -0.7696108 0.6196328 1.671305
v -0.6364453 0.6478099 1.182922
v -0.9538928 0.8193174 -0.2538285
v -0.5683182 1.135507 0.4325259
v -1.909795 1.094265 1.205127
v -2.295369 0.7780753 0.5187727
v -1.526004 0.8704944 1.859562
v -0.1845277 0.9117364 1.086957
v -0.9538928 0.8193174 -0.2538285
v -2.295369 0.7780753 0.5187727
v -1.909795 1.094265 1.205127
v -0.5683182 1.135507 0.4325259
v -1.526004 0.8704944 1.859562
v -0.1845277 0.9117364 1.086957
v -2.479697 0.6769722 -0.7860575
v -1.700526 0.6155729 -0.9678057
v -1.982963 0.1934528 0.02343351
v -2.236241 0.2472973 0.01194783
v -2.236241 0.2472973 0.01194783
v -1.982963 0.1934528 0.02343351
v -1.700526 0.6155729 -0.9678057
v -2.479697 0.6769722 -0.7860575
v -2.164073 0.352392 -0.474217
v -2.127013 0.4374886 -0.06146037
v -2.894545 0.5021714 -0.005882678
v -2.931605 0.4170748 -0.4186355
v -2.883889 0.3256547 0.346703
v -2.116355 0.260972 0.2911213
v -2.164073 0.352392 -0.474217
v -2.931605 0.4170748 -0.4186355
v -2.894545 0.5021714 -0.005882678
v -2.127013 0.4374886 -0.06146037
v -2.883889 0.3256547 0.346703
v -2.116355 0.260972 0.2911213

vn 0.3687836 0.8545429 -0.3657255
vn 0.3687836 0.8545429 -0.3657255
vn 0.3687836 0.8545429 -0.3657255
vn 0.3687836 0.8545429 -0.3657255
vn -0.3687835 -0.8545429 0.3657255
vn -0.3687835 -0.8545429 0.3657255
vn -0.3687835 -0.8545429 0.3657255
vn -0.3687835 -0.8545429 0.3657255
vn 0.01306613 -0.8857284 -0.4640199
vn 0.01306613 -0.8857284 -0.4640199
vn 0.01306614 -0.8857284 -0.46402
vn 0.01306614 -0.8857284 -0.46402
vn -0.01306615 0.8857285 0.4640199
vn -0.01306615 0.8857285 0.4640199
vn -0.01306615 0.8857284 0.4640198
vn -0.01306615 0.8857284 0.4640199
vn -0.1445014 -0.9198824 0.3646036
vn -0.1445014 -0.9198824 0.3646036
vn -0.1445014 -0.9198824 0.3646035
vn -0.1445014 -0.9198824 0.3646036
vn 0.1445014 0.9198824 -0.3646034
vn 0.1445015 0.9198824 -0.3646035
vn 0.1445014 0.9198824 -0.3646034
vn 0.1445015 0.9198824 -0.3646035
vn -0.2113149 0.9179437 -0.335746
vn -0.2113149 0.9179437 -0.335746
vn -0.2113149 0.9179437 -0.335746
vn -0.2113149 0.9179437 -0.3357461
vn 0.211315 -0.9179437 0.335746
vn 0.211315 -0.9179437 0.335746
vn 0.211315 -0.9179437 0.335746
vn 0.211315 -0.9179437 0.335746
vn -0.1945437 0.8575175 -0.4762525
vn -0.1945437 0.8575175 -0.4762526
vn -0.1945437 0.8575175 -0.4762525
vn -0.1945437 0.8575175 -0.4762526
vn 0.1945437 -0.8575175 0.4762525
vn 0.1945437 -0.8575175 0.4762525
vn 0.1945437 -0.8575175 0.4762525
vn 0.1945437 -0.8575175 0.4762525
vn -0.1770346 0.7167324 -0.6745023
vn -0.189676 0.8935369 -0.406958
vn -0.189676 0.8935369 -0.406958
vn -0.1770346 0.7167324 -0.6745023
vn -0.1814742 0.9806589 -0.07331626
vn -0.1814742 0.9806589 -0.07331626
vn 0.1770346 -0.7167324 0.6745023
vn 0.1770346 -0.7167324 0.6745023
vn 0.189676 -0.8935369 0.406958
vn 0.189676 -0.8935369 0.406958
vn 0.1814742 -0.9806589 0.07331626
vn 0.1814742 -0.9806589 0.07331626
vn 0.01104497 0.9496695 -0.3130588
vn 0.01104498 0.9496695 -0.3130589
vn 0.01104497 0.9496695 -0.3130588
vn 0.01104497 0.9496695 -0.3130588
vn -0.01104497 -0.9496695 0.3130588
vn -0.01104497 -0.9496695 0.3130588
vn -0.01104497 -0.9496695 0.3130588
vn -0.01104497 -0.9496695 0.3130588
vn 0.1089654 0.9940385 -0.003734828
vn 0.1089654 0.9940385 -0.003734829
vn 0.1089654 0.9940385 -0.003734828
vn 0.1089654 0.9940385 -0.003734829
vn -0.1089655 -0.9940385 0.003734867
vn -0.1089655 -0.9940385 0.003734866
vn -0.1089655 -0.9940385 0.003734867
vn -0.1089655 -0.9940385 0.003734866
vn 0.379346 0.9216419 0.08168817
vn 0.1394975 0.9828197 -0.1208552
vn 0.1379548 0.9828859 -0.1220813
vn 0.379346 0.9216419 0.08168817
vn -0.1351385 0.9358837 -0.3253602
vn -0.1351385 0.9358837 -0.3253603
vn -0.3793459 -0.9216419 -0.08168816
vn -0.3793459 -0.9216419 -0.08168817
vn -0.1379548 -0.9828859 0.1220814
vn -0.1394976 -0.9828196 0.1208553
vn 0.1351383 -0.9358836 0.3253604
vn 0.1351384 -0.9358836 0.3253604
vn 0.02535335 0.9710047 -0.2377122
vn -0.08054875 0.9947485 0.06314453
vn -0.08118425 0.9945771 0.06500317
vn 0.02535335 0.9710047 -0.2377122
vn -0.1854826 0.9060799 0.3802834
vn -0.1854826 0.9060799 0.3802834
vn -0.02535335 -0.9710047 0.2377122
vn -0.02535335 -0.9710047 0.2377122
vn 0.08118426 -0.9945771 -0.06500317
vn 0.08054876 -0.9947485 -0.06314453
vn 0.1854826 -0.9060798 -0.3802834
vn 0.1854826 -0.9060799 -0.3802834
vn 0.3241529 0.9275677 -0.1858576
vn 0.04197255 0.9978623 -0.05009132
vn 0.04197257 0.9978623 -0.05009132
vn 0.324153 0.9275677 -0.1858576
vn -0.2654948 0.9587787 0.1012712
vn -0.2654948 0.9587787 0.1012712
vn -0.3241528 -0.9275677 0.1858575
vn -0.3241528 -0.9275677 0.1858576
vn -0.04197256 -0.9978623 0.05009132
vn -0.04197255 -0.9978623 0.05009133
vn 0.2654948 -0.9587787 -0.1012712
vn 0.2654948 -0.9587787 -0.1012712
vn -0.4371763 0.8883984 0.1400897
vn -0.4371763 0.8883984 0.1400897
vn -0.4371763 0.8883984 0.1400897
vn -0.4371763 0.8883984 0.1400897
vn 0.4371762 -0.8883985 -0.1400897
vn 0.4371762 -0.8883985 -0.1400897
vn 0.4371762 -0.8883985 -0.1400897
vn 0.4371763 -0.8883985 -0.1400897
vn 0.2021942 0.9759741 0.08119129
vn -0.1184498 0.9894294 0.0836601
vn -0.1184496 0.9894295 0.08366011
vn 0.2021942 0.9759741 0.08119129
vn -0.4487669 0.8903504 0.07671025
vn -0.4487669 0.8903504 0.07671026
vn -0.2021942 -0.9759741 -0.0811912
vn -0.2021942 -0.9759741 -0.08119121
vn 0.1184496 -0.9894295 -0.08366006
vn 0.1184498 -0.9894295 -0.08366007
vn 0.4487669 -0.8903504 -0.07671027
vn 0.4487669 -0.8903504 -0.07671027

vt 0.7104492 0.08880615
vt 0.7104492 0.1160889
vt 0.7470703 0.1010742
vt 0.7436523 0.09014893
vt 0.7436523 0.09014893
vt 0.7470703 0.1010742
vt 0.7104492 0.1160889
vt 0.7104492 0.08880615
vt 0.7104492 0.08880615
vt 0.7104492 0.1160889
vt 0.7470703 0.1010742
vt 0.7436523 0.09014893
vt 0.7436523 0.09014893
vt 0.7470703 0.1010742
vt 0.7104492 0.1160889
vt 0.7104492 0.08880615
vt 0.7475586 0.06384277
vt 0.7514648 0.1036377
vt 0.7827148 0.1065674
vt 0.7827148 0.05969238
vt 0.7475586 0.06384277
vt 0.7827148 0.05969238
vt 0.7827148 0.1065674
vt 0.7514648 0.1036377
vt 0.7475586 0.06384277
vt 0.7514648 0.1036377
vt 0.7827148 0.1065674
vt 0.7827148 0.05969238
vt 0.7475586 0.06384277
vt 0.7827148 0.05969238
vt 0.7827148 0.1065674
vt 0.7514648 0.1036377
vt 0.7104492 0.08880615
vt 0.7104492 0.1160889
vt 0.7470703 0.1010742
vt 0.7436523 0.09014893
vt 0.7436523 0.09014893
vt 0.7470703 0.1010742
vt 0.7104492 0.1160889
vt 0.7104492 0.08880615
vt 0.6503906 0.03137207
vt 0.6503906 0.05950928
vt 0.7075195 0.05950928
vt 0.7075195 0.03137207
vt 0.7075195 0.08551025
vt 0.6503906 0.08551025
vt 0.6503906 0.03137207
vt 0.7075195 0.03137207
vt 0.7075195 0.05950928
vt 0.6503906 0.05950928
vt 0.7075195 0.08551025
vt 0.6503906 0.08551025
vt 0.6601563 0.02832031
vt 0.6875 0.02832031
vt 0.6875 0.002780914
vt 0.6601563 0.002780914
vt 0.6601563 0.02832031
vt 0.6601563 0.002780914
vt 0.6875 0.002780914
vt 0.6875 0.02832031
vt 0.6601563 0.02832031
vt 0.6875 0.02832031
vt 0.6875 0.002780914
vt 0.6601563 0.002780914
vt 0.6601563 0.02832031
vt 0.6601563 0.002780914
vt 0.6875 0.002780914
vt 0.6875 0.02832031
vt 0.6503906 0.08843994
vt 0.6503906 0.1165771
vt 0.7075195 0.1165771
vt 0.7075195 0.08843994
vt 0.7075195 0.1425781
vt 0.6503906 0.1425781
vt 0.6503906 0.08843994
vt 0.7075195 0.08843994
vt 0.7075195 0.1165771
vt 0.6503906 0.1165771
vt 0.7075195 0.1425781
vt 0.6503906 0.1425781
vt 0.6503906 0.08843994
vt 0.6503906 0.1165771
vt 0.7075195 0.1165771
vt 0.7075195 0.08843994
vt 0.7075195 0.1425781
vt 0.6503906 0.1425781
vt 0.6503906 0.08843994
vt 0.7075195 0.08843994
vt 0.7075195 0.1165771
vt 0.6503906 0.1165771
vt 0.7075195 0.1425781
vt 0.6503906 0.1425781
vt 0.6503906 0.03137207
vt 0.6503906 0.05950928
vt 0.7075195 0.05950928
vt 0.7075195 0.03137207
vt 0.7075195 0.08551025
vt 0.6503906 0.08551025
vt 0.6503906 0.03137207
vt 0.7075195 0.03137207
vt 0.7075195 0.05950928
vt 0.6503906 0.05950928
vt 0.7075195 0.08551025
vt 0.6503906 0.08551025
vt 0.706543 0.09033203
vt 0.706543 0.1160889
vt 0.7412109 0.1019287
vt 0.737793 0.09161377
vt 0.737793 0.09161377
vt 0.7412109 0.1019287
vt 0.706543 0.1160889
vt 0.706543 0.09033203
vt 0.6503906 0.03137207
vt 0.6503906 0.05950928
vt 0.7075195 0.05950928
vt 0.7075195 0.03137207
vt 0.7075195 0.08551025
vt 0.6503906 0.08551025
vt 0.6503906 0.03137207
vt 0.7075195 0.03137207
vt 0.7075195 0.05950928
vt 0.6503906 0.05950928
vt 0.7075195 0.08551025
vt 0.6503906 0.08551025

g alpha_1551_255
usemtl alpha_1551_255
usemap alpha_1551_255
f 1/1/1 3/3/3 2/2/2
f 1/1/1 4/4/4 3/3/3
f 5/5/5 7/7/7 6/6/6
f 5/5/5 8/8/8 7/7/7
f 9/9/9 11/11/11 10/10/10
f 9/9/9 12/12/12 11/11/11
f 13/13/13 15/15/15 14/14/14
f 13/13/13 16/16/16 15/15/15
f 17/17/17 19/19/19 18/18/18
f 17/17/17 20/20/20 19/19/19
f 21/21/21 23/23/23 22/22/22
f 21/21/21 24/24/24 23/23/23
f 25/25/25 27/27/27 26/26/26
f 25/25/25 28/28/28 27/27/27
f 29/29/29 31/31/31 30/30/30
f 29/29/29 32/32/32 31/31/31
f 33/33/33 35/35/35 34/34/34
f 33/33/33 36/36/36 35/35/35
f 37/37/37 39/39/39 38/38/38
f 37/37/37 40/40/40 39/39/39
f 41/41/41 43/43/43 42/42/42
f 41/41/41 44/44/44 43/43/43
f 42/42/42 43/43/43 45/45/45
f 42/42/42 45/45/45 46/46/46
f 47/47/47 49/49/49 48/48/48
f 47/47/47 50/50/50 49/49/49
f 50/50/50 51/51/51 49/49/49
f 50/50/50 52/52/52 51/51/51
f 53/53/53 55/55/55 54/54/54
f 53/53/53 56/56/56 55/55/55
f 57/57/57 59/59/59 58/58/58
f 57/57/57 60/60/60 59/59/59
f 61/61/61 63/63/63 62/62/62
f 61/61/61 64/64/64 63/63/63
f 65/65/65 67/67/67 66/66/66
f 65/65/65 68/68/68 67/67/67
f 69/69/69 71/71/71 70/70/70
f 69/69/69 72/72/72 71/71/71
f 70/70/70 71/71/71 73/73/73
f 70/70/70 73/73/73 74/74/74
f 75/75/75 77/77/77 76/76/76
f 75/75/75 78/78/78 77/77/77
f 78/78/78 79/79/79 77/77/77
f 78/78/78 80/80/80 79/79/79
f 81/81/81 83/83/83 82/82/82
f 81/81/81 84/84/84 83/83/83
f 82/82/82 83/83/83 85/85/85
f 82/82/82 85/85/85 86/86/86
f 87/87/87 89/89/89 88/88/88
f 87/87/87 90/90/90 89/89/89
f 90/90/90 91/91/91 89/89/89
f 90/90/90 92/92/92 91/91/91
f 93/93/93 95/95/95 94/94/94
f 93/93/93 96/96/96 95/95/95
f 94/94/94 95/95/95 97/97/97
f 94/94/94 97/97/97 98/98/98
f 99/99/99 101/101/101 100/100/100
f 99/99/99 102/102/102 101/101/101
f 102/102/102 103/103/103 101/101/101
f 102/102/102 104/104/104 103/103/103
f 105/105/105 107/107/107 106/106/106
f 105/105/105 108/108/108 107/107/107
f 109/109/109 111/111/111 110/110/110
f 109/109/109 112/112/112 111/111/111
f 113/113/113 115/115/115 114/114/114
f 113/113/113 116/116/116 115/115/115
f 114/114/114 115/115/115 117/117/117
f 114/114/114 117/117/117 118/118/118
f 119/119/119 121/121/121 120/120/120
f 119/119/119 122/122/122 121/121/121
f 122/122/122 123/123/123 121/121/121
f 122/122/122 124/124/124 123/123/123
