#alpha_2707_602.obj

v 0.8744355 1.668639 0.3472372
v 0.3625243 1.683017 0.9650189
v -0.03932967 1.144934 0.081437
v 0.225386 1.190007 -0.1072213
v 0.225386 1.190007 -0.1072213
v -0.03932967 1.144934 0.081437
v 0.3625243 1.683017 0.9650189
v 0.8744355 1.668639 0.3472372
v -2.524085 0.5522573 0.8251624
v -2.115013 0.3518698 1.48578
v -1.59577 0.06034493 0.5492229
v -1.826244 0.1767969 0.3466904
v -1.826244 0.1767969 0.3466904
v -1.59577 0.06034493 0.5492229
v -2.115013 0.3518698 1.48578
v -2.524085 0.5522573 0.8251624
v -0.5140252 0.8248929 -0.8993573
v -0.03932967 1.144934 0.081437
v 0.7462108 1.433347 -0.1545714
v 0.3058394 1.098082 -1.360135
v -0.5140252 0.8248929 -0.8993573
v 0.3058394 1.098082 -1.360135
v 0.7462108 1.433347 -0.1545714
v -0.03932967 1.144934 0.081437
v -1.805333 0.4929128 0.7311916
v -0.6330687 0.9923765 0.3774146
v -0.09225487 0.96349 1.232839
v -1.402289 0.3640843 1.790206
v -1.805333 0.4929128 0.7311916
v -1.402289 0.3640843 1.790206
v -0.09225487 0.96349 1.232839
v -0.6330687 0.9923765 0.3774146
v -1.392457 0.3428391 -0.7116164
v -0.6837568 0.6808587 -0.5460835
v -1.149887 0.1965102 0.3370184
v -1.418638 0.09337044 0.1794317
v -1.418638 0.09337044 0.1794317
v -1.149887 0.1965102 0.3370184
v -0.6837568 0.6808587 -0.5460835
v -1.392457 0.3428391 -0.7116164
v -0.538586 0.8933288 0.2231409
v -0.1314997 1.265527 0.2333508
v 0.006334831 1.087848 1.214964
v -0.4007515 0.7156492 1.204754
v 0.5149009 1.131426 1.151442
v 0.3770701 1.309106 0.169829
v -0.538586 0.8933288 0.2231409
v -0.4007515 0.7156492 1.204754
v 0.006334831 1.087848 1.214964
v -0.1314997 1.265527 0.2333508
v 0.5149009 1.131426 1.151442
v 0.3770701 1.309106 0.169829
v 0.2948579 1.614199 0.3140133
v 0.6172996 1.717785 0.5646254
v 0.3803652 1.636005 0.9032685
v 0.05792718 1.532419 0.6526573
v 0.2948579 1.614199 0.3140133
v 0.05792718 1.532419 0.6526573
v 0.3803652 1.636005 0.9032685
v 0.6172996 1.717785 0.5646254
v -1.134498 0.5319947 -0.7786155
v -0.7570204 0.5564677 -0.5930972
v -0.9440849 0.595341 -0.2175989
v -1.321563 0.570868 -0.4031154
v -1.134498 0.5319947 -0.7786155
v -1.321563 0.570868 -0.4031154
v -0.9440849 0.595341 -0.2175989
v -0.7570204 0.5564677 -0.5930972
v 0.05967266 0.8979312 -0.9514731
v -0.1109716 0.9973686 -0.7375718
v -0.5232568 0.9054477 -1.017952
v -0.352612 0.8060105 -1.231855
v -0.6561877 0.8233954 -0.7958447
v -0.2439025 0.9153162 -0.5154647
v 0.05967266 0.8979312 -0.9514731
v -0.352612 0.8060105 -1.231855
v -0.5232568 0.9054477 -1.017952
v -0.1109716 0.9973686 -0.7375718
v -0.6561877 0.8233954 -0.7958447
v -0.2439025 0.9153162 -0.5154647
v -1.147331 0.6941588 1.043607
v -0.875813 0.7617133 1.124077
v -1.008979 0.7335362 1.61246
v -1.2805 0.6659818 1.531987
v -0.7696115 0.6196328 1.671304
v -0.6364459 0.6478099 1.182923
v -1.147331 0.6941588 1.043607
v -1.2805 0.6659818 1.531987
v -1.008979 0.7335362 1.61246
v -0.875813 0.7617133 1.124077
v -0.7696115 0.6196328 1.671304
v -0.6364459 0.6478099 1.182923
v -0.95389 0.8193174 -0.2538293
v -0.5683174 1.135507 0.4325251
v -1.909793 1.094265 1.205128
v -2.295369 0.7780753 0.5187732
v -1.526003 0.8704944 1.859561
v -0.1845271 0.9117364 1.086957
v -0.95389 0.8193174 -0.2538293
v -2.295369 0.7780753 0.5187732
v -1.909793 1.094265 1.205128
v -0.5683174 1.135507 0.4325251
v -1.526003 0.8704944 1.859561
v -0.1845271 0.9117364 1.086957
v -2.479698 0.6769722 -0.7860572
v -1.700525 0.6155729 -0.9678037
v -1.982963 0.1934528 0.02343431
v -2.23624 0.2472973 0.01195133
v -2.23624 0.2472973 0.01195133
v -1.982963 0.1934528 0.02343431
v -1.700525 0.6155729 -0.9678037
v -2.479698 0.6769722 -0.7860572
v -2.164072 0.352392 -0.4742164
v -2.12701 0.4374886 -0.06146054
v -2.894544 0.5021714 -0.005880318
v -2.931606 0.4170748 -0.4186362
v -2.883885 0.3256547 0.3467055
v -2.116355 0.260972 0.2911225
v -2.164072 0.352392 -0.4742164
v -2.931606 0.4170748 -0.4186362
v -2.894544 0.5021714 -0.005880318
v -2.12701 0.4374886 -0.06146054
v -2.883885 0.3256547 0.3467055
v -2.116355 0.260972 0.2911225

vn 0.239985 0.8545429 -0.4606122
vn 0.239985 0.8545429 -0.4606122
vn 0.239985 0.8545429 -0.4606123
vn 0.239985 0.8545429 -0.4606123
vn -0.2399849 -0.8545429 0.4606123
vn -0.2399849 -0.8545429 0.4606123
vn -0.2399849 -0.8545429 0.4606122
vn -0.2399849 -0.8545429 0.4606122
vn -0.1287734 -0.8857284 -0.445985
vn -0.1287734 -0.8857284 -0.445985
vn -0.1287734 -0.8857284 -0.445985
vn -0.1287734 -0.8857284 -0.445985
vn 0.1287734 0.8857285 0.445985
vn 0.1287734 0.8857285 0.445985
vn 0.1287734 0.8857284 0.4459849
vn 0.1287734 0.8857284 0.445985
vn -0.02668341 -0.9198824 0.3912856
vn -0.02668343 -0.9198824 0.3912856
vn -0.02668343 -0.9198824 0.3912855
vn -0.02668342 -0.9198824 0.3912856
vn 0.02668349 0.9198824 -0.3912854
vn 0.02668347 0.9198824 -0.3912855
vn 0.02668349 0.9198824 -0.3912854
vn 0.02668349 0.9198824 -0.3912855
vn -0.3034718 0.9179437 -0.2555079
vn -0.3034717 0.9179437 -0.2555079
vn -0.3034718 0.9179437 -0.2555079
vn -0.3034717 0.9179437 -0.2555079
vn 0.3034718 -0.9179437 0.2555079
vn 0.3034718 -0.9179437 0.2555079
vn 0.3034718 -0.9179437 0.2555079
vn 0.3034719 -0.9179437 0.2555079
vn -0.3302578 0.8575175 -0.3944534
vn -0.3302579 0.8575175 -0.3944535
vn -0.3302578 0.8575175 -0.3944534
vn -0.3302578 0.8575175 -0.3944535
vn 0.3302578 -0.8575175 0.3944534
vn 0.3302579 -0.8575175 0.3944534
vn 0.3302578 -0.8575175 0.3944534
vn 0.3302578 -0.8575175 0.3944534
vn -0.3739146 0.7167324 -0.5886276
vn -0.3045319 0.8935369 -0.3299274
vn -0.3045319 0.8935369 -0.3299274
vn -0.3739146 0.7167324 -0.5886276
vn -0.1951788 0.9806589 -0.01460858
vn -0.1951788 0.9806589 -0.01460858
vn 0.3739146 -0.7167324 0.5886276
vn 0.3739146 -0.7167324 0.5886276
vn 0.3045319 -0.8935369 0.3299274
vn 0.3045319 -0.8935369 0.3299274
vn 0.1951787 -0.9806589 0.01460858
vn 0.1951787 -0.9806589 0.01460859
vn -0.0847552 0.9496695 -0.3015698
vn -0.08475521 0.9496695 -0.3015698
vn -0.0847552 0.9496695 -0.3015698
vn -0.0847552 0.9496695 -0.3015698
vn 0.0847552 -0.9496695 0.3015698
vn 0.0847552 -0.9496695 0.3015698
vn 0.0847552 -0.9496695 0.3015698
vn 0.08475519 -0.9496695 0.3015698
vn 0.1026599 0.9940385 -0.03672018
vn 0.1026599 0.9940385 -0.03672018
vn 0.1026599 0.9940385 -0.03672018
vn 0.1026599 0.9940385 -0.03672018
vn -0.1026599 -0.9940385 0.03672023
vn -0.1026599 -0.9940385 0.03672023
vn -0.1026599 -0.9940385 0.03672023
vn -0.1026599 -0.9940385 0.03672023
vn 0.3862121 0.9216419 -0.03763691
vn 0.09609923 0.9828197 -0.1575769
vn 0.09425655 0.9828859 -0.1582753
vn 0.3862121 0.9216419 -0.03763691
vn -0.227748 0.9358837 -0.2687983
vn -0.2277481 0.9358837 -0.2687983
vn -0.386212 -0.9216419 0.03763688
vn -0.386212 -0.9216419 0.03763688
vn -0.09425655 -0.9828859 0.1582754
vn -0.09609926 -0.9828196 0.157577
vn 0.227748 -0.9358836 0.2687985
vn 0.227748 -0.9358836 0.2687985
vn -0.0481946 0.9710047 -0.234152
vn -0.05751041 0.9947485 0.08466336
vn -0.05755011 0.9945771 0.08662724
vn -0.04819461 0.9710047 -0.234152
vn -0.06094857 0.9060799 0.4186939
vn -0.06094857 0.9060799 0.4186938
vn 0.0481946 -0.9710047 0.234152
vn 0.04819461 -0.9710047 0.234152
vn 0.05755011 -0.9945771 -0.08662724
vn 0.05751042 -0.9947485 -0.08466336
vn 0.06094861 -0.9060798 -0.4186939
vn 0.06094861 -0.9060799 -0.4186939
vn 0.2522124 0.9275677 -0.2756938
vn 0.02473674 0.9978623 -0.06048907
vn 0.02473675 0.9978623 -0.06048908
vn 0.2522124 0.9275677 -0.2756938
vn -0.2220798 0.9587787 0.1772679
vn -0.2220798 0.9587787 0.1772679
vn -0.2522123 -0.9275677 0.2756937
vn -0.2522123 -0.9275677 0.2756937
vn -0.02473674 -0.9978623 0.06048909
vn -0.02473673 -0.9978623 0.06048908
vn 0.2220798 -0.9587787 -0.1772679
vn 0.2220798 -0.9587787 -0.1772679
vn -0.3738033 0.8883984 0.2664945
vn -0.3738033 0.8883984 0.2664945
vn -0.3738033 0.8883984 0.2664945
vn -0.3738033 0.8883984 0.2664945
vn 0.3738033 -0.8883985 -0.2664945
vn 0.3738033 -0.8883985 -0.2664945
vn 0.3738033 -0.8883985 -0.2664945
vn 0.3738033 -0.8883985 -0.2664945
vn 0.2173125 0.9759741 0.01580413
vn -0.0873699 0.9894294 0.1157406
vn -0.08736967 0.9894295 0.1157405
vn 0.2173126 0.9759741 0.01580413
vn -0.404133 0.8903504 0.209649
vn -0.404133 0.8903504 0.209649
vn -0.2173125 -0.9759741 -0.01580404
vn -0.2173125 -0.9759741 -0.01580404
vn 0.08736967 -0.9894295 -0.1157404
vn 0.0873699 -0.9894295 -0.1157405
vn 0.404133 -0.8903504 -0.209649
vn 0.404133 -0.8903504 -0.209649

vt 0.7104492 0.08880615
vt 0.7104492 0.1160889
vt 0.7470703 0.1010742
vt 0.7436523 0.09014893
vt 0.7436523 0.09014893
vt 0.7470703 0.1010742
vt 0.7104492 0.1160889
vt 0.7104492 0.08880615
vt 0.7104492 0.08880615
vt 0.7104492 0.1160889
vt 0.7470703 0.1010742
vt 0.7436523 0.09014893
vt 0.7436523 0.09014893
vt 0.7470703 0.1010742
vt 0.7104492 0.1160889
vt 0.7104492 0.08880615
vt 0.7475586 0.06384277
vt 0.7514648 0.1036377
vt 0.7827148 0.1065674
vt 0.7827148 0.05969238
vt 0.7475586 0.06384277
vt 0.7827148 0.05969238
vt 0.7827148 0.1065674
vt 0.7514648 0.1036377
vt 0.7475586 0.06384277
vt 0.7514648 0.1036377
vt 0.7827148 0.1065674
vt 0.7827148 0.05969238
vt 0.7475586 0.06384277
vt 0.7827148 0.05969238
vt 0.7827148 0.1065674
vt 0.7514648 0.1036377
vt 0.7104492 0.08880615
vt 0.7104492 0.1160889
vt 0.7470703 0.1010742
vt 0.7436523 0.09014893
vt 0.7436523 0.09014893
vt 0.7470703 0.1010742
vt 0.7104492 0.1160889
vt 0.7104492 0.08880615
vt 0.6503906 0.03137207
vt 0.6503906 0.05950928
vt 0.7075195 0.05950928
vt 0.7075195 0.03137207
vt 0.7075195 0.08551025
vt 0.6503906 0.08551025
vt 0.6503906 0.03137207
vt 0.7075195 0.03137207
vt 0.7075195 0.05950928
vt 0.6503906 0.05950928
vt 0.7075195 0.08551025
vt 0.6503906 0.08551025
vt 0.6601563 0.02832031
vt 0.6875 0.02832031
vt 0.6875 0.002780914
vt 0.6601563 0.002780914
vt 0.6601563 0.02832031
vt 0.6601563 0.002780914
vt 0.6875 0.002780914
vt 0.6875 0.02832031
vt 0.6601563 0.02832031
vt 0.6875 0.02832031
vt 0.6875 0.002780914
vt 0.6601563 0.002780914
vt 0.6601563 0.02832031
vt 0.6601563 0.002780914
vt 0.6875 0.002780914
vt 0.6875 0.02832031
vt 0.6503906 0.08843994
vt 0.6503906 0.1165771
vt 0.7075195 0.1165771
vt 0.7075195 0.08843994
vt 0.7075195 0.1425781
vt 0.6503906 0.1425781
vt 0.6503906 0.08843994
vt 0.7075195 0.08843994
vt 0.7075195 0.1165771
vt 0.6503906 0.1165771
vt 0.7075195 0.1425781
vt 0.6503906 0.1425781
vt 0.6503906 0.08843994
vt 0.6503906 0.1165771
vt 0.7075195 0.1165771
vt 0.7075195 0.08843994
vt 0.7075195 0.1425781
vt 0.6503906 0.1425781
vt 0.6503906 0.08843994
vt 0.7075195 0.08843994
vt 0.7075195 0.1165771
vt 0.6503906 0.1165771
vt 0.7075195 0.1425781
vt 0.6503906 0.1425781
vt 0.6503906 0.03137207
vt 0.6503906 0.05950928
vt 0.7075195 0.05950928
vt 0.7075195 0.03137207
vt 0.7075195 0.08551025
vt 0.6503906 0.08551025
vt 0.6503906 0.03137207
vt 0.7075195 0.03137207
vt 0.7075195 0.05950928
vt 0.6503906 0.05950928
vt 0.7075195 0.08551025
vt 0.6503906 0.08551025
vt 0.706543 0.09033203
vt 0.706543 0.1160889
vt 0.7412109 0.1019287
vt 0.737793 0.09161377
vt 0.737793 0.09161377
vt 0.7412109 0.1019287
vt 0.706543 0.1160889
vt 0.706543 0.09033203
vt 0.6503906 0.03137207
vt 0.6503906 0.05950928
vt 0.7075195 0.05950928
vt 0.7075195 0.03137207
vt 0.7075195 0.08551025
vt 0.6503906 0.08551025
vt 0.6503906 0.03137207
vt 0.7075195 0.03137207
vt 0.7075195 0.05950928
vt 0.6503906 0.05950928
vt 0.7075195 0.08551025
vt 0.6503906 0.08551025

g alpha_2707_602
usemtl alpha_2707_602
usemap alpha_2707_602
f 1/1/1 3/3/3 2/2/2
f 1/1/1 4/4/4 3/3/3
f 5/5/5 7/7/7 6/6/6
f 5/5/5 8/8/8 7/7/7
f 9/9/9 11/11/11 10/10/10
f 9/9/9 12/12/12 11/11/11
f 13/13/13 15/15/15 14/14/14
f 13/13/13 16/16/16 15/15/15
f 17/17/17 19/19/19 18/18/18
f 17/17/17 20/20/20 19/19/19
f 21/21/21 23/23/23 22/22/22
f 21/21/21 24/24/24 23/23/23
f 25/25/25 27/27/27 26/26/26
f 25/25/25 28/28/28 27/27/27
f 29/29/29 31/31/31 30/30/30
f 29/29/29 32/32/32 31/31/31
f 33/33/33 35/35/35 34/34/34
f 33/33/33 36/36/36 35/35/35
f 37/37/37 39/39/39 38/38/38
f 37/37/37 40/40/40 39/39/39
f 41/41/41 43/43/43 42/42/42
f 41/41/41 44/44/44 43/43/43
f 42/42/42 43/43/43 45/45/45
f 42/42/42 45/45/45 46/46/46
f 47/47/47 49/49/49 48/48/48
f 47/47/47 50/50/50 49/49/49
f 50/50/50 51/51/51 49/49/49
f 50/50/50 52/52/52 51/51/51
f 53/53/53 55/55/55 54/54/54
f 53/53/53 56/56/56 55/55/55
f 57/57/57 59/59/59 58/58/58
f 57/57/57 60/60/60 59/59/59
f 61/61/61 63/63/63 62/62/62
f 61/61/61 64/64/64 63/63/63
f 65/65/65 67/67/67 66/66/66
f 65/65/65 68/68/68 67/67/67
f 69/69/69 71/71/71 70/70/70
f 69/69/69 72/72/72 71/71/71
f 70/70/70 71/71/71 73/73/73
f 70/70/70 73/73/73 74/74/74
f 75/75/75 77/77/77 76/76/76
f 75/75/75 78/78/78 77/77/77
f 78/78/78 79/79/79 77/77/77
f 78/78/78 80/80/80 79/79/79
f 81/81/81 83/83/83 82/82/82
f 81/81/81 84/84/84 83/83/83
f 82/82/82 83/83/83 85/85/85
f 82/82/82 85/85/85 86/86/86
f 87/87/87 89/89/89 88/88/88
f 87/87/87 90/90/90 89/89/89
f 90/90/90 91/91/91 89/89/89
f 90/90/90 92/92/92 91/91/91
f 93/93/93 95/95/95 94/94/94
f 93/93/93 96/96/96 95/95/95
f 94/94/94 95/95/95 97/97/97
f 94/94/94 97/97/97 98/98/98
f 99/99/99 101/101/101 100/100/100
f 99/99/99 102/102/102 101/101/101
f 102/102/102 103/103/103 101/101/101
f 102/102/102 104/104/104 103/103/103
f 105/105/105 107/107/107 106/106/106
f 105/105/105 108/108/108 107/107/107
f 109/109/109 111/111/111 110/110/110
f 109/109/109 112/112/112 111/111/111
f 113/113/113 115/115/115 114/114/114
f 113/113/113 116/116/116 115/115/115
f 114/114/114 115/115/115 117/117/117
f 114/114/114 117/117/117 118/118/118
f 119/119/119 121/121/121 120/120/120
f 119/119/119 122/122/122 121/121/121
f 122/122/122 123/123/123 121/121/121
f 122/122/122 124/124/124 123/123/123
