#alpha_2936_364.obj

v -2.089062 0.343719 0.984573
v -1.151996 0.2738385 0.3468141
v -0.5818301 0.7819153 0.7624226
v -1.6071 0.9459453 1.588032
v -2.089062 0.343719 0.984573
v -1.6071 0.9459453 1.588032
v -0.5818301 0.7819153 0.7624226
v -1.151996 0.2738385 0.3468141
v -1.471269 0.762361 0.8464935
v -1.088705 0.7677457 1.022901
v -1.255299 0.9177921 1.379603
v -1.637863 0.9124074 1.203195
v -1.471269 0.762361 0.8464935
v -1.637863 0.9124074 1.203195
v -1.255299 0.9177921 1.379603
v -1.088705 0.7677457 1.022901
v -0.6164909 1.124295 -1.104374
v 0.04511128 1.463433 -0.8024164
v -0.6650618 1.125764 -0.01923472
v -0.8896687 1.00811 -0.2275821
v -0.8896687 1.00811 -0.2275821
v -0.6650618 1.125764 -0.01923472
v 0.04511128 1.463433 -0.8024164
v -0.6164909 1.124295 -1.104374
v -1.013801 1.005255 -0.07923818
v -0.7022207 1.184349 0.07997343
v -1.089549 1.339228 0.6637635
v -1.401129 1.160133 0.5045519
v -0.7972751 1.273926 0.8750033
v -0.409947 1.119047 0.2912134
v -1.013801 1.005255 -0.07923818
v -1.401129 1.160133 0.5045519
v -1.089549 1.339228 0.6637635
v -0.7022207 1.184349 0.07997343
v -0.7972751 1.273926 0.8750033
v -0.409947 1.119047 0.2912134
v -0.4770617 0.4782352 0.06670319
v -1.074384 0.6456935 0.3802645
v -1.651766 0.6993909 -0.7483074
v -1.054439 0.5319327 -1.061869
v -2.182445 0.4321422 -0.4895266
v -1.605063 0.3784448 0.6390455
v -0.4770617 0.4782352 0.06670319
v -1.054439 0.5319327 -1.061869
v -1.651766 0.6993909 -0.7483074
v -1.074384 0.6456935 0.3802645
v -2.182445 0.4321422 -0.4895266
v -1.605063 0.3784448 0.6390455
v -1.25928 0.6932877 0.3803727
v -0.8656304 0.8446452 0.3321534
v -0.7713648 0.844503 1.101266
v -1.165014 0.6931455 1.149485
v -0.3965873 0.7258777 1.05531
v -0.4908529 0.7260199 0.2861973
v -1.25928 0.6932877 0.3803727
v -1.165014 0.6931455 1.149485
v -0.7713648 0.844503 1.101266
v -0.8656304 0.8446452 0.3321534
v -0.3965873 0.7258777 1.05531
v -0.4908529 0.7260199 0.2861973
v -1.36904 0.4644932 0.4383745
v -1.060644 0.2715791 0.1626042
v -0.1530388 0.4896567 1.73689
v -0.2603346 0.06636488 0.3438783
v 0.2639768 0.2246844 1.351508
v 0.2639768 0.2246844 1.351508
v -1.060644 0.2715791 0.1626042
v -1.36904 0.4644932 0.4383745
v -0.1530388 0.4896567 1.73689
v -0.2603346 0.06636488 0.3438783
v -2.542325 0.6146033 -0.7540926
v -1.927901 0.3369827 -1.189204
v -1.818127 0.1321399 -0.1039717
v -2.100247 0.274451 -0.0153415
v -2.100247 0.274451 -0.0153415
v -1.818127 0.1321399 -0.1039717
v -1.927901 0.3369827 -1.189204
v -2.542325 0.6146033 -0.7540926
v -2.431669 0.3220962 -0.1498024
v -2.10535 0.3546739 0.03773091
v -2.45035 0.5364035 0.6064877
v -2.77667 0.5038257 0.4189545
v -2.224723 0.3503498 0.8027983
v -1.879723 0.1686202 0.2340415
v -2.431669 0.3220962 -0.1498024
v -2.77667 0.5038257 0.4189545
v -2.45035 0.5364035 0.6064877
v -2.10535 0.3546739 0.03773091
v -2.224723 0.3503498 0.8027983
v -1.879723 0.1686202 0.2340415
v -1.124205 0.02260217 0.3338769
v 0.2374755 0.187766 -1.137517
v -1.703666 0.5630497 -0.1704148
v -0.3881621 0.5630497 -1.681999
v -0.08868242 0.02260217 1.235071
v -1.124205 0.02260217 0.3338769
v 0.2374755 0.187766 -1.137517
v 1.346876 0.1015486 -0.1720281
v -1.703666 0.5630497 -0.1704148
v -0.3881621 0.5630497 -1.681999
v -0.3388447 1.328176 -0.9267114
v 0.04371903 1.33356 -0.750304
v -0.1228781 1.483607 -0.3936023
v -0.5054418 1.478222 -0.5700096
v -0.3388447 1.328176 -0.9267114
v -0.5054418 1.478222 -0.5700096
v -0.1228781 1.483607 -0.3936023
v 0.04371903 1.33356 -0.750304
v -2.09129 0.5110629 -0.9647678
v -1.330925 0.6769559 -1.107677
v -1.090353 0.3121727 -0.2511226
v -1.450275 0.1667764 -0.03896346
v -2.09129 0.5110629 -0.9647678
v -1.450275 0.1667764 -0.03896346
v -1.090353 0.3121727 -0.2511226
v -1.330925 0.6769559 -1.107677

vn 0.5432391 0.7849923 -0.2977894
vn 0.5432391 0.7849923 -0.2977894
vn 0.5432391 0.7849922 -0.2977893
vn 0.5432391 0.7849922 -0.2977893
vn -0.5432391 -0.7849923 0.2977894
vn -0.5432391 -0.7849922 0.2977893
vn -0.5432391 -0.7849922 0.2977893
vn -0.5432391 -0.7849923 0.2977894
vn 0.3259065 0.9343448 0.1441692
vn 0.3259065 0.9343448 0.1441692
vn 0.3259065 0.9343448 0.1441692
vn 0.3259065 0.9343448 0.1441692
vn -0.3259066 -0.9343448 -0.1441692
vn -0.3259065 -0.9343448 -0.1441692
vn -0.3259065 -0.9343448 -0.1441692
vn -0.3259066 -0.9343448 -0.1441692
vn 0.02931769 0.8936044 -0.4478969
vn 0.02931769 0.8936045 -0.4478969
vn 0.02931769 0.8936044 -0.4478969
vn 0.02931769 0.8936044 -0.4478969
vn -0.02931762 -0.8936044 0.4478969
vn -0.02931762 -0.8936044 0.4478969
vn -0.02931761 -0.8936045 0.4478969
vn -0.02931761 -0.8936044 0.4478969
vn 0.4220784 0.8636028 -0.2757539
vn 0.2675484 0.9634596 -0.01279247
vn 0.2675484 0.9634596 -0.01279246
vn 0.4220784 0.8636028 -0.2757539
vn 0.07111347 0.9600296 0.270714
vn 0.07111347 0.9600296 0.2707139
vn -0.4220783 -0.8636028 0.2757539
vn -0.4220783 -0.8636028 0.2757538
vn -0.2675484 -0.9634596 0.01279247
vn -0.2675484 -0.9634596 0.01279247
vn -0.0711135 -0.9600296 -0.270714
vn -0.07111348 -0.9600296 -0.270714
vn 0.06906126 0.9696236 0.2346503
vn -0.07248764 0.9960038 -0.05217293
vn -0.07248766 0.9960037 -0.05217298
vn 0.06906125 0.9696236 0.2346503
vn -0.2159897 0.9100332 -0.3538193
vn -0.2159897 0.9100332 -0.3538193
vn -0.06906126 -0.9696236 -0.2346503
vn -0.06906125 -0.9696236 -0.2346503
vn 0.07248766 -0.9960037 0.05217298
vn 0.07248764 -0.9960038 0.05217293
vn 0.2159897 -0.9100332 0.3538193
vn 0.2159897 -0.9100332 0.3538193
vn -0.03719115 0.9342722 -0.3546158
vn -0.004568365 0.9991074 -0.04199505
vn -0.004568366 0.9991074 -0.04199509
vn -0.03719115 0.9342722 -0.3546159
vn 0.03094526 0.9540254 0.2981239
vn 0.03094526 0.9540254 0.2981239
vn 0.0371911 -0.9342722 0.3546158
vn 0.0371911 -0.9342722 0.3546158
vn 0.004568319 -0.9991074 0.04199507
vn 0.004568317 -0.9991074 0.04199504
vn -0.0309453 -0.9540254 -0.2981239
vn -0.0309453 -0.9540254 -0.2981239
vn 0.2930015 0.9060795 0.3052377
vn 0.2930013 0.9060797 0.3052374
vn 0.2930013 0.9060798 0.3052372
vn 0.2930012 0.9060798 0.3052372
vn 0.2930013 0.9060798 0.3052372
vn -0.2930013 -0.9060797 -0.3052374
vn -0.2930013 -0.9060797 -0.3052374
vn -0.2930013 -0.9060797 -0.3052374
vn -0.2930013 -0.9060797 -0.3052374
vn -0.2930013 -0.9060798 -0.3052372
vn -0.124873 0.8715973 0.4740516
vn -0.124873 0.8715973 0.4740516
vn -0.124873 0.8715973 0.4740516
vn -0.124873 0.8715973 0.4740516
vn 0.124873 -0.8715973 -0.4740515
vn 0.124873 -0.8715973 -0.4740515
vn 0.124873 -0.8715974 -0.4740515
vn 0.124873 -0.8715973 -0.4740515
vn 0.2696661 0.9607883 0.06454452
vn 0.09364251 0.9386253 0.3319844
vn 0.09364247 0.9386253 0.3319844
vn 0.2696661 0.9607883 0.06454453
vn -0.1058944 0.8071724 0.5807402
vn -0.1058943 0.8071724 0.5807403
vn -0.2696661 -0.9607883 -0.06454452
vn -0.2696661 -0.9607883 -0.06454452
vn -0.09364246 -0.9386253 -0.3319845
vn -0.0936425 -0.9386253 -0.3319844
vn 0.1058943 -0.8071724 -0.5807402
vn 0.1058943 -0.8071724 -0.5807403
vn 0.4469645 -0.8149263 -0.3689415
vn 0.3262762 -0.8875011 -0.325401
vn 0.40366 -0.8437135 -0.353845
vn 0.2761683 -0.9110732 -0.3060665
vn -0.06661191 0.9975911 -0.01936294
vn -0.1667238 0.9827511 0.08002137
vn -0.1318128 0.9891287 0.06519048
vn -0.0666119 0.9975911 -0.01936294
vn -0.4036599 0.8437135 0.3538449
vn -0.2761683 0.9110732 0.3060665
vn 0.3259065 0.9343448 0.1441692
vn 0.3259066 0.9343448 0.1441692
vn 0.3259066 0.9343448 0.1441692
vn 0.3259065 0.9343448 0.1441692
vn -0.3259067 -0.9343448 -0.1441692
vn -0.3259067 -0.9343448 -0.1441692
vn -0.3259067 -0.9343448 -0.1441692
vn -0.3259067 -0.9343448 -0.1441692
vn -0.414811 0.9011827 -0.1257045
vn -0.414811 0.9011827 -0.1257044
vn -0.414811 0.9011827 -0.1257045
vn -0.414811 0.9011827 -0.1257045
vn 0.414811 -0.9011827 0.1257044
vn 0.414811 -0.9011828 0.1257044
vn 0.414811 -0.9011827 0.1257044
vn 0.414811 -0.9011827 0.1257044

vt 0.7475586 0.06384277
vt 0.7514648 0.1036377
vt 0.7827148 0.1065674
vt 0.7827148 0.05969238
vt 0.7475586 0.06384277
vt 0.7827148 0.05969238
vt 0.7827148 0.1065674
vt 0.7514648 0.1036377
vt 0.6601563 0.02832031
vt 0.6875 0.02832031
vt 0.6875 0.002780914
vt 0.6601563 0.002780914
vt 0.6601563 0.02832031
vt 0.6601563 0.002780914
vt 0.6875 0.002780914
vt 0.6875 0.02832031
vt 0.7104492 0.08880615
vt 0.7104492 0.1160889
vt 0.7470703 0.1010742
vt 0.7436523 0.09014893
vt 0.7436523 0.09014893
vt 0.7470703 0.1010742
vt 0.7104492 0.1160889
vt 0.7104492 0.08880615
vt 0.6503906 0.03137207
vt 0.6503906 0.05950928
vt 0.7075195 0.05950928
vt 0.7075195 0.03137207
vt 0.7075195 0.08551025
vt 0.6503906 0.08551025
vt 0.6503906 0.03137207
vt 0.7075195 0.03137207
vt 0.7075195 0.05950928
vt 0.6503906 0.05950928
vt 0.7075195 0.08551025
vt 0.6503906 0.08551025
vt 0.6503906 0.03137207
vt 0.6503906 0.05950928
vt 0.7075195 0.05950928
vt 0.7075195 0.03137207
vt 0.7075195 0.08551025
vt 0.6503906 0.08551025
vt 0.6503906 0.03137207
vt 0.7075195 0.03137207
vt 0.7075195 0.05950928
vt 0.6503906 0.05950928
vt 0.7075195 0.08551025
vt 0.6503906 0.08551025
vt 0.6503906 0.08843994
vt 0.6503906 0.1165771
vt 0.7075195 0.1165771
vt 0.7075195 0.08843994
vt 0.7075195 0.1425781
vt 0.6503906 0.1425781
vt 0.6503906 0.08843994
vt 0.7075195 0.08843994
vt 0.7075195 0.1165771
vt 0.6503906 0.1165771
vt 0.7075195 0.1425781
vt 0.6503906 0.1425781
vt 0.7744141 0.144165
vt 0.7744141 0.1281738
vt 0.7104492 0.144165
vt 0.75 0.1109009
vt 0.7104492 0.1228027
vt 0.7104492 0.1228027
vt 0.7744141 0.1281738
vt 0.7744141 0.144165
vt 0.7104492 0.144165
vt 0.75 0.1109009
vt 0.7104492 0.08880615
vt 0.7104492 0.1160889
vt 0.7470703 0.1010742
vt 0.7436523 0.09014893
vt 0.7436523 0.09014893
vt 0.7470703 0.1010742
vt 0.7104492 0.1160889
vt 0.7104492 0.08880615
vt 0.6503906 0.08843994
vt 0.6503906 0.1165771
vt 0.7075195 0.1165771
vt 0.7075195 0.08843994
vt 0.7075195 0.1425781
vt 0.6503906 0.1425781
vt 0.6503906 0.08843994
vt 0.7075195 0.08843994
vt 0.7075195 0.1165771
vt 0.6503906 0.1165771
vt 0.7075195 0.1425781
vt 0.6503906 0.1425781
vt 0.7104492 0.1149292
vt 0.7827148 0.1116333
vt 0.7104492 0.144165
vt 0.7827148 0.144165
vt 0.7104492 0.0682373
vt 0.7104492 0.1149292
vt 0.7827148 0.1116333
vt 0.7827148 0.05969238
vt 0.7104492 0.144165
vt 0.7827148 0.144165
vt 0.6601563 0.02832031
vt 0.6875 0.02832031
vt 0.6875 0.002780914
vt 0.6601563 0.002780914
vt 0.6601563 0.02832031
vt 0.6601563 0.002780914
vt 0.6875 0.002780914
vt 0.6875 0.02832031
vt 0.7104492 0.1172485
vt 0.7104492 0.144165
vt 0.7451172 0.144165
vt 0.7504883 0.1300049
vt 0.7104492 0.1172485
vt 0.7504883 0.1300049
vt 0.7451172 0.144165
vt 0.7104492 0.144165

g alpha_2936_364
usemtl alpha_2936_364
usemap alpha_2936_364
f 1/1/1 3/3/3 2/2/2
f 1/1/1 4/4/4 3/3/3
f 5/5/5 7/7/7 6/6/6
f 5/5/5 8/8/8 7/7/7
f 9/9/9 11/11/11 10/10/10
f 9/9/9 12/12/12 11/11/11
f 13/13/13 15/15/15 14/14/14
f 13/13/13 16/16/16 15/15/15
f 17/17/17 19/19/19 18/18/18
f 17/17/17 20/20/20 19/19/19
f 21/21/21 23/23/23 22/22/22
f 21/21/21 24/24/24 23/23/23
f 25/25/25 27/27/27 26/26/26
f 25/25/25 27/27/27 26/26/26
f 25/25/25 28/28/28 27/27/27
f 25/25/25 28/28/28 27/27/27
f 26/26/26 27/27/27 29/29/29
f 26/26/26 27/27/27 29/29/29
f 26/26/26 29/29/29 30/30/30
f 26/26/26 29/29/29 30/30/30
f 31/31/31 33/33/33 32/32/32
f 31/31/31 33/33/33 32/32/32
f 31/31/31 34/34/34 33/33/33
f 31/31/31 34/34/34 33/33/33
f 34/34/34 35/35/35 33/33/33
f 34/34/34 35/35/35 33/33/33
f 34/34/34 36/36/36 35/35/35
f 34/34/34 36/36/36 35/35/35
f 37/37/37 39/39/39 38/38/38
f 37/37/37 40/40/40 39/39/39
f 38/38/38 39/39/39 41/41/41
f 38/38/38 41/41/41 42/42/42
f 43/43/43 45/45/45 44/44/44
f 43/43/43 46/46/46 45/45/45
f 46/46/46 47/47/47 45/45/45
f 46/46/46 48/48/48 47/47/47
f 49/49/49 51/51/51 50/50/50
f 49/49/49 52/52/52 51/51/51
f 50/50/50 51/51/51 53/53/53
f 50/50/50 53/53/53 54/54/54
f 55/55/55 57/57/57 56/56/56
f 55/55/55 58/58/58 57/57/57
f 58/58/58 59/59/59 57/57/57
f 58/58/58 60/60/60 59/59/59
f 61/61/61 63/63/63 62/62/62
f 64/64/64 62/62/62 63/63/63
f 64/64/64 63/63/63 65/65/65
f 66/66/66 68/68/68 67/67/67
f 66/66/66 69/69/69 68/68/68
f 66/66/66 67/67/67 70/70/70
f 71/71/71 73/73/73 72/72/72
f 71/71/71 74/74/74 73/73/73
f 75/75/75 77/77/77 76/76/76
f 75/75/75 78/78/78 77/77/77
f 79/79/79 81/81/81 80/80/80
f 79/79/79 82/82/82 81/81/81
f 80/80/80 81/81/81 83/83/83
f 80/80/80 83/83/83 84/84/84
f 85/85/85 87/87/87 86/86/86
f 85/85/85 88/88/88 87/87/87
f 88/88/88 89/89/89 87/87/87
f 88/88/88 90/90/90 89/89/89
f 91/91/91 93/93/93 92/92/92
f 92/92/92 93/93/93 94/94/94
f 95/95/95 97/97/97 96/96/96
f 95/95/95 98/98/98 97/97/97
f 96/96/96 97/97/97 99/99/99
f 99/99/99 97/97/97 100/100/100
f 101/101/101 103/103/103 102/102/102
f 101/101/101 104/104/104 103/103/103
f 105/105/105 107/107/107 106/106/106
f 105/105/105 108/108/108 107/107/107
f 109/109/109 111/111/111 110/110/110
f 109/109/109 112/112/112 111/111/111
f 113/113/113 115/115/115 114/114/114
f 113/113/113 116/116/116 115/115/115
