#alpha_1518_277.obj

v -1.887878 0.5564871 -2.074697
v -0.7887204 0.2929324 -1.964674
v -0.4623882 0.4360165 -2.757765
v -1.719474 0.7726413 -3.014935
v -1.887878 0.5564871 -2.074697
v -1.719474 0.7726413 -3.014935
v -0.4623882 0.4360165 -2.757765
v -0.7887204 0.2929324 -1.964674
v 0.2079854 1.649873 -1.31157
v -0.06071035 1.351743 -0.2491943
v 0.7112143 1.228246 0.1313819
v 1.153978 1.563645 -1.073268
v 0.2079854 1.649873 -1.31157
v 1.153978 1.563645 -1.073268
v 0.7112143 1.228246 0.1313819
v -0.06071035 1.351743 -0.2491943
v -0.7845235 0.5275576 0.318614
v -0.3634667 0.9722703 -0.6377625
v -1.039049 1.398132 -0.9815527
v -1.647936 0.9362564 0.1027176
v -0.7845235 0.5275576 0.318614
v -1.647936 0.9362564 0.1027176
v -1.039049 1.398132 -0.9815527
v -0.3634667 0.9722703 -0.6377625
v -1.767022 0.4393916 -0.9759091
v -1.486216 0.2625522 -1.706514
v -0.6960784 0.2645009 -0.9271438
v -0.8957399 0.3424929 -0.6786466
v -0.8957399 0.3424929 -0.6786466
v -0.6960784 0.2645009 -0.9271438
v -1.486216 0.2625522 -1.706514
v -1.767022 0.4393916 -0.9759091
v 0.479816 0.5867753 -1.793381
v 0.4836494 0.6608601 -0.935122
v -0.511884 0.08017962 -1.354435
v -0.4184262 0.1734829 -1.693781
v -0.4184262 0.1734829 -1.693781
v -0.511884 0.08017962 -1.354435
v 0.4836494 0.6608601 -0.935122
v 0.479816 0.5867753 -1.793381
v 0.6874828 1.470394 -0.90566
v 0.4388223 1.524126 -0.9594201
v 0.486544 1.348541 -1.374053
v 0.7352041 1.294809 -1.320295
v 0.2638921 1.253515 -1.35958
v 0.2161689 1.429099 -0.944945
v 0.6874828 1.470394 -0.90566
v 0.7352041 1.294809 -1.320295
v 0.486544 1.348541 -1.374053
v 0.4388223 1.524126 -0.9594201
v 0.2638921 1.253515 -1.35958
v 0.2161689 1.429099 -0.944945
v 0.6616068 1.411111 -0.2273775
v 0.5850263 1.453294 -0.5643566
v 1.154707 1.312596 -0.7166923
v 1.231287 1.270412 -0.3797151
v 1.045464 1.149726 -0.9754794
v 0.4757832 1.290424 -0.8231418
v 0.6616068 1.411111 -0.2273775
v 1.231287 1.270412 -0.3797151
v 1.154707 1.312596 -0.7166923
v 0.5850263 1.453294 -0.5643566
v 1.045464 1.149726 -0.9754794
v 0.4757832 1.290424 -0.8231418
v -0.3299691 0.5623783 -1.119757
v -0.4803879 0.8530496 -0.6420467
v -1.439734 1.027385 -1.050196
v -1.289315 0.7367133 -1.527908
v -1.660207 0.9556894 -0.5626031
v -0.7008609 0.7813545 -0.154454
v -0.3299691 0.5623783 -1.119757
v -1.289315 0.7367133 -1.527908
v -1.439734 1.027385 -1.050196
v -0.4803879 0.8530496 -0.6420467
v -1.660207 0.9556894 -0.5626031
v -0.7008609 0.7813545 -0.154454
v 0.1755339 1.015538 -0.360014
v -0.1749661 1.255757 -0.5706317
v 0.09571067 0.9735295 -1.342974
v 0.4462103 0.7333099 -1.132358
v -0.3242691 0.9303269 -1.474373
v -0.5949459 1.212554 -0.7020314
v 0.1755339 1.015538 -0.360014
v 0.4462103 0.7333099 -1.132358
v 0.09571067 0.9735295 -1.342974
v -0.1749661 1.255757 -0.5706317
v -0.3242691 0.9303269 -1.474373
v -0.5949459 1.212554 -0.7020314
v 0.3165796 0.05724907 -1.149777
v -0.01358211 0.3435688 -1.268026
v 0.3305812 0.4620756 -1.967374
v 0.6607429 0.1757559 -1.849125
v -0.0487516 0.4720817 -2.152607
v -0.392913 0.3535749 -1.453259
v 0.3165796 0.05724907 -1.149777
v 0.6607429 0.1757559 -1.849125
v 0.3305812 0.4620756 -1.967374
v -0.01358211 0.3435688 -1.268026
v -0.0487516 0.4720817 -2.152607
v -0.392913 0.3535749 -1.453259
v -0.8524467 0.1543666 -1.301469
v -1.152382 0.3812687 -1.31021
v -1.27144 0.2091039 -1.930982
v -0.9715044 -0.01779819 -1.922242
v -1.616216 0.2123325 -1.865949
v -1.497159 0.3844975 -1.245178
v -0.8524467 0.1543666 -1.301469
v -0.9715044 -0.01779819 -1.922242
v -1.27144 0.2091039 -1.930982
v -1.152382 0.3812687 -1.31021
v -1.616216 0.2123325 -1.865949
v -1.497159 0.3844975 -1.245178
v 0.402624 1.580118 -0.9709948
v 0.5976092 1.532007 -0.6006316
v 0.2266714 1.458454 -0.4148963
v 0.03168445 1.506565 -0.7852592
v 0.402624 1.580118 -0.9709948
v 0.03168445 1.506565 -0.7852592
v 0.2266714 1.458454 -0.4148963
v 0.5976092 1.532007 -0.6006316

vn -0.2861303 -0.9460989 0.1517441
vn -0.2861304 -0.9460989 0.1517441
vn -0.2861304 -0.9460989 0.1517441
vn -0.2861303 -0.9460989 0.1517441
vn 0.2861303 0.9460989 -0.1517441
vn 0.2861302 0.946099 -0.1517441
vn 0.2861302 0.946099 -0.1517441
vn 0.2861302 0.946099 -0.151744
vn -0.2732329 -0.9614165 -0.03197137
vn -0.2732329 -0.9614165 -0.03197138
vn -0.2732329 -0.9614165 -0.03197138
vn -0.2732329 -0.9614165 -0.03197137
vn 0.273233 0.9614165 0.03197138
vn 0.2732329 0.9614165 0.03197138
vn 0.2732329 0.9614165 0.03197138
vn 0.2732329 0.9614165 0.03197138
vn -0.5401145 -0.824379 0.1693391
vn -0.5401145 -0.824379 0.1693391
vn -0.5401145 -0.824379 0.1693391
vn -0.5401145 -0.824379 0.1693391
vn 0.5401149 0.8243787 -0.1693393
vn 0.5401149 0.8243787 -0.1693393
vn 0.5401149 0.8243787 -0.1693393
vn 0.5401149 0.8243787 -0.1693392
vn -0.1378236 0.9711035 -0.19484
vn -0.1378236 0.9711035 -0.19484
vn -0.1378236 0.9711035 -0.19484
vn -0.1378236 0.9711035 -0.19484
vn 0.1378236 -0.9711035 0.1948399
vn 0.1378236 -0.9711035 0.1948399
vn 0.1378235 -0.9711035 0.1948399
vn 0.1378236 -0.9711035 0.1948399
vn -0.1044049 0.8866739 0.4504544
vn -0.1044049 0.8866739 0.4504544
vn -0.1044049 0.8866739 0.4504544
vn -0.1044049 0.8866739 0.4504544
vn 0.1044049 -0.8866737 -0.4504547
vn 0.1044049 -0.8866737 -0.4504547
vn 0.1044049 -0.8866737 -0.4504547
vn 0.1044049 -0.8866737 -0.4504547
vn -0.293966 0.897535 -0.3286563
vn -0.3959433 0.9179011 -0.02620064
vn -0.3964529 0.9177333 -0.02430313
vn -0.2939659 0.897535 -0.3286563
vn -0.4604152 0.834418 0.3029267
vn -0.4604152 0.834418 0.3029267
vn 0.2939666 -0.8975345 0.328657
vn 0.2939666 -0.8975345 0.328657
vn 0.3964531 -0.9177333 0.02430357
vn 0.3959434 -0.917901 0.02620108
vn 0.4604148 -0.8344182 -0.3029264
vn 0.4604148 -0.8344183 -0.3029265
vn 0.108366 0.9648728 -0.239327
vn -0.2101322 0.9543951 -0.2120719
vn -0.212054 0.9540229 -0.2118335
vn 0.108366 0.9648728 -0.239327
vn -0.529408 0.8334633 -0.1583232
vn -0.5294079 0.8334633 -0.1583232
vn -0.1083655 -0.9648729 0.2393268
vn -0.1083655 -0.9648729 0.2393268
vn 0.2120545 -0.9540228 0.2118334
vn 0.2101328 -0.954395 0.2120718
vn 0.5294082 -0.833463 0.1583233
vn 0.5294083 -0.833463 0.1583233
vn -0.3455062 0.8490194 -0.3997394
vn -0.0858189 0.9643045 -0.2505036
vn -0.08581893 0.9643044 -0.2505036
vn -0.3455062 0.8490194 -0.3997394
vn 0.2025535 0.9773254 -0.06170253
vn 0.2025535 0.9773254 -0.06170253
vn 0.3455062 -0.8490194 0.3997394
vn 0.3455063 -0.8490194 0.3997394
vn 0.08581895 -0.9643044 0.2505036
vn 0.08581892 -0.9643044 0.2505036
vn -0.2025535 -0.9773254 0.0617025
vn -0.2025535 -0.9773254 0.06170251
vn 0.02784704 0.7982165 -0.6017267
vn -0.1546772 0.9175633 -0.3662685
vn -0.1546772 0.9175633 -0.3662684
vn 0.02784704 0.7982165 -0.6017267
vn -0.3326983 0.940303 -0.07170857
vn -0.3326983 0.940303 -0.07170855
vn -0.027847 -0.7982165 0.6017267
vn -0.02784701 -0.7982165 0.6017267
vn 0.1546772 -0.9175634 0.3662683
vn 0.1546772 -0.9175634 0.3662684
vn 0.3326982 -0.940303 0.07170846
vn 0.3326982 -0.940303 0.07170846
vn 0.4745421 0.7609301 -0.4424877
vn 0.3292251 0.9212868 -0.2069819
vn 0.3282117 0.9219922 -0.2054445
vn 0.4745421 0.76093 -0.4424877
vn 0.1347207 0.9883565 0.07072416
vn 0.1347207 0.9883565 0.07072415
vn -0.4745418 -0.7609302 0.4424876
vn -0.4745418 -0.7609303 0.4424876
vn -0.3282115 -0.9219923 0.2054444
vn -0.3292249 -0.9212869 0.2069817
vn -0.1347208 -0.9883565 -0.07072419
vn -0.1347208 -0.9883565 -0.07072419
vn -0.2082321 0.7512986 -0.6262507
vn -0.2482293 0.9040016 -0.3480853
vn -0.2483994 0.9046648 -0.346236
vn -0.2082321 0.7512986 -0.6262507
vn -0.2628406 0.9648046 -0.008173715
vn -0.2628406 0.9648046 -0.008173712
vn 0.2082322 -0.7512984 0.6262509
vn 0.2082322 -0.7512984 0.6262509
vn 0.2483995 -0.9046648 0.3462362
vn 0.2482294 -0.9040015 0.3480855
vn 0.2628406 -0.9648046 0.008173741
vn 0.2628406 -0.9648046 0.008173738
vn 0.1594422 0.9779987 0.1345244
vn 0.1594421 0.9779987 0.1345244
vn 0.1594422 0.9779987 0.1345244
vn 0.1594421 0.9779987 0.1345244
vn -0.1594418 -0.9779987 -0.1345242
vn -0.1594418 -0.9779987 -0.1345243
vn -0.1594418 -0.9779987 -0.1345243
vn -0.1594418 -0.9779987 -0.1345243

vt 0.7475586 0.06384277
vt 0.7514648 0.1036377
vt 0.7827148 0.1065674
vt 0.7827148 0.05969238
vt 0.7475586 0.06384277
vt 0.7827148 0.05969238
vt 0.7827148 0.1065674
vt 0.7514648 0.1036377
vt 0.7475586 0.06384277
vt 0.7514648 0.1036377
vt 0.7827148 0.1065674
vt 0.7827148 0.05969238
vt 0.7475586 0.06384277
vt 0.7827148 0.05969238
vt 0.7827148 0.1065674
vt 0.7514648 0.1036377
vt 0.7475586 0.06384277
vt 0.7514648 0.1036377
vt 0.7827148 0.1065674
vt 0.7827148 0.05969238
vt 0.7475586 0.06384277
vt 0.7827148 0.05969238
vt 0.7827148 0.1065674
vt 0.7514648 0.1036377
vt 0.7104492 0.08880615
vt 0.7104492 0.1160889
vt 0.7470703 0.1010742
vt 0.7436523 0.09014893
vt 0.7436523 0.09014893
vt 0.7470703 0.1010742
vt 0.7104492 0.1160889
vt 0.7104492 0.08880615
vt 0.7104492 0.08880615
vt 0.7104492 0.1160889
vt 0.7470703 0.1010742
vt 0.7436523 0.09014893
vt 0.7436523 0.09014893
vt 0.7470703 0.1010742
vt 0.7104492 0.1160889
vt 0.7104492 0.08880615
vt 0.6503906 0.08843994
vt 0.6503906 0.1165771
vt 0.7075195 0.1165771
vt 0.7075195 0.08843994
vt 0.7075195 0.1425781
vt 0.6503906 0.1425781
vt 0.6503906 0.08843994
vt 0.7075195 0.08843994
vt 0.7075195 0.1165771
vt 0.6503906 0.1165771
vt 0.7075195 0.1425781
vt 0.6503906 0.1425781
vt 0.6503906 0.08843994
vt 0.6503906 0.1165771
vt 0.7075195 0.1165771
vt 0.7075195 0.08843994
vt 0.7075195 0.1425781
vt 0.6503906 0.1425781
vt 0.6503906 0.08843994
vt 0.7075195 0.08843994
vt 0.7075195 0.1165771
vt 0.6503906 0.1165771
vt 0.7075195 0.1425781
vt 0.6503906 0.1425781
vt 0.6503906 0.03137207
vt 0.6503906 0.05950928
vt 0.7075195 0.05950928
vt 0.7075195 0.03137207
vt 0.7075195 0.08551025
vt 0.6503906 0.08551025
vt 0.6503906 0.03137207
vt 0.7075195 0.03137207
vt 0.7075195 0.05950928
vt 0.6503906 0.05950928
vt 0.7075195 0.08551025
vt 0.6503906 0.08551025
vt 0.6503906 0.03137207
vt 0.6503906 0.05950928
vt 0.7075195 0.05950928
vt 0.7075195 0.03137207
vt 0.7075195 0.08551025
vt 0.6503906 0.08551025
vt 0.6503906 0.03137207
vt 0.7075195 0.03137207
vt 0.7075195 0.05950928
vt 0.6503906 0.05950928
vt 0.7075195 0.08551025
vt 0.6503906 0.08551025
vt 0.6503906 0.08843994
vt 0.6503906 0.1165771
vt 0.7075195 0.1165771
vt 0.7075195 0.08843994
vt 0.7075195 0.1425781
vt 0.6503906 0.1425781
vt 0.6503906 0.08843994
vt 0.7075195 0.08843994
vt 0.7075195 0.1165771
vt 0.6503906 0.1165771
vt 0.7075195 0.1425781
vt 0.6503906 0.1425781
vt 0.6503906 0.08843994
vt 0.6503906 0.1165771
vt 0.7075195 0.1165771
vt 0.7075195 0.08843994
vt 0.7075195 0.1425781
vt 0.6503906 0.1425781
vt 0.6503906 0.08843994
vt 0.7075195 0.08843994
vt 0.7075195 0.1165771
vt 0.6503906 0.1165771
vt 0.7075195 0.1425781
vt 0.6503906 0.1425781
vt 0.6601563 0.02832031
vt 0.6875 0.02832031
vt 0.6875 0.002780914
vt 0.6601563 0.002780914
vt 0.6601563 0.02832031
vt 0.6601563 0.002780914
vt 0.6875 0.002780914
vt 0.6875 0.02832031

g alpha_1518_277
usemtl alpha_1518_277
usemap alpha_1518_277
f 1/1/1 3/3/3 2/2/2
f 1/1/1 4/4/4 3/3/3
f 5/5/5 7/7/7 6/6/6
f 5/5/5 8/8/8 7/7/7
f 9/9/9 11/11/11 10/10/10
f 9/9/9 12/12/12 11/11/11
f 13/13/13 15/15/15 14/14/14
f 13/13/13 16/16/16 15/15/15
f 17/17/17 19/19/19 18/18/18
f 17/17/17 20/20/20 19/19/19
f 21/21/21 23/23/23 22/22/22
f 21/21/21 24/24/24 23/23/23
f 25/25/25 27/27/27 26/26/26
f 25/25/25 28/28/28 27/27/27
f 29/29/29 31/31/31 30/30/30
f 29/29/29 32/32/32 31/31/31
f 33/33/33 35/35/35 34/34/34
f 33/33/33 36/36/36 35/35/35
f 37/37/37 39/39/39 38/38/38
f 37/37/37 40/40/40 39/39/39
f 41/41/41 43/43/43 42/42/42
f 41/41/41 44/44/44 43/43/43
f 42/42/42 43/43/43 45/45/45
f 42/42/42 45/45/45 46/46/46
f 47/47/47 49/49/49 48/48/48
f 47/47/47 50/50/50 49/49/49
f 50/50/50 51/51/51 49/49/49
f 50/50/50 52/52/52 51/51/51
f 53/53/53 55/55/55 54/54/54
f 53/53/53 56/56/56 55/55/55
f 54/54/54 55/55/55 57/57/57
f 54/54/54 57/57/57 58/58/58
f 59/59/59 61/61/61 60/60/60
f 59/59/59 62/62/62 61/61/61
f 62/62/62 63/63/63 61/61/61
f 62/62/62 64/64/64 63/63/63
f 65/65/65 67/67/67 66/66/66
f 65/65/65 68/68/68 67/67/67
f 66/66/66 67/67/67 69/69/69
f 66/66/66 69/69/69 70/70/70
f 71/71/71 73/73/73 72/72/72
f 71/71/71 74/74/74 73/73/73
f 74/74/74 75/75/75 73/73/73
f 74/74/74 76/76/76 75/75/75
f 77/77/77 79/79/79 78/78/78
f 77/77/77 80/80/80 79/79/79
f 78/78/78 79/79/79 81/81/81
f 78/78/78 81/81/81 82/82/82
f 83/83/83 85/85/85 84/84/84
f 83/83/83 86/86/86 85/85/85
f 86/86/86 87/87/87 85/85/85
f 86/86/86 88/88/88 87/87/87
f 89/89/89 91/91/91 90/90/90
f 89/89/89 92/92/92 91/91/91
f 90/90/90 91/91/91 93/93/93
f 90/90/90 93/93/93 94/94/94
f 95/95/95 97/97/97 96/96/96
f 95/95/95 98/98/98 97/97/97
f 98/98/98 99/99/99 97/97/97
f 98/98/98 100/100/100 99/99/99
f 101/101/101 103/103/103 102/102/102
f 101/101/101 104/104/104 103/103/103
f 102/102/102 103/103/103 105/105/105
f 102/102/102 105/105/105 106/106/106
f 107/107/107 109/109/109 108/108/108
f 107/107/107 110/110/110 109/109/109
f 110/110/110 111/111/111 109/109/109
f 110/110/110 112/112/112 111/111/111
f 113/113/113 115/115/115 114/114/114
f 113/113/113 116/116/116 115/115/115
f 117/117/117 119/119/119 118/118/118
f 117/117/117 120/120/120 119/119/119
