#alpha_2610_563.obj

v -1.887879 0.5564871 -2.074698
v -0.7887214 0.2929324 -1.964674
v -0.4623865 0.4360165 -2.757764
v -1.719473 0.7726413 -3.014934
v -1.887879 0.5564871 -2.074698
v -1.719473 0.7726413 -3.014934
v -0.4623865 0.4360165 -2.757764
v -0.7887214 0.2929324 -1.964674
v 0.2079844 1.649873 -1.311567
v -0.0607116 1.351743 -0.2491952
v 0.7112142 1.228246 0.1313821
v 1.15398 1.563645 -1.073267
v 0.2079844 1.649873 -1.311567
v 1.15398 1.563645 -1.073267
v 0.7112142 1.228246 0.1313821
v -0.0607116 1.351743 -0.2491952
v -0.7845232 0.5275576 0.3186128
v -0.3634684 0.9722703 -0.6377606
v -1.039047 1.398132 -0.9815517
v -1.647936 0.9362564 0.102716
v -0.7845232 0.5275576 0.3186128
v -1.647936 0.9362564 0.102716
v -1.039047 1.398132 -0.9815517
v -0.3634684 0.9722703 -0.6377606
v -1.767022 0.4393916 -0.9759081
v -1.486216 0.2625522 -1.706516
v -0.6960785 0.2645009 -0.9271464
v -0.8957402 0.3424929 -0.678646
v -0.8957402 0.3424929 -0.678646
v -0.6960785 0.2645009 -0.9271464
v -1.486216 0.2625522 -1.706516
v -1.767022 0.4393916 -0.9759081
v 0.4798172 0.5867753 -1.793384
v 0.4836518 0.6608601 -0.9351209
v -0.5118856 0.08017962 -1.354436
v -0.4184267 0.1734829 -1.693779
v -0.4184267 0.1734829 -1.693779
v -0.5118856 0.08017962 -1.354436
v 0.4836518 0.6608601 -0.9351209
v 0.4798172 0.5867753 -1.793384
v 0.6874815 1.470394 -0.9056602
v 0.4388215 1.524126 -0.9594213
v 0.4865445 1.348541 -1.374055
v 0.7352045 1.294809 -1.320293
v 0.2638914 1.253515 -1.359582
v 0.2161703 1.429099 -0.9449453
v 0.6874815 1.470394 -0.9056602
v 0.7352045 1.294809 -1.320293
v 0.4865445 1.348541 -1.374055
v 0.4388215 1.524126 -0.9594213
v 0.2638914 1.253515 -1.359582
v 0.2161703 1.429099 -0.9449453
v 0.6616064 1.411111 -0.2273766
v 0.585027 1.453294 -0.5643551
v 1.154708 1.312596 -0.716693
v 1.231287 1.270412 -0.3797145
v 1.045464 1.149726 -0.9754805
v 0.4757832 1.290424 -0.8231425
v 0.6616064 1.411111 -0.2273766
v 1.231287 1.270412 -0.3797145
v 1.154708 1.312596 -0.716693
v 0.585027 1.453294 -0.5643551
v 1.045464 1.149726 -0.9754805
v 0.4757832 1.290424 -0.8231425
v -0.3299681 0.5623783 -1.119758
v -0.4803873 0.8530496 -0.6420441
v -1.439732 1.027385 -1.050195
v -1.289316 0.7367133 -1.527907
v -1.660207 0.9556894 -0.5626038
v -0.7008622 0.7813545 -0.1544528
v -0.3299681 0.5623783 -1.119758
v -1.289316 0.7367133 -1.527907
v -1.439732 1.027385 -1.050195
v -0.4803873 0.8530496 -0.6420441
v -1.660207 0.9556894 -0.5626038
v -0.7008622 0.7813545 -0.1544528
v 0.1755333 1.015538 -0.360015
v -0.1749655 1.255757 -0.5706337
v 0.09571239 0.9735295 -1.342973
v 0.4462092 0.7333099 -1.132358
v -0.3242699 0.9303269 -1.474374
v -0.5949458 1.212554 -0.7020317
v 0.1755333 1.015538 -0.360015
v 0.4462092 0.7333099 -1.132358
v 0.09571239 0.9735295 -1.342973
v -0.1749655 1.255757 -0.5706337
v -0.3242699 0.9303269 -1.474374
v -0.5949458 1.212554 -0.7020317
v 0.3165802 0.05724907 -1.149779
v -0.01358282 0.3435688 -1.268024
v 0.3305818 0.4620756 -1.967375
v 0.6607436 0.1757559 -1.849124
v -0.04875039 0.4720817 -2.152607
v -0.392915 0.3535749 -1.453257
v 0.3165802 0.05724907 -1.149779
v 0.6607436 0.1757559 -1.849124
v 0.3305818 0.4620756 -1.967375
v -0.01358282 0.3435688 -1.268024
v -0.04875039 0.4720817 -2.152607
v -0.392915 0.3535749 -1.453257
v -0.8524454 0.1543666 -1.301469
v -1.152382 0.3812687 -1.310208
v -1.271439 0.2091039 -1.930981
v -0.9715051 -0.01779819 -1.92224
v -1.616217 0.2123325 -1.865948
v -1.497161 0.3844975 -1.245175
v -0.8524454 0.1543666 -1.301469
v -0.9715051 -0.01779819 -1.92224
v -1.271439 0.2091039 -1.930981
v -1.152382 0.3812687 -1.310208
v -1.616217 0.2123325 -1.865948
v -1.497161 0.3844975 -1.245175
v 0.4026221 1.580118 -0.9709938
v 0.5976098 1.532007 -0.6006335
v 0.2266692 1.458454 -0.4148967
v 0.0316847 1.506565 -0.785259
v 0.4026221 1.580118 -0.9709938
v 0.0316847 1.506565 -0.785259
v 0.2266692 1.458454 -0.4148967
v 0.5976098 1.532007 -0.6006335

vn 0.0375396 -0.9460989 0.3216949
vn 0.03753957 -0.9460989 0.3216949
vn 0.03753959 -0.9460989 0.3216949
vn 0.03753959 -0.9460989 0.3216949
vn -0.03753957 0.9460989 -0.3216949
vn -0.0375396 0.946099 -0.3216949
vn -0.0375396 0.946099 -0.3216949
vn -0.03753957 0.946099 -0.3216949
vn -0.1289655 -0.9614165 0.2429944
vn -0.1289655 -0.9614165 0.2429944
vn -0.1289655 -0.9614165 0.2429944
vn -0.1289655 -0.9614165 0.2429944
vn 0.1289655 0.9614165 -0.2429945
vn 0.1289655 0.9614165 -0.2429945
vn 0.1289655 0.9614165 -0.2429945
vn 0.1289655 0.9614165 -0.2429945
vn -0.03825317 -0.824379 0.5647444
vn -0.03825317 -0.824379 0.5647444
vn -0.03825314 -0.824379 0.5647442
vn -0.03825314 -0.824379 0.5647442
vn 0.03825317 0.8243787 -0.5647447
vn 0.03825317 0.8243787 -0.5647447
vn 0.03825317 0.8243787 -0.5647447
vn 0.0382532 0.8243787 -0.5647447
vn -0.2315777 0.9711035 0.05770381
vn -0.2315777 0.9711035 0.05770382
vn -0.2315777 0.9711035 0.05770382
vn -0.2315777 0.9711035 0.05770384
vn 0.2315776 -0.9711035 -0.05770385
vn 0.2315776 -0.9711035 -0.05770385
vn 0.2315776 -0.9711035 -0.05770384
vn 0.2315776 -0.9711035 -0.05770385
vn 0.3818388 0.8866739 0.2607847
vn 0.3818388 0.8866739 0.2607847
vn 0.3818388 0.8866739 0.2607847
vn 0.3818388 0.8866739 0.2607847
vn -0.381839 -0.8866737 -0.2607849
vn -0.3818391 -0.8866737 -0.2607849
vn -0.381839 -0.8866737 -0.2607849
vn -0.3818391 -0.8866737 -0.2607849
vn -0.4129425 0.897535 0.1546268
vn -0.1681281 0.9179011 0.3594308
vn -0.166545 0.9177333 0.3605944
vn -0.4129425 0.897535 0.1546267
vn 0.1151522 0.834418 0.5389681
vn 0.1151522 0.834418 0.5389681
vn 0.4129434 -0.8975345 -0.1546271
vn 0.4129434 -0.8975345 -0.154627
vn 0.1665455 -0.9177333 -0.3605945
vn 0.1681286 -0.917901 -0.3594308
vn -0.1151521 -0.8344182 -0.5389677
vn -0.1151522 -0.8344183 -0.5389677
vn -0.1836721 0.9648728 -0.1878434
vn -0.2738801 0.9543951 0.1188266
vn -0.2743555 0.9540229 0.1207038
vn -0.1836721 0.9648728 -0.1878434
vn -0.3396835 0.8334633 0.4358373
vn -0.3396834 0.8334633 0.4358372
vn 0.1836721 -0.9648729 0.1878429
vn 0.1836721 -0.9648729 0.1878429
vn 0.2743556 -0.9540228 -0.1207043
vn 0.2738802 -0.954395 -0.1188271
vn 0.3396837 -0.833463 -0.4358376
vn 0.3396837 -0.833463 -0.4358376
vn -0.4978853 0.8490194 0.1768512
vn -0.2645692 0.9643045 -0.01095828
vn -0.2645692 0.9643044 -0.01095826
vn -0.4978853 0.8490194 0.1768512
vn 0.01602568 0.9773254 -0.2111358
vn 0.01602568 0.9773254 -0.2111357
vn 0.4978853 -0.8490194 -0.1768512
vn 0.4978853 -0.8490194 -0.1768513
vn 0.2645692 -0.9643044 0.01095825
vn 0.2645692 -0.9643044 0.01095827
vn -0.01602571 -0.9773254 0.2111358
vn -0.01602571 -0.9773254 0.2111358
vn -0.5505826 0.7982165 -0.2443548
vn -0.3974324 0.9175633 0.01118515
vn -0.3974324 0.9175633 0.01118523
vn -0.5505826 0.7982165 -0.2443548
vn -0.1875767 0.940303 0.2839811
vn -0.1875767 0.940303 0.2839811
vn 0.5505827 -0.7982165 0.2443548
vn 0.5505827 -0.7982165 0.2443548
vn 0.3974323 -0.9175634 -0.01118524
vn 0.3974323 -0.9175634 -0.01118518
vn 0.1875765 -0.940303 -0.2839811
vn 0.1875765 -0.940303 -0.283981
vn -0.2400679 0.7609301 -0.6027877
vn -0.07336828 0.9212868 -0.3819002
vn -0.07230365 0.9219922 -0.3803979
vn -0.2400679 0.76093 -0.6027877
vn 0.1148001 0.9883565 -0.09986253
vn 0.1148001 0.9883565 -0.09986253
vn 0.2400678 -0.7609302 0.6027874
vn 0.2400679 -0.7609303 0.6027874
vn 0.07230355 -0.9219923 0.3803977
vn 0.07336821 -0.9212869 0.3819
vn -0.1148001 -0.9883565 0.09986256
vn -0.1148001 -0.9883565 0.09986256
vn -0.659123 0.7512986 -0.03327721
vn -0.4144456 0.9040016 0.1049571
vn -0.4127842 0.9046648 0.1057868
vn -0.659123 0.7512986 -0.03327721
vn -0.1030187 0.9648046 0.2419486
vn -0.1030187 0.9648046 0.2419486
vn 0.6591232 -0.7512984 0.03327715
vn 0.6591232 -0.7512984 0.03327718
vn 0.4127844 -0.9046648 -0.1057868
vn 0.4144458 -0.9040015 -0.1049572
vn 0.1030188 -0.9648046 -0.2419486
vn 0.1030187 -0.9648046 -0.2419486
vn 0.1832224 0.9779987 -0.09974061
vn 0.1832224 0.9779987 -0.09974058
vn 0.1832224 0.9779987 -0.09974059
vn 0.1832224 0.9779987 -0.09974059
vn -0.1832221 -0.9779987 0.09974034
vn -0.1832221 -0.9779987 0.09974034
vn -0.1832221 -0.9779987 0.09974033
vn -0.1832221 -0.9779987 0.09974033

vt 0.7475586 0.06384277
vt 0.7514648 0.1036377
vt 0.7827148 0.1065674
vt 0.7827148 0.05969238
vt 0.7475586 0.06384277
vt 0.7827148 0.05969238
vt 0.7827148 0.1065674
vt 0.7514648 0.1036377
vt 0.7475586 0.06384277
vt 0.7514648 0.1036377
vt 0.7827148 0.1065674
vt 0.7827148 0.05969238
vt 0.7475586 0.06384277
vt 0.7827148 0.05969238
vt 0.7827148 0.1065674
vt 0.7514648 0.1036377
vt 0.7475586 0.06384277
vt 0.7514648 0.1036377
vt 0.7827148 0.1065674
vt 0.7827148 0.05969238
vt 0.7475586 0.06384277
vt 0.7827148 0.05969238
vt 0.7827148 0.1065674
vt 0.7514648 0.1036377
vt 0.7104492 0.08880615
vt 0.7104492 0.1160889
vt 0.7470703 0.1010742
vt 0.7436523 0.09014893
vt 0.7436523 0.09014893
vt 0.7470703 0.1010742
vt 0.7104492 0.1160889
vt 0.7104492 0.08880615
vt 0.7104492 0.08880615
vt 0.7104492 0.1160889
vt 0.7470703 0.1010742
vt 0.7436523 0.09014893
vt 0.7436523 0.09014893
vt 0.7470703 0.1010742
vt 0.7104492 0.1160889
vt 0.7104492 0.08880615
vt 0.6503906 0.08843994
vt 0.6503906 0.1165771
vt 0.7075195 0.1165771
vt 0.7075195 0.08843994
vt 0.7075195 0.1425781
vt 0.6503906 0.1425781
vt 0.6503906 0.08843994
vt 0.7075195 0.08843994
vt 0.7075195 0.1165771
vt 0.6503906 0.1165771
vt 0.7075195 0.1425781
vt 0.6503906 0.1425781
vt 0.6503906 0.08843994
vt 0.6503906 0.1165771
vt 0.7075195 0.1165771
vt 0.7075195 0.08843994
vt 0.7075195 0.1425781
vt 0.6503906 0.1425781
vt 0.6503906 0.08843994
vt 0.7075195 0.08843994
vt 0.7075195 0.1165771
vt 0.6503906 0.1165771
vt 0.7075195 0.1425781
vt 0.6503906 0.1425781
vt 0.6503906 0.03137207
vt 0.6503906 0.05950928
vt 0.7075195 0.05950928
vt 0.7075195 0.03137207
vt 0.7075195 0.08551025
vt 0.6503906 0.08551025
vt 0.6503906 0.03137207
vt 0.7075195 0.03137207
vt 0.7075195 0.05950928
vt 0.6503906 0.05950928
vt 0.7075195 0.08551025
vt 0.6503906 0.08551025
vt 0.6503906 0.03137207
vt 0.6503906 0.05950928
vt 0.7075195 0.05950928
vt 0.7075195 0.03137207
vt 0.7075195 0.08551025
vt 0.6503906 0.08551025
vt 0.6503906 0.03137207
vt 0.7075195 0.03137207
vt 0.7075195 0.05950928
vt 0.6503906 0.05950928
vt 0.7075195 0.08551025
vt 0.6503906 0.08551025
vt 0.6503906 0.08843994
vt 0.6503906 0.1165771
vt 0.7075195 0.1165771
vt 0.7075195 0.08843994
vt 0.7075195 0.1425781
vt 0.6503906 0.1425781
vt 0.6503906 0.08843994
vt 0.7075195 0.08843994
vt 0.7075195 0.1165771
vt 0.6503906 0.1165771
vt 0.7075195 0.1425781
vt 0.6503906 0.1425781
vt 0.6503906 0.08843994
vt 0.6503906 0.1165771
vt 0.7075195 0.1165771
vt 0.7075195 0.08843994
vt 0.7075195 0.1425781
vt 0.6503906 0.1425781
vt 0.6503906 0.08843994
vt 0.7075195 0.08843994
vt 0.7075195 0.1165771
vt 0.6503906 0.1165771
vt 0.7075195 0.1425781
vt 0.6503906 0.1425781
vt 0.6601563 0.02832031
vt 0.6875 0.02832031
vt 0.6875 0.002780914
vt 0.6601563 0.002780914
vt 0.6601563 0.02832031
vt 0.6601563 0.002780914
vt 0.6875 0.002780914
vt 0.6875 0.02832031

g alpha_2610_563
usemtl alpha_2610_563
usemap alpha_2610_563
f 1/1/1 3/3/3 2/2/2
f 1/1/1 4/4/4 3/3/3
f 5/5/5 7/7/7 6/6/6
f 5/5/5 8/8/8 7/7/7
f 9/9/9 11/11/11 10/10/10
f 9/9/9 12/12/12 11/11/11
f 13/13/13 15/15/15 14/14/14
f 13/13/13 16/16/16 15/15/15
f 17/17/17 19/19/19 18/18/18
f 17/17/17 20/20/20 19/19/19
f 21/21/21 23/23/23 22/22/22
f 21/21/21 24/24/24 23/23/23
f 25/25/25 27/27/27 26/26/26
f 25/25/25 28/28/28 27/27/27
f 29/29/29 31/31/31 30/30/30
f 29/29/29 32/32/32 31/31/31
f 33/33/33 35/35/35 34/34/34
f 33/33/33 36/36/36 35/35/35
f 37/37/37 39/39/39 38/38/38
f 37/37/37 40/40/40 39/39/39
f 41/41/41 43/43/43 42/42/42
f 41/41/41 44/44/44 43/43/43
f 42/42/42 43/43/43 45/45/45
f 42/42/42 45/45/45 46/46/46
f 47/47/47 49/49/49 48/48/48
f 47/47/47 50/50/50 49/49/49
f 50/50/50 51/51/51 49/49/49
f 50/50/50 52/52/52 51/51/51
f 53/53/53 55/55/55 54/54/54
f 53/53/53 56/56/56 55/55/55
f 54/54/54 55/55/55 57/57/57
f 54/54/54 57/57/57 58/58/58
f 59/59/59 61/61/61 60/60/60
f 59/59/59 62/62/62 61/61/61
f 62/62/62 63/63/63 61/61/61
f 62/62/62 64/64/64 63/63/63
f 65/65/65 67/67/67 66/66/66
f 65/65/65 68/68/68 67/67/67
f 66/66/66 67/67/67 69/69/69
f 66/66/66 69/69/69 70/70/70
f 71/71/71 73/73/73 72/72/72
f 71/71/71 74/74/74 73/73/73
f 74/74/74 75/75/75 73/73/73
f 74/74/74 76/76/76 75/75/75
f 77/77/77 79/79/79 78/78/78
f 77/77/77 80/80/80 79/79/79
f 78/78/78 79/79/79 81/81/81
f 78/78/78 81/81/81 82/82/82
f 83/83/83 85/85/85 84/84/84
f 83/83/83 86/86/86 85/85/85
f 86/86/86 87/87/87 85/85/85
f 86/86/86 88/88/88 87/87/87
f 89/89/89 91/91/91 90/90/90
f 89/89/89 92/92/92 91/91/91
f 90/90/90 91/91/91 93/93/93
f 90/90/90 93/93/93 94/94/94
f 95/95/95 97/97/97 96/96/96
f 95/95/95 98/98/98 97/97/97
f 98/98/98 99/99/99 97/97/97
f 98/98/98 100/100/100 99/99/99
f 101/101/101 103/103/103 102/102/102
f 101/101/101 104/104/104 103/103/103
f 102/102/102 103/103/103 105/105/105
f 102/102/102 105/105/105 106/106/106
f 107/107/107 109/109/109 108/108/108
f 107/107/107 110/110/110 109/109/109
f 110/110/110 111/111/111 109/109/109
f 110/110/110 112/112/112 111/111/111
f 113/113/113 115/115/115 114/114/114
f 113/113/113 116/116/116 115/115/115
f 117/117/117 119/119/119 118/118/118
f 117/117/117 120/120/120 119/119/119
