#Alpha_1186_262.obj

v -0.3356445 0.2777315 1.036391
v -1.129506 0.1608478 1.03081
v -0.6717886 0.07648957 0.02328016
v -0.3645827 0.1362255 0.1220483
v -0.3645827 0.1362255 0.1220483
v -0.6717886 0.07648957 0.02328016
v -1.129506 0.1608478 1.03081
v -0.3356445 0.2777315 1.036391
v -0.490564 0.3428391 -1.164054
v 0.2181309 0.6808587 -0.9985222
v -0.2479952 0.1965102 -0.115417
v -0.5167492 0.09337044 -0.2730062
v -0.5167492 0.09337044 -0.2730062
v -0.2479952 0.1965102 -0.115417
v 0.2181309 0.6808587 -0.9985222
v -0.490564 0.3428391 -1.164054
v -0.2326055 0.5319947 -1.23105
v 0.1448708 0.5564677 -1.045534
v -0.04219726 0.595341 -0.6700359
v -0.4196724 0.570868 -0.8555536
v -0.2326055 0.5319947 -1.23105
v -0.4196724 0.570868 -0.8555536
v -0.04219726 0.595341 -0.6700359
v 0.1448708 0.5564677 -1.045534
v -1.577806 0.6769722 -1.238493
v -0.7986355 0.6155729 -1.420241
v -1.081073 0.1934528 -0.4290021
v -1.33435 0.2472973 -0.4404871
v -1.33435 0.2472973 -0.4404871
v -1.081073 0.1934528 -0.4290021
v -0.7986355 0.6155729 -1.420241
v -1.577806 0.6769722 -1.238493
v -1.262182 0.352392 -0.9266527
v -1.22512 0.4374886 -0.5138974
v -1.992653 0.5021714 -0.4583168
v -2.029715 0.4170748 -0.8710722
v -1.981996 0.3256547 -0.1057325
v -1.214463 0.260972 -0.1613131
v -1.262182 0.352392 -0.9266527
v -2.029715 0.4170748 -0.8710722
v -1.992653 0.5021714 -0.4583168
v -1.22512 0.4374886 -0.5138974
v -1.981996 0.3256547 -0.1057325
v -1.214463 0.260972 -0.1613131
v -0.1335213 0.1441713 -0.3703882
v 0.6984782 0.3083283 -0.01782001
v -0.01006472 0.8536618 1.400318
v -0.8420672 0.689505 1.047747
v 0.6124302 0.4805941 1.854795
v 1.320976 -0.06473956 0.4366595
v -0.1335213 0.1441713 -0.3703882
v -0.8420672 0.689505 1.047747
v -0.01006472 0.8536618 1.400318
v 0.6984782 0.3083283 -0.01782001
v 0.6124302 0.4805941 1.854795
v 1.320976 -0.06473956 0.4366595
v -1.230247 0.3132074 -0.3083654
v -1.159847 0.4303713 -0.5654213
v -0.6906801 0.5254434 -0.3984224
v -0.7610803 0.4082797 -0.1413665
v -0.5904948 0.4599502 -0.6421596
v -1.05966 0.3648779 -0.80916
v -1.230247 0.3132074 -0.3083654
v -0.7610803 0.4082797 -0.1413665
v -0.6906801 0.5254434 -0.3984224
v -1.159847 0.4303713 -0.5654213
v -0.5904948 0.4599502 -0.6421596
v -1.05966 0.3648779 -0.80916
v 1.783758 0.1349387 -1.029046
v 0.9552572 0.06476724 -0.2554987
v 1.218437 0.6000682 0.3770776
v 2.246957 0.7687746 -0.4435309
v 1.783758 0.1349387 -1.029046
v 2.246957 0.7687746 -0.4435309
v 1.218437 0.6000682 0.3770776
v 0.9552572 0.06476724 -0.2554987
v -0.6399838 0.2932726 -0.004192768
v -0.3175451 0.3968586 0.24642
v -0.5544784 0.3150785 0.5850622
v -0.8769171 0.2114925 0.3344494
v -0.6399838 0.2932726 -0.004192768
v -0.8769171 0.2114925 0.3344494
v -0.5544784 0.3150785 0.5850622
v -0.3175451 0.3968586 0.24642
v -0.532338 0.8070896 -0.4867384
v 0.06690209 0.9200945 -1.008323
v 0.2429769 0.06380057 -0.3245855
v -0.0387687 0.09568715 -0.1593508
v -0.0387687 0.09568715 -0.1593508
v 0.2429769 0.06380057 -0.3245855
v 0.06690209 0.9200945 -1.008323
v -0.532338 0.8070896 -0.4867384
v 2.004289 0.08723702 0.2337127
v 0.3517014 0.08723702 1.732267
v -0.994369 0.08723702 0.2478408
v 0.7761174 0.08723702 -1.357628
v 1.236476 0.1841538 -0.0310544
v 0.8414167 0.3588783 -0.04763475
v 0.9913454 0.6289654 -0.773761
v 1.386405 0.454241 -0.7571806
v 0.6127149 0.5447261 -0.8832735
v 0.4627862 0.2746389 -0.1571473
v 1.236476 0.1841538 -0.0310544
v 1.386405 0.454241 -0.7571806
v 0.9913454 0.6289654 -0.773761
v 0.8414167 0.3588783 -0.04763475
v 0.6127149 0.5447261 -0.8832735
v 0.4627862 0.2746389 -0.1571473
v 1.289031 0.5592995 -0.3418579
v 1.706876 0.5662984 -0.2883604
v 1.654767 0.510341 0.1259535
v 1.236926 0.5033422 0.07245842
v 1.289031 0.5592995 -0.3418579
v 1.236926 0.5033422 0.07245842
v 1.654767 0.510341 0.1259535
v 1.706876 0.5662984 -0.2883604
v -1.583237 0.323963 -0.4377713
v -1.101542 0.5024385 -0.009548436
v -1.859046 0.4631971 0.8741781
v -2.340742 0.2847219 0.4459566
v -1.417386 0.2215902 1.242461
v -0.6598834 0.2608313 0.3587356
v -1.583237 0.323963 -0.4377713
v -2.340742 0.2847219 0.4459566
v -1.859046 0.4631971 0.8741781
v -1.101542 0.5024385 -0.009548436
v -1.417386 0.2215902 1.242461
v -0.6598834 0.2608313 0.3587356

vn 0.2038126 0.978743 0.02286155
vn 0.2038126 0.978743 0.02286153
vn 0.2038126 0.978743 0.02286153
vn 0.2038126 0.978743 0.02286155
vn -0.2038126 -0.978743 -0.02286155
vn -0.2038126 -0.978743 -0.02286153
vn -0.2038126 -0.978743 -0.02286153
vn -0.2038126 -0.978743 -0.02286155
vn 0.2134453 0.8575175 -0.4680863
vn 0.2134453 0.8575175 -0.4680864
vn 0.2134453 0.8575175 -0.4680864
vn 0.2134453 0.8575175 -0.4680864
vn -0.2134452 -0.8575176 0.4680863
vn -0.2134452 -0.8575175 0.4680863
vn -0.2134452 -0.8575176 0.4680863
vn -0.2134452 -0.8575176 0.4680863
vn 0.07740542 0.9940385 0.07678421
vn 0.07740542 0.9940385 0.07678421
vn 0.07740542 0.9940385 0.07678421
vn 0.07740542 0.9940385 0.07678421
vn -0.07740548 -0.9940385 -0.07678421
vn -0.07740548 -0.9940385 -0.07678422
vn -0.07740548 -0.9940385 -0.07678421
vn -0.07740548 -0.9940385 -0.07678422
vn -0.401652 0.8883984 -0.2223149
vn -0.4016519 0.8883984 -0.2223148
vn -0.4016519 0.8883984 -0.2223148
vn -0.4016519 0.8883984 -0.2223148
vn 0.4016519 -0.8883985 0.2223148
vn 0.401652 -0.8883985 0.2223148
vn 0.4016519 -0.8883985 0.2223148
vn 0.4016519 -0.8883985 0.2223148
vn 0.07946555 0.9759741 0.2028786
vn -0.1421045 0.9894294 -0.02890884
vn -0.1421044 0.9894295 -0.02890866
vn 0.07946558 0.9759741 0.2028786
vn -0.3634464 0.8903502 -0.2741955
vn -0.3634464 0.8903502 -0.2741955
vn -0.07946563 -0.9759741 -0.2028785
vn -0.07946564 -0.9759741 -0.2028786
vn 0.1421042 -0.9894295 0.02890861
vn 0.1421044 -0.9894294 0.02890881
vn 0.3634464 -0.8903503 0.2741955
vn 0.3634463 -0.8903503 0.2741954
vn 0.25517 0.9285687 0.2695338
vn -0.05696604 0.9373682 0.3436505
vn -0.05696592 0.9373683 0.3436505
vn 0.25517 0.9285687 0.2695338
vn -0.3852119 0.8392681 0.3837196
vn -0.3852119 0.8392681 0.3837196
vn -0.2551699 -0.9285687 -0.2695339
vn -0.2551698 -0.9285687 -0.2695339
vn 0.05696598 -0.9373682 -0.3436506
vn 0.05696613 -0.9373682 -0.3436506
vn 0.3852119 -0.8392681 -0.3837196
vn 0.3852119 -0.8392681 -0.3837196
vn 0.02304661 0.896737 -0.4419634
vn 0.1421063 0.9774343 -0.1562946
vn 0.1428043 0.9776242 -0.15446
vn 0.02304661 0.896737 -0.4419634
vn 0.2541558 0.9521633 0.169676
vn 0.2541558 0.9521632 0.169676
vn -0.0230463 -0.8967372 0.4419631
vn -0.02304633 -0.8967371 0.4419631
vn -0.1428041 -0.9776242 0.1544599
vn -0.1421062 -0.9774343 0.1562944
vn -0.2541558 -0.9521632 -0.169676
vn -0.2541558 -0.9521632 -0.169676
vn -0.6504745 -0.7585047 -0.03941321
vn -0.6504745 -0.7585048 -0.03941327
vn -0.6504745 -0.7585048 -0.03941321
vn -0.6504745 -0.7585048 -0.03941324
vn 0.6504746 0.7585047 0.03941312
vn 0.6504746 0.7585047 0.03941309
vn 0.6504747 0.7585046 0.03941312
vn 0.6504746 0.7585047 0.03941309
vn 0.2355265 0.9496697 -0.2065305
vn 0.2355265 0.9496697 -0.2065305
vn 0.2355265 0.9496697 -0.2065305
vn 0.2355265 0.9496697 -0.2065305
vn -0.2355266 -0.9496695 0.2065306
vn -0.2355266 -0.9496696 0.2065306
vn -0.2355266 -0.9496695 0.2065306
vn -0.2355266 -0.9496696 0.2065306
vn -0.7606984 0.6117937 -0.2169017
vn -0.7606985 0.6117936 -0.2169017
vn -0.7606985 0.6117936 -0.2169017
vn -0.7606984 0.6117936 -0.2169017
vn 0.7606988 -0.6117935 0.2169013
vn 0.7606988 -0.6117934 0.2169013
vn 0.7606988 -0.6117934 0.2169014
vn 0.7606988 -0.6117934 0.2169013
vn 0 1 0
vn 0 1 0
vn 0 1 0
vn 0 1 0
vn -0.5244912 0.8482263 -0.07362849
vn -0.2659595 0.9325781 -0.2440566
vn -0.2659596 0.9325781 -0.2440565
vn -0.5244912 0.8482263 -0.07362846
vn 0.04183958 0.9160612 -0.3988499
vn 0.04183954 0.9160612 -0.39885
vn 0.5244913 -0.8482262 0.0736284
vn 0.5244913 -0.8482262 0.07362838
vn 0.2659597 -0.932578 0.2440565
vn 0.2659596 -0.9325781 0.2440565
vn -0.0418396 -0.9160612 0.3988499
vn -0.04183958 -0.9160612 0.3988499
vn -0.05657553 0.9910014 -0.1213076
vn -0.05657553 0.9910014 -0.1213076
vn -0.05657553 0.9910014 -0.1213076
vn -0.05657553 0.9910014 -0.1213076
vn 0.05657554 -0.9910014 0.1213076
vn 0.05657554 -0.9910014 0.1213076
vn 0.05657554 -0.9910014 0.1213076
vn 0.05657556 -0.9910014 0.1213076
vn 0.2679534 0.9630621 -0.02668927
vn -0.04984785 0.9981526 -0.03473578
vn -0.05181664 0.998051 -0.03477487
vn 0.2679534 0.9630621 -0.02668925
vn -0.3867838 0.9213274 -0.03942156
vn -0.3867838 0.9213274 -0.03942154
vn -0.2679535 -0.9630621 0.02668932
vn -0.2679534 -0.9630621 0.02668932
vn 0.05181658 -0.998051 0.03477494
vn 0.04984778 -0.9981526 0.03473584
vn 0.3867838 -0.9213274 0.03942157
vn 0.3867838 -0.9213274 0.03942163

vt 0.7104492 0.08880615
vt 0.7104492 0.1160889
vt 0.7470703 0.1010742
vt 0.7436523 0.09014893
vt 0.7436523 0.09014893
vt 0.7470703 0.1010742
vt 0.7104492 0.1160889
vt 0.7104492 0.08880615
vt 0.7104492 0.08880615
vt 0.7104492 0.1160889
vt 0.7470703 0.1010742
vt 0.7436523 0.09014893
vt 0.7436523 0.09014893
vt 0.7470703 0.1010742
vt 0.7104492 0.1160889
vt 0.7104492 0.08880615
vt 0.6601563 0.02832031
vt 0.6875 0.02832031
vt 0.6875 0.002780914
vt 0.6601563 0.002780914
vt 0.6601563 0.02832031
vt 0.6601563 0.002780914
vt 0.6875 0.002780914
vt 0.6875 0.02832031
vt 0.706543 0.09033203
vt 0.706543 0.1160889
vt 0.7412109 0.1019287
vt 0.737793 0.09161377
vt 0.737793 0.09161377
vt 0.7412109 0.1019287
vt 0.706543 0.1160889
vt 0.706543 0.09033203
vt 0.6503906 0.03137207
vt 0.6503906 0.05950928
vt 0.7075195 0.05950928
vt 0.7075195 0.03137207
vt 0.7075195 0.08551025
vt 0.6503906 0.08551025
vt 0.6503906 0.03137207
vt 0.7075195 0.03137207
vt 0.7075195 0.05950928
vt 0.6503906 0.05950928
vt 0.7075195 0.08551025
vt 0.6503906 0.08551025
vt 0.6503906 0.03137207
vt 0.6503906 0.05950928
vt 0.7075195 0.05950928
vt 0.7075195 0.03137207
vt 0.7075195 0.08551025
vt 0.6503906 0.08551025
vt 0.6503906 0.03137207
vt 0.7075195 0.03137207
vt 0.7075195 0.05950928
vt 0.6503906 0.05950928
vt 0.7075195 0.08551025
vt 0.6503906 0.08551025
vt 0.6503906 0.08843994
vt 0.6503906 0.1165771
vt 0.7075195 0.1165771
vt 0.7075195 0.08843994
vt 0.7075195 0.1425781
vt 0.6503906 0.1425781
vt 0.6503906 0.08843994
vt 0.7075195 0.08843994
vt 0.7075195 0.1165771
vt 0.6503906 0.1165771
vt 0.7075195 0.1425781
vt 0.6503906 0.1425781
vt 0.7475586 0.06384277
vt 0.7514648 0.1036377
vt 0.7827148 0.1065674
vt 0.7827148 0.05969238
vt 0.7475586 0.06384277
vt 0.7827148 0.05969238
vt 0.7827148 0.1065674
vt 0.7514648 0.1036377
vt 0.6601563 0.02832031
vt 0.6875 0.02832031
vt 0.6875 0.002780914
vt 0.6601563 0.002780914
vt 0.6601563 0.02832031
vt 0.6601563 0.002780914
vt 0.6875 0.002780914
vt 0.6875 0.02832031
vt 0.7104492 0.08880615
vt 0.7104492 0.1160889
vt 0.7470703 0.1010742
vt 0.7436523 0.09014893
vt 0.7436523 0.09014893
vt 0.7470703 0.1010742
vt 0.7104492 0.1160889
vt 0.7104492 0.08880615
vt 0.7104492 0.0682373
vt 0.7104492 0.144165
vt 0.7827148 0.144165
vt 0.7827148 0.05969238
vt 0.6503906 0.03137207
vt 0.6503906 0.05950928
vt 0.7075195 0.05950928
vt 0.7075195 0.03137207
vt 0.7075195 0.08551025
vt 0.6503906 0.08551025
vt 0.6503906 0.03137207
vt 0.7075195 0.03137207
vt 0.7075195 0.05950928
vt 0.6503906 0.05950928
vt 0.7075195 0.08551025
vt 0.6503906 0.08551025
vt 0.6601563 0.02832031
vt 0.6875 0.02832031
vt 0.6875 0.002780914
vt 0.6601563 0.002780914
vt 0.6601563 0.02832031
vt 0.6601563 0.002780914
vt 0.6875 0.002780914
vt 0.6875 0.02832031
vt 0.6503906 0.08843994
vt 0.6503906 0.1165771
vt 0.7075195 0.1165771
vt 0.7075195 0.08843994
vt 0.7075195 0.1425781
vt 0.6503906 0.1425781
vt 0.6503906 0.08843994
vt 0.7075195 0.08843994
vt 0.7075195 0.1165771
vt 0.6503906 0.1165771
vt 0.7075195 0.1425781
vt 0.6503906 0.1425781

g Alpha_1186_262
usemtl Alpha_1186_262
usemap Alpha_1186_262
f 1/1/1 3/3/3 2/2/2
f 1/1/1 4/4/4 3/3/3
f 5/5/5 7/7/7 6/6/6
f 5/5/5 8/8/8 7/7/7
f 9/9/9 11/11/11 10/10/10
f 9/9/9 12/12/12 11/11/11
f 13/13/13 15/15/15 14/14/14
f 13/13/13 16/16/16 15/15/15
f 17/17/17 19/19/19 18/18/18
f 17/17/17 20/20/20 19/19/19
f 21/21/21 23/23/23 22/22/22
f 21/21/21 24/24/24 23/23/23
f 25/25/25 27/27/27 26/26/26
f 25/25/25 28/28/28 27/27/27
f 29/29/29 31/31/31 30/30/30
f 29/29/29 32/32/32 31/31/31
f 33/33/33 35/35/35 34/34/34
f 33/33/33 36/36/36 35/35/35
f 34/34/34 35/35/35 37/37/37
f 34/34/34 37/37/37 38/38/38
f 39/39/39 41/41/41 40/40/40
f 39/39/39 42/42/42 41/41/41
f 42/42/42 43/43/43 41/41/41
f 42/42/42 44/44/44 43/43/43
f 45/45/45 47/47/47 46/46/46
f 45/45/45 48/48/48 47/47/47
f 46/46/46 47/47/47 49/49/49
f 46/46/46 49/49/49 50/50/50
f 51/51/51 53/53/53 52/52/52
f 51/51/51 54/54/54 53/53/53
f 54/54/54 55/55/55 53/53/53
f 54/54/54 56/56/56 55/55/55
f 57/57/57 59/59/59 58/58/58
f 57/57/57 60/60/60 59/59/59
f 58/58/58 59/59/59 61/61/61
f 58/58/58 61/61/61 62/62/62
f 63/63/63 65/65/65 64/64/64
f 63/63/63 66/66/66 65/65/65
f 66/66/66 67/67/67 65/65/65
f 66/66/66 68/68/68 67/67/67
f 69/69/69 71/71/71 70/70/70
f 69/69/69 72/72/72 71/71/71
f 73/73/73 75/75/75 74/74/74
f 73/73/73 76/76/76 75/75/75
f 77/77/77 79/79/79 78/78/78
f 77/77/77 80/80/80 79/79/79
f 81/81/81 83/83/83 82/82/82
f 81/81/81 84/84/84 83/83/83
f 85/85/85 87/87/87 86/86/86
f 85/85/85 88/88/88 87/87/87
f 89/89/89 91/91/91 90/90/90
f 89/89/89 92/92/92 91/91/91
f 93/93/93 95/95/95 94/94/94
f 93/93/93 96/96/96 95/95/95
f 97/97/97 99/99/99 98/98/98
f 97/97/97 100/100/100 99/99/99
f 98/98/98 99/99/99 101/101/101
f 98/98/98 101/101/101 102/102/102
f 103/103/103 105/105/105 104/104/104
f 103/103/103 106/106/106 105/105/105
f 106/106/106 107/107/107 105/105/105
f 106/106/106 108/108/108 107/107/107
f 109/109/109 111/111/111 110/110/110
f 109/109/109 112/112/112 111/111/111
f 113/113/113 115/115/115 114/114/114
f 113/113/113 116/116/116 115/115/115
f 117/117/117 119/119/119 118/118/118
f 117/117/117 120/120/120 119/119/119
f 118/118/118 119/119/119 121/121/121
f 118/118/118 121/121/121 122/122/122
f 123/123/123 125/125/125 124/124/124
f 123/123/123 126/126/126 125/125/125
f 126/126/126 127/127/127 125/125/125
f 126/126/126 128/128/128 127/127/127
