#alpha_2720_596.obj

v 1.148567 1.450531 -0.4521886
v 0.1122263 1.016875 -0.6184911
v 0.1818438 0.6037095 -1.380338
v 1.427095 1.054437 -1.303457
v 1.148567 1.450531 -0.4521886
v 1.427095 1.054437 -1.303457
v 0.1818438 0.6037095 -1.380338
v 0.1122263 1.016875 -0.6184911
v -0.8844085 0.4740292 0.1089609
v -0.7675373 0.1615131 -0.9765798
v -1.545094 0.334074 -1.325272
v -1.807945 0.7336949 -0.08796903
v -0.8844085 0.4740292 0.1089609
v -1.807945 0.7336949 -0.08796903
v -1.545094 0.334074 -1.325272
v -0.7675373 0.1615131 -0.9765798
v -1.100744 0.2455475 -1.547603
v -0.5300419 0.5301423 -2.034649
v -0.1397259 0.2242582 -1.041758
v -0.4293329 0.1276793 -0.9213441
v -0.4293329 0.1276793 -0.9213441
v -0.1397259 0.2242582 -1.041758
v -0.5300419 0.5301423 -2.034649
v -1.100744 0.2455475 -1.547603
v 1.277976 0.4362061 -1.120391
v 0.8754579 0.2787085 -1.783166
v 0.04902107 0.4464521 -1.321115
v 0.1275246 0.5558723 -0.8997345
v 1.277976 0.4362061 -1.120391
v 0.1275246 0.5558723 -0.8997345
v 0.04902107 0.4464521 -1.321115
v 0.8754579 0.2787085 -1.783166
v -0.2387407 1.633144 0.9559879
v -0.8932181 1.301506 0.6597207
v -0.4539295 1.192481 -0.188668
v -0.04054692 1.348807 -0.1693658
v -0.2387407 1.633144 0.9559879
v -0.04054692 1.348807 -0.1693658
v -0.4539295 1.192481 -0.188668
v -0.8932181 1.301506 0.6597207
v 0.3513266 1.175329 -0.8899444
v 0.034958 1.275112 -0.4669605
v -0.7442111 1.324383 -1.06136
v -0.4278425 1.2246 -1.484344
v -1.022834 1.092328 -0.7153634
v -0.2436648 1.043057 -0.1209639
v 0.3513266 1.175329 -0.8899444
v -0.4278425 1.2246 -1.484344
v -0.7442111 1.324383 -1.06136
v 0.034958 1.275112 -0.4669605
v -1.022834 1.092328 -0.7153634
v -0.2436648 1.043057 -0.1209639
v 0.912493 1.064802 -0.9916347
v 0.6135103 1.079029 -1.045393
v 0.7114009 1.071664 -1.591769
v 1.010384 1.057438 -1.538011
v 0.4842167 0.906427 -1.630245
v 0.386326 0.9137915 -1.08387
v 0.912493 1.064802 -0.9916347
v 1.010384 1.057438 -1.538011
v 0.7114009 1.071664 -1.591769
v 0.6135103 1.079029 -1.045393
v 0.4842167 0.906427 -1.630245
v 0.386326 0.9137915 -1.08387
v 0.1143194 1.210072 -0.1938489
v 0.07653908 1.264501 -0.4773462
v 0.5435128 1.459767 -0.5064631
v 0.5812931 1.405338 -0.2229657
v 0.575668 1.346745 -0.7512639
v 0.1086904 1.151479 -0.7221466
v 0.1143194 1.210072 -0.1938489
v 0.5812931 1.405338 -0.2229657
v 0.5435128 1.459767 -0.5064631
v 0.07653908 1.264501 -0.4773462
v 0.575668 1.346745 -0.7512639
v 0.1086904 1.151479 -0.7221466
v 0.545031 0.6063566 -0.8715474
v 0.08645794 0.7054486 -0.9706895
v 0.1744664 0.381638 -1.735353
v 0.6330395 0.2825461 -1.636211
v -0.2361453 0.2063918 -1.708659
v -0.3241542 0.5302023 -0.9439998
v 0.545031 0.6063566 -0.8715474
v 0.6330395 0.2825461 -1.636211
v 0.1744664 0.381638 -1.735353
v 0.08645794 0.7054486 -0.9706895
v -0.2361453 0.2063918 -1.708659
v -0.3241542 0.5302023 -0.9439998
v -0.8141936 0.3058926 -0.6071226
v -1.147238 0.4735042 -0.5010156
v -1.270615 0.6543303 -1.173917
v -0.9375666 0.4867187 -1.280024
v -1.622043 0.5830878 -1.128629
v -1.49867 0.4022616 -0.455728
v -0.8141936 0.3058926 -0.6071226
v -0.9375666 0.4867187 -1.280024
v -1.270615 0.6543303 -1.173917
v -1.147238 0.4735042 -0.5010156
v -1.622043 0.5830878 -1.128629
v -1.49867 0.4022616 -0.455728
v -0.7903128 0.04308054 1.601388
v -1.527453 0.04308054 -0.5041616
v 0.3638469 0.04308054 -1.166293
v 1.153576 0.04308054 1.089476
v 1.243614 1.274435 -0.927265
v 1.091139 1.211744 -0.539548
v 0.7050631 1.312028 -0.6751619
v 0.8575374 1.374719 -1.062879
v 1.243614 1.274435 -0.927265
v 0.8575374 1.374719 -1.062879
v 0.7050631 1.312028 -0.6751619
v 1.091139 1.211744 -0.539548
v -0.801877 0.4465117 -0.07744865
v -1.183035 0.5734698 0.0494545
v -1.317932 0.5673845 -0.3496335
v -0.9367731 0.4404264 -0.4765328
v -0.801877 0.4465117 -0.07744865
v -0.9367731 0.4404264 -0.4765328
v -1.317932 0.5673845 -0.3496335
v -1.183035 0.5734698 0.0494545

vn -0.5059896 0.8350554 0.2160026
vn -0.5059896 0.8350554 0.2160026
vn -0.5059896 0.8350554 0.2160027
vn -0.5059896 0.8350554 0.2160026
vn 0.5059896 -0.8350554 -0.2160026
vn 0.5059896 -0.8350554 -0.2160026
vn 0.5059896 -0.8350554 -0.2160026
vn 0.5059896 -0.8350554 -0.2160026
vn 0.1952165 -0.9223127 0.3335113
vn 0.1952165 -0.9223127 0.3335114
vn 0.1952165 -0.9223127 0.3335113
vn 0.1952165 -0.9223127 0.3335113
vn -0.1952164 0.9223128 -0.3335112
vn -0.1952164 0.9223127 -0.3335112
vn -0.1952164 0.9223128 -0.3335111
vn -0.1952164 0.9223128 -0.3335112
vn 0.3273802 0.9230618 0.2019386
vn 0.3273802 0.9230618 0.2019386
vn 0.3273802 0.9230618 0.2019386
vn 0.3273801 0.9230618 0.2019386
vn -0.3273801 -0.9230618 -0.2019386
vn -0.3273802 -0.9230618 -0.2019386
vn -0.3273802 -0.9230618 -0.2019386
vn -0.3273802 -0.9230618 -0.2019386
vn 0.2522858 -0.9643387 0.08001758
vn 0.2522858 -0.9643387 0.08001758
vn 0.2522858 -0.9643387 0.08001758
vn 0.2522858 -0.9643387 0.08001758
vn -0.2522857 0.9643387 -0.08001755
vn -0.2522857 0.9643387 -0.08001754
vn -0.2522857 0.9643387 -0.08001755
vn -0.2522857 0.9643387 -0.08001755
vn -0.3210056 0.9008217 0.2923623
vn -0.3210055 0.9008217 0.2923623
vn -0.3210056 0.9008217 0.2923623
vn -0.3210055 0.9008217 0.2923623
vn 0.3210056 -0.9008217 -0.2923623
vn 0.3210056 -0.9008217 -0.2923623
vn 0.3210056 -0.9008217 -0.2923623
vn 0.3210056 -0.9008217 -0.2923623
vn -0.09958837 0.9813372 -0.1644979
vn 0.13171 0.9895996 0.057836
vn 0.13171 0.9895996 0.05783597
vn -0.09958836 0.9813372 -0.164498
vn 0.3646787 0.8849315 0.289665
vn 0.3646787 0.8849315 0.289665
vn 0.09958847 -0.9813371 0.1644979
vn 0.09958848 -0.9813371 0.1644979
vn -0.1317099 -0.9895996 -0.05783597
vn -0.1317099 -0.9895996 -0.057836
vn -0.3646787 -0.8849315 -0.289665
vn -0.3646787 -0.8849315 -0.289665
vn 0.0008032755 0.998817 -0.04861906
vn -0.09067876 0.9621973 0.2568146
vn -0.09067867 0.9621974 0.2568143
vn 0.0008032755 0.998817 -0.04861906
vn -0.1783948 0.8125343 0.5549446
vn -0.1783948 0.8125343 0.5549445
vn -0.0008033644 -0.998817 0.04861908
vn -0.0008033644 -0.998817 0.04861908
vn 0.09067866 -0.9621973 -0.2568145
vn 0.09067877 -0.9621972 -0.2568148
vn 0.1783948 -0.8125341 -0.5549448
vn 0.1783948 -0.8125341 -0.5549448
vn 0.178814 0.9043832 0.3874488
vn -0.1405778 0.9161314 0.3754213
vn -0.1425274 0.9159104 0.3752255
vn 0.178814 0.9043832 0.3874489
vn -0.4688068 0.8235596 0.3193269
vn -0.4688068 0.8235597 0.319327
vn -0.1788141 -0.9043832 -0.3874489
vn -0.1788141 -0.9043832 -0.3874489
vn 0.1425272 -0.9159104 -0.3752255
vn 0.1405776 -0.9161315 -0.3754213
vn 0.4688069 -0.8235596 -0.3193268
vn 0.4688068 -0.8235597 -0.3193268
vn -0.3157731 0.8975339 -0.3077666
vn -0.3968081 0.9179011 0.0009604134
vn -0.3971867 0.9177333 0.002888296
vn -0.315773 0.8975339 -0.3077666
vn -0.4385999 0.8344191 0.3337288
vn -0.4385999 0.8344191 0.3337288
vn 0.315773 -0.8975338 0.3077667
vn 0.3157731 -0.8975338 0.3077668
vn 0.3971868 -0.9177333 -0.002888292
vn 0.3968082 -0.9179011 -0.0009604171
vn 0.4385999 -0.8344191 -0.3337288
vn 0.4385999 -0.8344191 -0.3337288
vn 0.1985319 0.8647225 -0.4613459
vn 0.2431416 0.9571571 -0.1572653
vn 0.2431416 0.9571571 -0.1572654
vn 0.1985319 0.8647225 -0.4613459
vn 0.2630939 0.9464899 0.1869183
vn 0.2630939 0.9464899 0.1869183
vn -0.1985319 -0.8647225 0.4613459
vn -0.1985319 -0.8647225 0.4613459
vn -0.2431417 -0.9571571 0.1572653
vn -0.2431417 -0.9571571 0.1572653
vn -0.2630939 -0.9464899 -0.1869184
vn -0.2630939 -0.9464899 -0.1869184
vn 0 1 0
vn 0 1 0
vn 0 1 0
vn 0 1 0
vn 0.2407043 0.9597924 -0.1444303
vn 0.2407043 0.9597924 -0.1444303
vn 0.2407043 0.9597924 -0.1444303
vn 0.2407043 0.9597924 -0.1444303
vn -0.2407042 -0.9597924 0.1444303
vn -0.2407042 -0.9597924 0.1444303
vn -0.2407042 -0.9597924 0.1444303
vn -0.2407042 -0.9597924 0.1444303
vn -0.07649977 0.9534073 -0.2918258
vn -0.07649978 0.9534073 -0.2918258
vn -0.07649976 0.9534073 -0.2918258
vn -0.07649978 0.9534073 -0.2918258
vn 0.07649988 -0.9534073 0.2918257
vn 0.07649989 -0.9534073 0.2918257
vn 0.07649989 -0.9534073 0.2918257
vn 0.07649989 -0.9534073 0.2918257

vt 0.7475586 0.06384277
vt 0.7514648 0.1036377
vt 0.7827148 0.1065674
vt 0.7827148 0.05969238
vt 0.7475586 0.06384277
vt 0.7827148 0.05969238
vt 0.7827148 0.1065674
vt 0.7514648 0.1036377
vt 0.7475586 0.06384277
vt 0.7514648 0.1036377
vt 0.7827148 0.1065674
vt 0.7827148 0.05969238
vt 0.7475586 0.06384277
vt 0.7827148 0.05969238
vt 0.7827148 0.1065674
vt 0.7514648 0.1036377
vt 0.7104492 0.08880615
vt 0.7104492 0.1160889
vt 0.7470703 0.1010742
vt 0.7436523 0.09014893
vt 0.7436523 0.09014893
vt 0.7470703 0.1010742
vt 0.7104492 0.1160889
vt 0.7104492 0.08880615
vt 0.7104492 0.1172485
vt 0.7104492 0.144165
vt 0.7451172 0.144165
vt 0.7504883 0.1300049
vt 0.7104492 0.1172485
vt 0.7504883 0.1300049
vt 0.7451172 0.144165
vt 0.7104492 0.144165
vt 0.7104492 0.1172485
vt 0.7104492 0.144165
vt 0.7451172 0.144165
vt 0.7504883 0.1300049
vt 0.7104492 0.1172485
vt 0.7504883 0.1300049
vt 0.7451172 0.144165
vt 0.7104492 0.144165
vt 0.6503906 0.03137207
vt 0.6503906 0.05950928
vt 0.7075195 0.05950928
vt 0.7075195 0.03137207
vt 0.7075195 0.08551025
vt 0.6503906 0.08551025
vt 0.6503906 0.03137207
vt 0.7075195 0.03137207
vt 0.7075195 0.05950928
vt 0.6503906 0.05950928
vt 0.7075195 0.08551025
vt 0.6503906 0.08551025
vt 0.6503906 0.03137207
vt 0.6503906 0.05950928
vt 0.7075195 0.05950928
vt 0.7075195 0.03137207
vt 0.7075195 0.08551025
vt 0.6503906 0.08551025
vt 0.6503906 0.03137207
vt 0.7075195 0.03137207
vt 0.7075195 0.05950928
vt 0.6503906 0.05950928
vt 0.7075195 0.08551025
vt 0.6503906 0.08551025
vt 0.6503906 0.08843994
vt 0.6503906 0.1165771
vt 0.7075195 0.1165771
vt 0.7075195 0.08843994
vt 0.7075195 0.1425781
vt 0.6503906 0.1425781
vt 0.6503906 0.08843994
vt 0.7075195 0.08843994
vt 0.7075195 0.1165771
vt 0.6503906 0.1165771
vt 0.7075195 0.1425781
vt 0.6503906 0.1425781
vt 0.6503906 0.08843994
vt 0.6503906 0.1165771
vt 0.7075195 0.1165771
vt 0.7075195 0.08843994
vt 0.7075195 0.1425781
vt 0.6503906 0.1425781
vt 0.6503906 0.08843994
vt 0.7075195 0.08843994
vt 0.7075195 0.1165771
vt 0.6503906 0.1165771
vt 0.7075195 0.1425781
vt 0.6503906 0.1425781
vt 0.6503906 0.03137207
vt 0.6503906 0.05950928
vt 0.7075195 0.05950928
vt 0.7075195 0.03137207
vt 0.7075195 0.08551025
vt 0.6503906 0.08551025
vt 0.6503906 0.03137207
vt 0.7075195 0.03137207
vt 0.7075195 0.05950928
vt 0.6503906 0.05950928
vt 0.7075195 0.08551025
vt 0.6503906 0.08551025
vt 0.7104492 0.0682373
vt 0.7104492 0.144165
vt 0.7827148 0.144165
vt 0.7827148 0.05969238
vt 0.6601563 0.02832031
vt 0.6875 0.02832031
vt 0.6875 0.002780914
vt 0.6601563 0.002780914
vt 0.6601563 0.02832031
vt 0.6601563 0.002780914
vt 0.6875 0.002780914
vt 0.6875 0.02832031
vt 0.6601563 0.02832031
vt 0.6875 0.02832031
vt 0.6875 0.002780914
vt 0.6601563 0.002780914
vt 0.6601563 0.02832031
vt 0.6601563 0.002780914
vt 0.6875 0.002780914
vt 0.6875 0.02832031

g alpha_2720_596
usemtl alpha_2720_596
usemap alpha_2720_596
f 1/1/1 3/3/3 2/2/2
f 1/1/1 4/4/4 3/3/3
f 5/5/5 7/7/7 6/6/6
f 5/5/5 8/8/8 7/7/7
f 9/9/9 11/11/11 10/10/10
f 9/9/9 12/12/12 11/11/11
f 13/13/13 15/15/15 14/14/14
f 13/13/13 16/16/16 15/15/15
f 17/17/17 19/19/19 18/18/18
f 17/17/17 20/20/20 19/19/19
f 21/21/21 23/23/23 22/22/22
f 21/21/21 24/24/24 23/23/23
f 25/25/25 27/27/27 26/26/26
f 25/25/25 28/28/28 27/27/27
f 29/29/29 31/31/31 30/30/30
f 29/29/29 32/32/32 31/31/31
f 33/33/33 35/35/35 34/34/34
f 33/33/33 36/36/36 35/35/35
f 37/37/37 39/39/39 38/38/38
f 37/37/37 40/40/40 39/39/39
f 41/41/41 43/43/43 42/42/42
f 41/41/41 44/44/44 43/43/43
f 42/42/42 43/43/43 45/45/45
f 42/42/42 45/45/45 46/46/46
f 47/47/47 49/49/49 48/48/48
f 47/47/47 50/50/50 49/49/49
f 50/50/50 51/51/51 49/49/49
f 50/50/50 52/52/52 51/51/51
f 53/53/53 55/55/55 54/54/54
f 53/53/53 56/56/56 55/55/55
f 54/54/54 55/55/55 57/57/57
f 54/54/54 57/57/57 58/58/58
f 59/59/59 61/61/61 60/60/60
f 59/59/59 62/62/62 61/61/61
f 62/62/62 63/63/63 61/61/61
f 62/62/62 64/64/64 63/63/63
f 65/65/65 67/67/67 66/66/66
f 65/65/65 68/68/68 67/67/67
f 66/66/66 67/67/67 69/69/69
f 66/66/66 69/69/69 70/70/70
f 71/71/71 73/73/73 72/72/72
f 71/71/71 74/74/74 73/73/73
f 74/74/74 75/75/75 73/73/73
f 74/74/74 76/76/76 75/75/75
f 77/77/77 79/79/79 78/78/78
f 77/77/77 80/80/80 79/79/79
f 78/78/78 79/79/79 81/81/81
f 78/78/78 81/81/81 82/82/82
f 83/83/83 85/85/85 84/84/84
f 83/83/83 86/86/86 85/85/85
f 86/86/86 87/87/87 85/85/85
f 86/86/86 88/88/88 87/87/87
f 89/89/89 91/91/91 90/90/90
f 89/89/89 92/92/92 91/91/91
f 90/90/90 91/91/91 93/93/93
f 90/90/90 93/93/93 94/94/94
f 95/95/95 97/97/97 96/96/96
f 95/95/95 98/98/98 97/97/97
f 98/98/98 99/99/99 97/97/97
f 98/98/98 100/100/100 99/99/99
f 101/101/101 103/103/103 102/102/102
f 101/101/101 104/104/104 103/103/103
f 105/105/105 107/107/107 106/106/106
f 105/105/105 108/108/108 107/107/107
f 109/109/109 111/111/111 110/110/110
f 109/109/109 112/112/112 111/111/111
f 113/113/113 115/115/115 114/114/114
f 113/113/113 116/116/116 115/115/115
f 117/117/117 119/119/119 118/118/118
f 117/117/117 120/120/120 119/119/119
