#alpha_1403_308.obj

v 0.8744354 1.668639 0.3472367
v 0.3625273 1.683017 0.9650186
v -0.03933362 1.144934 0.08143561
v 0.225385 1.190007 -0.1072229
v 0.225385 1.190007 -0.1072229
v -0.03933362 1.144934 0.08143561
v 0.3625273 1.683017 0.9650186
v 0.8744354 1.668639 0.3472367
v -2.524084 0.5522573 0.8251621
v -2.115013 0.3518698 1.485781
v -1.595771 0.06034493 0.5492225
v -1.826246 0.1767969 0.346689
v -1.826246 0.1767969 0.346689
v -1.595771 0.06034493 0.5492225
v -2.115013 0.3518698 1.485781
v -2.524084 0.5522573 0.8251621
v -0.5140229 0.8248929 -0.8993581
v -0.03932992 1.144934 0.08143653
v 0.7462124 1.433347 -0.1545705
v 0.3058411 1.098082 -1.360137
v -0.5140229 0.8248929 -0.8993581
v 0.3058411 1.098082 -1.360137
v 0.7462124 1.433347 -0.1545705
v -0.03932992 1.144934 0.08143653
v -1.805335 0.4929128 0.7311915
v -0.6330692 0.9923765 0.3774143
v -0.09225406 0.96349 1.232838
v -1.402291 0.3640843 1.790207
v -1.805335 0.4929128 0.7311915
v -1.402291 0.3640843 1.790207
v -0.09225406 0.96349 1.232838
v -0.6330692 0.9923765 0.3774143
v -1.392455 0.3428391 -0.7116178
v -0.6837588 0.6808587 -0.546085
v -1.149887 0.1965102 0.3370183
v -1.41864 0.09337044 0.1794305
v -1.41864 0.09337044 0.1794305
v -1.149887 0.1965102 0.3370183
v -0.6837588 0.6808587 -0.546085
v -1.392455 0.3428391 -0.7116178
v -0.5385852 0.8933288 0.2231406
v -0.1314988 1.265527 0.2333489
v 0.006335562 1.087848 1.214963
v -0.4007508 0.7156492 1.204754
v 0.5149004 1.131426 1.151442
v 0.3770697 1.309106 0.1698287
v -0.5385852 0.8933288 0.2231406
v -0.4007508 0.7156492 1.204754
v 0.006335562 1.087848 1.214963
v -0.1314988 1.265527 0.2333489
v 0.5149004 1.131426 1.151442
v 0.3770697 1.309106 0.1698287
v 0.2948582 1.614199 0.3140133
v 0.6172968 1.717785 0.5646251
v 0.3803641 1.636005 0.9032673
v 0.05792559 1.532419 0.6526555
v 0.2948582 1.614199 0.3140133
v 0.05792559 1.532419 0.6526555
v 0.3803641 1.636005 0.9032673
v 0.6172968 1.717785 0.5646251
v -1.134497 0.5319947 -0.7786142
v -0.7570207 0.5564677 -0.5930979
v -0.9440873 0.595341 -0.2175998
v -1.321564 0.570868 -0.4031161
v -1.134497 0.5319947 -0.7786142
v -1.321564 0.570868 -0.4031161
v -0.9440873 0.595341 -0.2175998
v -0.7570207 0.5564677 -0.5930979
v 0.05967231 0.8979312 -0.9514749
v -0.1109716 0.9973686 -0.737571
v -0.5232588 0.9054477 -1.017953
v -0.3526135 0.8060105 -1.231855
v -0.6561887 0.8233954 -0.7958459
v -0.2439015 0.9153162 -0.5154634
v 0.05967231 0.8979312 -0.9514749
v -0.3526135 0.8060105 -1.231855
v -0.5232588 0.9054477 -1.017953
v -0.1109716 0.9973686 -0.737571
v -0.6561887 0.8233954 -0.7958459
v -0.2439015 0.9153162 -0.5154634
v -1.147334 0.6941588 1.043605
v -0.875814 0.7617133 1.124077
v -1.008981 0.7335362 1.612458
v -1.2805 0.6659818 1.531989
v -0.7696108 0.6196328 1.671306
v -0.6364453 0.6478099 1.182924
v -1.147334 0.6941588 1.043605
v -1.2805 0.6659818 1.531989
v -1.008981 0.7335362 1.612458
v -0.875814 0.7617133 1.124077
v -0.7696108 0.6196328 1.671306
v -0.6364453 0.6478099 1.182924
v -0.9538926 0.8193174 -0.2538301
v -0.5683177 1.135507 0.4325245
v -1.909794 1.094265 1.205127
v -2.29537 0.7780753 0.5187737
v -1.526004 0.8704944 1.85956
v -0.1845273 0.9117364 1.086959
v -0.9538926 0.8193174 -0.2538301
v -2.29537 0.7780753 0.5187737
v -1.909794 1.094265 1.205127
v -0.5683177 1.135507 0.4325245
v -1.526004 0.8704944 1.85956
v -0.1845273 0.9117364 1.086959
v -2.479698 0.6769722 -0.7860583
v -1.700526 0.6155729 -0.9678043
v -1.982963 0.1934528 0.023434
v -2.236242 0.2472973 0.01194976
v -2.236242 0.2472973 0.01194976
v -1.982963 0.1934528 0.023434
v -1.700526 0.6155729 -0.9678043
v -2.479698 0.6769722 -0.7860583
v -2.164072 0.352392 -0.4742174
v -2.127012 0.4374886 -0.06146257
v -2.894545 0.5021714 -0.005881027
v -2.931605 0.4170748 -0.4186358
v -2.883887 0.3256547 0.3467043
v -2.116356 0.260972 0.2911223
v -2.164072 0.352392 -0.4742174
v -2.931605 0.4170748 -0.4186358
v -2.894545 0.5021714 -0.005881027
v -2.127012 0.4374886 -0.06146257
v -2.883887 0.3256547 0.3467043
v -2.116356 0.260972 0.2911223

vn 0.4606113 0.8545429 0.239987
vn 0.4606113 0.8545429 0.239987
vn 0.4606113 0.8545429 0.239987
vn 0.4606113 0.8545429 0.239987
vn -0.4606113 -0.8545429 -0.2399869
vn -0.4606113 -0.8545429 -0.2399869
vn -0.4606113 -0.8545429 -0.2399869
vn -0.4606113 -0.8545429 -0.2399869
vn 0.4459856 -0.8857284 -0.1287715
vn 0.4459856 -0.8857284 -0.1287715
vn 0.4459856 -0.8857284 -0.1287716
vn 0.4459856 -0.8857284 -0.1287716
vn -0.4459855 0.8857285 0.1287715
vn -0.4459855 0.8857285 0.1287715
vn -0.4459855 0.8857284 0.1287715
vn -0.4459856 0.8857284 0.1287715
vn -0.3912855 -0.9198824 -0.02668506
vn -0.3912856 -0.9198824 -0.02668507
vn -0.3912855 -0.9198824 -0.02668508
vn -0.3912856 -0.9198824 -0.02668507
vn 0.3912854 0.9198824 0.02668513
vn 0.3912855 0.9198824 0.02668512
vn 0.3912854 0.9198824 0.02668513
vn 0.3912854 0.9198824 0.02668514
vn 0.2555092 0.9179437 -0.3034708
vn 0.2555092 0.9179437 -0.3034707
vn 0.2555092 0.9179437 -0.3034708
vn 0.2555092 0.9179437 -0.3034707
vn -0.2555091 -0.9179437 0.3034708
vn -0.2555092 -0.9179437 0.3034708
vn -0.2555092 -0.9179437 0.3034708
vn -0.2555092 -0.9179437 0.3034708
vn 0.3944548 0.8575175 -0.3302562
vn 0.394455 0.8575175 -0.3302563
vn 0.3944548 0.8575175 -0.3302562
vn 0.3944549 0.8575175 -0.3302562
vn -0.3944548 -0.8575175 0.3302562
vn -0.3944548 -0.8575175 0.3302563
vn -0.3944548 -0.8575175 0.3302562
vn -0.3944548 -0.8575175 0.3302562
vn 0.5886292 0.7167324 -0.3739122
vn 0.3299288 0.8935369 -0.3045306
vn 0.3299288 0.8935369 -0.3045306
vn 0.5886292 0.7167324 -0.3739122
vn 0.0146094 0.9806589 -0.1951787
vn 0.0146094 0.9806589 -0.1951787
vn -0.5886292 -0.7167324 0.3739122
vn -0.5886292 -0.7167324 0.3739122
vn -0.3299288 -0.8935369 0.3045306
vn -0.3299288 -0.8935369 0.3045306
vn -0.0146094 -0.9806589 0.1951787
vn -0.0146094 -0.9806589 0.1951787
vn 0.3015702 0.9496695 -0.08475395
vn 0.3015703 0.9496695 -0.08475396
vn 0.3015702 0.9496695 -0.08475395
vn 0.3015702 0.9496695 -0.08475395
vn -0.3015702 -0.9496695 0.08475395
vn -0.3015702 -0.9496695 0.08475395
vn -0.3015702 -0.9496695 0.08475395
vn -0.3015702 -0.9496695 0.08475395
vn 0.03671975 0.9940385 0.10266
vn 0.03671975 0.9940385 0.10266
vn 0.03671975 0.9940385 0.10266
vn 0.03671975 0.9940385 0.10266
vn -0.0367198 -0.9940385 -0.10266
vn -0.0367198 -0.9940385 -0.10266
vn -0.0367198 -0.9940385 -0.10266
vn -0.0367198 -0.9940385 -0.10266
vn 0.03763529 0.9216419 0.3862123
vn 0.1575765 0.9828197 0.09609991
vn 0.1582749 0.9828859 0.09425724
vn 0.03763529 0.9216419 0.3862123
vn 0.2687992 0.9358837 -0.2277469
vn 0.2687993 0.9358837 -0.227747
vn -0.03763527 -0.9216419 -0.3862122
vn -0.03763527 -0.9216419 -0.3862122
vn -0.158275 -0.9828859 -0.09425723
vn -0.1575766 -0.9828196 -0.09609994
vn -0.2687995 -0.9358836 0.2277469
vn -0.2687995 -0.9358836 0.2277469
vn 0.2341522 0.9710047 -0.04819363
vn -0.08466313 0.9947485 -0.05751077
vn -0.08662701 0.9945771 -0.05755048
vn 0.2341522 0.9710047 -0.04819363
vn -0.4186937 0.9060799 -0.06095033
vn -0.4186937 0.9060799 -0.06095034
vn -0.2341522 -0.9710047 0.04819363
vn -0.2341522 -0.9710047 0.04819363
vn 0.08662702 -0.9945771 0.05755049
vn 0.08466313 -0.9947485 0.05751079
vn 0.4186937 -0.9060798 0.06095038
vn 0.4186937 -0.9060799 0.06095038
vn 0.2756928 0.9275677 0.2522136
vn 0.06048898 0.9978623 0.02473699
vn 0.06048899 0.9978623 0.02473701
vn 0.2756928 0.9275677 0.2522136
vn -0.177267 0.9587787 -0.2220806
vn -0.177267 0.9587787 -0.2220806
vn -0.2756927 -0.9275677 -0.2522135
vn -0.2756927 -0.9275677 -0.2522135
vn -0.06048899 -0.9978623 -0.024737
vn -0.06048899 -0.9978623 -0.02473699
vn 0.177267 -0.9587787 0.2220806
vn 0.177267 -0.9587787 0.2220806
vn -0.2664929 0.8883984 -0.3738045
vn -0.2664929 0.8883984 -0.3738045
vn -0.2664929 0.8883984 -0.3738045
vn -0.2664929 0.8883984 -0.3738045
vn 0.2664929 -0.8883985 0.3738044
vn 0.2664929 -0.8883985 0.3738045
vn 0.2664929 -0.8883985 0.3738045
vn 0.2664929 -0.8883985 0.3738045
vn -0.01580505 0.9759741 0.2173125
vn -0.1157402 0.9894294 -0.08737039
vn -0.1157401 0.9894295 -0.08737017
vn -0.01580504 0.9759741 0.2173125
vn -0.2096473 0.8903504 -0.4041339
vn -0.2096474 0.8903504 -0.4041339
vn 0.01580495 -0.9759741 -0.2173125
vn 0.01580496 -0.9759741 -0.2173125
vn 0.1157401 -0.9894295 0.08737016
vn 0.1157402 -0.9894295 0.0873704
vn 0.2096474 -0.8903504 0.404134
vn 0.2096474 -0.8903504 0.404134

vt 0.7104492 0.08880615
vt 0.7104492 0.1160889
vt 0.7470703 0.1010742
vt 0.7436523 0.09014893
vt 0.7436523 0.09014893
vt 0.7470703 0.1010742
vt 0.7104492 0.1160889
vt 0.7104492 0.08880615
vt 0.7104492 0.08880615
vt 0.7104492 0.1160889
vt 0.7470703 0.1010742
vt 0.7436523 0.09014893
vt 0.7436523 0.09014893
vt 0.7470703 0.1010742
vt 0.7104492 0.1160889
vt 0.7104492 0.08880615
vt 0.7475586 0.06384277
vt 0.7514648 0.1036377
vt 0.7827148 0.1065674
vt 0.7827148 0.05969238
vt 0.7475586 0.06384277
vt 0.7827148 0.05969238
vt 0.7827148 0.1065674
vt 0.7514648 0.1036377
vt 0.7475586 0.06384277
vt 0.7514648 0.1036377
vt 0.7827148 0.1065674
vt 0.7827148 0.05969238
vt 0.7475586 0.06384277
vt 0.7827148 0.05969238
vt 0.7827148 0.1065674
vt 0.7514648 0.1036377
vt 0.7104492 0.08880615
vt 0.7104492 0.1160889
vt 0.7470703 0.1010742
vt 0.7436523 0.09014893
vt 0.7436523 0.09014893
vt 0.7470703 0.1010742
vt 0.7104492 0.1160889
vt 0.7104492 0.08880615
vt 0.6503906 0.03137207
vt 0.6503906 0.05950928
vt 0.7075195 0.05950928
vt 0.7075195 0.03137207
vt 0.7075195 0.08551025
vt 0.6503906 0.08551025
vt 0.6503906 0.03137207
vt 0.7075195 0.03137207
vt 0.7075195 0.05950928
vt 0.6503906 0.05950928
vt 0.7075195 0.08551025
vt 0.6503906 0.08551025
vt 0.6601563 0.02832031
vt 0.6875 0.02832031
vt 0.6875 0.002780914
vt 0.6601563 0.002780914
vt 0.6601563 0.02832031
vt 0.6601563 0.002780914
vt 0.6875 0.002780914
vt 0.6875 0.02832031
vt 0.6601563 0.02832031
vt 0.6875 0.02832031
vt 0.6875 0.002780914
vt 0.6601563 0.002780914
vt 0.6601563 0.02832031
vt 0.6601563 0.002780914
vt 0.6875 0.002780914
vt 0.6875 0.02832031
vt 0.6503906 0.08843994
vt 0.6503906 0.1165771
vt 0.7075195 0.1165771
vt 0.7075195 0.08843994
vt 0.7075195 0.1425781
vt 0.6503906 0.1425781
vt 0.6503906 0.08843994
vt 0.7075195 0.08843994
vt 0.7075195 0.1165771
vt 0.6503906 0.1165771
vt 0.7075195 0.1425781
vt 0.6503906 0.1425781
vt 0.6503906 0.08843994
vt 0.6503906 0.1165771
vt 0.7075195 0.1165771
vt 0.7075195 0.08843994
vt 0.7075195 0.1425781
vt 0.6503906 0.1425781
vt 0.6503906 0.08843994
vt 0.7075195 0.08843994
vt 0.7075195 0.1165771
vt 0.6503906 0.1165771
vt 0.7075195 0.1425781
vt 0.6503906 0.1425781
vt 0.6503906 0.03137207
vt 0.6503906 0.05950928
vt 0.7075195 0.05950928
vt 0.7075195 0.03137207
vt 0.7075195 0.08551025
vt 0.6503906 0.08551025
vt 0.6503906 0.03137207
vt 0.7075195 0.03137207
vt 0.7075195 0.05950928
vt 0.6503906 0.05950928
vt 0.7075195 0.08551025
vt 0.6503906 0.08551025
vt 0.706543 0.09033203
vt 0.706543 0.1160889
vt 0.7412109 0.1019287
vt 0.737793 0.09161377
vt 0.737793 0.09161377
vt 0.7412109 0.1019287
vt 0.706543 0.1160889
vt 0.706543 0.09033203
vt 0.6503906 0.03137207
vt 0.6503906 0.05950928
vt 0.7075195 0.05950928
vt 0.7075195 0.03137207
vt 0.7075195 0.08551025
vt 0.6503906 0.08551025
vt 0.6503906 0.03137207
vt 0.7075195 0.03137207
vt 0.7075195 0.05950928
vt 0.6503906 0.05950928
vt 0.7075195 0.08551025
vt 0.6503906 0.08551025

g alpha_1403_308
usemtl alpha_1403_308
usemap alpha_1403_308
f 1/1/1 3/3/3 2/2/2
f 1/1/1 4/4/4 3/3/3
f 5/5/5 7/7/7 6/6/6
f 5/5/5 8/8/8 7/7/7
f 9/9/9 11/11/11 10/10/10
f 9/9/9 12/12/12 11/11/11
f 13/13/13 15/15/15 14/14/14
f 13/13/13 16/16/16 15/15/15
f 17/17/17 19/19/19 18/18/18
f 17/17/17 20/20/20 19/19/19
f 21/21/21 23/23/23 22/22/22
f 21/21/21 24/24/24 23/23/23
f 25/25/25 27/27/27 26/26/26
f 25/25/25 28/28/28 27/27/27
f 29/29/29 31/31/31 30/30/30
f 29/29/29 32/32/32 31/31/31
f 33/33/33 35/35/35 34/34/34
f 33/33/33 36/36/36 35/35/35
f 37/37/37 39/39/39 38/38/38
f 37/37/37 40/40/40 39/39/39
f 41/41/41 43/43/43 42/42/42
f 41/41/41 44/44/44 43/43/43
f 42/42/42 43/43/43 45/45/45
f 42/42/42 45/45/45 46/46/46
f 47/47/47 49/49/49 48/48/48
f 47/47/47 50/50/50 49/49/49
f 50/50/50 51/51/51 49/49/49
f 50/50/50 52/52/52 51/51/51
f 53/53/53 55/55/55 54/54/54
f 53/53/53 56/56/56 55/55/55
f 57/57/57 59/59/59 58/58/58
f 57/57/57 60/60/60 59/59/59
f 61/61/61 63/63/63 62/62/62
f 61/61/61 64/64/64 63/63/63
f 65/65/65 67/67/67 66/66/66
f 65/65/65 68/68/68 67/67/67
f 69/69/69 71/71/71 70/70/70
f 69/69/69 72/72/72 71/71/71
f 70/70/70 71/71/71 73/73/73
f 70/70/70 73/73/73 74/74/74
f 75/75/75 77/77/77 76/76/76
f 75/75/75 78/78/78 77/77/77
f 78/78/78 79/79/79 77/77/77
f 78/78/78 80/80/80 79/79/79
f 81/81/81 83/83/83 82/82/82
f 81/81/81 84/84/84 83/83/83
f 82/82/82 83/83/83 85/85/85
f 82/82/82 85/85/85 86/86/86
f 87/87/87 89/89/89 88/88/88
f 87/87/87 90/90/90 89/89/89
f 90/90/90 91/91/91 89/89/89
f 90/90/90 92/92/92 91/91/91
f 93/93/93 95/95/95 94/94/94
f 93/93/93 96/96/96 95/95/95
f 94/94/94 95/95/95 97/97/97
f 94/94/94 97/97/97 98/98/98
f 99/99/99 101/101/101 100/100/100
f 99/99/99 102/102/102 101/101/101
f 102/102/102 103/103/103 101/101/101
f 102/102/102 104/104/104 103/103/103
f 105/105/105 107/107/107 106/106/106
f 105/105/105 108/108/108 107/107/107
f 109/109/109 111/111/111 110/110/110
f 109/109/109 112/112/112 111/111/111
f 113/113/113 115/115/115 114/114/114
f 113/113/113 116/116/116 115/115/115
f 114/114/114 115/115/115 117/117/117
f 114/114/114 117/117/117 118/118/118
f 119/119/119 121/121/121 120/120/120
f 119/119/119 122/122/122 121/121/121
f 122/122/122 123/123/123 121/121/121
f 122/122/122 124/124/124 123/123/123
