#alpha_3166_386.obj

v -1.887881 0.5564871 -2.074698
v -0.7887191 0.2929324 -1.964672
v -0.4623894 0.4360165 -2.757765
v -1.719475 0.7726413 -3.014932
v -1.887881 0.5564871 -2.074698
v -1.719475 0.7726413 -3.014932
v -0.4623894 0.4360165 -2.757765
v -0.7887191 0.2929324 -1.964672
v 0.2079849 1.649873 -1.31157
v -0.06071046 1.351743 -0.2491943
v 0.7112144 1.228246 0.1313816
v 1.153976 1.563645 -1.073268
v 0.2079849 1.649873 -1.31157
v 1.153976 1.563645 -1.073268
v 0.7112144 1.228246 0.1313816
v -0.06071046 1.351743 -0.2491943
v -0.784523 0.5275576 0.3186162
v -0.3634673 0.9722703 -0.6377642
v -1.039047 1.398132 -0.9815526
v -1.647936 0.9362564 0.1027165
v -0.784523 0.5275576 0.3186162
v -1.647936 0.9362564 0.1027165
v -1.039047 1.398132 -0.9815526
v -0.3634673 0.9722703 -0.6377642
v -1.767022 0.4393916 -0.9759083
v -1.486217 0.2625522 -1.706516
v -0.6960772 0.2645009 -0.9271457
v -0.8957398 0.3424929 -0.6786444
v -0.8957398 0.3424929 -0.6786444
v -0.6960772 0.2645009 -0.9271457
v -1.486217 0.2625522 -1.706516
v -1.767022 0.4393916 -0.9759083
v 0.4798155 0.5867753 -1.793379
v 0.483649 0.6608601 -0.9351223
v -0.5118865 0.08017962 -1.354434
v -0.4184248 0.1734829 -1.693779
v -0.4184248 0.1734829 -1.693779
v -0.5118865 0.08017962 -1.354434
v 0.483649 0.6608601 -0.9351223
v 0.4798155 0.5867753 -1.793379
v 0.687482 1.470394 -0.9056622
v 0.4388203 1.524126 -0.9594181
v 0.4865437 1.348541 -1.374051
v 0.7352054 1.294809 -1.320296
v 0.2638896 1.253515 -1.35958
v 0.21617 1.429099 -0.9449473
v 0.687482 1.470394 -0.9056622
v 0.7352054 1.294809 -1.320296
v 0.4865437 1.348541 -1.374051
v 0.4388203 1.524126 -0.9594181
v 0.2638896 1.253515 -1.35958
v 0.21617 1.429099 -0.9449473
v 0.6616045 1.411111 -0.2273793
v 0.5850264 1.453294 -0.564355
v 1.154706 1.312596 -0.7166947
v 1.231285 1.270412 -0.3797153
v 1.045464 1.149726 -0.975478
v 0.4757828 1.290424 -0.823142
v 0.6616045 1.411111 -0.2273793
v 1.231285 1.270412 -0.3797153
v 1.154706 1.312596 -0.7166947
v 0.5850264 1.453294 -0.564355
v 1.045464 1.149726 -0.975478
v 0.4757828 1.290424 -0.823142
v -0.3299696 0.5623783 -1.119757
v -0.4803882 0.8530496 -0.6420466
v -1.439732 1.027385 -1.050197
v -1.289314 0.7367133 -1.527908
v -1.660207 0.9556894 -0.5626023
v -0.7008588 0.7813545 -0.1544522
v -0.3299696 0.5623783 -1.119757
v -1.289314 0.7367133 -1.527908
v -1.439732 1.027385 -1.050197
v -0.4803882 0.8530496 -0.6420466
v -1.660207 0.9556894 -0.5626023
v -0.7008588 0.7813545 -0.1544522
v 0.1755318 1.015538 -0.3600137
v -0.1749664 1.255757 -0.5706316
v 0.09571229 0.9735295 -1.342972
v 0.4462098 0.7333099 -1.132358
v -0.3242683 0.9303269 -1.474375
v -0.5949462 1.212554 -0.7020311
v 0.1755318 1.015538 -0.3600137
v 0.4462098 0.7333099 -1.132358
v 0.09571229 0.9735295 -1.342972
v -0.1749664 1.255757 -0.5706316
v -0.3242683 0.9303269 -1.474375
v -0.5949462 1.212554 -0.7020311
v 0.3165813 0.05724907 -1.149775
v -0.0135808 0.3435688 -1.268026
v 0.3305821 0.4620756 -1.967375
v 0.6607442 0.1757559 -1.849124
v -0.04875292 0.4720817 -2.152609
v -0.3929158 0.3535749 -1.45326
v 0.3165813 0.05724907 -1.149775
v 0.6607442 0.1757559 -1.849124
v 0.3305821 0.4620756 -1.967375
v -0.0135808 0.3435688 -1.268026
v -0.04875292 0.4720817 -2.152609
v -0.3929158 0.3535749 -1.45326
v -0.8524477 0.1543666 -1.301471
v -1.152383 0.3812687 -1.310211
v -1.27144 0.2091039 -1.93098
v -0.9715049 -0.01779819 -1.92224
v -1.616215 0.2123325 -1.86595
v -1.497161 0.3844975 -1.245177
v -0.8524477 0.1543666 -1.301471
v -0.9715049 -0.01779819 -1.92224
v -1.27144 0.2091039 -1.93098
v -1.152383 0.3812687 -1.310211
v -1.616215 0.2123325 -1.86595
v -1.497161 0.3844975 -1.245177
v 0.4026221 1.580118 -0.9709928
v 0.5976108 1.532007 -0.6006322
v 0.2266716 1.458454 -0.4148946
v 0.03168222 1.506565 -0.7852589
v 0.4026221 1.580118 -0.9709928
v 0.03168222 1.506565 -0.7852589
v 0.2266716 1.458454 -0.4148946
v 0.5976108 1.532007 -0.6006322

vn -0.151744 -0.9460989 -0.2861303
vn -0.1517439 -0.9460989 -0.2861304
vn -0.151744 -0.9460989 -0.2861304
vn -0.151744 -0.9460989 -0.2861303
vn 0.1517439 0.9460989 0.2861303
vn 0.1517439 0.946099 0.2861303
vn 0.1517439 0.946099 0.2861303
vn 0.1517439 0.946099 0.2861303
vn 0.03197145 -0.9614165 -0.2732328
vn 0.03197145 -0.9614165 -0.2732329
vn 0.03197146 -0.9614165 -0.2732329
vn 0.03197145 -0.9614165 -0.2732328
vn -0.03197146 0.9614165 0.273233
vn -0.03197146 0.9614165 0.2732329
vn -0.03197146 0.9614165 0.2732329
vn -0.03197146 0.9614165 0.2732329
vn -0.1693389 -0.824379 -0.5401145
vn -0.1693389 -0.824379 -0.5401145
vn -0.1693389 -0.824379 -0.5401145
vn -0.1693389 -0.824379 -0.5401145
vn 0.1693391 0.8243787 0.5401148
vn 0.1693391 0.8243787 0.5401148
vn 0.1693391 0.8243787 0.5401148
vn 0.169339 0.8243787 0.5401148
vn 0.19484 0.9711035 -0.1378235
vn 0.19484 0.9711035 -0.1378235
vn 0.19484 0.9711035 -0.1378235
vn 0.19484 0.9711035 -0.1378235
vn -0.1948399 -0.9711035 0.1378235
vn -0.1948399 -0.9711035 0.1378235
vn -0.1948399 -0.9711035 0.1378235
vn -0.1948399 -0.9711035 0.1378235
vn -0.4504543 0.8866739 -0.104405
vn -0.4504543 0.8866739 -0.104405
vn -0.4504543 0.8866739 -0.104405
vn -0.4504543 0.8866739 -0.104405
vn 0.4504546 -0.8866737 0.104405
vn 0.4504546 -0.8866737 0.104405
vn 0.4504546 -0.8866737 0.104405
vn 0.4504546 -0.8866737 0.1044051
vn 0.3286563 0.897535 -0.2939658
vn 0.02620075 0.9179011 -0.3959432
vn 0.02430324 0.9177333 -0.3964528
vn 0.3286563 0.897535 -0.2939658
vn -0.3029265 0.834418 -0.4604152
vn -0.3029265 0.834418 -0.4604152
vn -0.328657 -0.8975345 0.2939665
vn -0.328657 -0.8975345 0.2939664
vn -0.02430369 -0.9177333 0.3964531
vn -0.0262012 -0.917901 0.3959434
vn 0.3029263 -0.8344182 0.4604148
vn 0.3029263 -0.8344183 0.4604148
vn 0.2393269 0.9648728 0.1083661
vn 0.2120719 0.9543951 -0.2101322
vn 0.2118335 0.9540229 -0.2120539
vn 0.2393269 0.9648728 0.1083661
vn 0.1583234 0.8334633 -0.5294079
vn 0.1583234 0.8334633 -0.5294078
vn -0.2393267 -0.9648729 -0.1083656
vn -0.2393267 -0.9648729 -0.1083656
vn -0.2118335 -0.9540228 0.2120544
vn -0.2120718 -0.954395 0.2101327
vn -0.1583235 -0.833463 0.5294082
vn -0.1583235 -0.833463 0.5294082
vn 0.3997394 0.8490194 -0.345506
vn 0.2505035 0.9643045 -0.08581881
vn 0.2505036 0.9643044 -0.08581884
vn 0.3997394 0.8490194 -0.345506
vn 0.06170246 0.9773254 0.2025535
vn 0.06170245 0.9773254 0.2025535
vn -0.3997395 -0.8490194 0.3455061
vn -0.3997394 -0.8490194 0.3455061
vn -0.2505036 -0.9643044 0.08581886
vn -0.2505036 -0.9643044 0.08581883
vn -0.06170243 -0.9773254 -0.2025535
vn -0.06170244 -0.9773254 -0.2025535
vn 0.6017267 0.7982165 0.02784722
vn 0.3662685 0.9175633 -0.154677
vn 0.3662684 0.9175633 -0.1546771
vn 0.6017267 0.7982165 0.02784722
vn 0.07170866 0.940303 -0.3326983
vn 0.07170864 0.940303 -0.3326982
vn -0.6017267 -0.7982165 -0.02784718
vn -0.6017267 -0.7982165 -0.02784719
vn -0.3662683 -0.9175634 0.1546771
vn -0.3662684 -0.9175634 0.154677
vn -0.07170856 -0.940303 0.3326981
vn -0.07170855 -0.940303 0.3326981
vn 0.4424875 0.7609301 0.4745421
vn 0.2069817 0.9212868 0.3292251
vn 0.2054444 0.9219922 0.3282117
vn 0.4424875 0.76093 0.4745421
vn -0.07072419 0.9883565 0.1347207
vn -0.07072418 0.9883565 0.1347207
vn -0.4424874 -0.7609302 -0.4745419
vn -0.4424874 -0.7609303 -0.4745419
vn -0.2054442 -0.9219923 -0.3282115
vn -0.2069816 -0.9212869 -0.3292249
vn 0.07072422 -0.9883565 -0.1347207
vn 0.07072422 -0.9883565 -0.1347207
vn 0.6262507 0.7512986 -0.2082319
vn 0.3480853 0.9040016 -0.2482292
vn 0.346236 0.9046648 -0.2483992
vn 0.6262507 0.7512986 -0.2082319
vn 0.008173794 0.9648046 -0.2628406
vn 0.008173786 0.9648046 -0.2628405
vn -0.6262509 -0.7512984 0.208232
vn -0.6262509 -0.7512984 0.208232
vn -0.3462363 -0.9046648 0.2483993
vn -0.3480855 -0.9040015 0.2482293
vn -0.00817382 -0.9648046 0.2628406
vn -0.008173816 -0.9648046 0.2628406
vn -0.1345245 0.9779987 0.1594421
vn -0.1345245 0.9779987 0.1594421
vn -0.1345245 0.9779987 0.1594421
vn -0.1345245 0.9779987 0.1594421
vn 0.1345243 -0.9779987 -0.1594417
vn 0.1345243 -0.9779987 -0.1594417
vn 0.1345243 -0.9779987 -0.1594417
vn 0.1345243 -0.9779987 -0.1594417

vt 0.7475586 0.06384277
vt 0.7514648 0.1036377
vt 0.7827148 0.1065674
vt 0.7827148 0.05969238
vt 0.7475586 0.06384277
vt 0.7827148 0.05969238
vt 0.7827148 0.1065674
vt 0.7514648 0.1036377
vt 0.7475586 0.06384277
vt 0.7514648 0.1036377
vt 0.7827148 0.1065674
vt 0.7827148 0.05969238
vt 0.7475586 0.06384277
vt 0.7827148 0.05969238
vt 0.7827148 0.1065674
vt 0.7514648 0.1036377
vt 0.7475586 0.06384277
vt 0.7514648 0.1036377
vt 0.7827148 0.1065674
vt 0.7827148 0.05969238
vt 0.7475586 0.06384277
vt 0.7827148 0.05969238
vt 0.7827148 0.1065674
vt 0.7514648 0.1036377
vt 0.7104492 0.08880615
vt 0.7104492 0.1160889
vt 0.7470703 0.1010742
vt 0.7436523 0.09014893
vt 0.7436523 0.09014893
vt 0.7470703 0.1010742
vt 0.7104492 0.1160889
vt 0.7104492 0.08880615
vt 0.7104492 0.08880615
vt 0.7104492 0.1160889
vt 0.7470703 0.1010742
vt 0.7436523 0.09014893
vt 0.7436523 0.09014893
vt 0.7470703 0.1010742
vt 0.7104492 0.1160889
vt 0.7104492 0.08880615
vt 0.6503906 0.08843994
vt 0.6503906 0.1165771
vt 0.7075195 0.1165771
vt 0.7075195 0.08843994
vt 0.7075195 0.1425781
vt 0.6503906 0.1425781
vt 0.6503906 0.08843994
vt 0.7075195 0.08843994
vt 0.7075195 0.1165771
vt 0.6503906 0.1165771
vt 0.7075195 0.1425781
vt 0.6503906 0.1425781
vt 0.6503906 0.08843994
vt 0.6503906 0.1165771
vt 0.7075195 0.1165771
vt 0.7075195 0.08843994
vt 0.7075195 0.1425781
vt 0.6503906 0.1425781
vt 0.6503906 0.08843994
vt 0.7075195 0.08843994
vt 0.7075195 0.1165771
vt 0.6503906 0.1165771
vt 0.7075195 0.1425781
vt 0.6503906 0.1425781
vt 0.6503906 0.03137207
vt 0.6503906 0.05950928
vt 0.7075195 0.05950928
vt 0.7075195 0.03137207
vt 0.7075195 0.08551025
vt 0.6503906 0.08551025
vt 0.6503906 0.03137207
vt 0.7075195 0.03137207
vt 0.7075195 0.05950928
vt 0.6503906 0.05950928
vt 0.7075195 0.08551025
vt 0.6503906 0.08551025
vt 0.6503906 0.03137207
vt 0.6503906 0.05950928
vt 0.7075195 0.05950928
vt 0.7075195 0.03137207
vt 0.7075195 0.08551025
vt 0.6503906 0.08551025
vt 0.6503906 0.03137207
vt 0.7075195 0.03137207
vt 0.7075195 0.05950928
vt 0.6503906 0.05950928
vt 0.7075195 0.08551025
vt 0.6503906 0.08551025
vt 0.6503906 0.08843994
vt 0.6503906 0.1165771
vt 0.7075195 0.1165771
vt 0.7075195 0.08843994
vt 0.7075195 0.1425781
vt 0.6503906 0.1425781
vt 0.6503906 0.08843994
vt 0.7075195 0.08843994
vt 0.7075195 0.1165771
vt 0.6503906 0.1165771
vt 0.7075195 0.1425781
vt 0.6503906 0.1425781
vt 0.6503906 0.08843994
vt 0.6503906 0.1165771
vt 0.7075195 0.1165771
vt 0.7075195 0.08843994
vt 0.7075195 0.1425781
vt 0.6503906 0.1425781
vt 0.6503906 0.08843994
vt 0.7075195 0.08843994
vt 0.7075195 0.1165771
vt 0.6503906 0.1165771
vt 0.7075195 0.1425781
vt 0.6503906 0.1425781
vt 0.6601563 0.02832031
vt 0.6875 0.02832031
vt 0.6875 0.002780914
vt 0.6601563 0.002780914
vt 0.6601563 0.02832031
vt 0.6601563 0.002780914
vt 0.6875 0.002780914
vt 0.6875 0.02832031

g alpha_3166_386
usemtl alpha_3166_386
usemap alpha_3166_386
f 1/1/1 3/3/3 2/2/2
f 1/1/1 4/4/4 3/3/3
f 5/5/5 7/7/7 6/6/6
f 5/5/5 8/8/8 7/7/7
f 9/9/9 11/11/11 10/10/10
f 9/9/9 12/12/12 11/11/11
f 13/13/13 15/15/15 14/14/14
f 13/13/13 16/16/16 15/15/15
f 17/17/17 19/19/19 18/18/18
f 17/17/17 20/20/20 19/19/19
f 21/21/21 23/23/23 22/22/22
f 21/21/21 24/24/24 23/23/23
f 25/25/25 27/27/27 26/26/26
f 25/25/25 28/28/28 27/27/27
f 29/29/29 31/31/31 30/30/30
f 29/29/29 32/32/32 31/31/31
f 33/33/33 35/35/35 34/34/34
f 33/33/33 36/36/36 35/35/35
f 37/37/37 39/39/39 38/38/38
f 37/37/37 40/40/40 39/39/39
f 41/41/41 43/43/43 42/42/42
f 41/41/41 44/44/44 43/43/43
f 42/42/42 43/43/43 45/45/45
f 42/42/42 45/45/45 46/46/46
f 47/47/47 49/49/49 48/48/48
f 47/47/47 50/50/50 49/49/49
f 50/50/50 51/51/51 49/49/49
f 50/50/50 52/52/52 51/51/51
f 53/53/53 55/55/55 54/54/54
f 53/53/53 56/56/56 55/55/55
f 54/54/54 55/55/55 57/57/57
f 54/54/54 57/57/57 58/58/58
f 59/59/59 61/61/61 60/60/60
f 59/59/59 62/62/62 61/61/61
f 62/62/62 63/63/63 61/61/61
f 62/62/62 64/64/64 63/63/63
f 65/65/65 67/67/67 66/66/66
f 65/65/65 68/68/68 67/67/67
f 66/66/66 67/67/67 69/69/69
f 66/66/66 69/69/69 70/70/70
f 71/71/71 73/73/73 72/72/72
f 71/71/71 74/74/74 73/73/73
f 74/74/74 75/75/75 73/73/73
f 74/74/74 76/76/76 75/75/75
f 77/77/77 79/79/79 78/78/78
f 77/77/77 80/80/80 79/79/79
f 78/78/78 79/79/79 81/81/81
f 78/78/78 81/81/81 82/82/82
f 83/83/83 85/85/85 84/84/84
f 83/83/83 86/86/86 85/85/85
f 86/86/86 87/87/87 85/85/85
f 86/86/86 88/88/88 87/87/87
f 89/89/89 91/91/91 90/90/90
f 89/89/89 92/92/92 91/91/91
f 90/90/90 91/91/91 93/93/93
f 90/90/90 93/93/93 94/94/94
f 95/95/95 97/97/97 96/96/96
f 95/95/95 98/98/98 97/97/97
f 98/98/98 99/99/99 97/97/97
f 98/98/98 100/100/100 99/99/99
f 101/101/101 103/103/103 102/102/102
f 101/101/101 104/104/104 103/103/103
f 102/102/102 103/103/103 105/105/105
f 102/102/102 105/105/105 106/106/106
f 107/107/107 109/109/109 108/108/108
f 107/107/107 110/110/110 109/109/109
f 110/110/110 111/111/111 109/109/109
f 110/110/110 112/112/112 111/111/111
f 113/113/113 115/115/115 114/114/114
f 113/113/113 116/116/116 115/115/115
f 117/117/117 119/119/119 118/118/118
f 117/117/117 120/120/120 119/119/119
