#Alpha_2763_731.obj

v -0.3356438 0.2777315 1.036393
v -1.129505 0.1608478 1.030812
v -0.6717877 0.07648957 0.02328177
v -0.3645809 0.1362255 0.1220488
v -0.3645809 0.1362255 0.1220488
v -0.6717877 0.07648957 0.02328177
v -1.129505 0.1608478 1.030812
v -0.3356438 0.2777315 1.036393
v -0.4905631 0.3428391 -1.164052
v 0.2181328 0.6808587 -0.9985219
v -0.2479935 0.1965102 -0.1154165
v -0.516748 0.09337044 -0.2730051
v -0.516748 0.09337044 -0.2730051
v -0.2479935 0.1965102 -0.1154165
v 0.2181328 0.6808587 -0.9985219
v -0.4905631 0.3428391 -1.164052
v -0.2326036 0.5319947 -1.231049
v 0.1448721 0.5564677 -1.045532
v -0.04219536 0.595341 -0.6700356
v -0.4196709 0.570868 -0.8555527
v -0.2326036 0.5319947 -1.231049
v -0.4196709 0.570868 -0.8555527
v -0.04219536 0.595341 -0.6700356
v 0.1448721 0.5564677 -1.045532
v -1.577804 0.6769722 -1.238492
v -0.7986335 0.6155729 -1.420241
v -1.081071 0.1934528 -0.4290017
v -1.334349 0.2472973 -0.440486
v -1.334349 0.2472973 -0.440486
v -1.081071 0.1934528 -0.4290017
v -0.7986335 0.6155729 -1.420241
v -1.577804 0.6769722 -1.238492
v -1.26218 0.352392 -0.9266521
v -1.225118 0.4374886 -0.5138963
v -1.992651 0.5021714 -0.4583159
v -2.029713 0.4170748 -0.8710716
v -1.981995 0.3256547 -0.1057315
v -1.214462 0.260972 -0.1613117
v -1.26218 0.352392 -0.9266521
v -2.029713 0.4170748 -0.8710716
v -1.992651 0.5021714 -0.4583159
v -1.225118 0.4374886 -0.5138963
v -1.981995 0.3256547 -0.1057315
v -1.214462 0.260972 -0.1613117
v -0.1335205 0.1441713 -0.3703865
v 0.6984795 0.3083283 -0.01781895
v -0.01006313 0.8536618 1.400319
v -0.8420665 0.689505 1.047749
v 0.6124314 0.4805941 1.854796
v 1.320977 -0.06473956 0.4366609
v -0.1335205 0.1441713 -0.3703865
v -0.8420665 0.689505 1.047749
v -0.01006313 0.8536618 1.400319
v 0.6984795 0.3083283 -0.01781895
v 0.6124314 0.4805941 1.854796
v 1.320977 -0.06473956 0.4366609
v -1.230246 0.3132074 -0.3083647
v -1.159845 0.4303713 -0.5654208
v -0.6906785 0.5254434 -0.3984217
v -0.7610787 0.4082797 -0.1413658
v -0.590493 0.4599502 -0.6421591
v -1.059659 0.3648779 -0.8091586
v -1.230246 0.3132074 -0.3083647
v -0.7610787 0.4082797 -0.1413658
v -0.6906785 0.5254434 -0.3984217
v -1.159845 0.4303713 -0.5654208
v -0.590493 0.4599502 -0.6421591
v -1.059659 0.3648779 -0.8091586
v 1.783759 0.1349387 -1.029045
v 0.955258 0.06476724 -0.2554971
v 1.218438 0.6000682 0.3770787
v 2.246958 0.7687746 -0.44353
v 1.783759 0.1349387 -1.029045
v 2.246958 0.7687746 -0.44353
v 1.218438 0.6000682 0.3770787
v 0.955258 0.06476724 -0.2554971
v -0.6399829 0.2932726 -0.004191156
v -0.3175438 0.3968586 0.2464211
v -0.5544769 0.3150785 0.5850629
v -0.876916 0.2114925 0.3344507
v -0.6399829 0.2932726 -0.004191156
v -0.876916 0.2114925 0.3344507
v -0.5544769 0.3150785 0.5850629
v -0.3175438 0.3968586 0.2464211
v -0.532337 0.8070896 -0.486737
v 0.06690339 0.9200945 -1.008322
v 0.2429778 0.06380057 -0.3245839
v -0.03876711 0.09568715 -0.1593501
v -0.03876711 0.09568715 -0.1593501
v 0.2429778 0.06380057 -0.3245839
v 0.06690339 0.9200945 -1.008322
v -0.532337 0.8070896 -0.486737
v 2.00429 0.08723702 0.2337144
v 0.3517027 0.08723702 1.732268
v -0.9943678 0.08723702 0.2478421
v 0.7761191 0.08723702 -1.357628
v 1.236477 0.1841538 -0.03105371
v 0.8414183 0.3588783 -0.04763407
v 0.9913471 0.6289654 -0.7737605
v 1.386406 0.454241 -0.7571802
v 0.6127167 0.5447261 -0.8832731
v 0.4627876 0.2746389 -0.1571464
v 1.236477 0.1841538 -0.03105371
v 1.386406 0.454241 -0.7571802
v 0.9913471 0.6289654 -0.7737605
v 0.8414183 0.3588783 -0.04763407
v 0.6127167 0.5447261 -0.8832731
v 0.4627876 0.2746389 -0.1571464
v 1.289032 0.5592995 -0.3418565
v 1.706877 0.5662984 -0.2883587
v 1.654769 0.510341 0.1259547
v 1.236927 0.5033422 0.07246021
v 1.289032 0.5592995 -0.3418565
v 1.236927 0.5033422 0.07246021
v 1.654769 0.510341 0.1259547
v 1.706877 0.5662984 -0.2883587
v -1.583236 0.323963 -0.4377697
v -1.101541 0.5024385 -0.009547009
v -1.859045 0.4631971 0.8741787
v -2.34074 0.2847219 0.4459566
v -1.417386 0.2215902 1.242463
v -0.6598819 0.2608313 0.3587363
v -1.583236 0.323963 -0.4377697
v -2.34074 0.2847219 0.4459566
v -1.859045 0.4631971 0.8741787
v -1.101541 0.5024385 -0.009547009
v -1.417386 0.2215902 1.242463
v -0.6598819 0.2608313 0.3587363

vn -0.02286159 0.978743 0.2038126
vn -0.02286159 0.978743 0.2038126
vn -0.02286158 0.978743 0.2038126
vn -0.02286159 0.978743 0.2038126
vn 0.02286159 -0.978743 -0.2038126
vn 0.02286158 -0.978743 -0.2038126
vn 0.02286159 -0.978743 -0.2038126
vn 0.02286159 -0.978743 -0.2038126
vn 0.4680864 0.8575175 0.2134454
vn 0.4680864 0.8575175 0.2134454
vn 0.4680864 0.8575175 0.2134454
vn 0.4680864 0.8575175 0.2134454
vn -0.4680863 -0.8575176 -0.2134453
vn -0.4680863 -0.8575175 -0.2134453
vn -0.4680863 -0.8575176 -0.2134453
vn -0.4680863 -0.8575176 -0.2134453
vn -0.07678424 0.9940385 0.07740542
vn -0.07678424 0.9940385 0.07740542
vn -0.07678424 0.9940385 0.07740542
vn -0.07678424 0.9940385 0.07740542
vn 0.07678425 -0.9940385 -0.07740548
vn 0.07678425 -0.9940385 -0.07740547
vn 0.07678425 -0.9940385 -0.07740548
vn 0.07678425 -0.9940385 -0.07740547
vn 0.222315 0.8883984 -0.401652
vn 0.222315 0.8883984 -0.4016519
vn 0.222315 0.8883984 -0.4016519
vn 0.222315 0.8883984 -0.401652
vn -0.2223149 -0.8883985 0.4016519
vn -0.2223149 -0.8883985 0.401652
vn -0.2223149 -0.8883985 0.401652
vn -0.222315 -0.8883985 0.401652
vn -0.2028786 0.9759741 0.07946553
vn 0.02890887 0.9894294 -0.1421045
vn 0.0289087 0.9894295 -0.1421044
vn -0.2028787 0.9759741 0.07946555
vn 0.2741957 0.8903502 -0.3634464
vn 0.2741956 0.8903502 -0.3634464
vn 0.2028786 -0.9759741 -0.0794656
vn 0.2028786 -0.9759741 -0.07946561
vn -0.02890865 -0.9894295 0.1421042
vn -0.02890883 -0.9894294 0.1421044
vn -0.2741956 -0.8903503 0.3634464
vn -0.2741956 -0.8903503 0.3634463
vn -0.2695338 0.9285687 0.25517
vn -0.3436506 0.9373682 -0.05696611
vn -0.3436505 0.9373683 -0.05696599
vn -0.2695338 0.9285687 0.25517
vn -0.3837196 0.8392681 -0.385212
vn -0.3837196 0.8392681 -0.385212
vn 0.269534 -0.9285687 -0.2551698
vn 0.269534 -0.9285687 -0.2551698
vn 0.3436506 -0.9373682 0.05696605
vn 0.3436506 -0.9373682 0.0569662
vn 0.3837196 -0.8392681 0.385212
vn 0.3837196 -0.8392681 0.385212
vn 0.4419634 0.896737 0.02304669
vn 0.1562945 0.9774343 0.1421064
vn 0.15446 0.9776242 0.1428043
vn 0.4419634 0.896737 0.02304669
vn -0.1696761 0.9521633 0.2541558
vn -0.1696761 0.9521632 0.2541558
vn -0.4419632 -0.8967372 -0.02304639
vn -0.4419632 -0.8967371 -0.02304642
vn -0.1544599 -0.9776242 -0.1428042
vn -0.1562944 -0.9774343 -0.1421062
vn 0.1696761 -0.9521632 -0.2541558
vn 0.1696761 -0.9521632 -0.2541558
vn 0.03941333 -0.7585047 -0.6504746
vn 0.03941342 -0.7585048 -0.6504747
vn 0.03941333 -0.7585048 -0.6504746
vn 0.03941336 -0.7585048 -0.6504745
vn -0.03941324 0.7585047 0.6504747
vn -0.03941324 0.7585047 0.6504747
vn -0.03941324 0.7585046 0.6504747
vn -0.03941324 0.7585047 0.6504747
vn 0.2065305 0.9496697 0.2355265
vn 0.2065305 0.9496697 0.2355265
vn 0.2065305 0.9496697 0.2355265
vn 0.2065305 0.9496697 0.2355265
vn -0.2065306 -0.9496695 -0.2355267
vn -0.2065306 -0.9496696 -0.2355267
vn -0.2065306 -0.9496695 -0.2355267
vn -0.2065306 -0.9496696 -0.2355267
vn 0.2169019 0.6117937 -0.7606986
vn 0.2169019 0.6117936 -0.7606986
vn 0.2169019 0.6117936 -0.7606986
vn 0.2169019 0.6117936 -0.7606986
vn -0.2169015 -0.6117935 0.7606989
vn -0.2169015 -0.6117934 0.7606989
vn -0.2169015 -0.6117934 0.7606989
vn -0.2169015 -0.6117934 0.7606989
vn 0 1 0
vn 0 1 0
vn 0 1 0
vn 0 1 0
vn 0.0736286 0.8482263 -0.5244913
vn 0.2440567 0.9325781 -0.2659595
vn 0.2440566 0.9325781 -0.2659596
vn 0.07362857 0.8482263 -0.5244912
vn 0.39885 0.9160612 0.04183967
vn 0.39885 0.9160612 0.04183963
vn -0.07362852 -0.8482262 0.5244914
vn -0.0736285 -0.8482262 0.5244913
vn -0.2440566 -0.932578 0.2659597
vn -0.2440566 -0.9325781 0.2659596
vn -0.39885 -0.9160612 -0.04183969
vn -0.39885 -0.9160612 -0.04183967
vn 0.1213077 0.9910014 -0.05657551
vn 0.1213077 0.9910014 -0.05657551
vn 0.1213077 0.9910014 -0.05657551
vn 0.1213077 0.9910014 -0.05657551
vn -0.1213076 -0.9910014 0.05657553
vn -0.1213076 -0.9910014 0.05657553
vn -0.1213076 -0.9910014 0.05657553
vn -0.1213076 -0.9910014 0.05657554
vn 0.02668923 0.9630621 0.2679535
vn 0.0347358 0.9981526 -0.04984785
vn 0.03477488 0.998051 -0.05181664
vn 0.02668922 0.9630621 0.2679534
vn 0.03942165 0.9213274 -0.3867839
vn 0.03942163 0.9213274 -0.3867839
vn -0.02668928 -0.9630621 -0.2679535
vn -0.02668927 -0.9630621 -0.2679535
vn -0.03477495 -0.998051 0.05181658
vn -0.03473586 -0.9981526 0.04984778
vn -0.03942168 -0.9213274 0.3867838
vn -0.03942171 -0.9213274 0.3867839

vt 0.7104492 0.08880615
vt 0.7104492 0.1160889
vt 0.7470703 0.1010742
vt 0.7436523 0.09014893
vt 0.7436523 0.09014893
vt 0.7470703 0.1010742
vt 0.7104492 0.1160889
vt 0.7104492 0.08880615
vt 0.7104492 0.08880615
vt 0.7104492 0.1160889
vt 0.7470703 0.1010742
vt 0.7436523 0.09014893
vt 0.7436523 0.09014893
vt 0.7470703 0.1010742
vt 0.7104492 0.1160889
vt 0.7104492 0.08880615
vt 0.6601563 0.02832031
vt 0.6875 0.02832031
vt 0.6875 0.002780914
vt 0.6601563 0.002780914
vt 0.6601563 0.02832031
vt 0.6601563 0.002780914
vt 0.6875 0.002780914
vt 0.6875 0.02832031
vt 0.706543 0.09033203
vt 0.706543 0.1160889
vt 0.7412109 0.1019287
vt 0.737793 0.09161377
vt 0.737793 0.09161377
vt 0.7412109 0.1019287
vt 0.706543 0.1160889
vt 0.706543 0.09033203
vt 0.6503906 0.03137207
vt 0.6503906 0.05950928
vt 0.7075195 0.05950928
vt 0.7075195 0.03137207
vt 0.7075195 0.08551025
vt 0.6503906 0.08551025
vt 0.6503906 0.03137207
vt 0.7075195 0.03137207
vt 0.7075195 0.05950928
vt 0.6503906 0.05950928
vt 0.7075195 0.08551025
vt 0.6503906 0.08551025
vt 0.6503906 0.03137207
vt 0.6503906 0.05950928
vt 0.7075195 0.05950928
vt 0.7075195 0.03137207
vt 0.7075195 0.08551025
vt 0.6503906 0.08551025
vt 0.6503906 0.03137207
vt 0.7075195 0.03137207
vt 0.7075195 0.05950928
vt 0.6503906 0.05950928
vt 0.7075195 0.08551025
vt 0.6503906 0.08551025
vt 0.6503906 0.08843994
vt 0.6503906 0.1165771
vt 0.7075195 0.1165771
vt 0.7075195 0.08843994
vt 0.7075195 0.1425781
vt 0.6503906 0.1425781
vt 0.6503906 0.08843994
vt 0.7075195 0.08843994
vt 0.7075195 0.1165771
vt 0.6503906 0.1165771
vt 0.7075195 0.1425781
vt 0.6503906 0.1425781
vt 0.7475586 0.06384277
vt 0.7514648 0.1036377
vt 0.7827148 0.1065674
vt 0.7827148 0.05969238
vt 0.7475586 0.06384277
vt 0.7827148 0.05969238
vt 0.7827148 0.1065674
vt 0.7514648 0.1036377
vt 0.6601563 0.02832031
vt 0.6875 0.02832031
vt 0.6875 0.002780914
vt 0.6601563 0.002780914
vt 0.6601563 0.02832031
vt 0.6601563 0.002780914
vt 0.6875 0.002780914
vt 0.6875 0.02832031
vt 0.7104492 0.08880615
vt 0.7104492 0.1160889
vt 0.7470703 0.1010742
vt 0.7436523 0.09014893
vt 0.7436523 0.09014893
vt 0.7470703 0.1010742
vt 0.7104492 0.1160889
vt 0.7104492 0.08880615
vt 0.7104492 0.0682373
vt 0.7104492 0.144165
vt 0.7827148 0.144165
vt 0.7827148 0.05969238
vt 0.6503906 0.03137207
vt 0.6503906 0.05950928
vt 0.7075195 0.05950928
vt 0.7075195 0.03137207
vt 0.7075195 0.08551025
vt 0.6503906 0.08551025
vt 0.6503906 0.03137207
vt 0.7075195 0.03137207
vt 0.7075195 0.05950928
vt 0.6503906 0.05950928
vt 0.7075195 0.08551025
vt 0.6503906 0.08551025
vt 0.6601563 0.02832031
vt 0.6875 0.02832031
vt 0.6875 0.002780914
vt 0.6601563 0.002780914
vt 0.6601563 0.02832031
vt 0.6601563 0.002780914
vt 0.6875 0.002780914
vt 0.6875 0.02832031
vt 0.6503906 0.08843994
vt 0.6503906 0.1165771
vt 0.7075195 0.1165771
vt 0.7075195 0.08843994
vt 0.7075195 0.1425781
vt 0.6503906 0.1425781
vt 0.6503906 0.08843994
vt 0.7075195 0.08843994
vt 0.7075195 0.1165771
vt 0.6503906 0.1165771
vt 0.7075195 0.1425781
vt 0.6503906 0.1425781

g Alpha_2763_731
usemtl Alpha_2763_731
usemap Alpha_2763_731
f 1/1/1 3/3/3 2/2/2
f 1/1/1 4/4/4 3/3/3
f 5/5/5 7/7/7 6/6/6
f 5/5/5 8/8/8 7/7/7
f 9/9/9 11/11/11 10/10/10
f 9/9/9 12/12/12 11/11/11
f 13/13/13 15/15/15 14/14/14
f 13/13/13 16/16/16 15/15/15
f 17/17/17 19/19/19 18/18/18
f 17/17/17 20/20/20 19/19/19
f 21/21/21 23/23/23 22/22/22
f 21/21/21 24/24/24 23/23/23
f 25/25/25 27/27/27 26/26/26
f 25/25/25 28/28/28 27/27/27
f 29/29/29 31/31/31 30/30/30
f 29/29/29 32/32/32 31/31/31
f 33/33/33 35/35/35 34/34/34
f 33/33/33 36/36/36 35/35/35
f 34/34/34 35/35/35 37/37/37
f 34/34/34 37/37/37 38/38/38
f 39/39/39 41/41/41 40/40/40
f 39/39/39 42/42/42 41/41/41
f 42/42/42 43/43/43 41/41/41
f 42/42/42 44/44/44 43/43/43
f 45/45/45 47/47/47 46/46/46
f 45/45/45 48/48/48 47/47/47
f 46/46/46 47/47/47 49/49/49
f 46/46/46 49/49/49 50/50/50
f 51/51/51 53/53/53 52/52/52
f 51/51/51 54/54/54 53/53/53
f 54/54/54 55/55/55 53/53/53
f 54/54/54 56/56/56 55/55/55
f 57/57/57 59/59/59 58/58/58
f 57/57/57 60/60/60 59/59/59
f 58/58/58 59/59/59 61/61/61
f 58/58/58 61/61/61 62/62/62
f 63/63/63 65/65/65 64/64/64
f 63/63/63 66/66/66 65/65/65
f 66/66/66 67/67/67 65/65/65
f 66/66/66 68/68/68 67/67/67
f 69/69/69 71/71/71 70/70/70
f 69/69/69 72/72/72 71/71/71
f 73/73/73 75/75/75 74/74/74
f 73/73/73 76/76/76 75/75/75
f 77/77/77 79/79/79 78/78/78
f 77/77/77 80/80/80 79/79/79
f 81/81/81 83/83/83 82/82/82
f 81/81/81 84/84/84 83/83/83
f 85/85/85 87/87/87 86/86/86
f 85/85/85 88/88/88 87/87/87
f 89/89/89 91/91/91 90/90/90
f 89/89/89 92/92/92 91/91/91
f 93/93/93 95/95/95 94/94/94
f 93/93/93 96/96/96 95/95/95
f 97/97/97 99/99/99 98/98/98
f 97/97/97 100/100/100 99/99/99
f 98/98/98 99/99/99 101/101/101
f 98/98/98 101/101/101 102/102/102
f 103/103/103 105/105/105 104/104/104
f 103/103/103 106/106/106 105/105/105
f 106/106/106 107/107/107 105/105/105
f 106/106/106 108/108/108 107/107/107
f 109/109/109 111/111/111 110/110/110
f 109/109/109 112/112/112 111/111/111
f 113/113/113 115/115/115 114/114/114
f 113/113/113 116/116/116 115/115/115
f 117/117/117 119/119/119 118/118/118
f 117/117/117 120/120/120 119/119/119
f 118/118/118 119/119/119 121/121/121
f 118/118/118 121/121/121 122/122/122
f 123/123/123 125/125/125 124/124/124
f 123/123/123 126/126/126 125/125/125
f 126/126/126 127/127/127 125/125/125
f 126/126/126 128/128/128 127/127/127
