#alpha_3135_409.obj

v 0.8744367 1.668639 0.347236
v 0.3625263 1.683017 0.9650163
v -0.03933085 1.144934 0.0814352
v 0.2253871 1.190007 -0.1072233
v 0.2253871 1.190007 -0.1072233
v -0.03933085 1.144934 0.0814352
v 0.3625263 1.683017 0.9650163
v 0.8744367 1.668639 0.347236
v -2.524083 0.5522573 0.8251602
v -2.115011 0.3518698 1.48578
v -1.59577 0.06034493 0.5492207
v -1.826243 0.1767969 0.3466897
v -1.826243 0.1767969 0.3466897
v -1.59577 0.06034493 0.5492207
v -2.115011 0.3518698 1.48578
v -2.524083 0.5522573 0.8251602
v -0.5140235 0.8248929 -0.8993599
v -0.03933085 1.144934 0.0814352
v 0.7462137 1.433347 -0.1545727
v 0.3058409 1.098082 -1.360137
v -0.5140235 0.8248929 -0.8993599
v 0.3058409 1.098082 -1.360137
v 0.7462137 1.433347 -0.1545727
v -0.03933085 1.144934 0.0814352
v -1.805333 0.4929128 0.7311922
v -0.6330689 0.9923765 0.3774111
v -0.09225545 0.96349 1.232836
v -1.402288 0.3640843 1.790204
v -1.805333 0.4929128 0.7311922
v -1.402288 0.3640843 1.790204
v -0.09225545 0.96349 1.232836
v -0.6330689 0.9923765 0.3774111
v -1.392456 0.3428391 -0.7116198
v -0.6837582 0.6808587 -0.5460854
v -1.149886 0.1965102 0.3370187
v -1.418638 0.09337044 0.1794323
v -1.418638 0.09337044 0.1794323
v -1.149886 0.1965102 0.3370187
v -0.6837582 0.6808587 -0.5460854
v -1.392456 0.3428391 -0.7116198
v -0.5385838 0.8933288 0.2231375
v -0.1314965 1.265527 0.2333475
v 0.00633548 1.087848 1.214961
v -0.4007499 0.7156492 1.204751
v 0.5149017 1.131426 1.151441
v 0.3770697 1.309106 0.1698274
v -0.5385838 0.8933288 0.2231375
v -0.4007499 0.7156492 1.204751
v 0.00633548 1.087848 1.214961
v -0.1314965 1.265527 0.2333475
v 0.5149017 1.131426 1.151441
v 0.3770697 1.309106 0.1698274
v 0.2948604 1.614199 0.3140112
v 0.6172984 1.717785 0.564623
v 0.3803661 1.636005 0.9032679
v 0.05792608 1.532419 0.652656
v 0.2948604 1.614199 0.3140112
v 0.05792608 1.532419 0.652656
v 0.3803661 1.636005 0.9032679
v 0.6172984 1.717785 0.564623
v -1.134496 0.5319947 -0.7786161
v -0.7570211 0.5564677 -0.5930981
v -0.944086 0.595341 -0.2175992
v -1.321561 0.570868 -0.4031173
v -1.134496 0.5319947 -0.7786161
v -1.321561 0.570868 -0.4031173
v -0.944086 0.595341 -0.2175992
v -0.7570211 0.5564677 -0.5930981
v 0.05967475 0.8979312 -0.9514737
v -0.110971 0.9973686 -0.737573
v -0.5232584 0.9054477 -1.017955
v -0.3526126 0.8060105 -1.231856
v -0.6561882 0.8233954 -0.795845
v -0.2439008 0.9153162 -0.5154667
v 0.05967475 0.8979312 -0.9514737
v -0.3526126 0.8060105 -1.231856
v -0.5232584 0.9054477 -1.017955
v -0.110971 0.9973686 -0.737573
v -0.6561882 0.8233954 -0.795845
v -0.2439008 0.9153162 -0.5154667
v -1.147331 0.6941588 1.043604
v -0.8758128 0.7617133 1.124076
v -1.00898 0.7335362 1.612456
v -1.280499 0.6659818 1.531987
v -0.7696103 0.6196328 1.671302
v -0.6364447 0.6478099 1.182922
v -1.147331 0.6941588 1.043604
v -1.280499 0.6659818 1.531987
v -1.00898 0.7335362 1.612456
v -0.8758128 0.7617133 1.124076
v -0.7696103 0.6196328 1.671302
v -0.6364447 0.6478099 1.182922
v -0.9538916 0.8193174 -0.2538312
v -0.5683165 1.135507 0.4325223
v -1.909793 1.094265 1.205126
v -2.295368 0.7780753 0.5187724
v -1.526003 0.8704944 1.859558
v -0.1845266 0.9117364 1.086958
v -0.9538916 0.8193174 -0.2538312
v -2.295368 0.7780753 0.5187724
v -1.909793 1.094265 1.205126
v -0.5683165 1.135507 0.4325223
v -1.526003 0.8704944 1.859558
v -0.1845266 0.9117364 1.086958
v -2.479696 0.6769722 -0.7860571
v -1.700524 0.6155729 -0.9678048
v -1.982963 0.1934528 0.02343156
v -2.236239 0.2472973 0.01194818
v -2.236239 0.2472973 0.01194818
v -1.982963 0.1934528 0.02343156
v -1.700524 0.6155729 -0.9678048
v -2.479696 0.6769722 -0.7860571
v -2.164071 0.352392 -0.4742156
v -2.127011 0.4374886 -0.06146136
v -2.894544 0.5021714 -0.005880884
v -2.931605 0.4170748 -0.4186351
v -2.883887 0.3256547 0.346704
v -2.116354 0.260972 0.2911235
v -2.164071 0.352392 -0.4742156
v -2.931605 0.4170748 -0.4186351
v -2.894544 0.5021714 -0.005880884
v -2.127011 0.4374886 -0.06146136
v -2.883887 0.3256547 0.346704
v -2.116354 0.260972 0.2911235

vn 0.3899795 0.8545429 0.3430342
vn 0.3899795 0.8545429 0.3430341
vn 0.3899795 0.8545429 0.3430342
vn 0.3899795 0.8545429 0.3430341
vn -0.3899795 -0.8545429 -0.3430341
vn -0.3899796 -0.8545429 -0.3430341
vn -0.3899795 -0.8545429 -0.3430341
vn -0.3899795 -0.8545429 -0.3430341
vn 0.4638331 -0.8857284 -0.01854897
vn 0.4638331 -0.8857284 -0.01854897
vn 0.4638331 -0.8857284 -0.01854897
vn 0.4638331 -0.8857284 -0.01854897
vn -0.463833 0.8857285 0.01854895
vn -0.463833 0.8857285 0.01854895
vn -0.463833 0.8857284 0.01854895
vn -0.463833 0.8857284 0.01854895
vn -0.3735938 -0.9198824 -0.1193485
vn -0.3735938 -0.9198824 -0.1193485
vn -0.3735938 -0.9198824 -0.1193485
vn -0.3735938 -0.9198824 -0.1193485
vn 0.3735937 0.9198824 0.1193486
vn 0.3735937 0.9198824 0.1193486
vn 0.3735937 0.9198824 0.1193486
vn 0.3735937 0.9198824 0.1193486
vn 0.3205836 0.9179437 -0.2336783
vn 0.3205836 0.9179437 -0.2336783
vn 0.3205836 0.9179437 -0.2336783
vn 0.3205836 0.9179437 -0.2336783
vn -0.3205836 -0.9179437 0.2336784
vn -0.3205836 -0.9179437 0.2336784
vn -0.3205836 -0.9179437 0.2336784
vn -0.3205836 -0.9179437 0.2336784
vn 0.4619058 0.8575175 -0.2265099
vn 0.4619059 0.8575175 -0.2265099
vn 0.4619058 0.8575175 -0.22651
vn 0.4619058 0.8575175 -0.2265099
vn -0.4619058 -0.8575175 0.22651
vn -0.4619058 -0.8575175 0.22651
vn -0.4619058 -0.8575175 0.22651
vn -0.4619058 -0.8575175 0.22651
vn 0.6608875 0.7167324 -0.2225359
vn 0.3931033 0.8935369 -0.2169368
vn 0.3931033 0.8935369 -0.2169368
vn 0.6608875 0.7167324 -0.2225359
vn 0.06079367 0.9806589 -0.1860438
vn 0.06079367 0.9806589 -0.1860438
vn -0.6608875 -0.7167324 0.2225359
vn -0.6608875 -0.7167324 0.2225359
vn -0.3931033 -0.8935369 0.2169368
vn -0.3931033 -0.8935369 0.2169368
vn -0.06079367 -0.9806589 0.1860438
vn -0.06079367 -0.9806589 0.1860437
vn 0.3130845 0.9496695 -0.01028986
vn 0.3130845 0.9496695 -0.01028986
vn 0.3130845 0.9496695 -0.01028986
vn 0.3130845 0.9496695 -0.01028986
vn -0.3130845 -0.9496695 0.01028986
vn -0.3130845 -0.9496695 0.01028986
vn -0.3130845 -0.9496695 0.01028986
vn -0.3130845 -0.9496695 0.01028986
vn 0.0111432 0.9940385 0.1084585
vn 0.0111432 0.9940385 0.1084585
vn 0.0111432 0.9940385 0.1084585
vn 0.0111432 0.9940385 0.1084585
vn -0.01114324 -0.9940385 -0.1084585
vn -0.01114324 -0.9940385 -0.1084585
vn -0.01114324 -0.9940385 -0.1084585
vn -0.01114324 -0.9940385 -0.1084585
vn -0.05567747 0.9216419 0.3840265
vn 0.1300702 0.9828197 0.1309476
vn 0.1311884 0.9828859 0.1293251
vn -0.05567747 0.9216419 0.3840265
vn 0.315407 0.9358837 -0.1569716
vn 0.3154071 0.9358837 -0.1569716
vn 0.05567747 -0.9216419 -0.3840264
vn 0.05567747 -0.9216419 -0.3840264
vn -0.1311885 -0.9828859 -0.1293251
vn -0.1300703 -0.9828196 -0.1309477
vn -0.3154072 -0.9358836 0.1569715
vn -0.3154072 -0.9358836 0.1569715
vn 0.2388866 0.9710047 0.009114005
vn -0.06848084 0.9947485 -0.07606382
vn -0.07037844 0.9945771 -0.07657134
vn 0.2388866 0.9710047 0.009114007
vn -0.3920268 0.9060799 -0.1591673
vn -0.3920268 0.9060799 -0.1591673
vn -0.2388866 -0.9710047 -0.009114005
vn -0.2388866 -0.9710047 -0.009114007
vn 0.07037844 -0.9945771 0.07657135
vn 0.06848084 -0.9947485 0.07606383
vn 0.3920268 -0.9060798 0.1591674
vn 0.3920268 -0.9060799 0.1591674
vn 0.2074909 0.9275677 0.3107502
vn 0.05283211 0.9978623 0.03846559
vn 0.05283212 0.9978623 0.03846561
vn 0.2074909 0.9275677 0.3107502
vn -0.119108 0.9587787 -0.2579857
vn -0.119108 0.9587787 -0.2579857
vn -0.2074908 -0.9275677 -0.3107501
vn -0.2074909 -0.9275677 -0.3107501
vn -0.05283212 -0.9978623 -0.0384656
vn -0.05283212 -0.9978623 -0.03846559
vn 0.119108 -0.9587787 0.2579857
vn 0.119108 -0.9587787 0.2579857
vn -0.1695224 0.8883984 -0.4266268
vn -0.1695224 0.8883984 -0.4266267
vn -0.1695224 0.8883984 -0.4266267
vn -0.1695224 0.8883984 -0.4266267
vn 0.1695224 -0.8883985 0.4266267
vn 0.1695224 -0.8883985 0.4266267
vn 0.1695224 -0.8883985 0.4266267
vn 0.1695224 -0.8883985 0.4266267
vn -0.06724007 0.9759741 0.2072517
vn -0.09152868 0.9894294 -0.1124806
vn -0.09152867 0.9894295 -0.1124803
vn -0.06724007 0.9759741 0.2072517
vn -0.1070789 0.8903504 -0.4425046
vn -0.1070789 0.8903504 -0.4425046
vn 0.06723998 -0.9759741 -0.2072517
vn 0.06723999 -0.9759741 -0.2072517
vn 0.09152862 -0.9894295 0.1124803
vn 0.09152864 -0.9894295 0.1124805
vn 0.1070789 -0.8903504 0.4425046
vn 0.1070789 -0.8903504 0.4425046

vt 0.7104492 0.08880615
vt 0.7104492 0.1160889
vt 0.7470703 0.1010742
vt 0.7436523 0.09014893
vt 0.7436523 0.09014893
vt 0.7470703 0.1010742
vt 0.7104492 0.1160889
vt 0.7104492 0.08880615
vt 0.7104492 0.08880615
vt 0.7104492 0.1160889
vt 0.7470703 0.1010742
vt 0.7436523 0.09014893
vt 0.7436523 0.09014893
vt 0.7470703 0.1010742
vt 0.7104492 0.1160889
vt 0.7104492 0.08880615
vt 0.7475586 0.06384277
vt 0.7514648 0.1036377
vt 0.7827148 0.1065674
vt 0.7827148 0.05969238
vt 0.7475586 0.06384277
vt 0.7827148 0.05969238
vt 0.7827148 0.1065674
vt 0.7514648 0.1036377
vt 0.7475586 0.06384277
vt 0.7514648 0.1036377
vt 0.7827148 0.1065674
vt 0.7827148 0.05969238
vt 0.7475586 0.06384277
vt 0.7827148 0.05969238
vt 0.7827148 0.1065674
vt 0.7514648 0.1036377
vt 0.7104492 0.08880615
vt 0.7104492 0.1160889
vt 0.7470703 0.1010742
vt 0.7436523 0.09014893
vt 0.7436523 0.09014893
vt 0.7470703 0.1010742
vt 0.7104492 0.1160889
vt 0.7104492 0.08880615
vt 0.6503906 0.03137207
vt 0.6503906 0.05950928
vt 0.7075195 0.05950928
vt 0.7075195 0.03137207
vt 0.7075195 0.08551025
vt 0.6503906 0.08551025
vt 0.6503906 0.03137207
vt 0.7075195 0.03137207
vt 0.7075195 0.05950928
vt 0.6503906 0.05950928
vt 0.7075195 0.08551025
vt 0.6503906 0.08551025
vt 0.6601563 0.02832031
vt 0.6875 0.02832031
vt 0.6875 0.002780914
vt 0.6601563 0.002780914
vt 0.6601563 0.02832031
vt 0.6601563 0.002780914
vt 0.6875 0.002780914
vt 0.6875 0.02832031
vt 0.6601563 0.02832031
vt 0.6875 0.02832031
vt 0.6875 0.002780914
vt 0.6601563 0.002780914
vt 0.6601563 0.02832031
vt 0.6601563 0.002780914
vt 0.6875 0.002780914
vt 0.6875 0.02832031
vt 0.6503906 0.08843994
vt 0.6503906 0.1165771
vt 0.7075195 0.1165771
vt 0.7075195 0.08843994
vt 0.7075195 0.1425781
vt 0.6503906 0.1425781
vt 0.6503906 0.08843994
vt 0.7075195 0.08843994
vt 0.7075195 0.1165771
vt 0.6503906 0.1165771
vt 0.7075195 0.1425781
vt 0.6503906 0.1425781
vt 0.6503906 0.08843994
vt 0.6503906 0.1165771
vt 0.7075195 0.1165771
vt 0.7075195 0.08843994
vt 0.7075195 0.1425781
vt 0.6503906 0.1425781
vt 0.6503906 0.08843994
vt 0.7075195 0.08843994
vt 0.7075195 0.1165771
vt 0.6503906 0.1165771
vt 0.7075195 0.1425781
vt 0.6503906 0.1425781
vt 0.6503906 0.03137207
vt 0.6503906 0.05950928
vt 0.7075195 0.05950928
vt 0.7075195 0.03137207
vt 0.7075195 0.08551025
vt 0.6503906 0.08551025
vt 0.6503906 0.03137207
vt 0.7075195 0.03137207
vt 0.7075195 0.05950928
vt 0.6503906 0.05950928
vt 0.7075195 0.08551025
vt 0.6503906 0.08551025
vt 0.706543 0.09033203
vt 0.706543 0.1160889
vt 0.7412109 0.1019287
vt 0.737793 0.09161377
vt 0.737793 0.09161377
vt 0.7412109 0.1019287
vt 0.706543 0.1160889
vt 0.706543 0.09033203
vt 0.6503906 0.03137207
vt 0.6503906 0.05950928
vt 0.7075195 0.05950928
vt 0.7075195 0.03137207
vt 0.7075195 0.08551025
vt 0.6503906 0.08551025
vt 0.6503906 0.03137207
vt 0.7075195 0.03137207
vt 0.7075195 0.05950928
vt 0.6503906 0.05950928
vt 0.7075195 0.08551025
vt 0.6503906 0.08551025

g alpha_3135_409
usemtl alpha_3135_409
usemap alpha_3135_409
f 1/1/1 3/3/3 2/2/2
f 1/1/1 4/4/4 3/3/3
f 5/5/5 7/7/7 6/6/6
f 5/5/5 8/8/8 7/7/7
f 9/9/9 11/11/11 10/10/10
f 9/9/9 12/12/12 11/11/11
f 13/13/13 15/15/15 14/14/14
f 13/13/13 16/16/16 15/15/15
f 17/17/17 19/19/19 18/18/18
f 17/17/17 20/20/20 19/19/19
f 21/21/21 23/23/23 22/22/22
f 21/21/21 24/24/24 23/23/23
f 25/25/25 27/27/27 26/26/26
f 25/25/25 28/28/28 27/27/27
f 29/29/29 31/31/31 30/30/30
f 29/29/29 32/32/32 31/31/31
f 33/33/33 35/35/35 34/34/34
f 33/33/33 36/36/36 35/35/35
f 37/37/37 39/39/39 38/38/38
f 37/37/37 40/40/40 39/39/39
f 41/41/41 43/43/43 42/42/42
f 41/41/41 44/44/44 43/43/43
f 42/42/42 43/43/43 45/45/45
f 42/42/42 45/45/45 46/46/46
f 47/47/47 49/49/49 48/48/48
f 47/47/47 50/50/50 49/49/49
f 50/50/50 51/51/51 49/49/49
f 50/50/50 52/52/52 51/51/51
f 53/53/53 55/55/55 54/54/54
f 53/53/53 56/56/56 55/55/55
f 57/57/57 59/59/59 58/58/58
f 57/57/57 60/60/60 59/59/59
f 61/61/61 63/63/63 62/62/62
f 61/61/61 64/64/64 63/63/63
f 65/65/65 67/67/67 66/66/66
f 65/65/65 68/68/68 67/67/67
f 69/69/69 71/71/71 70/70/70
f 69/69/69 72/72/72 71/71/71
f 70/70/70 71/71/71 73/73/73
f 70/70/70 73/73/73 74/74/74
f 75/75/75 77/77/77 76/76/76
f 75/75/75 78/78/78 77/77/77
f 78/78/78 79/79/79 77/77/77
f 78/78/78 80/80/80 79/79/79
f 81/81/81 83/83/83 82/82/82
f 81/81/81 84/84/84 83/83/83
f 82/82/82 83/83/83 85/85/85
f 82/82/82 85/85/85 86/86/86
f 87/87/87 89/89/89 88/88/88
f 87/87/87 90/90/90 89/89/89
f 90/90/90 91/91/91 89/89/89
f 90/90/90 92/92/92 91/91/91
f 93/93/93 95/95/95 94/94/94
f 93/93/93 96/96/96 95/95/95
f 94/94/94 95/95/95 97/97/97
f 94/94/94 97/97/97 98/98/98
f 99/99/99 101/101/101 100/100/100
f 99/99/99 102/102/102 101/101/101
f 102/102/102 103/103/103 101/101/101
f 102/102/102 104/104/104 103/103/103
f 105/105/105 107/107/107 106/106/106
f 105/105/105 108/108/108 107/107/107
f 109/109/109 111/111/111 110/110/110
f 109/109/109 112/112/112 111/111/111
f 113/113/113 115/115/115 114/114/114
f 113/113/113 116/116/116 115/115/115
f 114/114/114 115/115/115 117/117/117
f 114/114/114 117/117/117 118/118/118
f 119/119/119 121/121/121 120/120/120
f 119/119/119 122/122/122 121/121/121
f 122/122/122 123/123/123 121/121/121
f 122/122/122 124/124/124 123/123/123
