#alpha_2714_605.obj

v 1.148566 1.450531 -0.4521885
v 0.1122272 1.016875 -0.6184933
v 0.1818451 0.6037095 -1.380338
v 1.427095 1.054437 -1.303458
v 1.148566 1.450531 -0.4521885
v 1.427095 1.054437 -1.303458
v 0.1818451 0.6037095 -1.380338
v 0.1122272 1.016875 -0.6184933
v -0.8844072 0.4740292 0.1089602
v -0.7675376 0.1615131 -0.9765792
v -1.545094 0.334074 -1.325274
v -1.807946 0.7336949 -0.08796846
v -0.8844072 0.4740292 0.1089602
v -1.807946 0.7336949 -0.08796846
v -1.545094 0.334074 -1.325274
v -0.7675376 0.1615131 -0.9765792
v -1.100744 0.2455475 -1.547603
v -0.5300428 0.5301423 -2.034648
v -0.1397243 0.2242582 -1.04176
v -0.429333 0.1276793 -0.9213453
v -0.429333 0.1276793 -0.9213453
v -0.1397243 0.2242582 -1.04176
v -0.5300428 0.5301423 -2.034648
v -1.100744 0.2455475 -1.547603
v 1.277977 0.4362061 -1.120389
v 0.875459 0.2787085 -1.783165
v 0.04902199 0.4464521 -1.321115
v 0.1275242 0.5558723 -0.8997325
v 1.277977 0.4362061 -1.120389
v 0.1275242 0.5558723 -0.8997325
v 0.04902199 0.4464521 -1.321115
v 0.875459 0.2787085 -1.783165
v -0.2387392 1.633144 0.9559858
v -0.8932185 1.301506 0.6597205
v -0.4539301 1.192481 -0.1886674
v -0.04054532 1.348807 -0.1693655
v -0.2387392 1.633144 0.9559858
v -0.04054532 1.348807 -0.1693655
v -0.4539301 1.192481 -0.1886674
v -0.8932185 1.301506 0.6597205
v 0.3513261 1.175329 -0.8899477
v 0.03495597 1.275112 -0.4669605
v -0.7442125 1.324383 -1.061362
v -0.4278425 1.2246 -1.484344
v -1.022833 1.092328 -0.7153627
v -0.2436643 1.043057 -0.1209669
v 0.3513261 1.175329 -0.8899477
v -0.4278425 1.2246 -1.484344
v -0.7442125 1.324383 -1.061362
v 0.03495597 1.275112 -0.4669605
v -1.022833 1.092328 -0.7153627
v -0.2436643 1.043057 -0.1209669
v 0.912492 1.064802 -0.9916349
v 0.6135086 1.079029 -1.045394
v 0.7114013 1.071664 -1.59177
v 1.010385 1.057438 -1.538011
v 0.4842167 0.906427 -1.630247
v 0.3863268 0.9137915 -1.083873
v 0.912492 1.064802 -0.9916349
v 1.010385 1.057438 -1.538011
v 0.7114013 1.071664 -1.59177
v 0.6135086 1.079029 -1.045394
v 0.4842167 0.906427 -1.630247
v 0.3863268 0.9137915 -1.083873
v 0.1143169 1.210072 -0.1938477
v 0.0765367 1.264501 -0.4773473
v 0.5435137 1.459767 -0.5064648
v 0.5812939 1.405338 -0.2229652
v 0.5756665 1.346745 -0.7512639
v 0.1086895 1.151479 -0.7221463
v 0.1143169 1.210072 -0.1938477
v 0.5812939 1.405338 -0.2229652
v 0.5435137 1.459767 -0.5064648
v 0.0765367 1.264501 -0.4773473
v 0.5756665 1.346745 -0.7512639
v 0.1086895 1.151479 -0.7221463
v 0.5450323 0.6063566 -0.8715478
v 0.08645482 0.7054486 -0.970692
v 0.1744664 0.381638 -1.735351
v 0.6330412 0.2825461 -1.63621
v -0.2361447 0.2063918 -1.708659
v -0.3241563 0.5302023 -0.9439998
v 0.5450323 0.6063566 -0.8715478
v 0.6330412 0.2825461 -1.63621
v 0.1744664 0.381638 -1.735351
v 0.08645482 0.7054486 -0.970692
v -0.2361447 0.2063918 -1.708659
v -0.3241563 0.5302023 -0.9439998
v -0.8141932 0.3058926 -0.6071196
v -1.147239 0.4735042 -0.5010172
v -1.270613 0.6543303 -1.173916
v -0.9375677 0.4867187 -1.280024
v -1.622043 0.5830878 -1.128627
v -1.498671 0.4022616 -0.4557259
v -0.8141932 0.3058926 -0.6071196
v -0.9375677 0.4867187 -1.280024
v -1.270613 0.6543303 -1.173916
v -1.147239 0.4735042 -0.5010172
v -1.622043 0.5830878 -1.128627
v -1.498671 0.4022616 -0.4557259
v -0.7903143 0.04308054 1.601388
v -1.527451 0.04308054 -0.5041617
v 0.363845 0.04308054 -1.166293
v 1.153577 0.04308054 1.089474
v 1.243614 1.274435 -0.9272647
v 1.091141 1.211744 -0.5395465
v 0.7050635 1.312028 -0.6751631
v 0.8575393 1.374719 -1.062878
v 1.243614 1.274435 -0.9272647
v 0.8575393 1.374719 -1.062878
v 0.7050635 1.312028 -0.6751631
v 1.091141 1.211744 -0.5395465
v -0.8018756 0.4465117 -0.0774488
v -1.183032 0.5734698 0.04945428
v -1.317933 0.5673845 -0.3496323
v -0.9367734 0.4404264 -0.4765326
v -0.8018756 0.4465117 -0.0774488
v -0.9367734 0.4404264 -0.4765326
v -1.317933 0.5673845 -0.3496323
v -1.183032 0.5734698 0.04945428

vn -0.5338333 0.8350554 -0.1330582
vn -0.5338333 0.8350554 -0.1330582
vn -0.5338333 0.8350554 -0.1330582
vn -0.5338333 0.8350554 -0.1330582
vn 0.5338333 -0.8350554 0.1330582
vn 0.5338333 -0.8350554 0.1330582
vn 0.5338334 -0.8350554 0.1330583
vn 0.5338333 -0.8350554 0.1330582
vn -0.04556249 -0.9223127 0.383749
vn -0.04556251 -0.9223127 0.383749
vn -0.04556248 -0.9223127 0.383749
vn -0.04556249 -0.9223127 0.383749
vn 0.04556248 0.9223128 -0.3837489
vn 0.04556246 0.9223127 -0.3837489
vn 0.04556246 0.9223128 -0.3837488
vn 0.04556248 0.9223128 -0.3837489
vn 0.1392206 0.9230618 0.358573
vn 0.1392206 0.9230618 0.358573
vn 0.1392206 0.9230618 0.358573
vn 0.1392205 0.9230618 0.358573
vn -0.1392205 -0.9230618 -0.358573
vn -0.1392205 -0.9230618 -0.358573
vn -0.1392205 -0.9230618 -0.358573
vn -0.1392206 -0.9230618 -0.358573
vn 0.1529027 -0.9643387 0.2160364
vn 0.1529027 -0.9643387 0.2160364
vn 0.1529027 -0.9643387 0.2160364
vn 0.1529027 -0.9643387 0.2160364
vn -0.1529026 0.9643387 -0.2160363
vn -0.1529026 0.9643387 -0.2160362
vn -0.1529026 0.9643387 -0.2160363
vn -0.1529026 0.9643387 -0.2160363
vn -0.4323931 0.9008217 0.03945193
vn -0.4323931 0.9008217 0.03945197
vn -0.4323931 0.9008217 0.03945193
vn -0.4323931 0.9008217 0.03945197
vn 0.4323932 -0.9008217 -0.03945191
vn 0.4323931 -0.9008217 -0.03945193
vn 0.4323932 -0.9008217 -0.03945191
vn 0.4323931 -0.9008217 -0.03945193
vn 0.01983992 0.9813372 -0.1912689
vn 0.07013406 0.9895996 0.1255936
vn 0.07013407 0.9895996 0.1255935
vn 0.01983993 0.9813372 -0.1912689
vn 0.116031 0.8849315 0.4510356
vn 0.116031 0.8849315 0.4510356
vn -0.01983983 -0.9813371 0.1912689
vn -0.01983982 -0.9813371 0.1912689
vn -0.07013403 -0.9895996 -0.1255935
vn -0.07013401 -0.9895996 -0.1255935
vn -0.116031 -0.8849315 -0.4510356
vn -0.116031 -0.8849315 -0.4510356
vn 0.0299768 0.998817 -0.03828641
vn -0.2272707 0.9621973 0.1500813
vn -0.2272705 0.9621974 0.1500811
vn 0.0299768 0.998817 -0.03828641
vn -0.477108 0.8125343 0.3348971
vn -0.477108 0.8125343 0.334897
vn -0.02997689 -0.998817 0.03828638
vn -0.02997689 -0.998817 0.03828638
vn 0.2272705 -0.9621973 -0.1500812
vn 0.2272708 -0.9621972 -0.1500815
vn 0.4771082 -0.8125341 -0.3348972
vn 0.4771082 -0.8125341 -0.3348972
vn -0.09118797 0.9043832 0.4168642
vn -0.3386285 0.9161314 0.2145552
vn -0.3400651 0.9159104 0.2132228
vn -0.09118797 0.9043832 0.4168643
vn -0.5665268 0.8235596 -0.02822694
vn -0.5665268 0.8235597 -0.02822691
vn 0.09118788 -0.9043832 -0.4168644
vn 0.09118788 -0.9043832 -0.4168644
vn 0.3400649 -0.9159104 -0.2132229
vn 0.3386284 -0.9161315 -0.2145553
vn 0.5665269 -0.8235596 0.02822709
vn 0.5665269 -0.8235597 0.02822706
vn -0.06610899 0.8975339 -0.4359616
vn -0.3170128 0.9179011 -0.238664
vn -0.3184779 0.9177333 -0.237355
vn -0.06610896 0.8975339 -0.4359616
vn -0.5511284 0.8344191 0.001484305
vn -0.5511284 0.8344191 0.001484305
vn 0.06610891 -0.8975338 0.4359616
vn 0.06610891 -0.8975338 0.4359617
vn 0.318478 -0.9177333 0.2373551
vn 0.3170128 -0.9179011 0.238664
vn 0.5511284 -0.8344191 -0.001484394
vn 0.5511284 -0.8344191 -0.001484334
vn 0.4366898 0.8647225 -0.2481066
vn 0.2887847 0.9571571 0.02129844
vn 0.2887847 0.9571571 0.02129836
vn 0.4366899 0.8647225 -0.2481066
vn 0.09701877 0.9464899 0.3078055
vn 0.09701874 0.9464899 0.3078055
vn -0.4366898 -0.8647225 0.2481067
vn -0.4366898 -0.8647225 0.2481066
vn -0.2887847 -0.9571571 -0.02129842
vn -0.2887847 -0.9571571 -0.02129848
vn -0.09701875 -0.9464899 -0.3078055
vn -0.09701874 -0.9464899 -0.3078055
vn 0 1 0
vn 0 1 0
vn 0 1 0
vn 0 1 0
vn 0.2790965 0.9597924 0.030063
vn 0.2790965 0.9597924 0.03006302
vn 0.2790965 0.9597924 0.03006302
vn 0.2790965 0.9597924 0.03006302
vn -0.2790964 -0.9597924 -0.03006298
vn -0.2790965 -0.9597924 -0.03006297
vn -0.2790964 -0.9597924 -0.03006298
vn -0.2790965 -0.9597924 -0.03006297
vn 0.1150801 0.9534073 -0.2788746
vn 0.1150801 0.9534073 -0.2788746
vn 0.1150801 0.9534073 -0.2788746
vn 0.1150801 0.9534073 -0.2788746
vn -0.11508 -0.9534073 0.2788747
vn -0.11508 -0.9534073 0.2788746
vn -0.11508 -0.9534073 0.2788746
vn -0.11508 -0.9534073 0.2788746

vt 0.7475586 0.06384277
vt 0.7514648 0.1036377
vt 0.7827148 0.1065674
vt 0.7827148 0.05969238
vt 0.7475586 0.06384277
vt 0.7827148 0.05969238
vt 0.7827148 0.1065674
vt 0.7514648 0.1036377
vt 0.7475586 0.06384277
vt 0.7514648 0.1036377
vt 0.7827148 0.1065674
vt 0.7827148 0.05969238
vt 0.7475586 0.06384277
vt 0.7827148 0.05969238
vt 0.7827148 0.1065674
vt 0.7514648 0.1036377
vt 0.7104492 0.08880615
vt 0.7104492 0.1160889
vt 0.7470703 0.1010742
vt 0.7436523 0.09014893
vt 0.7436523 0.09014893
vt 0.7470703 0.1010742
vt 0.7104492 0.1160889
vt 0.7104492 0.08880615
vt 0.7104492 0.1172485
vt 0.7104492 0.144165
vt 0.7451172 0.144165
vt 0.7504883 0.1300049
vt 0.7104492 0.1172485
vt 0.7504883 0.1300049
vt 0.7451172 0.144165
vt 0.7104492 0.144165
vt 0.7104492 0.1172485
vt 0.7104492 0.144165
vt 0.7451172 0.144165
vt 0.7504883 0.1300049
vt 0.7104492 0.1172485
vt 0.7504883 0.1300049
vt 0.7451172 0.144165
vt 0.7104492 0.144165
vt 0.6503906 0.03137207
vt 0.6503906 0.05950928
vt 0.7075195 0.05950928
vt 0.7075195 0.03137207
vt 0.7075195 0.08551025
vt 0.6503906 0.08551025
vt 0.6503906 0.03137207
vt 0.7075195 0.03137207
vt 0.7075195 0.05950928
vt 0.6503906 0.05950928
vt 0.7075195 0.08551025
vt 0.6503906 0.08551025
vt 0.6503906 0.03137207
vt 0.6503906 0.05950928
vt 0.7075195 0.05950928
vt 0.7075195 0.03137207
vt 0.7075195 0.08551025
vt 0.6503906 0.08551025
vt 0.6503906 0.03137207
vt 0.7075195 0.03137207
vt 0.7075195 0.05950928
vt 0.6503906 0.05950928
vt 0.7075195 0.08551025
vt 0.6503906 0.08551025
vt 0.6503906 0.08843994
vt 0.6503906 0.1165771
vt 0.7075195 0.1165771
vt 0.7075195 0.08843994
vt 0.7075195 0.1425781
vt 0.6503906 0.1425781
vt 0.6503906 0.08843994
vt 0.7075195 0.08843994
vt 0.7075195 0.1165771
vt 0.6503906 0.1165771
vt 0.7075195 0.1425781
vt 0.6503906 0.1425781
vt 0.6503906 0.08843994
vt 0.6503906 0.1165771
vt 0.7075195 0.1165771
vt 0.7075195 0.08843994
vt 0.7075195 0.1425781
vt 0.6503906 0.1425781
vt 0.6503906 0.08843994
vt 0.7075195 0.08843994
vt 0.7075195 0.1165771
vt 0.6503906 0.1165771
vt 0.7075195 0.1425781
vt 0.6503906 0.1425781
vt 0.6503906 0.03137207
vt 0.6503906 0.05950928
vt 0.7075195 0.05950928
vt 0.7075195 0.03137207
vt 0.7075195 0.08551025
vt 0.6503906 0.08551025
vt 0.6503906 0.03137207
vt 0.7075195 0.03137207
vt 0.7075195 0.05950928
vt 0.6503906 0.05950928
vt 0.7075195 0.08551025
vt 0.6503906 0.08551025
vt 0.7104492 0.0682373
vt 0.7104492 0.144165
vt 0.7827148 0.144165
vt 0.7827148 0.05969238
vt 0.6601563 0.02832031
vt 0.6875 0.02832031
vt 0.6875 0.002780914
vt 0.6601563 0.002780914
vt 0.6601563 0.02832031
vt 0.6601563 0.002780914
vt 0.6875 0.002780914
vt 0.6875 0.02832031
vt 0.6601563 0.02832031
vt 0.6875 0.02832031
vt 0.6875 0.002780914
vt 0.6601563 0.002780914
vt 0.6601563 0.02832031
vt 0.6601563 0.002780914
vt 0.6875 0.002780914
vt 0.6875 0.02832031

g alpha_2714_605
usemtl alpha_2714_605
usemap alpha_2714_605
f 1/1/1 3/3/3 2/2/2
f 1/1/1 4/4/4 3/3/3
f 5/5/5 7/7/7 6/6/6
f 5/5/5 8/8/8 7/7/7
f 9/9/9 11/11/11 10/10/10
f 9/9/9 12/12/12 11/11/11
f 13/13/13 15/15/15 14/14/14
f 13/13/13 16/16/16 15/15/15
f 17/17/17 19/19/19 18/18/18
f 17/17/17 20/20/20 19/19/19
f 21/21/21 23/23/23 22/22/22
f 21/21/21 24/24/24 23/23/23
f 25/25/25 27/27/27 26/26/26
f 25/25/25 28/28/28 27/27/27
f 29/29/29 31/31/31 30/30/30
f 29/29/29 32/32/32 31/31/31
f 33/33/33 35/35/35 34/34/34
f 33/33/33 36/36/36 35/35/35
f 37/37/37 39/39/39 38/38/38
f 37/37/37 40/40/40 39/39/39
f 41/41/41 43/43/43 42/42/42
f 41/41/41 44/44/44 43/43/43
f 42/42/42 43/43/43 45/45/45
f 42/42/42 45/45/45 46/46/46
f 47/47/47 49/49/49 48/48/48
f 47/47/47 50/50/50 49/49/49
f 50/50/50 51/51/51 49/49/49
f 50/50/50 52/52/52 51/51/51
f 53/53/53 55/55/55 54/54/54
f 53/53/53 56/56/56 55/55/55
f 54/54/54 55/55/55 57/57/57
f 54/54/54 57/57/57 58/58/58
f 59/59/59 61/61/61 60/60/60
f 59/59/59 62/62/62 61/61/61
f 62/62/62 63/63/63 61/61/61
f 62/62/62 64/64/64 63/63/63
f 65/65/65 67/67/67 66/66/66
f 65/65/65 68/68/68 67/67/67
f 66/66/66 67/67/67 69/69/69
f 66/66/66 69/69/69 70/70/70
f 71/71/71 73/73/73 72/72/72
f 71/71/71 74/74/74 73/73/73
f 74/74/74 75/75/75 73/73/73
f 74/74/74 76/76/76 75/75/75
f 77/77/77 79/79/79 78/78/78
f 77/77/77 80/80/80 79/79/79
f 78/78/78 79/79/79 81/81/81
f 78/78/78 81/81/81 82/82/82
f 83/83/83 85/85/85 84/84/84
f 83/83/83 86/86/86 85/85/85
f 86/86/86 87/87/87 85/85/85
f 86/86/86 88/88/88 87/87/87
f 89/89/89 91/91/91 90/90/90
f 89/89/89 92/92/92 91/91/91
f 90/90/90 91/91/91 93/93/93
f 90/90/90 93/93/93 94/94/94
f 95/95/95 97/97/97 96/96/96
f 95/95/95 98/98/98 97/97/97
f 98/98/98 99/99/99 97/97/97
f 98/98/98 100/100/100 99/99/99
f 101/101/101 103/103/103 102/102/102
f 101/101/101 104/104/104 103/103/103
f 105/105/105 107/107/107 106/106/106
f 105/105/105 108/108/108 107/107/107
f 109/109/109 111/111/111 110/110/110
f 109/109/109 112/112/112 111/111/111
f 113/113/113 115/115/115 114/114/114
f 113/113/113 116/116/116 115/115/115
f 117/117/117 119/119/119 118/118/118
f 117/117/117 120/120/120 119/119/119
