#alpha_3119_524.obj

v -2.08906 0.343719 0.9845746
v -1.151993 0.2738385 0.3468146
v -0.5818263 0.7819153 0.7624248
v -1.607097 0.9459453 1.588034
v -2.08906 0.343719 0.9845746
v -1.607097 0.9459453 1.588034
v -0.5818263 0.7819153 0.7624248
v -1.151993 0.2738385 0.3468146
v -1.471267 0.762361 0.846494
v -1.088702 0.7677457 1.022902
v -1.255296 0.9177921 1.379603
v -1.637858 0.9124074 1.203198
v -1.471267 0.762361 0.846494
v -1.637858 0.9124074 1.203198
v -1.255296 0.9177921 1.379603
v -1.088702 0.7677457 1.022902
v -0.6164912 1.124295 -1.104373
v 0.04511399 1.463433 -0.8024149
v -0.6650587 1.125764 -0.0192329
v -0.8896664 1.00811 -0.2275807
v -0.8896664 1.00811 -0.2275807
v -0.6650587 1.125764 -0.0192329
v 0.04511399 1.463433 -0.8024149
v -0.6164912 1.124295 -1.104373
v -1.013798 1.005255 -0.07923799
v -0.7022151 1.184349 0.07997554
v -1.089546 1.339228 0.6637645
v -1.401126 1.160133 0.504553
v -0.797271 1.273926 0.8750054
v -0.4099431 1.119047 0.2912146
v -1.013798 1.005255 -0.07923799
v -1.401126 1.160133 0.504553
v -1.089546 1.339228 0.6637645
v -0.7022151 1.184349 0.07997554
v -0.797271 1.273926 0.8750054
v -0.4099431 1.119047 0.2912146
v -0.4770561 0.4782352 0.06670482
v -1.074384 0.6456935 0.3802652
v -1.651763 0.6993909 -0.7483053
v -1.054438 0.5319327 -1.061868
v -2.182444 0.4321422 -0.4895262
v -1.605062 0.3784448 0.6390467
v -0.4770561 0.4782352 0.06670482
v -1.054438 0.5319327 -1.061868
v -1.651763 0.6993909 -0.7483053
v -1.074384 0.6456935 0.3802652
v -2.182444 0.4321422 -0.4895262
v -1.605062 0.3784448 0.6390467
v -1.259276 0.6932877 0.380374
v -0.8656266 0.8446452 0.3321543
v -0.7713611 0.844503 1.101267
v -1.165011 0.6931455 1.149487
v -0.3965847 0.7258777 1.05531
v -0.4908502 0.7260199 0.2861978
v -1.259276 0.6932877 0.380374
v -1.165011 0.6931455 1.149487
v -0.7713611 0.844503 1.101267
v -0.8656266 0.8446452 0.3321543
v -0.3965847 0.7258777 1.05531
v -0.4908502 0.7260199 0.2861978
v -1.369035 0.4644932 0.4383753
v -1.060642 0.2715791 0.1626047
v -0.1530364 0.4896567 1.736892
v -0.2603314 0.06636488 0.3438784
v 0.2639801 0.2246844 1.351509
v 0.2639801 0.2246844 1.351509
v -1.060642 0.2715791 0.1626047
v -1.369035 0.4644932 0.4383753
v -0.1530364 0.4896567 1.736892
v -0.2603314 0.06636488 0.3438784
v -2.542322 0.6146033 -0.7540913
v -1.927898 0.3369827 -1.189203
v -1.818125 0.1321399 -0.1039696
v -2.100246 0.274451 -0.01534108
v -2.100246 0.274451 -0.01534108
v -1.818125 0.1321399 -0.1039696
v -1.927898 0.3369827 -1.189203
v -2.542322 0.6146033 -0.7540913
v -2.431667 0.3220962 -0.1498012
v -2.105345 0.3546739 0.03773241
v -2.450346 0.5364035 0.6064901
v -2.776667 0.5038257 0.4189565
v -2.22472 0.3503498 0.8028008
v -1.879719 0.1686202 0.2340429
v -2.431667 0.3220962 -0.1498012
v -2.776667 0.5038257 0.4189565
v -2.450346 0.5364035 0.6064901
v -2.105345 0.3546739 0.03773241
v -2.22472 0.3503498 0.8028008
v -1.879719 0.1686202 0.2340429
v -1.124204 0.02260217 0.3338774
v 0.2374792 0.187766 -1.137516
v -1.703662 0.5630497 -0.1704133
v -0.3881622 0.5630497 -1.681999
v -0.08868074 0.02260217 1.235072
v -1.124204 0.02260217 0.3338774
v 0.2374792 0.187766 -1.137516
v 1.346879 0.1015486 -0.1720286
v -1.703662 0.5630497 -0.1704133
v -0.3881622 0.5630497 -1.681999
v -0.3388425 1.328176 -0.9267096
v 0.0437194 1.33356 -0.750304
v -0.1228721 1.483607 -0.3936003
v -0.5054368 1.478222 -0.5700085
v -0.3388425 1.328176 -0.9267096
v -0.5054368 1.478222 -0.5700085
v -0.1228721 1.483607 -0.3936003
v 0.0437194 1.33356 -0.750304
v -2.091287 0.5110629 -0.9647661
v -1.330924 0.6769559 -1.107677
v -1.09035 0.3121727 -0.2511223
v -1.450274 0.1667764 -0.03896254
v -2.091287 0.5110629 -0.9647661
v -1.450274 0.1667764 -0.03896254
v -1.09035 0.3121727 -0.2511223
v -1.330924 0.6769559 -1.107677

vn -0.2490526 0.7849923 0.567239
vn -0.2490526 0.7849923 0.567239
vn -0.2490526 0.7849922 0.567239
vn -0.2490526 0.7849922 0.567239
vn 0.2490526 -0.7849923 -0.567239
vn 0.2490526 -0.7849922 -0.567239
vn 0.2490526 -0.7849922 -0.567239
vn 0.2490526 -0.7849923 -0.567239
vn -0.3462279 0.9343448 0.08441625
vn -0.3462278 0.9343448 0.08441625
vn -0.3462278 0.9343448 0.08441625
vn -0.3462279 0.9343448 0.08441625
vn 0.3462279 -0.9343448 -0.08441629
vn 0.3462279 -0.9343448 -0.08441626
vn 0.3462279 -0.9343448 -0.08441625
vn 0.3462279 -0.9343448 -0.08441628
vn 0.2498276 0.8936044 0.372904
vn 0.2498276 0.8936045 0.3729039
vn 0.2498276 0.8936044 0.372904
vn 0.2498276 0.8936044 0.372904
vn -0.2498277 -0.8936044 -0.3729039
vn -0.2498277 -0.8936044 -0.3729039
vn -0.2498276 -0.8936045 -0.3729039
vn -0.2498277 -0.8936044 -0.3729039
vn -0.1664476 0.8636028 0.475905
vn -0.2042758 0.9634596 0.1732546
vn -0.2042758 0.9634596 0.1732546
vn -0.1664476 0.8636028 0.4759051
vn -0.2214133 0.9600296 -0.1712289
vn -0.2214133 0.9600296 -0.1712289
vn 0.1664475 -0.8636028 -0.475905
vn 0.1664475 -0.8636028 -0.475905
vn 0.2042758 -0.9634596 -0.1732547
vn 0.2042758 -0.9634596 -0.1732546
vn 0.2214133 -0.9600296 0.1712288
vn 0.2214133 -0.9600296 0.1712289
vn -0.1977999 0.9696236 -0.1438938
vn 0.08926602 0.9960038 -0.002837688
vn 0.08926606 0.9960037 -0.002837665
vn -0.1977999 0.9696236 -0.1438938
vn 0.3869172 0.9100332 0.1487774
vn 0.3869173 0.9100332 0.1487773
vn 0.1977999 -0.9696236 0.1438938
vn 0.1977999 -0.9696236 0.1438938
vn -0.08926606 -0.9960037 0.002837665
vn -0.08926602 -0.9960038 0.002837688
vn -0.3869172 -0.9100332 -0.1487774
vn -0.3869173 -0.9100332 -0.1487773
vn 0.2456764 0.9342722 0.2584158
vn 0.02922403 0.9991074 0.03050264
vn 0.02922405 0.9991074 0.03050267
vn 0.2456764 0.9342722 0.2584158
vn -0.2062844 0.9540254 -0.2174447
vn -0.2062844 0.9540254 -0.2174447
vn -0.2456763 -0.9342722 -0.2584158
vn -0.2456764 -0.9342722 -0.2584158
vn -0.029224 -0.9991074 -0.03050268
vn -0.02922398 -0.9991074 -0.03050265
vn 0.2062845 -0.9540254 0.2174447
vn 0.2062845 -0.9540254 0.2174447
vn -0.418343 0.9060795 -0.06331737
vn -0.4183426 0.9060797 -0.06331721
vn -0.4183425 0.9060798 -0.06331711
vn -0.4183425 0.9060798 -0.06331713
vn -0.4183425 0.9060798 -0.06331708
vn 0.4183426 -0.9060797 0.06331719
vn 0.4183426 -0.9060797 0.06331719
vn 0.4183426 -0.9060797 0.06331724
vn 0.4183427 -0.9060797 0.06331721
vn 0.4183425 -0.9060798 0.06331708
vn -0.1900303 0.8715973 -0.4518924
vn -0.1900303 0.8715973 -0.4518923
vn -0.1900303 0.8715973 -0.4518924
vn -0.1900303 0.8715973 -0.4518924
vn 0.1900303 -0.8715973 0.4518923
vn 0.1900303 -0.8715973 0.4518923
vn 0.1900303 -0.8715974 0.4518923
vn 0.1900303 -0.8715973 0.4518923
vn -0.2531041 0.9607883 0.1132438
vn -0.2766256 0.9386253 -0.2060603
vn -0.2766256 0.9386253 -0.2060604
vn -0.2531041 0.9607883 0.1132438
vn -0.2701181 0.8071724 -0.5248896
vn -0.2701181 0.8071724 -0.5248896
vn 0.2531041 -0.9607883 -0.1132438
vn 0.2531041 -0.9607883 -0.1132438
vn 0.2766256 -0.9386253 0.2060605
vn 0.2766255 -0.9386253 0.2060603
vn 0.2701181 -0.8071724 0.5248896
vn 0.2701181 -0.8071724 0.5248896
vn -0.1293606 -0.8149263 0.5649434
vn -0.06024094 -0.8875011 0.4568512
vn -0.1042387 -0.8437135 0.5265757
vn -0.03230992 -0.9110732 0.4109765
vn 0.06460549 0.9975911 -0.02526264
vn 0.08336917 0.9827511 -0.1650752
vn 0.06473847 0.9891287 -0.1320354
vn 0.06460548 0.9975911 -0.02526264
vn 0.1042387 0.8437135 -0.5265757
vn 0.03230992 0.9110732 -0.4109765
vn -0.3462279 0.9343448 0.08441624
vn -0.3462279 0.9343448 0.08441627
vn -0.3462279 0.9343448 0.08441627
vn -0.3462279 0.9343448 0.08441624
vn 0.3462279 -0.9343448 -0.08441631
vn 0.346228 -0.9343448 -0.0844163
vn 0.346228 -0.9343448 -0.0844163
vn 0.346228 -0.9343448 -0.0844163
vn 0.4054416 0.9011827 -0.1532544
vn 0.4054416 0.9011827 -0.1532544
vn 0.4054416 0.9011827 -0.1532544
vn 0.4054416 0.9011827 -0.1532544
vn -0.4054416 -0.9011827 0.1532543
vn -0.4054416 -0.9011828 0.1532543
vn -0.4054416 -0.9011827 0.1532543
vn -0.4054416 -0.9011827 0.1532543

vt 0.7475586 0.06384277
vt 0.7514648 0.1036377
vt 0.7827148 0.1065674
vt 0.7827148 0.05969238
vt 0.7475586 0.06384277
vt 0.7827148 0.05969238
vt 0.7827148 0.1065674
vt 0.7514648 0.1036377
vt 0.6601563 0.02832031
vt 0.6875 0.02832031
vt 0.6875 0.002780914
vt 0.6601563 0.002780914
vt 0.6601563 0.02832031
vt 0.6601563 0.002780914
vt 0.6875 0.002780914
vt 0.6875 0.02832031
vt 0.7104492 0.08880615
vt 0.7104492 0.1160889
vt 0.7470703 0.1010742
vt 0.7436523 0.09014893
vt 0.7436523 0.09014893
vt 0.7470703 0.1010742
vt 0.7104492 0.1160889
vt 0.7104492 0.08880615
vt 0.6503906 0.03137207
vt 0.6503906 0.05950928
vt 0.7075195 0.05950928
vt 0.7075195 0.03137207
vt 0.7075195 0.08551025
vt 0.6503906 0.08551025
vt 0.6503906 0.03137207
vt 0.7075195 0.03137207
vt 0.7075195 0.05950928
vt 0.6503906 0.05950928
vt 0.7075195 0.08551025
vt 0.6503906 0.08551025
vt 0.6503906 0.03137207
vt 0.6503906 0.05950928
vt 0.7075195 0.05950928
vt 0.7075195 0.03137207
vt 0.7075195 0.08551025
vt 0.6503906 0.08551025
vt 0.6503906 0.03137207
vt 0.7075195 0.03137207
vt 0.7075195 0.05950928
vt 0.6503906 0.05950928
vt 0.7075195 0.08551025
vt 0.6503906 0.08551025
vt 0.6503906 0.08843994
vt 0.6503906 0.1165771
vt 0.7075195 0.1165771
vt 0.7075195 0.08843994
vt 0.7075195 0.1425781
vt 0.6503906 0.1425781
vt 0.6503906 0.08843994
vt 0.7075195 0.08843994
vt 0.7075195 0.1165771
vt 0.6503906 0.1165771
vt 0.7075195 0.1425781
vt 0.6503906 0.1425781
vt 0.7744141 0.144165
vt 0.7744141 0.1281738
vt 0.7104492 0.144165
vt 0.75 0.1109009
vt 0.7104492 0.1228027
vt 0.7104492 0.1228027
vt 0.7744141 0.1281738
vt 0.7744141 0.144165
vt 0.7104492 0.144165
vt 0.75 0.1109009
vt 0.7104492 0.08880615
vt 0.7104492 0.1160889
vt 0.7470703 0.1010742
vt 0.7436523 0.09014893
vt 0.7436523 0.09014893
vt 0.7470703 0.1010742
vt 0.7104492 0.1160889
vt 0.7104492 0.08880615
vt 0.6503906 0.08843994
vt 0.6503906 0.1165771
vt 0.7075195 0.1165771
vt 0.7075195 0.08843994
vt 0.7075195 0.1425781
vt 0.6503906 0.1425781
vt 0.6503906 0.08843994
vt 0.7075195 0.08843994
vt 0.7075195 0.1165771
vt 0.6503906 0.1165771
vt 0.7075195 0.1425781
vt 0.6503906 0.1425781
vt 0.7104492 0.1149292
vt 0.7827148 0.1116333
vt 0.7104492 0.144165
vt 0.7827148 0.144165
vt 0.7104492 0.0682373
vt 0.7104492 0.1149292
vt 0.7827148 0.1116333
vt 0.7827148 0.05969238
vt 0.7104492 0.144165
vt 0.7827148 0.144165
vt 0.6601563 0.02832031
vt 0.6875 0.02832031
vt 0.6875 0.002780914
vt 0.6601563 0.002780914
vt 0.6601563 0.02832031
vt 0.6601563 0.002780914
vt 0.6875 0.002780914
vt 0.6875 0.02832031
vt 0.7104492 0.1172485
vt 0.7104492 0.144165
vt 0.7451172 0.144165
vt 0.7504883 0.1300049
vt 0.7104492 0.1172485
vt 0.7504883 0.1300049
vt 0.7451172 0.144165
vt 0.7104492 0.144165

g alpha_3119_524
usemtl alpha_3119_524
usemap alpha_3119_524
f 1/1/1 3/3/3 2/2/2
f 1/1/1 4/4/4 3/3/3
f 5/5/5 7/7/7 6/6/6
f 5/5/5 8/8/8 7/7/7
f 9/9/9 11/11/11 10/10/10
f 9/9/9 12/12/12 11/11/11
f 13/13/13 15/15/15 14/14/14
f 13/13/13 16/16/16 15/15/15
f 17/17/17 19/19/19 18/18/18
f 17/17/17 20/20/20 19/19/19
f 21/21/21 23/23/23 22/22/22
f 21/21/21 24/24/24 23/23/23
f 25/25/25 27/27/27 26/26/26
f 25/25/25 27/27/27 26/26/26
f 25/25/25 28/28/28 27/27/27
f 25/25/25 28/28/28 27/27/27
f 26/26/26 27/27/27 29/29/29
f 26/26/26 27/27/27 29/29/29
f 26/26/26 29/29/29 30/30/30
f 26/26/26 29/29/29 30/30/30
f 31/31/31 33/33/33 32/32/32
f 31/31/31 33/33/33 32/32/32
f 31/31/31 34/34/34 33/33/33
f 31/31/31 34/34/34 33/33/33
f 34/34/34 35/35/35 33/33/33
f 34/34/34 35/35/35 33/33/33
f 34/34/34 36/36/36 35/35/35
f 34/34/34 36/36/36 35/35/35
f 37/37/37 39/39/39 38/38/38
f 37/37/37 40/40/40 39/39/39
f 38/38/38 39/39/39 41/41/41
f 38/38/38 41/41/41 42/42/42
f 43/43/43 45/45/45 44/44/44
f 43/43/43 46/46/46 45/45/45
f 46/46/46 47/47/47 45/45/45
f 46/46/46 48/48/48 47/47/47
f 49/49/49 51/51/51 50/50/50
f 49/49/49 52/52/52 51/51/51
f 50/50/50 51/51/51 53/53/53
f 50/50/50 53/53/53 54/54/54
f 55/55/55 57/57/57 56/56/56
f 55/55/55 58/58/58 57/57/57
f 58/58/58 59/59/59 57/57/57
f 58/58/58 60/60/60 59/59/59
f 61/61/61 63/63/63 62/62/62
f 64/64/64 62/62/62 63/63/63
f 64/64/64 63/63/63 65/65/65
f 66/66/66 68/68/68 67/67/67
f 66/66/66 69/69/69 68/68/68
f 66/66/66 67/67/67 70/70/70
f 71/71/71 73/73/73 72/72/72
f 71/71/71 74/74/74 73/73/73
f 75/75/75 77/77/77 76/76/76
f 75/75/75 78/78/78 77/77/77
f 79/79/79 81/81/81 80/80/80
f 79/79/79 82/82/82 81/81/81
f 80/80/80 81/81/81 83/83/83
f 80/80/80 83/83/83 84/84/84
f 85/85/85 87/87/87 86/86/86
f 85/85/85 88/88/88 87/87/87
f 88/88/88 89/89/89 87/87/87
f 88/88/88 90/90/90 89/89/89
f 91/91/91 93/93/93 92/92/92
f 92/92/92 93/93/93 94/94/94
f 95/95/95 97/97/97 96/96/96
f 95/95/95 98/98/98 97/97/97
f 96/96/96 97/97/97 99/99/99
f 99/99/99 97/97/97 100/100/100
f 101/101/101 103/103/103 102/102/102
f 101/101/101 104/104/104 103/103/103
f 105/105/105 107/107/107 106/106/106
f 105/105/105 108/108/108 107/107/107
f 109/109/109 111/111/111 110/110/110
f 109/109/109 112/112/112 111/111/111
f 113/113/113 115/115/115 114/114/114
f 113/113/113 116/116/116 115/115/115
