#alpha_2735_2.obj

v 0.8744354 1.668639 0.347235
v 0.3625255 1.683017 0.9650176
v -0.03933191 1.144934 0.08143449
v 0.2253857 1.190007 -0.1072252
v 0.2253857 1.190007 -0.1072252
v -0.03933191 1.144934 0.08143449
v 0.3625255 1.683017 0.9650176
v 0.8744354 1.668639 0.347235
v -2.524085 0.5522573 0.8251593
v -2.115013 0.3518698 1.485777
v -1.59577 0.06034493 0.5492194
v -1.826244 0.1767969 0.3466856
v -1.826244 0.1767969 0.3466856
v -1.59577 0.06034493 0.5492194
v -2.115013 0.3518698 1.485777
v -2.524085 0.5522573 0.8251593
v -0.5140238 0.8248929 -0.8993585
v -0.03933167 1.144934 0.08143449
v 0.7462118 1.433347 -0.1545732
v 0.3058407 1.098082 -1.36014
v -0.5140238 0.8248929 -0.8993585
v 0.3058407 1.098082 -1.36014
v 0.7462118 1.433347 -0.1545732
v -0.03933167 1.144934 0.08143449
v -1.805334 0.4929128 0.7311881
v -0.6330697 0.9923765 0.377413
v -0.09225583 0.96349 1.232836
v -1.402289 0.3640843 1.790205
v -1.805334 0.4929128 0.7311881
v -1.402289 0.3640843 1.790205
v -0.09225583 0.96349 1.232836
v -0.6330697 0.9923765 0.377413
v -1.392456 0.3428391 -0.7116182
v -0.6837583 0.6808587 -0.546087
v -1.149886 0.1965102 0.3370154
v -1.418639 0.09337044 0.1794302
v -1.418639 0.09337044 0.1794302
v -1.149886 0.1965102 0.3370154
v -0.6837583 0.6808587 -0.546087
v -1.392456 0.3428391 -0.7116182
v -0.5385846 0.8933288 0.223139
v -0.1314982 1.265527 0.2333472
v 0.00633502 1.087848 1.21496
v -0.4007515 0.7156492 1.204752
v 0.5149012 1.131426 1.151438
v 0.377068 1.309106 0.1698248
v -0.5385846 0.8933288 0.223139
v -0.4007515 0.7156492 1.204752
v 0.00633502 1.087848 1.21496
v -0.1314982 1.265527 0.2333472
v 0.5149012 1.131426 1.151438
v 0.377068 1.309106 0.1698248
v 0.2948585 1.614199 0.3140128
v 0.6172976 1.717785 0.5646231
v 0.3803651 1.636005 0.9032652
v 0.0579257 1.532419 0.6526549
v 0.2948585 1.614199 0.3140128
v 0.0579257 1.532419 0.6526549
v 0.3803651 1.636005 0.9032652
v 0.6172976 1.717785 0.5646231
v -1.134497 0.5319947 -0.7786157
v -0.7570211 0.5564677 -0.5930994
v -0.9440865 0.595341 -0.2175996
v -1.321562 0.570868 -0.4031198
v -1.134497 0.5319947 -0.7786157
v -1.321562 0.570868 -0.4031198
v -0.9440865 0.595341 -0.2175996
v -0.7570211 0.5564677 -0.5930994
v 0.05967319 0.8979312 -0.9514749
v -0.1109713 0.9973686 -0.7375734
v -0.5232584 0.9054477 -1.017954
v -0.3526139 0.8060105 -1.231859
v -0.6561886 0.8233954 -0.7958467
v -0.2439015 0.9153162 -0.5154665
v 0.05967319 0.8979312 -0.9514749
v -0.3526139 0.8060105 -1.231859
v -0.5232584 0.9054477 -1.017954
v -0.1109713 0.9973686 -0.7375734
v -0.6561886 0.8233954 -0.7958467
v -0.2439015 0.9153162 -0.5154665
v -1.147333 0.6941588 1.043604
v -0.8758143 0.7617133 1.124075
v -1.008981 0.7335362 1.612456
v -1.280499 0.6659818 1.531985
v -0.7696112 0.6196328 1.671301
v -0.6364448 0.6478099 1.182921
v -1.147333 0.6941588 1.043604
v -1.280499 0.6659818 1.531985
v -1.008981 0.7335362 1.612456
v -0.8758143 0.7617133 1.124075
v -0.7696112 0.6196328 1.671301
v -0.6364448 0.6478099 1.182921
v -0.9538924 0.8193174 -0.2538316
v -0.5683182 1.135507 0.432524
v -1.909794 1.094265 1.205126
v -2.295368 0.7780753 0.5187705
v -1.526003 0.8704944 1.859556
v -0.1845276 0.9117364 1.086954
v -0.9538924 0.8193174 -0.2538316
v -2.295368 0.7780753 0.5187705
v -1.909794 1.094265 1.205126
v -0.5683182 1.135507 0.432524
v -1.526003 0.8704944 1.859556
v -0.1845276 0.9117364 1.086954
v -2.479697 0.6769722 -0.7860582
v -1.700525 0.6155729 -0.9678056
v -1.982964 0.1934528 0.02343202
v -2.236241 0.2472973 0.01194596
v -2.236241 0.2472973 0.01194596
v -1.982964 0.1934528 0.02343202
v -1.700525 0.6155729 -0.9678056
v -2.479697 0.6769722 -0.7860582
v -2.164073 0.352392 -0.4742181
v -2.127012 0.4374886 -0.06146407
v -2.894545 0.5021714 -0.005883932
v -2.931606 0.4170748 -0.418638
v -2.883888 0.3256547 0.3467009
v -2.116355 0.260972 0.2911208
v -2.164073 0.352392 -0.4742181
v -2.931606 0.4170748 -0.418638
v -2.894545 0.5021714 -0.005883932
v -2.127012 0.4374886 -0.06146407
v -2.883888 0.3256547 0.3467009
v -2.116355 0.260972 0.2911208

vn -0.3899779 0.8545429 -0.343036
vn -0.3899779 0.8545429 -0.343036
vn -0.3899779 0.8545429 -0.343036
vn -0.3899779 0.8545429 -0.343036
vn 0.3899779 -0.8545429 0.3430359
vn 0.389978 -0.8545429 0.3430359
vn 0.3899779 -0.8545429 0.3430359
vn 0.3899779 -0.8545429 0.3430359
vn -0.4638332 -0.8857284 0.01854681
vn -0.4638332 -0.8857284 0.01854681
vn -0.4638332 -0.8857284 0.01854682
vn -0.4638332 -0.8857284 0.01854682
vn 0.4638331 0.8857285 -0.0185468
vn 0.4638331 0.8857285 -0.0185468
vn 0.4638331 0.8857284 -0.0185468
vn 0.4638331 0.8857284 -0.0185468
vn 0.3735932 -0.9198824 0.1193503
vn 0.3735933 -0.9198824 0.1193503
vn 0.3735932 -0.9198824 0.1193503
vn 0.3735933 -0.9198824 0.1193503
vn -0.3735931 0.9198824 -0.1193503
vn -0.3735932 0.9198824 -0.1193503
vn -0.3735931 0.9198824 -0.1193503
vn -0.3735932 0.9198824 -0.1193503
vn -0.3205847 0.9179437 0.2336768
vn -0.3205847 0.9179437 0.2336768
vn -0.3205847 0.9179437 0.2336768
vn -0.3205847 0.9179437 0.2336768
vn 0.3205847 -0.9179437 -0.2336769
vn 0.3205847 -0.9179437 -0.2336769
vn 0.3205847 -0.9179437 -0.2336769
vn 0.3205847 -0.9179437 -0.2336769
vn -0.4619068 0.8575175 0.2265078
vn -0.4619069 0.8575175 0.2265078
vn -0.4619068 0.8575175 0.2265078
vn -0.4619069 0.8575175 0.2265078
vn 0.4619068 -0.8575175 -0.2265078
vn 0.4619068 -0.8575175 -0.2265078
vn 0.4619068 -0.8575175 -0.2265078
vn 0.4619068 -0.8575175 -0.2265078
vn -0.6608886 0.7167324 0.2225328
vn -0.3931043 0.8935369 0.2169349
vn -0.3931043 0.8935369 0.2169349
vn -0.6608886 0.7167324 0.2225328
vn -0.06079453 0.9806589 0.1860435
vn -0.06079453 0.9806589 0.1860435
vn 0.6608886 -0.7167324 -0.2225328
vn 0.6608886 -0.7167324 -0.2225328
vn 0.3931043 -0.8935369 -0.2169349
vn 0.3931043 -0.8935369 -0.2169349
vn 0.06079453 -0.9806589 -0.1860435
vn 0.06079454 -0.9806589 -0.1860435
vn -0.3130845 0.9496695 0.0102884
vn -0.3130846 0.9496695 0.0102884
vn -0.3130845 0.9496695 0.0102884
vn -0.3130845 0.9496695 0.0102884
vn 0.3130845 -0.9496695 -0.0102884
vn 0.3130845 -0.9496695 -0.0102884
vn 0.3130845 -0.9496695 -0.0102884
vn 0.3130845 -0.9496695 -0.0102884
vn -0.0111427 0.9940385 -0.1084585
vn -0.0111427 0.9940385 -0.1084585
vn -0.0111427 0.9940385 -0.1084585
vn -0.0111427 0.9940385 -0.1084585
vn 0.01114274 -0.9940385 0.1084586
vn 0.01114274 -0.9940385 0.1084586
vn 0.01114274 -0.9940385 0.1084586
vn 0.01114274 -0.9940385 0.1084586
vn 0.05567925 0.9216419 -0.3840262
vn -0.1300696 0.9828197 -0.1309483
vn -0.1311878 0.9828859 -0.1293257
vn 0.05567925 0.9216419 -0.3840262
vn -0.3154078 0.9358837 0.1569701
vn -0.3154078 0.9358837 0.1569701
vn -0.05567925 -0.9216419 0.3840261
vn -0.05567925 -0.9216419 0.3840261
vn 0.1311879 -0.9828859 0.1293257
vn 0.1300696 -0.9828196 0.1309483
vn 0.3154079 -0.9358836 -0.15697
vn 0.315408 -0.9358836 -0.15697
vn -0.2388866 0.9710047 -0.009115116
vn 0.06848049 0.9947485 0.07606414
vn 0.07037808 0.9945771 0.07657167
vn -0.2388866 0.9710047 -0.009115118
vn 0.3920261 0.9060799 0.1591692
vn 0.3920261 0.9060799 0.1591692
vn 0.2388866 -0.9710047 0.009115116
vn 0.2388866 -0.9710047 0.009115118
vn -0.07037808 -0.9945771 -0.07657167
vn -0.06848049 -0.9947485 -0.07606415
vn -0.3920261 -0.9060798 -0.1591692
vn -0.3920261 -0.9060799 -0.1591692
vn -0.2074894 0.9275677 -0.3107512
vn -0.05283193 0.9978623 -0.03846584
vn -0.05283194 0.9978623 -0.03846586
vn -0.2074894 0.9275677 -0.3107512
vn 0.1191068 0.9587787 0.2579863
vn 0.1191068 0.9587787 0.2579863
vn 0.2074894 -0.9275677 0.3107511
vn 0.2074894 -0.9275677 0.3107511
vn 0.05283194 -0.9978623 0.03846585
vn 0.05283194 -0.9978623 0.03846584
vn -0.1191068 -0.9587787 -0.2579863
vn -0.1191068 -0.9587787 -0.2579863
vn 0.1695204 0.8883984 0.4266275
vn 0.1695204 0.8883984 0.4266275
vn 0.1695204 0.8883984 0.4266275
vn 0.1695204 0.8883984 0.4266275
vn -0.1695204 -0.8883985 -0.4266274
vn -0.1695204 -0.8883985 -0.4266275
vn -0.1695204 -0.8883985 -0.4266275
vn -0.1695204 -0.8883985 -0.4266275
vn 0.06724104 0.9759741 -0.2072514
vn 0.09152815 0.9894294 0.112481
vn 0.09152815 0.9894295 0.1124807
vn 0.06724104 0.9759741 -0.2072514
vn 0.1070768 0.8903504 0.4425051
vn 0.1070769 0.8903504 0.4425051
vn -0.06724095 -0.9759741 0.2072514
vn -0.06724095 -0.9759741 0.2072514
vn -0.0915281 -0.9894295 -0.1124807
vn -0.09152812 -0.9894295 -0.112481
vn -0.1070769 -0.8903504 -0.4425051
vn -0.1070769 -0.8903504 -0.4425051

vt 0.7108941 0.0888281
vt 0.7108941 0.1161228
vt 0.7475335 0.1011126
vt 0.7440315 0.09020001
vt 0.7440315 0.09020001
vt 0.7475335 0.1011126
vt 0.7108941 0.1161228
vt 0.7108941 0.0888281
vt 0.7108941 0.0888281
vt 0.7108941 0.1161228
vt 0.7475335 0.1011126
vt 0.7440315 0.09020001
vt 0.7440315 0.09020001
vt 0.7475335 0.1011126
vt 0.7108941 0.1161228
vt 0.7108941 0.0888281
vt 0.7477456 0.06389309
vt 0.7518708 0.1036441
vt 0.7827574 0.1065911
vt 0.7827574 0.0597203
vt 0.7477456 0.06389309
vt 0.7827574 0.0597203
vt 0.7827574 0.1065911
vt 0.7518708 0.1036441
vt 0.7477456 0.06389309
vt 0.7518708 0.1036441
vt 0.7827574 0.1065911
vt 0.7827574 0.0597203
vt 0.7477456 0.06389309
vt 0.7827574 0.0597203
vt 0.7827574 0.1065911
vt 0.7518708 0.1036441
vt 0.7108941 0.0888281
vt 0.7108941 0.1161228
vt 0.7475335 0.1011126
vt 0.7440315 0.09020001
vt 0.7440315 0.09020001
vt 0.7475335 0.1011126
vt 0.7108941 0.1161228
vt 0.7108941 0.0888281
vt 0.6505471 0.03139362
vt 0.6505471 0.05953113
vt 0.7078462 0.05953113
vt 0.7078462 0.03139362
vt 0.7078462 0.08554447
vt 0.6505471 0.08554447
vt 0.6505471 0.03139362
vt 0.7078462 0.03139362
vt 0.7078462 0.05953113
vt 0.6505471 0.05953113
vt 0.7078462 0.08554447
vt 0.6505471 0.08554447
vt 0.6605819 0.02832909
vt 0.6876141 0.02832909
vt 0.6876141 0.002782094
vt 0.6605819 0.002782094
vt 0.6605819 0.02832909
vt 0.6605819 0.002782094
vt 0.6876141 0.002782094
vt 0.6876141 0.02832909
vt 0.6605819 0.02832909
vt 0.6876141 0.02832909
vt 0.6876141 0.002782094
vt 0.6605819 0.002782094
vt 0.6605819 0.02832909
vt 0.6605819 0.002782094
vt 0.6876141 0.002782094
vt 0.6876141 0.02832909
vt 0.6505471 0.08846883
vt 0.6505471 0.1166063
vt 0.7078462 0.1166063
vt 0.7078462 0.08846883
vt 0.7078462 0.1426197
vt 0.6505471 0.1426197
vt 0.6505471 0.08846883
vt 0.7078462 0.08846883
vt 0.7078462 0.1166063
vt 0.6505471 0.1166063
vt 0.7078462 0.1426197
vt 0.6505471 0.1426197
vt 0.6505471 0.08846883
vt 0.6505471 0.1166063
vt 0.7078462 0.1166063
vt 0.7078462 0.08846883
vt 0.7078462 0.1426197
vt 0.6505471 0.1426197
vt 0.6505471 0.08846883
vt 0.7078462 0.08846883
vt 0.7078462 0.1166063
vt 0.6505471 0.1166063
vt 0.7078462 0.1426197
vt 0.6505471 0.1426197
vt 0.6505471 0.03139362
vt 0.6505471 0.05953113
vt 0.7078462 0.05953113
vt 0.7078462 0.03139362
vt 0.7078462 0.08554447
vt 0.6505471 0.08554447
vt 0.6505471 0.03139362
vt 0.7078462 0.03139362
vt 0.7078462 0.05953113
vt 0.6505471 0.05953113
vt 0.7078462 0.08554447
vt 0.6505471 0.08554447
vt 0.7069706 0.09035857
vt 0.7069706 0.1160976
vt 0.7415218 0.1019429
vt 0.7382194 0.09165229
vt 0.7382194 0.09165229
vt 0.7415218 0.1019429
vt 0.7069706 0.1160976
vt 0.7069706 0.09035857
vt 0.6505471 0.03139362
vt 0.6505471 0.05953113
vt 0.7078462 0.05953113
vt 0.7078462 0.03139362
vt 0.7078462 0.08554447
vt 0.6505471 0.08554447
vt 0.6505471 0.03139362
vt 0.7078462 0.03139362
vt 0.7078462 0.05953113
vt 0.6505471 0.05953113
vt 0.7078462 0.08554447
vt 0.6505471 0.08554447

g alpha_2735_2
usemtl alpha_2735_2
usemap alpha_2735_2
f 1/1/1 3/3/3 2/2/2
f 1/1/1 4/4/4 3/3/3
f 5/5/5 7/7/7 6/6/6
f 5/5/5 8/8/8 7/7/7
f 9/9/9 11/11/11 10/10/10
f 9/9/9 12/12/12 11/11/11
f 13/13/13 15/15/15 14/14/14
f 13/13/13 16/16/16 15/15/15
f 17/17/17 19/19/19 18/18/18
f 17/17/17 20/20/20 19/19/19
f 21/21/21 23/23/23 22/22/22
f 21/21/21 24/24/24 23/23/23
f 25/25/25 27/27/27 26/26/26
f 25/25/25 28/28/28 27/27/27
f 29/29/29 31/31/31 30/30/30
f 29/29/29 32/32/32 31/31/31
f 33/33/33 35/35/35 34/34/34
f 33/33/33 36/36/36 35/35/35
f 37/37/37 39/39/39 38/38/38
f 37/37/37 40/40/40 39/39/39
f 41/41/41 43/43/43 42/42/42
f 41/41/41 44/44/44 43/43/43
f 42/42/42 43/43/43 45/45/45
f 42/42/42 45/45/45 46/46/46
f 47/47/47 49/49/49 48/48/48
f 47/47/47 50/50/50 49/49/49
f 50/50/50 51/51/51 49/49/49
f 50/50/50 52/52/52 51/51/51
f 53/53/53 55/55/55 54/54/54
f 53/53/53 56/56/56 55/55/55
f 57/57/57 59/59/59 58/58/58
f 57/57/57 60/60/60 59/59/59
f 61/61/61 63/63/63 62/62/62
f 61/61/61 64/64/64 63/63/63
f 65/65/65 67/67/67 66/66/66
f 65/65/65 68/68/68 67/67/67
f 69/69/69 71/71/71 70/70/70
f 69/69/69 72/72/72 71/71/71
f 70/70/70 71/71/71 73/73/73
f 70/70/70 73/73/73 74/74/74
f 75/75/75 77/77/77 76/76/76
f 75/75/75 78/78/78 77/77/77
f 78/78/78 79/79/79 77/77/77
f 78/78/78 80/80/80 79/79/79
f 81/81/81 83/83/83 82/82/82
f 81/81/81 84/84/84 83/83/83
f 82/82/82 83/83/83 85/85/85
f 82/82/82 85/85/85 86/86/86
f 87/87/87 89/89/89 88/88/88
f 87/87/87 90/90/90 89/89/89
f 90/90/90 91/91/91 89/89/89
f 90/90/90 92/92/92 91/91/91
f 93/93/93 95/95/95 94/94/94
f 93/93/93 96/96/96 95/95/95
f 94/94/94 95/95/95 97/97/97
f 94/94/94 97/97/97 98/98/98
f 99/99/99 101/101/101 100/100/100
f 99/99/99 102/102/102 101/101/101
f 102/102/102 103/103/103 101/101/101
f 102/102/102 104/104/104 103/103/103
f 105/105/105 107/107/107 106/106/106
f 105/105/105 108/108/108 107/107/107
f 109/109/109 111/111/111 110/110/110
f 109/109/109 112/112/112 111/111/111
f 113/113/113 115/115/115 114/114/114
f 113/113/113 116/116/116 115/115/115
f 114/114/114 115/115/115 117/117/117
f 114/114/114 117/117/117 118/118/118
f 119/119/119 121/121/121 120/120/120
f 119/119/119 122/122/122 121/121/121
f 122/122/122 123/123/123 121/121/121
f 122/122/122 124/124/124 123/123/123
