#alpha_1139_212.obj

v 0.8744354 1.668638 0.3472366
v 0.3625259 1.683018 0.9650173
v -0.03933334 1.144934 0.08143616
v 0.2253876 1.190006 -0.1072235
v 0.2253876 1.190006 -0.1072235
v -0.03933334 1.144934 0.08143616
v 0.3625259 1.683018 0.9650173
v 0.8744354 1.668638 0.3472366
v -2.524086 0.5522575 0.825161
v -2.115013 0.3518696 1.485781
v -1.595772 0.0603447 0.5492229
v -1.826244 0.1767979 0.3466892
v -1.826244 0.1767979 0.3466892
v -1.595772 0.0603447 0.5492229
v -2.115013 0.3518696 1.485781
v -2.524086 0.5522575 0.825161
v -0.5140228 0.824892 -0.8993568
v -0.03933334 1.144934 0.08143616
v 0.746212 1.433348 -0.1545715
v 0.3058395 1.098082 -1.360136
v -0.5140228 0.824892 -0.8993568
v 0.3058395 1.098082 -1.360136
v 0.746212 1.433348 -0.1545715
v -0.03933334 1.144934 0.08143616
v -1.805336 0.4929123 0.7311916
v -0.6330681 0.9923763 0.3774128
v -0.09225464 0.9634895 1.232838
v -1.40229 0.3640842 1.790205
v -1.805336 0.4929123 0.7311916
v -1.40229 0.3640842 1.790205
v -0.09225464 0.9634895 1.232838
v -0.6330681 0.9923763 0.3774128
v -1.392456 0.3428383 -0.7116165
v -0.6837578 0.6808586 -0.5460854
v -1.149887 0.1965103 0.3370171
v -1.41864 0.09337044 0.1794319
v -1.41864 0.09337044 0.1794319
v -1.149887 0.1965103 0.3370171
v -0.6837578 0.6808586 -0.5460854
v -1.392456 0.3428383 -0.7116165
v -0.5385857 0.8933296 0.2231407
v -0.1314964 1.265528 0.2333488
v 0.006336212 1.087847 1.214962
v -0.400753 0.7156487 1.204754
v 0.5149002 1.131426 1.151442
v 0.3770676 1.309107 0.1698265
v -0.5385857 0.8933296 0.2231407
v -0.400753 0.7156487 1.204754
v 0.006336212 1.087847 1.214962
v -0.1314964 1.265528 0.2333488
v 0.5149002 1.131426 1.151442
v 0.3770676 1.309107 0.1698265
v 0.294857 1.614199 0.3140144
v 0.6172981 1.717785 0.5646248
v 0.3803635 1.636005 0.9032669
v 0.05792618 1.532419 0.6526566
v 0.294857 1.614199 0.3140144
v 0.05792618 1.532419 0.6526566
v 0.3803635 1.636005 0.9032669
v 0.6172981 1.717785 0.5646248
v -1.134499 0.5319939 -0.778614
v -0.7570229 0.5564671 -0.5930977
v -0.944088 0.5953407 -0.2175999
v -1.321564 0.5708675 -0.4031162
v -1.134499 0.5319939 -0.778614
v -1.321564 0.5708675 -0.4031162
v -0.944088 0.5953407 -0.2175999
v -0.7570229 0.5564671 -0.5930977
v 0.05967331 0.8979321 -0.9514732
v -0.1109695 0.9973679 -0.7375717
v -0.5232582 0.905447 -1.017954
v -0.3526154 0.8060112 -1.231855
v -0.656189 0.8233948 -0.795845
v -0.2439003 0.9153156 -0.5154648
v 0.05967331 0.8979321 -0.9514732
v -0.3526154 0.8060112 -1.231855
v -0.5232582 0.905447 -1.017954
v -0.1109695 0.9973679 -0.7375717
v -0.656189 0.8233948 -0.795845
v -0.2439003 0.9153156 -0.5154648
v -1.147331 0.6941586 1.043606
v -0.8758125 0.761713 1.124077
v -1.00898 0.7335358 1.612457
v -1.280499 0.6659813 1.531988
v -0.7696114 0.6196327 1.671305
v -0.6364441 0.64781 1.182922
v -1.147331 0.6941586 1.043606
v -1.280499 0.6659813 1.531988
v -1.00898 0.7335358 1.612457
v -0.8758125 0.761713 1.124077
v -0.7696114 0.6196327 1.671305
v -0.6364441 0.64781 1.182922
v -0.9538918 0.8193169 -0.25383
v -0.5683174 1.135508 0.4325237
v -1.909794 1.094265 1.205128
v -2.295368 0.7780762 0.518774
v -1.526005 0.8704948 1.85956
v -0.1845284 0.9117355 1.086958
v -0.9538918 0.8193169 -0.25383
v -2.295368 0.7780762 0.518774
v -1.909794 1.094265 1.205128
v -0.5683174 1.135508 0.4325237
v -1.526005 0.8704948 1.85956
v -0.1845284 0.9117355 1.086958
v -2.479698 0.6769714 -0.7860565
v -1.700523 0.615572 -0.967804
v -1.982964 0.1934528 0.02343369
v -2.23624 0.2472973 0.01194954
v -2.23624 0.2472973 0.01194954
v -1.982964 0.1934528 0.02343369
v -1.700523 0.615572 -0.967804
v -2.479698 0.6769714 -0.7860565
v -2.164074 0.3523922 -0.4742165
v -2.12701 0.4374886 -0.0614624
v -2.894547 0.5021706 -0.005882263
v -2.931606 0.4170742 -0.4186363
v -2.883888 0.325655 0.3467026
v -2.116356 0.260973 0.2911224
v -2.164074 0.3523922 -0.4742165
v -2.931606 0.4170742 -0.4186363
v -2.894547 0.5021706 -0.005882263
v -2.12701 0.4374886 -0.0614624
v -2.883888 0.325655 0.3467026
v -2.116356 0.260973 0.2911224

vn -0.3899779 0.8545429 -0.343036
vn -0.3899779 0.8545429 -0.343036
vn -0.3899779 0.8545429 -0.343036
vn -0.3899779 0.8545429 -0.343036
vn 0.3899779 -0.8545429 0.3430359
vn 0.389978 -0.8545429 0.3430359
vn 0.3899779 -0.8545429 0.3430359
vn 0.3899779 -0.8545429 0.3430359
vn -0.4638332 -0.8857284 0.01854681
vn -0.4638332 -0.8857284 0.01854681
vn -0.4638332 -0.8857284 0.01854682
vn -0.4638332 -0.8857284 0.01854682
vn 0.4638331 0.8857285 -0.0185468
vn 0.4638331 0.8857285 -0.0185468
vn 0.4638331 0.8857284 -0.0185468
vn 0.4638331 0.8857284 -0.0185468
vn 0.3735932 -0.9198824 0.1193503
vn 0.3735933 -0.9198824 0.1193503
vn 0.3735932 -0.9198824 0.1193503
vn 0.3735933 -0.9198824 0.1193503
vn -0.3735931 0.9198824 -0.1193503
vn -0.3735932 0.9198824 -0.1193503
vn -0.3735931 0.9198824 -0.1193503
vn -0.3735932 0.9198824 -0.1193503
vn -0.3205847 0.9179437 0.2336768
vn -0.3205847 0.9179437 0.2336768
vn -0.3205847 0.9179437 0.2336768
vn -0.3205847 0.9179437 0.2336768
vn 0.3205847 -0.9179437 -0.2336769
vn 0.3205847 -0.9179437 -0.2336769
vn 0.3205847 -0.9179437 -0.2336769
vn 0.3205847 -0.9179437 -0.2336769
vn -0.4619068 0.8575175 0.2265078
vn -0.4619069 0.8575175 0.2265078
vn -0.4619068 0.8575175 0.2265078
vn -0.4619069 0.8575175 0.2265078
vn 0.4619068 -0.8575175 -0.2265078
vn 0.4619068 -0.8575175 -0.2265078
vn 0.4619068 -0.8575175 -0.2265078
vn 0.4619068 -0.8575175 -0.2265078
vn -0.6608886 0.7167324 0.2225328
vn -0.3931043 0.8935369 0.2169349
vn -0.3931043 0.8935369 0.2169349
vn -0.6608886 0.7167324 0.2225328
vn -0.06079453 0.9806589 0.1860435
vn -0.06079453 0.9806589 0.1860435
vn 0.6608886 -0.7167324 -0.2225328
vn 0.6608886 -0.7167324 -0.2225328
vn 0.3931043 -0.8935369 -0.2169349
vn 0.3931043 -0.8935369 -0.2169349
vn 0.06079453 -0.9806589 -0.1860435
vn 0.06079454 -0.9806589 -0.1860435
vn -0.3130845 0.9496695 0.0102884
vn -0.3130846 0.9496695 0.0102884
vn -0.3130845 0.9496695 0.0102884
vn -0.3130845 0.9496695 0.0102884
vn 0.3130845 -0.9496695 -0.0102884
vn 0.3130845 -0.9496695 -0.0102884
vn 0.3130845 -0.9496695 -0.0102884
vn 0.3130845 -0.9496695 -0.0102884
vn -0.0111427 0.9940385 -0.1084585
vn -0.0111427 0.9940385 -0.1084585
vn -0.0111427 0.9940385 -0.1084585
vn -0.0111427 0.9940385 -0.1084585
vn 0.01114274 -0.9940385 0.1084586
vn 0.01114274 -0.9940385 0.1084586
vn 0.01114274 -0.9940385 0.1084586
vn 0.01114274 -0.9940385 0.1084586
vn 0.05567925 0.9216419 -0.3840262
vn -0.1300696 0.9828197 -0.1309483
vn -0.1311878 0.9828859 -0.1293257
vn 0.05567925 0.9216419 -0.3840262
vn -0.3154078 0.9358837 0.1569701
vn -0.3154078 0.9358837 0.1569701
vn -0.05567925 -0.9216419 0.3840261
vn -0.05567925 -0.9216419 0.3840261
vn 0.1311879 -0.9828859 0.1293257
vn 0.1300696 -0.9828196 0.1309483
vn 0.3154079 -0.9358836 -0.15697
vn 0.315408 -0.9358836 -0.15697
vn -0.2388866 0.9710047 -0.009115116
vn 0.06848049 0.9947485 0.07606414
vn 0.07037808 0.9945771 0.07657167
vn -0.2388866 0.9710047 -0.009115118
vn 0.3920261 0.9060799 0.1591692
vn 0.3920261 0.9060799 0.1591692
vn 0.2388866 -0.9710047 0.009115116
vn 0.2388866 -0.9710047 0.009115118
vn -0.07037808 -0.9945771 -0.07657167
vn -0.06848049 -0.9947485 -0.07606415
vn -0.3920261 -0.9060798 -0.1591692
vn -0.3920261 -0.9060799 -0.1591692
vn -0.2074894 0.9275677 -0.3107512
vn -0.05283193 0.9978623 -0.03846584
vn -0.05283194 0.9978623 -0.03846586
vn -0.2074894 0.9275677 -0.3107512
vn 0.1191068 0.9587787 0.2579863
vn 0.1191068 0.9587787 0.2579863
vn 0.2074894 -0.9275677 0.3107511
vn 0.2074894 -0.9275677 0.3107511
vn 0.05283194 -0.9978623 0.03846585
vn 0.05283194 -0.9978623 0.03846584
vn -0.1191068 -0.9587787 -0.2579863
vn -0.1191068 -0.9587787 -0.2579863
vn 0.1695204 0.8883984 0.4266275
vn 0.1695204 0.8883984 0.4266275
vn 0.1695204 0.8883984 0.4266275
vn 0.1695204 0.8883984 0.4266275
vn -0.1695204 -0.8883985 -0.4266274
vn -0.1695204 -0.8883985 -0.4266275
vn -0.1695204 -0.8883985 -0.4266275
vn -0.1695204 -0.8883985 -0.4266275
vn 0.06724104 0.9759741 -0.2072514
vn 0.09152815 0.9894294 0.112481
vn 0.09152815 0.9894295 0.1124807
vn 0.06724104 0.9759741 -0.2072514
vn 0.1070768 0.8903504 0.4425051
vn 0.1070769 0.8903504 0.4425051
vn -0.06724095 -0.9759741 0.2072514
vn -0.06724095 -0.9759741 0.2072514
vn -0.0915281 -0.9894295 -0.1124807
vn -0.09152812 -0.9894295 -0.112481
vn -0.1070769 -0.8903504 -0.4425051
vn -0.1070769 -0.8903504 -0.4425051

vt 0.7104492 0.08880615
vt 0.7104492 0.1160889
vt 0.7470703 0.1010742
vt 0.7436523 0.09014893
vt 0.7436523 0.09014893
vt 0.7470703 0.1010742
vt 0.7104492 0.1160889
vt 0.7104492 0.08880615
vt 0.7104492 0.08880615
vt 0.7104492 0.1160889
vt 0.7470703 0.1010742
vt 0.7436523 0.09014893
vt 0.7436523 0.09014893
vt 0.7470703 0.1010742
vt 0.7104492 0.1160889
vt 0.7104492 0.08880615
vt 0.7475586 0.06384277
vt 0.7514648 0.1036377
vt 0.7827148 0.1065674
vt 0.7827148 0.05969238
vt 0.7475586 0.06384277
vt 0.7827148 0.05969238
vt 0.7827148 0.1065674
vt 0.7514648 0.1036377
vt 0.7475586 0.06384277
vt 0.7514648 0.1036377
vt 0.7827148 0.1065674
vt 0.7827148 0.05969238
vt 0.7475586 0.06384277
vt 0.7827148 0.05969238
vt 0.7827148 0.1065674
vt 0.7514648 0.1036377
vt 0.7104492 0.08880615
vt 0.7104492 0.1160889
vt 0.7470703 0.1010742
vt 0.7436523 0.09014893
vt 0.7436523 0.09014893
vt 0.7470703 0.1010742
vt 0.7104492 0.1160889
vt 0.7104492 0.08880615
vt 0.6503906 0.03137207
vt 0.6503906 0.05950928
vt 0.7075195 0.05950928
vt 0.7075195 0.03137207
vt 0.7075195 0.08551025
vt 0.6503906 0.08551025
vt 0.6503906 0.03137207
vt 0.7075195 0.03137207
vt 0.7075195 0.05950928
vt 0.6503906 0.05950928
vt 0.7075195 0.08551025
vt 0.6503906 0.08551025
vt 0.6601563 0.02832031
vt 0.6875 0.02832031
vt 0.6875 0.002780914
vt 0.6601563 0.002780914
vt 0.6601563 0.02832031
vt 0.6601563 0.002780914
vt 0.6875 0.002780914
vt 0.6875 0.02832031
vt 0.6601563 0.02832031
vt 0.6875 0.02832031
vt 0.6875 0.002780914
vt 0.6601563 0.002780914
vt 0.6601563 0.02832031
vt 0.6601563 0.002780914
vt 0.6875 0.002780914
vt 0.6875 0.02832031
vt 0.6503906 0.08843994
vt 0.6503906 0.1165771
vt 0.7075195 0.1165771
vt 0.7075195 0.08843994
vt 0.7075195 0.1425781
vt 0.6503906 0.1425781
vt 0.6503906 0.08843994
vt 0.7075195 0.08843994
vt 0.7075195 0.1165771
vt 0.6503906 0.1165771
vt 0.7075195 0.1425781
vt 0.6503906 0.1425781
vt 0.6503906 0.08843994
vt 0.6503906 0.1165771
vt 0.7075195 0.1165771
vt 0.7075195 0.08843994
vt 0.7075195 0.1425781
vt 0.6503906 0.1425781
vt 0.6503906 0.08843994
vt 0.7075195 0.08843994
vt 0.7075195 0.1165771
vt 0.6503906 0.1165771
vt 0.7075195 0.1425781
vt 0.6503906 0.1425781
vt 0.6503906 0.03137207
vt 0.6503906 0.05950928
vt 0.7075195 0.05950928
vt 0.7075195 0.03137207
vt 0.7075195 0.08551025
vt 0.6503906 0.08551025
vt 0.6503906 0.03137207
vt 0.7075195 0.03137207
vt 0.7075195 0.05950928
vt 0.6503906 0.05950928
vt 0.7075195 0.08551025
vt 0.6503906 0.08551025
vt 0.706543 0.09033203
vt 0.706543 0.1160889
vt 0.7412109 0.1019287
vt 0.737793 0.09161377
vt 0.737793 0.09161377
vt 0.7412109 0.1019287
vt 0.706543 0.1160889
vt 0.706543 0.09033203
vt 0.6503906 0.03137207
vt 0.6503906 0.05950928
vt 0.7075195 0.05950928
vt 0.7075195 0.03137207
vt 0.7075195 0.08551025
vt 0.6503906 0.08551025
vt 0.6503906 0.03137207
vt 0.7075195 0.03137207
vt 0.7075195 0.05950928
vt 0.6503906 0.05950928
vt 0.7075195 0.08551025
vt 0.6503906 0.08551025

g alpha_1139_212
usemtl alpha_1139_212
usemap alpha_1139_212
f 1/1/1 3/3/3 2/2/2
f 1/1/1 4/4/4 3/3/3
f 5/5/5 7/7/7 6/6/6
f 5/5/5 8/8/8 7/7/7
f 9/9/9 11/11/11 10/10/10
f 9/9/9 12/12/12 11/11/11
f 13/13/13 15/15/15 14/14/14
f 13/13/13 16/16/16 15/15/15
f 17/17/17 19/19/19 18/18/18
f 17/17/17 20/20/20 19/19/19
f 21/21/21 23/23/23 22/22/22
f 21/21/21 24/24/24 23/23/23
f 25/25/25 27/27/27 26/26/26
f 25/25/25 28/28/28 27/27/27
f 29/29/29 31/31/31 30/30/30
f 29/29/29 32/32/32 31/31/31
f 33/33/33 35/35/35 34/34/34
f 33/33/33 36/36/36 35/35/35
f 37/37/37 39/39/39 38/38/38
f 37/37/37 40/40/40 39/39/39
f 41/41/41 43/43/43 42/42/42
f 41/41/41 44/44/44 43/43/43
f 42/42/42 43/43/43 45/45/45
f 42/42/42 45/45/45 46/46/46
f 47/47/47 49/49/49 48/48/48
f 47/47/47 50/50/50 49/49/49
f 50/50/50 51/51/51 49/49/49
f 50/50/50 52/52/52 51/51/51
f 53/53/53 55/55/55 54/54/54
f 53/53/53 56/56/56 55/55/55
f 57/57/57 59/59/59 58/58/58
f 57/57/57 60/60/60 59/59/59
f 61/61/61 63/63/63 62/62/62
f 61/61/61 64/64/64 63/63/63
f 65/65/65 67/67/67 66/66/66
f 65/65/65 68/68/68 67/67/67
f 69/69/69 71/71/71 70/70/70
f 69/69/69 72/72/72 71/71/71
f 70/70/70 71/71/71 73/73/73
f 70/70/70 73/73/73 74/74/74
f 75/75/75 77/77/77 76/76/76
f 75/75/75 78/78/78 77/77/77
f 78/78/78 79/79/79 77/77/77
f 78/78/78 80/80/80 79/79/79
f 81/81/81 83/83/83 82/82/82
f 81/81/81 84/84/84 83/83/83
f 82/82/82 83/83/83 85/85/85
f 82/82/82 85/85/85 86/86/86
f 87/87/87 89/89/89 88/88/88
f 87/87/87 90/90/90 89/89/89
f 90/90/90 91/91/91 89/89/89
f 90/90/90 92/92/92 91/91/91
f 93/93/93 95/95/95 94/94/94
f 93/93/93 96/96/96 95/95/95
f 94/94/94 95/95/95 97/97/97
f 94/94/94 97/97/97 98/98/98
f 99/99/99 101/101/101 100/100/100
f 99/99/99 102/102/102 101/101/101
f 102/102/102 103/103/103 101/101/101
f 102/102/102 104/104/104 103/103/103
f 105/105/105 107/107/107 106/106/106
f 105/105/105 108/108/108 107/107/107
f 109/109/109 111/111/111 110/110/110
f 109/109/109 112/112/112 111/111/111
f 113/113/113 115/115/115 114/114/114
f 113/113/113 116/116/116 115/115/115
f 114/114/114 115/115/115 117/117/117
f 114/114/114 117/117/117 118/118/118
f 119/119/119 121/121/121 120/120/120
f 119/119/119 122/122/122 121/121/121
f 122/122/122 123/123/123 121/121/121
f 122/122/122 124/124/124 123/123/123
