#Alpha_1268_332.obj

v -0.3356436 0.2777315 1.036391
v -1.129509 0.1608478 1.03081
v -0.6717889 0.07648957 0.02327959
v -0.3645829 0.1362255 0.1220468
v -0.3645829 0.1362255 0.1220468
v -0.6717889 0.07648957 0.02327959
v -1.129509 0.1608478 1.03081
v -0.3356436 0.2777315 1.036391
v -0.490563 0.3428391 -1.164053
v 0.218133 0.6808587 -0.9985225
v -0.247996 0.1965102 -0.1154185
v -0.5167492 0.09337044 -0.2730051
v -0.5167492 0.09337044 -0.2730051
v -0.247996 0.1965102 -0.1154185
v 0.218133 0.6808587 -0.9985225
v -0.490563 0.3428391 -1.164053
v -0.2326071 0.5319947 -1.231052
v 0.1448683 0.5564677 -1.045534
v -0.04219666 0.595341 -0.6700349
v -0.4196721 0.570868 -0.855553
v -0.2326071 0.5319947 -1.231052
v -0.4196721 0.570868 -0.855553
v -0.04219666 0.595341 -0.6700349
v 0.1448683 0.5564677 -1.045534
v -1.577806 0.6769722 -1.238495
v -0.7986339 0.6155729 -1.420242
v -1.081072 0.1934528 -0.4290026
v -1.334348 0.2472973 -0.440487
v -1.334348 0.2472973 -0.440487
v -1.081072 0.1934528 -0.4290026
v -0.7986339 0.6155729 -1.420242
v -1.577806 0.6769722 -1.238495
v -1.262181 0.352392 -0.9266527
v -1.225121 0.4374886 -0.5138981
v -1.992655 0.5021714 -0.4583163
v -2.029715 0.4170748 -0.8710727
v -1.981995 0.3256547 -0.105734
v -1.214464 0.260972 -0.1613128
v -1.262181 0.352392 -0.9266527
v -2.029715 0.4170748 -0.8710727
v -1.992655 0.5021714 -0.4583163
v -1.225121 0.4374886 -0.5138981
v -1.981995 0.3256547 -0.105734
v -1.214464 0.260972 -0.1613128
v -0.133523 0.1441713 -0.3703896
v 0.6984781 0.3083283 -0.01781884
v -0.01006691 0.8536618 1.400316
v -0.8420674 0.689505 1.047747
v 0.6124314 0.4805941 1.854794
v 1.320976 -0.06473956 0.4366589
v -0.133523 0.1441713 -0.3703896
v -0.8420674 0.689505 1.047747
v -0.01006691 0.8536618 1.400316
v 0.6984781 0.3083283 -0.01781884
v 0.6124314 0.4805941 1.854794
v 1.320976 -0.06473956 0.4366589
v -1.230245 0.3132074 -0.3083653
v -1.159848 0.4303713 -0.565421
v -0.6906812 0.5254434 -0.398423
v -0.7610817 0.4082797 -0.141366
v -0.5904954 0.4599502 -0.6421621
v -1.059662 0.3648779 -0.8091602
v -1.230245 0.3132074 -0.3083653
v -0.7610817 0.4082797 -0.141366
v -0.6906812 0.5254434 -0.398423
v -1.159848 0.4303713 -0.565421
v -0.5904954 0.4599502 -0.6421621
v -1.059662 0.3648779 -0.8091602
v 1.783759 0.1349387 -1.029045
v 0.9552588 0.06476724 -0.2554983
v 1.218436 0.6000682 0.3770772
v 2.246957 0.7687746 -0.4435319
v 1.783759 0.1349387 -1.029045
v 2.246957 0.7687746 -0.4435319
v 1.218436 0.6000682 0.3770772
v 0.9552588 0.06476724 -0.2554983
v -0.6399857 0.2932726 -0.004191774
v -0.3175431 0.3968586 0.2464198
v -0.5544775 0.3150785 0.5850624
v -0.8769162 0.2114925 0.3344505
v -0.6399857 0.2932726 -0.004191774
v -0.8769162 0.2114925 0.3344505
v -0.5544775 0.3150785 0.5850624
v -0.3175431 0.3968586 0.2464198
v -0.5323381 0.8070896 -0.4867392
v 0.06690435 0.9200945 -1.008322
v 0.2429758 0.06380057 -0.3245833
v -0.03876663 0.09568715 -0.1593509
v -0.03876663 0.09568715 -0.1593509
v 0.2429758 0.06380057 -0.3245833
v 0.06690435 0.9200945 -1.008322
v -0.5323381 0.8070896 -0.4867392
v 2.004287 0.08723702 0.2337123
v 0.351702 0.08723702 1.732267
v -0.9943686 0.08723702 0.2478403
v 0.7761177 0.08723702 -1.357628
v 1.236478 0.1841538 -0.03105475
v 0.841417 0.3588783 -0.04763584
v 0.9913472 0.6289654 -0.773762
v 1.386404 0.454241 -0.7571806
v 0.6127137 0.5447261 -0.8832731
v 0.4627868 0.2746389 -0.157149
v 1.236478 0.1841538 -0.03105475
v 1.386404 0.454241 -0.7571806
v 0.9913472 0.6289654 -0.773762
v 0.841417 0.3588783 -0.04763584
v 0.6127137 0.5447261 -0.8832731
v 0.4627868 0.2746389 -0.157149
v 1.289034 0.5592995 -0.3418575
v 1.706875 0.5662984 -0.28836
v 1.654769 0.510341 0.125954
v 1.236925 0.5033422 0.07245962
v 1.289034 0.5592995 -0.3418575
v 1.236925 0.5033422 0.07245962
v 1.654769 0.510341 0.125954
v 1.706875 0.5662984 -0.28836
v -1.583234 0.323963 -0.4377699
v -1.101542 0.5024385 -0.009549024
v -1.859046 0.4631971 0.8741767
v -2.340739 0.2847219 0.4459558
v -1.417387 0.2215902 1.242462
v -0.6598832 0.2608313 0.3587354
v -1.583234 0.323963 -0.4377699
v -2.340739 0.2847219 0.4459558
v -1.859046 0.4631971 0.8741767
v -1.101542 0.5024385 -0.009549024
v -1.417387 0.2215902 1.242462
v -0.6598832 0.2608313 0.3587354

vn -0.08870873 0.978743 -0.1849135
vn -0.08870874 0.978743 -0.1849135
vn -0.08870874 0.978743 -0.1849135
vn -0.08870873 0.978743 -0.1849135
vn 0.08870873 -0.978743 0.1849135
vn 0.08870874 -0.978743 0.1849135
vn 0.08870874 -0.978743 0.1849135
vn 0.08870873 -0.978743 0.1849135
vn -0.510035 0.8575175 0.06729038
vn -0.510035 0.8575175 0.06729035
vn -0.510035 0.8575175 0.06729037
vn -0.510035 0.8575175 0.06729035
vn 0.5100349 -0.8575176 -0.0672904
vn 0.5100349 -0.8575175 -0.06729041
vn 0.5100349 -0.8575176 -0.06729043
vn 0.5100349 -0.8575176 -0.0672904
vn 0.02404507 0.9940385 -0.106345
vn 0.02404507 0.9940385 -0.106345
vn 0.02404507 0.9940385 -0.106345
vn 0.02404507 0.9940385 -0.106345
vn -0.02404504 -0.9940385 0.106345
vn -0.02404504 -0.9940385 0.106345
vn -0.02404504 -0.9940385 0.106345
vn -0.02404504 -0.9940385 0.106345
vn 0.02453794 0.8883984 0.458417
vn 0.02453797 0.8883984 0.4584169
vn 0.02453797 0.8883984 0.4584169
vn 0.02453798 0.8883984 0.4584169
vn -0.024538 -0.8883985 -0.4584168
vn -0.024538 -0.8883985 -0.4584169
vn -0.02453798 -0.8883985 -0.4584169
vn -0.02453798 -0.8883985 -0.4584169
vn 0.1298533 0.9759741 -0.1749646
vn 0.05085555 0.9894294 0.1358055
vn 0.05085561 0.9894295 0.1358052
vn 0.1298533 0.9759741 -0.1749647
vn -0.03970764 0.8903502 0.4535414
vn -0.03970764 0.8903502 0.4535414
vn -0.1298532 -0.9759741 0.1749647
vn -0.1298532 -0.9759741 0.1749647
vn -0.05085558 -0.9894295 -0.1358051
vn -0.05085551 -0.9894294 -0.1358054
vn 0.03970765 -0.8903503 -0.4535413
vn 0.03970762 -0.8903503 -0.4535412
vn 0.09317897 0.9285687 -0.3592741
vn 0.3215528 0.9373682 -0.1339574
vn 0.3215528 0.9373683 -0.1339575
vn 0.09317897 0.9285687 -0.3592741
vn 0.5296053 0.8392681 0.1230738
vn 0.5296053 0.8392681 0.1230738
vn -0.0931792 -0.9285687 0.359274
vn -0.09317919 -0.9285687 0.359274
vn -0.3215528 -0.9373682 0.1339575
vn -0.3215529 -0.9373682 0.1339574
vn -0.5296053 -0.8392681 -0.1230738
vn -0.5296053 -0.8392681 -0.1230738
vn -0.386912 0.896737 0.2148532
vn -0.2078689 0.9774343 -0.03758587
vn -0.2066838 0.9776242 -0.03915052
vn -0.386912 0.896737 0.2148532
vn 0.009059124 0.9521633 -0.3054554
vn 0.009059131 0.9521632 -0.3054555
vn 0.3869116 -0.8967372 -0.2148533
vn 0.3869116 -0.8967371 -0.2148533
vn 0.2066836 -0.9776242 0.03915045
vn 0.2078687 -0.9774343 0.03758583
vn -0.009059124 -0.9521632 0.3054554
vn -0.009059116 -0.9521632 0.3054554
vn 0.3115601 -0.7585047 0.5723643
vn 0.31156 -0.7585048 0.5723643
vn 0.31156 -0.7585048 0.5723642
vn 0.31156 -0.7585048 0.5723642
vn -0.3115602 0.7585047 -0.5723643
vn -0.3115602 0.7585047 -0.5723642
vn -0.3115602 0.7585046 -0.5723643
vn -0.3115602 0.7585047 -0.5723642
vn -0.3000028 0.9496697 -0.09014373
vn -0.3000028 0.9496697 -0.09014373
vn -0.3000028 0.9496697 -0.09014373
vn -0.3000028 0.9496697 -0.09014373
vn 0.3000029 -0.9496695 0.09014379
vn 0.3000029 -0.9496696 0.09014378
vn 0.3000029 -0.9496695 0.09014379
vn 0.3000029 -0.9496696 0.09014379
vn 0.2195446 0.6117937 0.7599399
vn 0.2195446 0.6117936 0.75994
vn 0.2195446 0.6117936 0.75994
vn 0.2195445 0.6117936 0.7599399
vn -0.2195451 -0.6117935 -0.75994
vn -0.2195451 -0.6117934 -0.75994
vn -0.219545 -0.6117934 -0.75994
vn -0.2195451 -0.6117934 -0.75994
vn 0 1 0
vn 0 1 0
vn 0 1 0
vn 0 1 0
vn 0.2157386 0.8482263 0.4837034
vn -0.06585773 0.9325781 0.3549096
vn -0.06585762 0.9325781 0.3549097
vn 0.2157387 0.8482263 0.4837034
vn -0.3603278 0.9160612 0.1760559
vn -0.3603278 0.9160612 0.176056
vn -0.2157388 -0.8482262 -0.4837034
vn -0.2157388 -0.8482262 -0.4837034
vn 0.06585753 -0.932578 -0.3549097
vn 0.06585765 -0.9325781 -0.3549096
vn 0.3603278 -0.9160612 -0.1760559
vn 0.3603278 -0.9160612 -0.1760559
vn -0.07283828 0.9910014 0.1122984
vn -0.07283828 0.9910014 0.1122984
vn -0.07283828 0.9910014 0.1122984
vn -0.07283828 0.9910014 0.1122984
vn 0.07283823 -0.9910014 -0.1122983
vn 0.07283822 -0.9910014 -0.1122983
vn 0.07283823 -0.9910014 -0.1122983
vn 0.07283823 -0.9910014 -0.1122983
vn -0.1647337 0.9630621 -0.2130121
vn -0.003012024 0.9981526 0.06068204
vn -0.00200103 0.998051 0.06237189
vn -0.1647336 0.9630621 -0.2130121
vn 0.1717067 0.9213274 0.348816
vn 0.1717068 0.9213274 0.348816
vn 0.1647337 -0.9630621 0.2130121
vn 0.1647337 -0.9630621 0.2130121
vn 0.002001122 -0.998051 -0.06237186
vn 0.003012111 -0.9981526 -0.06068201
vn -0.1717067 -0.9213274 -0.348816
vn -0.1717067 -0.9213274 -0.348816

vt 0.7104492 0.08880615
vt 0.7104492 0.1160889
vt 0.7470703 0.1010742
vt 0.7436523 0.09014893
vt 0.7436523 0.09014893
vt 0.7470703 0.1010742
vt 0.7104492 0.1160889
vt 0.7104492 0.08880615
vt 0.7104492 0.08880615
vt 0.7104492 0.1160889
vt 0.7470703 0.1010742
vt 0.7436523 0.09014893
vt 0.7436523 0.09014893
vt 0.7470703 0.1010742
vt 0.7104492 0.1160889
vt 0.7104492 0.08880615
vt 0.6601563 0.02832031
vt 0.6875 0.02832031
vt 0.6875 0.002780914
vt 0.6601563 0.002780914
vt 0.6601563 0.02832031
vt 0.6601563 0.002780914
vt 0.6875 0.002780914
vt 0.6875 0.02832031
vt 0.706543 0.09033203
vt 0.706543 0.1160889
vt 0.7412109 0.1019287
vt 0.737793 0.09161377
vt 0.737793 0.09161377
vt 0.7412109 0.1019287
vt 0.706543 0.1160889
vt 0.706543 0.09033203
vt 0.6503906 0.03137207
vt 0.6503906 0.05950928
vt 0.7075195 0.05950928
vt 0.7075195 0.03137207
vt 0.7075195 0.08551025
vt 0.6503906 0.08551025
vt 0.6503906 0.03137207
vt 0.7075195 0.03137207
vt 0.7075195 0.05950928
vt 0.6503906 0.05950928
vt 0.7075195 0.08551025
vt 0.6503906 0.08551025
vt 0.6503906 0.03137207
vt 0.6503906 0.05950928
vt 0.7075195 0.05950928
vt 0.7075195 0.03137207
vt 0.7075195 0.08551025
vt 0.6503906 0.08551025
vt 0.6503906 0.03137207
vt 0.7075195 0.03137207
vt 0.7075195 0.05950928
vt 0.6503906 0.05950928
vt 0.7075195 0.08551025
vt 0.6503906 0.08551025
vt 0.6503906 0.08843994
vt 0.6503906 0.1165771
vt 0.7075195 0.1165771
vt 0.7075195 0.08843994
vt 0.7075195 0.1425781
vt 0.6503906 0.1425781
vt 0.6503906 0.08843994
vt 0.7075195 0.08843994
vt 0.7075195 0.1165771
vt 0.6503906 0.1165771
vt 0.7075195 0.1425781
vt 0.6503906 0.1425781
vt 0.7475586 0.06384277
vt 0.7514648 0.1036377
vt 0.7827148 0.1065674
vt 0.7827148 0.05969238
vt 0.7475586 0.06384277
vt 0.7827148 0.05969238
vt 0.7827148 0.1065674
vt 0.7514648 0.1036377
vt 0.6601563 0.02832031
vt 0.6875 0.02832031
vt 0.6875 0.002780914
vt 0.6601563 0.002780914
vt 0.6601563 0.02832031
vt 0.6601563 0.002780914
vt 0.6875 0.002780914
vt 0.6875 0.02832031
vt 0.7104492 0.08880615
vt 0.7104492 0.1160889
vt 0.7470703 0.1010742
vt 0.7436523 0.09014893
vt 0.7436523 0.09014893
vt 0.7470703 0.1010742
vt 0.7104492 0.1160889
vt 0.7104492 0.08880615
vt 0.7104492 0.0682373
vt 0.7104492 0.144165
vt 0.7827148 0.144165
vt 0.7827148 0.05969238
vt 0.6503906 0.03137207
vt 0.6503906 0.05950928
vt 0.7075195 0.05950928
vt 0.7075195 0.03137207
vt 0.7075195 0.08551025
vt 0.6503906 0.08551025
vt 0.6503906 0.03137207
vt 0.7075195 0.03137207
vt 0.7075195 0.05950928
vt 0.6503906 0.05950928
vt 0.7075195 0.08551025
vt 0.6503906 0.08551025
vt 0.6601563 0.02832031
vt 0.6875 0.02832031
vt 0.6875 0.002780914
vt 0.6601563 0.002780914
vt 0.6601563 0.02832031
vt 0.6601563 0.002780914
vt 0.6875 0.002780914
vt 0.6875 0.02832031
vt 0.6503906 0.08843994
vt 0.6503906 0.1165771
vt 0.7075195 0.1165771
vt 0.7075195 0.08843994
vt 0.7075195 0.1425781
vt 0.6503906 0.1425781
vt 0.6503906 0.08843994
vt 0.7075195 0.08843994
vt 0.7075195 0.1165771
vt 0.6503906 0.1165771
vt 0.7075195 0.1425781
vt 0.6503906 0.1425781

g Alpha_1268_332
usemtl Alpha_1268_332
usemap Alpha_1268_332
f 1/1/1 3/3/3 2/2/2
f 1/1/1 4/4/4 3/3/3
f 5/5/5 7/7/7 6/6/6
f 5/5/5 8/8/8 7/7/7
f 9/9/9 11/11/11 10/10/10
f 9/9/9 12/12/12 11/11/11
f 13/13/13 15/15/15 14/14/14
f 13/13/13 16/16/16 15/15/15
f 17/17/17 19/19/19 18/18/18
f 17/17/17 20/20/20 19/19/19
f 21/21/21 23/23/23 22/22/22
f 21/21/21 24/24/24 23/23/23
f 25/25/25 27/27/27 26/26/26
f 25/25/25 28/28/28 27/27/27
f 29/29/29 31/31/31 30/30/30
f 29/29/29 32/32/32 31/31/31
f 33/33/33 35/35/35 34/34/34
f 33/33/33 36/36/36 35/35/35
f 34/34/34 35/35/35 37/37/37
f 34/34/34 37/37/37 38/38/38
f 39/39/39 41/41/41 40/40/40
f 39/39/39 42/42/42 41/41/41
f 42/42/42 43/43/43 41/41/41
f 42/42/42 44/44/44 43/43/43
f 45/45/45 47/47/47 46/46/46
f 45/45/45 48/48/48 47/47/47
f 46/46/46 47/47/47 49/49/49
f 46/46/46 49/49/49 50/50/50
f 51/51/51 53/53/53 52/52/52
f 51/51/51 54/54/54 53/53/53
f 54/54/54 55/55/55 53/53/53
f 54/54/54 56/56/56 55/55/55
f 57/57/57 59/59/59 58/58/58
f 57/57/57 60/60/60 59/59/59
f 58/58/58 59/59/59 61/61/61
f 58/58/58 61/61/61 62/62/62
f 63/63/63 65/65/65 64/64/64
f 63/63/63 66/66/66 65/65/65
f 66/66/66 67/67/67 65/65/65
f 66/66/66 68/68/68 67/67/67
f 69/69/69 71/71/71 70/70/70
f 69/69/69 72/72/72 71/71/71
f 73/73/73 75/75/75 74/74/74
f 73/73/73 76/76/76 75/75/75
f 77/77/77 79/79/79 78/78/78
f 77/77/77 80/80/80 79/79/79
f 81/81/81 83/83/83 82/82/82
f 81/81/81 84/84/84 83/83/83
f 85/85/85 87/87/87 86/86/86
f 85/85/85 88/88/88 87/87/87
f 89/89/89 91/91/91 90/90/90
f 89/89/89 92/92/92 91/91/91
f 93/93/93 95/95/95 94/94/94
f 93/93/93 96/96/96 95/95/95
f 97/97/97 99/99/99 98/98/98
f 97/97/97 100/100/100 99/99/99
f 98/98/98 99/99/99 101/101/101
f 98/98/98 101/101/101 102/102/102
f 103/103/103 105/105/105 104/104/104
f 103/103/103 106/106/106 105/105/105
f 106/106/106 107/107/107 105/105/105
f 106/106/106 108/108/108 107/107/107
f 109/109/109 111/111/111 110/110/110
f 109/109/109 112/112/112 111/111/111
f 113/113/113 115/115/115 114/114/114
f 113/113/113 116/116/116 115/115/115
f 117/117/117 119/119/119 118/118/118
f 117/117/117 120/120/120 119/119/119
f 118/118/118 119/119/119 121/121/121
f 118/118/118 121/121/121 122/122/122
f 123/123/123 125/125/125 124/124/124
f 123/123/123 126/126/126 125/125/125
f 126/126/126 127/127/127 125/125/125
f 126/126/126 128/128/128 127/127/127
