#alpha_1500_213.obj

v 1.148567 1.450531 -0.4521886
v 0.1122263 1.016875 -0.6184911
v 0.181844 0.6037095 -1.380336
v 1.427095 1.054437 -1.303458
v 1.148567 1.450531 -0.4521886
v 1.427095 1.054437 -1.303458
v 0.181844 0.6037095 -1.380336
v 0.1122263 1.016875 -0.6184911
v -0.8844087 0.4740292 0.108959
v -0.7675371 0.1615131 -0.9765779
v -1.545094 0.334074 -1.325274
v -1.807945 0.7336949 -0.08796714
v -0.8844087 0.4740292 0.108959
v -1.807945 0.7336949 -0.08796714
v -1.545094 0.334074 -1.325274
v -0.7675371 0.1615131 -0.9765779
v -1.100744 0.2455475 -1.547603
v -0.5300419 0.5301423 -2.034649
v -0.1397261 0.2242582 -1.04176
v -0.4293309 0.1276793 -0.9213443
v -0.4293309 0.1276793 -0.9213443
v -0.1397261 0.2242582 -1.04176
v -0.5300419 0.5301423 -2.034649
v -1.100744 0.2455475 -1.547603
v 1.277976 0.4362061 -1.120391
v 0.8754579 0.2787085 -1.783166
v 0.04902129 0.4464521 -1.321113
v 0.1275249 0.5558723 -0.8997326
v 1.277976 0.4362061 -1.120391
v 0.1275249 0.5558723 -0.8997326
v 0.04902129 0.4464521 -1.321113
v 0.8754579 0.2787085 -1.783166
v -0.2387409 1.633144 0.955986
v -0.8932198 1.301506 0.6597228
v -0.4539315 1.192481 -0.1886677
v -0.04054692 1.348807 -0.1693658
v -0.2387409 1.633144 0.955986
v -0.04054692 1.348807 -0.1693658
v -0.4539315 1.192481 -0.1886677
v -0.8932198 1.301506 0.6597228
v 0.3513264 1.175329 -0.8899463
v 0.03495611 1.275112 -0.4669603
v -0.7442111 1.324383 -1.06136
v -0.4278425 1.2246 -1.484344
v -1.022834 1.092328 -0.7153653
v -0.243665 1.043057 -0.1209658
v 0.3513264 1.175329 -0.8899463
v -0.4278425 1.2246 -1.484344
v -0.7442111 1.324383 -1.06136
v 0.03495611 1.275112 -0.4669603
v -1.022834 1.092328 -0.7153653
v -0.243665 1.043057 -0.1209658
v 0.912493 1.064802 -0.9916347
v 0.6135081 1.079029 -1.045395
v 0.7114009 1.071664 -1.591769
v 1.010384 1.057438 -1.538011
v 0.4842167 0.906427 -1.630245
v 0.386326 0.9137915 -1.08387
v 0.912493 1.064802 -0.9916347
v 1.010384 1.057438 -1.538011
v 0.7114009 1.071664 -1.591769
v 0.6135081 1.079029 -1.045395
v 0.4842167 0.906427 -1.630245
v 0.386326 0.9137915 -1.08387
v 0.1143175 1.210072 -0.1938487
v 0.07653887 1.264501 -0.4773481
v 0.5435147 1.459767 -0.5064632
v 0.5812952 1.405338 -0.2229641
v 0.575668 1.346745 -0.7512639
v 0.1086904 1.151479 -0.7221466
v 0.1143175 1.210072 -0.1938487
v 0.5812952 1.405338 -0.2229641
v 0.5435147 1.459767 -0.5064632
v 0.07653887 1.264501 -0.4773481
v 0.575668 1.346745 -0.7512639
v 0.1086904 1.151479 -0.7221466
v 0.5450308 0.6063566 -0.8715493
v 0.08645582 0.7054486 -0.9706911
v 0.1744647 0.381638 -1.73535
v 0.6330416 0.2825461 -1.636209
v -0.2361453 0.2063918 -1.708659
v -0.3241559 0.5302023 -0.9439977
v 0.5450308 0.6063566 -0.8715493
v 0.6330416 0.2825461 -1.636209
v 0.1744647 0.381638 -1.73535
v 0.08645582 0.7054486 -0.9706911
v -0.2361453 0.2063918 -1.708659
v -0.3241559 0.5302023 -0.9439977
v -0.8141934 0.3058926 -0.6071208
v -1.14724 0.4735042 -0.5010154
v -1.270615 0.6543303 -1.173917
v -0.9375683 0.4867187 -1.280022
v -1.622045 0.5830878 -1.128627
v -1.49867 0.4022616 -0.4557261
v -0.8141934 0.3058926 -0.6071208
v -0.9375683 0.4867187 -1.280022
v -1.270615 0.6543303 -1.173917
v -1.14724 0.4735042 -0.5010154
v -1.622045 0.5830878 -1.128627
v -1.49867 0.4022616 -0.4557261
v -0.7903128 0.04308054 1.601388
v -1.527452 0.04308054 -0.5041597
v 0.3638469 0.04308054 -1.166293
v 1.153577 0.04308054 1.089474
v 1.243616 1.274435 -0.9272633
v 1.09114 1.211744 -0.5395461
v 0.7050631 1.312028 -0.6751619
v 0.8575394 1.374719 -1.062879
v 1.243616 1.274435 -0.9272633
v 0.8575394 1.374719 -1.062879
v 0.7050631 1.312028 -0.6751619
v 1.09114 1.211744 -0.5395461
v -0.8018768 0.4465117 -0.07744675
v -1.183033 0.5734698 0.04945428
v -1.317931 0.5673845 -0.3496316
v -0.9367731 0.4404264 -0.4765328
v -0.8018768 0.4465117 -0.07744675
v -0.9367731 0.4404264 -0.4765328
v -1.317931 0.5673845 -0.3496316
v -1.183033 0.5734698 0.04945428

vn 0.2160026 0.8350554 0.5059895
vn 0.2160026 0.8350554 0.5059895
vn 0.2160027 0.8350554 0.5059895
vn 0.2160026 0.8350554 0.5059895
vn -0.2160026 -0.8350554 -0.5059895
vn -0.2160026 -0.8350554 -0.5059895
vn -0.2160026 -0.8350554 -0.5059896
vn -0.2160026 -0.8350554 -0.5059895
vn 0.3335113 -0.9223127 -0.1952165
vn 0.3335113 -0.9223127 -0.1952165
vn 0.3335112 -0.9223127 -0.1952165
vn 0.3335112 -0.9223127 -0.1952165
vn -0.3335111 0.9223128 0.1952164
vn -0.3335111 0.9223127 0.1952165
vn -0.3335111 0.9223128 0.1952164
vn -0.3335111 0.9223128 0.1952164
vn 0.2019385 0.9230618 -0.3273802
vn 0.2019385 0.9230618 -0.3273801
vn 0.2019385 0.9230618 -0.3273801
vn 0.2019385 0.9230618 -0.3273801
vn -0.2019386 -0.9230618 0.3273801
vn -0.2019386 -0.9230618 0.3273801
vn -0.2019386 -0.9230618 0.3273801
vn -0.2019386 -0.9230618 0.3273802
vn 0.08001755 -0.9643387 -0.2522858
vn 0.08001755 -0.9643387 -0.2522858
vn 0.08001755 -0.9643387 -0.2522858
vn 0.08001755 -0.9643387 -0.2522858
vn -0.08001752 0.9643387 0.2522857
vn -0.08001751 0.9643387 0.2522857
vn -0.08001752 0.9643387 0.2522857
vn -0.08001752 0.9643387 0.2522857
vn 0.2923623 0.9008217 0.3210055
vn 0.2923623 0.9008217 0.3210055
vn 0.2923623 0.9008217 0.3210055
vn 0.2923623 0.9008217 0.3210055
vn -0.2923623 -0.9008217 -0.3210056
vn -0.2923623 -0.9008217 -0.3210055
vn -0.2923623 -0.9008217 -0.3210056
vn -0.2923623 -0.9008217 -0.3210055
vn -0.1644979 0.9813372 0.09958838
vn 0.05783598 0.9895996 -0.13171
vn 0.05783595 0.9895996 -0.13171
vn -0.1644979 0.9813372 0.09958838
vn 0.2896649 0.8849315 -0.3646787
vn 0.2896649 0.8849315 -0.3646787
vn 0.1644979 -0.9813371 -0.09958848
vn 0.1644979 -0.9813371 -0.09958849
vn -0.05783596 -0.9895996 0.1317099
vn -0.05783598 -0.9895996 0.13171
vn -0.2896649 -0.8849315 0.3646787
vn -0.2896649 -0.8849315 0.3646787
vn -0.04861905 0.998817 -0.0008032708
vn 0.2568145 0.9621973 0.09067873
vn 0.2568143 0.9621974 0.09067864
vn -0.04861906 0.998817 -0.0008032708
vn 0.5549445 0.8125343 0.1783947
vn 0.5549445 0.8125343 0.1783947
vn 0.04861908 -0.998817 0.0008033598
vn 0.04861908 -0.998817 0.0008033598
vn -0.2568145 -0.9621973 -0.09067863
vn -0.2568148 -0.9621972 -0.09067874
vn -0.5549448 -0.8125341 -0.1783947
vn -0.5549448 -0.8125341 -0.1783947
vn 0.3874488 0.9043832 -0.178814
vn 0.3754212 0.9161314 0.1405777
vn 0.3752255 0.9159104 0.1425273
vn 0.3874488 0.9043832 -0.178814
vn 0.3193269 0.8235596 0.4688067
vn 0.319327 0.8235597 0.4688067
vn -0.3874489 -0.9043832 0.1788142
vn -0.3874489 -0.9043832 0.1788142
vn -0.3752255 -0.9159104 -0.1425272
vn -0.3754213 -0.9161315 -0.1405776
vn -0.3193268 -0.8235596 -0.4688068
vn -0.3193268 -0.8235597 -0.4688068
vn -0.3077666 0.8975339 0.3157731
vn 0.0009604543 0.9179011 0.3968081
vn 0.002888333 0.9177333 0.3971867
vn -0.3077666 0.8975339 0.315773
vn 0.3337288 0.8344191 0.4385998
vn 0.3337288 0.8344191 0.4385998
vn 0.3077667 -0.8975338 -0.315773
vn 0.3077667 -0.8975338 -0.3157731
vn -0.002888333 -0.9177333 -0.3971867
vn -0.0009604581 -0.9179011 -0.3968082
vn -0.3337289 -0.8344191 -0.4385998
vn -0.3337288 -0.8344191 -0.4385998
vn -0.4613459 0.8647225 -0.1985318
vn -0.1572653 0.9571571 -0.2431416
vn -0.1572654 0.9571571 -0.2431416
vn -0.4613459 0.8647225 -0.1985318
vn 0.1869183 0.9464899 -0.2630939
vn 0.1869183 0.9464899 -0.2630939
vn 0.4613459 -0.8647225 0.1985318
vn 0.4613459 -0.8647225 0.1985318
vn 0.1572653 -0.9571571 0.2431416
vn 0.1572653 -0.9571571 0.2431416
vn -0.1869183 -0.9464899 0.2630939
vn -0.1869184 -0.9464899 0.2630939
vn 0 1 0
vn 0 1 0
vn 0 1 0
vn 0 1 0
vn -0.1444303 0.9597924 -0.2407043
vn -0.1444303 0.9597924 -0.2407043
vn -0.1444303 0.9597924 -0.2407043
vn -0.1444303 0.9597924 -0.2407043
vn 0.1444303 -0.9597924 0.2407042
vn 0.1444303 -0.9597924 0.2407042
vn 0.1444303 -0.9597924 0.2407042
vn 0.1444303 -0.9597924 0.2407042
vn -0.2918257 0.9534073 0.07649979
vn -0.2918258 0.9534073 0.07649979
vn -0.2918258 0.9534073 0.07649979
vn -0.2918258 0.9534073 0.07649979
vn 0.2918257 -0.9534073 -0.07649991
vn 0.2918257 -0.9534073 -0.07649991
vn 0.2918257 -0.9534073 -0.07649992
vn 0.2918257 -0.9534073 -0.07649992

vt 0.7475586 0.06384277
vt 0.7514648 0.1036377
vt 0.7827148 0.1065674
vt 0.7827148 0.05969238
vt 0.7475586 0.06384277
vt 0.7827148 0.05969238
vt 0.7827148 0.1065674
vt 0.7514648 0.1036377
vt 0.7475586 0.06384277
vt 0.7514648 0.1036377
vt 0.7827148 0.1065674
vt 0.7827148 0.05969238
vt 0.7475586 0.06384277
vt 0.7827148 0.05969238
vt 0.7827148 0.1065674
vt 0.7514648 0.1036377
vt 0.7104492 0.08880615
vt 0.7104492 0.1160889
vt 0.7470703 0.1010742
vt 0.7436523 0.09014893
vt 0.7436523 0.09014893
vt 0.7470703 0.1010742
vt 0.7104492 0.1160889
vt 0.7104492 0.08880615
vt 0.7104492 0.1172485
vt 0.7104492 0.144165
vt 0.7451172 0.144165
vt 0.7504883 0.1300049
vt 0.7104492 0.1172485
vt 0.7504883 0.1300049
vt 0.7451172 0.144165
vt 0.7104492 0.144165
vt 0.7104492 0.1172485
vt 0.7104492 0.144165
vt 0.7451172 0.144165
vt 0.7504883 0.1300049
vt 0.7104492 0.1172485
vt 0.7504883 0.1300049
vt 0.7451172 0.144165
vt 0.7104492 0.144165
vt 0.6503906 0.03137207
vt 0.6503906 0.05950928
vt 0.7075195 0.05950928
vt 0.7075195 0.03137207
vt 0.7075195 0.08551025
vt 0.6503906 0.08551025
vt 0.6503906 0.03137207
vt 0.7075195 0.03137207
vt 0.7075195 0.05950928
vt 0.6503906 0.05950928
vt 0.7075195 0.08551025
vt 0.6503906 0.08551025
vt 0.6503906 0.03137207
vt 0.6503906 0.05950928
vt 0.7075195 0.05950928
vt 0.7075195 0.03137207
vt 0.7075195 0.08551025
vt 0.6503906 0.08551025
vt 0.6503906 0.03137207
vt 0.7075195 0.03137207
vt 0.7075195 0.05950928
vt 0.6503906 0.05950928
vt 0.7075195 0.08551025
vt 0.6503906 0.08551025
vt 0.6503906 0.08843994
vt 0.6503906 0.1165771
vt 0.7075195 0.1165771
vt 0.7075195 0.08843994
vt 0.7075195 0.1425781
vt 0.6503906 0.1425781
vt 0.6503906 0.08843994
vt 0.7075195 0.08843994
vt 0.7075195 0.1165771
vt 0.6503906 0.1165771
vt 0.7075195 0.1425781
vt 0.6503906 0.1425781
vt 0.6503906 0.08843994
vt 0.6503906 0.1165771
vt 0.7075195 0.1165771
vt 0.7075195 0.08843994
vt 0.7075195 0.1425781
vt 0.6503906 0.1425781
vt 0.6503906 0.08843994
vt 0.7075195 0.08843994
vt 0.7075195 0.1165771
vt 0.6503906 0.1165771
vt 0.7075195 0.1425781
vt 0.6503906 0.1425781
vt 0.6503906 0.03137207
vt 0.6503906 0.05950928
vt 0.7075195 0.05950928
vt 0.7075195 0.03137207
vt 0.7075195 0.08551025
vt 0.6503906 0.08551025
vt 0.6503906 0.03137207
vt 0.7075195 0.03137207
vt 0.7075195 0.05950928
vt 0.6503906 0.05950928
vt 0.7075195 0.08551025
vt 0.6503906 0.08551025
vt 0.7104492 0.0682373
vt 0.7104492 0.144165
vt 0.7827148 0.144165
vt 0.7827148 0.05969238
vt 0.6601563 0.02832031
vt 0.6875 0.02832031
vt 0.6875 0.002780914
vt 0.6601563 0.002780914
vt 0.6601563 0.02832031
vt 0.6601563 0.002780914
vt 0.6875 0.002780914
vt 0.6875 0.02832031
vt 0.6601563 0.02832031
vt 0.6875 0.02832031
vt 0.6875 0.002780914
vt 0.6601563 0.002780914
vt 0.6601563 0.02832031
vt 0.6601563 0.002780914
vt 0.6875 0.002780914
vt 0.6875 0.02832031

g alpha_1500_213
usemtl alpha_1500_213
usemap alpha_1500_213
f 1/1/1 3/3/3 2/2/2
f 1/1/1 4/4/4 3/3/3
f 5/5/5 7/7/7 6/6/6
f 5/5/5 8/8/8 7/7/7
f 9/9/9 11/11/11 10/10/10
f 9/9/9 12/12/12 11/11/11
f 13/13/13 15/15/15 14/14/14
f 13/13/13 16/16/16 15/15/15
f 17/17/17 19/19/19 18/18/18
f 17/17/17 20/20/20 19/19/19
f 21/21/21 23/23/23 22/22/22
f 21/21/21 24/24/24 23/23/23
f 25/25/25 27/27/27 26/26/26
f 25/25/25 28/28/28 27/27/27
f 29/29/29 31/31/31 30/30/30
f 29/29/29 32/32/32 31/31/31
f 33/33/33 35/35/35 34/34/34
f 33/33/33 36/36/36 35/35/35
f 37/37/37 39/39/39 38/38/38
f 37/37/37 40/40/40 39/39/39
f 41/41/41 43/43/43 42/42/42
f 41/41/41 44/44/44 43/43/43
f 42/42/42 43/43/43 45/45/45
f 42/42/42 45/45/45 46/46/46
f 47/47/47 49/49/49 48/48/48
f 47/47/47 50/50/50 49/49/49
f 50/50/50 51/51/51 49/49/49
f 50/50/50 52/52/52 51/51/51
f 53/53/53 55/55/55 54/54/54
f 53/53/53 56/56/56 55/55/55
f 54/54/54 55/55/55 57/57/57
f 54/54/54 57/57/57 58/58/58
f 59/59/59 61/61/61 60/60/60
f 59/59/59 62/62/62 61/61/61
f 62/62/62 63/63/63 61/61/61
f 62/62/62 64/64/64 63/63/63
f 65/65/65 67/67/67 66/66/66
f 65/65/65 68/68/68 67/67/67
f 66/66/66 67/67/67 69/69/69
f 66/66/66 69/69/69 70/70/70
f 71/71/71 73/73/73 72/72/72
f 71/71/71 74/74/74 73/73/73
f 74/74/74 75/75/75 73/73/73
f 74/74/74 76/76/76 75/75/75
f 77/77/77 79/79/79 78/78/78
f 77/77/77 80/80/80 79/79/79
f 78/78/78 79/79/79 81/81/81
f 78/78/78 81/81/81 82/82/82
f 83/83/83 85/85/85 84/84/84
f 83/83/83 86/86/86 85/85/85
f 86/86/86 87/87/87 85/85/85
f 86/86/86 88/88/88 87/87/87
f 89/89/89 91/91/91 90/90/90
f 89/89/89 92/92/92 91/91/91
f 90/90/90 91/91/91 93/93/93
f 90/90/90 93/93/93 94/94/94
f 95/95/95 97/97/97 96/96/96
f 95/95/95 98/98/98 97/97/97
f 98/98/98 99/99/99 97/97/97
f 98/98/98 100/100/100 99/99/99
f 101/101/101 103/103/103 102/102/102
f 101/101/101 104/104/104 103/103/103
f 105/105/105 107/107/107 106/106/106
f 105/105/105 108/108/108 107/107/107
f 109/109/109 111/111/111 110/110/110
f 109/109/109 112/112/112 111/111/111
f 113/113/113 115/115/115 114/114/114
f 113/113/113 116/116/116 115/115/115
f 117/117/117 119/119/119 118/118/118
f 117/117/117 120/120/120 119/119/119
