#alpha_1248_235.obj

v -2.089062 0.3437195 0.9845734
v -1.151993 0.273838 0.3468132
v -0.5818291 0.7819157 0.7624226
v -1.607098 0.9459457 1.588032
v -2.089062 0.3437195 0.9845734
v -1.607098 0.9459457 1.588032
v -0.5818291 0.7819157 0.7624226
v -1.151993 0.273838 0.3468132
v -1.471268 0.7623615 0.8464928
v -1.088703 0.767746 1.022902
v -1.255299 0.9177914 1.379602
v -1.637859 0.9124069 1.203196
v -1.471268 0.7623615 0.8464928
v -1.637859 0.9124069 1.203196
v -1.255299 0.9177914 1.379602
v -1.088703 0.767746 1.022902
v -0.6164894 1.124294 -1.104374
v 0.04511261 1.463432 -0.8024158
v -0.665062 1.125763 -0.0192337
v -0.8896675 1.00811 -0.227581
v -0.8896675 1.00811 -0.227581
v -0.665062 1.125763 -0.0192337
v 0.04511261 1.463432 -0.8024158
v -0.6164894 1.124294 -1.104374
v -1.013798 1.005255 -0.07923889
v -0.7022171 1.184349 0.07997322
v -1.089546 1.339228 0.663763
v -1.401127 1.160133 0.5045528
v -0.7972717 1.273926 0.8750038
v -0.4099426 1.119047 0.291214
v -1.013798 1.005255 -0.07923889
v -1.401127 1.160133 0.5045528
v -1.089546 1.339228 0.663763
v -0.7022171 1.184349 0.07997322
v -0.7972717 1.273926 0.8750038
v -0.4099426 1.119047 0.291214
v -0.4770584 0.4782352 0.0667038
v -1.074383 0.6456928 0.3802643
v -1.651764 0.6993904 -0.7483063
v -1.05444 0.5319328 -1.061869
v -2.182442 0.4321423 -0.4895267
v -1.605061 0.3784447 0.6390457
v -0.4770584 0.4782352 0.0667038
v -1.05444 0.5319328 -1.061869
v -1.651764 0.6993904 -0.7483063
v -1.074383 0.6456928 0.3802643
v -2.182442 0.4321423 -0.4895267
v -1.605061 0.3784447 0.6390457
v -1.259277 0.6932869 0.380373
v -0.8656273 0.8446445 0.3321533
v -0.7713623 0.8445034 1.101265
v -1.165012 0.6931458 1.149485
v -0.3965836 0.7258778 1.055309
v -0.4908524 0.7260208 0.2861977
v -1.259277 0.6932869 0.380373
v -1.165012 0.6931458 1.149485
v -0.7713623 0.8445034 1.101265
v -0.8656273 0.8446445 0.3321533
v -0.3965836 0.7258778 1.055309
v -0.4908524 0.7260208 0.2861977
v -1.369038 0.4644928 0.4383736
v -1.060642 0.2715797 0.1626053
v -0.153038 0.4896564 1.736889
v -0.2603302 0.06636429 0.3438778
v 0.2639771 0.2246838 1.351509
v 0.2639771 0.2246838 1.351509
v -1.060642 0.2715797 0.1626053
v -1.369038 0.4644928 0.4383736
v -0.153038 0.4896564 1.736889
v -0.2603302 0.06636429 0.3438778
v -2.542324 0.614603 -0.7540932
v -1.927898 0.3369827 -1.189203
v -1.818127 0.1321392 -0.1039715
v -2.100246 0.2744503 -0.01534081
v -2.100246 0.2744503 -0.01534081
v -1.818127 0.1321392 -0.1039715
v -1.927898 0.3369827 -1.189203
v -2.542324 0.614603 -0.7540932
v -2.431667 0.3220959 -0.1498013
v -2.105347 0.3546734 0.03773117
v -2.450348 0.5364037 0.6064873
v -2.776669 0.5038261 0.4189548
v -2.224724 0.3503494 0.8027992
v -1.879719 0.1686211 0.2340412
v -2.431667 0.3220959 -0.1498013
v -2.776669 0.5038261 0.4189548
v -2.450348 0.5364037 0.6064873
v -2.105347 0.3546734 0.03773117
v -2.224724 0.3503494 0.8027992
v -1.879719 0.1686211 0.2340412
v -1.124203 0.02260208 0.3338776
v 0.2374763 0.1877651 -1.137518
v -1.703663 0.5630493 -0.170414
v -0.3881607 0.5630493 -1.681999
v -0.08868408 0.02260208 1.235071
v -1.124203 0.02260208 0.3338776
v 0.2374763 0.1877651 -1.137518
v 1.346878 0.1015491 -0.1720276
v -1.703663 0.5630493 -0.170414
v -0.3881607 0.5630493 -1.681999
v -0.3388443 1.328176 -0.926712
v 0.04372025 1.333561 -0.7503033
v -0.1228752 1.483606 -0.3936024
v -0.5054398 1.478222 -0.5700092
v -0.3388443 1.328176 -0.926712
v -0.5054398 1.478222 -0.5700092
v -0.1228752 1.483606 -0.3936024
v 0.04372025 1.333561 -0.7503033
v -2.09129 0.5110626 -0.9647675
v -1.330925 0.6769562 -1.107677
v -1.090351 0.3121719 -0.2511215
v -1.450275 0.1667767 -0.03896332
v -2.09129 0.5110626 -0.9647675
v -1.450275 0.1667767 -0.03896332
v -1.090351 0.3121719 -0.2511215
v -1.330925 0.6769562 -1.107677

vn -0.3074876 0.7849923 -0.537809
vn -0.3074876 0.7849923 -0.537809
vn -0.3074875 0.7849922 -0.537809
vn -0.3074875 0.7849922 -0.537809
vn 0.3074876 -0.7849923 0.537809
vn 0.3074875 -0.7849922 0.537809
vn 0.3074875 -0.7849922 0.537809
vn 0.3074876 -0.7849923 0.537809
vn 0.1382989 0.9343448 -0.3284405
vn 0.1382989 0.9343448 -0.3284405
vn 0.1382989 0.9343448 -0.3284405
vn 0.1382989 0.9343448 -0.3284405
vn -0.1382989 -0.9343448 0.3284406
vn -0.1382989 -0.9343448 0.3284405
vn -0.1382989 -0.9343448 0.3284405
vn -0.1382989 -0.9343448 0.3284406
vn -0.4483507 0.8936044 -0.02127731
vn -0.4483507 0.8936045 -0.02127731
vn -0.4483508 0.8936044 -0.02127731
vn -0.4483508 0.8936044 -0.02127731
vn 0.4483508 -0.8936044 0.02127723
vn 0.4483508 -0.8936044 0.02127723
vn 0.4483507 -0.8936045 0.02127723
vn 0.4483507 -0.8936044 0.02127723
vn -0.2832819 0.8636028 -0.4170631
vn -0.01759046 0.9634596 -0.2672758
vn -0.01759045 0.9634596 -0.2672758
vn -0.2832819 0.8636028 -0.4170631
vn 0.2693945 0.9600296 -0.07595886
vn 0.2693945 0.9600296 -0.07595886
vn 0.2832819 -0.8636028 0.4170631
vn 0.2832819 -0.8636028 0.4170631
vn 0.01759047 -0.9634596 0.2672758
vn 0.01759046 -0.9634596 0.2672758
vn -0.2693945 -0.9600296 0.07595889
vn -0.2693945 -0.9600296 0.07595887
vn 0.2333734 0.9696236 -0.07325997
vn -0.05086404 0.9960038 0.07341199
vn -0.05086408 0.9960037 0.07341202
vn 0.2333734 0.9696236 -0.07325996
vn -0.3498872 0.9100332 0.2223027
vn -0.3498873 0.9100332 0.2223027
vn -0.2333734 -0.9696236 0.07325997
vn -0.2333734 -0.9696236 0.07325996
vn 0.05086408 -0.9960037 -0.07341202
vn 0.05086404 -0.9960038 -0.07341199
vn 0.3498872 -0.9100332 -0.2223027
vn 0.3498873 -0.9100332 -0.2223027
vn -0.3538915 0.9342722 0.04354728
vn -0.04190633 0.9991074 0.005321057
vn -0.04190636 0.9991074 0.005321059
vn -0.3538915 0.9342722 0.04354727
vn 0.2975206 0.9540254 -0.03628888
vn 0.2975206 0.9540254 -0.03628888
vn 0.3538914 -0.9342722 -0.04354723
vn 0.3538915 -0.9342722 -0.04354723
vn 0.04190635 -0.9991074 -0.005321011
vn 0.04190631 -0.9991074 -0.00532101
vn -0.2975207 -0.9540254 0.03628892
vn -0.2975207 -0.9540254 0.03628892
vn 0.2999319 0.9060795 -0.2984305
vn 0.2999315 0.9060797 -0.2984303
vn 0.2999313 0.9060798 -0.2984303
vn 0.2999313 0.9060798 -0.2984302
vn 0.2999313 0.9060798 -0.2984303
vn -0.2999315 -0.9060797 0.2984303
vn -0.2999315 -0.9060797 0.2984303
vn -0.2999315 -0.9060797 0.2984303
vn -0.2999315 -0.9060797 0.2984304
vn -0.2999313 -0.9060798 0.2984303
vn 0.4762156 0.8715973 0.116348
vn 0.4762155 0.8715973 0.116348
vn 0.4762156 0.8715973 0.116348
vn 0.4762156 0.8715973 0.116348
vn -0.4762155 -0.8715973 -0.1163479
vn -0.4762155 -0.8715973 -0.1163479
vn -0.4762155 -0.8715974 -0.1163479
vn -0.4762155 -0.8715973 -0.1163479
vn 0.05969607 0.9607883 -0.2707807
vn 0.3302509 0.9386253 -0.09958351
vn 0.3302509 0.9386253 -0.09958348
vn 0.05969608 0.9607883 -0.2707807
vn 0.5825465 0.8071724 0.09545831
vn 0.5825466 0.8071724 0.0954583
vn -0.05969608 -0.9607883 0.2707807
vn -0.05969608 -0.9607883 0.2707807
vn -0.3302509 -0.9386253 0.09958346
vn -0.3302509 -0.9386253 0.0995835
vn -0.5825465 -0.8071724 -0.09545829
vn -0.5825466 -0.8071724 -0.09545829
vn -0.376901 -0.8149263 -0.4402734
vn -0.3312023 -0.8875011 -0.3203857
vn -0.36103 -0.8437135 -0.3972467
vn -0.3109719 -0.9110732 -0.2706327
vn -0.01816474 0.9975911 0.06694856
vn 0.08299964 0.9827511 0.1652613
vn 0.06754482 0.9891287 0.130622
vn -0.01816474 0.9975911 0.06694856
vn 0.3610299 0.8437135 0.3972466
vn 0.3109719 0.9110732 0.2706327
vn 0.1382989 0.9343448 -0.3284405
vn 0.1382989 0.9343448 -0.3284406
vn 0.1382989 0.9343448 -0.3284406
vn 0.1382989 0.9343448 -0.3284405
vn -0.1382989 -0.9343448 0.3284407
vn -0.1382989 -0.9343448 0.3284407
vn -0.1382989 -0.9343448 0.3284407
vn -0.1382989 -0.9343448 0.3284407
vn -0.1182421 0.9011827 0.4169995
vn -0.1182421 0.9011827 0.4169994
vn -0.1182421 0.9011827 0.4169995
vn -0.1182421 0.9011827 0.4169995
vn 0.1182421 -0.9011827 -0.4169994
vn 0.1182421 -0.9011828 -0.4169994
vn 0.1182421 -0.9011827 -0.4169994
vn 0.1182421 -0.9011827 -0.4169994

vt 0.7475586 0.06384277
vt 0.7514648 0.1036377
vt 0.7827148 0.1065674
vt 0.7827148 0.05969238
vt 0.7475586 0.06384277
vt 0.7827148 0.05969238
vt 0.7827148 0.1065674
vt 0.7514648 0.1036377
vt 0.6601563 0.02832031
vt 0.6875 0.02832031
vt 0.6875 0.002780914
vt 0.6601563 0.002780914
vt 0.6601563 0.02832031
vt 0.6601563 0.002780914
vt 0.6875 0.002780914
vt 0.6875 0.02832031
vt 0.7104492 0.08880615
vt 0.7104492 0.1160889
vt 0.7470703 0.1010742
vt 0.7436523 0.09014893
vt 0.7436523 0.09014893
vt 0.7470703 0.1010742
vt 0.7104492 0.1160889
vt 0.7104492 0.08880615
vt 0.6503906 0.03137207
vt 0.6503906 0.05950928
vt 0.7075195 0.05950928
vt 0.7075195 0.03137207
vt 0.7075195 0.08551025
vt 0.6503906 0.08551025
vt 0.6503906 0.03137207
vt 0.7075195 0.03137207
vt 0.7075195 0.05950928
vt 0.6503906 0.05950928
vt 0.7075195 0.08551025
vt 0.6503906 0.08551025
vt 0.6503906 0.03137207
vt 0.6503906 0.05950928
vt 0.7075195 0.05950928
vt 0.7075195 0.03137207
vt 0.7075195 0.08551025
vt 0.6503906 0.08551025
vt 0.6503906 0.03137207
vt 0.7075195 0.03137207
vt 0.7075195 0.05950928
vt 0.6503906 0.05950928
vt 0.7075195 0.08551025
vt 0.6503906 0.08551025
vt 0.6503906 0.08843994
vt 0.6503906 0.1165771
vt 0.7075195 0.1165771
vt 0.7075195 0.08843994
vt 0.7075195 0.1425781
vt 0.6503906 0.1425781
vt 0.6503906 0.08843994
vt 0.7075195 0.08843994
vt 0.7075195 0.1165771
vt 0.6503906 0.1165771
vt 0.7075195 0.1425781
vt 0.6503906 0.1425781
vt 0.7744141 0.144165
vt 0.7744141 0.1281738
vt 0.7104492 0.144165
vt 0.75 0.1109009
vt 0.7104492 0.1228027
vt 0.7104492 0.1228027
vt 0.7744141 0.1281738
vt 0.7744141 0.144165
vt 0.7104492 0.144165
vt 0.75 0.1109009
vt 0.7104492 0.08880615
vt 0.7104492 0.1160889
vt 0.7470703 0.1010742
vt 0.7436523 0.09014893
vt 0.7436523 0.09014893
vt 0.7470703 0.1010742
vt 0.7104492 0.1160889
vt 0.7104492 0.08880615
vt 0.6503906 0.08843994
vt 0.6503906 0.1165771
vt 0.7075195 0.1165771
vt 0.7075195 0.08843994
vt 0.7075195 0.1425781
vt 0.6503906 0.1425781
vt 0.6503906 0.08843994
vt 0.7075195 0.08843994
vt 0.7075195 0.1165771
vt 0.6503906 0.1165771
vt 0.7075195 0.1425781
vt 0.6503906 0.1425781
vt 0.7104492 0.1149292
vt 0.7827148 0.1116333
vt 0.7104492 0.144165
vt 0.7827148 0.144165
vt 0.7104492 0.0682373
vt 0.7104492 0.1149292
vt 0.7827148 0.1116333
vt 0.7827148 0.05969238
vt 0.7104492 0.144165
vt 0.7827148 0.144165
vt 0.6601563 0.02832031
vt 0.6875 0.02832031
vt 0.6875 0.002780914
vt 0.6601563 0.002780914
vt 0.6601563 0.02832031
vt 0.6601563 0.002780914
vt 0.6875 0.002780914
vt 0.6875 0.02832031
vt 0.7104492 0.1172485
vt 0.7104492 0.144165
vt 0.7451172 0.144165
vt 0.7504883 0.1300049
vt 0.7104492 0.1172485
vt 0.7504883 0.1300049
vt 0.7451172 0.144165
vt 0.7104492 0.144165

g alpha_1248_235
usemtl alpha_1248_235
usemap alpha_1248_235
f 1/1/1 3/3/3 2/2/2
f 1/1/1 4/4/4 3/3/3
f 5/5/5 7/7/7 6/6/6
f 5/5/5 8/8/8 7/7/7
f 9/9/9 11/11/11 10/10/10
f 9/9/9 12/12/12 11/11/11
f 13/13/13 15/15/15 14/14/14
f 13/13/13 16/16/16 15/15/15
f 17/17/17 19/19/19 18/18/18
f 17/17/17 20/20/20 19/19/19
f 21/21/21 23/23/23 22/22/22
f 21/21/21 24/24/24 23/23/23
f 25/25/25 27/27/27 26/26/26
f 25/25/25 27/27/27 26/26/26
f 25/25/25 28/28/28 27/27/27
f 25/25/25 28/28/28 27/27/27
f 26/26/26 27/27/27 29/29/29
f 26/26/26 27/27/27 29/29/29
f 26/26/26 29/29/29 30/30/30
f 26/26/26 29/29/29 30/30/30
f 31/31/31 33/33/33 32/32/32
f 31/31/31 33/33/33 32/32/32
f 31/31/31 34/34/34 33/33/33
f 31/31/31 34/34/34 33/33/33
f 34/34/34 35/35/35 33/33/33
f 34/34/34 35/35/35 33/33/33
f 34/34/34 36/36/36 35/35/35
f 34/34/34 36/36/36 35/35/35
f 37/37/37 39/39/39 38/38/38
f 37/37/37 40/40/40 39/39/39
f 38/38/38 39/39/39 41/41/41
f 38/38/38 41/41/41 42/42/42
f 43/43/43 45/45/45 44/44/44
f 43/43/43 46/46/46 45/45/45
f 46/46/46 47/47/47 45/45/45
f 46/46/46 48/48/48 47/47/47
f 49/49/49 51/51/51 50/50/50
f 49/49/49 52/52/52 51/51/51
f 50/50/50 51/51/51 53/53/53
f 50/50/50 53/53/53 54/54/54
f 55/55/55 57/57/57 56/56/56
f 55/55/55 58/58/58 57/57/57
f 58/58/58 59/59/59 57/57/57
f 58/58/58 60/60/60 59/59/59
f 61/61/61 63/63/63 62/62/62
f 64/64/64 62/62/62 63/63/63
f 64/64/64 63/63/63 65/65/65
f 66/66/66 68/68/68 67/67/67
f 66/66/66 69/69/69 68/68/68
f 66/66/66 67/67/67 70/70/70
f 71/71/71 73/73/73 72/72/72
f 71/71/71 74/74/74 73/73/73
f 75/75/75 77/77/77 76/76/76
f 75/75/75 78/78/78 77/77/77
f 79/79/79 81/81/81 80/80/80
f 79/79/79 82/82/82 81/81/81
f 80/80/80 81/81/81 83/83/83
f 80/80/80 83/83/83 84/84/84
f 85/85/85 87/87/87 86/86/86
f 85/85/85 88/88/88 87/87/87
f 88/88/88 89/89/89 87/87/87
f 88/88/88 90/90/90 89/89/89
f 91/91/91 93/93/93 92/92/92
f 92/92/92 93/93/93 94/94/94
f 95/95/95 97/97/97 96/96/96
f 95/95/95 98/98/98 97/97/97
f 96/96/96 97/97/97 99/99/99
f 99/99/99 97/97/97 100/100/100
f 101/101/101 103/103/103 102/102/102
f 101/101/101 104/104/104 103/103/103
f 105/105/105 107/107/107 106/106/106
f 105/105/105 108/108/108 107/107/107
f 109/109/109 111/111/111 110/110/110
f 109/109/109 112/112/112 111/111/111
f 113/113/113 115/115/115 114/114/114
f 113/113/113 116/116/116 115/115/115
