#alpha_1325_326.obj

v 1.148568 1.450531 -0.4521887
v 0.1122261 1.016875 -0.6184908
v 0.1818445 0.6037095 -1.380336
v 1.427095 1.054437 -1.303458
v 1.148568 1.450531 -0.4521887
v 1.427095 1.054437 -1.303458
v 0.1818445 0.6037095 -1.380336
v 0.1122261 1.016875 -0.6184908
v -0.8844074 0.4740292 0.1089595
v -0.7675369 0.1615131 -0.9765779
v -1.545093 0.334074 -1.325274
v -1.807945 0.7336949 -0.08796783
v -0.8844074 0.4740292 0.1089595
v -1.807945 0.7336949 -0.08796783
v -1.545093 0.334074 -1.325274
v -0.7675369 0.1615131 -0.9765779
v -1.100746 0.2455475 -1.547603
v -0.5300415 0.5301423 -2.034649
v -0.1397263 0.2242582 -1.041759
v -0.4293319 0.1276793 -0.9213445
v -0.4293319 0.1276793 -0.9213445
v -0.1397263 0.2242582 -1.041759
v -0.5300415 0.5301423 -2.034649
v -1.100746 0.2455475 -1.547603
v 1.277976 0.4362061 -1.12039
v 0.8754573 0.2787085 -1.783166
v 0.0490222 0.4464521 -1.321113
v 0.1275256 0.5558723 -0.8997332
v 1.277976 0.4362061 -1.12039
v 0.1275256 0.5558723 -0.8997332
v 0.0490222 0.4464521 -1.321113
v 0.8754573 0.2787085 -1.783166
v -0.2387418 1.633144 0.9559853
v -0.8932198 1.301506 0.6597214
v -0.4539322 1.192481 -0.1886682
v -0.04054743 1.348807 -0.169366
v -0.2387418 1.633144 0.9559853
v -0.04054743 1.348807 -0.169366
v -0.4539322 1.192481 -0.1886682
v -0.8932198 1.301506 0.6597214
v 0.3513268 1.175329 -0.8899455
v 0.03495606 1.275112 -0.4669614
v -0.7442105 1.324383 -1.061361
v -0.4278417 1.2246 -1.484346
v -1.022833 1.092328 -0.7153651
v -0.2436643 1.043057 -0.1209658
v 0.3513268 1.175329 -0.8899455
v -0.4278417 1.2246 -1.484346
v -0.7442105 1.324383 -1.061361
v 0.03495606 1.275112 -0.4669614
v -1.022833 1.092328 -0.7153651
v -0.2436643 1.043057 -0.1209658
v 0.9124928 1.064802 -0.9916347
v 0.6135085 1.079029 -1.045395
v 0.7114009 1.071664 -1.59177
v 1.010385 1.057438 -1.53801
v 0.484218 0.906427 -1.630245
v 0.3863275 0.9137915 -1.08387
v 0.9124928 1.064802 -0.9916347
v 1.010385 1.057438 -1.53801
v 0.7114009 1.071664 -1.59177
v 0.6135085 1.079029 -1.045395
v 0.484218 0.906427 -1.630245
v 0.3863275 0.9137915 -1.08387
v 0.1143182 1.210072 -0.1938486
v 0.07653861 1.264501 -0.4773477
v 0.5435147 1.459767 -0.5064638
v 0.5812942 1.405338 -0.2229647
v 0.5756671 1.346745 -0.7512636
v 0.1086911 1.151479 -0.7221475
v 0.1143182 1.210072 -0.1938486
v 0.5812942 1.405338 -0.2229647
v 0.5435147 1.459767 -0.5064638
v 0.07653861 1.264501 -0.4773477
v 0.5756671 1.346745 -0.7512636
v 0.1086911 1.151479 -0.7221475
v 0.5450307 0.6063566 -0.8715489
v 0.08645692 0.7054486 -0.9706908
v 0.1744667 0.381638 -1.735352
v 0.6330404 0.2825461 -1.63621
v -0.236146 0.2063918 -1.708659
v -0.3241557 0.5302023 -0.9439983
v 0.5450307 0.6063566 -0.8715489
v 0.6330404 0.2825461 -1.63621
v 0.1744667 0.381638 -1.735352
v 0.08645692 0.7054486 -0.9706908
v -0.236146 0.2063918 -1.708659
v -0.3241557 0.5302023 -0.9439983
v -0.8141926 0.3058926 -0.6071213
v -1.147239 0.4735042 -0.501016
v -1.270615 0.6543303 -1.173918
v -0.9375677 0.4867187 -1.280023
v -1.622045 0.5830878 -1.128628
v -1.49867 0.4022616 -0.4557266
v -0.8141926 0.3058926 -0.6071213
v -0.9375677 0.4867187 -1.280023
v -1.270615 0.6543303 -1.173918
v -1.147239 0.4735042 -0.501016
v -1.622045 0.5830878 -1.128628
v -1.49867 0.4022616 -0.4557266
v -0.7903127 0.04308054 1.601388
v -1.527453 0.04308054 -0.5041607
v 0.3638479 0.04308054 -1.166293
v 1.153577 0.04308054 1.089474
v 1.243616 1.274435 -0.927264
v 1.091139 1.211744 -0.5395463
v 0.7050624 1.312028 -0.6751617
v 0.8575392 1.374719 -1.062879
v 1.243616 1.274435 -0.927264
v 0.8575392 1.374719 -1.062879
v 0.7050624 1.312028 -0.6751617
v 1.091139 1.211744 -0.5395463
v -0.8018769 0.4465117 -0.07744773
v -1.183034 0.5734698 0.04945349
v -1.317931 0.5673845 -0.3496324
v -0.9367725 0.4404264 -0.4765338
v -0.8018769 0.4465117 -0.07744773
v -0.9367725 0.4404264 -0.4765338
v -1.317931 0.5673845 -0.3496324
v -1.183034 0.5734698 0.04945349

vn 0.2175187 0.8350554 0.5053397
vn 0.2175187 0.8350554 0.5053397
vn 0.2175187 0.8350554 0.5053397
vn 0.2175187 0.8350554 0.5053397
vn -0.2175186 -0.8350554 -0.5053397
vn -0.2175187 -0.8350554 -0.5053397
vn -0.2175187 -0.8350554 -0.5053398
vn -0.2175187 -0.8350554 -0.5053397
vn 0.3329245 -0.9223127 -0.1962155
vn 0.3329246 -0.9223127 -0.1962155
vn 0.3329245 -0.9223127 -0.1962155
vn 0.3329245 -0.9223127 -0.1962155
vn -0.3329244 0.9223128 0.1962155
vn -0.3329244 0.9223127 0.1962155
vn -0.3329244 0.9223128 0.1962155
vn -0.3329244 0.9223128 0.1962155
vn 0.2009562 0.9230618 -0.3279842
vn 0.2009562 0.9230618 -0.3279842
vn 0.2009562 0.9230618 -0.3279842
vn 0.2009562 0.9230618 -0.3279841
vn -0.2009562 -0.9230618 0.3279841
vn -0.2009562 -0.9230618 0.3279841
vn -0.2009562 -0.9230618 0.3279841
vn -0.2009562 -0.9230618 0.3279842
vn 0.07926086 -0.9643387 -0.2525246
vn 0.07926086 -0.9643387 -0.2525246
vn 0.07926086 -0.9643387 -0.2525246
vn 0.07926086 -0.9643387 -0.2525246
vn -0.07926083 0.9643387 0.2525245
vn -0.07926083 0.9643387 0.2525245
vn -0.07926083 0.9643387 0.2525245
vn -0.07926083 0.9643387 0.2525245
vn 0.2933234 0.9008217 0.3201276
vn 0.2933234 0.9008217 0.3201276
vn 0.2933234 0.9008217 0.3201277
vn 0.2933234 0.9008217 0.3201276
vn -0.2933234 -0.9008217 -0.3201277
vn -0.2933234 -0.9008217 -0.3201277
vn -0.2933234 -0.9008217 -0.3201277
vn -0.2933234 -0.9008217 -0.3201277
vn -0.1641986 0.9813372 0.1000811
vn 0.05744088 0.9895996 -0.1318828
vn 0.05744084 0.9895996 -0.1318828
vn -0.1641987 0.9813372 0.1000811
vn 0.2885703 0.8849315 -0.3655455
vn 0.2885703 0.8849315 -0.3655455
vn 0.1641986 -0.9813371 -0.1000812
vn 0.1641986 -0.9813371 -0.1000812
vn -0.05744084 -0.9895996 0.1318828
vn -0.05744087 -0.9895996 0.1318828
vn -0.2885703 -0.8849315 0.3655455
vn -0.2885703 -0.8849315 0.3655455
vn -0.04862125 0.998817 -0.0006575086
vn 0.2570853 0.9621973 0.08990841
vn 0.2570851 0.9621974 0.08990833
vn -0.04862125 0.998817 -0.0006575086
vn 0.555477 0.8125343 0.1767302
vn 0.5554769 0.8125343 0.1767302
vn 0.04862128 -0.998817 0.0006575976
vn 0.04862128 -0.998817 0.0006575976
vn -0.2570852 -0.9621973 -0.08990832
vn -0.2570856 -0.9621972 -0.08990842
vn -0.5554772 -0.8125341 -0.1767303
vn -0.5554772 -0.8125341 -0.1767303
vn 0.386911 0.9043832 -0.1799748
vn 0.3758411 0.9161314 0.1394516
vn 0.3756512 0.9159104 0.1414018
vn 0.3869111 0.9043832 -0.1799748
vn 0.320731 0.8235596 0.4678473
vn 0.320731 0.8235597 0.4678473
vn -0.3869111 -0.9043832 0.179975
vn -0.3869111 -0.9043832 0.179975
vn -0.3756512 -0.9159104 -0.1414016
vn -0.3758411 -0.9161315 -0.1394515
vn -0.320731 -0.8235596 -0.4678475
vn -0.320731 -0.8235597 -0.4678474
vn -0.3068186 0.8975339 0.3166944
vn 0.002150066 0.9179011 0.3968035
vn 0.004079074 0.9177333 0.3971763
vn -0.3068186 0.8975339 0.3166944
vn 0.3350423 0.8344191 0.4375974
vn 0.3350423 0.8344191 0.4375975
vn 0.3068187 -0.8975338 -0.3166943
vn 0.3068187 -0.8975338 -0.3166944
vn -0.00407907 -0.9177333 -0.3971763
vn -0.00215007 -0.9179011 -0.3968036
vn -0.3350424 -0.8344191 -0.4375974
vn -0.3350423 -0.8344191 -0.4375974
vn -0.4619391 0.8647225 -0.1971479
vn -0.1579936 0.9571571 -0.242669
vn -0.1579937 0.9571571 -0.2426691
vn -0.4619391 0.8647225 -0.1971479
vn 0.1861288 0.9464899 -0.2636532
vn 0.1861288 0.9464899 -0.2636531
vn 0.4619391 -0.8647225 0.1971479
vn 0.4619391 -0.8647225 0.1971479
vn 0.1579936 -0.9571571 0.2426691
vn 0.1579935 -0.9571571 0.2426691
vn -0.1861288 -0.9464899 0.2636532
vn -0.1861288 -0.9464899 0.2636532
vn 0 1 0
vn 0 1 0
vn 0 1 0
vn 0 1 0
vn -0.1451513 0.9597924 -0.2402702
vn -0.1451513 0.9597924 -0.2402702
vn -0.1451513 0.9597924 -0.2402702
vn -0.1451513 0.9597924 -0.2402702
vn 0.1451513 -0.9597924 0.2402701
vn 0.1451513 -0.9597924 0.2402701
vn 0.1451513 -0.9597924 0.2402701
vn 0.1451513 -0.9597924 0.2402701
vn -0.2915951 0.9534073 0.07737434
vn -0.2915952 0.9534073 0.07737435
vn -0.2915952 0.9534073 0.07737434
vn -0.2915952 0.9534073 0.07737435
vn 0.2915951 -0.9534073 -0.07737446
vn 0.2915951 -0.9534073 -0.07737446
vn 0.2915951 -0.9534073 -0.07737447
vn 0.2915951 -0.9534073 -0.07737447

vt 0.7475586 0.06384277
vt 0.7514648 0.1036377
vt 0.7827148 0.1065674
vt 0.7827148 0.05969238
vt 0.7475586 0.06384277
vt 0.7827148 0.05969238
vt 0.7827148 0.1065674
vt 0.7514648 0.1036377
vt 0.7475586 0.06384277
vt 0.7514648 0.1036377
vt 0.7827148 0.1065674
vt 0.7827148 0.05969238
vt 0.7475586 0.06384277
vt 0.7827148 0.05969238
vt 0.7827148 0.1065674
vt 0.7514648 0.1036377
vt 0.7104492 0.08880615
vt 0.7104492 0.1160889
vt 0.7470703 0.1010742
vt 0.7436523 0.09014893
vt 0.7436523 0.09014893
vt 0.7470703 0.1010742
vt 0.7104492 0.1160889
vt 0.7104492 0.08880615
vt 0.7104492 0.1172485
vt 0.7104492 0.144165
vt 0.7451172 0.144165
vt 0.7504883 0.1300049
vt 0.7104492 0.1172485
vt 0.7504883 0.1300049
vt 0.7451172 0.144165
vt 0.7104492 0.144165
vt 0.7104492 0.1172485
vt 0.7104492 0.144165
vt 0.7451172 0.144165
vt 0.7504883 0.1300049
vt 0.7104492 0.1172485
vt 0.7504883 0.1300049
vt 0.7451172 0.144165
vt 0.7104492 0.144165
vt 0.6503906 0.03137207
vt 0.6503906 0.05950928
vt 0.7075195 0.05950928
vt 0.7075195 0.03137207
vt 0.7075195 0.08551025
vt 0.6503906 0.08551025
vt 0.6503906 0.03137207
vt 0.7075195 0.03137207
vt 0.7075195 0.05950928
vt 0.6503906 0.05950928
vt 0.7075195 0.08551025
vt 0.6503906 0.08551025
vt 0.6503906 0.03137207
vt 0.6503906 0.05950928
vt 0.7075195 0.05950928
vt 0.7075195 0.03137207
vt 0.7075195 0.08551025
vt 0.6503906 0.08551025
vt 0.6503906 0.03137207
vt 0.7075195 0.03137207
vt 0.7075195 0.05950928
vt 0.6503906 0.05950928
vt 0.7075195 0.08551025
vt 0.6503906 0.08551025
vt 0.6503906 0.08843994
vt 0.6503906 0.1165771
vt 0.7075195 0.1165771
vt 0.7075195 0.08843994
vt 0.7075195 0.1425781
vt 0.6503906 0.1425781
vt 0.6503906 0.08843994
vt 0.7075195 0.08843994
vt 0.7075195 0.1165771
vt 0.6503906 0.1165771
vt 0.7075195 0.1425781
vt 0.6503906 0.1425781
vt 0.6503906 0.08843994
vt 0.6503906 0.1165771
vt 0.7075195 0.1165771
vt 0.7075195 0.08843994
vt 0.7075195 0.1425781
vt 0.6503906 0.1425781
vt 0.6503906 0.08843994
vt 0.7075195 0.08843994
vt 0.7075195 0.1165771
vt 0.6503906 0.1165771
vt 0.7075195 0.1425781
vt 0.6503906 0.1425781
vt 0.6503906 0.03137207
vt 0.6503906 0.05950928
vt 0.7075195 0.05950928
vt 0.7075195 0.03137207
vt 0.7075195 0.08551025
vt 0.6503906 0.08551025
vt 0.6503906 0.03137207
vt 0.7075195 0.03137207
vt 0.7075195 0.05950928
vt 0.6503906 0.05950928
vt 0.7075195 0.08551025
vt 0.6503906 0.08551025
vt 0.7104492 0.0682373
vt 0.7104492 0.144165
vt 0.7827148 0.144165
vt 0.7827148 0.05969238
vt 0.6601563 0.02832031
vt 0.6875 0.02832031
vt 0.6875 0.002780914
vt 0.6601563 0.002780914
vt 0.6601563 0.02832031
vt 0.6601563 0.002780914
vt 0.6875 0.002780914
vt 0.6875 0.02832031
vt 0.6601563 0.02832031
vt 0.6875 0.02832031
vt 0.6875 0.002780914
vt 0.6601563 0.002780914
vt 0.6601563 0.02832031
vt 0.6601563 0.002780914
vt 0.6875 0.002780914
vt 0.6875 0.02832031

g alpha_1325_326
usemtl alpha_1325_326
usemap alpha_1325_326
f 1/1/1 3/3/3 2/2/2
f 1/1/1 4/4/4 3/3/3
f 5/5/5 7/7/7 6/6/6
f 5/5/5 8/8/8 7/7/7
f 9/9/9 11/11/11 10/10/10
f 9/9/9 12/12/12 11/11/11
f 13/13/13 15/15/15 14/14/14
f 13/13/13 16/16/16 15/15/15
f 17/17/17 19/19/19 18/18/18
f 17/17/17 20/20/20 19/19/19
f 21/21/21 23/23/23 22/22/22
f 21/21/21 24/24/24 23/23/23
f 25/25/25 27/27/27 26/26/26
f 25/25/25 28/28/28 27/27/27
f 29/29/29 31/31/31 30/30/30
f 29/29/29 32/32/32 31/31/31
f 33/33/33 35/35/35 34/34/34
f 33/33/33 36/36/36 35/35/35
f 37/37/37 39/39/39 38/38/38
f 37/37/37 40/40/40 39/39/39
f 41/41/41 43/43/43 42/42/42
f 41/41/41 44/44/44 43/43/43
f 42/42/42 43/43/43 45/45/45
f 42/42/42 45/45/45 46/46/46
f 47/47/47 49/49/49 48/48/48
f 47/47/47 50/50/50 49/49/49
f 50/50/50 51/51/51 49/49/49
f 50/50/50 52/52/52 51/51/51
f 53/53/53 55/55/55 54/54/54
f 53/53/53 56/56/56 55/55/55
f 54/54/54 55/55/55 57/57/57
f 54/54/54 57/57/57 58/58/58
f 59/59/59 61/61/61 60/60/60
f 59/59/59 62/62/62 61/61/61
f 62/62/62 63/63/63 61/61/61
f 62/62/62 64/64/64 63/63/63
f 65/65/65 67/67/67 66/66/66
f 65/65/65 68/68/68 67/67/67
f 66/66/66 67/67/67 69/69/69
f 66/66/66 69/69/69 70/70/70
f 71/71/71 73/73/73 72/72/72
f 71/71/71 74/74/74 73/73/73
f 74/74/74 75/75/75 73/73/73
f 74/74/74 76/76/76 75/75/75
f 77/77/77 79/79/79 78/78/78
f 77/77/77 80/80/80 79/79/79
f 78/78/78 79/79/79 81/81/81
f 78/78/78 81/81/81 82/82/82
f 83/83/83 85/85/85 84/84/84
f 83/83/83 86/86/86 85/85/85
f 86/86/86 87/87/87 85/85/85
f 86/86/86 88/88/88 87/87/87
f 89/89/89 91/91/91 90/90/90
f 89/89/89 92/92/92 91/91/91
f 90/90/90 91/91/91 93/93/93
f 90/90/90 93/93/93 94/94/94
f 95/95/95 97/97/97 96/96/96
f 95/95/95 98/98/98 97/97/97
f 98/98/98 99/99/99 97/97/97
f 98/98/98 100/100/100 99/99/99
f 101/101/101 103/103/103 102/102/102
f 101/101/101 104/104/104 103/103/103
f 105/105/105 107/107/107 106/106/106
f 105/105/105 108/108/108 107/107/107
f 109/109/109 111/111/111 110/110/110
f 109/109/109 112/112/112 111/111/111
f 113/113/113 115/115/115 114/114/114
f 113/113/113 116/116/116 115/115/115
f 117/117/117 119/119/119 118/118/118
f 117/117/117 120/120/120 119/119/119
