#Alpha_2834_28.obj

v -0.3356434 0.2777315 1.036391
v -1.129508 0.1608478 1.030812
v -0.6717895 0.07648957 0.02327792
v -0.3645835 0.1362255 0.1220451
v -0.3645835 0.1362255 0.1220451
v -0.6717895 0.07648957 0.02327792
v -1.129508 0.1608478 1.030812
v -0.3356434 0.2777315 1.036391
v -0.4905639 0.3428391 -1.164055
v 0.2181334 0.6808587 -0.9985208
v -0.2479954 0.1965102 -0.1154166
v -0.5167487 0.09337044 -0.2730032
v -0.5167487 0.09337044 -0.2730032
v -0.2479954 0.1965102 -0.1154166
v 0.2181334 0.6808587 -0.9985208
v -0.4905639 0.3428391 -1.164055
v -0.2326073 0.5319947 -1.231052
v 0.1448681 0.5564677 -1.045534
v -0.0421974 0.595341 -0.6700368
v -0.4196717 0.570868 -0.8555511
v -0.2326073 0.5319947 -1.231052
v -0.4196717 0.570868 -0.8555511
v -0.0421974 0.595341 -0.6700368
v 0.1448681 0.5564677 -1.045534
v -1.577806 0.6769722 -1.238494
v -0.7986342 0.6155729 -1.420242
v -1.081073 0.1934528 -0.4290042
v -1.334349 0.2472973 -0.4404867
v -1.334349 0.2472973 -0.4404867
v -1.081073 0.1934528 -0.4290042
v -0.7986342 0.6155729 -1.420242
v -1.577806 0.6769722 -1.238494
v -1.262181 0.352392 -0.9266525
v -1.225121 0.4374886 -0.5138996
v -1.992655 0.5021714 -0.4583158
v -2.029716 0.4170748 -0.8710723
v -1.981999 0.3256547 -0.1057324
v -1.214464 0.260972 -0.1613126
v -1.262181 0.352392 -0.9266525
v -2.029716 0.4170748 -0.8710723
v -1.992655 0.5021714 -0.4583158
v -1.225121 0.4374886 -0.5138996
v -1.981999 0.3256547 -0.1057324
v -1.214464 0.260972 -0.1613126
v -0.1335225 0.1441713 -0.3703878
v 0.6984788 0.3083283 -0.01781718
v -0.01006663 0.8536618 1.400316
v -0.8420666 0.689505 1.047749
v 0.6124318 0.4805941 1.854794
v 1.320977 -0.06473956 0.4366605
v -0.1335225 0.1441713 -0.3703878
v -0.8420666 0.689505 1.047749
v -0.01006663 0.8536618 1.400316
v 0.6984788 0.3083283 -0.01781718
v 0.6124318 0.4805941 1.854794
v 1.320977 -0.06473956 0.4366605
v -1.230245 0.3132074 -0.308365
v -1.159849 0.4303713 -0.5654227
v -0.6906819 0.5254434 -0.3984247
v -0.7610818 0.4082797 -0.1413658
v -0.5904955 0.4599502 -0.642162
v -1.059662 0.3648779 -0.80916
v -1.230245 0.3132074 -0.308365
v -0.7610818 0.4082797 -0.1413658
v -0.6906819 0.5254434 -0.3984247
v -1.159849 0.4303713 -0.5654227
v -0.5904955 0.4599502 -0.642162
v -1.059662 0.3648779 -0.80916
v 1.783759 0.1349387 -1.029046
v 0.9552585 0.06476724 -0.2554994
v 1.218435 0.6000682 0.3770761
v 2.246957 0.7687746 -0.4435314
v 1.783759 0.1349387 -1.029046
v 2.246957 0.7687746 -0.4435314
v 1.218435 0.6000682 0.3770761
v 0.9552585 0.06476724 -0.2554994
v -0.6399851 0.2932726 -0.004189839
v -0.3175437 0.3968586 0.2464181
v -0.5544777 0.3150785 0.5850617
v -0.8769167 0.2114925 0.3344489
v -0.6399851 0.2932726 -0.004189839
v -0.8769167 0.2114925 0.3344489
v -0.5544777 0.3150785 0.5850617
v -0.3175437 0.3968586 0.2464181
v -0.5323382 0.8070896 -0.4867391
v 0.06690415 0.9200945 -1.008322
v 0.2429752 0.06380057 -0.3245851
v -0.03876666 0.09568715 -0.1593509
v -0.03876666 0.09568715 -0.1593509
v 0.2429752 0.06380057 -0.3245851
v 0.06690415 0.9200945 -1.008322
v -0.5323382 0.8070896 -0.4867391
v 2.004287 0.08723702 0.2337128
v 0.351703 0.08723702 1.732269
v -0.9943686 0.08723702 0.2478405
v 0.7761174 0.08723702 -1.357628
v 1.236478 0.1841538 -0.031055
v 0.8414167 0.3588783 -0.04763691
v 0.991347 0.6289654 -0.7737622
v 1.386405 0.454241 -0.7571791
v 0.6127166 0.5447261 -0.8832762
v 0.4627874 0.2746389 -0.1571473
v 1.236478 0.1841538 -0.031055
v 1.386405 0.454241 -0.7571791
v 0.991347 0.6289654 -0.7737622
v 0.8414167 0.3588783 -0.04763691
v 0.6127166 0.5447261 -0.8832762
v 0.4627874 0.2746389 -0.1571473
v 1.289033 0.5592995 -0.3418586
v 1.706875 0.5662984 -0.2883604
v 1.654769 0.510341 0.1259537
v 1.236925 0.5033422 0.07246028
v 1.289033 0.5592995 -0.3418586
v 1.236925 0.5033422 0.07246028
v 1.654769 0.510341 0.1259537
v 1.706875 0.5662984 -0.2883604
v -1.583234 0.323963 -0.4377695
v -1.101542 0.5024385 -0.009550611
v -1.859046 0.4631971 0.874177
v -2.340739 0.2847219 0.4459545
v -1.417388 0.2215902 1.24246
v -0.6598828 0.2608313 0.3587364
v -1.583234 0.323963 -0.4377695
v -2.340739 0.2847219 0.4459545
v -1.859046 0.4631971 0.874177
v -1.101542 0.5024385 -0.009550611
v -1.417388 0.2215902 1.24246
v -0.6598828 0.2608313 0.3587364

vn 0.1849135 0.978743 -0.08870868
vn 0.1849135 0.978743 -0.0887087
vn 0.1849135 0.978743 -0.08870868
vn 0.1849135 0.978743 -0.08870868
vn -0.1849135 -0.978743 0.08870868
vn -0.1849135 -0.978743 0.08870868
vn -0.1849135 -0.978743 0.0887087
vn -0.1849135 -0.978743 0.08870868
vn -0.06729023 0.8575175 -0.5100351
vn -0.06729022 0.8575175 -0.5100352
vn -0.06729023 0.8575175 -0.5100352
vn -0.06729022 0.8575175 -0.5100352
vn 0.06729026 -0.8575176 0.510035
vn 0.06729028 -0.8575175 0.510035
vn 0.06729029 -0.8575176 0.510035
vn 0.06729026 -0.8575176 0.510035
vn 0.106345 0.9940385 0.0240451
vn 0.106345 0.9940385 0.0240451
vn 0.106345 0.9940385 0.0240451
vn 0.106345 0.9940385 0.0240451
vn -0.106345 -0.9940385 -0.02404507
vn -0.106345 -0.9940385 -0.02404507
vn -0.106345 -0.9940385 -0.02404507
vn -0.106345 -0.9940385 -0.02404507
vn -0.458417 0.8883984 0.02453782
vn -0.458417 0.8883984 0.02453783
vn -0.458417 0.8883984 0.02453783
vn -0.458417 0.8883984 0.02453785
vn 0.4584169 -0.8883985 -0.02453788
vn 0.458417 -0.8883985 -0.02453788
vn 0.458417 -0.8883985 -0.02453786
vn 0.458417 -0.8883985 -0.02453785
vn 0.1749646 0.9759741 0.1298533
vn -0.1358055 0.9894294 0.05085551
vn -0.1358053 0.9894295 0.05085558
vn 0.1749647 0.9759741 0.1298534
vn -0.4535415 0.8903502 -0.03970779
vn -0.4535414 0.8903502 -0.03970777
vn -0.1749647 -0.9759741 -0.1298533
vn -0.1749647 -0.9759741 -0.1298533
vn 0.1358051 -0.9894295 -0.05085555
vn 0.1358054 -0.9894294 -0.05085548
vn 0.4535414 -0.8903503 0.03970779
vn 0.4535413 -0.8903503 0.03970776
vn 0.3592741 0.9285687 0.09317908
vn 0.1339573 0.9373682 0.3215529
vn 0.1339574 0.9373683 0.3215528
vn 0.3592741 0.9285687 0.09317908
vn -0.123074 0.8392681 0.5296053
vn -0.123074 0.8392681 0.5296053
vn -0.359274 -0.9285687 -0.09317932
vn -0.359274 -0.9285687 -0.0931793
vn -0.1339574 -0.9373682 -0.3215529
vn -0.1339573 -0.9373682 -0.3215531
vn 0.123074 -0.8392681 -0.5296053
vn 0.123074 -0.8392681 -0.5296053
vn -0.2148531 0.896737 -0.3869121
vn 0.03758593 0.9774343 -0.2078689
vn 0.03915059 0.9776242 -0.2066838
vn -0.2148531 0.896737 -0.3869121
vn 0.3054555 0.9521633 0.009059221
vn 0.3054555 0.9521632 0.009059221
vn 0.2148532 -0.8967372 0.3869117
vn 0.2148532 -0.8967371 0.3869117
vn -0.03915052 -0.9776242 0.2066836
vn -0.0375859 -0.9774343 0.2078688
vn -0.3054555 -0.9521632 -0.009059221
vn -0.3054555 -0.9521632 -0.009059213
vn -0.5723644 -0.7585047 0.31156
vn -0.5723645 -0.7585048 0.3115599
vn -0.5723644 -0.7585048 0.3115599
vn -0.5723644 -0.7585048 0.3115599
vn 0.5723644 0.7585047 -0.31156
vn 0.5723644 0.7585047 -0.3115601
vn 0.5723645 0.7585046 -0.3115601
vn 0.5723644 0.7585047 -0.3115601
vn 0.09014383 0.9496697 -0.3000028
vn 0.09014383 0.9496697 -0.3000028
vn 0.09014383 0.9496697 -0.3000028
vn 0.09014383 0.9496697 -0.3000028
vn -0.0901439 -0.9496695 0.300003
vn -0.09014389 -0.9496696 0.3000029
vn -0.0901439 -0.9496695 0.300003
vn -0.0901439 -0.9496696 0.300003
vn -0.7599401 0.6117937 0.2195444
vn -0.7599401 0.6117936 0.2195444
vn -0.7599401 0.6117936 0.2195444
vn -0.7599401 0.6117936 0.2195444
vn 0.7599401 -0.6117935 -0.2195449
vn 0.7599401 -0.6117934 -0.2195449
vn 0.7599402 -0.6117934 -0.2195448
vn 0.7599401 -0.6117934 -0.2195449
vn 0 1 0
vn 0 1 0
vn 0 1 0
vn 0 1 0
vn -0.4837035 0.8482263 0.2157385
vn -0.3549097 0.9325781 -0.06585784
vn -0.3549097 0.9325781 -0.06585773
vn -0.4837035 0.8482263 0.2157385
vn -0.1760558 0.9160612 -0.3603279
vn -0.1760559 0.9160612 -0.3603279
vn 0.4837036 -0.8482262 -0.2157387
vn 0.4837035 -0.8482262 -0.2157387
vn 0.3549098 -0.932578 0.06585763
vn 0.3549097 -0.9325781 0.06585777
vn 0.1760558 -0.9160612 0.3603279
vn 0.1760558 -0.9160612 0.3603279
vn -0.1122983 0.9910014 -0.07283832
vn -0.1122983 0.9910014 -0.07283832
vn -0.1122983 0.9910014 -0.07283832
vn -0.1122983 0.9910014 -0.07283832
vn 0.1122983 -0.9910014 0.07283828
vn 0.1122983 -0.9910014 0.07283827
vn 0.1122983 -0.9910014 0.07283828
vn 0.1122983 -0.9910014 0.07283828
vn 0.2130122 0.9630621 -0.1647336
vn -0.06068205 0.9981526 -0.003012042
vn -0.06237189 0.998051 -0.002001051
vn 0.2130122 0.9630621 -0.1647336
vn -0.3488161 0.9213274 0.1717067
vn -0.3488161 0.9213274 0.1717067
vn -0.2130122 -0.9630621 0.1647337
vn -0.2130122 -0.9630621 0.1647337
vn 0.06237187 -0.998051 0.002001138
vn 0.06068202 -0.9981526 0.00301213
vn 0.3488161 -0.9213274 -0.1717066
vn 0.3488161 -0.9213274 -0.1717066

vt 0.7108941 0.0888281
vt 0.7108941 0.1161228
vt 0.7475335 0.1011126
vt 0.7440315 0.09020001
vt 0.7440315 0.09020001
vt 0.7475335 0.1011126
vt 0.7108941 0.1161228
vt 0.7108941 0.0888281
vt 0.7108941 0.0888281
vt 0.7108941 0.1161228
vt 0.7475335 0.1011126
vt 0.7440315 0.09020001
vt 0.7440315 0.09020001
vt 0.7475335 0.1011126
vt 0.7108941 0.1161228
vt 0.7108941 0.0888281
vt 0.6605819 0.02832909
vt 0.6876141 0.02832909
vt 0.6876141 0.002782094
vt 0.6605819 0.002782094
vt 0.6605819 0.02832909
vt 0.6605819 0.002782094
vt 0.6876141 0.002782094
vt 0.6876141 0.02832909
vt 0.7069706 0.09035857
vt 0.7069706 0.1160976
vt 0.7415218 0.1019429
vt 0.7382194 0.09165229
vt 0.7382194 0.09165229
vt 0.7415218 0.1019429
vt 0.7069706 0.1160976
vt 0.7069706 0.09035857
vt 0.6505471 0.03139362
vt 0.6505471 0.05953113
vt 0.7078462 0.05953113
vt 0.7078462 0.03139362
vt 0.7078462 0.08554447
vt 0.6505471 0.08554447
vt 0.6505471 0.03139362
vt 0.7078462 0.03139362
vt 0.7078462 0.05953113
vt 0.6505471 0.05953113
vt 0.7078462 0.08554447
vt 0.6505471 0.08554447
vt 0.6505471 0.03139362
vt 0.6505471 0.05953113
vt 0.7078462 0.05953113
vt 0.7078462 0.03139362
vt 0.7078462 0.08554447
vt 0.6505471 0.08554447
vt 0.6505471 0.03139362
vt 0.7078462 0.03139362
vt 0.7078462 0.05953113
vt 0.6505471 0.05953113
vt 0.7078462 0.08554447
vt 0.6505471 0.08554447
vt 0.6505471 0.08846883
vt 0.6505471 0.1166063
vt 0.7078462 0.1166063
vt 0.7078462 0.08846883
vt 0.7078462 0.1426197
vt 0.6505471 0.1426197
vt 0.6505471 0.08846883
vt 0.7078462 0.08846883
vt 0.7078462 0.1166063
vt 0.6505471 0.1166063
vt 0.7078462 0.1426197
vt 0.6505471 0.1426197
vt 0.7477456 0.06389309
vt 0.7518708 0.1036441
vt 0.7827574 0.1065911
vt 0.7827574 0.0597203
vt 0.7477456 0.06389309
vt 0.7827574 0.0597203
vt 0.7827574 0.1065911
vt 0.7518708 0.1036441
vt 0.6605819 0.02832909
vt 0.6876141 0.02832909
vt 0.6876141 0.002782094
vt 0.6605819 0.002782094
vt 0.6605819 0.02832909
vt 0.6605819 0.002782094
vt 0.6876141 0.002782094
vt 0.6876141 0.02832909
vt 0.7108941 0.0888281
vt 0.7108941 0.1161228
vt 0.7475335 0.1011126
vt 0.7440315 0.09020001
vt 0.7440315 0.09020001
vt 0.7475335 0.1011126
vt 0.7108941 0.1161228
vt 0.7108941 0.0888281
vt 0.7108941 0.06828515
vt 0.7108941 0.1441667
vt 0.7827574 0.1441667
vt 0.7827574 0.0597203
vt 0.6505471 0.03139362
vt 0.6505471 0.05953113
vt 0.7078462 0.05953113
vt 0.7078462 0.03139362
vt 0.7078462 0.08554447
vt 0.6505471 0.08554447
vt 0.6505471 0.03139362
vt 0.7078462 0.03139362
vt 0.7078462 0.05953113
vt 0.6505471 0.05953113
vt 0.7078462 0.08554447
vt 0.6505471 0.08554447
vt 0.6605819 0.02832909
vt 0.6876141 0.02832909
vt 0.6876141 0.002782094
vt 0.6605819 0.002782094
vt 0.6605819 0.02832909
vt 0.6605819 0.002782094
vt 0.6876141 0.002782094
vt 0.6876141 0.02832909
vt 0.6505471 0.08846883
vt 0.6505471 0.1166063
vt 0.7078462 0.1166063
vt 0.7078462 0.08846883
vt 0.7078462 0.1426197
vt 0.6505471 0.1426197
vt 0.6505471 0.08846883
vt 0.7078462 0.08846883
vt 0.7078462 0.1166063
vt 0.6505471 0.1166063
vt 0.7078462 0.1426197
vt 0.6505471 0.1426197

g Alpha_2834_28
usemtl Alpha_2834_28
usemap Alpha_2834_28
f 1/1/1 3/3/3 2/2/2
f 1/1/1 4/4/4 3/3/3
f 5/5/5 7/7/7 6/6/6
f 5/5/5 8/8/8 7/7/7
f 9/9/9 11/11/11 10/10/10
f 9/9/9 12/12/12 11/11/11
f 13/13/13 15/15/15 14/14/14
f 13/13/13 16/16/16 15/15/15
f 17/17/17 19/19/19 18/18/18
f 17/17/17 20/20/20 19/19/19
f 21/21/21 23/23/23 22/22/22
f 21/21/21 24/24/24 23/23/23
f 25/25/25 27/27/27 26/26/26
f 25/25/25 28/28/28 27/27/27
f 29/29/29 31/31/31 30/30/30
f 29/29/29 32/32/32 31/31/31
f 33/33/33 35/35/35 34/34/34
f 33/33/33 36/36/36 35/35/35
f 34/34/34 35/35/35 37/37/37
f 34/34/34 37/37/37 38/38/38
f 39/39/39 41/41/41 40/40/40
f 39/39/39 42/42/42 41/41/41
f 42/42/42 43/43/43 41/41/41
f 42/42/42 44/44/44 43/43/43
f 45/45/45 47/47/47 46/46/46
f 45/45/45 48/48/48 47/47/47
f 46/46/46 47/47/47 49/49/49
f 46/46/46 49/49/49 50/50/50
f 51/51/51 53/53/53 52/52/52
f 51/51/51 54/54/54 53/53/53
f 54/54/54 55/55/55 53/53/53
f 54/54/54 56/56/56 55/55/55
f 57/57/57 59/59/59 58/58/58
f 57/57/57 60/60/60 59/59/59
f 58/58/58 59/59/59 61/61/61
f 58/58/58 61/61/61 62/62/62
f 63/63/63 65/65/65 64/64/64
f 63/63/63 66/66/66 65/65/65
f 66/66/66 67/67/67 65/65/65
f 66/66/66 68/68/68 67/67/67
f 69/69/69 71/71/71 70/70/70
f 69/69/69 72/72/72 71/71/71
f 73/73/73 75/75/75 74/74/74
f 73/73/73 76/76/76 75/75/75
f 77/77/77 79/79/79 78/78/78
f 77/77/77 80/80/80 79/79/79
f 81/81/81 83/83/83 82/82/82
f 81/81/81 84/84/84 83/83/83
f 85/85/85 87/87/87 86/86/86
f 85/85/85 88/88/88 87/87/87
f 89/89/89 91/91/91 90/90/90
f 89/89/89 92/92/92 91/91/91
f 93/93/93 95/95/95 94/94/94
f 93/93/93 96/96/96 95/95/95
f 97/97/97 99/99/99 98/98/98
f 97/97/97 100/100/100 99/99/99
f 98/98/98 99/99/99 101/101/101
f 98/98/98 101/101/101 102/102/102
f 103/103/103 105/105/105 104/104/104
f 103/103/103 106/106/106 105/105/105
f 106/106/106 107/107/107 105/105/105
f 106/106/106 108/108/108 107/107/107
f 109/109/109 111/111/111 110/110/110
f 109/109/109 112/112/112 111/111/111
f 113/113/113 115/115/115 114/114/114
f 113/113/113 116/116/116 115/115/115
f 117/117/117 119/119/119 118/118/118
f 117/117/117 120/120/120 119/119/119
f 118/118/118 119/119/119 121/121/121
f 118/118/118 121/121/121 122/122/122
f 123/123/123 125/125/125 124/124/124
f 123/123/123 126/126/126 125/125/125
f 126/126/126 127/127/127 125/125/125
f 126/126/126 128/128/128 127/127/127
