#Alpha_1088_320.obj

v -0.3356438 0.2777315 1.036391
v -1.129509 0.1608478 1.03081
v -0.6717911 0.07648957 0.02328014
v -0.3645821 0.1362255 0.1220465
v -0.3645821 0.1362255 0.1220465
v -0.6717911 0.07648957 0.02328014
v -1.129509 0.1608478 1.03081
v -0.3356438 0.2777315 1.036391
v -0.4905663 0.3428391 -1.164054
v 0.218132 0.6808587 -0.9985218
v -0.2479973 0.1965102 -0.1154184
v -0.5167465 0.09337044 -0.2730055
v -0.5167465 0.09337044 -0.2730055
v -0.2479973 0.1965102 -0.1154184
v 0.218132 0.6808587 -0.9985218
v -0.4905663 0.3428391 -1.164054
v -0.232605 0.5319947 -1.231051
v 0.1448708 0.5564677 -1.045534
v -0.04219437 0.595341 -0.6700354
v -0.4196701 0.570868 -0.8555527
v -0.232605 0.5319947 -1.231051
v -0.4196701 0.570868 -0.8555527
v -0.04219437 0.595341 -0.6700354
v 0.1448708 0.5564677 -1.045534
v -1.577805 0.6769722 -1.238494
v -0.7986336 0.6155729 -1.420241
v -1.081074 0.1934528 -0.4290028
v -1.334351 0.2472973 -0.4404869
v -1.334351 0.2472973 -0.4404869
v -1.081074 0.1934528 -0.4290028
v -0.7986336 0.6155729 -1.420241
v -1.577805 0.6769722 -1.238494
v -1.26218 0.352392 -0.9266529
v -1.225121 0.4374886 -0.5138979
v -1.992653 0.5021714 -0.4583178
v -2.029716 0.4170748 -0.8710728
v -1.981995 0.3256547 -0.1057329
v -1.214462 0.260972 -0.161314
v -1.26218 0.352392 -0.9266529
v -2.029716 0.4170748 -0.8710728
v -1.992653 0.5021714 -0.4583178
v -1.225121 0.4374886 -0.5138979
v -1.981995 0.3256547 -0.1057329
v -1.214462 0.260972 -0.161314
v -0.133522 0.1441713 -0.370389
v 0.6984787 0.3083283 -0.0178194
v -0.01006699 0.8536618 1.400316
v -0.8420677 0.689505 1.047748
v 0.6124306 0.4805942 1.854795
v 1.320974 -0.06473956 0.4366589
v -0.133522 0.1441713 -0.370389
v -0.8420677 0.689505 1.047748
v -0.01006699 0.8536618 1.400316
v 0.6984787 0.3083283 -0.0178194
v 0.6124306 0.4805942 1.854795
v 1.320974 -0.06473956 0.4366589
v -1.230247 0.3132074 -0.3083649
v -1.159847 0.4303713 -0.5654221
v -0.6906815 0.5254434 -0.3984232
v -0.7610817 0.4082797 -0.141367
v -0.5904961 0.4599502 -0.6421614
v -1.059662 0.3648779 -0.8091602
v -1.230247 0.3132074 -0.3083649
v -0.7610817 0.4082797 -0.141367
v -0.6906815 0.5254434 -0.3984232
v -1.159847 0.4303713 -0.5654221
v -0.5904961 0.4599502 -0.6421614
v -1.059662 0.3648779 -0.8091602
v 1.783758 0.1349387 -1.029046
v 0.9552574 0.06476724 -0.2554979
v 1.218435 0.6000682 0.3770771
v 2.246956 0.7687746 -0.443532
v 1.783758 0.1349387 -1.029046
v 2.246956 0.7687746 -0.443532
v 1.218435 0.6000682 0.3770771
v 0.9552574 0.06476724 -0.2554979
v -0.6399841 0.2932726 -0.004192352
v -0.317543 0.3968586 0.2464199
v -0.5544777 0.3150785 0.585062
v -0.876915 0.2114925 0.3344498
v -0.6399841 0.2932726 -0.004192352
v -0.876915 0.2114925 0.3344498
v -0.5544777 0.3150785 0.585062
v -0.317543 0.3968586 0.2464199
v -0.532341 0.8070896 -0.4867382
v 0.06690216 0.9200945 -1.008323
v 0.2429771 0.06380057 -0.324584
v -0.03876877 0.09568715 -0.1593513
v -0.03876877 0.09568715 -0.1593513
v 0.2429771 0.06380057 -0.324584
v 0.06690216 0.9200945 -1.008323
v -0.532341 0.8070896 -0.4867382
v 2.004288 0.08723702 0.2337122
v 0.3517036 0.08723702 1.732267
v -0.9943695 0.08723702 0.2478409
v 0.7761192 0.08723702 -1.357628
v 1.236477 0.1841538 -0.0310545
v 0.8414154 0.3588783 -0.04763603
v 0.9913445 0.6289654 -0.7737617
v 1.386406 0.454241 -0.7571802
v 0.6127167 0.5447261 -0.8832741
v 0.4627838 0.2746389 -0.1571484
v 1.236477 0.1841538 -0.0310545
v 1.386406 0.454241 -0.7571802
v 0.9913445 0.6289654 -0.7737617
v 0.8414154 0.3588783 -0.04763603
v 0.6127167 0.5447261 -0.8832741
v 0.4627838 0.2746389 -0.1571484
v 1.289032 0.5592995 -0.341857
v 1.706875 0.5662984 -0.2883596
v 1.654768 0.510341 0.1259546
v 1.236925 0.5033422 0.07245922
v 1.289032 0.5592995 -0.341857
v 1.236925 0.5033422 0.07245922
v 1.654768 0.510341 0.1259546
v 1.706875 0.5662984 -0.2883596
v -1.583237 0.323963 -0.4377699
v -1.101543 0.5024385 -0.009549141
v -1.859047 0.4631971 0.874177
v -2.34074 0.2847219 0.4459562
v -1.417385 0.2215902 1.242462
v -0.6598816 0.2608313 0.3587351
v -1.583237 0.323963 -0.4377699
v -2.34074 0.2847219 0.4459562
v -1.859047 0.4631971 0.874177
v -1.101543 0.5024385 -0.009549141
v -1.417385 0.2215902 1.242462
v -0.6598816 0.2608313 0.3587351

vn -0.1430717 0.978743 -0.1469447
vn -0.1430717 0.978743 -0.1469447
vn -0.1430717 0.978743 -0.1469446
vn -0.1430717 0.978743 -0.1469447
vn 0.1430717 -0.978743 0.1469447
vn 0.1430717 -0.978743 0.1469446
vn 0.1430717 -0.978743 0.1469447
vn 0.1430717 -0.978743 0.1469447
vn -0.4619068 0.8575175 0.2265078
vn -0.4619069 0.8575175 0.2265078
vn -0.4619069 0.8575175 0.2265078
vn -0.4619069 0.8575175 0.2265078
vn 0.4619067 -0.8575176 -0.2265078
vn 0.4619068 -0.8575175 -0.2265078
vn 0.4619067 -0.8575176 -0.2265078
vn 0.4619067 -0.8575176 -0.2265078
vn -0.0111427 0.9940385 -0.1084585
vn -0.0111427 0.9940385 -0.1084585
vn -0.0111427 0.9940385 -0.1084585
vn -0.0111427 0.9940385 -0.1084585
vn 0.01114274 -0.9940385 0.1084586
vn 0.01114274 -0.9940385 0.1084586
vn 0.01114274 -0.9940385 0.1084586
vn 0.01114274 -0.9940385 0.1084586
vn 0.1695204 0.8883984 0.4266275
vn 0.1695204 0.8883984 0.4266275
vn 0.1695204 0.8883984 0.4266275
vn 0.1695204 0.8883984 0.4266275
vn -0.1695204 -0.8883985 -0.4266274
vn -0.1695204 -0.8883985 -0.4266275
vn -0.1695204 -0.8883985 -0.4266275
vn -0.1695204 -0.8883985 -0.4266275
vn 0.06724104 0.9759741 -0.2072514
vn 0.09152829 0.9894294 0.1124811
vn 0.09152827 0.9894295 0.1124808
vn 0.06724104 0.9759741 -0.2072514
vn 0.1070771 0.8903502 0.4425054
vn 0.1070771 0.8903502 0.4425053
vn -0.06724095 -0.9759741 0.2072514
vn -0.06724095 -0.9759741 0.2072514
vn -0.09152821 -0.9894295 -0.1124807
vn -0.09152823 -0.9894294 -0.112481
vn -0.1070771 -0.8903503 -0.4425053
vn -0.1070771 -0.8903503 -0.4425052
vn -0.02632315 0.9285687 -0.370226
vn 0.262005 0.9373682 -0.2295522
vn 0.2620049 0.9373683 -0.2295523
vn -0.02632315 0.9285687 -0.370226
vn 0.5411929 0.8392681 -0.05233767
vn 0.5411929 0.8392681 -0.05233766
vn 0.02632292 -0.9285687 0.370226
vn 0.02632292 -0.9285687 0.370226
vn -0.2620049 -0.9373682 0.2295523
vn -0.2620051 -0.9373682 0.2295522
vn -0.5411929 -0.8392681 0.05233767
vn -0.5411929 -0.8392681 0.05233766
vn -0.2981369 0.896737 0.3270736
vn -0.2089965 0.9774343 0.03070242
vn -0.2083726 0.9776242 0.02884142
vn -0.2981369 0.896737 0.3270736
vn -0.08887462 0.9521633 -0.2923806
vn -0.08887463 0.9521632 -0.2923806
vn 0.2981365 -0.8967372 -0.3270736
vn 0.2981366 -0.8967371 -0.3270736
vn 0.2083724 -0.9776242 -0.02884141
vn 0.2089963 -0.9774343 -0.03070239
vn 0.08887462 -0.9521632 0.2923806
vn 0.08887463 -0.9521632 0.2923806
vn 0.4778973 -0.7585047 0.4430403
vn 0.4778973 -0.7585048 0.4430404
vn 0.4778973 -0.7585048 0.4430403
vn 0.4778972 -0.7585048 0.4430403
vn -0.4778974 0.7585047 -0.4430403
vn -0.4778974 0.7585047 -0.4430403
vn -0.4778974 0.7585046 -0.4430403
vn -0.4778974 0.7585047 -0.4430403
vn -0.3130842 0.9496697 0.01028835
vn -0.3130842 0.9496697 0.01028835
vn -0.3130842 0.9496697 0.01028835
vn -0.3130842 0.9496697 0.01028835
vn 0.3130844 -0.9496695 -0.01028833
vn 0.3130843 -0.9496696 -0.01028833
vn 0.3130844 -0.9496695 -0.01028833
vn 0.3130844 -0.9496696 -0.01028833
vn 0.4505401 0.6117937 0.6501709
vn 0.4505401 0.6117936 0.6501709
vn 0.4505401 0.6117936 0.6501709
vn 0.4505401 0.6117936 0.6501709
vn -0.4505406 -0.6117935 -0.6501707
vn -0.4505406 -0.6117934 -0.6501707
vn -0.4505405 -0.6117934 -0.6501708
vn -0.4505406 -0.6117934 -0.6501707
vn 0 1 0
vn 0 1 0
vn 0 1 0
vn 0 1 0
vn 0.3587956 0.8482263 0.3895868
vn 0.05082385 0.9325781 0.3573724
vn 0.05082397 0.9325781 0.3573724
vn 0.3587956 0.8482263 0.3895868
vn -0.2853211 0.9160612 0.2818221
vn -0.2853211 0.9160612 0.2818221
vn -0.3587957 -0.8482262 -0.3895868
vn -0.3587957 -0.8482262 -0.3895868
vn -0.05082408 -0.932578 -0.3573724
vn -0.05082392 -0.9325781 -0.3573724
vn 0.2853211 -0.9160612 -0.2818221
vn 0.2853211 -0.9160612 -0.2818221
vn -0.0332007 0.9910014 0.129669
vn -0.0332007 0.9910014 0.129669
vn -0.0332007 0.9910014 0.129669
vn -0.0332007 0.9910014 0.129669
vn 0.03320066 -0.9910014 -0.129669
vn 0.03320066 -0.9910014 -0.129669
vn 0.03320066 -0.9910014 -0.129669
vn 0.03320066 -0.9910014 -0.129669
vn -0.2240883 0.9630621 -0.1493178
vn 0.01650695 0.9981526 0.05847139
vn 0.01800427 0.998051 0.05975034
vn -0.2240883 0.9630621 -0.1493177
vn 0.2740272 0.9213274 0.2757986
vn 0.2740272 0.9213274 0.2757986
vn 0.2240884 -0.9630621 0.1493177
vn 0.2240883 -0.9630621 0.1493177
vn -0.01800418 -0.998051 -0.05975034
vn -0.01650685 -0.9981526 -0.05847139
vn -0.2740272 -0.9213274 -0.2757986
vn -0.2740271 -0.9213274 -0.2757987

vt 0.7104492 0.08880615
vt 0.7104492 0.1160889
vt 0.7470703 0.1010742
vt 0.7436523 0.09014893
vt 0.7436523 0.09014893
vt 0.7470703 0.1010742
vt 0.7104492 0.1160889
vt 0.7104492 0.08880615
vt 0.7104492 0.08880615
vt 0.7104492 0.1160889
vt 0.7470703 0.1010742
vt 0.7436523 0.09014893
vt 0.7436523 0.09014893
vt 0.7470703 0.1010742
vt 0.7104492 0.1160889
vt 0.7104492 0.08880615
vt 0.6601563 0.02832031
vt 0.6875 0.02832031
vt 0.6875 0.002780914
vt 0.6601563 0.002780914
vt 0.6601563 0.02832031
vt 0.6601563 0.002780914
vt 0.6875 0.002780914
vt 0.6875 0.02832031
vt 0.706543 0.09033203
vt 0.706543 0.1160889
vt 0.7412109 0.1019287
vt 0.737793 0.09161377
vt 0.737793 0.09161377
vt 0.7412109 0.1019287
vt 0.706543 0.1160889
vt 0.706543 0.09033203
vt 0.6503906 0.03137207
vt 0.6503906 0.05950928
vt 0.7075195 0.05950928
vt 0.7075195 0.03137207
vt 0.7075195 0.08551025
vt 0.6503906 0.08551025
vt 0.6503906 0.03137207
vt 0.7075195 0.03137207
vt 0.7075195 0.05950928
vt 0.6503906 0.05950928
vt 0.7075195 0.08551025
vt 0.6503906 0.08551025
vt 0.6503906 0.03137207
vt 0.6503906 0.05950928
vt 0.7075195 0.05950928
vt 0.7075195 0.03137207
vt 0.7075195 0.08551025
vt 0.6503906 0.08551025
vt 0.6503906 0.03137207
vt 0.7075195 0.03137207
vt 0.7075195 0.05950928
vt 0.6503906 0.05950928
vt 0.7075195 0.08551025
vt 0.6503906 0.08551025
vt 0.6503906 0.08843994
vt 0.6503906 0.1165771
vt 0.7075195 0.1165771
vt 0.7075195 0.08843994
vt 0.7075195 0.1425781
vt 0.6503906 0.1425781
vt 0.6503906 0.08843994
vt 0.7075195 0.08843994
vt 0.7075195 0.1165771
vt 0.6503906 0.1165771
vt 0.7075195 0.1425781
vt 0.6503906 0.1425781
vt 0.7475586 0.06384277
vt 0.7514648 0.1036377
vt 0.7827148 0.1065674
vt 0.7827148 0.05969238
vt 0.7475586 0.06384277
vt 0.7827148 0.05969238
vt 0.7827148 0.1065674
vt 0.7514648 0.1036377
vt 0.6601563 0.02832031
vt 0.6875 0.02832031
vt 0.6875 0.002780914
vt 0.6601563 0.002780914
vt 0.6601563 0.02832031
vt 0.6601563 0.002780914
vt 0.6875 0.002780914
vt 0.6875 0.02832031
vt 0.7104492 0.08880615
vt 0.7104492 0.1160889
vt 0.7470703 0.1010742
vt 0.7436523 0.09014893
vt 0.7436523 0.09014893
vt 0.7470703 0.1010742
vt 0.7104492 0.1160889
vt 0.7104492 0.08880615
vt 0.7104492 0.0682373
vt 0.7104492 0.144165
vt 0.7827148 0.144165
vt 0.7827148 0.05969238
vt 0.6503906 0.03137207
vt 0.6503906 0.05950928
vt 0.7075195 0.05950928
vt 0.7075195 0.03137207
vt 0.7075195 0.08551025
vt 0.6503906 0.08551025
vt 0.6503906 0.03137207
vt 0.7075195 0.03137207
vt 0.7075195 0.05950928
vt 0.6503906 0.05950928
vt 0.7075195 0.08551025
vt 0.6503906 0.08551025
vt 0.6601563 0.02832031
vt 0.6875 0.02832031
vt 0.6875 0.002780914
vt 0.6601563 0.002780914
vt 0.6601563 0.02832031
vt 0.6601563 0.002780914
vt 0.6875 0.002780914
vt 0.6875 0.02832031
vt 0.6503906 0.08843994
vt 0.6503906 0.1165771
vt 0.7075195 0.1165771
vt 0.7075195 0.08843994
vt 0.7075195 0.1425781
vt 0.6503906 0.1425781
vt 0.6503906 0.08843994
vt 0.7075195 0.08843994
vt 0.7075195 0.1165771
vt 0.6503906 0.1165771
vt 0.7075195 0.1425781
vt 0.6503906 0.1425781

g Alpha_1088_320
usemtl Alpha_1088_320
usemap Alpha_1088_320
f 1/1/1 3/3/3 2/2/2
f 1/1/1 4/4/4 3/3/3
f 5/5/5 7/7/7 6/6/6
f 5/5/5 8/8/8 7/7/7
f 9/9/9 11/11/11 10/10/10
f 9/9/9 12/12/12 11/11/11
f 13/13/13 15/15/15 14/14/14
f 13/13/13 16/16/16 15/15/15
f 17/17/17 19/19/19 18/18/18
f 17/17/17 20/20/20 19/19/19
f 21/21/21 23/23/23 22/22/22
f 21/21/21 24/24/24 23/23/23
f 25/25/25 27/27/27 26/26/26
f 25/25/25 28/28/28 27/27/27
f 29/29/29 31/31/31 30/30/30
f 29/29/29 32/32/32 31/31/31
f 33/33/33 35/35/35 34/34/34
f 33/33/33 36/36/36 35/35/35
f 34/34/34 35/35/35 37/37/37
f 34/34/34 37/37/37 38/38/38
f 39/39/39 41/41/41 40/40/40
f 39/39/39 42/42/42 41/41/41
f 42/42/42 43/43/43 41/41/41
f 42/42/42 44/44/44 43/43/43
f 45/45/45 47/47/47 46/46/46
f 45/45/45 48/48/48 47/47/47
f 46/46/46 47/47/47 49/49/49
f 46/46/46 49/49/49 50/50/50
f 51/51/51 53/53/53 52/52/52
f 51/51/51 54/54/54 53/53/53
f 54/54/54 55/55/55 53/53/53
f 54/54/54 56/56/56 55/55/55
f 57/57/57 59/59/59 58/58/58
f 57/57/57 60/60/60 59/59/59
f 58/58/58 59/59/59 61/61/61
f 58/58/58 61/61/61 62/62/62
f 63/63/63 65/65/65 64/64/64
f 63/63/63 66/66/66 65/65/65
f 66/66/66 67/67/67 65/65/65
f 66/66/66 68/68/68 67/67/67
f 69/69/69 71/71/71 70/70/70
f 69/69/69 72/72/72 71/71/71
f 73/73/73 75/75/75 74/74/74
f 73/73/73 76/76/76 75/75/75
f 77/77/77 79/79/79 78/78/78
f 77/77/77 80/80/80 79/79/79
f 81/81/81 83/83/83 82/82/82
f 81/81/81 84/84/84 83/83/83
f 85/85/85 87/87/87 86/86/86
f 85/85/85 88/88/88 87/87/87
f 89/89/89 91/91/91 90/90/90
f 89/89/89 92/92/92 91/91/91
f 93/93/93 95/95/95 94/94/94
f 93/93/93 96/96/96 95/95/95
f 97/97/97 99/99/99 98/98/98
f 97/97/97 100/100/100 99/99/99
f 98/98/98 99/99/99 101/101/101
f 98/98/98 101/101/101 102/102/102
f 103/103/103 105/105/105 104/104/104
f 103/103/103 106/106/106 105/105/105
f 106/106/106 107/107/107 105/105/105
f 106/106/106 108/108/108 107/107/107
f 109/109/109 111/111/111 110/110/110
f 109/109/109 112/112/112 111/111/111
f 113/113/113 115/115/115 114/114/114
f 113/113/113 116/116/116 115/115/115
f 117/117/117 119/119/119 118/118/118
f 117/117/117 120/120/120 119/119/119
f 118/118/118 119/119/119 121/121/121
f 118/118/118 121/121/121 122/122/122
f 123/123/123 125/125/125 124/124/124
f 123/123/123 126/126/126 125/125/125
f 126/126/126 127/127/127 125/125/125
f 126/126/126 128/128/128 127/127/127
