#alpha_1538_240.obj

v 1.148567 1.450531 -0.4521901
v 0.112227 1.016875 -0.6184906
v 0.1818433 0.6037095 -1.380336
v 1.427094 1.054437 -1.303458
v 1.148567 1.450531 -0.4521901
v 1.427094 1.054437 -1.303458
v 0.1818433 0.6037095 -1.380336
v 0.112227 1.016875 -0.6184906
v -0.8844084 0.4740292 0.108959
v -0.7675365 0.1615131 -0.9765777
v -1.545094 0.334074 -1.325273
v -1.807945 0.7336949 -0.0879666
v -0.8844084 0.4740292 0.108959
v -1.807945 0.7336949 -0.0879666
v -1.545094 0.334074 -1.325273
v -0.7675365 0.1615131 -0.9765777
v -1.100746 0.2455475 -1.547601
v -0.530042 0.5301423 -2.034649
v -0.139726 0.2242582 -1.041759
v -0.4293319 0.1276793 -0.9213437
v -0.4293319 0.1276793 -0.9213437
v -0.139726 0.2242582 -1.041759
v -0.530042 0.5301423 -2.034649
v -1.100746 0.2455475 -1.547601
v 1.277975 0.4362061 -1.120391
v 0.8754572 0.2787085 -1.783167
v 0.04902026 0.4464521 -1.321114
v 0.1275239 0.5558723 -0.8997325
v 1.277975 0.4362061 -1.120391
v 0.1275239 0.5558723 -0.8997325
v 0.04902026 0.4464521 -1.321114
v 0.8754572 0.2787085 -1.783167
v -0.2387417 1.633144 0.9559858
v -0.8932197 1.301506 0.6597221
v -0.4539315 1.192481 -0.1886687
v -0.04054669 1.348807 -0.1693669
v -0.2387417 1.633144 0.9559858
v -0.04054669 1.348807 -0.1693669
v -0.4539315 1.192481 -0.1886687
v -0.8932197 1.301506 0.6597221
v 0.3513258 1.175329 -0.8899451
v 0.03495722 1.275112 -0.4669618
v -0.7442115 1.324383 -1.06136
v -0.4278415 1.2246 -1.484345
v -1.022833 1.092328 -0.7153651
v -0.2436657 1.043057 -0.1209655
v 0.3513258 1.175329 -0.8899451
v -0.4278415 1.2246 -1.484345
v -0.7442115 1.324383 -1.06136
v 0.03495722 1.275112 -0.4669618
v -1.022833 1.092328 -0.7153651
v -0.2436657 1.043057 -0.1209655
v 0.9124917 1.064802 -0.9916351
v 0.6135083 1.079029 -1.045394
v 0.7114009 1.071664 -1.591771
v 1.010384 1.057438 -1.538012
v 0.4842176 0.906427 -1.630245
v 0.3863264 0.9137915 -1.08387
v 0.9124917 1.064802 -0.9916351
v 1.010384 1.057438 -1.538012
v 0.7114009 1.071664 -1.591771
v 0.6135083 1.079029 -1.045394
v 0.4842176 0.906427 -1.630245
v 0.3863264 0.9137915 -1.08387
v 0.1143183 1.210072 -0.193849
v 0.07653795 1.264501 -0.4773486
v 0.5435148 1.459767 -0.5064636
v 0.5812952 1.405338 -0.222964
v 0.5756676 1.346745 -0.7512626
v 0.1086907 1.151479 -0.7221476
v 0.1143183 1.210072 -0.193849
v 0.5812952 1.405338 -0.222964
v 0.5435148 1.459767 -0.5064636
v 0.07653795 1.264501 -0.4773486
v 0.5756676 1.346745 -0.7512626
v 0.1086907 1.151479 -0.7221476
v 0.5450307 0.6063566 -0.8715494
v 0.08645588 0.7054486 -0.9706907
v 0.174466 0.381638 -1.735351
v 0.6330408 0.2825461 -1.63621
v -0.2361465 0.2063918 -1.708658
v -0.3241552 0.5302023 -0.9439983
v 0.5450307 0.6063566 -0.8715494
v 0.6330408 0.2825461 -1.63621
v 0.174466 0.381638 -1.735351
v 0.08645588 0.7054486 -0.9706907
v -0.2361465 0.2063918 -1.708658
v -0.3241552 0.5302023 -0.9439983
v -0.8141947 0.3058926 -0.6071207
v -1.14724 0.4735042 -0.5010155
v -1.270615 0.6543303 -1.173917
v -0.9375694 0.4867187 -1.280022
v -1.622045 0.5830878 -1.128628
v -1.49867 0.4022616 -0.4557268
v -0.8141947 0.3058926 -0.6071207
v -0.9375694 0.4867187 -1.280022
v -1.270615 0.6543303 -1.173917
v -1.14724 0.4735042 -0.5010155
v -1.622045 0.5830878 -1.128628
v -1.49867 0.4022616 -0.4557268
v -0.7903138 0.04308054 1.601388
v -1.527453 0.04308054 -0.50416
v 0.3638473 0.04308054 -1.166293
v 1.153577 0.04308054 1.089474
v 1.243616 1.274435 -0.9272637
v 1.091138 1.211744 -0.5395468
v 0.705062 1.312028 -0.675162
v 0.857539 1.374719 -1.062879
v 1.243616 1.274435 -0.9272637
v 0.857539 1.374719 -1.062879
v 0.705062 1.312028 -0.675162
v 1.091138 1.211744 -0.5395468
v -0.801877 0.4465117 -0.07744727
v -1.183034 0.5734698 0.04945322
v -1.31793 0.5673845 -0.3496319
v -0.9367735 0.4404264 -0.4765324
v -0.801877 0.4465117 -0.07744727
v -0.9367735 0.4404264 -0.4765324
v -1.31793 0.5673845 -0.3496319
v -1.183034 0.5734698 0.04945322

vn -0.1330582 0.8350554 0.5338334
vn -0.1330582 0.8350554 0.5338334
vn -0.1330582 0.8350554 0.5338334
vn -0.1330582 0.8350554 0.5338334
vn 0.1330582 -0.8350554 -0.5338334
vn 0.1330582 -0.8350554 -0.5338334
vn 0.1330582 -0.8350554 -0.5338334
vn 0.1330582 -0.8350554 -0.5338334
vn 0.3837491 -0.9223127 0.04556246
vn 0.3837491 -0.9223127 0.04556248
vn 0.383749 -0.9223127 0.04556245
vn 0.383749 -0.9223127 0.04556246
vn -0.3837489 0.9223128 -0.04556245
vn -0.3837489 0.9223127 -0.04556243
vn -0.3837489 0.9223128 -0.04556245
vn -0.3837489 0.9223128 -0.04556245
vn 0.358573 0.9230618 -0.1392206
vn 0.358573 0.9230618 -0.1392206
vn 0.358573 0.9230618 -0.1392206
vn 0.358573 0.9230618 -0.1392206
vn -0.358573 -0.9230618 0.1392205
vn -0.358573 -0.9230618 0.1392206
vn -0.358573 -0.9230618 0.1392206
vn -0.358573 -0.9230618 0.1392206
vn 0.2160364 -0.9643387 -0.1529027
vn 0.2160364 -0.9643387 -0.1529027
vn 0.2160364 -0.9643387 -0.1529027
vn 0.2160364 -0.9643387 -0.1529027
vn -0.2160363 0.9643387 0.1529027
vn -0.2160362 0.9643387 0.1529026
vn -0.2160363 0.9643387 0.1529026
vn -0.2160363 0.9643387 0.1529027
vn 0.03945197 0.9008217 0.4323931
vn 0.03945202 0.9008217 0.4323931
vn 0.03945197 0.9008217 0.4323932
vn 0.03945202 0.9008217 0.4323931
vn -0.03945196 -0.9008217 -0.4323932
vn -0.03945197 -0.9008217 -0.4323932
vn -0.03945196 -0.9008217 -0.4323932
vn -0.03945197 -0.9008217 -0.4323932
vn -0.1912689 0.9813372 -0.01983991
vn 0.1255936 0.9895996 -0.07013407
vn 0.1255935 0.9895996 -0.07013409
vn -0.1912689 0.9813372 -0.01983991
vn 0.4510356 0.8849315 -0.116031
vn 0.4510356 0.8849315 -0.116031
vn 0.191269 -0.9813371 0.01983982
vn 0.191269 -0.9813371 0.0198398
vn -0.1255935 -0.9895996 0.07013404
vn -0.1255935 -0.9895996 0.07013403
vn -0.4510356 -0.8849315 0.116031
vn -0.4510356 -0.8849315 0.116031
vn -0.03828642 0.998817 -0.0299768
vn 0.1500813 0.9621973 0.2272707
vn 0.1500811 0.9621974 0.2272705
vn -0.03828642 0.998817 -0.0299768
vn 0.3348972 0.8125343 0.477108
vn 0.3348971 0.8125343 0.477108
vn 0.03828638 -0.998817 0.02997688
vn 0.03828638 -0.998817 0.02997688
vn -0.1500813 -0.9621973 -0.2272705
vn -0.1500815 -0.9621972 -0.2272708
vn -0.3348973 -0.8125341 -0.4771082
vn -0.3348973 -0.8125341 -0.4771082
vn 0.4168643 0.9043832 0.09118794
vn 0.2145552 0.9161314 0.3386285
vn 0.2132228 0.9159104 0.3400651
vn 0.4168643 0.9043832 0.09118794
vn -0.02822688 0.8235596 0.5665269
vn -0.02822685 0.8235597 0.5665269
vn -0.4168644 -0.9043832 -0.09118786
vn -0.4168644 -0.9043832 -0.09118786
vn -0.2132229 -0.9159104 -0.3400649
vn -0.2145554 -0.9161315 -0.3386284
vn 0.02822703 -0.8235596 -0.5665269
vn 0.028227 -0.8235597 -0.5665269
vn -0.4359616 0.8975339 0.06610902
vn -0.238664 0.9179011 0.3170128
vn -0.237355 0.9177333 0.318478
vn -0.4359616 0.8975339 0.06610899
vn 0.001484364 0.8344191 0.5511284
vn 0.001484364 0.8344191 0.5511285
vn 0.4359617 -0.8975338 -0.06610894
vn 0.4359617 -0.8975338 -0.06610894
vn 0.2373551 -0.9177333 -0.318478
vn 0.238664 -0.9179011 -0.3170129
vn -0.001484424 -0.8344191 -0.5511285
vn -0.001484364 -0.8344191 -0.5511285
vn -0.2481067 0.8647225 -0.4366898
vn 0.02129841 0.9571571 -0.2887847
vn 0.02129833 0.9571571 -0.2887848
vn -0.2481067 0.8647225 -0.4366899
vn 0.3078055 0.9464899 -0.0970188
vn 0.3078055 0.9464899 -0.09701879
vn 0.2481067 -0.8647225 0.4366899
vn 0.2481067 -0.8647225 0.4366898
vn -0.02129841 -0.9571571 0.2887847
vn -0.02129847 -0.9571571 0.2887847
vn -0.3078055 -0.9464899 0.09701878
vn -0.3078056 -0.9464899 0.09701879
vn 0 1 0
vn 0 1 0
vn 0 1 0
vn 0 1 0
vn 0.03006299 0.9597924 -0.2790965
vn 0.030063 0.9597924 -0.2790965
vn 0.030063 0.9597924 -0.2790965
vn 0.030063 0.9597924 -0.2790965
vn -0.03006296 -0.9597924 0.2790965
vn -0.03006295 -0.9597924 0.2790965
vn -0.03006296 -0.9597924 0.2790965
vn -0.03006295 -0.9597924 0.2790965
vn -0.2788746 0.9534073 -0.1150801
vn -0.2788747 0.9534073 -0.1150801
vn -0.2788747 0.9534073 -0.1150801
vn -0.2788747 0.9534073 -0.1150801
vn 0.2788747 -0.9534073 0.11508
vn 0.2788747 -0.9534073 0.11508
vn 0.2788747 -0.9534073 0.11508
vn 0.2788747 -0.9534073 0.11508

vt 0.7475586 0.06384277
vt 0.7514648 0.1036377
vt 0.7827148 0.1065674
vt 0.7827148 0.05969238
vt 0.7475586 0.06384277
vt 0.7827148 0.05969238
vt 0.7827148 0.1065674
vt 0.7514648 0.1036377
vt 0.7475586 0.06384277
vt 0.7514648 0.1036377
vt 0.7827148 0.1065674
vt 0.7827148 0.05969238
vt 0.7475586 0.06384277
vt 0.7827148 0.05969238
vt 0.7827148 0.1065674
vt 0.7514648 0.1036377
vt 0.7104492 0.08880615
vt 0.7104492 0.1160889
vt 0.7470703 0.1010742
vt 0.7436523 0.09014893
vt 0.7436523 0.09014893
vt 0.7470703 0.1010742
vt 0.7104492 0.1160889
vt 0.7104492 0.08880615
vt 0.7104492 0.1172485
vt 0.7104492 0.144165
vt 0.7451172 0.144165
vt 0.7504883 0.1300049
vt 0.7104492 0.1172485
vt 0.7504883 0.1300049
vt 0.7451172 0.144165
vt 0.7104492 0.144165
vt 0.7104492 0.1172485
vt 0.7104492 0.144165
vt 0.7451172 0.144165
vt 0.7504883 0.1300049
vt 0.7104492 0.1172485
vt 0.7504883 0.1300049
vt 0.7451172 0.144165
vt 0.7104492 0.144165
vt 0.6503906 0.03137207
vt 0.6503906 0.05950928
vt 0.7075195 0.05950928
vt 0.7075195 0.03137207
vt 0.7075195 0.08551025
vt 0.6503906 0.08551025
vt 0.6503906 0.03137207
vt 0.7075195 0.03137207
vt 0.7075195 0.05950928
vt 0.6503906 0.05950928
vt 0.7075195 0.08551025
vt 0.6503906 0.08551025
vt 0.6503906 0.03137207
vt 0.6503906 0.05950928
vt 0.7075195 0.05950928
vt 0.7075195 0.03137207
vt 0.7075195 0.08551025
vt 0.6503906 0.08551025
vt 0.6503906 0.03137207
vt 0.7075195 0.03137207
vt 0.7075195 0.05950928
vt 0.6503906 0.05950928
vt 0.7075195 0.08551025
vt 0.6503906 0.08551025
vt 0.6503906 0.08843994
vt 0.6503906 0.1165771
vt 0.7075195 0.1165771
vt 0.7075195 0.08843994
vt 0.7075195 0.1425781
vt 0.6503906 0.1425781
vt 0.6503906 0.08843994
vt 0.7075195 0.08843994
vt 0.7075195 0.1165771
vt 0.6503906 0.1165771
vt 0.7075195 0.1425781
vt 0.6503906 0.1425781
vt 0.6503906 0.08843994
vt 0.6503906 0.1165771
vt 0.7075195 0.1165771
vt 0.7075195 0.08843994
vt 0.7075195 0.1425781
vt 0.6503906 0.1425781
vt 0.6503906 0.08843994
vt 0.7075195 0.08843994
vt 0.7075195 0.1165771
vt 0.6503906 0.1165771
vt 0.7075195 0.1425781
vt 0.6503906 0.1425781
vt 0.6503906 0.03137207
vt 0.6503906 0.05950928
vt 0.7075195 0.05950928
vt 0.7075195 0.03137207
vt 0.7075195 0.08551025
vt 0.6503906 0.08551025
vt 0.6503906 0.03137207
vt 0.7075195 0.03137207
vt 0.7075195 0.05950928
vt 0.6503906 0.05950928
vt 0.7075195 0.08551025
vt 0.6503906 0.08551025
vt 0.7104492 0.0682373
vt 0.7104492 0.144165
vt 0.7827148 0.144165
vt 0.7827148 0.05969238
vt 0.6601563 0.02832031
vt 0.6875 0.02832031
vt 0.6875 0.002780914
vt 0.6601563 0.002780914
vt 0.6601563 0.02832031
vt 0.6601563 0.002780914
vt 0.6875 0.002780914
vt 0.6875 0.02832031
vt 0.6601563 0.02832031
vt 0.6875 0.02832031
vt 0.6875 0.002780914
vt 0.6601563 0.002780914
vt 0.6601563 0.02832031
vt 0.6601563 0.002780914
vt 0.6875 0.002780914
vt 0.6875 0.02832031

g alpha_1538_240
usemtl alpha_1538_240
usemap alpha_1538_240
f 1/1/1 3/3/3 2/2/2
f 1/1/1 4/4/4 3/3/3
f 5/5/5 7/7/7 6/6/6
f 5/5/5 8/8/8 7/7/7
f 9/9/9 11/11/11 10/10/10
f 9/9/9 12/12/12 11/11/11
f 13/13/13 15/15/15 14/14/14
f 13/13/13 16/16/16 15/15/15
f 17/17/17 19/19/19 18/18/18
f 17/17/17 20/20/20 19/19/19
f 21/21/21 23/23/23 22/22/22
f 21/21/21 24/24/24 23/23/23
f 25/25/25 27/27/27 26/26/26
f 25/25/25 28/28/28 27/27/27
f 29/29/29 31/31/31 30/30/30
f 29/29/29 32/32/32 31/31/31
f 33/33/33 35/35/35 34/34/34
f 33/33/33 36/36/36 35/35/35
f 37/37/37 39/39/39 38/38/38
f 37/37/37 40/40/40 39/39/39
f 41/41/41 43/43/43 42/42/42
f 41/41/41 44/44/44 43/43/43
f 42/42/42 43/43/43 45/45/45
f 42/42/42 45/45/45 46/46/46
f 47/47/47 49/49/49 48/48/48
f 47/47/47 50/50/50 49/49/49
f 50/50/50 51/51/51 49/49/49
f 50/50/50 52/52/52 51/51/51
f 53/53/53 55/55/55 54/54/54
f 53/53/53 56/56/56 55/55/55
f 54/54/54 55/55/55 57/57/57
f 54/54/54 57/57/57 58/58/58
f 59/59/59 61/61/61 60/60/60
f 59/59/59 62/62/62 61/61/61
f 62/62/62 63/63/63 61/61/61
f 62/62/62 64/64/64 63/63/63
f 65/65/65 67/67/67 66/66/66
f 65/65/65 68/68/68 67/67/67
f 66/66/66 67/67/67 69/69/69
f 66/66/66 69/69/69 70/70/70
f 71/71/71 73/73/73 72/72/72
f 71/71/71 74/74/74 73/73/73
f 74/74/74 75/75/75 73/73/73
f 74/74/74 76/76/76 75/75/75
f 77/77/77 79/79/79 78/78/78
f 77/77/77 80/80/80 79/79/79
f 78/78/78 79/79/79 81/81/81
f 78/78/78 81/81/81 82/82/82
f 83/83/83 85/85/85 84/84/84
f 83/83/83 86/86/86 85/85/85
f 86/86/86 87/87/87 85/85/85
f 86/86/86 88/88/88 87/87/87
f 89/89/89 91/91/91 90/90/90
f 89/89/89 92/92/92 91/91/91
f 90/90/90 91/91/91 93/93/93
f 90/90/90 93/93/93 94/94/94
f 95/95/95 97/97/97 96/96/96
f 95/95/95 98/98/98 97/97/97
f 98/98/98 99/99/99 97/97/97
f 98/98/98 100/100/100 99/99/99
f 101/101/101 103/103/103 102/102/102
f 101/101/101 104/104/104 103/103/103
f 105/105/105 107/107/107 106/106/106
f 105/105/105 108/108/108 107/107/107
f 109/109/109 111/111/111 110/110/110
f 109/109/109 112/112/112 111/111/111
f 113/113/113 115/115/115 114/114/114
f 113/113/113 116/116/116 115/115/115
f 117/117/117 119/119/119 118/118/118
f 117/117/117 120/120/120 119/119/119
