#alpha_2825_15.obj

v -2.089062 0.343719 0.9845729
v -1.151993 0.2738385 0.3468135
v -0.581829 0.7819153 0.7624218
v -1.607099 0.9459453 1.588031
v -2.089062 0.343719 0.9845729
v -1.607099 0.9459453 1.588031
v -0.581829 0.7819153 0.7624218
v -1.151993 0.2738385 0.3468135
v -1.471268 0.762361 0.846494
v -1.088706 0.7677457 1.0229
v -1.255297 0.9177921 1.379602
v -1.637863 0.9124074 1.203194
v -1.471268 0.762361 0.846494
v -1.637863 0.9124074 1.203194
v -1.255297 0.9177921 1.379602
v -1.088706 0.7677457 1.0229
v -0.6164922 1.124295 -1.104374
v 0.04511228 1.463433 -0.8024157
v -0.6650607 1.125764 -0.01923495
v -0.8896704 1.00811 -0.2275831
v -0.8896704 1.00811 -0.2275831
v -0.6650607 1.125764 -0.01923495
v 0.04511228 1.463433 -0.8024157
v -0.6164922 1.124295 -1.104374
v -1.0138 1.005255 -0.07923757
v -0.7022201 1.184349 0.0799735
v -1.089547 1.339228 0.6637643
v -1.401127 1.160133 0.5045513
v -0.7972744 1.273926 0.8750039
v -0.4099436 1.119047 0.2912131
v -1.0138 1.005255 -0.07923757
v -1.401127 1.160133 0.5045513
v -1.089547 1.339228 0.6637643
v -0.7022201 1.184349 0.0799735
v -0.7972744 1.273926 0.8750039
v -0.4099436 1.119047 0.2912131
v -0.4770572 0.4782352 0.06670319
v -1.074385 0.6456935 0.3802646
v -1.651765 0.6993909 -0.7483073
v -1.054441 0.5319327 -1.061869
v -2.182445 0.4321422 -0.4895276
v -1.605061 0.3784448 0.6390462
v -0.4770572 0.4782352 0.06670319
v -1.054441 0.5319327 -1.061869
v -1.651765 0.6993909 -0.7483073
v -1.074385 0.6456935 0.3802646
v -2.182445 0.4321422 -0.4895276
v -1.605061 0.3784448 0.6390462
v -1.259277 0.6932877 0.3803727
v -0.8656272 0.8446452 0.3321534
v -0.7713615 0.844503 1.101266
v -1.165011 0.6931455 1.149485
v -0.3965876 0.7258777 1.05531
v -0.4908533 0.7260199 0.2861975
v -1.259277 0.6932877 0.3803727
v -1.165011 0.6931455 1.149485
v -0.7713615 0.844503 1.101266
v -0.8656272 0.8446452 0.3321534
v -0.3965876 0.7258777 1.05531
v -0.4908533 0.7260199 0.2861975
v -1.369037 0.4644932 0.4383752
v -1.060644 0.2715791 0.1626045
v -0.1530385 0.4896567 1.73689
v -0.2603314 0.06636488 0.3438779
v 0.2639788 0.2246844 1.351508
v 0.2639788 0.2246844 1.351508
v -1.060644 0.2715791 0.1626045
v -1.369037 0.4644932 0.4383752
v -0.1530385 0.4896567 1.73689
v -0.2603314 0.06636488 0.3438779
v -2.542324 0.6146033 -0.7540923
v -1.927902 0.3369827 -1.189203
v -1.818126 0.1321399 -0.1039712
v -2.100246 0.274451 -0.01534157
v -2.100246 0.274451 -0.01534157
v -1.818126 0.1321399 -0.1039712
v -1.927902 0.3369827 -1.189203
v -2.542324 0.6146033 -0.7540923
v -2.431668 0.3220962 -0.1498035
v -2.105349 0.3546739 0.03773128
v -2.450348 0.5364035 0.6064878
v -2.77667 0.5038257 0.418955
v -2.224721 0.3503498 0.8027976
v -1.879719 0.1686202 0.234041
v -2.431668 0.3220962 -0.1498035
v -2.77667 0.5038257 0.418955
v -2.450348 0.5364035 0.6064878
v -2.105349 0.3546739 0.03773128
v -2.224721 0.3503498 0.8027976
v -1.879719 0.1686202 0.234041
v -1.124206 0.02260217 0.3338771
v 0.237478 0.187766 -1.137518
v -1.703664 0.5630497 -0.1704155
v -0.3881606 0.5630497 -1.681999
v -0.08868356 0.02260217 1.235071
v -1.124206 0.02260217 0.3338771
v 0.237478 0.187766 -1.137518
v 1.346877 0.1015486 -0.1720276
v -1.703664 0.5630497 -0.1704155
v -0.3881606 0.5630497 -1.681999
v -0.338847 1.328176 -0.9267116
v 0.04371976 1.33356 -0.750304
v -0.1228752 1.483607 -0.3936018
v -0.5054381 1.478222 -0.5700095
v -0.338847 1.328176 -0.9267116
v -0.5054381 1.478222 -0.5700095
v -0.1228752 1.483607 -0.3936018
v 0.04371976 1.33356 -0.750304
v -2.091288 0.5110629 -0.9647688
v -1.330927 0.6769559 -1.107677
v -1.090351 0.3121727 -0.2511233
v -1.450274 0.1667764 -0.03896423
v -2.091288 0.5110629 -0.9647688
v -1.450274 0.1667764 -0.03896423
v -1.090351 0.3121727 -0.2511233
v -1.330927 0.6769559 -1.107677

vn -0.5432377 0.7849923 0.2977919
vn -0.5432377 0.7849923 0.2977919
vn -0.5432377 0.7849922 0.2977919
vn -0.5432377 0.7849922 0.2977919
vn 0.5432377 -0.7849923 -0.2977919
vn 0.5432377 -0.7849922 -0.2977919
vn 0.5432377 -0.7849922 -0.2977919
vn 0.5432377 -0.7849923 -0.2977919
vn -0.3259072 0.9343448 -0.1441676
vn -0.3259071 0.9343448 -0.1441676
vn -0.3259071 0.9343448 -0.1441676
vn -0.3259072 0.9343448 -0.1441676
vn 0.3259072 -0.9343448 0.1441676
vn 0.3259072 -0.9343448 0.1441676
vn 0.3259072 -0.9343448 0.1441676
vn 0.3259072 -0.9343448 0.1441676
vn -0.02931558 0.8936044 0.447897
vn -0.02931558 0.8936045 0.447897
vn -0.02931558 0.8936044 0.447897
vn -0.02931558 0.8936044 0.447897
vn 0.02931551 -0.8936044 -0.447897
vn 0.02931551 -0.8936044 -0.447897
vn 0.0293155 -0.8936045 -0.447897
vn 0.0293155 -0.8936044 -0.447897
vn -0.4220771 0.8636028 0.2757558
vn -0.2675483 0.9634596 0.01279373
vn -0.2675483 0.9634596 0.01279372
vn -0.4220771 0.8636028 0.2757559
vn -0.07111474 0.9600296 -0.2707136
vn -0.07111474 0.9600296 -0.2707136
vn 0.422077 -0.8636028 -0.2757558
vn 0.422077 -0.8636028 -0.2757558
vn 0.2675483 -0.9634596 -0.01279373
vn 0.2675483 -0.9634596 -0.01279373
vn 0.07111477 -0.9600296 0.2707136
vn 0.07111476 -0.9600296 0.2707136
vn -0.06906237 0.9696236 -0.2346499
vn 0.07248788 0.9960038 0.05217259
vn 0.0724879 0.9960037 0.05217263
vn -0.06906235 0.9696236 -0.2346499
vn 0.2159913 0.9100332 0.3538182
vn 0.2159913 0.9100332 0.3538182
vn 0.06906237 -0.9696236 0.2346499
vn 0.06906235 -0.9696236 0.2346499
vn -0.0724879 -0.9960037 -0.05217263
vn -0.07248788 -0.9960038 -0.05217259
vn -0.2159913 -0.9100332 -0.3538182
vn -0.2159913 -0.9100332 -0.3538182
vn 0.03719281 0.9342722 0.3546156
vn 0.004568562 0.9991074 0.04199503
vn 0.004568563 0.9991074 0.04199506
vn 0.03719281 0.9342722 0.3546157
vn -0.03094666 0.9540254 -0.2981237
vn -0.03094666 0.9540254 -0.2981237
vn -0.03719277 -0.9342722 -0.3546156
vn -0.03719277 -0.9342722 -0.3546156
vn -0.004568516 -0.9991074 -0.04199504
vn -0.004568515 -0.9991074 -0.04199501
vn 0.03094671 -0.9540254 0.2981237
vn 0.03094671 -0.9540254 0.2981237
vn -0.2930029 0.9060795 -0.3052363
vn -0.2930027 0.9060797 -0.305236
vn -0.2930027 0.9060798 -0.3052358
vn -0.2930026 0.9060798 -0.3052358
vn -0.2930027 0.9060798 -0.3052358
vn 0.2930027 -0.9060797 0.305236
vn 0.2930027 -0.9060797 0.305236
vn 0.2930027 -0.9060797 0.305236
vn 0.2930028 -0.9060797 0.305236
vn 0.2930027 -0.9060798 0.3052358
vn 0.1248707 0.8715973 -0.4740522
vn 0.1248707 0.8715973 -0.4740521
vn 0.1248707 0.8715973 -0.4740522
vn 0.1248708 0.8715973 -0.4740522
vn -0.1248707 -0.8715973 0.4740521
vn -0.1248707 -0.8715973 0.4740521
vn -0.1248707 -0.8715974 0.474052
vn -0.1248707 -0.8715973 0.4740521
vn -0.2696664 0.9607883 -0.06454324
vn -0.09364407 0.9386253 -0.3319839
vn -0.09364403 0.9386253 -0.331984
vn -0.2696664 0.9607883 -0.06454325
vn 0.1058916 0.8071724 -0.5807407
vn 0.1058916 0.8071724 -0.5807407
vn 0.2696664 -0.9607883 0.06454325
vn 0.2696664 -0.9607883 0.06454325
vn 0.09364402 -0.9386253 0.331984
vn 0.09364405 -0.9386253 0.3319839
vn -0.1058916 -0.8071724 0.5807407
vn -0.1058916 -0.8071724 0.5807407
vn -0.4469627 -0.8149263 0.3689436
vn -0.3262746 -0.8875011 0.3254025
vn -0.4036583 -0.8437135 0.3538468
vn -0.2761668 -0.9110732 0.3060678
vn 0.06661199 0.9975911 0.01936262
vn 0.1667234 0.9827511 -0.08002214
vn 0.1318125 0.9891287 -0.0651911
vn 0.06661198 0.9975911 0.01936262
vn 0.4036582 0.8437135 -0.3538468
vn 0.2761668 0.9110732 -0.3060678
vn -0.3259072 0.9343448 -0.1441676
vn -0.3259072 0.9343448 -0.1441677
vn -0.3259072 0.9343448 -0.1441677
vn -0.3259072 0.9343448 -0.1441676
vn 0.3259073 -0.9343448 0.1441676
vn 0.3259073 -0.9343448 0.1441677
vn 0.3259073 -0.9343448 0.1441677
vn 0.3259073 -0.9343448 0.1441677
vn 0.4148116 0.9011827 0.1257025
vn 0.4148116 0.9011827 0.1257025
vn 0.4148116 0.9011827 0.1257025
vn 0.4148116 0.9011827 0.1257025
vn -0.4148115 -0.9011827 -0.1257025
vn -0.4148115 -0.9011828 -0.1257025
vn -0.4148115 -0.9011827 -0.1257025
vn -0.4148115 -0.9011827 -0.1257025

vt 0.7477456 0.06389309
vt 0.7518708 0.1036441
vt 0.7827574 0.1065911
vt 0.7827574 0.0597203
vt 0.7477456 0.06389309
vt 0.7827574 0.0597203
vt 0.7827574 0.1065911
vt 0.7518708 0.1036441
vt 0.6605819 0.02832909
vt 0.6876141 0.02832909
vt 0.6876141 0.002782094
vt 0.6605819 0.002782094
vt 0.6605819 0.02832909
vt 0.6605819 0.002782094
vt 0.6876141 0.002782094
vt 0.6876141 0.02832909
vt 0.7108941 0.0888281
vt 0.7108941 0.1161228
vt 0.7475335 0.1011126
vt 0.7440315 0.09020001
vt 0.7440315 0.09020001
vt 0.7475335 0.1011126
vt 0.7108941 0.1161228
vt 0.7108941 0.0888281
vt 0.6505471 0.03139362
vt 0.6505471 0.05953113
vt 0.7078462 0.05953113
vt 0.7078462 0.03139362
vt 0.7078462 0.08554447
vt 0.6505471 0.08554447
vt 0.6505471 0.03139362
vt 0.7078462 0.03139362
vt 0.7078462 0.05953113
vt 0.6505471 0.05953113
vt 0.7078462 0.08554447
vt 0.6505471 0.08554447
vt 0.6505471 0.03139362
vt 0.6505471 0.05953113
vt 0.7078462 0.05953113
vt 0.7078462 0.03139362
vt 0.7078462 0.08554447
vt 0.6505471 0.08554447
vt 0.6505471 0.03139362
vt 0.7078462 0.03139362
vt 0.7078462 0.05953113
vt 0.6505471 0.05953113
vt 0.7078462 0.08554447
vt 0.6505471 0.08554447
vt 0.6505471 0.08846883
vt 0.6505471 0.1166063
vt 0.7078462 0.1166063
vt 0.7078462 0.08846883
vt 0.7078462 0.1426197
vt 0.6505471 0.1426197
vt 0.6505471 0.08846883
vt 0.7078462 0.08846883
vt 0.7078462 0.1166063
vt 0.6505471 0.1166063
vt 0.7078462 0.1426197
vt 0.6505471 0.1426197
vt 0.7746994 0.1441667
vt 0.7744564 0.1282537
vt 0.7108941 0.1441667
vt 0.7501996 0.1109331
vt 0.7108941 0.122853
vt 0.7108941 0.122853
vt 0.7744564 0.1282537
vt 0.7746994 0.1441667
vt 0.7108941 0.1441667
vt 0.7501996 0.1109331
vt 0.7108941 0.0888281
vt 0.7108941 0.1161228
vt 0.7475335 0.1011126
vt 0.7440315 0.09020001
vt 0.7440315 0.09020001
vt 0.7475335 0.1011126
vt 0.7108941 0.1161228
vt 0.7108941 0.0888281
vt 0.6505471 0.08846883
vt 0.6505471 0.1166063
vt 0.7078462 0.1166063
vt 0.7078462 0.08846883
vt 0.7078462 0.1426197
vt 0.6505471 0.1426197
vt 0.6505471 0.08846883
vt 0.7078462 0.08846883
vt 0.7078462 0.1166063
vt 0.6505471 0.1166063
vt 0.7078462 0.1426197
vt 0.6505471 0.1426197
vt 0.7108941 0.1149788
vt 0.7827574 0.1116844
vt 0.7108941 0.1441667
vt 0.7827574 0.1441667
vt 0.7108941 0.06828515
vt 0.7108941 0.1149788
vt 0.7827574 0.1116844
vt 0.7827574 0.0597203
vt 0.7108941 0.1441667
vt 0.7827574 0.1441667
vt 0.6605819 0.02832909
vt 0.6876141 0.02832909
vt 0.6876141 0.002782094
vt 0.6605819 0.002782094
vt 0.6605819 0.02832909
vt 0.6605819 0.002782094
vt 0.6876141 0.002782094
vt 0.6876141 0.02832909
vt 0.7108941 0.1172522
vt 0.7108941 0.1441667
vt 0.7453786 0.1441667
vt 0.750905 0.1300619
vt 0.7108941 0.1172522
vt 0.750905 0.1300619
vt 0.7453786 0.1441667
vt 0.7108941 0.1441667

g alpha_2825_15
usemtl alpha_2825_15
usemap alpha_2825_15
f 1/1/1 3/3/3 2/2/2
f 1/1/1 4/4/4 3/3/3
f 5/5/5 7/7/7 6/6/6
f 5/5/5 8/8/8 7/7/7
f 9/9/9 11/11/11 10/10/10
f 9/9/9 12/12/12 11/11/11
f 13/13/13 15/15/15 14/14/14
f 13/13/13 16/16/16 15/15/15
f 17/17/17 19/19/19 18/18/18
f 17/17/17 20/20/20 19/19/19
f 21/21/21 23/23/23 22/22/22
f 21/21/21 24/24/24 23/23/23
f 25/25/25 27/27/27 26/26/26
f 25/25/25 27/27/27 26/26/26
f 25/25/25 28/28/28 27/27/27
f 25/25/25 28/28/28 27/27/27
f 26/26/26 27/27/27 29/29/29
f 26/26/26 27/27/27 29/29/29
f 26/26/26 29/29/29 30/30/30
f 26/26/26 29/29/29 30/30/30
f 31/31/31 33/33/33 32/32/32
f 31/31/31 33/33/33 32/32/32
f 31/31/31 34/34/34 33/33/33
f 31/31/31 34/34/34 33/33/33
f 34/34/34 35/35/35 33/33/33
f 34/34/34 35/35/35 33/33/33
f 34/34/34 36/36/36 35/35/35
f 34/34/34 36/36/36 35/35/35
f 37/37/37 39/39/39 38/38/38
f 37/37/37 40/40/40 39/39/39
f 38/38/38 39/39/39 41/41/41
f 38/38/38 41/41/41 42/42/42
f 43/43/43 45/45/45 44/44/44
f 43/43/43 46/46/46 45/45/45
f 46/46/46 47/47/47 45/45/45
f 46/46/46 48/48/48 47/47/47
f 49/49/49 51/51/51 50/50/50
f 49/49/49 52/52/52 51/51/51
f 50/50/50 51/51/51 53/53/53
f 50/50/50 53/53/53 54/54/54
f 55/55/55 57/57/57 56/56/56
f 55/55/55 58/58/58 57/57/57
f 58/58/58 59/59/59 57/57/57
f 58/58/58 60/60/60 59/59/59
f 61/61/61 63/63/63 62/62/62
f 64/64/64 62/62/62 63/63/63
f 64/64/64 63/63/63 65/65/65
f 66/66/66 68/68/68 67/67/67
f 66/66/66 69/69/69 68/68/68
f 66/66/66 67/67/67 70/70/70
f 71/71/71 73/73/73 72/72/72
f 71/71/71 74/74/74 73/73/73
f 75/75/75 77/77/77 76/76/76
f 75/75/75 78/78/78 77/77/77
f 79/79/79 81/81/81 80/80/80
f 79/79/79 82/82/82 81/81/81
f 80/80/80 81/81/81 83/83/83
f 80/80/80 83/83/83 84/84/84
f 85/85/85 87/87/87 86/86/86
f 85/85/85 88/88/88 87/87/87
f 88/88/88 89/89/89 87/87/87
f 88/88/88 90/90/90 89/89/89
f 91/91/91 93/93/93 92/92/92
f 92/92/92 93/93/93 94/94/94
f 95/95/95 97/97/97 96/96/96
f 95/95/95 98/98/98 97/97/97
f 96/96/96 97/97/97 99/99/99
f 99/99/99 97/97/97 100/100/100
f 101/101/101 103/103/103 102/102/102
f 101/101/101 104/104/104 103/103/103
f 105/105/105 107/107/107 106/106/106
f 105/105/105 108/108/108 107/107/107
f 109/109/109 111/111/111 110/110/110
f 109/109/109 112/112/112 111/111/111
f 113/113/113 115/115/115 114/114/114
f 113/113/113 116/116/116 115/115/115
