#alpha_2604_554.obj

v -2.089062 0.343719 0.9845734
v -1.151994 0.2738385 0.3468135
v -0.5818273 0.7819153 0.7624239
v -1.607099 0.9459453 1.588032
v -2.089062 0.343719 0.9845734
v -1.607099 0.9459453 1.588032
v -0.5818273 0.7819153 0.7624239
v -1.151994 0.2738385 0.3468135
v -1.471266 0.762361 0.8464931
v -1.088702 0.7677457 1.022903
v -1.255297 0.9177921 1.379602
v -1.637859 0.9124074 1.203196
v -1.471266 0.762361 0.8464931
v -1.637859 0.9124074 1.203196
v -1.255297 0.9177921 1.379602
v -1.088702 0.7677457 1.022903
v -0.61649 1.124295 -1.104373
v 0.04511278 1.463433 -0.8024164
v -0.6650602 1.125764 -0.0192352
v -0.8896684 1.00811 -0.2275821
v -0.8896684 1.00811 -0.2275821
v -0.6650602 1.125764 -0.0192352
v 0.04511278 1.463433 -0.8024164
v -0.61649 1.124295 -1.104373
v -1.013798 1.005255 -0.07923742
v -0.7022179 1.184349 0.07997423
v -1.089548 1.339228 0.663763
v -1.401128 1.160133 0.5045514
v -0.7972727 1.273926 0.875004
v -0.4099457 1.119047 0.291213
v -1.013798 1.005255 -0.07923742
v -1.401128 1.160133 0.5045514
v -1.089548 1.339228 0.663763
v -0.7022179 1.184349 0.07997423
v -0.7972727 1.273926 0.875004
v -0.4099457 1.119047 0.291213
v -0.4770584 0.4782352 0.06670391
v -1.074385 0.6456935 0.3802649
v -1.651765 0.6993909 -0.7483078
v -1.054438 0.5319327 -1.061869
v -2.182441 0.4321422 -0.4895251
v -1.605061 0.3784448 0.6390461
v -0.4770584 0.4782352 0.06670391
v -1.054438 0.5319327 -1.061869
v -1.651765 0.6993909 -0.7483078
v -1.074385 0.6456935 0.3802649
v -2.182441 0.4321422 -0.4895251
v -1.605061 0.3784448 0.6390461
v -1.259278 0.6932877 0.3803734
v -0.8656271 0.8446452 0.3321542
v -0.7713603 0.844503 1.101267
v -1.165011 0.6931455 1.149487
v -0.3965856 0.7258777 1.055308
v -0.4908493 0.7260199 0.2861976
v -1.259278 0.6932877 0.3803734
v -1.165011 0.6931455 1.149487
v -0.7713603 0.844503 1.101267
v -0.8656271 0.8446452 0.3321542
v -0.3965856 0.7258777 1.055308
v -0.4908493 0.7260199 0.2861976
v -1.369034 0.4644932 0.4383758
v -1.060642 0.2715791 0.1626042
v -0.1530363 0.4896567 1.736892
v -0.26033 0.06636488 0.3438782
v 0.2639794 0.2246844 1.351508
v 0.2639794 0.2246844 1.351508
v -1.060642 0.2715791 0.1626042
v -1.369034 0.4644932 0.4383758
v -0.1530363 0.4896567 1.736892
v -0.26033 0.06636488 0.3438782
v -2.542323 0.6146033 -0.7540919
v -1.927899 0.3369827 -1.189204
v -1.818126 0.1321399 -0.1039708
v -2.100245 0.274451 -0.01534121
v -2.100245 0.274451 -0.01534121
v -1.818126 0.1321399 -0.1039708
v -1.927899 0.3369827 -1.189204
v -2.542323 0.6146033 -0.7540919
v -2.431666 0.3220962 -0.1498005
v -2.105347 0.3546739 0.03773036
v -2.450347 0.5364035 0.606489
v -2.776668 0.5038257 0.4189544
v -2.224721 0.3503498 0.8027998
v -1.879721 0.1686202 0.2340411
v -2.431666 0.3220962 -0.1498005
v -2.776668 0.5038257 0.4189544
v -2.450347 0.5364035 0.606489
v -2.105347 0.3546739 0.03773036
v -2.224721 0.3503498 0.8027998
v -1.879721 0.1686202 0.2340411
v -1.124205 0.02260217 0.3338758
v 0.2374786 0.187766 -1.137516
v -1.703663 0.5630497 -0.1704144
v -0.3881624 0.5630497 -1.681999
v -0.08868238 0.02260217 1.235072
v -1.124205 0.02260217 0.3338758
v 0.2374786 0.187766 -1.137516
v 1.346878 0.1015486 -0.1720287
v -1.703663 0.5630497 -0.1704144
v -0.3881624 0.5630497 -1.681999
v -0.3388443 1.328176 -0.9267112
v 0.04372102 1.33356 -0.7503033
v -0.1228751 1.483607 -0.3936025
v -0.5054374 1.478222 -0.5700082
v -0.3388443 1.328176 -0.9267112
v -0.5054374 1.478222 -0.5700082
v -0.1228751 1.483607 -0.3936025
v 0.04372102 1.33356 -0.7503033
v -2.091287 0.5110629 -0.964766
v -1.330924 0.6769559 -1.107677
v -1.090349 0.3121727 -0.251122
v -1.450274 0.1667764 -0.03896385
v -2.091287 0.5110629 -0.964766
v -1.450274 0.1667764 -0.03896385
v -1.090349 0.3121727 -0.251122
v -1.330924 0.6769559 -1.107677

vn 0.2490502 0.7849923 -0.5672399
vn 0.2490502 0.7849923 -0.5672399
vn 0.2490502 0.7849922 -0.5672399
vn 0.2490502 0.7849922 -0.5672399
vn -0.2490502 -0.7849923 0.5672399
vn -0.2490502 -0.7849922 0.5672399
vn -0.2490502 -0.7849922 0.5672399
vn -0.2490502 -0.7849923 0.5672399
vn 0.3462274 0.9343448 -0.08441768
vn 0.3462274 0.9343448 -0.08441768
vn 0.3462274 0.9343448 -0.08441768
vn 0.3462274 0.9343448 -0.08441768
vn -0.3462274 -0.9343448 0.08441772
vn -0.3462274 -0.9343448 0.08441769
vn -0.3462274 -0.9343448 0.08441768
vn -0.3462274 -0.9343448 0.08441771
vn -0.2498291 0.8936044 -0.3729028
vn -0.249829 0.8936045 -0.3729028
vn -0.2498291 0.8936044 -0.3729029
vn -0.2498291 0.8936044 -0.3729029
vn 0.2498292 -0.8936044 0.3729028
vn 0.2498292 -0.8936044 0.3729028
vn 0.2498291 -0.8936045 0.3729028
vn 0.2498291 -0.8936044 0.3729028
vn 0.1664455 0.8636028 -0.4759056
vn 0.204275 0.9634596 -0.1732554
vn 0.2042751 0.9634596 -0.1732554
vn 0.1664455 0.8636028 -0.4759057
vn 0.221414 0.9600296 0.1712279
vn 0.221414 0.9600296 0.1712279
vn -0.1664455 -0.8636028 0.4759056
vn -0.1664455 -0.8636028 0.4759055
vn -0.204275 -0.9634596 0.1732555
vn -0.204275 -0.9634596 0.1732554
vn -0.221414 -0.9600296 -0.1712279
vn -0.221414 -0.9600296 -0.1712279
vn 0.1978005 0.9696236 0.1438929
vn -0.08926599 0.9960038 0.00283806
vn -0.08926603 0.9960037 0.002838038
vn 0.1978004 0.9696236 0.1438929
vn -0.3869178 0.9100332 -0.1487757
vn -0.3869178 0.9100332 -0.1487757
vn -0.1978005 -0.9696236 -0.1438929
vn -0.1978004 -0.9696236 -0.1438929
vn 0.08926603 -0.9960037 -0.002838038
vn 0.08926599 -0.9960038 -0.00283806
vn 0.3869178 -0.9100332 0.1487757
vn 0.3869178 -0.9100332 0.1487757
vn -0.2456774 0.9342722 -0.2584147
vn -0.02922415 0.9991074 -0.03050251
vn -0.02922417 0.9991074 -0.03050254
vn -0.2456774 0.9342722 -0.2584147
vn 0.2062853 0.9540254 0.2174438
vn 0.2062853 0.9540254 0.2174438
vn 0.2456774 -0.9342722 0.2584147
vn 0.2456774 -0.9342722 0.2584147
vn 0.02922412 -0.9991074 0.03050255
vn 0.0292241 -0.9991074 0.03050252
vn -0.2062853 -0.9540254 -0.2174438
vn -0.2062853 -0.9540254 -0.2174438
vn 0.4183432 0.9060795 0.06331562
vn 0.4183428 0.9060797 0.06331544
vn 0.4183427 0.9060798 0.06331533
vn 0.4183426 0.9060798 0.06331538
vn 0.4183426 0.9060798 0.0633153
vn -0.4183428 -0.9060797 -0.06331542
vn -0.4183428 -0.9060797 -0.06331542
vn -0.4183428 -0.9060797 -0.06331547
vn -0.4183429 -0.9060797 -0.06331545
vn -0.4183426 -0.9060798 -0.0633153
vn 0.1900322 0.8715973 0.4518915
vn 0.1900321 0.8715973 0.4518915
vn 0.1900321 0.8715973 0.4518915
vn 0.1900321 0.8715973 0.4518915
vn -0.1900321 -0.8715973 -0.4518914
vn -0.1900321 -0.8715973 -0.4518914
vn -0.1900321 -0.8715974 -0.4518914
vn -0.1900321 -0.8715973 -0.4518914
vn 0.2531036 0.9607883 -0.1132449
vn 0.2766263 0.9386253 0.2060591
vn 0.2766263 0.9386253 0.2060592
vn 0.2531036 0.9607883 -0.1132448
vn 0.2701202 0.8071724 0.5248884
vn 0.2701203 0.8071724 0.5248884
vn -0.2531035 -0.9607883 0.1132448
vn -0.2531035 -0.9607883 0.1132448
vn -0.2766263 -0.9386253 -0.2060592
vn -0.2766263 -0.9386253 -0.2060591
vn -0.2701202 -0.8071724 -0.5248883
vn -0.2701203 -0.8071724 -0.5248884
vn 0.1293583 -0.8149263 -0.5649438
vn 0.060239 -0.8875011 -0.4568514
vn 0.1042365 -0.8437135 -0.526576
vn 0.03230819 -0.9110732 -0.4109766
vn -0.06460537 0.9975911 0.0252629
vn -0.08336845 0.9827511 0.1650755
vn -0.0647379 0.9891287 0.1320356
vn -0.06460536 0.9975911 0.0252629
vn -0.1042365 0.8437135 0.5265759
vn -0.03230819 0.9110732 0.4109766
vn 0.3462275 0.9343448 -0.08441766
vn 0.3462275 0.9343448 -0.0844177
vn 0.3462275 0.9343448 -0.0844177
vn 0.3462275 0.9343448 -0.08441766
vn -0.3462275 -0.9343448 0.08441774
vn -0.3462276 -0.9343448 0.08441773
vn -0.3462276 -0.9343448 0.08441773
vn -0.3462276 -0.9343448 0.08441773
vn -0.4054409 0.9011827 0.153256
vn -0.4054409 0.9011827 0.153256
vn -0.4054409 0.9011827 0.153256
vn -0.4054409 0.9011827 0.153256
vn 0.4054408 -0.9011827 -0.153256
vn 0.4054408 -0.9011828 -0.153256
vn 0.4054408 -0.9011827 -0.153256
vn 0.4054408 -0.9011827 -0.153256

vt 0.7475586 0.06384277
vt 0.7514648 0.1036377
vt 0.7827148 0.1065674
vt 0.7827148 0.05969238
vt 0.7475586 0.06384277
vt 0.7827148 0.05969238
vt 0.7827148 0.1065674
vt 0.7514648 0.1036377
vt 0.6601563 0.02832031
vt 0.6875 0.02832031
vt 0.6875 0.002780914
vt 0.6601563 0.002780914
vt 0.6601563 0.02832031
vt 0.6601563 0.002780914
vt 0.6875 0.002780914
vt 0.6875 0.02832031
vt 0.7104492 0.08880615
vt 0.7104492 0.1160889
vt 0.7470703 0.1010742
vt 0.7436523 0.09014893
vt 0.7436523 0.09014893
vt 0.7470703 0.1010742
vt 0.7104492 0.1160889
vt 0.7104492 0.08880615
vt 0.6503906 0.03137207
vt 0.6503906 0.05950928
vt 0.7075195 0.05950928
vt 0.7075195 0.03137207
vt 0.7075195 0.08551025
vt 0.6503906 0.08551025
vt 0.6503906 0.03137207
vt 0.7075195 0.03137207
vt 0.7075195 0.05950928
vt 0.6503906 0.05950928
vt 0.7075195 0.08551025
vt 0.6503906 0.08551025
vt 0.6503906 0.03137207
vt 0.6503906 0.05950928
vt 0.7075195 0.05950928
vt 0.7075195 0.03137207
vt 0.7075195 0.08551025
vt 0.6503906 0.08551025
vt 0.6503906 0.03137207
vt 0.7075195 0.03137207
vt 0.7075195 0.05950928
vt 0.6503906 0.05950928
vt 0.7075195 0.08551025
vt 0.6503906 0.08551025
vt 0.6503906 0.08843994
vt 0.6503906 0.1165771
vt 0.7075195 0.1165771
vt 0.7075195 0.08843994
vt 0.7075195 0.1425781
vt 0.6503906 0.1425781
vt 0.6503906 0.08843994
vt 0.7075195 0.08843994
vt 0.7075195 0.1165771
vt 0.6503906 0.1165771
vt 0.7075195 0.1425781
vt 0.6503906 0.1425781
vt 0.7744141 0.144165
vt 0.7744141 0.1281738
vt 0.7104492 0.144165
vt 0.75 0.1109009
vt 0.7104492 0.1228027
vt 0.7104492 0.1228027
vt 0.7744141 0.1281738
vt 0.7744141 0.144165
vt 0.7104492 0.144165
vt 0.75 0.1109009
vt 0.7104492 0.08880615
vt 0.7104492 0.1160889
vt 0.7470703 0.1010742
vt 0.7436523 0.09014893
vt 0.7436523 0.09014893
vt 0.7470703 0.1010742
vt 0.7104492 0.1160889
vt 0.7104492 0.08880615
vt 0.6503906 0.08843994
vt 0.6503906 0.1165771
vt 0.7075195 0.1165771
vt 0.7075195 0.08843994
vt 0.7075195 0.1425781
vt 0.6503906 0.1425781
vt 0.6503906 0.08843994
vt 0.7075195 0.08843994
vt 0.7075195 0.1165771
vt 0.6503906 0.1165771
vt 0.7075195 0.1425781
vt 0.6503906 0.1425781
vt 0.7104492 0.1149292
vt 0.7827148 0.1116333
vt 0.7104492 0.144165
vt 0.7827148 0.144165
vt 0.7104492 0.0682373
vt 0.7104492 0.1149292
vt 0.7827148 0.1116333
vt 0.7827148 0.05969238
vt 0.7104492 0.144165
vt 0.7827148 0.144165
vt 0.6601563 0.02832031
vt 0.6875 0.02832031
vt 0.6875 0.002780914
vt 0.6601563 0.002780914
vt 0.6601563 0.02832031
vt 0.6601563 0.002780914
vt 0.6875 0.002780914
vt 0.6875 0.02832031
vt 0.7104492 0.1172485
vt 0.7104492 0.144165
vt 0.7451172 0.144165
vt 0.7504883 0.1300049
vt 0.7104492 0.1172485
vt 0.7504883 0.1300049
vt 0.7451172 0.144165
vt 0.7104492 0.144165

g alpha_2604_554
usemtl alpha_2604_554
usemap alpha_2604_554
f 1/1/1 3/3/3 2/2/2
f 1/1/1 4/4/4 3/3/3
f 5/5/5 7/7/7 6/6/6
f 5/5/5 8/8/8 7/7/7
f 9/9/9 11/11/11 10/10/10
f 9/9/9 12/12/12 11/11/11
f 13/13/13 15/15/15 14/14/14
f 13/13/13 16/16/16 15/15/15
f 17/17/17 19/19/19 18/18/18
f 17/17/17 20/20/20 19/19/19
f 21/21/21 23/23/23 22/22/22
f 21/21/21 24/24/24 23/23/23
f 25/25/25 27/27/27 26/26/26
f 25/25/25 27/27/27 26/26/26
f 25/25/25 28/28/28 27/27/27
f 25/25/25 28/28/28 27/27/27
f 26/26/26 27/27/27 29/29/29
f 26/26/26 27/27/27 29/29/29
f 26/26/26 29/29/29 30/30/30
f 26/26/26 29/29/29 30/30/30
f 31/31/31 33/33/33 32/32/32
f 31/31/31 33/33/33 32/32/32
f 31/31/31 34/34/34 33/33/33
f 31/31/31 34/34/34 33/33/33
f 34/34/34 35/35/35 33/33/33
f 34/34/34 35/35/35 33/33/33
f 34/34/34 36/36/36 35/35/35
f 34/34/34 36/36/36 35/35/35
f 37/37/37 39/39/39 38/38/38
f 37/37/37 40/40/40 39/39/39
f 38/38/38 39/39/39 41/41/41
f 38/38/38 41/41/41 42/42/42
f 43/43/43 45/45/45 44/44/44
f 43/43/43 46/46/46 45/45/45
f 46/46/46 47/47/47 45/45/45
f 46/46/46 48/48/48 47/47/47
f 49/49/49 51/51/51 50/50/50
f 49/49/49 52/52/52 51/51/51
f 50/50/50 51/51/51 53/53/53
f 50/50/50 53/53/53 54/54/54
f 55/55/55 57/57/57 56/56/56
f 55/55/55 58/58/58 57/57/57
f 58/58/58 59/59/59 57/57/57
f 58/58/58 60/60/60 59/59/59
f 61/61/61 63/63/63 62/62/62
f 64/64/64 62/62/62 63/63/63
f 64/64/64 63/63/63 65/65/65
f 66/66/66 68/68/68 67/67/67
f 66/66/66 69/69/69 68/68/68
f 66/66/66 67/67/67 70/70/70
f 71/71/71 73/73/73 72/72/72
f 71/71/71 74/74/74 73/73/73
f 75/75/75 77/77/77 76/76/76
f 75/75/75 78/78/78 77/77/77
f 79/79/79 81/81/81 80/80/80
f 79/79/79 82/82/82 81/81/81
f 80/80/80 81/81/81 83/83/83
f 80/80/80 83/83/83 84/84/84
f 85/85/85 87/87/87 86/86/86
f 85/85/85 88/88/88 87/87/87
f 88/88/88 89/89/89 87/87/87
f 88/88/88 90/90/90 89/89/89
f 91/91/91 93/93/93 92/92/92
f 92/92/92 93/93/93 94/94/94
f 95/95/95 97/97/97 96/96/96
f 95/95/95 98/98/98 97/97/97
f 96/96/96 97/97/97 99/99/99
f 99/99/99 97/97/97 100/100/100
f 101/101/101 103/103/103 102/102/102
f 101/101/101 104/104/104 103/103/103
f 105/105/105 107/107/107 106/106/106
f 105/105/105 108/108/108 107/107/107
f 109/109/109 111/111/111 110/110/110
f 109/109/109 112/112/112 111/111/111
f 113/113/113 115/115/115 114/114/114
f 113/113/113 116/116/116 115/115/115
