#alpha_3011_490.obj

v 1.148567 1.450531 -0.4521886
v 0.112226 1.016875 -0.6184928
v 0.1818429 0.6037095 -1.380336
v 1.427096 1.054437 -1.30346
v 1.148567 1.450531 -0.4521886
v 1.427096 1.054437 -1.30346
v 0.1818429 0.6037095 -1.380336
v 0.112226 1.016875 -0.6184928
v -0.8844082 0.4740292 0.1089584
v -0.7675378 0.1615131 -0.9765779
v -1.545092 0.334074 -1.325275
v -1.807944 0.7336949 -0.08796658
v -0.8844082 0.4740292 0.1089584
v -1.807944 0.7336949 -0.08796658
v -1.545092 0.334074 -1.325275
v -0.7675378 0.1615131 -0.9765779
v -1.100744 0.2455475 -1.547601
v -0.5300419 0.5301423 -2.03465
v -0.1397253 0.2242582 -1.041759
v -0.429332 0.1276793 -0.9213461
v -0.429332 0.1276793 -0.9213461
v -0.1397253 0.2242582 -1.041759
v -0.5300419 0.5301423 -2.03465
v -1.100744 0.2455475 -1.547601
v 1.277977 0.4362061 -1.120389
v 0.8754566 0.2787085 -1.783165
v 0.04901933 0.4464521 -1.321113
v 0.1275241 0.5558723 -0.8997331
v 1.277977 0.4362061 -1.120389
v 0.1275241 0.5558723 -0.8997331
v 0.04901933 0.4464521 -1.321113
v 0.8754566 0.2787085 -1.783165
v -0.238741 1.633144 0.9559852
v -0.8932188 1.301506 0.6597224
v -0.4539308 1.192481 -0.1886684
v -0.04054562 1.348807 -0.1693659
v -0.238741 1.633144 0.9559852
v -0.04054562 1.348807 -0.1693659
v -0.4539308 1.192481 -0.1886684
v -0.8932188 1.301506 0.6597224
v 0.3513261 1.175329 -0.889946
v 0.03495622 1.275112 -0.4669598
v -0.7442108 1.324383 -1.061359
v -0.4278409 1.2246 -1.484346
v -1.022835 1.092328 -0.715365
v -0.2436638 1.043057 -0.1209654
v 0.3513261 1.175329 -0.889946
v -0.4278409 1.2246 -1.484346
v -0.7442108 1.324383 -1.061359
v 0.03495622 1.275112 -0.4669598
v -1.022835 1.092328 -0.715365
v -0.2436638 1.043057 -0.1209654
v 0.9124922 1.064802 -0.9916354
v 0.6135086 1.079029 -1.045394
v 0.7113994 1.071664 -1.591768
v 1.010383 1.057438 -1.53801
v 0.4842161 0.906427 -1.630245
v 0.3863254 0.9137915 -1.08387
v 0.9124922 1.064802 -0.9916354
v 1.010383 1.057438 -1.53801
v 0.7113994 1.071664 -1.591768
v 0.6135086 1.079029 -1.045394
v 0.4842161 0.906427 -1.630245
v 0.3863254 0.9137915 -1.08387
v 0.1143198 1.210072 -0.1938492
v 0.07653802 1.264501 -0.4773458
v 0.5435163 1.459767 -0.506464
v 0.5812965 1.405338 -0.222964
v 0.5756685 1.346745 -0.7512641
v 0.1086902 1.151479 -0.7221459
v 0.1143198 1.210072 -0.1938492
v 0.5812965 1.405338 -0.222964
v 0.5435163 1.459767 -0.506464
v 0.07653802 1.264501 -0.4773458
v 0.5756685 1.346745 -0.7512641
v 0.1086902 1.151479 -0.7221459
v 0.5450298 0.6063566 -0.871548
v 0.08645739 0.7054486 -0.9706901
v 0.1744656 0.381638 -1.735352
v 0.6330414 0.2825461 -1.636208
v -0.2361459 0.2063918 -1.708659
v -0.3241576 0.5302023 -0.9439988
v 0.5450298 0.6063566 -0.871548
v 0.6330414 0.2825461 -1.636208
v 0.1744656 0.381638 -1.735352
v 0.08645739 0.7054486 -0.9706901
v -0.2361459 0.2063918 -1.708659
v -0.3241576 0.5302023 -0.9439988
v -0.8141946 0.3058926 -0.6071215
v -1.147239 0.4735042 -0.5010163
v -1.270614 0.6543303 -1.173917
v -0.937569 0.4867187 -1.280022
v -1.622046 0.5830878 -1.12863
v -1.498669 0.4022616 -0.4557261
v -0.8141946 0.3058926 -0.6071215
v -0.937569 0.4867187 -1.280022
v -1.270614 0.6543303 -1.173917
v -1.147239 0.4735042 -0.5010163
v -1.622046 0.5830878 -1.12863
v -1.498669 0.4022616 -0.4557261
v -0.7903129 0.04308054 1.601388
v -1.527454 0.04308054 -0.5041615
v 0.3638494 0.04308054 -1.166294
v 1.153578 0.04308054 1.089475
v 1.243614 1.274435 -0.927264
v 1.091141 1.211744 -0.5395461
v 0.7050638 1.312028 -0.6751606
v 0.857537 1.374719 -1.062878
v 1.243614 1.274435 -0.927264
v 0.857537 1.374719 -1.062878
v 0.7050638 1.312028 -0.6751606
v 1.091141 1.211744 -0.5395461
v -0.8018779 0.4465117 -0.07744724
v -1.183034 0.5734698 0.04945378
v -1.31793 0.5673845 -0.3496311
v -0.9367735 0.4404264 -0.4765338
v -0.8018779 0.4465117 -0.07744724
v -0.9367735 0.4404264 -0.4765338
v -1.31793 0.5673845 -0.3496311
v -1.183034 0.5734698 0.04945378

vn -0.3131024 0.8350554 0.452382
vn -0.3131024 0.8350554 0.452382
vn -0.3131024 0.8350554 0.452382
vn -0.3131024 0.8350554 0.452382
vn 0.3131024 -0.8350554 -0.4523819
vn 0.3131024 -0.8350554 -0.452382
vn 0.3131024 -0.8350554 -0.452382
vn 0.3131024 -0.8350554 -0.452382
vn 0.3428953 -0.9223127 0.1782192
vn 0.3428953 -0.9223127 0.1782192
vn 0.3428953 -0.9223127 0.1782192
vn 0.3428953 -0.9223127 0.1782192
vn -0.3428952 0.9223128 -0.1782191
vn -0.3428952 0.9223127 -0.1782191
vn -0.3428952 0.9223128 -0.1782191
vn -0.3428952 0.9223128 -0.1782191
vn 0.3846354 0.9230618 -0.003539935
vn 0.3846354 0.9230618 -0.00353992
vn 0.3846354 0.9230618 -0.00353992
vn 0.3846354 0.9230618 -0.003539905
vn -0.3846354 -0.9230618 0.00353986
vn -0.3846354 -0.9230618 0.00353989
vn -0.3846354 -0.9230618 0.003539875
vn -0.3846355 -0.9230618 0.003539905
vn 0.2561279 -0.9643387 -0.06670405
vn 0.2561279 -0.9643387 -0.06670405
vn 0.2561279 -0.9643387 -0.06670405
vn 0.2561279 -0.9643387 -0.06670405
vn -0.2561278 0.9643387 0.06670403
vn -0.2561278 0.9643387 0.06670401
vn -0.2561278 0.9643387 0.06670402
vn -0.2561278 0.9643387 0.06670403
vn -0.1158769 0.9008217 0.4184409
vn -0.1158769 0.9008217 0.4184409
vn -0.1158769 0.9008217 0.4184409
vn -0.1158769 0.9008217 0.4184409
vn 0.115877 -0.9008217 -0.418441
vn 0.1158769 -0.9008217 -0.4184409
vn 0.115877 -0.9008217 -0.418441
vn 0.1158769 -0.9008217 -0.4184409
vn -0.1719204 0.9813372 -0.086144
vn 0.1422734 0.9895996 -0.02123208
vn 0.1422734 0.9895996 -0.0212321
vn -0.1719204 0.9813372 -0.08614402
vn 0.4629397 0.8849315 0.05082497
vn 0.4629397 0.8849315 0.05082497
vn 0.1719205 -0.9813371 0.08614393
vn 0.1719205 -0.9813371 0.08614393
vn -0.1422734 -0.9895996 0.02123207
vn -0.1422734 -0.9895996 0.02123206
vn -0.4629397 -0.8849315 -0.05082497
vn -0.4629397 -0.8849315 -0.05082497
vn -0.02522453 0.998817 -0.0415714
vn 0.06009506 0.9621973 0.2656406
vn 0.06009499 0.9621974 0.2656403
vn -0.02522453 0.998817 -0.0415714
vn 0.1447102 0.8125343 0.5646654
vn 0.1447102 0.8125343 0.5646654
vn 0.02522446 -0.998817 0.04157147
vn 0.02522446 -0.998817 0.04157147
vn -0.06009508 -0.9621973 -0.2656405
vn -0.06009518 -0.9621972 -0.2656408
vn -0.1447103 -0.8125341 -0.5646657
vn -0.1447103 -0.8125341 -0.5646657
vn 0.3577528 0.9043832 0.2326026
vn 0.08106226 0.9161314 0.3925966
vn 0.07930816 0.9159104 0.3934698
vn 0.3577529 0.9043832 0.2326026
vn -0.2265855 0.8235596 0.5200081
vn -0.2265855 0.8235597 0.5200082
vn -0.357753 -0.9043832 -0.2326026
vn -0.357753 -0.9043832 -0.2326026
vn -0.07930827 -0.9159104 -0.3934697
vn -0.0810624 -0.9161315 -0.3925966
vn 0.2265856 -0.8235596 -0.5200081
vn 0.2265856 -0.8235597 -0.5200081
vn -0.4311984 0.8975339 -0.09220034
vn -0.3352834 0.9179011 0.2122326
vn -0.3345766 0.9177333 0.2140657
vn -0.4311984 0.8975339 -0.09220035
vn -0.1933499 0.8344191 0.5161014
vn -0.1933499 0.8344191 0.5161014
vn 0.4311984 -0.8975338 0.0922004
vn 0.4311984 -0.8975338 0.09220044
vn 0.3345766 -0.9177333 -0.2140657
vn 0.3352834 -0.9179011 -0.2122326
vn 0.1933498 -0.8344191 -0.5161014
vn 0.1933499 -0.8344191 -0.5161014
vn -0.0777999 0.8647225 -0.4961876
vn 0.1219651 0.9571571 -0.2626304
vn 0.1219651 0.9571571 -0.2626305
vn -0.07779989 0.8647225 -0.4961876
vn 0.322231 0.9464899 0.01800112
vn 0.322231 0.9464899 0.01800113
vn 0.0777999 -0.8647225 0.4961876
vn 0.07779989 -0.8647225 0.4961876
vn -0.1219652 -0.9571571 0.2626304
vn -0.1219652 -0.9571571 0.2626303
vn -0.3222311 -0.9464899 -0.01800115
vn -0.3222311 -0.9464899 -0.01800117
vn 0 1 0
vn 0 1 0
vn 0 1 0
vn 0 1 0
vn 0.1267411 0.9597924 -0.2504703
vn 0.1267411 0.9597924 -0.2504703
vn 0.1267411 0.9597924 -0.2504702
vn 0.1267411 0.9597924 -0.2504702
vn -0.126741 -0.9597924 0.2504702
vn -0.126741 -0.9597924 0.2504702
vn -0.126741 -0.9597924 0.2504702
vn -0.126741 -0.9597924 0.2504702
vn -0.2202223 0.9534073 -0.2061956
vn -0.2202223 0.9534073 -0.2061956
vn -0.2202223 0.9534073 -0.2061956
vn -0.2202223 0.9534073 -0.2061956
vn 0.2202224 -0.9534073 0.2061955
vn 0.2202224 -0.9534073 0.2061955
vn 0.2202224 -0.9534073 0.2061955
vn 0.2202224 -0.9534073 0.2061955

vt 0.7475586 0.06384277
vt 0.7514648 0.1036377
vt 0.7827148 0.1065674
vt 0.7827148 0.05969238
vt 0.7475586 0.06384277
vt 0.7827148 0.05969238
vt 0.7827148 0.1065674
vt 0.7514648 0.1036377
vt 0.7475586 0.06384277
vt 0.7514648 0.1036377
vt 0.7827148 0.1065674
vt 0.7827148 0.05969238
vt 0.7475586 0.06384277
vt 0.7827148 0.05969238
vt 0.7827148 0.1065674
vt 0.7514648 0.1036377
vt 0.7104492 0.08880615
vt 0.7104492 0.1160889
vt 0.7470703 0.1010742
vt 0.7436523 0.09014893
vt 0.7436523 0.09014893
vt 0.7470703 0.1010742
vt 0.7104492 0.1160889
vt 0.7104492 0.08880615
vt 0.7104492 0.1172485
vt 0.7104492 0.144165
vt 0.7451172 0.144165
vt 0.7504883 0.1300049
vt 0.7104492 0.1172485
vt 0.7504883 0.1300049
vt 0.7451172 0.144165
vt 0.7104492 0.144165
vt 0.7104492 0.1172485
vt 0.7104492 0.144165
vt 0.7451172 0.144165
vt 0.7504883 0.1300049
vt 0.7104492 0.1172485
vt 0.7504883 0.1300049
vt 0.7451172 0.144165
vt 0.7104492 0.144165
vt 0.6503906 0.03137207
vt 0.6503906 0.05950928
vt 0.7075195 0.05950928
vt 0.7075195 0.03137207
vt 0.7075195 0.08551025
vt 0.6503906 0.08551025
vt 0.6503906 0.03137207
vt 0.7075195 0.03137207
vt 0.7075195 0.05950928
vt 0.6503906 0.05950928
vt 0.7075195 0.08551025
vt 0.6503906 0.08551025
vt 0.6503906 0.03137207
vt 0.6503906 0.05950928
vt 0.7075195 0.05950928
vt 0.7075195 0.03137207
vt 0.7075195 0.08551025
vt 0.6503906 0.08551025
vt 0.6503906 0.03137207
vt 0.7075195 0.03137207
vt 0.7075195 0.05950928
vt 0.6503906 0.05950928
vt 0.7075195 0.08551025
vt 0.6503906 0.08551025
vt 0.6503906 0.08843994
vt 0.6503906 0.1165771
vt 0.7075195 0.1165771
vt 0.7075195 0.08843994
vt 0.7075195 0.1425781
vt 0.6503906 0.1425781
vt 0.6503906 0.08843994
vt 0.7075195 0.08843994
vt 0.7075195 0.1165771
vt 0.6503906 0.1165771
vt 0.7075195 0.1425781
vt 0.6503906 0.1425781
vt 0.6503906 0.08843994
vt 0.6503906 0.1165771
vt 0.7075195 0.1165771
vt 0.7075195 0.08843994
vt 0.7075195 0.1425781
vt 0.6503906 0.1425781
vt 0.6503906 0.08843994
vt 0.7075195 0.08843994
vt 0.7075195 0.1165771
vt 0.6503906 0.1165771
vt 0.7075195 0.1425781
vt 0.6503906 0.1425781
vt 0.6503906 0.03137207
vt 0.6503906 0.05950928
vt 0.7075195 0.05950928
vt 0.7075195 0.03137207
vt 0.7075195 0.08551025
vt 0.6503906 0.08551025
vt 0.6503906 0.03137207
vt 0.7075195 0.03137207
vt 0.7075195 0.05950928
vt 0.6503906 0.05950928
vt 0.7075195 0.08551025
vt 0.6503906 0.08551025
vt 0.7104492 0.0682373
vt 0.7104492 0.144165
vt 0.7827148 0.144165
vt 0.7827148 0.05969238
vt 0.6601563 0.02832031
vt 0.6875 0.02832031
vt 0.6875 0.002780914
vt 0.6601563 0.002780914
vt 0.6601563 0.02832031
vt 0.6601563 0.002780914
vt 0.6875 0.002780914
vt 0.6875 0.02832031
vt 0.6601563 0.02832031
vt 0.6875 0.02832031
vt 0.6875 0.002780914
vt 0.6601563 0.002780914
vt 0.6601563 0.02832031
vt 0.6601563 0.002780914
vt 0.6875 0.002780914
vt 0.6875 0.02832031

g alpha_3011_490
usemtl alpha_3011_490
usemap alpha_3011_490
f 1/1/1 3/3/3 2/2/2
f 1/1/1 4/4/4 3/3/3
f 5/5/5 7/7/7 6/6/6
f 5/5/5 8/8/8 7/7/7
f 9/9/9 11/11/11 10/10/10
f 9/9/9 12/12/12 11/11/11
f 13/13/13 15/15/15 14/14/14
f 13/13/13 16/16/16 15/15/15
f 17/17/17 19/19/19 18/18/18
f 17/17/17 20/20/20 19/19/19
f 21/21/21 23/23/23 22/22/22
f 21/21/21 24/24/24 23/23/23
f 25/25/25 27/27/27 26/26/26
f 25/25/25 28/28/28 27/27/27
f 29/29/29 31/31/31 30/30/30
f 29/29/29 32/32/32 31/31/31
f 33/33/33 35/35/35 34/34/34
f 33/33/33 36/36/36 35/35/35
f 37/37/37 39/39/39 38/38/38
f 37/37/37 40/40/40 39/39/39
f 41/41/41 43/43/43 42/42/42
f 41/41/41 44/44/44 43/43/43
f 42/42/42 43/43/43 45/45/45
f 42/42/42 45/45/45 46/46/46
f 47/47/47 49/49/49 48/48/48
f 47/47/47 50/50/50 49/49/49
f 50/50/50 51/51/51 49/49/49
f 50/50/50 52/52/52 51/51/51
f 53/53/53 55/55/55 54/54/54
f 53/53/53 56/56/56 55/55/55
f 54/54/54 55/55/55 57/57/57
f 54/54/54 57/57/57 58/58/58
f 59/59/59 61/61/61 60/60/60
f 59/59/59 62/62/62 61/61/61
f 62/62/62 63/63/63 61/61/61
f 62/62/62 64/64/64 63/63/63
f 65/65/65 67/67/67 66/66/66
f 65/65/65 68/68/68 67/67/67
f 66/66/66 67/67/67 69/69/69
f 66/66/66 69/69/69 70/70/70
f 71/71/71 73/73/73 72/72/72
f 71/71/71 74/74/74 73/73/73
f 74/74/74 75/75/75 73/73/73
f 74/74/74 76/76/76 75/75/75
f 77/77/77 79/79/79 78/78/78
f 77/77/77 80/80/80 79/79/79
f 78/78/78 79/79/79 81/81/81
f 78/78/78 81/81/81 82/82/82
f 83/83/83 85/85/85 84/84/84
f 83/83/83 86/86/86 85/85/85
f 86/86/86 87/87/87 85/85/85
f 86/86/86 88/88/88 87/87/87
f 89/89/89 91/91/91 90/90/90
f 89/89/89 92/92/92 91/91/91
f 90/90/90 91/91/91 93/93/93
f 90/90/90 93/93/93 94/94/94
f 95/95/95 97/97/97 96/96/96
f 95/95/95 98/98/98 97/97/97
f 98/98/98 99/99/99 97/97/97
f 98/98/98 100/100/100 99/99/99
f 101/101/101 103/103/103 102/102/102
f 101/101/101 104/104/104 103/103/103
f 105/105/105 107/107/107 106/106/106
f 105/105/105 108/108/108 107/107/107
f 109/109/109 111/111/111 110/110/110
f 109/109/109 112/112/112 111/111/111
f 113/113/113 115/115/115 114/114/114
f 113/113/113 116/116/116 115/115/115
f 117/117/117 119/119/119 118/118/118
f 117/117/117 120/120/120 119/119/119
