#Alpha_1232_267.obj

v -0.3356465 0.2777315 1.036392
v -1.129508 0.1608478 1.030811
v -0.6717892 0.07648957 0.02327889
v -0.3645828 0.1362255 0.1220463
v -0.3645828 0.1362255 0.1220463
v -0.6717892 0.07648957 0.02327889
v -1.129508 0.1608478 1.030811
v -0.3356465 0.2777315 1.036392
v -0.4905662 0.3428391 -1.164052
v 0.2181321 0.6808587 -0.9985208
v -0.2479956 0.1965102 -0.1154178
v -0.5167484 0.09337044 -0.2730049
v -0.5167484 0.09337044 -0.2730049
v -0.2479956 0.1965102 -0.1154178
v 0.2181321 0.6808587 -0.9985208
v -0.4905662 0.3428391 -1.164052
v -0.2326067 0.5319947 -1.231051
v 0.1448707 0.5564677 -1.045535
v -0.04219541 0.595341 -0.6700359
v -0.419672 0.570868 -0.8555517
v -0.2326067 0.5319947 -1.231051
v -0.419672 0.570868 -0.8555517
v -0.04219541 0.595341 -0.6700359
v 0.1448707 0.5564677 -1.045535
v -1.577807 0.6769722 -1.238492
v -0.7986345 0.6155729 -1.420241
v -1.081073 0.1934528 -0.4290012
v -1.33435 0.2472973 -0.4404879
v -1.33435 0.2472973 -0.4404879
v -1.081073 0.1934528 -0.4290012
v -0.7986345 0.6155729 -1.420241
v -1.577807 0.6769722 -1.238492
v -1.262181 0.352392 -0.9266542
v -1.225121 0.4374886 -0.513898
v -1.992654 0.5021714 -0.4583163
v -2.029715 0.4170748 -0.8710725
v -1.981996 0.3256547 -0.1057323
v -1.214463 0.260972 -0.1613146
v -1.262181 0.352392 -0.9266542
v -2.029715 0.4170748 -0.8710725
v -1.992654 0.5021714 -0.4583163
v -1.225121 0.4374886 -0.513898
v -1.981996 0.3256547 -0.1057323
v -1.214463 0.260972 -0.1613146
v -0.1335238 0.1441713 -0.3703875
v 0.6984803 0.3083283 -0.0178194
v -0.01006571 0.8536618 1.400315
v -0.8420682 0.689505 1.047748
v 0.6124309 0.4805941 1.854794
v 1.320975 -0.06473956 0.4366584
v -0.1335238 0.1441713 -0.3703875
v -0.8420682 0.689505 1.047748
v -0.01006571 0.8536618 1.400315
v 0.6984803 0.3083283 -0.0178194
v 0.6124309 0.4805941 1.854794
v 1.320975 -0.06473956 0.4366584
v -1.230247 0.3132074 -0.3083635
v -1.159848 0.4303713 -0.5654203
v -0.6906803 0.5254434 -0.3984241
v -0.7610793 0.4082797 -0.1413672
v -0.5904967 0.4599502 -0.6421602
v -1.059662 0.3648779 -0.8091597
v -1.230247 0.3132074 -0.3083635
v -0.7610793 0.4082797 -0.1413672
v -0.6906803 0.5254434 -0.3984241
v -1.159848 0.4303713 -0.5654203
v -0.5904967 0.4599502 -0.6421602
v -1.059662 0.3648779 -0.8091597
v 1.783759 0.1349387 -1.029047
v 0.9552563 0.06476724 -0.2554972
v 1.218436 0.6000682 0.3770781
v 2.246957 0.7687746 -0.443532
v 1.783759 0.1349387 -1.029047
v 2.246957 0.7687746 -0.443532
v 1.218436 0.6000682 0.3770781
v 0.9552563 0.06476724 -0.2554972
v -0.6399842 0.2932726 -0.004192063
v -0.317544 0.3968586 0.2464195
v -0.554477 0.3150785 0.5850626
v -0.8769173 0.2114925 0.334451
v -0.6399842 0.2932726 -0.004192063
v -0.8769173 0.2114925 0.334451
v -0.554477 0.3150785 0.5850626
v -0.317544 0.3968586 0.2464195
v -0.5323389 0.8070896 -0.4867394
v 0.0669026 0.9200945 -1.008321
v 0.2429761 0.06380057 -0.3245831
v -0.03876836 0.09568715 -0.1593502
v -0.03876836 0.09568715 -0.1593502
v 0.2429761 0.06380057 -0.3245831
v 0.0669026 0.9200945 -1.008321
v -0.5323389 0.8070896 -0.4867394
v 2.004287 0.08723702 0.2337115
v 0.3517026 0.08723702 1.732269
v -0.9943692 0.08723702 0.2478412
v 0.7761183 0.08723702 -1.357628
v 1.236477 0.1841538 -0.03105333
v 0.8414156 0.3588783 -0.04763596
v 0.9913453 0.6289654 -0.7737599
v 1.386407 0.454241 -0.7571815
v 0.6127149 0.5447261 -0.8832737
v 0.4627868 0.2746389 -0.1571487
v 1.236477 0.1841538 -0.03105333
v 1.386407 0.454241 -0.7571815
v 0.9913453 0.6289654 -0.7737599
v 0.8414156 0.3588783 -0.04763596
v 0.6127149 0.5447261 -0.8832737
v 0.4627868 0.2746389 -0.1571487
v 1.289033 0.5592995 -0.3418581
v 1.706875 0.5662984 -0.2883583
v 1.65477 0.510341 0.1259532
v 1.236925 0.5033422 0.0724608
v 1.289033 0.5592995 -0.3418581
v 1.236925 0.5033422 0.0724608
v 1.65477 0.510341 0.1259532
v 1.706875 0.5662984 -0.2883583
v -1.583236 0.323963 -0.4377695
v -1.101544 0.5024385 -0.009548535
v -1.859046 0.4631971 0.8741776
v -2.34074 0.2847219 0.4459561
v -1.417386 0.2215902 1.242461
v -0.6598835 0.2608313 0.3587354
v -1.583236 0.323963 -0.4377695
v -2.34074 0.2847219 0.4459561
v -1.859046 0.4631971 0.8741776
v -1.101544 0.5024385 -0.009548535
v -1.417386 0.2215902 1.242461
v -0.6598835 0.2608313 0.3587354

vn -0.04757997 0.978743 0.1994953
vn -0.04757996 0.978743 0.1994953
vn -0.04757995 0.978743 0.1994953
vn -0.04757997 0.978743 0.1994953
vn 0.04757997 -0.978743 -0.1994953
vn 0.04757995 -0.978743 -0.1994953
vn 0.04757996 -0.978743 -0.1994953
vn 0.04757997 -0.978743 -0.1994953
vn 0.4385171 0.8575175 0.2690103
vn 0.4385171 0.8575175 0.2690103
vn 0.4385171 0.8575175 0.2690103
vn 0.4385171 0.8575175 0.2690103
vn -0.438517 -0.8575176 -0.2690102
vn -0.438517 -0.8575175 -0.2690102
vn -0.438517 -0.8575176 -0.2690102
vn -0.438517 -0.8575176 -0.2690102
vn -0.08566225 0.9940385 0.06744922
vn -0.08566225 0.9940385 0.06744922
vn -0.08566225 0.9940385 0.06744922
vn -0.08566225 0.9940385 0.06744922
vn 0.08566225 -0.9940385 -0.06744928
vn 0.08566225 -0.9940385 -0.06744927
vn 0.08566225 -0.9940385 -0.06744928
vn 0.08566225 -0.9940385 -0.06744927
vn 0.2697006 0.8883984 -0.3714968
vn 0.2697005 0.8883984 -0.3714968
vn 0.2697005 0.8883984 -0.3714968
vn 0.2697005 0.8883984 -0.3714968
vn -0.2697005 -0.8883985 0.3714967
vn -0.2697005 -0.8883985 0.3714968
vn -0.2697005 -0.8883985 0.3714968
vn -0.2697005 -0.8883985 0.3714968
vn -0.2110645 0.9759741 0.05409532
vn 0.04604622 0.9894294 -0.1375106
vn 0.04604603 0.9894295 -0.1375104
vn -0.2110645 0.9759741 0.05409534
vn 0.3165273 0.8903502 -0.3272415
vn 0.3165272 0.8903502 -0.3272415
vn 0.2110644 -0.9759741 -0.05409541
vn 0.2110644 -0.9759741 -0.05409541
vn -0.04604597 -0.9894295 0.1375103
vn -0.04604618 -0.9894294 0.1375105
vn -0.3165272 -0.8903503 0.3272415
vn -0.3165272 -0.8903503 0.3272414
vn -0.2986777 0.9285687 0.2203448
vn -0.3341218 0.9373682 -0.09850617
vn -0.3341218 0.9373683 -0.09850604
vn -0.2986777 0.9285687 0.2203448
vn -0.3338057 0.8392681 -0.4291885
vn -0.3338057 0.8392681 -0.4291885
vn 0.2986778 -0.9285687 -0.2203446
vn 0.2986778 -0.9285687 -0.2203446
vn 0.3341219 -0.9373682 0.0985061
vn 0.3341219 -0.9373682 0.09850626
vn 0.3338057 -0.8392681 0.4291885
vn 0.3338057 -0.8392681 0.4291885
vn 0.435841 0.896737 0.07684653
vn 0.1377708 0.9774343 0.1601294
vn 0.1358648 0.9776242 0.1605981
vn 0.435841 0.896737 0.07684653
vn -0.1994435 0.9521633 0.2315328
vn -0.1994435 0.9521632 0.2315328
vn -0.4358408 -0.8967372 -0.0768462
vn -0.4358408 -0.8967371 -0.07684623
vn -0.1358646 -0.9776242 -0.1605979
vn -0.1377707 -0.9774343 -0.1601292
vn 0.1994435 -0.9521632 -0.2315328
vn 0.1994435 -0.9521632 -0.2315328
vn 0.1185539 -0.7585047 -0.640793
vn 0.118554 -0.7585048 -0.640793
vn 0.1185539 -0.7585048 -0.6407929
vn 0.118554 -0.7585048 -0.6407929
vn -0.1185538 0.7585047 0.640793
vn -0.1185538 0.7585047 0.640793
vn -0.1185539 0.7585046 0.6407931
vn -0.1185538 0.7585047 0.640793
vn 0.1762223 0.9496697 0.2589851
vn 0.1762223 0.9496697 0.2589851
vn 0.1762223 0.9496697 0.2589851
vn 0.1762223 0.9496697 0.2589851
vn -0.1762224 -0.9496695 -0.2589853
vn -0.1762224 -0.9496696 -0.2589852
vn -0.1762224 -0.9496695 -0.2589853
vn -0.1762224 -0.9496696 -0.2589853
vn 0.3081746 0.6117937 -0.7285171
vn 0.3081746 0.6117936 -0.7285171
vn 0.3081746 0.6117936 -0.7285171
vn 0.3081746 0.6117936 -0.7285171
vn -0.3081742 -0.6117935 0.7285174
vn -0.3081742 -0.6117934 0.7285174
vn -0.3081743 -0.6117934 0.7285174
vn -0.3081742 -0.6117934 0.7285174
vn 0 1 0
vn 0 1 0
vn 0 1 0
vn 0 1 0
vn 0.1371281 0.8482263 -0.5115741
vn 0.2747089 0.9325781 -0.2341648
vn 0.2747088 0.9325781 -0.234165
vn 0.1371281 0.8482263 -0.5115741
vn 0.3907553 0.9160612 0.09023386
vn 0.3907554 0.9160612 0.09023383
vn -0.137128 -0.8482262 0.5115743
vn -0.137128 -0.8482262 0.5115742
vn -0.2747087 -0.932578 0.2341651
vn -0.2747088 -0.9325781 0.2341649
vn -0.3907553 -0.9160612 -0.09023388
vn -0.3907553 -0.9160612 -0.09023386
vn 0.1273087 0.9910014 -0.04133804
vn 0.1273087 0.9910014 -0.04133804
vn 0.1273087 0.9910014 -0.04133804
vn 0.1273087 0.9910014 -0.04133804
vn -0.1273087 -0.9910014 0.04133806
vn -0.1273087 -0.9910014 0.04133806
vn -0.1273087 -0.9910014 0.04133806
vn -0.1273087 -0.9910014 0.04133807
vn -0.006232858 0.9630621 0.2692072
vn 0.0405632 0.9981526 -0.04523284
vn 0.04084243 0.998051 -0.04718213
vn -0.00623288 0.9630621 0.2692072
vn 0.08636042 0.9213274 -0.3790748
vn 0.08636041 0.9213274 -0.3790748
vn 0.006232828 -0.9630621 -0.2692072
vn 0.006232828 -0.9630621 -0.2692072
vn -0.04084248 -0.998051 0.04718205
vn -0.04056325 -0.9981526 0.04523277
vn -0.08636044 -0.9213274 0.3790748
vn -0.08636048 -0.9213274 0.3790748

vt 0.7104492 0.08880615
vt 0.7104492 0.1160889
vt 0.7470703 0.1010742
vt 0.7436523 0.09014893
vt 0.7436523 0.09014893
vt 0.7470703 0.1010742
vt 0.7104492 0.1160889
vt 0.7104492 0.08880615
vt 0.7104492 0.08880615
vt 0.7104492 0.1160889
vt 0.7470703 0.1010742
vt 0.7436523 0.09014893
vt 0.7436523 0.09014893
vt 0.7470703 0.1010742
vt 0.7104492 0.1160889
vt 0.7104492 0.08880615
vt 0.6601563 0.02832031
vt 0.6875 0.02832031
vt 0.6875 0.002780914
vt 0.6601563 0.002780914
vt 0.6601563 0.02832031
vt 0.6601563 0.002780914
vt 0.6875 0.002780914
vt 0.6875 0.02832031
vt 0.706543 0.09033203
vt 0.706543 0.1160889
vt 0.7412109 0.1019287
vt 0.737793 0.09161377
vt 0.737793 0.09161377
vt 0.7412109 0.1019287
vt 0.706543 0.1160889
vt 0.706543 0.09033203
vt 0.6503906 0.03137207
vt 0.6503906 0.05950928
vt 0.7075195 0.05950928
vt 0.7075195 0.03137207
vt 0.7075195 0.08551025
vt 0.6503906 0.08551025
vt 0.6503906 0.03137207
vt 0.7075195 0.03137207
vt 0.7075195 0.05950928
vt 0.6503906 0.05950928
vt 0.7075195 0.08551025
vt 0.6503906 0.08551025
vt 0.6503906 0.03137207
vt 0.6503906 0.05950928
vt 0.7075195 0.05950928
vt 0.7075195 0.03137207
vt 0.7075195 0.08551025
vt 0.6503906 0.08551025
vt 0.6503906 0.03137207
vt 0.7075195 0.03137207
vt 0.7075195 0.05950928
vt 0.6503906 0.05950928
vt 0.7075195 0.08551025
vt 0.6503906 0.08551025
vt 0.6503906 0.08843994
vt 0.6503906 0.1165771
vt 0.7075195 0.1165771
vt 0.7075195 0.08843994
vt 0.7075195 0.1425781
vt 0.6503906 0.1425781
vt 0.6503906 0.08843994
vt 0.7075195 0.08843994
vt 0.7075195 0.1165771
vt 0.6503906 0.1165771
vt 0.7075195 0.1425781
vt 0.6503906 0.1425781
vt 0.7475586 0.06384277
vt 0.7514648 0.1036377
vt 0.7827148 0.1065674
vt 0.7827148 0.05969238
vt 0.7475586 0.06384277
vt 0.7827148 0.05969238
vt 0.7827148 0.1065674
vt 0.7514648 0.1036377
vt 0.6601563 0.02832031
vt 0.6875 0.02832031
vt 0.6875 0.002780914
vt 0.6601563 0.002780914
vt 0.6601563 0.02832031
vt 0.6601563 0.002780914
vt 0.6875 0.002780914
vt 0.6875 0.02832031
vt 0.7104492 0.08880615
vt 0.7104492 0.1160889
vt 0.7470703 0.1010742
vt 0.7436523 0.09014893
vt 0.7436523 0.09014893
vt 0.7470703 0.1010742
vt 0.7104492 0.1160889
vt 0.7104492 0.08880615
vt 0.7104492 0.0682373
vt 0.7104492 0.144165
vt 0.7827148 0.144165
vt 0.7827148 0.05969238
vt 0.6503906 0.03137207
vt 0.6503906 0.05950928
vt 0.7075195 0.05950928
vt 0.7075195 0.03137207
vt 0.7075195 0.08551025
vt 0.6503906 0.08551025
vt 0.6503906 0.03137207
vt 0.7075195 0.03137207
vt 0.7075195 0.05950928
vt 0.6503906 0.05950928
vt 0.7075195 0.08551025
vt 0.6503906 0.08551025
vt 0.6601563 0.02832031
vt 0.6875 0.02832031
vt 0.6875 0.002780914
vt 0.6601563 0.002780914
vt 0.6601563 0.02832031
vt 0.6601563 0.002780914
vt 0.6875 0.002780914
vt 0.6875 0.02832031
vt 0.6503906 0.08843994
vt 0.6503906 0.1165771
vt 0.7075195 0.1165771
vt 0.7075195 0.08843994
vt 0.7075195 0.1425781
vt 0.6503906 0.1425781
vt 0.6503906 0.08843994
vt 0.7075195 0.08843994
vt 0.7075195 0.1165771
vt 0.6503906 0.1165771
vt 0.7075195 0.1425781
vt 0.6503906 0.1425781

g Alpha_1232_267
usemtl Alpha_1232_267
usemap Alpha_1232_267
f 1/1/1 3/3/3 2/2/2
f 1/1/1 4/4/4 3/3/3
f 5/5/5 7/7/7 6/6/6
f 5/5/5 8/8/8 7/7/7
f 9/9/9 11/11/11 10/10/10
f 9/9/9 12/12/12 11/11/11
f 13/13/13 15/15/15 14/14/14
f 13/13/13 16/16/16 15/15/15
f 17/17/17 19/19/19 18/18/18
f 17/17/17 20/20/20 19/19/19
f 21/21/21 23/23/23 22/22/22
f 21/21/21 24/24/24 23/23/23
f 25/25/25 27/27/27 26/26/26
f 25/25/25 28/28/28 27/27/27
f 29/29/29 31/31/31 30/30/30
f 29/29/29 32/32/32 31/31/31
f 33/33/33 35/35/35 34/34/34
f 33/33/33 36/36/36 35/35/35
f 34/34/34 35/35/35 37/37/37
f 34/34/34 37/37/37 38/38/38
f 39/39/39 41/41/41 40/40/40
f 39/39/39 42/42/42 41/41/41
f 42/42/42 43/43/43 41/41/41
f 42/42/42 44/44/44 43/43/43
f 45/45/45 47/47/47 46/46/46
f 45/45/45 48/48/48 47/47/47
f 46/46/46 47/47/47 49/49/49
f 46/46/46 49/49/49 50/50/50
f 51/51/51 53/53/53 52/52/52
f 51/51/51 54/54/54 53/53/53
f 54/54/54 55/55/55 53/53/53
f 54/54/54 56/56/56 55/55/55
f 57/57/57 59/59/59 58/58/58
f 57/57/57 60/60/60 59/59/59
f 58/58/58 59/59/59 61/61/61
f 58/58/58 61/61/61 62/62/62
f 63/63/63 65/65/65 64/64/64
f 63/63/63 66/66/66 65/65/65
f 66/66/66 67/67/67 65/65/65
f 66/66/66 68/68/68 67/67/67
f 69/69/69 71/71/71 70/70/70
f 69/69/69 72/72/72 71/71/71
f 73/73/73 75/75/75 74/74/74
f 73/73/73 76/76/76 75/75/75
f 77/77/77 79/79/79 78/78/78
f 77/77/77 80/80/80 79/79/79
f 81/81/81 83/83/83 82/82/82
f 81/81/81 84/84/84 83/83/83
f 85/85/85 87/87/87 86/86/86
f 85/85/85 88/88/88 87/87/87
f 89/89/89 91/91/91 90/90/90
f 89/89/89 92/92/92 91/91/91
f 93/93/93 95/95/95 94/94/94
f 93/93/93 96/96/96 95/95/95
f 97/97/97 99/99/99 98/98/98
f 97/97/97 100/100/100 99/99/99
f 98/98/98 99/99/99 101/101/101
f 98/98/98 101/101/101 102/102/102
f 103/103/103 105/105/105 104/104/104
f 103/103/103 106/106/106 105/105/105
f 106/106/106 107/107/107 105/105/105
f 106/106/106 108/108/108 107/107/107
f 109/109/109 111/111/111 110/110/110
f 109/109/109 112/112/112 111/111/111
f 113/113/113 115/115/115 114/114/114
f 113/113/113 116/116/116 115/115/115
f 117/117/117 119/119/119 118/118/118
f 117/117/117 120/120/120 119/119/119
f 118/118/118 119/119/119 121/121/121
f 118/118/118 121/121/121 122/122/122
f 123/123/123 125/125/125 124/124/124
f 123/123/123 126/126/126 125/125/125
f 126/126/126 127/127/127 125/125/125
f 126/126/126 128/128/128 127/127/127
