#Barrel1_2789_126.obj

v 0.04697037 1.775929 -0.4156952
v 0.1133957 1.775929 -0.2553329
v -0.04697037 1.775929 -0.1889038
v -0.1133957 1.775929 -0.3492737
v 0 1.663077 -0.4897919
v 0.1325722 1.663077 -0.4348755
v -0.1325722 1.663077 -0.4348755
v -0.1874886 1.663077 -0.3022995
v -0.1325722 1.663077 -0.1697311
v 0 1.663077 -0.1148148
v 0.1325722 1.663077 -0.1697311
v 0.1874866 1.663077 -0.3022995
v 0.4828091 -0.0007412434 -0.482811
v 0 -0.0007412434 -0.6828003
v 0.4828091 -0.0007412434 0.482811
v 0.6827965 -0.0007412434 0
v 0 -0.0007412434 0.6828003
v -0.482811 -0.0007412434 -0.482811
v -0.482811 -0.0007412434 0.482811
v -0.6827965 -0.0007412434 0
v 0.4828091 -0.0007412434 -0.482811
v 0.4479332 0.7662649 -0.447937
v 0 0.7662649 -0.6334763
v 0 -0.0007412434 -0.6828003
v 0.6827965 -0.0007412434 0
v 0.6334743 0.7662649 0
v 0.4828091 -0.0007412434 0.482811
v 0.4479332 0.7662649 0.447937
v 0 -0.0007412434 0.6828003
v 0 0.7662649 0.6334763
v -0.482811 -0.0007412434 0.482811
v -0.4479351 0.7662649 0.447937
v -0.6827965 -0.0007412434 0
v -0.6334743 0.7662649 0
v -0.482811 -0.0007412434 -0.482811
v -0.4479351 0.7662649 -0.447937
v 0 -0.0007412434 -0.6828003
v 0 0.7662649 -0.6334763
v 0 1.663077 0.6784439
v -0.4797325 1.663077 0.4797363
v -0.6784439 1.663077 0
v -0.4797325 1.663077 -0.4797363
v 0 1.663077 -0.6784439
v 0.4797325 1.663077 0.4797363
v 0.6784439 1.663077 0
v 0.4797325 1.663077 -0.4797363
v 0 1.663077 -0.6784439
v 0.4797325 1.663077 -0.4797363
v 0.1325722 1.663077 -0.4348755
v 0 1.663077 -0.4897919
v 0 1.663077 -0.6784439
v -0.1325722 1.663077 -0.4348755
v -0.4797325 1.663077 -0.4797363
v -0.1874886 1.663077 -0.3022995
v -0.6784439 1.663077 0
v -0.1325722 1.663077 -0.1697311
v -0.4797325 1.663077 0.4797363
v 0 1.663077 -0.1148148
v 0 1.663077 0.6784439
v 0.1325722 1.663077 -0.1697311
v 0.4797325 1.663077 0.4797363
v 0.1874866 1.663077 -0.3022995
v 0.6784439 1.663077 0

vn 0.1709789 0.8946363 -0.4127856
vn 0.4127833 0.8946372 0.1709801
vn -0.1709792 0.8946372 0.4127839
vn -0.4127837 0.894637 -0.1709805
vn -0.1821696 0.5914928 -0.785462
vn 0.684217 0.5914928 -0.426595
vn -0.4265975 0.5914924 -0.6842159
vn -0.7854574 0.5914999 0.1821662
vn -0.6842123 0.5914987 0.4265946
vn 0.1821677 0.591494 0.7854615
vn 0.4265941 0.5914936 0.684217
vn 0.7854612 0.5914946 -0.182167
vn 0 -1 0
vn 0 -1 0
vn 0 -1 0
vn 0 -1 0
vn 0 -1 0
vn 0 -1 0
vn 0 -1 0
vn 0 -1 0
vn 0.7056493 0.06417315 -0.7056494
vn 0.7071041 0.002807065 -0.7071039
vn 0 0.002807156 -0.9999961
vn 0 0.06417351 -0.9979388
vn 0.9979388 0.06417296 0
vn 0.9999961 0.002807131 0
vn 0.705649 0.06417318 0.7056496
vn 0.7071041 0.002807048 0.7071039
vn 0 0.06417356 0.9979388
vn 0 0.002807094 0.9999961
vn -0.7056492 0.06417339 0.7056494
vn -0.7071041 0.002807176 0.707104
vn -0.9979388 0.06417292 0
vn -0.9999961 0.002807131 0
vn -0.7056492 0.0641733 -0.7056494
vn -0.7071043 0.002807213 -0.7071038
vn 0 0.06417351 -0.9979388
vn 0 0.002807156 -0.9999961
vn 0 -0.05008107 0.9987452
vn -0.7062191 -0.05008084 0.7062197
vn -0.9987452 -0.05008054 0
vn -0.7062195 -0.05008068 -0.7062195
vn 0 -0.05008091 -0.9987452
vn 0.7062193 -0.05008087 0.7062196
vn 0.9987452 -0.05008057 0
vn 0.7062197 -0.05008078 -0.7062193
vn 0 -0.05008091 -0.9987452
vn 0 1 0
vn 0 1 0
vn 0 1 0
vn 0 1 0
vn 0 1 0
vn 0 1 0
vn 0 1 0
vn 0 1 0
vn 0 1 0
vn 0 1 0
vn 0 1 0
vn 0 1 0
vn 0 1 0
vn 0 1 0
vn 0 1 0
vn 0 1 0

vt 0.8901367 0.5546875
vt 0.8901367 0.5507813
vt 0.8862305 0.5507813
vt 0.8862305 0.5546875
vt 0.8896484 0.5566406
vt 0.8920898 0.5541992
vt 0.8862305 0.5566406
vt 0.8842773 0.5541992
vt 0.8842773 0.5507813
vt 0.8862305 0.5488281
vt 0.8896484 0.5488281
vt 0.8920898 0.5507813
vt 0.8745117 0.5200195
vt 0.8666992 0.5117188
vt 0.8662109 0.5400391
vt 0.8745117 0.5317383
vt 0.8544922 0.5400391
vt 0.8549805 0.5117188
vt 0.8466797 0.5317383
vt 0.8466797 0.5200195
vt 0.9853516 0.512207
vt 0.9853516 0.5297852
vt 0.996582 0.5297852
vt 0.996582 0.512207
vt 0.9736328 0.512207
vt 0.9736328 0.5297852
vt 0.9619141 0.512207
vt 0.9619141 0.5297852
vt 0.9501953 0.512207
vt 0.9501953 0.5297852
vt 0.9384766 0.512207
vt 0.9384766 0.5297852
vt 0.9267578 0.512207
vt 0.9267578 0.5297852
vt 0.9155273 0.512207
vt 0.9155273 0.5297852
vt 0.9038086 0.512207
vt 0.9038086 0.5297852
vt 0.9501953 0.5498047
vt 0.9384766 0.5498047
vt 0.9267578 0.5498047
vt 0.9155273 0.5498047
vt 0.9038086 0.5498047
vt 0.9619141 0.5498047
vt 0.9736328 0.5498047
vt 0.9853516 0.5498047
vt 0.996582 0.5498047
vt 0.8999023 0.5522461
vt 0.8920898 0.5541992
vt 0.8896484 0.5566406
vt 0.8916016 0.5605469
vt 0.8862305 0.5566406
vt 0.8793945 0.5605469
vt 0.8842773 0.5541992
vt 0.8710938 0.5522461
vt 0.8842773 0.5507813
vt 0.8710938 0.5400391
vt 0.8862305 0.5488281
vt 0.8793945 0.5317383
vt 0.8896484 0.5488281
vt 0.8916016 0.5317383
vt 0.8920898 0.5507813
vt 0.8999023 0.5400391

g Barrel1_2789_126
usemtl Barrel1_2789_126
usemap Barrel1_2789_126
f 1/1/1 3/3/3 2/2/2
f 1/1/1 4/4/4 3/3/3
f 5/5/5 4/4/4 1/1/1
f 6/6/6 5/5/5 1/1/1
f 5/5/5 7/7/7 4/4/4
f 7/7/7 8/8/8 4/4/4
f 8/8/8 3/3/3 4/4/4
f 8/8/8 9/9/9 3/3/3
f 9/9/9 10/10/10 3/3/3
f 10/10/10 2/2/2 3/3/3
f 10/10/10 11/11/11 2/2/2
f 11/11/11 12/12/12 2/2/2
f 12/12/12 1/1/1 2/2/2
f 12/12/12 6/6/6 1/1/1
f 13/13/13 15/15/15 14/14/14
f 13/13/13 16/16/16 15/15/15
f 14/14/14 15/15/15 17/17/17
f 14/14/14 17/17/17 18/18/18
f 18/18/18 17/17/17 19/19/19
f 18/18/18 19/19/19 20/20/20
f 21/21/21 23/23/23 22/22/22
f 21/21/21 24/24/24 23/23/23
f 25/25/25 21/21/21 22/22/22
f 25/25/25 22/22/22 26/26/26
f 27/27/27 25/25/25 26/26/26
f 27/27/27 26/26/26 28/28/28
f 29/29/29 27/27/27 28/28/28
f 29/29/29 28/28/28 30/30/30
f 31/31/31 29/29/29 30/30/30
f 31/31/31 30/30/30 32/32/32
f 33/33/33 31/31/31 32/32/32
f 33/33/33 32/32/32 34/34/34
f 35/35/35 33/33/33 34/34/34
f 35/35/35 34/34/34 36/36/36
f 37/37/37 35/35/35 36/36/36
f 37/37/37 36/36/36 38/38/38
f 32/32/32 30/30/30 39/39/39
f 32/32/32 39/39/39 40/40/40
f 34/34/34 32/32/32 40/40/40
f 34/34/34 40/40/40 41/41/41
f 36/36/36 34/34/34 41/41/41
f 36/36/36 41/41/41 42/42/42
f 38/38/38 36/36/36 42/42/42
f 38/38/38 42/42/42 43/43/43
f 30/30/30 44/44/44 39/39/39
f 30/30/30 28/28/28 44/44/44
f 28/28/28 45/45/45 44/44/44
f 28/28/28 26/26/26 45/45/45
f 26/26/26 46/46/46 45/45/45
f 26/26/26 22/22/22 46/46/46
f 22/22/22 47/47/47 46/46/46
f 22/22/22 23/23/23 47/47/47
f 48/48/48 50/50/50 49/49/49
f 48/48/48 51/51/51 50/50/50
f 51/51/51 52/52/52 50/50/50
f 51/51/51 53/53/53 52/52/52
f 53/53/53 54/54/54 52/52/52
f 53/53/53 55/55/55 54/54/54
f 55/55/55 56/56/56 54/54/54
f 55/55/55 57/57/57 56/56/56
f 57/57/57 58/58/58 56/56/56
f 57/57/57 59/59/59 58/58/58
f 59/59/59 60/60/60 58/58/58
f 59/59/59 61/61/61 60/60/60
f 61/61/61 62/62/62 60/60/60
f 61/61/61 63/63/63 62/62/62
f 63/63/63 49/49/49 62/62/62
f 63/63/63 48/48/48 49/49/49
