#Barrel4_2127_275.obj

v 0.4828091 -0.0007412434 -0.482811
v 0 -0.0007412434 -0.6827974
v 0.4828095 -0.0007412434 0.482811
v 0.6827974 -0.0007412434 0
v 0 -0.0007412434 0.6827974
v -0.482811 -0.0007412434 -0.482811
v -0.482811 -0.0007412434 0.482811
v -0.6827974 -0.0007412434 0
v 0.4828091 -0.0007412434 -0.482811
v 0.4479332 0.7662649 -0.4479342
v 0 0.7662649 -0.6334743
v 0 -0.0007412434 -0.6827974
v 0.6827974 -0.0007412434 0
v 0.6334743 0.7662649 0
v 0.4828095 -0.0007412434 0.482811
v 0.4479342 0.7662649 0.4479342
v 0 -0.0007412434 0.6827974
v 0 0.7662649 0.6334743
v -0.482811 -0.0007412434 0.482811
v -0.4479356 0.7662649 0.4479342
v -0.6827974 -0.0007412434 0
v -0.6334748 0.7662649 0
v -0.482811 -0.0007412434 -0.482811
v -0.4479356 0.7662649 -0.4479342
v 0 -0.0007412434 -0.6827974
v 0 0.7662649 -0.6334743
v 0 1.663077 0.6784439
v -0.479733 1.663077 0.4797325
v -0.6784439 1.663077 0
v -0.479733 1.663077 -0.4797325
v 0 1.663077 -0.6784439
v 0.479732 1.663077 0.4797325
v 0.6784444 1.663077 0
v 0.479732 1.663077 -0.4797325
v 0 1.663077 -0.6784439
v 0.479732 1.663077 -0.4797325
v 0.4421601 1.663498 -0.4421606
v 0 1.663498 -0.6253099
v 0 1.663077 -0.6784439
v -0.4421611 1.663498 -0.4421606
v -0.479733 1.663077 -0.4797325
v -0.6253099 1.663498 0
v -0.6784439 1.663077 0
v -0.4421611 1.663498 0.4421606
v -0.479733 1.663077 0.4797325
v 0 1.663498 0.6253095
v 0 1.663077 0.6784439
v 0.4421601 1.663498 0.4421611
v 0.479732 1.663077 0.4797325
v 0.6253099 1.663498 0
v 0.6784444 1.663077 0
v -0.4265146 1.295678 -0.4265141
v 0 1.332516 0
v -0.6031818 1.295678 0
v 0 1.295678 -0.6031823
v 0.4265132 1.295678 -0.4265141
v 0.6031818 1.295678 0
v 0.4265132 1.295678 0.4265146
v 0 1.295678 0.6031823
v -0.4265146 1.295678 0.4265141
v -0.4421611 1.663498 -0.4421606
v -0.4265146 1.295678 -0.4265141
v -0.6031818 1.295678 0
v -0.6253099 1.663498 0
v 0 1.663498 -0.6253099
v 0 1.295678 -0.6031823
v -0.4265146 1.295678 0.4265141
v -0.4421611 1.663498 0.4421606
v 0 1.295678 0.6031823
v 0 1.663498 0.6253095
v 0.4265132 1.295678 0.4265146
v 0.4421601 1.663498 0.4421611
v 0.6031818 1.295678 0
v 0.6253099 1.663498 0
v 0.4265132 1.295678 -0.4265141
v 0.4421601 1.663498 -0.4421606
v 0 1.295678 -0.6031823
v 0 1.663498 -0.6253099

vn 0 -1 0
vn 0 -1 0
vn 0 -1 0
vn 0 -1 0
vn 0 -1 0
vn 0 -1 0
vn 0 -1 0
vn 0 -1 0
vn 0.7056493 0.06417297 -0.7056494
vn 0.7071041 0.002806617 -0.707104
vn 0 0.002807012 -0.9999961
vn 0 0.06417324 -0.9979388
vn 0.9979388 0.0641728 0
vn 0.9999961 0.002806578 0
vn 0.7056491 0.06417293 0.7056495
vn 0.707104 0.002806845 0.707104
vn 0 0.06417319 0.9979388
vn 0 0.002807016 0.9999961
vn -0.705649 0.06417263 0.7056497
vn -0.707104 0.002806979 0.707104
vn -0.9979389 0.06417194 0
vn -0.9999961 0.002806977 0
vn -0.705649 0.06417271 -0.7056497
vn -0.7071041 0.00280713 -0.7071038
vn 0 0.06417324 -0.9979388
vn 0 0.002807012 -0.9999961
vn 0 -0.05008092 0.9987452
vn -0.7062191 -0.05008055 0.7062199
vn -0.9987452 -0.05007996 0
vn -0.7062194 -0.05008031 -0.7062196
vn 0 -0.05008096 -0.9987452
vn 0.7062192 -0.05008103 0.7062199
vn 0.9987451 -0.05008145 0
vn 0.7062196 -0.05008147 -0.7062193
vn 0 -0.05008096 -0.9987452
vn 0.005606241 0.9999686 -0.005606963
vn 0.005606239 0.9999686 -0.005606966
vn 0 0.9999686 -0.007929034
vn 0 0.9999686 -0.007929035
vn -0.005606254 0.9999686 -0.005606372
vn -0.005606252 0.9999686 -0.005606373
vn -0.007928451 0.9999686 0
vn -0.00792845 0.9999686 0
vn -0.005606248 0.9999686 0.00560668
vn -0.005606248 0.9999686 0.00560668
vn 0 0.9999686 0.007929026
vn 0 0.9999686 0.007929027
vn 0.005606233 0.9999686 0.00560637
vn 0.005606256 0.9999686 0.005606347
vn 0.00792843 0.9999686 0
vn 0.00792843 0.9999686 0
vn -0.04310565 0.9981402 -0.04310532
vn 0 1 0
vn -0.06096062 0.9981402 0
vn 0 0.9981402 -0.06096045
vn 0.04310571 0.9981402 -0.04310539
vn 0.06096069 0.9981402 0
vn 0.04310566 0.9981402 0.04310559
vn 0 0.9981402 0.06096045
vn -0.04310565 0.9981402 0.04310532
vn 0.7058308 0.06005035 0.7058306
vn 0.7058308 0.06005035 0.7058306
vn 0.9981954 0.06005053 0
vn 0.9981954 0.06005053 0
vn 0 0.06004992 0.9981954
vn 0 0.06004991 0.9981954
vn 0.7058307 0.06004995 -0.7058308
vn 0.7058306 0.06004995 -0.7058308
vn 0 0.06004904 -0.9981954
vn 0 0.06004904 -0.9981954
vn -0.7058306 0.06005006 -0.7058309
vn -0.7058308 0.06005004 -0.7058306
vn -0.9981953 0.06005132 0
vn -0.9981953 0.06005132 0
vn -0.7058306 0.06005045 0.7058307
vn -0.705831 0.06005044 0.7058304
vn 0 0.06004991 0.9981954
vn 0 0.06004992 0.9981954

vt 0.8745117 0.6083984
vt 0.8662109 0.6000977
vt 0.8662109 0.628418
vt 0.8745117 0.6201172
vt 0.8544922 0.628418
vt 0.8549805 0.6000977
vt 0.8466797 0.6201172
vt 0.8466797 0.6083984
vt 0.9853516 0.6005859
vt 0.9853516 0.6176758
vt 0.996582 0.6176758
vt 0.996582 0.6005859
vt 0.9736328 0.6005859
vt 0.9736328 0.6176758
vt 0.9619141 0.6005859
vt 0.9619141 0.6176758
vt 0.9501953 0.6005859
vt 0.9501953 0.6176758
vt 0.9384766 0.6005859
vt 0.9384766 0.6176758
vt 0.9267578 0.6005859
vt 0.9267578 0.6176758
vt 0.9155273 0.6005859
vt 0.9155273 0.6176758
vt 0.9038086 0.6005859
vt 0.9038086 0.6176758
vt 0.9501953 0.6381836
vt 0.9384766 0.6381836
vt 0.9267578 0.6381836
vt 0.9155273 0.6381836
vt 0.9038086 0.6381836
vt 0.9619141 0.6381836
vt 0.9736328 0.6381836
vt 0.9853516 0.6381836
vt 0.996582 0.6381836
vt 0.8999023 0.640625
vt 0.8989258 0.6401367
vt 0.8911133 0.6479492
vt 0.8916016 0.6489258
vt 0.8798828 0.6479492
vt 0.8793945 0.6489258
vt 0.8720703 0.6396484
vt 0.8710938 0.6401367
vt 0.8720703 0.6289063
vt 0.8710938 0.628418
vt 0.8798828 0.6210938
vt 0.8793945 0.6196289
vt 0.8911133 0.6210938
vt 0.8916016 0.6201172
vt 0.8989258 0.6289063
vt 0.8999023 0.628418
vt 0.8798828 0.6850586
vt 0.8852539 0.6723633
vt 0.8725586 0.6777344
vt 0.890625 0.6855469
vt 0.8984375 0.6777344
vt 0.8984375 0.6669922
vt 0.8911133 0.6591797
vt 0.8798828 0.6591797
vt 0.8725586 0.6669922
vt 0.9848633 0.5087891
vt 0.9848633 0.5019531
vt 0.9736328 0.5019531
vt 0.9736328 0.5087891
vt 0.9960938 0.5087891
vt 0.9960938 0.5019531
vt 0.9619141 0.5019531
vt 0.9619141 0.5087891
vt 0.9506836 0.5019531
vt 0.9506836 0.5087891
vt 0.9394531 0.5019531
vt 0.9394531 0.5087891
vt 0.9277344 0.5019531
vt 0.9277344 0.5087891
vt 0.9165039 0.5019531
vt 0.9165039 0.5087891
vt 0.9052734 0.5019531
vt 0.9052734 0.5087891

g Barrel4_2127_275
usemtl Barrel4_2127_275
usemap Barrel4_2127_275
f 1/1/1 3/3/3 2/2/2
f 1/1/1 4/4/4 3/3/3
f 2/2/2 3/3/3 5/5/5
f 2/2/2 5/5/5 6/6/6
f 6/6/6 5/5/5 7/7/7
f 6/6/6 7/7/7 8/8/8
f 9/9/9 11/11/11 10/10/10
f 9/9/9 12/12/12 11/11/11
f 13/13/13 9/9/9 10/10/10
f 13/13/13 10/10/10 14/14/14
f 15/15/15 13/13/13 14/14/14
f 15/15/15 14/14/14 16/16/16
f 17/17/17 15/15/15 16/16/16
f 17/17/17 16/16/16 18/18/18
f 19/19/19 17/17/17 18/18/18
f 19/19/19 18/18/18 20/20/20
f 21/21/21 19/19/19 20/20/20
f 21/21/21 20/20/20 22/22/22
f 23/23/23 21/21/21 22/22/22
f 23/23/23 22/22/22 24/24/24
f 25/25/25 23/23/23 24/24/24
f 25/25/25 24/24/24 26/26/26
f 20/20/20 18/18/18 27/27/27
f 20/20/20 27/27/27 28/28/28
f 22/22/22 20/20/20 28/28/28
f 22/22/22 28/28/28 29/29/29
f 24/24/24 22/22/22 29/29/29
f 24/24/24 29/29/29 30/30/30
f 26/26/26 24/24/24 30/30/30
f 26/26/26 30/30/30 31/31/31
f 18/18/18 32/32/32 27/27/27
f 18/18/18 16/16/16 32/32/32
f 16/16/16 33/33/33 32/32/32
f 16/16/16 14/14/14 33/33/33
f 14/14/14 34/34/34 33/33/33
f 14/14/14 10/10/10 34/34/34
f 10/10/10 35/35/35 34/34/34
f 10/10/10 11/11/11 35/35/35
f 36/36/36 38/38/38 37/37/37
f 36/36/36 39/39/39 38/38/38
f 39/39/39 40/40/40 38/38/38
f 39/39/39 41/41/41 40/40/40
f 41/41/41 42/42/42 40/40/40
f 41/41/41 43/43/43 42/42/42
f 43/43/43 44/44/44 42/42/42
f 43/43/43 45/45/45 44/44/44
f 45/45/45 46/46/46 44/44/44
f 45/45/45 47/47/47 46/46/46
f 47/47/47 48/48/48 46/46/46
f 47/47/47 49/49/49 48/48/48
f 49/49/49 50/50/50 48/48/48
f 49/49/49 51/51/51 50/50/50
f 51/51/51 37/37/37 50/50/50
f 51/51/51 36/36/36 37/37/37
f 52/52/52 54/54/54 53/53/53
f 55/55/55 52/52/52 53/53/53
f 56/56/56 55/55/55 53/53/53
f 57/57/57 56/56/56 53/53/53
f 58/58/58 57/57/57 53/53/53
f 59/59/59 58/58/58 53/53/53
f 60/60/60 59/59/59 53/53/53
f 54/54/54 60/60/60 53/53/53
f 61/61/61 63/63/63 62/62/62
f 61/61/61 64/64/64 63/63/63
f 65/65/65 61/61/61 62/62/62
f 65/65/65 62/62/62 66/66/66
f 64/64/64 67/67/67 63/63/63
f 64/64/64 68/68/68 67/67/67
f 68/68/68 69/69/69 67/67/67
f 68/68/68 70/70/70 69/69/69
f 70/70/70 71/71/71 69/69/69
f 70/70/70 72/72/72 71/71/71
f 72/72/72 73/73/73 71/71/71
f 72/72/72 74/74/74 73/73/73
f 74/74/74 75/75/75 73/73/73
f 74/74/74 76/76/76 75/75/75
f 76/76/76 77/77/77 75/75/75
f 76/76/76 78/78/78 77/77/77
