#Barrel6_1726_69.obj

v 0.5087196 0.002540469 -0.5087194
v 0.5389263 0.2213704 -0.5389261
v -1.193233E-07 0.2213704 -0.7621571
v -3.148536E-08 0.002540469 -0.7194389
v 0.7194381 0.002540469 5.041042E-07
v 0.762157 0.2213704 2.2124E-07
v 0.50872 0.002540469 0.50872
v 0.5389265 0.2213704 0.5389273
v 3.148536E-08 0.002540469 0.7194389
v 1.193233E-07 0.2213704 0.7621571
v -0.5087196 0.002540469 0.5087194
v -0.5389263 0.2213704 0.5389261
v -0.7194381 0.002540469 -4.859121E-07
v -0.7621571 0.2213704 -2.394321E-07
v -0.5087199 0.002540469 -0.50872
v -0.5389265 0.2213704 -0.5389273
v -3.148536E-08 0.002540469 -0.7194389
v -1.193233E-07 0.2213704 -0.7621571
v -0.8421043 0.332307 -4.754542E-07
v -0.5954576 0.332307 -0.5954579
v -0.8107709 0.4703976 -5.577106E-07
v -0.573302 0.4703976 -0.573301
v -0.8107709 1.224169 -5.577106E-07
v -0.573302 1.224169 -0.573301
v -4.326822E-07 0.4703976 -0.8107701
v -4.326822E-07 1.224169 -0.8107701
v -0.5733018 1.224169 0.5733027
v -0.5733018 0.4703976 0.5733027
v 4.326822E-07 1.224169 0.8107701
v 4.326822E-07 0.4703976 0.8107701
v 0.5733019 1.224169 0.573301
v 0.5733019 0.4703976 0.573301
v 0.8107708 1.224169 5.395185E-07
v 0.8107708 0.4703976 5.395185E-07
v 0.5733018 1.224169 -0.5733027
v 0.5733018 0.4703976 -0.5733027
v -4.326822E-07 1.224169 -0.8107701
v -4.326822E-07 0.4703976 -0.8107701
v -0.8368924 1.354697 -4.787957E-07
v -3.47868E-07 1.354697 -0.8368922
v 0.5917721 1.354697 -0.5917724
v -5.731322E-08 1.452641 -0.7568654
v 0.5351842 1.452641 -0.5351842
v -3.148536E-08 1.611267 -0.7194389
v 0.5087196 1.611267 -0.5087194
v 0.756865 1.452641 5.510449E-07
v 0.7194381 1.611267 5.041042E-07
v 0.5351842 1.452641 0.5351842
v 0.50872 1.611267 0.50872
v 5.731322E-08 1.452641 0.7568654
v 3.148536E-08 1.611267 0.7194389
v -0.5351842 1.452641 0.5351842
v -0.5087196 1.611267 0.5087194
v -0.756865 1.452641 -5.510449E-07
v -0.7194381 1.611267 -4.859121E-07
v -0.5351841 1.452641 -0.5351842
v -0.5087199 1.611267 -0.50872
v -5.731322E-08 1.452641 -0.7568654
v -3.148536E-08 1.611267 -0.7194389
v -0.5917722 1.354697 -0.5917731
v -3.47868E-07 1.354697 -0.8368922
v -0.5917721 1.354697 0.5917724
v 3.47868E-07 1.354697 0.8368922
v 0.5917721 1.354697 0.591773
v 0.8368924 1.354697 4.787957E-07
v 0.4420293 1.331321 -0.4420297
v 0.6251237 1.331321 1.886885E-07
v -1.838907E-07 1.331321 -0.6251234
v -0.4420292 1.331321 -0.4420291
v -0.6251236 1.331321 -1.1592E-07
v -0.4420293 1.331321 0.4420297
v 1.838907E-07 1.331321 0.6251234
v 0.4420292 1.331321 0.4420291
v -4.23978E-07 0.332307 -0.8421038
v 0.5954576 0.332307 -0.5954582
v -4.23978E-07 0.332307 -0.8421038
v 0.8421043 0.332307 4.754542E-07
v 0.5954576 0.332307 0.5954579
v 4.23978E-07 0.332307 0.8421038
v -0.5954576 0.332307 0.5954582
v 0.5087196 1.611267 -0.5087194
v 0.4420293 1.611267 -0.4420297
v -1.838907E-07 1.611267 -0.6251234
v -3.148536E-08 1.611267 -0.7194389
v 0.7194381 1.611267 5.041042E-07
v 0.6251237 1.611267 1.886885E-07
v 0.50872 1.611267 0.50872
v 0.4420292 1.611267 0.4420291
v 3.148536E-08 1.611267 0.7194389
v 1.838907E-07 1.611267 0.6251234
v -0.5087196 1.611267 0.5087194
v -0.4420293 1.611267 0.4420297
v -0.7194381 1.611267 -4.859121E-07
v -0.6251236 1.611267 -1.1592E-07
v -0.5087199 1.611267 -0.50872
v -0.4420292 1.611267 -0.4420291
v -3.148536E-08 1.611267 -0.7194389
v -1.838907E-07 1.611267 -0.6251234
v -1.838907E-07 1.611267 -0.6251234
v 0.4420293 1.611267 -0.4420297
v 0.4420293 1.395424 -0.4420297
v 0.4420293 1.331321 -0.4420297
v -1.838907E-07 1.331321 -0.6251234
v 0.6251237 1.395424 1.886885E-07
v 0.6251237 1.331321 1.886885E-07
v 0.4420292 1.395424 0.4420291
v 0.4420292 1.331321 0.4420291
v 1.838907E-07 1.331321 0.6251234
v 0.4420292 1.611267 0.4420291
v 1.838907E-07 1.611267 0.6251234
v 0.6251237 1.611267 1.886885E-07
v -0.4420293 1.331321 0.4420297
v 1.838907E-07 1.395424 0.6251234
v -0.4420293 1.611267 0.4420297
v -0.6251236 1.611267 -1.1592E-07
v -0.6251236 1.331321 -1.1592E-07
v -0.4420292 1.611267 -0.4420291
v -0.4420292 1.331321 -0.4420291
v -1.838907E-07 1.331321 -0.6251234
v -1.838907E-07 1.395424 -0.6251234
v -1.838907E-07 1.611267 -0.6251234
v -1.838907E-07 1.331321 -0.6251234
v -1.838907E-07 1.395424 -0.6251234
v -1.838907E-07 1.611267 -0.6251234
v 1.838907E-07 1.611267 0.6251234
v 1.838907E-07 1.395424 0.6251234
v 1.838907E-07 1.331321 0.6251234
v 0.5087196 0.002540469 -0.5087194
v 0 0.1192487 0
v 0.7194381 0.002540469 5.041042E-07
v 0.50872 0.002540469 0.50872
v 3.148536E-08 0.002540469 0.7194389
v -0.5087196 0.002540469 0.5087194
v -0.7194381 0.002540469 -4.859121E-07
v -0.5087199 0.002540469 -0.50872
v -3.148536E-08 0.002540469 -0.7194389

vn 0.4490713 -0.1915974 -0.8727115
vn 0.4242575 -0.3744639 -0.8244891
vn -0.2830066 -0.3744639 -0.8829972
vn -0.299559 -0.1915969 -0.9346417
vn 0.9346415 -0.1915978 -0.2995589
vn 0.8829972 -0.374464 -0.2830065
vn 0.8727115 -0.1915974 0.4490713
vn 0.8244892 -0.374464 0.4242575
vn 0.299559 -0.1915969 0.9346417
vn 0.2830066 -0.3744639 0.8829972
vn -0.4490713 -0.1915974 0.8727117
vn -0.4242575 -0.374464 0.8244892
vn -0.9346415 -0.1915978 0.2995589
vn -0.8829972 -0.374464 0.2830066
vn -0.8727116 -0.1915974 -0.4490711
vn -0.8244892 -0.374464 -0.4242574
vn -0.299559 -0.1915969 -0.9346417
vn -0.2830066 -0.3744639 -0.8829972
vn -0.9395543 -0.1629611 0.3011335
vn -0.8772988 -0.1629613 -0.4514314
vn -0.9516217 0.03728861 0.3050012
vn -0.8885665 0.03728862 -0.45723
vn -0.9518222 -0.03113854 0.3050655
vn -0.8887537 -0.03113859 -0.4573263
vn -0.3050012 0.03728867 -0.9516217
vn -0.3050655 -0.03113865 -0.9518222
vn -0.4573261 -0.0311386 0.8887538
vn -0.4572298 0.03728862 0.8885665
vn 0.3050655 -0.03113865 0.9518222
vn 0.3050012 0.03728866 0.9516217
vn 0.8887538 -0.03113857 0.4573262
vn 0.8885666 0.03728861 0.4572298
vn 0.9518222 -0.03113853 -0.3050655
vn 0.9516217 0.03728861 -0.3050012
vn 0.4573259 -0.0311386 -0.8887539
vn 0.4572295 0.03728863 -0.8885667
vn -0.3050655 -0.03113865 -0.9518222
vn -0.3050012 0.03728867 -0.9516217
vn -0.9341139 0.1944144 0.2993898
vn -0.2993898 0.1944147 -0.9341139
vn 0.4488173 0.1944143 -0.872219
vn -0.2733096 0.4451212 -0.852742
vn 0.409721 0.4451208 -0.7962387
vn -0.2970571 0.2296357 -0.9268358
vn 0.4453205 0.2296361 -0.865423
vn 0.8527421 0.445121 -0.2733096
vn 0.9268355 0.229637 -0.297057
vn 0.796239 0.4451208 0.4097204
vn 0.8654226 0.2296362 0.4453213
vn 0.2733096 0.4451212 0.852742
vn 0.2970571 0.2296356 0.9268358
vn -0.409721 0.4451208 0.7962387
vn -0.4453205 0.2296361 0.865423
vn -0.852742 0.4451211 0.2733096
vn -0.9268355 0.2296368 0.2970571
vn -0.796239 0.445121 -0.4097203
vn -0.8654228 0.2296361 -0.4453209
vn -0.2733096 0.4451212 -0.852742
vn -0.2970571 0.2296357 -0.9268358
vn -0.8722186 0.1944144 -0.4488182
vn -0.2993898 0.1944147 -0.9341139
vn -0.4488173 0.1944143 0.8722191
vn 0.2993898 0.1944148 0.9341139
vn 0.8722187 0.1944142 0.4488183
vn 0.934114 0.1944142 -0.2993898
vn 0 1 0
vn 0 1 0
vn 0 1 0
vn 0 1 0
vn 0 1 0
vn 0 1 0
vn 0 1 0
vn 0 1 0
vn -0.3011335 -0.1629614 -0.9395542
vn 0.4514319 -0.1629613 -0.8772987
vn -0.3011335 -0.1629614 -0.9395542
vn 0.9395543 -0.1629612 -0.3011335
vn 0.8772988 -0.1629613 0.4514315
vn 0.3011335 -0.1629614 0.9395542
vn -0.451432 -0.1629613 0.8772986
vn 0 1 0
vn 0 1 0
vn 0 1 0
vn 0 1 0
vn 0 1 0
vn 0 1 0
vn 0 1 0
vn 0 1 0
vn 0 1 0
vn 0 1 0
vn 0 1 0
vn 0 1 0
vn 0 1 0
vn 0 1 0
vn 0 1 0
vn 0 1 0
vn 0 1 0
vn 0 1 0
vn 0.3052135 0 0.952284
vn -0.4575478 0 0.889185
vn -0.4575478 0 0.889185
vn -0.4575478 0 0.889185
vn 0.3052135 0 0.952284
vn -0.952284 0 0.3052135
vn -0.952284 0 0.3052135
vn -0.889185 0 -0.4575479
vn -0.889185 0 -0.4575479
vn -0.3052135 0 -0.952284
vn -0.889185 0 -0.4575479
vn -0.3052135 0 -0.952284
vn -0.952284 0 0.3052135
vn 0.4575477 0 -0.8891851
vn -0.3052135 0 -0.952284
vn 0.4575477 0 -0.8891851
vn 0.952284 0 -0.3052135
vn 0.952284 0 -0.3052135
vn 0.889185 0 0.4575479
vn 0.889185 0 0.4575479
vn 0.3052135 0 0.952284
vn 0.3052135 0 0.952284
vn 0.3052135 0 0.952284
vn 0.3052135 0 0.952284
vn 0.3052135 0 0.952284
vn 0.3052135 0 0.952284
vn -0.3052135 0 -0.952284
vn -0.3052135 0 -0.952284
vn -0.3052135 0 -0.952284
vn -0.07326632 -0.9870963 0.1423834
vn 0 -1 0
vn -0.1524874 -0.9870963 0.04887325
vn -0.1423835 -0.9870963 -0.07326622
vn -0.04887324 -0.9870963 -0.1524874
vn 0.07326632 -0.9870963 -0.1423834
vn 0.1524874 -0.9870963 -0.04887325
vn 0.1423835 -0.9870963 0.07326622
vn 0.04887324 -0.9870963 0.1524874

vt 0.9863281 0.6411133
vt 0.9863281 0.6455078
vt 0.9980469 0.6455078
vt 0.9980469 0.6411133
vt 0.9741211 0.6411133
vt 0.9741211 0.6455078
vt 0.9619141 0.6411133
vt 0.9619141 0.6455078
vt 0.9501953 0.6411133
vt 0.9501953 0.6455078
vt 0.9379883 0.6411133
vt 0.9379883 0.6455078
vt 0.9262695 0.6411133
vt 0.9262695 0.6455078
vt 0.9140625 0.6411133
vt 0.9140625 0.6455078
vt 0.9023438 0.6411133
vt 0.9023438 0.6455078
vt 0.9262695 0.6479492
vt 0.9140625 0.6479492
vt 0.9262695 0.6508789
vt 0.9140625 0.6508789
vt 0.9262695 0.6665039
vt 0.9140625 0.6665039
vt 0.9023438 0.6508789
vt 0.9023438 0.6665039
vt 0.9379883 0.6665039
vt 0.9379883 0.6508789
vt 0.9501953 0.6665039
vt 0.9501953 0.6508789
vt 0.9619141 0.6665039
vt 0.9619141 0.6508789
vt 0.9741211 0.6665039
vt 0.9741211 0.6508789
vt 0.9863281 0.6665039
vt 0.9863281 0.6508789
vt 0.9980469 0.6665039
vt 0.9980469 0.6508789
vt 0.9262695 0.6694336
vt 0.9980469 0.6694336
vt 0.9863281 0.6694336
vt 0.9980469 0.6713867
vt 0.9863281 0.6713867
vt 0.9980469 0.6748047
vt 0.9863281 0.6748047
vt 0.9741211 0.6713867
vt 0.9741211 0.6748047
vt 0.9619141 0.6713867
vt 0.9619141 0.6748047
vt 0.9501953 0.6713867
vt 0.9501953 0.6748047
vt 0.9379883 0.6713867
vt 0.9379883 0.6748047
vt 0.9262695 0.6713867
vt 0.9262695 0.6748047
vt 0.9140625 0.6713867
vt 0.9140625 0.6748047
vt 0.9023438 0.6713867
vt 0.9023438 0.6748047
vt 0.9140625 0.6694336
vt 0.9023438 0.6694336
vt 0.9379883 0.6694336
vt 0.9501953 0.6694336
vt 0.9619141 0.6694336
vt 0.9741211 0.6694336
vt 0.8984375 0.6777344
vt 0.8984375 0.6669922
vt 0.890625 0.6855469
vt 0.8798828 0.6855469
vt 0.8720703 0.6782227
vt 0.8720703 0.6669922
vt 0.8798828 0.659668
vt 0.890625 0.659668
vt 0.9023438 0.6479492
vt 0.9863281 0.6479492
vt 0.9980469 0.6479492
vt 0.9741211 0.6479492
vt 0.9619141 0.6479492
vt 0.9501953 0.6479492
vt 0.9379883 0.6479492
vt 0.9863281 0.6748047
vt 0.9863281 0.6767578
vt 0.9980469 0.6767578
vt 0.9980469 0.6748047
vt 0.9741211 0.6748047
vt 0.9741211 0.6767578
vt 0.9619141 0.6748047
vt 0.9619141 0.6767578
vt 0.9501953 0.6748047
vt 0.9501953 0.6767578
vt 0.9379883 0.6748047
vt 0.9379883 0.6767578
vt 0.9262695 0.6748047
vt 0.9262695 0.6767578
vt 0.9140625 0.6748047
vt 0.9140625 0.6767578
vt 0.9023438 0.6748047
vt 0.9023438 0.6767578
vt 0.9980469 0.6782227
vt 0.9858398 0.6782227
vt 0.9858398 0.6831055
vt 0.9858398 0.6845703
vt 0.9980469 0.6845703
vt 0.9741211 0.6831055
vt 0.9741211 0.6845703
vt 0.9619141 0.6831055
vt 0.9619141 0.6845703
vt 0.9501953 0.6845703
vt 0.9619141 0.6782227
vt 0.9501953 0.6782227
vt 0.9741211 0.6782227
vt 0.9379883 0.6845703
vt 0.9501953 0.6831055
vt 0.9379883 0.6782227
vt 0.9262695 0.6782227
vt 0.9262695 0.6845703
vt 0.9140625 0.6782227
vt 0.9140625 0.6845703
vt 0.9023438 0.6845703
vt 0.9023438 0.6831055
vt 0.9023438 0.6782227
vt 0.9980469 0.6845703
vt 0.9980469 0.6831055
vt 0.9980469 0.6782227
vt 0.9501953 0.6782227
vt 0.9501953 0.6831055
vt 0.9501953 0.6845703
vt 0.8515625 0.659668
vt 0.8569336 0.6723633
vt 0.8623047 0.659668
vt 0.8696289 0.6669922
vt 0.8696289 0.6772461
vt 0.8623047 0.6845703
vt 0.8520508 0.6850586
vt 0.8447266 0.6777344
vt 0.8447266 0.6669922

g Barrel6_1726_69
usemtl Barrel6_1726_69
usemap Barrel6_1726_69
f 1/1/1 3/3/3 2/2/2
f 1/1/1 4/4/4 3/3/3
f 5/5/5 1/1/1 2/2/2
f 5/5/5 2/2/2 6/6/6
f 7/7/7 5/5/5 6/6/6
f 7/7/7 6/6/6 8/8/8
f 9/9/9 7/7/7 8/8/8
f 9/9/9 8/8/8 10/10/10
f 11/11/11 9/9/9 10/10/10
f 11/11/11 10/10/10 12/12/12
f 13/13/13 11/11/11 12/12/12
f 13/13/13 12/12/12 14/14/14
f 15/15/15 13/13/13 14/14/14
f 15/15/15 14/14/14 16/16/16
f 17/17/17 15/15/15 16/16/16
f 17/17/17 16/16/16 18/18/18
f 16/16/16 14/14/14 19/19/19
f 16/16/16 19/19/19 20/20/20
f 18/18/18 16/16/16 20/20/20
f 21/21/21 20/20/20 19/19/19
f 21/21/21 22/22/22 20/20/20
f 22/22/22 21/21/21 23/23/23
f 22/22/22 23/23/23 24/24/24
f 25/25/25 22/22/22 24/24/24
f 25/25/25 24/24/24 26/26/26
f 21/21/21 27/27/27 23/23/23
f 21/21/21 28/28/28 27/27/27
f 28/28/28 21/21/21 19/19/19
f 28/28/28 29/29/29 27/27/27
f 28/28/28 30/30/30 29/29/29
f 30/30/30 31/31/31 29/29/29
f 30/30/30 32/32/32 31/31/31
f 32/32/32 33/33/33 31/31/31
f 32/32/32 34/34/34 33/33/33
f 34/34/34 35/35/35 33/33/33
f 34/34/34 36/36/36 35/35/35
f 36/36/36 37/37/37 35/35/35
f 36/36/36 38/38/38 37/37/37
f 24/24/24 23/23/23 39/39/39
f 35/35/35 37/37/37 40/40/40
f 35/35/35 40/40/40 41/41/41
f 33/33/33 35/35/35 41/41/41
f 42/42/42 41/41/41 40/40/40
f 42/42/42 43/43/43 41/41/41
f 43/43/43 42/42/42 44/44/44
f 43/43/43 44/44/44 45/45/45
f 46/46/46 43/43/43 45/45/45
f 46/46/46 45/45/45 47/47/47
f 48/48/48 46/46/46 47/47/47
f 48/48/48 47/47/47 49/49/49
f 50/50/50 48/48/48 49/49/49
f 50/50/50 49/49/49 51/51/51
f 52/52/52 50/50/50 51/51/51
f 52/52/52 51/51/51 53/53/53
f 54/54/54 52/52/52 53/53/53
f 54/54/54 53/53/53 55/55/55
f 56/56/56 54/54/54 55/55/55
f 56/56/56 55/55/55 57/57/57
f 58/58/58 56/56/56 57/57/57
f 58/58/58 57/57/57 59/59/59
f 54/54/54 56/56/56 60/60/60
f 54/54/54 60/60/60 39/39/39
f 52/52/52 54/54/54 39/39/39
f 24/24/24 39/39/39 60/60/60
f 26/26/26 24/24/24 60/60/60
f 26/26/26 60/60/60 61/61/61
f 56/56/56 61/61/61 60/60/60
f 56/56/56 58/58/58 61/61/61
f 50/50/50 52/52/52 62/62/62
f 52/52/52 39/39/39 62/62/62
f 50/50/50 62/62/62 63/63/63
f 27/27/27 63/63/63 62/62/62
f 27/27/27 29/29/29 63/63/63
f 29/29/29 64/64/64 63/63/63
f 29/29/29 31/31/31 64/64/64
f 31/31/31 65/65/65 64/64/64
f 31/31/31 33/33/33 65/65/65
f 33/33/33 41/41/41 65/65/65
f 43/43/43 65/65/65 41/41/41
f 43/43/43 46/46/46 65/65/65
f 46/46/46 64/64/64 65/65/65
f 46/46/46 48/48/48 64/64/64
f 48/48/48 63/63/63 64/64/64
f 48/48/48 50/50/50 63/63/63
f 23/23/23 27/27/27 62/62/62
f 23/23/23 62/62/62 39/39/39
f 66/66/66 68/68/68 67/67/67
f 68/68/68 69/69/69 67/67/67
f 69/69/69 70/70/70 67/67/67
f 70/70/70 71/71/71 67/67/67
f 71/71/71 72/72/72 67/67/67
f 72/72/72 73/73/73 67/67/67
f 18/18/18 20/20/20 74/74/74
f 22/22/22 74/74/74 20/20/20
f 22/22/22 25/25/25 74/74/74
f 2/2/2 76/76/76 75/75/75
f 2/2/2 3/3/3 76/76/76
f 38/38/38 75/75/75 76/76/76
f 38/38/38 36/36/36 75/75/75
f 6/6/6 2/2/2 75/75/75
f 6/6/6 75/75/75 77/77/77
f 36/36/36 77/77/77 75/75/75
f 36/36/36 34/34/34 77/77/77
f 8/8/8 6/6/6 77/77/77
f 8/8/8 77/77/77 78/78/78
f 34/34/34 78/78/78 77/77/77
f 34/34/34 32/32/32 78/78/78
f 10/10/10 8/8/8 78/78/78
f 10/10/10 78/78/78 79/79/79
f 32/32/32 79/79/79 78/78/78
f 32/32/32 30/30/30 79/79/79
f 12/12/12 10/10/10 79/79/79
f 12/12/12 79/79/79 80/80/80
f 30/30/30 80/80/80 79/79/79
f 30/30/30 28/28/28 80/80/80
f 14/14/14 12/12/12 80/80/80
f 14/14/14 80/80/80 19/19/19
f 28/28/28 19/19/19 80/80/80
f 81/81/81 83/83/83 82/82/82
f 81/81/81 84/84/84 83/83/83
f 85/85/85 81/81/81 82/82/82
f 85/85/85 82/82/82 86/86/86
f 87/87/87 85/85/85 86/86/86
f 87/87/87 86/86/86 88/88/88
f 89/89/89 87/87/87 88/88/88
f 89/89/89 88/88/88 90/90/90
f 91/91/91 89/89/89 90/90/90
f 91/91/91 90/90/90 92/92/92
f 93/93/93 91/91/91 92/92/92
f 93/93/93 92/92/92 94/94/94
f 95/95/95 93/93/93 94/94/94
f 95/95/95 94/94/94 96/96/96
f 97/97/97 95/95/95 96/96/96
f 97/97/97 96/96/96 98/98/98
f 99/99/99 101/101/101 100/100/100
f 101/101/101 99/99/99 102/102/102
f 102/102/102 99/99/99 103/103/103
f 102/102/102 104/104/104 101/101/101
f 104/104/104 102/102/102 105/105/105
f 105/105/105 106/106/106 104/104/104
f 106/106/106 105/105/105 107/107/107
f 108/108/108 106/106/106 107/107/107
f 106/106/106 108/108/108 109/109/109
f 104/104/104 106/106/106 109/109/109
f 109/109/109 108/108/108 110/110/110
f 104/104/104 109/109/109 111/111/111
f 101/101/101 104/104/104 111/111/111
f 101/101/101 111/111/111 100/100/100
f 112/112/112 113/113/113 108/108/108
f 113/113/113 112/112/112 110/110/110
f 110/110/110 112/112/112 114/114/114
f 115/115/115 114/114/114 112/112/112
f 115/115/115 112/112/112 116/116/116
f 117/117/117 115/115/115 116/116/116
f 117/117/117 116/116/116 118/118/118
f 119/119/119 117/117/117 118/118/118
f 120/120/120 117/117/117 119/119/119
f 117/117/117 120/120/120 121/121/121
f 122/122/122 124/124/124 123/123/123
f 125/125/125 127/127/127 126/126/126
f 128/128/128 130/130/130 129/129/129
f 130/130/130 131/131/131 129/129/129
f 131/131/131 132/132/132 129/129/129
f 132/132/132 133/133/133 129/129/129
f 133/133/133 134/134/134 129/129/129
f 134/134/134 135/135/135 129/129/129
f 135/135/135 136/136/136 129/129/129
f 136/136/136 128/128/128 129/129/129
