#base_3167_184.obj

v 0.3176624 -0.0552685 -0.3983358
v 0.4492415 0.4542224 -0.5633312
v -0.1133737 -0.0552685 -0.496718
v -0.1603328 0.4542224 -0.7024626
v -0.4590345 -0.0552685 -0.2210602
v -0.6491743 0.4542224 -0.3126272
v -0.4590354 -0.0552685 0.2210599
v 0.3176624 0.9637132 -0.3983358
v -0.1133737 0.9637132 -0.496718
v -0.4590345 0.9637132 -0.2210602
v -0.6491761 0.4542224 0.312626
v -0.4590354 -0.0552685 0.2210599
v -0.1133708 -0.0552685 0.4967167
v -0.160331 0.4542224 0.7024634
v 0.317663 -0.0552685 0.398336
v 0.4492422 0.4542224 0.563332
v 0.5094927 -0.0552685 7.821767E-07
v 0.7205304 0.4542224 -5.009396E-07
v 0.3176624 -0.0552685 -0.3983358
v 0.4492415 0.4542224 -0.5633312
v -0.4590354 0.9637132 0.2210599
v -0.1133708 0.9637132 0.4967167
v -0.4590354 0.9637132 0.2210599
v 0.317663 0.9637132 0.398336
v 0.5094927 0.9637132 7.821767E-07
v 0.3176624 0.9637132 -0.3983358
v 0 -0.2663065 0
v 0 -0.2663065 0
v 0 1.174751 0
v 0 1.174751 0
v 0 1.174751 0
v 0 -0.2663065 0
v 0 -0.2663065 0
v -0.4590354 -0.0552685 0.2210599
v 0 1.174751 0
v -0.4590354 0.9637132 0.2210599
v 0.0697794 0.9921181 -0.08941227
v 0.0540305 1.274805 -0.1479526
v -0.05232291 1.287257 -0.1203225
v -0.1123234 0.9921181 -0.01572535
v 0.03031587 1.365932 -0.08189578
v 0.042544 0.9921181 0.1051376
v 0.0540305 1.274805 -0.1479526
v 0.0697794 0.9921181 -0.08941227
v -0.07308283 1.355669 -0.2672689
v -0.01657171 1.355669 -0.2901368
v -0.3566353 1.101642 -0.5506665
v -0.1591192 1.101642 -0.6305858
v -0.2959587 1.254179 -0.6847377
v -0.04671314 1.408225 -0.2833596
v -0.1591192 1.101642 -0.6305858
v -0.01657171 1.355669 -0.2901368
v -0.6916544 0.5799594 -0.6944878
v -0.608019 0.5798138 -0.7378624
v -0.608019 0.5798138 -0.7378624
v -0.6756498 0.6380143 -0.7665808
v -0.6682811 0.2666658 -0.9149756
v -0.785386 0.2465218 -0.913881
v -0.7399043 0.3286842 -0.9867845
v -0.6682811 0.2666658 -0.9149756
v -0.6102608 0.001540661 -1.373435
v -0.4065573 0.04133278 -1.379934
v -0.6302903 0.1010296 -1.664912
v -0.5289559 0.1115355 -1.75481
v -0.583635 0.2249802 -1.697491
v -0.543274 0.1968539 -1.395491
v -0.5289559 0.1115355 -1.75481
v -0.4065573 0.04133278 -1.379934
v -0.7416584 0.3020715 -2.024382
v -0.7877973 0.3773862 -1.999651
v -0.86879 0.3476965 -2.145488
v -0.8139633 0.2965971 -1.96499
v -0.86879 0.3476965 -2.145488
v -0.7416584 0.3020715 -2.024382

vn 0.6063154 -0.6300467 -0.4852037
vn 0.7558479 0 -0.6547472
vn -0.001316145 -0.6300455 -0.7765571
vn -0.04063864 0 -0.9991739
vn -0.6079568 -0.6300465 -0.483146
vn -0.8065234 0 -0.5912021
vn -0.7567935 -0.6300464 0.1740833
vn 0.5667123 0.6300461 -0.5309229
vn -0.06175253 0.630046 -0.7740987
vn -0.6437168 0.6300459 -0.4343626
vn -0.9650795 0 0.2619571
vn -0.7567935 -0.6300464 0.1740833
vn -0.3357497 -0.6300457 0.7002246
vn -0.3969111 0 0.9178571
vn 0.3381213 -0.6300457 0.6990825
vn 0.4701399 0 0.882592
vn 0.7573791 -0.6300468 0.1715166
vn 0.9831655 0 0.1827172
vn 0.6063154 -0.6300467 -0.4852037
vn 0.7558479 0 -0.6547472
vn -0.740949 0.6300462 0.2324576
vn -0.2802318 0.6300454 0.7242327
vn -0.740949 0.6300462 0.2324576
vn 0.391506 0.6300461 0.6706451
vn 0.7684308 0.6300469 0.112049
vn 0.5667123 0.6300461 -0.5309229
vn 0 -1 0
vn 0 -1 0
vn 0 1 0
vn 0 1 0
vn 0 1 0
vn 0 -1 0
vn 0 -1 0
vn -0.7567935 -0.6300464 0.1740833
vn 0 1 0
vn -0.740949 0.6300462 0.2324576
vn 0.8578895 -0.1013255 -0.5037447
vn 0.9256586 -0.09723847 -0.3656513
vn -0.9858375 0.1602733 -0.04936467
vn -0.9703901 0.2373672 -0.04472087
vn 0.1380362 0.6223465 0.7704744
vn 0.03269817 0.4505945 0.8921298
vn 0.9256586 -0.09723847 -0.3656513
vn 0.8578895 -0.1013255 -0.5037447
vn -0.8406383 -0.1569887 0.5183452
vn 0.9673201 -0.2265144 -0.1139433
vn -0.6588866 -0.02052447 0.7519623
vn 0.8558308 -0.417016 -0.3060249
vn -0.02408913 0.5897858 -0.8072004
vn 0.05357717 0.9684817 -0.2432545
vn 0.8558308 -0.417016 -0.3060249
vn 0.9673201 -0.2265144 -0.1139433
vn -0.6785262 -0.08719272 0.7293831
vn 0.84107 -0.5249067 0.1306684
vn 0.84107 -0.5249067 0.1306684
vn -0.3296385 0.4539165 -0.8278275
vn 0.6633803 -0.3628972 0.6543946
vn -0.7667311 -0.6146027 0.1854372
vn -0.266525 0.7700813 -0.5796025
vn 0.6633803 -0.3628972 0.6543946
vn -0.5457751 -0.8378943 -0.007927105
vn 0.8332432 -0.4139336 0.3665579
vn -0.7116264 -0.6734259 -0.2002133
vn 0.82517 -0.3943877 -0.4044166
vn 0.1974571 0.955163 0.2206226
vn 0.05465138 0.9828294 -0.1762373
vn 0.82517 -0.3943877 -0.4044166
vn 0.8332432 -0.4139336 0.3665579
vn 0.7946372 -0.2318038 -0.561087
vn 0.1349189 0.9552795 0.2631309
vn -0.3568383 -0.08100846 -0.9306471
vn -0.9184768 -0.3788234 0.1135481
vn -0.3568383 -0.08100846 -0.9306471
vn 0.7946372 -0.2318038 -0.561087

vt 0.6303711 0.05145264
vt 0.6381836 0.03286743
vt 0.6201172 0.04681396
vt 0.6235352 0.03204346
vt 0.6069336 0.04727173
vt 0.6079102 0.03173828
vt 0.59375 0.05169678
vt 0.6323242 0.01333618
vt 0.6206055 0.01702881
vt 0.6074219 0.01591492
vt 0.5957031 0.03097534
vt 0.59375 0.05169678
vt 0.5839844 0.04647827
vt 0.5849609 0.03053284
vt 0.5722656 0.04403687
vt 0.5712891 0.03001404
vt 0.5610352 0.04483032
vt 0.5566406 0.02975464
vt 0.5512695 0.04934692
vt 0.5439453 0.02894592
vt 0.5957031 0.01042175
vt 0.5844727 0.01464081
vt 0.5957031 0.01042175
vt 0.5722656 0.01631165
vt 0.5615234 0.01480865
vt 0.5532227 0.009353638
vt 0.5722656 0.05761719
vt 0.5722656 0.05761719
vt 0.574707 0.00286293
vt 0.574707 0.00286293
vt 0.574707 0.00286293
vt 0.6118164 0.05996704
vt 0.5722656 0.05761719
vt 0.59375 0.05169678
vt 0.6142578 0.003448486
vt 0.5957031 0.01042175
vt 0.5668945 0.142334
vt 0.5742188 0.142334
vt 0.5742188 0.1381836
vt 0.5668945 0.1381836
vt 0.5742188 0.1341553
vt 0.5668945 0.1341553
vt 0.5742188 0.1300049
vt 0.5668945 0.1300049
vt 0.5766602 0.1381836
vt 0.5766602 0.142334
vt 0.5795898 0.1381836
vt 0.5795898 0.142334
vt 0.5795898 0.1341553
vt 0.5766602 0.1341553
vt 0.5795898 0.1300049
vt 0.5766602 0.1300049
vt 0.5859375 0.1381836
vt 0.5859375 0.142334
vt 0.5859375 0.1300049
vt 0.5859375 0.1341553
vt 0.5922852 0.142334
vt 0.5922852 0.1381836
vt 0.5922852 0.1341553
vt 0.5922852 0.1300049
vt 0.597168 0.1381836
vt 0.597168 0.142334
vt 0.6049805 0.1381836
vt 0.6049805 0.142334
vt 0.6049805 0.1341553
vt 0.597168 0.1341553
vt 0.6049805 0.1300049
vt 0.597168 0.1300049
vt 0.6118164 0.1300049
vt 0.6118164 0.1341553
vt 0.6181641 0.1362305
vt 0.6118164 0.1381836
vt 0.6181641 0.1362305
vt 0.6118164 0.142334

g base_3167_184
usemtl base_3167_184
usemap base_3167_184
f 1/1/1 3/3/3 2/2/2
f 2/2/2 3/3/3 4/4/4
f 3/3/3 5/5/5 4/4/4
f 4/4/4 5/5/5 6/6/6
f 5/5/5 7/7/7 6/6/6
f 2/2/2 4/4/4 8/8/8
f 8/8/8 4/4/4 9/9/9
f 4/4/4 6/6/6 9/9/9
f 9/9/9 6/6/6 10/10/10
f 6/6/6 11/11/11 10/10/10
f 6/6/6 12/12/12 11/11/11
f 12/12/12 13/13/13 11/11/11
f 11/11/11 13/13/13 14/14/14
f 13/13/13 15/15/15 14/14/14
f 14/14/14 15/15/15 16/16/16
f 15/15/15 17/17/17 16/16/16
f 16/16/16 17/17/17 18/18/18
f 17/17/17 19/19/19 18/18/18
f 18/18/18 19/19/19 20/20/20
f 10/10/10 11/11/11 21/21/21
f 11/11/11 14/14/14 21/21/21
f 14/14/14 16/16/16 22/22/22
f 23/23/23 14/14/14 22/22/22
f 22/22/22 16/16/16 24/24/24
f 16/16/16 18/18/18 24/24/24
f 24/24/24 18/18/18 25/25/25
f 18/18/18 20/20/20 25/25/25
f 25/25/25 20/20/20 26/26/26
f 15/15/15 13/13/13 27/27/27
f 17/17/17 15/15/15 27/27/27
f 19/19/19 17/17/17 28/28/28
f 23/23/23 22/22/22 29/29/29
f 22/22/22 24/24/24 30/30/30
f 24/24/24 25/25/25 30/30/30
f 25/25/25 26/26/26 31/31/31
f 3/3/3 1/1/1 32/32/32
f 5/5/5 3/3/3 32/32/32
f 7/7/7 5/5/5 32/32/32
f 13/13/13 34/34/34 33/33/33
f 8/8/8 9/9/9 35/35/35
f 9/9/9 10/10/10 35/35/35
f 10/10/10 36/36/36 35/35/35
f 37/37/37 39/39/39 38/38/38
f 37/37/37 40/40/40 39/39/39
f 40/40/40 41/41/41 39/39/39
f 40/40/40 42/42/42 41/41/41
f 42/42/42 43/43/43 41/41/41
f 42/42/42 44/44/44 43/43/43
f 38/38/38 39/39/39 45/45/45
f 38/38/38 45/45/45 46/46/46
f 46/46/46 45/45/45 47/47/47
f 46/46/46 47/47/47 48/48/48
f 45/45/45 49/49/49 47/47/47
f 45/45/45 50/50/50 49/49/49
f 39/39/39 50/50/50 45/45/45
f 39/39/39 41/41/41 50/50/50
f 50/50/50 51/51/51 49/49/49
f 50/50/50 52/52/52 51/51/51
f 41/41/41 52/52/52 50/50/50
f 41/41/41 43/43/43 52/52/52
f 48/48/48 47/47/47 53/53/53
f 48/48/48 53/53/53 54/54/54
f 49/49/49 51/51/51 55/55/55
f 49/49/49 55/55/55 56/56/56
f 47/47/47 56/56/56 53/53/53
f 47/47/47 49/49/49 56/56/56
f 57/57/57 54/54/54 53/53/53
f 57/57/57 53/53/53 58/58/58
f 58/58/58 53/53/53 56/56/56
f 59/59/59 56/56/56 55/55/55
f 58/58/58 56/56/56 59/59/59
f 59/59/59 55/55/55 60/60/60
f 57/57/57 58/58/58 61/61/61
f 57/57/57 61/61/61 62/62/62
f 62/62/62 61/61/61 63/63/63
f 62/62/62 63/63/63 64/64/64
f 61/61/61 65/65/65 63/63/63
f 61/61/61 66/66/66 65/65/65
f 58/58/58 66/66/66 61/61/61
f 58/58/58 59/59/59 66/66/66
f 66/66/66 67/67/67 65/65/65
f 66/66/66 68/68/68 67/67/67
f 59/59/59 68/68/68 66/66/66
f 59/59/59 60/60/60 68/68/68
f 65/65/65 67/67/67 69/69/69
f 65/65/65 69/69/69 70/70/70
f 63/63/63 65/65/65 70/70/70
f 70/70/70 69/69/69 71/71/71
f 63/63/63 70/70/70 72/72/72
f 64/64/64 63/63/63 72/72/72
f 72/72/72 70/70/70 73/73/73
f 74/74/74 72/72/72 73/73/73
f 64/64/64 72/72/72 74/74/74
