#base_3208_214.obj

v -0.1167242 0.07569426 -0.4962817
v 0.3139335 0.07569426 -0.3979884
v -0.1596791 0.3686399 -0.6984025
v 0.4463741 0.3686399 -0.5600746
v -0.645694 0.3686399 -0.3108177
v -0.462085 0.07569426 -0.2208668
v -0.4620846 0.07569426 0.2208675
v -0.6456949 0.3686399 0.3108199
v -0.1167251 0.07569426 0.4962823
v 0.4417097 0.6605639 -0.5562581
v -0.160214 0.6605733 -0.6936559
v -0.6429418 0.6605809 -0.3087119
v -0.6429416 0.6605809 0.3087137
v -0.1602158 0.6605733 0.69366
v -0.1596785 0.3686399 0.6984051
v -0.1167251 0.07569426 0.4962823
v 0.4417089 0.6605639 0.5562567
v 0.4463738 0.3686399 0.560075
v 0.313933 0.07569426 0.3979883
v -0.1167251 0.07569426 0.4962823
v 0.5055936 0.07569426 -3.050172E-07
v 0.7160925 0.3686399 -5.189581E-07
v 0.4463741 0.3686399 -0.5600746
v 0.3139335 0.07569426 -0.3979884
v 0.7095826 0.6605598 2.200334E-08
v 0.4417097 0.6605639 -0.5562581
v 4.869729E-07 -0.03727025 6.343074E-07
v -0.1167251 0.07569426 0.4962823
v 0.3735852 0.9033576 -0.4647834
v 0.5974067 0.9033524 1.601479E-06
v 0.3285746 1.072317 0.1573014
v 0.08261438 1.072352 -0.3534936
v -4.59052E-05 0.9874117 1.838541E-06
v -0.08761264 1.072376 0.3923838
v 0.3735858 0.9033576 0.4647858
v -0.129359 0.9033695 0.5795978
v -0.08761264 1.072376 0.3923838
v -0.5327157 0.9033793 0.2579532
v -0.532716 0.9033793 -0.25795
v -0.3607365 1.072416 -7.666921E-07
v 0.08261438 1.072352 -0.3534936
v -4.59052E-05 0.9874117 1.838541E-06
v -0.08761264 1.072376 0.3923838
v -0.1293591 0.9033695 -0.5795965
v 0.3735852 0.9033576 -0.4647834
v 4.869729E-07 -0.03727025 6.343074E-07
v 4.869729E-07 -0.03727025 6.343074E-07
v -0.1167251 0.07569426 0.4962823
v 4.869729E-07 -0.03727025 6.343074E-07
v -0.05670769 0.9967521 -0.09822072
v -0.1168854 1.279439 -0.1055823
v -0.1311623 1.291891 0.003372381
v -0.05670877 0.9967521 0.09822286
v -0.0645437 1.370566 -0.05882183
v 0.1134179 0.9967521 -2.369078E-07
v -0.1168854 1.279439 -0.1055823
v -0.05670769 0.9967521 -0.09822072
v -0.2751693 1.360303 -0.0325044
v -0.275169 1.360303 -0.09346683
v -0.6442315 1.106276 0.124044
v -0.6442297 1.106276 -0.08902545
v -0.7457558 1.258813 0.01750964
v -0.2801939 1.412859 -0.06298489
v -0.6442297 1.106276 -0.08902545
v -0.275169 1.360303 -0.09346683
v -0.9032178 0.5845934 0.3806584
v -0.9120528 0.5844479 0.2868599
v -0.9120528 0.5844479 0.2868599
v -0.9640412 0.6426483 0.3387792
v -1.098837 0.2712998 0.2762848
v -1.141749 0.2511559 0.3852541
v -1.19227 0.3333182 0.3157497
v -1.098837 0.2712998 0.2762848
v -1.502058 0.08108389 0.05053749
v -1.431678 0.120876 -0.1407318
v -1.77977 0.1056636 -0.04022351
v -1.825094 0.1161695 -0.1678802
v -1.792471 0.2296142 -0.09569414
v -1.49738 0.2763971 -0.01982729
v -1.825094 0.1161695 -0.1678802
v -1.431678 0.120876 -0.1407318
v -2.083714 0.2840485 -0.0765879
v -2.119205 0.4045609 -0.0007125432
v -2.567728 0.2630134 -0.2741044
v -2.119581 0.2752891 0.06877706
v -2.567728 0.2630134 -0.2741044
v -2.083714 0.2840485 -0.0765879

vn -0.1021869 -0.7917 -0.6023031
vn 0.4056361 -0.7936451 -0.4534168
vn 0.1195048 -0.2966839 -0.9474689
vn 0.8150985 -0.2974733 -0.4971158
vn -0.7097282 -0.3415465 -0.6161427
vn -0.4371036 -0.838548 -0.3252349
vn -0.6079258 -0.7904246 0.07520007
vn -0.9179305 -0.2549466 0.3039834
vn -0.3194509 -0.7917 0.5207325
vn 0.6315429 0.2272628 -0.7412862
vn -0.1854625 0.2318984 -0.9548962
vn -0.8415282 0.1913591 -0.5051851
vn -0.9465055 0.281253 0.1581901
vn -0.5282223 0.2318984 0.8168257
vn -0.2424895 -0.2966838 0.9236761
vn -0.3194509 -0.7917 0.5207325
vn 0.3095016 0.2272629 0.923342
vn 0.5708797 -0.2974734 0.765249
vn 0.2072597 -0.7936451 0.5719885
vn -0.3194509 -0.7917 0.5207325
vn 0.6317363 -0.7654883 0.1222166
vn 0.9362122 -0.3011676 0.1811209
vn 0.8150985 -0.2974733 -0.4971158
vn 0.4056361 -0.7936451 -0.4534168
vn 0.9560997 0.2272881 0.1849683
vn 0.6315429 0.2272628 -0.7412862
vn 0.0008578707 -0.9999996 0.0001659648
vn -0.3194509 -0.7917 0.5207325
vn 0.6208284 0.6712548 -0.4049556
vn 0.7359741 0.6555308 0.1691786
vn 0.2258208 0.9701103 0.08883132
vn 0.02342156 0.973958 -0.2255155
vn -0.002154276 0.9999642 0.008183473
vn -0.1212524 0.9538197 0.2748198
vn 0.4108033 0.630708 0.6583678
vn -0.2490864 0.5728165 0.7809207
vn -0.1212524 0.9538197 0.2748198
vn -0.7183565 0.6374002 0.2787203
vn -0.5974023 0.6516609 -0.4673848
vn -0.214639 0.9760957 -0.03416606
vn 0.02342156 0.973958 -0.2255155
vn -0.002154276 0.9999642 0.008183473
vn -0.1212524 0.9538197 0.2748198
vn 0.08332985 0.6153974 -0.7837998
vn 0.6208284 0.6712548 -0.4049556
vn 0.0008578707 -0.9999996 0.0001659648
vn 0.0008578707 -0.9999996 0.0001659648
vn -0.3194509 -0.7917 0.5207325
vn 0.0008578707 -0.9999996 0.0001659648
vn -0.2787727 -0.1312268 -0.9513493
vn -0.2148836 -0.2945229 -0.931172
vn -0.6324819 -0.1173821 0.7656292
vn -0.7004378 0.1280522 0.7021322
vn 0.6218987 0.7797302 0.0725455
vn 0.8904681 0.4310569 0.145796
vn -0.2148836 -0.2945229 -0.931172
vn -0.2787727 -0.1312268 -0.9513493
vn -0.08500287 -0.3432077 0.9354053
vn 0.1466261 -0.4472094 -0.882329
vn 0.4444414 -0.1162812 0.8882288
vn 0.3713877 -0.5094631 -0.7762206
vn -0.6648836 0.7465756 -0.02355046
vn -0.05216631 0.9973075 -0.05153918
vn 0.3713877 -0.5094631 -0.7762206
vn 0.1466261 -0.4472094 -0.882329
vn 0.3672588 -0.1005981 0.9246626
vn 0.4942029 -0.448212 -0.7448956
vn 0.4942029 -0.448212 -0.7448956
vn -0.8565704 0.5084065 -0.08837427
vn 0.7989638 -0.230124 -0.5556075
vn -0.1173726 -0.5136558 0.8499302
vn -0.5823906 0.8075164 -0.0934797
vn 0.7989638 -0.230124 -0.5556075
vn -0.4109473 -0.6665769 0.6219305
vn 0.6387925 -0.3095784 -0.7043475
vn -0.3202 -0.5833628 0.7464314
vn -0.01204827 -0.3603526 -0.9327383
vn 0.151582 0.987215 0.04928881
vn -0.2744735 0.9604749 0.04639161
vn -0.01204827 -0.3603526 -0.9327383
vn 0.6387925 -0.3095784 -0.7043475
vn 0.1172812 -0.4056744 -0.906462
vn 0.1232776 0.991976 -0.02804248
vn -0.8254061 -0.1523674 -0.543589
vn -0.4368564 -0.5686452 0.6969928
vn -0.8254061 -0.1523674 -0.543589
vn 0.1172812 -0.4056744 -0.906462

vt 0.5634766 0.07714844
vt 0.5537109 0.07147217
vt 0.5595703 0.0881958
vt 0.5449219 0.08599854
vt 0.5737305 0.08911133
vt 0.574707 0.07904053
vt 0.5869141 0.07611084
vt 0.5869141 0.08648682
vt 0.5996094 0.07104492
vt 0.5439453 0.09979248
vt 0.559082 0.09790039
vt 0.5732422 0.09765625
vt 0.5869141 0.09594727
vt 0.5996094 0.09637451
vt 0.5991211 0.08459473
vt 0.5996094 0.07104492
vt 0.6123047 0.09716797
vt 0.612793 0.08770752
vt 0.6132813 0.07672119
vt 0.5996094 0.07104492
vt 0.6269531 0.07861328
vt 0.628418 0.08990479
vt 0.6450195 0.09118652
vt 0.6386719 0.07653809
vt 0.6279297 0.09936523
vt 0.6425781 0.1044312
vt 0.6210938 0.06433105
vt 0.5996094 0.07104492
vt 0.6367188 0.1148682
vt 0.6245117 0.1074219
vt 0.6147461 0.1144409
vt 0.6269531 0.1245117
vt 0.6123047 0.1242065
vt 0.597168 0.1166992
vt 0.6103516 0.105835
vt 0.5981445 0.1068115
vt 0.597168 0.1166992
vt 0.5864258 0.1049194
vt 0.5742188 0.1056519
vt 0.5810547 0.1131592
vt 0.5629883 0.1179199
vt 0.5791016 0.1217041
vt 0.597168 0.1166992
vt 0.5610352 0.1069336
vt 0.5498047 0.1105957
vt 0.5756836 0.0645752
vt 0.5756836 0.0645752
vt 0.5996094 0.07104492
vt 0.5756836 0.0645752
vt 0.5668945 0.142334
vt 0.5742188 0.142334
vt 0.5742188 0.1381836
vt 0.5668945 0.1381836
vt 0.5742188 0.1341553
vt 0.5668945 0.1341553
vt 0.5742188 0.1300049
vt 0.5668945 0.1300049
vt 0.5766602 0.1381836
vt 0.5766602 0.142334
vt 0.5795898 0.1381836
vt 0.5795898 0.142334
vt 0.5795898 0.1341553
vt 0.5766602 0.1341553
vt 0.5795898 0.1300049
vt 0.5766602 0.1300049
vt 0.5859375 0.1381836
vt 0.5859375 0.142334
vt 0.5859375 0.1300049
vt 0.5859375 0.1341553
vt 0.5922852 0.142334
vt 0.5922852 0.1381836
vt 0.5922852 0.1341553
vt 0.5922852 0.1300049
vt 0.597168 0.1381836
vt 0.597168 0.142334
vt 0.6049805 0.1381836
vt 0.6049805 0.142334
vt 0.6049805 0.1341553
vt 0.597168 0.1341553
vt 0.6049805 0.1300049
vt 0.597168 0.1300049
vt 0.6118164 0.1300049
vt 0.6118164 0.1341553
vt 0.6181641 0.1362305
vt 0.6118164 0.1381836
vt 0.6181641 0.1362305
vt 0.6118164 0.142334

g base_3208_214
usemtl base_3208_214
usemap base_3208_214
f 1/1/1 3/3/3 2/2/2
f 2/2/2 3/3/3 4/4/4
f 1/1/1 5/5/5 3/3/3
f 6/6/6 5/5/5 1/1/1
f 6/6/6 7/7/7 5/5/5
f 5/5/5 7/7/7 8/8/8
f 7/7/7 9/9/9 8/8/8
f 3/3/3 10/10/10 4/4/4
f 11/11/11 10/10/10 3/3/3
f 5/5/5 11/11/11 3/3/3
f 12/12/12 11/11/11 5/5/5
f 5/5/5 8/8/8 12/12/12
f 12/12/12 8/8/8 13/13/13
f 8/8/8 14/14/14 13/13/13
f 15/15/15 14/14/14 8/8/8
f 8/8/8 16/16/16 15/15/15
f 15/15/15 17/17/17 14/14/14
f 18/18/18 17/17/17 15/15/15
f 15/15/15 19/19/19 18/18/18
f 20/20/20 19/19/19 15/15/15
f 19/19/19 21/21/21 18/18/18
f 18/18/18 21/21/21 22/22/22
f 21/21/21 23/23/23 22/22/22
f 24/24/24 23/23/23 21/21/21
f 22/22/22 25/25/25 18/18/18
f 18/18/18 25/25/25 17/17/17
f 23/23/23 25/25/25 22/22/22
f 26/26/26 25/25/25 23/23/23
f 21/21/21 19/19/19 27/27/27
f 24/24/24 21/21/21 27/27/27
f 19/19/19 28/28/28 27/27/27
f 26/26/26 29/29/29 25/25/25
f 25/25/25 29/29/29 30/30/30
f 29/29/29 31/31/31 30/30/30
f 32/32/32 31/31/31 29/29/29
f 33/33/33 31/31/31 32/32/32
f 33/33/33 34/34/34 31/31/31
f 31/31/31 35/35/35 30/30/30
f 34/34/34 35/35/35 31/31/31
f 35/35/35 25/25/25 30/30/30
f 17/17/17 25/25/25 35/35/35
f 36/36/36 17/17/17 35/35/35
f 36/36/36 35/35/35 37/37/37
f 37/37/37 38/38/38 36/36/36
f 14/14/14 17/17/17 36/36/36
f 38/38/38 14/14/14 36/36/36
f 13/13/13 14/14/14 38/38/38
f 39/39/39 13/13/13 38/38/38
f 40/40/40 39/39/39 38/38/38
f 40/40/40 41/41/41 39/39/39
f 42/42/42 41/41/41 40/40/40
f 42/42/42 40/40/40 43/43/43
f 40/40/40 38/38/38 43/43/43
f 39/39/39 41/41/41 44/44/44
f 41/41/41 45/45/45 44/44/44
f 12/12/12 13/13/13 39/39/39
f 12/12/12 39/39/39 11/11/11
f 11/11/11 39/39/39 44/44/44
f 11/11/11 44/44/44 10/10/10
f 10/10/10 44/44/44 45/45/45
f 1/1/1 2/2/2 46/46/46
f 6/6/6 1/1/1 47/47/47
f 7/7/7 6/6/6 47/47/47
f 48/48/48 7/7/7 49/49/49
f 50/50/50 52/52/52 51/51/51
f 50/50/50 53/53/53 52/52/52
f 53/53/53 54/54/54 52/52/52
f 53/53/53 55/55/55 54/54/54
f 55/55/55 56/56/56 54/54/54
f 55/55/55 57/57/57 56/56/56
f 51/51/51 52/52/52 58/58/58
f 51/51/51 58/58/58 59/59/59
f 59/59/59 58/58/58 60/60/60
f 59/59/59 60/60/60 61/61/61
f 58/58/58 62/62/62 60/60/60
f 58/58/58 63/63/63 62/62/62
f 52/52/52 63/63/63 58/58/58
f 52/52/52 54/54/54 63/63/63
f 63/63/63 64/64/64 62/62/62
f 63/63/63 65/65/65 64/64/64
f 54/54/54 65/65/65 63/63/63
f 54/54/54 56/56/56 65/65/65
f 61/61/61 60/60/60 66/66/66
f 61/61/61 66/66/66 67/67/67
f 62/62/62 64/64/64 68/68/68
f 62/62/62 68/68/68 69/69/69
f 60/60/60 69/69/69 66/66/66
f 60/60/60 62/62/62 69/69/69
f 70/70/70 67/67/67 66/66/66
f 70/70/70 66/66/66 71/71/71
f 71/71/71 66/66/66 69/69/69
f 72/72/72 69/69/69 68/68/68
f 71/71/71 69/69/69 72/72/72
f 72/72/72 68/68/68 73/73/73
f 70/70/70 71/71/71 74/74/74
f 70/70/70 74/74/74 75/75/75
f 75/75/75 74/74/74 76/76/76
f 75/75/75 76/76/76 77/77/77
f 74/74/74 78/78/78 76/76/76
f 74/74/74 79/79/79 78/78/78
f 71/71/71 79/79/79 74/74/74
f 71/71/71 72/72/72 79/79/79
f 79/79/79 80/80/80 78/78/78
f 79/79/79 81/81/81 80/80/80
f 72/72/72 81/81/81 79/79/79
f 72/72/72 73/73/73 81/81/81
f 78/78/78 80/80/80 82/82/82
f 78/78/78 82/82/82 83/83/83
f 76/76/76 78/78/78 83/83/83
f 83/83/83 82/82/82 84/84/84
f 76/76/76 83/83/83 85/85/85
f 77/77/77 76/76/76 85/85/85
f 85/85/85 83/83/83 86/86/86
f 87/87/87 85/85/85 84/84/84
f 77/77/77 85/85/85 87/87/87
