#base_2991_108.obj

v -0.1167245 0.07569426 -0.4962828
v 0.3139352 0.07569426 -0.3979869
v -0.1596794 0.3686399 -0.698405
v 0.4463738 0.3686399 -0.5600744
v -0.6456957 0.3686399 -0.3108189
v -0.4620844 0.07569426 -0.2208669
v -0.4620845 0.07569426 0.2208665
v -0.6456946 0.3686399 0.310818
v -0.1167246 0.07569426 0.4962834
v 0.4417096 0.6605639 -0.5562564
v -0.160214 0.6605733 -0.6936556
v -0.6429423 0.6605809 -0.3087121
v -0.6429393 0.6605809 0.3087136
v -0.160216 0.6605733 0.6936567
v -0.1596796 0.3686399 0.6984034
v -0.1167246 0.07569426 0.4962834
v 0.4417084 0.6605639 0.556258
v 0.4463728 0.3686399 0.5600771
v 0.313933 0.07569426 0.3979879
v -0.1167246 0.07569426 0.4962834
v 0.5055954 0.07569426 6.539416E-07
v 0.7160922 0.3686399 8.178875E-08
v 0.4463738 0.3686399 -0.5600744
v 0.3139352 0.07569426 -0.3979869
v 0.7095826 0.6605598 1.304787E-06
v 0.4417096 0.6605639 -0.5562564
v 4.980449E-07 -0.03727025 5.133634E-07
v -0.1167246 0.07569426 0.4962834
v 0.3735843 0.9033576 -0.4647851
v 0.5974065 0.9033524 1.876402E-06
v 0.3285755 1.072317 0.1573031
v 0.0826127 1.072352 -0.3534928
v -4.804956E-05 0.9874117 -2.219235E-07
v -0.08761151 1.072376 0.3923865
v 0.373586 0.9033576 0.464787
v -0.1293614 0.9033695 0.5795982
v -0.08761151 1.072376 0.3923865
v -0.5327165 0.9033793 0.2579531
v -0.5327153 0.9033793 -0.2579511
v -0.3607356 1.072416 1.122821E-06
v 0.0826127 1.072352 -0.3534928
v -4.804956E-05 0.9874117 -2.219235E-07
v -0.08761151 1.072376 0.3923865
v -0.1293599 0.9033695 -0.5795973
v 0.3735843 0.9033576 -0.4647851
v 4.980449E-07 -0.03727025 5.133634E-07
v 4.980449E-07 -0.03727025 5.133634E-07
v -0.1167246 0.07569426 0.4962834
v 4.980449E-07 -0.03727025 5.133634E-07
v -0.05670814 0.9967521 -0.0982227
v -0.1168851 1.279439 -0.1055816
v -0.1311632 1.291891 0.003370248
v -0.05670923 0.9967521 0.09822302
v -0.0645442 1.370566 -0.05882131
v 0.1134189 0.9967521 1.22176E-06
v -0.1168851 1.279439 -0.1055816
v -0.05670814 0.9967521 -0.0982227
v -0.2751698 1.360303 -0.03250385
v -0.275169 1.360303 -0.09346664
v -0.6442308 1.106276 0.1240454
v -0.6442301 1.106276 -0.08902489
v -0.7457573 1.258813 0.01750892
v -0.2801939 1.412859 -0.06298446
v -0.6442301 1.106276 -0.08902489
v -0.275169 1.360303 -0.09346664
v -0.9032167 0.5845934 0.3806608
v -0.912054 0.5844479 0.2868585
v -0.912054 0.5844479 0.2868585
v -0.9640388 0.6426483 0.3387803
v -1.098838 0.2712998 0.2762857
v -1.141747 0.2511559 0.3852545
v -1.192271 0.3333182 0.3157476
v -1.098838 0.2712998 0.2762857
v -1.502058 0.08108389 0.05053942
v -1.431677 0.120876 -0.140729
v -1.779769 0.1056636 -0.04022266
v -1.825094 0.1161695 -0.1678794
v -1.79247 0.2296142 -0.0956924
v -1.49738 0.2763971 -0.01982957
v -1.825094 0.1161695 -0.1678794
v -1.431677 0.120876 -0.140729
v -2.083712 0.2840485 -0.07658618
v -2.119205 0.4045609 -0.0007111895
v -2.567726 0.2630134 -0.2741053
v -2.119581 0.2752891 0.06877878
v -2.567726 0.2630134 -0.2741053
v -2.083712 0.2840485 -0.07658618

vn 0.2441268 -0.7917 -0.5600119
vn 0.5876496 -0.7936451 -0.1574657
vn 0.618581 -0.2966839 -0.727555
vn 0.9542567 -0.2974733 0.03006652
vn -0.256766 -0.3415465 -0.9041113
vn -0.1878176 -0.838548 -0.5114312
vn -0.5499474 -0.7904246 -0.2697902
vn -0.9346151 -0.2549466 -0.2479857
vn -0.5523618 -0.7917 0.2609744
vn 0.9342723 0.2272628 -0.274749
vn 0.3674109 0.2318984 -0.9006844
vn -0.4278017 0.1913591 -0.8833841
vn -0.8787354 0.281253 -0.3856435
vn -0.8891445 0.2318984 0.394519
vn -0.7084879 -0.2966838 0.6403308
vn -0.5523618 -0.7917 0.2609744
vn -0.2463291 0.2272629 0.9421644
vn 0.05895182 -0.2974734 0.9529084
vn -0.1395969 -0.7936451 0.5921488
vn -0.5523618 -0.7917 0.2609744
vn 0.4618259 -0.7654883 0.4480453
vn 0.6844106 -0.3011676 0.6639881
vn 0.9542567 -0.2974733 0.03006652
vn 0.5876496 -0.7936451 -0.1574657
vn 0.6989492 0.2272881 0.678093
vn 0.9342723 0.2272628 -0.274749
vn 0.0006271396 -0.9999996 0.0006084262
vn -0.5523618 -0.7917 0.2609744
vn 0.7412261 0.6712548 0.0008708537
vn 0.5233622 0.6555308 0.5444
vn 0.1403767 0.9701103 0.1979405
vn 0.1430302 0.973958 -0.1759209
vn -0.00628191 0.9999642 0.005669896
vn -0.2518924 0.9538197 0.1636407
vn -0.01652262 0.630708 0.7758443
vn -0.635877 0.5728165 0.5172445
vn -0.2518924 0.9538197 0.1636407
vn -0.7537595 0.6374002 -0.1598992
vn -0.244175 0.6516609 -0.7181342
vn -0.1609374 0.9760957 -0.1460697
vn 0.1430302 0.973958 -0.1759209
vn -0.00628191 0.9999642 0.005669896
vn -0.2518924 0.9538197 0.1636407
vn 0.4987266 0.6153974 -0.6103751
vn 0.7412261 0.6712548 0.0008708537
vn 0.0006271396 -0.9999996 0.0006084262
vn 0.0006271396 -0.9999996 0.0006084262
vn -0.5523618 -0.7917 0.2609744
vn 0.0006271396 -0.9999996 0.0006084262
vn 0.2873758 -0.1312268 -0.9487859
vn 0.3298029 -0.2945229 -0.8969316
vn -0.9483814 -0.1173821 0.2946083
vn -0.9705027 0.1280522 0.2042727
vn 0.4807782 0.7797302 0.40109
vn 0.66546 0.4310569 0.6093874
vn 0.3298029 -0.2945229 -0.8969316
vn 0.2873758 -0.1312268 -0.9487859
vn -0.5831028 -0.3432077 0.736342
vn 0.6056275 -0.4472094 -0.6581938
vn -0.1141765 -0.1162812 0.9866319
vn 0.7356617 -0.5094631 -0.4463734
vn -0.5435692 0.7465756 -0.383611
vn -0.01545118 0.9973075 -0.07168593
vn 0.7356617 -0.5094631 -0.4463734
vn 0.6056275 -0.4472094 -0.6581938
vn -0.1987134 -0.1005981 0.9748811
vn 0.8213043 -0.448212 -0.3529381
vn 0.8213043 -0.448212 -0.3529381
vn -0.6685179 0.5084065 -0.5427769
vn 0.9727665 -0.230124 -0.02771753
vn -0.5634121 -0.5136558 0.6470892
vn -0.4362552 0.8075164 -0.3969869
vn 0.9727665 -0.230124 -0.02771753
vn -0.6843248 -0.6665769 0.2955924
vn 0.9201225 -0.3095784 -0.2398662
vn -0.6765172 -0.5833628 0.4494578
vn 0.5004185 -0.3603526 -0.7872276
vn 0.09988649 0.987215 0.1242143
vn -0.255105 0.9604749 -0.1113972
vn 0.5004185 -0.3603526 -0.7872276
vn 0.9201225 -0.3095784 -0.2398662
vn 0.5942762 -0.4056744 -0.6944523
vn 0.1185224 0.991976 0.04400224
vn -0.3932896 -0.1523674 -0.9067014
vn -0.7470916 -0.5686452 0.3442335
vn -0.3932896 -0.1523674 -0.9067014
vn 0.5942762 -0.4056744 -0.6944523

vt 0.5634766 0.07714844
vt 0.5537109 0.07147217
vt 0.5595703 0.0881958
vt 0.5449219 0.08599854
vt 0.5737305 0.08911133
vt 0.574707 0.07904053
vt 0.5869141 0.07611084
vt 0.5869141 0.08648682
vt 0.5996094 0.07104492
vt 0.5439453 0.09979248
vt 0.559082 0.09790039
vt 0.5732422 0.09765625
vt 0.5869141 0.09594727
vt 0.5996094 0.09637451
vt 0.5991211 0.08459473
vt 0.5996094 0.07104492
vt 0.6123047 0.09716797
vt 0.612793 0.08770752
vt 0.6132813 0.07672119
vt 0.5996094 0.07104492
vt 0.6269531 0.07861328
vt 0.628418 0.08990479
vt 0.6450195 0.09118652
vt 0.6386719 0.07653809
vt 0.6279297 0.09936523
vt 0.6425781 0.1044312
vt 0.6210938 0.06433105
vt 0.5996094 0.07104492
vt 0.6367188 0.1148682
vt 0.6245117 0.1074219
vt 0.6147461 0.1144409
vt 0.6269531 0.1245117
vt 0.6123047 0.1242065
vt 0.597168 0.1166992
vt 0.6103516 0.105835
vt 0.5981445 0.1068115
vt 0.597168 0.1166992
vt 0.5864258 0.1049194
vt 0.5742188 0.1056519
vt 0.5810547 0.1131592
vt 0.5629883 0.1179199
vt 0.5791016 0.1217041
vt 0.597168 0.1166992
vt 0.5610352 0.1069336
vt 0.5498047 0.1105957
vt 0.5756836 0.0645752
vt 0.5756836 0.0645752
vt 0.5996094 0.07104492
vt 0.5756836 0.0645752
vt 0.5668945 0.142334
vt 0.5742188 0.142334
vt 0.5742188 0.1381836
vt 0.5668945 0.1381836
vt 0.5742188 0.1341553
vt 0.5668945 0.1341553
vt 0.5742188 0.1300049
vt 0.5668945 0.1300049
vt 0.5766602 0.1381836
vt 0.5766602 0.142334
vt 0.5795898 0.1381836
vt 0.5795898 0.142334
vt 0.5795898 0.1341553
vt 0.5766602 0.1341553
vt 0.5795898 0.1300049
vt 0.5766602 0.1300049
vt 0.5859375 0.1381836
vt 0.5859375 0.142334
vt 0.5859375 0.1300049
vt 0.5859375 0.1341553
vt 0.5922852 0.142334
vt 0.5922852 0.1381836
vt 0.5922852 0.1341553
vt 0.5922852 0.1300049
vt 0.597168 0.1381836
vt 0.597168 0.142334
vt 0.6049805 0.1381836
vt 0.6049805 0.142334
vt 0.6049805 0.1341553
vt 0.597168 0.1341553
vt 0.6049805 0.1300049
vt 0.597168 0.1300049
vt 0.6118164 0.1300049
vt 0.6118164 0.1341553
vt 0.6181641 0.1362305
vt 0.6118164 0.1381836
vt 0.6181641 0.1362305
vt 0.6118164 0.142334

g base_2991_108
usemtl base_2991_108
usemap base_2991_108
f 1/1/1 3/3/3 2/2/2
f 2/2/2 3/3/3 4/4/4
f 1/1/1 5/5/5 3/3/3
f 6/6/6 5/5/5 1/1/1
f 6/6/6 7/7/7 5/5/5
f 5/5/5 7/7/7 8/8/8
f 7/7/7 9/9/9 8/8/8
f 3/3/3 10/10/10 4/4/4
f 11/11/11 10/10/10 3/3/3
f 5/5/5 11/11/11 3/3/3
f 12/12/12 11/11/11 5/5/5
f 5/5/5 8/8/8 12/12/12
f 12/12/12 8/8/8 13/13/13
f 8/8/8 14/14/14 13/13/13
f 15/15/15 14/14/14 8/8/8
f 8/8/8 16/16/16 15/15/15
f 15/15/15 17/17/17 14/14/14
f 18/18/18 17/17/17 15/15/15
f 15/15/15 19/19/19 18/18/18
f 20/20/20 19/19/19 15/15/15
f 19/19/19 21/21/21 18/18/18
f 18/18/18 21/21/21 22/22/22
f 21/21/21 23/23/23 22/22/22
f 24/24/24 23/23/23 21/21/21
f 22/22/22 25/25/25 18/18/18
f 18/18/18 25/25/25 17/17/17
f 23/23/23 25/25/25 22/22/22
f 26/26/26 25/25/25 23/23/23
f 21/21/21 19/19/19 27/27/27
f 24/24/24 21/21/21 27/27/27
f 19/19/19 28/28/28 27/27/27
f 26/26/26 29/29/29 25/25/25
f 25/25/25 29/29/29 30/30/30
f 29/29/29 31/31/31 30/30/30
f 32/32/32 31/31/31 29/29/29
f 33/33/33 31/31/31 32/32/32
f 33/33/33 34/34/34 31/31/31
f 31/31/31 35/35/35 30/30/30
f 34/34/34 35/35/35 31/31/31
f 35/35/35 25/25/25 30/30/30
f 17/17/17 25/25/25 35/35/35
f 36/36/36 17/17/17 35/35/35
f 36/36/36 35/35/35 37/37/37
f 37/37/37 38/38/38 36/36/36
f 14/14/14 17/17/17 36/36/36
f 38/38/38 14/14/14 36/36/36
f 13/13/13 14/14/14 38/38/38
f 39/39/39 13/13/13 38/38/38
f 40/40/40 39/39/39 38/38/38
f 40/40/40 41/41/41 39/39/39
f 42/42/42 41/41/41 40/40/40
f 42/42/42 40/40/40 43/43/43
f 40/40/40 38/38/38 43/43/43
f 39/39/39 41/41/41 44/44/44
f 41/41/41 45/45/45 44/44/44
f 12/12/12 13/13/13 39/39/39
f 12/12/12 39/39/39 11/11/11
f 11/11/11 39/39/39 44/44/44
f 11/11/11 44/44/44 10/10/10
f 10/10/10 44/44/44 45/45/45
f 1/1/1 2/2/2 46/46/46
f 6/6/6 1/1/1 47/47/47
f 7/7/7 6/6/6 47/47/47
f 48/48/48 7/7/7 49/49/49
f 50/50/50 52/52/52 51/51/51
f 50/50/50 53/53/53 52/52/52
f 53/53/53 54/54/54 52/52/52
f 53/53/53 55/55/55 54/54/54
f 55/55/55 56/56/56 54/54/54
f 55/55/55 57/57/57 56/56/56
f 51/51/51 52/52/52 58/58/58
f 51/51/51 58/58/58 59/59/59
f 59/59/59 58/58/58 60/60/60
f 59/59/59 60/60/60 61/61/61
f 58/58/58 62/62/62 60/60/60
f 58/58/58 63/63/63 62/62/62
f 52/52/52 63/63/63 58/58/58
f 52/52/52 54/54/54 63/63/63
f 63/63/63 64/64/64 62/62/62
f 63/63/63 65/65/65 64/64/64
f 54/54/54 65/65/65 63/63/63
f 54/54/54 56/56/56 65/65/65
f 61/61/61 60/60/60 66/66/66
f 61/61/61 66/66/66 67/67/67
f 62/62/62 64/64/64 68/68/68
f 62/62/62 68/68/68 69/69/69
f 60/60/60 69/69/69 66/66/66
f 60/60/60 62/62/62 69/69/69
f 70/70/70 67/67/67 66/66/66
f 70/70/70 66/66/66 71/71/71
f 71/71/71 66/66/66 69/69/69
f 72/72/72 69/69/69 68/68/68
f 71/71/71 69/69/69 72/72/72
f 72/72/72 68/68/68 73/73/73
f 70/70/70 71/71/71 74/74/74
f 70/70/70 74/74/74 75/75/75
f 75/75/75 74/74/74 76/76/76
f 75/75/75 76/76/76 77/77/77
f 74/74/74 78/78/78 76/76/76
f 74/74/74 79/79/79 78/78/78
f 71/71/71 79/79/79 74/74/74
f 71/71/71 72/72/72 79/79/79
f 79/79/79 80/80/80 78/78/78
f 79/79/79 81/81/81 80/80/80
f 72/72/72 81/81/81 79/79/79
f 72/72/72 73/73/73 81/81/81
f 78/78/78 80/80/80 82/82/82
f 78/78/78 82/82/82 83/83/83
f 76/76/76 78/78/78 83/83/83
f 83/83/83 82/82/82 84/84/84
f 76/76/76 83/83/83 85/85/85
f 77/77/77 76/76/76 85/85/85
f 85/85/85 83/83/83 86/86/86
f 87/87/87 85/85/85 84/84/84
f 77/77/77 85/85/85 87/87/87
