#base_802_52.obj

v -0.3752555 1.028935 -0.3014582
v -0.2333919 1.125412 -0.5647728
v -0.1774837 1.234228 -0.6161939
v -0.2201817 1.092495 -0.1791974
v -0.1133171 1.105504 -0.629869
v -0.174359 0.8636174 -0.1462398
v -0.2333919 1.125412 -0.5647728
v -0.3752555 1.028935 -0.3014582
v -0.262524 1.112083 -0.8037646
v -0.2717372 1.06466 -0.7488286
v -0.7838261 0.7430126 -0.9185245
v -0.6579793 0.6856105 -0.7034831
v -0.6242129 0.5450676 -0.9127654
v -0.2421606 1.04229 -0.8118889
v -0.6579793 0.6856105 -0.7034831
v -0.2717372 1.06466 -0.7488286
v -1.378329 0.4326347 -0.4492421
v -1.325654 0.4400215 -0.3494775
v -1.325654 0.4400215 -0.3494775
v -1.319381 0.3451363 -0.4095517
v -1.653099 0.0873594 -0.1784342
v -1.640937 0.1455421 -0.3080535
v -1.62858 0.004342601 -0.2918309
v -1.653099 0.0873594 -0.1784342
v -2.128487 0.1087551 -0.404216
v -2.128487 0.1087551 -0.404216
v 0.3939829 -0.05212641 -0.1855887
v 0.7521723 0.2993248 -0.01480401
v 0.3073568 0.0742944 -0.5875531
v 0.811425 0.5688809 -0.3472128
v -0.3563252 -0.09452913 -0.2917673
v -0.07762663 -0.1720917 0.02459558
v -0.3075246 0.02976522 0.4574756
v -0.6798545 0.1895379 0.3174117
v -0.1225939 0.4014418 0.7870838
v 0.6545404 0.8157936 -0.5400601
v 0.1539073 0.3245767 -0.7787838
v -0.5052774 0.1568953 -0.4850206
v -0.8266138 0.4390371 0.1200298
v -0.5681158 0.9585319 0.5807274
v -0.4196071 0.7125872 0.7812599
v -0.1225939 0.4014418 0.7870838
v 0.0755357 1.324175 0.5501586
v 0.2284459 1.080752 0.7504893
v 0.337909 0.6630581 0.765219
v -0.1225939 0.4014418 0.7870838
v 0.7272167 0.6176118 0.4083453
v 0.7763065 1.016797 0.2482719
v 0.811425 0.5688809 -0.3472128
v 0.7521723 0.2993248 -0.01480401
v 0.6196576 1.260647 0.0513666
v 0.6545404 0.8157936 -0.5400601
v 0.3048669 0.1615838 0.3966903
v -0.1225939 0.4014418 0.7870838
v 0.4170398 1.015771 -0.6250324
v 0.3878914 1.387469 -0.1308605
v -0.03659015 1.411825 -0.1365099
v -0.004557149 1.003369 -0.6796168
v -0.2233216 1.033766 -0.2905338
v -0.5545609 1.223067 0.0218637
v -0.06675147 1.440553 0.2859086
v -0.604568 1.135043 0.311454
v -0.5545609 1.223067 0.0218637
v -0.8205686 0.7009692 -0.07349115
v -0.5520674 0.4652184 -0.5790564
v -0.6099755 0.8493896 -0.4099052
v -0.004557149 1.003369 -0.6796168
v -0.2233216 1.033766 -0.2905338
v -0.5545609 1.223067 0.0218637
v -0.001268781 0.6053298 -0.8245097
v 0.4170398 1.015771 -0.6250324
v 0.3048669 0.1615838 0.3966903
v 0.3048669 0.1615838 0.3966903
v -0.1225939 0.4014418 0.7870838
v 0.3048669 0.1615838 0.3966903

vn -0.9023613 -0.05722104 0.4271652
vn -0.6521145 -0.2927556 0.6993147
vn -0.0410923 0.9931735 -0.109169
vn 0.3706675 0.9286478 0.0147974
vn 0.2988126 -0.6175231 -0.7275825
vn 0.2886282 -0.6363744 -0.7153471
vn -0.6521145 -0.2927556 0.6993147
vn -0.9023613 -0.05722104 0.4271652
vn -0.5905713 0.7972761 -0.1248057
vn 0.258114 -0.2687467 0.927983
vn -0.7644765 0.6429148 0.04728845
vn 0.8293939 0.2114619 0.5170975
vn 0.07354891 -0.798089 -0.598034
vn 0.2424637 -0.5370222 -0.8079718
vn 0.8293939 0.2114619 0.5170975
vn 0.258114 -0.2687467 0.927983
vn -0.8880794 0.4498845 0.09444031
vn 0.8086156 0.3490831 0.4735841
vn 0.8086156 0.3490831 0.4735841
vn 0.03763857 -0.8785954 -0.4760814
vn 0.5548764 0.2209477 0.8020564
vn -0.7315532 0.6557422 -0.186634
vn -0.1415524 -0.8518565 -0.504285
vn 0.5548764 0.2209477 0.8020564
vn -0.8425753 0.04721199 0.5365053
vn -0.8425753 0.04721199 0.5365053
vn 0.2494759 -0.9067423 -0.339971
vn 0.6089898 -0.5766824 -0.5445814
vn -0.1080628 -0.6104758 -0.7846285
vn 0.4834433 -0.03715476 -0.8745868
vn -0.4274716 -0.9040244 -0.00281997
vn 0.1989488 -0.9759849 0.08872862
vn 0.2282684 -0.8341466 0.5020886
vn -0.2353208 -0.5011098 0.8327743
vn 0.5796432 -0.4711561 0.6648501
vn -0.09119034 0.1226453 -0.9882523
vn -0.6600861 -0.3946859 -0.6391474
vn -0.8328528 -0.5392499 0.1247628
vn -0.6871194 -0.2062697 0.696649
vn -0.1392072 0.2925037 0.9460778
vn 0.442046 0.1152762 0.8895543
vn 0.5796432 -0.4711561 0.6648501
vn 0.3982037 0.768297 0.5011522
vn 0.8545735 0.4524726 0.2548977
vn 0.9104546 -0.1789634 0.3728869
vn 0.5796432 -0.4711561 0.6648501
vn 0.956197 -0.1613274 -0.2442555
vn 0.8332544 0.3519806 -0.4263764
vn 0.4834433 -0.03715476 -0.8745868
vn 0.6089898 -0.5766824 -0.5445814
vn 0.4762266 0.7388497 -0.4767697
vn -0.09119034 0.1226453 -0.9882523
vn 0.7011882 -0.7088199 0.07687208
vn 0.5796432 -0.4711561 0.6648501
vn -0.2715374 0.595758 -0.7558703
vn 0.04080068 0.9226678 -0.3834311
vn -0.5111976 0.8465297 -0.1485417
vn -0.7605119 0.5930899 -0.2643216
vn -0.6985223 0.7121956 -0.06959912
vn -0.6273555 0.7484488 0.2150574
vn 0.06695616 0.9772233 0.2013743
vn -0.2291562 0.6592262 0.7161761
vn -0.6273555 0.7484488 0.2150574
vn -0.7538869 0.2213616 0.6185901
vn -0.9969318 -0.06983893 -0.03534943
vn -0.8235327 0.5662884 0.03333926
vn -0.7605119 0.5930899 -0.2643216
vn -0.6985223 0.7121956 -0.06959912
vn -0.6273555 0.7484488 0.2150574
vn -0.701609 0.09767929 -0.7058355
vn -0.2715374 0.595758 -0.7558703
vn 0.7011882 -0.7088199 0.07687208
vn 0.7011882 -0.7088199 0.07687208
vn 0.5796432 -0.4711561 0.6648501
vn 0.7011882 -0.7088199 0.07687208

vt 0.5668945 0.142334
vt 0.5742188 0.142334
vt 0.5742188 0.1381836
vt 0.5668945 0.1381836
vt 0.5742188 0.1341553
vt 0.5668945 0.1341553
vt 0.5742188 0.1300049
vt 0.5668945 0.1300049
vt 0.5766602 0.1381836
vt 0.5766602 0.142334
vt 0.5795898 0.1381836
vt 0.5795898 0.142334
vt 0.5795898 0.1341553
vt 0.5766602 0.1341553
vt 0.5795898 0.1300049
vt 0.5766602 0.1300049
vt 0.5859375 0.1381836
vt 0.5859375 0.142334
vt 0.5859375 0.1300049
vt 0.5859375 0.1341553
vt 0.5922852 0.142334
vt 0.5922852 0.1381836
vt 0.5922852 0.1341553
vt 0.5922852 0.1300049
vt 0.597168 0.1362305
vt 0.597168 0.1362305
vt 0.5634766 0.07714844
vt 0.5537109 0.07147217
vt 0.5595703 0.0881958
vt 0.5449219 0.08599854
vt 0.5737305 0.08911133
vt 0.574707 0.07904053
vt 0.5869141 0.07611084
vt 0.5869141 0.08648682
vt 0.5996094 0.07104492
vt 0.5439453 0.09979248
vt 0.559082 0.09790039
vt 0.5732422 0.09765625
vt 0.5869141 0.09594727
vt 0.5996094 0.09637451
vt 0.5991211 0.08459473
vt 0.5996094 0.07104492
vt 0.6123047 0.09716797
vt 0.612793 0.08770752
vt 0.6132813 0.07672119
vt 0.5996094 0.07104492
vt 0.6269531 0.07861328
vt 0.628418 0.08990479
vt 0.6450195 0.09118652
vt 0.6386719 0.07653809
vt 0.6279297 0.09936523
vt 0.6425781 0.1044312
vt 0.6210938 0.06433105
vt 0.5996094 0.07104492
vt 0.6367188 0.1148682
vt 0.6245117 0.1074219
vt 0.6147461 0.1144409
vt 0.6269531 0.1245117
vt 0.6123047 0.1242065
vt 0.597168 0.1166992
vt 0.6103516 0.105835
vt 0.5981445 0.1068115
vt 0.597168 0.1166992
vt 0.5864258 0.1049194
vt 0.5742188 0.1056519
vt 0.5810547 0.1131592
vt 0.5629883 0.1179199
vt 0.5791016 0.1217041
vt 0.597168 0.1166992
vt 0.5610352 0.1069336
vt 0.5498047 0.1105957
vt 0.5756836 0.0645752
vt 0.5756836 0.0645752
vt 0.5996094 0.07104492
vt 0.5756836 0.0645752

g base_802_52
usemtl base_802_52
usemap base_802_52
f 1/1/1 3/3/3 2/2/2
f 1/1/1 4/4/4 3/3/3
f 4/4/4 5/5/5 3/3/3
f 4/4/4 6/6/6 5/5/5
f 6/6/6 7/7/7 5/5/5
f 6/6/6 8/8/8 7/7/7
f 2/2/2 3/3/3 9/9/9
f 2/2/2 9/9/9 10/10/10
f 10/10/10 9/9/9 11/11/11
f 10/10/10 11/11/11 12/12/12
f 9/9/9 13/13/13 11/11/11
f 9/9/9 14/14/14 13/13/13
f 3/3/3 14/14/14 9/9/9
f 3/3/3 5/5/5 14/14/14
f 14/14/14 15/15/15 13/13/13
f 14/14/14 16/16/16 15/15/15
f 5/5/5 16/16/16 14/14/14
f 5/5/5 7/7/7 16/16/16
f 12/12/12 11/11/11 17/17/17
f 12/12/12 17/17/17 18/18/18
f 13/13/13 15/15/15 19/19/19
f 13/13/13 19/19/19 20/20/20
f 11/11/11 20/20/20 17/17/17
f 11/11/11 13/13/13 20/20/20
f 21/21/21 18/18/18 17/17/17
f 21/21/21 17/17/17 22/22/22
f 22/22/22 17/17/17 20/20/20
f 23/23/23 20/20/20 19/19/19
f 22/22/22 20/20/20 23/23/23
f 23/23/23 19/19/19 24/24/24
f 21/21/21 22/22/22 25/25/25
f 23/23/23 24/24/24 25/25/25
f 22/22/22 23/23/23 26/26/26
f 27/27/27 29/29/29 28/28/28
f 28/28/28 29/29/29 30/30/30
f 27/27/27 31/31/31 29/29/29
f 32/32/32 31/31/31 27/27/27
f 32/32/32 33/33/33 31/31/31
f 31/31/31 33/33/33 34/34/34
f 33/33/33 35/35/35 34/34/34
f 29/29/29 36/36/36 30/30/30
f 37/37/37 36/36/36 29/29/29
f 31/31/31 37/37/37 29/29/29
f 38/38/38 37/37/37 31/31/31
f 31/31/31 34/34/34 38/38/38
f 38/38/38 34/34/34 39/39/39
f 34/34/34 40/40/40 39/39/39
f 41/41/41 40/40/40 34/34/34
f 34/34/34 42/42/42 41/41/41
f 41/41/41 43/43/43 40/40/40
f 44/44/44 43/43/43 41/41/41
f 41/41/41 45/45/45 44/44/44
f 46/46/46 45/45/45 41/41/41
f 45/45/45 47/47/47 44/44/44
f 44/44/44 47/47/47 48/48/48
f 47/47/47 49/49/49 48/48/48
f 50/50/50 49/49/49 47/47/47
f 48/48/48 51/51/51 44/44/44
f 44/44/44 51/51/51 43/43/43
f 49/49/49 51/51/51 48/48/48
f 52/52/52 51/51/51 49/49/49
f 47/47/47 45/45/45 53/53/53
f 50/50/50 47/47/47 53/53/53
f 45/45/45 54/54/54 53/53/53
f 52/52/52 55/55/55 51/51/51
f 51/51/51 55/55/55 56/56/56
f 55/55/55 57/57/57 56/56/56
f 58/58/58 57/57/57 55/55/55
f 59/59/59 57/57/57 58/58/58
f 59/59/59 60/60/60 57/57/57
f 57/57/57 61/61/61 56/56/56
f 60/60/60 61/61/61 57/57/57
f 61/61/61 51/51/51 56/56/56
f 43/43/43 51/51/51 61/61/61
f 62/62/62 43/43/43 61/61/61
f 62/62/62 61/61/61 63/63/63
f 63/63/63 64/64/64 62/62/62
f 40/40/40 43/43/43 62/62/62
f 64/64/64 40/40/40 62/62/62
f 39/39/39 40/40/40 64/64/64
f 65/65/65 39/39/39 64/64/64
f 66/66/66 65/65/65 64/64/64
f 66/66/66 67/67/67 65/65/65
f 68/68/68 67/67/67 66/66/66
f 68/68/68 66/66/66 69/69/69
f 66/66/66 64/64/64 69/69/69
f 65/65/65 67/67/67 70/70/70
f 67/67/67 71/71/71 70/70/70
f 38/38/38 39/39/39 65/65/65
f 38/38/38 65/65/65 37/37/37
f 37/37/37 65/65/65 70/70/70
f 37/37/37 70/70/70 36/36/36
f 36/36/36 70/70/70 71/71/71
f 27/27/27 28/28/28 72/72/72
f 32/32/32 27/27/27 73/73/73
f 33/33/33 32/32/32 73/73/73
f 74/74/74 33/33/33 75/75/75
