#base_1353_67.obj

v 0.5746536 0.1021504 -0.08601904
v 0.6082363 0.5329316 -0.3611355
v 0.1740952 -0.03904152 -0.2088437
v 0.04175758 0.3332559 -0.5348368
v -0.1946945 -0.06672561 0.03343296
v -0.4797878 0.2941048 -0.192205
v -0.2540054 0.03994495 0.4583721
v 0.3449364 0.9716201 -0.3363419
v -0.05562401 0.830428 -0.4591665
v -0.4244137 0.802744 -0.2168894
v -0.5636673 0.4449598 0.4087496
v -0.2540054 0.03994495 0.4583721
v 0.04082108 0.200645 0.7459855
v -0.1467171 0.6722239 0.8154964
v 0.4677792 0.2943641 0.6796947
v 0.4570904 0.8047628 0.7217469
v 0.7053566 0.2505299 0.3094177
v 0.7930756 0.7427719 0.1980958
v 0.5746536 0.1021504 -0.08601904
v 0.6082363 0.5329316 -0.3611355
v -0.4837246 0.9094145 0.2080498
v -0.1888962 1.070115 0.4956632
v -0.4837246 0.9094145 0.2080498
v 0.23806 1.163834 0.4293718
v 0.4756374 1.12 0.05909491
v 0.3449364 0.9716201 -0.3363419
v 0.2638626 -0.06837773 0.3278494
v 0.2638626 -0.06837773 0.3278494
v -0.06100845 1.161238 -0.02616024
v -0.06100845 1.161238 -0.02616024
v -0.06100845 1.161238 -0.02616024
v 0.2638626 -0.06837773 0.3278494
v 0.2638626 -0.06837773 0.3278494
v -0.2540054 0.03994495 0.4583721
v -0.06100845 1.161238 -0.02616024
v -0.4837246 0.9094145 0.2080498
v 0.1158943 0.9777707 -0.04808521
v -0.04197693 1.290258 -0.1364856
v -0.1472931 1.298347 -0.1051383
v -0.1642303 0.9409776 0.03816223
v -0.07791519 1.393642 -0.09838152
v 0.02994156 0.9950279 0.1277132
v -0.04197693 1.290258 -0.1364856
v 0.1158943 0.9777707 -0.04808521
v -0.1014748 1.366639 -0.2668676
v -0.02795982 1.364153 -0.2551632
v 0.03617096 0.9339502 -0.6404114
v 0.2251434 1.028003 -0.6113787
v 0.08256912 1.11367 -0.7427483
v -0.07422447 1.419692 -0.2634506
v 0.2251434 1.028003 -0.6113787
v -0.02795982 1.364153 -0.2551632
v 0.07877159 0.5608472 -0.9317837
v 0.1451988 0.5450745 -0.9806328
v 0.1451988 0.5450745 -0.9806328
v 0.06536865 0.649138 -0.9619865
v 0.06536865 0.649138 -0.9619865
v -0.1026821 0.1905764 -1.130722
v -0.1712914 0.1796431 -1.030091
v -0.1352272 0.2879212 -1.070456
v -0.1026821 0.1905764 -1.130722
v -0.5307064 0.1097993 -0.8954239
v -0.4681797 0.1403024 -1.048898
v -0.9767914 0.03893065 -0.9210863
v -1.100851 0.0546608 -1.089579
v -1.085932 0.1720175 -1.01666
v -0.5122643 0.2772392 -0.95438
v -1.100851 0.0546608 -1.089579
v -0.4681797 0.1403024 -1.048898
v -1.474934 0.1397578 -0.7933207
v -1.489044 0.2376325 -0.6848698
v -2.065611 0.006319046 -0.6273994
v -1.42761 0.1078185 -0.6546326
v -2.065611 0.006319046 -0.6273994
v -1.474934 0.1397578 -0.7933207

vn 0.710571 -0.6182026 -0.3360275
vn 0.703385 -0.01873417 -0.7105622
vn 0.1299302 -0.830716 -0.5413215
vn -0.08281251 -0.2958577 -0.9516356
vn -0.4261448 -0.8809808 -0.2056049
vn -0.8066505 -0.3501949 -0.4761077
vn -0.5389183 -0.7311464 0.4183205
vn 0.3447244 0.5900952 -0.7300362
vn -0.2541745 0.3868376 -0.8864265
vn -0.7840809 0.3555802 -0.5087041
vn -0.9230644 -0.1408265 0.3579386
vn -0.5389183 -0.7311464 0.4183205
vn -0.1234692 -0.4940411 0.8606269
vn -0.3443915 0.1745857 0.9224502
vn 0.5073605 -0.3482097 0.7882482
vn 0.4936148 0.3585322 0.7923377
vn 0.8785434 -0.4034672 0.2556866
vn 0.9599193 0.2724963 0.06557893
vn 0.710571 -0.6182026 -0.3360275
vn 0.703385 -0.01873417 -0.7105622
vn -0.8459634 0.5198623 0.1186982
vn -0.3932251 0.7559729 0.5233344
vn -0.8459634 0.5198623 0.1186982
vn 0.2332145 0.8861192 0.4005044
vn 0.5616329 0.8122967 -0.1572976
vn 0.3447244 0.5900952 -0.7300362
vn 0.2460856 -0.931415 0.2681567
vn 0.2460856 -0.931415 0.2681567
vn -0.2460854 0.931415 -0.2681568
vn -0.2460854 0.931415 -0.2681568
vn -0.2460854 0.931415 -0.2681568
vn 0.2460856 -0.931415 0.2681567
vn 0.2460856 -0.931415 0.2681567
vn -0.5389183 -0.7311464 0.4183205
vn -0.2460854 0.931415 -0.2681568
vn -0.8459634 0.5198623 0.1186982
vn 0.5869612 0.01137309 -0.8095353
vn 0.6879804 -0.04964674 -0.7240291
vn -0.9922896 0.04829483 0.1141446
vn -0.9932008 -0.03147345 -0.1120783
vn 0.03425599 0.670702 0.7409355
vn 0.1628428 0.5528396 0.8172212
vn 0.6879804 -0.04964674 -0.7240291
vn 0.5869612 0.01137309 -0.8095353
vn -0.93901 -0.3417814 0.03802222
vn 0.9038746 0.086591 0.4189424
vn -0.6573008 -0.5460019 0.5194589
vn 0.9769513 -0.01126581 0.2131649
vn -0.04072419 0.6451434 -0.7629755
vn -0.2493153 0.8455862 -0.4720443
vn 0.9769513 -0.01126581 0.2131649
vn 0.9038746 0.086591 0.4189424
vn -0.1280302 -0.5077247 0.851953
vn 0.9211949 -0.2727789 -0.2774735
vn 0.9211949 -0.2727789 -0.2774735
vn -0.1585301 0.4800942 -0.8627733
vn -0.1585301 0.4800942 -0.8627733
vn 0.4422853 -0.4065561 -0.7994347
vn 0.3717565 -0.5225685 0.7672805
vn -0.4213555 0.7526857 -0.5058891
vn 0.4422853 -0.4065561 -0.7994347
vn 0.1158046 -0.5382951 0.834762
vn 0.002368565 -0.3024016 -0.9531777
vn 0.112857 -0.6761568 0.7280626
vn -0.2450167 -0.5032229 -0.8286938
vn 0.0264418 0.9848549 -0.171352
vn -0.04852118 0.9945067 0.09274784
vn -0.2450167 -0.5032229 -0.8286938
vn 0.002368565 -0.3024016 -0.9531777
vn -0.4785676 -0.487721 -0.7301379
vn 0.05019164 0.94723 0.3166008
vn -0.9145902 -0.3908287 0.1038156
vn 0.4119222 -0.4028267 0.8173437
vn -0.9145902 -0.3908287 0.1038156
vn -0.4785676 -0.487721 -0.7301379

vt 0.6303711 0.05145264
vt 0.6381836 0.03286743
vt 0.6201172 0.04681396
vt 0.6235352 0.03204346
vt 0.6069336 0.04727173
vt 0.6079102 0.03173828
vt 0.59375 0.05169678
vt 0.6323242 0.01333618
vt 0.6206055 0.01702881
vt 0.6074219 0.01591492
vt 0.5957031 0.03097534
vt 0.59375 0.05169678
vt 0.5839844 0.04647827
vt 0.5849609 0.03053284
vt 0.5722656 0.04403687
vt 0.5712891 0.03001404
vt 0.5610352 0.04483032
vt 0.5566406 0.02975464
vt 0.5512695 0.04934692
vt 0.5439453 0.02894592
vt 0.5957031 0.01042175
vt 0.5844727 0.01464081
vt 0.5957031 0.01042175
vt 0.5722656 0.01631165
vt 0.5615234 0.01480865
vt 0.5532227 0.009353638
vt 0.5722656 0.05761719
vt 0.5722656 0.05761719
vt 0.574707 0.00286293
vt 0.574707 0.00286293
vt 0.574707 0.00286293
vt 0.6118164 0.05996704
vt 0.5722656 0.05761719
vt 0.59375 0.05169678
vt 0.6142578 0.003448486
vt 0.5957031 0.01042175
vt 0.5668945 0.142334
vt 0.5742188 0.142334
vt 0.5742188 0.1381836
vt 0.5668945 0.1381836
vt 0.5742188 0.1341553
vt 0.5668945 0.1341553
vt 0.5742188 0.1300049
vt 0.5668945 0.1300049
vt 0.5766602 0.1381836
vt 0.5766602 0.142334
vt 0.5795898 0.1381836
vt 0.5795898 0.142334
vt 0.5795898 0.1341553
vt 0.5766602 0.1341553
vt 0.5795898 0.1300049
vt 0.5766602 0.1300049
vt 0.5859375 0.1381836
vt 0.5859375 0.142334
vt 0.5859375 0.1300049
vt 0.5859375 0.1341553
vt 0.5859375 0.1341553
vt 0.5922852 0.142334
vt 0.5922852 0.1381836
vt 0.5922852 0.1341553
vt 0.5922852 0.1300049
vt 0.597168 0.1381836
vt 0.597168 0.142334
vt 0.6049805 0.1381836
vt 0.6049805 0.142334
vt 0.6049805 0.1341553
vt 0.597168 0.1341553
vt 0.6049805 0.1300049
vt 0.597168 0.1300049
vt 0.6118164 0.1300049
vt 0.6118164 0.1341553
vt 0.6181641 0.1362305
vt 0.6118164 0.1381836
vt 0.6181641 0.1362305
vt 0.6118164 0.142334

g base_1353_67
usemtl base_1353_67
usemap base_1353_67
f 1/1/1 3/3/3 2/2/2
f 2/2/2 3/3/3 4/4/4
f 3/3/3 5/5/5 4/4/4
f 4/4/4 5/5/5 6/6/6
f 5/5/5 7/7/7 6/6/6
f 2/2/2 4/4/4 8/8/8
f 8/8/8 4/4/4 9/9/9
f 4/4/4 6/6/6 9/9/9
f 9/9/9 6/6/6 10/10/10
f 6/6/6 11/11/11 10/10/10
f 6/6/6 12/12/12 11/11/11
f 12/12/12 13/13/13 11/11/11
f 11/11/11 13/13/13 14/14/14
f 13/13/13 15/15/15 14/14/14
f 14/14/14 15/15/15 16/16/16
f 15/15/15 17/17/17 16/16/16
f 16/16/16 17/17/17 18/18/18
f 17/17/17 19/19/19 18/18/18
f 18/18/18 19/19/19 20/20/20
f 10/10/10 11/11/11 21/21/21
f 11/11/11 14/14/14 21/21/21
f 14/14/14 16/16/16 22/22/22
f 23/23/23 14/14/14 22/22/22
f 22/22/22 16/16/16 24/24/24
f 16/16/16 18/18/18 24/24/24
f 24/24/24 18/18/18 25/25/25
f 18/18/18 20/20/20 25/25/25
f 25/25/25 20/20/20 26/26/26
f 15/15/15 13/13/13 27/27/27
f 17/17/17 15/15/15 27/27/27
f 19/19/19 17/17/17 28/28/28
f 23/23/23 22/22/22 29/29/29
f 22/22/22 24/24/24 30/30/30
f 24/24/24 25/25/25 30/30/30
f 25/25/25 26/26/26 31/31/31
f 3/3/3 1/1/1 32/32/32
f 5/5/5 3/3/3 32/32/32
f 7/7/7 5/5/5 32/32/32
f 13/13/13 34/34/34 33/33/33
f 8/8/8 9/9/9 35/35/35
f 9/9/9 10/10/10 35/35/35
f 10/10/10 36/36/36 35/35/35
f 37/37/37 39/39/39 38/38/38
f 37/37/37 40/40/40 39/39/39
f 40/40/40 41/41/41 39/39/39
f 40/40/40 42/42/42 41/41/41
f 42/42/42 43/43/43 41/41/41
f 42/42/42 44/44/44 43/43/43
f 38/38/38 39/39/39 45/45/45
f 38/38/38 45/45/45 46/46/46
f 46/46/46 45/45/45 47/47/47
f 46/46/46 47/47/47 48/48/48
f 45/45/45 49/49/49 47/47/47
f 45/45/45 50/50/50 49/49/49
f 39/39/39 50/50/50 45/45/45
f 39/39/39 41/41/41 50/50/50
f 50/50/50 51/51/51 49/49/49
f 50/50/50 52/52/52 51/51/51
f 41/41/41 52/52/52 50/50/50
f 41/41/41 43/43/43 52/52/52
f 48/48/48 47/47/47 53/53/53
f 48/48/48 53/53/53 54/54/54
f 49/49/49 51/51/51 55/55/55
f 49/49/49 55/55/55 56/56/56
f 47/47/47 57/57/57 53/53/53
f 47/47/47 49/49/49 57/57/57
f 58/58/58 54/54/54 53/53/53
f 58/58/58 53/53/53 59/59/59
f 59/59/59 53/53/53 57/57/57
f 60/60/60 56/56/56 55/55/55
f 59/59/59 57/57/57 60/60/60
f 60/60/60 55/55/55 61/61/61
f 58/58/58 59/59/59 62/62/62
f 58/58/58 62/62/62 63/63/63
f 63/63/63 62/62/62 64/64/64
f 63/63/63 64/64/64 65/65/65
f 62/62/62 66/66/66 64/64/64
f 62/62/62 67/67/67 66/66/66
f 59/59/59 67/67/67 62/62/62
f 59/59/59 60/60/60 67/67/67
f 67/67/67 68/68/68 66/66/66
f 67/67/67 69/69/69 68/68/68
f 60/60/60 69/69/69 67/67/67
f 60/60/60 61/61/61 69/69/69
f 66/66/66 68/68/68 70/70/70
f 66/66/66 70/70/70 71/71/71
f 64/64/64 66/66/66 71/71/71
f 71/71/71 70/70/70 72/72/72
f 64/64/64 71/71/71 73/73/73
f 65/65/65 64/64/64 73/73/73
f 73/73/73 71/71/71 74/74/74
f 75/75/75 73/73/73 74/74/74
f 65/65/65 73/73/73 75/75/75
