#Billboard1_alpha_2355_92.obj

v 2.375273 6.955911 -1.082939
v 2.375273 6.955911 -0.3607788
v 0.7917576 6.955911 -0.3607769
v 0.7917576 6.955911 -1.082937
v 0.7917576 6.955911 -1.082937
v 0.7917576 6.955911 -0.3607769
v -0.7917576 6.955911 -0.3607769
v -0.7917576 6.955911 -1.082937
v -0.7917576 6.955911 -1.082937
v -0.7917576 6.955911 -0.3607769
v -2.375271 6.955911 -0.360775
v -2.375271 6.955911 -1.082937
v -2.375273 6.955911 1.082939
v -2.375273 6.955911 0.3607788
v -0.7917576 6.955911 0.3607769
v -0.7917576 6.955911 1.082937
v -0.7917576 6.955911 1.082937
v -0.7917576 6.955911 0.3607769
v 0.7917566 6.955911 0.3607769
v 0.7917566 6.955911 1.082937
v 0.7917566 6.955911 1.082937
v 0.7917566 6.955911 0.3607769
v 2.375271 6.955911 0.360775
v 2.375271 6.955911 1.082937
v 2.375273 6.955911 -1.082939
v 0.7917576 6.955911 -1.082937
v 0.7917576 6.955911 -0.3607769
v 2.375273 6.955911 -0.3607788
v 0.7917576 6.955911 -1.082937
v -0.7917576 6.955911 -1.082937
v -0.7917576 6.955911 -0.3607769
v 0.7917576 6.955911 -0.3607769
v -0.7917576 6.955911 -1.082937
v -2.375271 6.955911 -1.082937
v -2.375271 6.955911 -0.360775
v -0.7917576 6.955911 -0.3607769
v -2.375273 6.955911 1.082939
v -0.7917576 6.955911 1.082937
v -0.7917576 6.955911 0.3607769
v -2.375273 6.955911 0.3607788
v -0.7917576 6.955911 1.082937
v 0.7917566 6.955911 1.082937
v 0.7917566 6.955911 0.3607769
v -0.7917576 6.955911 0.3607769
v 0.7917566 6.955911 1.082937
v 2.375271 6.955911 1.082937
v 2.375271 6.955911 0.360775
v 0.7917566 6.955911 0.3607769

vn 0 1 0
vn 0 1 0
vn 0 1 0
vn 0 1 0
vn 0 1 0
vn 0 1 0
vn 0 1 0
vn 0 1 0
vn 0 1 0
vn 0 1 0
vn 0 1 0
vn 0 1 0
vn 0 1 0
vn 0 1 0
vn 0 1 0
vn 0 1 0
vn 0 1 0
vn 0 1 0
vn 0 1 0
vn 0 1 0
vn 0 1 0
vn 0 1 0
vn 0 1 0
vn 0 1 0
vn 0 -1 0
vn 0 -1 0
vn 0 -1 0
vn 0 -1 0
vn 0 -1 0
vn 0 -1 0
vn 0 -1 0
vn 0 -1 0
vn 0 -1 0
vn 0 -1 0
vn 0 -1 0
vn 0 -1 0
vn 0 -1 0
vn 0 -1 0
vn 0 -1 0
vn 0 -1 0
vn 0 -1 0
vn 0 -1 0
vn 0 -1 0
vn 0 -1 0
vn 0 -1 0
vn 0 -1 0
vn 0 -1 0
vn 0 -1 0

vt 0.4768066 0.03625488
vt 0.4768066 0.06256104
vt 0.5341797 0.06256104
vt 0.5341797 0.03625488
vt 0.4768066 0.03625488
vt 0.4768066 0.06256104
vt 0.5341797 0.06256104
vt 0.5341797 0.03625488
vt 0.4768066 0.03625488
vt 0.4768066 0.06256104
vt 0.5341797 0.06256104
vt 0.5341797 0.03625488
vt 0.4768066 0.03625488
vt 0.4768066 0.06256104
vt 0.5341797 0.06256104
vt 0.5341797 0.03625488
vt 0.4768066 0.03625488
vt 0.4768066 0.06256104
vt 0.5341797 0.06256104
vt 0.5341797 0.03625488
vt 0.4768066 0.03625488
vt 0.4768066 0.06256104
vt 0.5341797 0.06256104
vt 0.5341797 0.03625488
vt 0.4768066 0.03625488
vt 0.5341797 0.03625488
vt 0.5341797 0.06256104
vt 0.4768066 0.06256104
vt 0.4768066 0.03625488
vt 0.5341797 0.03625488
vt 0.5341797 0.06256104
vt 0.4768066 0.06256104
vt 0.4768066 0.03625488
vt 0.5341797 0.03625488
vt 0.5341797 0.06256104
vt 0.4768066 0.06256104
vt 0.4768066 0.03625488
vt 0.5341797 0.03625488
vt 0.5341797 0.06256104
vt 0.4768066 0.06256104
vt 0.4768066 0.03625488
vt 0.5341797 0.03625488
vt 0.5341797 0.06256104
vt 0.4768066 0.06256104
vt 0.4768066 0.03625488
vt 0.5341797 0.03625488
vt 0.5341797 0.06256104
vt 0.4768066 0.06256104

g Billboard1_alpha_2355_92
usemtl Billboard1_alpha_2355_92
usemap Billboard1_alpha_2355_92
f 1/1/1 3/3/3 2/2/2
f 1/1/1 4/4/4 3/3/3
f 5/5/5 7/7/7 6/6/6
f 5/5/5 8/8/8 7/7/7
f 9/9/9 11/11/11 10/10/10
f 9/9/9 12/12/12 11/11/11
f 13/13/13 15/15/15 14/14/14
f 13/13/13 16/16/16 15/15/15
f 17/17/17 19/19/19 18/18/18
f 17/17/17 20/20/20 19/19/19
f 21/21/21 23/23/23 22/22/22
f 21/21/21 24/24/24 23/23/23
f 25/25/25 27/27/27 26/26/26
f 25/25/25 28/28/28 27/27/27
f 29/29/29 31/31/31 30/30/30
f 29/29/29 32/32/32 31/31/31
f 33/33/33 35/35/35 34/34/34
f 33/33/33 36/36/36 35/35/35
f 37/37/37 39/39/39 38/38/38
f 37/37/37 40/40/40 39/39/39
f 41/41/41 43/43/43 42/42/42
f 41/41/41 44/44/44 43/43/43
f 45/45/45 47/47/47 46/46/46
f 45/45/45 48/48/48 47/47/47
