#Box2_(1)_2333_269.obj

v -0.6853663 -0.0008230209 0.685366
v -0.6853663 1.369913 0.685366
v 0.6853714 1.369913 0.6853667
v 0.6853714 -0.0008230209 0.6853667
v -0.6853663 1.369913 0.685366
v -0.6853714 1.369913 -0.6853667
v 0.6853663 1.369913 -0.685366
v 0.6853714 1.369913 0.6853667
v -0.6853714 1.369913 -0.6853667
v -0.6853714 -0.0008230209 -0.6853667
v 0.6853663 -0.0008230209 -0.685366
v 0.6853663 1.369913 -0.685366
v -0.6853714 -0.0008230209 -0.6853667
v -0.6853663 -0.0008230209 0.685366
v 0.6853714 -0.0008230209 0.6853667
v 0.6853663 -0.0008230209 -0.685366
v 0.6853714 -0.0008230209 0.6853667
v 0.6853714 1.369913 0.6853667
v 0.6853663 1.369913 -0.685366
v 0.6853663 -0.0008230209 -0.685366
v -0.6853714 -0.0008230209 -0.6853667
v -0.6853714 1.369913 -0.6853667
v -0.6853663 1.369913 0.685366
v -0.6853663 -0.0008230209 0.685366

vn 0.7587779 0 0.6513494
vn 0.7587779 0 0.6513494
vn 0.7587779 0 0.6513494
vn 0.7587779 0 0.6513494
vn 0 1 0
vn 0 1 0
vn 0 1 0
vn 0 1 0
vn -0.7587779 0 -0.6513494
vn -0.7587779 0 -0.6513494
vn -0.7587779 0 -0.6513494
vn -0.7587779 0 -0.6513494
vn 0 -1 0
vn 0 -1 0
vn 0 -1 0
vn 0 -1 0
vn 0.6513494 0 -0.7587779
vn 0.6513494 0 -0.7587779
vn 0.6513494 0 -0.7587779
vn 0.6513494 0 -0.7587779
vn -0.6513494 0 0.7587779
vn -0.6513494 0 0.7587779
vn -0.6513494 0 0.7587779
vn -0.6513494 0 0.7587779

vt 0.7519531 0.6899414
vt 0.7519531 0.7226563
vt 0.78125 0.7226563
vt 0.78125 0.6899414
vt 0.7519531 0.7241211
vt 0.7519531 0.753418
vt 0.78125 0.753418
vt 0.78125 0.7241211
vt 0.78125 0.7226563
vt 0.78125 0.6899414
vt 0.7519531 0.6899414
vt 0.7519531 0.7226563
vt 0.7519531 0.6899414
vt 0.7519531 0.7226563
vt 0.78125 0.7226563
vt 0.78125 0.6899414
vt 0.7519531 0.6899414
vt 0.7519531 0.7226563
vt 0.78125 0.7226563
vt 0.78125 0.6899414
vt 0.7519531 0.6899414
vt 0.7519531 0.7226563
vt 0.78125 0.7226563
vt 0.78125 0.6899414

g Box2_(1)_2333_269
usemtl Box2_(1)_2333_269
usemap Box2_(1)_2333_269
f 1/1/1 3/3/3 2/2/2
f 1/1/1 4/4/4 3/3/3
f 5/5/5 7/7/7 6/6/6
f 5/5/5 8/8/8 7/7/7
f 9/9/9 11/11/11 10/10/10
f 9/9/9 12/12/12 11/11/11
f 13/13/13 15/15/15 14/14/14
f 13/13/13 16/16/16 15/15/15
f 17/17/17 19/19/19 18/18/18
f 17/17/17 20/20/20 19/19/19
f 21/21/21 23/23/23 22/22/22
f 21/21/21 24/24/24 23/23/23
