#Box2_(5)_2724_207.obj

v -0.6853676 -0.0008230209 0.6853676
v -0.6853676 1.369913 0.6853676
v 0.6853676 1.369913 0.6853676
v 0.6853676 -0.0008230209 0.6853676
v -0.6853676 1.369913 0.6853676
v -0.6853676 1.369913 -0.6853676
v 0.6853676 1.369913 -0.6853676
v 0.6853676 1.369913 0.6853676
v -0.6853676 1.369913 -0.6853676
v -0.6853676 -0.0008230209 -0.6853676
v 0.6853676 -0.0008230209 -0.6853676
v 0.6853676 1.369913 -0.6853676
v -0.6853676 -0.0008230209 -0.6853676
v -0.6853676 -0.0008230209 0.6853676
v 0.6853676 -0.0008230209 0.6853676
v 0.6853676 -0.0008230209 -0.6853676
v 0.6853676 -0.0008230209 0.6853676
v 0.6853676 1.369913 0.6853676
v 0.6853676 1.369913 -0.6853676
v 0.6853676 -0.0008230209 -0.6853676
v -0.6853676 -0.0008230209 -0.6853676
v -0.6853676 1.369913 -0.6853676
v -0.6853676 1.369913 0.6853676
v -0.6853676 -0.0008230209 0.6853676

vn 0 0 1
vn 0 0 1
vn 0 0 1
vn 0 0 1
vn 0 1 0
vn 0 1 0
vn 0 1 0
vn 0 1 0
vn 0 0 -1
vn 0 0 -1
vn 0 0 -1
vn 0 0 -1
vn 0 -1 0
vn 0 -1 0
vn 0 -1 0
vn 0 -1 0
vn 1 0 0
vn 1 0 0
vn 1 0 0
vn 1 0 0
vn -1 0 0
vn -1 0 0
vn -1 0 0
vn -1 0 0

vt 0.7519531 0.6899414
vt 0.7519531 0.7226563
vt 0.78125 0.7226563
vt 0.78125 0.6899414
vt 0.7519531 0.7241211
vt 0.7519531 0.753418
vt 0.78125 0.753418
vt 0.78125 0.7241211
vt 0.78125 0.7226563
vt 0.78125 0.6899414
vt 0.7519531 0.6899414
vt 0.7519531 0.7226563
vt 0.7519531 0.6899414
vt 0.7519531 0.7226563
vt 0.78125 0.7226563
vt 0.78125 0.6899414
vt 0.7519531 0.6899414
vt 0.7519531 0.7226563
vt 0.78125 0.7226563
vt 0.78125 0.6899414
vt 0.7519531 0.6899414
vt 0.7519531 0.7226563
vt 0.78125 0.7226563
vt 0.78125 0.6899414

g Box2_(5)_2724_207
usemtl Box2_(5)_2724_207
usemap Box2_(5)_2724_207
f 1/1/1 3/3/3 2/2/2
f 1/1/1 4/4/4 3/3/3
f 5/5/5 7/7/7 6/6/6
f 5/5/5 8/8/8 7/7/7
f 9/9/9 11/11/11 10/10/10
f 9/9/9 12/12/12 11/11/11
f 13/13/13 15/15/15 14/14/14
f 13/13/13 16/16/16 15/15/15
f 17/17/17 19/19/19 18/18/18
f 17/17/17 20/20/20 19/19/19
f 21/21/21 23/23/23 22/22/22
f 21/21/21 24/24/24 23/23/23
