#Brickwall1A_(60)_906_2.obj

v -0.4016252 1.937544 2.138065
v -0.4016252 1.937544 -2.138065
v 0.4016252 1.937544 -2.138065
v 0.4016252 1.937544 2.138065
v 0.4016252 1.455915 -2.138065
v -0.4016252 1.455915 -2.138065
v -0.4016252 1.455915 2.138065
v 0.4016252 1.455915 2.138065
v 0.4016252 1.937544 2.138065
v 0.4016252 1.937544 -2.138065
v 0.4016252 1.455915 -2.138065
v 0.4016252 1.455915 2.138065
v -0.4016252 1.455915 -2.138065
v -0.4016252 1.937544 -2.138065
v -0.4016252 1.937544 2.138065
v -0.4016252 1.455915 2.138065
v -0.4016252 1.455915 2.138065
v 0 1.696729 2.180817
v 0.4016252 1.455915 2.138065
v 0.4016252 1.937544 2.138065
v -0.4016252 1.937544 2.138065
v -0.4016252 1.937544 -2.138065
v 0 1.696729 -2.180817
v 0.4016252 1.937544 -2.138065
v 0.4016252 1.455915 -2.138065
v -0.4016252 1.455915 -2.138065
v 0.2409749 1.537197 -2.081371
v 0.2409749 -0.0226889 -2.081371
v 0.2409749 -0.0226889 2.081371
v 0.2409749 1.537197 2.081371
v 0.2409749 1.537197 2.081371
v 0.2409749 -0.0226889 2.081371
v -0.2409749 -0.0226889 2.081371
v -0.2409749 1.537197 2.081371
v -0.2409749 1.537197 2.081371
v -0.2409749 -0.0226889 2.081371
v -0.2409749 -0.0226889 -2.081371
v -0.2409749 1.537197 -2.081371
v -0.2409749 1.537197 -2.081371
v -0.2409749 -0.0226889 -2.081371
v 0.2409749 -0.0226889 -2.081371
v 0.2409749 1.537197 -2.081371

vn 0 1 0
vn 0 1 0
vn 0 1 0
vn 0 1 0
vn 0 -1 0
vn 0 -1 0
vn 0 -1 0
vn 0 -1 0
vn 1 0 0
vn 1 0 0
vn 1 0 0
vn 1 0 0
vn -1 0 0
vn -1 0 0
vn -1 0 0
vn -1 0 0
vn -0.06929599 -0.06118795 0.9957179
vn 0 0 1
vn 0.06929599 -0.06118795 0.9957179
vn 0.06929599 0.06118795 0.9957179
vn -0.06929599 0.06118795 0.9957179
vn -0.06929599 0.06118795 -0.9957179
vn 0 0 -1
vn 0.06929599 0.06118795 -0.9957179
vn 0.06929599 -0.06118795 -0.9957179
vn -0.06929599 -0.06118795 -0.9957179
vn 1 0 0
vn 1 0 0
vn 1 0 0
vn 1 0 0
vn 0 0 1
vn 0 0 1
vn 0 0 1
vn 0 0 1
vn -1 0 0
vn -1 0 0
vn -1 0 0
vn -1 0 0
vn 0 0 -1
vn 0 0 -1
vn 0 0 -1
vn 0 0 -1

vt 0.01119232 0.5927734
vt 0.01119232 0.6757813
vt 0.02505493 0.6757813
vt 0.02505493 0.5927734
vt 0.03475952 0.6757813
vt 0.0486145 0.6757813
vt 0.0486145 0.5927734
vt 0.03475952 0.5927734
vt 0.02505493 0.5927734
vt 0.02505493 0.6757813
vt 0.03475952 0.6757813
vt 0.03475952 0.5927734
vt 0.001491547 0.6757813
vt 0.01119232 0.6757813
vt 0.01119232 0.5927734
vt 0.001491547 0.5927734
vt 0.01119232 0.5830078
vt 0.01811218 0.5878906
vt 0.02505493 0.5830078
vt 0.02505493 0.5927734
vt 0.01119232 0.5927734
vt 0.01119232 0.6757813
vt 0.01811218 0.6806641
vt 0.02505493 0.6757813
vt 0.02505493 0.6855469
vt 0.01119232 0.6855469
vt 0.6953125 0.7382813
vt 0.6953125 0.6879883
vt 0.5380859 0.6879883
vt 0.5380859 0.7382813
vt 0.5380859 0.7382813
vt 0.5380859 0.6879883
vt 0.5209961 0.6879883
vt 0.5209961 0.7382813
vt 0.6953125 0.7382813
vt 0.6953125 0.6879883
vt 0.5380859 0.6879883
vt 0.5380859 0.7382813
vt 0.5380859 0.7382813
vt 0.5380859 0.6879883
vt 0.5209961 0.6879883
vt 0.5209961 0.7382813

g Brickwall1A_(60)_906_2
usemtl Brickwall1A_(60)_906_2
usemap Brickwall1A_(60)_906_2
f 1/1/1 3/3/3 2/2/2
f 1/1/1 4/4/4 3/3/3
f 5/5/5 7/7/7 6/6/6
f 5/5/5 8/8/8 7/7/7
f 9/9/9 11/11/11 10/10/10
f 9/9/9 12/12/12 11/11/11
f 13/13/13 15/15/15 14/14/14
f 13/13/13 16/16/16 15/15/15
f 17/17/17 19/19/19 18/18/18
f 19/19/19 20/20/20 18/18/18
f 20/20/20 21/21/21 18/18/18
f 21/21/21 17/17/17 18/18/18
f 22/22/22 24/24/24 23/23/23
f 24/24/24 25/25/25 23/23/23
f 25/25/25 26/26/26 23/23/23
f 26/26/26 22/22/22 23/23/23
f 27/27/27 29/29/29 28/28/28
f 27/27/27 30/30/30 29/29/29
f 31/31/31 33/33/33 32/32/32
f 31/31/31 34/34/34 33/33/33
f 35/35/35 37/37/37 36/36/36
f 35/35/35 38/38/38 37/37/37
f 39/39/39 41/41/41 40/40/40
f 39/39/39 42/42/42 41/41/41
