#Brickwall1B_(2)_1391_27.obj

v -0.4519157 2.004561 -0.4519157
v -0.4519157 2.320251 -0.4519157
v -0.4519157 2.320251 0.4519157
v -0.4519157 2.004561 0.4519157
v -0.4519157 2.320251 -0.4519157
v 0.4519157 2.320251 -0.4519157
v 0.4519157 2.320251 0.4519157
v -0.4519157 2.320251 0.4519157
v 0.4519157 2.320251 -0.4519157
v 0.4519157 2.004561 -0.4519157
v 0.4519157 2.004561 0.4519157
v 0.4519157 2.320251 0.4519157
v 0.4519157 2.004561 -0.4519157
v -0.4519157 2.004561 -0.4519157
v -0.4519157 2.004561 0.4519157
v 0.4519157 2.004561 0.4519157
v -0.4519157 2.004561 0.4519157
v -0.4519157 2.320251 0.4519157
v 0.4519157 2.320251 0.4519157
v 0.4519157 2.004561 0.4519157
v 0.4519157 2.004561 -0.4519157
v 0.4519157 2.320251 -0.4519157
v -0.4519157 2.320251 -0.4519157
v -0.4519157 2.004561 -0.4519157
v 0.3359528 2.198015 0.3307686
v 0.3359528 -0.05227588 0.3307686
v -0.3683052 -0.05227588 0.3307686
v -0.3683052 2.198015 0.3307686
v -0.3683052 2.198015 0.3307686
v -0.3683052 -0.05227588 0.3307686
v -0.3683052 -0.05227588 -0.3307686
v -0.3683052 2.198015 -0.3307686
v -0.3683052 2.198015 -0.3307686
v -0.3683052 -0.05227588 -0.3307686
v 0.3359528 -0.05227588 -0.3307686
v 0.3359528 2.198015 -0.3307686
v 0.3359528 2.198015 -0.3307686
v 0.3359528 -0.05227588 -0.3307686
v 0.3359528 -0.05227588 0.3307686
v 0.3359528 2.198015 0.3307686

vn -1 0 0
vn -1 0 0
vn -1 0 0
vn -1 0 0
vn 0 1 0
vn 0 1 0
vn 0 1 0
vn 0 1 0
vn 1 0 0
vn 1 0 0
vn 1 0 0
vn 1 0 0
vn 0 -1 0
vn 0 -1 0
vn 0 -1 0
vn 0 -1 0
vn 0 0 1
vn 0 0 1
vn 0 0 1
vn 0 0 1
vn 0 0 -1
vn 0 0 -1
vn 0 0 -1
vn 0 0 -1
vn 0 0 1
vn 0 0 1
vn 0 0 1
vn 0 0 1
vn -1 0 0
vn -1 0 0
vn -1 0 0
vn -1 0 0
vn 0 0 -1
vn 0 0 -1
vn 0 0 -1
vn 0 0 -1
vn 1 0 0
vn 1 0 0
vn 1 0 0
vn 1 0 0

vt 0.1001587 0.6821289
vt 0.104126 0.6821289
vt 0.104126 0.6655273
vt 0.1001587 0.6655273
vt 0.104126 0.6821289
vt 0.12146 0.6821289
vt 0.12146 0.6655273
vt 0.104126 0.6655273
vt 0.12146 0.6821289
vt 0.1253662 0.6821289
vt 0.1253662 0.6655273
vt 0.12146 0.6655273
vt 0.104187 0.6655273
vt 0.104187 0.6821289
vt 0.121521 0.6821289
vt 0.121521 0.6655273
vt 0.104126 0.6611328
vt 0.104126 0.6655273
vt 0.12146 0.6655273
vt 0.12146 0.6611328
vt 0.12146 0.6865234
vt 0.12146 0.6821289
vt 0.104126 0.6821289
vt 0.104126 0.6865234
vt 0.5908203 0.7543945
vt 0.5908203 0.6879883
vt 0.5727539 0.6879883
vt 0.5727539 0.7543945
vt 0.5727539 0.7543945
vt 0.5727539 0.6879883
vt 0.5561523 0.6879883
vt 0.5561523 0.7543945
vt 0.5561523 0.7543945
vt 0.5561523 0.6879883
vt 0.5380859 0.6879883
vt 0.5380859 0.7543945
vt 0.5380859 0.7543945
vt 0.5380859 0.6879883
vt 0.5209961 0.6879883
vt 0.5209961 0.7543945

g Brickwall1B_(2)_1391_27
usemtl Brickwall1B_(2)_1391_27
usemap Brickwall1B_(2)_1391_27
f 1/1/1 3/3/3 2/2/2
f 1/1/1 4/4/4 3/3/3
f 5/5/5 7/7/7 6/6/6
f 5/5/5 8/8/8 7/7/7
f 9/9/9 11/11/11 10/10/10
f 9/9/9 12/12/12 11/11/11
f 13/13/13 15/15/15 14/14/14
f 13/13/13 16/16/16 15/15/15
f 17/17/17 19/19/19 18/18/18
f 17/17/17 20/20/20 19/19/19
f 21/21/21 23/23/23 22/22/22
f 21/21/21 24/24/24 23/23/23
f 25/25/25 27/27/27 26/26/26
f 25/25/25 28/28/28 27/27/27
f 29/29/29 31/31/31 30/30/30
f 29/29/29 32/32/32 31/31/31
f 33/33/33 35/35/35 34/34/34
f 33/33/33 36/36/36 35/35/35
f 37/37/37 39/39/39 38/38/38
f 37/37/37 40/40/40 39/39/39
