#BridgeWood_el1_2844_152.obj

v -0.1360474 -0.04764482 2.250858
v 0.008585453 -0.02995855 -2.073788
v -0.7291341 -0.1201696 -2.073788
v -0.7291327 -0.1201694 2.250858
v 0.008585453 -0.02995855 -2.073788
v -0.0575006 0.1247954 -2.073788
v -0.7271912 0.04290316 -2.073788
v -0.7291341 -0.1201696 -2.073788
v -0.0575006 0.1247954 -2.073788
v -0.2021365 0.1071087 2.250858
v -0.7271912 0.04290316 2.250858
v -0.7271912 0.04290316 -2.073788
v -0.2021365 0.1071087 2.250858
v -0.1360474 -0.04764482 2.250858
v -0.7291327 -0.1201694 2.250858
v -0.7271912 0.04290316 2.250858
v -0.7291327 -0.1201694 2.250858
v -0.7291341 -0.1201696 -2.073788
v -0.7271912 0.04290316 -2.073788
v -0.7271912 0.04290316 2.250858
v -0.2021365 0.1071087 2.250858
v -0.0575006 0.1247954 -2.073788
v 0.008585453 -0.02995855 -2.073788
v -0.1360474 -0.04764482 2.250858
v -0.8245547 0.03099719 -2.21162
v -0.8245547 0.03099719 2.326988
v -1.278839 -0.02455422 2.326988
v -1.391987 -0.03839043 -2.21162
v -0.8245547 0.03099719 2.326988
v -0.7710137 -0.1252908 2.326988
v -1.261658 -0.1852886 2.326988
v -1.278839 -0.02455422 2.326988
v -0.7710137 -0.1252908 2.326988
v -0.7710137 -0.1252908 -2.21162
v -1.406292 -0.202975 -2.21162
v -1.261658 -0.1852886 2.326988
v -0.7710137 -0.1252908 -2.21162
v -0.8245547 0.03099719 -2.21162
v -1.391987 -0.03839043 -2.21162
v -1.406292 -0.202975 -2.21162
v -1.391987 -0.03839043 -2.21162
v -1.278839 -0.02455422 2.326988
v -1.261658 -0.1852886 2.326988
v -1.406292 -0.202975 -2.21162
v -0.7710137 -0.1252908 -2.21162
v -0.7710137 -0.1252908 2.326988
v -0.8245547 0.03099719 2.326988
v -0.8245547 0.03099719 -2.21162
v -1.476279 1.252708 -2.149906
v -1.301199 -0.179046 -2.149906
v -0.9323404 -0.1339406 -2.149906
v -1.10742 1.297813 -2.149906
v -1.301199 -0.179046 -2.007988
v -1.476279 1.252708 -2.007988
v -1.10742 1.297813 -2.007988
v -0.9323404 -0.1339406 -2.007988
v -1.476279 1.252708 -2.007988
v -1.476279 1.252708 -2.149906
v -1.10742 1.297813 -2.149906
v -1.10742 1.297813 -2.007988
v -1.10742 1.297813 -2.149906
v -0.9323404 -0.1339406 -2.149906
v -0.9323404 -0.1339406 -2.007988
v -1.10742 1.297813 -2.007988
v -1.476279 1.252708 -2.007988
v -1.301199 -0.179046 -2.007988
v -1.301199 -0.179046 -2.149906
v -1.476279 1.252708 -2.149906
v -1.064399 1.439232 2.212727
v -0.8893185 0.007478148 2.212727
v -1.258178 -0.03762728 2.212727
v -1.433258 1.394127 2.212727
v -0.8893185 0.007478148 2.070808
v -1.064399 1.439232 2.070808
v -1.433258 1.394127 2.070808
v -1.258178 -0.03762728 2.070808
v -1.064399 1.439232 2.070808
v -1.064399 1.439232 2.212727
v -1.433258 1.394127 2.212727
v -1.433258 1.394127 2.070808
v -1.433258 1.394127 2.212727
v -1.258178 -0.03762728 2.212727
v -1.258178 -0.03762728 2.070808
v -1.433258 1.394127 2.070808
v -1.064399 1.439232 2.070808
v -0.8893185 0.007478148 2.070808
v -0.8893185 0.007478148 2.212727
v -1.064399 1.439232 2.212727
v -1.669961 0.6593231 1.930786
v 0.31721 0.8665367 1.930786
v 0.2641282 1.300621 1.93079
v -1.723043 1.093407 1.93079
v 0.31721 0.8665367 1.930786
v 0.3172097 0.8665367 2.072708
v 0.264128 1.300621 2.072708
v 0.2641282 1.300621 1.93079
v 0.3172097 0.8665367 2.072708
v -1.669961 0.6593231 2.072708
v -1.723043 1.093407 2.072708
v 0.264128 1.300621 2.072708
v -1.669961 0.6593231 2.072708
v -1.669961 0.6593231 1.930786
v -1.723043 1.093407 1.93079
v -1.723043 1.093407 2.072708
v -1.723043 1.093407 1.93079
v 0.2641282 1.300621 1.93079
v 0.264128 1.300621 2.072708
v -1.723043 1.093407 2.072708
v -1.669961 0.6593231 2.072708
v 0.3172097 0.8665367 2.072708
v 0.31721 0.8665367 1.930786
v -1.669961 0.6593231 1.930786
v -1.669961 0.6279541 -2.069214
v 0.31721 0.8351678 -2.069214
v 0.2641282 1.269252 -2.06921
v -1.723043 1.062038 -2.06921
v 0.31721 0.8351678 -2.069214
v 0.3172097 0.8351678 -1.927292
v 0.264128 1.269252 -1.927292
v 0.2641282 1.269252 -2.06921
v 0.3172097 0.8351678 -1.927292
v -1.669961 0.6279541 -1.927292
v -1.723043 1.062038 -1.927292
v 0.264128 1.269252 -1.927292
v -1.669961 0.6279541 -1.927292
v -1.669961 0.6279541 -2.069214
v -1.723043 1.062038 -2.06921
v -1.723043 1.062038 -1.927292
v -1.723043 1.062038 -2.06921
v 0.2641282 1.269252 -2.06921
v 0.264128 1.269252 -1.927292
v -1.723043 1.062038 -1.927292
v -1.669961 0.6279541 -1.927292
v 0.3172097 0.8351678 -1.927292
v 0.31721 0.8351678 -2.069214
v -1.669961 0.6279541 -2.069214
v -1.730875 -0.2540664 -1.810493
v 0.2224381 8.046627E-07 -1.810493
v 0.2224381 0 -1.545849
v -1.730874 -0.2540673 -1.545849
v 0.2224381 8.046627E-07 -1.810493
v 0.2611108 -0.3162533 -1.810493
v 0.2611113 -0.3162549 -1.545849
v 0.2224381 0 -1.545849
v 0.2611108 -0.3162533 -1.810493
v -1.692201 -0.5703205 -1.810493
v -1.692201 -0.570322 -1.545849
v 0.2611113 -0.3162549 -1.545849
v -1.692201 -0.5703205 -1.810493
v -1.730875 -0.2540664 -1.810493
v -1.730874 -0.2540673 -1.545849
v -1.692201 -0.570322 -1.545849
v -1.730874 -0.2540673 -1.545849
v 0.2224381 0 -1.545849
v 0.2611113 -0.3162549 -1.545849
v -1.692201 -0.570322 -1.545849
v -1.692201 -0.5703205 -1.810493
v 0.2611108 -0.3162533 -1.810493
v 0.2224381 8.046627E-07 -1.810493
v -1.730875 -0.2540664 -1.810493
v -1.730875 -0.2540664 1.547268
v 0.2224381 8.046627E-07 1.547268
v 0.2224381 0 1.811913
v -1.730874 -0.2540673 1.811913
v 0.2224381 8.046627E-07 1.547268
v 0.2611108 -0.3162533 1.547268
v 0.2611113 -0.3162549 1.811913
v 0.2224381 0 1.811913
v 0.2611108 -0.3162533 1.547268
v -1.692201 -0.5703205 1.547268
v -1.692201 -0.570322 1.811913
v 0.2611113 -0.3162549 1.811913
v -1.692201 -0.5703205 1.547268
v -1.730875 -0.2540664 1.547268
v -1.730874 -0.2540673 1.811913
v -1.692201 -0.570322 1.811913
v -1.730874 -0.2540673 1.811913
v 0.2224381 0 1.811913
v 0.2611113 -0.3162549 1.811913
v -1.692201 -0.570322 1.811913
v -1.692201 -0.5703205 1.547268
v 0.2611108 -0.3162533 1.547268
v 0.2224381 8.046627E-07 1.547268
v -1.730875 -0.2540664 1.547268

vn 0.1213795 -0.9926062 0
vn 0.1213795 -0.9926062 0
vn 0.1213795 -0.9926062 0
vn 0.1213795 -0.9926062 0
vn 0 0 -1
vn 0 0 -1
vn 0 0 -1
vn 0 0 -1
vn -0.1213795 0.9926062 0
vn -0.1213795 0.9926062 0
vn -0.1213795 0.9926062 0
vn -0.1213795 0.9926062 0
vn 0 0 1
vn 0 0 1
vn 0 0 1
vn 0 0 1
vn -0.9999291 0.01190874 0
vn -0.9999291 0.01190874 0
vn -0.9999291 0.01190874 0
vn -0.9999291 0.01190874 0
vn 0.91917 0.3925307 0.03234626
vn 0.91917 0.3925306 0.03234625
vn 0.91917 0.3925307 0.03234626
vn 0.91917 0.3925307 0.03234625
vn -0.1213793 0.9926062 0
vn -0.1213793 0.9926062 0
vn -0.1213793 0.9926062 0
vn -0.1213793 0.9926062 0
vn 0 0 1
vn 0 0 1
vn 0 0 1
vn 0 0 1
vn 0.1213796 -0.9926062 0
vn 0.1213796 -0.9926062 0
vn 0.1213795 -0.9926062 0
vn 0.1213796 -0.9926062 0
vn 0 0 -1
vn 0 0 -1
vn 0 0 -1
vn 0 0 -1
vn -0.9995571 -0.00883464 0.02841701
vn -0.9995571 -0.008834638 0.02841701
vn -0.9995571 -0.008834639 0.02841701
vn -0.9995571 -0.008834639 0.02841701
vn 0.9460269 0.3240883 0
vn 0.9460269 0.3240883 0
vn 0.9460269 0.3240883 0
vn 0.9460269 0.3240883 0
vn 0 0 -1
vn 0 0 -1
vn 0 0 -1
vn 0 0 -1
vn 0 0 1
vn 0 0 1
vn 0 0 1
vn 0 0 1
vn -0.1213792 0.9926062 0
vn -0.1213792 0.9926062 0
vn -0.1213792 0.9926062 0
vn -0.1213792 0.9926062 0
vn 0.9926062 0.1213793 0
vn 0.9926062 0.1213793 0
vn 0.9926062 0.1213793 0
vn 0.9926062 0.1213793 0
vn -0.9926062 -0.1213789 0
vn -0.9926062 -0.1213789 0
vn -0.9926062 -0.1213789 0
vn -0.9926062 -0.1213789 0
vn 0 0 1
vn 0 0 1
vn 0 0 1
vn 0 0 1
vn 0 0 -1
vn 0 0 -1
vn 0 0 -1
vn 0 0 -1
vn -0.1213796 0.9926062 0
vn -0.1213796 0.9926062 0
vn -0.1213796 0.9926062 0
vn -0.1213796 0.9926062 0
vn -0.9926061 -0.1213798 0
vn -0.9926061 -0.1213798 0
vn -0.9926061 -0.1213798 0
vn -0.9926061 -0.1213798 0
vn 0.9926061 0.1213798 0
vn 0.9926061 0.1213798 0
vn 0.9926061 0.1213798 0
vn 0.9926061 0.1213798 0
vn 0 0 -1
vn 0 0 -1
vn 0 0 -1
vn 0 0 -1
vn 0.9926061 0.1213803 0
vn 0.9926061 0.1213803 0
vn 0.9926061 0.1213803 0
vn 0.9926061 0.1213803 0
vn 0 0 1
vn 0 0 1
vn 0 0 1
vn 0 0 1
vn -0.9926061 -0.1213806 0
vn -0.9926061 -0.1213806 0
vn -0.9926061 -0.1213806 0
vn -0.9926061 -0.1213806 0
vn -0.1037133 0.9946072 0
vn -0.1037133 0.9946072 0
vn -0.1037133 0.9946072 0
vn -0.1037133 0.9946072 0
vn 0.1037134 -0.9946072 0
vn 0.1037134 -0.9946072 0
vn 0.1037134 -0.9946072 0
vn 0.1037134 -0.9946072 0
vn 0 0 -1
vn 0 0 -1
vn 0 0 -1
vn 0 0 -1
vn 0.9926061 0.1213803 0
vn 0.9926061 0.1213803 0
vn 0.9926061 0.1213803 0
vn 0.9926061 0.1213803 0
vn 0 0 1
vn 0 0 1
vn 0 0 1
vn 0 0 1
vn -0.9926061 -0.1213806 0
vn -0.9926061 -0.1213806 0
vn -0.9926061 -0.1213806 0
vn -0.9926061 -0.1213806 0
vn -0.1037133 0.9946072 0
vn -0.1037133 0.9946072 0
vn -0.1037133 0.9946072 0
vn -0.1037133 0.9946072 0
vn 0.1037134 -0.9946072 0
vn 0.1037134 -0.9946072 0
vn 0.1037134 -0.9946072 0
vn 0.1037134 -0.9946072 0
vn -0.1289833 0.9916468 0
vn -0.1289833 0.9916468 0
vn -0.1289833 0.9916468 0
vn -0.1289833 0.9916468 0
vn 0.9926061 0.1213803 0
vn 0.9926061 0.1213803 0
vn 0.9926061 0.1213803 0
vn 0.9926061 0.1213803 0
vn 0.1289835 -0.9916468 0
vn 0.1289835 -0.9916468 0
vn 0.1289835 -0.9916468 0
vn 0.1289835 -0.9916468 0
vn -0.9926059 -0.1213819 0
vn -0.9926059 -0.1213819 0
vn -0.9926059 -0.1213819 0
vn -0.9926059 -0.1213819 0
vn 0 0 1
vn 0 0 1
vn 0 0 1
vn 0 0 1
vn 0 0 -1
vn 0 0 -1
vn 0 0 -1
vn 0 0 -1
vn -0.1289836 0.9916468 0
vn -0.1289836 0.9916468 0
vn -0.1289836 0.9916468 0
vn -0.1289836 0.9916468 0
vn 0.9926061 0.1213801 0
vn 0.9926061 0.1213801 0
vn 0.9926061 0.1213801 0
vn 0.9926061 0.1213801 0
vn 0.1289835 -0.9916468 0
vn 0.1289835 -0.9916468 0
vn 0.1289835 -0.9916468 0
vn 0.1289835 -0.9916468 0
vn -0.9926059 -0.1213819 0
vn -0.9926059 -0.1213819 0
vn -0.9926059 -0.1213819 0
vn -0.9926059 -0.1213819 0
vn 0 0 1
vn 0 0 1
vn 0 0 1
vn 0 0 1
vn 0 0 -1
vn 0 0 -1
vn 0 0 -1
vn 0 0 -1

vt 0.9003906 0.3210449
vt 0.9003906 0.19104
vt 0.9135742 0.19104
vt 0.9135742 0.3210449
vt 0.6132813 0.2318115
vt 0.6132813 0.2263184
vt 0.5947266 0.2263184
vt 0.5947266 0.2318115
vt 0.9003906 0.19104
vt 0.9003906 0.3210449
vt 0.9135742 0.3210449
vt 0.9135742 0.19104
vt 0.6132813 0.2318115
vt 0.6132813 0.2263184
vt 0.5947266 0.2263184
vt 0.5947266 0.2318115
vt 0.9199219 0.3210449
vt 0.9199219 0.19104
vt 0.9135742 0.19104
vt 0.9135742 0.3210449
vt 0.9199219 0.3210449
vt 0.9199219 0.19104
vt 0.9135742 0.19104
vt 0.9135742 0.3210449
vt 0.9204102 0.3210449
vt 0.9204102 0.192749
vt 0.9345703 0.192749
vt 0.9345703 0.3210449
vt 0.6132813 0.2376709
vt 0.6132813 0.2320557
vt 0.5947266 0.2320557
vt 0.5947266 0.2376709
vt 0.9204102 0.192749
vt 0.9204102 0.3210449
vt 0.9345703 0.3210449
vt 0.9345703 0.192749
vt 0.6132813 0.2376709
vt 0.6132813 0.2320557
vt 0.5947266 0.2320557
vt 0.5947266 0.2376709
vt 0.9404297 0.3210449
vt 0.9404297 0.192749
vt 0.9345703 0.192749
vt 0.9345703 0.3210449
vt 0.9404297 0.3210449
vt 0.9404297 0.192749
vt 0.9345703 0.192749
vt 0.9345703 0.3210449
vt 0.6279297 0.2141113
vt 0.6879883 0.2141113
vt 0.6879883 0.2314453
vt 0.6279297 0.2314453
vt 0.6879883 0.2141113
vt 0.6279297 0.2141113
vt 0.6279297 0.2314453
vt 0.6879883 0.2314453
vt 0.6132813 0.2318115
vt 0.6132813 0.2263184
vt 0.5947266 0.2263184
vt 0.5947266 0.2318115
vt 0.6279297 0.2370605
vt 0.6879883 0.2370605
vt 0.6879883 0.2314453
vt 0.6279297 0.2314453
vt 0.6279297 0.2370605
vt 0.6879883 0.2370605
vt 0.6879883 0.2314453
vt 0.6279297 0.2314453
vt 0.6279297 0.2375488
vt 0.6879883 0.2375488
vt 0.6879883 0.253418
vt 0.6279297 0.253418
vt 0.6879883 0.2375488
vt 0.6279297 0.2375488
vt 0.6279297 0.253418
vt 0.6879883 0.253418
vt 0.6132813 0.2318115
vt 0.6132813 0.2263184
vt 0.5947266 0.2263184
vt 0.5947266 0.2318115
vt 0.6279297 0.2370605
vt 0.6879883 0.2370605
vt 0.6879883 0.2314453
vt 0.6279297 0.2314453
vt 0.6279297 0.2370605
vt 0.6879883 0.2370605
vt 0.6879883 0.2314453
vt 0.6279297 0.2314453
vt 0.9204102 0.2548828
vt 0.9204102 0.1893311
vt 0.9345703 0.1893311
vt 0.9345703 0.2548828
vt 0.6132813 0.2318115
vt 0.6132813 0.2263184
vt 0.5947266 0.2263184
vt 0.5947266 0.2318115
vt 0.9204102 0.1893311
vt 0.9204102 0.2548828
vt 0.9345703 0.2548828
vt 0.9345703 0.1893311
vt 0.6132813 0.2318115
vt 0.6132813 0.2263184
vt 0.5947266 0.2263184
vt 0.5947266 0.2318115
vt 0.9404297 0.2548828
vt 0.9404297 0.1893311
vt 0.9345703 0.1893311
vt 0.9345703 0.2548828
vt 0.9404297 0.2548828
vt 0.9404297 0.1893311
vt 0.9345703 0.1893311
vt 0.9345703 0.2548828
vt 0.9204102 0.2548828
vt 0.9204102 0.1893311
vt 0.9345703 0.1893311
vt 0.9345703 0.2548828
vt 0.6132813 0.2318115
vt 0.6132813 0.2263184
vt 0.5947266 0.2263184
vt 0.5947266 0.2318115
vt 0.9204102 0.1893311
vt 0.9204102 0.2548828
vt 0.9345703 0.2548828
vt 0.9345703 0.1893311
vt 0.6132813 0.2318115
vt 0.6132813 0.2263184
vt 0.5947266 0.2263184
vt 0.5947266 0.2318115
vt 0.9404297 0.2548828
vt 0.9404297 0.1893311
vt 0.9345703 0.1893311
vt 0.9345703 0.2548828
vt 0.9404297 0.2548828
vt 0.9404297 0.1893311
vt 0.9345703 0.1893311
vt 0.9345703 0.2548828
vt 0.8452148 0.192627
vt 0.8452148 0.3374023
vt 0.8574219 0.3374023
vt 0.8574219 0.192627
vt 0.6132813 0.2384033
vt 0.6132813 0.2197266
vt 0.5947266 0.2197266
vt 0.5947266 0.2384033
vt 0.8574219 0.3374023
vt 0.8574219 0.192627
vt 0.8452148 0.192627
vt 0.8452148 0.3374023
vt 0.6132813 0.2384033
vt 0.6132813 0.2197266
vt 0.5947266 0.2197266
vt 0.5947266 0.2384033
vt 0.8452148 0.192627
vt 0.8452148 0.3374023
vt 0.8574219 0.3374023
vt 0.8574219 0.192627
vt 0.8452148 0.192627
vt 0.8452148 0.3374023
vt 0.8574219 0.3374023
vt 0.8574219 0.192627
vt 0.8452148 0.192627
vt 0.8452148 0.3374023
vt 0.8574219 0.3374023
vt 0.8574219 0.192627
vt 0.6132813 0.2384033
vt 0.6132813 0.2197266
vt 0.5947266 0.2197266
vt 0.5947266 0.2384033
vt 0.8574219 0.3374023
vt 0.8574219 0.192627
vt 0.8452148 0.192627
vt 0.8452148 0.3374023
vt 0.6132813 0.2384033
vt 0.6132813 0.2197266
vt 0.5947266 0.2197266
vt 0.5947266 0.2384033
vt 0.8452148 0.192627
vt 0.8452148 0.3374023
vt 0.8574219 0.3374023
vt 0.8574219 0.192627
vt 0.8452148 0.192627
vt 0.8452148 0.3374023
vt 0.8574219 0.3374023
vt 0.8574219 0.192627

g BridgeWood_el1_2844_152
usemtl BridgeWood_el1_2844_152
usemap BridgeWood_el1_2844_152
f 1/1/1 3/3/3 2/2/2
f 1/1/1 4/4/4 3/3/3
f 5/5/5 7/7/7 6/6/6
f 5/5/5 8/8/8 7/7/7
f 9/9/9 11/11/11 10/10/10
f 9/9/9 12/12/12 11/11/11
f 13/13/13 15/15/15 14/14/14
f 13/13/13 16/16/16 15/15/15
f 17/17/17 19/19/19 18/18/18
f 17/17/17 20/20/20 19/19/19
f 21/21/21 23/23/23 22/22/22
f 21/21/21 24/24/24 23/23/23
f 25/25/25 27/27/27 26/26/26
f 25/25/25 28/28/28 27/27/27
f 29/29/29 31/31/31 30/30/30
f 29/29/29 32/32/32 31/31/31
f 33/33/33 35/35/35 34/34/34
f 33/33/33 36/36/36 35/35/35
f 37/37/37 39/39/39 38/38/38
f 37/37/37 40/40/40 39/39/39
f 41/41/41 43/43/43 42/42/42
f 41/41/41 44/44/44 43/43/43
f 45/45/45 47/47/47 46/46/46
f 45/45/45 48/48/48 47/47/47
f 49/49/49 51/51/51 50/50/50
f 49/49/49 52/52/52 51/51/51
f 53/53/53 55/55/55 54/54/54
f 53/53/53 56/56/56 55/55/55
f 57/57/57 59/59/59 58/58/58
f 57/57/57 60/60/60 59/59/59
f 61/61/61 63/63/63 62/62/62
f 61/61/61 64/64/64 63/63/63
f 65/65/65 67/67/67 66/66/66
f 65/65/65 68/68/68 67/67/67
f 69/69/69 71/71/71 70/70/70
f 69/69/69 72/72/72 71/71/71
f 73/73/73 75/75/75 74/74/74
f 73/73/73 76/76/76 75/75/75
f 77/77/77 79/79/79 78/78/78
f 77/77/77 80/80/80 79/79/79
f 81/81/81 83/83/83 82/82/82
f 81/81/81 84/84/84 83/83/83
f 85/85/85 87/87/87 86/86/86
f 85/85/85 88/88/88 87/87/87
f 89/89/89 91/91/91 90/90/90
f 89/89/89 92/92/92 91/91/91
f 93/93/93 95/95/95 94/94/94
f 93/93/93 96/96/96 95/95/95
f 97/97/97 99/99/99 98/98/98
f 97/97/97 100/100/100 99/99/99
f 101/101/101 103/103/103 102/102/102
f 101/101/101 104/104/104 103/103/103
f 105/105/105 107/107/107 106/106/106
f 105/105/105 108/108/108 107/107/107
f 109/109/109 111/111/111 110/110/110
f 109/109/109 112/112/112 111/111/111
f 113/113/113 115/115/115 114/114/114
f 113/113/113 116/116/116 115/115/115
f 117/117/117 119/119/119 118/118/118
f 117/117/117 120/120/120 119/119/119
f 121/121/121 123/123/123 122/122/122
f 121/121/121 124/124/124 123/123/123
f 125/125/125 127/127/127 126/126/126
f 125/125/125 128/128/128 127/127/127
f 129/129/129 131/131/131 130/130/130
f 129/129/129 132/132/132 131/131/131
f 133/133/133 135/135/135 134/134/134
f 133/133/133 136/136/136 135/135/135
f 137/137/137 139/139/139 138/138/138
f 137/137/137 140/140/140 139/139/139
f 141/141/141 143/143/143 142/142/142
f 141/141/141 144/144/144 143/143/143
f 145/145/145 147/147/147 146/146/146
f 145/145/145 148/148/148 147/147/147
f 149/149/149 151/151/151 150/150/150
f 149/149/149 152/152/152 151/151/151
f 153/153/153 155/155/155 154/154/154
f 153/153/153 156/156/156 155/155/155
f 157/157/157 159/159/159 158/158/158
f 157/157/157 160/160/160 159/159/159
f 161/161/161 163/163/163 162/162/162
f 161/161/161 164/164/164 163/163/163
f 165/165/165 167/167/167 166/166/166
f 165/165/165 168/168/168 167/167/167
f 169/169/169 171/171/171 170/170/170
f 169/169/169 172/172/172 171/171/171
f 173/173/173 175/175/175 174/174/174
f 173/173/173 176/176/176 175/175/175
f 177/177/177 179/179/179 178/178/178
f 177/177/177 180/180/180 179/179/179
f 181/181/181 183/183/183 182/182/182
f 181/181/181 184/184/184 183/183/183
