#Bush1_(5)_2600_549.obj

v -9.110458E-07 0.4693606 -1.252417
v -0.8855894 0.4693606 -0.8855926
v -3.791973E-07 0.1624734 -1.739605
v -1.230085 0.1624734 -1.230085
v -1.252413 0.4693606 -8.895522E-07
v -1.739605 0.1624734 3.791973E-07
v -0.8855875 0.4693606 0.8855909
v -1.230085 0.1624734 1.230085
v -2.451953E-06 0.4693606 1.252418
v -1.421401E-06 0.1624734 1.739602
v 0.8855894 0.4693606 0.8855926
v 1.230085 0.1624734 1.230085
v 1.252417 0.4693606 -9.110458E-07
v 1.739604 0.1624734 -3.742196E-06
v 0.8855908 0.4693606 -0.8855927
v 1.230085 0.1624734 -1.230085
v 0.2315889 0.6580506 -0.559117
v -0.5591207 0.6580506 -0.2315956
v -5.163597E-06 0.7348388 -1.562401E-06
v -0.2315941 0.6580506 0.5591155
v 0.5591137 0.6580506 0.2315907
v 0.2121285 1.366649 -0.4781492
v 0.01382255 1.49381 0.03013217
v -0.492568 1.367287 -0.1732493
v -0.1878509 1.338086 0.5310735
v 0.516849 1.337448 0.2261718
v -0.8632019 1.037254 -0.8267754
v -0.01084227 1.036482 -1.195566
v 0.8524869 1.010962 -0.8539482
v -1.205297 1.012826 0.0363896
v -0.8367255 0.9775063 0.8882997
v 0.02660188 0.9519858 1.229914
v 0.8789615 0.9512136 0.8611235
v 1.221058 0.9756422 -0.002038136

vn 0.5133188 0.8129992 0.2748384
vn 0.5573118 0.8129988 -0.1686313
vn 0.7168333 0.5821044 0.383803
vn 0.7782673 0.5821046 -0.2354878
vn 0.2748384 0.8129992 -0.5133188
vn 0.383803 0.5821044 -0.7168333
vn -0.1686307 0.812999 -0.5573117
vn -0.2354878 0.5821046 -0.7782673
vn -0.5133188 0.8129992 -0.2748384
vn -0.7168333 0.5821044 -0.383803
vn -0.5573114 0.812999 0.1686316
vn -0.7782673 0.5821046 0.2354878
vn -0.2748384 0.8129992 0.5133188
vn -0.383803 0.5821044 0.7168333
vn 0.1686316 0.812999 0.5573114
vn 0.2354885 0.5821043 0.7782673
vn 0.137985 0.9766985 0.1643785
vn 0.1643793 0.9766983 -0.1379853
vn 0 1 0
vn -0.1379844 0.9766985 -0.1643787
vn -0.1643774 0.9766988 0.1379843
vn 0.1439684 0.9719064 0.1862015
vn -0.02565239 0.9996697 -0.001577159
vn 0.1628958 0.9718265 -0.1703474
vn -0.1945786 0.9622424 -0.1903384
vn -0.2135964 0.9623235 0.1682563
vn 0.6478926 0.7310046 -0.2141671
vn 0.6034689 0.7306142 0.3194186
vn 0.1957808 0.7176039 0.6683671
vn 0.303646 0.7185606 -0.6256756
vn -0.2334502 0.7002745 -0.6746235
vn -0.6493198 0.6868461 -0.3265368
vn -0.6946063 0.6864368 0.2152363
vn -0.3421793 0.6993 0.627609

vt 0.3945313 0.1100464
vt 0.3764648 0.1107788
vt 0.3984375 0.1220703
vt 0.3706055 0.1218872
vt 0.3635254 0.09796143
vt 0.3513184 0.1018677
vt 0.362793 0.07989502
vt 0.3515625 0.07397461
vt 0.3754883 0.06677246
vt 0.371582 0.05474854
vt 0.3935547 0.06604004
vt 0.3994141 0.05493164
vt 0.4067383 0.07885742
vt 0.4187012 0.07495117
vt 0.4074707 0.09692383
vt 0.4187012 0.1028442
vt 0.3935547 0.0960083
vt 0.3774414 0.09692383
vt 0.3850098 0.08837891
vt 0.3764648 0.08081055
vt 0.3925781 0.07989502
vt 0.380127 0.03518677
vt 0.3723145 0.02772522
vt 0.3647461 0.03561401
vt 0.364502 0.02026367
vt 0.3796387 0.01983643
vt 0.3635254 0.05151367
vt 0.3825684 0.05075073
vt 0.3959961 0.03649902
vt 0.3493652 0.03808594
vt 0.3483887 0.01893616
vt 0.3618164 0.004714966
vt 0.3811035 0.003932953
vt 0.3952637 0.01734924

g Bush1_(5)_2600_549
usemtl Bush1_(5)_2600_549
usemap Bush1_(5)_2600_549
f 1/1/1 3/3/3 2/2/2
f 2/2/2 3/3/3 4/4/4
f 2/2/2 4/4/4 5/5/5
f 5/5/5 4/4/4 6/6/6
f 5/5/5 6/6/6 7/7/7
f 7/7/7 6/6/6 8/8/8
f 7/7/7 8/8/8 9/9/9
f 9/9/9 8/8/8 10/10/10
f 9/9/9 10/10/10 11/11/11
f 11/11/11 10/10/10 12/12/12
f 11/11/11 12/12/12 13/13/13
f 13/13/13 12/12/12 14/14/14
f 13/13/13 14/14/14 15/15/15
f 15/15/15 14/14/14 16/16/16
f 15/15/15 16/16/16 1/1/1
f 1/1/1 16/16/16 3/3/3
f 15/15/15 1/1/1 17/17/17
f 1/1/1 2/2/2 17/17/17
f 17/17/17 2/2/2 18/18/18
f 2/2/2 5/5/5 18/18/18
f 5/5/5 7/7/7 18/18/18
f 17/17/17 18/18/18 19/19/19
f 18/18/18 20/20/20 19/19/19
f 18/18/18 7/7/7 20/20/20
f 7/7/7 9/9/9 20/20/20
f 9/9/9 11/11/11 20/20/20
f 20/20/20 21/21/21 19/19/19
f 21/21/21 17/17/17 19/19/19
f 20/20/20 11/11/11 21/21/21
f 11/11/11 13/13/13 21/21/21
f 13/13/13 15/15/15 21/21/21
f 21/21/21 15/15/15 17/17/17
f 22/22/22 24/24/24 23/23/23
f 24/24/24 25/25/25 23/23/23
f 25/25/25 26/26/26 23/23/23
f 26/26/26 22/22/22 23/23/23
f 22/22/22 27/27/27 24/24/24
f 28/28/28 27/27/27 22/22/22
f 29/29/29 28/28/28 22/22/22
f 26/26/26 29/29/29 22/22/22
f 27/27/27 30/30/30 24/24/24
f 30/30/30 31/31/31 24/24/24
f 24/24/24 31/31/31 25/25/25
f 31/31/31 32/32/32 25/25/25
f 32/32/32 33/33/33 25/25/25
f 25/25/25 33/33/33 26/26/26
f 33/33/33 34/34/34 26/26/26
f 34/34/34 29/29/29 26/26/26
