#Bush2_(47)_3203_421.obj

v 0.9002214 0.4237272 -0.8707181
v 0.02087024 0.4237272 -1.252242
v 1.250406 0.005199522 -1.209423
v 0.02898367 0.005199522 -1.739366
v -0.8707115 0.4237272 -0.9002253
v -1.209419 0.005199522 -1.250413
v -1.25224 0.4237272 -0.02086697
v -1.739363 0.005199522 -0.02898564
v -0.9002286 0.4237272 0.8707135
v -1.25041 0.005199522 1.209417
v -0.02087091 0.4237272 1.252234
v -0.0289876 0.005199522 1.73936
v 0.8707148 0.4237272 0.9002234
v 1.209418 0.005199522 1.250405
v 1.252236 0.4237272 0.02086044
v 1.739359 0.005199522 0.0289791
v 0.5628945 0.6810594 -0.2222505
v -0.222246 0.6810594 -0.5629017
v -5.90168E-06 0.7857819 -9.804969E-06
v -0.5628985 0.6810594 0.222244
v 0.2222453 0.6810594 0.5628932

vn 0.6808233 0.7153803 -0.1571963
vn 0.3702605 0.7153797 -0.5925698
vn 0.8627245 0.4647875 -0.1991957
vn 0.4691857 0.4647877 -0.750891
vn -0.1571963 0.7153803 -0.6808233
vn -0.1991957 0.4647875 -0.8627245
vn -0.5925693 0.7153801 -0.3702609
vn -0.7508909 0.4647878 -0.4691857
vn -0.6808233 0.7153803 0.1571963
vn -0.8627245 0.4647875 0.1991957
vn -0.3702599 0.71538 0.5925699
vn -0.4691857 0.4647877 0.750891
vn 0.1571971 0.7153803 0.6808232
vn 0.1991966 0.4647875 0.8627244
vn 0.5925698 0.71538 0.3702599
vn 0.7508914 0.4647874 0.4691852
vn 0.2836641 0.9579125 0.04402615
vn 0.0440267 0.9579122 -0.2836652
vn 0 1 0
vn -0.2836637 0.9579126 -0.04402696
vn -0.04402576 0.957913 0.2836626

vt 0.3945313 0.1100464
vt 0.3764648 0.1107788
vt 0.3984375 0.1220703
vt 0.3706055 0.1218872
vt 0.3635254 0.09796143
vt 0.3513184 0.1018677
vt 0.362793 0.07989502
vt 0.3515625 0.07397461
vt 0.3754883 0.06677246
vt 0.371582 0.05474854
vt 0.3935547 0.06604004
vt 0.3994141 0.05493164
vt 0.4067383 0.07885742
vt 0.4187012 0.07495117
vt 0.4074707 0.09692383
vt 0.4187012 0.1028442
vt 0.3935547 0.0960083
vt 0.3774414 0.09692383
vt 0.3850098 0.08837891
vt 0.3764648 0.08081055
vt 0.3925781 0.07989502

g Bush2_(47)_3203_421
usemtl Bush2_(47)_3203_421
usemap Bush2_(47)_3203_421
f 1/1/1 3/3/3 2/2/2
f 2/2/2 3/3/3 4/4/4
f 2/2/2 4/4/4 5/5/5
f 5/5/5 4/4/4 6/6/6
f 5/5/5 6/6/6 7/7/7
f 7/7/7 6/6/6 8/8/8
f 7/7/7 8/8/8 9/9/9
f 9/9/9 8/8/8 10/10/10
f 9/9/9 10/10/10 11/11/11
f 11/11/11 10/10/10 12/12/12
f 11/11/11 12/12/12 13/13/13
f 13/13/13 12/12/12 14/14/14
f 13/13/13 14/14/14 15/15/15
f 15/15/15 14/14/14 16/16/16
f 15/15/15 16/16/16 1/1/1
f 1/1/1 16/16/16 3/3/3
f 15/15/15 1/1/1 17/17/17
f 1/1/1 2/2/2 17/17/17
f 17/17/17 2/2/2 18/18/18
f 2/2/2 5/5/5 18/18/18
f 5/5/5 7/7/7 18/18/18
f 17/17/17 18/18/18 19/19/19
f 18/18/18 20/20/20 19/19/19
f 18/18/18 7/7/7 20/20/20
f 7/7/7 9/9/9 20/20/20
f 9/9/9 11/11/11 20/20/20
f 20/20/20 21/21/21 19/19/19
f 21/21/21 17/17/17 19/19/19
f 20/20/20 11/11/11 21/21/21
f 11/11/11 13/13/13 21/21/21
f 13/13/13 15/15/15 21/21/21
f 21/21/21 15/15/15 17/17/17
