#Bush2_(81)_3036_468.obj

v 0.9002277 0.4237272 -0.8707139
v 0.02087701 0.4237272 -1.252241
v 1.250413 0.005199522 -1.209422
v 0.02899255 0.005199522 -1.739363
v -0.8707094 0.4237272 -0.9002247
v -1.209414 0.005199522 -1.250414
v -1.252236 0.4237272 -0.02086646
v -1.739361 0.005199522 -0.02898505
v -0.9002195 0.4237272 0.8707162
v -1.250406 0.005199522 1.20942
v -0.02086131 0.4237272 1.252242
v -0.02898505 0.005199522 1.739361
v 0.8707176 0.4237272 0.900227
v 1.209428 0.005199522 1.250404
v 1.252244 0.4237272 0.0208688
v 1.739369 0.005199522 0.02898365
v 0.562896 0.6810594 -0.2222515
v -0.2222447 0.6810594 -0.5629011
v 3.048486E-06 0.7857819 -4.450906E-06
v -0.5628973 0.6810594 0.222244
v 0.2222515 0.6810594 0.562896

vn -0.3851806 0.7153803 -0.5829811
vn -0.6845943 0.7153797 -0.1398662
vn -0.4880925 0.4647875 -0.738741
vn -0.8675022 0.4647877 -0.1772352
vn -0.5829811 0.7153803 0.3851806
vn -0.738741 0.4647875 0.4880925
vn -0.1398667 0.7153801 0.6845939
vn -0.1772353 0.4647878 0.8675022
vn 0.3851806 0.7153803 0.5829811
vn 0.4880925 0.4647875 0.738741
vn 0.6845941 0.71538 0.1398656
vn 0.8675022 0.4647877 0.1772352
vn 0.5829807 0.7153803 -0.3851813
vn 0.7387406 0.4647875 -0.4880933
vn 0.1398656 0.71538 -0.6845941
vn 0.1772346 0.4647874 -0.8675025
vn -0.05786678 0.9579125 -0.2811674
vn -0.2811686 0.9579122 0.05786664
vn 0 1 0
vn 0.05786587 0.9579126 0.2811672
vn 0.2811658 0.957913 -0.0578666

vt 0.3945313 0.1100464
vt 0.3764648 0.1107788
vt 0.3984375 0.1220703
vt 0.3706055 0.1218872
vt 0.3635254 0.09796143
vt 0.3513184 0.1018677
vt 0.362793 0.07989502
vt 0.3515625 0.07397461
vt 0.3754883 0.06677246
vt 0.371582 0.05474854
vt 0.3935547 0.06604004
vt 0.3994141 0.05493164
vt 0.4067383 0.07885742
vt 0.4187012 0.07495117
vt 0.4074707 0.09692383
vt 0.4187012 0.1028442
vt 0.3935547 0.0960083
vt 0.3774414 0.09692383
vt 0.3850098 0.08837891
vt 0.3764648 0.08081055
vt 0.3925781 0.07989502

g Bush2_(81)_3036_468
usemtl Bush2_(81)_3036_468
usemap Bush2_(81)_3036_468
f 1/1/1 3/3/3 2/2/2
f 2/2/2 3/3/3 4/4/4
f 2/2/2 4/4/4 5/5/5
f 5/5/5 4/4/4 6/6/6
f 5/5/5 6/6/6 7/7/7
f 7/7/7 6/6/6 8/8/8
f 7/7/7 8/8/8 9/9/9
f 9/9/9 8/8/8 10/10/10
f 9/9/9 10/10/10 11/11/11
f 11/11/11 10/10/10 12/12/12
f 11/11/11 12/12/12 13/13/13
f 13/13/13 12/12/12 14/14/14
f 13/13/13 14/14/14 15/15/15
f 15/15/15 14/14/14 16/16/16
f 15/15/15 16/16/16 1/1/1
f 1/1/1 16/16/16 3/3/3
f 15/15/15 1/1/1 17/17/17
f 1/1/1 2/2/2 17/17/17
f 17/17/17 2/2/2 18/18/18
f 2/2/2 5/5/5 18/18/18
f 5/5/5 7/7/7 18/18/18
f 17/17/17 18/18/18 19/19/19
f 18/18/18 20/20/20 19/19/19
f 18/18/18 7/7/7 20/20/20
f 7/7/7 9/9/9 20/20/20
f 9/9/9 11/11/11 20/20/20
f 20/20/20 21/21/21 19/19/19
f 21/21/21 17/17/17 19/19/19
f 20/20/20 11/11/11 21/21/21
f 11/11/11 13/13/13 21/21/21
f 13/13/13 15/15/15 21/21/21
f 21/21/21 15/15/15 17/17/17
