#Bush1_(129)_2608_562.obj

v -3.199525E-06 0.4693606 -1.252416
v -0.8855904 0.4693606 -0.8855902
v -1.877367E-06 0.1624734 -1.7396
v -1.230085 0.1624734 -1.230086
v -1.252414 0.4693606 3.080031E-08
v -1.739606 0.1624734 -2.370504E-06
v -0.8855902 0.4693606 0.8855904
v -1.230086 0.1624734 1.230085
v -4.21707E-06 0.4693606 1.25242
v -2.370504E-06 0.1624734 1.739606
v 0.8855862 0.4693606 0.8855965
v 1.230081 0.1624734 1.230092
v 1.252414 0.4693606 -3.080031E-08
v 1.739603 0.1624734 2.465686E-07
v 0.8855902 0.4693606 -0.8855904
v 1.230082 0.1624734 -1.230079
v 0.2315889 0.6580506 -0.5591162
v -0.5591225 0.6580506 -0.2315932
v -5.29266E-06 0.7348388 1.044789E-06
v -0.2315964 0.6580506 0.5591204
v 0.559112 0.6580506 0.2315953
v 0.2121267 1.366649 -0.4781466
v 0.01381745 1.49381 0.03013384
v -0.4925681 1.367287 -0.1732427
v -0.1878485 1.338086 0.531076
v 0.5168464 1.337448 0.2261721
v -0.8632049 1.037254 -0.8267745
v -0.01084487 1.036482 -1.195565
v 0.8524864 1.010962 -0.8539476
v -1.2053 1.012826 0.03639265
v -0.8367254 0.9775063 0.8883004
v 0.02659851 0.9519858 1.229922
v 0.8789628 0.9512136 0.8611252
v 1.221053 0.9756422 -0.002035688

vn -0.4836653 0.8129992 0.3241915
vn -0.1127651 0.8129988 0.5712416
vn -0.6754231 0.5821044 0.4527231
vn -0.1574727 0.5821046 0.7977197
vn 0.3241915 0.8129992 0.4836653
vn 0.4527231 0.5821044 0.6754231
vn 0.5712412 0.812999 0.1127655
vn 0.7977197 0.5821046 0.1574727
vn 0.4836653 0.8129992 -0.3241915
vn 0.6754231 0.5821044 -0.4527231
vn 0.1127646 0.812999 -0.5712414
vn 0.1574727 0.5821046 -0.7977197
vn -0.3241915 0.8129992 -0.4836653
vn -0.4527231 0.5821044 -0.6754231
vn -0.5712414 0.812999 -0.1127646
vn -0.79772 0.5821043 -0.1574721
vn -0.2099188 0.9766985 0.04465678
vn 0.04465669 0.9766983 0.2099197
vn 0 1 0
vn 0.2099187 0.9766985 -0.0446561
vn -0.04465662 0.9766988 -0.2099175
vn -0.2319963 0.9719064 0.03969394
vn 0.01343622 0.9996697 -0.02190892
vn 0.07392673 0.9718265 0.2238037
vn 0.2594102 0.9622424 -0.08243711
vn -0.0482767 0.9623235 -0.2675873
vn -0.1150872 0.7310046 0.6725974
vn -0.5653518 0.7306142 0.3828579
vn -0.6820428 0.7176039 -0.1409338
vn 0.4098702 0.7185606 0.5618516
vn 0.7052524 0.7002745 0.1106115
vn 0.5931635 0.6868461 -0.4199993
vn 0.136075 0.6864368 -0.7143445
vn -0.3934861 0.6993 -0.5967816

vt 0.3945313 0.1100464
vt 0.3764648 0.1107788
vt 0.3984375 0.1220703
vt 0.3706055 0.1218872
vt 0.3635254 0.09796143
vt 0.3513184 0.1018677
vt 0.362793 0.07989502
vt 0.3515625 0.07397461
vt 0.3754883 0.06677246
vt 0.371582 0.05474854
vt 0.3935547 0.06604004
vt 0.3994141 0.05493164
vt 0.4067383 0.07885742
vt 0.4187012 0.07495117
vt 0.4074707 0.09692383
vt 0.4187012 0.1028442
vt 0.3935547 0.0960083
vt 0.3774414 0.09692383
vt 0.3850098 0.08837891
vt 0.3764648 0.08081055
vt 0.3925781 0.07989502
vt 0.380127 0.03518677
vt 0.3723145 0.02772522
vt 0.3647461 0.03561401
vt 0.364502 0.02026367
vt 0.3796387 0.01983643
vt 0.3635254 0.05151367
vt 0.3825684 0.05075073
vt 0.3959961 0.03649902
vt 0.3493652 0.03808594
vt 0.3483887 0.01893616
vt 0.3618164 0.004714966
vt 0.3811035 0.003932953
vt 0.3952637 0.01734924

g Bush1_(129)_2608_562
usemtl Bush1_(129)_2608_562
usemap Bush1_(129)_2608_562
f 1/1/1 3/3/3 2/2/2
f 2/2/2 3/3/3 4/4/4
f 2/2/2 4/4/4 5/5/5
f 5/5/5 4/4/4 6/6/6
f 5/5/5 6/6/6 7/7/7
f 7/7/7 6/6/6 8/8/8
f 7/7/7 8/8/8 9/9/9
f 9/9/9 8/8/8 10/10/10
f 9/9/9 10/10/10 11/11/11
f 11/11/11 10/10/10 12/12/12
f 11/11/11 12/12/12 13/13/13
f 13/13/13 12/12/12 14/14/14
f 13/13/13 14/14/14 15/15/15
f 15/15/15 14/14/14 16/16/16
f 15/15/15 16/16/16 1/1/1
f 1/1/1 16/16/16 3/3/3
f 15/15/15 1/1/1 17/17/17
f 1/1/1 2/2/2 17/17/17
f 17/17/17 2/2/2 18/18/18
f 2/2/2 5/5/5 18/18/18
f 5/5/5 7/7/7 18/18/18
f 17/17/17 18/18/18 19/19/19
f 18/18/18 20/20/20 19/19/19
f 18/18/18 7/7/7 20/20/20
f 7/7/7 9/9/9 20/20/20
f 9/9/9 11/11/11 20/20/20
f 20/20/20 21/21/21 19/19/19
f 21/21/21 17/17/17 19/19/19
f 20/20/20 11/11/11 21/21/21
f 11/11/11 13/13/13 21/21/21
f 13/13/13 15/15/15 21/21/21
f 21/21/21 15/15/15 17/17/17
f 22/22/22 24/24/24 23/23/23
f 24/24/24 25/25/25 23/23/23
f 25/25/25 26/26/26 23/23/23
f 26/26/26 22/22/22 23/23/23
f 22/22/22 27/27/27 24/24/24
f 28/28/28 27/27/27 22/22/22
f 29/29/29 28/28/28 22/22/22
f 26/26/26 29/29/29 22/22/22
f 27/27/27 30/30/30 24/24/24
f 30/30/30 31/31/31 24/24/24
f 24/24/24 31/31/31 25/25/25
f 31/31/31 32/32/32 25/25/25
f 32/32/32 33/33/33 25/25/25
f 25/25/25 33/33/33 26/26/26
f 33/33/33 34/34/34 26/26/26
f 34/34/34 29/29/29 26/26/26
