#Bush1_(13)_2366_654.obj

v 1.015535E-07 0.4693606 -1.252418
v -0.8855866 0.4693606 -0.8855923
v -1.035232E-05 0.1624734 -1.739601
v -1.230082 0.1624734 -1.230086
v -1.252418 0.4693606 -1.015535E-07
v -1.739611 0.1624734 -9.358419E-07
v -0.8855878 0.4693606 0.8855894
v -1.230087 0.1624734 1.230086
v -7.53461E-06 0.4693606 1.25242
v 2.48934E-06 0.1624734 1.739601
v 0.8855936 0.4693606 0.8855888
v 1.230075 0.1624734 1.230088
v 1.252411 0.4693606 -3.702178E-08
v 1.739603 0.1624734 -2.919262E-06
v 0.8855799 0.4693606 -0.8855895
v 1.230079 0.1624734 -1.230085
v 0.2315832 0.6580506 -0.559117
v -0.5591182 0.6580506 -0.2315966
v -4.14645E-06 0.7348388 -9.984198E-07
v -0.2316064 0.6580506 0.5591184
v 0.5591094 0.6580506 0.2315928
v 0.2121175 1.366649 -0.4781446
v 0.01381177 1.49381 0.03013294
v -0.4925719 1.367287 -0.1732469
v -0.1878514 1.338086 0.5310744
v 0.5168376 1.337448 0.2261748
v -0.8632082 1.037254 -0.8267754
v -0.01084057 1.036482 -1.195566
v 0.8524774 1.010962 -0.8539469
v -1.205299 1.012826 0.03638943
v -0.8367227 0.9775063 0.8882976
v 0.02659526 0.9519858 1.229916
v 0.8789625 0.9512136 0.8611243
v 1.221054 0.9756422 -0.002038764

vn -0.1312443 0.8129992 0.5672805
vn 0.3083245 0.8129988 0.4939322
vn -0.1832784 0.5821044 0.7921892
vn 0.4305649 0.5821046 0.6897596
vn 0.5672805 0.8129992 0.1312443
vn 0.7921892 0.5821044 0.1832784
vn 0.4939321 0.812999 -0.3083239
vn 0.6897596 0.5821046 -0.4305649
vn 0.1312443 0.8129992 -0.5672805
vn 0.1832784 0.5821044 -0.7921892
vn -0.3083247 0.812999 -0.4939316
vn -0.4305649 0.5821046 -0.6897596
vn -0.5672805 0.8129992 -0.1312443
vn -0.7921892 0.5821044 -0.1832784
vn -0.4939316 0.812999 0.3083247
vn -0.6897595 0.5821043 0.4305654
vn -0.1226383 0.9766985 0.1761249
vn 0.1761254 0.9766983 0.1226391
vn 0 1 0
vn 0.1226387 0.9766985 -0.1761243
vn -0.1761239 0.9766988 -0.1226375
vn -0.1421414 0.9719064 0.1875999
vn -0.005176851 0.9996697 -0.02517405
vn 0.206977 0.9718265 0.1127555
vn 0.1329177 0.9622424 -0.2375341
vn -0.2181992 0.9623235 -0.1622428
vn 0.3759359 0.7310046 0.5694774
vn -0.1507342 0.7306142 0.6659445
vn -0.5940431 0.7176039 0.3635347
vn 0.6832615 0.7185606 0.1297095
vn 0.5902448 0.7002745 -0.4015307
vn 0.1456311 0.6868461 -0.7120632
vn -0.3891675 0.6864368 -0.6142908
vn -0.695191 0.6993 -0.1664006

vt 0.3945313 0.1100464
vt 0.3764648 0.1107788
vt 0.3984375 0.1220703
vt 0.3706055 0.1218872
vt 0.3635254 0.09796143
vt 0.3513184 0.1018677
vt 0.362793 0.07989502
vt 0.3515625 0.07397461
vt 0.3754883 0.06677246
vt 0.371582 0.05474854
vt 0.3935547 0.06604004
vt 0.3994141 0.05493164
vt 0.4067383 0.07885742
vt 0.4187012 0.07495117
vt 0.4074707 0.09692383
vt 0.4187012 0.1028442
vt 0.3935547 0.0960083
vt 0.3774414 0.09692383
vt 0.3850098 0.08837891
vt 0.3764648 0.08081055
vt 0.3925781 0.07989502
vt 0.380127 0.03518677
vt 0.3723145 0.02772522
vt 0.3647461 0.03561401
vt 0.364502 0.02026367
vt 0.3796387 0.01983643
vt 0.3635254 0.05151367
vt 0.3825684 0.05075073
vt 0.3959961 0.03649902
vt 0.3493652 0.03808594
vt 0.3483887 0.01893616
vt 0.3618164 0.004714966
vt 0.3811035 0.003932953
vt 0.3952637 0.01734924

g Bush1_(13)_2366_654
usemtl Bush1_(13)_2366_654
usemap Bush1_(13)_2366_654
f 1/1/1 3/3/3 2/2/2
f 2/2/2 3/3/3 4/4/4
f 2/2/2 4/4/4 5/5/5
f 5/5/5 4/4/4 6/6/6
f 5/5/5 6/6/6 7/7/7
f 7/7/7 6/6/6 8/8/8
f 7/7/7 8/8/8 9/9/9
f 9/9/9 8/8/8 10/10/10
f 9/9/9 10/10/10 11/11/11
f 11/11/11 10/10/10 12/12/12
f 11/11/11 12/12/12 13/13/13
f 13/13/13 12/12/12 14/14/14
f 13/13/13 14/14/14 15/15/15
f 15/15/15 14/14/14 16/16/16
f 15/15/15 16/16/16 1/1/1
f 1/1/1 16/16/16 3/3/3
f 15/15/15 1/1/1 17/17/17
f 1/1/1 2/2/2 17/17/17
f 17/17/17 2/2/2 18/18/18
f 2/2/2 5/5/5 18/18/18
f 5/5/5 7/7/7 18/18/18
f 17/17/17 18/18/18 19/19/19
f 18/18/18 20/20/20 19/19/19
f 18/18/18 7/7/7 20/20/20
f 7/7/7 9/9/9 20/20/20
f 9/9/9 11/11/11 20/20/20
f 20/20/20 21/21/21 19/19/19
f 21/21/21 17/17/17 19/19/19
f 20/20/20 11/11/11 21/21/21
f 11/11/11 13/13/13 21/21/21
f 13/13/13 15/15/15 21/21/21
f 21/21/21 15/15/15 17/17/17
f 22/22/22 24/24/24 23/23/23
f 24/24/24 25/25/25 23/23/23
f 25/25/25 26/26/26 23/23/23
f 26/26/26 22/22/22 23/23/23
f 22/22/22 27/27/27 24/24/24
f 28/28/28 27/27/27 22/22/22
f 29/29/29 28/28/28 22/22/22
f 26/26/26 29/29/29 22/22/22
f 27/27/27 30/30/30 24/24/24
f 30/30/30 31/31/31 24/24/24
f 24/24/24 31/31/31 25/25/25
f 31/31/31 32/32/32 25/25/25
f 32/32/32 33/33/33 25/25/25
f 25/25/25 33/33/33 26/26/26
f 33/33/33 34/34/34 26/26/26
f 34/34/34 29/29/29 26/26/26
