#Bush2_(64)_2865_725.obj

v 0.900225 0.4237272 -0.8707171
v 0.02087166 0.4237272 -1.252246
v 1.25041 0.005199522 -1.209421
v 0.02898842 0.005199522 -1.739368
v -0.8707092 0.4237272 -0.9002303
v -1.209417 0.005199522 -1.250415
v -1.252237 0.4237272 -0.02087276
v -1.73936 0.005199522 -0.02898772
v -0.9002243 0.4237272 0.8707092
v -1.250408 0.005199522 1.209414
v -0.02086735 0.4237272 1.252239
v -0.02898592 0.005199522 1.739361
v 0.8707178 0.4237272 0.9002171
v 1.209422 0.005199522 1.250409
v 1.25224 0.4237272 0.02086555
v 1.739362 0.005199522 0.02898051
v 0.5628956 0.6810594 -0.2222506
v -0.2222439 0.6810594 -0.5629033
v -2.351029E-06 0.7857819 -4.855563E-06
v -0.5628985 0.6810594 0.2222416
v 0.2222489 0.6810594 0.5628889

vn 0.3149421 0.7153803 -0.6237327
vn -0.2183481 0.7153797 -0.6637439
vn 0.3990878 0.4647875 -0.7903805
vn -0.2766857 0.4647877 -0.841081
vn -0.6237327 0.7153803 -0.3149422
vn -0.7903805 0.4647875 -0.3990879
vn -0.6637437 0.7153801 0.2183474
vn -0.8410811 0.4647878 0.2766856
vn -0.3149421 0.7153803 0.6237327
vn -0.3990878 0.4647875 0.7903805
vn 0.2183485 0.71538 0.6637434
vn 0.2766857 0.4647877 0.841081
vn 0.6237331 0.7153803 0.3149415
vn 0.790381 0.4647875 0.3990871
vn 0.6637434 0.71538 -0.2183485
vn 0.841081 0.4647874 -0.2766863
vn 0.2153739 0.9579125 -0.1897834
vn -0.1897838 0.9579122 -0.215375
vn 0 1 0
vn -0.2153742 0.9579126 0.1897825
vn 0.1897824 0.957913 0.2153726

vt 0.3945313 0.1100464
vt 0.3764648 0.1107788
vt 0.3984375 0.1220703
vt 0.3706055 0.1218872
vt 0.3635254 0.09796143
vt 0.3513184 0.1018677
vt 0.362793 0.07989502
vt 0.3515625 0.07397461
vt 0.3754883 0.06677246
vt 0.371582 0.05474854
vt 0.3935547 0.06604004
vt 0.3994141 0.05493164
vt 0.4067383 0.07885742
vt 0.4187012 0.07495117
vt 0.4074707 0.09692383
vt 0.4187012 0.1028442
vt 0.3935547 0.0960083
vt 0.3774414 0.09692383
vt 0.3850098 0.08837891
vt 0.3764648 0.08081055
vt 0.3925781 0.07989502

g Bush2_(64)_2865_725
usemtl Bush2_(64)_2865_725
usemap Bush2_(64)_2865_725
f 1/1/1 3/3/3 2/2/2
f 2/2/2 3/3/3 4/4/4
f 2/2/2 4/4/4 5/5/5
f 5/5/5 4/4/4 6/6/6
f 5/5/5 6/6/6 7/7/7
f 7/7/7 6/6/6 8/8/8
f 7/7/7 8/8/8 9/9/9
f 9/9/9 8/8/8 10/10/10
f 9/9/9 10/10/10 11/11/11
f 11/11/11 10/10/10 12/12/12
f 11/11/11 12/12/12 13/13/13
f 13/13/13 12/12/12 14/14/14
f 13/13/13 14/14/14 15/15/15
f 15/15/15 14/14/14 16/16/16
f 15/15/15 16/16/16 1/1/1
f 1/1/1 16/16/16 3/3/3
f 15/15/15 1/1/1 17/17/17
f 1/1/1 2/2/2 17/17/17
f 17/17/17 2/2/2 18/18/18
f 2/2/2 5/5/5 18/18/18
f 5/5/5 7/7/7 18/18/18
f 17/17/17 18/18/18 19/19/19
f 18/18/18 20/20/20 19/19/19
f 18/18/18 7/7/7 20/20/20
f 7/7/7 9/9/9 20/20/20
f 9/9/9 11/11/11 20/20/20
f 20/20/20 21/21/21 19/19/19
f 21/21/21 17/17/17 19/19/19
f 20/20/20 11/11/11 21/21/21
f 11/11/11 13/13/13 21/21/21
f 13/13/13 15/15/15 21/21/21
f 21/21/21 15/15/15 17/17/17
