#Bush2_(89)_2615_555.obj

v 0.900226 0.4237272 -0.8707147
v 0.02087098 0.4237272 -1.25224
v 1.250409 0.005199522 -1.209419
v 0.02898581 0.005199522 -1.739361
v -0.8707123 0.4237272 -0.9002231
v -1.209419 0.005199522 -1.250414
v -1.25224 0.4237272 -0.02086561
v -1.739363 0.005199522 -0.02898338
v -0.900226 0.4237272 0.8707147
v -1.250409 0.005199522 1.209419
v -0.02086561 0.4237272 1.25224
v -0.02898581 0.005199522 1.739361
v 0.8707147 0.4237272 0.900226
v 1.209424 0.005199522 1.250409
v 1.25224 0.4237272 0.02086561
v 1.739363 0.005199522 0.02898338
v 0.5628971 0.6810594 -0.222249
v -0.2222461 0.6810594 -0.5628995
v -2.434808E-06 0.7857819 -2.936601E-06
v -0.5628995 0.6810594 0.2222461
v 0.2222466 0.6810594 0.5628941

vn -0.05339172 0.7153803 -0.6966924
vn -0.53039 0.7153797 -0.4548827
vn -0.06765682 0.4647875 -0.8828336
vn -0.6720981 0.4647877 -0.5764169
vn -0.6966925 0.7153803 0.0533917
vn -0.8828336 0.4647875 0.06765679
vn -0.4548829 0.7153801 0.5303894
vn -0.5764169 0.4647878 0.6720981
vn 0.05339172 0.7153803 0.6966924
vn 0.06765682 0.4647875 0.8828336
vn 0.5303901 0.71538 0.4548821
vn 0.6720981 0.4647877 0.5764169
vn 0.6966925 0.7153803 -0.05339247
vn 0.8828335 0.4647875 -0.06765777
vn 0.4548821 0.71538 -0.5303901
vn 0.5764166 0.4647874 -0.6720986
vn 0.08603936 0.9579125 -0.2738629
vn -0.2738639 0.9579122 -0.08604005
vn 0 1 0
vn -0.08604009 0.9579126 0.2738623
vn 0.2738614 0.957913 0.08603875

vt 0.3945313 0.1100464
vt 0.3764648 0.1107788
vt 0.3984375 0.1220703
vt 0.3706055 0.1218872
vt 0.3635254 0.09796143
vt 0.3513184 0.1018677
vt 0.362793 0.07989502
vt 0.3515625 0.07397461
vt 0.3754883 0.06677246
vt 0.371582 0.05474854
vt 0.3935547 0.06604004
vt 0.3994141 0.05493164
vt 0.4067383 0.07885742
vt 0.4187012 0.07495117
vt 0.4074707 0.09692383
vt 0.4187012 0.1028442
vt 0.3935547 0.0960083
vt 0.3774414 0.09692383
vt 0.3850098 0.08837891
vt 0.3764648 0.08081055
vt 0.3925781 0.07989502

g Bush2_(89)_2615_555
usemtl Bush2_(89)_2615_555
usemap Bush2_(89)_2615_555
f 1/1/1 3/3/3 2/2/2
f 2/2/2 3/3/3 4/4/4
f 2/2/2 4/4/4 5/5/5
f 5/5/5 4/4/4 6/6/6
f 5/5/5 6/6/6 7/7/7
f 7/7/7 6/6/6 8/8/8
f 7/7/7 8/8/8 9/9/9
f 9/9/9 8/8/8 10/10/10
f 9/9/9 10/10/10 11/11/11
f 11/11/11 10/10/10 12/12/12
f 11/11/11 12/12/12 13/13/13
f 13/13/13 12/12/12 14/14/14
f 13/13/13 14/14/14 15/15/15
f 15/15/15 14/14/14 16/16/16
f 15/15/15 16/16/16 1/1/1
f 1/1/1 16/16/16 3/3/3
f 15/15/15 1/1/1 17/17/17
f 1/1/1 2/2/2 17/17/17
f 17/17/17 2/2/2 18/18/18
f 2/2/2 5/5/5 18/18/18
f 5/5/5 7/7/7 18/18/18
f 17/17/17 18/18/18 19/19/19
f 18/18/18 20/20/20 19/19/19
f 18/18/18 7/7/7 20/20/20
f 7/7/7 9/9/9 20/20/20
f 9/9/9 11/11/11 20/20/20
f 20/20/20 21/21/21 19/19/19
f 21/21/21 17/17/17 19/19/19
f 20/20/20 11/11/11 21/21/21
f 11/11/11 13/13/13 21/21/21
f 13/13/13 15/15/15 21/21/21
f 21/21/21 15/15/15 17/17/17
