#Bush1_(1)_1108_364.obj

v 4.324136E-07 0.4693604 -1.252417
v -0.88559 0.4693604 -0.8855922
v -4.164548E-06 0.1624737 -1.739604
v -1.230086 0.1624737 -1.230087
v -1.252412 0.4693604 -1.25597E-06
v -1.739605 0.1624737 -1.822861E-06
v -0.8855861 0.4693604 0.8855908
v -1.230088 0.1624737 1.230085
v -6.225076E-07 0.4693604 1.252418
v -3.121652E-06 0.1624737 1.739602
v 0.8855904 0.4693604 0.8855904
v 1.230086 0.1624737 1.230086
v 1.25242 0.4693604 -9.614249E-07
v 1.739606 0.1624737 -2.849823E-06
v 0.8855939 0.4693604 -0.8855911
v 1.230088 0.1624737 -1.230085
v 0.231589 0.6580505 -0.5591182
v -0.5591192 0.6580505 -0.231596
v -7.381247E-06 0.7348385 -1.98802E-06
v -0.2315964 0.6580505 0.5591162
v 0.5591124 0.6580505 0.2315908
v 0.2121291 1.366648 -0.4781474
v 0.01381795 1.493811 0.03013048
v -0.4925629 1.367287 -0.1732486
v -0.1878516 1.338087 0.5310735
v 0.5168486 1.337448 0.2261724
v -0.8632035 1.037254 -0.8267766
v -0.01084003 1.036482 -1.195564
v 0.8524842 1.010962 -0.8539501
v -1.205299 1.012825 0.0363884
v -0.8367215 0.9775066 0.8882989
v 0.02660214 0.9519863 1.229916
v 0.8789665 0.9512138 0.861124
v 1.221061 0.9756413 -0.002039116

vn 0.1160616 0.8129992 0.5705804
vn 0.4855298 0.8129988 0.3213937
vn 0.1620763 0.5821044 0.7967973
vn 0.678026 0.5821046 0.4488155
vn 0.5705804 0.8129992 -0.1160616
vn 0.7967973 0.5821044 -0.1620763
vn 0.3213939 0.812999 -0.4855292
vn 0.4488155 0.5821046 -0.678026
vn -0.1160616 0.8129992 -0.5705804
vn -0.1620763 0.5821044 -0.7967973
vn -0.4855297 0.812999 -0.3213931
vn -0.678026 0.5821046 -0.4488155
vn -0.5705804 0.8129992 0.1160616
vn -0.7967973 0.5821044 0.1620763
vn -0.3213931 0.812999 0.4855297
vn -0.4488151 0.5821043 0.6780264
vn -0.03846904 0.9766985 0.2111404
vn 0.2111412 0.9766983 0.03846947
vn 0 1 0
vn 0.03846962 0.9766985 -0.2111401
vn -0.2111392 0.9766988 -0.03846871
vn -0.05144966 0.9719064 0.2296755
vn -0.01515902 0.9996697 -0.0207542
vn 0.2351071 0.9718265 0.01667177
vn 0.02233142 0.9622424 -0.2712764
vn -0.265858 0.9623235 -0.05703645
vn 0.5783988 0.7310046 0.3620597
vn 0.1392832 0.7306142 0.6684334
vn -0.3895567 0.7176039 0.577313
vn 0.6754612 0.7185606 -0.1655991
vn 0.3703297 0.7002745 -0.6103047
vn -0.1630687 0.6868461 -0.7082733
vn -0.6090378 0.6864368 -0.3973382
vn -0.7015441 0.6993 0.1371697

vt 0.3945313 0.1100464
vt 0.3764648 0.1107788
vt 0.3984375 0.1220703
vt 0.3706055 0.1218872
vt 0.3635254 0.09796143
vt 0.3513184 0.1018677
vt 0.362793 0.07989502
vt 0.3515625 0.07397461
vt 0.3754883 0.06677246
vt 0.371582 0.05474854
vt 0.3935547 0.06604004
vt 0.3994141 0.05493164
vt 0.4067383 0.07885742
vt 0.4187012 0.07495117
vt 0.4074707 0.09692383
vt 0.4187012 0.1028442
vt 0.3935547 0.0960083
vt 0.3774414 0.09692383
vt 0.3850098 0.08837891
vt 0.3764648 0.08081055
vt 0.3925781 0.07989502
vt 0.380127 0.03518677
vt 0.3723145 0.02772522
vt 0.3647461 0.03561401
vt 0.364502 0.02026367
vt 0.3796387 0.01983643
vt 0.3635254 0.05151367
vt 0.3825684 0.05075073
vt 0.3959961 0.03649902
vt 0.3493652 0.03808594
vt 0.3483887 0.01893616
vt 0.3618164 0.004714966
vt 0.3811035 0.003932953
vt 0.3952637 0.01734924

g Bush1_(1)_1108_364
usemtl Bush1_(1)_1108_364
usemap Bush1_(1)_1108_364
f 1/1/1 3/3/3 2/2/2
f 2/2/2 3/3/3 4/4/4
f 2/2/2 4/4/4 5/5/5
f 5/5/5 4/4/4 6/6/6
f 5/5/5 6/6/6 7/7/7
f 7/7/7 6/6/6 8/8/8
f 7/7/7 8/8/8 9/9/9
f 9/9/9 8/8/8 10/10/10
f 9/9/9 10/10/10 11/11/11
f 11/11/11 10/10/10 12/12/12
f 11/11/11 12/12/12 13/13/13
f 13/13/13 12/12/12 14/14/14
f 13/13/13 14/14/14 15/15/15
f 15/15/15 14/14/14 16/16/16
f 15/15/15 16/16/16 1/1/1
f 1/1/1 16/16/16 3/3/3
f 15/15/15 1/1/1 17/17/17
f 1/1/1 2/2/2 17/17/17
f 17/17/17 2/2/2 18/18/18
f 2/2/2 5/5/5 18/18/18
f 5/5/5 7/7/7 18/18/18
f 17/17/17 18/18/18 19/19/19
f 18/18/18 20/20/20 19/19/19
f 18/18/18 7/7/7 20/20/20
f 7/7/7 9/9/9 20/20/20
f 9/9/9 11/11/11 20/20/20
f 20/20/20 21/21/21 19/19/19
f 21/21/21 17/17/17 19/19/19
f 20/20/20 11/11/11 21/21/21
f 11/11/11 13/13/13 21/21/21
f 13/13/13 15/15/15 21/21/21
f 21/21/21 15/15/15 17/17/17
f 22/22/22 24/24/24 23/23/23
f 24/24/24 25/25/25 23/23/23
f 25/25/25 26/26/26 23/23/23
f 26/26/26 22/22/22 23/23/23
f 22/22/22 27/27/27 24/24/24
f 28/28/28 27/27/27 22/22/22
f 29/29/29 28/28/28 22/22/22
f 26/26/26 29/29/29 22/22/22
f 27/27/27 30/30/30 24/24/24
f 30/30/30 31/31/31 24/24/24
f 24/24/24 31/31/31 25/25/25
f 31/31/31 32/32/32 25/25/25
f 32/32/32 33/33/33 25/25/25
f 25/25/25 33/33/33 26/26/26
f 33/33/33 34/34/34 26/26/26
f 34/34/34 29/29/29 26/26/26
