#Bush2_(17)_2429_709.obj

v 0.9002266 0.4237272 -0.8707161
v 0.02087021 0.4237272 -1.252239
v 1.250408 0.005199522 -1.209419
v 0.02898788 0.005199522 -1.739361
v -0.8707123 0.4237272 -0.9002266
v -1.209419 0.005199522 -1.250412
v -1.252239 0.4237272 -0.02086639
v -1.739361 0.005199522 -0.02898407
v -0.9002266 0.4237272 0.8707161
v -1.250408 0.005199522 1.209419
v -0.02086639 0.4237272 1.252239
v -0.02898788 0.005199522 1.739361
v 0.8707161 0.4237272 0.9002228
v 1.209423 0.005199522 1.250408
v 1.252239 0.4237272 0.02086639
v 1.739361 0.005199522 0.02898407
v 0.5628967 0.6810594 -0.2222481
v -0.2222443 0.6810594 -0.5629005
v -3.814697E-06 0.7857819 -3.814697E-06
v -0.5629005 0.6810594 0.2222443
v 0.2222481 0.6810594 0.5628967

vn 0.5022442 0.7153803 -0.4857796
vn 0.01164225 0.7153797 -0.6986389
vn 0.6364329 0.4647875 -0.6155694
vn 0.01475278 0.4647877 -0.8852992
vn -0.4857796 0.7153803 -0.5022442
vn -0.6155694 0.4647875 -0.636433
vn -0.6986386 0.7153801 -0.01164285
vn -0.8852992 0.4647878 -0.01475283
vn -0.5022442 0.7153803 0.4857796
vn -0.6364329 0.4647875 0.6155694
vn -0.01164168 0.71538 0.6986386
vn -0.01475278 0.4647877 0.8852992
vn 0.4857802 0.7153803 0.5022437
vn 0.6155701 0.4647875 0.6364323
vn 0.6986386 0.71538 0.01164171
vn 0.8852994 0.4647874 0.01475216
vn 0.2657394 0.9579125 -0.1085643
vn -0.1085644 0.9579122 -0.2657406
vn 0 1 0
vn -0.2657394 0.9579126 0.1085634
vn 0.1085639 0.957913 0.2657379

vt 0.3945313 0.1100464
vt 0.3764648 0.1107788
vt 0.3984375 0.1220703
vt 0.3706055 0.1218872
vt 0.3635254 0.09796143
vt 0.3513184 0.1018677
vt 0.362793 0.07989502
vt 0.3515625 0.07397461
vt 0.3754883 0.06677246
vt 0.371582 0.05474854
vt 0.3935547 0.06604004
vt 0.3994141 0.05493164
vt 0.4067383 0.07885742
vt 0.4187012 0.07495117
vt 0.4074707 0.09692383
vt 0.4187012 0.1028442
vt 0.3935547 0.0960083
vt 0.3774414 0.09692383
vt 0.3850098 0.08837891
vt 0.3764648 0.08081055
vt 0.3925781 0.07989502

g Bush2_(17)_2429_709
usemtl Bush2_(17)_2429_709
usemap Bush2_(17)_2429_709
f 1/1/1 3/3/3 2/2/2
f 2/2/2 3/3/3 4/4/4
f 2/2/2 4/4/4 5/5/5
f 5/5/5 4/4/4 6/6/6
f 5/5/5 6/6/6 7/7/7
f 7/7/7 6/6/6 8/8/8
f 7/7/7 8/8/8 9/9/9
f 9/9/9 8/8/8 10/10/10
f 9/9/9 10/10/10 11/11/11
f 11/11/11 10/10/10 12/12/12
f 11/11/11 12/12/12 13/13/13
f 13/13/13 12/12/12 14/14/14
f 13/13/13 14/14/14 15/15/15
f 15/15/15 14/14/14 16/16/16
f 15/15/15 16/16/16 1/1/1
f 1/1/1 16/16/16 3/3/3
f 15/15/15 1/1/1 17/17/17
f 1/1/1 2/2/2 17/17/17
f 17/17/17 2/2/2 18/18/18
f 2/2/2 5/5/5 18/18/18
f 5/5/5 7/7/7 18/18/18
f 17/17/17 18/18/18 19/19/19
f 18/18/18 20/20/20 19/19/19
f 18/18/18 7/7/7 20/20/20
f 7/7/7 9/9/9 20/20/20
f 9/9/9 11/11/11 20/20/20
f 20/20/20 21/21/21 19/19/19
f 21/21/21 17/17/17 19/19/19
f 20/20/20 11/11/11 21/21/21
f 11/11/11 13/13/13 21/21/21
f 13/13/13 15/15/15 21/21/21
f 21/21/21 15/15/15 17/17/17
