#Bush2_(42)_2987_366.obj

v 0.9002221 0.4237272 -0.8707134
v 0.0208794 0.4237272 -1.252245
v 1.250407 0.005199522 -1.209418
v 0.02898283 0.005199522 -1.739362
v -0.8707142 0.4237272 -0.9002239
v -1.209422 0.005199522 -1.25041
v -1.252229 0.4237272 -0.02087201
v -1.739362 0.005199522 -0.02898457
v -0.9002298 0.4237272 0.8707148
v -1.250401 0.005199522 1.209413
v -0.02085858 0.4237272 1.252236
v -0.02897589 0.005199522 1.739358
v 0.8707211 0.4237272 0.9002207
v 1.209428 0.005199522 1.250407
v 1.25225 0.4237272 0.0208625
v 1.739369 0.005199522 0.0289814
v 0.5629033 0.6810594 -0.2222534
v -0.2222458 0.6810594 -0.5629005
v 1.095455E-06 0.7857819 -6.789234E-06
v -0.5628988 0.6810594 0.222245
v 0.2222512 0.6810594 0.5628939

vn 0.6585714 0.7153803 -0.2334841
vn 0.3005823 0.7153797 -0.630779
vn 0.8345274 0.4647875 -0.295866
vn 0.380891 0.4647877 -0.7993087
vn -0.2334841 0.7153803 -0.6585714
vn -0.295866 0.4647875 -0.8345274
vn -0.6307785 0.7153801 -0.3005827
vn -0.7993087 0.4647878 -0.3808911
vn -0.6585714 0.7153803 0.2334841
vn -0.8345274 0.4647875 0.295866
vn -0.3005816 0.71538 0.630779
vn -0.380891 0.4647877 0.7993087
vn 0.2334849 0.7153803 0.6585711
vn 0.2958669 0.4647875 0.8345271
vn 0.630779 0.71538 0.3005817
vn 0.7993091 0.4647874 0.3808905
vn 0.2868286 0.9579125 0.01153262
vn 0.01153304 0.9579122 -0.2868297
vn 0 1 0
vn -0.2868282 0.9579126 -0.01153346
vn -0.01153242 0.957913 0.286827

vt 0.3945313 0.1100464
vt 0.3764648 0.1107788
vt 0.3984375 0.1220703
vt 0.3706055 0.1218872
vt 0.3635254 0.09796143
vt 0.3513184 0.1018677
vt 0.362793 0.07989502
vt 0.3515625 0.07397461
vt 0.3754883 0.06677246
vt 0.371582 0.05474854
vt 0.3935547 0.06604004
vt 0.3994141 0.05493164
vt 0.4067383 0.07885742
vt 0.4187012 0.07495117
vt 0.4074707 0.09692383
vt 0.4187012 0.1028442
vt 0.3935547 0.0960083
vt 0.3774414 0.09692383
vt 0.3850098 0.08837891
vt 0.3764648 0.08081055
vt 0.3925781 0.07989502

g Bush2_(42)_2987_366
usemtl Bush2_(42)_2987_366
usemap Bush2_(42)_2987_366
f 1/1/1 3/3/3 2/2/2
f 2/2/2 3/3/3 4/4/4
f 2/2/2 4/4/4 5/5/5
f 5/5/5 4/4/4 6/6/6
f 5/5/5 6/6/6 7/7/7
f 7/7/7 6/6/6 8/8/8
f 7/7/7 8/8/8 9/9/9
f 9/9/9 8/8/8 10/10/10
f 9/9/9 10/10/10 11/11/11
f 11/11/11 10/10/10 12/12/12
f 11/11/11 12/12/12 13/13/13
f 13/13/13 12/12/12 14/14/14
f 13/13/13 14/14/14 15/15/15
f 15/15/15 14/14/14 16/16/16
f 15/15/15 16/16/16 1/1/1
f 1/1/1 16/16/16 3/3/3
f 15/15/15 1/1/1 17/17/17
f 1/1/1 2/2/2 17/17/17
f 17/17/17 2/2/2 18/18/18
f 2/2/2 5/5/5 18/18/18
f 5/5/5 7/7/7 18/18/18
f 17/17/17 18/18/18 19/19/19
f 18/18/18 20/20/20 19/19/19
f 18/18/18 7/7/7 20/20/20
f 7/7/7 9/9/9 20/20/20
f 9/9/9 11/11/11 20/20/20
f 20/20/20 21/21/21 19/19/19
f 21/21/21 17/17/17 19/19/19
f 20/20/20 11/11/11 21/21/21
f 11/11/11 13/13/13 21/21/21
f 13/13/13 15/15/15 21/21/21
f 21/21/21 15/15/15 17/17/17
