#Bush1_(2)_3086_544.obj

v -1.272056E-06 0.4693606 -1.252416
v -0.8855903 0.4693606 -0.8855921
v -2.843973E-06 0.1624734 -1.739605
v -1.230089 0.1624734 -1.230089
v -1.252421 0.4693606 -5.668325E-06
v -1.73961 0.1624734 -4.096408E-06
v -0.8855921 0.4693606 0.8855903
v -1.230087 0.1624734 1.230086
v -7.255589E-06 0.4693606 1.252416
v -3.899299E-06 0.1624734 1.739601
v 0.8855836 0.4693606 0.8855885
v 1.230083 0.1624734 1.230085
v 1.252416 0.4693606 -1.272056E-06
v 1.739598 0.1624734 -6.412718E-06
v 0.8855854 0.4693606 -0.8855939
v 1.23008 0.1624734 -1.23009
v 0.2315834 0.6580506 -0.5591222
v -0.5591202 0.6580506 -0.2315953
v -1.011491E-05 0.7348388 -5.353118E-06
v -0.2315969 0.6580506 0.5591151
v 0.5591134 0.6580506 0.2315918
v 0.2121236 1.366649 -0.4781509
v 0.01381345 1.49381 0.03012909
v -0.4925696 1.367287 -0.1732497
v -0.187856 1.338086 0.5310723
v 0.5168456 1.337448 0.2261712
v -0.8632063 1.037254 -0.8267793
v -0.01084749 1.036482 -1.195566
v 0.8524811 1.010962 -0.8539503
v -1.205301 1.012826 0.0363863
v -0.8367259 0.9775063 0.8882965
v 0.02660088 0.9519858 1.229916
v 0.8789633 0.9512136 0.8611222
v 1.221056 0.9756422 -0.002040087

vn 0.5146372 0.8129992 -0.2723616
vn 0.1713149 0.8129988 -0.5564927
vn 0.7186744 0.5821044 -0.3803443
vn 0.2392355 0.5821046 -0.7771234
vn -0.2723616 0.8129992 -0.5146372
vn -0.3803443 0.5821044 -0.7186744
vn -0.5564923 0.812999 -0.1713152
vn -0.7771234 0.5821046 -0.2392355
vn -0.5146372 0.8129992 0.2723616
vn -0.7186744 0.5821044 0.3803443
vn -0.1713143 0.812999 0.5564926
vn -0.2392355 0.5821046 0.7771234
vn 0.2723616 0.8129992 0.5146372
vn 0.3803443 0.5821044 0.7186744
vn 0.5564926 0.812999 0.1713143
vn 0.7771237 0.5821043 0.239235
vn 0.2134147 0.9766985 -0.02267812
vn -0.02267794 0.9766983 -0.2134156
vn 0 1 0
vn -0.2134145 0.9766985 0.02267746
vn 0.02267808 0.9766988 0.2134134
vn 0.2348596 0.9719064 -0.01545568
vn -0.0156328 0.9996697 0.02039971
vn -0.05035282 0.9718265 -0.2302561
vn -0.2665524 0.9622424 0.05513014
vn 0.02030661 0.9623235 0.271148
vn 0.1841206 0.7310046 -0.6570631
vn 0.6019598 0.7306142 -0.3222534
vn 0.6637811 0.7176039 0.2108064
vn -0.3494829 0.7185606 -0.6012757
vn -0.690006 0.7002745 -0.1830506
vn -0.6334682 0.6868461 0.356315
vn -0.2093188 0.6864368 0.6964123
vn 0.3295695 0.6993 0.6343213

vt 0.3945313 0.1100464
vt 0.3764648 0.1107788
vt 0.3984375 0.1220703
vt 0.3706055 0.1218872
vt 0.3635254 0.09796143
vt 0.3513184 0.1018677
vt 0.362793 0.07989502
vt 0.3515625 0.07397461
vt 0.3754883 0.06677246
vt 0.371582 0.05474854
vt 0.3935547 0.06604004
vt 0.3994141 0.05493164
vt 0.4067383 0.07885742
vt 0.4187012 0.07495117
vt 0.4074707 0.09692383
vt 0.4187012 0.1028442
vt 0.3935547 0.0960083
vt 0.3774414 0.09692383
vt 0.3850098 0.08837891
vt 0.3764648 0.08081055
vt 0.3925781 0.07989502
vt 0.380127 0.03518677
vt 0.3723145 0.02772522
vt 0.3647461 0.03561401
vt 0.364502 0.02026367
vt 0.3796387 0.01983643
vt 0.3635254 0.05151367
vt 0.3825684 0.05075073
vt 0.3959961 0.03649902
vt 0.3493652 0.03808594
vt 0.3483887 0.01893616
vt 0.3618164 0.004714966
vt 0.3811035 0.003932953
vt 0.3952637 0.01734924

g Bush1_(2)_3086_544
usemtl Bush1_(2)_3086_544
usemap Bush1_(2)_3086_544
f 1/1/1 3/3/3 2/2/2
f 2/2/2 3/3/3 4/4/4
f 2/2/2 4/4/4 5/5/5
f 5/5/5 4/4/4 6/6/6
f 5/5/5 6/6/6 7/7/7
f 7/7/7 6/6/6 8/8/8
f 7/7/7 8/8/8 9/9/9
f 9/9/9 8/8/8 10/10/10
f 9/9/9 10/10/10 11/11/11
f 11/11/11 10/10/10 12/12/12
f 11/11/11 12/12/12 13/13/13
f 13/13/13 12/12/12 14/14/14
f 13/13/13 14/14/14 15/15/15
f 15/15/15 14/14/14 16/16/16
f 15/15/15 16/16/16 1/1/1
f 1/1/1 16/16/16 3/3/3
f 15/15/15 1/1/1 17/17/17
f 1/1/1 2/2/2 17/17/17
f 17/17/17 2/2/2 18/18/18
f 2/2/2 5/5/5 18/18/18
f 5/5/5 7/7/7 18/18/18
f 17/17/17 18/18/18 19/19/19
f 18/18/18 20/20/20 19/19/19
f 18/18/18 7/7/7 20/20/20
f 7/7/7 9/9/9 20/20/20
f 9/9/9 11/11/11 20/20/20
f 20/20/20 21/21/21 19/19/19
f 21/21/21 17/17/17 19/19/19
f 20/20/20 11/11/11 21/21/21
f 11/11/11 13/13/13 21/21/21
f 13/13/13 15/15/15 21/21/21
f 21/21/21 15/15/15 17/17/17
f 22/22/22 24/24/24 23/23/23
f 24/24/24 25/25/25 23/23/23
f 25/25/25 26/26/26 23/23/23
f 26/26/26 22/22/22 23/23/23
f 22/22/22 27/27/27 24/24/24
f 28/28/28 27/27/27 22/22/22
f 29/29/29 28/28/28 22/22/22
f 26/26/26 29/29/29 22/22/22
f 27/27/27 30/30/30 24/24/24
f 30/30/30 31/31/31 24/24/24
f 24/24/24 31/31/31 25/25/25
f 31/31/31 32/32/32 25/25/25
f 32/32/32 33/33/33 25/25/25
f 25/25/25 33/33/33 26/26/26
f 33/33/33 34/34/34 26/26/26
f 34/34/34 29/29/29 26/26/26
