#Bush1_(107)_2412_649.obj

v -1.15097E-06 0.4693606 -1.252415
v -0.8855858 0.4693606 -0.8855861
v 1.059302E-06 0.1624734 -1.739598
v -1.230086 0.1624734 -1.230083
v -1.252415 0.4693606 1.15097E-06
v -1.739604 0.1624734 5.088116E-06
v -0.8855885 0.4693606 0.8855907
v -1.230082 0.1624734 1.230089
v 1.086647E-07 0.4693606 1.252424
v 1.493254E-06 0.1624734 1.739605
v 0.885592 0.4693606 0.885592
v 1.230088 0.1624734 1.230091
v 1.252418 0.4693606 6.038753E-06
v 1.739606 0.1624734 2.101607E-06
v 0.885592 0.4693606 -0.885592
v 1.230085 0.1624734 -1.230082
v 0.2315908 0.6580506 -0.5591175
v -0.5591175 0.6580506 -0.2315908
v -2.318583E-06 0.7348388 4.871139E-06
v -0.2315944 0.6580506 0.5591188
v 0.5591175 0.6580506 0.2315908
v 0.2121304 1.366649 -0.4781467
v 0.01382397 1.49381 0.03013543
v -0.4925646 1.367287 -0.1732475
v -0.1878451 1.338086 0.5310783
v 0.51685 1.337448 0.226179
v -0.8632002 1.037254 -0.8267745
v -0.01084418 1.036482 -1.195561
v 0.8524855 1.010962 -0.8539465
v -1.205295 1.012826 0.03638965
v -0.8367216 0.9775063 0.8883034
v 0.02660452 0.9519858 1.22992
v 0.8789678 0.9512136 0.8611301
v 1.221059 0.9756422 -0.002032768

vn -0.1948076 0.8129992 0.5487097
vn 0.2502468 0.8129988 0.5257466
vn -0.2720426 0.5821044 0.7662556
vn 0.3494613 0.5821046 0.7341875
vn 0.5487097 0.8129992 0.1948076
vn 0.7662556 0.5821044 0.2720426
vn 0.5257465 0.812999 -0.2502463
vn 0.7341875 0.5821046 -0.3494613
vn 0.1948076 0.8129992 -0.5487097
vn 0.2720426 0.5821044 -0.7662556
vn -0.2502471 0.812999 -0.5257461
vn -0.3494613 0.5821046 -0.7341875
vn -0.5487097 0.8129992 -0.1948076
vn -0.7662556 0.5821044 -0.2720426
vn -0.5257461 0.812999 0.2502471
vn -0.7341874 0.5821043 0.3494619
vn -0.1418434 0.9766985 0.1610608
vn 0.1610613 0.9766983 0.1418442
vn 0 1 0
vn 0.1418437 0.9766985 -0.1610602
vn -0.1610599 0.9766988 -0.1418425
vn -0.1625233 0.9719064 0.1702471
vn -0.002284974 0.9996697 -0.02559905
vn 0.1928355 0.9718265 0.1355276
vn 0.159029 0.9622424 -0.2209057
vn -0.1983662 0.9623235 -0.185969
vn 0.3088431 0.7310046 0.6084803
vn -0.2253743 0.7306142 0.6445225
vn -0.631479 0.7176039 0.2937328
vn 0.6641148 0.7185606 0.2064518
vn 0.6320195 0.7002745 -0.3319144
vn 0.2255408 0.6868461 -0.6909224
vn -0.3169008 0.6864368 -0.6545063
vn -0.671801 0.6993 -0.2442602

vt 0.3945313 0.1100464
vt 0.3764648 0.1107788
vt 0.3984375 0.1220703
vt 0.3706055 0.1218872
vt 0.3635254 0.09796143
vt 0.3513184 0.1018677
vt 0.362793 0.07989502
vt 0.3515625 0.07397461
vt 0.3754883 0.06677246
vt 0.371582 0.05474854
vt 0.3935547 0.06604004
vt 0.3994141 0.05493164
vt 0.4067383 0.07885742
vt 0.4187012 0.07495117
vt 0.4074707 0.09692383
vt 0.4187012 0.1028442
vt 0.3935547 0.0960083
vt 0.3774414 0.09692383
vt 0.3850098 0.08837891
vt 0.3764648 0.08081055
vt 0.3925781 0.07989502
vt 0.380127 0.03518677
vt 0.3723145 0.02772522
vt 0.3647461 0.03561401
vt 0.364502 0.02026367
vt 0.3796387 0.01983643
vt 0.3635254 0.05151367
vt 0.3825684 0.05075073
vt 0.3959961 0.03649902
vt 0.3493652 0.03808594
vt 0.3483887 0.01893616
vt 0.3618164 0.004714966
vt 0.3811035 0.003932953
vt 0.3952637 0.01734924

g Bush1_(107)_2412_649
usemtl Bush1_(107)_2412_649
usemap Bush1_(107)_2412_649
f 1/1/1 3/3/3 2/2/2
f 2/2/2 3/3/3 4/4/4
f 2/2/2 4/4/4 5/5/5
f 5/5/5 4/4/4 6/6/6
f 5/5/5 6/6/6 7/7/7
f 7/7/7 6/6/6 8/8/8
f 7/7/7 8/8/8 9/9/9
f 9/9/9 8/8/8 10/10/10
f 9/9/9 10/10/10 11/11/11
f 11/11/11 10/10/10 12/12/12
f 11/11/11 12/12/12 13/13/13
f 13/13/13 12/12/12 14/14/14
f 13/13/13 14/14/14 15/15/15
f 15/15/15 14/14/14 16/16/16
f 15/15/15 16/16/16 1/1/1
f 1/1/1 16/16/16 3/3/3
f 15/15/15 1/1/1 17/17/17
f 1/1/1 2/2/2 17/17/17
f 17/17/17 2/2/2 18/18/18
f 2/2/2 5/5/5 18/18/18
f 5/5/5 7/7/7 18/18/18
f 17/17/17 18/18/18 19/19/19
f 18/18/18 20/20/20 19/19/19
f 18/18/18 7/7/7 20/20/20
f 7/7/7 9/9/9 20/20/20
f 9/9/9 11/11/11 20/20/20
f 20/20/20 21/21/21 19/19/19
f 21/21/21 17/17/17 19/19/19
f 20/20/20 11/11/11 21/21/21
f 11/11/11 13/13/13 21/21/21
f 13/13/13 15/15/15 21/21/21
f 21/21/21 15/15/15 17/17/17
f 22/22/22 24/24/24 23/23/23
f 24/24/24 25/25/25 23/23/23
f 25/25/25 26/26/26 23/23/23
f 26/26/26 22/22/22 23/23/23
f 22/22/22 27/27/27 24/24/24
f 28/28/28 27/27/27 22/22/22
f 29/29/29 28/28/28 22/22/22
f 26/26/26 29/29/29 22/22/22
f 27/27/27 30/30/30 24/24/24
f 30/30/30 31/31/31 24/24/24
f 24/24/24 31/31/31 25/25/25
f 31/31/31 32/32/32 25/25/25
f 32/32/32 33/33/33 25/25/25
f 25/25/25 33/33/33 26/26/26
f 33/33/33 34/34/34 26/26/26
f 34/34/34 29/29/29 26/26/26
