#Bush2_(23)_3014_503.obj

v 0.9002244 0.4237272 -0.8707213
v 0.02086401 0.4237272 -1.252241
v 1.250416 0.005199522 -1.209429
v 0.02898603 0.005199522 -1.739365
v -0.8707166 0.4237272 -0.9002305
v -1.209418 0.005199522 -1.250417
v -1.252247 0.4237272 -0.02086871
v -1.73936 0.005199522 -0.02899204
v -0.9002258 0.4237272 0.8707106
v -1.250407 0.005199522 1.209406
v -0.02086534 0.4237272 1.25223
v -0.02898735 0.005199522 1.739354
v 0.8707153 0.4237272 0.9002198
v 1.209417 0.005199522 1.250406
v 1.252246 0.4237272 0.020858
v 1.739359 0.005199522 0.02898133
v 0.5628952 0.6810594 -0.2222556
v -0.2222462 0.6810594 -0.5629073
v -6.677201E-06 0.7857819 -1.00466E-05
v -0.5629026 0.6810594 0.2222402
v 0.2222449 0.6810594 0.5628965

vn 0.6919377 0.7153803 0.09722796
vn 0.5580248 0.7153797 -0.4205236
vn 0.8768084 0.4647875 0.1232052
vn 0.7071163 0.4647877 -0.5328779
vn 0.09722802 0.7153803 -0.6919377
vn 0.1232052 0.4647875 -0.8768085
vn -0.4205229 0.7153801 -0.5580249
vn -0.5328779 0.4647878 -0.7071164
vn -0.6919377 0.7153803 -0.09722796
vn -0.8768084 0.4647875 -0.1232052
vn -0.5580242 0.71538 0.4205239
vn -0.7071163 0.4647877 0.5328779
vn -0.09722722 0.7153803 0.6919378
vn -0.1232043 0.4647875 0.8768086
vn 0.4205239 0.71538 0.5580242
vn 0.5328785 0.4647874 0.7071161
vn 0.2490461 0.9579125 0.1427574
vn 0.1427583 0.9579122 -0.2490469
vn 0 1 0
vn -0.2490454 0.9579126 -0.142758
vn -0.1427565 0.957913 0.2490448

vt 0.3945313 0.1100464
vt 0.3764648 0.1107788
vt 0.3984375 0.1220703
vt 0.3706055 0.1218872
vt 0.3635254 0.09796143
vt 0.3513184 0.1018677
vt 0.362793 0.07989502
vt 0.3515625 0.07397461
vt 0.3754883 0.06677246
vt 0.371582 0.05474854
vt 0.3935547 0.06604004
vt 0.3994141 0.05493164
vt 0.4067383 0.07885742
vt 0.4187012 0.07495117
vt 0.4074707 0.09692383
vt 0.4187012 0.1028442
vt 0.3935547 0.0960083
vt 0.3774414 0.09692383
vt 0.3850098 0.08837891
vt 0.3764648 0.08081055
vt 0.3925781 0.07989502

g Bush2_(23)_3014_503
usemtl Bush2_(23)_3014_503
usemap Bush2_(23)_3014_503
f 1/1/1 3/3/3 2/2/2
f 2/2/2 3/3/3 4/4/4
f 2/2/2 4/4/4 5/5/5
f 5/5/5 4/4/4 6/6/6
f 5/5/5 6/6/6 7/7/7
f 7/7/7 6/6/6 8/8/8
f 7/7/7 8/8/8 9/9/9
f 9/9/9 8/8/8 10/10/10
f 9/9/9 10/10/10 11/11/11
f 11/11/11 10/10/10 12/12/12
f 11/11/11 12/12/12 13/13/13
f 13/13/13 12/12/12 14/14/14
f 13/13/13 14/14/14 15/15/15
f 15/15/15 14/14/14 16/16/16
f 15/15/15 16/16/16 1/1/1
f 1/1/1 16/16/16 3/3/3
f 15/15/15 1/1/1 17/17/17
f 1/1/1 2/2/2 17/17/17
f 17/17/17 2/2/2 18/18/18
f 2/2/2 5/5/5 18/18/18
f 5/5/5 7/7/7 18/18/18
f 17/17/17 18/18/18 19/19/19
f 18/18/18 20/20/20 19/19/19
f 18/18/18 7/7/7 20/20/20
f 7/7/7 9/9/9 20/20/20
f 9/9/9 11/11/11 20/20/20
f 20/20/20 21/21/21 19/19/19
f 21/21/21 17/17/17 19/19/19
f 20/20/20 11/11/11 21/21/21
f 11/11/11 13/13/13 21/21/21
f 13/13/13 15/15/15 21/21/21
f 21/21/21 15/15/15 17/17/17
