#cabbage_alpha_1049_231.obj

v 0.5518972 0.3216055 -0.7846834
v 0.8057654 0.3216055 0.538047
v 0 0 0
v -0.3712971 0.3216055 0.8639466
v -0.9231943 0.3216055 0.06826059
v -0.6650438 0.3216055 -0.8764203

vn -0.2005105 0.9479181 0.247481
vn -0.270066 0.9489807 -0.1627878
vn -0.04479804 0.9989943 -0.00188066
vn 0.09722017 0.9456723 -0.3102453
vn 0.3258312 0.9444499 -0.0429932
vn 0.1480352 0.9594811 0.2397533

vt 0.4694824 0.5024414
vt 0.5078125 0.4995117
vt 0.4868164 0.4814453
vt 0.5078125 0.4645996
vt 0.4816895 0.4555664
vt 0.4577637 0.4697266

g cabbage_alpha_1049_231
usemtl cabbage_alpha_1049_231
usemap cabbage_alpha_1049_231
f 1/1/1 3/3/3 2/2/2
f 2/2/2 3/3/3 4/4/4
f 5/5/5 4/4/4 3/3/3
f 5/5/5 3/3/3 6/6/6
f 6/6/6 3/3/3 1/1/1
