#cabbage_alpha_1087_291.obj

v 0.5518991 0.3216055 -0.7846842
v 0.8057635 0.3216055 0.5380471
v 0 0 0
v -0.3712978 0.3216055 0.8639475
v -0.923195 0.3216055 0.06825988
v -0.6650422 0.3216055 -0.8764195

vn -0.1624973 0.9479182 0.2739452
vn -0.2908203 0.9489809 -0.1218978
vn -0.04459714 0.9989944 0.00463647
vn 0.05119607 0.9456724 -0.3210653
vn 0.3161506 0.94445 -0.08979528
vn 0.1812424 0.9594812 0.2157482

vt 0.4694824 0.5024414
vt 0.5078125 0.4995117
vt 0.4868164 0.4814453
vt 0.5078125 0.4645996
vt 0.4816895 0.4555664
vt 0.4577637 0.4697266

g cabbage_alpha_1087_291
usemtl cabbage_alpha_1087_291
usemap cabbage_alpha_1087_291
f 1/1/1 3/3/3 2/2/2
f 2/2/2 3/3/3 4/4/4
f 5/5/5 4/4/4 3/3/3
f 5/5/5 3/3/3 6/6/6
f 6/6/6 3/3/3 1/1/1
