#cabbage_alpha_1262_193.obj

v -0.7502658 0.3962284 -0.9132677
v 0.9037521 0.3962284 -0.7798501
v 0 0 0
v 0.9037527 0.3962284 0.724889
v -0.2224531 0.3962284 1.118605
v -1.259262 0.3962284 0.5015225

vn -0.1970113 0.9479181 -0.2502756
vn 0.2184816 0.9489807 -0.2273795
vn 0.01174102 0.9989943 -0.04327296
vn 0.281064 0.9456723 0.1634228
vn -0.0301278 0.9444499 0.3272718
vn -0.2665547 0.9594811 0.09134933

vt 0.4694824 0.5024414
vt 0.5078125 0.4995117
vt 0.4868164 0.4814453
vt 0.5078125 0.4645996
vt 0.4816895 0.4555664
vt 0.4577637 0.4697266

g cabbage_alpha_1262_193
usemtl cabbage_alpha_1262_193
usemap cabbage_alpha_1262_193
f 1/1/1 3/3/3 2/2/2
f 2/2/2 3/3/3 4/4/4
f 5/5/5 4/4/4 3/3/3
f 5/5/5 3/3/3 6/6/6
f 6/6/6 3/3/3 1/1/1
