#cabbage_base_1319_79.obj

v -0.04233423 0.01583244 -0.2740743
v -0.2565655 0.1547774 -0.4255598
v -0.2735442 0.02884189 0.03874628
v -0.4757107 0.167108 -0.1290622
v -0.4211334 0.196173 0.2346203
v 0.03910026 0.05919917 0.2685629
v -0.1248022 0.2249463 0.4524455
v 0.2396948 0.2365731 0.3968157
v 0.2703103 0.04618973 -0.04425763
v -0.2686542 0.4352061 -0.446157
v -0.4877994 0.4475366 -0.1496594
v -0.433222 0.4766016 0.2140231
v -0.1368909 0.5053749 0.4318483
v 0.2276061 0.5170017 0.3762186
v 0.4588405 0.2242424 0.1003172
v 0.2703103 0.04618973 -0.04425763
v 0.4042626 0.1951775 -0.2633644
v 0.4467519 0.504671 0.07972002
v 0.3921739 0.4756062 -0.2839616
v 0.107932 0.1664041 -0.4811905
v -0.04233423 0.01583244 -0.2740743
v 0.2703103 0.04618973 -0.04425763
v -0.2565655 0.1547774 -0.4255598
v 0.09584331 0.4468327 -0.5017877
v -0.2686542 0.4352061 -0.446157
v -0.0743399 0.6040263 -0.3608433
v -0.3424592 0.6191123 0.001914281
v 0.02009499 0.6543159 0.2684198
v 0.02009499 0.6543159 0.2684198
v 0.2882148 0.6392298 -0.09433861
v -0.0743399 0.6040263 -0.3608433
v -0.03013262 0.6990065 -0.05134136
v -0.03013262 0.6990065 -0.05134136

vn 0.4295374 -0.8730837 -0.2307
vn 0.4395985 -0.4055895 -0.8014051
vn -0.1973028 -0.9299551 -0.3102502
vn -0.1482868 -0.4589264 -0.8760123
vn -0.7837607 -0.4883381 -0.3837252
vn -0.2792662 -0.9058894 0.318394
vn -0.8606303 -0.4657684 0.2058525
vn -0.3721237 -0.3932051 0.8407815
vn 0.3475741 -0.8490182 0.3979449
vn 0.3687263 0.3712693 -0.8521737
vn -0.2058181 0.3191428 -0.9250875
vn -0.8618853 0.2887779 -0.4168465
vn -0.9370102 0.3108356 0.159352
vn -0.4326723 0.3857504 0.8148566
vn 0.2157615 -0.3398684 0.9153887
vn 0.3475741 -0.8490182 0.3979449
vn 0.8512355 -0.3104565 0.4231015
vn 0.1418721 0.4378768 0.8877704
vn 0.7979393 0.4682417 0.3795294
vn 0.9281051 -0.3330264 -0.1664761
vn 0.4295374 -0.8730837 -0.2307
vn 0.3475741 -0.8490182 0.3979449
vn 0.4395985 -0.4055895 -0.8014051
vn 0.8730642 0.446184 -0.1966691
vn 0.3687263 0.3712693 -0.8521737
vn 0.2723323 0.9097012 -0.3134947
vn -0.3428588 0.853887 -0.3915673
vn -0.4232989 0.877505 0.2253948
vn -0.4232989 0.877505 0.2253948
vn 0.1918921 0.9333192 0.3034674
vn 0.2723323 0.9097012 -0.3134947
vn -0.08406964 0.9952514 -0.04906064
vn -0.08406964 0.9952514 -0.04906064

vt 0.2705078 0.4384766
vt 0.2624512 0.4448242
vt 0.2814941 0.4458008
vt 0.2702637 0.4504395
vt 0.2797852 0.4541016
vt 0.2956543 0.454834
vt 0.2868652 0.4609375
vt 0.2946777 0.4650879
vt 0.3100586 0.4614258
vt 0.2548828 0.4580078
vt 0.2641602 0.4609375
vt 0.2734375 0.4648438
vt 0.2810059 0.4719238
vt 0.2873535 0.4782715
vt 0.3024902 0.4689941
vt 0.3100586 0.4614258
vt 0.3120117 0.4711914
vt 0.2973633 0.4797363
vt 0.307373 0.4824219
vt 0.3205566 0.4770508
vt 0.3244629 0.4685059
vt 0.3100586 0.4614258
vt 0.3295898 0.4807129
vt 0.3156738 0.4885254
vt 0.3225098 0.4936523
vt 0.2539063 0.4697266
vt 0.2661133 0.4702148
vt 0.276123 0.4802246
vt 0.2875977 0.4892578
vt 0.300293 0.4885254
vt 0.3112793 0.4970703
vt 0.2636719 0.4782715
vt 0.2983398 0.4963379

g cabbage_base_1319_79
usemtl cabbage_base_1319_79
usemap cabbage_base_1319_79
f 1/1/1 3/3/3 2/2/2
f 2/2/2 3/3/3 4/4/4
f 3/3/3 5/5/5 4/4/4
f 3/3/3 6/6/6 5/5/5
f 5/5/5 6/6/6 7/7/7
f 6/6/6 8/8/8 7/7/7
f 6/6/6 9/9/9 8/8/8
f 2/2/2 4/4/4 10/10/10
f 10/10/10 4/4/4 11/11/11
f 4/4/4 5/5/5 11/11/11
f 11/11/11 5/5/5 12/12/12
f 5/5/5 7/7/7 12/12/12
f 12/12/12 7/7/7 13/13/13
f 7/7/7 8/8/8 13/13/13
f 13/13/13 8/8/8 14/14/14
f 8/8/8 15/15/15 14/14/14
f 8/8/8 16/16/16 15/15/15
f 9/9/9 17/17/17 15/15/15
f 14/14/14 15/15/15 18/18/18
f 15/15/15 17/17/17 18/18/18
f 18/18/18 17/17/17 19/19/19
f 17/17/17 20/20/20 19/19/19
f 17/17/17 21/21/21 20/20/20
f 22/22/22 21/21/21 17/17/17
f 21/21/21 23/23/23 20/20/20
f 19/19/19 20/20/20 24/24/24
f 20/20/20 23/23/23 24/24/24
f 24/24/24 23/23/23 25/25/25
f 10/10/10 11/11/11 26/26/26
f 26/26/26 11/11/11 27/27/27
f 11/11/11 12/12/12 27/27/27
f 12/12/12 13/13/13 27/27/27
f 27/27/27 13/13/13 28/28/28
f 13/13/13 14/14/14 28/28/28
f 14/14/14 18/18/18 29/29/29
f 29/29/29 18/18/18 30/30/30
f 18/18/18 19/19/19 30/30/30
f 19/19/19 24/24/24 30/30/30
f 30/30/30 24/24/24 31/31/31
f 24/24/24 25/25/25 31/31/31
f 26/26/26 27/27/27 32/32/32
f 27/27/27 28/28/28 32/32/32
f 29/29/29 30/30/30 33/33/33
f 30/30/30 31/31/31 33/33/33
