#cabbage_alpha_3171_383.obj

v 0.5518981 0.3216055 -0.784686
v 0.8057642 0.3216055 0.5380486
v 0 0 0
v -0.3712977 0.3216055 0.8639485
v -0.9231945 0.3216055 0.0682588
v -0.6650435 0.3216055 -0.8764197

vn -0.2129878 0.9479181 -0.236828
vn 0.2031123 0.9489807 -0.2412073
vn 0.008880225 0.9989943 -0.04394933
vn 0.2911685 0.9456723 0.1446541
vn -0.008617684 0.9444499 0.3285424
vn -0.2599959 0.9594811 0.1086197

vt 0.4694824 0.5024414
vt 0.5078125 0.4995117
vt 0.4868164 0.4814453
vt 0.5078125 0.4645996
vt 0.4816895 0.4555664
vt 0.4577637 0.4697266

g cabbage_alpha_3171_383
usemtl cabbage_alpha_3171_383
usemap cabbage_alpha_3171_383
f 1/1/1 3/3/3 2/2/2
f 2/2/2 3/3/3 4/4/4
f 5/5/5 4/4/4 3/3/3
f 5/5/5 3/3/3 6/6/6
f 6/6/6 3/3/3 1/1/1
