#cabbage_base_2496_250.obj

v -0.04089826 0.03765164 -0.2721585
v -0.2485806 0.1963836 -0.4129537
v -0.2721585 0.03765164 0.04089411
v -0.4677697 0.1963836 -0.1162339
v -0.4129454 0.1963836 0.2485723
v 0.04089826 0.03765164 0.2721502
v -0.1162256 0.1963836 0.4677614
v 0.2485806 0.1963836 0.4129454
v 0.2721585 0.03765164 -0.04090241
v -0.2485806 0.4778274 -0.4129537
v -0.4677697 0.4778274 -0.1162339
v -0.4129454 0.4778274 0.2485723
v -0.1162256 0.4778274 0.4677614
v 0.2485806 0.4778274 0.4129454
v 0.4677697 0.1963836 0.1162256
v 0.2721585 0.03765164 -0.04090241
v 0.4129454 0.1963836 -0.2485806
v 0.4677697 0.4778274 0.1162256
v 0.4129454 0.4778274 -0.2485806
v 0.1162256 0.1963836 -0.4677697
v -0.04089826 0.03765164 -0.2721585
v 0.2721585 0.03765164 -0.04090241
v -0.2485806 0.1963836 -0.4129537
v 0.1162256 0.4778274 -0.4677697
v -0.2485806 0.4778274 -0.4129537
v -0.0474297 0.6314486 -0.3156046
v -0.3156046 0.6314486 0.04742555
v 0.0474297 0.6314486 0.3155963
v 0.0474297 0.6314486 0.3155963
v 0.3156046 0.6314486 -0.04743385
v -0.0474297 0.6314486 -0.3156046
v 0 0.7015369 -4.14958E-06
v 0 0.7015369 -4.14958E-06

vn -0.06666687 -0.8937306 -0.4436229
vn -0.5200214 -0.4013029 -0.7540117
vn -0.4436223 -0.8937309 0.06666707
vn -0.8735514 -0.401303 -0.275434
vn -0.7540118 -0.4013029 0.5200213
vn 0.06666687 -0.8937306 0.4436229
vn -0.275434 -0.4013031 0.8735514
vn 0.5200214 -0.4013029 0.7540117
vn 0.4436229 -0.8937305 -0.06666686
vn -0.533429 0.3803158 -0.755522
vn -0.8789361 0.3803158 -0.2878044
vn -0.755522 0.3803158 0.5334289
vn -0.2878044 0.3803158 0.878936
vn 0.533429 0.3803158 0.755522
vn 0.8735514 -0.401303 0.275434
vn 0.4436229 -0.8937305 -0.06666686
vn 0.7540118 -0.4013029 -0.5200213
vn 0.8789361 0.3803158 0.2878044
vn 0.755522 0.3803158 -0.5334289
vn 0.275434 -0.4013031 -0.8735514
vn -0.06666687 -0.8937306 -0.4436229
vn 0.4436229 -0.8937305 -0.06666686
vn -0.5200214 -0.4013029 -0.7540117
vn 0.2878044 0.3803158 -0.878936
vn -0.533429 0.3803158 -0.755522
vn -0.06542789 0.8978667 -0.4353786
vn -0.4353786 0.8978667 0.06542787
vn 0.06542789 0.8978667 0.4353786
vn 0.06542789 0.8978667 0.4353786
vn 0.4353786 0.8978667 -0.06542787
vn -0.06542789 0.8978667 -0.4353786
vn 0 1 0
vn 0 1 0

vt 0.2705078 0.4384766
vt 0.2624512 0.4448242
vt 0.2814941 0.4458008
vt 0.2702637 0.4504395
vt 0.2797852 0.4541016
vt 0.2956543 0.454834
vt 0.2868652 0.4609375
vt 0.2946777 0.4650879
vt 0.3100586 0.4614258
vt 0.2548828 0.4580078
vt 0.2641602 0.4609375
vt 0.2734375 0.4648438
vt 0.2810059 0.4719238
vt 0.2873535 0.4782715
vt 0.3024902 0.4689941
vt 0.3100586 0.4614258
vt 0.3120117 0.4711914
vt 0.2973633 0.4797363
vt 0.307373 0.4824219
vt 0.3205566 0.4770508
vt 0.3244629 0.4685059
vt 0.3100586 0.4614258
vt 0.3295898 0.4807129
vt 0.3156738 0.4885254
vt 0.3225098 0.4936523
vt 0.2539063 0.4697266
vt 0.2661133 0.4702148
vt 0.276123 0.4802246
vt 0.2875977 0.4892578
vt 0.300293 0.4885254
vt 0.3112793 0.4970703
vt 0.2636719 0.4782715
vt 0.2983398 0.4963379

g cabbage_base_2496_250
usemtl cabbage_base_2496_250
usemap cabbage_base_2496_250
f 1/1/1 3/3/3 2/2/2
f 2/2/2 3/3/3 4/4/4
f 3/3/3 5/5/5 4/4/4
f 3/3/3 6/6/6 5/5/5
f 5/5/5 6/6/6 7/7/7
f 6/6/6 8/8/8 7/7/7
f 6/6/6 9/9/9 8/8/8
f 2/2/2 4/4/4 10/10/10
f 10/10/10 4/4/4 11/11/11
f 4/4/4 5/5/5 11/11/11
f 11/11/11 5/5/5 12/12/12
f 5/5/5 7/7/7 12/12/12
f 12/12/12 7/7/7 13/13/13
f 7/7/7 8/8/8 13/13/13
f 13/13/13 8/8/8 14/14/14
f 8/8/8 15/15/15 14/14/14
f 8/8/8 16/16/16 15/15/15
f 9/9/9 17/17/17 15/15/15
f 14/14/14 15/15/15 18/18/18
f 15/15/15 17/17/17 18/18/18
f 18/18/18 17/17/17 19/19/19
f 17/17/17 20/20/20 19/19/19
f 17/17/17 21/21/21 20/20/20
f 22/22/22 21/21/21 17/17/17
f 21/21/21 23/23/23 20/20/20
f 19/19/19 20/20/20 24/24/24
f 20/20/20 23/23/23 24/24/24
f 24/24/24 23/23/23 25/25/25
f 10/10/10 11/11/11 26/26/26
f 26/26/26 11/11/11 27/27/27
f 11/11/11 12/12/12 27/27/27
f 12/12/12 13/13/13 27/27/27
f 27/27/27 13/13/13 28/28/28
f 13/13/13 14/14/14 28/28/28
f 14/14/14 18/18/18 29/29/29
f 29/29/29 18/18/18 30/30/30
f 18/18/18 19/19/19 30/30/30
f 19/19/19 24/24/24 30/30/30
f 30/30/30 24/24/24 31/31/31
f 24/24/24 25/25/25 31/31/31
f 26/26/26 27/27/27 32/32/32
f 27/27/27 28/28/28 32/32/32
f 29/29/29 30/30/30 33/33/33
f 30/30/30 31/31/31 33/33/33
