#cabbage_alpha_898_61.obj

v -0.7502666 0.3962284 -0.9132664
v 0.9037526 0.3962284 -0.7798499
v 0 0 0
v 0.9037531 0.3962284 0.7248893
v -0.2224524 0.3962284 1.118607
v -1.259261 0.3962284 0.5015228

vn 0.256523 0.9479181 -0.1888048
vn 0.2201864 0.9489807 0.2257289
vn 0.04287013 0.9989943 0.01313591
vn -0.1724372 0.9456723 0.2756255
vn -0.3261247 0.9444499 -0.04070811
vn -0.08267117 0.9594811 -0.2693725

vt 0.4694824 0.5024414
vt 0.5078125 0.4995117
vt 0.4868164 0.4814453
vt 0.5078125 0.4645996
vt 0.4816895 0.4555664
vt 0.4577637 0.4697266

g cabbage_alpha_898_61
usemtl cabbage_alpha_898_61
usemap cabbage_alpha_898_61
f 1/1/1 3/3/3 2/2/2
f 2/2/2 3/3/3 4/4/4
f 5/5/5 4/4/4 3/3/3
f 5/5/5 3/3/3 6/6/6
f 6/6/6 3/3/3 1/1/1
