#cabbage_alpha_2938_353.obj

v -0.7502646 0.3962284 -0.9132677
v 0.9037528 0.3962286 -0.7798498
v 2.947807E-06 -1.032721E-13 2.421229E-06
v 0.9037575 0.3962285 0.7248901
v -0.222448 0.3962283 1.118611
v -1.259256 0.3962282 0.5015258

vn 0.08293246 0.9479181 -0.307528
vn 0.3128766 0.9489807 0.03929217
vn 0.04171231 0.9989943 -0.01644637
vn 0.03693572 0.9456723 0.3230168
vn -0.2804072 0.9444499 0.1714243
vn -0.2325381 0.9594811 -0.1591292

vt 0.4694824 0.5024414
vt 0.5078125 0.4995117
vt 0.4868164 0.4814453
vt 0.5078125 0.4645996
vt 0.4816895 0.4555664
vt 0.4577637 0.4697266

g cabbage_alpha_2938_353
usemtl cabbage_alpha_2938_353
usemap cabbage_alpha_2938_353
f 1/1/1 3/3/3 2/2/2
f 2/2/2 3/3/3 4/4/4
f 5/5/5 4/4/4 3/3/3
f 5/5/5 3/3/3 6/6/6
f 6/6/6 3/3/3 1/1/1
