#cabbage_alpha_1134_260.obj

v -0.7502666 0.3962284 -0.9132677
v 0.9037523 0.3962284 -0.7798499
v 0 0 0
v 0.9037529 0.3962284 0.7248886
v -0.2224523 0.3962284 1.118606
v -1.259259 0.3962284 0.5015222

vn 0.1010591 0.9479181 0.3020569
vn -0.2823678 0.9489807 0.140371
vn -0.02564756 0.9989943 0.03677774
vn -0.2094795 0.9456723 -0.2486409
vn 0.1387399 0.9444499 -0.2979357
vn 0.2817461 0.9594811 0.003902458

vt 0.4694824 0.5024414
vt 0.5078125 0.4995117
vt 0.4868164 0.4814453
vt 0.5078125 0.4645996
vt 0.4816895 0.4555664
vt 0.4577637 0.4697266

g cabbage_alpha_1134_260
usemtl cabbage_alpha_1134_260
usemap cabbage_alpha_1134_260
f 1/1/1 3/3/3 2/2/2
f 2/2/2 3/3/3 4/4/4
f 5/5/5 4/4/4 3/3/3
f 5/5/5 3/3/3 6/6/6
f 6/6/6 3/3/3 1/1/1
