#cabbage_alpha_840_125.obj

v -0.7502658 0.3962284 -0.9132675
v 0.9037542 0.3962284 -0.7798506
v 0 0 0
v 0.9037541 0.3962284 0.7248883
v -0.222452 0.3962284 1.118605
v -1.25926 0.3962284 0.5015221

vn -0.2807342 0.9479181 0.1504646
vn -0.1859011 0.9489807 -0.2547084
vn -0.04057036 0.9989943 -0.01909045
vn 0.2098292 0.9456723 -0.2483459
vn 0.3170392 0.9444499 0.08660604
vn 0.04358188 0.9594811 0.2783823

vt 0.4694824 0.5024414
vt 0.5078125 0.4995117
vt 0.4868164 0.4814453
vt 0.5078125 0.4645996
vt 0.4816895 0.4555664
vt 0.4577637 0.4697266

g cabbage_alpha_840_125
usemtl cabbage_alpha_840_125
usemap cabbage_alpha_840_125
f 1/1/1 3/3/3 2/2/2
f 2/2/2 3/3/3 4/4/4
f 5/5/5 4/4/4 3/3/3
f 5/5/5 3/3/3 6/6/6
f 6/6/6 3/3/3 1/1/1
