#cabbage_alpha_3013_502.obj

v 0.5518991 0.3216056 -0.7846838
v 0.8057699 0.3216055 0.538044
v 3.722221E-06 1.220034E-13 -1.834145E-06
v -0.371295 0.3216054 0.8639473
v -0.9231943 0.3216054 0.06825837
v -0.6650428 0.3216055 -0.8764179

vn 0.1333661 0.9479181 0.2892486
vn -0.2653938 0.9489807 0.170299
vn -0.02148814 0.9989943 0.03935316
vn -0.2353217 0.9456723 -0.2243382
vn 0.1054543 0.94445 -0.3112776
vn 0.280494 0.9594811 -0.02681651

vt 0.4694824 0.5024414
vt 0.5078125 0.4995117
vt 0.4868164 0.4814453
vt 0.5078125 0.4645996
vt 0.4816895 0.4555664
vt 0.4577637 0.4697266

g cabbage_alpha_3013_502
usemtl cabbage_alpha_3013_502
usemap cabbage_alpha_3013_502
f 1/1/1 3/3/3 2/2/2
f 2/2/2 3/3/3 4/4/4
f 5/5/5 4/4/4 3/3/3
f 5/5/5 3/3/3 6/6/6
f 6/6/6 3/3/3 1/1/1
