#cabbage_alpha_1256_230.obj

v 0.5518976 0.3216055 -0.7846848
v 0.8057658 0.3216055 0.5380473
v 0 0 0
v -0.3712979 0.3216055 0.8639464
v -0.9231949 0.3216055 0.06825916
v -0.6650445 0.3216055 -0.8764207

vn -0.1404815 0.9479179 -0.2858605
vn 0.2610992 0.9489806 -0.1768128
vn 0.02050784 0.9989942 -0.03987267
vn 0.2407998 0.9456722 0.2184477
vn -0.09772094 0.9444498 0.3137914
vn -0.2797448 0.9594809 0.03374792

vt 0.4694824 0.5024414
vt 0.5078125 0.4995117
vt 0.4868164 0.4814453
vt 0.5078125 0.4645996
vt 0.4816895 0.4555664
vt 0.4577637 0.4697266

g cabbage_alpha_1256_230
usemtl cabbage_alpha_1256_230
usemap cabbage_alpha_1256_230
f 1/1/1 3/3/3 2/2/2
f 2/2/2 3/3/3 4/4/4
f 5/5/5 4/4/4 3/3/3
f 5/5/5 3/3/3 6/6/6
f 6/6/6 3/3/3 1/1/1
