#cabbage_alpha_1320_308.obj

v 0.5379903 0.286647 -0.807557
v 0.7909216 0.3943943 0.5109584
v 0 0 0
v -0.3852267 0.3677919 0.8390635
v -0.9361919 0.2858612 0.04695656
v -0.6777782 0.2277514 -0.8958634

vn -0.3922459 0.914353 -0.1005067
vn -0.06839678 0.9299184 -0.3613497
vn -0.1039906 0.9905908 -0.08897114
vn 0.2378455 0.9647031 -0.1130364
vn 0.1154959 0.9693921 0.2166556
vn -0.2180814 0.9554431 0.1989192

vt 0.4694824 0.5024414
vt 0.5078125 0.4995117
vt 0.4868164 0.4814453
vt 0.5078125 0.4645996
vt 0.4816895 0.4555664
vt 0.4577637 0.4697266

g cabbage_alpha_1320_308
usemtl cabbage_alpha_1320_308
usemap cabbage_alpha_1320_308
f 1/1/1 3/3/3 2/2/2
f 2/2/2 3/3/3 4/4/4
f 5/5/5 4/4/4 3/3/3
f 5/5/5 3/3/3 6/6/6
f 6/6/6 3/3/3 1/1/1
