#cabbage_base_2919_0.obj

v 0.3132585 0.06567956 -0.129758
v 0.4199012 0.3425716 -0.4199086
v -0.1297553 0.06567955 -0.3132656
v -1.000385E-06 0.3425716 -0.5938334
v -0.4199058 0.3425716 -0.4199084
v -0.3132629 0.06567954 0.1297482
v -0.5938307 0.3425716 -6.158235E-06
v -0.4199056 0.3425716 0.4198987
v 0.1297509 0.06567955 0.3132558
v 0.4199012 0.8335224 -0.4199086
v -1.000663E-06 0.8335224 -0.5938335
v -0.4199058 0.8335224 -0.4199084
v -0.5938307 0.8335224 -6.201162E-06
v -0.4199056 0.8335224 0.4198986
v -3.409556E-06 0.3425716 0.5938236
v 0.1297509 0.06567955 0.3132558
v 0.4199014 0.3425716 0.4198985
v -3.409834E-06 0.8335224 0.5938235
v 0.4199014 0.8335224 0.4198984
v 0.5938263 0.3425716 -3.749064E-06
v 0.3132585 0.06567956 -0.129758
v 0.1297509 0.06567955 0.3132558
v 0.4199012 0.3425716 -0.4199086
v 0.5938263 0.8335224 -3.791991E-06
v 0.4199012 0.8335224 -0.4199086
v 0.3632693 1.101499 -0.1504737
v -0.1504709 1.101499 -0.3632765
v -0.3632737 1.101499 0.1504636
v -0.3632737 1.101499 0.1504636
v 0.1504665 1.101499 0.3632665
v 0.3632693 1.101499 -0.1504737
v -2.20547E-06 1.223761 -5.030697E-06
v -2.20547E-06 1.223761 -5.030697E-06

vn 0.3978634 -0.8151171 0.421057
vn 0.8943678 -0.295612 0.3357378
vn 0.4210563 -0.8151174 -0.3978632
vn 0.9119365 -0.2956121 -0.2845793
vn 0.3357379 -0.295612 -0.8943678
vn -0.3978633 -0.8151171 -0.421057
vn -0.2845793 -0.2956122 -0.9119365
vn -0.8943678 -0.2956121 -0.3357378
vn -0.4210569 -0.8151171 0.3978633
vn 0.9027183 0.278908 0.3275822
vn 0.9198116 0.278908 -0.2759653
vn 0.3275822 0.278908 -0.9027183
vn -0.2759654 0.278908 -0.9198117
vn -0.9027184 0.2789079 -0.3275822
vn -0.9119365 -0.2956122 0.2845793
vn -0.4210569 -0.8151171 0.3978633
vn -0.3357378 -0.2956121 0.8943678
vn -0.9198117 0.2789079 0.2759653
vn -0.3275823 0.2789079 0.9027183
vn 0.2845793 -0.2956122 0.9119365
vn 0.3978634 -0.8151171 0.421057
vn -0.4210569 -0.8151171 0.3978633
vn 0.8943678 -0.295612 0.3357378
vn 0.2759653 0.278908 0.9198117
vn 0.9027183 0.278908 0.3275822
vn 0.3916841 0.8214369 0.4145178
vn 0.4145176 0.821437 -0.3916842
vn -0.3916843 0.8214369 -0.4145177
vn -0.3916843 0.8214369 -0.4145177
vn -0.4145178 0.8214369 0.3916842
vn 0.3916841 0.8214369 0.4145178
vn -8.251597E-08 1 3.317461E-08
vn -8.251597E-08 1 3.317461E-08

vt 0.2705078 0.4384766
vt 0.2624512 0.4448242
vt 0.2814941 0.4458008
vt 0.2702637 0.4504395
vt 0.2797852 0.4541016
vt 0.2956543 0.454834
vt 0.2868652 0.4609375
vt 0.2946777 0.4650879
vt 0.3100586 0.4614258
vt 0.2548828 0.4580078
vt 0.2641602 0.4609375
vt 0.2734375 0.4648438
vt 0.2810059 0.4719238
vt 0.2873535 0.4782715
vt 0.3024902 0.4689941
vt 0.3100586 0.4614258
vt 0.3120117 0.4711914
vt 0.2973633 0.4797363
vt 0.307373 0.4824219
vt 0.3205566 0.4770508
vt 0.3244629 0.4685059
vt 0.3100586 0.4614258
vt 0.3295898 0.4807129
vt 0.3156738 0.4885254
vt 0.3225098 0.4936523
vt 0.2539063 0.4697266
vt 0.2661133 0.4702148
vt 0.276123 0.4802246
vt 0.2875977 0.4892578
vt 0.300293 0.4885254
vt 0.3112793 0.4970703
vt 0.2636719 0.4782715
vt 0.2983398 0.4963379

g cabbage_base_2919_0
usemtl cabbage_base_2919_0
usemap cabbage_base_2919_0
f 1/1/1 3/3/3 2/2/2
f 2/2/2 3/3/3 4/4/4
f 3/3/3 5/5/5 4/4/4
f 3/3/3 6/6/6 5/5/5
f 5/5/5 6/6/6 7/7/7
f 6/6/6 8/8/8 7/7/7
f 6/6/6 9/9/9 8/8/8
f 2/2/2 4/4/4 10/10/10
f 10/10/10 4/4/4 11/11/11
f 4/4/4 5/5/5 11/11/11
f 11/11/11 5/5/5 12/12/12
f 5/5/5 7/7/7 12/12/12
f 12/12/12 7/7/7 13/13/13
f 7/7/7 8/8/8 13/13/13
f 13/13/13 8/8/8 14/14/14
f 8/8/8 15/15/15 14/14/14
f 8/8/8 16/16/16 15/15/15
f 9/9/9 17/17/17 15/15/15
f 14/14/14 15/15/15 18/18/18
f 15/15/15 17/17/17 18/18/18
f 18/18/18 17/17/17 19/19/19
f 17/17/17 20/20/20 19/19/19
f 17/17/17 21/21/21 20/20/20
f 22/22/22 21/21/21 17/17/17
f 21/21/21 23/23/23 20/20/20
f 19/19/19 20/20/20 24/24/24
f 20/20/20 23/23/23 24/24/24
f 24/24/24 23/23/23 25/25/25
f 10/10/10 11/11/11 26/26/26
f 26/26/26 11/11/11 27/27/27
f 11/11/11 12/12/12 27/27/27
f 12/12/12 13/13/13 27/27/27
f 27/27/27 13/13/13 28/28/28
f 13/13/13 14/14/14 28/28/28
f 14/14/14 18/18/18 29/29/29
f 29/29/29 18/18/18 30/30/30
f 18/18/18 19/19/19 30/30/30
f 19/19/19 24/24/24 30/30/30
f 30/30/30 24/24/24 31/31/31
f 24/24/24 25/25/25 31/31/31
f 26/26/26 27/27/27 32/32/32
f 27/27/27 28/28/28 32/32/32
f 29/29/29 30/30/30 33/33/33
f 30/30/30 31/31/31 33/33/33
