#cabbage_base_2568_317.obj

v 0.3132648 0.06567957 -0.1297585
v 0.4199031 0.3425716 -0.4199037
v -0.1297531 0.06567957 -0.3132643
v 4.994988E-06 0.3425716 -0.5938357
v -0.4198984 0.3425716 -0.4199026
v -0.3132589 0.06567954 0.1297536
v -0.5938278 0.3425716 -1.53789E-06
v -0.4198972 0.3425716 0.4198989
v 0.129759 0.06567954 0.3132594
v 0.4199031 0.8335224 -0.4199036
v 5.023798E-06 0.8335224 -0.5938356
v -0.4198983 0.8335224 -0.4199025
v -0.5938278 0.8335224 -1.482561E-06
v -0.4198972 0.8335223 0.4198989
v 8.934154E-07 0.3425716 0.5938308
v 0.129759 0.06567954 0.3132594
v 0.4199042 0.3425716 0.4198977
v 9.22226E-07 0.8335223 0.5938309
v 0.4199043 0.8335224 0.4198978
v 0.5938337 0.3425716 -3.284514E-06
v 0.3132648 0.06567957 -0.1297585
v 0.129759 0.06567954 0.3132594
v 0.4199031 0.3425716 -0.4199037
v 0.5938338 0.8335224 -3.229185E-06
v 0.4199031 0.8335224 -0.4199036
v 0.3632718 1.101499 -0.150474
v -0.1504687 1.101499 -0.3632711
v -0.3632658 1.101499 0.1504694
v -0.3632658 1.101499 0.1504694
v 0.1504747 1.101499 0.3632665
v 0.3632718 1.101499 -0.150474
v 2.995913E-06 1.223761 -2.311895E-06
v 2.995913E-06 1.223761 -2.311895E-06

vn 0.1737762 -0.815117 -0.5526175
vn -0.142693 -0.295612 -0.944591
vn -0.552617 -0.8151175 -0.1737756
vn -0.6929228 -0.2956122 -0.6576257
vn -0.944591 -0.2956122 0.142693
vn -0.1737761 -0.8151171 0.5526175
vn -0.6576257 -0.2956122 0.6929228
vn 0.1426931 -0.2956121 0.944591
vn 0.5526176 -0.8151171 0.1737761
vn -0.1538841 0.278908 -0.9479083
vn -0.6892389 0.2789079 -0.6687003
vn -0.9479083 0.2789079 0.1538841
vn -0.6687003 0.2789079 0.6892389
vn 0.1538841 0.2789079 0.9479083
vn 0.6929229 -0.2956121 0.6576257
vn 0.5526176 -0.8151171 0.1737761
vn 0.9445911 -0.295612 -0.142693
vn 0.6892389 0.278908 0.6687003
vn 0.9479083 0.278908 -0.1538841
vn 0.6576257 -0.2956121 -0.6929228
vn 0.1737762 -0.815117 -0.5526175
vn 0.5526176 -0.8151171 0.1737761
vn -0.142693 -0.295612 -0.944591
vn 0.6687003 0.278908 -0.6892389
vn -0.1538841 0.278908 -0.9479083
vn 0.1710772 0.821437 -0.5440349
vn -0.544035 0.8214369 -0.1710773
vn -0.1710774 0.8214369 0.544035
vn -0.1710774 0.8214369 0.544035
vn 0.5440348 0.8214369 0.1710774
vn 0.1710772 0.821437 -0.5440349
vn -9.137806E-08 1 4.265274E-08
vn -9.137806E-08 1 4.265274E-08

vt 0.2705078 0.4384766
vt 0.2624512 0.4448242
vt 0.2814941 0.4458008
vt 0.2702637 0.4504395
vt 0.2797852 0.4541016
vt 0.2956543 0.454834
vt 0.2868652 0.4609375
vt 0.2946777 0.4650879
vt 0.3100586 0.4614258
vt 0.2548828 0.4580078
vt 0.2641602 0.4609375
vt 0.2734375 0.4648438
vt 0.2810059 0.4719238
vt 0.2873535 0.4782715
vt 0.3024902 0.4689941
vt 0.3100586 0.4614258
vt 0.3120117 0.4711914
vt 0.2973633 0.4797363
vt 0.307373 0.4824219
vt 0.3205566 0.4770508
vt 0.3244629 0.4685059
vt 0.3100586 0.4614258
vt 0.3295898 0.4807129
vt 0.3156738 0.4885254
vt 0.3225098 0.4936523
vt 0.2539063 0.4697266
vt 0.2661133 0.4702148
vt 0.276123 0.4802246
vt 0.2875977 0.4892578
vt 0.300293 0.4885254
vt 0.3112793 0.4970703
vt 0.2636719 0.4782715
vt 0.2983398 0.4963379

g cabbage_base_2568_317
usemtl cabbage_base_2568_317
usemap cabbage_base_2568_317
f 1/1/1 3/3/3 2/2/2
f 2/2/2 3/3/3 4/4/4
f 3/3/3 5/5/5 4/4/4
f 3/3/3 6/6/6 5/5/5
f 5/5/5 6/6/6 7/7/7
f 6/6/6 8/8/8 7/7/7
f 6/6/6 9/9/9 8/8/8
f 2/2/2 4/4/4 10/10/10
f 10/10/10 4/4/4 11/11/11
f 4/4/4 5/5/5 11/11/11
f 11/11/11 5/5/5 12/12/12
f 5/5/5 7/7/7 12/12/12
f 12/12/12 7/7/7 13/13/13
f 7/7/7 8/8/8 13/13/13
f 13/13/13 8/8/8 14/14/14
f 8/8/8 15/15/15 14/14/14
f 8/8/8 16/16/16 15/15/15
f 9/9/9 17/17/17 15/15/15
f 14/14/14 15/15/15 18/18/18
f 15/15/15 17/17/17 18/18/18
f 18/18/18 17/17/17 19/19/19
f 17/17/17 20/20/20 19/19/19
f 17/17/17 21/21/21 20/20/20
f 22/22/22 21/21/21 17/17/17
f 21/21/21 23/23/23 20/20/20
f 19/19/19 20/20/20 24/24/24
f 20/20/20 23/23/23 24/24/24
f 24/24/24 23/23/23 25/25/25
f 10/10/10 11/11/11 26/26/26
f 26/26/26 11/11/11 27/27/27
f 11/11/11 12/12/12 27/27/27
f 12/12/12 13/13/13 27/27/27
f 27/27/27 13/13/13 28/28/28
f 13/13/13 14/14/14 28/28/28
f 14/14/14 18/18/18 29/29/29
f 29/29/29 18/18/18 30/30/30
f 18/18/18 19/19/19 30/30/30
f 19/19/19 24/24/24 30/30/30
f 30/30/30 24/24/24 31/31/31
f 24/24/24 25/25/25 31/31/31
f 26/26/26 27/27/27 32/32/32
f 27/27/27 28/28/28 32/32/32
f 29/29/29 30/30/30 33/33/33
f 30/30/30 31/31/31 33/33/33
