#cabbage_alpha_1300_238.obj

v -0.7502663 0.3962284 -0.9132672
v 0.9037527 0.3962284 -0.7798511
v 0 0 0
v 0.9037532 0.3962284 0.7248879
v -0.2224519 0.3962284 1.118606
v -1.259261 0.3962284 0.5015224

vn -0.3184961 0.9479181 -0.00339672
vn -0.04019462 0.9489807 -0.3127618
vn -0.0263546 0.9989943 -0.03627444
vn 0.3035182 0.9456723 -0.1165363
vn 0.2360971 0.9444499 0.2286321
vn -0.09592488 0.9594811 0.2649424

vt 0.4694824 0.5024414
vt 0.5078125 0.4995117
vt 0.4868164 0.4814453
vt 0.5078125 0.4645996
vt 0.4816895 0.4555664
vt 0.4577637 0.4697266

g cabbage_alpha_1300_238
usemtl cabbage_alpha_1300_238
usemap cabbage_alpha_1300_238
f 1/1/1 3/3/3 2/2/2
f 2/2/2 3/3/3 4/4/4
f 5/5/5 4/4/4 3/3/3
f 5/5/5 3/3/3 6/6/6
f 6/6/6 3/3/3 1/1/1
