#cabbage_alpha_2918_10.obj

v -0.7502708 0.3962284 -0.9132736
v 0.9037523 0.3962284 -0.7798566
v -2.204776E-06 -4.317543E-13 -4.923697E-06
v 0.9037499 0.3962284 0.7248797
v -0.2224533 0.3962284 1.118598
v -1.259261 0.3962284 0.5015221

vn -0.1763234 0.9479181 0.2652572
vn -0.284191 0.9489807 -0.1366422
vn -0.04477621 0.9989943 0.002344823
vn 0.06758332 0.9456723 -0.3180196
vn 0.3203372 0.9444499 -0.07347453
vn 0.1699471 0.9594811 0.2247533

vt 0.4695837 0.5027648
vt 0.5079549 0.4996697
vt 0.486989 0.4815781
vt 0.5079549 0.4647616
vt 0.4818284 0.4556279
vt 0.4577757 0.4699434

g cabbage_alpha_2918_10
usemtl cabbage_alpha_2918_10
usemap cabbage_alpha_2918_10
f 1/1/1 3/3/3 2/2/2
f 2/2/2 3/3/3 4/4/4
f 5/5/5 4/4/4 3/3/3
f 5/5/5 3/3/3 6/6/6
f 6/6/6 3/3/3 1/1/1
