#cabbage_alpha_1132_256.obj

v -0.7502646 0.3962284 -0.9132671
v 0.9037546 0.3962284 -0.7798495
v 0 0 0
v 0.903753 0.3962284 0.7248884
v -0.2224513 0.3962284 1.118606
v -1.259261 0.3962284 0.5015225

vn 0.2719314 0.9479181 0.1658452
vn -0.1254558 0.9489807 0.2893033
vn 0.004089116 0.9989943 0.04465063
vn -0.3204132 0.9456723 -0.05513033
vn -0.08591069 0.9444499 -0.3172283
vn 0.217955 0.9594811 -0.1785825

vt 0.4694824 0.5024414
vt 0.5078125 0.4995117
vt 0.4868164 0.4814453
vt 0.5078125 0.4645996
vt 0.4816895 0.4555664
vt 0.4577637 0.4697266

g cabbage_alpha_1132_256
usemtl cabbage_alpha_1132_256
usemap cabbage_alpha_1132_256
f 1/1/1 3/3/3 2/2/2
f 2/2/2 3/3/3 4/4/4
f 5/5/5 4/4/4 3/3/3
f 5/5/5 3/3/3 6/6/6
f 6/6/6 3/3/3 1/1/1
