#cabbage_alpha_1351_189.obj

v 0.5518972 0.3216055 -0.7846839
v 0.8057656 0.3216055 0.5380459
v 0 0 0
v -0.3712974 0.3216055 0.8639497
v -0.9231944 0.3216055 0.06826211
v -0.6650441 0.3216055 -0.8764175

vn 0.2533098 0.9479178 0.1930943
vn -0.1547194 0.9489805 0.274768
vn -0.0005533048 0.9989941 0.04483409
vn -0.312988 0.945672 -0.08799075
vn -0.05262264 0.9444497 -0.3244152
vn 0.2352646 0.9594808 -0.1550697

vt 0.4694824 0.5024414
vt 0.5078125 0.4995117
vt 0.4868164 0.4814453
vt 0.5078125 0.4645996
vt 0.4816895 0.4555664
vt 0.4577637 0.4697266

g cabbage_alpha_1351_189
usemtl cabbage_alpha_1351_189
usemap cabbage_alpha_1351_189
f 1/1/1 3/3/3 2/2/2
f 2/2/2 3/3/3 4/4/4
f 5/5/5 4/4/4 3/3/3
f 5/5/5 3/3/3 6/6/6
f 6/6/6 3/3/3 1/1/1
