#cabbage_alpha_1073_177.obj

v 0.5518972 0.3216055 -0.7846848
v 0.8057651 0.3216055 0.5380474
v 0 0 0
v -0.3712972 0.3216055 0.8639475
v -0.9231938 0.3216055 0.06825923
v -0.6650435 0.3216055 -0.8764211

vn -0.3047912 0.9479181 -0.09248596
vn 0.04903375 0.9489807 -0.3114984
vn -0.01513716 0.9989943 -0.04220507
vn 0.3240116 0.9456723 -0.0268406
vn 0.1625929 0.9444499 0.2856186
vn -0.1663063 0.9594811 0.2274606

vt 0.4694824 0.5024414
vt 0.5078125 0.4995117
vt 0.4868164 0.4814453
vt 0.5078125 0.4645996
vt 0.4816895 0.4555664
vt 0.4577637 0.4697266

g cabbage_alpha_1073_177
usemtl cabbage_alpha_1073_177
usemap cabbage_alpha_1073_177
f 1/1/1 3/3/3 2/2/2
f 2/2/2 3/3/3 4/4/4
f 5/5/5 4/4/4 3/3/3
f 5/5/5 3/3/3 6/6/6
f 6/6/6 3/3/3 1/1/1
