#cabbage_alpha_1175_287.obj

v 0.5519259 0.3204545 -0.7851357
v 0.8057932 0.3222932 0.5375961
v 0 0 0
v -0.3712696 0.3228519 0.8634942
v -0.9231665 0.3217799 0.06780794
v -0.6650155 0.3204293 -0.8768709

vn -0.1580943 0.9500211 0.2691947
vn -0.2766992 0.9521684 -0.1296635
vn -0.03307166 0.9994489 0.002806599
vn 0.07001363 0.9446845 -0.3204201
vn 0.3292139 0.9406223 -0.08275028
vn 0.1870743 0.957532 0.2193976

vt 0.4694824 0.5024414
vt 0.5078125 0.4995117
vt 0.4868164 0.4814453
vt 0.5078125 0.4645996
vt 0.4816895 0.4555664
vt 0.4577637 0.4697266

g cabbage_alpha_1175_287
usemtl cabbage_alpha_1175_287
usemap cabbage_alpha_1175_287
f 1/1/1 3/3/3 2/2/2
f 2/2/2 3/3/3 4/4/4
f 5/5/5 4/4/4 3/3/3
f 5/5/5 3/3/3 6/6/6
f 6/6/6 3/3/3 1/1/1
