#cabbage_alpha_808_136.obj

v -0.7502659 0.3962284 -0.9132676
v 0.9037539 0.3962284 -0.7798497
v 0 0 0
v 0.9037535 0.3962284 0.7248893
v -0.2224527 0.3962284 1.118605
v -1.25926 0.3962284 0.5015228

vn -0.02131663 0.9479181 0.3178001
vn -0.3145283 0.9489807 0.02252834
vn -0.03770021 0.9989943 0.02427126
vn -0.09926922 0.9456723 -0.3095958
vn 0.2415575 0.9444499 -0.2228552
vn 0.2591237 0.9594811 0.1106841

vt 0.4694824 0.5024414
vt 0.5078125 0.4995117
vt 0.4868164 0.4814453
vt 0.5078125 0.4645996
vt 0.4816895 0.4555664
vt 0.4577637 0.4697266

g cabbage_alpha_808_136
usemtl cabbage_alpha_808_136
usemap cabbage_alpha_808_136
f 1/1/1 3/3/3 2/2/2
f 2/2/2 3/3/3 4/4/4
f 5/5/5 4/4/4 3/3/3
f 5/5/5 3/3/3 6/6/6
f 6/6/6 3/3/3 1/1/1
