#cabbage_alpha_1329_283.obj

v -0.7502658 0.3962284 -0.9132665
v 0.9037542 0.3962284 -0.7798485
v 0 0 0
v 0.9037527 0.3962284 0.7248874
v -0.2224519 0.3962284 1.118607
v -1.259261 0.3962284 0.501523

vn -0.3097311 0.9479181 0.07428329
vn -0.115165 0.9489807 -0.2935517
vn -0.0343964 0.9989943 -0.02876261
vn 0.2659915 0.9456723 -0.1869559
vn 0.2846754 0.9444499 0.1642388
vn -0.02850247 0.9594811 0.2803279

vt 0.4694824 0.5024414
vt 0.5078125 0.4995117
vt 0.4868164 0.4814453
vt 0.5078125 0.4645996
vt 0.4816895 0.4555664
vt 0.4577637 0.4697266

g cabbage_alpha_1329_283
usemtl cabbage_alpha_1329_283
usemap cabbage_alpha_1329_283
f 1/1/1 3/3/3 2/2/2
f 2/2/2 3/3/3 4/4/4
f 5/5/5 4/4/4 3/3/3
f 5/5/5 3/3/3 6/6/6
f 6/6/6 3/3/3 1/1/1
