#cabbage_alpha_1236_251.obj

v -0.7502666 0.3962284 -0.9132684
v 0.903753 0.3962284 -0.7798514
v 0 0 0
v 0.9037535 0.3962284 0.7248863
v -0.2224521 0.3962284 1.118606
v -1.259261 0.3962284 0.5015213

vn 0.2536855 0.9479181 -0.1926005
vn 0.2235205 0.9489807 0.2224279
vn 0.04306082 0.9989943 0.01249662
vn -0.1683172 0.9456723 0.2781605
vn -0.3266943 0.9444499 -0.03585139
vn -0.08666985 0.9594811 -0.2681127

vt 0.4694824 0.5024414
vt 0.5078125 0.4995117
vt 0.4868164 0.4814453
vt 0.5078125 0.4645996
vt 0.4816895 0.4555664
vt 0.4577637 0.4697266

g cabbage_alpha_1236_251
usemtl cabbage_alpha_1236_251
usemap cabbage_alpha_1236_251
f 1/1/1 3/3/3 2/2/2
f 2/2/2 3/3/3 4/4/4
f 5/5/5 4/4/4 3/3/3
f 5/5/5 3/3/3 6/6/6
f 6/6/6 3/3/3 1/1/1
