#Carrot1_Alpha_2761_736.obj

v 0.3417901 0.8104826 2.936251E-06
v 0.9245724 1.059042 -3.55271E-07
v 0.867728 1.143152 0.4108372
v 0.2705483 0.9539374 0.4108353
v 0 0.3193689 0
v -0.05684842 0.4034791 0.4108362
v 0.3334889 1.00429 -0.4408765
v 0.8677262 1.143152 -0.4408771
v 0.9245724 1.059042 -3.55271E-07
v 0.3417901 0.8104826 2.936251E-06
v -0.05684482 0.4034791 -0.4408781
v 0 0.3193689 0
v -0.06555459 0.6937839 0.4448055
v -0.02671425 0.7874054 1.063611
v -0.4461696 0.7387633 1.071156
v -0.502713 0.703415 0.4525977
v 0 0.3193691 0
v -0.41945 0.2707271 0.007544818
v 0.2997344 1.025016 0.4374959
v 0.3580932 1.028503 0.9836452
v -0.02671425 0.7874054 1.063611
v -0.06555459 0.6937839 0.4448055
v 0.3848101 0.5604664 -0.07996346
v 0 0.3193691 0
v -0.1587506 0.9042798 -0.07971767
v -0.6214767 1.354284 -0.1611984
v -0.5169515 1.353224 -0.5699386
v -0.02143905 0.9529714 -0.4925048
v 0 0.3193691 0
v 0.1045252 0.3183087 -0.4087402
v -0.1136068 1.143419 0.339596
v -0.5668148 1.473219 0.2731333
v -0.6214767 1.354284 -0.1611984
v -0.1587506 0.9042798 -0.07971767
v 0.05466731 0.4383045 0.4343318
v 0 0.3193691 0
v 0.3417901 0.8104826 2.936251E-06
v 0.2705483 0.9539374 0.4108353
v 0.867728 1.143152 0.4108372
v 0.9245724 1.059042 -3.55271E-07
v 0 0.3193689 0
v -0.05684842 0.4034791 0.4108362
v 0.3334889 1.00429 -0.4408765
v 0.3417901 0.8104826 2.936251E-06
v 0.9245724 1.059042 -3.55271E-07
v 0.8677262 1.143152 -0.4408771
v -0.05684482 0.4034791 -0.4408781
v 0 0.3193689 0
v -0.06555459 0.6937839 0.4448055
v -0.502713 0.703415 0.4525977
v -0.4461696 0.7387633 1.071156
v -0.02671425 0.7874054 1.063611
v 0 0.3193691 0
v -0.41945 0.2707271 0.007544818
v 0.2997344 1.025016 0.4374959
v -0.06555459 0.6937839 0.4448055
v -0.02671425 0.7874054 1.063611
v 0.3580932 1.028503 0.9836452
v 0.3848101 0.5604664 -0.07996346
v 0 0.3193691 0
v -0.1587506 0.9042798 -0.07971767
v -0.02143905 0.9529714 -0.4925048
v -0.5169515 1.353224 -0.5699386
v -0.6214767 1.354284 -0.1611984
v 0 0.3193691 0
v 0.1045252 0.3183087 -0.4087402
v -0.1136068 1.143419 0.339596
v -0.1587506 0.9042798 -0.07971767
v -0.6214767 1.354284 -0.1611984
v -0.5668148 1.473219 0.2731333
v 0.05466731 0.4383045 0.4343318
v 0 0.3193691 0

vn -0.218515 0.7359378 -0.6408172
vn -0.02286176 0.8945243 -0.4464343
vn -0.02286178 0.8945243 -0.4464343
vn -0.2004813 0.7546186 -0.6247864
vn -0.3814688 0.5203966 -0.7639823
vn -0.3814688 0.5203966 -0.7639823
vn -0.5993402 0.7764645 -0.1946645
vn -0.4372828 0.8993157 -0.003877491
vn -0.4372828 0.8993157 -0.003877491
vn -0.6431234 0.7220507 -0.2550196
vn -0.7344453 0.5418993 -0.4085768
vn -0.7344453 0.5418993 -0.4085768
vn 0.2571025 0.9097125 -0.3260697
vn 0.03742636 0.9938778 -0.1039525
vn 0.03742636 0.9938778 -0.1039525
vn 0.2440577 0.9178311 -0.3130847
vn 0.4453104 0.736131 -0.5097154
vn 0.4453104 0.736131 -0.5097154
vn -0.2201937 0.7442396 -0.6305728
vn -0.4186817 0.7940437 -0.4406814
vn -0.4186817 0.7940437 -0.4406814
vn -0.1483064 0.7139159 -0.6843459
vn 0.05474198 0.5981763 -0.7994926
vn 0.05474201 0.5981764 -0.7994926
vn 0.3841597 0.516968 0.7649609
vn 0.2811488 0.7468258 0.6026661
vn 0.2811489 0.7468258 0.6026662
vn 0.377565 0.5360116 0.7550737
vn 0.4503851 0.2540752 0.85592
vn 0.4503851 0.2540752 0.85592
vn 0.789282 0.4974692 0.3599423
vn 0.7056333 0.6808129 0.1964059
vn 0.7056334 0.6808129 0.1964059
vn 0.8068237 0.4211004 0.414379
vn 0.8183558 0.2149292 0.5330095
vn 0.8183559 0.2149292 0.5330095
vn 0.2185149 -0.7359378 0.6408173
vn 0.2004812 -0.7546185 0.6247864
vn 0.02286167 -0.8945243 0.4464344
vn 0.02286166 -0.8945243 0.4464344
vn 0.3814688 -0.5203966 0.7639823
vn 0.3814688 -0.5203966 0.7639823
vn 0.5993401 -0.7764645 0.1946645
vn 0.6431234 -0.7220508 0.2550196
vn 0.4372827 -0.8993157 0.003877506
vn 0.4372827 -0.8993157 0.003877506
vn 0.7344454 -0.5418993 0.4085768
vn 0.7344454 -0.5418993 0.4085768
vn -0.2571025 -0.9097125 0.3260698
vn -0.2440578 -0.917831 0.3130847
vn -0.03742639 -0.9938778 0.1039525
vn -0.03742639 -0.9938778 0.1039525
vn -0.4453104 -0.736131 0.5097154
vn -0.4453105 -0.736131 0.5097154
vn 0.2201936 -0.7442396 0.6305728
vn 0.1483064 -0.7139158 0.684346
vn 0.4186818 -0.7940437 0.4406814
vn 0.4186817 -0.7940437 0.4406814
vn -0.05474192 -0.5981763 0.7994926
vn -0.05474192 -0.5981763 0.7994926
vn -0.3841598 -0.516968 -0.7649611
vn -0.3775649 -0.5360115 -0.7550737
vn -0.2811487 -0.7468258 -0.6026662
vn -0.2811487 -0.7468258 -0.6026662
vn -0.4503852 -0.2540752 -0.8559199
vn -0.4503852 -0.2540752 -0.85592
vn -0.789282 -0.4974692 -0.3599423
vn -0.8068237 -0.4211004 -0.414379
vn -0.7056335 -0.6808129 -0.1964059
vn -0.7056334 -0.6808129 -0.1964059
vn -0.8183559 -0.2149292 -0.5330095
vn -0.8183559 -0.2149292 -0.5330095

vt 0.2393799 0.3271484
vt 0.2700195 0.3269043
vt 0.2700195 0.3137207
vt 0.2435303 0.3137207
vt 0.2178955 0.3278809
vt 0.2178955 0.3137207
vt 0.2470703 0.3410645
vt 0.2700195 0.3410645
vt 0.2700195 0.3269043
vt 0.2393799 0.3271484
vt 0.2178955 0.3410645
vt 0.2178955 0.3278809
vt 0.2393799 0.3271484
vt 0.2700195 0.3269043
vt 0.2700195 0.3137207
vt 0.2435303 0.3137207
vt 0.2178955 0.3278809
vt 0.2178955 0.3137207
vt 0.2470703 0.3410645
vt 0.2700195 0.3410645
vt 0.2700195 0.3269043
vt 0.2393799 0.3271484
vt 0.2178955 0.3410645
vt 0.2178955 0.3278809
vt 0.2393799 0.3271484
vt 0.2700195 0.3269043
vt 0.2700195 0.3137207
vt 0.2435303 0.3137207
vt 0.2178955 0.3278809
vt 0.2178955 0.3137207
vt 0.2470703 0.3410645
vt 0.2700195 0.3410645
vt 0.2700195 0.3269043
vt 0.2393799 0.3271484
vt 0.2178955 0.3410645
vt 0.2178955 0.3278809
vt 0.2393799 0.3271484
vt 0.2435303 0.3137207
vt 0.2700195 0.3137207
vt 0.2700195 0.3269043
vt 0.2178955 0.3278809
vt 0.2178955 0.3137207
vt 0.2470703 0.3410645
vt 0.2393799 0.3271484
vt 0.2700195 0.3269043
vt 0.2700195 0.3410645
vt 0.2178955 0.3410645
vt 0.2178955 0.3278809
vt 0.2393799 0.3271484
vt 0.2435303 0.3137207
vt 0.2700195 0.3137207
vt 0.2700195 0.3269043
vt 0.2178955 0.3278809
vt 0.2178955 0.3137207
vt 0.2470703 0.3410645
vt 0.2393799 0.3271484
vt 0.2700195 0.3269043
vt 0.2700195 0.3410645
vt 0.2178955 0.3410645
vt 0.2178955 0.3278809
vt 0.2393799 0.3271484
vt 0.2435303 0.3137207
vt 0.2700195 0.3137207
vt 0.2700195 0.3269043
vt 0.2178955 0.3278809
vt 0.2178955 0.3137207
vt 0.2470703 0.3410645
vt 0.2393799 0.3271484
vt 0.2700195 0.3269043
vt 0.2700195 0.3410645
vt 0.2178955 0.3410645
vt 0.2178955 0.3278809

g Carrot1_Alpha_2761_736
usemtl Carrot1_Alpha_2761_736
usemap Carrot1_Alpha_2761_736
f 1/1/1 3/3/3 2/2/2
f 1/1/1 4/4/4 3/3/3
f 5/5/5 4/4/4 1/1/1
f 5/5/5 6/6/6 4/4/4
f 7/7/7 9/9/9 8/8/8
f 7/7/7 10/10/10 9/9/9
f 11/11/11 10/10/10 7/7/7
f 11/11/11 12/12/12 10/10/10
f 13/13/13 15/15/15 14/14/14
f 13/13/13 16/16/16 15/15/15
f 17/17/17 16/16/16 13/13/13
f 17/17/17 18/18/18 16/16/16
f 19/19/19 21/21/21 20/20/20
f 19/19/19 22/22/22 21/21/21
f 23/23/23 22/22/22 19/19/19
f 23/23/23 24/24/24 22/22/22
f 25/25/25 27/27/27 26/26/26
f 25/25/25 28/28/28 27/27/27
f 29/29/29 28/28/28 25/25/25
f 29/29/29 30/30/30 28/28/28
f 31/31/31 33/33/33 32/32/32
f 31/31/31 34/34/34 33/33/33
f 35/35/35 34/34/34 31/31/31
f 35/35/35 36/36/36 34/34/34
f 37/37/37 39/39/39 38/38/38
f 37/37/37 40/40/40 39/39/39
f 41/41/41 37/37/37 38/38/38
f 41/41/41 38/38/38 42/42/42
f 43/43/43 45/45/45 44/44/44
f 43/43/43 46/46/46 45/45/45
f 47/47/47 43/43/43 44/44/44
f 47/47/47 44/44/44 48/48/48
f 49/49/49 51/51/51 50/50/50
f 49/49/49 52/52/52 51/51/51
f 53/53/53 49/49/49 50/50/50
f 53/53/53 50/50/50 54/54/54
f 55/55/55 57/57/57 56/56/56
f 55/55/55 58/58/58 57/57/57
f 59/59/59 55/55/55 56/56/56
f 59/59/59 56/56/56 60/60/60
f 61/61/61 63/63/63 62/62/62
f 61/61/61 64/64/64 63/63/63
f 65/65/65 61/61/61 62/62/62
f 65/65/65 62/62/62 66/66/66
f 67/67/67 69/69/69 68/68/68
f 67/67/67 70/70/70 69/69/69
f 71/71/71 67/67/67 68/68/68
f 71/71/71 68/68/68 72/72/72
