#Carrot2_Base_2734_145.obj

v -0.001815085 -1.086523 0.007226596
v 0.144895 0.1063361 -0.4278474
v -0.3613211 0.1082309 -0.2703485
v -0.001815085 -1.086523 0.007226596
v -0.36795 0.1117682 0.2597563
v 0.1341683 0.1120603 0.4298756
v 0.4511264 0.1087043 0.004908141
v 0.144895 0.1063361 -0.4278474
v 0.000525586 0.3142963 -0.002092261
v -0.3613211 0.1082309 -0.2703485
v -0.36795 0.1117682 0.2597563
v 0.144895 0.1063361 -0.4278474
v 0.000525586 0.3142963 -0.002092261
v 0.1341683 0.1120603 0.4298756
v 0.4511264 0.1087043 0.004908141
v 0.000525586 0.3142963 -0.002092261
v 0.144895 0.1063361 -0.4278474

vn -0.03957891 -0.9782249 0.203739
vn 0.1973189 -0.2919473 -0.935859
vn -0.868651 -0.1521039 -0.4714976
vn -0.03957891 -0.9782249 0.203739
vn -0.7389393 0.08018087 0.6689841
vn 0.4071968 0.08389736 0.909479
vn 0.9858361 -0.1460905 -0.08236864
vn 0.1973189 -0.2919473 -0.935859
vn 0.03957891 0.9782249 -0.203739
vn -0.868651 -0.1521039 -0.4714976
vn -0.7389393 0.08018087 0.6689841
vn 0.1973189 -0.2919473 -0.935859
vn 0.03957891 0.9782249 -0.203739
vn 0.4071968 0.08389736 0.909479
vn 0.9858361 -0.1460905 -0.08236864
vn 0.03957891 0.9782249 -0.203739
vn 0.1973189 -0.2919473 -0.935859

vt 0.5561523 0.3276367
vt 0.5205078 0.3181152
vt 0.5205078 0.3220215
vt 0.5561523 0.3276367
vt 0.5205078 0.3259277
vt 0.5205078 0.3295898
vt 0.5205078 0.3334961
vt 0.5205078 0.3371582
vt 0.512207 0.3276367
vt 0.5205078 0.3220215
vt 0.5205078 0.3259277
vt 0.5205078 0.3181152
vt 0.512207 0.3276367
vt 0.5205078 0.3295898
vt 0.5205078 0.3334961
vt 0.512207 0.3276367
vt 0.5205078 0.3371582

g Carrot2_Base_2734_145
usemtl Carrot2_Base_2734_145
usemap Carrot2_Base_2734_145
f 1/1/1 3/3/3 2/2/2
f 4/4/4 5/5/5 3/3/3
f 4/4/4 6/6/6 5/5/5
f 4/4/4 7/7/7 6/6/6
f 1/1/1 8/8/8 7/7/7
f 5/5/5 6/6/6 9/9/9
f 10/10/10 11/11/11 9/9/9
f 12/12/12 10/10/10 13/13/13
f 14/14/14 15/15/15 9/9/9
f 15/15/15 17/17/17 16/16/16
