#Carrot1_Base_3157_216.obj

v -1.035913E-06 -0.9705802 -3.671348E-06
v 0.09107116 0.168674 -0.2802935
v -0.2384294 0.168674 -0.1732343
v 0.2947119 0.168674 -3.08794E-06
v 0.09107116 0.168674 -0.2802935
v -1.035913E-06 -0.9705802 -3.671348E-06
v -0.2384294 0.168674 -0.1732343
v -0.2384285 0.168674 0.1732275
v 0.09106973 0.168674 0.280285
v 0.2947119 0.168674 -3.08794E-06
v -1.035913E-06 0.3638395 -3.671348E-06
v 0.09107116 0.168674 -0.2802935
v -1.035913E-06 0.3638395 -3.671348E-06
v -0.2384294 0.168674 -0.1732343
v 0.2947119 0.168674 -3.08794E-06
v -1.035913E-06 0.3638395 -3.671348E-06
v 0.09107116 0.168674 -0.2802935

vn 0 -1 0
vn 0.5547156 -0.05865781 -0.8299698
vn -0.6179318 -0.05865781 -0.7840406
vn 0.9607648 -0.0586578 0.2710909
vn 0.5547156 -0.05865781 -0.8299698
vn 0 -1 0
vn -0.6179318 -0.05865781 -0.7840406
vn -0.9366183 -0.05865781 0.3454062
vn 0.03906977 -0.05865783 0.9975134
vn 0.9607648 -0.0586578 0.2710909
vn 0 1 0
vn 0.5547156 -0.05865781 -0.8299698
vn 0 1 0
vn -0.6179318 -0.05865781 -0.7840406
vn 0.9607648 -0.0586578 0.2710909
vn 0 1 0
vn 0.5547156 -0.05865781 -0.8299698

vt 0.5561523 0.3276367
vt 0.5205078 0.3181152
vt 0.5205078 0.3220215
vt 0.5205078 0.3334961
vt 0.5205078 0.3371582
vt 0.5561523 0.3276367
vt 0.5205078 0.3220215
vt 0.5205078 0.3259277
vt 0.5205078 0.3295898
vt 0.5205078 0.3334961
vt 0.512207 0.3276367
vt 0.5205078 0.3181152
vt 0.512207 0.3276367
vt 0.5205078 0.3220215
vt 0.5205078 0.3334961
vt 0.512207 0.3276367
vt 0.5205078 0.3371582

g Carrot1_Base_3157_216
usemtl Carrot1_Base_3157_216
usemap Carrot1_Base_3157_216
f 1/1/1 3/3/3 2/2/2
f 1/1/1 5/5/5 4/4/4
f 6/6/6 8/8/8 7/7/7
f 6/6/6 9/9/9 8/8/8
f 6/6/6 10/10/10 9/9/9
f 7/7/7 8/8/8 11/11/11
f 9/9/9 10/10/10 11/11/11
f 8/8/8 9/9/9 11/11/11
f 12/12/12 14/14/14 13/13/13
f 15/15/15 17/17/17 16/16/16
