#Carrot2_Alpha_2733_30.obj

v -0.2686788 0.6220993 0.01286713
v -0.7289316 0.804269 0.03485346
v -0.6941158 0.8669439 -0.1963688
v -0.2223422 0.7279158 -0.2185741
v 0.0004406954 0.2640216 -0.001762535
v 0.03525646 0.3266964 -0.2329848
v -0.2505771 0.7613468 0.2599514
v -0.672697 0.8635981 0.2796613
v -0.7289316 0.804269 0.03485346
v -0.2686788 0.6220993 0.01286713
v 0.0566753 0.3233507 0.2430453
v 0.0004406954 0.2640216 -0.001762535
v -0.0578077 0.6365817 0.3439066
v -0.1458711 0.823735 0.8714011
v -0.3878797 0.8873981 0.7900417
v -0.2988896 0.7454546 0.2564016
v 0.0004406917 0.2640217 -0.001762523
v -0.2415641 0.3276847 -0.08312149
v 0.2063722 0.7846726 0.4014597
v 0.1273424 0.888514 0.8756561
v -0.1458711 0.823735 0.8714011
v -0.0578077 0.6365817 0.3439066
v 0.2736571 0.3287995 0.002500424
v 0.0004406917 0.2640217 -0.001762523
v 0.3099295 0.6675242 0.05376705
v 0.8126428 0.9040364 0.1649938
v 0.7083547 0.9763206 0.395512
v 0.1960025 0.7841774 0.279697
v 0.0004406991 0.2640216 -0.001762546
v -0.1038473 0.3363059 0.2287557
v 0.3753704 0.8023056 -0.2156454
v 0.8324341 0.9508809 -0.1111849
v 0.8126428 0.9040364 0.1649938
v 0.3099295 0.6675242 0.05376705
v 0.02023205 0.3108661 -0.2779412
v 0.0004406991 0.2640216 -0.001762546
v -0.1005477 0.6648304 -0.3031412
v -0.2644307 0.8964418 -0.7935847
v -0.01099256 0.9572487 -0.8297975
v 0.1560162 0.7701611 -0.329848
v 0.0004406769 0.2640219 -0.001762478
v 0.2538789 0.3248282 -0.03797544
v -0.3574549 0.8126781 -0.2184547
v -0.5064289 0.9567129 -0.6644968
v -0.2644307 0.8964418 -0.7935847
v -0.1005477 0.6648304 -0.3031412
v -0.2415575 0.3242928 0.1273254
v 0.0004406769 0.2640219 -0.001762478
v -0.2686788 0.6220993 0.01286713
v -0.2223422 0.7279158 -0.2185741
v -0.6941158 0.8669439 -0.1963688
v -0.7289316 0.804269 0.03485346
v 0.0004406954 0.2640216 -0.001762535
v 0.03525646 0.3266964 -0.2329848
v -0.2505771 0.7613468 0.2599514
v -0.2686788 0.6220993 0.01286713
v -0.7289316 0.804269 0.03485346
v -0.672697 0.8635981 0.2796613
v 0.0566753 0.3233507 0.2430453
v 0.0004406954 0.2640216 -0.001762535
v -0.0578077 0.6365817 0.3439066
v -0.2988896 0.7454546 0.2564016
v -0.3878797 0.8873981 0.7900417
v -0.1458711 0.823735 0.8714011
v 0.0004406917 0.2640217 -0.001762523
v -0.2415641 0.3276847 -0.08312149
v 0.2063722 0.7846726 0.4014597
v -0.0578077 0.6365817 0.3439066
v -0.1458711 0.823735 0.8714011
v 0.1273424 0.888514 0.8756561
v 0.2736571 0.3287995 0.002500424
v 0.0004406917 0.2640217 -0.001762523
v 0.3099295 0.6675242 0.05376705
v 0.1960025 0.7841774 0.279697
v 0.7083547 0.9763206 0.395512
v 0.8126428 0.9040364 0.1649938
v 0.0004406991 0.2640216 -0.001762546
v -0.1038473 0.3363059 0.2287557
v 0.3753704 0.8023056 -0.2156454
v 0.3099295 0.6675242 0.05376705
v 0.8126428 0.9040364 0.1649938
v 0.8324341 0.9508809 -0.1111849
v 0.02023205 0.3108661 -0.2779412
v 0.0004406991 0.2640216 -0.001762546
v -0.1005477 0.6648304 -0.3031412
v 0.1560162 0.7701611 -0.329848
v -0.01099256 0.9572487 -0.8297975
v -0.2644307 0.8964418 -0.7935847
v 0.0004406769 0.2640219 -0.001762478
v 0.2538789 0.3248282 -0.03797544
v -0.3574549 0.8126781 -0.2184547
v -0.1005477 0.6648304 -0.3031412
v -0.2644307 0.8964418 -0.7935847
v -0.5064289 0.9567129 -0.6644968
v -0.2415575 0.3242928 0.1273254
v 0.0004406769 0.2640219 -0.001762478

vn 0.6436651 0.7507702 0.1484564
vn 0.3950275 0.9053745 0.1557241
vn 0.3950275 0.9053746 0.1557242
vn 0.6240565 0.7669237 0.1496051
vn 0.8360621 0.533345 0.1286208
vn 0.8360621 0.533345 0.1286208
vn 0.4696709 0.6586952 -0.5878178
vn 0.2481567 0.7697908 -0.5880819
vn 0.2481568 0.7697908 -0.5880819
vn 0.5545554 0.599701 -0.5769115
vn 0.7287688 0.4370314 -0.5271618
vn 0.7287688 0.4370314 -0.5271618
vn 0.4071513 0.656285 -0.6352305
vn 0.3988775 0.8115124 -0.427018
vn 0.3988774 0.8115124 -0.427018
vn 0.4075398 0.6723974 -0.6178939
vn 0.3883164 0.4592901 -0.7989137
vn 0.3883164 0.45929 -0.7989136
vn -0.2943578 0.7211156 -0.6271728
vn -0.3195834 0.83645 -0.4452165
vn -0.3195834 0.83645 -0.4452164
vn -0.2783037 0.6574188 -0.7002481
vn -0.2347923 0.499399 -0.8339504
vn -0.2347923 0.4993989 -0.8339504
vn -0.5023032 0.6285583 -0.5938063
vn -0.2748617 0.7541772 -0.596379
vn -0.2748617 0.7541771 -0.596379
vn -0.4828252 0.6418723 -0.595718
vn -0.6938151 0.4626726 -0.5518647
vn -0.6938151 0.4626725 -0.5518647
vn -0.5350657 0.8412889 0.0770558
vn -0.340546 0.9352663 0.09646426
vn -0.340546 0.9352663 0.09646425
vn -0.6152899 0.7854463 0.06702501
vn -0.7670932 0.6400703 0.04333469
vn -0.7670932 0.6400703 0.04333467
vn -0.04844768 0.8573764 0.5124046
vn -0.1379616 0.9482386 0.2860248
vn -0.1379616 0.9482386 0.2860248
vn -0.0568082 0.868143 0.4930522
vn 0.04325656 0.7106676 0.7021968
vn 0.04325656 0.7106676 0.7021969
vn 0.5659996 0.8063764 0.1714686
vn 0.5033504 0.863624 -0.02814074
vn 0.5033504 0.863624 -0.02814074
vn 0.5857224 0.7677934 0.2596582
vn 0.6088288 0.6599854 0.4401666
vn 0.6088288 0.6599854 0.4401666
vn -0.6436651 -0.7507703 -0.1484562
vn -0.6240564 -0.7669238 -0.149605
vn -0.3950276 -0.9053746 -0.1557241
vn -0.3950276 -0.9053746 -0.1557241
vn -0.836062 -0.5333452 -0.1286207
vn -0.836062 -0.5333451 -0.1286208
vn -0.469671 -0.6586952 0.5878178
vn -0.5545555 -0.599701 0.5769116
vn -0.2481568 -0.7697909 0.5880818
vn -0.2481567 -0.7697909 0.5880818
vn -0.7287688 -0.4370313 0.5271618
vn -0.7287688 -0.4370313 0.5271618
vn -0.4071514 -0.6562849 0.6352305
vn -0.4075399 -0.6723974 0.6178939
vn -0.3988775 -0.8115123 0.427018
vn -0.3988775 -0.8115123 0.427018
vn -0.3883164 -0.45929 0.7989137
vn -0.3883164 -0.45929 0.7989137
vn 0.2943578 -0.7211156 0.6271728
vn 0.2783036 -0.6574189 0.700248
vn 0.3195835 -0.83645 0.4452166
vn 0.3195835 -0.83645 0.4452165
vn 0.2347922 -0.4993991 0.8339503
vn 0.2347922 -0.4993991 0.8339503
vn 0.5023032 -0.6285582 0.5938064
vn 0.4828252 -0.6418722 0.595718
vn 0.2748617 -0.7541771 0.5963791
vn 0.2748617 -0.7541771 0.5963791
vn 0.6938151 -0.4626724 0.5518647
vn 0.6938152 -0.4626724 0.5518647
vn 0.5350658 -0.8412889 -0.07705589
vn 0.61529 -0.7854463 -0.06702513
vn 0.3405461 -0.9352663 -0.09646426
vn 0.3405462 -0.9352663 -0.09646426
vn 0.7670934 -0.6400702 -0.04333486
vn 0.7670934 -0.6400702 -0.04333486
vn 0.04844765 -0.8573765 -0.5124046
vn 0.05680819 -0.8681431 -0.4930522
vn 0.1379615 -0.9482386 -0.2860248
vn 0.1379616 -0.9482386 -0.2860248
vn -0.04325657 -0.7106678 -0.7021968
vn -0.04325657 -0.7106677 -0.7021968
vn -0.5659996 -0.8063764 -0.1714686
vn -0.5857224 -0.7677934 -0.2596583
vn -0.5033501 -0.8636242 0.02814086
vn -0.5033501 -0.8636242 0.02814084
vn -0.6088289 -0.6599851 -0.4401668
vn -0.608829 -0.6599852 -0.4401668

vt 0.2393842 0.3273458
vt 0.2701119 0.3269987
vt 0.2701119 0.3138032
vt 0.2435682 0.3138033
vt 0.2179629 0.3280016
vt 0.2179629 0.3138032
vt 0.2471182 0.341159
vt 0.2701119 0.341159
vt 0.2701119 0.3269987
vt 0.2393842 0.3273458
vt 0.2179629 0.341159
vt 0.2179629 0.3280016
vt 0.2393842 0.3273458
vt 0.2701119 0.3269987
vt 0.2701119 0.3138032
vt 0.2435682 0.3138033
vt 0.2179629 0.3280016
vt 0.2179629 0.3138032
vt 0.2471182 0.341159
vt 0.2701119 0.341159
vt 0.2701119 0.3269987
vt 0.2393842 0.3273458
vt 0.2179629 0.341159
vt 0.2179629 0.3280016
vt 0.2439241 0.3273458
vt 0.2701119 0.3269987
vt 0.2701119 0.3138032
vt 0.2474899 0.3138033
vt 0.2256678 0.3280016
vt 0.2256678 0.3138032
vt 0.2505155 0.341159
vt 0.2701119 0.341159
vt 0.2701119 0.3269987
vt 0.2439241 0.3273458
vt 0.2256678 0.341159
vt 0.2256678 0.3280016
vt 0.2439241 0.3273458
vt 0.2701119 0.3269987
vt 0.2701119 0.3138032
vt 0.2474899 0.3138033
vt 0.2256678 0.3280016
vt 0.2256678 0.3138032
vt 0.2505155 0.341159
vt 0.2701119 0.341159
vt 0.2701119 0.3269987
vt 0.2439241 0.3273458
vt 0.2256678 0.341159
vt 0.2256678 0.3280016
vt 0.2393842 0.3273458
vt 0.2435682 0.3138033
vt 0.2701119 0.3138032
vt 0.2701119 0.3269987
vt 0.2179629 0.3280016
vt 0.2179629 0.3138032
vt 0.2471182 0.341159
vt 0.2393842 0.3273458
vt 0.2701119 0.3269987
vt 0.2701119 0.341159
vt 0.2179629 0.341159
vt 0.2179629 0.3280016
vt 0.2393842 0.3273458
vt 0.2435682 0.3138033
vt 0.2701119 0.3138032
vt 0.2701119 0.3269987
vt 0.2179629 0.3280016
vt 0.2179629 0.3138032
vt 0.2471182 0.341159
vt 0.2393842 0.3273458
vt 0.2701119 0.3269987
vt 0.2701119 0.341159
vt 0.2179629 0.341159
vt 0.2179629 0.3280016
vt 0.2439241 0.3273458
vt 0.2474899 0.3138033
vt 0.2701119 0.3138032
vt 0.2701119 0.3269987
vt 0.2256678 0.3280016
vt 0.2256678 0.3138032
vt 0.2505155 0.341159
vt 0.2439241 0.3273458
vt 0.2701119 0.3269987
vt 0.2701119 0.341159
vt 0.2256678 0.341159
vt 0.2256678 0.3280016
vt 0.2439241 0.3273458
vt 0.2474899 0.3138033
vt 0.2701119 0.3138032
vt 0.2701119 0.3269987
vt 0.2256678 0.3280016
vt 0.2256678 0.3138032
vt 0.2505155 0.341159
vt 0.2439241 0.3273458
vt 0.2701119 0.3269987
vt 0.2701119 0.341159
vt 0.2256678 0.341159
vt 0.2256678 0.3280016

g Carrot2_Alpha_2733_30
usemtl Carrot2_Alpha_2733_30
usemap Carrot2_Alpha_2733_30
f 1/1/1 3/3/3 2/2/2
f 1/1/1 4/4/4 3/3/3
f 5/5/5 4/4/4 1/1/1
f 5/5/5 6/6/6 4/4/4
f 7/7/7 9/9/9 8/8/8
f 7/7/7 10/10/10 9/9/9
f 11/11/11 10/10/10 7/7/7
f 11/11/11 12/12/12 10/10/10
f 13/13/13 15/15/15 14/14/14
f 13/13/13 16/16/16 15/15/15
f 17/17/17 16/16/16 13/13/13
f 17/17/17 18/18/18 16/16/16
f 19/19/19 21/21/21 20/20/20
f 19/19/19 22/22/22 21/21/21
f 23/23/23 22/22/22 19/19/19
f 23/23/23 24/24/24 22/22/22
f 25/25/25 27/27/27 26/26/26
f 25/25/25 28/28/28 27/27/27
f 29/29/29 28/28/28 25/25/25
f 29/29/29 30/30/30 28/28/28
f 31/31/31 33/33/33 32/32/32
f 31/31/31 34/34/34 33/33/33
f 35/35/35 34/34/34 31/31/31
f 35/35/35 36/36/36 34/34/34
f 37/37/37 39/39/39 38/38/38
f 37/37/37 40/40/40 39/39/39
f 41/41/41 40/40/40 37/37/37
f 41/41/41 42/42/42 40/40/40
f 43/43/43 45/45/45 44/44/44
f 43/43/43 46/46/46 45/45/45
f 47/47/47 46/46/46 43/43/43
f 47/47/47 48/48/48 46/46/46
f 49/49/49 51/51/51 50/50/50
f 49/49/49 52/52/52 51/51/51
f 53/53/53 49/49/49 50/50/50
f 53/53/53 50/50/50 54/54/54
f 55/55/55 57/57/57 56/56/56
f 55/55/55 58/58/58 57/57/57
f 59/59/59 55/55/55 56/56/56
f 59/59/59 56/56/56 60/60/60
f 61/61/61 63/63/63 62/62/62
f 61/61/61 64/64/64 63/63/63
f 65/65/65 61/61/61 62/62/62
f 65/65/65 62/62/62 66/66/66
f 67/67/67 69/69/69 68/68/68
f 67/67/67 70/70/70 69/69/69
f 71/71/71 67/67/67 68/68/68
f 71/71/71 68/68/68 72/72/72
f 73/73/73 75/75/75 74/74/74
f 73/73/73 76/76/76 75/75/75
f 77/77/77 73/73/73 74/74/74
f 77/77/77 74/74/74 78/78/78
f 79/79/79 81/81/81 80/80/80
f 79/79/79 82/82/82 81/81/81
f 83/83/83 79/79/79 80/80/80
f 83/83/83 80/80/80 84/84/84
f 85/85/85 87/87/87 86/86/86
f 85/85/85 88/88/88 87/87/87
f 89/89/89 85/85/85 86/86/86
f 89/89/89 86/86/86 90/90/90
f 91/91/91 93/93/93 92/92/92
f 91/91/91 94/94/94 93/93/93
f 95/95/95 91/91/91 92/92/92
f 95/95/95 92/92/92 96/96/96
