#Carrot1_Base_1300_127.obj

v 0 -0.9705801 0
v 0.09107117 0.168674 -0.2802885
v -0.2384286 0.168674 -0.1732277
v 0.2947137 0.168674 -1.316565E-06
v 0.09107117 0.168674 -0.2802885
v 0 -0.9705801 0
v -0.2384286 0.168674 -0.1732277
v -0.2384283 0.168674 0.1732288
v 0.09107199 0.168674 0.2802888
v 0.2947137 0.168674 -1.316565E-06
v 0 0.3638395 0
v 0.09107117 0.168674 -0.2802885
v 0 0.3638395 0
v -0.2384286 0.168674 -0.1732277
v 0.2947137 0.168674 -1.316565E-06
v 0 0.3638395 0
v 0.09107117 0.168674 -0.2802885

vn 0 -1 0
vn -0.4531114 -0.05865781 -0.889522
vn -0.9860048 -0.05865781 0.1560572
vn 0.7059665 -0.0586578 -0.705812
vn -0.4531114 -0.05865781 -0.889522
vn 0 -1 0
vn -0.9860048 -0.05865781 0.1560572
vn -0.156273 -0.05865781 0.9859706
vn 0.8894227 -0.05865783 0.4533062
vn 0.7059665 -0.0586578 -0.705812
vn 0 1 0
vn -0.4531114 -0.05865781 -0.889522
vn 0 1 0
vn -0.9860048 -0.05865781 0.1560572
vn 0.7059665 -0.0586578 -0.705812
vn 0 1 0
vn -0.4531114 -0.05865781 -0.889522

vt 0.5561523 0.3276367
vt 0.5205078 0.3181152
vt 0.5205078 0.3220215
vt 0.5205078 0.3334961
vt 0.5205078 0.3371582
vt 0.5561523 0.3276367
vt 0.5205078 0.3220215
vt 0.5205078 0.3259277
vt 0.5205078 0.3295898
vt 0.5205078 0.3334961
vt 0.512207 0.3276367
vt 0.5205078 0.3181152
vt 0.512207 0.3276367
vt 0.5205078 0.3220215
vt 0.5205078 0.3334961
vt 0.512207 0.3276367
vt 0.5205078 0.3371582

g Carrot1_Base_1300_127
usemtl Carrot1_Base_1300_127
usemap Carrot1_Base_1300_127
f 1/1/1 3/3/3 2/2/2
f 1/1/1 5/5/5 4/4/4
f 6/6/6 8/8/8 7/7/7
f 6/6/6 9/9/9 8/8/8
f 6/6/6 10/10/10 9/9/9
f 7/7/7 8/8/8 11/11/11
f 9/9/9 10/10/10 11/11/11
f 8/8/8 9/9/9 11/11/11
f 12/12/12 14/14/14 13/13/13
f 15/15/15 17/17/17 16/16/16
