#Carrot1_Alpha_1580_274.obj

v 0.341789 0.8104826 2.327028E-07
v 0.9245732 1.059042 -3.155825E-07
v 0.8677266 1.143152 0.4108378
v 0.2705502 0.9539374 0.4108375
v 0 0.3193689 0
v -0.05684673 0.4034791 0.4108377
v 0.3334895 1.00429 -0.440877
v 0.867727 1.143152 -0.4408774
v 0.9245732 1.059042 -3.155825E-07
v 0.341789 0.8104826 2.327028E-07
v -0.05684614 0.4034791 -0.4408771
v 0 0.3193689 0
v -0.06555227 0.6937839 0.4448065
v -0.02671672 0.7874054 1.063609
v -0.4461685 0.7387633 1.071155
v -0.5027118 0.703415 0.452598
v 0 0.3193691 0
v -0.4194518 0.2707271 0.007546009
v 0.2997332 1.025016 0.4374951
v 0.3580946 1.028503 0.9836476
v -0.02671672 0.7874054 1.063609
v -0.06555227 0.6937839 0.4448065
v 0.3848133 0.5604664 -0.07996146
v 0 0.3193691 0
v -0.15875 0.9042798 -0.07971976
v -0.6214779 1.354284 -0.1611959
v -0.5169514 1.353224 -0.5699365
v -0.02143953 0.9529714 -0.4925036
v 0 0.3193691 0
v 0.1045265 0.3183087 -0.4087407
v -0.1136069 1.143419 0.3395931
v -0.566814 1.473219 0.2731342
v -0.6214779 1.354284 -0.1611959
v -0.15875 0.9042798 -0.07971976
v 0.05466389 0.4383045 0.43433
v 0 0.3193691 0
v 0.341789 0.8104826 2.327028E-07
v 0.2705502 0.9539374 0.4108375
v 0.8677266 1.143152 0.4108378
v 0.9245732 1.059042 -3.155825E-07
v 0 0.3193689 0
v -0.05684673 0.4034791 0.4108377
v 0.3334895 1.00429 -0.440877
v 0.341789 0.8104826 2.327028E-07
v 0.9245732 1.059042 -3.155825E-07
v 0.867727 1.143152 -0.4408774
v -0.05684614 0.4034791 -0.4408771
v 0 0.3193689 0
v -0.06555227 0.6937839 0.4448065
v -0.5027118 0.703415 0.452598
v -0.4461685 0.7387633 1.071155
v -0.02671672 0.7874054 1.063609
v 0 0.3193691 0
v -0.4194518 0.2707271 0.007546009
v 0.2997332 1.025016 0.4374951
v -0.06555227 0.6937839 0.4448065
v -0.02671672 0.7874054 1.063609
v 0.3580946 1.028503 0.9836476
v 0.3848133 0.5604664 -0.07996146
v 0 0.3193691 0
v -0.15875 0.9042798 -0.07971976
v -0.02143953 0.9529714 -0.4925036
v -0.5169514 1.353224 -0.5699365
v -0.6214779 1.354284 -0.1611959
v 0 0.3193691 0
v 0.1045265 0.3183087 -0.4087407
v -0.1136069 1.143419 0.3395931
v -0.15875 0.9042798 -0.07971976
v -0.6214779 1.354284 -0.1611959
v -0.566814 1.473219 0.2731342
v 0.05466389 0.4383045 0.43433
v 0 0.3193691 0

vn -0.4523457 0.7359378 0.5037647
vn -0.3783444 0.8945243 0.2380794
vn -0.3783444 0.8945243 0.2380794
vn -0.4471703 0.7546186 0.4801975
vn -0.4801866 0.5203966 0.7061221
vn -0.4801866 0.5203966 0.7061221
vn 0.1229987 0.7764645 0.6180407
vn 0.2102778 0.8993157 0.3834248
vn 0.2102778 0.8993157 0.3834248
vn 0.09173164 0.7220507 0.6857318
vn 0.002373412 0.5418993 0.8404401
vn 0.002373412 0.5418993 0.8404401
vn -0.4101195 0.9097125 -0.06500143
vn -0.1089857 0.9938778 0.01813769
vn -0.1089857 0.9938778 0.01813769
vn -0.3924162 0.9178311 -0.05996451
vn -0.6623111 0.736131 -0.1394821
vn -0.6623111 0.736131 -0.1394821
vn -0.4425873 0.7442396 0.5002239
vn -0.1799233 0.7940437 0.5806222
vn -0.1799233 0.7940437 0.5806223
vn -0.5246293 0.7139159 0.4637761
vn -0.7243065 0.5981763 0.3428779
vn -0.7243066 0.5981764 0.3428779
vn 0.4797257 0.516968 -0.7089481
vn 0.3884553 0.7468258 -0.5397719
vn 0.3884553 0.7468258 -0.5397719
vn 0.4743213 0.5360116 -0.6983631
vn 0.5267292 0.2540752 -0.8111733
vn 0.5267292 0.2540752 -0.8111733
vn -0.07160085 0.4974692 -0.8645218
vn -0.1734152 0.6808129 -0.7116326
vn -0.1734152 0.6808129 -0.7116327
vn -0.03267579 0.4211004 -0.9064254
vn 0.06519483 0.2149292 -0.9744513
vn 0.06519482 0.2149292 -0.9744513
vn 0.4523458 -0.7359378 -0.5037647
vn 0.4471703 -0.7546185 -0.4801974
vn 0.3783446 -0.8945243 -0.2380794
vn 0.3783446 -0.8945243 -0.2380793
vn 0.4801866 -0.5203966 -0.7061221
vn 0.4801866 -0.5203966 -0.7061221
vn -0.1229986 -0.7764645 -0.6180407
vn -0.09173164 -0.7220508 -0.6857318
vn -0.2102777 -0.8993157 -0.3834248
vn -0.2102777 -0.8993157 -0.3834248
vn -0.002373427 -0.5418993 -0.8404401
vn -0.002373427 -0.5418993 -0.8404401
vn 0.4101196 -0.9097125 0.06500144
vn 0.3924163 -0.917831 0.05996453
vn 0.1089857 -0.9938778 -0.01813767
vn 0.1089857 -0.9938778 -0.01813767
vn 0.6623111 -0.736131 0.1394821
vn 0.6623112 -0.736131 0.1394821
vn 0.4425873 -0.7442396 -0.5002239
vn 0.5246294 -0.7139158 -0.4637763
vn 0.1799232 -0.7940437 -0.5806223
vn 0.1799232 -0.7940437 -0.5806223
vn 0.7243065 -0.5981763 -0.342878
vn 0.7243065 -0.5981763 -0.342878
vn -0.4797257 -0.516968 0.7089482
vn -0.4743214 -0.5360115 0.6983631
vn -0.3884555 -0.7468258 0.5397719
vn -0.3884555 -0.7468258 0.5397719
vn -0.5267292 -0.2540752 0.8111734
vn -0.5267292 -0.2540752 0.8111734
vn 0.07160085 -0.4974692 0.8645218
vn 0.03267579 -0.4211004 0.9064254
vn 0.1734153 -0.6808129 0.7116327
vn 0.1734152 -0.6808129 0.7116327
vn -0.06519482 -0.2149292 0.9744513
vn -0.06519482 -0.2149292 0.9744513

vt 0.2393799 0.3271484
vt 0.2700195 0.3269043
vt 0.2700195 0.3137207
vt 0.2435303 0.3137207
vt 0.2178955 0.3278809
vt 0.2178955 0.3137207
vt 0.2470703 0.3410645
vt 0.2700195 0.3410645
vt 0.2700195 0.3269043
vt 0.2393799 0.3271484
vt 0.2178955 0.3410645
vt 0.2178955 0.3278809
vt 0.2393799 0.3271484
vt 0.2700195 0.3269043
vt 0.2700195 0.3137207
vt 0.2435303 0.3137207
vt 0.2178955 0.3278809
vt 0.2178955 0.3137207
vt 0.2470703 0.3410645
vt 0.2700195 0.3410645
vt 0.2700195 0.3269043
vt 0.2393799 0.3271484
vt 0.2178955 0.3410645
vt 0.2178955 0.3278809
vt 0.2393799 0.3271484
vt 0.2700195 0.3269043
vt 0.2700195 0.3137207
vt 0.2435303 0.3137207
vt 0.2178955 0.3278809
vt 0.2178955 0.3137207
vt 0.2470703 0.3410645
vt 0.2700195 0.3410645
vt 0.2700195 0.3269043
vt 0.2393799 0.3271484
vt 0.2178955 0.3410645
vt 0.2178955 0.3278809
vt 0.2393799 0.3271484
vt 0.2435303 0.3137207
vt 0.2700195 0.3137207
vt 0.2700195 0.3269043
vt 0.2178955 0.3278809
vt 0.2178955 0.3137207
vt 0.2470703 0.3410645
vt 0.2393799 0.3271484
vt 0.2700195 0.3269043
vt 0.2700195 0.3410645
vt 0.2178955 0.3410645
vt 0.2178955 0.3278809
vt 0.2393799 0.3271484
vt 0.2435303 0.3137207
vt 0.2700195 0.3137207
vt 0.2700195 0.3269043
vt 0.2178955 0.3278809
vt 0.2178955 0.3137207
vt 0.2470703 0.3410645
vt 0.2393799 0.3271484
vt 0.2700195 0.3269043
vt 0.2700195 0.3410645
vt 0.2178955 0.3410645
vt 0.2178955 0.3278809
vt 0.2393799 0.3271484
vt 0.2435303 0.3137207
vt 0.2700195 0.3137207
vt 0.2700195 0.3269043
vt 0.2178955 0.3278809
vt 0.2178955 0.3137207
vt 0.2470703 0.3410645
vt 0.2393799 0.3271484
vt 0.2700195 0.3269043
vt 0.2700195 0.3410645
vt 0.2178955 0.3410645
vt 0.2178955 0.3278809

g Carrot1_Alpha_1580_274
usemtl Carrot1_Alpha_1580_274
usemap Carrot1_Alpha_1580_274
f 1/1/1 3/3/3 2/2/2
f 1/1/1 4/4/4 3/3/3
f 5/5/5 4/4/4 1/1/1
f 5/5/5 6/6/6 4/4/4
f 7/7/7 9/9/9 8/8/8
f 7/7/7 10/10/10 9/9/9
f 11/11/11 10/10/10 7/7/7
f 11/11/11 12/12/12 10/10/10
f 13/13/13 15/15/15 14/14/14
f 13/13/13 16/16/16 15/15/15
f 17/17/17 16/16/16 13/13/13
f 17/17/17 18/18/18 16/16/16
f 19/19/19 21/21/21 20/20/20
f 19/19/19 22/22/22 21/21/21
f 23/23/23 22/22/22 19/19/19
f 23/23/23 24/24/24 22/22/22
f 25/25/25 27/27/27 26/26/26
f 25/25/25 28/28/28 27/27/27
f 29/29/29 28/28/28 25/25/25
f 29/29/29 30/30/30 28/28/28
f 31/31/31 33/33/33 32/32/32
f 31/31/31 34/34/34 33/33/33
f 35/35/35 34/34/34 31/31/31
f 35/35/35 36/36/36 34/34/34
f 37/37/37 39/39/39 38/38/38
f 37/37/37 40/40/40 39/39/39
f 41/41/41 37/37/37 38/38/38
f 41/41/41 38/38/38 42/42/42
f 43/43/43 45/45/45 44/44/44
f 43/43/43 46/46/46 45/45/45
f 47/47/47 43/43/43 44/44/44
f 47/47/47 44/44/44 48/48/48
f 49/49/49 51/51/51 50/50/50
f 49/49/49 52/52/52 51/51/51
f 53/53/53 49/49/49 50/50/50
f 53/53/53 50/50/50 54/54/54
f 55/55/55 57/57/57 56/56/56
f 55/55/55 58/58/58 57/57/57
f 59/59/59 55/55/55 56/56/56
f 59/59/59 56/56/56 60/60/60
f 61/61/61 63/63/63 62/62/62
f 61/61/61 64/64/64 63/63/63
f 65/65/65 61/61/61 62/62/62
f 65/65/65 62/62/62 66/66/66
f 67/67/67 69/69/69 68/68/68
f 67/67/67 70/70/70 69/69/69
f 71/71/71 67/67/67 68/68/68
f 71/71/71 68/68/68 72/72/72
