#Carrot1_Base_3038_137.obj

v 0 -0.9705802 -3.814697E-06
v 0.09107208 0.168674 -0.2802925
v -0.23843 0.168674 -0.1732292
v 0.2947121 0.168674 -3.814697E-06
v 0.09107208 0.168674 -0.2802925
v 0 -0.9705802 -3.814697E-06
v -0.23843 0.168674 -0.1732292
v -0.23843 0.168674 0.1732216
v 0.09107208 0.168674 0.2802849
v 0.2947121 0.168674 -3.814697E-06
v 0 0.3638395 -3.814697E-06
v 0.09107208 0.168674 -0.2802925
v 0 0.3638395 -3.814697E-06
v -0.23843 0.168674 -0.1732292
v 0.2947121 0.168674 -3.814697E-06
v 0 0.3638395 -3.814697E-06
v 0.09107208 0.168674 -0.2802925

vn 0 -1 0
vn 0.3084851 -0.05865781 -0.9494189
vn -0.807624 -0.05865781 -0.5867732
vn 0.9982781 -0.0586578 0
vn 0.3084851 -0.05865781 -0.9494189
vn 0 -1 0
vn -0.807624 -0.05865781 -0.5867732
vn -0.807624 -0.05865781 0.5867732
vn 0.3084849 -0.05865783 0.949419
vn 0.9982781 -0.0586578 0
vn 0 1 0
vn 0.3084851 -0.05865781 -0.9494189
vn 0 1 0
vn -0.807624 -0.05865781 -0.5867732
vn 0.9982781 -0.0586578 0
vn 0 1 0
vn 0.3084851 -0.05865781 -0.9494189

vt 0.5561523 0.3276367
vt 0.5205078 0.3181152
vt 0.5205078 0.3220215
vt 0.5205078 0.3334961
vt 0.5205078 0.3371582
vt 0.5561523 0.3276367
vt 0.5205078 0.3220215
vt 0.5205078 0.3259277
vt 0.5205078 0.3295898
vt 0.5205078 0.3334961
vt 0.512207 0.3276367
vt 0.5205078 0.3181152
vt 0.512207 0.3276367
vt 0.5205078 0.3220215
vt 0.5205078 0.3334961
vt 0.512207 0.3276367
vt 0.5205078 0.3371582

g Carrot1_Base_3038_137
usemtl Carrot1_Base_3038_137
usemap Carrot1_Base_3038_137
f 1/1/1 3/3/3 2/2/2
f 1/1/1 5/5/5 4/4/4
f 6/6/6 8/8/8 7/7/7
f 6/6/6 9/9/9 8/8/8
f 6/6/6 10/10/10 9/9/9
f 7/7/7 8/8/8 11/11/11
f 9/9/9 10/10/10 11/11/11
f 8/8/8 9/9/9 11/11/11
f 12/12/12 14/14/14 13/13/13
f 15/15/15 17/17/17 16/16/16
