#Carrot1_Alpha_3039_469.obj

v 0.3417892 0.8104826 -3.814697E-06
v 0.924572 1.059042 -3.814697E-06
v 0.8677254 1.143152 0.4108315
v 0.2705498 0.9539374 0.4108315
v 0 0.3193689 -3.814697E-06
v -0.05684662 0.4034791 0.4108315
v 0.3334885 1.00429 -0.4408836
v 0.8677254 1.143152 -0.4408836
v 0.924572 1.059042 -3.814697E-06
v 0.3417892 0.8104826 -3.814697E-06
v -0.05684662 0.4034791 -0.4408836
v 0 0.3193689 -3.814697E-06
v -0.06555176 0.6937839 0.4448051
v -0.02671814 0.7874054 1.063602
v -0.446167 0.7387633 1.071148
v -0.5027122 0.703415 0.4525948
v 0 0.3193691 -3.814697E-06
v -0.4194527 0.2707271 0.007541656
v 0.2997322 1.025016 0.4374886
v 0.3580971 1.028503 0.9836464
v -0.02671814 0.7874054 1.063602
v -0.06555176 0.6937839 0.4448051
v 0.3848114 0.5604664 -0.0799675
v 0 0.3193691 -3.814697E-06
v -0.1587486 0.9042798 -0.07972336
v -0.6214752 1.354284 -0.1611977
v -0.5169525 1.353224 -0.5699425
v -0.0214386 0.9529714 -0.4925041
v 0 0.3193691 -3.814697E-06
v 0.1045265 0.3183087 -0.408741
v -0.1136093 1.143419 0.3395882
v -0.5668144 1.473219 0.2731285
v -0.6214752 1.354284 -0.1611977
v -0.1587486 0.9042798 -0.07972336
v 0.05466461 0.4383045 0.4343224
v 0 0.3193691 -3.814697E-06
v 0.3417892 0.8104826 -3.814697E-06
v 0.2705498 0.9539374 0.4108315
v 0.8677254 1.143152 0.4108315
v 0.924572 1.059042 -3.814697E-06
v 0 0.3193689 -3.814697E-06
v -0.05684662 0.4034791 0.4108315
v 0.3334885 1.00429 -0.4408836
v 0.3417892 0.8104826 -3.814697E-06
v 0.924572 1.059042 -3.814697E-06
v 0.8677254 1.143152 -0.4408836
v -0.05684662 0.4034791 -0.4408836
v 0 0.3193689 -3.814697E-06
v -0.06555176 0.6937839 0.4448051
v -0.5027122 0.703415 0.4525948
v -0.446167 0.7387633 1.071148
v -0.02671814 0.7874054 1.063602
v 0 0.3193691 -3.814697E-06
v -0.4194527 0.2707271 0.007541656
v 0.2997322 1.025016 0.4374886
v -0.06555176 0.6937839 0.4448051
v -0.02671814 0.7874054 1.063602
v 0.3580971 1.028503 0.9836464
v 0.3848114 0.5604664 -0.0799675
v 0 0.3193691 -3.814697E-06
v -0.1587486 0.9042798 -0.07972336
v -0.0214386 0.9529714 -0.4925041
v -0.5169525 1.353224 -0.5699425
v -0.6214752 1.354284 -0.1611977
v 0 0.3193691 -3.814697E-06
v 0.1045265 0.3183087 -0.408741
v -0.1136093 1.143419 0.3395882
v -0.1587486 0.9042798 -0.07972336
v -0.6214752 1.354284 -0.1611977
v -0.5668144 1.473219 0.2731285
v 0.05466461 0.4383045 0.4343224
v 0 0.3193691 -3.814697E-06

vn -0.6076724 0.7359378 -0.298546
vn -0.3318754 0.8945243 -0.2994746
vn -0.3318754 0.8945243 -0.2994746
vn -0.5835853 0.7546186 -0.299965
vn -0.8099859 0.5203966 -0.2703889
vn -0.8099859 0.5203966 -0.2703889
vn -0.5614147 0.7764645 0.2862106
vn -0.3119138 0.8993157 0.3064981
vn -0.3119138 0.8993157 0.3064981
vn -0.6350529 0.7220507 0.2745006
vn -0.8082135 0.5418993 0.2305126
vn -0.8082135 0.5418993 0.2305126
vn -0.0488125 0.9097125 -0.4123597
vn -0.04705206 0.9938778 -0.09996478
vn -0.04705206 0.9938778 -0.09996478
vn -0.04885267 0.9178311 -0.3939538
vn -0.04561537 0.736131 -0.6753002
vn -0.04561536 0.736131 -0.6753002
vn -0.6016146 0.7442396 -0.2901158
vn -0.6076632 0.7940437 -0.01548939
vn -0.6076632 0.7940437 -0.01548939
vn -0.5888157 0.7139159 -0.3789725
vn -0.5266845 0.5981763 -0.6039772
vn -0.5266845 0.5981764 -0.6039773
vn 0.8125806 0.516968 0.2691779
vn 0.6249765 0.7468258 0.2272785
vn 0.6249766 0.7468258 0.2272784
vn 0.8009258 0.5360116 0.266851
vn 0.9237286 0.2540752 0.286655
vn 0.9237286 0.2540752 0.286655
vn 0.812591 0.4974692 -0.3036782
vn 0.6377985 0.6808129 -0.3601482
vn 0.6377985 0.6808129 -0.3601483
vn 0.8634902 0.4211004 -0.2775951
vn 0.9555374 0.2149292 -0.2018753
vn 0.9555374 0.2149292 -0.2018753
vn 0.6076724 -0.7359378 0.2985461
vn 0.5835853 -0.7546185 0.299965
vn 0.3318754 -0.8945243 0.2994747
vn 0.3318753 -0.8945243 0.2994747
vn 0.8099859 -0.5203966 0.2703889
vn 0.8099859 -0.5203966 0.2703889
vn 0.5614146 -0.7764645 -0.2862105
vn 0.6350529 -0.7220508 -0.2745006
vn 0.3119137 -0.8993157 -0.306498
vn 0.3119137 -0.8993157 -0.306498
vn 0.8082135 -0.5418993 -0.2305126
vn 0.8082135 -0.5418993 -0.2305126
vn 0.04881251 -0.9097125 0.4123597
vn 0.04885267 -0.917831 0.3939539
vn 0.04705205 -0.9938778 0.09996481
vn 0.04705206 -0.9938778 0.09996481
vn 0.04561537 -0.736131 0.6753002
vn 0.04561538 -0.736131 0.6753003
vn 0.6016146 -0.7442396 0.2901158
vn 0.5888158 -0.7139158 0.3789726
vn 0.6076632 -0.7940437 0.01548935
vn 0.6076632 -0.7940437 0.01548935
vn 0.5266846 -0.5981763 0.6039771
vn 0.5266846 -0.5981763 0.6039771
vn -0.8125807 -0.516968 -0.2691779
vn -0.8009258 -0.5360115 -0.2668511
vn -0.6249765 -0.7468258 -0.2272786
vn -0.6249765 -0.7468258 -0.2272786
vn -0.9237286 -0.2540752 -0.2866549
vn -0.9237287 -0.2540752 -0.2866549
vn -0.812591 -0.4974692 0.3036782
vn -0.8634902 -0.4211004 0.2775951
vn -0.6377986 -0.6808129 0.3601483
vn -0.6377985 -0.6808129 0.3601483
vn -0.9555374 -0.2149292 0.2018753
vn -0.9555374 -0.2149292 0.2018753

vt 0.2393799 0.3271484
vt 0.2700195 0.3269043
vt 0.2700195 0.3137207
vt 0.2435303 0.3137207
vt 0.2178955 0.3278809
vt 0.2178955 0.3137207
vt 0.2470703 0.3410645
vt 0.2700195 0.3410645
vt 0.2700195 0.3269043
vt 0.2393799 0.3271484
vt 0.2178955 0.3410645
vt 0.2178955 0.3278809
vt 0.2393799 0.3271484
vt 0.2700195 0.3269043
vt 0.2700195 0.3137207
vt 0.2435303 0.3137207
vt 0.2178955 0.3278809
vt 0.2178955 0.3137207
vt 0.2470703 0.3410645
vt 0.2700195 0.3410645
vt 0.2700195 0.3269043
vt 0.2393799 0.3271484
vt 0.2178955 0.3410645
vt 0.2178955 0.3278809
vt 0.2393799 0.3271484
vt 0.2700195 0.3269043
vt 0.2700195 0.3137207
vt 0.2435303 0.3137207
vt 0.2178955 0.3278809
vt 0.2178955 0.3137207
vt 0.2470703 0.3410645
vt 0.2700195 0.3410645
vt 0.2700195 0.3269043
vt 0.2393799 0.3271484
vt 0.2178955 0.3410645
vt 0.2178955 0.3278809
vt 0.2393799 0.3271484
vt 0.2435303 0.3137207
vt 0.2700195 0.3137207
vt 0.2700195 0.3269043
vt 0.2178955 0.3278809
vt 0.2178955 0.3137207
vt 0.2470703 0.3410645
vt 0.2393799 0.3271484
vt 0.2700195 0.3269043
vt 0.2700195 0.3410645
vt 0.2178955 0.3410645
vt 0.2178955 0.3278809
vt 0.2393799 0.3271484
vt 0.2435303 0.3137207
vt 0.2700195 0.3137207
vt 0.2700195 0.3269043
vt 0.2178955 0.3278809
vt 0.2178955 0.3137207
vt 0.2470703 0.3410645
vt 0.2393799 0.3271484
vt 0.2700195 0.3269043
vt 0.2700195 0.3410645
vt 0.2178955 0.3410645
vt 0.2178955 0.3278809
vt 0.2393799 0.3271484
vt 0.2435303 0.3137207
vt 0.2700195 0.3137207
vt 0.2700195 0.3269043
vt 0.2178955 0.3278809
vt 0.2178955 0.3137207
vt 0.2470703 0.3410645
vt 0.2393799 0.3271484
vt 0.2700195 0.3269043
vt 0.2700195 0.3410645
vt 0.2178955 0.3410645
vt 0.2178955 0.3278809

g Carrot1_Alpha_3039_469
usemtl Carrot1_Alpha_3039_469
usemap Carrot1_Alpha_3039_469
f 1/1/1 3/3/3 2/2/2
f 1/1/1 4/4/4 3/3/3
f 5/5/5 4/4/4 1/1/1
f 5/5/5 6/6/6 4/4/4
f 7/7/7 9/9/9 8/8/8
f 7/7/7 10/10/10 9/9/9
f 11/11/11 10/10/10 7/7/7
f 11/11/11 12/12/12 10/10/10
f 13/13/13 15/15/15 14/14/14
f 13/13/13 16/16/16 15/15/15
f 17/17/17 16/16/16 13/13/13
f 17/17/17 18/18/18 16/16/16
f 19/19/19 21/21/21 20/20/20
f 19/19/19 22/22/22 21/21/21
f 23/23/23 22/22/22 19/19/19
f 23/23/23 24/24/24 22/22/22
f 25/25/25 27/27/27 26/26/26
f 25/25/25 28/28/28 27/27/27
f 29/29/29 28/28/28 25/25/25
f 29/29/29 30/30/30 28/28/28
f 31/31/31 33/33/33 32/32/32
f 31/31/31 34/34/34 33/33/33
f 35/35/35 34/34/34 31/31/31
f 35/35/35 36/36/36 34/34/34
f 37/37/37 39/39/39 38/38/38
f 37/37/37 40/40/40 39/39/39
f 41/41/41 37/37/37 38/38/38
f 41/41/41 38/38/38 42/42/42
f 43/43/43 45/45/45 44/44/44
f 43/43/43 46/46/46 45/45/45
f 47/47/47 43/43/43 44/44/44
f 47/47/47 44/44/44 48/48/48
f 49/49/49 51/51/51 50/50/50
f 49/49/49 52/52/52 51/51/51
f 53/53/53 49/49/49 50/50/50
f 53/53/53 50/50/50 54/54/54
f 55/55/55 57/57/57 56/56/56
f 55/55/55 58/58/58 57/57/57
f 59/59/59 55/55/55 56/56/56
f 59/59/59 56/56/56 60/60/60
f 61/61/61 63/63/63 62/62/62
f 61/61/61 64/64/64 63/63/63
f 65/65/65 61/61/61 62/62/62
f 65/65/65 62/62/62 66/66/66
f 67/67/67 69/69/69 68/68/68
f 67/67/67 70/70/70 69/69/69
f 71/71/71 67/67/67 68/68/68
f 71/71/71 68/68/68 72/72/72
