#Carrot2_Alpha_1247_224.obj

v -0.2257967 0.6387652 -0.01886209
v -0.6723351 0.8528562 -0.002416336
v -0.6365167 0.9003248 -0.2370806
v -0.1755708 0.7284118 -0.2562399
v 0.01827028 0.2628862 -0.01634572
v 0.05408873 0.3103546 -0.25101
v -0.1949512 0.789699 0.2199582
v -0.6088848 0.9214497 0.238169
v -0.6723351 0.8528562 -0.002416336
v -0.2257967 0.6387652 -0.01886209
v 0.08172067 0.3314797 0.2242396
v 0.01827028 0.2628862 -0.01634572
v -0.00993551 0.6568215 0.3087696
v -0.07794199 0.8779938 0.8259639
v -0.316176 0.9535055 0.7436076
v -0.2442757 0.7769722 0.2177718
v 0.01827018 0.2628862 -0.01634477
v -0.219964 0.3383975 -0.09870018
v 0.2644119 0.7894455 0.3554344
v 0.1990608 0.924105 0.8239305
v -0.07794199 0.8779938 0.8259639
v -0.00993551 0.6568215 0.3087696
v 0.295273 0.3089976 -0.01837817
v 0.01827018 0.2628862 -0.01634477
v 0.3550625 0.6467432 0.01373651
v 0.8740878 0.854089 0.1067446
v 0.7780789 0.9457684 0.3339381
v 0.2523752 0.78303 0.2339939
v 0.01827028 0.2628862 -0.01634572
v -0.07773857 0.3545656 0.2108478
v 0.4257888 0.7618732 -0.2633486
v 0.8932325 0.8843657 -0.1717829
v 0.8740878 0.854089 0.1067446
v 0.3550625 0.6467432 0.01373651
v 0.03741495 0.2931627 -0.2948733
v 0.01827028 0.2628862 -0.01634572
v -0.05948458 0.652649 -0.3384004
v -0.2140024 0.8678585 -0.8392413
v 0.04245197 0.9091595 -0.8812644
v 0.2032247 0.7386081 -0.3734248
v 0.01827029 0.2628865 -0.01634567
v 0.2747227 0.3041869 -0.05836916
v -0.3046282 0.8220809 -0.2594682
v -0.4495907 0.9514486 -0.7112895
v -0.2140024 0.8678585 -0.8392413
v -0.05948458 0.652649 -0.3384004
v -0.2173179 0.3464765 0.1116051
v 0.01827029 0.2628865 -0.01634567
v -0.2257967 0.6387652 -0.01886209
v -0.1755708 0.7284118 -0.2562399
v -0.6365167 0.9003248 -0.2370806
v -0.6723351 0.8528562 -0.002416336
v 0.01827028 0.2628862 -0.01634572
v 0.05408873 0.3103546 -0.25101
v -0.1949512 0.789699 0.2199582
v -0.2257967 0.6387652 -0.01886209
v -0.6723351 0.8528562 -0.002416336
v -0.6088848 0.9214497 0.238169
v 0.08172067 0.3314797 0.2242396
v 0.01827028 0.2628862 -0.01634572
v -0.00993551 0.6568215 0.3087696
v -0.2442757 0.7769722 0.2177718
v -0.316176 0.9535055 0.7436076
v -0.07794199 0.8779938 0.8259639
v 0.01827018 0.2628862 -0.01634477
v -0.219964 0.3383975 -0.09870018
v 0.2644119 0.7894455 0.3554344
v -0.00993551 0.6568215 0.3087696
v -0.07794199 0.8779938 0.8259639
v 0.1990608 0.924105 0.8239305
v 0.295273 0.3089976 -0.01837817
v 0.01827018 0.2628862 -0.01634477
v 0.3550625 0.6467432 0.01373651
v 0.2523752 0.78303 0.2339939
v 0.7780789 0.9457684 0.3339381
v 0.8740878 0.854089 0.1067446
v 0.01827028 0.2628862 -0.01634572
v -0.07773857 0.3545656 0.2108478
v 0.4257888 0.7618732 -0.2633486
v 0.3550625 0.6467432 0.01373651
v 0.8740878 0.854089 0.1067446
v 0.8932325 0.8843657 -0.1717829
v 0.03741495 0.2931627 -0.2948733
v 0.01827028 0.2628862 -0.01634572
v -0.05948458 0.652649 -0.3384004
v 0.2032247 0.7386081 -0.3734248
v 0.04245197 0.9091595 -0.8812644
v -0.2140024 0.8678585 -0.8392413
v 0.01827029 0.2628865 -0.01634567
v 0.2747227 0.3041869 -0.05836916
v -0.3046282 0.8220809 -0.2594682
v -0.05948458 0.652649 -0.3384004
v -0.2140024 0.8678585 -0.8392413
v -0.4495907 0.9514486 -0.7112895
v -0.2173179 0.3464765 0.1116051
v 0.01827029 0.2628865 -0.01634567

vn 0.1484562 0.7507702 -0.6436652
vn 0.155724 0.9053745 -0.3950276
vn 0.1557241 0.9053746 -0.3950276
vn 0.1496049 0.7669237 -0.6240565
vn 0.1286205 0.533345 -0.8360623
vn 0.1286205 0.533345 -0.8360623
vn -0.587818 0.6586953 -0.4696708
vn -0.588082 0.7697908 -0.2481566
vn -0.588082 0.7697908 -0.2481567
vn -0.5769117 0.599701 -0.5545554
vn -0.5271621 0.4370315 -0.7287687
vn -0.5271621 0.4370315 -0.7287688
vn -0.6352307 0.656285 -0.4071512
vn -0.4270182 0.8115124 -0.3988774
vn -0.4270182 0.8115124 -0.3988774
vn -0.617894 0.6723974 -0.4075397
vn -0.7989138 0.4592901 -0.3883162
vn -0.7989138 0.45929 -0.3883162
vn -0.6271727 0.7211156 0.294358
vn -0.4452164 0.83645 0.3195836
vn -0.4452163 0.83645 0.3195836
vn -0.7002481 0.6574188 0.2783039
vn -0.8339504 0.499399 0.2347925
vn -0.8339503 0.4993989 0.2347925
vn -0.5938061 0.6285583 0.5023034
vn -0.5963789 0.7541772 0.2748618
vn -0.5963789 0.7541772 0.2748618
vn -0.5957178 0.6418723 0.4828254
vn -0.5518645 0.4626726 0.6938153
vn -0.5518645 0.4626726 0.6938153
vn 0.07705599 0.8412889 0.5350658
vn 0.0964644 0.9352663 0.340546
vn 0.09646438 0.9352662 0.340546
vn 0.06702523 0.7854463 0.6152899
vn 0.04333495 0.6400703 0.7670933
vn 0.04333493 0.6400703 0.7670933
vn 0.5124047 0.8573764 0.04844753
vn 0.2860249 0.9482386 0.1379615
vn 0.2860249 0.9482386 0.1379615
vn 0.4930522 0.868143 0.05680805
vn 0.7021968 0.7106676 -0.04325675
vn 0.7021969 0.7106676 -0.04325675
vn 0.1714685 0.8063764 -0.5659997
vn -0.02814089 0.863624 -0.5033505
vn -0.02814089 0.863624 -0.5033505
vn 0.2596581 0.7677934 -0.5857226
vn 0.4401664 0.6599854 -0.6088291
vn 0.4401664 0.6599854 -0.608829
vn -0.148456 -0.7507703 0.6436651
vn -0.1496048 -0.7669238 0.6240564
vn -0.155724 -0.9053746 0.3950277
vn -0.155724 -0.9053746 0.3950277
vn -0.1286205 -0.5333452 0.8360622
vn -0.1286205 -0.5333451 0.8360622
vn 0.587818 -0.6586952 0.4696709
vn 0.5769117 -0.599701 0.5545554
vn 0.5880819 -0.7697909 0.2481567
vn 0.5880819 -0.7697909 0.2481566
vn 0.5271621 -0.4370313 0.7287688
vn 0.5271621 -0.4370313 0.7287688
vn 0.6352307 -0.6562849 0.4071513
vn 0.6178941 -0.6723974 0.4075398
vn 0.4270181 -0.8115123 0.3988774
vn 0.4270182 -0.8115123 0.3988774
vn 0.7989138 -0.45929 0.3883162
vn 0.7989138 -0.45929 0.3883162
vn 0.6271727 -0.7211156 -0.294358
vn 0.7002479 -0.6574189 -0.2783038
vn 0.4452165 -0.83645 -0.3195836
vn 0.4452164 -0.83645 -0.3195836
vn 0.8339502 -0.4993992 -0.2347925
vn 0.8339502 -0.4993991 -0.2347925
vn 0.5938063 -0.6285582 -0.5023034
vn 0.5957178 -0.6418722 -0.4828254
vn 0.596379 -0.7541771 -0.2748619
vn 0.596379 -0.7541771 -0.2748619
vn 0.5518646 -0.4626724 -0.6938154
vn 0.5518646 -0.4626724 -0.6938154
vn -0.07705608 -0.8412889 -0.5350658
vn -0.06702535 -0.7854463 -0.61529
vn -0.0964644 -0.9352662 -0.3405461
vn -0.0964644 -0.9352662 -0.3405462
vn -0.04333512 -0.6400702 -0.7670934
vn -0.04333512 -0.6400702 -0.7670934
vn -0.5124046 -0.8573765 -0.0484475
vn -0.4930522 -0.8681431 -0.05680804
vn -0.2860249 -0.9482386 -0.1379614
vn -0.2860249 -0.9482386 -0.1379615
vn -0.7021968 -0.7106677 0.04325676
vn -0.7021968 -0.7106677 0.04325676
vn -0.1714685 -0.8063764 0.5659997
vn -0.2596582 -0.7677934 0.5857226
vn 0.02814101 -0.8636242 0.5033502
vn 0.02814099 -0.8636242 0.5033502
vn -0.4401666 -0.6599851 0.6088291
vn -0.4401667 -0.6599851 0.6088291

vt 0.2393799 0.3271484
vt 0.2700195 0.3269043
vt 0.2700195 0.3137207
vt 0.2435303 0.3137207
vt 0.2178955 0.3278809
vt 0.2178955 0.3137207
vt 0.2470703 0.3410645
vt 0.2700195 0.3410645
vt 0.2700195 0.3269043
vt 0.2393799 0.3271484
vt 0.2178955 0.3410645
vt 0.2178955 0.3278809
vt 0.2393799 0.3271484
vt 0.2700195 0.3269043
vt 0.2700195 0.3137207
vt 0.2435303 0.3137207
vt 0.2178955 0.3278809
vt 0.2178955 0.3137207
vt 0.2470703 0.3410645
vt 0.2700195 0.3410645
vt 0.2700195 0.3269043
vt 0.2393799 0.3271484
vt 0.2178955 0.3410645
vt 0.2178955 0.3278809
vt 0.2438965 0.3271484
vt 0.2700195 0.3269043
vt 0.2700195 0.3137207
vt 0.2474365 0.3137207
vt 0.2255859 0.3278809
vt 0.2255859 0.3137207
vt 0.2504883 0.3410645
vt 0.2700195 0.3410645
vt 0.2700195 0.3269043
vt 0.2438965 0.3271484
vt 0.2255859 0.3410645
vt 0.2255859 0.3278809
vt 0.2438965 0.3271484
vt 0.2700195 0.3269043
vt 0.2700195 0.3137207
vt 0.2474365 0.3137207
vt 0.2255859 0.3278809
vt 0.2255859 0.3137207
vt 0.2504883 0.3410645
vt 0.2700195 0.3410645
vt 0.2700195 0.3269043
vt 0.2438965 0.3271484
vt 0.2255859 0.3410645
vt 0.2255859 0.3278809
vt 0.2393799 0.3271484
vt 0.2435303 0.3137207
vt 0.2700195 0.3137207
vt 0.2700195 0.3269043
vt 0.2178955 0.3278809
vt 0.2178955 0.3137207
vt 0.2470703 0.3410645
vt 0.2393799 0.3271484
vt 0.2700195 0.3269043
vt 0.2700195 0.3410645
vt 0.2178955 0.3410645
vt 0.2178955 0.3278809
vt 0.2393799 0.3271484
vt 0.2435303 0.3137207
vt 0.2700195 0.3137207
vt 0.2700195 0.3269043
vt 0.2178955 0.3278809
vt 0.2178955 0.3137207
vt 0.2470703 0.3410645
vt 0.2393799 0.3271484
vt 0.2700195 0.3269043
vt 0.2700195 0.3410645
vt 0.2178955 0.3410645
vt 0.2178955 0.3278809
vt 0.2438965 0.3271484
vt 0.2474365 0.3137207
vt 0.2700195 0.3137207
vt 0.2700195 0.3269043
vt 0.2255859 0.3278809
vt 0.2255859 0.3137207
vt 0.2504883 0.3410645
vt 0.2438965 0.3271484
vt 0.2700195 0.3269043
vt 0.2700195 0.3410645
vt 0.2255859 0.3410645
vt 0.2255859 0.3278809
vt 0.2438965 0.3271484
vt 0.2474365 0.3137207
vt 0.2700195 0.3137207
vt 0.2700195 0.3269043
vt 0.2255859 0.3278809
vt 0.2255859 0.3137207
vt 0.2504883 0.3410645
vt 0.2438965 0.3271484
vt 0.2700195 0.3269043
vt 0.2700195 0.3410645
vt 0.2255859 0.3410645
vt 0.2255859 0.3278809

g Carrot2_Alpha_1247_224
usemtl Carrot2_Alpha_1247_224
usemap Carrot2_Alpha_1247_224
f 1/1/1 3/3/3 2/2/2
f 1/1/1 4/4/4 3/3/3
f 5/5/5 4/4/4 1/1/1
f 5/5/5 6/6/6 4/4/4
f 7/7/7 9/9/9 8/8/8
f 7/7/7 10/10/10 9/9/9
f 11/11/11 10/10/10 7/7/7
f 11/11/11 12/12/12 10/10/10
f 13/13/13 15/15/15 14/14/14
f 13/13/13 16/16/16 15/15/15
f 17/17/17 16/16/16 13/13/13
f 17/17/17 18/18/18 16/16/16
f 19/19/19 21/21/21 20/20/20
f 19/19/19 22/22/22 21/21/21
f 23/23/23 22/22/22 19/19/19
f 23/23/23 24/24/24 22/22/22
f 25/25/25 27/27/27 26/26/26
f 25/25/25 28/28/28 27/27/27
f 29/29/29 28/28/28 25/25/25
f 29/29/29 30/30/30 28/28/28
f 31/31/31 33/33/33 32/32/32
f 31/31/31 34/34/34 33/33/33
f 35/35/35 34/34/34 31/31/31
f 35/35/35 36/36/36 34/34/34
f 37/37/37 39/39/39 38/38/38
f 37/37/37 40/40/40 39/39/39
f 41/41/41 40/40/40 37/37/37
f 41/41/41 42/42/42 40/40/40
f 43/43/43 45/45/45 44/44/44
f 43/43/43 46/46/46 45/45/45
f 47/47/47 46/46/46 43/43/43
f 47/47/47 48/48/48 46/46/46
f 49/49/49 51/51/51 50/50/50
f 49/49/49 52/52/52 51/51/51
f 53/53/53 49/49/49 50/50/50
f 53/53/53 50/50/50 54/54/54
f 55/55/55 57/57/57 56/56/56
f 55/55/55 58/58/58 57/57/57
f 59/59/59 55/55/55 56/56/56
f 59/59/59 56/56/56 60/60/60
f 61/61/61 63/63/63 62/62/62
f 61/61/61 64/64/64 63/63/63
f 65/65/65 61/61/61 62/62/62
f 65/65/65 62/62/62 66/66/66
f 67/67/67 69/69/69 68/68/68
f 67/67/67 70/70/70 69/69/69
f 71/71/71 67/67/67 68/68/68
f 71/71/71 68/68/68 72/72/72
f 73/73/73 75/75/75 74/74/74
f 73/73/73 76/76/76 75/75/75
f 77/77/77 73/73/73 74/74/74
f 77/77/77 74/74/74 78/78/78
f 79/79/79 81/81/81 80/80/80
f 79/79/79 82/82/82 81/81/81
f 83/83/83 79/79/79 80/80/80
f 83/83/83 80/80/80 84/84/84
f 85/85/85 87/87/87 86/86/86
f 85/85/85 88/88/88 87/87/87
f 89/89/89 85/85/85 86/86/86
f 89/89/89 86/86/86 90/90/90
f 91/91/91 93/93/93 92/92/92
f 91/91/91 94/94/94 93/93/93
f 95/95/95 91/91/91 92/92/92
f 95/95/95 92/92/92 96/96/96
