#Carrot1_Base_3210_334.obj

v 9.158071E-07 -0.9705802 -3.703135E-06
v 0.09107174 0.168674 -0.28029
v -0.2384286 0.168674 -0.1732342
v 0.2947151 0.168674 -5.757762E-06
v 0.09107174 0.168674 -0.28029
v 9.158071E-07 -0.9705802 -3.703135E-06
v -0.2384286 0.168674 -0.1732342
v -0.2384285 0.168674 0.1732247
v 0.09107111 0.168674 0.2802858
v 0.2947151 0.168674 -5.757762E-06
v 9.158071E-07 0.3638395 -3.703135E-06
v 0.09107174 0.168674 -0.28029
v 9.158071E-07 0.3638395 -3.703135E-06
v -0.2384286 0.168674 -0.1732342
v 0.2947151 0.168674 -5.757762E-06
v 9.158071E-07 0.3638395 -3.703135E-06
v 0.09107174 0.168674 -0.28029

vn 0 -1 0
vn 0.07153314 -0.05865781 -0.995712
vn -0.9248734 -0.05865781 -0.3757238
vn 0.9690832 -0.0586578 -0.23966
vn 0.07153314 -0.05865781 -0.995712
vn 0 -1 0
vn -0.9248734 -0.05865781 -0.3757238
vn -0.6431362 -0.05865781 0.7635018
vn 0.5273933 -0.05865783 0.847594
vn 0.9690832 -0.0586578 -0.23966
vn 0 1 0
vn 0.07153314 -0.05865781 -0.995712
vn 0 1 0
vn -0.9248734 -0.05865781 -0.3757238
vn 0.9690832 -0.0586578 -0.23966
vn 0 1 0
vn 0.07153314 -0.05865781 -0.995712

vt 0.5561523 0.3276367
vt 0.5205078 0.3181152
vt 0.5205078 0.3220215
vt 0.5205078 0.3334961
vt 0.5205078 0.3371582
vt 0.5561523 0.3276367
vt 0.5205078 0.3220215
vt 0.5205078 0.3259277
vt 0.5205078 0.3295898
vt 0.5205078 0.3334961
vt 0.512207 0.3276367
vt 0.5205078 0.3181152
vt 0.512207 0.3276367
vt 0.5205078 0.3220215
vt 0.5205078 0.3334961
vt 0.512207 0.3276367
vt 0.5205078 0.3371582

g Carrot1_Base_3210_334
usemtl Carrot1_Base_3210_334
usemap Carrot1_Base_3210_334
f 1/1/1 3/3/3 2/2/2
f 1/1/1 5/5/5 4/4/4
f 6/6/6 8/8/8 7/7/7
f 6/6/6 9/9/9 8/8/8
f 6/6/6 10/10/10 9/9/9
f 7/7/7 8/8/8 11/11/11
f 9/9/9 10/10/10 11/11/11
f 8/8/8 9/9/9 11/11/11
f 12/12/12 14/14/14 13/13/13
f 15/15/15 17/17/17 16/16/16
