#Carrot2_Base_2491_248.obj

v 0 -1.086549 0
v 0.1393585 0.1094218 -0.4289055
v -0.3648491 0.1094218 -0.2650795
v 0 -1.086549 0
v -0.3648491 0.1094218 0.2650795
v 0.1393585 0.1094218 0.4289055
v 0.4509773 0.1094218 0
v 0.1393585 0.1094218 -0.4289055
v 0 0.3143034 0
v -0.3648491 0.1094218 -0.2650795
v -0.3648491 0.1094218 0.2650795
v 0.1393585 0.1094218 -0.4289055
v 0 0.3143034 0
v 0.1393585 0.1094218 0.4289055
v 0.4509773 0.1094218 0
v 0 0.3143034 0
v 0.1393585 0.1094218 -0.4289055

vn 0 -1 0
vn 0.3078425 -0.08710949 -0.9474413
vn -0.8059416 -0.08710968 -0.585551
vn 0 -1 0
vn -0.8059418 -0.08710962 0.5855508
vn 0.3078423 -0.08710943 0.9474413
vn 0.9961987 -0.08710935 0
vn 0.3078425 -0.08710949 -0.9474413
vn 0 1 0
vn -0.8059416 -0.08710968 -0.585551
vn -0.8059418 -0.08710962 0.5855508
vn 0.3078425 -0.08710949 -0.9474413
vn 0 1 0
vn 0.3078423 -0.08710943 0.9474413
vn 0.9961987 -0.08710935 0
vn 0 1 0
vn 0.3078425 -0.08710949 -0.9474413

vt 0.5561523 0.3276367
vt 0.5205078 0.3181152
vt 0.5205078 0.3220215
vt 0.5561523 0.3276367
vt 0.5205078 0.3259277
vt 0.5205078 0.3295898
vt 0.5205078 0.3334961
vt 0.5205078 0.3371582
vt 0.512207 0.3276367
vt 0.5205078 0.3220215
vt 0.5205078 0.3259277
vt 0.5205078 0.3181152
vt 0.512207 0.3276367
vt 0.5205078 0.3295898
vt 0.5205078 0.3334961
vt 0.512207 0.3276367
vt 0.5205078 0.3371582

g Carrot2_Base_2491_248
usemtl Carrot2_Base_2491_248
usemap Carrot2_Base_2491_248
f 1/1/1 3/3/3 2/2/2
f 4/4/4 5/5/5 3/3/3
f 4/4/4 6/6/6 5/5/5
f 4/4/4 7/7/7 6/6/6
f 1/1/1 8/8/8 7/7/7
f 5/5/5 6/6/6 9/9/9
f 10/10/10 11/11/11 9/9/9
f 12/12/12 10/10/10 13/13/13
f 14/14/14 15/15/15 9/9/9
f 15/15/15 17/17/17 16/16/16
