#Carrot1_Alpha_3158_410.obj

v 0.3417889 0.8104826 -2.717277E-07
v 0.9245723 1.059042 -3.651127E-06
v 0.8677248 1.143152 0.4108312
v 0.27055 0.9539374 0.4108365
v -1.035913E-06 0.3193689 -3.671348E-06
v -0.05684849 0.4034791 0.4108312
v 0.3334884 1.00429 -0.4408807
v 0.867725 1.143152 -0.4408844
v 0.9245723 1.059042 -3.651127E-06
v 0.3417889 0.8104826 -2.717277E-07
v -0.0568462 0.4034791 -0.4408771
v -1.035913E-06 0.3193689 -3.671348E-06
v -0.06555234 0.6937839 0.444806
v -0.02671697 0.7874054 1.063608
v -0.4461689 0.7387633 1.071153
v -0.5027134 0.703415 0.4525921
v -1.035913E-06 0.3193691 -3.671348E-06
v -0.419453 0.2707271 0.007541935
v 0.299732 1.025016 0.4374905
v 0.3580943 1.028503 0.9836462
v -0.02671697 0.7874054 1.063608
v -0.06555234 0.6937839 0.444806
v 0.3848121 0.5604664 -0.07996564
v -1.035913E-06 0.3193691 -3.671348E-06
v -0.1587513 0.9042798 -0.07972433
v -0.6214771 1.354284 -0.1612
v -0.5169531 1.353224 -0.5699419
v -0.02144114 0.9529714 -0.4925091
v -1.035913E-06 0.3193691 -3.671348E-06
v 0.1045249 0.3183087 -0.4087462
v -0.1136094 1.143419 0.3395913
v -0.5668149 1.473219 0.2731311
v -0.6214771 1.354284 -0.1612
v -0.1587513 0.9042798 -0.07972433
v 0.05466304 0.4383045 0.4343268
v -1.035913E-06 0.3193691 -3.671348E-06
v 0.3417889 0.8104826 -2.717277E-07
v 0.27055 0.9539374 0.4108365
v 0.8677248 1.143152 0.4108312
v 0.9245723 1.059042 -3.651127E-06
v -1.035913E-06 0.3193689 -3.671348E-06
v -0.05684849 0.4034791 0.4108312
v 0.3334884 1.00429 -0.4408807
v 0.3417889 0.8104826 -2.717277E-07
v 0.9245723 1.059042 -3.651127E-06
v 0.867725 1.143152 -0.4408844
v -0.0568462 0.4034791 -0.4408771
v -1.035913E-06 0.3193689 -3.671348E-06
v -0.06555234 0.6937839 0.444806
v -0.5027134 0.703415 0.4525921
v -0.4461689 0.7387633 1.071153
v -0.02671697 0.7874054 1.063608
v -1.035913E-06 0.3193691 -3.671348E-06
v -0.419453 0.2707271 0.007541935
v 0.299732 1.025016 0.4374905
v -0.06555234 0.6937839 0.444806
v -0.02671697 0.7874054 1.063608
v 0.3580943 1.028503 0.9836462
v 0.3848121 0.5604664 -0.07996564
v -1.035913E-06 0.3193691 -3.671348E-06
v -0.1587513 0.9042798 -0.07972433
v -0.02144114 0.9529714 -0.4925091
v -0.5169531 1.353224 -0.5699419
v -0.6214771 1.354284 -0.1612
v -1.035913E-06 0.3193691 -3.671348E-06
v 0.1045249 0.3183087 -0.4087462
v -0.1136094 1.143419 0.3395913
v -0.1587513 0.9042798 -0.07972433
v -0.6214771 1.354284 -0.1612
v -0.5668149 1.473219 0.2731311
v 0.05466304 0.4383045 0.4343268
v -1.035913E-06 0.3193691 -3.671348E-06

vn -0.5037645 0.7359378 -0.4523458
vn -0.2380792 0.8945243 -0.3783445
vn -0.2380792 0.8945243 -0.3783445
vn -0.4801973 0.7546186 -0.4471704
vn -0.7061218 0.5203966 -0.4801868
vn -0.7061218 0.5203966 -0.4801868
vn -0.6180407 0.7764645 0.1229984
vn -0.3834248 0.8993157 0.2102776
vn -0.3834248 0.8993157 0.2102776
vn -0.6857318 0.7220507 0.09173138
vn -0.84044 0.5418993 0.002373144
vn -0.84044 0.5418993 0.002373144
vn 0.06500156 0.9097125 -0.4101194
vn -0.01813765 0.9938778 -0.1089857
vn -0.01813765 0.9938778 -0.1089857
vn 0.05996464 0.9178311 -0.3924162
vn 0.1394823 0.736131 -0.662311
vn 0.1394823 0.736131 -0.662311
vn -0.5002236 0.7442396 -0.4425874
vn -0.5806221 0.7940437 -0.1799234
vn -0.5806221 0.7940437 -0.1799235
vn -0.4637759 0.7139159 -0.5246294
vn -0.3428776 0.5981763 -0.7243066
vn -0.3428776 0.5981764 -0.7243067
vn 0.7089479 0.516968 0.4797259
vn 0.5397717 0.7468258 0.3884555
vn 0.5397717 0.7468258 0.3884555
vn 0.6983629 0.5360116 0.4743215
vn 0.8111731 0.2540752 0.5267295
vn 0.8111731 0.2540752 0.5267295
vn 0.8645218 0.4974692 -0.07160054
vn 0.7116326 0.6808129 -0.173415
vn 0.7116327 0.6808129 -0.173415
vn 0.9064252 0.4211004 -0.0326755
vn 0.9744512 0.2149292 0.06519513
vn 0.9744512 0.2149292 0.06519511
vn 0.5037645 -0.7359378 0.4523459
vn 0.4801972 -0.7546185 0.4471704
vn 0.2380792 -0.8945243 0.3783446
vn 0.2380792 -0.8945243 0.3783446
vn 0.7061218 -0.5203966 0.4801868
vn 0.7061218 -0.5203966 0.4801868
vn 0.6180406 -0.7764645 -0.1229984
vn 0.6857318 -0.7220508 -0.09173138
vn 0.3834248 -0.8993157 -0.2102776
vn 0.3834248 -0.8993157 -0.2102776
vn 0.8404401 -0.5418993 -0.002373159
vn 0.8404401 -0.5418993 -0.002373159
vn -0.06500158 -0.9097125 0.4101195
vn -0.05996466 -0.917831 0.3924162
vn 0.01813763 -0.9938778 0.1089857
vn 0.01813764 -0.9938778 0.1089857
vn -0.1394823 -0.736131 0.662311
vn -0.1394823 -0.736131 0.6623111
vn 0.5002236 -0.7442396 0.4425874
vn 0.463776 -0.7139158 0.5246295
vn 0.5806222 -0.7940437 0.1799234
vn 0.5806221 -0.7940437 0.1799234
vn 0.3428777 -0.5981763 0.7243066
vn 0.3428777 -0.5981763 0.7243066
vn -0.708948 -0.516968 -0.4797259
vn -0.6983629 -0.5360115 -0.4743215
vn -0.5397717 -0.7468258 -0.3884556
vn -0.5397717 -0.7468258 -0.3884556
vn -0.8111731 -0.2540752 -0.5267294
vn -0.8111732 -0.2540752 -0.5267295
vn -0.8645218 -0.4974692 0.07160054
vn -0.9064252 -0.4211004 0.0326755
vn -0.7116327 -0.6808129 0.173415
vn -0.7116327 -0.6808129 0.173415
vn -0.9744512 -0.2149292 -0.06519511
vn -0.9744512 -0.2149292 -0.06519511

vt 0.2393799 0.3271484
vt 0.2700195 0.3269043
vt 0.2700195 0.3137207
vt 0.2435303 0.3137207
vt 0.2178955 0.3278809
vt 0.2178955 0.3137207
vt 0.2470703 0.3410645
vt 0.2700195 0.3410645
vt 0.2700195 0.3269043
vt 0.2393799 0.3271484
vt 0.2178955 0.3410645
vt 0.2178955 0.3278809
vt 0.2393799 0.3271484
vt 0.2700195 0.3269043
vt 0.2700195 0.3137207
vt 0.2435303 0.3137207
vt 0.2178955 0.3278809
vt 0.2178955 0.3137207
vt 0.2470703 0.3410645
vt 0.2700195 0.3410645
vt 0.2700195 0.3269043
vt 0.2393799 0.3271484
vt 0.2178955 0.3410645
vt 0.2178955 0.3278809
vt 0.2393799 0.3271484
vt 0.2700195 0.3269043
vt 0.2700195 0.3137207
vt 0.2435303 0.3137207
vt 0.2178955 0.3278809
vt 0.2178955 0.3137207
vt 0.2470703 0.3410645
vt 0.2700195 0.3410645
vt 0.2700195 0.3269043
vt 0.2393799 0.3271484
vt 0.2178955 0.3410645
vt 0.2178955 0.3278809
vt 0.2393799 0.3271484
vt 0.2435303 0.3137207
vt 0.2700195 0.3137207
vt 0.2700195 0.3269043
vt 0.2178955 0.3278809
vt 0.2178955 0.3137207
vt 0.2470703 0.3410645
vt 0.2393799 0.3271484
vt 0.2700195 0.3269043
vt 0.2700195 0.3410645
vt 0.2178955 0.3410645
vt 0.2178955 0.3278809
vt 0.2393799 0.3271484
vt 0.2435303 0.3137207
vt 0.2700195 0.3137207
vt 0.2700195 0.3269043
vt 0.2178955 0.3278809
vt 0.2178955 0.3137207
vt 0.2470703 0.3410645
vt 0.2393799 0.3271484
vt 0.2700195 0.3269043
vt 0.2700195 0.3410645
vt 0.2178955 0.3410645
vt 0.2178955 0.3278809
vt 0.2393799 0.3271484
vt 0.2435303 0.3137207
vt 0.2700195 0.3137207
vt 0.2700195 0.3269043
vt 0.2178955 0.3278809
vt 0.2178955 0.3137207
vt 0.2470703 0.3410645
vt 0.2393799 0.3271484
vt 0.2700195 0.3269043
vt 0.2700195 0.3410645
vt 0.2178955 0.3410645
vt 0.2178955 0.3278809

g Carrot1_Alpha_3158_410
usemtl Carrot1_Alpha_3158_410
usemap Carrot1_Alpha_3158_410
f 1/1/1 3/3/3 2/2/2
f 1/1/1 4/4/4 3/3/3
f 5/5/5 4/4/4 1/1/1
f 5/5/5 6/6/6 4/4/4
f 7/7/7 9/9/9 8/8/8
f 7/7/7 10/10/10 9/9/9
f 11/11/11 10/10/10 7/7/7
f 11/11/11 12/12/12 10/10/10
f 13/13/13 15/15/15 14/14/14
f 13/13/13 16/16/16 15/15/15
f 17/17/17 16/16/16 13/13/13
f 17/17/17 18/18/18 16/16/16
f 19/19/19 21/21/21 20/20/20
f 19/19/19 22/22/22 21/21/21
f 23/23/23 22/22/22 19/19/19
f 23/23/23 24/24/24 22/22/22
f 25/25/25 27/27/27 26/26/26
f 25/25/25 28/28/28 27/27/27
f 29/29/29 28/28/28 25/25/25
f 29/29/29 30/30/30 28/28/28
f 31/31/31 33/33/33 32/32/32
f 31/31/31 34/34/34 33/33/33
f 35/35/35 34/34/34 31/31/31
f 35/35/35 36/36/36 34/34/34
f 37/37/37 39/39/39 38/38/38
f 37/37/37 40/40/40 39/39/39
f 41/41/41 37/37/37 38/38/38
f 41/41/41 38/38/38 42/42/42
f 43/43/43 45/45/45 44/44/44
f 43/43/43 46/46/46 45/45/45
f 47/47/47 43/43/43 44/44/44
f 47/47/47 44/44/44 48/48/48
f 49/49/49 51/51/51 50/50/50
f 49/49/49 52/52/52 51/51/51
f 53/53/53 49/49/49 50/50/50
f 53/53/53 50/50/50 54/54/54
f 55/55/55 57/57/57 56/56/56
f 55/55/55 58/58/58 57/57/57
f 59/59/59 55/55/55 56/56/56
f 59/59/59 56/56/56 60/60/60
f 61/61/61 63/63/63 62/62/62
f 61/61/61 64/64/64 63/63/63
f 65/65/65 61/61/61 62/62/62
f 65/65/65 62/62/62 66/66/66
f 67/67/67 69/69/69 68/68/68
f 67/67/67 70/70/70 69/69/69
f 71/71/71 67/67/67 68/68/68
f 71/71/71 68/68/68 72/72/72
