#Carrot1_Alpha_1242_212.obj

v 0.3417892 0.8104826 6.278359E-17
v 0.924572 1.059042 1.698355E-16
v 0.8677273 1.143152 0.4108377
v 0.2705498 0.9539374 0.4108377
v 0 0.3193689 0
v -0.05684662 0.4034791 0.4108377
v 0.3334904 1.00429 -0.440877
v 0.8677273 1.143152 -0.440877
v 0.924572 1.059042 1.698355E-16
v 0.3417892 0.8104826 6.278359E-17
v -0.05684662 0.4034791 -0.440877
v 0 0.3193689 0
v -0.06555176 0.6937839 0.4448061
v -0.02671623 0.7874054 1.063609
v -0.4461689 0.7387633 1.071155
v -0.5027122 0.703415 0.4525981
v 0 0.3193691 0
v -0.4194508 0.2707271 0.007545948
v 0.2997322 1.025016 0.4374948
v 0.3580952 1.028503 0.9836473
v -0.02671623 0.7874054 1.063609
v -0.06555176 0.6937839 0.4448061
v 0.3848133 0.5604664 -0.0799613
v 0 0.3193691 0
v -0.1587505 0.9042798 -0.07971954
v -0.6214771 1.354284 -0.1611958
v -0.5169506 1.353224 -0.5699363
v -0.0214386 0.9529714 -0.4925032
v 0 0.3193691 0
v 0.1045265 0.3183087 -0.40874
v -0.1136074 1.143419 0.3395934
v -0.5668125 1.473219 0.2731338
v -0.6214771 1.354284 -0.1611958
v -0.1587505 0.9042798 -0.07971954
v 0.05466461 0.4383045 0.4343295
v 0 0.3193691 0
v 0.3417892 0.8104826 6.278359E-17
v 0.2705498 0.9539374 0.4108377
v 0.8677273 1.143152 0.4108377
v 0.924572 1.059042 1.698355E-16
v 0 0.3193689 0
v -0.05684662 0.4034791 0.4108377
v 0.3334904 1.00429 -0.440877
v 0.3417892 0.8104826 6.278359E-17
v 0.924572 1.059042 1.698355E-16
v 0.8677273 1.143152 -0.440877
v -0.05684662 0.4034791 -0.440877
v 0 0.3193689 0
v -0.06555176 0.6937839 0.4448061
v -0.5027122 0.703415 0.4525981
v -0.4461689 0.7387633 1.071155
v -0.02671623 0.7874054 1.063609
v 0 0.3193691 0
v -0.4194508 0.2707271 0.007545948
v 0.2997322 1.025016 0.4374948
v -0.06555176 0.6937839 0.4448061
v -0.02671623 0.7874054 1.063609
v 0.3580952 1.028503 0.9836473
v 0.3848133 0.5604664 -0.0799613
v 0 0.3193691 0
v -0.1587505 0.9042798 -0.07971954
v -0.0214386 0.9529714 -0.4925032
v -0.5169506 1.353224 -0.5699363
v -0.6214771 1.354284 -0.1611958
v 0 0.3193691 0
v 0.1045265 0.3183087 -0.40874
v -0.1136074 1.143419 0.3395934
v -0.1587505 0.9042798 -0.07971954
v -0.6214771 1.354284 -0.1611958
v -0.5668125 1.473219 0.2731338
v 0.05466461 0.4383045 0.4343295
v 0 0.3193691 0

vn -0.2985459 0.7359378 0.6076724
vn -0.2994745 0.8945243 0.3318754
vn -0.2994745 0.8945243 0.3318754
vn -0.2999649 0.7546186 0.5835853
vn -0.2703888 0.5203966 0.8099859
vn -0.2703888 0.5203966 0.8099859
vn 0.2862107 0.7764645 0.5614145
vn 0.3064981 0.8993157 0.3119137
vn 0.3064981 0.8993157 0.3119137
vn 0.2745007 0.7220507 0.6350527
vn 0.2305127 0.5418993 0.8082134
vn 0.2305127 0.5418993 0.8082134
vn -0.4123596 0.9097125 0.04881255
vn -0.09996477 0.9938778 0.04705207
vn -0.09996477 0.9938778 0.04705207
vn -0.3939538 0.9178311 0.04885272
vn -0.6753002 0.736131 0.04561545
vn -0.6753002 0.736131 0.04561544
vn -0.2901157 0.7442396 0.6016146
vn -0.01548932 0.7940437 0.6076631
vn -0.01548932 0.7940437 0.6076632
vn -0.3789724 0.7139159 0.5888157
vn -0.6039771 0.5981763 0.5266845
vn -0.6039771 0.5981764 0.5266845
vn 0.2691777 0.516968 -0.8125806
vn 0.2272784 0.7468258 -0.6249765
vn 0.2272784 0.7468258 -0.6249765
vn 0.2668509 0.5360116 -0.8009258
vn 0.2866548 0.2540752 -0.9237286
vn 0.2866549 0.2540752 -0.9237286
vn -0.3036782 0.4974692 -0.8125908
vn -0.3601483 0.6808129 -0.6377984
vn -0.3601483 0.6808129 -0.6377984
vn -0.2775952 0.4211004 -0.8634901
vn -0.2018754 0.2149292 -0.9555374
vn -0.2018754 0.2149292 -0.9555374
vn 0.298546 -0.7359378 -0.6076724
vn 0.2999649 -0.7546185 -0.5835853
vn 0.2994747 -0.8945243 -0.3318754
vn 0.2994747 -0.8945243 -0.3318753
vn 0.2703888 -0.5203966 -0.8099859
vn 0.2703888 -0.5203966 -0.8099859
vn -0.2862106 -0.7764645 -0.5614145
vn -0.2745007 -0.7220508 -0.6350527
vn -0.306498 -0.8993157 -0.3119137
vn -0.306498 -0.8993157 -0.3119137
vn -0.2305127 -0.5418993 -0.8082134
vn -0.2305127 -0.5418993 -0.8082134
vn 0.4123597 -0.9097125 -0.04881255
vn 0.3939539 -0.917831 -0.04885272
vn 0.0999648 -0.9938778 -0.04705206
vn 0.0999648 -0.9938778 -0.04705206
vn 0.6753002 -0.736131 -0.04561545
vn 0.6753002 -0.736131 -0.04561545
vn 0.2901157 -0.7442396 -0.6016146
vn 0.3789725 -0.7139158 -0.5888158
vn 0.01548928 -0.7940437 -0.6076632
vn 0.01548928 -0.7940437 -0.6076631
vn 0.603977 -0.5981763 -0.5266846
vn 0.603977 -0.5981763 -0.5266846
vn -0.2691778 -0.516968 0.8125807
vn -0.2668509 -0.5360115 0.8009258
vn -0.2272785 -0.7468258 0.6249765
vn -0.2272785 -0.7468258 0.6249765
vn -0.2866548 -0.2540752 0.9237286
vn -0.2866548 -0.2540752 0.9237287
vn 0.3036782 -0.4974692 0.8125908
vn 0.2775952 -0.4211004 0.8634901
vn 0.3601484 -0.6808129 0.6377985
vn 0.3601483 -0.6808129 0.6377984
vn 0.2018754 -0.2149292 0.9555374
vn 0.2018754 -0.2149292 0.9555374

vt 0.2393799 0.3271484
vt 0.2700195 0.3269043
vt 0.2700195 0.3137207
vt 0.2435303 0.3137207
vt 0.2178955 0.3278809
vt 0.2178955 0.3137207
vt 0.2470703 0.3410645
vt 0.2700195 0.3410645
vt 0.2700195 0.3269043
vt 0.2393799 0.3271484
vt 0.2178955 0.3410645
vt 0.2178955 0.3278809
vt 0.2393799 0.3271484
vt 0.2700195 0.3269043
vt 0.2700195 0.3137207
vt 0.2435303 0.3137207
vt 0.2178955 0.3278809
vt 0.2178955 0.3137207
vt 0.2470703 0.3410645
vt 0.2700195 0.3410645
vt 0.2700195 0.3269043
vt 0.2393799 0.3271484
vt 0.2178955 0.3410645
vt 0.2178955 0.3278809
vt 0.2393799 0.3271484
vt 0.2700195 0.3269043
vt 0.2700195 0.3137207
vt 0.2435303 0.3137207
vt 0.2178955 0.3278809
vt 0.2178955 0.3137207
vt 0.2470703 0.3410645
vt 0.2700195 0.3410645
vt 0.2700195 0.3269043
vt 0.2393799 0.3271484
vt 0.2178955 0.3410645
vt 0.2178955 0.3278809
vt 0.2393799 0.3271484
vt 0.2435303 0.3137207
vt 0.2700195 0.3137207
vt 0.2700195 0.3269043
vt 0.2178955 0.3278809
vt 0.2178955 0.3137207
vt 0.2470703 0.3410645
vt 0.2393799 0.3271484
vt 0.2700195 0.3269043
vt 0.2700195 0.3410645
vt 0.2178955 0.3410645
vt 0.2178955 0.3278809
vt 0.2393799 0.3271484
vt 0.2435303 0.3137207
vt 0.2700195 0.3137207
vt 0.2700195 0.3269043
vt 0.2178955 0.3278809
vt 0.2178955 0.3137207
vt 0.2470703 0.3410645
vt 0.2393799 0.3271484
vt 0.2700195 0.3269043
vt 0.2700195 0.3410645
vt 0.2178955 0.3410645
vt 0.2178955 0.3278809
vt 0.2393799 0.3271484
vt 0.2435303 0.3137207
vt 0.2700195 0.3137207
vt 0.2700195 0.3269043
vt 0.2178955 0.3278809
vt 0.2178955 0.3137207
vt 0.2470703 0.3410645
vt 0.2393799 0.3271484
vt 0.2700195 0.3269043
vt 0.2700195 0.3410645
vt 0.2178955 0.3410645
vt 0.2178955 0.3278809

g Carrot1_Alpha_1242_212
usemtl Carrot1_Alpha_1242_212
usemap Carrot1_Alpha_1242_212
f 1/1/1 3/3/3 2/2/2
f 1/1/1 4/4/4 3/3/3
f 5/5/5 4/4/4 1/1/1
f 5/5/5 6/6/6 4/4/4
f 7/7/7 9/9/9 8/8/8
f 7/7/7 10/10/10 9/9/9
f 11/11/11 10/10/10 7/7/7
f 11/11/11 12/12/12 10/10/10
f 13/13/13 15/15/15 14/14/14
f 13/13/13 16/16/16 15/15/15
f 17/17/17 16/16/16 13/13/13
f 17/17/17 18/18/18 16/16/16
f 19/19/19 21/21/21 20/20/20
f 19/19/19 22/22/22 21/21/21
f 23/23/23 22/22/22 19/19/19
f 23/23/23 24/24/24 22/22/22
f 25/25/25 27/27/27 26/26/26
f 25/25/25 28/28/28 27/27/27
f 29/29/29 28/28/28 25/25/25
f 29/29/29 30/30/30 28/28/28
f 31/31/31 33/33/33 32/32/32
f 31/31/31 34/34/34 33/33/33
f 35/35/35 34/34/34 31/31/31
f 35/35/35 36/36/36 34/34/34
f 37/37/37 39/39/39 38/38/38
f 37/37/37 40/40/40 39/39/39
f 41/41/41 37/37/37 38/38/38
f 41/41/41 38/38/38 42/42/42
f 43/43/43 45/45/45 44/44/44
f 43/43/43 46/46/46 45/45/45
f 47/47/47 43/43/43 44/44/44
f 47/47/47 44/44/44 48/48/48
f 49/49/49 51/51/51 50/50/50
f 49/49/49 52/52/52 51/51/51
f 53/53/53 49/49/49 50/50/50
f 53/53/53 50/50/50 54/54/54
f 55/55/55 57/57/57 56/56/56
f 55/55/55 58/58/58 57/57/57
f 59/59/59 55/55/55 56/56/56
f 59/59/59 56/56/56 60/60/60
f 61/61/61 63/63/63 62/62/62
f 61/61/61 64/64/64 63/63/63
f 65/65/65 61/61/61 62/62/62
f 65/65/65 62/62/62 66/66/66
f 67/67/67 69/69/69 68/68/68
f 67/67/67 70/70/70 69/69/69
f 71/71/71 67/67/67 68/68/68
f 71/71/71 68/68/68 72/72/72
