#Cliff1_(3)_2526_174.obj

v 0.9867218 3.40404 1.787297
v 0.8084572 3.327841 2.227026
v 0.246907 2.878024 1.460721
v -0.5179707 3.042772 2.10862
v -0.3743019 2.139339 1.412116
v 2.430999 2.973319 2.656934
v 0.5516474 2.76025 3.362902
v 2.400998 2.329754 4.006101
v -0.9462653 2.084943 2.862339
v -0.7941257 1.467389 2.37287
v -0.2145995 1.217834 3.399089
v 0.1439312 2.221952 3.721866
v -0.8697219 0.4667062 3.909603
v 1.085177 1.840566 4.426283
v 2.588381 0.3948462 3.307778
v 0.7829303 0.9381423 4.243474
v 3.076823 2.123976 2.823315
v 1.476074 -0.09580493 4.227883
v 1.656431 -1.402846 3.499973
v 0.190748 0.1156069 4.426569
v -0.4979964 -0.6798212 3.937546
v -0.7498471 -1.367526 3.00223
v -1.201981 0.380566 2.775966
v -1.122528 1.270268 2.191534
v -0.1030475 1.51243 3.87833
v -1.159134 0.6430953 1.696131
v -0.7255189 1.066525 1.255309
v -1.785138 1.095798 1.047788
v -1.263395 1.734947 -0.4427681
v -1.91882 -0.06628203 1.749264
v -0.7395845 1.482829 0.2611767
v -0.0879224 3.013256 0.7326528
v -2.14939 1.185452 0.08597251
v -2.607195 -0.4784987 -0.3717736
v -2.321472 -0.9552376 0.8957407
v -1.915074 0.6781712 -0.9508641
v -2.253866 -0.9046544 -1.229649
v -2.038494 -1.406709 0.4587773
v -1.186389 -1.408492 -1.686455
v -1.733709 -0.5232254 -1.449974
v -1.648312 -0.01064801 -1.943869
v -2.287602 0.03649032 -2.761891
v -1.926999 0.8677044 -3.298173
v -2.389611 -0.790665 -4.100279
v -1.989256 0.2412933 -4.463662
v -0.4854756 1.077838 -4.394653
v -1.846061 -1.359151 -3.256705
v -1.212578 -1.418299 -4.87949
v -0.9890293 -0.2278674 -5.253485
v 0.5857805 -1.032193 -5.417705
v 0.3404385 0.4351172 -5.21608
v 0.282762 1.180774 -4.295394
v -0.6072795 1.100726 -2.688462
v -1.285727 0.8337076 -2.304083
v -0.2656907 3.182339 -1.873868
v 0.4981153 3.069691 -2.615017
v -0.5846789 0.5787997 -5.003649
v 1.06072 0.9552076 -4.47038
v 1.282565 -0.9586527 -5.164386
v 1.741118 -0.7585871 -4.182108
v 2.346039 2.460472 -3.62492
v 1.790404 2.448287 -4.098731
v 2.722253 1.864589 -3.103729
v 1.408685 3.389631 -3.695083
v 0.4895793 3.095574 -3.318386
v -0.3961635 1.513555 -3.237388
v 0.282762 1.180774 -4.295394
v 1.599073 3.283578 -3.14162
v 1.408685 3.389631 -3.695083
v 0.5318229 4.06373 -1.948523
v -0.2315744 2.856872 -1.055777
v 0.3238436 3.108706 -0.8881018
v 1.79379 4.038685 -1.572302
v 2.48096 3.953181 -1.873034
v 1.744484 3.726765 -2.906375
v 2.36239 3.506207 -3.005388
v 2.96616 2.471701 -2.332928
v 2.346039 2.460472 -3.62492
v 2.722253 1.864589 -3.103729
v 0.1724595 2.957852 -0.06754094
v 0.9688024 3.553353 0.3653639
v 0.7515312 3.94366 -0.1948812
v -0.3529465 1.627644 -0.1340563
v 1.872042 4.129 0.05514855
v 1.859691 2.945097 1.323494
v 2.307822 3.710522 0.1854536
v 2.923097 2.953988 0.9697116
v 2.605254 2.067237 1.999104
v 2.782918 3.488433 -0.7444749
v 2.539752 4.16515 -0.410067
v 2.848886 3.384043 -1.339734
v -0.788554 1.362221 -0.9502467
v -1.284059 0.8854377 -1.741318
v 1.740939 4.305454 -1.264559
v 1.740939 4.305454 -1.264559
v 1.116154 4.227715 -0.8734713
v 1.740939 4.305454 -1.264559
v 0.246907 2.878024 1.460721
v 2.848886 3.384043 -1.339734
v -1.029168 -0.1036632 1.949561
v -0.592953 -1.338201 1.373476
v -1.403071 -1.385 1.467196
v 2.605254 2.067237 1.999104
v 1.859691 2.945097 1.323494

vn -0.08028096 0.9702946 -0.2282177
vn -0.08064247 0.9756204 0.2041117
vn -0.4302834 0.9016843 -0.04268153
vn -0.6113924 0.791125 -0.01790342
vn -0.9378961 0.3450244 -0.03618041
vn 0.5502912 0.8265812 -0.1180809
vn -0.1373131 0.7837373 0.6057236
vn 0.5578216 0.5840358 0.5896926
vn -0.8389614 0.2284156 0.4939333
vn -0.8489873 0.469803 0.2418797
vn -0.6732658 0.141533 0.7257283
vn -0.4875943 0.4532501 0.7462012
vn -0.5873975 0.3171359 0.7445731
vn 0.1035225 0.2230808 0.9692874
vn 0.7385067 -0.1341844 0.6607589
vn 0.09201781 0.1035766 0.9903557
vn 0.9207962 0.3876741 -0.04293305
vn 0.4916924 -0.1977077 0.8480272
vn 0.3582615 -0.5696977 0.7396575
vn 0.04351518 -0.04955085 0.9978232
vn -0.1510039 -0.4943256 0.8560607
vn -0.8032881 -0.4080439 0.4338529
vn -0.9594868 -0.06918205 0.2731279
vn -0.8430504 0.519636 0.1387245
vn -0.5844502 0.005750131 0.8114091
vn -0.7121968 0.4188594 0.5633228
vn -0.6184006 0.7540678 0.2212744
vn -0.298043 0.7488317 0.5919641
vn -0.2235894 0.9746826 -0.001264475
vn -0.5491973 0.1302364 0.8254822
vn -0.5052063 0.835692 0.2153728
vn -0.7884638 0.6004805 0.1332213
vn -0.8287544 0.5300542 0.1794678
vn -0.9913131 -0.0255992 0.1290072
vn -0.7423363 -0.411185 0.5290214
vn -0.8262436 0.4401126 -0.3515998
vn -0.8662642 -0.2210139 -0.4480392
vn -0.6957124 -0.6977237 0.1707805
vn -0.8880869 -0.4596741 -0.001126632
vn -0.8552634 -0.04062797 -0.5165983
vn -0.9391436 0.2369711 0.2487045
vn -0.8357525 -0.0003296967 0.5491061
vn -0.5789496 0.7927613 0.1906487
vn -0.9762762 -0.1461907 -0.1597281
vn -0.7280955 0.5112867 -0.4565773
vn -0.2971255 0.8607096 -0.4133951
vn -0.7619769 -0.5631273 0.3198105
vn -0.6525716 -0.4524601 -0.6078076
vn -0.540195 0.0932596 -0.8363565
vn -0.1774127 0.02038465 -0.9839254
vn -0.05882457 0.5168373 -0.8540603
vn -0.4830267 0.6882439 -0.5413
vn -0.7529982 0.6217068 -0.2155791
vn -0.7797343 0.613097 0.1269902
vn -0.8497871 0.5066949 -0.1453343
vn -0.6741399 0.6991455 -0.2381827
vn -0.3980395 0.6075759 -0.6873254
vn 0.2015261 0.3175798 -0.926569
vn 0.4417016 0.2743709 -0.8541782
vn 0.5946412 0.09525099 -0.798329
vn 0.5061004 0.2439949 -0.8272417
vn 0.3813875 0.4109324 -0.8280568
vn 0.7264586 0.07312448 -0.6833087
vn -0.178924 0.7975547 -0.5761014
vn -0.7279047 0.6464446 -0.2286137
vn -0.9449866 0.3142122 -0.09094554
vn -0.4830267 0.6882439 -0.5413
vn 0.04225008 0.760004 -0.6485437
vn -0.178924 0.7975547 -0.5761014
vn -0.4109237 0.9114628 0.01942319
vn -0.6706628 0.5890514 0.4508103
vn -0.6718997 0.7223324 0.1636661
vn 0.0387098 0.9991937 -0.01065419
vn 0.4630522 0.8560058 -0.2298626
vn -0.2474541 0.7422395 -0.6227736
vn 0.3459978 0.580062 -0.7374372
vn 0.8142985 0.2916501 -0.5018548
vn 0.5061004 0.2439949 -0.8272417
vn 0.7264586 0.07312448 -0.6833087
vn -0.7354555 0.6482611 0.1971366
vn -0.2764609 0.7990751 0.5338991
vn -0.5627085 0.6930707 0.4505687
vn -0.6101328 0.7918079 -0.02789672
vn 0.1194768 0.8207904 0.5585951
vn 0.3106349 0.9415324 0.1304711
vn 0.5376691 0.6526233 0.5338491
vn 0.4719495 0.7738419 0.4224126
vn 0.7169812 0.6656519 -0.2069916
vn 0.9133824 0.4038721 0.05118521
vn 0.6173232 0.7819785 0.08614932
vn 0.7142488 0.6474187 -0.2658899
vn -0.6974033 0.7134305 0.06815889
vn -0.856794 0.4982644 0.1328031
vn -0.1168065 0.8468897 -0.5187812
vn -0.1168065 0.8468897 -0.5187812
vn -0.3804863 0.9244939 -0.02326375
vn -0.1168065 0.8468897 -0.5187812
vn -0.4302834 0.9016843 -0.04268153
vn 0.7142488 0.6474187 -0.2658899
vn -0.6195715 -0.2671491 0.7380803
vn -0.4821701 -0.5014252 0.7183903
vn -0.1869709 -0.4880462 0.8525566
vn 0.7169812 0.6656519 -0.2069916
vn 0.3106349 0.9415324 0.1304711

vt 0.235001 0.1490355
vt 0.2233077 0.1426988
vt 0.2171528 0.1816381
vt 0.193289 0.1618844
vt 0.1762438 0.1875983
vt 0.2439911 0.09723599
vt 0.2010401 0.1195127
vt 0.2185953 0.07313529
vt 0.1651859 0.1457514
vt 0.1446333 0.1543819
vt 0.1493893 0.1152061
vt 0.182615 0.1139232
vt 0.1214608 0.1040525
vt 0.1887616 0.08294312
vt 0.1987249 0.0148673
vt 0.1647509 0.07355388
vt 0.2523763 0.05902028
vt 0.1526978 0.04002948
vt 0.1169168 0.004880121
vt 0.1345344 0.07402577
vt 0.09986473 0.08046851
vt 0.06239271 0.0838813
vt 0.1063355 0.13148
vt 0.13067 0.157912
vt 0.163266 0.1061073
vt 0.1071235 0.1704617
vt 0.1335496 0.1900157
vt 0.1039462 0.2039799
vt 0.1301382 0.2502672
vt 0.07275896 0.1776163
vt 0.1441579 0.2252961
vt 0.2082552 0.2117992
vt 0.09991192 0.2339828
vt 0.05144665 0.2429319
vt 0.03822441 0.2017306
vt 0.09111213 0.2702254
vt 0.03889414 0.2715733
vt 0.01468172 0.2106209
vt 0.007684444 0.3006898
vt 0.04914431 0.2909635
vt 0.06851348 0.3101294
vt 0.06347421 0.3440422
vt 0.09000927 0.3577627
vt 0.04159307 0.3846479
vt 0.07367688 0.3918032
vt 0.1247076 0.4082273
vt 0.009462073 0.3640007
vt 0.02942133 0.4379362
vt 0.0749014 0.4325863
vt 0.08583317 0.4901417
vt 0.121429 0.4504148
vt 0.1504651 0.4162987
vt 0.1322047 0.3474228
vt 0.1078131 0.3251736
vt 0.2019835 0.3096747
vt 0.2158395 0.3470092
vt 0.1054343 0.4258634
vt 0.1637625 0.4464151
vt 0.1096583 0.5040354
vt 0.1478589 0.5133388
vt 0.2449686 0.4332959
vt 0.2229249 0.4221304
vt 0.2497842 0.4641595
vt 0.2375105 0.3889312
vt 0.2116607 0.3697288
vt 0.1501923 0.3668377
vt 0.1504651 0.4162987
vt 0.2553835 0.3803194
vt 0.2375105 0.3889312
vt 0.2398391 0.3156307
vt 0.1945409 0.2794403
vt 0.2165246 0.2723364
vt 0.2820266 0.3084418
vt 0.2986454 0.3296968
vt 0.2669089 0.3629429
vt 0.2854781 0.3699933
vt 0.3288033 0.3712626
vt 0.2934318 0.4089091
vt 0.3237704 0.4037248
vt 0.2095943 0.2418558
vt 0.2493987 0.226407
vt 0.2507089 0.2503763
vt 0.1565951 0.2425632
vt 0.2844224 0.2439104
vt 0.2819074 0.1834623
vt 0.3011224 0.2332393
vt 0.3244488 0.1964467
vt 0.3153067 0.1497081
vt 0.3288442 0.2664242
vt 0.3049942 0.2588976
vt 0.3314869 0.2904936
vt 0.1372812 0.2734591
vt 0.1096552 0.3037374
vt 0.2814378 0.2938614
vt 0.2814378 0.2938614
vt 0.2631963 0.2747383
vt 0.2814378 0.2938614
vt 0.2171528 0.1816381
vt 0.3265786 0.3251297
vt 0.07970545 0.1477654
vt 0.0312884 0.1342718
vt 0.02847565 0.1616286
vt 0.2788636 0.0878833
vt 0.2719212 0.1400693

g Cliff1_(3)_2526_174
usemtl Cliff1_(3)_2526_174
usemap Cliff1_(3)_2526_174
f 1/1/1 3/3/3 2/2/2
f 2/2/2 3/3/3 4/4/4
f 4/4/4 3/3/3 5/5/5
f 1/1/1 2/2/2 6/6/6
f 2/2/2 4/4/4 7/7/7
f 2/2/2 8/8/8 6/6/6
f 2/2/2 7/7/7 8/8/8
f 9/9/9 4/4/4 5/5/5
f 9/9/9 7/7/7 4/4/4
f 9/9/9 5/5/5 10/10/10
f 10/10/10 11/11/11 9/9/9
f 12/12/12 9/9/9 11/11/11
f 12/12/12 7/7/7 9/9/9
f 10/10/10 13/13/13 11/11/11
f 14/14/14 8/8/8 7/7/7
f 7/7/7 12/12/12 14/14/14
f 14/14/14 15/15/15 8/8/8
f 16/16/16 15/15/15 14/14/14
f 16/16/16 11/11/11 13/13/13
f 15/15/15 17/17/17 8/8/8
f 17/17/17 6/6/6 8/8/8
f 18/18/18 15/15/15 16/16/16
f 19/19/19 15/15/15 18/18/18
f 16/16/16 20/20/20 18/18/18
f 16/16/16 13/13/13 20/20/20
f 18/18/18 21/21/21 19/19/19
f 20/20/20 21/21/21 18/18/18
f 20/20/20 13/13/13 21/21/21
f 19/19/19 21/21/21 22/22/22
f 21/21/21 13/13/13 22/22/22
f 22/22/22 13/13/13 23/23/23
f 13/13/13 24/24/24 23/23/23
f 13/13/13 10/10/10 24/24/24
f 12/12/12 25/25/25 14/14/14
f 14/14/14 25/25/25 16/16/16
f 16/16/16 25/25/25 11/11/11
f 12/12/12 11/11/11 25/25/25
f 24/24/24 26/26/26 23/23/23
f 27/27/27 26/26/26 24/24/24
f 26/26/26 27/27/27 28/28/28
f 29/29/29 28/28/28 27/27/27
f 26/26/26 28/28/28 30/30/30
f 31/31/31 29/29/29 27/27/27
f 27/27/27 32/32/32 31/31/31
f 33/33/33 28/28/28 29/29/29
f 30/30/30 28/28/28 33/33/33
f 30/30/30 33/33/33 34/34/34
f 35/35/35 30/30/30 34/34/34
f 29/29/29 36/36/36 33/33/33
f 33/33/33 36/36/36 34/34/34
f 34/34/34 36/36/36 37/37/37
f 34/34/34 37/37/37 38/38/38
f 35/35/35 34/34/34 38/38/38
f 37/37/37 39/39/39 38/38/38
f 40/40/40 39/39/39 37/37/37
f 37/37/37 36/36/36 40/40/40
f 41/41/41 39/39/39 40/40/40
f 40/40/40 36/36/36 41/41/41
f 41/41/41 42/42/42 39/39/39
f 42/42/42 41/41/41 43/43/43
f 42/42/42 43/43/43 44/44/44
f 45/45/45 44/44/44 43/43/43
f 46/46/46 45/45/45 43/43/43
f 47/47/47 42/42/42 44/44/44
f 42/42/42 47/47/47 39/39/39
f 44/44/44 48/48/48 47/47/47
f 48/48/48 44/44/44 49/49/49
f 44/44/44 45/45/45 49/49/49
f 49/49/49 50/50/50 48/48/48
f 49/49/49 51/51/51 50/50/50
f 52/52/52 46/46/46 43/43/43
f 51/51/51 46/46/46 52/52/52
f 52/52/52 43/43/43 53/53/53
f 43/43/43 54/54/54 53/53/53
f 41/41/41 54/54/54 43/43/43
f 54/54/54 55/55/55 53/53/53
f 53/53/53 55/55/55 56/56/56
f 49/49/49 45/45/45 57/57/57
f 49/49/49 57/57/57 51/51/51
f 51/51/51 57/57/57 46/46/46
f 46/46/46 57/57/57 45/45/45
f 58/58/58 51/51/51 52/52/52
f 59/59/59 51/51/51 58/58/58
f 51/51/51 59/59/59 50/50/50
f 60/60/60 59/59/59 58/58/58
f 60/60/60 58/58/58 61/61/61
f 61/61/61 58/58/58 62/62/62
f 60/60/60 61/61/61 63/63/63
f 58/58/58 64/64/64 62/62/62
f 52/52/52 64/64/64 58/58/58
f 65/65/65 64/64/64 52/52/52
f 64/64/64 65/65/65 56/56/56
f 65/65/65 52/52/52 66/66/66
f 56/56/56 65/65/65 66/66/66
f 66/66/66 53/53/53 56/56/56
f 66/66/66 67/67/67 53/53/53
f 68/68/68 64/64/64 56/56/56
f 62/62/62 68/68/68 61/61/61
f 62/62/62 69/69/69 68/68/68
f 56/56/56 55/55/55 70/70/70
f 55/55/55 71/71/71 70/70/70
f 71/71/71 72/72/72 70/70/70
f 73/73/73 70/70/70 72/72/72
f 70/70/70 73/73/73 74/74/74
f 70/70/70 74/74/74 75/75/75
f 76/76/76 75/75/75 74/74/74
f 76/76/76 68/68/68 75/75/75
f 77/77/77 76/76/76 74/74/74
f 77/77/77 78/78/78 76/76/76
f 76/76/76 78/78/78 68/68/68
f 79/79/79 78/78/78 77/77/77
f 72/72/72 71/71/71 80/80/80
f 72/72/72 80/80/80 81/81/81
f 72/72/72 81/81/81 82/82/82
f 32/32/32 81/81/81 80/80/80
f 32/32/32 3/3/3 81/81/81
f 80/80/80 83/83/83 32/32/32
f 84/84/84 82/82/82 81/81/81
f 81/81/81 3/3/3 85/85/85
f 81/81/81 85/85/85 86/86/86
f 84/84/84 81/81/81 86/86/86
f 85/85/85 87/87/87 86/86/86
f 88/88/88 87/87/87 85/85/85
f 87/87/87 89/89/89 86/86/86
f 90/90/90 86/86/86 89/89/89
f 90/90/90 84/84/84 86/86/86
f 91/91/91 90/90/90 89/89/89
f 83/83/83 80/80/80 92/92/92
f 92/92/92 29/29/29 83/83/83
f 92/92/92 36/36/36 29/29/29
f 92/92/92 93/93/93 36/36/36
f 92/92/92 71/71/71 93/93/93
f 71/71/71 55/55/55 93/93/93
f 36/36/36 93/93/93 41/41/41
f 91/91/91 94/94/94 90/90/90
f 80/80/80 71/71/71 92/92/92
f 55/55/55 54/54/54 93/93/93
f 93/93/93 54/54/54 41/41/41
f 73/73/73 94/94/94 91/91/91
f 95/95/95 96/96/96 90/90/90
f 96/96/96 84/84/84 90/90/90
f 96/96/96 82/82/82 84/84/84
f 82/82/82 96/96/96 72/72/72
f 72/72/72 96/96/96 97/97/97
f 73/73/73 72/72/72 97/97/97
f 83/83/83 29/29/29 31/31/31
f 31/31/31 32/32/32 83/83/83
f 32/32/32 5/5/5 98/98/98
f 5/5/5 32/32/32 27/27/27
f 5/5/5 27/27/27 10/10/10
f 10/10/10 27/27/27 24/24/24
f 73/73/73 99/99/99 74/74/74
f 99/99/99 77/77/77 74/74/74
f 100/100/100 101/101/101 22/22/22
f 102/102/102 101/101/101 100/100/100
f 102/102/102 100/100/100 30/30/30
f 30/30/30 35/35/35 102/102/102
f 23/23/23 100/100/100 22/22/22
f 102/102/102 35/35/35 38/38/38
f 23/23/23 26/26/26 100/100/100
f 26/26/26 30/30/30 100/100/100
f 103/103/103 104/104/104 6/6/6
f 17/17/17 103/103/103 6/6/6
f 104/104/104 1/1/1 6/6/6
f 3/3/3 1/1/1 104/104/104
f 56/56/56 75/75/75 68/68/68
f 70/70/70 75/75/75 56/56/56
