#Cliff1_(22)_3168_191.obj

v 0.986722 3.40404 1.787296
v 0.8084574 3.327841 2.227026
v 0.2469072 2.878024 1.46072
v -0.517971 3.042773 2.108622
v -0.3743029 2.139339 1.412117
v 2.430998 2.973319 2.656933
v 0.5516472 2.76025 3.362904
v 2.400997 2.329754 4.006104
v -0.9462662 2.084943 2.862339
v -0.7941256 1.467389 2.372868
v -0.2145996 1.217834 3.399088
v 0.1439304 2.221952 3.721865
v -0.8697224 0.4667062 3.909601
v 1.085176 1.840566 4.426283
v 2.588381 0.3948463 3.307777
v 0.7829294 0.9381422 4.243475
v 3.076824 2.123976 2.823317
v 1.476073 -0.09580493 4.227882
v 1.656431 -1.402846 3.499971
v 0.1907473 0.1156069 4.426569
v -0.4979973 -0.6798213 3.937548
v -0.7498484 -1.367526 3.002232
v -1.201981 0.380566 2.775965
v -1.122529 1.270268 2.191534
v -0.1030474 1.51243 3.878328
v -1.159135 0.6430953 1.696133
v -0.7255192 1.066525 1.25531
v -1.785138 1.095798 1.047789
v -1.263394 1.734947 -0.44277
v -1.91882 -0.06628203 1.749264
v -0.7395849 1.482829 0.2611771
v -0.0879221 3.013256 0.7326546
v -2.149389 1.185452 0.08597183
v -2.607195 -0.4784987 -0.3717747
v -2.321472 -0.9552376 0.8957405
v -1.915074 0.6781713 -0.9508629
v -2.253866 -0.9046545 -1.229649
v -2.038494 -1.406709 0.4587784
v -1.186389 -1.408492 -1.686457
v -1.733709 -0.5232254 -1.449976
v -1.648312 -0.01064801 -1.943869
v -2.287601 0.03649032 -2.76189
v -1.927 0.8677043 -3.298172
v -2.389609 -0.790665 -4.100281
v -1.989255 0.2412933 -4.463665
v -0.4854746 1.077838 -4.394655
v -1.846061 -1.359151 -3.256704
v -1.212578 -1.418299 -4.87949
v -0.9890289 -0.2278674 -5.253483
v 0.5857811 -1.032193 -5.417706
v 0.3404398 0.4351172 -5.216078
v 0.2827625 1.180774 -4.295395
v -0.6072798 1.100726 -2.688461
v -1.285727 0.8337076 -2.304085
v -0.2656908 3.182339 -1.873867
v 0.4981155 3.069691 -2.615017
v -0.5846786 0.5787998 -5.003647
v 1.06072 0.9552076 -4.470383
v 1.282566 -0.9586527 -5.164385
v 1.741118 -0.7585871 -4.182108
v 2.34604 2.460472 -3.624922
v 1.790405 2.448287 -4.098732
v 2.722254 1.864589 -3.103729
v 1.408685 3.389632 -3.695082
v 0.4895802 3.095574 -3.318388
v -0.396163 1.513554 -3.237387
v 0.2827625 1.180774 -4.295395
v 1.599073 3.283578 -3.141619
v 1.408685 3.389632 -3.695082
v 0.5318232 4.06373 -1.948521
v -0.231575 2.856872 -1.055777
v 0.323844 3.108705 -0.8880997
v 1.79379 4.038685 -1.5723
v 2.48096 3.953181 -1.873035
v 1.744485 3.726765 -2.906374
v 2.36239 3.506207 -3.005386
v 2.966161 2.471701 -2.332926
v 2.34604 2.460472 -3.624922
v 2.722254 1.864589 -3.103729
v 0.1724596 2.957852 -0.06754112
v 0.9688025 3.553354 0.3653622
v 0.7515306 3.94366 -0.1948814
v -0.3529463 1.627644 -0.1340561
v 1.872042 4.129 0.05514717
v 1.859691 2.945097 1.323496
v 2.307821 3.710522 0.1854553
v 2.923097 2.953988 0.9697113
v 2.605254 2.067237 1.999104
v 2.782919 3.488433 -0.7444744
v 2.539752 4.16515 -0.4100685
v 2.848886 3.384043 -1.339733
v -0.7885542 1.362221 -0.9502449
v -1.284059 0.8854378 -1.741318
v 1.74094 4.305454 -1.264559
v 1.74094 4.305454 -1.264559
v 1.116154 4.227715 -0.8734703
v 1.74094 4.305454 -1.264559
v 0.2469072 2.878024 1.46072
v 2.848886 3.384043 -1.339733
v -1.029169 -0.1036632 1.949562
v -0.5929537 -1.338201 1.373474
v -1.40307 -1.385 1.467196
v 2.605254 2.067237 1.999104
v 1.859691 2.945097 1.323496

vn -0.03391714 0.9702946 -0.239537
vn -0.1191427 0.9756204 0.184309
vn -0.4135319 0.9016843 -0.1263205
vn -0.5959811 0.791125 -0.1375782
vn -0.9125436 0.3450244 -0.2195959
vn 0.562764 0.8265812 -0.007754961
vn -0.2535515 0.7837373 0.5669811
vn 0.4312041 0.5840358 0.6877248
vn -0.9196011 0.2284156 0.3196247
vn -0.8799511 0.469803 0.07050741
vn -0.8026337 0.141533 0.5794373
vn -0.6245942 0.4532501 0.6359611
vn -0.7221357 0.3171359 0.6147723
vn -0.0887738 0.2230808 0.9707493
vn 0.5944222 -0.1341844 0.7928787
vn -0.1041906 0.1035766 0.9891492
vn 0.9113072 0.3876741 0.1386649
vn 0.3156477 -0.1977077 0.9280507
vn 0.2060873 -0.5696977 0.7955957
vn -0.1532154 -0.04955085 0.9869497
vn -0.3161199 -0.4943256 0.8097594
vn -0.8728276 -0.4080439 0.2677164
vn -0.9944348 -0.06918205 0.07945526
vn -0.8538792 0.519636 -0.02947504
vn -0.7323665 0.005750131 0.6808863
vn -0.8089252 0.4188594 0.4125493
vn -0.6498061 0.7540678 0.0955698
vn -0.4084528 0.7488317 0.5219362
vn -0.2189905 0.9746826 -0.04513297
vn -0.7005621 0.1302364 0.7016062
vn -0.5376559 0.835692 0.1120043
vn -0.7992745 0.6004805 -0.0241552
vn -0.8478597 0.5300542 0.01328187
vn -0.9973494 -0.0255992 -0.06810891
vn -0.8317445 -0.411185 0.3729987
vn -0.7411433 0.4401126 -0.5069591
vn -0.7614531 -0.2210139 -0.6093785
vn -0.7157011 -0.6977237 0.03088125
vn -0.870585 -0.4596741 -0.1754461
vn -0.7372074 -0.04062797 -0.674444
vn -0.9696929 0.2369711 0.05950072
vn -0.9272859 -0.0003296967 0.3743538
vn -0.6051106 0.7927613 0.07328475
vn -0.925923 -0.1461907 -0.348274
vn -0.6242968 0.5112867 -0.5906264
vn -0.2101899 0.8607096 -0.4636801
vn -0.8099325 -0.5631273 0.1640029
vn -0.5205542 -0.4524601 -0.7240878
vn -0.3654976 0.0932596 -0.9261286
vn 0.01919497 0.02038465 -0.9996079
vn 0.1099816 0.5168373 -0.8489896
vn -0.3673645 0.6882439 -0.6255907
vn -0.6960255 0.6217068 -0.3592063
vn -0.7894915 0.613097 -0.02855136
vn -0.8047209 0.5066949 -0.3093291
vn -0.6142643 0.6991455 -0.3658892
vn -0.2553646 0.6075759 -0.7520908
vn 0.3795006 0.3175798 -0.8689777
vn 0.6007916 0.2743709 -0.7508463
vn 0.7397913 0.09525099 -0.6660601
vn 0.6586493 0.2439949 -0.7117918
vn 0.5365232 0.4109324 -0.7370736
vn 0.846464 0.07312448 -0.5274007
vn -0.06234726 0.7975547 -0.6000162
vn -0.6688614 0.6464446 -0.367061
vn -0.9087451 0.3142122 -0.2746873
vn -0.3673645 0.6882439 -0.6255907
vn 0.1687443 0.760004 -0.6276299
vn -0.06234726 0.7975547 -0.6000162
vn -0.4067408 0.9114628 -0.06162366
vn -0.7461119 0.5890514 0.3103797
vn -0.6909552 0.7223324 0.02857998
vn 0.04004811 0.9991937 -0.002847712
vn 0.4991666 0.8560058 -0.1344875
vn -0.1203816 0.7422395 -0.6592335
vn 0.4840324 0.580062 -0.6551647
vn 0.8969733 0.2916501 -0.3322337
vn 0.6586493 0.2439949 -0.7117918
vn 0.846464 0.07312448 -0.5274007
vn -0.7598449 0.6482611 0.04892247
vn -0.3758917 0.7990751 0.469238
vn -0.6402108 0.6930707 0.3313355
vn -0.5927842 0.7918079 -0.1471298
vn 0.007493547 0.8207904 0.5711804
vn 0.2789775 0.9415324 0.1889134
vn 0.4224064 0.6526233 0.6290117
vn 0.3798418 0.7738419 0.5068421
vn 0.7436647 0.6656519 -0.06221248
vn 0.8855612 0.4038721 0.2294964
vn 0.588399 0.7819785 0.2056604
vn 0.7525479 0.6474187 -0.1205011
vn -0.6972134 0.7134305 -0.07007542
vn -0.8661929 0.4982644 -0.0379793
vn -0.01269105 0.8468897 -0.531617
vn -0.01269105 0.8468897 -0.531617
vn -0.3685158 0.9244939 -0.09750479
vn -0.01269105 0.8468897 -0.531617
vn -0.4135319 0.9016843 -0.1263205
vn 0.7525479 0.6474187 -0.1205011
vn -0.752409 -0.2671491 0.6020897
vn -0.613816 -0.5014252 0.6097563
vn -0.3506991 -0.4880462 0.7992628
vn 0.7436647 0.6656519 -0.06221248
vn 0.2789775 0.9415324 0.1889134

vt 0.235001 0.1490355
vt 0.2233077 0.1426988
vt 0.2171528 0.1816381
vt 0.193289 0.1618844
vt 0.1762438 0.1875983
vt 0.2439911 0.09723599
vt 0.2010401 0.1195127
vt 0.2185953 0.07313529
vt 0.1651859 0.1457514
vt 0.1446333 0.1543819
vt 0.1493893 0.1152061
vt 0.182615 0.1139232
vt 0.1214608 0.1040525
vt 0.1887616 0.08294312
vt 0.1987249 0.0148673
vt 0.1647509 0.07355388
vt 0.2523763 0.05902028
vt 0.1526978 0.04002948
vt 0.1169168 0.004880121
vt 0.1345344 0.07402577
vt 0.09986473 0.08046851
vt 0.06239271 0.0838813
vt 0.1063355 0.13148
vt 0.13067 0.157912
vt 0.163266 0.1061073
vt 0.1071235 0.1704617
vt 0.1335496 0.1900157
vt 0.1039462 0.2039799
vt 0.1301382 0.2502672
vt 0.07275896 0.1776163
vt 0.1441579 0.2252961
vt 0.2082552 0.2117992
vt 0.09991192 0.2339828
vt 0.05144665 0.2429319
vt 0.03822441 0.2017306
vt 0.09111213 0.2702254
vt 0.03889414 0.2715733
vt 0.01468172 0.2106209
vt 0.007684444 0.3006898
vt 0.04914431 0.2909635
vt 0.06851348 0.3101294
vt 0.06347421 0.3440422
vt 0.09000927 0.3577627
vt 0.04159307 0.3846479
vt 0.07367688 0.3918032
vt 0.1247076 0.4082273
vt 0.009462073 0.3640007
vt 0.02942133 0.4379362
vt 0.0749014 0.4325863
vt 0.08583317 0.4901417
vt 0.121429 0.4504148
vt 0.1504651 0.4162987
vt 0.1322047 0.3474228
vt 0.1078131 0.3251736
vt 0.2019835 0.3096747
vt 0.2158395 0.3470092
vt 0.1054343 0.4258634
vt 0.1637625 0.4464151
vt 0.1096583 0.5040354
vt 0.1478589 0.5133388
vt 0.2449686 0.4332959
vt 0.2229249 0.4221304
vt 0.2497842 0.4641595
vt 0.2375105 0.3889312
vt 0.2116607 0.3697288
vt 0.1501923 0.3668377
vt 0.1504651 0.4162987
vt 0.2553835 0.3803194
vt 0.2375105 0.3889312
vt 0.2398391 0.3156307
vt 0.1945409 0.2794403
vt 0.2165246 0.2723364
vt 0.2820266 0.3084418
vt 0.2986454 0.3296968
vt 0.2669089 0.3629429
vt 0.2854781 0.3699933
vt 0.3288033 0.3712626
vt 0.2934318 0.4089091
vt 0.3237704 0.4037248
vt 0.2095943 0.2418558
vt 0.2493987 0.226407
vt 0.2507089 0.2503763
vt 0.1565951 0.2425632
vt 0.2844224 0.2439104
vt 0.2819074 0.1834623
vt 0.3011224 0.2332393
vt 0.3244488 0.1964467
vt 0.3153067 0.1497081
vt 0.3288442 0.2664242
vt 0.3049942 0.2588976
vt 0.3314869 0.2904936
vt 0.1372812 0.2734591
vt 0.1096552 0.3037374
vt 0.2814378 0.2938614
vt 0.2814378 0.2938614
vt 0.2631963 0.2747383
vt 0.2814378 0.2938614
vt 0.2171528 0.1816381
vt 0.3265786 0.3251297
vt 0.07970545 0.1477654
vt 0.0312884 0.1342718
vt 0.02847565 0.1616286
vt 0.2788636 0.0878833
vt 0.2719212 0.1400693

g Cliff1_(22)_3168_191
usemtl Cliff1_(22)_3168_191
usemap Cliff1_(22)_3168_191
f 1/1/1 3/3/3 2/2/2
f 2/2/2 3/3/3 4/4/4
f 4/4/4 3/3/3 5/5/5
f 1/1/1 2/2/2 6/6/6
f 2/2/2 4/4/4 7/7/7
f 2/2/2 8/8/8 6/6/6
f 2/2/2 7/7/7 8/8/8
f 9/9/9 4/4/4 5/5/5
f 9/9/9 7/7/7 4/4/4
f 9/9/9 5/5/5 10/10/10
f 10/10/10 11/11/11 9/9/9
f 12/12/12 9/9/9 11/11/11
f 12/12/12 7/7/7 9/9/9
f 10/10/10 13/13/13 11/11/11
f 14/14/14 8/8/8 7/7/7
f 7/7/7 12/12/12 14/14/14
f 14/14/14 15/15/15 8/8/8
f 16/16/16 15/15/15 14/14/14
f 16/16/16 11/11/11 13/13/13
f 15/15/15 17/17/17 8/8/8
f 17/17/17 6/6/6 8/8/8
f 18/18/18 15/15/15 16/16/16
f 19/19/19 15/15/15 18/18/18
f 16/16/16 20/20/20 18/18/18
f 16/16/16 13/13/13 20/20/20
f 18/18/18 21/21/21 19/19/19
f 20/20/20 21/21/21 18/18/18
f 20/20/20 13/13/13 21/21/21
f 19/19/19 21/21/21 22/22/22
f 21/21/21 13/13/13 22/22/22
f 22/22/22 13/13/13 23/23/23
f 13/13/13 24/24/24 23/23/23
f 13/13/13 10/10/10 24/24/24
f 12/12/12 25/25/25 14/14/14
f 14/14/14 25/25/25 16/16/16
f 16/16/16 25/25/25 11/11/11
f 12/12/12 11/11/11 25/25/25
f 24/24/24 26/26/26 23/23/23
f 27/27/27 26/26/26 24/24/24
f 26/26/26 27/27/27 28/28/28
f 29/29/29 28/28/28 27/27/27
f 26/26/26 28/28/28 30/30/30
f 31/31/31 29/29/29 27/27/27
f 27/27/27 32/32/32 31/31/31
f 33/33/33 28/28/28 29/29/29
f 30/30/30 28/28/28 33/33/33
f 30/30/30 33/33/33 34/34/34
f 35/35/35 30/30/30 34/34/34
f 29/29/29 36/36/36 33/33/33
f 33/33/33 36/36/36 34/34/34
f 34/34/34 36/36/36 37/37/37
f 34/34/34 37/37/37 38/38/38
f 35/35/35 34/34/34 38/38/38
f 37/37/37 39/39/39 38/38/38
f 40/40/40 39/39/39 37/37/37
f 37/37/37 36/36/36 40/40/40
f 41/41/41 39/39/39 40/40/40
f 40/40/40 36/36/36 41/41/41
f 41/41/41 42/42/42 39/39/39
f 42/42/42 41/41/41 43/43/43
f 42/42/42 43/43/43 44/44/44
f 45/45/45 44/44/44 43/43/43
f 46/46/46 45/45/45 43/43/43
f 47/47/47 42/42/42 44/44/44
f 42/42/42 47/47/47 39/39/39
f 44/44/44 48/48/48 47/47/47
f 48/48/48 44/44/44 49/49/49
f 44/44/44 45/45/45 49/49/49
f 49/49/49 50/50/50 48/48/48
f 49/49/49 51/51/51 50/50/50
f 52/52/52 46/46/46 43/43/43
f 51/51/51 46/46/46 52/52/52
f 52/52/52 43/43/43 53/53/53
f 43/43/43 54/54/54 53/53/53
f 41/41/41 54/54/54 43/43/43
f 54/54/54 55/55/55 53/53/53
f 53/53/53 55/55/55 56/56/56
f 49/49/49 45/45/45 57/57/57
f 49/49/49 57/57/57 51/51/51
f 51/51/51 57/57/57 46/46/46
f 46/46/46 57/57/57 45/45/45
f 58/58/58 51/51/51 52/52/52
f 59/59/59 51/51/51 58/58/58
f 51/51/51 59/59/59 50/50/50
f 60/60/60 59/59/59 58/58/58
f 60/60/60 58/58/58 61/61/61
f 61/61/61 58/58/58 62/62/62
f 60/60/60 61/61/61 63/63/63
f 58/58/58 64/64/64 62/62/62
f 52/52/52 64/64/64 58/58/58
f 65/65/65 64/64/64 52/52/52
f 64/64/64 65/65/65 56/56/56
f 65/65/65 52/52/52 66/66/66
f 56/56/56 65/65/65 66/66/66
f 66/66/66 53/53/53 56/56/56
f 66/66/66 67/67/67 53/53/53
f 68/68/68 64/64/64 56/56/56
f 62/62/62 68/68/68 61/61/61
f 62/62/62 69/69/69 68/68/68
f 56/56/56 55/55/55 70/70/70
f 55/55/55 71/71/71 70/70/70
f 71/71/71 72/72/72 70/70/70
f 73/73/73 70/70/70 72/72/72
f 70/70/70 73/73/73 74/74/74
f 70/70/70 74/74/74 75/75/75
f 76/76/76 75/75/75 74/74/74
f 76/76/76 68/68/68 75/75/75
f 77/77/77 76/76/76 74/74/74
f 77/77/77 78/78/78 76/76/76
f 76/76/76 78/78/78 68/68/68
f 79/79/79 78/78/78 77/77/77
f 72/72/72 71/71/71 80/80/80
f 72/72/72 80/80/80 81/81/81
f 72/72/72 81/81/81 82/82/82
f 32/32/32 81/81/81 80/80/80
f 32/32/32 3/3/3 81/81/81
f 80/80/80 83/83/83 32/32/32
f 84/84/84 82/82/82 81/81/81
f 81/81/81 3/3/3 85/85/85
f 81/81/81 85/85/85 86/86/86
f 84/84/84 81/81/81 86/86/86
f 85/85/85 87/87/87 86/86/86
f 88/88/88 87/87/87 85/85/85
f 87/87/87 89/89/89 86/86/86
f 90/90/90 86/86/86 89/89/89
f 90/90/90 84/84/84 86/86/86
f 91/91/91 90/90/90 89/89/89
f 83/83/83 80/80/80 92/92/92
f 92/92/92 29/29/29 83/83/83
f 92/92/92 36/36/36 29/29/29
f 92/92/92 93/93/93 36/36/36
f 92/92/92 71/71/71 93/93/93
f 71/71/71 55/55/55 93/93/93
f 36/36/36 93/93/93 41/41/41
f 91/91/91 94/94/94 90/90/90
f 80/80/80 71/71/71 92/92/92
f 55/55/55 54/54/54 93/93/93
f 93/93/93 54/54/54 41/41/41
f 73/73/73 94/94/94 91/91/91
f 95/95/95 96/96/96 90/90/90
f 96/96/96 84/84/84 90/90/90
f 96/96/96 82/82/82 84/84/84
f 82/82/82 96/96/96 72/72/72
f 72/72/72 96/96/96 97/97/97
f 73/73/73 72/72/72 97/97/97
f 83/83/83 29/29/29 31/31/31
f 31/31/31 32/32/32 83/83/83
f 32/32/32 5/5/5 98/98/98
f 5/5/5 32/32/32 27/27/27
f 5/5/5 27/27/27 10/10/10
f 10/10/10 27/27/27 24/24/24
f 73/73/73 99/99/99 74/74/74
f 99/99/99 77/77/77 74/74/74
f 100/100/100 101/101/101 22/22/22
f 102/102/102 101/101/101 100/100/100
f 102/102/102 100/100/100 30/30/30
f 30/30/30 35/35/35 102/102/102
f 23/23/23 100/100/100 22/22/22
f 102/102/102 35/35/35 38/38/38
f 23/23/23 26/26/26 100/100/100
f 26/26/26 30/30/30 100/100/100
f 103/103/103 104/104/104 6/6/6
f 17/17/17 103/103/103 6/6/6
f 104/104/104 1/1/1 6/6/6
f 3/3/3 1/1/1 104/104/104
f 56/56/56 75/75/75 68/68/68
f 70/70/70 75/75/75 56/56/56
