#Cliff2_(14)_2588_220.obj

v 0.4760405 0.4914154 4.20371
v 0.95202 2.536463 4.831675
v 1.921345 1.776202 4.324427
v 2.311408 3.254946 4.490479
v 1.219492 3.631765 4.664165
v -0.07394783 0.9492179 4.304917
v 0.4339716 2.545221 4.143607
v -0.016566 1.945487 2.969395
v -1.007865 1.438823 3.111645
v -1.239222 -0.468051 3.674069
v -1.895118 0.9018349 2.140348
v -0.09130355 -0.4670249 4.13736
v 1.179737 -0.5265928 3.353134
v 1.649275 0.7323053 3.492845
v 2.279493 2.869701 3.737189
v -1.023202 1.79916 2.422477
v -1.101443 1.238455 1.508033
v -1.840459 0.3919984 1.533808
v -1.483524 0.5916079 1.387024
v -1.833301 1.249238 0.5989845
v -1.959129 0.6982791 -0.2008883
v -1.946127 0.5907004 1.224422
v -2.300944 -0.4732458 1.291814
v -1.689383 -0.4131294 1.543474
v -2.727713 0.3950576 0.3783593
v -1.658801 1.511396 -0.9443672
v -1.246558 1.990875 0.2855631
v -0.9252534 2.705429 1.49558
v -1.012727 1.841025 -1.220194
v -0.3192192 2.419419 -0.2812724
v -1.491794 0.5179924 -0.9873577
v -2.435757 0.2335756 -0.7181123
v -2.03939 -0.4871474 -1.046011
v -2.642266 -0.480611 0.3821704
v -0.9981765 -0.4651444 -1.006052
v -1.02741 1.669531 -1.787087
v -0.5415919 2.5393 -2.018191
v -0.6006389 2.460373 -0.6056426
v 0.1899853 2.780446 -0.915069
v -0.2079448 2.647751 -1.633201
v 0.2787495 4.129723 -1.746066
v 0.9361496 3.962685 -2.791086
v 0.4150609 3.519427 -3.045681
v 0.7509885 4.326151 -3.599065
v 0.4699132 2.769301 -4.286859
v 0.3991419 2.119897 -3.976038
v 1.920011 4.350257 -2.820832
v 0.8929948 4.68538 -2.064269
v 1.415321 4.770423 -1.30984
v 2.785022 4.238982 -1.553756
v 2.364825 3.607649 -2.607466
v 0.4971071 4.195392 -1.223453
v -0.2943844 3.716998 -0.3802812
v -0.2928185 3.17517 0.7667342
v 0.2896885 3.564549 1.357159
v -1.061751 2.554669 0.2977819
v 0.5793937 4.41165 0.6892545
v 0.465405 4.819255 -0.9288724
v -0.815161 3.046505 0.8446472
v 0.005372883 3.354817 1.885399
v 0.519487 3.03608 2.598403
v -0.2627601 2.154825 2.490534
v -0.1372257 2.677557 1.826579
v -0.6016263 1.682514 1.970808
v 1.015596 3.932643 1.774179
v 1.311443 3.682909 3.446053
v 2.57593 3.886436 3.034048
v 2.010963 3.893333 1.769045
v 1.083623 4.768339 1.412131
v 3.013582 3.617591 1.225659
v 3.117788 3.490742 3.18006
v 2.167773 4.422462 1.170604
v 2.616391 3.537647 0.7774321
v 2.141317 3.808929 3.617787
v 1.157526 3.90157 4.06272
v 2.470706 4.18166 0.02512268
v 1.164479 4.839081 0.639516
v 2.311408 3.254946 4.490479
v 2.279493 2.869701 3.737189
v 1.763206 4.812548 0.2236397
v 1.860751 4.702988 -0.9672135
v 2.470706 4.18166 0.02512268
v 0.1246019 -0.4985242 -4.18134
v -0.06210858 0.1435984 -4.447942
v -0.7081033 -0.4988193 -4.057673
v 0.9058111 1.144064 -4.180474
v 1.699728 0.5882255 -3.877892
v 0.9383212 2.09288 -4.527663
v 1.366824 3.404302 -4.659205
v 2.000093 3.509428 -4.180001
v 0.7950676 3.905993 -4.351164
v 1.313981 4.491748 -3.825981
v 1.911853 3.968628 -4.137276
v 1.366824 3.404302 -4.659205
v 0.6724191 -0.4970478 -3.60923
v 2.000093 3.509428 -4.180001
v -0.3955475 2.506369 -2.879342
v -0.670333 0.1681185 -4.112482
v -1.335296 0.1621933 -3.253765
v -0.6678867 1.762156 -2.344596
v -0.7075338 -0.4737267 -2.331576
v -1.026905 0.497941 -1.949895
v -0.7337352 -0.4846424 -1.500275
v -1.194118 -0.4955799 -3.330792
v -1.925724 -0.473782 1.881937
v -2.046094 0.1442288 2.228936

vn 0.3544414 -0.377163 0.8556397
vn -0.09540282 -0.03471074 0.9948334
vn 0.7129637 -0.4406905 0.5454124
vn 0.8125513 0.1100525 0.5724062
vn -0.1233745 0.6715033 0.7306586
vn -0.4458469 0.2092387 0.87031
vn -0.8054636 0.4119968 0.4260128
vn -0.6116032 0.6572832 0.4403639
vn -0.5355856 0.5999059 0.5943577
vn -0.7019607 0.09198349 0.7062508
vn -0.8392824 0.5269936 0.1337264
vn 0.1312595 -0.2238455 0.9657453
vn 0.5515471 -0.3557535 0.7544768
vn 0.7411335 -0.4821514 0.4671737
vn 0.9745608 -0.123925 0.186745
vn -0.4678389 0.8830143 0.0375831
vn -0.7738272 0.631664 0.04681798
vn -0.9144426 0.4044649 0.01424503
vn -0.6424232 0.7081621 0.2929144
vn -0.8339928 0.4200885 0.3577453
vn -0.7958007 0.6017851 -0.06749693
vn -0.4131563 0.7823758 0.4660364
vn -0.709367 0.1452485 0.6897111
vn -0.9302282 -0.1303166 0.3430643
vn -0.8030326 0.5898529 0.08492401
vn -0.835174 0.4374827 -0.3333065
vn -0.7698771 0.6381232 0.009386621
vn -0.6555043 0.5369439 0.5310419
vn -0.8571648 0.5112683 -0.06223596
vn -0.8088943 0.5651393 -0.1621961
vn -0.5221492 0.3586691 -0.7737678
vn -0.8232412 0.2852979 -0.4907941
vn -0.5211831 0.02336811 -0.8531249
vn -0.9920824 -0.1238838 -0.02062397
vn -0.8384578 -0.06842157 -0.5406542
vn -0.9606732 0.2338777 -0.1496937
vn -0.708139 0.706067 0.00290573
vn -0.6010852 0.7131528 0.3607071
vn -0.7438772 0.6677163 0.02831355
vn -0.7063179 0.6993857 0.1094293
vn -0.8571115 0.5135824 0.03991225
vn -0.6503829 0.7592456 -0.02341494
vn -0.8454925 0.5331581 -0.02974525
vn -0.6451833 0.7557589 0.112103
vn -0.8520501 0.08945894 -0.5157593
vn -0.6930583 0.2728846 -0.6672363
vn 0.3461939 0.9137714 -0.2125365
vn -0.4211029 0.8875466 -0.1869049
vn 0.04861105 0.977888 -0.2034011
vn 0.5565627 0.7974815 -0.2329403
vn 0.8537751 0.319844 -0.4108135
vn -0.7919965 0.5699064 -0.218971
vn -0.9169559 0.3849885 -0.1047642
vn -0.5903165 0.8001773 0.1060315
vn -0.5543299 0.7112451 0.4322601
vn -0.7001265 0.6189846 -0.3559226
vn -0.6594195 0.6964656 0.2830219
vn -0.3610273 0.9219968 -0.1399338
vn -0.5025787 0.8642673 0.0213702
vn -0.6721666 0.6465721 0.3607443
vn -0.5383077 0.7580448 0.3682292
vn -0.6891145 0.6443473 0.3315687
vn -0.7262058 0.5053457 0.4661016
vn -0.654999 0.7053919 0.2709219
vn -0.3075801 0.8020645 0.5119444
vn -0.2521548 0.9670873 -0.03406167
vn 0.2410447 0.9658232 0.09530505
vn 0.4060182 0.8521526 0.3301292
vn -0.1850257 0.7731715 0.6066065
vn 0.3553702 0.9259666 -0.1276636
vn 0.6271853 0.6234032 0.4669121
vn 0.7028243 0.6639894 0.255257
vn 0.7987642 0.5958858 0.08304071
vn 0.4785961 0.8291512 0.2888843
vn -0.5022314 0.8609306 0.08100832
vn 0.7172156 0.6762034 0.1683767
vn 0.1000092 0.9706195 0.2188515
vn 0.8125513 0.1100525 0.5724062
vn 0.9745608 -0.123925 0.186745
vn 0.4418166 0.8812741 0.1677921
vn 0.3911073 0.9196582 -0.0355508
vn 0.7172156 0.6762034 0.1683767
vn 0.2244923 -0.3797027 -0.8974569
vn -0.2009805 -0.008405181 -0.9795592
vn -0.6620911 -0.1085637 -0.7415184
vn -0.1812944 -0.1574442 -0.9707438
vn 0.319636 -0.3149436 -0.8936684
vn -0.2548941 -0.1803916 -0.9499936
vn 0.09228114 0.1170788 -0.988826
vn 0.7150378 0.1239109 -0.6880167
vn -0.3943637 0.5857927 -0.7080426
vn 0.04758988 0.933446 -0.3555474
vn 0.4982991 0.5647029 -0.6578819
vn 0.09228114 0.1170788 -0.988826
vn 0.474096 -0.6677565 -0.5738764
vn 0.7150378 0.1239109 -0.6880167
vn -0.8297646 0.4710956 -0.2992651
vn -0.6882896 0.2638363 -0.6757573
vn -0.988939 0.1350667 -0.06128903
vn -0.9576393 0.2442363 -0.1525627
vn -0.9819164 -0.09849635 0.1616751
vn -0.9579607 -0.08430357 -0.2742336
vn -0.9321027 -0.3219761 -0.1658792
vn -0.9887449 -0.1496105 0.0003175139
vn -0.9814126 -0.1432573 -0.1276969
vn -0.9831213 0.05176806 0.1754781

vt 0.563514 0.4370353
vt 0.4913729 0.4284611
vt 0.50631 0.4669867
vt 0.455099 0.4662204
vt 0.4539496 0.42432
vt 0.55482 0.4130404
vt 0.4986764 0.4020917
vt 0.5227677 0.3619049
vt 0.5605817 0.3599248
vt 0.6181675 0.3908461
vt 0.5905275 0.3260965
vt 0.6011908 0.4294715
vt 0.5937822 0.479526
vt 0.547967 0.4835542
vt 0.4713593 0.4920908
vt 0.5519273 0.3370308
vt 0.5657917 0.3028734
vt 0.6080422 0.3047585
vt 0.59298 0.2983088
vt 0.5782293 0.2648495
vt 0.5997797 0.2380599
vt 0.6061599 0.290988
vt 0.6437802 0.2944586
vt 0.6364357 0.3142862
vt 0.6229221 0.2604502
vt 0.5681996 0.2153903
vt 0.5463704 0.2559934
vt 0.5206133 0.2954709
vt 0.5472003 0.1982936
vt 0.514004 0.2325668
vt 0.5988828 0.2041869
vt 0.6242388 0.2261759
vt 0.6423332 0.2065109
vt 0.6512345 0.2607271
vt 0.6265461 0.1764189
vt 0.547441 0.1758977
vt 0.5123866 0.1705241
vt 0.5196817 0.2183037
vt 0.4939674 0.2114302
vt 0.5030268 0.1853949
vt 0.4512678 0.1915351
vt 0.436504 0.1543397
vt 0.4600292 0.1418456
vt 0.4318691 0.1291515
vt 0.4688298 0.09521689
vt 0.4916534 0.09149683
vt 0.396676 0.1556074
vt 0.4257624 0.1849087
vt 0.4090907 0.2087032
vt 0.3611004 0.1946495
vt 0.3668375 0.1523238
vt 0.4478671 0.209516
vt 0.472869 0.2395783
vt 0.4914574 0.2759236
vt 0.4676695 0.3003866
vt 0.5268677 0.2591811
vt 0.4399524 0.2745963
vt 0.4350582 0.2252956
vt 0.5096397 0.2769018
vt 0.4828096 0.3161134
vt 0.4790362 0.3488176
vt 0.5228779 0.341515
vt 0.5059355 0.3167001
vt 0.5426345 0.3206417
vt 0.4388307 0.3202441
vt 0.443848 0.3814587
vt 0.3970818 0.3781922
vt 0.4017542 0.3301695
vt 0.4231808 0.2961832
vt 0.3601891 0.3300425
vt 0.3774649 0.3889838
vt 0.3935712 0.3021534
vt 0.3612604 0.3112973
vt 0.4151324 0.3954799
vt 0.4482741 0.4028028
vt 0.363818 0.2784508
vt 0.4147986 0.2733878
vt 0.4177167 0.4318797
vt 0.3938182 0.4211596
vt 0.3961318 0.2570343
vt 0.3930777 0.2187223
vt 0.3636209 0.2519777
vt 0.5646453 0.03638101
vt 0.5510647 0.05579016
vt 0.5839719 0.06221525
vt 0.5049101 0.05404858
vt 0.50359 0.02017906
vt 0.4767913 0.068949
vt 0.4364481 0.07894719
vt 0.4213634 0.05941905
vt 0.4328456 0.1027046
vt 0.415085 0.1251566
vt 0.3965261 0.111057
vt 0.40766 0.08476594
vt 0.552045 0.01286364
vt 0.3846542 0.1022755
vt 0.5051818 0.1408484
vt 0.5635433 0.07355136
vt 0.580654 0.1035908
vt 0.5367143 0.1530446
vt 0.6114614 0.1311746
vt 0.5841756 0.157349
vt 0.6225184 0.1575781
vt 0.5993363 0.09168726
vt 0.63542 0.3278949
vt 0.6130335 0.3321355

g Cliff2_(14)_2588_220
usemtl Cliff2_(14)_2588_220
usemap Cliff2_(14)_2588_220
f 1/1/1 3/3/3 2/2/2
f 4/4/4 2/2/2 3/3/3
f 4/4/4 5/5/5 2/2/2
f 2/2/2 6/6/6 1/1/1
f 2/2/2 7/7/7 6/6/6
f 2/2/2 5/5/5 7/7/7
f 6/6/6 7/7/7 8/8/8
f 9/9/9 6/6/6 8/8/8
f 6/6/6 9/9/9 10/10/10
f 11/11/11 10/10/10 9/9/9
f 6/6/6 10/10/10 12/12/12
f 12/12/12 1/1/1 6/6/6
f 1/1/1 12/12/12 13/13/13
f 14/14/14 1/1/1 13/13/13
f 3/3/3 1/1/1 14/14/14
f 15/15/15 4/4/4 3/3/3
f 15/15/15 3/3/3 14/14/14
f 16/16/16 9/9/9 8/8/8
f 9/9/9 16/16/16 11/11/11
f 16/16/16 17/17/17 11/11/11
f 17/17/17 18/18/18 11/11/11
f 18/18/18 17/17/17 19/19/19
f 17/17/17 20/20/20 19/19/19
f 21/21/21 19/19/19 20/20/20
f 19/19/19 21/21/21 22/22/22
f 19/19/19 22/22/22 18/18/18
f 18/18/18 22/22/22 23/23/23
f 24/24/24 18/18/18 23/23/23
f 23/23/23 22/22/22 25/25/25
f 21/21/21 25/25/25 22/22/22
f 20/20/20 26/26/26 21/21/21
f 20/20/20 27/27/27 26/26/26
f 27/27/27 20/20/20 17/17/17
f 28/28/28 27/27/27 17/17/17
f 29/29/29 26/26/26 27/27/27
f 29/29/29 27/27/27 30/30/30
f 26/26/26 31/31/31 21/21/21
f 21/21/21 31/31/31 25/25/25
f 31/31/31 32/32/32 25/25/25
f 32/32/32 31/31/31 33/33/33
f 32/32/32 33/33/33 34/34/34
f 25/25/25 32/32/32 34/34/34
f 34/34/34 23/23/23 25/25/25
f 31/31/31 35/35/35 33/33/33
f 26/26/26 35/35/35 31/31/31
f 26/26/26 29/29/29 35/35/35
f 29/29/29 36/36/36 35/35/35
f 29/29/29 37/37/37 36/36/36
f 37/37/37 29/29/29 38/38/38
f 38/38/38 29/29/29 30/30/30
f 39/39/39 37/37/37 38/38/38
f 39/39/39 38/38/38 30/30/30
f 39/39/39 40/40/40 37/37/37
f 40/40/40 39/39/39 41/41/41
f 41/41/41 42/42/42 40/40/40
f 37/37/37 40/40/40 42/42/42
f 37/37/37 42/42/42 43/43/43
f 44/44/44 43/43/43 42/42/42
f 43/43/43 44/44/44 45/45/45
f 43/43/43 45/45/45 46/46/46
f 44/44/44 42/42/42 47/47/47
f 42/42/42 48/48/48 47/47/47
f 41/41/41 48/48/48 42/42/42
f 47/47/47 48/48/48 49/49/49
f 50/50/50 47/47/47 49/49/49
f 50/50/50 51/51/51 47/47/47
f 52/52/52 41/41/41 39/39/39
f 49/49/49 48/48/48 52/52/52
f 41/41/41 52/52/52 48/48/48
f 53/53/53 52/52/52 39/39/39
f 53/53/53 39/39/39 30/30/30
f 30/30/30 54/54/54 53/53/53
f 55/55/55 53/53/53 54/54/54
f 30/30/30 56/56/56 54/54/54
f 57/57/57 53/53/53 55/55/55
f 58/58/58 53/53/53 57/57/57
f 53/53/53 58/58/58 52/52/52
f 52/52/52 58/58/58 49/49/49
f 54/54/54 56/56/56 59/59/59
f 55/55/55 54/54/54 60/60/60
f 55/55/55 60/60/60 61/61/61
f 60/60/60 62/62/62 61/61/61
f 63/63/63 60/60/60 54/54/54
f 60/60/60 63/63/63 62/62/62
f 63/63/63 64/64/64 62/62/62
f 64/64/64 16/16/16 62/62/62
f 28/28/28 63/63/63 54/54/54
f 64/64/64 63/63/63 28/28/28
f 56/56/56 28/28/28 59/59/59
f 54/54/54 59/59/59 28/28/28
f 61/61/61 65/65/65 55/55/55
f 61/61/61 66/66/66 65/65/65
f 65/65/65 66/66/66 67/67/67
f 68/68/68 65/65/65 67/67/67
f 69/69/69 65/65/65 68/68/68
f 70/70/70 68/68/68 67/67/67
f 71/71/71 70/70/70 67/67/67
f 72/72/72 69/69/69 68/68/68
f 70/70/70 73/73/73 68/68/68
f 72/72/72 68/68/68 73/73/73
f 66/66/66 74/74/74 67/67/67
f 74/74/74 71/71/71 67/67/67
f 66/66/66 75/75/75 74/74/74
f 73/73/73 76/76/76 72/72/72
f 76/76/76 77/77/77 72/72/72
f 77/77/77 69/69/69 72/72/72
f 61/61/61 75/75/75 66/66/66
f 75/75/75 61/61/61 8/8/8
f 69/69/69 55/55/55 65/65/65
f 8/8/8 7/7/7 75/75/75
f 5/5/5 74/74/74 75/75/75
f 5/5/5 75/75/75 7/7/7
f 5/5/5 78/78/78 74/74/74
f 78/78/78 79/79/79 74/74/74
f 79/79/79 71/71/71 74/74/74
f 62/62/62 8/8/8 61/61/61
f 62/62/62 16/16/16 8/8/8
f 57/57/57 77/77/77 58/58/58
f 80/80/80 58/58/58 77/77/77
f 81/81/81 58/58/58 80/80/80
f 82/82/82 81/81/81 80/80/80
f 77/77/77 82/82/82 80/80/80
f 82/82/82 50/50/50 81/81/81
f 49/49/49 58/58/58 81/81/81
f 81/81/81 50/50/50 49/49/49
f 69/69/69 57/57/57 55/55/55
f 69/69/69 77/77/77 57/57/57
f 17/17/17 16/16/16 64/64/64
f 64/64/64 28/28/28 17/17/17
f 28/28/28 56/56/56 27/27/27
f 27/27/27 56/56/56 30/30/30
f 83/83/83 85/85/85 84/84/84
f 86/86/86 83/83/83 84/84/84
f 83/83/83 86/86/86 87/87/87
f 46/46/46 86/86/86 84/84/84
f 45/45/45 86/86/86 46/46/46
f 86/86/86 45/45/45 88/88/88
f 88/88/88 87/87/87 86/86/86
f 89/89/89 87/87/87 88/88/88
f 88/88/88 45/45/45 89/89/89
f 87/87/87 89/89/89 90/90/90
f 91/91/91 89/89/89 45/45/45
f 44/44/44 91/91/91 45/45/45
f 92/92/92 91/91/91 44/44/44
f 91/91/91 92/92/92 93/93/93
f 47/47/47 93/93/93 92/92/92
f 44/44/44 47/47/47 92/92/92
f 94/94/94 91/91/91 93/93/93
f 95/95/95 83/83/83 87/87/87
f 96/96/96 94/94/94 93/93/93
f 51/51/51 93/93/93 47/47/47
f 51/51/51 96/96/96 93/93/93
f 97/97/97 46/46/46 98/98/98
f 99/99/99 97/97/97 98/98/98
f 100/100/100 97/97/97 99/99/99
f 100/100/100 99/99/99 101/101/101
f 102/102/102 100/100/100 101/101/101
f 102/102/102 101/101/101 103/103/103
f 85/85/85 99/99/99 98/98/98
f 101/101/101 99/99/99 104/104/104
f 104/104/104 99/99/99 85/85/85
f 35/35/35 102/102/102 103/103/103
f 97/97/97 43/43/43 46/46/46
f 37/37/37 43/43/43 97/97/97
f 37/37/37 97/97/97 100/100/100
f 36/36/36 37/37/37 100/100/100
f 36/36/36 100/100/100 102/102/102
f 35/35/35 36/36/36 102/102/102
f 85/85/85 98/98/98 84/84/84
f 84/84/84 98/98/98 46/46/46
f 105/105/105 18/18/18 24/24/24
f 106/106/106 18/18/18 105/105/105
f 105/105/105 10/10/10 106/106/106
f 10/10/10 11/11/11 106/106/106
f 11/11/11 18/18/18 106/106/106
