#Cliff1_(12)_2905_88.obj

v 1.130611 3.508057 1.473361
v 0.9479643 3.480544 1.917014
v 0.3692694 2.986902 1.191531
v -0.3893909 3.243814 1.81634
v -0.2836965 2.274639 1.206849
v 2.552157 3.096828 2.388686
v 0.6633284 3.031778 3.098506
v 2.490184 2.582263 3.791083
v -0.8614656 2.379089 2.652019
v -0.7352987 1.713016 2.222449
v -0.1701222 1.5341 3.271173
v 0.2313469 2.547121 3.502672
v -0.8590472 0.862464 3.844141
v 1.152973 2.19165 4.245539
v 2.594181 0.5849144 3.274921
v 0.8118237 1.290242 4.144441
v 3.159538 2.239118 2.636836
v 1.458855 0.2300572 4.228684
v 1.583533 -1.145115 3.625283
v 0.183533 0.5146545 4.398376
v -0.5381941 -0.2917044 3.979912
v -0.8174912 -1.051059 3.110109
v -1.191669 0.6867654 2.721002
v -1.071559 1.514511 2.057788
v -0.04703149 1.866471 3.722039
v -1.134361 0.8465428 1.621919
v -0.6813349 1.208256 1.146976
v -1.738069 1.264397 0.930468
v -1.184637 1.740125 -0.6089776
v -1.924658 0.178841 1.734905
v -0.6743527 1.531384 0.1187044
v 0.04270702 3.068912 0.4518623
v -2.095389 1.280805 -0.03796332
v -2.624692 -0.3967268 -0.3438599
v -2.363687 -0.7666103 0.96403
v -1.880778 0.6704074 -1.02215
v -2.288107 -0.9151128 -1.156498
v -2.099648 -1.268325 0.5723606
v -1.242578 -1.504914 -1.557797
v -1.751073 -0.5786288 -1.407436
v -1.641859 -0.117958 -1.94578
v -2.276215 -0.1186138 -2.768982
v -1.877932 0.6431424 -3.376969
v -2.410846 -1.060366 -4.026304
v -1.964492 -0.08470765 -4.480318
v -0.4255627 0.688351 -4.478335
v -1.895142 -1.571817 -3.130366
v -1.260435 -1.807803 -4.736506
v -0.9837141 -0.6677745 -5.216855
v 0.5546336 -1.551629 -5.295745
v 0.3735248 -0.0626939 -5.231563
v 0.3461818 0.7664422 -4.383756
v -0.5509136 0.8736688 -2.78234
v -1.241496 0.6730115 -2.379644
v -0.1203177 3.004637 -2.160309
v 0.6398196 2.791007 -2.882766
v -0.5449563 0.1401066 -5.039517
v 1.113942 0.4920437 -4.531984
v 1.253283 -1.485469 -5.045545
v 1.717503 -1.215888 -4.082742
v 2.461914 2.011411 -3.819829
v 1.90758 1.97982 -4.294266
v 2.810123 1.450281 -3.243513
v 1.566534 2.970086 -3.981479
v 0.6343556 2.752304 -3.585578
v -0.3203386 1.224563 -3.365456
v 0.3461818 0.7664422 -4.383756
v 1.750558 2.907301 -3.419333
v 1.566534 2.970086 -3.981479
v 0.7153966 3.839825 -2.310287
v -0.1027897 2.754775 -1.315544
v 0.4627071 2.996562 -1.167975
v 1.974005 3.794625 -1.924813
v 2.65757 3.651924 -2.211747
v 1.914678 3.363528 -3.224857
v 2.522551 3.108083 -3.29898
v 3.078388 2.114646 -2.530167
v 2.461914 2.011411 -3.819829
v 2.810123 1.450281 -3.243513
v 0.3025891 2.92871 -0.3380666
v 1.123169 3.526326 0.04363313
v 0.9248092 3.872429 -0.5515863
v -0.2806389 1.622182 -0.2855421
v 2.051702 4.031049 -0.3120713
v 1.983813 2.970742 1.059653
v 2.468292 3.607781 -0.140887
v 3.047545 2.900672 0.7137643
v 2.688187 2.12725 1.818155
v 2.935704 3.280456 -1.043214
v 2.721626 3.995057 -0.7741063
v 2.998643 3.118877 -1.625891
v -0.7252649 1.301892 -1.076799
v -1.239097 0.7762648 -1.82402
v 1.9321 4.090668 -1.643271
v 1.9321 4.090668 -1.643271
v 1.303432 4.076585 -1.250934
v 1.9321 4.090668 -1.643271
v 0.3692694 2.986902 1.191531
v 2.998643 3.118877 -1.625891
v -1.038065 0.12137 1.943815
v -0.6550017 -1.178827 1.486658
v -1.466648 -1.181465 1.578793
v 2.688187 2.12725 1.818155
v 1.983813 2.970742 1.059653

vn -0.127068 0.9697359 -0.2084847
vn 0.1488455 0.9810293 0.1242034
vn -0.2823996 0.945597 0.1615452
vn -0.4143932 0.8576018 0.3046268
vn -0.7128406 0.4530697 0.5353374
vn 0.4142005 0.7539356 -0.5099207
vn 0.3457937 0.8027593 0.4858027
vn 0.8514136 0.5219885 0.05121535
vn -0.3085705 0.3328938 0.8910477
vn -0.4571196 0.5702718 0.6825187
vn -0.04100367 0.2302167 0.9722751
vn 0.1399252 0.5180206 0.8438457
vn 0.05124339 0.3946657 0.9173948
vn 0.715897 0.2226079 0.6617683
vn 0.9759071 -0.2115194 0.05352369
vn 0.7106757 0.1056072 0.6955481
vn 0.7096741 0.2753416 -0.6484981
vn 0.9011166 -0.2427962 0.3592196
vn 0.6991606 -0.5978388 0.3921264
vn 0.6656767 -0.04058595 0.7451358
vn 0.3896444 -0.4611254 0.797208
vn -0.372031 -0.3040821 0.8769989
vn -0.5662273 0.04863544 0.822813
vn -0.5142612 0.6176245 0.5950423
vn 0.0704658 0.08607128 0.9937939
vn -0.1515449 0.507935 0.8479601
vn -0.2702599 0.8249369 0.496426
vn 0.2110605 0.7869354 0.5798156
vn -0.09168884 0.9941838 0.05649632
vn 0.1166974 0.2056925 0.9716339
vn -0.1806174 0.8925014 0.4133024
vn -0.4693082 0.6913567 0.5493413
vn -0.4764682 0.6268383 0.6164833
vn -0.6789305 0.0936868 0.7282006
vn -0.2649146 -0.3131021 0.9120238
vn -0.8206878 0.5299159 0.2136838
vn -0.9673352 -0.1230942 0.2216087
vn -0.4813242 -0.6080583 0.6313416
vn -0.7186633 -0.3513076 0.6000882
vn -0.9877728 0.05375906 0.146338
vn -0.5409942 0.349863 0.7648014
vn -0.2897757 0.1061593 0.9511888
vn -0.2563948 0.8582631 0.4445742
vn -0.8615181 -0.03180747 0.5067295
vn -0.8066216 0.587519 0.06467673
vn -0.4202613 0.8840417 -0.2045744
vn -0.4259179 -0.4645228 0.77641
vn -0.924679 -0.3803862 -0.01659113
vn -0.9394224 0.1449935 -0.3105841
vn -0.7617491 0.02766632 -0.6472811
vn -0.5471907 0.5083381 -0.6649624
vn -0.6584121 0.7330425 -0.170711
vn -0.6628751 0.7034237 0.2564994
vn -0.465558 0.7027641 0.537939
vn -0.7016671 0.6016551 0.3816733
vn -0.6105235 0.7706658 0.1825798
vn -0.6931201 0.6408768 -0.3299417
vn -0.4104961 0.2786869 -0.8682318
vn -0.1839684 0.2083589 -0.9605948
vn -0.04599476 0.01318458 -0.9988548
vn -0.1199773 0.1709491 -0.9779478
vn -0.2022381 0.3514461 -0.9141036
vn 0.1264848 -0.02279886 -0.9917066
vn -0.4387313 0.8051032 -0.3991536
vn -0.6499344 0.7248355 0.2284705
vn -0.7557403 0.4225608 0.5002989
vn -0.6584121 0.7330425 -0.170711
vn -0.3186663 0.7406445 -0.5915214
vn -0.4387313 0.8051032 -0.3991536
vn -0.2271567 0.9538711 0.1962897
vn -0.1774763 0.6704472 0.7204186
vn -0.350587 0.7989647 0.4886145
vn 0.1051998 0.9873469 -0.118655
vn 0.2785244 0.7919338 -0.543383
vn -0.5255365 0.7576492 -0.387013
vn -0.1575989 0.5248091 -0.8365035
vn 0.3274957 0.1862765 -0.9263086
vn -0.1199773 0.1709491 -0.9779478
vn 0.1264848 -0.02279886 -0.9917066
vn -0.3840118 0.7334047 0.560939
vn 0.1946928 0.8334658 0.5171358
vn -0.08639047 0.7609453 0.6430388
vn -0.4197463 0.8579929 0.2960763
vn 0.5154264 0.8085068 0.2839939
vn 0.3986894 0.8998598 -0.1769153
vn 0.8060161 0.5917023 0.01505011
vn 0.6946044 0.7182984 -0.03964862
vn 0.4718711 0.5731983 -0.6699114
vn 0.7653631 0.2935997 -0.572729
vn 0.592118 0.7045341 -0.3911878
vn 0.4307091 0.5546062 -0.7119703
vn -0.4317673 0.7918274 0.4319566
vn -0.5303239 0.59795 0.6010095
vn -0.3505379 0.8475257 -0.3985265
vn -0.3505379 0.8475257 -0.3985265
vn -0.230002 0.9626184 0.1430562
vn -0.3505379 0.8475257 -0.3985265
vn -0.2823996 0.945597 0.1615452
vn 0.4307091 0.5546062 -0.7119703
vn -0.02569178 -0.1817385 0.9830113
vn 0.04765651 -0.4308789 0.9011506
vn 0.3603849 -0.4506824 0.8167057
vn 0.4718711 0.5731983 -0.6699114
vn 0.3986894 0.8998598 -0.1769153

vt 0.235001 0.1490355
vt 0.2233077 0.1426988
vt 0.2171528 0.1816381
vt 0.193289 0.1618844
vt 0.1762438 0.1875983
vt 0.2439911 0.09723599
vt 0.2010401 0.1195127
vt 0.2185953 0.07313529
vt 0.1651859 0.1457514
vt 0.1446333 0.1543819
vt 0.1493893 0.1152061
vt 0.182615 0.1139232
vt 0.1214608 0.1040525
vt 0.1887616 0.08294312
vt 0.1987249 0.0148673
vt 0.1647509 0.07355388
vt 0.2523763 0.05902028
vt 0.1526978 0.04002948
vt 0.1169168 0.004880121
vt 0.1345344 0.07402577
vt 0.09986473 0.08046851
vt 0.06239271 0.0838813
vt 0.1063355 0.13148
vt 0.13067 0.157912
vt 0.163266 0.1061073
vt 0.1071235 0.1704617
vt 0.1335496 0.1900157
vt 0.1039462 0.2039799
vt 0.1301382 0.2502672
vt 0.07275896 0.1776163
vt 0.1441579 0.2252961
vt 0.2082552 0.2117992
vt 0.09991192 0.2339828
vt 0.05144665 0.2429319
vt 0.03822441 0.2017306
vt 0.09111213 0.2702254
vt 0.03889414 0.2715733
vt 0.01468172 0.2106209
vt 0.007684444 0.3006898
vt 0.04914431 0.2909635
vt 0.06851348 0.3101294
vt 0.06347421 0.3440422
vt 0.09000927 0.3577627
vt 0.04159307 0.3846479
vt 0.07367688 0.3918032
vt 0.1247076 0.4082273
vt 0.009462073 0.3640007
vt 0.02942133 0.4379362
vt 0.0749014 0.4325863
vt 0.08583317 0.4901417
vt 0.121429 0.4504148
vt 0.1504651 0.4162987
vt 0.1322047 0.3474228
vt 0.1078131 0.3251736
vt 0.2019835 0.3096747
vt 0.2158395 0.3470092
vt 0.1054343 0.4258634
vt 0.1637625 0.4464151
vt 0.1096583 0.5040354
vt 0.1478589 0.5133388
vt 0.2449686 0.4332959
vt 0.2229249 0.4221304
vt 0.2497842 0.4641595
vt 0.2375105 0.3889312
vt 0.2116607 0.3697288
vt 0.1501923 0.3668377
vt 0.1504651 0.4162987
vt 0.2553835 0.3803194
vt 0.2375105 0.3889312
vt 0.2398391 0.3156307
vt 0.1945409 0.2794403
vt 0.2165246 0.2723364
vt 0.2820266 0.3084418
vt 0.2986454 0.3296968
vt 0.2669089 0.3629429
vt 0.2854781 0.3699933
vt 0.3288033 0.3712626
vt 0.2934318 0.4089091
vt 0.3237704 0.4037248
vt 0.2095943 0.2418558
vt 0.2493987 0.226407
vt 0.2507089 0.2503763
vt 0.1565951 0.2425632
vt 0.2844224 0.2439104
vt 0.2819074 0.1834623
vt 0.3011224 0.2332393
vt 0.3244488 0.1964467
vt 0.3153067 0.1497081
vt 0.3288442 0.2664242
vt 0.3049942 0.2588976
vt 0.3314869 0.2904936
vt 0.1372812 0.2734591
vt 0.1096552 0.3037374
vt 0.2814378 0.2938614
vt 0.2814378 0.2938614
vt 0.2631963 0.2747383
vt 0.2814378 0.2938614
vt 0.2171528 0.1816381
vt 0.3265786 0.3251297
vt 0.07970545 0.1477654
vt 0.0312884 0.1342718
vt 0.02847565 0.1616286
vt 0.2788636 0.0878833
vt 0.2719212 0.1400693

g Cliff1_(12)_2905_88
usemtl Cliff1_(12)_2905_88
usemap Cliff1_(12)_2905_88
f 1/1/1 3/3/3 2/2/2
f 2/2/2 3/3/3 4/4/4
f 4/4/4 3/3/3 5/5/5
f 1/1/1 2/2/2 6/6/6
f 2/2/2 4/4/4 7/7/7
f 2/2/2 8/8/8 6/6/6
f 2/2/2 7/7/7 8/8/8
f 9/9/9 4/4/4 5/5/5
f 9/9/9 7/7/7 4/4/4
f 9/9/9 5/5/5 10/10/10
f 10/10/10 11/11/11 9/9/9
f 12/12/12 9/9/9 11/11/11
f 12/12/12 7/7/7 9/9/9
f 10/10/10 13/13/13 11/11/11
f 14/14/14 8/8/8 7/7/7
f 7/7/7 12/12/12 14/14/14
f 14/14/14 15/15/15 8/8/8
f 16/16/16 15/15/15 14/14/14
f 16/16/16 11/11/11 13/13/13
f 15/15/15 17/17/17 8/8/8
f 17/17/17 6/6/6 8/8/8
f 18/18/18 15/15/15 16/16/16
f 19/19/19 15/15/15 18/18/18
f 16/16/16 20/20/20 18/18/18
f 16/16/16 13/13/13 20/20/20
f 18/18/18 21/21/21 19/19/19
f 20/20/20 21/21/21 18/18/18
f 20/20/20 13/13/13 21/21/21
f 19/19/19 21/21/21 22/22/22
f 21/21/21 13/13/13 22/22/22
f 22/22/22 13/13/13 23/23/23
f 13/13/13 24/24/24 23/23/23
f 13/13/13 10/10/10 24/24/24
f 12/12/12 25/25/25 14/14/14
f 14/14/14 25/25/25 16/16/16
f 16/16/16 25/25/25 11/11/11
f 12/12/12 11/11/11 25/25/25
f 24/24/24 26/26/26 23/23/23
f 27/27/27 26/26/26 24/24/24
f 26/26/26 27/27/27 28/28/28
f 29/29/29 28/28/28 27/27/27
f 26/26/26 28/28/28 30/30/30
f 31/31/31 29/29/29 27/27/27
f 27/27/27 32/32/32 31/31/31
f 33/33/33 28/28/28 29/29/29
f 30/30/30 28/28/28 33/33/33
f 30/30/30 33/33/33 34/34/34
f 35/35/35 30/30/30 34/34/34
f 29/29/29 36/36/36 33/33/33
f 33/33/33 36/36/36 34/34/34
f 34/34/34 36/36/36 37/37/37
f 34/34/34 37/37/37 38/38/38
f 35/35/35 34/34/34 38/38/38
f 37/37/37 39/39/39 38/38/38
f 40/40/40 39/39/39 37/37/37
f 37/37/37 36/36/36 40/40/40
f 41/41/41 39/39/39 40/40/40
f 40/40/40 36/36/36 41/41/41
f 41/41/41 42/42/42 39/39/39
f 42/42/42 41/41/41 43/43/43
f 42/42/42 43/43/43 44/44/44
f 45/45/45 44/44/44 43/43/43
f 46/46/46 45/45/45 43/43/43
f 47/47/47 42/42/42 44/44/44
f 42/42/42 47/47/47 39/39/39
f 44/44/44 48/48/48 47/47/47
f 48/48/48 44/44/44 49/49/49
f 44/44/44 45/45/45 49/49/49
f 49/49/49 50/50/50 48/48/48
f 49/49/49 51/51/51 50/50/50
f 52/52/52 46/46/46 43/43/43
f 51/51/51 46/46/46 52/52/52
f 52/52/52 43/43/43 53/53/53
f 43/43/43 54/54/54 53/53/53
f 41/41/41 54/54/54 43/43/43
f 54/54/54 55/55/55 53/53/53
f 53/53/53 55/55/55 56/56/56
f 49/49/49 45/45/45 57/57/57
f 49/49/49 57/57/57 51/51/51
f 51/51/51 57/57/57 46/46/46
f 46/46/46 57/57/57 45/45/45
f 58/58/58 51/51/51 52/52/52
f 59/59/59 51/51/51 58/58/58
f 51/51/51 59/59/59 50/50/50
f 60/60/60 59/59/59 58/58/58
f 60/60/60 58/58/58 61/61/61
f 61/61/61 58/58/58 62/62/62
f 60/60/60 61/61/61 63/63/63
f 58/58/58 64/64/64 62/62/62
f 52/52/52 64/64/64 58/58/58
f 65/65/65 64/64/64 52/52/52
f 64/64/64 65/65/65 56/56/56
f 65/65/65 52/52/52 66/66/66
f 56/56/56 65/65/65 66/66/66
f 66/66/66 53/53/53 56/56/56
f 66/66/66 67/67/67 53/53/53
f 68/68/68 64/64/64 56/56/56
f 62/62/62 68/68/68 61/61/61
f 62/62/62 69/69/69 68/68/68
f 56/56/56 55/55/55 70/70/70
f 55/55/55 71/71/71 70/70/70
f 71/71/71 72/72/72 70/70/70
f 73/73/73 70/70/70 72/72/72
f 70/70/70 73/73/73 74/74/74
f 70/70/70 74/74/74 75/75/75
f 76/76/76 75/75/75 74/74/74
f 76/76/76 68/68/68 75/75/75
f 77/77/77 76/76/76 74/74/74
f 77/77/77 78/78/78 76/76/76
f 76/76/76 78/78/78 68/68/68
f 79/79/79 78/78/78 77/77/77
f 72/72/72 71/71/71 80/80/80
f 72/72/72 80/80/80 81/81/81
f 72/72/72 81/81/81 82/82/82
f 32/32/32 81/81/81 80/80/80
f 32/32/32 3/3/3 81/81/81
f 80/80/80 83/83/83 32/32/32
f 84/84/84 82/82/82 81/81/81
f 81/81/81 3/3/3 85/85/85
f 81/81/81 85/85/85 86/86/86
f 84/84/84 81/81/81 86/86/86
f 85/85/85 87/87/87 86/86/86
f 88/88/88 87/87/87 85/85/85
f 87/87/87 89/89/89 86/86/86
f 90/90/90 86/86/86 89/89/89
f 90/90/90 84/84/84 86/86/86
f 91/91/91 90/90/90 89/89/89
f 83/83/83 80/80/80 92/92/92
f 92/92/92 29/29/29 83/83/83
f 92/92/92 36/36/36 29/29/29
f 92/92/92 93/93/93 36/36/36
f 92/92/92 71/71/71 93/93/93
f 71/71/71 55/55/55 93/93/93
f 36/36/36 93/93/93 41/41/41
f 91/91/91 94/94/94 90/90/90
f 80/80/80 71/71/71 92/92/92
f 55/55/55 54/54/54 93/93/93
f 93/93/93 54/54/54 41/41/41
f 73/73/73 94/94/94 91/91/91
f 95/95/95 96/96/96 90/90/90
f 96/96/96 84/84/84 90/90/90
f 96/96/96 82/82/82 84/84/84
f 82/82/82 96/96/96 72/72/72
f 72/72/72 96/96/96 97/97/97
f 73/73/73 72/72/72 97/97/97
f 83/83/83 29/29/29 31/31/31
f 31/31/31 32/32/32 83/83/83
f 32/32/32 5/5/5 98/98/98
f 5/5/5 32/32/32 27/27/27
f 5/5/5 27/27/27 10/10/10
f 10/10/10 27/27/27 24/24/24
f 73/73/73 99/99/99 74/74/74
f 99/99/99 77/77/77 74/74/74
f 100/100/100 101/101/101 22/22/22
f 102/102/102 101/101/101 100/100/100
f 102/102/102 100/100/100 30/30/30
f 30/30/30 35/35/35 102/102/102
f 23/23/23 100/100/100 22/22/22
f 102/102/102 35/35/35 38/38/38
f 23/23/23 26/26/26 100/100/100
f 26/26/26 30/30/30 100/100/100
f 103/103/103 104/104/104 6/6/6
f 17/17/17 103/103/103 6/6/6
f 104/104/104 1/1/1 6/6/6
f 3/3/3 1/1/1 104/104/104
f 56/56/56 75/75/75 68/68/68
f 70/70/70 75/75/75 56/56/56
