#Cliff1_(18)_2635_142.obj

v 0.9867226 3.40404 1.787292
v 0.8084594 3.327841 2.227018
v 0.2469084 2.878024 1.46072
v -0.51797 3.042773 2.10862
v -0.3743014 2.139339 1.412114
v 2.430999 2.973319 2.656931
v 0.5516484 2.76025 3.362896
v 2.400999 2.329754 4.006099
v -0.9462653 2.084943 2.862338
v -0.7941225 1.467389 2.372862
v -0.2145972 1.217834 3.399081
v 0.1439319 2.221952 3.721859
v -0.8697223 0.4667061 3.9096
v 1.085178 1.840566 4.42628
v 2.588382 0.3948463 3.307771
v 0.7829323 0.9381422 4.243468
v 3.076826 2.123976 2.823313
v 1.476074 -0.09580498 4.227882
v 1.656432 -1.402846 3.49997
v 0.1907488 0.1156069 4.426563
v -0.4979949 -0.6798212 3.937541
v -0.7498482 -1.367526 3.002231
v -1.201979 0.380566 2.775959
v -1.122527 1.270268 2.191528
v -0.1030466 1.51243 3.878324
v -1.159133 0.6430953 1.696128
v -0.7255198 1.066525 1.25531
v -1.785136 1.095798 1.047781
v -1.263393 1.734947 -0.4427736
v -1.918819 -0.06628208 1.749258
v -0.7395836 1.482829 0.261173
v -0.08792199 3.013256 0.7326519
v -2.149388 1.185452 0.0859681
v -2.607195 -0.4784987 -0.3717752
v -2.321471 -0.9552376 0.8957356
v -1.915072 0.6781713 -0.9508704
v -2.253866 -0.9046544 -1.229648
v -2.038493 -1.406709 0.458775
v -1.186387 -1.408492 -1.686459
v -1.733708 -0.5232254 -1.449979
v -1.648312 -0.01064796 -1.943873
v -2.2876 0.03649033 -2.761895
v -1.926998 0.8677043 -3.298176
v -2.38961 -0.790665 -4.10028
v -1.989254 0.2412933 -4.463667
v -0.4854728 1.077838 -4.394659
v -1.84606 -1.359151 -3.256706
v -1.212576 -1.418299 -4.879495
v -0.989027 -0.2278673 -5.253487
v 0.5857828 -1.032193 -5.417709
v 0.3404396 0.4351173 -5.216084
v 0.2827623 1.180774 -4.295397
v -0.607277 1.100726 -2.688467
v -1.285725 0.8337076 -2.30409
v -0.265691 3.182339 -1.87387
v 0.4981159 3.069691 -2.615021
v -0.584677 0.5787998 -5.00365
v 1.060722 0.9552076 -4.470387
v 1.282568 -0.9586527 -5.164388
v 1.74112 -0.7585871 -4.182114
v 2.346041 2.460472 -3.624923
v 1.790406 2.448287 -4.098734
v 2.722256 1.864589 -3.103736
v 1.408686 3.389632 -3.695084
v 0.4895816 3.095574 -3.318393
v -0.3961627 1.513554 -3.237389
v 0.2827623 1.180774 -4.295397
v 1.599075 3.283578 -3.141626
v 1.408686 3.389632 -3.695084
v 0.5318226 4.06373 -1.948523
v -0.2315734 2.856872 -1.055779
v 0.3238459 3.108705 -0.888106
v 1.79379 4.038685 -1.572301
v 2.480962 3.953181 -1.873041
v 1.744487 3.726765 -2.906378
v 2.362389 3.506207 -3.005388
v 2.966161 2.471701 -2.332928
v 2.346041 2.460472 -3.624923
v 2.722256 1.864589 -3.103736
v 0.1724602 2.957852 -0.06754584
v 0.9688029 3.553354 0.3653591
v 0.7515321 3.94366 -0.194885
v -0.3529449 1.627644 -0.1340617
v 1.872043 4.129 0.05514595
v 1.859693 2.945097 1.32349
v 2.307822 3.710522 0.1854515
v 2.923097 2.953988 0.969709
v 2.605254 2.067237 1.999102
v 2.78292 3.488433 -0.7444772
v 2.539752 4.16515 -0.41007
v 2.848887 3.384043 -1.339736
v -0.7885535 1.362221 -0.9502466
v -1.284059 0.8854378 -1.741322
v 1.740941 4.305454 -1.264561
v 1.740941 4.305454 -1.264561
v 1.116154 4.227715 -0.8734725
v 1.740941 4.305454 -1.264561
v 0.2469084 2.878024 1.46072
v 2.848887 3.384043 -1.339736
v -1.029168 -0.1036633 1.949561
v -0.5929523 -1.338201 1.373469
v -1.40307 -1.385 1.467193
v 2.605254 2.067237 1.999102
v 1.859693 2.945097 1.32349

vn -0.1041873 0.9702946 -0.2183423
vn -0.05838999 0.9756204 0.2115547
vn -0.4323809 0.9016843 0.003500752
vn -0.6098095 0.791125 0.047473
vn -0.9363983 0.3450244 0.06415899
vn 0.5345393 0.8265812 -0.1761568
vn -0.07185939 0.7837373 0.6169215
vn 0.6175907 0.5840358 0.5267675
vn -0.7814324 0.2284156 0.5806803
vn -0.8183111 0.469803 0.3311376
vn -0.5919368 0.141533 0.7934602
vn -0.4051408 0.4532501 0.7939932
vn -0.5045473 0.3171359 0.8030298
vn 0.2064148 0.2230808 0.9526951
vn 0.8048303 -0.1341844 0.5781372
vn 0.1972252 0.1035766 0.9748713
vn 0.9109497 0.3876741 -0.1409946
vn 0.5794201 -0.1977077 0.7906858
vn 0.4351819 -0.5696977 0.6971809
vn 0.1497971 -0.04955085 0.9874743
vn -0.05874528 -0.4943256 0.8672895
vn -0.7523775 -0.4080439 0.5171347
vn -0.924843 -0.06918205 0.3740045
vn -0.8234213 0.519636 0.2279382
vn -0.4944814 0.005750131 0.8691692
vn -0.6479843 0.4188594 0.6361393
vn -0.5912422 0.7540678 0.286032
vn -0.2331397 0.7488317 0.6204007
vn -0.2224465 0.9746826 0.02261382
vn -0.4579273 0.1302364 0.8793981
vn -0.479325 0.835692 0.2680792
vn -0.7697343 0.6004805 0.2166387
vn -0.8048571 0.5300542 0.2669223
vn -0.9718741 -0.0255992 0.2341054
vn -0.6816136 -0.411185 0.6052518
vn -0.8590591 0.4401126 -0.261378
vn -0.9091471 -0.2210139 -0.3529935
vn -0.673503 -0.6977237 0.2440807
vn -0.8831313 -0.4596741 0.0936946
vn -0.9055287 -0.04062797 -0.4223353
vn -0.9072235 0.2369711 0.3475488
vn -0.7723516 -0.0003296967 0.6351951
vn -0.5552863 0.7927613 0.2513694
vn -0.9877493 -0.1461907 -0.05458504
vn -0.7726797 0.5112867 -0.3762341
vn -0.3395626 0.8607096 -0.3793103
vn -0.7234779 -0.5631273 0.3993335
vn -0.7137333 -0.4524601 -0.5346633
vn -0.6263994 0.0932596 -0.7739034
vn -0.2814455 0.02038465 -0.9593607
vn -0.1496704 0.5168373 -0.8428986
vn -0.5380567 0.6882439 -0.4866368
vn -0.7717103 0.6217068 -0.1339547
vn -0.7617199 0.613097 0.2095111
vn -0.8604465 0.5066949 -0.05377786
vn -0.6957159 0.6991455 -0.1648482
vn -0.4691454 0.6075759 -0.6409011
vn 0.101451 0.3175798 -0.9427888
vn 0.3479825 0.2743709 -0.8964535
vn 0.5060105 0.09525099 -0.8572519
vn 0.414889 0.2439949 -0.8765464
vn 0.2908019 0.4109324 -0.8640422
vn 0.6493545 0.07312448 -0.7569621
vn -0.2394076 0.7975547 -0.5537062
vn -0.7481518 0.6464446 -0.1495938
vn -0.9492951 0.3142122 0.01046383
vn -0.5380567 0.6882439 -0.4866368
vn -0.02723186 0.760004 -0.6493477
vn -0.2394076 0.7975547 -0.5537062
vn -0.4065014 0.9114628 0.06318361
vn -0.6186997 0.5890514 0.5198357
vn -0.650586 0.7223324 0.2344646
vn 0.03735108 0.9991937 -0.01472607
vn 0.4358648 0.8560058 -0.2779856
vn -0.3125289 0.7422395 -0.5927953
vn 0.2652892 0.580062 -0.7701622
vn 0.7560648 0.2916501 -0.5859234
vn 0.414889 0.2439949 -0.8765464
vn 0.6493545 0.07312448 -0.7569621
vn -0.7102051 0.6482611 0.2745292
vn -0.2178801 0.7990751 0.5603634
vn -0.5113883 0.6930707 0.50807
vn -0.6096239 0.7918079 0.03740232
vn 0.1784312 0.8207904 0.5426468
vn 0.322789 0.9415324 0.09656104
vn 0.5915914 0.6526233 0.4733947
vn 0.5143501 0.7738419 0.3696116
vn 0.6907843 0.6656519 -0.2823556
vn 0.9136266 0.4038721 -0.04662277
vn 0.6229924 0.7819785 0.01974967
vn 0.6817793 0.6474187 -0.3406256
vn -0.6861405 0.7134305 0.1422262
vn -0.8377185 0.4982644 0.2235179
vn -0.1715255 0.8468897 -0.5033456
vn -0.1715255 0.8468897 -0.5033456
vn -0.3807954 0.9244939 0.01749106
vn -0.1715255 0.8468897 -0.5033456
vn -0.4323809 0.9016843 0.003500752
vn 0.6817793 0.6474187 -0.3406256
vn -0.5372307 -0.2671491 0.8000091
vn -0.4027168 -0.5014252 0.7657623
vn -0.09488077 -0.4880462 0.8676454
vn 0.6907843 0.6656519 -0.2823556
vn 0.322789 0.9415324 0.09656104

vt 0.235001 0.1490355
vt 0.2233077 0.1426988
vt 0.2171528 0.1816381
vt 0.193289 0.1618844
vt 0.1762438 0.1875983
vt 0.2439911 0.09723599
vt 0.2010401 0.1195127
vt 0.2185953 0.07313529
vt 0.1651859 0.1457514
vt 0.1446333 0.1543819
vt 0.1493893 0.1152061
vt 0.182615 0.1139232
vt 0.1214608 0.1040525
vt 0.1887616 0.08294312
vt 0.1987249 0.0148673
vt 0.1647509 0.07355388
vt 0.2523763 0.05902028
vt 0.1526978 0.04002948
vt 0.1169168 0.004880121
vt 0.1345344 0.07402577
vt 0.09986473 0.08046851
vt 0.06239271 0.0838813
vt 0.1063355 0.13148
vt 0.13067 0.157912
vt 0.163266 0.1061073
vt 0.1071235 0.1704617
vt 0.1335496 0.1900157
vt 0.1039462 0.2039799
vt 0.1301382 0.2502672
vt 0.07275896 0.1776163
vt 0.1441579 0.2252961
vt 0.2082552 0.2117992
vt 0.09991192 0.2339828
vt 0.05144665 0.2429319
vt 0.03822441 0.2017306
vt 0.09111213 0.2702254
vt 0.03889414 0.2715733
vt 0.01468172 0.2106209
vt 0.007684444 0.3006898
vt 0.04914431 0.2909635
vt 0.06851348 0.3101294
vt 0.06347421 0.3440422
vt 0.09000927 0.3577627
vt 0.04159307 0.3846479
vt 0.07367688 0.3918032
vt 0.1247076 0.4082273
vt 0.009462073 0.3640007
vt 0.02942133 0.4379362
vt 0.0749014 0.4325863
vt 0.08583317 0.4901417
vt 0.121429 0.4504148
vt 0.1504651 0.4162987
vt 0.1322047 0.3474228
vt 0.1078131 0.3251736
vt 0.2019835 0.3096747
vt 0.2158395 0.3470092
vt 0.1054343 0.4258634
vt 0.1637625 0.4464151
vt 0.1096583 0.5040354
vt 0.1478589 0.5133388
vt 0.2449686 0.4332959
vt 0.2229249 0.4221304
vt 0.2497842 0.4641595
vt 0.2375105 0.3889312
vt 0.2116607 0.3697288
vt 0.1501923 0.3668377
vt 0.1504651 0.4162987
vt 0.2553835 0.3803194
vt 0.2375105 0.3889312
vt 0.2398391 0.3156307
vt 0.1945409 0.2794403
vt 0.2165246 0.2723364
vt 0.2820266 0.3084418
vt 0.2986454 0.3296968
vt 0.2669089 0.3629429
vt 0.2854781 0.3699933
vt 0.3288033 0.3712626
vt 0.2934318 0.4089091
vt 0.3237704 0.4037248
vt 0.2095943 0.2418558
vt 0.2493987 0.226407
vt 0.2507089 0.2503763
vt 0.1565951 0.2425632
vt 0.2844224 0.2439104
vt 0.2819074 0.1834623
vt 0.3011224 0.2332393
vt 0.3244488 0.1964467
vt 0.3153067 0.1497081
vt 0.3288442 0.2664242
vt 0.3049942 0.2588976
vt 0.3314869 0.2904936
vt 0.1372812 0.2734591
vt 0.1096552 0.3037374
vt 0.2814378 0.2938614
vt 0.2814378 0.2938614
vt 0.2631963 0.2747383
vt 0.2814378 0.2938614
vt 0.2171528 0.1816381
vt 0.3265786 0.3251297
vt 0.07970545 0.1477654
vt 0.0312884 0.1342718
vt 0.02847565 0.1616286
vt 0.2788636 0.0878833
vt 0.2719212 0.1400693

g Cliff1_(18)_2635_142
usemtl Cliff1_(18)_2635_142
usemap Cliff1_(18)_2635_142
f 1/1/1 3/3/3 2/2/2
f 2/2/2 3/3/3 4/4/4
f 4/4/4 3/3/3 5/5/5
f 1/1/1 2/2/2 6/6/6
f 2/2/2 4/4/4 7/7/7
f 2/2/2 8/8/8 6/6/6
f 2/2/2 7/7/7 8/8/8
f 9/9/9 4/4/4 5/5/5
f 9/9/9 7/7/7 4/4/4
f 9/9/9 5/5/5 10/10/10
f 10/10/10 11/11/11 9/9/9
f 12/12/12 9/9/9 11/11/11
f 12/12/12 7/7/7 9/9/9
f 10/10/10 13/13/13 11/11/11
f 14/14/14 8/8/8 7/7/7
f 7/7/7 12/12/12 14/14/14
f 14/14/14 15/15/15 8/8/8
f 16/16/16 15/15/15 14/14/14
f 16/16/16 11/11/11 13/13/13
f 15/15/15 17/17/17 8/8/8
f 17/17/17 6/6/6 8/8/8
f 18/18/18 15/15/15 16/16/16
f 19/19/19 15/15/15 18/18/18
f 16/16/16 20/20/20 18/18/18
f 16/16/16 13/13/13 20/20/20
f 18/18/18 21/21/21 19/19/19
f 20/20/20 21/21/21 18/18/18
f 20/20/20 13/13/13 21/21/21
f 19/19/19 21/21/21 22/22/22
f 21/21/21 13/13/13 22/22/22
f 22/22/22 13/13/13 23/23/23
f 13/13/13 24/24/24 23/23/23
f 13/13/13 10/10/10 24/24/24
f 12/12/12 25/25/25 14/14/14
f 14/14/14 25/25/25 16/16/16
f 16/16/16 25/25/25 11/11/11
f 12/12/12 11/11/11 25/25/25
f 24/24/24 26/26/26 23/23/23
f 27/27/27 26/26/26 24/24/24
f 26/26/26 27/27/27 28/28/28
f 29/29/29 28/28/28 27/27/27
f 26/26/26 28/28/28 30/30/30
f 31/31/31 29/29/29 27/27/27
f 27/27/27 32/32/32 31/31/31
f 33/33/33 28/28/28 29/29/29
f 30/30/30 28/28/28 33/33/33
f 30/30/30 33/33/33 34/34/34
f 35/35/35 30/30/30 34/34/34
f 29/29/29 36/36/36 33/33/33
f 33/33/33 36/36/36 34/34/34
f 34/34/34 36/36/36 37/37/37
f 34/34/34 37/37/37 38/38/38
f 35/35/35 34/34/34 38/38/38
f 37/37/37 39/39/39 38/38/38
f 40/40/40 39/39/39 37/37/37
f 37/37/37 36/36/36 40/40/40
f 41/41/41 39/39/39 40/40/40
f 40/40/40 36/36/36 41/41/41
f 41/41/41 42/42/42 39/39/39
f 42/42/42 41/41/41 43/43/43
f 42/42/42 43/43/43 44/44/44
f 45/45/45 44/44/44 43/43/43
f 46/46/46 45/45/45 43/43/43
f 47/47/47 42/42/42 44/44/44
f 42/42/42 47/47/47 39/39/39
f 44/44/44 48/48/48 47/47/47
f 48/48/48 44/44/44 49/49/49
f 44/44/44 45/45/45 49/49/49
f 49/49/49 50/50/50 48/48/48
f 49/49/49 51/51/51 50/50/50
f 52/52/52 46/46/46 43/43/43
f 51/51/51 46/46/46 52/52/52
f 52/52/52 43/43/43 53/53/53
f 43/43/43 54/54/54 53/53/53
f 41/41/41 54/54/54 43/43/43
f 54/54/54 55/55/55 53/53/53
f 53/53/53 55/55/55 56/56/56
f 49/49/49 45/45/45 57/57/57
f 49/49/49 57/57/57 51/51/51
f 51/51/51 57/57/57 46/46/46
f 46/46/46 57/57/57 45/45/45
f 58/58/58 51/51/51 52/52/52
f 59/59/59 51/51/51 58/58/58
f 51/51/51 59/59/59 50/50/50
f 60/60/60 59/59/59 58/58/58
f 60/60/60 58/58/58 61/61/61
f 61/61/61 58/58/58 62/62/62
f 60/60/60 61/61/61 63/63/63
f 58/58/58 64/64/64 62/62/62
f 52/52/52 64/64/64 58/58/58
f 65/65/65 64/64/64 52/52/52
f 64/64/64 65/65/65 56/56/56
f 65/65/65 52/52/52 66/66/66
f 56/56/56 65/65/65 66/66/66
f 66/66/66 53/53/53 56/56/56
f 66/66/66 67/67/67 53/53/53
f 68/68/68 64/64/64 56/56/56
f 62/62/62 68/68/68 61/61/61
f 62/62/62 69/69/69 68/68/68
f 56/56/56 55/55/55 70/70/70
f 55/55/55 71/71/71 70/70/70
f 71/71/71 72/72/72 70/70/70
f 73/73/73 70/70/70 72/72/72
f 70/70/70 73/73/73 74/74/74
f 70/70/70 74/74/74 75/75/75
f 76/76/76 75/75/75 74/74/74
f 76/76/76 68/68/68 75/75/75
f 77/77/77 76/76/76 74/74/74
f 77/77/77 78/78/78 76/76/76
f 76/76/76 78/78/78 68/68/68
f 79/79/79 78/78/78 77/77/77
f 72/72/72 71/71/71 80/80/80
f 72/72/72 80/80/80 81/81/81
f 72/72/72 81/81/81 82/82/82
f 32/32/32 81/81/81 80/80/80
f 32/32/32 3/3/3 81/81/81
f 80/80/80 83/83/83 32/32/32
f 84/84/84 82/82/82 81/81/81
f 81/81/81 3/3/3 85/85/85
f 81/81/81 85/85/85 86/86/86
f 84/84/84 81/81/81 86/86/86
f 85/85/85 87/87/87 86/86/86
f 88/88/88 87/87/87 85/85/85
f 87/87/87 89/89/89 86/86/86
f 90/90/90 86/86/86 89/89/89
f 90/90/90 84/84/84 86/86/86
f 91/91/91 90/90/90 89/89/89
f 83/83/83 80/80/80 92/92/92
f 92/92/92 29/29/29 83/83/83
f 92/92/92 36/36/36 29/29/29
f 92/92/92 93/93/93 36/36/36
f 92/92/92 71/71/71 93/93/93
f 71/71/71 55/55/55 93/93/93
f 36/36/36 93/93/93 41/41/41
f 91/91/91 94/94/94 90/90/90
f 80/80/80 71/71/71 92/92/92
f 55/55/55 54/54/54 93/93/93
f 93/93/93 54/54/54 41/41/41
f 73/73/73 94/94/94 91/91/91
f 95/95/95 96/96/96 90/90/90
f 96/96/96 84/84/84 90/90/90
f 96/96/96 82/82/82 84/84/84
f 82/82/82 96/96/96 72/72/72
f 72/72/72 96/96/96 97/97/97
f 73/73/73 72/72/72 97/97/97
f 83/83/83 29/29/29 31/31/31
f 31/31/31 32/32/32 83/83/83
f 32/32/32 5/5/5 98/98/98
f 5/5/5 32/32/32 27/27/27
f 5/5/5 27/27/27 10/10/10
f 10/10/10 27/27/27 24/24/24
f 73/73/73 99/99/99 74/74/74
f 99/99/99 77/77/77 74/74/74
f 100/100/100 101/101/101 22/22/22
f 102/102/102 101/101/101 100/100/100
f 102/102/102 100/100/100 30/30/30
f 30/30/30 35/35/35 102/102/102
f 23/23/23 100/100/100 22/22/22
f 102/102/102 35/35/35 38/38/38
f 23/23/23 26/26/26 100/100/100
f 26/26/26 30/30/30 100/100/100
f 103/103/103 104/104/104 6/6/6
f 17/17/17 103/103/103 6/6/6
f 104/104/104 1/1/1 6/6/6
f 3/3/3 1/1/1 104/104/104
f 56/56/56 75/75/75 68/68/68
f 70/70/70 75/75/75 56/56/56
