#Cliff1_(11)_3123_201.obj

v 0.9747511 3.395249 1.810437
v 0.7934898 3.31694 2.248566
v 0.2371435 2.870894 1.476284
v -0.5321203 3.032582 2.11975
v -0.3837709 2.132516 1.419876
v 2.413039 2.960178 2.687798
v 0.5289071 2.743884 3.379906
v 2.373802 2.310093 4.0336
v -0.9656062 2.071158 2.865885
v -0.8101755 1.455966 2.374479
v -0.2376719 1.201388 3.403403
v 0.1187183 2.203895 3.733472
v -0.896309 0.4478634 3.905798
v 1.055116 1.819009 4.442432
v 2.565809 0.3785692 3.327209
v 0.7540612 0.9175113 4.253204
v 3.057659 2.109975 2.854464
v 1.447226 -0.1164182 4.237328
v 1.63245 -1.419938 3.504344
v 0.1605899 0.09415882 4.428276
v -0.5248607 -0.6988233 3.930727
v -0.7703794 -1.381968 2.990398
v -1.220842 0.3672448 2.769523
v -1.137349 1.259758 2.189959
v -0.129368 1.493649 3.884815
v -1.170621 0.6349943 1.691289
v -0.7339843 1.060508 1.255486
v -1.792162 1.090893 1.040894
v -1.260231 1.737197 -0.4429635
v -1.930699 -0.07455549 1.735807
v -0.7412472 1.481621 0.2633092
v -0.09270851 3.009683 0.746619
v -2.149845 1.185238 0.07706321
v -2.604634 -0.4764309 -0.3918428
v -2.327586 -0.9593287 0.8752679
v -1.908505 0.682959 -0.9605944
v -2.245497 -0.8984646 -1.249339
v -2.041668 -1.408708 0.4380627
v -1.174965 -1.400192 -1.7013
v -1.723824 -0.5160259 -1.464269
v -1.63503 -0.001072255 -1.955083
v -2.268727 0.05008963 -2.777202
v -1.904424 0.8838534 -3.306984
v -2.36167 -0.7705672 -4.120247
v -1.958779 0.2630977 -4.475892
v -0.4554465 1.099148 -4.39259
v -1.82392 -1.343185 -3.275749
v -1.179399 -1.394541 -4.894448
v -0.9532256 -0.2023348 -5.261142
v 0.6226121 -1.006015 -5.418521
v 0.3760015 0.4603272 -5.211471
v 0.3121023 1.201524 -4.287601
v -0.5888724 1.113789 -2.687178
v -1.26994 0.8449807 -2.308726
v -0.2527018 3.191399 -1.860204
v 0.5161296 3.082263 -2.596672
v -0.5505326 0.6030728 -5.004652
v 1.091221 0.9767293 -4.458375
v 1.31766 -0.9337719 -5.160106
v 1.769523 -0.7385094 -4.173771
v 2.370851 2.477754 -3.5969
v 1.818456 2.467919 -4.074537
v 2.743464 1.879317 -3.076046
v 1.434059 3.407337 -3.668945
v 0.5123882 3.111552 -3.29995
v -0.373993 1.529248 -3.232645
v 0.3121023 1.201524 -4.287601
v 1.620664 3.298586 -3.114719
v 1.434059 3.407337 -3.668945
v 0.5453623 4.073061 -1.925156
v -0.2241828 2.861972 -1.043485
v 0.3300978 3.112935 -0.8708122
v 1.804735 4.046068 -1.540472
v 2.493931 3.961951 -1.836928
v 1.764499 3.740614 -2.876345
v 2.383049 3.520476 -2.972211
v 2.982154 2.482666 -2.300669
v 2.370851 2.477754 -3.5969
v 2.743464 1.879317 -3.076046
v 0.1731168 2.958127 -0.05204548
v 0.9665308 3.551446 0.389154
v 0.7531084 3.944481 -0.1706629
v -0.3519146 1.628309 -0.1285748
v 1.871902 4.128496 0.08788837
v 1.850829 2.938469 1.350378
v 2.306756 3.709348 0.2191359
v 2.916621 2.948966 1.003893
v 2.591712 2.057273 2.026794
v 2.788163 3.491715 -0.7085976
v 2.542769 4.166831 -0.3725841
v 2.858177 3.390202 -1.303892
v -0.7819688 1.366885 -0.9489884
v -1.272104 0.8939861 -1.74572
v 1.749807 4.311349 -1.23181
v 1.749807 4.311349 -1.23181
v 1.122365 4.231781 -0.8453685
v 1.749807 4.311349 -1.23181
v 0.2371435 2.870894 1.476284
v 2.858177 3.390202 -1.303892
v -1.042436 -0.1129957 1.941981
v -0.6023885 -1.344774 1.36291
v -1.413129 -1.391945 1.450879
v 2.591712 2.057273 2.026794
v 1.850829 2.938469 1.350378

vn 0.3571331 0.8989748 -0.2535751
vn 0.2775768 0.9457537 0.1688225
vn -0.01933823 0.9892218 -0.1451427
vn -0.2306203 0.960196 -0.1576004
vn -0.6979185 0.6754292 -0.2381285
vn 0.8453486 0.5341049 -0.01083961
vn 0.07473654 0.8304393 0.5520734
vn 0.6223713 0.3770794 0.6859046
vn -0.7552643 0.5814356 0.3025034
vn -0.620742 0.7823766 0.05065845
vn -0.6847011 0.4600965 0.5652393
vn -0.397758 0.6762389 0.6200722
vn -0.5412449 0.5898019 0.5993226
vn -0.0006383173 0.2582249 0.9660847
vn 0.4853055 -0.3446624 0.8035461
vn -0.06250602 0.1550919 0.9859205
vn 0.9891351 -0.004402788 0.1469433
vn 0.2031796 -0.2894596 0.9353775
vn -0.04431465 -0.5895643 0.8065049
vn -0.1684178 0.03410281 0.9851256
vn -0.4934509 -0.3123801 0.8117418
vn -0.9653009 -0.02193778 0.260217
vn -0.9403993 0.3337201 0.06542141
vn -0.5761625 0.8158283 -0.04960731
vn -0.6751362 0.3095032 0.6696258
vn -0.578693 0.7138308 0.3944111
vn -0.296671 0.9520139 0.07520579
vn -0.0808795 0.8592085 0.5051923
vn 0.1875062 0.9803009 -0.06206239
vn -0.5965756 0.4114222 0.6890786
vn -0.1614364 0.9825682 0.09218465
vn -0.4939335 0.8683553 -0.04459704
vn -0.5668464 0.8237945 -0.006914515
vn -0.9245048 0.3720762 -0.08276534
vn -0.9297345 -0.03918271 0.36614
vn -0.5004658 0.6890361 -0.5241787
vn -0.7814411 0.08877787 -0.6176312
vn -0.9345324 -0.3546236 0.02985326
vn -0.9801395 -0.07853426 -0.1820955
vn -0.6868526 0.2433619 -0.6848418
vn -0.795661 0.6043148 0.04155985
vn -0.8538274 0.3757103 0.360306
vn -0.240084 0.9693011 0.05305752
vn -0.9046791 0.2277681 -0.3601074
vn -0.3642569 0.7062513 -0.6070635
vn 0.1536618 0.8643755 -0.4787936
vn -0.9684884 -0.1911653 0.1596434
vn -0.6516533 -0.2215262 -0.7254475
vn -0.2905033 0.213527 -0.9327455
vn 0.03397347 -0.007767612 -0.9993925
vn 0.3136443 0.414311 -0.854385
vn -0.0578369 0.7656726 -0.6406249
vn -0.3880068 0.840432 -0.3783184
vn -0.4799007 0.8759521 -0.04902139
vn -0.5339111 0.7791274 -0.3284803
vn -0.2821236 0.8788035 -0.3848515
vn 0.01383215 0.6447341 -0.7642818
vn 0.4817179 0.1239279 -0.8675193
vn 0.6665335 -0.001530328 -0.7454736
vn 0.7220327 -0.2195362 -0.6561043
vn 0.707192 -0.05167798 -0.7051303
vn 0.6618302 0.1495605 -0.7345831
vn 0.8099314 -0.2796642 -0.5155571
vn 0.2652626 0.7450538 -0.6119892
vn -0.3531762 0.852166 -0.3861083
vn -0.7062454 0.644618 -0.2927199
vn -0.0578369 0.7656726 -0.6406249
vn 0.4625239 0.6181407 -0.6355893
vn 0.2652626 0.7450538 -0.6119892
vn -0.009749914 0.9967074 -0.08049415
vn -0.4524781 0.84302 0.2908282
vn -0.346498 0.9380161 0.008054147
vn 0.4345329 0.9005098 -0.01622561
vn 0.79977 0.5840124 -0.1389154
vn 0.1904954 0.7162927 -0.6712945
vn 0.6803334 0.3271211 -0.6558492
vn 0.9416466 -0.09564561 -0.3227281
vn 0.707192 -0.05167798 -0.7051303
vn 0.8099314 -0.2796642 -0.5155571
vn -0.4393464 0.8978689 0.02839074
vn -0.03057443 0.8913453 0.4522927
vn -0.3140978 0.8966876 0.3119197
vn -0.227337 0.9593704 -0.1671113
vn 0.328911 0.7606366 0.559687
vn 0.6291672 0.7561638 0.1799023
vn 0.64209 0.4423852 0.6261116
vn 0.65231 0.5682066 0.5016302
vn 0.9476747 0.3134894 -0.06030769
vn 0.9712168 0.02240963 0.2371409
vn 0.8493462 0.4870134 0.2035411
vn 0.949046 0.2921329 -0.118195
vn -0.3549683 0.9304828 -0.09055012
vn -0.5958958 0.8009649 -0.05799627
vn 0.329888 0.7718361 -0.5435466
vn 0.329888 0.7718361 -0.5435466
vn 0.03079798 0.9927747 -0.115974
vn 0.329888 0.7718361 -0.5435466
vn -0.01933823 0.9892218 -0.1451427
vn 0.949046 0.2921329 -0.118195
vn -0.8015105 0.06568028 0.5943626
vn -0.7677053 -0.2042076 0.6073943
vn -0.5225843 -0.2930592 0.8006384
vn 0.9476747 0.3134894 -0.06030769
vn 0.6291672 0.7561638 0.1799023

vt 0.235001 0.1490355
vt 0.2233077 0.1426988
vt 0.2171528 0.1816381
vt 0.193289 0.1618844
vt 0.1762438 0.1875983
vt 0.2439911 0.09723599
vt 0.2010401 0.1195127
vt 0.2185953 0.07313529
vt 0.1651859 0.1457514
vt 0.1446333 0.1543819
vt 0.1493893 0.1152061
vt 0.182615 0.1139232
vt 0.1214608 0.1040525
vt 0.1887616 0.08294312
vt 0.1987249 0.0148673
vt 0.1647509 0.07355388
vt 0.2523763 0.05902028
vt 0.1526978 0.04002948
vt 0.1169168 0.004880121
vt 0.1345344 0.07402577
vt 0.09986473 0.08046851
vt 0.06239271 0.0838813
vt 0.1063355 0.13148
vt 0.13067 0.157912
vt 0.163266 0.1061073
vt 0.1071235 0.1704617
vt 0.1335496 0.1900157
vt 0.1039462 0.2039799
vt 0.1301382 0.2502672
vt 0.07275896 0.1776163
vt 0.1441579 0.2252961
vt 0.2082552 0.2117992
vt 0.09991192 0.2339828
vt 0.05144665 0.2429319
vt 0.03822441 0.2017306
vt 0.09111213 0.2702254
vt 0.03889414 0.2715733
vt 0.01468172 0.2106209
vt 0.007684444 0.3006898
vt 0.04914431 0.2909635
vt 0.06851348 0.3101294
vt 0.06347421 0.3440422
vt 0.09000927 0.3577627
vt 0.04159307 0.3846479
vt 0.07367688 0.3918032
vt 0.1247076 0.4082273
vt 0.009462073 0.3640007
vt 0.02942133 0.4379362
vt 0.0749014 0.4325863
vt 0.08583317 0.4901417
vt 0.121429 0.4504148
vt 0.1504651 0.4162987
vt 0.1322047 0.3474228
vt 0.1078131 0.3251736
vt 0.2019835 0.3096747
vt 0.2158395 0.3470092
vt 0.1054343 0.4258634
vt 0.1637625 0.4464151
vt 0.1096583 0.5040354
vt 0.1478589 0.5133388
vt 0.2449686 0.4332959
vt 0.2229249 0.4221304
vt 0.2497842 0.4641595
vt 0.2375105 0.3889312
vt 0.2116607 0.3697288
vt 0.1501923 0.3668377
vt 0.1504651 0.4162987
vt 0.2553835 0.3803194
vt 0.2375105 0.3889312
vt 0.2398391 0.3156307
vt 0.1945409 0.2794403
vt 0.2165246 0.2723364
vt 0.2820266 0.3084418
vt 0.2986454 0.3296968
vt 0.2669089 0.3629429
vt 0.2854781 0.3699933
vt 0.3288033 0.3712626
vt 0.2934318 0.4089091
vt 0.3237704 0.4037248
vt 0.2095943 0.2418558
vt 0.2493987 0.226407
vt 0.2507089 0.2503763
vt 0.1565951 0.2425632
vt 0.2844224 0.2439104
vt 0.2819074 0.1834623
vt 0.3011224 0.2332393
vt 0.3244488 0.1964467
vt 0.3153067 0.1497081
vt 0.3288442 0.2664242
vt 0.3049942 0.2588976
vt 0.3314869 0.2904936
vt 0.1372812 0.2734591
vt 0.1096552 0.3037374
vt 0.2814378 0.2938614
vt 0.2814378 0.2938614
vt 0.2631963 0.2747383
vt 0.2814378 0.2938614
vt 0.2171528 0.1816381
vt 0.3265786 0.3251297
vt 0.07970545 0.1477654
vt 0.0312884 0.1342718
vt 0.02847565 0.1616286
vt 0.2788636 0.0878833
vt 0.2719212 0.1400693

g Cliff1_(11)_3123_201
usemtl Cliff1_(11)_3123_201
usemap Cliff1_(11)_3123_201
f 1/1/1 3/3/3 2/2/2
f 2/2/2 3/3/3 4/4/4
f 4/4/4 3/3/3 5/5/5
f 1/1/1 2/2/2 6/6/6
f 2/2/2 4/4/4 7/7/7
f 2/2/2 8/8/8 6/6/6
f 2/2/2 7/7/7 8/8/8
f 9/9/9 4/4/4 5/5/5
f 9/9/9 7/7/7 4/4/4
f 9/9/9 5/5/5 10/10/10
f 10/10/10 11/11/11 9/9/9
f 12/12/12 9/9/9 11/11/11
f 12/12/12 7/7/7 9/9/9
f 10/10/10 13/13/13 11/11/11
f 14/14/14 8/8/8 7/7/7
f 7/7/7 12/12/12 14/14/14
f 14/14/14 15/15/15 8/8/8
f 16/16/16 15/15/15 14/14/14
f 16/16/16 11/11/11 13/13/13
f 15/15/15 17/17/17 8/8/8
f 17/17/17 6/6/6 8/8/8
f 18/18/18 15/15/15 16/16/16
f 19/19/19 15/15/15 18/18/18
f 16/16/16 20/20/20 18/18/18
f 16/16/16 13/13/13 20/20/20
f 18/18/18 21/21/21 19/19/19
f 20/20/20 21/21/21 18/18/18
f 20/20/20 13/13/13 21/21/21
f 19/19/19 21/21/21 22/22/22
f 21/21/21 13/13/13 22/22/22
f 22/22/22 13/13/13 23/23/23
f 13/13/13 24/24/24 23/23/23
f 13/13/13 10/10/10 24/24/24
f 12/12/12 25/25/25 14/14/14
f 14/14/14 25/25/25 16/16/16
f 16/16/16 25/25/25 11/11/11
f 12/12/12 11/11/11 25/25/25
f 24/24/24 26/26/26 23/23/23
f 27/27/27 26/26/26 24/24/24
f 26/26/26 27/27/27 28/28/28
f 29/29/29 28/28/28 27/27/27
f 26/26/26 28/28/28 30/30/30
f 31/31/31 29/29/29 27/27/27
f 27/27/27 32/32/32 31/31/31
f 33/33/33 28/28/28 29/29/29
f 30/30/30 28/28/28 33/33/33
f 30/30/30 33/33/33 34/34/34
f 35/35/35 30/30/30 34/34/34
f 29/29/29 36/36/36 33/33/33
f 33/33/33 36/36/36 34/34/34
f 34/34/34 36/36/36 37/37/37
f 34/34/34 37/37/37 38/38/38
f 35/35/35 34/34/34 38/38/38
f 37/37/37 39/39/39 38/38/38
f 40/40/40 39/39/39 37/37/37
f 37/37/37 36/36/36 40/40/40
f 41/41/41 39/39/39 40/40/40
f 40/40/40 36/36/36 41/41/41
f 41/41/41 42/42/42 39/39/39
f 42/42/42 41/41/41 43/43/43
f 42/42/42 43/43/43 44/44/44
f 45/45/45 44/44/44 43/43/43
f 46/46/46 45/45/45 43/43/43
f 47/47/47 42/42/42 44/44/44
f 42/42/42 47/47/47 39/39/39
f 44/44/44 48/48/48 47/47/47
f 48/48/48 44/44/44 49/49/49
f 44/44/44 45/45/45 49/49/49
f 49/49/49 50/50/50 48/48/48
f 49/49/49 51/51/51 50/50/50
f 52/52/52 46/46/46 43/43/43
f 51/51/51 46/46/46 52/52/52
f 52/52/52 43/43/43 53/53/53
f 43/43/43 54/54/54 53/53/53
f 41/41/41 54/54/54 43/43/43
f 54/54/54 55/55/55 53/53/53
f 53/53/53 55/55/55 56/56/56
f 49/49/49 45/45/45 57/57/57
f 49/49/49 57/57/57 51/51/51
f 51/51/51 57/57/57 46/46/46
f 46/46/46 57/57/57 45/45/45
f 58/58/58 51/51/51 52/52/52
f 59/59/59 51/51/51 58/58/58
f 51/51/51 59/59/59 50/50/50
f 60/60/60 59/59/59 58/58/58
f 60/60/60 58/58/58 61/61/61
f 61/61/61 58/58/58 62/62/62
f 60/60/60 61/61/61 63/63/63
f 58/58/58 64/64/64 62/62/62
f 52/52/52 64/64/64 58/58/58
f 65/65/65 64/64/64 52/52/52
f 64/64/64 65/65/65 56/56/56
f 65/65/65 52/52/52 66/66/66
f 56/56/56 65/65/65 66/66/66
f 66/66/66 53/53/53 56/56/56
f 66/66/66 67/67/67 53/53/53
f 68/68/68 64/64/64 56/56/56
f 62/62/62 68/68/68 61/61/61
f 62/62/62 69/69/69 68/68/68
f 56/56/56 55/55/55 70/70/70
f 55/55/55 71/71/71 70/70/70
f 71/71/71 72/72/72 70/70/70
f 73/73/73 70/70/70 72/72/72
f 70/70/70 73/73/73 74/74/74
f 70/70/70 74/74/74 75/75/75
f 76/76/76 75/75/75 74/74/74
f 76/76/76 68/68/68 75/75/75
f 77/77/77 76/76/76 74/74/74
f 77/77/77 78/78/78 76/76/76
f 76/76/76 78/78/78 68/68/68
f 79/79/79 78/78/78 77/77/77
f 72/72/72 71/71/71 80/80/80
f 72/72/72 80/80/80 81/81/81
f 72/72/72 81/81/81 82/82/82
f 32/32/32 81/81/81 80/80/80
f 32/32/32 3/3/3 81/81/81
f 80/80/80 83/83/83 32/32/32
f 84/84/84 82/82/82 81/81/81
f 81/81/81 3/3/3 85/85/85
f 81/81/81 85/85/85 86/86/86
f 84/84/84 81/81/81 86/86/86
f 85/85/85 87/87/87 86/86/86
f 88/88/88 87/87/87 85/85/85
f 87/87/87 89/89/89 86/86/86
f 90/90/90 86/86/86 89/89/89
f 90/90/90 84/84/84 86/86/86
f 91/91/91 90/90/90 89/89/89
f 83/83/83 80/80/80 92/92/92
f 92/92/92 29/29/29 83/83/83
f 92/92/92 36/36/36 29/29/29
f 92/92/92 93/93/93 36/36/36
f 92/92/92 71/71/71 93/93/93
f 71/71/71 55/55/55 93/93/93
f 36/36/36 93/93/93 41/41/41
f 91/91/91 94/94/94 90/90/90
f 80/80/80 71/71/71 92/92/92
f 55/55/55 54/54/54 93/93/93
f 93/93/93 54/54/54 41/41/41
f 73/73/73 94/94/94 91/91/91
f 95/95/95 96/96/96 90/90/90
f 96/96/96 84/84/84 90/90/90
f 96/96/96 82/82/82 84/84/84
f 82/82/82 96/96/96 72/72/72
f 72/72/72 96/96/96 97/97/97
f 73/73/73 72/72/72 97/97/97
f 83/83/83 29/29/29 31/31/31
f 31/31/31 32/32/32 83/83/83
f 32/32/32 5/5/5 98/98/98
f 5/5/5 32/32/32 27/27/27
f 5/5/5 27/27/27 10/10/10
f 10/10/10 27/27/27 24/24/24
f 73/73/73 99/99/99 74/74/74
f 99/99/99 77/77/77 74/74/74
f 100/100/100 101/101/101 22/22/22
f 102/102/102 101/101/101 100/100/100
f 102/102/102 100/100/100 30/30/30
f 30/30/30 35/35/35 102/102/102
f 23/23/23 100/100/100 22/22/22
f 102/102/102 35/35/35 38/38/38
f 23/23/23 26/26/26 100/100/100
f 26/26/26 30/30/30 100/100/100
f 103/103/103 104/104/104 6/6/6
f 17/17/17 103/103/103 6/6/6
f 104/104/104 1/1/1 6/6/6
f 3/3/3 1/1/1 104/104/104
f 56/56/56 75/75/75 68/68/68
f 70/70/70 75/75/75 56/56/56
