#Cliff2_(3)_2808_180.obj

v 0.4760958 0.4802164 4.205
v 0.9514285 2.523718 4.838461
v 1.92098 1.765152 4.329112
v 2.310562 3.243572 4.499136
v 1.218528 3.619558 4.673893
v -0.07403882 0.9375609 4.307471
v 0.4333431 2.534163 4.150445
v -0.01705719 1.937453 2.974642
v -1.008181 1.430077 3.115572
v -1.238876 -0.4783854 3.672857
v -1.895306 0.8954206 2.142872
v -0.09093378 -0.4782293 4.136088
v 1.180087 -0.5352567 3.35164
v 1.649213 0.7234153 3.494727
v 2.278733 2.860353 3.744809
v -1.023674 1.792269 2.42738
v -1.101776 1.234011 1.511427
v -1.84051 0.3872425 1.534958
v -1.483649 0.5873665 1.388691
v -1.833684 1.247007 0.6024519
v -1.959371 0.6981686 -0.1989013
v -1.94626 0.5867447 1.226112
v -2.300719 -0.4774977 1.29065
v -1.689166 -0.417858 1.542437
v -2.727823 0.3931281 0.379566
v -1.659352 1.51339 -0.9401947
v -1.247205 1.989682 0.291002
v -0.9260736 2.701072 1.502929
v -1.013401 1.843978 -1.215165
v -0.3200361 2.420064 -0.2747192
v -1.492017 0.5201624 -0.9858792
v -2.435873 0.2347058 -0.7173547
v -2.039283 -0.4849971 -1.04722
v -2.642087 -0.4825188 0.3810037
v -0.9980739 -0.4627564 -1.007256
v -1.028055 1.67401 -1.782516
v -0.5425398 2.544562 -2.011297
v -0.6014867 2.4618 -0.5989638
v 0.189015 2.782971 -0.9075664
v -0.2089085 2.652084 -1.626034
v 0.2772878 4.134516 -1.734918
v 0.9346896 3.97052 -2.78042
v 0.4137351 3.527778 -3.036184
v 0.7493662 4.336106 -3.587404
v 0.4687718 2.781026 -4.279387
v 0.3982317 2.130762 -3.970318
v 1.918421 4.358499 -2.809168
v 0.8913326 4.691235 -2.05165
v 1.413669 4.774413 -1.297021
v 2.783533 4.244089 -1.542443
v 2.363492 3.615464 -2.597834
v 0.4956506 4.198845 -1.21214
v -0.295638 3.717914 -0.3702238
v -0.2938327 3.17299 0.7753235
v 0.2885756 3.560966 1.366767
v -1.062583 2.553503 0.3047348
v 0.5779647 4.409964 0.7011372
v 0.4637575 4.821901 -0.9158751
v -0.8161288 3.043941 0.8529162
v 0.004357576 3.349714 1.894453
v 0.5186144 3.029223 2.606566
v -0.2633467 2.148003 2.496359
v -0.1380192 2.672567 1.833814
v -0.6020827 1.676984 1.975376
v 1.014382 3.928173 1.784743
v 1.310399 3.674022 3.455919
v 2.574798 3.879081 3.044404
v 2.009763 3.889208 1.779451
v 1.082113 4.764867 1.42495
v 3.012445 3.615268 1.235271
v 3.116794 3.483175 3.189318
v 2.166367 4.420003 1.182434
v 2.615256 3.536402 0.7868524
v 2.140241 3.799853 3.627955
v 1.156442 3.890966 4.073184
v 2.46932 4.182397 0.03629174
v 1.162907 4.837722 0.6525264
v 2.310562 3.243572 4.499136
v 2.278733 2.860353 3.744809
v 1.76162 4.812512 0.2365476
v 1.85914 4.706202 -0.9546016
v 2.46932 4.182397 0.03629174
v 0.1245502 -0.4871864 -4.182677
v -0.06238752 0.1555923 -4.447536
v -0.7081476 -0.4880918 -4.05897
v 0.9052142 1.155653 -4.177414
v 1.69933 0.5992627 -3.876375
v 0.9373924 2.105413 -4.52204
v 1.365452 3.417329 -4.650064
v 1.998711 3.521371 -4.17061
v 0.793546 3.917996 -4.34064
v 1.312292 4.502502 -3.813901
v 1.91032 3.980424 -4.126637
v 1.365452 3.417329 -4.650064
v 0.6723977 -0.4870735 -3.610592
v 1.998711 3.521371 -4.17061
v -0.3965291 2.514005 -2.87254
v -0.6706023 0.1790042 -4.111979
v -1.33552 0.1705386 -3.253248
v -0.6685931 1.768261 -2.339793
v -0.7074981 -0.4676615 -2.332813
v -1.027171 0.5028652 -1.94849
v -0.7336515 -0.4808319 -1.50154
v -1.194126 -0.4869774 -3.332059
v -1.92547 -0.4795031 1.880747
v -2.046025 0.1375279 2.229421

vn 0.09656389 -0.2269243 0.9691133
vn -0.3820576 0.1007661 0.9186285
vn 0.5316444 -0.3096347 0.7883404
vn 0.6062738 0.2447928 0.7566431
vn -0.347549 0.758734 0.5509378
vn -0.6860958 0.3003724 0.6626077
vn -0.9042027 0.4132098 0.1080519
vn -0.7287519 0.6705353 0.1389356
vn -0.6999275 0.6408897 0.3152173
vn -0.8800935 0.1440024 0.4524367
vn -0.8534713 0.4829329 -0.1958632
vn -0.1525492 -0.07488698 0.9854545
vn 0.3141217 -0.206895 0.9265646
vn 0.5824586 -0.3598082 0.7288897
vn 0.8795595 -0.03020376 0.4748294
vn -0.4784364 0.8458586 -0.2358431
vn -0.7678327 0.5783485 -0.275583
vn -0.8874656 0.3398789 -0.311267
vn -0.7161469 0.6977374 -0.01720878
vn -0.911641 0.4095718 0.03408374
vn -0.7546334 0.5311062 -0.3852982
vn -0.5494782 0.8110829 0.2005447
vn -0.8835455 0.1937533 0.4263884
vn -0.986684 -0.1425455 0.07832897
vn -0.8059592 0.5405104 -0.2414092
vn -0.7105632 0.3284001 -0.6222968
vn -0.7532312 0.5796703 -0.310846
vn -0.7945352 0.5616335 0.2308285
vn -0.8127489 0.4383329 -0.3838015
vn -0.7385426 0.4805686 -0.4728729
vn -0.2804348 0.2090106 -0.9368409
vn -0.6494923 0.156519 -0.7440844
vn -0.2485495 -0.1333339 -0.9593984
vn -0.9393228 -0.1920754 -0.2842178
vn -0.6412994 -0.2009096 -0.7405203
vn -0.8796724 0.1449909 -0.4529395
vn -0.6938824 0.6500033 -0.3098754
vn -0.6966271 0.7150899 0.05794087
vn -0.7346093 0.6133369 -0.2901155
vn -0.7232197 0.6586758 -0.2076044
vn -0.8426993 0.4551476 -0.2875734
vn -0.632184 0.7026657 -0.3265032
vn -0.811621 0.4653563 -0.35315
vn -0.6668661 0.7188436 -0.1963506
vn -0.665213 -0.04237067 -0.7454505
vn -0.4730509 0.1279355 -0.8716968
vn 0.3722254 0.8954775 -0.2440662
vn -0.3680547 0.8215584 -0.4354051
vn 0.08365169 0.9400569 -0.3305985
vn 0.5819429 0.7918999 -0.185033
vn 0.9291249 0.3149301 -0.1937678
vn -0.7058558 0.4783405 -0.5224538
vn -0.8545291 0.3035524 -0.4214687
vn -0.613665 0.7655399 -0.193298
vn -0.6728737 0.7265292 0.1392701
vn -0.5790226 0.5135185 -0.6332706
vn -0.7292228 0.6836355 -0.02960619
vn -0.3251974 0.8663041 -0.3791623
vn -0.5064564 0.8227003 -0.2581979
vn -0.7630482 0.6445575 0.04799132
vn -0.6398615 0.7647194 0.07603599
vn -0.7706416 0.6370703 0.01590274
vn -0.8423456 0.5164335 0.1541114
vn -0.721655 0.6910276 -0.04116978
vn -0.4624819 0.8441637 0.2711056
vn -0.2532142 0.9332193 -0.2549203
vn 0.1802767 0.9835769 0.008770391
vn 0.2717172 0.9158233 0.2956985
vn -0.3724371 0.8373439 0.4001821
vn 0.3558326 0.9202079 -0.163097
vn 0.4482518 0.7242663 0.5239357
vn 0.5816686 0.7393422 0.3391681
vn 0.7254204 0.6540571 0.2144167
vn 0.3537059 0.8921303 0.2810619
vn -0.5235328 0.8279092 -0.201196
vn 0.6206152 0.7400184 0.2592482
vn 0.009145744 0.9963855 0.08445311
vn 0.6062738 0.2447928 0.7566431
vn 0.8795595 -0.03020376 0.4748294
vn 0.352859 0.9239077 0.1479367
vn 0.3631281 0.9294832 -0.06479928
vn 0.6206152 0.7400184 0.2592482
vn 0.4864009 -0.4874784 -0.7251061
vn 0.0952917 -0.1611299 -0.982322
vn -0.4129198 -0.2572397 -0.8736848
vn 0.1149434 -0.3057334 -0.9451534
vn 0.5747403 -0.4165806 -0.7043679
vn 0.03904127 -0.3304002 -0.9430331
vn 0.3754222 -0.01877995 -0.9266636
vn 0.8822913 0.07267641 -0.4650595
vn -0.1827824 0.451256 -0.873475
vn 0.1283027 0.874464 -0.4678155
vn 0.6561848 0.4976693 -0.5672274
vn 0.3754222 -0.01877995 -0.9266636
vn 0.6367095 -0.7091231 -0.302895
vn 0.8822913 0.07267641 -0.4650595
vn -0.716145 0.3667993 -0.5937968
vn -0.4657871 0.1181093 -0.8769792
vn -0.9303394 0.05807875 -0.3620709
vn -0.8761693 0.1550168 -0.4563958
vn -0.9836363 -0.1403961 -0.1129099
vn -0.8332639 -0.1867546 -0.5203787
vn -0.8348624 -0.4043174 -0.3735404
vn -0.9416822 -0.214279 -0.2594593
vn -0.897288 -0.2257153 -0.3793768
vn -0.9922836 0.009878406 -0.1235949

vt 0.563514 0.4370353
vt 0.4913729 0.4284611
vt 0.50631 0.4669867
vt 0.455099 0.4662204
vt 0.4539496 0.42432
vt 0.55482 0.4130404
vt 0.4986764 0.4020917
vt 0.5227677 0.3619049
vt 0.5605817 0.3599248
vt 0.6181675 0.3908461
vt 0.5905275 0.3260965
vt 0.6011908 0.4294715
vt 0.5937822 0.479526
vt 0.547967 0.4835542
vt 0.4713593 0.4920908
vt 0.5519273 0.3370308
vt 0.5657917 0.3028734
vt 0.6080422 0.3047585
vt 0.59298 0.2983088
vt 0.5782293 0.2648495
vt 0.5997797 0.2380599
vt 0.6061599 0.290988
vt 0.6437802 0.2944586
vt 0.6364357 0.3142862
vt 0.6229221 0.2604502
vt 0.5681996 0.2153903
vt 0.5463704 0.2559934
vt 0.5206133 0.2954709
vt 0.5472003 0.1982936
vt 0.514004 0.2325668
vt 0.5988828 0.2041869
vt 0.6242388 0.2261759
vt 0.6423332 0.2065109
vt 0.6512345 0.2607271
vt 0.6265461 0.1764189
vt 0.547441 0.1758977
vt 0.5123866 0.1705241
vt 0.5196817 0.2183037
vt 0.4939674 0.2114302
vt 0.5030268 0.1853949
vt 0.4512678 0.1915351
vt 0.436504 0.1543397
vt 0.4600292 0.1418456
vt 0.4318691 0.1291515
vt 0.4688298 0.09521689
vt 0.4916534 0.09149683
vt 0.396676 0.1556074
vt 0.4257624 0.1849087
vt 0.4090907 0.2087032
vt 0.3611004 0.1946495
vt 0.3668375 0.1523238
vt 0.4478671 0.209516
vt 0.472869 0.2395783
vt 0.4914574 0.2759236
vt 0.4676695 0.3003866
vt 0.5268677 0.2591811
vt 0.4399524 0.2745963
vt 0.4350582 0.2252956
vt 0.5096397 0.2769018
vt 0.4828096 0.3161134
vt 0.4790362 0.3488176
vt 0.5228779 0.341515
vt 0.5059355 0.3167001
vt 0.5426345 0.3206417
vt 0.4388307 0.3202441
vt 0.443848 0.3814587
vt 0.3970818 0.3781922
vt 0.4017542 0.3301695
vt 0.4231808 0.2961832
vt 0.3601891 0.3300425
vt 0.3774649 0.3889838
vt 0.3935712 0.3021534
vt 0.3612604 0.3112973
vt 0.4151324 0.3954799
vt 0.4482741 0.4028028
vt 0.363818 0.2784508
vt 0.4147986 0.2733878
vt 0.4177167 0.4318797
vt 0.3938182 0.4211596
vt 0.3961318 0.2570343
vt 0.3930777 0.2187223
vt 0.3636209 0.2519777
vt 0.5646453 0.03638101
vt 0.5510647 0.05579016
vt 0.5839719 0.06221525
vt 0.5049101 0.05404858
vt 0.50359 0.02017906
vt 0.4767913 0.068949
vt 0.4364481 0.07894719
vt 0.4213634 0.05941905
vt 0.4328456 0.1027046
vt 0.415085 0.1251566
vt 0.3965261 0.111057
vt 0.40766 0.08476594
vt 0.552045 0.01286364
vt 0.3846542 0.1022755
vt 0.5051818 0.1408484
vt 0.5635433 0.07355136
vt 0.580654 0.1035908
vt 0.5367143 0.1530446
vt 0.6114614 0.1311746
vt 0.5841756 0.157349
vt 0.6225184 0.1575781
vt 0.5993363 0.09168726
vt 0.63542 0.3278949
vt 0.6130335 0.3321355

g Cliff2_(3)_2808_180
usemtl Cliff2_(3)_2808_180
usemap Cliff2_(3)_2808_180
f 1/1/1 3/3/3 2/2/2
f 4/4/4 2/2/2 3/3/3
f 4/4/4 5/5/5 2/2/2
f 2/2/2 6/6/6 1/1/1
f 2/2/2 7/7/7 6/6/6
f 2/2/2 5/5/5 7/7/7
f 6/6/6 7/7/7 8/8/8
f 9/9/9 6/6/6 8/8/8
f 6/6/6 9/9/9 10/10/10
f 11/11/11 10/10/10 9/9/9
f 6/6/6 10/10/10 12/12/12
f 12/12/12 1/1/1 6/6/6
f 1/1/1 12/12/12 13/13/13
f 14/14/14 1/1/1 13/13/13
f 3/3/3 1/1/1 14/14/14
f 15/15/15 4/4/4 3/3/3
f 15/15/15 3/3/3 14/14/14
f 16/16/16 9/9/9 8/8/8
f 9/9/9 16/16/16 11/11/11
f 16/16/16 17/17/17 11/11/11
f 17/17/17 18/18/18 11/11/11
f 18/18/18 17/17/17 19/19/19
f 17/17/17 20/20/20 19/19/19
f 21/21/21 19/19/19 20/20/20
f 19/19/19 21/21/21 22/22/22
f 19/19/19 22/22/22 18/18/18
f 18/18/18 22/22/22 23/23/23
f 24/24/24 18/18/18 23/23/23
f 23/23/23 22/22/22 25/25/25
f 21/21/21 25/25/25 22/22/22
f 20/20/20 26/26/26 21/21/21
f 20/20/20 27/27/27 26/26/26
f 27/27/27 20/20/20 17/17/17
f 28/28/28 27/27/27 17/17/17
f 29/29/29 26/26/26 27/27/27
f 29/29/29 27/27/27 30/30/30
f 26/26/26 31/31/31 21/21/21
f 21/21/21 31/31/31 25/25/25
f 31/31/31 32/32/32 25/25/25
f 32/32/32 31/31/31 33/33/33
f 32/32/32 33/33/33 34/34/34
f 25/25/25 32/32/32 34/34/34
f 34/34/34 23/23/23 25/25/25
f 31/31/31 35/35/35 33/33/33
f 26/26/26 35/35/35 31/31/31
f 26/26/26 29/29/29 35/35/35
f 29/29/29 36/36/36 35/35/35
f 29/29/29 37/37/37 36/36/36
f 37/37/37 29/29/29 38/38/38
f 38/38/38 29/29/29 30/30/30
f 39/39/39 37/37/37 38/38/38
f 39/39/39 38/38/38 30/30/30
f 39/39/39 40/40/40 37/37/37
f 40/40/40 39/39/39 41/41/41
f 41/41/41 42/42/42 40/40/40
f 37/37/37 40/40/40 42/42/42
f 37/37/37 42/42/42 43/43/43
f 44/44/44 43/43/43 42/42/42
f 43/43/43 44/44/44 45/45/45
f 43/43/43 45/45/45 46/46/46
f 44/44/44 42/42/42 47/47/47
f 42/42/42 48/48/48 47/47/47
f 41/41/41 48/48/48 42/42/42
f 47/47/47 48/48/48 49/49/49
f 50/50/50 47/47/47 49/49/49
f 50/50/50 51/51/51 47/47/47
f 52/52/52 41/41/41 39/39/39
f 49/49/49 48/48/48 52/52/52
f 41/41/41 52/52/52 48/48/48
f 53/53/53 52/52/52 39/39/39
f 53/53/53 39/39/39 30/30/30
f 30/30/30 54/54/54 53/53/53
f 55/55/55 53/53/53 54/54/54
f 30/30/30 56/56/56 54/54/54
f 57/57/57 53/53/53 55/55/55
f 58/58/58 53/53/53 57/57/57
f 53/53/53 58/58/58 52/52/52
f 52/52/52 58/58/58 49/49/49
f 54/54/54 56/56/56 59/59/59
f 55/55/55 54/54/54 60/60/60
f 55/55/55 60/60/60 61/61/61
f 60/60/60 62/62/62 61/61/61
f 63/63/63 60/60/60 54/54/54
f 60/60/60 63/63/63 62/62/62
f 63/63/63 64/64/64 62/62/62
f 64/64/64 16/16/16 62/62/62
f 28/28/28 63/63/63 54/54/54
f 64/64/64 63/63/63 28/28/28
f 56/56/56 28/28/28 59/59/59
f 54/54/54 59/59/59 28/28/28
f 61/61/61 65/65/65 55/55/55
f 61/61/61 66/66/66 65/65/65
f 65/65/65 66/66/66 67/67/67
f 68/68/68 65/65/65 67/67/67
f 69/69/69 65/65/65 68/68/68
f 70/70/70 68/68/68 67/67/67
f 71/71/71 70/70/70 67/67/67
f 72/72/72 69/69/69 68/68/68
f 70/70/70 73/73/73 68/68/68
f 72/72/72 68/68/68 73/73/73
f 66/66/66 74/74/74 67/67/67
f 74/74/74 71/71/71 67/67/67
f 66/66/66 75/75/75 74/74/74
f 73/73/73 76/76/76 72/72/72
f 76/76/76 77/77/77 72/72/72
f 77/77/77 69/69/69 72/72/72
f 61/61/61 75/75/75 66/66/66
f 75/75/75 61/61/61 8/8/8
f 69/69/69 55/55/55 65/65/65
f 8/8/8 7/7/7 75/75/75
f 5/5/5 74/74/74 75/75/75
f 5/5/5 75/75/75 7/7/7
f 5/5/5 78/78/78 74/74/74
f 78/78/78 79/79/79 74/74/74
f 79/79/79 71/71/71 74/74/74
f 62/62/62 8/8/8 61/61/61
f 62/62/62 16/16/16 8/8/8
f 57/57/57 77/77/77 58/58/58
f 80/80/80 58/58/58 77/77/77
f 81/81/81 58/58/58 80/80/80
f 82/82/82 81/81/81 80/80/80
f 77/77/77 82/82/82 80/80/80
f 82/82/82 50/50/50 81/81/81
f 49/49/49 58/58/58 81/81/81
f 81/81/81 50/50/50 49/49/49
f 69/69/69 57/57/57 55/55/55
f 69/69/69 77/77/77 57/57/57
f 17/17/17 16/16/16 64/64/64
f 64/64/64 28/28/28 17/17/17
f 28/28/28 56/56/56 27/27/27
f 27/27/27 56/56/56 30/30/30
f 83/83/83 85/85/85 84/84/84
f 86/86/86 83/83/83 84/84/84
f 83/83/83 86/86/86 87/87/87
f 46/46/46 86/86/86 84/84/84
f 45/45/45 86/86/86 46/46/46
f 86/86/86 45/45/45 88/88/88
f 88/88/88 87/87/87 86/86/86
f 89/89/89 87/87/87 88/88/88
f 88/88/88 45/45/45 89/89/89
f 87/87/87 89/89/89 90/90/90
f 91/91/91 89/89/89 45/45/45
f 44/44/44 91/91/91 45/45/45
f 92/92/92 91/91/91 44/44/44
f 91/91/91 92/92/92 93/93/93
f 47/47/47 93/93/93 92/92/92
f 44/44/44 47/47/47 92/92/92
f 94/94/94 91/91/91 93/93/93
f 95/95/95 83/83/83 87/87/87
f 96/96/96 94/94/94 93/93/93
f 51/51/51 93/93/93 47/47/47
f 51/51/51 96/96/96 93/93/93
f 97/97/97 46/46/46 98/98/98
f 99/99/99 97/97/97 98/98/98
f 100/100/100 97/97/97 99/99/99
f 100/100/100 99/99/99 101/101/101
f 102/102/102 100/100/100 101/101/101
f 102/102/102 101/101/101 103/103/103
f 85/85/85 99/99/99 98/98/98
f 101/101/101 99/99/99 104/104/104
f 104/104/104 99/99/99 85/85/85
f 35/35/35 102/102/102 103/103/103
f 97/97/97 43/43/43 46/46/46
f 37/37/37 43/43/43 97/97/97
f 37/37/37 97/97/97 100/100/100
f 36/36/36 37/37/37 100/100/100
f 36/36/36 100/100/100 102/102/102
f 35/35/35 36/36/36 102/102/102
f 85/85/85 98/98/98 84/84/84
f 84/84/84 98/98/98 46/46/46
f 105/105/105 18/18/18 24/24/24
f 106/106/106 18/18/18 105/105/105
f 105/105/105 10/10/10 106/106/106
f 10/10/10 11/11/11 106/106/106
f 11/11/11 18/18/18 106/106/106
