#Cliff2_2525_193.obj

v 0.5762113 0.09836644 4.218721
v 1.084271 2.073576 5.020925
v 2.035074 1.356971 4.423148
v 2.441743 2.811484 4.715416
v 1.357413 3.177872 4.948724
v 0.03270157 0.5485005 4.37457
v 0.5507401 2.149192 4.348979
v 0.06827241 1.663325 3.135473
v -0.9239107 1.152253 3.253771
v -1.159025 -0.7968052 3.643528
v -1.837779 0.7130275 2.258324
v -0.0008583228 -0.8460996 4.077783
v 1.251369 -0.8414556 3.26169
v 1.734964 0.3960585 3.505621
v 2.389261 2.497592 3.930815
v -0.951834 1.574724 2.601264
v -1.055841 1.101298 1.641173
v -1.801448 0.2609699 1.6063
v -1.446227 0.4709088 1.470155
v -1.808148 1.200727 0.7544688
v -1.957026 0.7267501 -0.08955046
v -1.912415 0.488059 1.319097
v -2.274887 -0.575202 1.29658
v -1.657236 -0.5425964 1.538232
v -2.714801 0.3764643 0.477259
v -1.666661 1.602987 -0.761869
v -1.222257 1.964226 0.496932
v -0.8671619 2.56197 1.759699
v -1.024198 1.952384 -1.021312
v -0.3043943 2.437104 -0.04971832
v -1.509371 0.6167045 -0.9000638
v -2.449389 0.3148989 -0.635995
v -2.066931 -0.375102 -1.038101
v -2.636949 -0.4963666 0.3984145
v -1.024924 -0.3637519 -1.020819
v -1.053324 1.834018 -1.601084
v -0.5653259 2.718173 -1.762499
v -0.5927813 2.509663 -0.3622205
v 0.1933379 2.851692 -0.6593953
v -0.2220359 2.788441 -1.377124
v 0.2748913 4.27126 -1.364489
v 0.9067662 4.197004 -2.435639
v 0.376142 3.782572 -2.717623
v 0.706383 4.634672 -3.202137
v 0.3960703 3.149801 -4.02354
v 0.3267415 2.474974 -3.772252
v 1.893041 4.579165 -2.452738
v 0.8865434 4.849835 -1.644555
v 1.426688 4.861469 -0.8980131
v 2.785761 4.345768 -1.22201
v 2.336103 3.81712 -2.319185
v 0.5056943 4.286994 -0.8433354
v -0.2704839 3.738091 -0.02939197
v -0.2474569 3.092761 1.062507
v 0.3517667 3.422158 1.672394
v -1.032295 2.523256 0.5566578
v 0.6335356 4.325331 1.078686
v 0.4861846 4.881217 -0.491903
v -0.7689884 2.960907 1.140525
v 0.07776732 3.166471 2.185627
v 0.6052268 2.77993 2.853951
v -0.1869559 1.917567 2.683854
v -0.07205319 2.498481 2.068077
v -0.5417206 1.497463 2.130971
v 1.0902 3.745412 2.104323
v 1.421962 3.340562 3.738669
v 2.678441 3.572879 3.317492
v 2.08481 3.700175 2.072154
v 1.157242 4.610476 1.81926
v 3.072305 3.469125 1.482225
v 3.220011 3.161834 3.413649
v 2.23253 4.281208 1.521446
v 2.664295 3.433495 1.038021
v 2.256612 3.444722 3.901685
v 1.284088 3.502414 4.376302
v 2.507102 4.145111 0.3518475
v 1.221047 4.751657 1.054748
v 2.441743 2.811484 4.715416
v 2.389261 2.497592 3.930815
v 1.809865 4.759652 0.6242148
v 1.879222 4.759776 -0.5736357
v 2.507102 4.145111 0.3518475
v 0.02470083 -0.1114731 -4.211247
v -0.1624295 0.5537239 -4.413126
v -0.8049335 -0.1176792 -4.068562
v 0.8200566 1.518838 -4.077545
v 1.615787 0.9322277 -3.846208
v 0.8529233 2.495401 -4.336567
v 1.28976 3.810509 -4.356857
v 1.934704 3.866798 -3.88506
v 0.7295967 4.285406 -3.990555
v 1.265471 4.816776 -3.426037
v 1.85148 4.320671 -3.798167
v 1.28976 3.810509 -4.356857
v 0.5854346 -0.1663972 -3.654495
v 1.934704 3.866798 -3.88506
v -0.4392823 2.763862 -2.626224
v -0.7625952 0.5512068 -4.062603
v -1.407798 0.4704777 -3.192657
v -0.7058327 1.975305 -2.156007
v -0.7647194 -0.2519339 -2.347977
v -1.066781 0.6824664 -1.871037
v -0.7720207 -0.3393191 -1.520828
v -1.274171 -0.1783018 -3.333224
v -1.886306 -0.6326526 1.875146
v -1.993309 -0.04850751 2.280313

vn -0.06746614 -0.456336 0.8872461
vn -0.3294287 0.06073379 0.9422251
vn 0.2834653 -0.6922645 0.6636395
vn 0.614458 -0.2482562 0.7488727
vn 0.03096245 0.6872788 0.7257335
vn -0.4896952 0.4321308 0.7572725
vn -0.6022002 0.7558792 0.256908
vn -0.3270003 0.8850537 0.3312867
vn -0.3238459 0.8066222 0.4944538
vn -0.7249302 0.437934 0.5316861
vn -0.5105854 0.8593982 -0.02715169
vn -0.2145751 -0.2125423 0.9533013
vn 0.1350632 -0.5327515 0.8354243
vn 0.3069082 -0.7457295 0.5913501
vn 0.7363526 -0.5486946 0.3958776
vn -0.006600813 0.9999034 -0.01223744
vn -0.3863089 0.9179952 -0.08972242
vn -0.6032939 0.7795273 -0.1684453
vn -0.2958551 0.9372705 0.1843742
vn -0.6070905 0.7728902 0.1846131
vn -0.3922092 0.8961102 -0.2077466
vn -0.1054527 0.9060611 0.4097964
vn -0.7030829 0.4877858 0.5174356
vn -0.9379186 0.3282318 0.1121277
vn -0.4393669 0.8961564 -0.06213425
vn -0.4392232 0.7557333 -0.4857471
vn -0.3712485 0.9201149 -0.1247527
vn -0.4408178 0.8028378 0.4014116
vn -0.4874895 0.8442727 -0.2226155
vn -0.3981493 0.865084 -0.3051344
vn -0.1040045 0.5209067 -0.8472539
vn -0.4618849 0.6077253 -0.6460127
vn -0.2379945 0.2192723 -0.9461915
vn -0.9033754 0.3449202 -0.2548393
vn -0.625055 0.2986037 -0.7212088
vn -0.6827903 0.6416101 -0.3494765
vn -0.2856835 0.9517013 -0.1124696
vn -0.2738787 0.9259551 0.2599956
vn -0.3398095 0.9353241 -0.09848014
vn -0.3119817 0.9500453 -0.009024501
vn -0.5101734 0.8511974 -0.1232319
vn -0.2056668 0.9710706 -0.1213393
vn -0.4750291 0.8598824 -0.1869486
vn -0.2343565 0.9720857 0.01125092
vn -0.5703362 0.4460697 -0.689738
vn -0.3147309 0.5284485 -0.788471
vn 0.7644203 0.641208 -0.06718665
vn 0.08786391 0.9716903 -0.2193125
vn 0.5361813 0.8352286 -0.1220772
vn 0.8965709 0.4404417 -0.04660146
vn 0.9747252 -0.128259 -0.1829218
vn -0.3682443 0.8588271 -0.356107
vn -0.5866416 0.757703 -0.2858985
vn -0.1655406 0.9859834 0.02081298
vn -0.2512821 0.9062127 0.3400528
vn -0.2350581 0.8535836 -0.4649116
vn -0.3134876 0.9342309 0.1701124
vn 0.1442412 0.9768965 -0.1576953
vn -0.04121469 0.9984592 -0.03715637
vn -0.3653398 0.8995612 0.2394088
vn -0.2012218 0.93729 0.2845998
vn -0.3741096 0.9039756 0.2070514
vn -0.5008271 0.8041815 0.3201006
vn -0.3027943 0.9395368 0.159957
vn -0.01652212 0.8772201 0.4798039
vn 0.2336507 0.9719453 -0.02701734
vn 0.6262766 0.7504389 0.2112323
vn 0.6612244 0.5850861 0.4695281
vn 0.05341633 0.7998279 0.5978479
vn 0.7581075 0.651877 0.01815181
vn 0.7146224 0.2871508 0.6378552
vn 0.847391 0.2782514 0.452222
vn 0.9387075 0.1655161 0.3023783
vn 0.7226092 0.5293646 0.4445326
vn -0.05633044 0.998199 0.02063123
vn 0.8855601 0.2783078 0.371925
vn 0.478643 0.8254101 0.299331
vn 0.614458 -0.2482562 0.7488727
vn 0.7363526 -0.5486946 0.3958776
vn 0.7430699 0.5866861 0.321942
vn 0.764447 0.6342793 0.1153723
vn 0.8855601 0.2783078 0.371925
vn 0.2280846 -0.4829255 -0.845435
vn 0.05176314 0.03792284 -0.9979391
vn -0.4452501 0.1723451 -0.8786636
vn -0.001533046 -0.102885 -0.994692
vn 0.3384753 -0.4690186 -0.8157548
vn -0.08002996 -0.08842961 -0.9928622
vn 0.3630089 0.01404252 -0.9316799
vn 0.8306153 -0.251586 -0.4967723
vn 0.09421322 0.6667912 -0.7392654
vn 0.5504169 0.7889876 -0.27302
vn 0.8390932 0.2403819 -0.4879952
vn 0.3630089 0.01404252 -0.9316799
vn 0.2352764 -0.8375691 -0.493075
vn 0.8306153 -0.251586 -0.4967723
vn -0.4271398 0.784692 -0.4492329
vn -0.3127902 0.5178241 -0.7962541
vn -0.7728155 0.5711961 -0.2765704
vn -0.6747823 0.6492661 -0.3508881
vn -0.9254952 0.3715053 -0.07377359
vn -0.7969323 0.3521913 -0.4907752
vn -0.9086342 0.1347084 -0.395269
vn -0.9171498 0.3215731 -0.2354297
vn -0.8781402 0.3177027 -0.3576798
vn -0.861043 0.5059936 -0.05074804

vt 0.563514 0.4370353
vt 0.4913729 0.4284611
vt 0.50631 0.4669867
vt 0.455099 0.4662204
vt 0.4539496 0.42432
vt 0.55482 0.4130404
vt 0.4986764 0.4020917
vt 0.5227677 0.3619049
vt 0.5605817 0.3599248
vt 0.6181675 0.3908461
vt 0.5905275 0.3260965
vt 0.6011908 0.4294715
vt 0.5937822 0.479526
vt 0.547967 0.4835542
vt 0.4713593 0.4920908
vt 0.5519273 0.3370308
vt 0.5657917 0.3028734
vt 0.6080422 0.3047585
vt 0.59298 0.2983088
vt 0.5782293 0.2648495
vt 0.5997797 0.2380599
vt 0.6061599 0.290988
vt 0.6437802 0.2944586
vt 0.6364357 0.3142862
vt 0.6229221 0.2604502
vt 0.5681996 0.2153903
vt 0.5463704 0.2559934
vt 0.5206133 0.2954709
vt 0.5472003 0.1982936
vt 0.514004 0.2325668
vt 0.5988828 0.2041869
vt 0.6242388 0.2261759
vt 0.6423332 0.2065109
vt 0.6512345 0.2607271
vt 0.6265461 0.1764189
vt 0.547441 0.1758977
vt 0.5123866 0.1705241
vt 0.5196817 0.2183037
vt 0.4939674 0.2114302
vt 0.5030268 0.1853949
vt 0.4512678 0.1915351
vt 0.436504 0.1543397
vt 0.4600292 0.1418456
vt 0.4318691 0.1291515
vt 0.4688298 0.09521689
vt 0.4916534 0.09149683
vt 0.396676 0.1556074
vt 0.4257624 0.1849087
vt 0.4090907 0.2087032
vt 0.3611004 0.1946495
vt 0.3668375 0.1523238
vt 0.4478671 0.209516
vt 0.472869 0.2395783
vt 0.4914574 0.2759236
vt 0.4676695 0.3003866
vt 0.5268677 0.2591811
vt 0.4399524 0.2745963
vt 0.4350582 0.2252956
vt 0.5096397 0.2769018
vt 0.4828096 0.3161134
vt 0.4790362 0.3488176
vt 0.5228779 0.341515
vt 0.5059355 0.3167001
vt 0.5426345 0.3206417
vt 0.4388307 0.3202441
vt 0.443848 0.3814587
vt 0.3970818 0.3781922
vt 0.4017542 0.3301695
vt 0.4231808 0.2961832
vt 0.3601891 0.3300425
vt 0.3774649 0.3889838
vt 0.3935712 0.3021534
vt 0.3612604 0.3112973
vt 0.4151324 0.3954799
vt 0.4482741 0.4028028
vt 0.363818 0.2784508
vt 0.4147986 0.2733878
vt 0.4177167 0.4318797
vt 0.3938182 0.4211596
vt 0.3961318 0.2570343
vt 0.3930777 0.2187223
vt 0.3636209 0.2519777
vt 0.5646453 0.03638101
vt 0.5510647 0.05579016
vt 0.5839719 0.06221525
vt 0.5049101 0.05404858
vt 0.50359 0.02017906
vt 0.4767913 0.068949
vt 0.4364481 0.07894719
vt 0.4213634 0.05941905
vt 0.4328456 0.1027046
vt 0.415085 0.1251566
vt 0.3965261 0.111057
vt 0.40766 0.08476594
vt 0.552045 0.01286364
vt 0.3846542 0.1022755
vt 0.5051818 0.1408484
vt 0.5635433 0.07355136
vt 0.580654 0.1035908
vt 0.5367143 0.1530446
vt 0.6114614 0.1311746
vt 0.5841756 0.157349
vt 0.6225184 0.1575781
vt 0.5993363 0.09168726
vt 0.63542 0.3278949
vt 0.6130335 0.3321355

g Cliff2_2525_193
usemtl Cliff2_2525_193
usemap Cliff2_2525_193
f 1/1/1 3/3/3 2/2/2
f 4/4/4 2/2/2 3/3/3
f 4/4/4 5/5/5 2/2/2
f 2/2/2 6/6/6 1/1/1
f 2/2/2 7/7/7 6/6/6
f 2/2/2 5/5/5 7/7/7
f 6/6/6 7/7/7 8/8/8
f 9/9/9 6/6/6 8/8/8
f 6/6/6 9/9/9 10/10/10
f 11/11/11 10/10/10 9/9/9
f 6/6/6 10/10/10 12/12/12
f 12/12/12 1/1/1 6/6/6
f 1/1/1 12/12/12 13/13/13
f 14/14/14 1/1/1 13/13/13
f 3/3/3 1/1/1 14/14/14
f 15/15/15 4/4/4 3/3/3
f 15/15/15 3/3/3 14/14/14
f 16/16/16 9/9/9 8/8/8
f 9/9/9 16/16/16 11/11/11
f 16/16/16 17/17/17 11/11/11
f 17/17/17 18/18/18 11/11/11
f 18/18/18 17/17/17 19/19/19
f 17/17/17 20/20/20 19/19/19
f 21/21/21 19/19/19 20/20/20
f 19/19/19 21/21/21 22/22/22
f 19/19/19 22/22/22 18/18/18
f 18/18/18 22/22/22 23/23/23
f 24/24/24 18/18/18 23/23/23
f 23/23/23 22/22/22 25/25/25
f 21/21/21 25/25/25 22/22/22
f 20/20/20 26/26/26 21/21/21
f 20/20/20 27/27/27 26/26/26
f 27/27/27 20/20/20 17/17/17
f 28/28/28 27/27/27 17/17/17
f 29/29/29 26/26/26 27/27/27
f 29/29/29 27/27/27 30/30/30
f 26/26/26 31/31/31 21/21/21
f 21/21/21 31/31/31 25/25/25
f 31/31/31 32/32/32 25/25/25
f 32/32/32 31/31/31 33/33/33
f 32/32/32 33/33/33 34/34/34
f 25/25/25 32/32/32 34/34/34
f 34/34/34 23/23/23 25/25/25
f 31/31/31 35/35/35 33/33/33
f 26/26/26 35/35/35 31/31/31
f 26/26/26 29/29/29 35/35/35
f 29/29/29 36/36/36 35/35/35
f 29/29/29 37/37/37 36/36/36
f 37/37/37 29/29/29 38/38/38
f 38/38/38 29/29/29 30/30/30
f 39/39/39 37/37/37 38/38/38
f 39/39/39 38/38/38 30/30/30
f 39/39/39 40/40/40 37/37/37
f 40/40/40 39/39/39 41/41/41
f 41/41/41 42/42/42 40/40/40
f 37/37/37 40/40/40 42/42/42
f 37/37/37 42/42/42 43/43/43
f 44/44/44 43/43/43 42/42/42
f 43/43/43 44/44/44 45/45/45
f 43/43/43 45/45/45 46/46/46
f 44/44/44 42/42/42 47/47/47
f 42/42/42 48/48/48 47/47/47
f 41/41/41 48/48/48 42/42/42
f 47/47/47 48/48/48 49/49/49
f 50/50/50 47/47/47 49/49/49
f 50/50/50 51/51/51 47/47/47
f 52/52/52 41/41/41 39/39/39
f 49/49/49 48/48/48 52/52/52
f 41/41/41 52/52/52 48/48/48
f 53/53/53 52/52/52 39/39/39
f 53/53/53 39/39/39 30/30/30
f 30/30/30 54/54/54 53/53/53
f 55/55/55 53/53/53 54/54/54
f 30/30/30 56/56/56 54/54/54
f 57/57/57 53/53/53 55/55/55
f 58/58/58 53/53/53 57/57/57
f 53/53/53 58/58/58 52/52/52
f 52/52/52 58/58/58 49/49/49
f 54/54/54 56/56/56 59/59/59
f 55/55/55 54/54/54 60/60/60
f 55/55/55 60/60/60 61/61/61
f 60/60/60 62/62/62 61/61/61
f 63/63/63 60/60/60 54/54/54
f 60/60/60 63/63/63 62/62/62
f 63/63/63 64/64/64 62/62/62
f 64/64/64 16/16/16 62/62/62
f 28/28/28 63/63/63 54/54/54
f 64/64/64 63/63/63 28/28/28
f 56/56/56 28/28/28 59/59/59
f 54/54/54 59/59/59 28/28/28
f 61/61/61 65/65/65 55/55/55
f 61/61/61 66/66/66 65/65/65
f 65/65/65 66/66/66 67/67/67
f 68/68/68 65/65/65 67/67/67
f 69/69/69 65/65/65 68/68/68
f 70/70/70 68/68/68 67/67/67
f 71/71/71 70/70/70 67/67/67
f 72/72/72 69/69/69 68/68/68
f 70/70/70 73/73/73 68/68/68
f 72/72/72 68/68/68 73/73/73
f 66/66/66 74/74/74 67/67/67
f 74/74/74 71/71/71 67/67/67
f 66/66/66 75/75/75 74/74/74
f 73/73/73 76/76/76 72/72/72
f 76/76/76 77/77/77 72/72/72
f 77/77/77 69/69/69 72/72/72
f 61/61/61 75/75/75 66/66/66
f 75/75/75 61/61/61 8/8/8
f 69/69/69 55/55/55 65/65/65
f 8/8/8 7/7/7 75/75/75
f 5/5/5 74/74/74 75/75/75
f 5/5/5 75/75/75 7/7/7
f 5/5/5 78/78/78 74/74/74
f 78/78/78 79/79/79 74/74/74
f 79/79/79 71/71/71 74/74/74
f 62/62/62 8/8/8 61/61/61
f 62/62/62 16/16/16 8/8/8
f 57/57/57 77/77/77 58/58/58
f 80/80/80 58/58/58 77/77/77
f 81/81/81 58/58/58 80/80/80
f 82/82/82 81/81/81 80/80/80
f 77/77/77 82/82/82 80/80/80
f 82/82/82 50/50/50 81/81/81
f 49/49/49 58/58/58 81/81/81
f 81/81/81 50/50/50 49/49/49
f 69/69/69 57/57/57 55/55/55
f 69/69/69 77/77/77 57/57/57
f 17/17/17 16/16/16 64/64/64
f 64/64/64 28/28/28 17/17/17
f 28/28/28 56/56/56 27/27/27
f 27/27/27 56/56/56 30/30/30
f 83/83/83 85/85/85 84/84/84
f 86/86/86 83/83/83 84/84/84
f 83/83/83 86/86/86 87/87/87
f 46/46/46 86/86/86 84/84/84
f 45/45/45 86/86/86 46/46/46
f 86/86/86 45/45/45 88/88/88
f 88/88/88 87/87/87 86/86/86
f 89/89/89 87/87/87 88/88/88
f 88/88/88 45/45/45 89/89/89
f 87/87/87 89/89/89 90/90/90
f 91/91/91 89/89/89 45/45/45
f 44/44/44 91/91/91 45/45/45
f 92/92/92 91/91/91 44/44/44
f 91/91/91 92/92/92 93/93/93
f 47/47/47 93/93/93 92/92/92
f 44/44/44 47/47/47 92/92/92
f 94/94/94 91/91/91 93/93/93
f 95/95/95 83/83/83 87/87/87
f 96/96/96 94/94/94 93/93/93
f 51/51/51 93/93/93 47/47/47
f 51/51/51 96/96/96 93/93/93
f 97/97/97 46/46/46 98/98/98
f 99/99/99 97/97/97 98/98/98
f 100/100/100 97/97/97 99/99/99
f 100/100/100 99/99/99 101/101/101
f 102/102/102 100/100/100 101/101/101
f 102/102/102 101/101/101 103/103/103
f 85/85/85 99/99/99 98/98/98
f 101/101/101 99/99/99 104/104/104
f 104/104/104 99/99/99 85/85/85
f 35/35/35 102/102/102 103/103/103
f 97/97/97 43/43/43 46/46/46
f 37/37/37 43/43/43 97/97/97
f 37/37/37 97/97/97 100/100/100
f 36/36/36 37/37/37 100/100/100
f 36/36/36 100/100/100 102/102/102
f 35/35/35 36/36/36 102/102/102
f 85/85/85 98/98/98 84/84/84
f 84/84/84 98/98/98 46/46/46
f 105/105/105 18/18/18 24/24/24
f 106/106/106 18/18/18 105/105/105
f 105/105/105 10/10/10 106/106/106
f 10/10/10 11/11/11 106/106/106
f 11/11/11 18/18/18 106/106/106
