#Cliff2_(2)_1374_387.obj

v 0.5381163 -0.04401645 4.224664
v 1.162831 1.873999 5.081438
v 2.072081 1.113162 4.473753
v 2.567638 2.530923 4.806592
v 1.506541 2.96001 5.039841
v 0.02284397 0.4359442 4.38728
v 0.642109 2.000345 4.407072
v 0.1420889 1.576782 3.177431
v -0.8818145 1.127454 3.274077
v -1.244684 -0.8116829 3.611852
v -1.811594 0.7725855 2.259891
v -0.09651758 -0.9458088 4.054668
v 1.161742 -1.000939 3.249779
v 1.720726 0.1966199 3.529418
v 2.503283 2.240711 4.013806
v -0.8760726 1.566997 2.632363
v -1.00022 1.125304 1.659627
v -1.797487 0.335542 1.596864
v -1.42823 0.5256524 1.469192
v -1.735547 1.294767 0.7693048
v -1.905695 0.8524981 -0.08780533
v -1.890806 0.5763628 1.314615
v -2.320076 -0.4606308 1.261805
v -1.704107 -0.4736556 1.509527
v -2.69002 0.5373847 0.4633152
v -1.553195 1.724863 -0.7349852
v -1.099568 2.025398 0.5364212
v -0.7200279 2.567496 1.817064
v -0.8871443 2.038798 -0.9798655
v -0.1478812 2.452068 0.009964123
v -1.457698 0.7342937 -0.8969796
v -2.417696 0.4867626 -0.6488177
v -2.075911 -0.2160476 -1.06512
v -2.667166 -0.336399 0.3628609
v -1.035532 -0.2718335 -1.038576
v -0.9178229 1.937045 -1.562704
v -0.3728253 2.791912 -1.69726
v -0.4278423 2.550708 -0.3030568
v 0.3814806 2.849041 -0.5846081
v -0.02971502 2.83043 -1.307269
v 0.5605785 4.277634 -1.252461
v 1.197358 4.18985 -2.319674
v 0.6443077 3.817389 -2.616721
v 1.033139 4.658436 -3.076434
v 0.6372142 3.217426 -3.938162
v 0.5224382 2.542358 -3.704809
v 2.206116 4.508424 -2.3185
v 1.210704 4.822693 -1.512368
v 1.742823 4.781105 -0.7611426
v 3.0695 4.18774 -1.086496
v 2.598304 3.716495 -2.200656
v 0.7865696 4.265556 -0.7291065
v -0.03130862 3.747305 0.06382662
v -0.06064345 3.074777 1.139035
v 0.5520895 3.349832 1.762281
v -0.8749745 2.569463 0.6120467
v 0.8969233 4.247658 1.194299
v 0.8013893 4.850855 -0.3627821
v -0.590291 2.97466 1.209155
v 0.2571101 3.099474 2.26643
v 0.7519876 2.663416 2.929178
v -0.09177797 1.858026 2.730273
v 0.06621885 2.445582 2.13056
v -0.4669291 1.475412 2.163799
v 1.305171 3.614291 2.208678
v 1.593708 3.148383 3.834939
v 2.866685 3.31026 3.430678
v 2.29515 3.506319 2.183931
v 1.43014 4.480137 1.946401
v 3.271891 3.227347 1.596822
v 3.379938 2.863132 3.520962
v 2.485238 4.090271 1.649548
v 2.867006 3.228994 1.148354
v 2.431589 3.194819 4.00775
v 1.459917 3.302763 4.47529
v 2.762528 3.966113 0.4792596
v 1.510633 4.63598 1.18633
v 2.567638 2.530923 4.806592
v 2.503283 2.240711 4.013806
v 2.103136 4.617022 0.7612258
v 2.184614 4.6426 -0.4355843
v 2.762528 3.966113 0.4792596
v 0.0606283 -0.007697994 -4.212353
v -0.08163781 0.6729407 -4.398767
v -0.7691283 0.03563821 -4.077025
v 0.9568937 1.564532 -4.030177
v 1.7112 0.9226156 -3.807061
v 1.054599 2.54315 -4.263864
v 1.574573 3.827706 -4.246774
v 2.216931 3.830817 -3.768147
v 1.042105 4.328185 -3.873292
v 1.604962 4.809922 -3.290781
v 2.161927 4.286776 -3.670407
v 1.574573 3.827706 -4.246774
v 0.6109949 -0.1122676 -3.652371
v 2.216931 3.830817 -3.768147
v -0.2352963 2.850982 -2.558416
v -0.6842964 0.7000867 -4.053609
v -1.3422 0.639125 -3.191603
v -0.5563717 2.06961 -2.11082
v -0.7551621 -0.1438102 -2.360152
v -1.001904 0.7958099 -1.862107
v -0.7764826 -0.2511636 -1.535598
v -1.248777 -0.01316549 -3.34755
v -1.941888 -0.5572492 1.842042
v -2.015574 0.02225269 2.261068

vn -0.6460688 -0.4512082 0.615635
vn -0.954191 -0.08156429 0.2878662
vn -0.2206849 -0.5264459 0.8210683
vn -0.218179 0.01207551 0.9758341
vn -0.7350363 0.6380582 0.2293543
vn -0.9787624 0.1965022 -0.05840501
vn -0.7109039 0.4519227 -0.5388706
vn -0.6544738 0.6795055 -0.3315667
vn -0.7662575 0.6077591 -0.2085148
vn -0.9234667 0.1096262 -0.3676839
vn -0.4563959 0.5851992 -0.6702572
vn -0.8364967 -0.2865796 0.4670606
vn -0.4773616 -0.4403279 0.7604192
vn -0.136828 -0.5656862 0.8131896
vn 0.2046581 -0.2126918 0.9554462
vn -0.2319102 0.9146544 -0.3310965
vn -0.3530869 0.6888377 -0.6331131
vn -0.3725903 0.4759372 -0.7966557
vn -0.5312302 0.7407569 -0.4111858
vn -0.6590194 0.4660484 -0.5903324
vn -0.2554337 0.6671785 -0.6997331
vn -0.6043609 0.7864784 -0.1272779
vn -0.9120976 0.1641461 -0.3756784
vn -0.6716079 -0.07308666 -0.7372932
vn -0.3986589 0.6475004 -0.6494724
vn -0.02199247 0.521495 -0.8529708
vn -0.3171477 0.6970056 -0.6431178
vn -0.7526687 0.5583171 -0.3489585
vn -0.2820907 0.5817879 -0.7628551
vn -0.1723389 0.6369847 -0.7513653
vn 0.5064084 0.4419059 -0.7404525
vn 0.1309511 0.3777445 -0.916603
vn 0.586634 0.1125107 -0.8019989
vn -0.3598333 -0.04164547 -0.9320868
vn 0.1780947 0.02970919 -0.9835648
vn -0.2356852 0.318948 -0.9180003
vn -0.2887761 0.7599688 -0.5822849
vn -0.5780112 0.7386373 -0.346869
vn -0.3252071 0.7233044 -0.6091561
vn -0.3862631 0.7473081 -0.540677
vn -0.3763961 0.5784636 -0.7236753
vn -0.2433323 0.8096532 -0.5340892
vn -0.308024 0.6008365 -0.7376426
vn -0.3663447 0.7983015 -0.4780234
vn 0.146781 0.1865615 -0.9714167
vn 0.3440838 0.3645395 -0.8652846
vn 0.3112144 0.892974 0.3251816
vn -0.006839544 0.9277297 -0.3731901
vn 0.1871417 0.9804272 0.0611591
vn 0.413195 0.7612967 0.4996973
vn 0.7010177 0.271634 0.6593854
vn -0.1135362 0.6434828 -0.7569937
vn -0.2633298 0.4633098 -0.8461688
vn -0.3405283 0.8383876 -0.4256133
vn -0.6260446 0.7290059 -0.2768008
vn 0.04720986 0.6924083 -0.7199597
vn -0.5284017 0.7310407 -0.4317074
vn -0.02778143 0.9545531 -0.2967432
vn -0.2299289 0.8997094 -0.3710199
vn -0.6040535 0.6781435 -0.4186177
vn -0.5617101 0.7778046 -0.2819608
vn -0.5835952 0.6789107 -0.4455299
vn -0.7192819 0.5361833 -0.4417475
vn -0.5157106 0.7402312 -0.4313936
vn -0.6065422 0.7949777 -0.01081102
vn -0.0845421 0.9847636 -0.1519646
vn -0.01435634 0.936362 0.3507424
vn -0.1654443 0.7969254 0.5809803
vn -0.6462392 0.751068 0.1351732
vn 0.2361653 0.8996939 0.3671198
vn -0.202176 0.5438015 0.8144966
vn 0.02144855 0.5897052 0.8073338
vn 0.2186174 0.5236244 0.8234222
vn -0.09902729 0.7704157 0.6298043
vn -0.2847742 0.8930776 -0.3483048
vn 0.1069276 0.605475 0.7886485
vn -0.1826888 0.9457791 0.2685642
vn -0.218179 0.01207551 0.9758341
vn 0.2046581 -0.2126918 0.9554462
vn -0.002425998 0.8319378 0.5548638
vn 0.1650075 0.8854454 0.4344641
vn 0.1069276 0.605475 0.7886485
vn 0.9221001 -0.3466877 -0.1718698
vn 0.8270271 0.06186642 -0.5587476
vn 0.432066 -0.01349444 -0.9017411
vn 0.8293951 -0.08853707 -0.5516023
vn 0.9538957 -0.29017 -0.07671097
vn 0.7824072 -0.1065436 -0.6135859
vn 0.9458228 0.163458 -0.2805368
vn 0.9074075 0.1031628 0.4073931
vn 0.4903834 0.6539473 -0.576088
vn 0.3280525 0.9446574 -0.002001747
vn 0.7876005 0.5577596 0.2618964
vn 0.9458228 0.163458 -0.2805368
vn 0.7250575 -0.6714204 0.1532522
vn 0.9074075 0.1031628 0.4073931
vn -0.05199531 0.5526331 -0.8318012
vn 0.3539597 0.3556169 -0.865014
vn -0.3261968 0.2180405 -0.9198119
vn -0.2320753 0.3291684 -0.9153082
vn -0.524684 -0.02724034 -0.8508612
vn -0.1134233 0.008935571 -0.9935067
vn -0.198808 -0.2356545 -0.9512846
vn -0.3773719 -0.06867182 -0.9235122
vn -0.2565247 -0.05589742 -0.9649199
vn -0.540849 0.1216379 -0.8322781

vt 0.5634766 0.4370117
vt 0.4912109 0.4282227
vt 0.5058594 0.4667969
vt 0.4550781 0.4660645
vt 0.4538574 0.4243164
vt 0.5546875 0.4128418
vt 0.4985352 0.4018555
vt 0.5224609 0.3618164
vt 0.5605469 0.3598633
vt 0.6181641 0.390625
vt 0.590332 0.3259277
vt 0.6010742 0.4294434
vt 0.59375 0.4794922
vt 0.5478516 0.4833984
vt 0.4711914 0.4919434
vt 0.5517578 0.3369141
vt 0.5654297 0.3027344
vt 0.6079102 0.3046875
vt 0.5927734 0.2980957
vt 0.578125 0.2646484
vt 0.5996094 0.2380371
vt 0.605957 0.2907715
vt 0.6435547 0.2944336
vt 0.6362305 0.314209
vt 0.6225586 0.2602539
vt 0.5678711 0.215332
vt 0.5458984 0.2558594
vt 0.5205078 0.2954102
vt 0.546875 0.1982422
vt 0.5136719 0.2325439
vt 0.5986328 0.2041016
vt 0.6240234 0.2260742
vt 0.6420898 0.2064209
vt 0.6508789 0.260498
vt 0.6264648 0.1763916
vt 0.5473633 0.1757813
vt 0.512207 0.1704102
vt 0.5195313 0.2182617
vt 0.4938965 0.2114258
vt 0.5029297 0.1853027
vt 0.4511719 0.1915283
vt 0.4362793 0.1542969
vt 0.4599609 0.1417236
vt 0.4316406 0.1291504
vt 0.46875 0.09521484
vt 0.4914551 0.0914917
vt 0.3964844 0.1555176
vt 0.4255371 0.1848145
vt 0.4089355 0.2086182
vt 0.361084 0.1945801
vt 0.3666992 0.1522217
vt 0.4477539 0.2094727
vt 0.4726563 0.239502
vt 0.4914551 0.2758789
vt 0.4675293 0.300293
vt 0.5268555 0.2590332
vt 0.4399414 0.2744141
vt 0.4348145 0.2252197
vt 0.5092773 0.2768555
vt 0.482666 0.315918
vt 0.4790039 0.3486328
vt 0.5224609 0.3413086
vt 0.5058594 0.3166504
vt 0.5424805 0.3205566
vt 0.4387207 0.3200684
vt 0.4438477 0.3813477
vt 0.3969727 0.3781738
vt 0.4016113 0.3300781
vt 0.4230957 0.2961426
vt 0.3601074 0.329834
vt 0.3774414 0.388916
vt 0.3935547 0.302002
vt 0.361084 0.3112793
vt 0.4150391 0.3952637
vt 0.4482422 0.4025879
vt 0.3637695 0.2783203
vt 0.4147949 0.2731934
vt 0.4174805 0.4316406
vt 0.3937988 0.4211426
vt 0.3959961 0.2568359
vt 0.3930664 0.2186279
vt 0.3635254 0.2519531
vt 0.5644531 0.03637695
vt 0.5507813 0.05578613
vt 0.5834961 0.06219482
vt 0.5048828 0.05404663
vt 0.503418 0.02017212
vt 0.4765625 0.06890869
vt 0.4362793 0.07891846
vt 0.4211426 0.05941772
vt 0.4326172 0.1026611
vt 0.4150391 0.1251221
vt 0.3964844 0.1110229
vt 0.4074707 0.0847168
vt 0.5517578 0.01286316
vt 0.3845215 0.1022339
vt 0.5048828 0.1407471
vt 0.5634766 0.07354736
vt 0.5805664 0.1035767
vt 0.5366211 0.1529541
vt 0.6113281 0.1311035
vt 0.5839844 0.1573486
vt 0.6220703 0.1574707
vt 0.5991211 0.0916748
vt 0.6352539 0.3278809
vt 0.612793 0.3320313

g Cliff2_(2)_1374_387
usemtl Cliff2_(2)_1374_387
usemap Cliff2_(2)_1374_387
f 1/1/1 3/3/3 2/2/2
f 4/4/4 2/2/2 3/3/3
f 4/4/4 5/5/5 2/2/2
f 2/2/2 6/6/6 1/1/1
f 2/2/2 7/7/7 6/6/6
f 2/2/2 5/5/5 7/7/7
f 6/6/6 7/7/7 8/8/8
f 9/9/9 6/6/6 8/8/8
f 6/6/6 9/9/9 10/10/10
f 11/11/11 10/10/10 9/9/9
f 6/6/6 10/10/10 12/12/12
f 12/12/12 1/1/1 6/6/6
f 1/1/1 12/12/12 13/13/13
f 14/14/14 1/1/1 13/13/13
f 3/3/3 1/1/1 14/14/14
f 15/15/15 4/4/4 3/3/3
f 15/15/15 3/3/3 14/14/14
f 16/16/16 9/9/9 8/8/8
f 9/9/9 16/16/16 11/11/11
f 16/16/16 17/17/17 11/11/11
f 17/17/17 18/18/18 11/11/11
f 18/18/18 17/17/17 19/19/19
f 17/17/17 20/20/20 19/19/19
f 21/21/21 19/19/19 20/20/20
f 19/19/19 21/21/21 22/22/22
f 19/19/19 22/22/22 18/18/18
f 18/18/18 22/22/22 23/23/23
f 24/24/24 18/18/18 23/23/23
f 23/23/23 22/22/22 25/25/25
f 21/21/21 25/25/25 22/22/22
f 20/20/20 26/26/26 21/21/21
f 20/20/20 27/27/27 26/26/26
f 27/27/27 20/20/20 17/17/17
f 28/28/28 27/27/27 17/17/17
f 29/29/29 26/26/26 27/27/27
f 29/29/29 27/27/27 30/30/30
f 26/26/26 31/31/31 21/21/21
f 21/21/21 31/31/31 25/25/25
f 31/31/31 32/32/32 25/25/25
f 32/32/32 31/31/31 33/33/33
f 32/32/32 33/33/33 34/34/34
f 25/25/25 32/32/32 34/34/34
f 34/34/34 23/23/23 25/25/25
f 31/31/31 35/35/35 33/33/33
f 26/26/26 35/35/35 31/31/31
f 26/26/26 29/29/29 35/35/35
f 29/29/29 36/36/36 35/35/35
f 29/29/29 37/37/37 36/36/36
f 37/37/37 29/29/29 38/38/38
f 38/38/38 29/29/29 30/30/30
f 39/39/39 37/37/37 38/38/38
f 39/39/39 38/38/38 30/30/30
f 39/39/39 40/40/40 37/37/37
f 40/40/40 39/39/39 41/41/41
f 41/41/41 42/42/42 40/40/40
f 37/37/37 40/40/40 42/42/42
f 37/37/37 42/42/42 43/43/43
f 44/44/44 43/43/43 42/42/42
f 43/43/43 44/44/44 45/45/45
f 43/43/43 45/45/45 46/46/46
f 44/44/44 42/42/42 47/47/47
f 42/42/42 48/48/48 47/47/47
f 41/41/41 48/48/48 42/42/42
f 47/47/47 48/48/48 49/49/49
f 50/50/50 47/47/47 49/49/49
f 50/50/50 51/51/51 47/47/47
f 52/52/52 41/41/41 39/39/39
f 49/49/49 48/48/48 52/52/52
f 41/41/41 52/52/52 48/48/48
f 53/53/53 52/52/52 39/39/39
f 53/53/53 39/39/39 30/30/30
f 30/30/30 54/54/54 53/53/53
f 55/55/55 53/53/53 54/54/54
f 30/30/30 56/56/56 54/54/54
f 57/57/57 53/53/53 55/55/55
f 58/58/58 53/53/53 57/57/57
f 53/53/53 58/58/58 52/52/52
f 52/52/52 58/58/58 49/49/49
f 54/54/54 56/56/56 59/59/59
f 55/55/55 54/54/54 60/60/60
f 55/55/55 60/60/60 61/61/61
f 60/60/60 62/62/62 61/61/61
f 63/63/63 60/60/60 54/54/54
f 60/60/60 63/63/63 62/62/62
f 63/63/63 64/64/64 62/62/62
f 64/64/64 16/16/16 62/62/62
f 28/28/28 63/63/63 54/54/54
f 64/64/64 63/63/63 28/28/28
f 56/56/56 28/28/28 59/59/59
f 54/54/54 59/59/59 28/28/28
f 61/61/61 65/65/65 55/55/55
f 61/61/61 66/66/66 65/65/65
f 65/65/65 66/66/66 67/67/67
f 68/68/68 65/65/65 67/67/67
f 69/69/69 65/65/65 68/68/68
f 70/70/70 68/68/68 67/67/67
f 71/71/71 70/70/70 67/67/67
f 72/72/72 69/69/69 68/68/68
f 70/70/70 73/73/73 68/68/68
f 72/72/72 68/68/68 73/73/73
f 66/66/66 74/74/74 67/67/67
f 74/74/74 71/71/71 67/67/67
f 66/66/66 75/75/75 74/74/74
f 73/73/73 76/76/76 72/72/72
f 76/76/76 77/77/77 72/72/72
f 77/77/77 69/69/69 72/72/72
f 61/61/61 75/75/75 66/66/66
f 75/75/75 61/61/61 8/8/8
f 69/69/69 55/55/55 65/65/65
f 8/8/8 7/7/7 75/75/75
f 5/5/5 74/74/74 75/75/75
f 5/5/5 75/75/75 7/7/7
f 5/5/5 78/78/78 74/74/74
f 78/78/78 79/79/79 74/74/74
f 79/79/79 71/71/71 74/74/74
f 62/62/62 8/8/8 61/61/61
f 62/62/62 16/16/16 8/8/8
f 57/57/57 77/77/77 58/58/58
f 80/80/80 58/58/58 77/77/77
f 81/81/81 58/58/58 80/80/80
f 82/82/82 81/81/81 80/80/80
f 77/77/77 82/82/82 80/80/80
f 82/82/82 50/50/50 81/81/81
f 49/49/49 58/58/58 81/81/81
f 81/81/81 50/50/50 49/49/49
f 69/69/69 57/57/57 55/55/55
f 69/69/69 77/77/77 57/57/57
f 17/17/17 16/16/16 64/64/64
f 64/64/64 28/28/28 17/17/17
f 28/28/28 56/56/56 27/27/27
f 27/27/27 56/56/56 30/30/30
f 83/83/83 85/85/85 84/84/84
f 86/86/86 83/83/83 84/84/84
f 83/83/83 86/86/86 87/87/87
f 46/46/46 86/86/86 84/84/84
f 45/45/45 86/86/86 46/46/46
f 86/86/86 45/45/45 88/88/88
f 88/88/88 87/87/87 86/86/86
f 89/89/89 87/87/87 88/88/88
f 88/88/88 45/45/45 89/89/89
f 87/87/87 89/89/89 90/90/90
f 91/91/91 89/89/89 45/45/45
f 44/44/44 91/91/91 45/45/45
f 92/92/92 91/91/91 44/44/44
f 91/91/91 92/92/92 93/93/93
f 47/47/47 93/93/93 92/92/92
f 44/44/44 47/47/47 92/92/92
f 94/94/94 91/91/91 93/93/93
f 95/95/95 83/83/83 87/87/87
f 96/96/96 94/94/94 93/93/93
f 51/51/51 93/93/93 47/47/47
f 51/51/51 96/96/96 93/93/93
f 97/97/97 46/46/46 98/98/98
f 99/99/99 97/97/97 98/98/98
f 100/100/100 97/97/97 99/99/99
f 100/100/100 99/99/99 101/101/101
f 102/102/102 100/100/100 101/101/101
f 102/102/102 101/101/101 103/103/103
f 85/85/85 99/99/99 98/98/98
f 101/101/101 99/99/99 104/104/104
f 104/104/104 99/99/99 85/85/85
f 35/35/35 102/102/102 103/103/103
f 97/97/97 43/43/43 46/46/46
f 37/37/37 43/43/43 97/97/97
f 37/37/37 97/97/97 100/100/100
f 36/36/36 37/37/37 100/100/100
f 36/36/36 100/100/100 102/102/102
f 35/35/35 36/36/36 102/102/102
f 85/85/85 98/98/98 84/84/84
f 84/84/84 98/98/98 46/46/46
f 105/105/105 18/18/18 24/24/24
f 106/106/106 18/18/18 105/105/105
f 105/105/105 10/10/10 106/106/106
f 10/10/10 11/11/11 106/106/106
f 11/11/11 18/18/18 106/106/106
