#Cliff1_(14)_3254_65.obj

v 0.9867228 3.40404 1.787294
v 0.808457 3.327841 2.227023
v 0.2469086 2.878024 1.460719
v -0.5179709 3.042773 2.108621
v -0.374301 2.139339 1.412116
v 2.431 2.973319 2.656927
v 0.5516497 2.76025 3.362897
v 2.400999 2.329754 4.006098
v -0.9462659 2.084943 2.862338
v -0.7941244 1.467389 2.372866
v -0.2145986 1.217834 3.399086
v 0.1439312 2.221952 3.72186
v -0.8697219 0.4667062 3.9096
v 1.085177 1.840566 4.426283
v 2.588383 0.3948463 3.307776
v 0.7829297 0.9381422 4.243474
v 3.076824 2.123976 2.823315
v 1.476073 -0.09580498 4.22788
v 1.656433 -1.402846 3.499969
v 0.1907491 0.1156069 4.426567
v -0.4979982 -0.6798212 3.937547
v -0.7498472 -1.367526 3.002228
v -1.201981 0.380566 2.775964
v -1.122529 1.270268 2.191533
v -0.1030466 1.51243 3.878325
v -1.159133 0.6430953 1.69613
v -0.7255171 1.066525 1.255306
v -1.785135 1.095798 1.047782
v -1.263392 1.734947 -0.4427745
v -1.918819 -0.06628208 1.749258
v -0.7395814 1.482829 0.2611721
v -0.08792061 3.013256 0.7326509
v -2.149387 1.185452 0.08596911
v -2.607194 -0.4784987 -0.3717783
v -2.32147 -0.9552376 0.8957343
v -1.915071 0.6781713 -0.9508703
v -2.253866 -0.9046544 -1.22965
v -2.038491 -1.406709 0.4587728
v -1.186388 -1.408492 -1.686459
v -1.733709 -0.5232254 -1.449977
v -1.648309 -0.01064796 -1.943876
v -2.287598 0.03649034 -2.761896
v -1.926998 0.8677043 -3.298173
v -2.38961 -0.790665 -4.100281
v -1.989254 0.2412933 -4.463665
v -0.4854719 1.077838 -4.394661
v -1.84606 -1.359151 -3.256707
v -1.212577 -1.418299 -4.879492
v -0.9890271 -0.2278673 -5.253488
v 0.5857825 -1.032193 -5.417708
v 0.3404429 0.4351172 -5.216083
v 0.2827625 1.180774 -4.295396
v -0.6072791 1.100726 -2.688462
v -1.285722 0.8337076 -2.304091
v -0.2656899 3.182339 -1.873871
v 0.4981192 3.069691 -2.615022
v -0.5846763 0.5787998 -5.003651
v 1.060725 0.9552076 -4.470387
v 1.282568 -0.9586527 -5.164387
v 1.741122 -0.7585871 -4.182112
v 2.346045 2.460472 -3.624927
v 1.790408 2.448287 -4.098735
v 2.722255 1.864589 -3.103733
v 1.408688 3.389632 -3.695085
v 0.4895817 3.095574 -3.318391
v -0.3961624 1.513554 -3.237387
v 0.2827625 1.180774 -4.295396
v 1.599076 3.283578 -3.141624
v 1.408688 3.389632 -3.695085
v 0.5318257 4.06373 -1.948527
v -0.2315728 2.856872 -1.055782
v 0.3238448 3.108705 -0.8881039
v 1.793791 4.038685 -1.5723
v 2.480962 3.953181 -1.873038
v 1.744485 3.726765 -2.906374
v 2.362393 3.506207 -3.005393
v 2.966163 2.471701 -2.33293
v 2.346045 2.460472 -3.624927
v 2.722255 1.864589 -3.103733
v 0.1724607 2.957852 -0.06754156
v 0.9688039 3.553354 0.3653575
v 0.7515332 3.94366 -0.1948873
v -0.3529447 1.627644 -0.1340592
v 1.872045 4.129 0.05514151
v 1.859693 2.945097 1.323493
v 2.307825 3.710522 0.1854484
v 2.9231 2.953988 0.9697058
v 2.605256 2.067237 1.999099
v 2.782921 3.488433 -0.7444777
v 2.539754 4.16515 -0.4100742
v 2.848888 3.384043 -1.339736
v -0.7885508 1.362221 -0.9502503
v -1.284055 0.8854378 -1.741324
v 1.74094 4.305454 -1.26456
v 1.74094 4.305454 -1.26456
v 1.116153 4.227715 -0.873472
v 1.74094 4.305454 -1.26456
v 0.2469086 2.878024 1.460719
v 2.848888 3.384043 -1.339736
v -1.029166 -0.1036633 1.949555
v -0.5929518 -1.338201 1.373472
v -1.40307 -1.385 1.467196
v 2.605256 2.067237 1.999099
v 1.859693 2.945097 1.323493

vn 0.2015406 0.9702946 -0.1338274
vn -0.2176595 0.9756204 -0.02809122
vn -0.06420796 0.9016843 -0.4276013
vn -0.1326697 0.791125 -0.597093
vn -0.1950703 0.3450244 -0.918099
vn 0.2495033 0.8265812 0.5044915
vn -0.6208987 0.7837373 0.01551987
vn -0.434783 0.5840358 0.6854678
vn -0.6846993 0.2284156 -0.6921078
vn -0.4428121 0.469803 -0.7636771
vn -0.8687484 0.141533 -0.4745994
vn -0.8430346 0.4532501 -0.289581
vn -0.8659464 0.3171359 -0.3867322
vn -0.9142498 0.2230808 0.3382048
vn -0.4593394 -0.1341844 0.8780671
vn -0.937497 0.1035766 0.3322217
vn 0.2675688 0.3876741 0.8821087
vn -0.7014464 -0.1977077 0.6847516
vn -0.6291317 -0.5696977 0.528808
vn -0.9566379 -0.04955085 0.2870344
vn -0.8669415 -0.4943256 0.06367627
vn -0.6177022 -0.4080439 -0.672268
vn -0.5002198 -0.06918205 -0.8631305
vn -0.341354 0.519636 -0.7832342
vn -0.9300157 0.005750131 -0.3674747
vn -0.7208613 0.4188594 -0.5521919
vn -0.3662546 0.7540678 -0.5451965
vn -0.6470003 0.7488317 -0.1436723
vn -0.05363939 0.9746826 -0.2170637
vn -0.9350081 0.1302364 -0.3298461
vn -0.3327574 0.835692 -0.4369112
vn -0.3226244 0.6004805 -0.7316671
vn -0.3773436 0.5300542 -0.7593777
vn -0.3683151 -0.0255992 -0.9293486
vn -0.6950045 -0.411185 -0.5898269
vn 0.1381032 0.4401126 -0.887259
vn 0.2217737 -0.2210139 -0.9497207
vn -0.3362755 -0.6977237 -0.632535
vn -0.2168299 -0.4596741 -0.8612111
vn 0.2909362 -0.04062797 -0.9558795
vn -0.4715512 0.2369711 -0.8494022
vn -0.7373979 -0.0003296967 -0.6754586
vn -0.3268847 0.7927613 -0.5144667
vn -0.08471775 -0.1461907 -0.9856223
vn 0.2639551 0.5112867 -0.8178715
vn 0.3278462 0.8607096 -0.3894817
vn -0.4970094 -0.5631273 -0.660204
vn 0.4290941 -0.4524601 -0.7817661
vn 0.6782306 0.0932596 -0.7289073
vn 0.9103087 0.02038465 -0.4134278
vn 0.8135138 0.5168373 -0.2665986
vn 0.4062234 0.6882439 -0.6010848
vn 0.02421448 0.6217068 -0.7828757
vn -0.3144417 0.613097 -0.7247334
vn -0.06763306 0.5066949 -0.8594685
vn 0.06547752 0.6991455 -0.7119749
vn 0.5686387 0.6075759 -0.5545283
vn 0.9476914 0.3175798 -0.03200033
vn 0.9364491 0.2743709 0.2185956
vn 0.9198363 0.09525099 0.3805637
vn 0.9261385 0.2439949 0.2876353
vn 0.8963262 0.4109324 0.1665353
vn 0.8406784 0.07312448 0.5365751
vn 0.5145827 0.7975547 -0.3148195
vn 0.04300809 0.6464446 -0.7617478
vn -0.1437194 0.3142122 -0.9384112
vn 0.4062234 0.6882439 -0.6010848
vn 0.6390826 0.760004 -0.1181838
vn 0.5145827 0.7975547 -0.3148195
vn -0.1196633 0.9114628 -0.393594
vn -0.601597 0.5890514 -0.5395365
vn -0.3235354 0.7223324 -0.6111962
vn 0.01982721 0.9991937 0.03491193
vn 0.3364603 0.8560058 0.3924904
vn 0.5430117 0.7422395 -0.392707
vn 0.7997931 0.580062 0.1544641
vn 0.6863267 0.2916501 0.6662551
vn 0.9261385 0.2439949 0.2876353
vn 0.8406784 0.07312448 0.5365751
vn -0.3715782 0.6482611 -0.6645957
vn -0.5854147 0.7990751 -0.1369982
vn -0.5748726 0.6930707 -0.4349421
vn -0.1226729 0.7918079 -0.5983241
vn -0.512199 0.8207904 0.2528941
vn -0.05025728 0.9415324 0.333153
vn -0.385592 0.6526233 0.6522284
vn -0.2936891 0.7738419 0.5611733
vn 0.3765986 0.6656519 0.6442679
vn 0.1745089 0.4038721 0.8980168
vn 0.06796569 0.7819785 0.6195888
vn 0.4330257 0.6474187 0.6271664
vn -0.2372065 0.7134305 -0.6593559
vn -0.3389861 0.4982644 -0.7980107
vn 0.4742576 0.8468897 -0.2405357
vn 0.4742576 0.8468897 -0.2405357
vn -0.07081266 0.9244939 -0.3745619
vn 0.4742576 0.8468897 -0.2405357
vn -0.06420796 0.9016843 -0.4276013
vn 0.4330257 0.6474187 0.6271664
vn -0.867547 -0.2671491 -0.4195158
vn -0.814743 -0.5014252 -0.291147
vn -0.8723702 -0.4880462 0.02794909
vn 0.3765986 0.6656519 0.6442679
vn -0.05025728 0.9415324 0.333153

vt 0.235001 0.1490355
vt 0.2233077 0.1426988
vt 0.2171528 0.1816381
vt 0.193289 0.1618844
vt 0.1762438 0.1875983
vt 0.2439911 0.09723599
vt 0.2010401 0.1195127
vt 0.2185953 0.07313529
vt 0.1651859 0.1457514
vt 0.1446333 0.1543819
vt 0.1493893 0.1152061
vt 0.182615 0.1139232
vt 0.1214608 0.1040525
vt 0.1887616 0.08294312
vt 0.1987249 0.0148673
vt 0.1647509 0.07355388
vt 0.2523763 0.05902028
vt 0.1526978 0.04002948
vt 0.1169168 0.004880121
vt 0.1345344 0.07402577
vt 0.09986473 0.08046851
vt 0.06239271 0.0838813
vt 0.1063355 0.13148
vt 0.13067 0.157912
vt 0.163266 0.1061073
vt 0.1071235 0.1704617
vt 0.1335496 0.1900157
vt 0.1039462 0.2039799
vt 0.1301382 0.2502672
vt 0.07275896 0.1776163
vt 0.1441579 0.2252961
vt 0.2082552 0.2117992
vt 0.09991192 0.2339828
vt 0.05144665 0.2429319
vt 0.03822441 0.2017306
vt 0.09111213 0.2702254
vt 0.03889414 0.2715733
vt 0.01468172 0.2106209
vt 0.007684444 0.3006898
vt 0.04914431 0.2909635
vt 0.06851348 0.3101294
vt 0.06347421 0.3440422
vt 0.09000927 0.3577627
vt 0.04159307 0.3846479
vt 0.07367688 0.3918032
vt 0.1247076 0.4082273
vt 0.009462073 0.3640007
vt 0.02942133 0.4379362
vt 0.0749014 0.4325863
vt 0.08583317 0.4901417
vt 0.121429 0.4504148
vt 0.1504651 0.4162987
vt 0.1322047 0.3474228
vt 0.1078131 0.3251736
vt 0.2019835 0.3096747
vt 0.2158395 0.3470092
vt 0.1054343 0.4258634
vt 0.1637625 0.4464151
vt 0.1096583 0.5040354
vt 0.1478589 0.5133388
vt 0.2449686 0.4332959
vt 0.2229249 0.4221304
vt 0.2497842 0.4641595
vt 0.2375105 0.3889312
vt 0.2116607 0.3697288
vt 0.1501923 0.3668377
vt 0.1504651 0.4162987
vt 0.2553835 0.3803194
vt 0.2375105 0.3889312
vt 0.2398391 0.3156307
vt 0.1945409 0.2794403
vt 0.2165246 0.2723364
vt 0.2820266 0.3084418
vt 0.2986454 0.3296968
vt 0.2669089 0.3629429
vt 0.2854781 0.3699933
vt 0.3288033 0.3712626
vt 0.2934318 0.4089091
vt 0.3237704 0.4037248
vt 0.2095943 0.2418558
vt 0.2493987 0.226407
vt 0.2507089 0.2503763
vt 0.1565951 0.2425632
vt 0.2844224 0.2439104
vt 0.2819074 0.1834623
vt 0.3011224 0.2332393
vt 0.3244488 0.1964467
vt 0.3153067 0.1497081
vt 0.3288442 0.2664242
vt 0.3049942 0.2588976
vt 0.3314869 0.2904936
vt 0.1372812 0.2734591
vt 0.1096552 0.3037374
vt 0.2814378 0.2938614
vt 0.2814378 0.2938614
vt 0.2631963 0.2747383
vt 0.2814378 0.2938614
vt 0.2171528 0.1816381
vt 0.3265786 0.3251297
vt 0.07970545 0.1477654
vt 0.0312884 0.1342718
vt 0.02847565 0.1616286
vt 0.2788636 0.0878833
vt 0.2719212 0.1400693

g Cliff1_(14)_3254_65
usemtl Cliff1_(14)_3254_65
usemap Cliff1_(14)_3254_65
f 1/1/1 3/3/3 2/2/2
f 2/2/2 3/3/3 4/4/4
f 4/4/4 3/3/3 5/5/5
f 1/1/1 2/2/2 6/6/6
f 2/2/2 4/4/4 7/7/7
f 2/2/2 8/8/8 6/6/6
f 2/2/2 7/7/7 8/8/8
f 9/9/9 4/4/4 5/5/5
f 9/9/9 7/7/7 4/4/4
f 9/9/9 5/5/5 10/10/10
f 10/10/10 11/11/11 9/9/9
f 12/12/12 9/9/9 11/11/11
f 12/12/12 7/7/7 9/9/9
f 10/10/10 13/13/13 11/11/11
f 14/14/14 8/8/8 7/7/7
f 7/7/7 12/12/12 14/14/14
f 14/14/14 15/15/15 8/8/8
f 16/16/16 15/15/15 14/14/14
f 16/16/16 11/11/11 13/13/13
f 15/15/15 17/17/17 8/8/8
f 17/17/17 6/6/6 8/8/8
f 18/18/18 15/15/15 16/16/16
f 19/19/19 15/15/15 18/18/18
f 16/16/16 20/20/20 18/18/18
f 16/16/16 13/13/13 20/20/20
f 18/18/18 21/21/21 19/19/19
f 20/20/20 21/21/21 18/18/18
f 20/20/20 13/13/13 21/21/21
f 19/19/19 21/21/21 22/22/22
f 21/21/21 13/13/13 22/22/22
f 22/22/22 13/13/13 23/23/23
f 13/13/13 24/24/24 23/23/23
f 13/13/13 10/10/10 24/24/24
f 12/12/12 25/25/25 14/14/14
f 14/14/14 25/25/25 16/16/16
f 16/16/16 25/25/25 11/11/11
f 12/12/12 11/11/11 25/25/25
f 24/24/24 26/26/26 23/23/23
f 27/27/27 26/26/26 24/24/24
f 26/26/26 27/27/27 28/28/28
f 29/29/29 28/28/28 27/27/27
f 26/26/26 28/28/28 30/30/30
f 31/31/31 29/29/29 27/27/27
f 27/27/27 32/32/32 31/31/31
f 33/33/33 28/28/28 29/29/29
f 30/30/30 28/28/28 33/33/33
f 30/30/30 33/33/33 34/34/34
f 35/35/35 30/30/30 34/34/34
f 29/29/29 36/36/36 33/33/33
f 33/33/33 36/36/36 34/34/34
f 34/34/34 36/36/36 37/37/37
f 34/34/34 37/37/37 38/38/38
f 35/35/35 34/34/34 38/38/38
f 37/37/37 39/39/39 38/38/38
f 40/40/40 39/39/39 37/37/37
f 37/37/37 36/36/36 40/40/40
f 41/41/41 39/39/39 40/40/40
f 40/40/40 36/36/36 41/41/41
f 41/41/41 42/42/42 39/39/39
f 42/42/42 41/41/41 43/43/43
f 42/42/42 43/43/43 44/44/44
f 45/45/45 44/44/44 43/43/43
f 46/46/46 45/45/45 43/43/43
f 47/47/47 42/42/42 44/44/44
f 42/42/42 47/47/47 39/39/39
f 44/44/44 48/48/48 47/47/47
f 48/48/48 44/44/44 49/49/49
f 44/44/44 45/45/45 49/49/49
f 49/49/49 50/50/50 48/48/48
f 49/49/49 51/51/51 50/50/50
f 52/52/52 46/46/46 43/43/43
f 51/51/51 46/46/46 52/52/52
f 52/52/52 43/43/43 53/53/53
f 43/43/43 54/54/54 53/53/53
f 41/41/41 54/54/54 43/43/43
f 54/54/54 55/55/55 53/53/53
f 53/53/53 55/55/55 56/56/56
f 49/49/49 45/45/45 57/57/57
f 49/49/49 57/57/57 51/51/51
f 51/51/51 57/57/57 46/46/46
f 46/46/46 57/57/57 45/45/45
f 58/58/58 51/51/51 52/52/52
f 59/59/59 51/51/51 58/58/58
f 51/51/51 59/59/59 50/50/50
f 60/60/60 59/59/59 58/58/58
f 60/60/60 58/58/58 61/61/61
f 61/61/61 58/58/58 62/62/62
f 60/60/60 61/61/61 63/63/63
f 58/58/58 64/64/64 62/62/62
f 52/52/52 64/64/64 58/58/58
f 65/65/65 64/64/64 52/52/52
f 64/64/64 65/65/65 56/56/56
f 65/65/65 52/52/52 66/66/66
f 56/56/56 65/65/65 66/66/66
f 66/66/66 53/53/53 56/56/56
f 66/66/66 67/67/67 53/53/53
f 68/68/68 64/64/64 56/56/56
f 62/62/62 68/68/68 61/61/61
f 62/62/62 69/69/69 68/68/68
f 56/56/56 55/55/55 70/70/70
f 55/55/55 71/71/71 70/70/70
f 71/71/71 72/72/72 70/70/70
f 73/73/73 70/70/70 72/72/72
f 70/70/70 73/73/73 74/74/74
f 70/70/70 74/74/74 75/75/75
f 76/76/76 75/75/75 74/74/74
f 76/76/76 68/68/68 75/75/75
f 77/77/77 76/76/76 74/74/74
f 77/77/77 78/78/78 76/76/76
f 76/76/76 78/78/78 68/68/68
f 79/79/79 78/78/78 77/77/77
f 72/72/72 71/71/71 80/80/80
f 72/72/72 80/80/80 81/81/81
f 72/72/72 81/81/81 82/82/82
f 32/32/32 81/81/81 80/80/80
f 32/32/32 3/3/3 81/81/81
f 80/80/80 83/83/83 32/32/32
f 84/84/84 82/82/82 81/81/81
f 81/81/81 3/3/3 85/85/85
f 81/81/81 85/85/85 86/86/86
f 84/84/84 81/81/81 86/86/86
f 85/85/85 87/87/87 86/86/86
f 88/88/88 87/87/87 85/85/85
f 87/87/87 89/89/89 86/86/86
f 90/90/90 86/86/86 89/89/89
f 90/90/90 84/84/84 86/86/86
f 91/91/91 90/90/90 89/89/89
f 83/83/83 80/80/80 92/92/92
f 92/92/92 29/29/29 83/83/83
f 92/92/92 36/36/36 29/29/29
f 92/92/92 93/93/93 36/36/36
f 92/92/92 71/71/71 93/93/93
f 71/71/71 55/55/55 93/93/93
f 36/36/36 93/93/93 41/41/41
f 91/91/91 94/94/94 90/90/90
f 80/80/80 71/71/71 92/92/92
f 55/55/55 54/54/54 93/93/93
f 93/93/93 54/54/54 41/41/41
f 73/73/73 94/94/94 91/91/91
f 95/95/95 96/96/96 90/90/90
f 96/96/96 84/84/84 90/90/90
f 96/96/96 82/82/82 84/84/84
f 82/82/82 96/96/96 72/72/72
f 72/72/72 96/96/96 97/97/97
f 73/73/73 72/72/72 97/97/97
f 83/83/83 29/29/29 31/31/31
f 31/31/31 32/32/32 83/83/83
f 32/32/32 5/5/5 98/98/98
f 5/5/5 32/32/32 27/27/27
f 5/5/5 27/27/27 10/10/10
f 10/10/10 27/27/27 24/24/24
f 73/73/73 99/99/99 74/74/74
f 99/99/99 77/77/77 74/74/74
f 100/100/100 101/101/101 22/22/22
f 102/102/102 101/101/101 100/100/100
f 102/102/102 100/100/100 30/30/30
f 30/30/30 35/35/35 102/102/102
f 23/23/23 100/100/100 22/22/22
f 102/102/102 35/35/35 38/38/38
f 23/23/23 26/26/26 100/100/100
f 26/26/26 30/30/30 100/100/100
f 103/103/103 104/104/104 6/6/6
f 17/17/17 103/103/103 6/6/6
f 104/104/104 1/1/1 6/6/6
f 3/3/3 1/1/1 104/104/104
f 56/56/56 75/75/75 68/68/68
f 70/70/70 75/75/75 56/56/56
