#Cliff2_(11)_2672_126.obj

v 0.3185038 0.1754241 4.243473
v 0.8007836 2.16037 5.037521
v 1.777476 1.421592 4.512957
v 2.183336 2.877009 4.801828
v 1.091351 3.259928 4.961162
v -0.2279519 0.6345448 4.357084
v 0.3102765 2.228581 4.332794
v -0.1030579 1.724175 3.101468
v -1.10681 1.226563 3.168414
v -1.389191 -0.7116797 3.580111
v -1.96346 0.7778767 2.127345
v -0.2604159 -0.7651967 4.085444
v 1.039302 -0.7905682 3.347751
v 1.522231 0.4460984 3.597242
v 2.17505 2.548257 4.021615
v -1.089624 1.636324 2.507484
v -1.140567 1.145178 1.552026
v -1.892901 0.3126332 1.487518
v -1.527477 0.5158902 1.369436
v -1.836009 1.235371 0.6191126
v -1.938836 0.7464656 -0.2232555
v -1.983316 0.5352112 1.189771
v -2.35675 -0.5242079 1.165344
v -1.754666 -0.49367 1.443758
v -2.734069 0.4158765 0.3025832
v -1.597204 1.60596 -0.893086
v -1.226153 1.987088 0.3834857
v -0.9415822 2.60573 1.654023
v -0.9358498 1.943019 -1.119252
v -0.270872 2.438865 -0.1147573
v -1.443872 0.6154554 -1.002541
v -2.401901 0.3293625 -0.7909162
v -2.004078 -0.3726523 -1.155579
v -2.662256 -0.4591523 0.2453208
v -0.9650136 -0.3725035 -1.074638
v -0.9309428 1.813536 -1.697355
v -0.4231854 2.688865 -1.845366
v -0.5387122 2.508417 -0.4456884
v 0.2682327 2.835772 -0.7005554
v -0.1032503 2.762938 -1.441072
v 0.410127 4.240122 -1.426259
v 1.105317 4.137695 -2.455028
v 0.5878728 3.723668 -2.761072
v 0.9575305 4.562306 -3.240578
v 0.6798011 3.065001 -4.051004
v 0.5869744 2.396088 -3.791619
v 2.095408 4.508497 -2.418884
v 1.0448 4.806234 -1.679266
v 1.538417 4.826652 -0.9013562
v 2.908323 4.289621 -1.131495
v 2.520099 3.744383 -2.243904
v 0.6088279 4.263607 -0.892328
v -0.2223122 3.739544 -0.1172011
v -0.2739676 3.115727 0.9861624
v 0.2908626 3.450469 1.62526
v -1.033354 2.545053 0.4440765
v 0.6194417 4.338543 1.032837
v 0.5751692 4.864846 -0.5541476
v -0.8008705 2.991227 1.034542
v -0.01710209 3.208036 2.125503
v 0.4637511 2.828976 2.832168
v -0.327074 1.972243 2.630278
v -0.167642 2.539551 2.011743
v -0.6525174 1.545237 2.064789
v 1.005431 3.774007 2.095425
v 1.231712 3.397921 3.754461
v 2.514334 3.60793 3.406789
v 1.999518 3.71713 2.125185
v 1.100374 4.632468 1.798563
v 3.018308 3.463531 1.60145
v 3.043934 3.192896 3.543803
v 2.187729 4.285482 1.573595
v 2.637799 3.42364 1.133818
v 2.056056 3.496036 3.96635
v 1.057128 3.573873 4.379238
v 2.531569 4.12324 0.4258464
v 1.212503 4.75778 1.036854
v 2.183336 2.877009 4.801828
v 2.17505 2.548257 4.021615
v 1.826581 4.750733 0.6431683
v 1.969003 4.726391 -0.5479547
v 2.531569 4.12324 0.4258464
v 0.2806225 -0.1950345 -4.198913
v 0.1143513 0.4680701 -4.424533
v -0.556194 -0.1892273 -4.107285
v 1.086258 1.428694 -4.04779
v 1.85911 0.8379991 -3.756939
v 1.146868 2.399518 -4.322885
v 1.600225 3.709048 -4.341418
v 2.215776 3.767514 -3.832108
v 1.024593 4.197274 -4.019284
v 1.531448 4.733742 -3.433196
v 2.13297 4.22391 -3.759156
v 1.600225 3.709048 -4.341418
v 0.8055707 -0.2451396 -3.607867
v 2.215776 3.767514 -3.832108
v -0.2440474 2.716058 -2.700449
v -0.5060976 0.4791355 -4.111497
v -1.204196 0.4227842 -3.281383
v -0.548485 1.93996 -2.232515
v -0.6228443 -0.2898522 -2.38523
v -0.9420022 0.6570886 -1.945619
v -0.6817486 -0.3607699 -1.558569
v -1.070198 -0.2300899 -3.401093
v -2.004983 -0.5745008 1.767643
v -2.129372 0.01869491 2.15427

vn -0.1049018 -0.1709311 0.9796826
vn -0.4860107 0.2460361 0.8386059
vn 0.3235813 -0.356783 0.8763567
vn 0.5225959 0.1654795 0.8363671
vn -0.2515408 0.8532006 0.4569201
vn -0.6958193 0.4862404 0.5285885
vn -0.7964281 0.6019253 -0.05820781
vn -0.5753628 0.8178528 -0.008622915
vn -0.5810322 0.795715 0.1709954
vn -0.8851278 0.3595582 0.2954097
vn -0.6858027 0.636984 -0.3520313
vn -0.3138491 0.0311505 0.9489617
vn 0.1155958 -0.2005448 0.9728408
vn 0.3705394 -0.4207707 0.8280414
vn 0.7682196 -0.1809156 0.6140913
vn -0.2383612 0.9084362 -0.3434058
vn -0.5700924 0.706046 -0.4201114
vn -0.7324935 0.4963359 -0.4659443
vn -0.5333937 0.8303117 -0.1614733
vn -0.7931094 0.5945596 -0.1321982
vn -0.5510547 0.6492087 -0.5242774
vn -0.3810593 0.9213961 0.07630822
vn -0.8735057 0.4068781 0.2672789
vn -0.9939278 0.07555123 -0.07999744
vn -0.6203821 0.6797268 -0.3912769
vn -0.5171432 0.4250373 -0.7429038
vn -0.5503535 0.7016734 -0.4525103
vn -0.6767772 0.7323331 0.07523933
vn -0.6277312 0.5711942 -0.528858
vn -0.5333366 0.5901623 -0.6060203
vn -0.08110839 0.1947298 -0.9774977
vn -0.4776355 0.2357133 -0.8463472
vn -0.1224555 -0.1473226 -0.9814789
vn -0.9039043 -0.009180684 -0.4276363
vn -0.5491198 -0.1141228 -0.827915
vn -0.7463515 0.2944113 -0.5968931
vn -0.4778147 0.7577359 -0.4444428
vn -0.5222291 0.8485739 -0.08484802
vn -0.5281516 0.7320577 -0.4302875
vn -0.51977 0.7798535 -0.3488092
vn -0.6675594 0.6009367 -0.4395903
vn -0.4042243 0.7947953 -0.4526622
vn -0.6253616 0.5995286 -0.4994881
vn -0.4539278 0.8273921 -0.3307143
vn -0.5364383 0.04509515 -0.8427339
vn -0.2944899 0.1612165 -0.941958
vn 0.5933345 0.7762082 -0.2132016
vn -0.1069315 0.8468448 -0.5209794
vn 0.3383693 0.8744052 -0.347738
vn 0.7635161 0.6351891 -0.1165243
vn 0.9941129 0.09622162 -0.04980886
vn -0.4947731 0.5774592 -0.6494155
vn -0.6919598 0.4459258 -0.5677515
vn -0.3928424 0.8618698 -0.3207106
vn -0.5092331 0.8606278 -0.001209974
vn -0.3479181 0.5768278 -0.7390688
vn -0.5472091 0.8184301 -0.1753118
vn -0.06435755 0.8854889 -0.4601823
vn -0.2670511 0.890164 -0.3691773
vn -0.600255 0.7931588 -0.1029231
vn -0.4593581 0.8862532 -0.05954248
vn -0.6043251 0.7851282 -0.1355166
vn -0.7210988 0.6928014 -0.006536156
vn -0.5365238 0.8231902 -0.1857422
vn -0.300721 0.9403759 0.1589341
vn 0.0007888023 0.944536 -0.3284073
vn 0.3892682 0.9211239 0.001014479
vn 0.4186324 0.8566644 0.3014514
vn -0.2351752 0.9240894 0.30125
vn 0.5706415 0.8096842 -0.1370392
vn 0.5116234 0.6492572 0.5627668
vn 0.6716713 0.622248 0.402076
vn 0.8103825 0.4996132 0.3060501
vn 0.4946253 0.8151574 0.3014372
vn -0.2910512 0.9030104 -0.3160085
vn 0.7215353 0.6088386 0.3297002
vn 0.2156833 0.9753355 0.04691765
vn 0.5225959 0.1654795 0.8363671
vn 0.7682196 -0.1809156 0.6140913
vn 0.5211318 0.8366003 0.1688836
vn 0.5647161 0.8243487 -0.03930721
vn 0.7215353 0.6088386 0.3297002
vn 0.4717095 -0.6309052 -0.615994
vn 0.2061562 -0.2488375 -0.9463506
vn -0.3212114 -0.2270566 -0.9193849
vn 0.1875231 -0.3912208 -0.900989
vn 0.569285 -0.5789849 -0.5836873
vn 0.1086377 -0.3990473 -0.9104719
vn 0.4989272 -0.1653114 -0.8507314
vn 0.9369611 -0.1497609 -0.3157143
vn 0.05672617 0.4147894 -0.9081475
vn 0.3878556 0.7910224 -0.4731296
vn 0.8284632 0.304843 -0.4698079
vn 0.4989272 -0.1653114 -0.8507314
vn 0.5032005 -0.8479431 -0.1666788
vn 0.9369611 -0.1497609 -0.3157143
vn -0.5184001 0.4657218 -0.7171921
vn -0.2888534 0.1497174 -0.9455942
vn -0.8281972 0.2270504 -0.5123841
vn -0.7402381 0.3031896 -0.6001029
vn -0.9613362 0.06305592 -0.2680609
vn -0.7645214 -0.04365671 -0.6431184
vn -0.8364522 -0.2446551 -0.4903992
vn -0.9148523 -0.02851648 -0.4027803
vn -0.8563086 -0.05780042 -0.51322
vn -0.9348922 0.2105692 -0.285722

vt 0.563514 0.4370353
vt 0.4913729 0.4284611
vt 0.50631 0.4669867
vt 0.455099 0.4662204
vt 0.4539496 0.42432
vt 0.55482 0.4130404
vt 0.4986764 0.4020917
vt 0.5227677 0.3619049
vt 0.5605817 0.3599248
vt 0.6181675 0.3908461
vt 0.5905275 0.3260965
vt 0.6011908 0.4294715
vt 0.5937822 0.479526
vt 0.547967 0.4835542
vt 0.4713593 0.4920908
vt 0.5519273 0.3370308
vt 0.5657917 0.3028734
vt 0.6080422 0.3047585
vt 0.59298 0.2983088
vt 0.5782293 0.2648495
vt 0.5997797 0.2380599
vt 0.6061599 0.290988
vt 0.6437802 0.2944586
vt 0.6364357 0.3142862
vt 0.6229221 0.2604502
vt 0.5681996 0.2153903
vt 0.5463704 0.2559934
vt 0.5206133 0.2954709
vt 0.5472003 0.1982936
vt 0.514004 0.2325668
vt 0.5988828 0.2041869
vt 0.6242388 0.2261759
vt 0.6423332 0.2065109
vt 0.6512345 0.2607271
vt 0.6265461 0.1764189
vt 0.547441 0.1758977
vt 0.5123866 0.1705241
vt 0.5196817 0.2183037
vt 0.4939674 0.2114302
vt 0.5030268 0.1853949
vt 0.4512678 0.1915351
vt 0.436504 0.1543397
vt 0.4600292 0.1418456
vt 0.4318691 0.1291515
vt 0.4688298 0.09521689
vt 0.4916534 0.09149683
vt 0.396676 0.1556074
vt 0.4257624 0.1849087
vt 0.4090907 0.2087032
vt 0.3611004 0.1946495
vt 0.3668375 0.1523238
vt 0.4478671 0.209516
vt 0.472869 0.2395783
vt 0.4914574 0.2759236
vt 0.4676695 0.3003866
vt 0.5268677 0.2591811
vt 0.4399524 0.2745963
vt 0.4350582 0.2252956
vt 0.5096397 0.2769018
vt 0.4828096 0.3161134
vt 0.4790362 0.3488176
vt 0.5228779 0.341515
vt 0.5059355 0.3167001
vt 0.5426345 0.3206417
vt 0.4388307 0.3202441
vt 0.443848 0.3814587
vt 0.3970818 0.3781922
vt 0.4017542 0.3301695
vt 0.4231808 0.2961832
vt 0.3601891 0.3300425
vt 0.3774649 0.3889838
vt 0.3935712 0.3021534
vt 0.3612604 0.3112973
vt 0.4151324 0.3954799
vt 0.4482741 0.4028028
vt 0.363818 0.2784508
vt 0.4147986 0.2733878
vt 0.4177167 0.4318797
vt 0.3938182 0.4211596
vt 0.3961318 0.2570343
vt 0.3930777 0.2187223
vt 0.3636209 0.2519777
vt 0.5646453 0.03638101
vt 0.5510647 0.05579016
vt 0.5839719 0.06221525
vt 0.5049101 0.05404858
vt 0.50359 0.02017906
vt 0.4767913 0.068949
vt 0.4364481 0.07894719
vt 0.4213634 0.05941905
vt 0.4328456 0.1027046
vt 0.415085 0.1251566
vt 0.3965261 0.111057
vt 0.40766 0.08476594
vt 0.552045 0.01286364
vt 0.3846542 0.1022755
vt 0.5051818 0.1408484
vt 0.5635433 0.07355136
vt 0.580654 0.1035908
vt 0.5367143 0.1530446
vt 0.6114614 0.1311746
vt 0.5841756 0.157349
vt 0.6225184 0.1575781
vt 0.5993363 0.09168726
vt 0.63542 0.3278949
vt 0.6130335 0.3321355

g Cliff2_(11)_2672_126
usemtl Cliff2_(11)_2672_126
usemap Cliff2_(11)_2672_126
f 1/1/1 3/3/3 2/2/2
f 4/4/4 2/2/2 3/3/3
f 4/4/4 5/5/5 2/2/2
f 2/2/2 6/6/6 1/1/1
f 2/2/2 7/7/7 6/6/6
f 2/2/2 5/5/5 7/7/7
f 6/6/6 7/7/7 8/8/8
f 9/9/9 6/6/6 8/8/8
f 6/6/6 9/9/9 10/10/10
f 11/11/11 10/10/10 9/9/9
f 6/6/6 10/10/10 12/12/12
f 12/12/12 1/1/1 6/6/6
f 1/1/1 12/12/12 13/13/13
f 14/14/14 1/1/1 13/13/13
f 3/3/3 1/1/1 14/14/14
f 15/15/15 4/4/4 3/3/3
f 15/15/15 3/3/3 14/14/14
f 16/16/16 9/9/9 8/8/8
f 9/9/9 16/16/16 11/11/11
f 16/16/16 17/17/17 11/11/11
f 17/17/17 18/18/18 11/11/11
f 18/18/18 17/17/17 19/19/19
f 17/17/17 20/20/20 19/19/19
f 21/21/21 19/19/19 20/20/20
f 19/19/19 21/21/21 22/22/22
f 19/19/19 22/22/22 18/18/18
f 18/18/18 22/22/22 23/23/23
f 24/24/24 18/18/18 23/23/23
f 23/23/23 22/22/22 25/25/25
f 21/21/21 25/25/25 22/22/22
f 20/20/20 26/26/26 21/21/21
f 20/20/20 27/27/27 26/26/26
f 27/27/27 20/20/20 17/17/17
f 28/28/28 27/27/27 17/17/17
f 29/29/29 26/26/26 27/27/27
f 29/29/29 27/27/27 30/30/30
f 26/26/26 31/31/31 21/21/21
f 21/21/21 31/31/31 25/25/25
f 31/31/31 32/32/32 25/25/25
f 32/32/32 31/31/31 33/33/33
f 32/32/32 33/33/33 34/34/34
f 25/25/25 32/32/32 34/34/34
f 34/34/34 23/23/23 25/25/25
f 31/31/31 35/35/35 33/33/33
f 26/26/26 35/35/35 31/31/31
f 26/26/26 29/29/29 35/35/35
f 29/29/29 36/36/36 35/35/35
f 29/29/29 37/37/37 36/36/36
f 37/37/37 29/29/29 38/38/38
f 38/38/38 29/29/29 30/30/30
f 39/39/39 37/37/37 38/38/38
f 39/39/39 38/38/38 30/30/30
f 39/39/39 40/40/40 37/37/37
f 40/40/40 39/39/39 41/41/41
f 41/41/41 42/42/42 40/40/40
f 37/37/37 40/40/40 42/42/42
f 37/37/37 42/42/42 43/43/43
f 44/44/44 43/43/43 42/42/42
f 43/43/43 44/44/44 45/45/45
f 43/43/43 45/45/45 46/46/46
f 44/44/44 42/42/42 47/47/47
f 42/42/42 48/48/48 47/47/47
f 41/41/41 48/48/48 42/42/42
f 47/47/47 48/48/48 49/49/49
f 50/50/50 47/47/47 49/49/49
f 50/50/50 51/51/51 47/47/47
f 52/52/52 41/41/41 39/39/39
f 49/49/49 48/48/48 52/52/52
f 41/41/41 52/52/52 48/48/48
f 53/53/53 52/52/52 39/39/39
f 53/53/53 39/39/39 30/30/30
f 30/30/30 54/54/54 53/53/53
f 55/55/55 53/53/53 54/54/54
f 30/30/30 56/56/56 54/54/54
f 57/57/57 53/53/53 55/55/55
f 58/58/58 53/53/53 57/57/57
f 53/53/53 58/58/58 52/52/52
f 52/52/52 58/58/58 49/49/49
f 54/54/54 56/56/56 59/59/59
f 55/55/55 54/54/54 60/60/60
f 55/55/55 60/60/60 61/61/61
f 60/60/60 62/62/62 61/61/61
f 63/63/63 60/60/60 54/54/54
f 60/60/60 63/63/63 62/62/62
f 63/63/63 64/64/64 62/62/62
f 64/64/64 16/16/16 62/62/62
f 28/28/28 63/63/63 54/54/54
f 64/64/64 63/63/63 28/28/28
f 56/56/56 28/28/28 59/59/59
f 54/54/54 59/59/59 28/28/28
f 61/61/61 65/65/65 55/55/55
f 61/61/61 66/66/66 65/65/65
f 65/65/65 66/66/66 67/67/67
f 68/68/68 65/65/65 67/67/67
f 69/69/69 65/65/65 68/68/68
f 70/70/70 68/68/68 67/67/67
f 71/71/71 70/70/70 67/67/67
f 72/72/72 69/69/69 68/68/68
f 70/70/70 73/73/73 68/68/68
f 72/72/72 68/68/68 73/73/73
f 66/66/66 74/74/74 67/67/67
f 74/74/74 71/71/71 67/67/67
f 66/66/66 75/75/75 74/74/74
f 73/73/73 76/76/76 72/72/72
f 76/76/76 77/77/77 72/72/72
f 77/77/77 69/69/69 72/72/72
f 61/61/61 75/75/75 66/66/66
f 75/75/75 61/61/61 8/8/8
f 69/69/69 55/55/55 65/65/65
f 8/8/8 7/7/7 75/75/75
f 5/5/5 74/74/74 75/75/75
f 5/5/5 75/75/75 7/7/7
f 5/5/5 78/78/78 74/74/74
f 78/78/78 79/79/79 74/74/74
f 79/79/79 71/71/71 74/74/74
f 62/62/62 8/8/8 61/61/61
f 62/62/62 16/16/16 8/8/8
f 57/57/57 77/77/77 58/58/58
f 80/80/80 58/58/58 77/77/77
f 81/81/81 58/58/58 80/80/80
f 82/82/82 81/81/81 80/80/80
f 77/77/77 82/82/82 80/80/80
f 82/82/82 50/50/50 81/81/81
f 49/49/49 58/58/58 81/81/81
f 81/81/81 50/50/50 49/49/49
f 69/69/69 57/57/57 55/55/55
f 69/69/69 77/77/77 57/57/57
f 17/17/17 16/16/16 64/64/64
f 64/64/64 28/28/28 17/17/17
f 28/28/28 56/56/56 27/27/27
f 27/27/27 56/56/56 30/30/30
f 83/83/83 85/85/85 84/84/84
f 86/86/86 83/83/83 84/84/84
f 83/83/83 86/86/86 87/87/87
f 46/46/46 86/86/86 84/84/84
f 45/45/45 86/86/86 46/46/46
f 86/86/86 45/45/45 88/88/88
f 88/88/88 87/87/87 86/86/86
f 89/89/89 87/87/87 88/88/88
f 88/88/88 45/45/45 89/89/89
f 87/87/87 89/89/89 90/90/90
f 91/91/91 89/89/89 45/45/45
f 44/44/44 91/91/91 45/45/45
f 92/92/92 91/91/91 44/44/44
f 91/91/91 92/92/92 93/93/93
f 47/47/47 93/93/93 92/92/92
f 44/44/44 47/47/47 92/92/92
f 94/94/94 91/91/91 93/93/93
f 95/95/95 83/83/83 87/87/87
f 96/96/96 94/94/94 93/93/93
f 51/51/51 93/93/93 47/47/47
f 51/51/51 96/96/96 93/93/93
f 97/97/97 46/46/46 98/98/98
f 99/99/99 97/97/97 98/98/98
f 100/100/100 97/97/97 99/99/99
f 100/100/100 99/99/99 101/101/101
f 102/102/102 100/100/100 101/101/101
f 102/102/102 101/101/101 103/103/103
f 85/85/85 99/99/99 98/98/98
f 101/101/101 99/99/99 104/104/104
f 104/104/104 99/99/99 85/85/85
f 35/35/35 102/102/102 103/103/103
f 97/97/97 43/43/43 46/46/46
f 37/37/37 43/43/43 97/97/97
f 37/37/37 97/97/97 100/100/100
f 36/36/36 37/37/37 100/100/100
f 36/36/36 100/100/100 102/102/102
f 35/35/35 36/36/36 102/102/102
f 85/85/85 98/98/98 84/84/84
f 84/84/84 98/98/98 46/46/46
f 105/105/105 18/18/18 24/24/24
f 106/106/106 18/18/18 105/105/105
f 105/105/105 10/10/10 106/106/106
f 10/10/10 11/11/11 106/106/106
f 11/11/11 18/18/18 106/106/106
