#Cliff2_(17)_3103_131.obj

v 0.4732363 0.4750957 4.205902
v 0.9484947 2.517751 4.842144
v 1.918266 1.759619 4.332565
v 2.307996 3.237763 4.504635
v 1.215908 3.613739 4.679077
v -0.07688711 0.9324173 4.308537
v 0.4308937 2.529114 4.153778
v -0.01879082 1.933894 2.976948
v -1.010104 1.42653 3.116573
v -1.241536 -0.4825564 3.671413
v -1.896645 0.8931994 2.142616
v -0.09391761 -0.4831638 4.135448
v 1.177641 -0.5394828 3.351822
v 1.646895 0.718931 3.496746
v 2.276626 2.855453 3.749828
v -1.02505 1.789548 2.428806
v -1.102611 1.232401 1.512135
v -1.841515 0.3857395 1.53413
v -1.484515 0.5859733 1.388355
v -1.83388 1.246618 0.6026573
v -1.959105 0.6987627 -0.1994362
v -1.947012 0.5856302 1.225452
v -2.301709 -0.478624 1.288464
v -1.690322 -0.4193973 1.540752
v -2.728018 0.3931697 0.3781242
v -1.658419 1.514816 -0.9395447
v -1.247048 1.989558 0.292511
v -0.9266376 2.699439 1.505512
v -1.012216 1.845615 -1.213665
v -0.319406 2.420449 -0.2720451
v -1.491232 0.5216134 -0.9862976
v -2.435326 0.2360073 -0.7187767
v -2.038636 -0.4833724 -1.049229
v -2.64244 -0.4824942 0.3785782
v -0.9974516 -0.4613689 -1.008507
v -1.026504 1.67633 -1.781231
v -0.5406696 2.547067 -2.008629
v -0.6006213 2.462625 -0.5964394
v 0.1901543 2.784021 -0.9040985
v -0.2072886 2.654067 -1.623001
v 0.2792518 4.13654 -1.729771
v 0.9373559 3.973675 -2.775009
v 0.4165003 3.531335 -3.031668
v 0.7526645 4.340261 -3.581686
v 0.4722735 2.786062 -4.275724
v 0.4013986 2.135441 -3.967484
v 1.921178 4.361509 -2.802605
v 0.8936191 4.693525 -2.045408
v 1.415442 4.775705 -1.290314
v 2.785382 4.245426 -1.535408
v 2.365965 3.618141 -2.591846
v 0.4972592 4.200203 -1.206764
v -0.2947054 3.718408 -0.3659782
v -0.2938011 3.172113 0.7789154
v 0.2882635 3.559274 1.371231
v -1.062333 2.553329 0.3070488
v 0.5782721 4.409016 0.7068214
v 0.4652711 4.822909 -0.9097786
v -0.8161755 3.043066 0.8559875
v 0.003636278 3.347442 1.898464
v 0.5173361 3.026006 2.610554
v -0.2647068 2.145061 2.498745
v -0.1388204 2.670395 1.836914
v -0.6031632 1.674727 1.976959
v 1.013843 3.925849 1.790157
v 1.308643 3.669644 3.461235
v 2.573366 3.874966 3.05085
v 2.00922 3.886709 1.785515
v 1.081976 4.76296 1.431412
v 3.012233 3.613238 1.241711
v 3.115189 3.478787 3.195667
v 2.166337 4.41819 1.189243
v 2.615344 3.534982 0.7929153
v 2.138386 3.795119 3.633999
v 1.154293 3.885877 4.078648
v 2.47005 4.181901 0.04302979
v 1.163325 4.836726 0.6591301
v 2.307996 3.237763 4.504635
v 2.276626 2.855453 3.749828
v 1.762324 4.811905 0.2435455
v 1.86066 4.707003 -0.9476624
v 2.47005 4.181901 0.04302979
v 0.1273925 -0.4822011 -4.18317
v -0.05924276 0.1609276 -4.447388
v -0.7053924 -0.4831036 -4.060047
v 0.9083498 1.160488 -4.175392
v 1.702155 0.6035938 -3.874464
v 0.9409409 2.110655 -4.51886
v 1.369329 3.422644 -4.64501
v 2.00227 3.525997 -4.164989
v 0.7972963 3.923045 -4.335388
v 1.315779 4.506826 -3.807587
v 1.913932 3.985014 -4.120531
v 1.369329 3.422644 -4.64501
v 0.6748387 -0.482873 -3.610703
v 2.00227 3.525997 -4.164989
v -0.3940613 2.517515 -2.869806
v -0.6676881 0.1840485 -4.11223
v -1.333209 0.1746756 -3.253975
v -0.6666338 1.771182 -2.338142
v -0.705948 -0.4647402 -2.333864
v -1.025714 0.5053842 -1.948605
v -0.7326872 -0.4789004 -1.502628
v -1.191879 -0.482771 -3.333475
v -1.926874 -0.4814046 1.878826
v -2.047562 0.1352313 2.228149

vn 0.2051165 -0.4173657 0.885287
vn -0.1704282 0.01620617 0.9852368
vn 0.5629183 -0.564326 0.6038702
vn 0.7750083 -0.04636252 0.6302481
vn -0.02914833 0.7041632 0.7094396
vn -0.4514288 0.3246331 0.8311591
vn -0.7275909 0.5850935 0.358158
vn -0.4875772 0.7843564 0.3834756
vn -0.4365144 0.7169273 0.543572
vn -0.7143912 0.2590645 0.6500238
vn -0.7155501 0.6957589 0.06251041
vn 0.01238476 -0.2172222 0.9760436
vn 0.4088987 -0.4410213 0.798938
vn 0.5870827 -0.6131327 0.5285851
vn 0.9104022 -0.3207484 0.26132
vn -0.2711604 0.9624758 -0.01059585
vn -0.6234095 0.7816203 -0.02074396
vn -0.8064036 0.5882639 -0.06048781
vn -0.4964284 0.8361121 0.2333993
vn -0.7488706 0.5969493 0.287827
vn -0.6431177 0.7536046 -0.1359403
vn -0.269409 0.8655541 0.4221786
vn -0.7091362 0.3121704 0.6321989
vn -0.9584888 0.07898133 0.2739728
vn -0.6634358 0.7480693 0.01566235
vn -0.6976531 0.5933377 -0.4015352
vn -0.6155515 0.7859696 -0.05786225
vn -0.562302 0.6787583 0.4723385
vn -0.7225149 0.6782466 -0.1339918
vn -0.6569893 0.7176983 -0.2308118
vn -0.3782679 0.4370952 -0.8160031
vn -0.7072398 0.437372 -0.5554436
vn -0.4429237 0.106876 -0.8901663
vn -0.9917927 0.08732054 -0.09339318
vn -0.7936562 0.0934555 -0.6011453
vn -0.8761324 0.4263753 -0.2249357
vn -0.5404963 0.839156 -0.0606699
vn -0.4598533 0.8343265 0.3040299
vn -0.5852607 0.8099791 -0.03746635
vn -0.5476431 0.835459 0.04577486
vn -0.7291667 0.6835794 -0.03217364
vn -0.4710595 0.8781554 -0.08334332
vn -0.7087796 0.6981568 -0.1010376
vn -0.4762774 0.8777432 0.05221809
vn -0.7751384 0.2513343 -0.5796478
vn -0.5705629 0.392494 -0.721392
vn 0.5463933 0.8134979 -0.1991875
vn -0.2088342 0.9502839 -0.2309738
vn 0.2693199 0.9391094 -0.2134012
vn 0.7281795 0.6549403 -0.2020097
vn 0.9289833 0.1202654 -0.3500374
vn -0.6355085 0.7170831 -0.286218
vn -0.8046056 0.5661714 -0.1790523
vn -0.4129429 0.9094028 0.04964471
vn -0.4197278 0.8247726 0.3789177
vn -0.5259003 0.7415508 -0.4165709
vn -0.5147805 0.8279655 0.2224278
vn -0.1462752 0.9727072 -0.1801235
vn -0.307858 0.9509872 -0.02910131
vn -0.5432719 0.7842458 0.29969
vn -0.3896655 0.8651927 0.3155983
vn -0.5582076 0.7847615 0.2693576
vn -0.6333464 0.6608178 0.4027308
vn -0.5077245 0.8353909 0.2105659
vn -0.1655615 0.863937 0.4756071
vn -0.0380457 0.9970254 -0.06702931
vn 0.4332759 0.8957987 0.09907954
vn 0.5533956 0.757066 0.3472814
vn -0.05891445 0.8127458 0.579632
vn 0.551948 0.8260422 -0.1140516
vn 0.7107585 0.4910942 0.5036355
vn 0.8080061 0.508429 0.2977015
vn 0.8991865 0.4164773 0.1342021
vn 0.6221562 0.7180577 0.3119533
vn -0.3124288 0.9494535 0.03043622
vn 0.8307455 0.5147095 0.2119813
vn 0.2881301 0.9339238 0.2115825
vn 0.7750083 -0.04636252 0.6302481
vn 0.9104022 -0.3207484 0.26132
vn 0.6059042 0.7730799 0.1876903
vn 0.578952 0.8151301 -0.01942913
vn 0.8307455 0.5147095 0.2119813
vn 0.2014044 -0.4453819 -0.872394
vn -0.1286748 0.004561735 -0.9916763
vn -0.6161326 0.01101775 -0.7875654
vn -0.1417507 -0.1449443 -0.9792333
vn 0.3076193 -0.4020344 -0.8624029
vn -0.219819 -0.1512356 -0.9637465
vn 0.1844498 0.06511406 -0.9806827
vn 0.7716888 -0.05031981 -0.6340066
vn -0.2101297 0.6340809 -0.7441686
vn 0.2696059 0.8913087 -0.3645291
vn 0.6519031 0.4269424 -0.6266918
vn 0.1844498 0.06511406 -0.9806827
vn 0.3607351 -0.7696524 -0.5267878
vn 0.7716888 -0.05031981 -0.6340066
vn -0.6876423 0.6260685 -0.367677
vn -0.5672358 0.3823912 -0.7293974
vn -0.9308875 0.3384501 -0.1374771
vn -0.8707742 0.4357709 -0.227719
vn -0.9893349 0.1154868 0.08876459
vn -0.932269 0.1111522 -0.3442671
vn -0.9651582 -0.1232533 -0.2308212
vn -0.9954769 0.06211208 -0.07188714
vn -0.9779646 0.0629116 -0.1990662
vn -0.9595793 0.2629797 0.1002458

vt 0.563514 0.4370353
vt 0.4913729 0.4284611
vt 0.50631 0.4669867
vt 0.455099 0.4662204
vt 0.4539496 0.42432
vt 0.55482 0.4130404
vt 0.4986764 0.4020917
vt 0.5227677 0.3619049
vt 0.5605817 0.3599248
vt 0.6181675 0.3908461
vt 0.5905275 0.3260965
vt 0.6011908 0.4294715
vt 0.5937822 0.479526
vt 0.547967 0.4835542
vt 0.4713593 0.4920908
vt 0.5519273 0.3370308
vt 0.5657917 0.3028734
vt 0.6080422 0.3047585
vt 0.59298 0.2983088
vt 0.5782293 0.2648495
vt 0.5997797 0.2380599
vt 0.6061599 0.290988
vt 0.6437802 0.2944586
vt 0.6364357 0.3142862
vt 0.6229221 0.2604502
vt 0.5681996 0.2153903
vt 0.5463704 0.2559934
vt 0.5206133 0.2954709
vt 0.5472003 0.1982936
vt 0.514004 0.2325668
vt 0.5988828 0.2041869
vt 0.6242388 0.2261759
vt 0.6423332 0.2065109
vt 0.6512345 0.2607271
vt 0.6265461 0.1764189
vt 0.547441 0.1758977
vt 0.5123866 0.1705241
vt 0.5196817 0.2183037
vt 0.4939674 0.2114302
vt 0.5030268 0.1853949
vt 0.4512678 0.1915351
vt 0.436504 0.1543397
vt 0.4600292 0.1418456
vt 0.4318691 0.1291515
vt 0.4688298 0.09521689
vt 0.4916534 0.09149683
vt 0.396676 0.1556074
vt 0.4257624 0.1849087
vt 0.4090907 0.2087032
vt 0.3611004 0.1946495
vt 0.3668375 0.1523238
vt 0.4478671 0.209516
vt 0.472869 0.2395783
vt 0.4914574 0.2759236
vt 0.4676695 0.3003866
vt 0.5268677 0.2591811
vt 0.4399524 0.2745963
vt 0.4350582 0.2252956
vt 0.5096397 0.2769018
vt 0.4828096 0.3161134
vt 0.4790362 0.3488176
vt 0.5228779 0.341515
vt 0.5059355 0.3167001
vt 0.5426345 0.3206417
vt 0.4388307 0.3202441
vt 0.443848 0.3814587
vt 0.3970818 0.3781922
vt 0.4017542 0.3301695
vt 0.4231808 0.2961832
vt 0.3601891 0.3300425
vt 0.3774649 0.3889838
vt 0.3935712 0.3021534
vt 0.3612604 0.3112973
vt 0.4151324 0.3954799
vt 0.4482741 0.4028028
vt 0.363818 0.2784508
vt 0.4147986 0.2733878
vt 0.4177167 0.4318797
vt 0.3938182 0.4211596
vt 0.3961318 0.2570343
vt 0.3930777 0.2187223
vt 0.3636209 0.2519777
vt 0.5646453 0.03638101
vt 0.5510647 0.05579016
vt 0.5839719 0.06221525
vt 0.5049101 0.05404858
vt 0.50359 0.02017906
vt 0.4767913 0.068949
vt 0.4364481 0.07894719
vt 0.4213634 0.05941905
vt 0.4328456 0.1027046
vt 0.415085 0.1251566
vt 0.3965261 0.111057
vt 0.40766 0.08476594
vt 0.552045 0.01286364
vt 0.3846542 0.1022755
vt 0.5051818 0.1408484
vt 0.5635433 0.07355136
vt 0.580654 0.1035908
vt 0.5367143 0.1530446
vt 0.6114614 0.1311746
vt 0.5841756 0.157349
vt 0.6225184 0.1575781
vt 0.5993363 0.09168726
vt 0.63542 0.3278949
vt 0.6130335 0.3321355

g Cliff2_(17)_3103_131
usemtl Cliff2_(17)_3103_131
usemap Cliff2_(17)_3103_131
f 1/1/1 3/3/3 2/2/2
f 4/4/4 2/2/2 3/3/3
f 4/4/4 5/5/5 2/2/2
f 2/2/2 6/6/6 1/1/1
f 2/2/2 7/7/7 6/6/6
f 2/2/2 5/5/5 7/7/7
f 6/6/6 7/7/7 8/8/8
f 9/9/9 6/6/6 8/8/8
f 6/6/6 9/9/9 10/10/10
f 11/11/11 10/10/10 9/9/9
f 6/6/6 10/10/10 12/12/12
f 12/12/12 1/1/1 6/6/6
f 1/1/1 12/12/12 13/13/13
f 14/14/14 1/1/1 13/13/13
f 3/3/3 1/1/1 14/14/14
f 15/15/15 4/4/4 3/3/3
f 15/15/15 3/3/3 14/14/14
f 16/16/16 9/9/9 8/8/8
f 9/9/9 16/16/16 11/11/11
f 16/16/16 17/17/17 11/11/11
f 17/17/17 18/18/18 11/11/11
f 18/18/18 17/17/17 19/19/19
f 17/17/17 20/20/20 19/19/19
f 21/21/21 19/19/19 20/20/20
f 19/19/19 21/21/21 22/22/22
f 19/19/19 22/22/22 18/18/18
f 18/18/18 22/22/22 23/23/23
f 24/24/24 18/18/18 23/23/23
f 23/23/23 22/22/22 25/25/25
f 21/21/21 25/25/25 22/22/22
f 20/20/20 26/26/26 21/21/21
f 20/20/20 27/27/27 26/26/26
f 27/27/27 20/20/20 17/17/17
f 28/28/28 27/27/27 17/17/17
f 29/29/29 26/26/26 27/27/27
f 29/29/29 27/27/27 30/30/30
f 26/26/26 31/31/31 21/21/21
f 21/21/21 31/31/31 25/25/25
f 31/31/31 32/32/32 25/25/25
f 32/32/32 31/31/31 33/33/33
f 32/32/32 33/33/33 34/34/34
f 25/25/25 32/32/32 34/34/34
f 34/34/34 23/23/23 25/25/25
f 31/31/31 35/35/35 33/33/33
f 26/26/26 35/35/35 31/31/31
f 26/26/26 29/29/29 35/35/35
f 29/29/29 36/36/36 35/35/35
f 29/29/29 37/37/37 36/36/36
f 37/37/37 29/29/29 38/38/38
f 38/38/38 29/29/29 30/30/30
f 39/39/39 37/37/37 38/38/38
f 39/39/39 38/38/38 30/30/30
f 39/39/39 40/40/40 37/37/37
f 40/40/40 39/39/39 41/41/41
f 41/41/41 42/42/42 40/40/40
f 37/37/37 40/40/40 42/42/42
f 37/37/37 42/42/42 43/43/43
f 44/44/44 43/43/43 42/42/42
f 43/43/43 44/44/44 45/45/45
f 43/43/43 45/45/45 46/46/46
f 44/44/44 42/42/42 47/47/47
f 42/42/42 48/48/48 47/47/47
f 41/41/41 48/48/48 42/42/42
f 47/47/47 48/48/48 49/49/49
f 50/50/50 47/47/47 49/49/49
f 50/50/50 51/51/51 47/47/47
f 52/52/52 41/41/41 39/39/39
f 49/49/49 48/48/48 52/52/52
f 41/41/41 52/52/52 48/48/48
f 53/53/53 52/52/52 39/39/39
f 53/53/53 39/39/39 30/30/30
f 30/30/30 54/54/54 53/53/53
f 55/55/55 53/53/53 54/54/54
f 30/30/30 56/56/56 54/54/54
f 57/57/57 53/53/53 55/55/55
f 58/58/58 53/53/53 57/57/57
f 53/53/53 58/58/58 52/52/52
f 52/52/52 58/58/58 49/49/49
f 54/54/54 56/56/56 59/59/59
f 55/55/55 54/54/54 60/60/60
f 55/55/55 60/60/60 61/61/61
f 60/60/60 62/62/62 61/61/61
f 63/63/63 60/60/60 54/54/54
f 60/60/60 63/63/63 62/62/62
f 63/63/63 64/64/64 62/62/62
f 64/64/64 16/16/16 62/62/62
f 28/28/28 63/63/63 54/54/54
f 64/64/64 63/63/63 28/28/28
f 56/56/56 28/28/28 59/59/59
f 54/54/54 59/59/59 28/28/28
f 61/61/61 65/65/65 55/55/55
f 61/61/61 66/66/66 65/65/65
f 65/65/65 66/66/66 67/67/67
f 68/68/68 65/65/65 67/67/67
f 69/69/69 65/65/65 68/68/68
f 70/70/70 68/68/68 67/67/67
f 71/71/71 70/70/70 67/67/67
f 72/72/72 69/69/69 68/68/68
f 70/70/70 73/73/73 68/68/68
f 72/72/72 68/68/68 73/73/73
f 66/66/66 74/74/74 67/67/67
f 74/74/74 71/71/71 67/67/67
f 66/66/66 75/75/75 74/74/74
f 73/73/73 76/76/76 72/72/72
f 76/76/76 77/77/77 72/72/72
f 77/77/77 69/69/69 72/72/72
f 61/61/61 75/75/75 66/66/66
f 75/75/75 61/61/61 8/8/8
f 69/69/69 55/55/55 65/65/65
f 8/8/8 7/7/7 75/75/75
f 5/5/5 74/74/74 75/75/75
f 5/5/5 75/75/75 7/7/7
f 5/5/5 78/78/78 74/74/74
f 78/78/78 79/79/79 74/74/74
f 79/79/79 71/71/71 74/74/74
f 62/62/62 8/8/8 61/61/61
f 62/62/62 16/16/16 8/8/8
f 57/57/57 77/77/77 58/58/58
f 80/80/80 58/58/58 77/77/77
f 81/81/81 58/58/58 80/80/80
f 82/82/82 81/81/81 80/80/80
f 77/77/77 82/82/82 80/80/80
f 82/82/82 50/50/50 81/81/81
f 49/49/49 58/58/58 81/81/81
f 81/81/81 50/50/50 49/49/49
f 69/69/69 57/57/57 55/55/55
f 69/69/69 77/77/77 57/57/57
f 17/17/17 16/16/16 64/64/64
f 64/64/64 28/28/28 17/17/17
f 28/28/28 56/56/56 27/27/27
f 27/27/27 56/56/56 30/30/30
f 83/83/83 85/85/85 84/84/84
f 86/86/86 83/83/83 84/84/84
f 83/83/83 86/86/86 87/87/87
f 46/46/46 86/86/86 84/84/84
f 45/45/45 86/86/86 46/46/46
f 86/86/86 45/45/45 88/88/88
f 88/88/88 87/87/87 86/86/86
f 89/89/89 87/87/87 88/88/88
f 88/88/88 45/45/45 89/89/89
f 87/87/87 89/89/89 90/90/90
f 91/91/91 89/89/89 45/45/45
f 44/44/44 91/91/91 45/45/45
f 92/92/92 91/91/91 44/44/44
f 91/91/91 92/92/92 93/93/93
f 47/47/47 93/93/93 92/92/92
f 44/44/44 47/47/47 92/92/92
f 94/94/94 91/91/91 93/93/93
f 95/95/95 83/83/83 87/87/87
f 96/96/96 94/94/94 93/93/93
f 51/51/51 93/93/93 47/47/47
f 51/51/51 96/96/96 93/93/93
f 97/97/97 46/46/46 98/98/98
f 99/99/99 97/97/97 98/98/98
f 100/100/100 97/97/97 99/99/99
f 100/100/100 99/99/99 101/101/101
f 102/102/102 100/100/100 101/101/101
f 102/102/102 101/101/101 103/103/103
f 85/85/85 99/99/99 98/98/98
f 101/101/101 99/99/99 104/104/104
f 104/104/104 99/99/99 85/85/85
f 35/35/35 102/102/102 103/103/103
f 97/97/97 43/43/43 46/46/46
f 37/37/37 43/43/43 97/97/97
f 37/37/37 97/97/97 100/100/100
f 36/36/36 37/37/37 100/100/100
f 36/36/36 100/100/100 102/102/102
f 35/35/35 36/36/36 102/102/102
f 85/85/85 98/98/98 84/84/84
f 84/84/84 98/98/98 46/46/46
f 105/105/105 18/18/18 24/24/24
f 106/106/106 18/18/18 105/105/105
f 105/105/105 10/10/10 106/106/106
f 10/10/10 11/11/11 106/106/106
f 11/11/11 18/18/18 106/106/106
