#Farm_fence3_2549_204.obj

v -1.290584 -0.3579712 -0.06899702
v -1.290584 1.472993 -0.06899702
v -1.234916 1.472993 0.1168051
v -1.234916 -0.3579712 0.1168051
v -1.041008 1.472993 0.1212791
v -1.041008 -0.3579712 0.1212791
v -0.9768335 1.472993 -0.06176027
v -0.9768335 -0.3579712 -0.06176027
v -1.131081 1.472993 -0.1793546
v -1.131081 -0.3579712 -0.1793546
v -1.290584 1.472993 -0.06899702
v -1.290584 -0.3579712 -0.06899702
v -1.290584 1.472993 -0.06899702
v -1.131081 1.472993 -0.1793546
v -0.9768335 1.472993 -0.06176027
v -1.234916 1.472993 0.1168051
v -1.041008 1.472993 0.1212791
v -1.500858 1.151193 0.2190871
v -1.500858 1.33925 0.2190871
v 1.480114 1.311537 0.2190873
v 1.480114 1.150899 0.2190873
v -1.500858 1.33925 0.2190871
v -1.500856 1.33925 0.1212439
v 1.480116 1.311537 0.1212441
v 1.480114 1.311537 0.2190873
v -1.500856 1.33925 0.1212439
v -1.500856 1.151193 0.1212439
v 1.480116 1.150899 0.1212441
v 1.480116 1.311537 0.1212441
v -1.500856 1.151193 0.1212439
v -1.500858 1.151193 0.2190871
v 1.480114 1.150899 0.2190873
v 1.480116 1.150899 0.1212441
v 1.480114 1.150899 0.2190873
v 1.480114 1.311537 0.2190873
v 1.480116 1.311537 0.1212441
v 1.480116 1.150899 0.1212441
v -1.500856 1.151193 0.1212439
v -1.500856 1.33925 0.1212439
v -1.500858 1.33925 0.2190871
v -1.500858 1.151193 0.2190871
v -1.476098 0.7826775 -0.1823471
v -1.46935 1.090114 -0.1802911
v -0.03360635 1.057129 0.04036265
v -0.04035407 0.7496928 0.03830231
v 1.471792 0.7149069 0.2775705
v 1.47854 1.022343 0.2796266
v -1.46935 1.090114 -0.1802911
v -1.458856 1.090535 -0.2775669
v -0.02311235 1.05755 -0.05691314
v -0.03360635 1.057129 0.04036265
v 1.47854 1.022343 0.2796266
v 1.489034 1.022764 0.1823508
v -1.458856 1.090535 -0.2775669
v -1.465604 0.7830986 -0.2796229
v -0.02985831 0.750114 -0.05897273
v -0.02311235 1.05755 -0.05691314
v 1.482286 0.715328 0.1802948
v 1.489034 1.022764 0.1823508
v -1.465604 0.7830986 -0.2796229
v -1.476098 0.7826775 -0.1823471
v -0.04035407 0.7496928 0.03830231
v -0.02985831 0.750114 -0.05897273
v 1.482286 0.715328 0.1802948
v 1.471792 0.7149069 0.2775705
v 1.471792 0.7149069 0.2775705
v 1.47854 1.022343 0.2796266
v 1.489034 1.022764 0.1823508
v 1.482286 0.715328 0.1802948
v -1.465604 0.7830986 -0.2796229
v -1.458856 1.090535 -0.2775669
v -1.46935 1.090114 -0.1802911
v -1.476098 0.7826775 -0.1823471
v 1.163138 -0.3579712 -0.05616737
v 1.206136 1.472993 -0.06605872
v 1.048733 1.472993 -0.1793966
v 1.048867 -0.3579712 -0.1384477
v 0.892302 1.472993 -0.06472344
v 0.9353009 -0.3579712 -0.05519592
v 0.9530264 1.472993 0.1194863
v 0.9793814 -0.3579712 0.07853874
v 1.146983 1.472993 0.1186624
v 1.120193 -0.3579712 0.07793979
v 1.206136 1.472993 -0.06605872
v 1.163138 -0.3579712 -0.05616737
v 0.892302 1.472993 -0.06472344
v 1.048733 1.472993 -0.1793966
v 1.206136 1.472993 -0.06605872
v 1.146983 1.472993 0.1186624
v 0.9530264 1.472993 0.1194863
v -1.477721 0.2577065 0.2190863
v -1.490051 0.5649766 0.2190875
v 1.488519 0.6845052 0.2190861
v 1.500851 0.3772351 0.2190857
v -1.490051 0.5649766 0.2190875
v -1.490049 0.5649766 0.1212443
v 1.488521 0.6845052 0.1212429
v 1.488519 0.6845052 0.2190861
v -1.490049 0.5649766 0.1212443
v -1.477721 0.2577065 0.1212467
v 1.500851 0.3772351 0.121246
v 1.488521 0.6845052 0.1212429
v -1.477721 0.2577065 0.1212467
v -1.477721 0.2577065 0.2190863
v 1.500851 0.3772351 0.2190857
v 1.500851 0.3772351 0.121246
v 1.500851 0.3772351 0.2190857
v 1.488519 0.6845052 0.2190861
v 1.488521 0.6845052 0.1212429
v 1.500851 0.3772351 0.121246
v -1.477721 0.2577065 0.1212467
v -1.490049 0.5649766 0.1212443
v -1.490051 0.5649766 0.2190875
v -1.477721 0.2577065 0.2190863

vn -0.998008 0 0.06308687
vn -0.998008 0 0.06308687
vn -0.2484036 0 0.9686567
vn -0.2484036 0 0.9686567
vn 0.8444867 0 0.5355766
vn 0.8444867 0 0.5355766
vn 0.7703246 0 -0.637652
vn 0.7703246 0 -0.637652
vn -0.368399 0 -0.9296678
vn -0.368399 0 -0.9296678
vn -0.998008 0 0.06308687
vn -0.998008 0 0.06308687
vn 0 1 0
vn 0 1 0
vn 0 1 0
vn 0 1 0
vn 0 1 0
vn 0.3897377 0 0.9209259
vn 0.3897377 0 0.9209259
vn 0.3897377 0 0.9209259
vn 0.3897377 0 0.9209259
vn 0.00856131 0.9999568 -0.003623164
vn 0.00856131 0.9999568 -0.003623164
vn 0.00856131 0.9999568 -0.003623164
vn 0.00856131 0.9999568 -0.003623164
vn -0.3897377 0 -0.9209259
vn -0.3897377 0 -0.9209259
vn -0.3897377 0 -0.9209259
vn -0.3897377 0 -0.9209259
vn -9.070713E-05 -1 3.838744E-05
vn -9.070713E-05 -1 3.838744E-05
vn -9.070713E-05 -1 3.838744E-05
vn -9.070713E-05 -1 3.838744E-05
vn 0.9209259 0 -0.3897377
vn 0.9209259 0 -0.3897377
vn 0.9209259 0 -0.3897377
vn 0.9209259 0 -0.3897377
vn -0.9209259 0 0.3897377
vn -0.9209259 0 0.3897377
vn -0.9209259 0 0.3897377
vn -0.9209259 0 0.3897377
vn 0.2452515 -0.00328385 0.9694539
vn 0.2452515 -0.003283849 0.9694539
vn 0.2430448 -0.003232375 0.9700097
vn 0.2430448 -0.003232375 0.9700097
vn 0.2409499 -0.00318352 0.9705324
vn 0.2409499 -0.00318352 0.9705324
vn 0.02281313 0.9997369 -0.002386027
vn 0.02281313 0.9997369 -0.002386028
vn 0.02281331 0.9997369 -0.002385593
vn 0.02281332 0.9997369 -0.002385565
vn 0.0228135 0.9997369 -0.002385155
vn 0.0228135 0.9997369 -0.002385155
vn -0.2452515 0.00328405 -0.9694539
vn -0.2452515 0.00328405 -0.9694539
vn -0.2430448 0.003232394 -0.9700097
vn -0.2430448 0.003232395 -0.9700097
vn -0.2409499 0.003183367 -0.9705324
vn -0.2409499 0.003183367 -0.9705324
vn -0.02281355 -0.9997369 0.002384619
vn -0.02281355 -0.9997369 0.002384619
vn -0.02281346 -0.9997369 0.00238487
vn -0.02281347 -0.9997369 0.002384856
vn -0.02281338 -0.9997369 0.002385095
vn -0.02281338 -0.9997369 0.002385096
vn 0.957145 -0.02253319 -0.2887314
vn 0.957145 -0.02253319 -0.2887314
vn 0.957145 -0.0225332 -0.2887314
vn 0.957145 -0.02253319 -0.2887314
vn -0.957145 0.02252964 0.2887313
vn -0.957145 0.02252964 0.2887313
vn -0.957145 0.02252963 0.2887313
vn -0.957145 0.02252964 0.2887313
vn 0.7518641 -0.02398511 -0.6588817
vn 0.7529576 -0.02398879 -0.6576316
vn -0.3935449 -0.02235922 -0.9190335
vn -0.3935605 -0.02235922 -0.9190268
vn -0.9955516 -0.02394618 0.0911231
vn -0.9957008 -0.02394253 0.08947948
vn -0.2212685 -0.0265525 0.9748514
vn -0.2222794 -0.02655107 0.9746214
vn 0.858234 -0.0265786 0.51257
vn 0.8587511 -0.02657724 0.5117031
vn 0.7529576 -0.02398879 -0.6576316
vn 0.7518641 -0.02398511 -0.6588817
vn 0 1 0
vn 0 1 0
vn 0 1 0
vn 0 1 0
vn 0 1 0
vn 0.3897377 0 0.9209259
vn 0.3897377 0 0.9209259
vn 0.3897377 0 0.9209259
vn 0.3897377 0 0.9209259
vn -0.03692659 0.9991958 0.0156274
vn -0.03692659 0.9991958 0.0156274
vn -0.03692659 0.9991958 0.0156274
vn -0.03692659 0.9991958 0.0156274
vn -0.3897377 0 -0.9209259
vn -0.3897377 0 -0.9209259
vn -0.3897377 0 -0.9209259
vn -0.3897377 0 -0.9209259
vn 0.03692658 -0.9991958 -0.0156274
vn 0.03692658 -0.9991958 -0.0156274
vn 0.03692658 -0.9991958 -0.0156274
vn 0.03692658 -0.9991958 -0.0156274
vn 0.9201853 0.04009787 -0.3894242
vn 0.9201853 0.04009787 -0.3894242
vn 0.9201853 0.04009787 -0.3894242
vn 0.9201853 0.04009787 -0.3894242
vn -0.9201853 -0.04009788 0.3894242
vn -0.9201853 -0.04009788 0.3894242
vn -0.9201853 -0.04009788 0.3894242
vn -0.9201853 -0.04009788 0.3894242

vt 0.5688477 0.2441406
vt 0.5688477 0.3115234
vt 0.5771484 0.3115234
vt 0.5771484 0.2441406
vt 0.5854492 0.3115234
vt 0.5854492 0.2441406
vt 0.59375 0.3115234
vt 0.59375 0.2441406
vt 0.6020508 0.3115234
vt 0.6020508 0.2441406
vt 0.6103516 0.3115234
vt 0.6103516 0.2441406
vt 0.6069336 0.2373047
vt 0.612793 0.2293701
vt 0.6069336 0.2213135
vt 0.5976563 0.2342529
vt 0.5976563 0.2243652
vt 0.5395508 0.3078613
vt 0.5449219 0.3078613
vt 0.5449219 0.2236328
vt 0.5395508 0.2236328
vt 0.5449219 0.3078613
vt 0.5488281 0.3078613
vt 0.5488281 0.2236328
vt 0.5449219 0.2236328
vt 0.5395508 0.3078613
vt 0.5449219 0.3078613
vt 0.5449219 0.2236328
vt 0.5395508 0.2236328
vt 0.515625 0.3078613
vt 0.5209961 0.3078613
vt 0.5209961 0.2236328
vt 0.515625 0.2236328
vt 0.5395508 0.2236328
vt 0.5449219 0.2236328
vt 0.5449219 0.2194824
vt 0.5395508 0.2194824
vt 0.5395508 0.3115234
vt 0.5449219 0.3115234
vt 0.5449219 0.3078613
vt 0.5395508 0.3078613
vt 0.5209961 0.3078613
vt 0.53125 0.3078613
vt 0.53125 0.2668457
vt 0.5209961 0.2668457
vt 0.5209961 0.2236328
vt 0.53125 0.2236328
vt 0.53125 0.3078613
vt 0.5351563 0.3078613
vt 0.5351563 0.2668457
vt 0.53125 0.2668457
vt 0.53125 0.2236328
vt 0.5351563 0.2236328
vt 0.5209961 0.3078613
vt 0.53125 0.3078613
vt 0.53125 0.2668457
vt 0.5209961 0.2668457
vt 0.53125 0.2236328
vt 0.5209961 0.2236328
vt 0.515625 0.3078613
vt 0.5209961 0.3078613
vt 0.5209961 0.2668457
vt 0.515625 0.2668457
vt 0.515625 0.2236328
vt 0.5209961 0.2236328
vt 0.5209961 0.2236328
vt 0.53125 0.2236328
vt 0.53125 0.2194824
vt 0.5209961 0.2194824
vt 0.5209961 0.3115234
vt 0.53125 0.3115234
vt 0.53125 0.3078613
vt 0.5209961 0.3078613
vt 0.5688477 0.2441406
vt 0.5688477 0.3115234
vt 0.5771484 0.3115234
vt 0.5771484 0.2441406
vt 0.5854492 0.3115234
vt 0.5854492 0.2441406
vt 0.59375 0.3115234
vt 0.59375 0.2441406
vt 0.6020508 0.3115234
vt 0.6020508 0.2441406
vt 0.6103516 0.3115234
vt 0.6103516 0.2441406
vt 0.5976563 0.2243652
vt 0.5976563 0.2342529
vt 0.6069336 0.2373047
vt 0.612793 0.2293701
vt 0.6069336 0.2213135
vt 0.534668 0.3078613
vt 0.5449219 0.3078613
vt 0.5449219 0.2236328
vt 0.534668 0.2236328
vt 0.5449219 0.3078613
vt 0.5488281 0.3078613
vt 0.5488281 0.2236328
vt 0.5449219 0.2236328
vt 0.534668 0.3078613
vt 0.5449219 0.3078613
vt 0.5449219 0.2236328
vt 0.534668 0.2236328
vt 0.515625 0.3078613
vt 0.5209961 0.3078613
vt 0.5209961 0.2236328
vt 0.515625 0.2236328
vt 0.534668 0.2236328
vt 0.5449219 0.2236328
vt 0.5449219 0.2194824
vt 0.534668 0.2194824
vt 0.534668 0.3115234
vt 0.5449219 0.3115234
vt 0.5449219 0.3078613
vt 0.534668 0.3078613

g Farm_fence3_2549_204
usemtl Farm_fence3_2549_204
usemap Farm_fence3_2549_204
f 1/1/1 3/3/3 2/2/2
f 1/1/1 4/4/4 3/3/3
f 4/4/4 5/5/5 3/3/3
f 4/4/4 6/6/6 5/5/5
f 6/6/6 7/7/7 5/5/5
f 6/6/6 8/8/8 7/7/7
f 8/8/8 9/9/9 7/7/7
f 8/8/8 10/10/10 9/9/9
f 10/10/10 11/11/11 9/9/9
f 10/10/10 12/12/12 11/11/11
f 13/13/13 15/15/15 14/14/14
f 15/15/15 13/13/13 16/16/16
f 15/15/15 16/16/16 17/17/17
f 18/18/18 20/20/20 19/19/19
f 18/18/18 21/21/21 20/20/20
f 22/22/22 24/24/24 23/23/23
f 22/22/22 25/25/25 24/24/24
f 26/26/26 28/28/28 27/27/27
f 26/26/26 29/29/29 28/28/28
f 30/30/30 32/32/32 31/31/31
f 30/30/30 33/33/33 32/32/32
f 34/34/34 36/36/36 35/35/35
f 34/34/34 37/37/37 36/36/36
f 38/38/38 40/40/40 39/39/39
f 38/38/38 41/41/41 40/40/40
f 42/42/42 44/44/44 43/43/43
f 42/42/42 45/45/45 44/44/44
f 44/44/44 45/45/45 46/46/46
f 44/44/44 46/46/46 47/47/47
f 48/48/48 50/50/50 49/49/49
f 48/48/48 51/51/51 50/50/50
f 50/50/50 51/51/51 52/52/52
f 50/50/50 52/52/52 53/53/53
f 54/54/54 56/56/56 55/55/55
f 54/54/54 57/57/57 56/56/56
f 57/57/57 58/58/58 56/56/56
f 57/57/57 59/59/59 58/58/58
f 60/60/60 62/62/62 61/61/61
f 60/60/60 63/63/63 62/62/62
f 62/62/62 63/63/63 64/64/64
f 62/62/62 64/64/64 65/65/65
f 66/66/66 68/68/68 67/67/67
f 66/66/66 69/69/69 68/68/68
f 70/70/70 72/72/72 71/71/71
f 70/70/70 73/73/73 72/72/72
f 74/74/74 76/76/76 75/75/75
f 74/74/74 77/77/77 76/76/76
f 77/77/77 78/78/78 76/76/76
f 77/77/77 79/79/79 78/78/78
f 79/79/79 80/80/80 78/78/78
f 79/79/79 81/81/81 80/80/80
f 81/81/81 82/82/82 80/80/80
f 81/81/81 83/83/83 82/82/82
f 83/83/83 84/84/84 82/82/82
f 83/83/83 85/85/85 84/84/84
f 86/86/86 88/88/88 87/87/87
f 88/88/88 86/86/86 89/89/89
f 89/89/89 86/86/86 90/90/90
f 91/91/91 93/93/93 92/92/92
f 91/91/91 94/94/94 93/93/93
f 95/95/95 97/97/97 96/96/96
f 95/95/95 98/98/98 97/97/97
f 99/99/99 101/101/101 100/100/100
f 99/99/99 102/102/102 101/101/101
f 103/103/103 105/105/105 104/104/104
f 103/103/103 106/106/106 105/105/105
f 107/107/107 109/109/109 108/108/108
f 107/107/107 110/110/110 109/109/109
f 111/111/111 113/113/113 112/112/112
f 111/111/111 114/114/114 113/113/113
