#Farm_fence1_(1)_1291_132.obj

v -1.494339 0.9278932 0.1995377
v -1.494339 1.274205 0.1995377
v 1.486633 1.22317 0.1995375
v 1.486633 0.9789283 0.1995375
v -1.494339 1.274205 0.1995377
v -1.494339 1.274205 0.1016967
v 1.486633 1.22317 0.1016965
v 1.486633 1.22317 0.1995375
v -1.494339 1.274205 0.1016967
v -1.494339 0.9278932 0.1016967
v 1.486633 0.9789283 0.1016965
v 1.486633 1.22317 0.1016965
v -1.494339 0.9278932 0.1016967
v -1.494339 0.9278932 0.1995377
v 1.486633 0.9789283 0.1995375
v 1.486633 0.9789283 0.1016965
v 1.486633 0.9789283 0.1995375
v 1.486633 1.22317 0.1995375
v 1.486633 1.22317 0.1016965
v 1.486633 0.9789283 0.1016965
v -1.494339 0.9278932 0.1016967
v -1.494339 1.274205 0.1016967
v -1.494339 1.274205 0.1995377
v -1.494339 0.9278932 0.1995377
v -1.504356 0.4754141 0.1965453
v -1.460514 0.893246 0.2011625
v -0.1019249 0.6144701 0.2006798
v -0.1252022 0.3926539 0.1982288
v 1.460331 0.1643026 0.1987183
v 1.504173 0.5821345 0.2033353
v -1.460514 0.893246 0.2011625
v -1.460331 0.8943079 0.1033273
v -0.1017418 0.615532 0.1028447
v -0.1019249 0.6144701 0.2006798
v 1.504356 0.5831963 0.1055003
v 1.504173 0.5821345 0.2033353
v -1.460331 0.8943079 0.1033273
v -1.504173 0.476476 0.09871027
v -0.1250191 0.3937158 0.1003937
v -0.1017418 0.615532 0.1028447
v 1.504356 0.5831963 0.1055003
v 1.460514 0.1653645 0.1008833
v -1.504173 0.476476 0.09871027
v -1.504356 0.4754141 0.1965453
v -0.1252022 0.3926539 0.1982288
v -0.1250191 0.3937158 0.1003937
v 1.460514 0.1653645 0.1008833
v 1.460331 0.1643026 0.1987183
v 1.460331 0.1643026 0.1987183
v 1.504173 0.5821345 0.2033353
v 1.504356 0.5831963 0.1055003
v 1.460514 0.1653645 0.1008833
v -1.504173 0.476476 0.09871027
v -1.460331 0.8943079 0.1033273
v -1.460514 0.893246 0.2011625
v -1.504356 0.4754141 0.1965453
v -1.244568 -0.3316803 -0.08636545
v -1.322033 1.440714 -0.09534287
v -1.269203 1.443968 0.09125663
v -1.191738 -0.3284262 0.1002343
v -1.075569 1.452469 0.09858899
v -0.9981041 -0.3199258 0.1075667
v -1.008724 1.454468 -0.08347887
v -0.9312592 -0.3179264 -0.0745012
v -1.161049 1.447203 -0.2033355
v -1.08358 -0.3251912 -0.1943578
v -1.322033 1.440714 -0.09534287
v -1.244568 -0.3316803 -0.08636545
v -1.322033 1.440714 -0.09534287
v -1.161049 1.447203 -0.2033355
v -1.008724 1.454468 -0.08347887
v -1.269203 1.443968 0.09125663
v -1.075569 1.452469 0.09858899
v 1.058838 -0.3341751 -0.0772348
v 1.327362 1.30931 -0.08560705
v 1.171505 1.331291 -0.1989463
v 0.9391251 -0.3172919 -0.1642905
v 1.016605 1.353136 -0.08427221
v 0.8201447 -0.3005127 -0.0762094
v 1.076733 1.344656 0.09993906
v 0.8663292 -0.3070258 0.06528369
v 1.268791 1.317571 0.09911416
v 1.013847 -0.3278303 0.06465
v 1.327362 1.30931 -0.08560705
v 1.058838 -0.3341751 -0.0772348
v 1.016605 1.353136 -0.08427221
v 1.171505 1.331291 -0.1989463
v 1.327362 1.30931 -0.08560705
v 1.268791 1.317571 0.09911416
v 1.076733 1.344656 0.09993906

vn 1.788139E-07 0 1
vn 1.788139E-07 0 1
vn 1.788139E-07 0 1
vn 1.788139E-07 0 1
vn 0.01711778 0.9998535 -3.060897E-09
vn 0.01711778 0.9998535 -3.060897E-09
vn 0.01711778 0.9998535 -3.060897E-09
vn 0.01711778 0.9998535 -3.060897E-09
vn -1.788139E-07 0 -1
vn -1.788139E-07 0 -1
vn -1.788139E-07 0 -1
vn -1.788139E-07 0 -1
vn 0.01711779 -0.9998535 -3.0609E-09
vn 0.01711779 -0.9998535 -3.0609E-09
vn 0.01711779 -0.9998535 -3.0609E-09
vn 0.01711779 -0.9998535 -3.0609E-09
vn 1 0 -1.788139E-07
vn 1 0 -1.788139E-07
vn 1 0 -1.788139E-07
vn 1 0 -1.788139E-07
vn -1 0 1.788139E-07
vn -1 0 1.788139E-07
vn -1 0 1.788139E-07
vn -1 0 1.788139E-07
vn -0.001871631 -0.01085299 0.9999393
vn -0.001871631 -0.01085299 0.9999393
vn -0.001871631 -0.01085298 0.9999393
vn -0.001871632 -0.01085298 0.9999393
vn -0.001871632 -0.01085297 0.9999393
vn -0.001871632 -0.01085297 0.9999393
vn 0.2009988 0.9795297 0.01100651
vn 0.2009988 0.9795297 0.01100651
vn 0.1043517 0.9944798 0.0109887
vn 0.1043516 0.9944798 0.0109887
vn 0.02010971 0.9997385 0.01088881
vn 0.02010971 0.9997385 0.01088881
vn 0.00187164 0.01085297 -0.9999393
vn 0.00187164 0.01085297 -0.9999393
vn 0.001871631 0.01085296 -0.9999393
vn 0.001871631 0.01085296 -0.9999393
vn 0.001871624 0.01085296 -0.9999393
vn 0.001871624 0.01085296 -0.9999393
vn -0.05988314 -0.9981454 -0.01094555
vn -0.05988314 -0.9981454 -0.01094555
vn -0.1043516 -0.9944798 -0.01098899
vn -0.1043516 -0.9944798 -0.01098899
vn -0.142539 -0.989728 -0.01100889
vn -0.142539 -0.989728 -0.01100889
vn 0.9945387 -0.1043659 0.0007284228
vn 0.9945387 -0.1043659 0.0007284228
vn 0.9945387 -0.1043659 0.0007284228
vn 0.9945387 -0.1043659 0.0007284228
vn -0.9945385 0.1043673 -0.0007234838
vn -0.9945385 0.1043673 -0.0007234838
vn -0.9945385 0.1043673 -0.0007234838
vn -0.9945385 0.1043673 -0.0007234838
vn -0.9377231 -0.0427315 -0.3447454
vn -0.9377232 -0.04273151 -0.3447451
vn -0.6175326 -0.02300832 0.7862087
vn -0.6175328 -0.02300834 0.7862086
vn 0.5560671 0.02851136 0.8306482
vn 0.5560669 0.02851136 0.8306484
vn 0.9612013 0.04062898 -0.2728395
vn 0.9612012 0.04062897 -0.2728399
vn 0.03798854 -0.003401377 -0.9992723
vn 0.0379886 -0.003401374 -0.9992723
vn -0.9377232 -0.04273151 -0.3447451
vn -0.9377231 -0.0427315 -0.3447454
vn -0.04366473 0.9990335 -0.005060671
vn -0.04366474 0.9990335 -0.00506067
vn -0.04366474 0.9990335 -0.005060671
vn -0.04366474 0.9990335 -0.00506067
vn -0.04366474 0.9990335 -0.005060671
vn 0.936838 -0.1546661 -0.3137084
vn 0.9373167 -0.1547368 -0.3122403
vn -0.007109514 -0.02001449 -0.9997744
vn -0.007124898 -0.02001233 -0.9997743
vn -0.9461424 0.1109231 -0.3041557
vn -0.9456782 0.1108608 -0.3056185
vn -0.5814967 0.05704779 0.8115462
vn -0.582272 0.05715838 0.8109823
vn 0.5814152 -0.1069797 0.8065431
vn 0.5821658 -0.1070844 0.8059875
vn 0.9373167 -0.1547368 -0.3122403
vn 0.936838 -0.1546661 -0.3137084
vn 0.1396457 0.9902015 -2.49706E-08
vn 0.1396458 0.9902015 -2.497061E-08
vn 0.1396457 0.9902015 -2.49706E-08
vn 0.1396457 0.9902015 -2.49706E-08
vn 0.1396457 0.9902015 -2.49706E-08

vt 0.5209961 0.3078613
vt 0.53125 0.3078613
vt 0.53125 0.2236328
vt 0.5209961 0.2236328
vt 0.53125 0.3078613
vt 0.5351563 0.3078613
vt 0.5351563 0.2236328
vt 0.53125 0.2236328
vt 0.5209961 0.3078613
vt 0.53125 0.3078613
vt 0.53125 0.2236328
vt 0.5209961 0.2236328
vt 0.515625 0.3078613
vt 0.5209961 0.3078613
vt 0.5209961 0.2236328
vt 0.515625 0.2236328
vt 0.5209961 0.2236328
vt 0.53125 0.2236328
vt 0.53125 0.2194824
vt 0.5209961 0.2194824
vt 0.5209961 0.3115234
vt 0.53125 0.3115234
vt 0.53125 0.3078613
vt 0.5209961 0.3078613
vt 0.5209961 0.3078613
vt 0.53125 0.3078613
vt 0.53125 0.2687988
vt 0.5209961 0.2687988
vt 0.5209961 0.2236328
vt 0.53125 0.2236328
vt 0.53125 0.3078613
vt 0.5351563 0.3078613
vt 0.5351563 0.2687988
vt 0.53125 0.2687988
vt 0.5351563 0.2236328
vt 0.53125 0.2236328
vt 0.5209961 0.3078613
vt 0.53125 0.3078613
vt 0.53125 0.2687988
vt 0.5209961 0.2687988
vt 0.5209961 0.2236328
vt 0.53125 0.2236328
vt 0.515625 0.3078613
vt 0.5209961 0.3078613
vt 0.5209961 0.2687988
vt 0.515625 0.2687988
vt 0.515625 0.2236328
vt 0.5209961 0.2236328
vt 0.5209961 0.2236328
vt 0.53125 0.2236328
vt 0.53125 0.2194824
vt 0.5209961 0.2194824
vt 0.5209961 0.3115234
vt 0.53125 0.3115234
vt 0.53125 0.3078613
vt 0.5209961 0.3078613
vt 0.5688477 0.2441406
vt 0.5688477 0.3115234
vt 0.5771484 0.3115234
vt 0.5771484 0.2441406
vt 0.5854492 0.3115234
vt 0.5854492 0.2441406
vt 0.59375 0.3115234
vt 0.59375 0.2441406
vt 0.6020508 0.3115234
vt 0.6020508 0.2441406
vt 0.6103516 0.3115234
vt 0.6103516 0.2441406
vt 0.6069336 0.2373047
vt 0.612793 0.2293701
vt 0.6069336 0.2213135
vt 0.5976563 0.2342529
vt 0.5976563 0.2243652
vt 0.5688477 0.2441406
vt 0.5688477 0.3115234
vt 0.5771484 0.3115234
vt 0.5771484 0.2441406
vt 0.5854492 0.3115234
vt 0.5854492 0.2441406
vt 0.59375 0.3115234
vt 0.59375 0.2441406
vt 0.6020508 0.3115234
vt 0.6020508 0.2441406
vt 0.6103516 0.3115234
vt 0.6103516 0.2441406
vt 0.5976563 0.2243652
vt 0.5976563 0.2342529
vt 0.6069336 0.2373047
vt 0.612793 0.2293701
vt 0.6069336 0.2213135

g Farm_fence1_(1)_1291_132
usemtl Farm_fence1_(1)_1291_132
usemap Farm_fence1_(1)_1291_132
f 1/1/1 3/3/3 2/2/2
f 1/1/1 4/4/4 3/3/3
f 5/5/5 7/7/7 6/6/6
f 5/5/5 8/8/8 7/7/7
f 9/9/9 11/11/11 10/10/10
f 9/9/9 12/12/12 11/11/11
f 13/13/13 15/15/15 14/14/14
f 13/13/13 16/16/16 15/15/15
f 17/17/17 19/19/19 18/18/18
f 17/17/17 20/20/20 19/19/19
f 21/21/21 23/23/23 22/22/22
f 21/21/21 24/24/24 23/23/23
f 25/25/25 27/27/27 26/26/26
f 25/25/25 28/28/28 27/27/27
f 27/27/27 28/28/28 29/29/29
f 27/27/27 29/29/29 30/30/30
f 31/31/31 33/33/33 32/32/32
f 31/31/31 34/34/34 33/33/33
f 34/34/34 35/35/35 33/33/33
f 34/34/34 36/36/36 35/35/35
f 37/37/37 39/39/39 38/38/38
f 37/37/37 40/40/40 39/39/39
f 39/39/39 40/40/40 41/41/41
f 39/39/39 41/41/41 42/42/42
f 43/43/43 45/45/45 44/44/44
f 43/43/43 46/46/46 45/45/45
f 45/45/45 46/46/46 47/47/47
f 45/45/45 47/47/47 48/48/48
f 49/49/49 51/51/51 50/50/50
f 49/49/49 52/52/52 51/51/51
f 53/53/53 55/55/55 54/54/54
f 53/53/53 56/56/56 55/55/55
f 57/57/57 59/59/59 58/58/58
f 57/57/57 60/60/60 59/59/59
f 60/60/60 61/61/61 59/59/59
f 60/60/60 62/62/62 61/61/61
f 62/62/62 63/63/63 61/61/61
f 62/62/62 64/64/64 63/63/63
f 64/64/64 65/65/65 63/63/63
f 64/64/64 66/66/66 65/65/65
f 66/66/66 67/67/67 65/65/65
f 66/66/66 68/68/68 67/67/67
f 69/69/69 71/71/71 70/70/70
f 71/71/71 69/69/69 72/72/72
f 71/71/71 72/72/72 73/73/73
f 74/74/74 76/76/76 75/75/75
f 74/74/74 77/77/77 76/76/76
f 77/77/77 78/78/78 76/76/76
f 77/77/77 79/79/79 78/78/78
f 79/79/79 80/80/80 78/78/78
f 79/79/79 81/81/81 80/80/80
f 81/81/81 82/82/82 80/80/80
f 81/81/81 83/83/83 82/82/82
f 83/83/83 84/84/84 82/82/82
f 83/83/83 85/85/85 84/84/84
f 86/86/86 88/88/88 87/87/87
f 88/88/88 86/86/86 89/89/89
f 89/89/89 86/86/86 90/90/90
