#Farm_fence2_1466_102.obj

v -1.07184 -0.3255005 -0.1223585
v -1.064299 1.33938 -0.1969015
v -1.235365 1.33938 -0.1054804
v -1.160358 -0.3255005 -0.07505247
v -1.201281 1.33938 0.08546235
v -1.142723 -0.3255005 0.0237501
v -1.00915 1.33938 0.1120508
v -1.043304 -0.3255005 0.03750973
v -0.9244919 1.33938 -0.0624582
v -0.9994965 -0.3255005 -0.05279177
v -1.064299 1.33938 -0.1969015
v -1.07184 -0.3255005 -0.1223585
v -1.235365 1.33938 -0.1054804
v -1.064299 1.33938 -0.1969015
v -0.9244919 1.33938 -0.0624582
v -1.201281 1.33938 0.08546235
v -1.00915 1.33938 0.1120508
v -1.62487 0.1157588 0.2258145
v -1.643911 0.4042727 0.2258145
v 1.55684 0.7421692 0.2258151
v 1.584203 0.3275353 0.2258151
v -1.643911 0.4042727 0.2258145
v -1.643911 0.4042727 0.119333
v 1.55684 0.7421692 0.1193335
v 1.55684 0.7421692 0.2258151
v -1.643911 0.4042727 0.119333
v -1.62487 0.1157588 0.119333
v 1.584203 0.3275353 0.1193336
v 1.55684 0.7421692 0.1193335
v -1.62487 0.1157588 0.119333
v -1.62487 0.1157588 0.2258145
v 1.584203 0.3275353 0.2258151
v 1.584203 0.3275353 0.1193336
v 1.584203 0.3275353 0.2258151
v 1.55684 0.7421692 0.2258151
v 1.55684 0.7421692 0.1193335
v 1.584203 0.3275353 0.1193336
v -1.62487 0.1157588 0.119333
v -1.643911 0.4042727 0.119333
v -1.643911 0.4042727 0.2258145
v -1.62487 0.1157588 0.2258145
v -1.572144 0.697171 0.2258145
v -1.572144 1.144681 0.2258145
v -0.03843119 0.9289538 0.1552505
v -0.03843121 0.7328834 0.2247906
v 1.64391 0.7804482 0.2258151
v 1.64391 1.144681 0.2258151
v -1.572144 1.144681 0.2258145
v -1.572144 1.144681 0.119333
v -0.03843118 0.9047476 0.05155753
v -0.03843119 0.9289538 0.1552505
v 1.64391 1.144681 0.1193336
v 1.64391 1.144681 0.2258151
v -1.572144 1.144681 0.119333
v -1.572144 0.697171 0.119333
v -0.03843119 0.7086773 0.1210976
v -0.03843118 0.9047476 0.05155753
v 1.64391 1.144681 0.1193336
v 1.64391 0.7804482 0.1193336
v -1.572144 0.697171 0.119333
v -1.572144 0.697171 0.2258145
v -0.03843121 0.7328834 0.2247906
v -0.03843119 0.7086773 0.1210976
v 1.64391 0.7804482 0.1193336
v 1.64391 0.7804482 0.2258151
v 1.64391 0.7804482 0.2258151
v 1.64391 1.144681 0.2258151
v 1.64391 1.144681 0.1193336
v 1.64391 0.7804482 0.1193336
v -1.572144 0.697171 0.119333
v -1.572144 1.144681 0.119333
v -1.572144 1.144681 0.2258145
v -1.572144 0.697171 0.2258145
v 1.137689 -0.3255005 0.1292803
v 1.154715 1.20302 0.1018908
v 1.348639 1.20302 0.09809136
v 1.366982 -0.3255005 0.1247847
v 1.404949 1.20302 -0.08751653
v 1.433564 -0.3255005 -0.09467481
v 1.245828 1.20302 -0.198427
v 1.24542 -0.3255005 -0.2258146
v 1.091174 1.20302 -0.0813673
v 1.062559 -0.3255005 -0.08740406
v 1.154715 1.20302 0.1018908
v 1.137689 -0.3255005 0.1292803
v 1.091174 1.20302 -0.0813673
v 1.245828 1.20302 -0.198427
v 1.404949 1.20302 -0.08751653
v 1.348639 1.20302 0.09809136
v 1.154715 1.20302 0.1018908

vn 0.1375452 -0.04492487 -0.9894761
vn 0.1363232 -0.0449269 -0.9896451
vn -0.8991942 -0.04845735 -0.4348583
vn -0.8981442 -0.04844962 -0.4370234
vn -0.6921424 -0.05103068 0.7199547
vn -0.6923254 -0.05103059 0.7197788
vn 0.4697548 -0.04910086 0.8814304
vn 0.4717388 -0.04909411 0.8803706
vn 0.9835739 -0.0453259 -0.1747222
vn 0.9832851 -0.0453223 -0.1763411
vn 0.1363232 -0.0449269 -0.9896451
vn 0.1375452 -0.04492487 -0.9894761
vn 0 1 0
vn 0 1 0
vn 0 1 0
vn 0 1 0
vn 0 1 0
vn 1.788139E-07 0 1
vn 1.788139E-07 0 1
vn 1.788139E-07 0 1
vn 1.788139E-07 0 1
vn -0.1049845 0.9944738 1.87727E-08
vn -0.1049845 0.9944738 1.87727E-08
vn -0.1049845 0.9944738 1.87727E-08
vn -0.1049845 0.9944738 1.87727E-08
vn -1.788139E-07 0 -1
vn -1.788139E-07 0 -1
vn -1.788139E-07 0 -1
vn -1.788139E-07 0 -1
vn 0.06584983 -0.9978296 -1.177487E-08
vn 0.06584983 -0.9978296 -1.177487E-08
vn 0.06584983 -0.9978296 -1.177487E-08
vn 0.06584983 -0.9978296 -1.177487E-08
vn 0.9978296 0.06584952 -1.784258E-07
vn 0.9978296 0.06584952 -1.784258E-07
vn 0.9978296 0.06584952 -1.784258E-07
vn 0.9978296 0.06584952 -1.784258E-07
vn -0.9978295 -0.06585034 1.784258E-07
vn -0.9978295 -0.06585034 1.784258E-07
vn -0.9978295 -0.06585034 1.784258E-07
vn -0.9978295 -0.06585034 1.784258E-07
vn 0.02949506 0.1073815 0.9937803
vn 0.02949506 0.1073815 0.9937803
vn 0.0001345821 0.1151043 0.9933534
vn 0.0005104274 0.1150061 0.9933647
vn -0.03073785 0.1231102 0.9919168
vn -0.03073784 0.1231102 0.9919168
vn 0.1409896 0.9835096 -0.1132728
vn 0.1409896 0.9835096 -0.1132728
vn -0.0003048705 0.9934329 -0.1144157
vn 0.0002728093 0.9934329 -0.1144157
vn -0.1287501 0.9851646 -0.1134634
vn -0.1287501 0.9851646 -0.1134634
vn -0.02938351 -0.1073819 -0.9937836
vn -0.02938351 -0.1073819 -0.9937836
vn -0.0003820887 -0.1150085 -0.9933645
vn -2.573916E-05 -0.1151015 -0.9933538
vn 0.03086534 -0.1231098 -0.991913
vn 0.03086534 -0.1231098 -0.991913
vn 0.01526314 -0.9933173 0.1144016
vn 0.01526313 -0.9933173 0.1144016
vn 0.02575265 -0.9931036 0.1143771
vn 0.02567916 -0.9931054 0.1143773
vn 0.03523755 -0.992816 0.114344
vn 0.03523755 -0.992816 0.114344
vn 1 0 -1.788139E-07
vn 1 0 -1.788139E-07
vn 1 0 -1.788139E-07
vn 1 0 -1.788139E-07
vn -1 0 1.788139E-07
vn -1 0 1.788139E-07
vn -1 0 1.788139E-07
vn -1 0 1.788139E-07
vn -0.5713499 0.02106454 0.8204362
vn -0.5720298 0.02106362 0.8199623
vn 0.6036775 0.0211632 0.7969477
vn 0.6030982 0.02116391 0.7973861
vn 0.9444361 0.01921736 -0.3281328
vn 0.9448547 0.01921954 -0.3269255
vn -0.01962362 0.0179168 -0.9996469
vn -0.01956046 0.01791681 -0.9996481
vn -0.9565768 0.01905657 -0.2908568
vn -0.9569364 0.01905862 -0.2896715
vn -0.5720298 0.02106362 0.8199623
vn -0.5713499 0.02106454 0.8204362
vn 0 1 0
vn 0 1 0
vn 0 1 0
vn 0 1 0
vn 0 1 0

vt 0.5688477 0.2441406
vt 0.5688477 0.3115234
vt 0.5771484 0.3115234
vt 0.5771484 0.2441406
vt 0.5854492 0.3115234
vt 0.5854492 0.2441406
vt 0.59375 0.3115234
vt 0.59375 0.2441406
vt 0.6020508 0.3115234
vt 0.6020508 0.2441406
vt 0.6103516 0.3115234
vt 0.6103516 0.2441406
vt 0.5976563 0.2342529
vt 0.6069336 0.2373047
vt 0.612793 0.2293701
vt 0.5976563 0.2243652
vt 0.6069336 0.2213135
vt 0.5493164 0.3078613
vt 0.5605469 0.3078613
vt 0.5605469 0.2236328
vt 0.5493164 0.2236328
vt 0.5605469 0.3078613
vt 0.5644531 0.3078613
vt 0.5644531 0.2236328
vt 0.5605469 0.2236328
vt 0.5605469 0.2236328
vt 0.5493164 0.2236328
vt 0.5493164 0.3078613
vt 0.5605469 0.3078613
vt 0.515625 0.3078613
vt 0.5209961 0.3078613
vt 0.5209961 0.2236328
vt 0.515625 0.2236328
vt 0.5493164 0.2236328
vt 0.5605469 0.2236328
vt 0.5605469 0.2194824
vt 0.5493164 0.2194824
vt 0.5493164 0.3115234
vt 0.5605469 0.3115234
vt 0.5605469 0.3078613
vt 0.5493164 0.3078613
vt 0.5209961 0.3078613
vt 0.53125 0.3078613
vt 0.53125 0.2675781
vt 0.5209961 0.2675781
vt 0.5209961 0.2236328
vt 0.53125 0.2236328
vt 0.53125 0.3078613
vt 0.5351563 0.3078613
vt 0.5351563 0.2675781
vt 0.53125 0.2675781
vt 0.5351563 0.2236328
vt 0.53125 0.2236328
vt 0.53125 0.2236328
vt 0.5209961 0.2236328
vt 0.5209961 0.2636719
vt 0.53125 0.2636719
vt 0.53125 0.3078613
vt 0.5209961 0.3078613
vt 0.515625 0.3078613
vt 0.5209961 0.3078613
vt 0.5209961 0.2675781
vt 0.515625 0.2675781
vt 0.515625 0.2236328
vt 0.5209961 0.2236328
vt 0.5209961 0.2236328
vt 0.53125 0.2236328
vt 0.53125 0.2194824
vt 0.5209961 0.2194824
vt 0.5209961 0.3115234
vt 0.53125 0.3115234
vt 0.53125 0.3078613
vt 0.5209961 0.3078613
vt 0.5688477 0.2441406
vt 0.5688477 0.3115234
vt 0.5771484 0.3115234
vt 0.5771484 0.2441406
vt 0.5854492 0.3115234
vt 0.5854492 0.2441406
vt 0.59375 0.3115234
vt 0.59375 0.2441406
vt 0.6020508 0.3115234
vt 0.6020508 0.2441406
vt 0.6103516 0.3115234
vt 0.6103516 0.2441406
vt 0.612793 0.2293701
vt 0.6069336 0.2213135
vt 0.5976563 0.2243652
vt 0.5976563 0.2342529
vt 0.6069336 0.2373047

g Farm_fence2_1466_102
usemtl Farm_fence2_1466_102
usemap Farm_fence2_1466_102
f 1/1/1 3/3/3 2/2/2
f 1/1/1 4/4/4 3/3/3
f 4/4/4 5/5/5 3/3/3
f 4/4/4 6/6/6 5/5/5
f 6/6/6 7/7/7 5/5/5
f 6/6/6 8/8/8 7/7/7
f 8/8/8 9/9/9 7/7/7
f 8/8/8 10/10/10 9/9/9
f 10/10/10 11/11/11 9/9/9
f 10/10/10 12/12/12 11/11/11
f 13/13/13 15/15/15 14/14/14
f 15/15/15 13/13/13 16/16/16
f 15/15/15 16/16/16 17/17/17
f 18/18/18 20/20/20 19/19/19
f 18/18/18 21/21/21 20/20/20
f 22/22/22 24/24/24 23/23/23
f 22/22/22 25/25/25 24/24/24
f 26/26/26 28/28/28 27/27/27
f 26/26/26 29/29/29 28/28/28
f 30/30/30 32/32/32 31/31/31
f 30/30/30 33/33/33 32/32/32
f 34/34/34 36/36/36 35/35/35
f 34/34/34 37/37/37 36/36/36
f 38/38/38 40/40/40 39/39/39
f 38/38/38 41/41/41 40/40/40
f 42/42/42 44/44/44 43/43/43
f 42/42/42 45/45/45 44/44/44
f 44/44/44 45/45/45 46/46/46
f 44/44/44 46/46/46 47/47/47
f 48/48/48 50/50/50 49/49/49
f 48/48/48 51/51/51 50/50/50
f 51/51/51 52/52/52 50/50/50
f 51/51/51 53/53/53 52/52/52
f 54/54/54 56/56/56 55/55/55
f 54/54/54 57/57/57 56/56/56
f 56/56/56 57/57/57 58/58/58
f 56/56/56 58/58/58 59/59/59
f 60/60/60 62/62/62 61/61/61
f 60/60/60 63/63/63 62/62/62
f 62/62/62 63/63/63 64/64/64
f 62/62/62 64/64/64 65/65/65
f 66/66/66 68/68/68 67/67/67
f 66/66/66 69/69/69 68/68/68
f 70/70/70 72/72/72 71/71/71
f 70/70/70 73/73/73 72/72/72
f 74/74/74 76/76/76 75/75/75
f 74/74/74 77/77/77 76/76/76
f 77/77/77 78/78/78 76/76/76
f 77/77/77 79/79/79 78/78/78
f 79/79/79 80/80/80 78/78/78
f 79/79/79 81/81/81 80/80/80
f 81/81/81 82/82/82 80/80/80
f 81/81/81 83/83/83 82/82/82
f 83/83/83 84/84/84 82/82/82
f 83/83/83 85/85/85 84/84/84
f 86/86/86 88/88/88 87/87/87
f 88/88/88 86/86/86 89/89/89
f 89/89/89 86/86/86 90/90/90
