#Farm_fence3_2848_154.obj

v -1.290581 -0.3579712 -0.06899981
v -1.290581 1.472993 -0.06899981
v -1.234913 1.472993 0.1168008
v -1.234913 -0.3579712 0.1168008
v -1.041005 1.472993 0.1212726
v -1.041005 -0.3579712 0.1212726
v -0.9768304 1.472993 -0.06176427
v -0.9768304 -0.3579712 -0.06176427
v -1.131078 1.472993 -0.1793583
v -1.131078 -0.3579712 -0.1793583
v -1.290581 1.472993 -0.06899981
v -1.290581 -0.3579712 -0.06899981
v -1.290581 1.472993 -0.06899981
v -1.131078 1.472993 -0.1793583
v -0.9768304 1.472993 -0.06176427
v -1.234913 1.472993 0.1168008
v -1.041005 1.472993 0.1212726
v -1.500852 1.151193 0.2190817
v -1.500852 1.33925 0.2190817
v 1.480116 1.311537 0.2190808
v 1.480116 1.150899 0.2190808
v -1.500852 1.33925 0.2190817
v -1.500854 1.33925 0.1212402
v 1.480117 1.311537 0.1212416
v 1.480116 1.311537 0.2190808
v -1.500854 1.33925 0.1212402
v -1.500854 1.151193 0.1212402
v 1.480117 1.150899 0.1212416
v 1.480117 1.311537 0.1212416
v -1.500854 1.151193 0.1212402
v -1.500852 1.151193 0.2190817
v 1.480116 1.150899 0.2190808
v 1.480117 1.150899 0.1212416
v 1.480116 1.150899 0.2190808
v 1.480116 1.311537 0.2190808
v 1.480117 1.311537 0.1212416
v 1.480117 1.150899 0.1212416
v -1.500854 1.151193 0.1212402
v -1.500854 1.33925 0.1212402
v -1.500852 1.33925 0.2190817
v -1.500852 1.151193 0.2190817
v -1.476094 0.7826775 -0.182355
v -1.469347 1.090114 -0.180296
v -0.03360501 1.057129 0.04035663
v -0.04035114 0.7496928 0.03829764
v 1.471794 0.7149069 0.2775644
v 1.47854 1.022343 0.2796234
v -1.469347 1.090114 -0.180296
v -1.458856 1.090535 -0.2775702
v -0.02310808 1.05755 -0.05691842
v -0.03360501 1.057129 0.04035663
v 1.47854 1.022343 0.2796234
v 1.489037 1.022764 0.1823484
v -1.458856 1.090535 -0.2775702
v -1.465602 0.7830986 -0.2796291
v -0.02985423 0.750114 -0.05897741
v -0.02310808 1.05755 -0.05691842
v 1.482286 0.715328 0.1802903
v 1.489037 1.022764 0.1823484
v -1.465602 0.7830986 -0.2796291
v -1.476094 0.7826775 -0.182355
v -0.04035114 0.7496928 0.03829764
v -0.02985423 0.750114 -0.05897741
v 1.482286 0.715328 0.1802903
v 1.471794 0.7149069 0.2775644
v 1.471794 0.7149069 0.2775644
v 1.47854 1.022343 0.2796234
v 1.489037 1.022764 0.1823484
v 1.482286 0.715328 0.1802903
v -1.465602 0.7830986 -0.2796291
v -1.458856 1.090535 -0.2775702
v -1.469347 1.090114 -0.180296
v -1.476094 0.7826775 -0.182355
v 1.163142 -0.3579712 -0.05617212
v 1.206137 1.472993 -0.06606274
v 1.048738 1.472993 -0.1794011
v 1.048871 -0.3579712 -0.1384541
v 0.8923048 1.472993 -0.0647274
v 0.9353029 -0.3579712 -0.05519889
v 0.9530277 1.472993 0.1194857
v 0.979386 -0.3579712 0.07853383
v 1.146986 1.472993 0.1186588
v 1.120198 -0.3579712 0.07793776
v 1.206137 1.472993 -0.06606274
v 1.163142 -0.3579712 -0.05617212
v 0.8923048 1.472993 -0.0647274
v 1.048738 1.472993 -0.1794011
v 1.206137 1.472993 -0.06606274
v 1.146986 1.472993 0.1186588
v 0.9530277 1.472993 0.1194857
v -1.477719 0.2577065 0.2190826
v -1.49005 0.5649766 0.2190813
v 1.488524 0.6845052 0.2190826
v 1.500854 0.3772351 0.2190839
v -1.49005 0.5649766 0.2190813
v -1.490049 0.5649766 0.1212421
v 1.488524 0.6845052 0.1212434
v 1.488524 0.6845052 0.2190826
v -1.490049 0.5649766 0.1212421
v -1.477716 0.2577065 0.1212402
v 1.500857 0.3772351 0.1212415
v 1.488524 0.6845052 0.1212434
v -1.477716 0.2577065 0.1212402
v -1.477719 0.2577065 0.2190826
v 1.500854 0.3772351 0.2190839
v 1.500857 0.3772351 0.1212415
v 1.500854 0.3772351 0.2190839
v 1.488524 0.6845052 0.2190826
v 1.488524 0.6845052 0.1212434
v 1.500857 0.3772351 0.1212415
v -1.477716 0.2577065 0.1212402
v -1.490049 0.5649766 0.1212421
v -1.49005 0.5649766 0.2190813
v -1.477719 0.2577065 0.2190826

vn -0.9598432 0 0.280537
vn -0.9598432 0 0.280537
vn -0.02980262 0 0.9995558
vn -0.02980262 0 0.9995558
vn 0.9414248 0 0.3372231
vn 0.9414248 0 0.3372231
vn 0.6116347 0 -0.7911403
vn 0.6116347 0 -0.7911403
vn -0.563413 0 -0.8261753
vn -0.563413 0 -0.8261753
vn -0.9598432 0 0.280537
vn -0.9598432 0 0.280537
vn 0 1 0
vn 0 1 0
vn 0 1 0
vn 0 1 0
vn 0 1 0
vn 0.5823135 0 0.8129643
vn 0.5823135 0 0.8129643
vn 0.5823135 0 0.8129643
vn 0.5823135 0 0.8129643
vn 0.007557655 0.9999568 -0.005413428
vn 0.007557655 0.9999568 -0.005413428
vn 0.007557655 0.9999568 -0.005413428
vn 0.007557655 0.9999568 -0.005413428
vn -0.5823135 0 -0.8129643
vn -0.5823135 0 -0.8129643
vn -0.5823135 0 -0.8129643
vn -0.5823135 0 -0.8129643
vn -8.007339E-05 -1 5.73553E-05
vn -8.007339E-05 -1 5.73553E-05
vn -8.007339E-05 -1 5.73553E-05
vn -8.007339E-05 -1 5.73553E-05
vn 0.8129643 0 -0.5823135
vn 0.8129643 0 -0.5823135
vn 0.8129643 0 -0.5823135
vn 0.8129643 0 -0.5823135
vn -0.8129643 0 0.5823135
vn -0.8129643 0 0.5823135
vn -0.8129643 0 0.5823135
vn -0.8129643 0 0.5823135
vn 0.4519968 -0.00328385 0.8920135
vn 0.4519968 -0.003283849 0.8920135
vn 0.4499658 -0.003232375 0.8930399
vn 0.4499658 -0.003232375 0.8930399
vn 0.4480367 -0.00318352 0.8940095
vn 0.4480366 -0.00318352 0.8940095
vn 0.0217336 0.9997369 -0.007333643
vn 0.02173361 0.9997369 -0.007333644
vn 0.02173388 0.9997369 -0.00733326
vn 0.02173389 0.9997369 -0.007333235
vn 0.02173416 0.9997369 -0.007332873
vn 0.02173416 0.9997369 -0.007332873
vn -0.4519968 0.00328405 -0.8920135
vn -0.4519968 0.00328405 -0.8920135
vn -0.4499658 0.003232394 -0.8930399
vn -0.4499658 0.003232395 -0.8930399
vn -0.4480366 0.003183367 -0.8940095
vn -0.4480366 0.003183367 -0.8940095
vn -0.02173433 -0.9997369 0.007332362
vn -0.02173433 -0.9997369 0.007332362
vn -0.02173419 -0.9997369 0.007332588
vn -0.02173419 -0.9997369 0.007332576
vn -0.02173406 -0.9997369 0.00733279
vn -0.02173406 -0.9997369 0.007332792
vn 0.870464 -0.02253319 -0.4917161
vn 0.870464 -0.02253319 -0.4917161
vn 0.870464 -0.0225332 -0.4917161
vn 0.870464 -0.02253319 -0.4917161
vn -0.8704641 0.02252964 0.4917161
vn -0.8704641 0.02252964 0.4917161
vn -0.8704641 0.02252963 0.4917161
vn -0.8704641 0.02252964 0.4917161
vn 0.5889658 -0.02398511 -0.807802
vn 0.5903069 -0.02398879 -0.8068223
vn -0.5856127 -0.02235922 -0.8102826
vn -0.5856264 -0.02235922 -0.8102726
vn -0.9512948 -0.02394618 0.3073511
vn -0.951801 -0.02394253 0.3057802
vn -0.001969486 -0.0265525 0.9996455
vn -0.003006279 -0.02655107 0.9996428
vn 0.9497889 -0.0265786 0.3117606
vn 0.9501032 -0.02657724 0.3108014
vn 0.5903069 -0.02398879 -0.8068223
vn 0.5889658 -0.02398511 -0.807802
vn 0 1 0
vn 0 1 0
vn 0 1 0
vn 0 1 0
vn 0 1 0
vn 0.5823135 0 0.8129643
vn 0.5823135 0 0.8129643
vn 0.5823135 0 0.8129643
vn 0.5823135 0 0.8129643
vn -0.03259762 0.9991958 0.02334916
vn -0.03259762 0.9991958 0.02334916
vn -0.03259762 0.9991958 0.02334916
vn -0.03259762 0.9991958 0.02334916
vn -0.5823135 0 -0.8129643
vn -0.5823135 0 -0.8129643
vn -0.5823135 0 -0.8129643
vn -0.5823135 0 -0.8129643
vn 0.03259762 -0.9991958 -0.02334916
vn 0.03259762 -0.9991958 -0.02334916
vn 0.03259762 -0.9991958 -0.02334916
vn 0.03259762 -0.9991958 -0.02334916
vn 0.8123105 0.04009787 -0.5818452
vn 0.8123105 0.04009787 -0.5818452
vn 0.8123105 0.04009787 -0.5818452
vn 0.8123105 0.04009787 -0.5818452
vn -0.8123105 -0.04009788 0.5818452
vn -0.8123105 -0.04009788 0.5818452
vn -0.8123105 -0.04009788 0.5818452
vn -0.8123105 -0.04009788 0.5818452

vt 0.5688477 0.2441406
vt 0.5688477 0.3115234
vt 0.5771484 0.3115234
vt 0.5771484 0.2441406
vt 0.5854492 0.3115234
vt 0.5854492 0.2441406
vt 0.59375 0.3115234
vt 0.59375 0.2441406
vt 0.6020508 0.3115234
vt 0.6020508 0.2441406
vt 0.6103516 0.3115234
vt 0.6103516 0.2441406
vt 0.6069336 0.2373047
vt 0.612793 0.2293701
vt 0.6069336 0.2213135
vt 0.5976563 0.2342529
vt 0.5976563 0.2243652
vt 0.5395508 0.3078613
vt 0.5449219 0.3078613
vt 0.5449219 0.2236328
vt 0.5395508 0.2236328
vt 0.5449219 0.3078613
vt 0.5488281 0.3078613
vt 0.5488281 0.2236328
vt 0.5449219 0.2236328
vt 0.5395508 0.3078613
vt 0.5449219 0.3078613
vt 0.5449219 0.2236328
vt 0.5395508 0.2236328
vt 0.515625 0.3078613
vt 0.5209961 0.3078613
vt 0.5209961 0.2236328
vt 0.515625 0.2236328
vt 0.5395508 0.2236328
vt 0.5449219 0.2236328
vt 0.5449219 0.2194824
vt 0.5395508 0.2194824
vt 0.5395508 0.3115234
vt 0.5449219 0.3115234
vt 0.5449219 0.3078613
vt 0.5395508 0.3078613
vt 0.5209961 0.3078613
vt 0.53125 0.3078613
vt 0.53125 0.2668457
vt 0.5209961 0.2668457
vt 0.5209961 0.2236328
vt 0.53125 0.2236328
vt 0.53125 0.3078613
vt 0.5351563 0.3078613
vt 0.5351563 0.2668457
vt 0.53125 0.2668457
vt 0.53125 0.2236328
vt 0.5351563 0.2236328
vt 0.5209961 0.3078613
vt 0.53125 0.3078613
vt 0.53125 0.2668457
vt 0.5209961 0.2668457
vt 0.53125 0.2236328
vt 0.5209961 0.2236328
vt 0.515625 0.3078613
vt 0.5209961 0.3078613
vt 0.5209961 0.2668457
vt 0.515625 0.2668457
vt 0.515625 0.2236328
vt 0.5209961 0.2236328
vt 0.5209961 0.2236328
vt 0.53125 0.2236328
vt 0.53125 0.2194824
vt 0.5209961 0.2194824
vt 0.5209961 0.3115234
vt 0.53125 0.3115234
vt 0.53125 0.3078613
vt 0.5209961 0.3078613
vt 0.5688477 0.2441406
vt 0.5688477 0.3115234
vt 0.5771484 0.3115234
vt 0.5771484 0.2441406
vt 0.5854492 0.3115234
vt 0.5854492 0.2441406
vt 0.59375 0.3115234
vt 0.59375 0.2441406
vt 0.6020508 0.3115234
vt 0.6020508 0.2441406
vt 0.6103516 0.3115234
vt 0.6103516 0.2441406
vt 0.5976563 0.2243652
vt 0.5976563 0.2342529
vt 0.6069336 0.2373047
vt 0.612793 0.2293701
vt 0.6069336 0.2213135
vt 0.534668 0.3078613
vt 0.5449219 0.3078613
vt 0.5449219 0.2236328
vt 0.534668 0.2236328
vt 0.5449219 0.3078613
vt 0.5488281 0.3078613
vt 0.5488281 0.2236328
vt 0.5449219 0.2236328
vt 0.534668 0.3078613
vt 0.5449219 0.3078613
vt 0.5449219 0.2236328
vt 0.534668 0.2236328
vt 0.515625 0.3078613
vt 0.5209961 0.3078613
vt 0.5209961 0.2236328
vt 0.515625 0.2236328
vt 0.534668 0.2236328
vt 0.5449219 0.2236328
vt 0.5449219 0.2194824
vt 0.534668 0.2194824
vt 0.534668 0.3115234
vt 0.5449219 0.3115234
vt 0.5449219 0.3078613
vt 0.534668 0.3078613

g Farm_fence3_2848_154
usemtl Farm_fence3_2848_154
usemap Farm_fence3_2848_154
f 1/1/1 3/3/3 2/2/2
f 1/1/1 4/4/4 3/3/3
f 4/4/4 5/5/5 3/3/3
f 4/4/4 6/6/6 5/5/5
f 6/6/6 7/7/7 5/5/5
f 6/6/6 8/8/8 7/7/7
f 8/8/8 9/9/9 7/7/7
f 8/8/8 10/10/10 9/9/9
f 10/10/10 11/11/11 9/9/9
f 10/10/10 12/12/12 11/11/11
f 13/13/13 15/15/15 14/14/14
f 15/15/15 13/13/13 16/16/16
f 15/15/15 16/16/16 17/17/17
f 18/18/18 20/20/20 19/19/19
f 18/18/18 21/21/21 20/20/20
f 22/22/22 24/24/24 23/23/23
f 22/22/22 25/25/25 24/24/24
f 26/26/26 28/28/28 27/27/27
f 26/26/26 29/29/29 28/28/28
f 30/30/30 32/32/32 31/31/31
f 30/30/30 33/33/33 32/32/32
f 34/34/34 36/36/36 35/35/35
f 34/34/34 37/37/37 36/36/36
f 38/38/38 40/40/40 39/39/39
f 38/38/38 41/41/41 40/40/40
f 42/42/42 44/44/44 43/43/43
f 42/42/42 45/45/45 44/44/44
f 44/44/44 45/45/45 46/46/46
f 44/44/44 46/46/46 47/47/47
f 48/48/48 50/50/50 49/49/49
f 48/48/48 51/51/51 50/50/50
f 50/50/50 51/51/51 52/52/52
f 50/50/50 52/52/52 53/53/53
f 54/54/54 56/56/56 55/55/55
f 54/54/54 57/57/57 56/56/56
f 57/57/57 58/58/58 56/56/56
f 57/57/57 59/59/59 58/58/58
f 60/60/60 62/62/62 61/61/61
f 60/60/60 63/63/63 62/62/62
f 62/62/62 63/63/63 64/64/64
f 62/62/62 64/64/64 65/65/65
f 66/66/66 68/68/68 67/67/67
f 66/66/66 69/69/69 68/68/68
f 70/70/70 72/72/72 71/71/71
f 70/70/70 73/73/73 72/72/72
f 74/74/74 76/76/76 75/75/75
f 74/74/74 77/77/77 76/76/76
f 77/77/77 78/78/78 76/76/76
f 77/77/77 79/79/79 78/78/78
f 79/79/79 80/80/80 78/78/78
f 79/79/79 81/81/81 80/80/80
f 81/81/81 82/82/82 80/80/80
f 81/81/81 83/83/83 82/82/82
f 83/83/83 84/84/84 82/82/82
f 83/83/83 85/85/85 84/84/84
f 86/86/86 88/88/88 87/87/87
f 88/88/88 86/86/86 89/89/89
f 89/89/89 86/86/86 90/90/90
f 91/91/91 93/93/93 92/92/92
f 91/91/91 94/94/94 93/93/93
f 95/95/95 97/97/97 96/96/96
f 95/95/95 98/98/98 97/97/97
f 99/99/99 101/101/101 100/100/100
f 99/99/99 102/102/102 101/101/101
f 103/103/103 105/105/105 104/104/104
f 103/103/103 106/106/106 105/105/105
f 107/107/107 109/109/109 108/108/108
f 107/107/107 110/110/110 109/109/109
f 111/111/111 113/113/113 112/112/112
f 111/111/111 114/114/114 113/113/113
