#Farm_fence4_(1)_2856_15.obj

v -1.1098 -0.3710079 -0.06899866
v -1.465392 1.425096 -0.06899782
v -1.410783 1.435906 0.1168028
v -1.055193 -0.3601961 0.1168032
v -1.220567 1.473566 0.1212759
v -0.8649755 -0.3225374 0.1212751
v -1.157614 1.486029 -0.06176034
v -0.8020222 -0.3100739 -0.06176119
v -1.308924 1.456073 -0.1793565
v -0.9533325 -0.3400302 -0.1793574
v -1.465392 1.425096 -0.06899782
v -1.1098 -0.3710079 -0.06899866
v -1.465392 1.425096 -0.06899782
v -1.308924 1.456073 -0.1793565
v -1.157614 1.486029 -0.06176034
v -1.410783 1.435906 0.1168028
v -1.220567 1.473566 0.1212759
v -1.192386 0.04063416 -0.1823503
v -1.343961 0.3081932 -0.180291
v -0.0005949597 0.8585501 0.04036012
v 0.09380144 0.6869483 0.03830183
v 1.467804 1.335146 0.2775674
v 1.293413 1.640996 0.2796267
v -1.343961 0.3081932 -0.180291
v -1.335162 0.3139262 -0.2775672
v 0.008203806 0.8642836 -0.05691612
v -0.0005949597 0.8585501 0.04036012
v 1.293413 1.640996 0.2796267
v 1.302212 1.646729 0.1823505
v -1.335162 0.3139262 -0.2775672
v -1.183587 0.04636812 -0.2796265
v 0.1026029 0.6926823 -0.05897425
v 0.008203806 0.8642836 -0.05691612
v 1.476603 1.340879 0.1802912
v 1.302212 1.646729 0.1823505
v -1.183587 0.04636812 -0.2796265
v -1.192386 0.04063416 -0.1823503
v 0.09380144 0.6869483 0.03830183
v 0.1026029 0.6926823 -0.05897425
v 1.476603 1.340879 0.1802912
v 1.467804 1.335146 0.2775674
v 1.467804 1.335146 0.2775674
v 1.293413 1.640996 0.2796267
v 1.302212 1.646729 0.1823505
v 1.476603 1.340879 0.1802912
v -1.183587 0.04636812 -0.2796265
v -1.335162 0.3139262 -0.2775672
v -1.343961 0.3081932 -0.180291
v -1.192386 0.04063416 -0.1823503
v 1.16314 -0.3579717 -0.05616733
v 1.206138 1.472993 -0.06605981
v 1.048736 1.472993 -0.1794
v 1.048869 -0.3579717 -0.1384499
v 0.8923059 1.472993 -0.06472485
v 0.9353023 -0.3579717 -0.05519761
v 0.9530277 1.472993 0.1194859
v 0.9793857 -0.3579717 0.07853758
v 1.146986 1.472993 0.1186601
v 1.120197 -0.3579717 0.07793821
v 1.206138 1.472993 -0.06605981
v 1.16314 -0.3579717 -0.05616733
v 0.8923059 1.472993 -0.06472485
v 1.048736 1.472993 -0.1794
v 1.206138 1.472993 -0.06605981
v 1.146986 1.472993 0.1186601
v 0.9530277 1.472993 0.1194859
v -1.52647 0.4859543 0.2015385
v -1.465313 0.860076 0.2269948
v -0.2943948 0.5752778 0.2197249
v -0.3302891 0.3293557 0.2030352
v 1.417122 0.01699924 0.252344
v 1.476444 0.3805838 0.3542259
v -1.465313 0.860076 0.2269948
v -1.464343 0.8665595 0.1293725
v -0.2934235 0.5817609 0.1221041
v -0.2943948 0.5752778 0.2197249
v 1.482111 0.4108534 0.2613585
v 1.476444 0.3805838 0.3542259
v -1.464343 0.8665595 0.1293725
v -1.5255 0.4924374 0.1039163
v -0.3293178 0.3358393 0.1054144
v -0.2934235 0.5817609 0.1221041
v 1.482111 0.4108534 0.2613585
v 1.422789 0.04726887 0.1594766
v -1.5255 0.4924374 0.1039163
v -1.52647 0.4859543 0.2015385
v -0.3302891 0.3293557 0.2030352
v -0.3293178 0.3358393 0.1054144
v 1.422789 0.04726887 0.1594766
v 1.417122 0.01699924 0.252344
v 1.417122 0.01699924 0.252344
v 1.476444 0.3805838 0.3542259
v 1.482111 0.4108534 0.2613585
v 1.422789 0.04726887 0.1594766
v -1.5255 0.4924374 0.1039163
v -1.464343 0.8665595 0.1293725
v -1.465313 0.860076 0.2269948
v -1.52647 0.4859543 0.2015385

vn -0.4689859 -0.183272 -0.8639812
vn -0.4689859 -0.183272 -0.8639812
vn -0.9735546 -0.1177465 0.1957735
vn -0.9735547 -0.1177465 0.1957733
vn -0.1327044 0.1105006 0.9849768
vn -0.1327042 0.1105007 0.9849768
vn 0.8915383 0.1860394 0.4129756
vn 0.8915383 0.1860394 0.4129756
vn 0.6837062 0.004478158 -0.7297437
vn 0.6837062 0.004478166 -0.7297437
vn -0.4689859 -0.183272 -0.8639812
vn -0.4689859 -0.183272 -0.8639812
vn -0.1446919 0.98096 -0.1295439
vn -0.1446919 0.98096 -0.1295439
vn -0.1446919 0.98096 -0.1295439
vn -0.1446919 0.98096 -0.1295439
vn -0.1446919 0.98096 -0.1295439
vn -0.7552115 -0.08141511 0.6504055
vn -0.7552115 -0.08141511 0.6504055
vn -0.756452 -0.08232187 0.6488478
vn -0.756512 -0.08236577 0.6487722
vn -0.7575787 -0.08314728 0.6474265
vn -0.7575787 -0.08314728 0.6474265
vn -0.2977613 0.9240184 -0.2398503
vn -0.2977613 0.9240184 -0.2398503
vn -0.3435858 0.89267 -0.2917002
vn -0.346315 0.8905925 -0.2948065
vn -0.3882401 0.8554274 -0.3428024
vn -0.3882401 0.8554274 -0.3428024
vn 0.7552112 0.08141553 -0.6504056
vn 0.7552112 0.08141552 -0.6504056
vn 0.7565119 0.08236583 -0.6487724
vn 0.7564519 0.08232193 -0.648848
vn 0.7575786 0.08314705 -0.6474267
vn 0.7575786 0.08314706 -0.6474267
vn 0.3436135 -0.8926501 0.2917284
vn 0.3436135 -0.8926501 0.2917284
vn 0.3359274 -0.8983693 0.2829937
vn 0.3363676 -0.8980469 0.2834935
vn 0.3290266 -0.9033414 0.2751653
vn 0.3290266 -0.9033414 0.2751653
vn 0.5722439 0.4919263 0.6561597
vn 0.5722439 0.4919263 0.6561598
vn 0.5722439 0.4919263 0.6561597
vn 0.5722439 0.4919263 0.6561598
vn -0.5733046 -0.4894514 -0.6570839
vn -0.5733046 -0.4894513 -0.6570839
vn -0.5733046 -0.4894514 -0.6570839
vn -0.5733046 -0.4894514 -0.6570839
vn 0.9164658 -0.02398511 0.3993936
vn 0.9158009 -0.02398879 0.4009155
vn 0.663697 -0.02235922 -0.7476673
vn 0.6636843 -0.02235922 -0.7476786
vn -0.5066888 -0.02394618 -0.8617964
vn -0.5052655 -0.02394253 -0.8626317
vn -0.9761954 -0.0265525 0.2152616
vn -0.9764181 -0.02655107 0.214249
vn -0.0979616 -0.0265786 0.9948353
vn -0.09695706 -0.02657724 0.9949336
vn 0.9158009 -0.02398879 0.4009155
vn 0.9164658 -0.02398511 0.3993936
vn 0 1 0
vn 0 1 0
vn 0 1 0
vn 0 1 0
vn 0 1 0
vn -0.6729254 -0.06626517 0.7367362
vn -0.6729254 -0.06626517 0.7367362
vn -0.6971808 -0.1327435 0.7044985
vn -0.6975646 -0.1338903 0.7039013
vn -0.7116473 -0.1787852 0.6794071
vn -0.7116473 -0.1787852 0.6794071
vn 0.1314643 0.9694103 0.2072699
vn 0.1314643 0.9694103 0.2072699
vn 0.01768313 0.9787988 0.2040593
vn 0.0132596 0.9789059 0.2038809
vn -0.06375335 0.9776917 0.2001361
vn -0.06375335 0.9776917 0.2001361
vn 0.6729254 0.06626517 -0.7367362
vn 0.6729254 0.06626517 -0.7367362
vn 0.6975028 0.1336684 -0.7040048
vn 0.6972741 0.1329856 -0.7043605
vn 0.7116662 0.1787809 -0.6793884
vn 0.7116662 0.178781 -0.6793884
vn -0.05174586 -0.9893225 -0.1362475
vn -0.05174586 -0.9893225 -0.1362475
vn -0.01562958 -0.9786484 -0.2049465
vn -0.01619733 -0.9788624 -0.2038777
vn 0.008704752 -0.9680969 -0.250425
vn 0.008704767 -0.9680969 -0.250425
vn 0.7303213 -0.1629564 0.6633824
vn 0.7303213 -0.1629563 0.6633824
vn 0.7303213 -0.1629563 0.6633824
vn 0.7303213 -0.1629564 0.6633824
vn -0.7358749 0.1612671 -0.6576329
vn -0.7358749 0.1612671 -0.6576329
vn -0.7358749 0.1612671 -0.6576329
vn -0.7358749 0.1612671 -0.6576329

vt 0.5688477 0.2441406
vt 0.5688477 0.3115234
vt 0.5771484 0.3115234
vt 0.5771484 0.2441406
vt 0.5854492 0.3115234
vt 0.5854492 0.2441406
vt 0.59375 0.3115234
vt 0.59375 0.2441406
vt 0.6020508 0.3115234
vt 0.6020508 0.2441406
vt 0.6103516 0.3115234
vt 0.6103516 0.2441406
vt 0.6069336 0.2373047
vt 0.612793 0.2293701
vt 0.6069336 0.2213135
vt 0.5976563 0.2342529
vt 0.5976563 0.2243652
vt 0.5209961 0.3078613
vt 0.53125 0.3078613
vt 0.53125 0.2668457
vt 0.5209961 0.2668457
vt 0.5209961 0.2236328
vt 0.53125 0.2236328
vt 0.53125 0.3078613
vt 0.5351563 0.3078613
vt 0.5351563 0.2668457
vt 0.53125 0.2668457
vt 0.53125 0.2236328
vt 0.5351563 0.2236328
vt 0.5209961 0.3078613
vt 0.53125 0.3078613
vt 0.53125 0.2668457
vt 0.5209961 0.2668457
vt 0.53125 0.2236328
vt 0.5209961 0.2236328
vt 0.515625 0.3078613
vt 0.5209961 0.3078613
vt 0.5209961 0.2668457
vt 0.515625 0.2668457
vt 0.515625 0.2236328
vt 0.5209961 0.2236328
vt 0.5209961 0.2236328
vt 0.53125 0.2236328
vt 0.53125 0.2194824
vt 0.5209961 0.2194824
vt 0.5209961 0.3115234
vt 0.53125 0.3115234
vt 0.53125 0.3078613
vt 0.5209961 0.3078613
vt 0.5688477 0.2441406
vt 0.5688477 0.3115234
vt 0.5771484 0.3115234
vt 0.5771484 0.2441406
vt 0.5854492 0.3115234
vt 0.5854492 0.2441406
vt 0.59375 0.3115234
vt 0.59375 0.2441406
vt 0.6020508 0.3115234
vt 0.6020508 0.2441406
vt 0.6103516 0.3115234
vt 0.6103516 0.2441406
vt 0.5976563 0.2243652
vt 0.5976563 0.2342529
vt 0.6069336 0.2373047
vt 0.612793 0.2293701
vt 0.6069336 0.2213135
vt 0.534668 0.3078613
vt 0.5449219 0.3078613
vt 0.5449219 0.2736816
vt 0.534668 0.2736816
vt 0.534668 0.2236328
vt 0.5449219 0.2236328
vt 0.5449219 0.3078613
vt 0.5488281 0.3078613
vt 0.5488281 0.2736816
vt 0.5449219 0.2736816
vt 0.5488281 0.2236328
vt 0.5449219 0.2236328
vt 0.534668 0.3078613
vt 0.5449219 0.3078613
vt 0.5449219 0.2736816
vt 0.534668 0.2736816
vt 0.534668 0.2236328
vt 0.5449219 0.2236328
vt 0.515625 0.3078613
vt 0.5209961 0.3078613
vt 0.5209961 0.2736816
vt 0.515625 0.2736816
vt 0.515625 0.2236328
vt 0.5209961 0.2236328
vt 0.534668 0.2236328
vt 0.5449219 0.2236328
vt 0.5449219 0.2194824
vt 0.534668 0.2194824
vt 0.534668 0.3115234
vt 0.5449219 0.3115234
vt 0.5449219 0.3078613
vt 0.534668 0.3078613

g Farm_fence4_(1)_2856_15
usemtl Farm_fence4_(1)_2856_15
usemap Farm_fence4_(1)_2856_15
f 1/1/1 3/3/3 2/2/2
f 1/1/1 4/4/4 3/3/3
f 4/4/4 5/5/5 3/3/3
f 4/4/4 6/6/6 5/5/5
f 6/6/6 7/7/7 5/5/5
f 6/6/6 8/8/8 7/7/7
f 8/8/8 9/9/9 7/7/7
f 8/8/8 10/10/10 9/9/9
f 10/10/10 11/11/11 9/9/9
f 10/10/10 12/12/12 11/11/11
f 13/13/13 15/15/15 14/14/14
f 15/15/15 13/13/13 16/16/16
f 15/15/15 16/16/16 17/17/17
f 18/18/18 20/20/20 19/19/19
f 18/18/18 21/21/21 20/20/20
f 20/20/20 21/21/21 22/22/22
f 20/20/20 22/22/22 23/23/23
f 24/24/24 26/26/26 25/25/25
f 24/24/24 27/27/27 26/26/26
f 26/26/26 27/27/27 28/28/28
f 26/26/26 28/28/28 29/29/29
f 30/30/30 32/32/32 31/31/31
f 30/30/30 33/33/33 32/32/32
f 33/33/33 34/34/34 32/32/32
f 33/33/33 35/35/35 34/34/34
f 36/36/36 38/38/38 37/37/37
f 36/36/36 39/39/39 38/38/38
f 38/38/38 39/39/39 40/40/40
f 38/38/38 40/40/40 41/41/41
f 42/42/42 44/44/44 43/43/43
f 42/42/42 45/45/45 44/44/44
f 46/46/46 48/48/48 47/47/47
f 46/46/46 49/49/49 48/48/48
f 50/50/50 52/52/52 51/51/51
f 50/50/50 53/53/53 52/52/52
f 53/53/53 54/54/54 52/52/52
f 53/53/53 55/55/55 54/54/54
f 55/55/55 56/56/56 54/54/54
f 55/55/55 57/57/57 56/56/56
f 57/57/57 58/58/58 56/56/56
f 57/57/57 59/59/59 58/58/58
f 59/59/59 60/60/60 58/58/58
f 59/59/59 61/61/61 60/60/60
f 62/62/62 64/64/64 63/63/63
f 64/64/64 62/62/62 65/65/65
f 65/65/65 62/62/62 66/66/66
f 67/67/67 69/69/69 68/68/68
f 67/67/67 70/70/70 69/69/69
f 69/69/69 70/70/70 71/71/71
f 69/69/69 71/71/71 72/72/72
f 73/73/73 75/75/75 74/74/74
f 73/73/73 76/76/76 75/75/75
f 76/76/76 77/77/77 75/75/75
f 76/76/76 78/78/78 77/77/77
f 79/79/79 81/81/81 80/80/80
f 79/79/79 82/82/82 81/81/81
f 81/81/81 82/82/82 83/83/83
f 81/81/81 83/83/83 84/84/84
f 85/85/85 87/87/87 86/86/86
f 85/85/85 88/88/88 87/87/87
f 87/87/87 88/88/88 89/89/89
f 87/87/87 89/89/89 90/90/90
f 91/91/91 93/93/93 92/92/92
f 91/91/91 94/94/94 93/93/93
f 95/95/95 97/97/97 96/96/96
f 95/95/95 98/98/98 97/97/97
