#Farm_fence1_2948_179.obj

v -1.494337 0.9278932 0.1995386
v -1.494337 1.274205 0.1995386
v 1.486632 1.22317 0.1995375
v 1.486632 0.9789283 0.1995375
v -1.494337 1.274205 0.1995386
v -1.494338 1.274205 0.1016973
v 1.486633 1.22317 0.1016964
v 1.486632 1.22317 0.1995375
v -1.494338 1.274205 0.1016973
v -1.494338 0.9278932 0.1016973
v 1.486633 0.9789283 0.1016964
v 1.486633 1.22317 0.1016964
v -1.494338 0.9278932 0.1016973
v -1.494337 0.9278932 0.1995386
v 1.486632 0.9789283 0.1995375
v 1.486633 0.9789283 0.1016964
v 1.486632 0.9789283 0.1995375
v 1.486632 1.22317 0.1995375
v 1.486633 1.22317 0.1016964
v 1.486633 0.9789283 0.1016964
v -1.494338 0.9278932 0.1016973
v -1.494338 1.274205 0.1016973
v -1.494337 1.274205 0.1995386
v -1.494337 0.9278932 0.1995386
v -1.504359 0.4754141 0.1965471
v -1.460514 0.893246 0.2011628
v -0.1019263 0.6144701 0.2006805
v -0.1252023 0.3926539 0.198231
v 1.460332 0.1643026 0.1987193
v 1.504174 0.5821345 0.2033381
v -1.460514 0.893246 0.2011628
v -1.460333 0.8943079 0.1033292
v -0.1017441 0.615532 0.1028472
v -0.1019263 0.6144701 0.2006805
v 1.504357 0.5831963 0.1055012
v 1.504174 0.5821345 0.2033381
v -1.460333 0.8943079 0.1033292
v -1.504175 0.476476 0.09871035
v -0.1250185 0.3937158 0.1003943
v -0.1017441 0.615532 0.1028472
v 1.504357 0.5831963 0.1055012
v 1.460514 0.1653645 0.1008861
v -1.504175 0.476476 0.09871035
v -1.504359 0.4754141 0.1965471
v -0.1252023 0.3926539 0.198231
v -0.1250185 0.3937158 0.1003943
v 1.460514 0.1653645 0.1008861
v 1.460332 0.1643026 0.1987193
v 1.460332 0.1643026 0.1987193
v 1.504174 0.5821345 0.2033381
v 1.504357 0.5831963 0.1055012
v 1.460514 0.1653645 0.1008861
v -1.504175 0.476476 0.09871035
v -1.460333 0.8943079 0.1033292
v -1.460514 0.893246 0.2011628
v -1.504359 0.4754141 0.1965471
v -1.244569 -0.3316803 -0.08636292
v -1.322034 1.440714 -0.09534223
v -1.269206 1.443968 0.09125964
v -1.19174 -0.3284262 0.1002351
v -1.075569 1.452469 0.09859084
v -0.9981028 -0.3199258 0.1075665
v -1.008725 1.454468 -0.08347765
v -0.9312603 -0.3179264 -0.07449855
v -1.161049 1.447203 -0.2033326
v -1.083583 -0.3251912 -0.194357
v -1.322034 1.440714 -0.09534223
v -1.244569 -0.3316803 -0.08636292
v -1.322034 1.440714 -0.09534223
v -1.161049 1.447203 -0.2033326
v -1.008725 1.454468 -0.08347765
v -1.269206 1.443968 0.09125964
v -1.075569 1.452469 0.09859084
v 1.058838 -0.3341751 -0.07723221
v 1.327363 1.30931 -0.08560622
v 1.171504 1.331291 -0.1989447
v 0.9391229 -0.3172919 -0.1642904
v 1.016605 1.353136 -0.08426911
v 0.8201439 -0.3005127 -0.07620736
v 1.076732 1.344656 0.09993986
v 0.8663276 -0.3070258 0.06528416
v 1.268789 1.317571 0.09911721
v 1.013848 -0.3278303 0.06465175
v 1.327363 1.30931 -0.08560622
v 1.058838 -0.3341751 -0.07723221
v 1.016605 1.353136 -0.08426911
v 1.171504 1.331291 -0.1989447
v 1.327363 1.30931 -0.08560622
v 1.268789 1.317571 0.09911721
v 1.076732 1.344656 0.09993986

vn 0.4164112 0 0.9091764
vn 0.4164112 0 0.9091764
vn 0.4164112 0 0.9091764
vn 0.4164112 0 0.9091764
vn 0.01556308 0.9998535 -0.007128033
vn 0.01556308 0.9998535 -0.007128033
vn 0.01556308 0.9998535 -0.007128033
vn 0.01556308 0.9998535 -0.007128033
vn -0.4164112 0 -0.9091764
vn -0.4164112 0 -0.9091764
vn -0.4164112 0 -0.9091764
vn -0.4164112 0 -0.9091764
vn 0.01556309 -0.9998535 -0.007128041
vn 0.01556309 -0.9998535 -0.007128041
vn 0.01556309 -0.9998535 -0.007128041
vn 0.01556309 -0.9998535 -0.007128041
vn 0.9091764 0 -0.4164112
vn 0.9091764 0 -0.4164112
vn 0.9091764 0 -0.4164112
vn 0.9091764 0 -0.4164112
vn -0.9091764 0 0.4164112
vn -0.9091764 0 0.4164112
vn -0.9091764 0 0.4164112
vn -0.9091764 0 0.4164112
vn 0.4146841 -0.01085299 0.9099007
vn 0.4146841 -0.01085299 0.9099007
vn 0.4146841 -0.01085298 0.9099007
vn 0.4146841 -0.01085298 0.9099007
vn 0.4146841 -0.01085297 0.9099007
vn 0.4146841 -0.01085297 0.9099007
vn 0.1873266 0.9795297 -0.07369125
vn 0.1873266 0.9795297 -0.07369126
vn 0.0994499 0.9944798 -0.03346252
vn 0.09944985 0.9944798 -0.03346249
vn 0.0228175 0.9997385 0.001525941
vn 0.0228175 0.9997385 0.00152594
vn -0.4146841 0.01085297 -0.9099007
vn -0.4146841 0.01085297 -0.9099007
vn -0.4146841 0.01085296 -0.9099007
vn -0.4146841 0.01085296 -0.9099007
vn -0.4146841 0.01085296 -0.9099007
vn -0.4146841 0.01085296 -0.9099007
vn -0.05900219 -0.9981454 0.01498457
vn -0.05900219 -0.9981454 0.01498456
vn -0.09944996 -0.9944798 0.03346223
vn -0.09944994 -0.9944798 0.03346222
vn -0.1341773 -0.989728 0.04934578
vn -0.1341773 -0.989728 0.04934578
vn 0.9045145 -0.1043659 -0.4134746
vn 0.9045145 -0.1043659 -0.4134746
vn 0.9045145 -0.1043659 -0.4134746
vn 0.9045145 -0.1043659 -0.4134746
vn -0.9045123 0.1043673 0.413479
vn -0.9045123 0.1043673 0.413479
vn -0.9045123 0.1043673 0.413479
vn -0.9045123 0.1043673 0.413479
vn -0.9961116 -0.0427315 0.07704386
vn -0.9961116 -0.04273151 0.07704413
vn -0.23406 -0.02300832 0.9719498
vn -0.2340604 -0.02300834 0.9719498
vn 0.8514543 0.02851136 0.5236534
vn 0.8514541 0.02851136 0.5236536
vn 0.7602882 0.04062898 -0.648314
vn 0.760288 0.04062897 -0.6483144
vn -0.3815697 -0.003401377 -0.9243338
vn -0.3815697 -0.003401374 -0.9243338
vn -0.9961116 -0.04273151 0.07704413
vn -0.9961116 -0.0427315 0.07704386
vn -0.04180627 0.9990335 0.01358143
vn -0.04180627 0.9990335 0.01358144
vn -0.04180627 0.9990335 0.01358144
vn -0.04180627 0.9990335 0.01358144
vn -0.04180627 0.9990335 0.01358144
vn 0.7211195 -0.1546661 -0.675326
vn 0.7221661 -0.1547368 -0.6741905
vn -0.4227809 -0.02001449 -0.9060109
vn -0.4227948 -0.02001233 -0.9060044
vn -0.9868642 0.1109231 0.1174529
vn -0.9870513 0.1108608 0.1159296
vn -0.1907462 0.05704779 0.9799803
vn -0.191686 0.05715838 0.9797905
vn 0.8644625 -0.1069797 0.4911823
vn 0.8649136 -0.1070844 0.4903647
vn 0.7221661 -0.1547368 -0.6741905
vn 0.7211195 -0.1546661 -0.675326
vn 0.1269626 0.9902015 -0.05815004
vn 0.1269626 0.9902015 -0.05815006
vn 0.1269626 0.9902015 -0.05815005
vn 0.1269626 0.9902015 -0.05815004
vn 0.1269626 0.9902015 -0.05815004

vt 0.5209961 0.3078613
vt 0.53125 0.3078613
vt 0.53125 0.2236328
vt 0.5209961 0.2236328
vt 0.53125 0.3078613
vt 0.5351563 0.3078613
vt 0.5351563 0.2236328
vt 0.53125 0.2236328
vt 0.5209961 0.3078613
vt 0.53125 0.3078613
vt 0.53125 0.2236328
vt 0.5209961 0.2236328
vt 0.515625 0.3078613
vt 0.5209961 0.3078613
vt 0.5209961 0.2236328
vt 0.515625 0.2236328
vt 0.5209961 0.2236328
vt 0.53125 0.2236328
vt 0.53125 0.2194824
vt 0.5209961 0.2194824
vt 0.5209961 0.3115234
vt 0.53125 0.3115234
vt 0.53125 0.3078613
vt 0.5209961 0.3078613
vt 0.5209961 0.3078613
vt 0.53125 0.3078613
vt 0.53125 0.2687988
vt 0.5209961 0.2687988
vt 0.5209961 0.2236328
vt 0.53125 0.2236328
vt 0.53125 0.3078613
vt 0.5351563 0.3078613
vt 0.5351563 0.2687988
vt 0.53125 0.2687988
vt 0.5351563 0.2236328
vt 0.53125 0.2236328
vt 0.5209961 0.3078613
vt 0.53125 0.3078613
vt 0.53125 0.2687988
vt 0.5209961 0.2687988
vt 0.5209961 0.2236328
vt 0.53125 0.2236328
vt 0.515625 0.3078613
vt 0.5209961 0.3078613
vt 0.5209961 0.2687988
vt 0.515625 0.2687988
vt 0.515625 0.2236328
vt 0.5209961 0.2236328
vt 0.5209961 0.2236328
vt 0.53125 0.2236328
vt 0.53125 0.2194824
vt 0.5209961 0.2194824
vt 0.5209961 0.3115234
vt 0.53125 0.3115234
vt 0.53125 0.3078613
vt 0.5209961 0.3078613
vt 0.5688477 0.2441406
vt 0.5688477 0.3115234
vt 0.5771484 0.3115234
vt 0.5771484 0.2441406
vt 0.5854492 0.3115234
vt 0.5854492 0.2441406
vt 0.59375 0.3115234
vt 0.59375 0.2441406
vt 0.6020508 0.3115234
vt 0.6020508 0.2441406
vt 0.6103516 0.3115234
vt 0.6103516 0.2441406
vt 0.6069336 0.2373047
vt 0.612793 0.2293701
vt 0.6069336 0.2213135
vt 0.5976563 0.2342529
vt 0.5976563 0.2243652
vt 0.5688477 0.2441406
vt 0.5688477 0.3115234
vt 0.5771484 0.3115234
vt 0.5771484 0.2441406
vt 0.5854492 0.3115234
vt 0.5854492 0.2441406
vt 0.59375 0.3115234
vt 0.59375 0.2441406
vt 0.6020508 0.3115234
vt 0.6020508 0.2441406
vt 0.6103516 0.3115234
vt 0.6103516 0.2441406
vt 0.5976563 0.2243652
vt 0.5976563 0.2342529
vt 0.6069336 0.2373047
vt 0.612793 0.2293701
vt 0.6069336 0.2213135

g Farm_fence1_2948_179
usemtl Farm_fence1_2948_179
usemap Farm_fence1_2948_179
f 1/1/1 3/3/3 2/2/2
f 1/1/1 4/4/4 3/3/3
f 5/5/5 7/7/7 6/6/6
f 5/5/5 8/8/8 7/7/7
f 9/9/9 11/11/11 10/10/10
f 9/9/9 12/12/12 11/11/11
f 13/13/13 15/15/15 14/14/14
f 13/13/13 16/16/16 15/15/15
f 17/17/17 19/19/19 18/18/18
f 17/17/17 20/20/20 19/19/19
f 21/21/21 23/23/23 22/22/22
f 21/21/21 24/24/24 23/23/23
f 25/25/25 27/27/27 26/26/26
f 25/25/25 28/28/28 27/27/27
f 27/27/27 28/28/28 29/29/29
f 27/27/27 29/29/29 30/30/30
f 31/31/31 33/33/33 32/32/32
f 31/31/31 34/34/34 33/33/33
f 34/34/34 35/35/35 33/33/33
f 34/34/34 36/36/36 35/35/35
f 37/37/37 39/39/39 38/38/38
f 37/37/37 40/40/40 39/39/39
f 39/39/39 40/40/40 41/41/41
f 39/39/39 41/41/41 42/42/42
f 43/43/43 45/45/45 44/44/44
f 43/43/43 46/46/46 45/45/45
f 45/45/45 46/46/46 47/47/47
f 45/45/45 47/47/47 48/48/48
f 49/49/49 51/51/51 50/50/50
f 49/49/49 52/52/52 51/51/51
f 53/53/53 55/55/55 54/54/54
f 53/53/53 56/56/56 55/55/55
f 57/57/57 59/59/59 58/58/58
f 57/57/57 60/60/60 59/59/59
f 60/60/60 61/61/61 59/59/59
f 60/60/60 62/62/62 61/61/61
f 62/62/62 63/63/63 61/61/61
f 62/62/62 64/64/64 63/63/63
f 64/64/64 65/65/65 63/63/63
f 64/64/64 66/66/66 65/65/65
f 66/66/66 67/67/67 65/65/65
f 66/66/66 68/68/68 67/67/67
f 69/69/69 71/71/71 70/70/70
f 71/71/71 69/69/69 72/72/72
f 71/71/71 72/72/72 73/73/73
f 74/74/74 76/76/76 75/75/75
f 74/74/74 77/77/77 76/76/76
f 77/77/77 78/78/78 76/76/76
f 77/77/77 79/79/79 78/78/78
f 79/79/79 80/80/80 78/78/78
f 79/79/79 81/81/81 80/80/80
f 81/81/81 82/82/82 80/80/80
f 81/81/81 83/83/83 82/82/82
f 83/83/83 84/84/84 82/82/82
f 83/83/83 85/85/85 84/84/84
f 86/86/86 88/88/88 87/87/87
f 88/88/88 86/86/86 89/89/89
f 89/89/89 86/86/86 90/90/90
