#Farm_fence3_1335_186.obj

v -1.290589 -0.3579721 -0.06899802
v -1.290589 1.472993 -0.06899802
v -1.234921 1.472993 0.1168045
v -1.234921 -0.3579721 0.1168045
v -1.041011 1.472993 0.1212753
v -1.041011 -0.3579721 0.1212753
v -0.9768367 1.472993 -0.06176148
v -0.9768367 -0.3579721 -0.06176148
v -1.131084 1.472993 -0.1793572
v -1.131084 -0.3579721 -0.1793572
v -1.290589 1.472993 -0.06899802
v -1.290589 -0.3579721 -0.06899802
v -1.290589 1.472993 -0.06899802
v -1.131084 1.472993 -0.1793572
v -0.9768367 1.472993 -0.06176148
v -1.234921 1.472993 0.1168045
v -1.041011 1.472993 0.1212753
v -1.50086 1.151192 0.219086
v -1.50086 1.339249 0.219086
v 1.48011 1.311536 0.2190846
v 1.48011 1.150898 0.2190846
v -1.50086 1.339249 0.219086
v -1.50086 1.339249 0.1212447
v 1.48011 1.311536 0.1212433
v 1.48011 1.311536 0.2190846
v -1.50086 1.339249 0.1212447
v -1.50086 1.151192 0.1212447
v 1.48011 1.150898 0.1212433
v 1.48011 1.311536 0.1212433
v -1.50086 1.151192 0.1212447
v -1.50086 1.151192 0.219086
v 1.48011 1.150898 0.2190846
v 1.48011 1.150898 0.1212433
v 1.48011 1.150898 0.2190846
v 1.48011 1.311536 0.2190846
v 1.48011 1.311536 0.1212433
v 1.48011 1.150898 0.1212433
v -1.50086 1.151192 0.1212447
v -1.50086 1.339249 0.1212447
v -1.50086 1.339249 0.219086
v -1.50086 1.151192 0.219086
v -1.476101 0.7826766 -0.1823499
v -1.469355 1.090113 -0.1802918
v -0.03361083 1.057128 0.04036004
v -0.0403576 0.7496918 0.03830201
v 1.471787 0.7149059 0.2775677
v 1.478535 1.022342 0.2796277
v -1.469355 1.090113 -0.1802918
v -1.45886 1.090534 -0.2775666
v -0.0231161 1.057549 -0.05691474
v -0.03361083 1.057128 0.04036004
v 1.478535 1.022342 0.2796277
v 1.489029 1.022763 0.182351
v -1.45886 1.090534 -0.2775666
v -1.465607 0.7830977 -0.2796265
v -0.02986239 0.750113 -0.05897467
v -0.0231161 1.057549 -0.05691474
v 1.482282 0.715327 0.1802929
v 1.489029 1.022763 0.182351
v -1.465607 0.7830977 -0.2796265
v -1.476101 0.7826766 -0.1823499
v -0.0403576 0.7496918 0.03830201
v -0.02986239 0.750113 -0.05897467
v 1.482282 0.715327 0.1802929
v 1.471787 0.7149059 0.2775677
v 1.471787 0.7149059 0.2775677
v 1.478535 1.022342 0.2796277
v 1.489029 1.022763 0.182351
v 1.482282 0.715327 0.1802929
v -1.465607 0.7830977 -0.2796265
v -1.45886 1.090534 -0.2775666
v -1.469355 1.090113 -0.1802918
v -1.476101 0.7826766 -0.1823499
v 1.163136 -0.3579721 -0.05616684
v 1.206132 1.472993 -0.06606025
v 1.048731 1.472993 -0.1793987
v 1.048863 -0.3579721 -0.1384499
v 0.8922997 1.472993 -0.06472517
v 0.9352961 -0.3579721 -0.05519795
v 0.953021 1.472993 0.1194866
v 0.9793797 -0.3579721 0.07853772
v 1.14698 1.472993 0.1186607
v 1.120192 -0.3579721 0.07793883
v 1.206132 1.472993 -0.06606025
v 1.163136 -0.3579721 -0.05616684
v 0.8922997 1.472993 -0.06472517
v 1.048731 1.472993 -0.1793987
v 1.206132 1.472993 -0.06606025
v 1.14698 1.472993 0.1186607
v 0.953021 1.472993 0.1194866
v -1.477724 0.2577056 0.219086
v -1.490054 0.5649756 0.219086
v 1.488518 0.6845043 0.2190846
v 1.500849 0.3772342 0.2190846
v -1.490054 0.5649756 0.219086
v -1.490054 0.5649756 0.1212447
v 1.488518 0.6845043 0.1212433
v 1.488518 0.6845043 0.2190846
v -1.490054 0.5649756 0.1212447
v -1.477724 0.2577056 0.1212447
v 1.500849 0.3772342 0.1212433
v 1.488518 0.6845043 0.1212433
v -1.477724 0.2577056 0.1212447
v -1.477724 0.2577056 0.219086
v 1.500849 0.3772342 0.2190846
v 1.500849 0.3772342 0.1212433
v 1.500849 0.3772342 0.2190846
v 1.488518 0.6845043 0.2190846
v 1.488518 0.6845043 0.1212433
v 1.500849 0.3772342 0.1212433
v -1.477724 0.2577056 0.1212447
v -1.490054 0.5649756 0.1212447
v -1.490054 0.5649756 0.219086
v -1.477724 0.2577056 0.219086

vn -0.9436789 0 -0.3308628
vn -0.9436789 0 -0.3308628
vn -0.6062832 0 0.7952489
vn -0.6062832 0 0.7952489
vn 0.5689754 0 0.8223546
vn 0.5689754 0 0.8223546
vn 0.9579288 0 -0.2870059
vn 0.9579288 0 -0.2870059
vn 0.02305823 0 -0.9997341
vn 0.02305823 0 -0.9997341
vn -0.9436789 0 -0.3308628
vn -0.9436789 0 -0.3308628
vn 0 1 0
vn 0 1 0
vn 0 1 0
vn 0 1 0
vn 0 1 0
vn 1.788139E-07 0 1
vn 1.788139E-07 0 1
vn 1.788139E-07 0 1
vn 1.788139E-07 0 1
vn 0.009296416 0.9999568 -1.662329E-09
vn 0.009296416 0.9999568 -1.662329E-09
vn 0.009296416 0.9999568 -1.662329E-09
vn 0.009296416 0.9999568 -1.662329E-09
vn -1.788139E-07 0 -1
vn -1.788139E-07 0 -1
vn -1.788139E-07 0 -1
vn -1.788139E-07 0 -1
vn -9.849558E-05 -1 1.761238E-11
vn -9.849558E-05 -1 1.761238E-11
vn -9.849558E-05 -1 1.761238E-11
vn -9.849558E-05 -1 1.761238E-11
vn 1 0 -1.788139E-07
vn 1 0 -1.788139E-07
vn 1 0 -1.788139E-07
vn 1 0 -1.788139E-07
vn -1 0 1.788139E-07
vn -1 0 1.788139E-07
vn -1 0 1.788139E-07
vn -1 0 1.788139E-07
vn -0.1519741 -0.00328385 0.988379
vn -0.1519741 -0.003283849 0.988379
vn -0.1542229 -0.003232375 0.9880308
vn -0.1542229 -0.003232375 0.9880308
vn -0.1563558 -0.00318352 0.9876957
vn -0.1563558 -0.00318352 0.9876956
vn 0.02193913 0.9997369 0.006693777
vn 0.02193913 0.9997369 0.006693777
vn 0.02193913 0.9997369 0.006694248
vn 0.02193912 0.9997369 0.006694277
vn 0.02193913 0.9997369 0.006694724
vn 0.02193912 0.9997369 0.006694723
vn 0.1519741 0.00328405 -0.988379
vn 0.1519741 0.00328405 -0.988379
vn 0.1542229 0.003232394 -0.9880308
vn 0.1542229 0.003232395 -0.9880308
vn 0.1563558 0.003183367 -0.9876956
vn 0.1563558 0.003183367 -0.9876956
vn -0.02193897 -0.9997369 -0.006695239
vn -0.02193897 -0.9997369 -0.006695239
vn -0.02193898 -0.9997369 -0.006694973
vn -0.02193898 -0.9997369 -0.006694987
vn -0.021939 -0.9997369 -0.006694735
vn -0.021939 -0.9997369 -0.006694734
vn 0.9939891 -0.02253319 0.1071351
vn 0.9939891 -0.02253319 0.1071351
vn 0.9939891 -0.0225332 0.1071351
vn 0.9939891 -0.02253319 0.1071351
vn -0.9939892 0.02252964 -0.1071352
vn -0.9939892 0.02252964 -0.1071352
vn -0.9939892 0.02252963 -0.1071352
vn -0.9939892 0.02252964 -0.1071352
vn 0.9492021 -0.02398511 -0.3137516
vn 0.9497219 -0.02398879 -0.3121743
vn -0.004243914 -0.02235922 -0.999741
vn -0.004260924 -0.02235922 -0.999741
vn -0.9523435 -0.02394618 -0.3040862
vn -0.9518403 -0.02394253 -0.305658
vn -0.583708 -0.0265525 0.8115294
vn -0.5845494 -0.02655107 0.8109236
vn 0.5906022 -0.0265786 0.806525
vn 0.5914163 -0.02657724 0.8059282
vn 0.9497219 -0.02398879 -0.3121743
vn 0.9492021 -0.02398511 -0.3137516
vn 0 1 0
vn 0 1 0
vn 0 1 0
vn 0 1 0
vn 0 1 0
vn 1.788139E-07 0 1
vn 1.788139E-07 0 1
vn 1.788139E-07 0 1
vn 1.788139E-07 0 1
vn -0.04009724 0.9991958 7.169945E-09
vn -0.04009724 0.9991958 7.169945E-09
vn -0.04009724 0.9991958 7.169945E-09
vn -0.04009724 0.9991958 7.169945E-09
vn -1.788139E-07 0 -1
vn -1.788139E-07 0 -1
vn -1.788139E-07 0 -1
vn -1.788139E-07 0 -1
vn 0.04009723 -0.9991958 -7.169944E-09
vn 0.04009723 -0.9991958 -7.169944E-09
vn 0.04009723 -0.9991958 -7.169944E-09
vn 0.04009723 -0.9991958 -7.169944E-09
vn 0.9991958 0.04009787 -1.786701E-07
vn 0.9991958 0.04009787 -1.786701E-07
vn 0.9991958 0.04009787 -1.786701E-07
vn 0.9991958 0.04009787 -1.786701E-07
vn -0.9991958 -0.04009788 1.786701E-07
vn -0.9991958 -0.04009788 1.786701E-07
vn -0.9991958 -0.04009788 1.786701E-07
vn -0.9991958 -0.04009788 1.786701E-07

vt 0.5688477 0.2441406
vt 0.5688477 0.3115234
vt 0.5771484 0.3115234
vt 0.5771484 0.2441406
vt 0.5854492 0.3115234
vt 0.5854492 0.2441406
vt 0.59375 0.3115234
vt 0.59375 0.2441406
vt 0.6020508 0.3115234
vt 0.6020508 0.2441406
vt 0.6103516 0.3115234
vt 0.6103516 0.2441406
vt 0.6069336 0.2373047
vt 0.612793 0.2293701
vt 0.6069336 0.2213135
vt 0.5976563 0.2342529
vt 0.5976563 0.2243652
vt 0.5395508 0.3078613
vt 0.5449219 0.3078613
vt 0.5449219 0.2236328
vt 0.5395508 0.2236328
vt 0.5449219 0.3078613
vt 0.5488281 0.3078613
vt 0.5488281 0.2236328
vt 0.5449219 0.2236328
vt 0.5395508 0.3078613
vt 0.5449219 0.3078613
vt 0.5449219 0.2236328
vt 0.5395508 0.2236328
vt 0.515625 0.3078613
vt 0.5209961 0.3078613
vt 0.5209961 0.2236328
vt 0.515625 0.2236328
vt 0.5395508 0.2236328
vt 0.5449219 0.2236328
vt 0.5449219 0.2194824
vt 0.5395508 0.2194824
vt 0.5395508 0.3115234
vt 0.5449219 0.3115234
vt 0.5449219 0.3078613
vt 0.5395508 0.3078613
vt 0.5209961 0.3078613
vt 0.53125 0.3078613
vt 0.53125 0.2668457
vt 0.5209961 0.2668457
vt 0.5209961 0.2236328
vt 0.53125 0.2236328
vt 0.53125 0.3078613
vt 0.5351563 0.3078613
vt 0.5351563 0.2668457
vt 0.53125 0.2668457
vt 0.53125 0.2236328
vt 0.5351563 0.2236328
vt 0.5209961 0.3078613
vt 0.53125 0.3078613
vt 0.53125 0.2668457
vt 0.5209961 0.2668457
vt 0.53125 0.2236328
vt 0.5209961 0.2236328
vt 0.515625 0.3078613
vt 0.5209961 0.3078613
vt 0.5209961 0.2668457
vt 0.515625 0.2668457
vt 0.515625 0.2236328
vt 0.5209961 0.2236328
vt 0.5209961 0.2236328
vt 0.53125 0.2236328
vt 0.53125 0.2194824
vt 0.5209961 0.2194824
vt 0.5209961 0.3115234
vt 0.53125 0.3115234
vt 0.53125 0.3078613
vt 0.5209961 0.3078613
vt 0.5688477 0.2441406
vt 0.5688477 0.3115234
vt 0.5771484 0.3115234
vt 0.5771484 0.2441406
vt 0.5854492 0.3115234
vt 0.5854492 0.2441406
vt 0.59375 0.3115234
vt 0.59375 0.2441406
vt 0.6020508 0.3115234
vt 0.6020508 0.2441406
vt 0.6103516 0.3115234
vt 0.6103516 0.2441406
vt 0.5976563 0.2243652
vt 0.5976563 0.2342529
vt 0.6069336 0.2373047
vt 0.612793 0.2293701
vt 0.6069336 0.2213135
vt 0.534668 0.3078613
vt 0.5449219 0.3078613
vt 0.5449219 0.2236328
vt 0.534668 0.2236328
vt 0.5449219 0.3078613
vt 0.5488281 0.3078613
vt 0.5488281 0.2236328
vt 0.5449219 0.2236328
vt 0.534668 0.3078613
vt 0.5449219 0.3078613
vt 0.5449219 0.2236328
vt 0.534668 0.2236328
vt 0.515625 0.3078613
vt 0.5209961 0.3078613
vt 0.5209961 0.2236328
vt 0.515625 0.2236328
vt 0.534668 0.2236328
vt 0.5449219 0.2236328
vt 0.5449219 0.2194824
vt 0.534668 0.2194824
vt 0.534668 0.3115234
vt 0.5449219 0.3115234
vt 0.5449219 0.3078613
vt 0.534668 0.3078613

g Farm_fence3_1335_186
usemtl Farm_fence3_1335_186
usemap Farm_fence3_1335_186
f 1/1/1 3/3/3 2/2/2
f 1/1/1 4/4/4 3/3/3
f 4/4/4 5/5/5 3/3/3
f 4/4/4 6/6/6 5/5/5
f 6/6/6 7/7/7 5/5/5
f 6/6/6 8/8/8 7/7/7
f 8/8/8 9/9/9 7/7/7
f 8/8/8 10/10/10 9/9/9
f 10/10/10 11/11/11 9/9/9
f 10/10/10 12/12/12 11/11/11
f 13/13/13 15/15/15 14/14/14
f 15/15/15 13/13/13 16/16/16
f 15/15/15 16/16/16 17/17/17
f 18/18/18 20/20/20 19/19/19
f 18/18/18 21/21/21 20/20/20
f 22/22/22 24/24/24 23/23/23
f 22/22/22 25/25/25 24/24/24
f 26/26/26 28/28/28 27/27/27
f 26/26/26 29/29/29 28/28/28
f 30/30/30 32/32/32 31/31/31
f 30/30/30 33/33/33 32/32/32
f 34/34/34 36/36/36 35/35/35
f 34/34/34 37/37/37 36/36/36
f 38/38/38 40/40/40 39/39/39
f 38/38/38 41/41/41 40/40/40
f 42/42/42 44/44/44 43/43/43
f 42/42/42 45/45/45 44/44/44
f 44/44/44 45/45/45 46/46/46
f 44/44/44 46/46/46 47/47/47
f 48/48/48 50/50/50 49/49/49
f 48/48/48 51/51/51 50/50/50
f 50/50/50 51/51/51 52/52/52
f 50/50/50 52/52/52 53/53/53
f 54/54/54 56/56/56 55/55/55
f 54/54/54 57/57/57 56/56/56
f 57/57/57 58/58/58 56/56/56
f 57/57/57 59/59/59 58/58/58
f 60/60/60 62/62/62 61/61/61
f 60/60/60 63/63/63 62/62/62
f 62/62/62 63/63/63 64/64/64
f 62/62/62 64/64/64 65/65/65
f 66/66/66 68/68/68 67/67/67
f 66/66/66 69/69/69 68/68/68
f 70/70/70 72/72/72 71/71/71
f 70/70/70 73/73/73 72/72/72
f 74/74/74 76/76/76 75/75/75
f 74/74/74 77/77/77 76/76/76
f 77/77/77 78/78/78 76/76/76
f 77/77/77 79/79/79 78/78/78
f 79/79/79 80/80/80 78/78/78
f 79/79/79 81/81/81 80/80/80
f 81/81/81 82/82/82 80/80/80
f 81/81/81 83/83/83 82/82/82
f 83/83/83 84/84/84 82/82/82
f 83/83/83 85/85/85 84/84/84
f 86/86/86 88/88/88 87/87/87
f 88/88/88 86/86/86 89/89/89
f 89/89/89 86/86/86 90/90/90
f 91/91/91 93/93/93 92/92/92
f 91/91/91 94/94/94 93/93/93
f 95/95/95 97/97/97 96/96/96
f 95/95/95 98/98/98 97/97/97
f 99/99/99 101/101/101 100/100/100
f 99/99/99 102/102/102 101/101/101
f 103/103/103 105/105/105 104/104/104
f 103/103/103 106/106/106 105/105/105
f 107/107/107 109/109/109 108/108/108
f 107/107/107 110/110/110 109/109/109
f 111/111/111 113/113/113 112/112/112
f 111/111/111 114/114/114 113/113/113
