#Farm_fence3_1138_58.obj

v -1.290584 -0.3579713 -0.06899685
v -1.290584 1.472994 -0.06899674
v -1.234915 1.472994 0.1168019
v -1.234915 -0.3579713 0.1168018
v -1.041004 1.472994 0.1212751
v -1.041004 -0.3579713 0.121275
v -0.9768301 1.472994 -0.06176329
v -0.97683 -0.3579713 -0.06176339
v -1.131078 1.472994 -0.1793571
v -1.131078 -0.3579713 -0.1793572
v -1.290584 1.472994 -0.06899674
v -1.290584 -0.3579713 -0.06899685
v -1.290584 1.472994 -0.06899674
v -1.131078 1.472994 -0.1793571
v -0.9768301 1.472994 -0.06176329
v -1.234915 1.472994 0.1168019
v -1.041004 1.472994 0.1212751
v -1.500854 1.151192 0.219083
v -1.500854 1.33925 0.219083
v 1.480115 1.311537 0.2190856
v 1.480115 1.150898 0.2190856
v -1.500854 1.33925 0.219083
v -1.500853 1.33925 0.1212438
v 1.480114 1.311537 0.1212432
v 1.480115 1.311537 0.2190856
v -1.500853 1.33925 0.1212438
v -1.500853 1.151192 0.1212438
v 1.480114 1.150898 0.1212432
v 1.480114 1.311537 0.1212432
v -1.500853 1.151192 0.1212438
v -1.500854 1.151192 0.219083
v 1.480115 1.150898 0.2190856
v 1.480114 1.150898 0.1212432
v 1.480115 1.150898 0.2190856
v 1.480115 1.311537 0.2190856
v 1.480114 1.311537 0.1212432
v 1.480114 1.150898 0.1212432
v -1.500853 1.151192 0.1212438
v -1.500853 1.33925 0.1212438
v -1.500854 1.33925 0.219083
v -1.500854 1.151192 0.219083
v -1.476095 0.7826766 -0.1823527
v -1.469347 1.090114 -0.1802908
v -0.03360546 1.057129 0.04036188
v -0.0403529 0.7496929 0.03829998
v 1.471795 0.7149068 0.277568
v 1.47854 1.022343 0.2796267
v -1.469347 1.090114 -0.1802908
v -1.458853 1.090534 -0.2775666
v -0.02311138 1.05755 -0.0569139
v -0.03360546 1.057129 0.04036188
v 1.47854 1.022343 0.2796267
v 1.489034 1.022764 0.1823509
v -1.458853 1.090534 -0.2775666
v -1.465601 0.7830982 -0.2796284
v -0.02985672 0.7501125 -0.05897263
v -0.02311138 1.05755 -0.0569139
v 1.482289 0.7153283 0.1802922
v 1.489034 1.022764 0.1823509
v -1.465601 0.7830982 -0.2796284
v -1.476095 0.7826766 -0.1823527
v -0.0403529 0.7496929 0.03829998
v -0.02985672 0.7501125 -0.05897263
v 1.482289 0.7153283 0.1802922
v 1.471795 0.7149068 0.277568
v 1.471795 0.7149068 0.277568
v 1.47854 1.022343 0.2796267
v 1.489034 1.022764 0.1823509
v 1.482289 0.7153283 0.1802922
v -1.465601 0.7830982 -0.2796284
v -1.458853 1.090534 -0.2775666
v -1.469347 1.090114 -0.1802908
v -1.476095 0.7826766 -0.1823527
v 1.16314 -0.3579711 -0.05616789
v 1.206137 1.472994 -0.06606141
v 1.048737 1.472994 -0.1793991
v 1.048868 -0.3579711 -0.1384511
v 0.8923044 1.472994 -0.06472401
v 0.9353031 -0.3579711 -0.05519907
v 0.9530276 1.472994 0.119484
v 0.9793851 -0.3579711 0.07853893
v 1.146987 1.472994 0.1186598
v 1.120196 -0.3579711 0.07793789
v 1.206137 1.472994 -0.06606141
v 1.16314 -0.3579711 -0.05616789
v 0.8923044 1.472994 -0.06472401
v 1.048737 1.472994 -0.1793991
v 1.206137 1.472994 -0.06606141
v 1.146987 1.472994 0.1186598
v 0.9530276 1.472994 0.119484
v -1.477716 0.2577056 0.2190846
v -1.490047 0.5649756 0.2190848
v 1.488523 0.6845055 0.2190845
v 1.500854 0.3772355 0.2190843
v -1.490047 0.5649756 0.2190848
v -1.490048 0.5649757 0.1212424
v 1.488524 0.6845055 0.1212453
v 1.488523 0.6845055 0.2190845
v -1.490048 0.5649757 0.1212424
v -1.477717 0.2577056 0.1212422
v 1.500855 0.3772355 0.1212451
v 1.488524 0.6845055 0.1212453
v -1.477717 0.2577056 0.1212422
v -1.477716 0.2577056 0.2190846
v 1.500854 0.3772355 0.2190843
v 1.500855 0.3772355 0.1212451
v 1.500854 0.3772355 0.2190843
v 1.488523 0.6845055 0.2190845
v 1.488524 0.6845055 0.1212453
v 1.500855 0.3772355 0.1212451
v -1.477717 0.2577056 0.1212422
v -1.490048 0.5649757 0.1212424
v -1.490047 0.5649756 0.2190848
v -1.477716 0.2577056 0.2190846

vn -0.6022639 5.572248E-08 -0.798297
vn -0.6022639 5.572248E-08 -0.798297
vn -0.9453359 5.592708E-08 0.3260983
vn -0.9453359 5.592708E-08 0.3260983
vn 0.01801386 -2.115763E-08 0.9998378
vn 0.01801386 -2.115763E-08 0.9998378
vn 0.9564687 -6.900319E-08 0.291835
vn 0.9564687 -6.900319E-08 0.291835
vn 0.5731173 -2.148876E-08 -0.8194733
vn 0.5731173 -2.148876E-08 -0.8194733
vn -0.6022639 5.572248E-08 -0.798297
vn -0.6022639 5.572248E-08 -0.798297
vn 6.605018E-08 1 1.997105E-08
vn 6.605018E-08 1 1.997105E-08
vn 6.605018E-08 1 1.997105E-08
vn 6.605018E-08 1 1.997105E-08
vn 6.605018E-08 1 1.997105E-08
vn -0.5540692 1.997105E-08 0.8324707
vn -0.5540692 1.997105E-08 0.8324707
vn -0.5540692 1.997105E-08 0.8324707
vn -0.5540692 1.997105E-08 0.8324707
vn 0.00773906 0.9999568 0.005150877
vn 0.00773906 0.9999568 0.005150877
vn 0.00773906 0.9999568 0.005150877
vn 0.00773906 0.9999568 0.005150877
vn 0.5540692 -1.997105E-08 -0.8324707
vn 0.5540692 -1.997105E-08 -0.8324707
vn 0.5540692 -1.997105E-08 -0.8324707
vn 0.5540692 -1.997105E-08 -0.8324707
vn -8.206073E-05 -1 -5.459333E-05
vn -8.206073E-05 -1 -5.459333E-05
vn -8.206073E-05 -1 -5.459333E-05
vn -8.206073E-05 -1 -5.459333E-05
vn 0.8324707 -6.605018E-08 0.5540692
vn 0.8324707 -6.605018E-08 0.5540692
vn 0.8324707 -6.605018E-08 0.5540692
vn 0.8324707 -6.605018E-08 0.5540692
vn -0.8324707 6.605018E-08 -0.5540692
vn -0.8324707 6.605018E-08 -0.5540692
vn -0.8324707 6.605018E-08 -0.5540692
vn -0.8324707 6.605018E-08 -0.5540692
vn -0.6741444 -0.00328382 0.7385923
vn -0.6741444 -0.00328382 0.7385923
vn -0.6758236 -0.003232345 0.7370564
vn -0.6758236 -0.003232345 0.7370564
vn -0.6774135 -0.00318349 0.7355956
vn -0.6774135 -0.00318349 0.7355956
vn 0.01455493 0.9997369 0.01772819
vn 0.01455493 0.9997369 0.01772819
vn 0.01455466 0.9997369 0.01772858
vn 0.01455465 0.9997369 0.0177286
vn 0.0145544 0.9997369 0.01772898
vn 0.0145544 0.9997369 0.01772898
vn 0.6741444 0.00328402 -0.7385923
vn 0.6741444 0.00328402 -0.7385923
vn 0.6758235 0.003232364 -0.7370564
vn 0.6758236 0.003232365 -0.7370564
vn 0.6774135 0.003183337 -0.7355956
vn 0.6774135 0.003183337 -0.7355956
vn -0.01455398 -0.9997369 -0.01772932
vn -0.01455398 -0.9997369 -0.01772932
vn -0.01455414 -0.9997369 -0.0177291
vn -0.01455414 -0.9997369 -0.01772912
vn -0.01455429 -0.9997369 -0.01772891
vn -0.01455429 -0.9997369 -0.01772892
vn 0.7681065 -0.02253326 0.6399257
vn 0.7681065 -0.02253326 0.6399257
vn 0.7681065 -0.02253326 0.6399257
vn 0.7681065 -0.02253326 0.6399257
vn -0.7681064 0.0225297 -0.6399258
vn -0.7681064 0.0225297 -0.6399258
vn -0.7681064 0.0225297 -0.6399258
vn -0.7681064 0.0225297 -0.6399258
vn 0.9640229 -0.02398518 0.2647348
vn 0.9635817 -0.02398886 0.2663359
vn 0.5503929 -0.02235924 -0.8346064
vn 0.5503787 -0.02235924 -0.8346158
vn -0.6243131 -0.02394612 -0.7808071
vn -0.6230233 -0.02394248 -0.7818367
vn -0.9355633 -0.02655245 0.3521596
vn -0.935928 -0.02655101 0.3511891
vn 0.04478824 -0.02657863 0.9986429
vn 0.04579654 -0.02657726 0.9985972
vn 0.9635817 -0.02398886 0.2663359
vn 0.9640229 -0.02398518 0.2647348
vn 6.605018E-08 1 1.997105E-08
vn 6.605018E-08 1 1.997105E-08
vn 6.605018E-08 1 1.997105E-08
vn 6.605018E-08 1 1.997105E-08
vn 6.605018E-08 1 1.997105E-08
vn -0.5540692 1.997105E-08 0.8324707
vn -0.5540692 1.997105E-08 0.8324707
vn -0.5540692 1.997105E-08 0.8324707
vn -0.5540692 1.997105E-08 0.8324707
vn -0.03337971 0.9991958 -0.02221662
vn -0.03337971 0.9991958 -0.02221662
vn -0.03337971 0.9991958 -0.02221662
vn -0.03337971 0.9991958 -0.02221662
vn 0.5540692 -1.997105E-08 -0.8324707
vn 0.5540692 -1.997105E-08 -0.8324707
vn 0.5540692 -1.997105E-08 -0.8324707
vn 0.5540692 -1.997105E-08 -0.8324707
vn 0.0333797 -0.9991958 0.02221662
vn 0.0333797 -0.9991958 0.02221662
vn 0.0333797 -0.9991958 0.02221662
vn 0.0333797 -0.9991958 0.02221662
vn 0.8318011 0.04009781 0.5536236
vn 0.8318011 0.04009781 0.5536236
vn 0.8318011 0.04009781 0.5536236
vn 0.8318011 0.04009781 0.5536236
vn -0.8318011 -0.04009781 -0.5536236
vn -0.8318011 -0.04009781 -0.5536236
vn -0.8318011 -0.04009781 -0.5536236
vn -0.8318011 -0.04009781 -0.5536236

vt 0.5688477 0.2441406
vt 0.5688477 0.3115234
vt 0.5771484 0.3115234
vt 0.5771484 0.2441406
vt 0.5854492 0.3115234
vt 0.5854492 0.2441406
vt 0.59375 0.3115234
vt 0.59375 0.2441406
vt 0.6020508 0.3115234
vt 0.6020508 0.2441406
vt 0.6103516 0.3115234
vt 0.6103516 0.2441406
vt 0.6069336 0.2373047
vt 0.612793 0.2293701
vt 0.6069336 0.2213135
vt 0.5976563 0.2342529
vt 0.5976563 0.2243652
vt 0.5395508 0.3078613
vt 0.5449219 0.3078613
vt 0.5449219 0.2236328
vt 0.5395508 0.2236328
vt 0.5449219 0.3078613
vt 0.5488281 0.3078613
vt 0.5488281 0.2236328
vt 0.5449219 0.2236328
vt 0.5395508 0.3078613
vt 0.5449219 0.3078613
vt 0.5449219 0.2236328
vt 0.5395508 0.2236328
vt 0.515625 0.3078613
vt 0.5209961 0.3078613
vt 0.5209961 0.2236328
vt 0.515625 0.2236328
vt 0.5395508 0.2236328
vt 0.5449219 0.2236328
vt 0.5449219 0.2194824
vt 0.5395508 0.2194824
vt 0.5395508 0.3115234
vt 0.5449219 0.3115234
vt 0.5449219 0.3078613
vt 0.5395508 0.3078613
vt 0.5209961 0.3078613
vt 0.53125 0.3078613
vt 0.53125 0.2668457
vt 0.5209961 0.2668457
vt 0.5209961 0.2236328
vt 0.53125 0.2236328
vt 0.53125 0.3078613
vt 0.5351563 0.3078613
vt 0.5351563 0.2668457
vt 0.53125 0.2668457
vt 0.53125 0.2236328
vt 0.5351563 0.2236328
vt 0.5209961 0.3078613
vt 0.53125 0.3078613
vt 0.53125 0.2668457
vt 0.5209961 0.2668457
vt 0.53125 0.2236328
vt 0.5209961 0.2236328
vt 0.515625 0.3078613
vt 0.5209961 0.3078613
vt 0.5209961 0.2668457
vt 0.515625 0.2668457
vt 0.515625 0.2236328
vt 0.5209961 0.2236328
vt 0.5209961 0.2236328
vt 0.53125 0.2236328
vt 0.53125 0.2194824
vt 0.5209961 0.2194824
vt 0.5209961 0.3115234
vt 0.53125 0.3115234
vt 0.53125 0.3078613
vt 0.5209961 0.3078613
vt 0.5688477 0.2441406
vt 0.5688477 0.3115234
vt 0.5771484 0.3115234
vt 0.5771484 0.2441406
vt 0.5854492 0.3115234
vt 0.5854492 0.2441406
vt 0.59375 0.3115234
vt 0.59375 0.2441406
vt 0.6020508 0.3115234
vt 0.6020508 0.2441406
vt 0.6103516 0.3115234
vt 0.6103516 0.2441406
vt 0.5976563 0.2243652
vt 0.5976563 0.2342529
vt 0.6069336 0.2373047
vt 0.612793 0.2293701
vt 0.6069336 0.2213135
vt 0.534668 0.3078613
vt 0.5449219 0.3078613
vt 0.5449219 0.2236328
vt 0.534668 0.2236328
vt 0.5449219 0.3078613
vt 0.5488281 0.3078613
vt 0.5488281 0.2236328
vt 0.5449219 0.2236328
vt 0.534668 0.3078613
vt 0.5449219 0.3078613
vt 0.5449219 0.2236328
vt 0.534668 0.2236328
vt 0.515625 0.3078613
vt 0.5209961 0.3078613
vt 0.5209961 0.2236328
vt 0.515625 0.2236328
vt 0.534668 0.2236328
vt 0.5449219 0.2236328
vt 0.5449219 0.2194824
vt 0.534668 0.2194824
vt 0.534668 0.3115234
vt 0.5449219 0.3115234
vt 0.5449219 0.3078613
vt 0.534668 0.3078613

g Farm_fence3_1138_58
usemtl Farm_fence3_1138_58
usemap Farm_fence3_1138_58
f 1/1/1 3/3/3 2/2/2
f 1/1/1 4/4/4 3/3/3
f 4/4/4 5/5/5 3/3/3
f 4/4/4 6/6/6 5/5/5
f 6/6/6 7/7/7 5/5/5
f 6/6/6 8/8/8 7/7/7
f 8/8/8 9/9/9 7/7/7
f 8/8/8 10/10/10 9/9/9
f 10/10/10 11/11/11 9/9/9
f 10/10/10 12/12/12 11/11/11
f 13/13/13 15/15/15 14/14/14
f 15/15/15 13/13/13 16/16/16
f 15/15/15 16/16/16 17/17/17
f 18/18/18 20/20/20 19/19/19
f 18/18/18 21/21/21 20/20/20
f 22/22/22 24/24/24 23/23/23
f 22/22/22 25/25/25 24/24/24
f 26/26/26 28/28/28 27/27/27
f 26/26/26 29/29/29 28/28/28
f 30/30/30 32/32/32 31/31/31
f 30/30/30 33/33/33 32/32/32
f 34/34/34 36/36/36 35/35/35
f 34/34/34 37/37/37 36/36/36
f 38/38/38 40/40/40 39/39/39
f 38/38/38 41/41/41 40/40/40
f 42/42/42 44/44/44 43/43/43
f 42/42/42 45/45/45 44/44/44
f 44/44/44 45/45/45 46/46/46
f 44/44/44 46/46/46 47/47/47
f 48/48/48 50/50/50 49/49/49
f 48/48/48 51/51/51 50/50/50
f 50/50/50 51/51/51 52/52/52
f 50/50/50 52/52/52 53/53/53
f 54/54/54 56/56/56 55/55/55
f 54/54/54 57/57/57 56/56/56
f 57/57/57 58/58/58 56/56/56
f 57/57/57 59/59/59 58/58/58
f 60/60/60 62/62/62 61/61/61
f 60/60/60 63/63/63 62/62/62
f 62/62/62 63/63/63 64/64/64
f 62/62/62 64/64/64 65/65/65
f 66/66/66 68/68/68 67/67/67
f 66/66/66 69/69/69 68/68/68
f 70/70/70 72/72/72 71/71/71
f 70/70/70 73/73/73 72/72/72
f 74/74/74 76/76/76 75/75/75
f 74/74/74 77/77/77 76/76/76
f 77/77/77 78/78/78 76/76/76
f 77/77/77 79/79/79 78/78/78
f 79/79/79 80/80/80 78/78/78
f 79/79/79 81/81/81 80/80/80
f 81/81/81 82/82/82 80/80/80
f 81/81/81 83/83/83 82/82/82
f 83/83/83 84/84/84 82/82/82
f 83/83/83 85/85/85 84/84/84
f 86/86/86 88/88/88 87/87/87
f 88/88/88 86/86/86 89/89/89
f 89/89/89 86/86/86 90/90/90
f 91/91/91 93/93/93 92/92/92
f 91/91/91 94/94/94 93/93/93
f 95/95/95 97/97/97 96/96/96
f 95/95/95 98/98/98 97/97/97
f 99/99/99 101/101/101 100/100/100
f 99/99/99 102/102/102 101/101/101
f 103/103/103 105/105/105 104/104/104
f 103/103/103 106/106/106 105/105/105
f 107/107/107 109/109/109 108/108/108
f 107/107/107 110/110/110 109/109/109
f 111/111/111 113/113/113 112/112/112
f 111/111/111 114/114/114 113/113/113
