#Farm_fence1_2548_330.obj

v -1.494338 0.9278932 0.1995412
v -1.494338 1.274205 0.1995412
v 1.486632 1.22317 0.1995407
v 1.486632 0.9789283 0.1995407
v -1.494338 1.274205 0.1995412
v -1.494338 1.274205 0.1017015
v 1.486633 1.22317 0.101701
v 1.486632 1.22317 0.1995407
v -1.494338 1.274205 0.1017015
v -1.494338 0.9278932 0.1017015
v 1.486633 0.9789283 0.101701
v 1.486633 1.22317 0.101701
v -1.494338 0.9278932 0.1017015
v -1.494338 0.9278932 0.1995412
v 1.486632 0.9789283 0.1995407
v 1.486633 0.9789283 0.101701
v 1.486632 0.9789283 0.1995407
v 1.486632 1.22317 0.1995407
v 1.486633 1.22317 0.101701
v 1.486633 0.9789283 0.101701
v -1.494338 0.9278932 0.1017015
v -1.494338 1.274205 0.1017015
v -1.494338 1.274205 0.1995412
v -1.494338 0.9278932 0.1995412
v -1.504358 0.4754141 0.1965473
v -1.460515 0.893246 0.2011674
v -0.1019266 0.6144701 0.2006843
v -0.1252018 0.3926539 0.1982323
v 1.460333 0.1643026 0.1987205
v 1.504174 0.5821345 0.2033399
v -1.460515 0.893246 0.2011674
v -1.460332 0.8943079 0.1033306
v -0.1017435 0.615532 0.1028476
v -0.1019266 0.6144701 0.2006843
v 1.504357 0.5831963 0.1055031
v 1.504174 0.5821345 0.2033399
v -1.460332 0.8943079 0.1033306
v -1.504176 0.476476 0.09871402
v -0.1250186 0.3937158 0.1003955
v -0.1017435 0.615532 0.1028476
v 1.504357 0.5831963 0.1055031
v 1.460514 0.1653645 0.1008873
v -1.504176 0.476476 0.09871402
v -1.504358 0.4754141 0.1965473
v -0.1252018 0.3926539 0.1982323
v -0.1250186 0.3937158 0.1003955
v 1.460514 0.1653645 0.1008873
v 1.460333 0.1643026 0.1987205
v 1.460333 0.1643026 0.1987205
v 1.504174 0.5821345 0.2033399
v 1.504357 0.5831963 0.1055031
v 1.460514 0.1653645 0.1008873
v -1.504176 0.476476 0.09871402
v -1.460332 0.8943079 0.1033306
v -1.460515 0.893246 0.2011674
v -1.504358 0.4754141 0.1965473
v -1.244568 -0.3316803 -0.08636342
v -1.322033 1.440714 -0.09534133
v -1.269205 1.443968 0.09125957
v -1.19174 -0.3284262 0.1002375
v -1.075569 1.452469 0.0985927
v -0.9981039 -0.3199258 0.1075706
v -1.008724 1.454468 -0.08347402
v -0.9312594 -0.3179264 -0.07449611
v -1.161049 1.447203 -0.2033321
v -1.083582 -0.3251912 -0.1943535
v -1.322033 1.440714 -0.09534133
v -1.244568 -0.3316803 -0.08636342
v -1.322033 1.440714 -0.09534133
v -1.161049 1.447203 -0.2033321
v -1.008724 1.454468 -0.08347402
v -1.269205 1.443968 0.09125957
v -1.075569 1.452469 0.0985927
v 1.058838 -0.3341751 -0.07722992
v 1.327363 1.30931 -0.08560351
v 1.171505 1.331291 -0.1989419
v 0.9391229 -0.3172919 -0.1642873
v 1.016607 1.353136 -0.08427021
v 0.8201448 -0.3005127 -0.07620537
v 1.076732 1.344656 0.09994255
v 0.8663272 -0.3070258 0.06528668
v 1.268791 1.317571 0.09911919
v 1.013848 -0.3278303 0.06465223
v 1.327363 1.30931 -0.08560351
v 1.058838 -0.3341751 -0.07722992
v 1.016607 1.353136 -0.08427021
v 1.171505 1.331291 -0.1989419
v 1.327363 1.30931 -0.08560351
v 1.268791 1.317571 0.09911919
v 1.076732 1.344656 0.09994255

vn 0.3897377 0 0.9209259
vn 0.3897377 0 0.9209259
vn 0.3897377 0 0.9209259
vn 0.3897377 0 0.9209259
vn 0.0157642 0.9998535 -0.006671442
vn 0.0157642 0.9998535 -0.006671442
vn 0.0157642 0.9998535 -0.006671442
vn 0.0157642 0.9998535 -0.006671442
vn -0.3897377 0 -0.9209259
vn -0.3897377 0 -0.9209259
vn -0.3897377 0 -0.9209259
vn -0.3897377 0 -0.9209259
vn 0.01576422 -0.9998535 -0.006671449
vn 0.01576422 -0.9998535 -0.006671449
vn 0.01576422 -0.9998535 -0.006671449
vn 0.01576422 -0.9998535 -0.006671449
vn 0.9209259 0 -0.3897377
vn 0.9209259 0 -0.3897377
vn 0.9209259 0 -0.3897377
vn 0.9209259 0 -0.3897377
vn -0.9209259 0 0.3897377
vn -0.9209259 0 0.3897377
vn -0.9209259 0 0.3897377
vn -0.9209259 0 0.3897377
vn 0.3879902 -0.01085299 0.9215995
vn 0.3879902 -0.01085299 0.9215995
vn 0.3879902 -0.01085298 0.9215995
vn 0.3879902 -0.01085298 0.9215995
vn 0.3879902 -0.01085297 0.9215995
vn 0.3879902 -0.01085297 0.9215995
vn 0.1893947 0.9795297 -0.06820059
vn 0.1893947 0.9795297 -0.06820059
vn 0.1003829 0.9944798 -0.03054998
vn 0.1003828 0.9944798 -0.03054996
vn 0.02276333 0.9997385 0.002190276
vn 0.02276333 0.9997385 0.002190275
vn -0.3879902 0.01085297 -0.9215995
vn -0.3879902 0.01085297 -0.9215995
vn -0.3879902 0.01085296 -0.9215995
vn -0.3879902 0.01085296 -0.9215995
vn -0.3879902 0.01085296 -0.9215995
vn -0.3879902 0.01085296 -0.9215995
vn -0.05941383 -0.9981454 0.01325867
vn -0.05941383 -0.9981454 0.01325867
vn -0.1003829 -0.9944798 0.03054969
vn -0.1003829 -0.9944798 0.03054968
vn -0.1355584 -0.989728 0.04541441
vn -0.1355584 -0.989728 0.04541442
vn 0.9161804 -0.1043659 -0.3869382
vn 0.9161804 -0.1043659 -0.3869382
vn 0.9161804 -0.1043659 -0.3869382
vn 0.9161804 -0.1043659 -0.3869382
vn -0.9161783 0.1043673 0.3869427
vn -0.9161783 0.1043673 0.3869427
vn -0.9161783 0.1043673 0.3869427
vn -0.9161783 0.1043673 0.3869427
vn -0.9979337 -0.0427315 0.0479809
vn -0.9979338 -0.04273151 0.04798114
vn -0.2622868 -0.02300832 0.9647157
vn -0.2622871 -0.02300834 0.9647156
vn 0.8358315 0.02851136 0.5482453
vn 0.8358313 0.02851136 0.5482455
vn 0.7788594 0.04062898 -0.6258811
vn 0.7788593 0.04062897 -0.6258814
vn -0.3544693 -0.003401377 -0.9350614
vn -0.3544692 -0.003401374 -0.9350615
vn -0.9979338 -0.04273151 0.04798114
vn -0.9979337 -0.0427315 0.0479809
vn -0.04218432 0.9990335 0.01235728
vn -0.04218433 0.9990335 0.01235728
vn -0.04218433 0.9990335 0.01235728
vn -0.04218433 0.9990335 0.01235728
vn -0.04218433 0.9990335 0.01235728
vn 0.7404945 -0.1546661 -0.6540231
vn 0.7415076 -0.1547368 -0.6528577
vn -0.3961969 -0.02001449 -0.9179474
vn -0.3962111 -0.02001233 -0.9179413
vn -0.989868 0.1109231 0.08864227
vn -0.9900106 0.1108608 0.08711421
vn -0.2192253 0.05704779 0.974005
vn -0.2201592 0.05715838 0.9737879
vn 0.8497806 -0.1069797 0.5161672
vn 0.8502552 -0.1070844 0.515363
vn 0.7415076 -0.1547368 -0.6528577
vn 0.7404945 -0.1546661 -0.6540231
vn 0.1286034 0.9902015 -0.0544252
vn 0.1286034 0.9902015 -0.05442521
vn 0.1286034 0.9902015 -0.05442521
vn 0.1286034 0.9902015 -0.0544252
vn 0.1286034 0.9902015 -0.0544252

vt 0.5209961 0.3078613
vt 0.53125 0.3078613
vt 0.53125 0.2236328
vt 0.5209961 0.2236328
vt 0.53125 0.3078613
vt 0.5351563 0.3078613
vt 0.5351563 0.2236328
vt 0.53125 0.2236328
vt 0.5209961 0.3078613
vt 0.53125 0.3078613
vt 0.53125 0.2236328
vt 0.5209961 0.2236328
vt 0.515625 0.3078613
vt 0.5209961 0.3078613
vt 0.5209961 0.2236328
vt 0.515625 0.2236328
vt 0.5209961 0.2236328
vt 0.53125 0.2236328
vt 0.53125 0.2194824
vt 0.5209961 0.2194824
vt 0.5209961 0.3115234
vt 0.53125 0.3115234
vt 0.53125 0.3078613
vt 0.5209961 0.3078613
vt 0.5209961 0.3078613
vt 0.53125 0.3078613
vt 0.53125 0.2687988
vt 0.5209961 0.2687988
vt 0.5209961 0.2236328
vt 0.53125 0.2236328
vt 0.53125 0.3078613
vt 0.5351563 0.3078613
vt 0.5351563 0.2687988
vt 0.53125 0.2687988
vt 0.5351563 0.2236328
vt 0.53125 0.2236328
vt 0.5209961 0.3078613
vt 0.53125 0.3078613
vt 0.53125 0.2687988
vt 0.5209961 0.2687988
vt 0.5209961 0.2236328
vt 0.53125 0.2236328
vt 0.515625 0.3078613
vt 0.5209961 0.3078613
vt 0.5209961 0.2687988
vt 0.515625 0.2687988
vt 0.515625 0.2236328
vt 0.5209961 0.2236328
vt 0.5209961 0.2236328
vt 0.53125 0.2236328
vt 0.53125 0.2194824
vt 0.5209961 0.2194824
vt 0.5209961 0.3115234
vt 0.53125 0.3115234
vt 0.53125 0.3078613
vt 0.5209961 0.3078613
vt 0.5688477 0.2441406
vt 0.5688477 0.3115234
vt 0.5771484 0.3115234
vt 0.5771484 0.2441406
vt 0.5854492 0.3115234
vt 0.5854492 0.2441406
vt 0.59375 0.3115234
vt 0.59375 0.2441406
vt 0.6020508 0.3115234
vt 0.6020508 0.2441406
vt 0.6103516 0.3115234
vt 0.6103516 0.2441406
vt 0.6069336 0.2373047
vt 0.612793 0.2293701
vt 0.6069336 0.2213135
vt 0.5976563 0.2342529
vt 0.5976563 0.2243652
vt 0.5688477 0.2441406
vt 0.5688477 0.3115234
vt 0.5771484 0.3115234
vt 0.5771484 0.2441406
vt 0.5854492 0.3115234
vt 0.5854492 0.2441406
vt 0.59375 0.3115234
vt 0.59375 0.2441406
vt 0.6020508 0.3115234
vt 0.6020508 0.2441406
vt 0.6103516 0.3115234
vt 0.6103516 0.2441406
vt 0.5976563 0.2243652
vt 0.5976563 0.2342529
vt 0.6069336 0.2373047
vt 0.612793 0.2293701
vt 0.6069336 0.2213135

g Farm_fence1_2548_330
usemtl Farm_fence1_2548_330
usemap Farm_fence1_2548_330
f 1/1/1 3/3/3 2/2/2
f 1/1/1 4/4/4 3/3/3
f 5/5/5 7/7/7 6/6/6
f 5/5/5 8/8/8 7/7/7
f 9/9/9 11/11/11 10/10/10
f 9/9/9 12/12/12 11/11/11
f 13/13/13 15/15/15 14/14/14
f 13/13/13 16/16/16 15/15/15
f 17/17/17 19/19/19 18/18/18
f 17/17/17 20/20/20 19/19/19
f 21/21/21 23/23/23 22/22/22
f 21/21/21 24/24/24 23/23/23
f 25/25/25 27/27/27 26/26/26
f 25/25/25 28/28/28 27/27/27
f 27/27/27 28/28/28 29/29/29
f 27/27/27 29/29/29 30/30/30
f 31/31/31 33/33/33 32/32/32
f 31/31/31 34/34/34 33/33/33
f 34/34/34 35/35/35 33/33/33
f 34/34/34 36/36/36 35/35/35
f 37/37/37 39/39/39 38/38/38
f 37/37/37 40/40/40 39/39/39
f 39/39/39 40/40/40 41/41/41
f 39/39/39 41/41/41 42/42/42
f 43/43/43 45/45/45 44/44/44
f 43/43/43 46/46/46 45/45/45
f 45/45/45 46/46/46 47/47/47
f 45/45/45 47/47/47 48/48/48
f 49/49/49 51/51/51 50/50/50
f 49/49/49 52/52/52 51/51/51
f 53/53/53 55/55/55 54/54/54
f 53/53/53 56/56/56 55/55/55
f 57/57/57 59/59/59 58/58/58
f 57/57/57 60/60/60 59/59/59
f 60/60/60 61/61/61 59/59/59
f 60/60/60 62/62/62 61/61/61
f 62/62/62 63/63/63 61/61/61
f 62/62/62 64/64/64 63/63/63
f 64/64/64 65/65/65 63/63/63
f 64/64/64 66/66/66 65/65/65
f 66/66/66 67/67/67 65/65/65
f 66/66/66 68/68/68 67/67/67
f 69/69/69 71/71/71 70/70/70
f 71/71/71 69/69/69 72/72/72
f 71/71/71 72/72/72 73/73/73
f 74/74/74 76/76/76 75/75/75
f 74/74/74 77/77/77 76/76/76
f 77/77/77 78/78/78 76/76/76
f 77/77/77 79/79/79 78/78/78
f 79/79/79 80/80/80 78/78/78
f 79/79/79 81/81/81 80/80/80
f 81/81/81 82/82/82 80/80/80
f 81/81/81 83/83/83 82/82/82
f 83/83/83 84/84/84 82/82/82
f 83/83/83 85/85/85 84/84/84
f 86/86/86 88/88/88 87/87/87
f 88/88/88 86/86/86 89/89/89
f 89/89/89 86/86/86 90/90/90
