#Farm_fence2_2846_167.obj

v -1.07184 -0.3255005 -0.1223593
v -1.0643 1.33938 -0.1969017
v -1.235365 1.33938 -0.1054814
v -1.160358 -0.3255005 -0.07505246
v -1.20128 1.33938 0.08546445
v -1.142721 -0.3255005 0.02375067
v -1.009149 1.33938 0.1120501
v -1.043305 -0.3255005 0.037508
v -0.9244915 1.33938 -0.06245792
v -0.9994974 -0.3255005 -0.0527901
v -1.0643 1.33938 -0.1969017
v -1.07184 -0.3255005 -0.1223593
v -1.235365 1.33938 -0.1054814
v -1.0643 1.33938 -0.1969017
v -0.9244915 1.33938 -0.06245792
v -1.20128 1.33938 0.08546445
v -1.009149 1.33938 0.1120501
v -1.624873 0.1157588 0.2258146
v -1.643909 0.4042727 0.2258147
v 1.55684 0.7421692 0.2258171
v 1.584202 0.3275353 0.225816
v -1.643909 0.4042727 0.2258147
v -1.643913 0.4042727 0.1193339
v 1.556839 0.7421692 0.1193332
v 1.55684 0.7421692 0.2258171
v -1.643913 0.4042727 0.1193339
v -1.624871 0.1157588 0.1193329
v 1.584204 0.3275353 0.1193344
v 1.556839 0.7421692 0.1193332
v -1.624871 0.1157588 0.1193329
v -1.624873 0.1157588 0.2258146
v 1.584202 0.3275353 0.225816
v 1.584204 0.3275353 0.1193344
v 1.584202 0.3275353 0.225816
v 1.55684 0.7421692 0.2258171
v 1.556839 0.7421692 0.1193332
v 1.584204 0.3275353 0.1193344
v -1.624871 0.1157588 0.1193329
v -1.643913 0.4042727 0.1193339
v -1.643909 0.4042727 0.2258147
v -1.624873 0.1157588 0.2258146
v -1.572145 0.697171 0.2258142
v -1.572145 1.144681 0.2258142
v -0.03842932 0.9289538 0.1552493
v -0.03843036 0.7328834 0.2247889
v 1.643913 0.7804482 0.2258151
v 1.643913 1.144681 0.2258151
v -1.572145 1.144681 0.2258142
v -1.572143 1.144681 0.1193326
v -0.03843102 0.9047476 0.051557
v -0.03842932 0.9289538 0.1552493
v 1.643909 1.144681 0.1193344
v 1.643913 1.144681 0.2258151
v -1.572143 1.144681 0.1193326
v -1.572143 0.697171 0.1193326
v -0.03842896 0.7086773 0.1210988
v -0.03843102 0.9047476 0.051557
v 1.643909 1.144681 0.1193344
v 1.643909 0.7804482 0.1193344
v -1.572143 0.697171 0.1193326
v -1.572145 0.697171 0.2258142
v -0.03843036 0.7328834 0.2247889
v -0.03842896 0.7086773 0.1210988
v 1.643909 0.7804482 0.1193344
v 1.643913 0.7804482 0.2258151
v 1.643913 0.7804482 0.2258151
v 1.643913 1.144681 0.2258151
v 1.643909 1.144681 0.1193344
v 1.643909 0.7804482 0.1193344
v -1.572143 0.697171 0.1193326
v -1.572143 1.144681 0.1193326
v -1.572145 1.144681 0.2258142
v -1.572145 0.697171 0.2258142
v 1.13769 -0.3255005 0.1292804
v 1.154714 1.20302 0.1018901
v 1.348638 1.20302 0.09809162
v 1.366981 -0.3255005 0.1247863
v 1.40495 1.20302 -0.08751395
v 1.433564 -0.3255005 -0.09467465
v 1.245827 1.20302 -0.1984267
v 1.24542 -0.3255005 -0.225817
v 1.091175 1.20302 -0.08136532
v 1.062559 -0.3255005 -0.08740126
v 1.154714 1.20302 0.1018901
v 1.13769 -0.3255005 0.1292804
v 1.091175 1.20302 -0.08136532
v 1.245827 1.20302 -0.1984267
v 1.40495 1.20302 -0.08751395
v 1.348638 1.20302 0.09809162
v 1.154714 1.20302 0.1018901

vn -0.4643658 -0.04492487 -0.8845033
vn -0.4654576 -0.0449269 -0.8839291
vn -0.9842367 -0.04845735 0.1700885
vn -0.9846439 -0.04844962 0.167717
vn -0.1434479 -0.05103068 0.9883413
vn -0.1436991 -0.05103059 0.9883049
vn 0.8951626 -0.04910086 0.4430271
vn 0.8961583 -0.04909411 0.4410102
vn 0.6978676 -0.0453259 -0.7147911
vn 0.6966901 -0.0453223 -0.7159391
vn -0.4654576 -0.0449269 -0.8839291
vn -0.4643658 -0.04492487 -0.8845033
vn 0 1 0
vn 0 1 0
vn 0 1 0
vn 0 1 0
vn 0 1 0
vn 0.5823135 0 0.8129643
vn 0.5823135 0 0.8129643
vn 0.5823135 0 0.8129643
vn 0.5823135 0 0.8129643
vn -0.08534867 0.9944738 0.06113391
vn -0.08534867 0.9944738 0.06113391
vn -0.08534867 0.9944738 0.06113391
vn -0.08534867 0.9944738 0.06113391
vn -0.5823135 0 -0.8129643
vn -0.5823135 0 -0.8129643
vn -0.5823135 0 -0.8129643
vn -0.5823135 0 -0.8129643
vn 0.05353357 -0.9978296 -0.03834524
vn 0.05353357 -0.9978296 -0.03834524
vn 0.05353357 -0.9978296 -0.03834524
vn 0.05353357 -0.9978296 -0.03834524
vn 0.8111998 0.06584952 -0.5810496
vn 0.8111998 0.06584952 -0.5810496
vn 0.8111998 0.06584952 -0.5810496
vn 0.8111998 0.06584952 -0.5810496
vn -0.8111998 -0.06585034 0.5810496
vn -0.8111998 -0.06585034 0.5810496
vn -0.8111998 -0.06585034 0.5810496
vn -0.8111998 -0.06585034 0.5810496
vn 0.60267 0.1073815 0.7907327
vn 0.60267 0.1073815 0.7907327
vn 0.5785524 0.1151043 0.8074827
vn 0.5788645 0.1150061 0.8072729
vn 0.5526177 0.1231102 0.8242921
vn 0.5526177 0.1231102 0.8242921
vn 0.04865929 0.9835096 -0.1741869
vn 0.04865929 0.9835096 -0.1741869
vn -0.06687362 0.9934329 -0.09283835
vn -0.06640399 0.9934329 -0.09317474
vn -0.1707405 0.9851646 -0.01726881
vn -0.1707405 0.9851646 -0.01726881
vn -0.6025811 -0.1073819 -0.7908003
vn -0.6025811 -0.1073819 -0.7908003
vn -0.57876 -0.1150085 -0.8073475
vn -0.5784641 -0.1151015 -0.8075463
vn -0.5525118 -0.1231098 -0.8243633
vn -0.5525118 -0.1231098 -0.8243633
vn 0.07902597 -0.9933173 0.08411652
vn 0.07902597 -0.9933173 0.08411652
vn 0.08753928 -0.9931036 0.07798838
vn 0.08747966 -0.9931054 0.07803135
vn 0.09523092 -0.992816 0.07243831
vn 0.09523092 -0.992816 0.07243831
vn 0.8129643 0 -0.5823135
vn 0.8129643 0 -0.5823135
vn 0.8129643 0 -0.5823135
vn 0.8129643 0 -0.5823135
vn -0.8129643 0 0.5823135
vn -0.8129643 0 0.5823135
vn -0.8129643 0 0.5823135
vn -0.8129643 0 0.5823135
vn 0.01326388 0.02106454 0.9996901
vn 0.01243511 0.02106362 0.9997007
vn 0.9548416 0.0211632 0.2963606
vn 0.954626 0.02116391 0.2970544
vn 0.5767168 0.01921736 -0.816718
vn 0.5777602 0.01921954 -0.8159802
vn -0.598061 0.0179168 -0.8012503
vn -0.5980104 0.01791681 -0.801288
vn -0.9470327 0.01905657 0.3205711
vn -0.9466348 0.01905862 0.3217442
vn 0.01243511 0.02106362 0.9997007
vn 0.01326388 0.02106454 0.9996901
vn 0 1 0
vn 0 1 0
vn 0 1 0
vn 0 1 0
vn 0 1 0

vt 0.5688477 0.2441406
vt 0.5688477 0.3115234
vt 0.5771484 0.3115234
vt 0.5771484 0.2441406
vt 0.5854492 0.3115234
vt 0.5854492 0.2441406
vt 0.59375 0.3115234
vt 0.59375 0.2441406
vt 0.6020508 0.3115234
vt 0.6020508 0.2441406
vt 0.6103516 0.3115234
vt 0.6103516 0.2441406
vt 0.5976563 0.2342529
vt 0.6069336 0.2373047
vt 0.612793 0.2293701
vt 0.5976563 0.2243652
vt 0.6069336 0.2213135
vt 0.5493164 0.3078613
vt 0.5605469 0.3078613
vt 0.5605469 0.2236328
vt 0.5493164 0.2236328
vt 0.5605469 0.3078613
vt 0.5644531 0.3078613
vt 0.5644531 0.2236328
vt 0.5605469 0.2236328
vt 0.5605469 0.2236328
vt 0.5493164 0.2236328
vt 0.5493164 0.3078613
vt 0.5605469 0.3078613
vt 0.515625 0.3078613
vt 0.5209961 0.3078613
vt 0.5209961 0.2236328
vt 0.515625 0.2236328
vt 0.5493164 0.2236328
vt 0.5605469 0.2236328
vt 0.5605469 0.2194824
vt 0.5493164 0.2194824
vt 0.5493164 0.3115234
vt 0.5605469 0.3115234
vt 0.5605469 0.3078613
vt 0.5493164 0.3078613
vt 0.5209961 0.3078613
vt 0.53125 0.3078613
vt 0.53125 0.2675781
vt 0.5209961 0.2675781
vt 0.5209961 0.2236328
vt 0.53125 0.2236328
vt 0.53125 0.3078613
vt 0.5351563 0.3078613
vt 0.5351563 0.2675781
vt 0.53125 0.2675781
vt 0.5351563 0.2236328
vt 0.53125 0.2236328
vt 0.53125 0.2236328
vt 0.5209961 0.2236328
vt 0.5209961 0.2636719
vt 0.53125 0.2636719
vt 0.53125 0.3078613
vt 0.5209961 0.3078613
vt 0.515625 0.3078613
vt 0.5209961 0.3078613
vt 0.5209961 0.2675781
vt 0.515625 0.2675781
vt 0.515625 0.2236328
vt 0.5209961 0.2236328
vt 0.5209961 0.2236328
vt 0.53125 0.2236328
vt 0.53125 0.2194824
vt 0.5209961 0.2194824
vt 0.5209961 0.3115234
vt 0.53125 0.3115234
vt 0.53125 0.3078613
vt 0.5209961 0.3078613
vt 0.5688477 0.2441406
vt 0.5688477 0.3115234
vt 0.5771484 0.3115234
vt 0.5771484 0.2441406
vt 0.5854492 0.3115234
vt 0.5854492 0.2441406
vt 0.59375 0.3115234
vt 0.59375 0.2441406
vt 0.6020508 0.3115234
vt 0.6020508 0.2441406
vt 0.6103516 0.3115234
vt 0.6103516 0.2441406
vt 0.612793 0.2293701
vt 0.6069336 0.2213135
vt 0.5976563 0.2243652
vt 0.5976563 0.2342529
vt 0.6069336 0.2373047

g Farm_fence2_2846_167
usemtl Farm_fence2_2846_167
usemap Farm_fence2_2846_167
f 1/1/1 3/3/3 2/2/2
f 1/1/1 4/4/4 3/3/3
f 4/4/4 5/5/5 3/3/3
f 4/4/4 6/6/6 5/5/5
f 6/6/6 7/7/7 5/5/5
f 6/6/6 8/8/8 7/7/7
f 8/8/8 9/9/9 7/7/7
f 8/8/8 10/10/10 9/9/9
f 10/10/10 11/11/11 9/9/9
f 10/10/10 12/12/12 11/11/11
f 13/13/13 15/15/15 14/14/14
f 15/15/15 13/13/13 16/16/16
f 15/15/15 16/16/16 17/17/17
f 18/18/18 20/20/20 19/19/19
f 18/18/18 21/21/21 20/20/20
f 22/22/22 24/24/24 23/23/23
f 22/22/22 25/25/25 24/24/24
f 26/26/26 28/28/28 27/27/27
f 26/26/26 29/29/29 28/28/28
f 30/30/30 32/32/32 31/31/31
f 30/30/30 33/33/33 32/32/32
f 34/34/34 36/36/36 35/35/35
f 34/34/34 37/37/37 36/36/36
f 38/38/38 40/40/40 39/39/39
f 38/38/38 41/41/41 40/40/40
f 42/42/42 44/44/44 43/43/43
f 42/42/42 45/45/45 44/44/44
f 44/44/44 45/45/45 46/46/46
f 44/44/44 46/46/46 47/47/47
f 48/48/48 50/50/50 49/49/49
f 48/48/48 51/51/51 50/50/50
f 51/51/51 52/52/52 50/50/50
f 51/51/51 53/53/53 52/52/52
f 54/54/54 56/56/56 55/55/55
f 54/54/54 57/57/57 56/56/56
f 56/56/56 57/57/57 58/58/58
f 56/56/56 58/58/58 59/59/59
f 60/60/60 62/62/62 61/61/61
f 60/60/60 63/63/63 62/62/62
f 62/62/62 63/63/63 64/64/64
f 62/62/62 64/64/64 65/65/65
f 66/66/66 68/68/68 67/67/67
f 66/66/66 69/69/69 68/68/68
f 70/70/70 72/72/72 71/71/71
f 70/70/70 73/73/73 72/72/72
f 74/74/74 76/76/76 75/75/75
f 74/74/74 77/77/77 76/76/76
f 77/77/77 78/78/78 76/76/76
f 77/77/77 79/79/79 78/78/78
f 79/79/79 80/80/80 78/78/78
f 79/79/79 81/81/81 80/80/80
f 81/81/81 82/82/82 80/80/80
f 81/81/81 83/83/83 82/82/82
f 83/83/83 84/84/84 82/82/82
f 83/83/83 85/85/85 84/84/84
f 86/86/86 88/88/88 87/87/87
f 88/88/88 86/86/86 89/89/89
f 89/89/89 86/86/86 90/90/90
