#Fence1_1091_96.obj

v -0.0883975 -0.2586824 0.09259796
v -0.1259818 1.462644 0.1319656
v 0.1259818 1.462644 0.1319656
v 0.0883975 -0.2586824 0.09259796
v -0.1259818 1.462644 0.1319656
v -0.1259818 1.462644 -0.1319656
v 0.1259818 1.462644 -0.1319656
v 0.1259818 1.462644 0.1319656
v -0.1259818 1.462644 -0.1319656
v -0.0883975 -0.2586824 -0.09259796
v 0.0883975 -0.2586824 -0.09259796
v 0.1259818 1.462644 -0.1319656
v 0.0883975 -0.2586824 0.09259796
v 0.1259818 1.462644 0.1319656
v 0.1259818 1.462644 -0.1319656
v 0.0883975 -0.2586824 -0.09259796
v -0.0883975 -0.2586824 -0.09259796
v -0.1259818 1.462644 -0.1319656
v -0.1259818 1.462644 0.1319656
v -0.0883975 -0.2586824 0.09259796
v 2.932184 0.9878287 0.006874084
v 0.09336376 0.9878287 0.006874084
v 0.09336376 1.26934 0.006874084
v 2.932184 1.26934 0.006874084
v 0.09336376 0.9878287 -0.05847931
v 2.932184 0.9878287 -0.05847931
v 2.932184 1.26934 -0.05847931
v 0.09336376 1.26934 -0.05847931
v 2.932184 1.26934 0.006874084
v 0.09336376 1.26934 0.006874084
v 0.09336376 1.26934 -0.05847931
v 2.932184 1.26934 -0.05847931
v 2.932184 0.9878287 -0.05847931
v 0.09336376 0.9878287 -0.05847931
v 0.09336376 0.9878287 0.006874084
v 2.932184 0.9878287 0.006874084
v 0.581706 1.296463 0.03474426
v 0.555685 0.07254887 0.03474426
v 0.3184481 0.07254887 0.03474426
v 0.2924271 1.296463 0.03474426
v 0.4370666 1.497952 0.03474426
v 0.555685 0.07254887 0.03474426
v 0.581706 1.296463 0.03474426
v 0.2924271 1.296463 0.03474426
v 0.3184481 0.07254887 0.03474426
v 0.4370666 1.497952 0.03474426
v 2.932184 0.3296037 0.006874084
v 0.09336376 0.3296036 0.006874084
v 0.09336376 0.6111146 0.006874084
v 2.932184 0.6111144 0.006874084
v 0.09336376 0.3296036 -0.05847931
v 2.932184 0.3296037 -0.05847931
v 2.932184 0.6111144 -0.05847931
v 0.09336376 0.6111146 -0.05847931
v 2.932184 0.6111144 0.006874084
v 0.09336376 0.6111146 0.006874084
v 0.09336376 0.6111146 -0.05847931
v 2.932184 0.6111144 -0.05847931
v 2.932184 0.3296037 -0.05847931
v 0.09336376 0.3296036 -0.05847931
v 0.09336376 0.3296036 0.006874084
v 2.932184 0.3296037 0.006874084
v 1.113993 1.296463 0.03474426
v 1.087972 0.07254887 0.03474426
v 0.8507347 0.07254887 0.03474426
v 0.8247137 1.296463 0.03474426
v 0.9693532 1.497952 0.03474426
v 1.087972 0.07254887 0.03474426
v 1.113993 1.296463 0.03474426
v 0.8247137 1.296463 0.03474426
v 0.8507347 0.07254887 0.03474426
v 0.9693532 1.497952 0.03474426
v 1.64628 1.296463 0.03474426
v 1.620259 0.07254887 0.03474426
v 1.383021 0.07254887 0.03474426
v 1.357001 1.296463 0.03474426
v 1.50164 1.497952 0.03474426
v 1.620259 0.07254887 0.03474426
v 1.64628 1.296463 0.03474426
v 1.357001 1.296463 0.03474426
v 1.383021 0.07254887 0.03474426
v 1.50164 1.497952 0.03474426
v 2.178566 1.296463 0.03474426
v 2.152546 0.07254887 0.03474426
v 1.915308 0.07254887 0.03474426
v 1.889288 1.296463 0.03474426
v 2.033927 1.497952 0.03474426
v 2.152546 0.07254887 0.03474426
v 2.178566 1.296463 0.03474426
v 1.889288 1.296463 0.03474426
v 1.915308 0.07254887 0.03474426
v 2.033927 1.497952 0.03474426
v 2.710854 1.296463 0.03474426
v 2.684833 0.07254887 0.03474426
v 2.447595 0.07254887 0.03474426
v 2.421575 1.296463 0.03474426
v 2.566214 1.497952 0.03474426
v 2.684833 0.07254887 0.03474426
v 2.710854 1.296463 0.03474426
v 2.421575 1.296463 0.03474426
v 2.447595 0.07254887 0.03474426
v 2.566214 1.497952 0.03474426

vn 0 -0.02286581 0.9997386
vn 0 -0.0228658 0.9997386
vn 0 -0.0228658 0.9997386
vn 0 -0.02286581 0.9997386
vn 0 1 0
vn 0 1 0
vn 0 1 0
vn 0 1 0
vn 0 -0.02286581 -0.9997386
vn 0 -0.02286581 -0.9997386
vn 0 -0.02286581 -0.9997386
vn 0 -0.02286581 -0.9997386
vn 0.9997617 -0.02182934 0
vn 0.9997617 -0.02182933 0
vn 0.9997617 -0.02182933 0
vn 0.9997617 -0.02182934 0
vn -0.9997617 -0.02182934 0
vn -0.9997617 -0.02182933 0
vn -0.9997617 -0.02182933 0
vn -0.9997617 -0.02182934 0
vn 0 0 1
vn 0 0 1
vn 0 0 1
vn 0 0 1
vn 0 0 -1
vn 0 0 -1
vn 0 0 -1
vn 0 0 -1
vn 0 1 0
vn 0 1 0
vn 0 1 0
vn 0 1 0
vn 0 -1 0
vn 0 -1 0
vn 0 -1 0
vn 0 -1 0
vn 0 0 1
vn 0 0 1
vn 0 0 1
vn 0 0 1
vn 0 0 1
vn 0 0 -1
vn 0 0 -1
vn 0 0 -1
vn 0 0 -1
vn 0 0 -1
vn 0 0 1
vn 0 0 1
vn 0 0 1
vn 0 0 1
vn 0 0 -1
vn 0 0 -1
vn 0 0 -1
vn 0 0 -1
vn 0 1 0
vn 0 1 0
vn 0 1 0
vn 0 1 0
vn 0 -1 0
vn 0 -1 0
vn 0 -1 0
vn 0 -1 0
vn 0 0 1
vn 0 0 1
vn 0 0 1
vn 0 0 1
vn 0 0 1
vn 0 0 -1
vn 0 0 -1
vn 0 0 -1
vn 0 0 -1
vn 0 0 -1
vn 0 0 1
vn 0 0 1
vn 0 0 1
vn 0 0 1
vn 0 0 1
vn 0 0 -1
vn 0 0 -1
vn 0 0 -1
vn 0 0 -1
vn 0 0 -1
vn 0 0 1
vn 0 0 1
vn 0 0 1
vn 0 0 1
vn 0 0 1
vn 0 0 -1
vn 0 0 -1
vn 0 0 -1
vn 0 0 -1
vn 0 0 -1
vn 0 0 1
vn 0 0 1
vn 0 0 1
vn 0 0 1
vn 0 0 1
vn 0 0 -1
vn 0 0 -1
vn 0 0 -1
vn 0 0 -1
vn 0 0 -1

vt 0.2570801 0.1746826
vt 0.3840332 0.1746826
vt 0.3840332 0.163208
vt 0.2570801 0.163208
vt 0.3820801 0.1730957
vt 0.3820801 0.1657715
vt 0.3723145 0.1657715
vt 0.3723145 0.1730957
vt 0.3840332 0.163208
vt 0.2570801 0.163208
vt 0.2570801 0.1746826
vt 0.3840332 0.1746826
vt 0.2570801 0.1746826
vt 0.3840332 0.1746826
vt 0.3840332 0.163208
vt 0.2570801 0.163208
vt 0.2570801 0.1746826
vt 0.3840332 0.1746826
vt 0.3840332 0.163208
vt 0.2570801 0.163208
vt 0.4272461 0.1633301
vt 0.3188477 0.1633301
vt 0.3188477 0.1746826
vt 0.4272461 0.1746826
vt 0.3188477 0.1746826
vt 0.4272461 0.1746826
vt 0.4272461 0.1633301
vt 0.3188477 0.1633301
vt 0.4272461 0.1605225
vt 0.3188477 0.1605225
vt 0.3188477 0.1630859
vt 0.4272461 0.1630859
vt 0.4272461 0.1605225
vt 0.3188477 0.1605225
vt 0.3188477 0.1630859
vt 0.4272461 0.1630859
vt 0.4289551 0.1746826
vt 0.4821777 0.1746826
vt 0.4821777 0.1630859
vt 0.4289551 0.1630859
vt 0.4204102 0.1688232
vt 0.4821777 0.1630859
vt 0.4289551 0.1630859
vt 0.4289551 0.1746826
vt 0.4821777 0.1746826
vt 0.4204102 0.1689453
vt 0.4272461 0.1633301
vt 0.3188477 0.1633301
vt 0.3188477 0.1746826
vt 0.4272461 0.1746826
vt 0.3188477 0.1746826
vt 0.4272461 0.1746826
vt 0.4272461 0.1633301
vt 0.3188477 0.1633301
vt 0.4272461 0.1605225
vt 0.3188477 0.1605225
vt 0.3188477 0.1630859
vt 0.4272461 0.1630859
vt 0.4272461 0.1605225
vt 0.3188477 0.1605225
vt 0.3188477 0.1630859
vt 0.4272461 0.1630859
vt 0.4289551 0.1746826
vt 0.4821777 0.1746826
vt 0.4821777 0.1630859
vt 0.4289551 0.1630859
vt 0.4204102 0.1688232
vt 0.4821777 0.1630859
vt 0.4289551 0.1630859
vt 0.4289551 0.1746826
vt 0.4821777 0.1746826
vt 0.4204102 0.1689453
vt 0.4289551 0.1746826
vt 0.4821777 0.1746826
vt 0.4821777 0.1630859
vt 0.4289551 0.1630859
vt 0.4204102 0.1688232
vt 0.4821777 0.1630859
vt 0.4289551 0.1630859
vt 0.4289551 0.1746826
vt 0.4821777 0.1746826
vt 0.4204102 0.1689453
vt 0.4289551 0.1746826
vt 0.4821777 0.1746826
vt 0.4821777 0.1630859
vt 0.4289551 0.1630859
vt 0.4204102 0.1688232
vt 0.4821777 0.1630859
vt 0.4289551 0.1630859
vt 0.4289551 0.1746826
vt 0.4821777 0.1746826
vt 0.4204102 0.1689453
vt 0.4289551 0.1746826
vt 0.4821777 0.1746826
vt 0.4821777 0.1630859
vt 0.4289551 0.1630859
vt 0.4204102 0.1688232
vt 0.4821777 0.1630859
vt 0.4289551 0.1630859
vt 0.4289551 0.1746826
vt 0.4821777 0.1746826
vt 0.4204102 0.1689453

g Fence1_1091_96
usemtl Fence1_1091_96
usemap Fence1_1091_96
f 1/1/1 3/3/3 2/2/2
f 1/1/1 4/4/4 3/3/3
f 5/5/5 7/7/7 6/6/6
f 5/5/5 8/8/8 7/7/7
f 9/9/9 11/11/11 10/10/10
f 9/9/9 12/12/12 11/11/11
f 13/13/13 15/15/15 14/14/14
f 13/13/13 16/16/16 15/15/15
f 17/17/17 19/19/19 18/18/18
f 17/17/17 20/20/20 19/19/19
f 21/21/21 23/23/23 22/22/22
f 21/21/21 24/24/24 23/23/23
f 25/25/25 27/27/27 26/26/26
f 25/25/25 28/28/28 27/27/27
f 29/29/29 31/31/31 30/30/30
f 29/29/29 32/32/32 31/31/31
f 33/33/33 35/35/35 34/34/34
f 33/33/33 36/36/36 35/35/35
f 37/37/37 39/39/39 38/38/38
f 37/37/37 40/40/40 39/39/39
f 40/40/40 37/37/37 41/41/41
f 42/42/42 44/44/44 43/43/43
f 42/42/42 45/45/45 44/44/44
f 43/43/43 44/44/44 46/46/46
f 47/47/47 49/49/49 48/48/48
f 47/47/47 50/50/50 49/49/49
f 51/51/51 53/53/53 52/52/52
f 51/51/51 54/54/54 53/53/53
f 55/55/55 57/57/57 56/56/56
f 55/55/55 58/58/58 57/57/57
f 59/59/59 61/61/61 60/60/60
f 59/59/59 62/62/62 61/61/61
f 63/63/63 65/65/65 64/64/64
f 63/63/63 66/66/66 65/65/65
f 66/66/66 63/63/63 67/67/67
f 68/68/68 70/70/70 69/69/69
f 68/68/68 71/71/71 70/70/70
f 69/69/69 70/70/70 72/72/72
f 73/73/73 75/75/75 74/74/74
f 73/73/73 76/76/76 75/75/75
f 76/76/76 73/73/73 77/77/77
f 78/78/78 80/80/80 79/79/79
f 78/78/78 81/81/81 80/80/80
f 79/79/79 80/80/80 82/82/82
f 83/83/83 85/85/85 84/84/84
f 83/83/83 86/86/86 85/85/85
f 86/86/86 83/83/83 87/87/87
f 88/88/88 90/90/90 89/89/89
f 88/88/88 91/91/91 90/90/90
f 89/89/89 90/90/90 92/92/92
f 93/93/93 95/95/95 94/94/94
f 93/93/93 96/96/96 95/95/95
f 96/96/96 93/93/93 97/97/97
f 98/98/98 100/100/100 99/99/99
f 98/98/98 101/101/101 100/100/100
f 99/99/99 100/100/100 102/102/102
