#Fence1_pole_(2)_1074_171.obj

v -0.09532547 -0.2586824 0.09985352
v -0.1259823 1.462644 0.1319656
v 0.1259823 1.462644 0.1319656
v 0.09532547 -0.2586824 0.09985352
v -0.1259823 1.462644 0.1319656
v -0.1259823 1.462644 -0.1319656
v 0.1259823 1.462644 -0.1319656
v 0.1259823 1.462644 0.1319656
v -0.1259823 1.462644 -0.1319656
v -0.09532547 -0.2586824 -0.09985352
v 0.09532547 -0.2586824 -0.09985352
v 0.1259823 1.462644 -0.1319656
v 0.09532547 -0.2586824 0.09985352
v 0.1259823 1.462644 0.1319656
v 0.1259823 1.462644 -0.1319656
v 0.09532547 -0.2586824 -0.09985352
v -0.09532547 -0.2586824 -0.09985352
v -0.1259823 1.462644 -0.1319656
v -0.1259823 1.462644 0.1319656
v -0.09532547 -0.2586824 0.09985352

vn 0 -0.01865206 0.9998261
vn 0 -0.01865206 0.9998261
vn 0 -0.01865206 0.9998261
vn 0 -0.01865206 0.9998261
vn 0 1 0
vn 0 1 0
vn 0 1 0
vn 0 1 0
vn 0 -0.01865206 -0.9998261
vn 0 -0.01865206 -0.9998261
vn 0 -0.01865206 -0.9998261
vn 0 -0.01865206 -0.9998261
vn 0.9998415 -0.01780649 0
vn 0.9998415 -0.01780649 0
vn 0.9998415 -0.01780649 0
vn 0.9998415 -0.01780649 0
vn -0.9998415 -0.01780634 0
vn -0.9998415 -0.01780634 0
vn -0.9998415 -0.01780634 0
vn -0.9998415 -0.01780634 0

vt 0.2570801 0.1746826
vt 0.3840332 0.1746826
vt 0.3840332 0.163208
vt 0.2570801 0.163208
vt 0.3820801 0.1730957
vt 0.3820801 0.1657715
vt 0.3723145 0.1657715
vt 0.3723145 0.1730957
vt 0.3840332 0.163208
vt 0.2570801 0.163208
vt 0.2570801 0.1746826
vt 0.3840332 0.1746826
vt 0.2570801 0.1746826
vt 0.3840332 0.1746826
vt 0.3840332 0.163208
vt 0.2570801 0.163208
vt 0.2570801 0.1746826
vt 0.3840332 0.1746826
vt 0.3840332 0.163208
vt 0.2570801 0.163208

g Fence1_pole_(2)_1074_171
usemtl Fence1_pole_(2)_1074_171
usemap Fence1_pole_(2)_1074_171
f 1/1/1 3/3/3 2/2/2
f 1/1/1 4/4/4 3/3/3
f 5/5/5 7/7/7 6/6/6
f 5/5/5 8/8/8 7/7/7
f 9/9/9 11/11/11 10/10/10
f 9/9/9 12/12/12 11/11/11
f 13/13/13 15/15/15 14/14/14
f 13/13/13 16/16/16 15/15/15
f 17/17/17 19/19/19 18/18/18
f 17/17/17 20/20/20 19/19/19
