#Garage4_1451_13.obj

v 1.740234 2.350454 2.364657
v -1.729998 2.350454 2.364661
v -1.729998 2.624563 2.364661
v 1.740234 2.624563 2.364657
v -1.729998 2.350454 2.364661
v -1.729998 2.350454 2.193286
v -1.729998 2.624563 2.193286
v -1.729998 2.624563 2.364661
v -1.729998 2.350454 2.193286
v 1.740235 2.350454 2.193288
v 1.740235 2.624563 2.193288
v -1.729998 2.624563 2.193286
v 1.740235 2.350454 2.193288
v 1.740234 2.350454 2.364657
v 1.740234 2.624563 2.364657
v 1.740235 2.624563 2.193288
v 1.740234 2.624563 2.364657
v -1.729998 2.624563 2.364661
v -1.729998 2.624563 2.193286
v 1.740235 2.624563 2.193288
v 1.740235 2.350454 2.193288
v -1.729998 2.350454 2.193286
v -1.729998 2.350454 2.364661
v 1.740234 2.350454 2.364657
v -0.7496393 1.866837 -2.40479
v -0.7496393 1.777676 -2.40479
v 0.7456539 1.777676 -2.404794
v 0.7456539 1.866837 -2.404794
v -0.749637 1.866837 -2.070517
v -0.7496393 1.866837 -2.40479
v 0.7456539 1.866837 -2.404794
v 0.7456561 1.866837 -2.070521
v 0.7456561 1.866837 -2.070521
v 0.7456539 1.866837 -2.404794
v 0.7456539 1.777676 -2.404794
v 0.7456561 1.777676 -2.070521
v 0.7456561 1.777676 -2.070521
v 0.7456539 1.777676 -2.404794
v -0.7496393 1.777676 -2.40479
v -0.749637 1.777676 -2.070517
v -0.749637 1.777676 -2.070517
v -0.7496393 1.777676 -2.40479
v -0.7496393 1.866837 -2.40479
v -0.749637 1.866837 -2.070517
v -1.296603 0 2.024388
v -1.296603 2.388834 2.024388
v 1.296606 2.388834 2.02439
v 1.296606 0 2.02439
v -0.7456549 2.40036 -2.115362
v -0.7456549 1.837135 -2.115362
v 0.7456564 1.837135 -2.115361
v 0.7456564 2.40036 -2.115361
v 1.752262 0 2.297388
v 1.752262 2.758335 2.297388
v 1.752261 2.758335 -2.297388
v 1.752261 0 -2.297388
v -1.752262 0 -2.297388
v -1.752262 2.758335 -2.297388
v -1.752261 2.758335 2.297388
v -1.752261 0 2.297388
v -1.752261 2.758335 2.297388
v -6.614679E-07 3.645153 2.297389
v 1.752262 2.758335 2.297388
v -1.296607 2.388834 2.29739
v 1.296605 2.388834 2.297389
v 1.752262 0 2.297388
v 1.296605 0 2.297389
v -1.296607 0 2.29739
v -1.752261 0 2.297388
v 1.752261 2.758335 -2.297388
v 6.614679E-07 3.645153 -2.297389
v -1.752262 2.758335 -2.297388
v 0.745655 2.40036 -2.29739
v -0.7456563 2.40036 -2.297391
v 0.745655 1.837135 -2.29739
v 1.752261 0 -2.297388
v -0.7456563 1.837135 -2.297391
v -1.752262 0 -2.297388
v -0.7456563 2.40036 -2.297391
v -0.7456549 2.40036 -2.115362
v 0.7456564 2.40036 -2.115361
v 0.745655 2.40036 -2.29739
v 0.745655 2.40036 -2.29739
v 0.7456564 2.40036 -2.115361
v 0.7456564 1.837135 -2.115361
v 0.745655 1.837135 -2.29739
v 0.745655 1.837135 -2.29739
v 0.7456564 1.837135 -2.115361
v -0.7456549 1.837135 -2.115362
v -0.7456563 1.837135 -2.297391
v -0.7456563 1.837135 -2.297391
v -0.7456549 1.837135 -2.115362
v -0.7456549 2.40036 -2.115362
v -0.7456563 2.40036 -2.297391
v 1.296605 0 2.297389
v 1.296606 0 2.02439
v 1.296606 2.388834 2.02439
v 1.296605 2.388834 2.297389
v 1.296605 2.388834 2.297389
v 1.296606 2.388834 2.02439
v -1.296603 2.388834 2.024388
v -1.296607 2.388834 2.29739
v -1.296607 2.388834 2.29739
v -1.296603 2.388834 2.024388
v -1.296603 0 2.024388
v -1.296607 0 2.29739
v 2.069997 2.694403 2.544753
v 3.211857E-07 3.719641 2.544755
v -3.211857E-07 3.719641 -2.544755
v 2.069999 2.694403 -2.544754
v -2.069998 2.694403 -2.544754
v -3.211857E-07 3.719641 -2.544755
v 3.211857E-07 3.719641 2.544755
v -2.069999 2.694403 2.544754
v 2.025762 2.606998 2.544754
v 2.025761 2.606998 -2.544755
v -3.211857E-07 3.632235 -2.544755
v 3.211857E-07 3.632235 2.544755
v -2.025762 2.606998 -2.544754
v -2.025761 2.606998 2.544755
v 3.211857E-07 3.632235 2.544755
v -3.211857E-07 3.632235 -2.544755
v 2.025762 2.606998 2.544754
v 2.069997 2.694403 2.544753
v 2.069999 2.694403 -2.544754
v 2.025761 2.606998 -2.544755
v 2.025761 2.606998 -2.544755
v 2.069999 2.694403 -2.544754
v -3.211857E-07 3.719641 -2.544755
v -3.211857E-07 3.632235 -2.544755
v -2.069998 2.694403 -2.544754
v -2.025762 2.606998 -2.544754
v 3.211857E-07 3.632235 2.544755
v 3.211857E-07 3.719641 2.544755
v 2.069997 2.694403 2.544753
v 2.025762 2.606998 2.544754
v -2.025761 2.606998 2.544755
v -2.069999 2.694403 2.544754
v -2.025762 2.606998 -2.544754
v -2.069998 2.694403 -2.544754
v -2.069999 2.694403 2.544754
v -2.025761 2.606998 2.544755
v 1.880047 0.0003223419 -2.424171
v 1.880047 2.698229 -2.424171
v 1.625455 2.829308 -2.424171
v 1.625455 0.0003223419 -2.424171
v 1.625455 0.0003223419 -2.424171
v 1.625455 2.829308 -2.424171
v 1.625452 2.829308 -2.169571
v 1.625452 0.0003223419 -2.169571
v 1.880044 0.0003223419 -2.169571
v 1.880047 2.698229 -2.169569
v 1.880047 2.698229 -2.424171
v 1.880047 0.0003223419 -2.424171
v -1.62507 0.0003223419 -2.424172
v -1.62507 2.837006 -2.424172
v -1.879662 2.690025 -2.424172
v -1.879662 0.0003223419 -2.424172
v -1.879662 0.0003223419 -2.424172
v -1.879662 2.690025 -2.424172
v -1.879665 2.690025 -2.169572
v -1.879665 0.0003223419 -2.169572
v -1.62507 0.0003223419 -2.169569
v -1.62507 2.837008 -2.169569
v -1.62507 2.837006 -2.424172
v -1.62507 0.0003223419 -2.424172
v -1.880047 0.0003223419 2.424171
v -1.880047 2.689804 2.424171
v -1.625455 2.836784 2.424171
v -1.625455 0.0003223419 2.424171
v -1.625455 0.0003223419 2.424171
v -1.625455 2.836784 2.424171
v -1.625452 2.836786 2.169571
v -1.625452 0.0003223419 2.169571
v -1.880044 0.0003223419 2.169571
v -1.880047 2.689804 2.169569
v -1.880047 2.689804 2.424171
v -1.880047 0.0003223419 2.424171
v 1.62507 0.0003223419 2.424172
v 1.62507 2.829504 2.424172
v 1.879662 2.698427 2.424172
v 1.879662 0.0003223419 2.424172
v 1.879662 0.0003223419 2.424172
v 1.879662 2.698427 2.424172
v 1.879665 2.698427 2.169572
v 1.879665 0.0003223419 2.169572
v 1.62507 0.0003223419 2.169569
v 1.62507 2.829504 2.169569
v 1.62507 2.829504 2.424172
v 1.62507 0.0003223419 2.424172
v -1.62507 2.837008 -2.169569
v -1.62507 0.0003223419 -2.169569
v -1.879665 0.0003223419 -2.169572
v -1.879665 2.690025 -2.169572
v -1.880047 2.689804 2.169569
v -1.880044 0.0003223419 2.169571
v -1.625452 0.0003223419 2.169571
v -1.625452 2.836786 2.169571
v 1.880047 2.698229 -2.169569
v 1.880044 0.0003223419 -2.169571
v 1.625452 0.0003223419 -2.169571
v 1.625452 2.829308 -2.169571
v 1.62507 2.829504 2.169569
v 1.62507 0.0003223419 2.169569
v 1.879665 0.0003223419 2.169572
v 1.879665 2.698427 2.169572
v -1.740234 -0.008535385 -2.364657
v 1.729998 -0.008535385 -2.364661
v 1.729998 0.2655735 -2.364661
v -1.740234 0.2655735 -2.364657
v -1.740234 0.2655735 -2.364657
v 1.729998 0.2655735 -2.364661
v 1.729998 0.2655735 -2.193286
v -1.740235 0.2655735 -2.193288
v 1.834846 -0.008535385 -2.28241
v 1.834846 -0.008535385 2.282411
v 1.834846 0.2655735 2.282411
v 1.834846 0.2655735 -2.28241
v 1.834846 0.2655735 -2.28241
v 1.834846 0.2655735 2.282411
v 1.663477 0.2655735 2.28241
v 1.663474 0.2655735 -2.282413
v -1.834846 -0.008535385 2.28241
v -1.834846 -0.008535385 -2.282411
v -1.834846 0.2655735 -2.282411
v -1.834846 0.2655735 2.28241
v -1.834846 0.2655735 2.28241
v -1.834846 0.2655735 -2.282411
v -1.663477 0.2655735 -2.28241
v -1.663474 0.2655735 2.282413

vn 0.7338506 0 0.6793109
vn 0.7338506 0 0.6793109
vn 0.7338506 0 0.6793109
vn 0.7338506 0 0.6793109
vn -0.6793109 0 0.7338506
vn -0.6793109 0 0.7338506
vn -0.6793109 0 0.7338506
vn -0.6793109 0 0.7338506
vn -0.7338506 0 -0.6793109
vn -0.7338506 0 -0.6793109
vn -0.7338506 0 -0.6793109
vn -0.7338506 0 -0.6793109
vn 0.6793109 0 -0.7338506
vn 0.6793109 0 -0.7338506
vn 0.6793109 0 -0.7338506
vn 0.6793109 0 -0.7338506
vn 0 1 0
vn 0 1 0
vn 0 1 0
vn 0 1 0
vn 0 -1 0
vn 0 -1 0
vn 0 -1 0
vn 0 -1 0
vn -0.7338506 0 -0.6793109
vn -0.7338506 0 -0.6793109
vn -0.7338506 0 -0.6793109
vn -0.7338506 0 -0.6793109
vn 0 1 0
vn 0 1 0
vn 0 1 0
vn 0 1 0
vn 0.6793109 0 -0.7338506
vn 0.6793109 0 -0.7338506
vn 0.6793109 0 -0.7338506
vn 0.6793109 0 -0.7338506
vn 0 -1 0
vn 0 -1 0
vn 0 -1 0
vn 0 -1 0
vn -0.6793109 0 0.7338506
vn -0.6793109 0 0.7338506
vn -0.6793109 0 0.7338506
vn -0.6793109 0 0.7338506
vn 0.7338506 0 0.6793109
vn 0.7338506 0 0.6793109
vn 0.7338506 0 0.6793109
vn 0.7338506 0 0.6793109
vn -0.7338506 0 -0.6793109
vn -0.7338506 0 -0.6793109
vn -0.7338506 0 -0.6793109
vn -0.7338506 0 -0.6793109
vn 0.6793109 0 -0.7338506
vn 0.6793109 0 -0.7338506
vn 0.6793109 0 -0.7338506
vn 0.6793109 0 -0.7338506
vn -0.6793109 0 0.7338506
vn -0.6793109 0 0.7338506
vn -0.6793109 0 0.7338506
vn -0.6793109 0 0.7338506
vn 0.7338506 0 0.6793109
vn 0.7338506 0 0.6793109
vn 0.7338506 0 0.6793109
vn 0.7338506 0 0.6793109
vn 0.7338506 0 0.6793109
vn 0.7338506 0 0.6793109
vn 0.7338506 0 0.6793109
vn 0.7338506 0 0.6793109
vn 0.7338506 0 0.6793109
vn -0.7338506 0 -0.6793109
vn -0.7338506 0 -0.6793109
vn -0.7338506 0 -0.6793109
vn -0.7338506 0 -0.6793109
vn -0.7338506 0 -0.6793109
vn -0.7338506 0 -0.6793109
vn -0.7338506 0 -0.6793109
vn -0.7338506 0 -0.6793109
vn -0.7338506 0 -0.6793109
vn 0 -1 0
vn 0 -1 0
vn 0 -1 0
vn 0 -1 0
vn -0.6793109 0 0.7338506
vn -0.6793109 0 0.7338506
vn -0.6793109 0 0.7338506
vn -0.6793109 0 0.7338506
vn 0 1 0
vn 0 1 0
vn 0 1 0
vn 0 1 0
vn 0.6793109 0 -0.7338506
vn 0.6793109 0 -0.7338506
vn 0.6793109 0 -0.7338506
vn 0.6793109 0 -0.7338506
vn -0.6793109 0 0.7338506
vn -0.6793109 0 0.7338506
vn -0.6793109 0 0.7338506
vn -0.6793109 0 0.7338506
vn 0 -1 0
vn 0 -1 0
vn 0 -1 0
vn 0 -1 0
vn 0.6793109 0 -0.7338506
vn 0.6793109 0 -0.7338506
vn 0.6793109 0 -0.7338506
vn 0.6793109 0 -0.7338506
vn 0.3014983 0.8961112 -0.3257046
vn 0.3014983 0.8961112 -0.3257046
vn 0.3014983 0.8961112 -0.3257046
vn 0.3014983 0.8961112 -0.3257046
vn -0.3014983 0.8961112 0.3257046
vn -0.3014983 0.8961112 0.3257046
vn -0.3014983 0.8961112 0.3257046
vn -0.3014983 0.8961112 0.3257046
vn -0.306751 -0.8922397 0.331379
vn -0.306751 -0.8922397 0.331379
vn -0.306751 -0.8922397 0.331379
vn -0.306751 -0.8922397 0.331379
vn 0.306751 -0.8922397 -0.331379
vn 0.306751 -0.8922397 -0.331379
vn 0.306751 -0.8922397 -0.331379
vn 0.306751 -0.8922397 -0.331379
vn 0.6061091 -0.4515595 -0.6547716
vn 0.6061091 -0.4515595 -0.6547716
vn 0.6061091 -0.4515595 -0.6547716
vn 0.6061091 -0.4515595 -0.6547716
vn -0.7338506 0 -0.6793109
vn -0.7338506 0 -0.6793109
vn -0.7338506 0 -0.6793109
vn -0.7338506 0 -0.6793109
vn -0.7338506 0 -0.6793109
vn -0.7338506 0 -0.6793109
vn 0.7338506 0 0.6793109
vn 0.7338506 0 0.6793109
vn 0.7338506 0 0.6793109
vn 0.7338506 0 0.6793109
vn 0.7338506 0 0.6793109
vn 0.7338506 0 0.6793109
vn -0.6061091 -0.4515595 0.6547716
vn -0.6061091 -0.4515595 0.6547716
vn -0.6061091 -0.4515595 0.6547716
vn -0.6061091 -0.4515595 0.6547716
vn -0.7338506 0 -0.6793109
vn -0.7338506 0 -0.6793109
vn -0.7338506 0 -0.6793109
vn -0.7338506 0 -0.6793109
vn -0.6793109 0 0.7338506
vn -0.6793109 0 0.7338506
vn -0.6793109 0 0.7338506
vn -0.6793109 0 0.7338506
vn 0.6793109 0 -0.7338506
vn 0.6793109 0 -0.7338506
vn 0.6793109 0 -0.7338506
vn 0.6793109 0 -0.7338506
vn -0.7338506 0 -0.6793109
vn -0.7338506 0 -0.6793109
vn -0.7338506 0 -0.6793109
vn -0.7338506 0 -0.6793109
vn -0.6793109 0 0.7338506
vn -0.6793109 0 0.7338506
vn -0.6793109 0 0.7338506
vn -0.6793109 0 0.7338506
vn 0.6793109 0 -0.7338506
vn 0.6793109 0 -0.7338506
vn 0.6793109 0 -0.7338506
vn 0.6793109 0 -0.7338506
vn 0.7338506 0 0.6793109
vn 0.7338506 0 0.6793109
vn 0.7338506 0 0.6793109
vn 0.7338506 0 0.6793109
vn 0.6793109 0 -0.7338506
vn 0.6793109 0 -0.7338506
vn 0.6793109 0 -0.7338506
vn 0.6793109 0 -0.7338506
vn -0.6793109 0 0.7338506
vn -0.6793109 0 0.7338506
vn -0.6793109 0 0.7338506
vn -0.6793109 0 0.7338506
vn 0.7338506 0 0.6793109
vn 0.7338506 0 0.6793109
vn 0.7338506 0 0.6793109
vn 0.7338506 0 0.6793109
vn 0.6793109 0 -0.7338506
vn 0.6793109 0 -0.7338506
vn 0.6793109 0 -0.7338506
vn 0.6793109 0 -0.7338506
vn -0.6793109 0 0.7338506
vn -0.6793109 0 0.7338506
vn -0.6793109 0 0.7338506
vn -0.6793109 0 0.7338506
vn 0.7338506 0 0.6793109
vn 0.7338506 0 0.6793109
vn 0.7338506 0 0.6793109
vn 0.7338506 0 0.6793109
vn -0.7338506 0 -0.6793109
vn -0.7338506 0 -0.6793109
vn -0.7338506 0 -0.6793109
vn -0.7338506 0 -0.6793109
vn 0.7338506 0 0.6793109
vn 0.7338506 0 0.6793109
vn 0.7338506 0 0.6793109
vn 0.7338506 0 0.6793109
vn -0.7338506 0 -0.6793109
vn -0.7338506 0 -0.6793109
vn -0.7338506 0 -0.6793109
vn -0.7338506 0 -0.6793109
vn -0.7338506 0 -0.6793109
vn -0.7338506 0 -0.6793109
vn -0.7338506 0 -0.6793109
vn -0.7338506 0 -0.6793109
vn 0 1 0
vn 0 1 0
vn 0 1 0
vn 0 1 0
vn 0.6793109 0 -0.7338506
vn 0.6793109 0 -0.7338506
vn 0.6793109 0 -0.7338506
vn 0.6793109 0 -0.7338506
vn 0 1 0
vn 0 1 0
vn 0 1 0
vn 0 1 0
vn -0.6793109 0 0.7338506
vn -0.6793109 0 0.7338506
vn -0.6793109 0 0.7338506
vn -0.6793109 0 0.7338506
vn 0 1 0
vn 0 1 0
vn 0 1 0
vn 0 1 0

vt 0.2629395 0.1743164
vt 0.4812012 0.1743164
vt 0.4812012 0.163208
vt 0.2629395 0.163208
vt 0.4812012 0.1743164
vt 0.489502 0.1743164
vt 0.489502 0.163208
vt 0.4812012 0.163208
vt 0.2629395 0.1634521
vt 0.4812012 0.1634521
vt 0.4812012 0.1523438
vt 0.2629395 0.1523438
vt 0.2543945 0.1743164
vt 0.2629395 0.1743164
vt 0.2629395 0.163208
vt 0.2543945 0.163208
vt 0.2629395 0.163208
vt 0.4812012 0.163208
vt 0.4812012 0.1520996
vt 0.2629395 0.1520996
vt 0.4812012 0.1634521
vt 0.2629395 0.1634521
vt 0.2629395 0.1744385
vt 0.4812012 0.1744385
vt 0.5869141 0.5683594
vt 0.5844727 0.5683594
vt 0.5844727 0.6044922
vt 0.5869141 0.6044922
vt 0.6000977 0.5683594
vt 0.5869141 0.5683594
vt 0.5869141 0.6044922
vt 0.6000977 0.6044922
vt 0.5712891 0.6064453
vt 0.5844727 0.6064453
vt 0.5844727 0.6044922
vt 0.5712891 0.6044922
vt 0.5712891 0.6044922
vt 0.5844727 0.6044922
vt 0.5844727 0.5683594
vt 0.5712891 0.5683594
vt 0.5712891 0.5683594
vt 0.5844727 0.5683594
vt 0.5844727 0.565918
vt 0.5712891 0.565918
vt 0.2839355 0.2186279
vt 0.2839355 0.2839355
vt 0.3383789 0.2839355
vt 0.3383789 0.2186279
vt 0.9663086 0.996582
vt 0.9663086 0.9838867
vt 0.9379883 0.9838867
vt 0.9379883 0.996582
vt 0.0375061 0.2069092
vt 0.0375061 0.2770996
vt 0.1577148 0.2770996
vt 0.1577148 0.2069092
vt 0.03741455 0.2069092
vt 0.03741455 0.2770996
vt 0.1577148 0.2770996
vt 0.1577148 0.2069092
vt 0.07342529 0.2770996
vt 0.1244507 0.2998047
vt 0.175415 0.2770996
vt 0.08673096 0.2678223
vt 0.1621094 0.2678223
vt 0.175415 0.2069092
vt 0.1621094 0.2069092
vt 0.08673096 0.2069092
vt 0.07342529 0.2069092
vt 0.07354736 0.2770996
vt 0.1245117 0.2998047
vt 0.1755371 0.2770996
vt 0.1032715 0.2680664
vt 0.145752 0.2680664
vt 0.1032715 0.2536621
vt 0.07354736 0.2069092
vt 0.145752 0.2536621
vt 0.1755371 0.2069092
vt 0.145752 0.2680664
vt 0.145752 0.2634277
vt 0.1032715 0.2634277
vt 0.1032715 0.2680664
vt 0.1032715 0.2680664
vt 0.109436 0.2680664
vt 0.109436 0.2536621
vt 0.1032715 0.2536621
vt 0.1032715 0.2536621
vt 0.1032715 0.2583008
vt 0.145752 0.2583008
vt 0.145752 0.2536621
vt 0.145752 0.2536621
vt 0.1396484 0.2536621
vt 0.1396484 0.2680664
vt 0.145752 0.2680664
vt 0.1621094 0.2069092
vt 0.1551514 0.2069092
vt 0.1551514 0.2678223
vt 0.1621094 0.2678223
vt 0.1621094 0.2678223
vt 0.1621094 0.2607422
vt 0.08673096 0.2607422
vt 0.08673096 0.2678223
vt 0.08673096 0.2678223
vt 0.09368896 0.2678223
vt 0.09368896 0.2069092
vt 0.08673096 0.2069092
vt 0.3505859 0.2570801
vt 0.3505859 0.3122559
vt 0.4699707 0.3122559
vt 0.4699707 0.2570801
vt 0.4699707 0.2570801
vt 0.4699707 0.3122559
vt 0.3505859 0.3122559
vt 0.3505859 0.2570801
vt 0.3505859 0.2570801
vt 0.4699707 0.2570801
vt 0.4699707 0.3122559
vt 0.3505859 0.3122559
vt 0.4699707 0.2570801
vt 0.3505859 0.2570801
vt 0.3505859 0.3122559
vt 0.4699707 0.3122559
vt 0.3505859 0.2570801
vt 0.3505859 0.2570801
vt 0.4699707 0.2570801
vt 0.4699707 0.2570801
vt 0.4699707 0.2570801
vt 0.4699707 0.2570801
vt 0.4699707 0.3122559
vt 0.4699707 0.3122559
vt 0.4699707 0.2570801
vt 0.4699707 0.2570801
vt 0.3505859 0.3122559
vt 0.3505859 0.3122559
vt 0.3505859 0.2570801
vt 0.3505859 0.2570801
vt 0.3505859 0.2570801
vt 0.3505859 0.2570801
vt 0.4699707 0.2570801
vt 0.4699707 0.2570801
vt 0.3505859 0.2570801
vt 0.3505859 0.2570801
vt 0.2629395 0.1743164
vt 0.3474121 0.1743164
vt 0.3518066 0.163208
vt 0.2629395 0.163208
vt 0.2629395 0.163208
vt 0.3518066 0.163208
vt 0.3518066 0.1520996
vt 0.2629395 0.1520996
vt 0.4812012 0.1634521
vt 0.3967285 0.1634521
vt 0.3967285 0.1744385
vt 0.4812012 0.1744385
vt 0.2629395 0.1743164
vt 0.3518066 0.1743164
vt 0.3474121 0.163208
vt 0.2629395 0.163208
vt 0.2629395 0.163208
vt 0.3474121 0.163208
vt 0.3474121 0.1520996
vt 0.2629395 0.1520996
vt 0.4812012 0.1634521
vt 0.392334 0.1634521
vt 0.392334 0.1744385
vt 0.4812012 0.1744385
vt 0.2629395 0.1743164
vt 0.347168 0.1743164
vt 0.3520508 0.163208
vt 0.2629395 0.163208
vt 0.2629395 0.163208
vt 0.3520508 0.163208
vt 0.3520508 0.1520996
vt 0.2629395 0.1520996
vt 0.4812012 0.1634521
vt 0.3969727 0.1634521
vt 0.3969727 0.1744385
vt 0.4812012 0.1744385
vt 0.2629395 0.1743164
vt 0.3515625 0.1743164
vt 0.3476563 0.163208
vt 0.2629395 0.163208
vt 0.2629395 0.163208
vt 0.3476563 0.163208
vt 0.3476563 0.1520996
vt 0.2629395 0.1520996
vt 0.4812012 0.1634521
vt 0.3925781 0.1634521
vt 0.3925781 0.1744385
vt 0.4812012 0.1744385
vt 0.392334 0.1634521
vt 0.4812012 0.1634521
vt 0.4812012 0.1523438
vt 0.3967285 0.1523438
vt 0.3969727 0.1634521
vt 0.4812012 0.1634521
vt 0.4812012 0.1523438
vt 0.3920898 0.1523438
vt 0.3967285 0.1634521
vt 0.4812012 0.1634521
vt 0.4812012 0.1523438
vt 0.392334 0.1523438
vt 0.3925781 0.1634521
vt 0.4812012 0.1634521
vt 0.4812012 0.1523438
vt 0.3964844 0.1523438
vt 0.2629395 0.1743164
vt 0.4812012 0.1743164
vt 0.4812012 0.163208
vt 0.2629395 0.163208
vt 0.2629395 0.163208
vt 0.4812012 0.163208
vt 0.4812012 0.1520996
vt 0.2629395 0.1520996
vt 0.2629395 0.1743164
vt 0.4812012 0.1743164
vt 0.4812012 0.163208
vt 0.2629395 0.163208
vt 0.2629395 0.163208
vt 0.4812012 0.163208
vt 0.4812012 0.1520996
vt 0.2629395 0.1520996
vt 0.2629395 0.1743164
vt 0.4812012 0.1743164
vt 0.4812012 0.163208
vt 0.2629395 0.163208
vt 0.2629395 0.163208
vt 0.4812012 0.163208
vt 0.4812012 0.1520996
vt 0.2629395 0.1520996

g Garage4_1451_13
usemtl Garage4_1451_13
usemap Garage4_1451_13
f 1/1/1 3/3/3 2/2/2
f 1/1/1 4/4/4 3/3/3
f 5/5/5 7/7/7 6/6/6
f 5/5/5 8/8/8 7/7/7
f 9/9/9 11/11/11 10/10/10
f 9/9/9 12/12/12 11/11/11
f 13/13/13 15/15/15 14/14/14
f 13/13/13 16/16/16 15/15/15
f 17/17/17 19/19/19 18/18/18
f 17/17/17 20/20/20 19/19/19
f 21/21/21 23/23/23 22/22/22
f 21/21/21 24/24/24 23/23/23
f 25/25/25 27/27/27 26/26/26
f 25/25/25 28/28/28 27/27/27
f 29/29/29 31/31/31 30/30/30
f 29/29/29 32/32/32 31/31/31
f 33/33/33 35/35/35 34/34/34
f 33/33/33 36/36/36 35/35/35
f 37/37/37 39/39/39 38/38/38
f 37/37/37 40/40/40 39/39/39
f 41/41/41 43/43/43 42/42/42
f 41/41/41 44/44/44 43/43/43
f 45/45/45 47/47/47 46/46/46
f 45/45/45 48/48/48 47/47/47
f 49/49/49 51/51/51 50/50/50
f 49/49/49 52/52/52 51/51/51
f 53/53/53 55/55/55 54/54/54
f 53/53/53 56/56/56 55/55/55
f 57/57/57 59/59/59 58/58/58
f 57/57/57 60/60/60 59/59/59
f 61/61/61 63/63/63 62/62/62
f 63/63/63 61/61/61 64/64/64
f 63/63/63 64/64/64 65/65/65
f 66/66/66 63/63/63 65/65/65
f 66/66/66 65/65/65 67/67/67
f 61/61/61 68/68/68 64/64/64
f 61/61/61 69/69/69 68/68/68
f 70/70/70 72/72/72 71/71/71
f 72/72/72 70/70/70 73/73/73
f 72/72/72 73/73/73 74/74/74
f 70/70/70 75/75/75 73/73/73
f 70/70/70 76/76/76 75/75/75
f 76/76/76 77/77/77 75/75/75
f 76/76/76 78/78/78 77/77/77
f 78/78/78 74/74/74 77/77/77
f 78/78/78 72/72/72 74/74/74
f 79/79/79 81/81/81 80/80/80
f 79/79/79 82/82/82 81/81/81
f 83/83/83 85/85/85 84/84/84
f 83/83/83 86/86/86 85/85/85
f 87/87/87 89/89/89 88/88/88
f 87/87/87 90/90/90 89/89/89
f 91/91/91 93/93/93 92/92/92
f 91/91/91 94/94/94 93/93/93
f 95/95/95 97/97/97 96/96/96
f 95/95/95 98/98/98 97/97/97
f 99/99/99 101/101/101 100/100/100
f 99/99/99 102/102/102 101/101/101
f 103/103/103 105/105/105 104/104/104
f 103/103/103 106/106/106 105/105/105
f 107/107/107 109/109/109 108/108/108
f 107/107/107 110/110/110 109/109/109
f 111/111/111 113/113/113 112/112/112
f 111/111/111 114/114/114 113/113/113
f 115/115/115 117/117/117 116/116/116
f 115/115/115 118/118/118 117/117/117
f 119/119/119 121/121/121 120/120/120
f 119/119/119 122/122/122 121/121/121
f 123/123/123 125/125/125 124/124/124
f 123/123/123 126/126/126 125/125/125
f 127/127/127 129/129/129 128/128/128
f 127/127/127 130/130/130 129/129/129
f 130/130/130 131/131/131 129/129/129
f 130/130/130 132/132/132 131/131/131
f 133/133/133 135/135/135 134/134/134
f 133/133/133 136/136/136 135/135/135
f 137/137/137 133/133/133 134/134/134
f 137/137/137 134/134/134 138/138/138
f 139/139/139 141/141/141 140/140/140
f 139/139/139 142/142/142 141/141/141
f 143/143/143 145/145/145 144/144/144
f 143/143/143 146/146/146 145/145/145
f 147/147/147 149/149/149 148/148/148
f 147/147/147 150/150/150 149/149/149
f 151/151/151 153/153/153 152/152/152
f 151/151/151 154/154/154 153/153/153
f 155/155/155 157/157/157 156/156/156
f 155/155/155 158/158/158 157/157/157
f 159/159/159 161/161/161 160/160/160
f 159/159/159 162/162/162 161/161/161
f 163/163/163 165/165/165 164/164/164
f 163/163/163 166/166/166 165/165/165
f 167/167/167 169/169/169 168/168/168
f 167/167/167 170/170/170 169/169/169
f 171/171/171 173/173/173 172/172/172
f 171/171/171 174/174/174 173/173/173
f 175/175/175 177/177/177 176/176/176
f 175/175/175 178/178/178 177/177/177
f 179/179/179 181/181/181 180/180/180
f 179/179/179 182/182/182 181/181/181
f 183/183/183 185/185/185 184/184/184
f 183/183/183 186/186/186 185/185/185
f 187/187/187 189/189/189 188/188/188
f 187/187/187 190/190/190 189/189/189
f 191/191/191 193/193/193 192/192/192
f 191/191/191 194/194/194 193/193/193
f 195/195/195 197/197/197 196/196/196
f 195/195/195 198/198/198 197/197/197
f 199/199/199 201/201/201 200/200/200
f 199/199/199 202/202/202 201/201/201
f 203/203/203 205/205/205 204/204/204
f 203/203/203 206/206/206 205/205/205
f 207/207/207 209/209/209 208/208/208
f 207/207/207 210/210/210 209/209/209
f 211/211/211 213/213/213 212/212/212
f 211/211/211 214/214/214 213/213/213
f 215/215/215 217/217/217 216/216/216
f 215/215/215 218/218/218 217/217/217
f 219/219/219 221/221/221 220/220/220
f 219/219/219 222/222/222 221/221/221
f 223/223/223 225/225/225 224/224/224
f 223/223/223 226/226/226 225/225/225
f 227/227/227 229/229/229 228/228/228
f 227/227/227 230/230/230 229/229/229
