#Gas_bottle_1349_36.obj

v 3.940806E-06 2.383949 -0.6831139
v 3.940806E-06 2.798863 -0.6831139
v -0.5915952 2.798863 -0.3415551
v -0.5915952 2.383949 -0.3415551
v -0.5928579 2.798863 0.3530723
v -0.5928579 2.383949 0.3530723
v 0.5915961 2.383949 -0.3415578
v 0.5915961 2.798863 -0.3415578
v 0.5852947 2.383949 0.3515484
v 0.5852947 2.798863 0.3515484
v 5.591053E-07 2.383949 -0.5506442
v -0.4768701 2.383949 -0.2753201
v -0.4768701 2.798863 -0.2753201
v 5.591053E-07 2.798863 -0.5506442
v -0.4758119 2.798863 0.3515246
v -0.4758119 2.383949 0.3515246
v 0.4768707 2.383949 -0.2753241
v 0.4768707 2.798863 -0.2753241
v 0.4788426 2.37706 0.3524368
v 0.4788426 2.805752 0.3524368
v -0.4768701 2.798863 -0.2753201
v -0.5915952 2.798863 -0.3415551
v 3.940806E-06 2.798863 -0.6831139
v 5.591053E-07 2.798863 -0.5506442
v -0.4758119 2.798863 0.3515246
v -0.5928579 2.798863 0.3530723
v 0.5915961 2.798863 -0.3415578
v 0.4768707 2.798863 -0.2753241
v 0.5852947 2.798863 0.3515484
v 0.4788426 2.805752 0.3524368
v -0.4758119 2.383949 0.3515246
v -0.5928549 2.383949 0.3530713
v -0.5928549 2.798863 0.3530713
v -0.4758119 2.798863 0.3515246
v 0.4788426 2.805752 0.3524368
v 0.5852947 2.798863 0.3515484
v 0.5852947 2.383949 0.3515484
v 0.4788426 2.37706 0.3524368
v -0.1381405 2.393875 -0.138142
v -0.1381405 2.670156 -0.138142
v -0.138142 2.670156 0.1381405
v -0.138142 2.393875 0.1381405
v 0.138142 2.393875 -0.1381405
v 0.138142 2.670156 -0.1381405
v 0.1381405 2.393875 0.138142
v 0.1381405 2.670156 0.138142
v -0.138142 2.393875 0.1381405
v -0.138142 2.670156 0.1381405
v -0.1381405 2.670156 -0.138142
v 0.138142 2.670156 -0.1381405
v 0.1381405 2.670156 0.138142
v -0.138142 2.670156 0.1381405
v 6.151485E-07 -0.006690576 -0.8884615
v -0.7694294 -0.006690576 -0.4442316
v 0.7694271 -0.006690576 -0.4442289
v 0.7694264 -0.006690576 0.4442326
v -6.151485E-07 -0.006690576 0.8884615
v -0.7694271 -0.006690576 0.4442289
v 0.6084034 2.403926 -0.3512653
v -1.318066E-06 2.403926 0.7025288
v -0.6084052 2.403926 -0.3512625
v 1.318066E-06 2.403926 -0.7025288
v -0.6084034 2.403926 0.3512653
v 0.6084021 2.403926 0.3512636
v -6.151485E-07 -0.006690576 0.8884615
v -6.151485E-07 2.158679 0.8884615
v 0.7694264 2.158679 0.4442326
v 0.7694264 -0.006690576 0.4442326
v -6.151485E-07 2.158679 0.8884615
v -1.318066E-06 2.403926 0.7025288
v 0.6084021 2.403926 0.3512636
v 0.7694264 2.158679 0.4442326
v -0.7694271 -0.006690576 0.4442289
v -0.7694271 2.158679 0.4442289
v -6.151485E-07 2.158679 0.8884615
v -6.151485E-07 -0.006690576 0.8884615
v -0.7694271 2.158679 0.4442289
v -0.6084034 2.403926 0.3512653
v -1.318066E-06 2.403926 0.7025288
v -6.151485E-07 2.158679 0.8884615
v -0.7694294 -0.006690576 -0.4442316
v -0.7694294 2.158679 -0.4442316
v -0.7694271 2.158679 0.4442289
v -0.7694271 -0.006690576 0.4442289
v -0.7694294 2.158679 -0.4442316
v -0.6084052 2.403926 -0.3512625
v -0.6084034 2.403926 0.3512653
v -0.7694271 2.158679 0.4442289
v 6.151485E-07 -0.006690576 -0.8884615
v 6.151485E-07 2.158679 -0.8884615
v -0.7694294 2.158679 -0.4442316
v -0.7694294 -0.006690576 -0.4442316
v 6.151485E-07 2.158679 -0.8884615
v 1.318066E-06 2.403926 -0.7025288
v -0.6084052 2.403926 -0.3512625
v -0.7694294 2.158679 -0.4442316
v 0.7694271 -0.006690576 -0.4442289
v 0.7694271 2.158679 -0.4442289
v 6.151485E-07 2.158679 -0.8884615
v 6.151485E-07 -0.006690576 -0.8884615
v 0.7694271 2.158679 -0.4442289
v 0.6084034 2.403926 -0.3512653
v 1.318066E-06 2.403926 -0.7025288
v 6.151485E-07 2.158679 -0.8884615
v 0.7694264 -0.006690576 0.4442326
v 0.7694264 2.158679 0.4442326
v 0.7694271 2.158679 -0.4442289
v 0.7694271 -0.006690576 -0.4442289
v 0.7694264 2.158679 0.4442326
v 0.6084021 2.403926 0.3512636
v 0.6084034 2.403926 -0.3512653
v 0.7694271 2.158679 -0.4442289

vn 0.3149725 0 -0.9491007
vn 0.3149725 0 -0.9491007
vn -0.6673726 0 -0.7447239
vn -0.6673726 0 -0.7447239
vn -0.9485268 0 -0.3166969
vn -0.9485268 0 -0.3166969
vn 0.9811683 0 -0.1931545
vn 0.9811683 0 -0.1931545
vn 0.946198 0 0.3235886
vn 0.946198 0 0.3235886
vn -0.3149725 0 0.9491007
vn 0.6925619 0 0.7213584
vn 0.6925619 0 0.7213584
vn -0.3149725 0 0.9491007
vn 0.949631 0 0.3133705
vn 0.949631 0 0.3133705
vn -0.9871603 0 0.1597329
vn -0.9871603 0 0.1597329
vn -0.9500862 0 -0.3119876
vn -0.9500862 0 -0.3119876
vn 0 1 0
vn 0 1 0
vn 0 1 0
vn 0 1 0
vn 0 1 0
vn 0 1 0
vn 0.0150105 0.9998848 0.002255734
vn 0.01506397 0.9998839 0.00226377
vn 0.02968776 0.9995493 0.004461247
vn 0.02968776 0.9995493 0.004461246
vn -0.3024302 0 0.9531714
vn -0.3024302 0 0.9531714
vn -0.3024302 0 0.9531714
vn -0.3024302 0 0.9531714
vn -0.3070754 0 0.9516851
vn -0.3070754 0 0.9516851
vn -0.3070754 0 0.9516851
vn -0.3070754 0 0.9516851
vn -0.4483965 0 -0.8938347
vn -0.4483965 0 -0.8938347
vn -0.8938348 0 0.4483963
vn -0.8938348 0 0.4483963
vn 0.8938348 0 -0.4483963
vn 0.8938348 0 -0.4483963
vn 0.4483965 0 0.8938347
vn 0.4483965 0 0.8938347
vn -0.8938348 0 0.4483963
vn -0.8938348 0 0.4483963
vn 0 1 0
vn 0 1 0
vn 0 1 0
vn 0 1 0
vn 0 -1 0
vn 0 -1 0
vn 0 -1 0
vn 0 -1 0
vn 0 -1 0
vn 0 -1 0
vn 0.3050653 0.9502554 -0.06284752
vn -0.1161058 0.9295794 0.3498593
vn -0.2069604 0.9502554 -0.2327706
vn 0.08473869 0.9631304 -0.2553415
vn -0.5525392 0.8256773 0.1138305
vn 0.3748499 0.8256773 0.4215977
vn -0.3149725 0 0.9491007
vn -0.3149725 0 0.9491007
vn 0.6644591 0 0.7473246
vn 0.6644591 0 0.7473246
vn -0.2509929 0.6041475 0.7563123
vn -0.1161058 0.9295794 0.3498593
vn 0.3748499 0.8256773 0.4215977
vn 0.5294893 0.6041474 0.5955224
vn -0.9794317 0 0.201776
vn -0.9794317 0 0.201776
vn -0.3149725 0 0.9491007
vn -0.3149725 0 0.9491007
vn -0.7804822 0.6041474 0.1607897
vn -0.5525392 0.8256773 0.1138305
vn -0.1161058 0.9295794 0.3498593
vn -0.2509929 0.6041475 0.7563123
vn -0.6644591 0 -0.7473246
vn -0.6644591 0 -0.7473246
vn -0.9794317 0 0.201776
vn -0.9794317 0 0.201776
vn -0.5294893 0.6041474 -0.5955224
vn -0.2069604 0.9502554 -0.2327706
vn -0.5525392 0.8256773 0.1138305
vn -0.7804822 0.6041474 0.1607897
vn 0.3149725 0 -0.9491007
vn 0.3149725 0 -0.9491007
vn -0.6644591 0 -0.7473246
vn -0.6644591 0 -0.7473246
vn 0.2509929 0.6041474 -0.7563123
vn 0.08473869 0.9631304 -0.2553415
vn -0.2069604 0.9502554 -0.2327706
vn -0.5294893 0.6041474 -0.5955224
vn 0.9794317 0 -0.2017761
vn 0.9794317 0 -0.2017761
vn 0.3149725 0 -0.9491007
vn 0.3149725 0 -0.9491007
vn 0.7804822 0.6041474 -0.1607897
vn 0.3050653 0.9502554 -0.06284752
vn 0.08473869 0.9631304 -0.2553415
vn 0.2509929 0.6041474 -0.7563123
vn 0.6644591 0 0.7473246
vn 0.6644591 0 0.7473246
vn 0.9794317 0 -0.2017761
vn 0.9794317 0 -0.2017761
vn 0.5294893 0.6041474 0.5955224
vn 0.3748499 0.8256773 0.4215977
vn 0.3050653 0.9502554 -0.06284752
vn 0.7804822 0.6041474 -0.1607897

vt 0.8442383 0.8046875
vt 0.8378906 0.8046875
vt 0.8378906 0.7929688
vt 0.8442383 0.7929688
vt 0.8378906 0.7807617
vt 0.8442383 0.7807617
vt 0.8442383 0.8144531
vt 0.8378906 0.8144531
vt 0.8442383 0.8266602
vt 0.8378906 0.8266602
vt 0.8520508 0.8022461
vt 0.8520508 0.8144531
vt 0.8452148 0.8144531
vt 0.8452148 0.8022461
vt 0.8452148 0.8266602
vt 0.8520508 0.8266602
vt 0.8520508 0.7929688
vt 0.8452148 0.7929688
vt 0.8520508 0.7807617
vt 0.8452148 0.7807617
vt 0.8359375 0.7929688
vt 0.8378906 0.7929688
vt 0.8378906 0.8046875
vt 0.8359375 0.8046875
vt 0.8359375 0.7807617
vt 0.8378906 0.7807617
vt 0.8378906 0.8144531
vt 0.8359375 0.8144531
vt 0.8378906 0.8266602
vt 0.8359375 0.8266602
vt 0.8442383 0.7788086
vt 0.8442383 0.7807617
vt 0.8378906 0.7807617
vt 0.8378906 0.7788086
vt 0.8378906 0.8291016
vt 0.8378906 0.8266602
vt 0.8442383 0.8266602
vt 0.8442383 0.8291016
vt 0.8271484 0.8833008
vt 0.8320313 0.8833008
vt 0.8320313 0.8779297
vt 0.8271484 0.8779297
vt 0.8271484 0.8886719
vt 0.8320313 0.8886719
vt 0.8271484 0.894043
vt 0.8320313 0.894043
vt 0.8271484 0.8994141
vt 0.8320313 0.8994141
vt 0.8374023 0.8994141
vt 0.8374023 0.894043
vt 0.8320313 0.894043
vt 0.8320313 0.8994141
vt 0.9267578 0.8789063
vt 0.9316406 0.887207
vt 0.9169922 0.8789063
vt 0.9121094 0.887207
vt 0.9169922 0.8959961
vt 0.9267578 0.8959961
vt 0.887207 0.8164063
vt 0.8657227 0.8286133
vt 0.8657227 0.8041992
vt 0.8798828 0.8041992
vt 0.8583984 0.8164063
vt 0.8798828 0.8286133
vt 0.9116211 0.800293
vt 0.8647461 0.800293
vt 0.8647461 0.7802734
vt 0.9116211 0.7802734
vt 0.8647461 0.800293
vt 0.8564453 0.800293
vt 0.8564453 0.7802734
vt 0.8647461 0.7802734
vt 0.9116211 0.800293
vt 0.8647461 0.800293
vt 0.8647461 0.7802734
vt 0.9116211 0.7802734
vt 0.8647461 0.800293
vt 0.8564453 0.800293
vt 0.8564453 0.7802734
vt 0.8647461 0.7802734
vt 0.9116211 0.800293
vt 0.8647461 0.800293
vt 0.8647461 0.7802734
vt 0.9116211 0.7802734
vt 0.8647461 0.800293
vt 0.8564453 0.800293
vt 0.8564453 0.7802734
vt 0.8647461 0.7802734
vt 0.9116211 0.800293
vt 0.8647461 0.800293
vt 0.8647461 0.7802734
vt 0.9116211 0.7802734
vt 0.8647461 0.800293
vt 0.8564453 0.800293
vt 0.8564453 0.7802734
vt 0.8647461 0.7802734
vt 0.9116211 0.800293
vt 0.8647461 0.800293
vt 0.8647461 0.7802734
vt 0.9116211 0.7802734
vt 0.8647461 0.800293
vt 0.8564453 0.800293
vt 0.8564453 0.7802734
vt 0.8647461 0.7802734
vt 0.9116211 0.800293
vt 0.8647461 0.800293
vt 0.8647461 0.7802734
vt 0.9116211 0.7802734
vt 0.8647461 0.800293
vt 0.8564453 0.800293
vt 0.8564453 0.7802734
vt 0.8647461 0.7802734

g Gas_bottle_1349_36
usemtl Gas_bottle_1349_36
usemap Gas_bottle_1349_36
f 1/1/1 3/3/3 2/2/2
f 1/1/1 4/4/4 3/3/3
f 4/4/4 5/5/5 3/3/3
f 4/4/4 6/6/6 5/5/5
f 7/7/7 1/1/1 2/2/2
f 7/7/7 2/2/2 8/8/8
f 9/9/9 7/7/7 8/8/8
f 9/9/9 8/8/8 10/10/10
f 11/11/11 13/13/13 12/12/12
f 11/11/11 14/14/14 13/13/13
f 12/12/12 13/13/13 15/15/15
f 12/12/12 15/15/15 16/16/16
f 17/17/17 14/14/14 11/11/11
f 17/17/17 18/18/18 14/14/14
f 19/19/19 18/18/18 17/17/17
f 19/19/19 20/20/20 18/18/18
f 21/21/21 23/23/23 22/22/22
f 21/21/21 24/24/24 23/23/23
f 25/25/25 21/21/21 22/22/22
f 25/25/25 22/22/22 26/26/26
f 24/24/24 27/27/27 23/23/23
f 24/24/24 28/28/28 27/27/27
f 28/28/28 29/29/29 27/27/27
f 28/28/28 30/30/30 29/29/29
f 31/31/31 33/33/33 32/32/32
f 31/31/31 34/34/34 33/33/33
f 35/35/35 37/37/37 36/36/36
f 35/35/35 38/38/38 37/37/37
f 39/39/39 41/41/41 40/40/40
f 39/39/39 42/42/42 41/41/41
f 43/43/43 39/39/39 40/40/40
f 43/43/43 40/40/40 44/44/44
f 44/44/44 45/45/45 43/43/43
f 44/44/44 46/46/46 45/45/45
f 47/47/47 45/45/45 46/46/46
f 47/47/47 46/46/46 48/48/48
f 49/49/49 51/51/51 50/50/50
f 49/49/49 52/52/52 51/51/51
f 53/53/53 55/55/55 54/54/54
f 55/55/55 56/56/56 54/54/54
f 56/56/56 57/57/57 54/54/54
f 57/57/57 58/58/58 54/54/54
f 59/59/59 61/61/61 60/60/60
f 59/59/59 62/62/62 61/61/61
f 63/63/63 60/60/60 61/61/61
f 64/64/64 59/59/59 60/60/60
f 65/65/65 67/67/67 66/66/66
f 65/65/65 68/68/68 67/67/67
f 69/69/69 71/71/71 70/70/70
f 69/69/69 72/72/72 71/71/71
f 73/73/73 75/75/75 74/74/74
f 73/73/73 76/76/76 75/75/75
f 77/77/77 79/79/79 78/78/78
f 77/77/77 80/80/80 79/79/79
f 81/81/81 83/83/83 82/82/82
f 81/81/81 84/84/84 83/83/83
f 85/85/85 87/87/87 86/86/86
f 85/85/85 88/88/88 87/87/87
f 89/89/89 91/91/91 90/90/90
f 89/89/89 92/92/92 91/91/91
f 93/93/93 95/95/95 94/94/94
f 93/93/93 96/96/96 95/95/95
f 97/97/97 99/99/99 98/98/98
f 97/97/97 100/100/100 99/99/99
f 101/101/101 103/103/103 102/102/102
f 101/101/101 104/104/104 103/103/103
f 105/105/105 107/107/107 106/106/106
f 105/105/105 108/108/108 107/107/107
f 109/109/109 111/111/111 110/110/110
f 109/109/109 112/112/112 111/111/111
