#Metal_Fence2_2242_231.obj

v -0.244504 0.3336297 0.003248803
v 2.562401 0.3336297 0.003243096
v -0.2273105 0.4796804 0.003249232
v 0.04344807 2.779586 0.003246605
v 2.562401 2.970285 0.003243096
v 0.06240066 2.932361 0.003246525
v 0.04344807 2.779586 0.003246605
v -2.4376 2.970285 0.003242334
v -0.2273105 0.4796804 0.003249232
v -2.4376 0.3336297 0.003242334
v -0.244504 0.3336297 0.003248803
v -0.2273105 0.4796804 0.003249232
v 2.562401 0.3336297 0.003243096
v 0.04344807 2.779586 0.003246605
v 2.562401 2.970285 0.003243096
v 0.06240066 2.932361 0.003246525
v 0.04344807 2.779586 0.003246605
v -0.2273105 0.4796804 0.003249232
v -2.4376 2.970285 0.003242334
v -2.4376 0.3336297 0.003242334
v -1.998773 1.013162 -0.2189116
v 1.998772 1.013162 -0.2189137
v 1.998773 1.013162 -0.1282591
v -1.998773 1.013162 -0.1282646
v -1.998773 0.7585618 -0.2189116
v 1.998772 0.7585609 -0.2189137
v 1.998772 1.013162 -0.2189137
v -1.998773 1.013162 -0.2189116
v -1.998773 2.732886 -0.2189116
v 1.998772 2.732886 -0.2189137
v 1.998773 2.732886 -0.1282591
v -1.998773 2.732886 -0.1282646
v -1.998773 2.478286 -0.2189116
v 1.998772 2.478285 -0.2189137
v 1.998772 2.732886 -0.2189137
v -1.998773 2.732886 -0.2189116
v 1.922159 -0.01736171 -0.08470002
v 1.922159 3.030191 -0.08470002
v 2.077842 3.030191 -0.08469966
v 2.077842 -0.01736171 -0.08469966
v 2.077842 -0.01736171 -0.08469966
v 2.077842 3.030191 -0.08469966
v 2.077843 3.030191 -0.2624717
v 2.077843 -0.01736171 -0.2624717
v 1.922158 -0.01736171 -0.2624719
v 1.922158 3.030191 -0.2624719
v 1.922159 3.030191 -0.08470002
v 1.922159 -0.01736171 -0.08470002
v 1.922158 3.030191 -0.2624719
v 1.922158 -0.01736171 -0.2624719
v 2.077843 -0.01736171 -0.2624717
v 2.077843 3.030191 -0.2624717
v 1.922159 3.030191 -0.08470002
v 1.922158 3.030191 -0.2624719
v 2.077843 3.030191 -0.2624717
v 2.077842 3.030191 -0.08469966
v -2.077841 -0.05952005 -0.08469915
v -2.077841 2.988033 -0.08469915
v -1.922158 2.988033 -0.08469878
v -1.922158 -0.05952005 -0.08469878
v -1.922158 -0.05952005 -0.08469878
v -1.922158 2.988033 -0.08469878
v -1.922157 2.988033 -0.2624708
v -1.922157 -0.05952005 -0.2624708
v -2.077841 -0.05952005 -0.2624712
v -2.077841 2.988033 -0.2624712
v -2.077841 2.988033 -0.08469915
v -2.077841 -0.05952005 -0.08469915
v -2.077841 2.988033 -0.2624712
v -2.077841 -0.05952005 -0.2624712
v -1.922157 -0.05952005 -0.2624708
v -1.922157 2.988033 -0.2624708
v -2.077841 2.988033 -0.08469915
v -2.077841 2.988033 -0.2624712
v -1.922157 2.988033 -0.2624708
v -1.922158 2.988033 -0.08469878

vn 0.05233596 0 -0.9986295
vn 0.05233596 0 -0.9986295
vn 0.05233596 0 -0.9986295
vn 0.05233596 0 -0.9986295
vn 0.05233596 0 -0.9986295
vn 0.05233596 0 -0.9986295
vn 0.05233596 0 -0.9986295
vn 0.05233596 0 -0.9986295
vn 0.05233596 0 -0.9986295
vn 0.05233596 0 -0.9986295
vn -0.05233596 0 0.9986295
vn -0.05233596 0 0.9986295
vn -0.05233596 0 0.9986295
vn -0.05233596 0 0.9986295
vn -0.05233596 0 0.9986295
vn -0.05233596 0 0.9986295
vn -0.05233596 0 0.9986295
vn -0.05233596 0 0.9986295
vn -0.05233596 0 0.9986295
vn -0.05233596 0 0.9986295
vn 0 1 0
vn 0 1 0
vn 0 1 0
vn 0 1 0
vn 0.05233596 0 -0.9986295
vn 0.05233596 0 -0.9986295
vn 0.05233596 0 -0.9986295
vn 0.05233596 0 -0.9986295
vn 0 1 0
vn 0 1 0
vn 0 1 0
vn 0 1 0
vn 0.05233596 0 -0.9986295
vn 0.05233596 0 -0.9986295
vn 0.05233596 0 -0.9986295
vn 0.05233596 0 -0.9986295
vn -0.05233596 0 0.9986295
vn -0.05233596 0 0.9986295
vn -0.05233596 0 0.9986295
vn -0.05233596 0 0.9986295
vn 0.9986295 0 0.05233596
vn 0.9986295 0 0.05233596
vn 0.9986295 0 0.05233596
vn 0.9986295 0 0.05233596
vn -0.9986295 0 -0.05233596
vn -0.9986295 0 -0.05233596
vn -0.9986295 0 -0.05233596
vn -0.9986295 0 -0.05233596
vn 0.05233596 0 -0.9986295
vn 0.05233596 0 -0.9986295
vn 0.05233596 0 -0.9986295
vn 0.05233596 0 -0.9986295
vn 0 1 0
vn 0 1 0
vn 0 1 0
vn 0 1 0
vn -0.05233596 0 0.9986295
vn -0.05233596 0 0.9986295
vn -0.05233596 0 0.9986295
vn -0.05233596 0 0.9986295
vn 0.9986295 0 0.05233596
vn 0.9986295 0 0.05233596
vn 0.9986295 0 0.05233596
vn 0.9986295 0 0.05233596
vn -0.9986295 0 -0.05233596
vn -0.9986295 0 -0.05233596
vn -0.9986295 0 -0.05233596
vn -0.9986295 0 -0.05233596
vn 0.05233596 0 -0.9986295
vn 0.05233596 0 -0.9986295
vn 0.05233596 0 -0.9986295
vn 0.05233596 0 -0.9986295
vn 0 1 0
vn 0 1 0
vn 0 1 0
vn 0 1 0

vt 0.1879883 0.4165039
vt 0.1877441 0.3476563
vt 0.1899414 0.4165039
vt 0.2446289 0.4165039
vt 0.2486572 0.3476563
vt 0.2492676 0.4165039
vt 0.2486572 0.3476563
vt 0.2492676 0.4165039
vt 0.1875 0.3476563
vt 0.1877441 0.4165039
vt 0.1879883 0.4165039
vt 0.1899414 0.4165039
vt 0.1877441 0.3476563
vt 0.2446289 0.4165039
vt 0.2486572 0.3476563
vt 0.2492676 0.4165039
vt 0.2486572 0.3476563
vt 0.1875 0.3476563
vt 0.2492676 0.4165039
vt 0.1877441 0.4165039
vt 0.7705078 0.6098633
vt 0.7705078 0.5112305
vt 0.7675781 0.5112305
vt 0.7675781 0.6098633
vt 0.7802734 0.6098633
vt 0.7802734 0.5112305
vt 0.7739258 0.5112305
vt 0.7739258 0.6098633
vt 0.7705078 0.5112305
vt 0.7705078 0.6098633
vt 0.7675781 0.6098633
vt 0.7675781 0.5112305
vt 0.7802734 0.5112305
vt 0.7802734 0.6098633
vt 0.7739258 0.6098633
vt 0.7739258 0.5112305
vt 0.7675781 0.534668
vt 0.7675781 0.6088867
vt 0.7744141 0.6088867
vt 0.7744141 0.534668
vt 0.7675781 0.534668
vt 0.7675781 0.6088867
vt 0.7744141 0.6088867
vt 0.7744141 0.534668
vt 0.7675781 0.534668
vt 0.7675781 0.6088867
vt 0.7744141 0.6088867
vt 0.7744141 0.534668
vt 0.7744141 0.6088867
vt 0.7744141 0.534668
vt 0.7675781 0.534668
vt 0.7675781 0.6088867
vt 0.6557617 0.5532227
vt 0.6557617 0.550293
vt 0.652832 0.550293
vt 0.652832 0.5532227
vt 0.7675781 0.534668
vt 0.7675781 0.6088867
vt 0.7744141 0.6088867
vt 0.7744141 0.534668
vt 0.7675781 0.534668
vt 0.7675781 0.6088867
vt 0.7744141 0.6088867
vt 0.7744141 0.534668
vt 0.7675781 0.534668
vt 0.7675781 0.6088867
vt 0.7744141 0.6088867
vt 0.7744141 0.534668
vt 0.7744141 0.6088867
vt 0.7744141 0.534668
vt 0.7675781 0.534668
vt 0.7675781 0.6088867
vt 0.6557617 0.5532227
vt 0.6557617 0.550293
vt 0.652832 0.550293
vt 0.652832 0.5532227

g Metal_Fence2_2242_231
usemtl Metal_Fence2_2242_231
usemap Metal_Fence2_2242_231
f 1/1/1 3/3/3 2/2/2
f 4/4/4 2/2/2 3/3/3
f 5/5/5 2/2/2 4/4/4
f 6/6/6 5/5/5 4/4/4
f 7/7/7 9/9/9 8/8/8
f 8/8/8 9/9/9 10/10/10
f 11/11/11 13/13/13 12/12/12
f 14/14/14 12/12/12 13/13/13
f 15/15/15 14/14/14 13/13/13
f 16/16/16 14/14/14 15/15/15
f 17/17/17 19/19/19 18/18/18
f 19/19/19 20/20/20 18/18/18
f 21/21/21 23/23/23 22/22/22
f 21/21/21 24/24/24 23/23/23
f 25/25/25 27/27/27 26/26/26
f 25/25/25 28/28/28 27/27/27
f 29/29/29 31/31/31 30/30/30
f 29/29/29 32/32/32 31/31/31
f 33/33/33 35/35/35 34/34/34
f 33/33/33 36/36/36 35/35/35
f 37/37/37 39/39/39 38/38/38
f 37/37/37 40/40/40 39/39/39
f 41/41/41 43/43/43 42/42/42
f 41/41/41 44/44/44 43/43/43
f 45/45/45 47/47/47 46/46/46
f 45/45/45 48/48/48 47/47/47
f 49/49/49 51/51/51 50/50/50
f 49/49/49 52/52/52 51/51/51
f 53/53/53 55/55/55 54/54/54
f 53/53/53 56/56/56 55/55/55
f 57/57/57 59/59/59 58/58/58
f 57/57/57 60/60/60 59/59/59
f 61/61/61 63/63/63 62/62/62
f 61/61/61 64/64/64 63/63/63
f 65/65/65 67/67/67 66/66/66
f 65/65/65 68/68/68 67/67/67
f 69/69/69 71/71/71 70/70/70
f 69/69/69 72/72/72 71/71/71
f 73/73/73 75/75/75 74/74/74
f 73/73/73 76/76/76 75/75/75
