#MK4_logo_758_280.obj

v 2.420043 7.317569 -0.1823057
v 2.420043 10.05327 -0.1823057
v -2.420043 10.05327 -0.1823069
v -2.420043 7.317569 -0.1823069
v -2.420043 7.317569 0.1823057
v -2.420043 10.05327 0.1823057
v 2.420043 10.05327 0.1823069
v 2.420043 7.317569 0.1823069

vn -1 0 -2.205372E-06
vn -1 0 -2.205372E-06
vn -1 0 -2.205372E-06
vn -1 0 -2.205372E-06
vn 1 0 2.205372E-06
vn 1 0 2.205372E-06
vn 1 0 2.205372E-06
vn 1 0 2.205372E-06

vt 0 0
vt 0 1
vt 1 1
vt 1 0
vt 0 0
vt 0 1
vt 1 1
vt 1 0

g MK4_logo_758_280
usemtl MK4_logo_758_280
usemap MK4_logo_758_280
f 1/1/1 3/3/3 2/2/2
f 1/1/1 4/4/4 3/3/3
f 5/5/5 7/7/7 6/6/6
f 5/5/5 8/8/8 7/7/7
