#MK4_logo_1218_424.obj

v 2.420044 7.317569 -0.1823044
v 2.420044 10.05327 -0.1823044
v -2.420044 10.05327 -0.1823044
v -2.420044 7.317569 -0.1823044
v -2.420044 7.317569 0.1823044
v -2.420044 10.05327 0.1823044
v 2.420044 10.05327 0.1823044
v 2.420044 7.317569 0.1823044

vn 0 0 -1
vn 0 0 -1
vn 0 0 -1
vn 0 0 -1
vn 0 0 1
vn 0 0 1
vn 0 0 1
vn 0 0 1

vt 0 0
vt 0 1
vt 1 1
vt 1 0
vt 0 0
vt 0 1
vt 1 1
vt 1 0

g MK4_logo_1218_424
usemtl MK4_logo_1218_424
usemap MK4_logo_1218_424
f 1/1/1 3/3/3 2/2/2
f 1/1/1 4/4/4 3/3/3
f 5/5/5 7/7/7 6/6/6
f 5/5/5 8/8/8 7/7/7
