#Pack_2265_217.obj

v -0.6840994 0.01020481 0.684105
v -0.6840994 1.378411 0.684105
v 0.6841018 1.378411 0.684103
v 0.6841018 0.01020481 0.684103
v -0.6840994 1.378411 0.684105
v -0.6841018 1.378411 -0.684103
v 0.6840994 1.378411 -0.684105
v 0.6841018 1.378411 0.684103
v -0.6841018 1.378411 -0.684103
v -0.6841018 0.01020481 -0.684103
v 0.6840994 0.01020481 -0.684105
v 0.6840994 1.378411 -0.684105
v -0.6841018 0.01020481 -0.684103
v -0.6840994 0.01020481 0.684105
v 0.6841018 0.01020481 0.684103
v 0.6840994 0.01020481 -0.684105
v 0.6841018 0.01020481 0.684103
v 0.6841018 1.378411 0.684103
v 0.6840994 1.378411 -0.684105
v 0.6840994 0.01020481 -0.684105
v -0.6841018 0.01020481 -0.684103
v -0.6841018 1.378411 -0.684103
v -0.6840994 1.378411 0.684105
v -0.6840994 0.01020481 0.684105

vn -0.738759 0 0.6739697
vn -0.738759 0 0.6739697
vn -0.738759 0 0.6739697
vn -0.738759 0 0.6739697
vn 0 1 0
vn 0 1 0
vn 0 1 0
vn 0 1 0
vn 0.738759 0 -0.6739697
vn 0.738759 0 -0.6739697
vn 0.738759 0 -0.6739697
vn 0.738759 0 -0.6739697
vn 0 -1 0
vn 0 -1 0
vn 0 -1 0
vn 0 -1 0
vn 0.6739697 0 0.738759
vn 0.6739697 0 0.738759
vn 0.6739697 0 0.738759
vn 0.6739697 0 0.738759
vn -0.6739697 0 -0.738759
vn -0.6739697 0 -0.738759
vn -0.6739697 0 -0.738759
vn -0.6739697 0 -0.738759

vt 0.8935547 0.1115723
vt 0.8935547 0.142334
vt 0.9243164 0.142334
vt 0.9243164 0.1115723
vt 0.7719727 0.03399658
vt 0.8027344 0.03399658
vt 0.8027344 0.003175735
vt 0.7719727 0.003175735
vt 0.9243164 0.142334
vt 0.9243164 0.1115723
vt 0.8935547 0.1115723
vt 0.8935547 0.142334
vt 0.7719727 0.003175735
vt 0.7719727 0.03399658
vt 0.8027344 0.03399658
vt 0.8027344 0.003175735
vt 0.7827148 0.1115723
vt 0.7827148 0.142334
vt 0.8134766 0.142334
vt 0.8134766 0.1115723
vt 0.7827148 0.1115723
vt 0.7827148 0.142334
vt 0.8134766 0.142334
vt 0.8134766 0.1115723

g Pack_2265_217
usemtl Pack_2265_217
usemap Pack_2265_217
f 1/1/1 3/3/3 2/2/2
f 1/1/1 4/4/4 3/3/3
f 5/5/5 7/7/7 6/6/6
f 5/5/5 8/8/8 7/7/7
f 9/9/9 11/11/11 10/10/10
f 9/9/9 12/12/12 11/11/11
f 13/13/13 15/15/15 14/14/14
f 13/13/13 16/16/16 15/15/15
f 17/17/17 19/19/19 18/18/18
f 17/17/17 20/20/20 19/19/19
f 21/21/21 23/23/23 22/22/22
f 21/21/21 24/24/24 23/23/23
