#Pallet_(4)_1410_20.obj

v -1.169823 0.09541436 0.5617
v 1.14532 0.05197003 0.6153364
v 1.152014 0.3630736 0.5783433
v -1.163128 0.4065176 0.524707
v 1.14532 0.05197003 0.6153364
v 1.138809 0.08910223 0.9264269
v 1.145503 0.4002058 0.8894339
v 1.152014 0.3630736 0.5783433
v 1.138809 0.08910223 0.9264269
v -1.176333 0.1325467 0.8727905
v -1.169638 0.4436502 0.8357978
v 1.145503 0.4002058 0.8894339
v -1.176333 0.1325467 0.8727905
v -1.169823 0.09541436 0.5617
v -1.163128 0.4065176 0.524707
v -1.169638 0.4436502 0.8357978
v -1.163128 0.4065176 0.524707
v 1.152014 0.3630736 0.5783433
v 1.145503 0.4002058 0.8894339
v -1.169638 0.4436502 0.8357978
v -1.176333 0.1325467 0.8727905
v 1.138809 0.08910223 0.9264269
v 1.14532 0.05197003 0.6153364
v -1.169823 0.09541436 0.5617
v -0.6108415 0.282719 -1.105395
v -0.739674 0.5334344 0.9797149
v -1.056178 0.5393726 0.9723819
v -1.097654 0.291853 -1.116673
v -0.739674 0.5334344 0.9797149
v -0.7414435 0.4511925 0.9894935
v -1.057948 0.4571318 0.9821604
v -1.056178 0.5393726 0.9723819
v -0.7414435 0.4511925 0.9894935
v -0.6126116 0.2004772 -1.095615
v -1.099423 0.2096124 -1.106895
v -1.057948 0.4571318 0.9821604
v -0.6126116 0.2004772 -1.095615
v -0.6108415 0.282719 -1.105395
v -1.097654 0.291853 -1.116673
v -1.099423 0.2096124 -1.106895
v -1.097654 0.291853 -1.116673
v -1.056178 0.5393726 0.9723819
v -1.057948 0.4571318 0.9821604
v -1.099423 0.2096124 -1.106895
v -0.6126116 0.2004772 -1.095615
v -0.7414435 0.4511925 0.9894935
v -0.739674 0.5334344 0.9797149
v -0.6108415 0.282719 -1.105395
v -0.04815665 0.2721601 -1.092359
v -0.01890044 0.5322693 1.100361
v -0.6006463 0.5363762 1.029625
v -0.4808815 0.2802792 -1.102385
v -0.01890044 0.5322693 1.100361
v -0.02066994 0.4500275 1.110139
v -0.6024162 0.4541353 1.039403
v -0.6006463 0.5363762 1.029625
v -0.02066994 0.4500275 1.110139
v -0.04992613 0.1899182 -1.082581
v -0.4826519 0.1980383 -1.092605
v -0.6024162 0.4541353 1.039403
v -0.04992613 0.1899182 -1.082581
v -0.04815665 0.2721601 -1.092359
v -0.4808815 0.2802792 -1.102385
v -0.4826519 0.1980383 -1.092605
v -0.4808815 0.2802792 -1.102385
v -0.6006463 0.5363762 1.029625
v -0.6024162 0.4541353 1.039403
v -0.4826519 0.1980383 -1.092605
v -0.04992613 0.1899182 -1.082581
v -0.02066994 0.4500275 1.110139
v -0.01890044 0.5322693 1.100361
v -0.04815665 0.2721601 -1.092359
v 0.5920104 0.2658491 -1.029577
v 0.4978931 0.510211 1.008386
v 0.06516825 0.5183302 0.99836
v 0.05840787 0.2644574 -1.13784
v 0.4978931 0.510211 1.008386
v 0.496123 0.4279692 1.018166
v 0.06339779 0.4360893 1.00814
v 0.06516825 0.5183302 0.99836
v 0.496123 0.4279692 1.018166
v 0.59024 0.1836068 -1.019799
v 0.0566374 0.1822166 -1.12806
v 0.06339779 0.4360893 1.00814
v 0.59024 0.1836068 -1.019799
v 0.5920104 0.2658491 -1.029577
v 0.05840787 0.2644574 -1.13784
v 0.0566374 0.1822166 -1.12806
v 0.05840787 0.2644574 -1.13784
v 0.06516825 0.5183302 0.99836
v 0.06339779 0.4360893 1.00814
v 0.0566374 0.1822166 -1.12806
v 0.59024 0.1836068 -1.019799
v 0.496123 0.4279692 1.018166
v 0.4978931 0.510211 1.008386
v 0.5920104 0.2658491 -1.029577
v 1.1313 0.2500273 -1.065033
v 1.087621 0.4991446 1.022049
v 0.6548964 0.5072638 1.012023
v 0.6985748 0.2581465 -1.075058
v 1.087621 0.4991446 1.022049
v 1.085852 0.4169028 1.031828
v 0.6531259 0.425023 1.021804
v 0.6548964 0.5072638 1.012023
v 1.085852 0.4169028 1.031828
v 1.129529 0.1677851 -1.055254
v 0.696805 0.1759056 -1.06528
v 0.6531259 0.425023 1.021804
v 1.129529 0.1677851 -1.055254
v 1.1313 0.2500273 -1.065033
v 0.6985748 0.2581465 -1.075058
v 0.696805 0.1759056 -1.06528
v 0.6985748 0.2581465 -1.075058
v 0.6548964 0.5072638 1.012023
v 0.6531259 0.425023 1.021804
v 0.696805 0.1759056 -1.06528
v 1.129529 0.1677851 -1.055254
v 1.085852 0.4169028 1.031828
v 1.087621 0.4991446 1.022049
v 1.1313 0.2500273 -1.065033
v 1.166286 -0.06761581 -0.386542
v -1.148855 -0.0241715 -0.4401779
v -1.14216 0.2869321 -0.4771728
v 1.172981 0.2434878 -0.4235346
v -1.148855 -0.0241715 -0.4401779
v -1.142345 -0.0613037 -0.7512684
v -1.13565 0.2497999 -0.7882633
v -1.14216 0.2869321 -0.4771728
v -1.142345 -0.0613037 -0.7512684
v 1.172797 -0.1047478 -0.6976304
v 1.179492 0.2063555 -0.7346252
v -1.13565 0.2497999 -0.7882633
v 1.172797 -0.1047478 -0.6976304
v 1.166286 -0.06761581 -0.386542
v 1.172981 0.2434878 -0.4235346
v 1.179492 0.2063555 -0.7346252
v 1.172981 0.2434878 -0.4235346
v -1.14216 0.2869321 -0.4771728
v -1.13565 0.2497999 -0.7882633
v 1.179492 0.2063555 -0.7346252
v 1.172797 -0.1047478 -0.6976304
v -1.142345 -0.0613037 -0.7512684
v -1.148855 -0.0241715 -0.4401779
v 1.166286 -0.06761581 -0.386542

vn -0.3297503 4.904717E-05 -0.9440682
vn -0.3297503 4.904717E-05 -0.9440682
vn -0.3297503 4.904717E-05 -0.9440682
vn -0.3297503 4.904717E-05 -0.9440682
vn 0.8810057 -0.359338 -0.3077421
vn 0.8810057 -0.359338 -0.3077421
vn 0.8810057 -0.359338 -0.3077421
vn 0.8810057 -0.359338 -0.3077421
vn 0.3297503 -4.904717E-05 0.9440682
vn 0.3297503 -4.904717E-05 0.9440682
vn 0.3297503 -4.904717E-05 0.9440682
vn 0.3297503 -4.904717E-05 0.9440682
vn -0.8810057 0.359338 0.3077421
vn -0.8810057 0.359338 0.3077421
vn -0.8810057 0.359338 0.3077421
vn -0.8810057 0.359338 0.3077421
vn 0.3392546 0.9332075 -0.1184486
vn 0.3392546 0.9332075 -0.1184486
vn 0.3392546 0.9332075 -0.1184486
vn 0.3392546 0.9332075 -0.1184486
vn -0.3392546 -0.9332075 0.1184486
vn -0.3392546 -0.9332075 0.1184486
vn -0.3392546 -0.9332075 0.1184486
vn -0.3392546 -0.9332075 0.1184486
vn 0.3392546 0.9332075 -0.1184486
vn 0.3392546 0.9332075 -0.1184486
vn 0.3392546 0.9332075 -0.1184486
vn 0.3392546 0.9332075 -0.1184486
vn 0.3297503 -4.904717E-05 0.9440682
vn 0.3297503 -4.904717E-05 0.9440682
vn 0.3297503 -4.904717E-05 0.9440682
vn 0.3297503 -4.904717E-05 0.9440682
vn -0.3392546 -0.9332075 0.1184486
vn -0.3392546 -0.9332075 0.1184486
vn -0.3392546 -0.9332075 0.1184486
vn -0.3392546 -0.9332075 0.1184486
vn -0.3297503 4.904717E-05 -0.9440682
vn -0.3297503 4.904717E-05 -0.9440682
vn -0.3297503 4.904717E-05 -0.9440682
vn -0.3297503 4.904717E-05 -0.9440682
vn -0.8669321 0.3590413 0.345714
vn -0.8669321 0.3590413 0.345714
vn -0.8669321 0.3590413 0.345714
vn -0.8669321 0.3590413 0.345714
vn 0.8936345 -0.3590453 -0.2692655
vn 0.8936345 -0.3590453 -0.2692655
vn 0.8936345 -0.3590453 -0.2692655
vn 0.8936345 -0.3590453 -0.2692655
vn 0.3392546 0.9332075 -0.1184486
vn 0.3392546 0.9332075 -0.1184486
vn 0.3392546 0.9332075 -0.1184486
vn 0.3392546 0.9332075 -0.1184486
vn 0.2414857 0.03529956 0.9697621
vn 0.2414857 0.03529955 0.9697621
vn 0.2414857 0.03529955 0.9697621
vn 0.2414857 0.03529956 0.9697621
vn -0.3392546 -0.9332075 0.1184486
vn -0.3392546 -0.9332075 0.1184486
vn -0.3392546 -0.9332075 0.1184486
vn -0.3392546 -0.9332075 0.1184486
vn -0.3297503 4.904717E-05 -0.9440682
vn -0.3297503 4.904717E-05 -0.9440682
vn -0.3297503 4.904717E-05 -0.9440682
vn -0.3297503 4.904717E-05 -0.9440682
vn -0.8919889 0.3591203 0.2745693
vn -0.8919889 0.3591203 0.2745693
vn -0.8919889 0.3591203 0.2745693
vn -0.8919889 0.3591203 0.2745693
vn 0.8692749 -0.3591282 -0.3396882
vn 0.8692749 -0.3591282 -0.3396882
vn 0.8692749 -0.3591282 -0.3396882
vn 0.8692749 -0.3591282 -0.3396882
vn 0.3392546 0.9332075 -0.1184486
vn 0.3392546 0.9332075 -0.1184486
vn 0.3392546 0.9332075 -0.1184486
vn 0.3392546 0.9332075 -0.1184486
vn 0.3297503 -4.904717E-05 0.9440682
vn 0.3297503 -4.904717E-05 0.9440682
vn 0.3297503 -4.904717E-05 0.9440682
vn 0.3297503 -4.904717E-05 0.9440682
vn -0.3392546 -0.9332075 0.1184486
vn -0.3392546 -0.9332075 0.1184486
vn -0.3392546 -0.9332075 0.1184486
vn -0.3392546 -0.9332075 0.1184486
vn -0.1682918 -0.06367452 -0.9836786
vn -0.1682918 -0.06367452 -0.9836786
vn -0.1682918 -0.06367452 -0.9836786
vn -0.1682918 -0.06367452 -0.9836786
vn -0.8728648 0.3592339 0.3302391
vn -0.8728648 0.3592339 0.3302391
vn -0.8728648 0.3592339 0.3302391
vn -0.8728648 0.3592339 0.3302391
vn 0.8889885 -0.3592264 -0.2839996
vn 0.8889885 -0.3592264 -0.2839996
vn 0.8889885 -0.3592264 -0.2839996
vn 0.8889885 -0.3592264 -0.2839996
vn 0.3392546 0.9332075 -0.1184486
vn 0.3392546 0.9332075 -0.1184486
vn 0.3392546 0.9332075 -0.1184486
vn 0.3392546 0.9332075 -0.1184486
vn 0.3297503 -4.904717E-05 0.9440682
vn 0.3297503 -4.904717E-05 0.9440682
vn 0.3297503 -4.904717E-05 0.9440682
vn 0.3297503 -4.904717E-05 0.9440682
vn -0.3392546 -0.9332075 0.1184486
vn -0.3392546 -0.9332075 0.1184486
vn -0.3392546 -0.9332075 0.1184486
vn -0.3392546 -0.9332075 0.1184486
vn -0.3297503 4.904717E-05 -0.9440682
vn -0.3297503 4.904717E-05 -0.9440682
vn -0.3297503 4.904717E-05 -0.9440682
vn -0.3297503 4.904717E-05 -0.9440682
vn -0.8810057 0.359338 0.3077421
vn -0.8810057 0.359338 0.3077421
vn -0.8810057 0.359338 0.3077421
vn -0.8810057 0.359338 0.3077421
vn 0.8810057 -0.359338 -0.3077421
vn 0.8810057 -0.359338 -0.3077421
vn 0.8810057 -0.359338 -0.3077421
vn 0.8810057 -0.359338 -0.3077421
vn 0.3297503 -4.904717E-05 0.9440682
vn 0.3297503 -4.904717E-05 0.9440682
vn 0.3297503 -4.904717E-05 0.9440682
vn 0.3297503 -4.904717E-05 0.9440682
vn -0.8810057 0.359338 0.3077421
vn -0.8810057 0.359338 0.3077421
vn -0.8810057 0.359338 0.3077421
vn -0.8810057 0.359338 0.3077421
vn -0.3297503 4.904717E-05 -0.9440682
vn -0.3297503 4.904717E-05 -0.9440682
vn -0.3297503 4.904717E-05 -0.9440682
vn -0.3297503 4.904717E-05 -0.9440682
vn 0.8810057 -0.359338 -0.3077421
vn 0.8810057 -0.359338 -0.3077421
vn 0.8810057 -0.359338 -0.3077421
vn 0.8810057 -0.359338 -0.3077421
vn 0.3392546 0.9332075 -0.1184486
vn 0.3392546 0.9332075 -0.1184486
vn 0.3392546 0.9332075 -0.1184486
vn 0.3392546 0.9332075 -0.1184486
vn -0.3392546 -0.9332075 0.1184486
vn -0.3392546 -0.9332075 0.1184486
vn -0.3392546 -0.9332075 0.1184486
vn -0.3392546 -0.9332075 0.1184486

vt 0.8447266 0.2272949
vt 0.8447266 0.3049316
vt 0.8574219 0.3049316
vt 0.8574219 0.2272949
vt 0.6132813 0.2384033
vt 0.6132813 0.2197266
vt 0.5947266 0.2197266
vt 0.5947266 0.2384033
vt 0.8447266 0.2272949
vt 0.8447266 0.3049316
vt 0.8574219 0.3049316
vt 0.8574219 0.2272949
vt 0.6132813 0.2384033
vt 0.6132813 0.2197266
vt 0.5947266 0.2197266
vt 0.5947266 0.2384033
vt 0.8447266 0.2272949
vt 0.8447266 0.3049316
vt 0.8574219 0.3049316
vt 0.8574219 0.2272949
vt 0.8447266 0.2272949
vt 0.8447266 0.3049316
vt 0.8574219 0.3049316
vt 0.8574219 0.2272949
vt 0.8999023 0.2954102
vt 0.8999023 0.2139893
vt 0.9135742 0.2139893
vt 0.9135742 0.2954102
vt 0.6132813 0.2318115
vt 0.6132813 0.2263184
vt 0.5947266 0.2263184
vt 0.5947266 0.2318115
vt 0.8999023 0.2139893
vt 0.8999023 0.2954102
vt 0.9135742 0.2954102
vt 0.9135742 0.2139893
vt 0.6132813 0.2318115
vt 0.6132813 0.2263184
vt 0.5947266 0.2263184
vt 0.5947266 0.2318115
vt 0.9189453 0.2954102
vt 0.9189453 0.2139893
vt 0.9135742 0.2139893
vt 0.9135742 0.2954102
vt 0.9189453 0.2954102
vt 0.9189453 0.2139893
vt 0.9135742 0.2139893
vt 0.9135742 0.2954102
vt 0.7319336 0.2080078
vt 0.6503906 0.2080078
vt 0.6503906 0.190918
vt 0.7319336 0.190918
vt 0.6132813 0.2318115
vt 0.6132813 0.2263184
vt 0.5947266 0.2263184
vt 0.5947266 0.2318115
vt 0.6503906 0.2080078
vt 0.7319336 0.2080078
vt 0.7319336 0.190918
vt 0.6503906 0.190918
vt 0.6132813 0.2318115
vt 0.6132813 0.2263184
vt 0.5947266 0.2263184
vt 0.5947266 0.2318115
vt 0.7319336 0.1851807
vt 0.6503906 0.1851807
vt 0.6503906 0.190918
vt 0.7319336 0.190918
vt 0.7319336 0.1851807
vt 0.6503906 0.1851807
vt 0.6503906 0.190918
vt 0.7319336 0.190918
vt 0.7246094 0.1827393
vt 0.6430664 0.1827393
vt 0.6430664 0.1656494
vt 0.7246094 0.1656494
vt 0.6132813 0.2318115
vt 0.6132813 0.2263184
vt 0.5947266 0.2263184
vt 0.5947266 0.2318115
vt 0.6430664 0.1827393
vt 0.7246094 0.1827393
vt 0.7246094 0.1656494
vt 0.6430664 0.1656494
vt 0.6132813 0.2318115
vt 0.6132813 0.2263184
vt 0.5947266 0.2263184
vt 0.5947266 0.2318115
vt 0.7246094 0.1599121
vt 0.6430664 0.1599121
vt 0.6430664 0.1656494
vt 0.7246094 0.1656494
vt 0.7246094 0.1599121
vt 0.6430664 0.1599121
vt 0.6430664 0.1656494
vt 0.7246094 0.1656494
vt 0.9204102 0.2919922
vt 0.9204102 0.2159424
vt 0.934082 0.2159424
vt 0.934082 0.2919922
vt 0.6132813 0.2318115
vt 0.6132813 0.2263184
vt 0.5947266 0.2263184
vt 0.5947266 0.2318115
vt 0.9204102 0.2159424
vt 0.9204102 0.2919922
vt 0.934082 0.2919922
vt 0.934082 0.2159424
vt 0.6132813 0.2318115
vt 0.6132813 0.2263184
vt 0.5947266 0.2263184
vt 0.5947266 0.2318115
vt 0.9399414 0.2919922
vt 0.9399414 0.2159424
vt 0.934082 0.2159424
vt 0.934082 0.2919922
vt 0.9399414 0.2919922
vt 0.9399414 0.2159424
vt 0.934082 0.2159424
vt 0.934082 0.2919922
vt 0.8447266 0.2272949
vt 0.8447266 0.3049316
vt 0.8574219 0.3049316
vt 0.8574219 0.2272949
vt 0.6132813 0.2384033
vt 0.6132813 0.2197266
vt 0.5947266 0.2197266
vt 0.5947266 0.2384033
vt 0.8447266 0.2272949
vt 0.8447266 0.3049316
vt 0.8574219 0.3049316
vt 0.8574219 0.2272949
vt 0.6132813 0.2384033
vt 0.6132813 0.2197266
vt 0.5947266 0.2197266
vt 0.5947266 0.2384033
vt 0.8447266 0.2272949
vt 0.8447266 0.3049316
vt 0.8574219 0.3049316
vt 0.8574219 0.2272949
vt 0.8447266 0.2272949
vt 0.8447266 0.3049316
vt 0.8574219 0.3049316
vt 0.8574219 0.2272949

g Pallet_(4)_1410_20
usemtl Pallet_(4)_1410_20
usemap Pallet_(4)_1410_20
f 1/1/1 3/3/3 2/2/2
f 1/1/1 4/4/4 3/3/3
f 5/5/5 7/7/7 6/6/6
f 5/5/5 8/8/8 7/7/7
f 9/9/9 11/11/11 10/10/10
f 9/9/9 12/12/12 11/11/11
f 13/13/13 15/15/15 14/14/14
f 13/13/13 16/16/16 15/15/15
f 17/17/17 19/19/19 18/18/18
f 17/17/17 20/20/20 19/19/19
f 21/21/21 23/23/23 22/22/22
f 21/21/21 24/24/24 23/23/23
f 25/25/25 27/27/27 26/26/26
f 25/25/25 28/28/28 27/27/27
f 29/29/29 31/31/31 30/30/30
f 29/29/29 32/32/32 31/31/31
f 33/33/33 35/35/35 34/34/34
f 33/33/33 36/36/36 35/35/35
f 37/37/37 39/39/39 38/38/38
f 37/37/37 40/40/40 39/39/39
f 41/41/41 43/43/43 42/42/42
f 41/41/41 44/44/44 43/43/43
f 45/45/45 47/47/47 46/46/46
f 45/45/45 48/48/48 47/47/47
f 49/49/49 51/51/51 50/50/50
f 49/49/49 52/52/52 51/51/51
f 53/53/53 55/55/55 54/54/54
f 53/53/53 56/56/56 55/55/55
f 57/57/57 59/59/59 58/58/58
f 57/57/57 60/60/60 59/59/59
f 61/61/61 63/63/63 62/62/62
f 61/61/61 64/64/64 63/63/63
f 65/65/65 67/67/67 66/66/66
f 65/65/65 68/68/68 67/67/67
f 69/69/69 71/71/71 70/70/70
f 69/69/69 72/72/72 71/71/71
f 73/73/73 75/75/75 74/74/74
f 73/73/73 76/76/76 75/75/75
f 77/77/77 79/79/79 78/78/78
f 77/77/77 80/80/80 79/79/79
f 81/81/81 83/83/83 82/82/82
f 81/81/81 84/84/84 83/83/83
f 85/85/85 87/87/87 86/86/86
f 85/85/85 88/88/88 87/87/87
f 89/89/89 91/91/91 90/90/90
f 89/89/89 92/92/92 91/91/91
f 93/93/93 95/95/95 94/94/94
f 93/93/93 96/96/96 95/95/95
f 97/97/97 99/99/99 98/98/98
f 97/97/97 100/100/100 99/99/99
f 101/101/101 103/103/103 102/102/102
f 101/101/101 104/104/104 103/103/103
f 105/105/105 107/107/107 106/106/106
f 105/105/105 108/108/108 107/107/107
f 109/109/109 111/111/111 110/110/110
f 109/109/109 112/112/112 111/111/111
f 113/113/113 115/115/115 114/114/114
f 113/113/113 116/116/116 115/115/115
f 117/117/117 119/119/119 118/118/118
f 117/117/117 120/120/120 119/119/119
f 121/121/121 123/123/123 122/122/122
f 121/121/121 124/124/124 123/123/123
f 125/125/125 127/127/127 126/126/126
f 125/125/125 128/128/128 127/127/127
f 129/129/129 131/131/131 130/130/130
f 129/129/129 132/132/132 131/131/131
f 133/133/133 135/135/135 134/134/134
f 133/133/133 136/136/136 135/135/135
f 137/137/137 139/139/139 138/138/138
f 137/137/137 140/140/140 139/139/139
f 141/141/141 143/143/143 142/142/142
f 141/141/141 144/144/144 143/143/143
