#Powrbox2_915_21.obj

v -0.9418964 1.36935 -0.406042
v 0.9418955 1.36935 -0.4060422
v 0.9418964 1.36935 0.406042
v -0.9418955 1.36935 0.4060422
v 0.9418955 1.36935 -0.4060422
v 0.8426077 0.03463016 -0.3579043
v 0.8426083 0.03463016 0.3579046
v 0.9418964 1.36935 0.406042
v -0.8426077 0.03463016 0.3579043
v -0.9418955 1.36935 0.4060422
v 0.9418964 1.36935 0.406042
v 0.8426083 0.03463016 0.3579046
v 0.8426077 0.03463016 -0.3579043
v 0.9418955 1.36935 -0.4060422
v -0.9418964 1.36935 -0.406042
v -0.8426083 0.03463016 -0.3579046
v -0.9418964 1.36935 -0.406042
v -0.9418955 1.36935 0.4060422
v -0.8426077 0.03463016 0.3579043
v -0.8426083 0.03463016 -0.3579046

vn 0 1 0
vn 0 1 0
vn 0 1 0
vn 0 1 0
vn 2.199295E-06 -0.07418358 -0.9972446
vn 2.199295E-06 -0.07418358 -0.9972446
vn 2.199295E-06 -0.07418358 -0.9972446
vn 2.199295E-06 -0.07418358 -0.9972446
vn 0.9993503 -0.03604244 2.203939E-06
vn 0.9993503 -0.03604244 2.203939E-06
vn 0.9993503 -0.03604244 2.203939E-06
vn 0.9993503 -0.03604244 2.203939E-06
vn -0.9993503 -0.03604244 -2.203939E-06
vn -0.9993503 -0.03604244 -2.203939E-06
vn -0.9993503 -0.03604244 -2.203939E-06
vn -0.9993503 -0.03604244 -2.203939E-06
vn -2.199295E-06 -0.07418373 0.9972446
vn -2.199295E-06 -0.07418373 0.9972446
vn -2.199295E-06 -0.07418374 0.9972446
vn -2.199295E-06 -0.07418374 0.9972446

vt 0.9008789 0.871582
vt 0.9404297 0.871582
vt 0.9404297 0.8549805
vt 0.9008789 0.8549805
vt 0.9570313 0.8549805
vt 0.9570313 0.8232422
vt 0.9404297 0.8232422
vt 0.9404297 0.8549805
vt 0.9008789 0.8232422
vt 0.9008789 0.8549805
vt 0.9404297 0.8549805
vt 0.9404297 0.8232422
vt 0.9570313 0.8232422
vt 0.9570313 0.8549805
vt 0.996582 0.8549805
vt 0.996582 0.8232422
vt 0.9570313 0.8549805
vt 0.9404297 0.8549805
vt 0.9404297 0.8232422
vt 0.9570313 0.8232422

g Powrbox2_915_21
usemtl Powrbox2_915_21
usemap Powrbox2_915_21
f 1/1/1 3/3/3 2/2/2
f 1/1/1 4/4/4 3/3/3
f 5/5/5 7/7/7 6/6/6
f 5/5/5 8/8/8 7/7/7
f 9/9/9 11/11/11 10/10/10
f 9/9/9 12/12/12 11/11/11
f 13/13/13 15/15/15 14/14/14
f 13/13/13 16/16/16 15/15/15
f 17/17/17 19/19/19 18/18/18
f 17/17/17 20/20/20 19/19/19
