#Road7_1408_414.obj

v 2.999832 0.3183212 2.998932
v 2.478279 0.3183212 2.478287
v 3 0.3183212 0
v 0 0.3183212 0
v 4.577637E-05 0.3183212 2.478287
v -2.998161 0.3183212 2.998878
v -3 0.3183212 0
v -2.473648 0.3183212 2.478287
v 0 0.3183212 0
v 4.577637E-05 0.3183212 2.478287
v -3 0.3183212 0
v -5.24971 0.3183212 5.253586
v -5.253601 0.3183212 0
v -4.929909 0.3183212 4.933784
v -5.253601 0.3183212 0
v -5.24971 0.3183212 5.253586
v -5.24971 -0.001478195 5.253586
v -5.253601 -0.001478195 0
v 5.253464 0.3183212 5.253746
v 5.253601 0.3183212 0
v 5.253601 -0.001478195 0
v 5.253464 -0.001478195 5.253746
v 2.999832 0.3183212 2.998932
v 2.999519 0.3183212 0
v 5.253601 0.3183212 0
v 5.253464 0.3183212 5.253746
v 5.253464 0.3183212 5.253746
v 4.933662 0.3183212 4.933945
v 2.999832 0.3183212 2.998932
v 5.253464 0.3183212 5.253746
v 5.253464 -0.001478195 5.253746
v -5.24971 -0.001478195 5.253586
v -5.24971 0.3183212 5.253586
v 4.933662 0.3183212 4.933945
v 5.253464 0.3183212 5.253746
v -5.24971 0.3183212 5.253586
v -4.929909 0.3183212 4.933784
v 6.103516E-05 0.3183212 2.998901
v -2.998161 0.3183212 2.998878
v 2.999832 0.3183212 2.998932
v 2.478279 0.3183212 2.478287
v 2.999832 0.3183212 2.998932
v 6.103516E-05 0.3183212 2.998901
v 4.577637E-05 0.3183212 2.478287
v 4.577637E-05 0.3183212 2.478287
v 6.103516E-05 0.3183212 2.998901
v -2.998161 0.3183212 2.998878
v -2.473648 0.3183212 2.478287

vn 0 1 0
vn 0 1 0
vn 0 1 0
vn 0 1 0
vn 0 1 0
vn 0 1 0
vn 0 1 0
vn 0 1 0
vn 0 1 0
vn 0 1 0
vn 0 1 0
vn 0 1 0
vn 0 1 0
vn 0 1 0
vn -0.9999997 0 0.0007413615
vn -0.9999997 0 0.0007413615
vn -0.9999997 0 0.0007413615
vn -0.9999997 0 0.0007413615
vn 1 0 2.72284E-05
vn 1 0 2.72284E-05
vn 1 0 2.72284E-05
vn 1 0 2.72284E-05
vn 0 1 0
vn 0 1 0
vn 0 1 0
vn 0 1 0
vn 0 1 0
vn 0 1 0
vn 0 1 0
vn -1.561575E-05 0 1
vn -1.561575E-05 0 1
vn -1.561575E-05 0 1
vn -1.561575E-05 0 1
vn 0 1 0
vn 0 1 0
vn 0 1 0
vn 0 1 0
vn 0 1 0
vn 0 1 0
vn 0 1 0
vn 0 1 0
vn 0 1 0
vn 0 1 0
vn 0 1 0
vn 0 1 0
vn 0 1 0
vn 0 1 0
vn 0 1 0

vt 0.75 0.5009766
vt 0.7714844 0.5224609
vt 0.75 0.6259766
vt 0.8754883 0.6259766
vt 0.8754883 0.5224609
vt 0.75 0.5009766
vt 0.75 0.6259766
vt 0.7719727 0.5224609
vt 0.8754883 0.6259766
vt 0.8754883 0.5224609
vt 0.75 0.625
vt 0.6567383 0.4067383
vt 0.6567383 0.625
vt 0.671875 0.420166
vt 0.671875 0.625
vt 0.671875 0.4067383
vt 0.6567383 0.4067383
vt 0.6567383 0.625
vt 0.671875 0.3444824
vt 0.671875 0.1251221
vt 0.6567383 0.1251221
vt 0.6567383 0.3444824
vt 0.75 0.2502441
vt 0.75 0.1251221
vt 0.6567383 0.1251221
vt 0.6567383 0.3444824
vt 0.6567383 0.3444824
vt 0.671875 0.3310547
vt 0.75 0.2502441
vt 0.671875 0.1566162
vt 0.6567383 0.1566162
vt 0.6567383 0.5947266
vt 0.671875 0.5947266
vt 0.671875 0.1369629
vt 0.6567383 0.1235962
vt 0.6567383 0.5620117
vt 0.671875 0.5483398
vt 0.75 0.3427734
vt 0.75 0.4677734
vt 0.75 0.2177734
vt 0.7714844 0.5571289
vt 0.7495117 0.5786133
vt 0.7495117 0.4533691
vt 0.7714844 0.4533691
vt 0.7714844 0.4533691
vt 0.7495117 0.4533691
vt 0.7495117 0.5786133
vt 0.7714844 0.5566406

g Road7_1408_414
usemtl Road7_1408_414
usemap Road7_1408_414
f 1/1/1 3/3/3 2/2/2
f 3/3/3 4/4/4 2/2/2
f 4/4/4 5/5/5 2/2/2
f 6/6/6 8/8/8 7/7/7
f 7/7/7 8/8/8 9/9/9
f 8/8/8 10/10/10 9/9/9
f 11/11/11 12/12/12 6/6/6
f 12/12/12 11/11/11 13/13/13
f 6/6/6 12/12/12 14/14/14
f 15/15/15 17/17/17 16/16/16
f 15/15/15 18/18/18 17/17/17
f 19/19/19 21/21/21 20/20/20
f 19/19/19 22/22/22 21/21/21
f 23/23/23 25/25/25 24/24/24
f 25/25/25 23/23/23 26/26/26
f 27/27/27 29/29/29 28/28/28
f 30/30/30 32/32/32 31/31/31
f 30/30/30 33/33/33 32/32/32
f 34/34/34 36/36/36 35/35/35
f 34/34/34 37/37/37 36/36/36
f 38/38/38 37/37/37 34/34/34
f 39/39/39 37/37/37 38/38/38
f 38/38/38 34/34/34 40/40/40
f 41/41/41 43/43/43 42/42/42
f 41/41/41 44/44/44 43/43/43
f 45/45/45 47/47/47 46/46/46
f 45/45/45 48/48/48 47/47/47
