#Road3_1152_357.obj

v 5.253603 0.318322 -6
v 5.253603 -0.001478853 -6
v 5.253603 -0.001478853 0.02041626
v 5.253603 0.318322 0.02041626
v 5.253603 0.318322 6
v 5.253603 -0.001478853 6
v 4.933804 0.318322 -6
v 5.253603 0.318322 -6
v 5.253603 0.318322 0.02041626
v 4.933804 0.318322 0.02041626
v 3 0.318322 -6
v 3 0.318322 0.02041626
v 4.933804 0.318322 6
v 5.253603 0.318322 6
v 3 0.318322 6
v 0 0.318322 6
v 0 0.318322 0.02041626
v 0 0.318322 -6
v 3 0.318322 0.02041626
v 0 0.318322 0.02041626
v -6 0.318322 2.994865
v -6 0.318322 0
v 0 0.318322 0
v -3.946592 0.318322 3.937664
v 0 0.318322 6
v -3.010572 0.318322 6
v -5.714653 0.318322 5.315777
v -6 0.318322 5.25452
v -5.472958 0.318322 5.469326
v -5.32719 0.318322 5.691792
v -5.253605 0.318322 6
v -5.253605 0.318322 6
v -5.253605 0.0001152732 6
v -5.32719 0.318322 5.691792
v -5.32719 0.0001152732 5.691792
v -5.472958 0.0001152732 5.469326
v -5.472958 0.318322 5.469326
v -5.714653 0.0001152732 5.315777
v -5.714653 0.318322 5.315777
v -6 0.000115303 5.25452
v -6 0.318322 5.25452
v -5.714653 0.318322 5.315777
v 0 0.318322 0
v -6 0.318322 0
v -5.714653 0.318322 -5.315777
v -6 0.318322 -5.25452
v -5.472958 0.318322 -5.469326
v -5.32719 0.318322 -5.691792
v 0 0.318322 -6
v -5.253605 0.318322 -6
v -5.253605 0.318322 -6
v -5.32719 0.318322 -5.691792
v -5.253605 0.0001152732 -6
v -5.32719 0.0001152732 -5.691792
v -5.472958 0.0001152732 -5.469326
v -5.472958 0.318322 -5.469326
v -5.714653 0.0001152732 -5.315777
v -5.714653 0.318322 -5.315777
v -6 0.000115303 -5.25452
v -5.714653 0.318322 -5.315777
v -6 0.318322 -5.25452

vn 1 0 0
vn 1 0 0
vn 1 0 0
vn 1 0 0
vn 1 0 0
vn 1 0 0
vn 0 1 0
vn 0 1 0
vn 0 1 0
vn 0 1 0
vn 0 1 0
vn 0 1 0
vn 0 1 0
vn 0 1 0
vn 0 1 0
vn 0 1 0
vn 0 1 0
vn 0 1 0
vn 0 1 0
vn 0 1 0
vn 0 1 0
vn 0 1 0
vn 0 1 0
vn 0 1 0
vn 0 1 0
vn 0 1 0
vn 0 1 0
vn 0 1 0
vn 0 1 0
vn 0 1 0
vn 0 1 0
vn -0.9726621 0 0.232225
vn -0.9726622 0 0.2322247
vn -0.9396887 0 0.3420309
vn -0.9182308 0 0.3960457
vn -0.7021114 0 0.7120671
vn -0.7021114 0 0.7120671
vn -0.3790027 0 0.9253955
vn -0.3790027 0 0.9253955
vn -0.2098951 0 0.9777239
vn -0.2098959 0 0.9777238
vn -0.2098959 0 0.9777238
vn 0 1 0
vn 0 1 0
vn 0 1 0
vn 0 1 0
vn 0 1 0
vn 0 1 0
vn 0 1 0
vn 0 1 0
vn -0.9726621 0 -0.232225
vn -0.9396887 0 -0.3420309
vn -0.9726622 0 -0.2322247
vn -0.9182308 0 -0.3960457
vn -0.7021114 0 -0.7120671
vn -0.7021114 0 -0.7120671
vn -0.3790031 0 -0.9253954
vn -0.3790031 0 -0.9253954
vn -0.2098959 0 -0.9777238
vn -0.2098959 0 -0.9777238
vn -0.2098959 0 -0.9777238

vt 0.671875 0.6254883
vt 0.6567383 0.6254883
vt 0.6567383 0.3754883
vt 0.671875 0.3754883
vt 0.671875 0.1251221
vt 0.6567383 0.1251221
vt 0.671875 0.6254883
vt 0.6567383 0.6254883
vt 0.6567383 0.3754883
vt 0.671875 0.3754883
vt 0.75 0.625
vt 0.75 0.3754883
vt 0.671875 0.1251221
vt 0.6567383 0.1251221
vt 0.75 0.1251221
vt 0.8754883 0.1251221
vt 0.8754883 0.3754883
vt 0.8754883 0.625
vt 0.75 0.3720703
vt 0.8754883 0.3720703
vt 0.6254883 0.7490234
vt 0.6254883 0.8769531
vt 0.8754883 0.8769531
vt 0.7119141 0.7119141
vt 0.8754883 0.625
vt 0.75 0.625
vt 0.6376953 0.6538086
vt 0.6254883 0.6567383
vt 0.6474609 0.6474609
vt 0.6538086 0.6381836
vt 0.6572266 0.625
vt 0.6713867 0.46875
vt 0.6557617 0.46875
vt 0.6713867 0.4858398
vt 0.6557617 0.4858398
vt 0.6557617 0.5
vt 0.6713867 0.5
vt 0.6557617 0.515625
vt 0.6713867 0.515625
vt 0.6557617 0.53125
vt 0.6713867 0.53125
vt 0.6713867 0.515625
vt 0.8754883 0.8769531
vt 0.6254883 0.8769531
vt 0.6376953 0.6538086
vt 0.6254883 0.6567383
vt 0.6474609 0.6474609
vt 0.6538086 0.6381836
vt 0.8754883 0.625
vt 0.6572266 0.625
vt 0.6713867 0.46875
vt 0.6713867 0.4858398
vt 0.6557617 0.46875
vt 0.6557617 0.4858398
vt 0.6557617 0.5
vt 0.6713867 0.5
vt 0.6557617 0.515625
vt 0.6713867 0.515625
vt 0.6557617 0.53125
vt 0.6713867 0.515625
vt 0.6713867 0.53125

g Road3_1152_357
usemtl Road3_1152_357
usemap Road3_1152_357
f 1/1/1 3/3/3 2/2/2
f 1/1/1 4/4/4 3/3/3
f 3/3/3 4/4/4 5/5/5
f 3/3/3 5/5/5 6/6/6
f 7/7/7 9/9/9 8/8/8
f 7/7/7 10/10/10 9/9/9
f 11/11/11 10/10/10 7/7/7
f 11/11/11 12/12/12 10/10/10
f 9/9/9 10/10/10 13/13/13
f 9/9/9 13/13/13 14/14/14
f 10/10/10 15/15/15 13/13/13
f 10/10/10 12/12/12 15/15/15
f 12/12/12 16/16/16 15/15/15
f 12/12/12 17/17/17 16/16/16
f 18/18/18 19/19/19 11/11/11
f 18/18/18 20/20/20 19/19/19
f 21/21/21 23/23/23 22/22/22
f 21/21/21 24/24/24 23/23/23
f 25/25/25 23/23/23 24/24/24
f 25/25/25 24/24/24 26/26/26
f 27/27/27 24/24/24 21/21/21
f 27/27/27 21/21/21 28/28/28
f 27/27/27 29/29/29 24/24/24
f 24/24/24 29/29/29 30/30/30
f 24/24/24 31/31/31 26/26/26
f 24/24/24 30/30/30 31/31/31
f 32/32/32 34/34/34 33/33/33
f 33/33/33 34/34/34 35/35/35
f 34/34/34 36/36/36 35/35/35
f 34/34/34 37/37/37 36/36/36
f 37/37/37 38/38/38 36/36/36
f 37/37/37 39/39/39 38/38/38
f 38/38/38 39/39/39 40/40/40
f 40/40/40 42/42/42 41/41/41
f 43/43/43 45/45/45 44/44/44
f 45/45/45 46/46/46 44/44/44
f 45/45/45 43/43/43 47/47/47
f 43/43/43 48/48/48 47/47/47
f 43/43/43 49/49/49 48/48/48
f 49/49/49 50/50/50 48/48/48
f 51/51/51 53/53/53 52/52/52
f 53/53/53 54/54/54 52/52/52
f 52/52/52 54/54/54 55/55/55
f 52/52/52 55/55/55 56/56/56
f 56/56/56 55/55/55 57/57/57
f 56/56/56 57/57/57 58/58/58
f 57/57/57 59/59/59 58/58/58
f 59/59/59 61/61/61 60/60/60
