#Road_Barrier_(7)_2402_328.obj

v -0.7590828 -0.009436314 0.3528557
v -0.7590828 0.9539932 0.1597748
v 0.7590828 0.9539932 0.1597748
v 0.7590828 -0.009436314 0.3528557
v -0.7590828 0.9539932 0.1597748
v -0.7590828 0.9539932 -0.1597748
v 0.7590828 0.9539932 -0.1597748
v 0.7590828 0.9539932 0.1597748
v -0.7590828 0.9539932 -0.1597748
v -0.7590828 -0.009436314 -0.3528557
v 0.7590828 -0.009436314 -0.3528557
v 0.7590828 0.9539932 -0.1597748
v 0.7590828 -0.009436314 0.3528557
v 0.7590828 0.9539932 0.1597748
v 0.7590828 0.9539932 -0.1597748
v 0.7590828 -0.009436314 -0.3528557
v -0.7590828 -0.009436314 -0.3528557
v -0.7590828 0.9539932 -0.1597748
v -0.7590828 0.9539932 0.1597748
v -0.7590828 -0.009436314 0.3528557

vn 0 0.1965035 0.9805031
vn 0 0.1965035 0.9805031
vn 0 0.1965035 0.9805031
vn 0 0.1965035 0.9805031
vn 0 1 0
vn 0 1 0
vn 0 1 0
vn 0 1 0
vn 0 0.1965035 -0.9805031
vn 0 0.1965035 -0.9805031
vn 0 0.1965035 -0.9805031
vn 0 0.1965035 -0.9805031
vn 1 0 0
vn 1 0 0
vn 1 0 0
vn 1 0 0
vn -1 0 0
vn -1 0 0
vn -1 0 0
vn -1 0 0

vt 0.1002808 0.659668
vt 0.130127 0.659668
vt 0.130127 0.612793
vt 0.1002808 0.612793
vt 0.142334 0.612793
vt 0.130127 0.612793
vt 0.130127 0.659668
vt 0.142334 0.659668
vt 0.130127 0.612793
vt 0.1003418 0.612793
vt 0.1003418 0.659668
vt 0.130127 0.659668
vt 0.1002197 0.6064453
vt 0.1303711 0.6000977
vt 0.1303711 0.5878906
vt 0.1002197 0.5820313
vt 0.1002197 0.6064453
vt 0.1303711 0.6000977
vt 0.1303711 0.5878906
vt 0.1002197 0.5820313

g Road_Barrier_(7)_2402_328
usemtl Road_Barrier_(7)_2402_328
usemap Road_Barrier_(7)_2402_328
f 1/1/1 3/3/3 2/2/2
f 1/1/1 4/4/4 3/3/3
f 5/5/5 7/7/7 6/6/6
f 5/5/5 8/8/8 7/7/7
f 9/9/9 11/11/11 10/10/10
f 9/9/9 12/12/12 11/11/11
f 13/13/13 15/15/15 14/14/14
f 13/13/13 16/16/16 15/15/15
f 17/17/17 19/19/19 18/18/18
f 17/17/17 20/20/20 19/19/19
