#Rock4_(17)_2356_85.obj

v 2.806035 -0.153419 1.482068
v 2.816246 -0.6812705 0.6472093
v 2.179821 -0.6824969 2.272061
v 1.905262 1.124366 2.529354
v -0.2794582 -0.6814005 2.822544
v -0.328867 0.8453609 2.878366
v 0.8647903 1.906564 1.319356
v -1.590116 0.9082176 1.738178
v -0.6235913 1.491049 0.9439007
v -0.4975872 1.790203 -0.1501301
v 0.8974472 1.988556 0.4241444
v -0.6689224 1.217003 -1.344926
v 2.243443 1.329204 0.6054311
v 2.287333 1.0351 1.771454
v 1.701682 1.703403 -1.321245
v 0.9749311 1.228819 -2.624949
v -0.6295245 0.6841912 -2.452515
v 0.02422603 -0.6686768 -2.934452
v 1.829301 -0.6579061 -2.40706
v 3.25622 0.1926568 -0.8463786
v 2.863207 1.324946 -0.6486728
v 3.186821 0.130288 -0.05233178
v 2.744084 -0.6693901 0.03047009
v -0.7309288 -0.6840672 -2.315056
v -1.366667 1.936623 -0.1562618
v -1.860439 1.00685 -1.428867
v -1.177227 0.7236121 -1.870268
v -1.322143 -0.6717586 -1.751588
v -2.081701 -0.6806435 -1.885571
v -1.322143 -0.6717586 -1.751588
v -3.230694 -0.6815352 -0.8520957
v -2.350948 0.6991758 -0.2837685
v -2.617448 1.243698 0.281363
v -1.250543 1.615895 1.356914
v -2.31716 0.4223207 1.063594
v -2.451802 -0.6820597 1.399893
v -1.590116 0.9082176 1.738178
v -1.08017 -0.6822007 1.263042
v -2.209348 1.1696 1.459095
v -0.8712618 -0.6822576 2.404603
v -1.08017 -0.6822007 1.263042
v 2.816246 -0.6812705 0.6472093

vn 0.9968763 0.07445324 0.02635205
vn 0.9893599 -0.009804276 -0.1451577
vn 0.8457369 -0.20961 0.4907064
vn 0.7127064 0.3871966 0.5849175
vn 0.2163125 -0.06625583 0.9740734
vn -0.08454925 0.4014529 0.9119687
vn 0.0563438 0.9631443 0.263018
vn -0.1882765 0.2762029 0.9424775
vn 0.2049308 0.9076598 0.3662744
vn -0.04453203 0.9974744 -0.05533208
vn 0.2092265 0.9520851 -0.2230654
vn -0.1992269 0.9030116 -0.3806295
vn 0.6266289 0.7793174 -0.000786677
vn 0.7450994 0.6586275 -0.1050556
vn 0.06863286 0.9875159 -0.1417816
vn 0.01378334 0.5731536 -0.819332
vn -0.7074194 0.4293207 -0.5614637
vn -0.468315 0.08512955 -0.8794509
vn 0.3900181 -0.1726226 -0.9044818
vn 0.7870275 -0.06898199 -0.6130491
vn 0.6869475 0.6394799 -0.3452083
vn 0.9991595 -0.004437809 -0.04075119
vn 0.7555558 -0.557462 -0.3440519
vn -0.8651894 -0.01182441 -0.5013059
vn -0.254046 0.9571607 -0.1389393
vn -0.6692957 0.6247711 -0.4021248
vn -0.6424731 0.3478024 -0.6828337
vn -0.5513587 -0.05123875 -0.8326933
vn -0.581285 0.1692421 -0.795905
vn -0.5513587 -0.05123875 -0.8326933
vn -0.8908326 0.4337719 0.1351267
vn -0.9106848 0.4114576 0.03682326
vn -0.8321343 0.4992763 0.2414036
vn 0.1341329 0.8361201 0.5318943
vn -0.7658371 0.03925127 0.6418355
vn -0.3917733 0.09273732 0.9153761
vn -0.1882765 0.2762029 0.9424775
vn -0.3068455 -0.3953535 0.8657607
vn -0.4176564 0.33406 0.8449657
vn -0.5654687 -0.138201 0.8131086
vn -0.3068455 -0.3953535 0.8657607
vn 0.9893599 -0.009804276 -0.1451577

vt 0.08177406 0.5590136
vt 0.09337166 0.5343032
vt 0.04984022 0.5668743
vt 0.07907501 0.6002782
vt 0.0183186 0.6322125
vt 0.05435452 0.6444781
vt 0.1010552 0.6283724
vt 0.06499068 0.6908395
vt 0.09687583 0.6673691
vt 0.1271943 0.66826
vt 0.1208732 0.6303694
vt 0.1603776 0.6804302
vt 0.1261647 0.5914518
vt 0.09427693 0.5895411
vt 0.1666452 0.6231167
vt 0.1920493 0.643589
vt 0.1925114 0.6826488
vt 0.2348071 0.668623
vt 0.2283528 0.6106274
vt 0.1792248 0.5798343
vt 0.1616471 0.5949689
vt 0.1681622 0.5665238
vt 0.183495 0.5468985
vt 0.2263156 0.6977318
vt 0.1229426 0.68769
vt 0.1551462 0.7108501
vt 0.1785464 0.7014391
vt 0.2175588 0.719762
vt 0.1791399 0.7528989
vt 0.1975867 0.7400464
vt 0.1361288 0.7713462
vt 0.1228323 0.7246453
vt 0.1078977 0.7130938
vt 0.08812189 0.6831443
vt 0.08343585 0.7236099
vt 0.06631079 0.7518926
vt 0.06499068 0.6908395
vt 0.0289535 0.7338564
vt 0.08262382 0.7026785
vt 0.01535734 0.6549521
vt 0.008841153 0.6885316
vt 0.1643098 0.5378069

g Rock4_(17)_2356_85
usemtl Rock4_(17)_2356_85
usemap Rock4_(17)_2356_85
f 1/1/1 3/3/3 2/2/2
f 4/4/4 3/3/3 1/1/1
f 4/4/4 5/5/5 3/3/3
f 6/6/6 5/5/5 4/4/4
f 6/6/6 4/4/4 7/7/7
f 8/8/8 6/6/6 7/7/7
f 9/9/9 8/8/8 7/7/7
f 10/10/10 9/9/9 7/7/7
f 10/10/10 7/7/7 11/11/11
f 11/11/11 12/12/12 10/10/10
f 13/13/13 12/12/12 11/11/11
f 2/2/2 13/13/13 14/14/14
f 14/14/14 13/13/13 11/11/11
f 14/14/14 11/11/11 7/7/7
f 2/2/2 14/14/14 1/1/1
f 4/4/4 14/14/14 7/7/7
f 4/4/4 1/1/1 14/14/14
f 15/15/15 12/12/12 13/13/13
f 15/15/15 16/16/16 12/12/12
f 16/16/16 17/17/17 12/12/12
f 16/16/16 18/18/18 17/17/17
f 16/16/16 19/19/19 18/18/18
f 20/20/20 19/19/19 16/16/16
f 21/21/21 20/20/20 16/16/16
f 21/21/21 16/16/16 15/15/15
f 21/21/21 15/15/15 13/13/13
f 21/21/21 13/13/13 22/22/22
f 20/20/20 21/21/21 22/22/22
f 23/23/23 19/19/19 20/20/20
f 20/20/20 22/22/22 23/23/23
f 24/24/24 17/17/17 18/18/18
f 10/10/10 12/12/12 25/25/25
f 26/26/26 25/25/25 12/12/12
f 26/26/26 12/12/12 27/27/27
f 24/24/24 27/27/27 17/17/17
f 17/17/17 27/27/27 12/12/12
f 24/24/24 28/28/28 27/27/27
f 29/29/29 26/26/26 27/27/27
f 30/30/30 29/29/29 27/27/27
f 31/31/31 26/26/26 29/29/29
f 31/31/31 32/32/32 26/26/26
f 32/32/32 25/25/25 26/26/26
f 25/25/25 32/32/32 33/33/33
f 25/25/25 33/33/33 34/34/34
f 32/32/32 31/31/31 35/35/35
f 33/33/33 32/32/32 35/35/35
f 36/36/36 35/35/35 31/31/31
f 35/35/35 36/36/36 37/37/37
f 36/36/36 38/38/38 37/37/37
f 39/39/39 33/33/33 35/35/35
f 39/39/39 35/35/35 37/37/37
f 39/39/39 37/37/37 34/34/34
f 33/33/33 39/39/39 34/34/34
f 25/25/25 34/34/34 9/9/9
f 34/34/34 37/37/37 9/9/9
f 10/10/10 25/25/25 9/9/9
f 6/6/6 37/37/37 40/40/40
f 41/41/41 40/40/40 37/37/37
f 5/5/5 6/6/6 40/40/40
f 42/42/42 22/22/22 13/13/13
f 42/42/42 23/23/23 22/22/22
