#Rock6_(11)_3175_116.obj

v -1.236712 3.209405 0.3464061
v -1.474787 2.872101 -1.102167
v -1.562951 4.526831 -1.224277
v -1.281771 4.841282 0.02394249
v -1.151257 4.899974 -1.929436
v -1.01689 2.822655 -1.835114
v -1.02024 1.809068 -2.31654
v -0.5481968 3.117438 -2.707602
v 0.6218485 1.730926 -2.873073
v 0.2721264 4.178768 -2.267883
v -1.151257 4.899974 -1.929436
v 0.6092307 3.360725 -3.125412
v -0.01488042 5.13487 -1.873341
v 0.8313076 5.230927 -1.022464
v 1.039688 3.768537 -1.387339
v 1.360361 3.983282 -0.3570543
v 1.975574 3.733561 -0.9577503
v 2.106189 2.792788 -1.454774
v 0.9009929 3.958027 -2.628183
v 1.93178 2.928857 -2.678803
v 2.514099 1.132488 -1.114857
v 1.703075 1.427734 -2.83497
v 3.028784 0.3228217 -1.658865
v 2.479301 0.1984252 -2.867005
v 2.180644 -0.5407414 -1.783581
v 2.733016 1.788073 -0.6602219
v 1.701108 3.698973 0.3687804
v 1.886445 2.360494 1.176381
v 0.9965047 3.311402 0.9016129
v 0.2387321 1.849801 0.9230286
v 0.3801697 1.895067 1.918861
v -0.4070269 1.425858 1.621713
v 2.320272 1.594342 0.807115
v 1.376625 2.152632 1.792226
v 2.123574 1.388564 2.654401
v 3.073165 0.7066534 2.030954
v 3.056275 1.85684 0.1955298
v 2.733016 1.788073 -0.6602219
v 1.853985 0.726258 3.383933
v 4.049136 -0.4276555 1.033543
v 0.8851577 -0.5281102 3.081406
v -0.2444037 0.627618 2.61798
v -0.01758605 3.073839 0.6209675
v 0.9617495 3.805691 0.3615083
v -0.6993086 4.407137 0.5812391
v 3.51659 1.319851 -1.033939
v 4.563241 0.2715785 -0.5201289
v 3.028784 0.3228217 -1.658865
v 2.180644 -0.5407414 -1.783581
v 4.122964 -0.5214713 -0.2905189
v 4.018276 0.6980371 0.9017914
v 2.514099 1.132488 -1.114857
v 0.3700428 4.678805 0.3088612
v 0.1843602 -0.5258934 2.745473
v -0.3405124 -0.5715036 2.032529
v 0.359228 0.3622345 -3.266109
v -0.5635186 1.316723 -2.314863
v 1.661065 -0.02172414 -3.327483
v 0.8281122 -0.5455053 -3.003253
v -0.706013 -0.4598512 -2.542688
v -1.741646 2.206295 -0.8956686
v -2.528662 1.464055 -0.610697
v -1.713917 0.6600761 -3.075071
v -1.068732 -0.5076558 -2.763053
v -2.385827 -0.5129777 -3.040936
v -3.120957 0.2592432 -2.69319
v -4.480312 0.6077139 -0.8795185
v -4.133264 -0.5229296 -1.524205
v -2.605874 1.973176 0.2666688
v -1.459223 2.196388 0.4325094
v -2.853494 1.084525 0.6950014
v -1.329148 2.105422 1.679051
v -3.949992 1.043734 -0.113944
v -3.451676 -0.463022 0.4123355
v -2.452753 1.584432 1.504681
v -2.939083 0.4809865 1.723797
v -2.473326 -0.5236428 0.7772788
v -2.447232 -0.4485819 1.535057
v -1.735509 -0.4811366 2.399975
v -2.080568 1.310773 2.344724
v -0.896366 0.8641605 2.904365
v -0.2444037 0.627618 2.61798
v -0.3405124 -0.5715036 2.032529
v -0.4070269 1.425858 1.621713
v -0.8118833 2.160965 1.098282
v 0.2387321 1.849801 0.9230286
v -4.303098 -0.4561064 -0.5345923
v -0.2849382 2.534728 1.128037
v -0.01758605 3.073839 0.6209675
v -0.6993086 4.407137 0.5812391
v -0.5402143 5.228827 -0.2612749
v 0.3700428 4.678805 0.3088612
v 0.8313076 5.230927 -1.022464
v -0.01488042 5.13487 -1.873341
v -1.151257 4.899974 -1.929436

vn -0.9485893 0.2592962 0.1815044
vn -0.6812302 0.1119816 -0.7234539
vn -0.8507077 0.171937 -0.4967234
vn -0.8003899 0.598763 0.02930558
vn -0.2881881 0.5139984 -0.8079314
vn -0.4330879 0.2125862 -0.8759234
vn -0.3622913 -0.09348766 -0.9273646
vn -0.2061794 0.2627598 -0.9425747
vn 0.277459 0.02278011 -0.9604674
vn 0.3811831 0.6402245 -0.6669423
vn -0.2881881 0.5139984 -0.8079314
vn 0.4225104 0.2773335 -0.8628854
vn 0.3359446 0.8400252 -0.4260268
vn 0.6796775 0.7107748 0.1812115
vn 0.7257973 0.687723 -0.015984
vn 0.455573 0.7857049 0.4184748
vn 0.7031029 0.706033 0.08463885
vn 0.8803613 0.465468 0.0911243
vn 0.5674718 0.820181 -0.07265659
vn 0.941866 0.3134167 -0.1210717
vn 0.8881189 0.4014389 -0.2238116
vn 0.8503767 0.2542386 -0.4606759
vn 0.9418363 0.1694264 -0.2902398
vn 0.9542674 -0.2158346 -0.2068553
vn 0.7165504 -0.6642826 -0.2128005
vn 0.743757 0.6418281 0.186768
vn 0.2636552 0.7137004 0.6489358
vn 0.08472031 0.6574432 0.7487262
vn -0.4807905 0.481303 0.732931
vn -0.4229566 0.5514535 0.7190318
vn -0.5064936 0.8430533 0.1809012
vn -0.1924842 0.8325457 0.5194396
vn 0.3147973 0.7563229 0.5734791
vn -0.03678283 0.7975242 0.6021647
vn 0.2686918 0.7296562 0.6288136
vn 0.3139861 0.5235543 0.792025
vn 0.30224 0.8933702 0.3324765
vn 0.743757 0.6418281 0.186768
vn -0.2372117 0.3601178 0.9022449
vn 0.4914364 -0.1718875 0.8537827
vn -0.5504498 -0.2119215 0.8075236
vn -0.5756346 0.209909 0.7903057
vn -0.4483073 0.3590254 0.8186094
vn -0.1954059 0.6043571 0.7723789
vn -0.5320063 0.3320666 0.7789102
vn 0.6301674 0.6760453 -0.3819055
vn 0.9889887 0.04877751 0.1397217
vn 0.9418363 0.1694264 -0.2902398
vn 0.7165504 -0.6642826 -0.2128005
vn 0.8458837 -0.5295672 0.06355762
vn 0.53005 0.4197555 0.7367851
vn 0.8881189 0.4014389 -0.2238116
vn 0.04482043 0.6182205 0.7847258
vn -0.9075561 -0.1471811 0.3932934
vn -0.6944466 -0.3909336 0.6040817
vn 0.140935 0.0003232931 -0.9900188
vn 0.1276957 0.150817 -0.9802796
vn 0.6609781 -0.2291787 -0.7145525
vn 0.3547477 -0.5822027 -0.7315696
vn 0.3120026 -0.07199582 -0.9473495
vn -0.6675193 0.3709733 -0.6455979
vn -0.1846432 0.7743115 -0.6052673
vn 0.3709039 0.4539614 -0.8101539
vn 0.7917255 -0.004566381 -0.61086
vn 0.2094105 -0.09996416 -0.9727047
vn -0.1637942 0.3971216 -0.9030315
vn -0.6595787 0.447575 -0.6038482
vn -0.5037827 -0.1326384 -0.8535866
vn -0.542835 0.8361113 -0.07904463
vn -0.6649703 0.7392719 0.1062617
vn -0.9278956 0.3720253 0.02463761
vn -0.1665575 0.9250806 0.3412984
vn -0.8680722 0.4953055 0.0335125
vn -0.8871188 0.01214054 0.4613815
vn -0.699582 0.7026104 -0.1300907
vn -0.9988164 -0.0219943 -0.04338187
vn -0.974419 -0.1565553 0.1612389
vn -0.8588721 -0.3964908 -0.3242434
vn -0.662568 -0.3375011 0.6686529
vn -0.8036249 0.3979436 0.4425245
vn -0.3940524 0.2753493 0.8768725
vn -0.5756346 0.209909 0.7903057
vn -0.6944466 -0.3909336 0.6040817
vn -0.1924842 0.8325457 0.5194396
vn -0.3995765 0.590334 0.7013162
vn -0.4229566 0.5514535 0.7190318
vn -0.994603 -0.06575603 -0.08025536
vn -0.3434626 0.3614806 0.8668134
vn -0.4483073 0.3590254 0.8186094
vn -0.5320063 0.3320666 0.7789102
vn -0.2318311 0.9483293 0.216624
vn 0.04482043 0.6182205 0.7847258
vn 0.6796775 0.7107748 0.1812115
vn 0.3359446 0.8400252 -0.4260268
vn -0.2881881 0.5139984 -0.8079314

vt 0.8231459 0.1412811
vt 0.7883072 0.1687649
vt 0.8248338 0.191771
vt 0.84566 0.1732586
vt 0.8281713 0.2130635
vt 0.7788596 0.1915323
vt 0.7468348 0.193715
vt 0.773026 0.217105
vt 0.7331188 0.2392735
vt 0.8012317 0.2414989
vt 0.8281713 0.2130635
vt 0.7714517 0.2431242
vt 0.829016 0.2385388
vt 0.8406981 0.2669347
vt 0.8023803 0.2772322
vt 0.8205258 0.3028347
vt 0.7974706 0.3012469
vt 0.7706497 0.3005626
vt 0.786665 0.2525096
vt 0.7615646 0.2723642
vt 0.7297045 0.3246586
vt 0.7256798 0.2698756
vt 0.696672 0.320396
vt 0.6931584 0.2864413
vt 0.6630096 0.301508
vt 0.7531115 0.3356102
vt 0.8181403 0.3254004
vt 0.8071356 0.3668394
vt 0.8341107 0.3410686
vt 0.8549328 0.3773758
vt 0.8416806 0.398488
vt 0.8653755 0.4045208
vt 0.7803735 0.3730094
vt 0.8179173 0.3865156
vt 0.8010911 0.4124908
vt 0.7720816 0.4171657
vt 0.755937 0.3696103
vt 0.7446331 0.3487687
vt 0.8067919 0.4320129
vt 0.7327688 0.4310905
vt 0.8150444 0.4643281
vt 0.8521799 0.4378246
vt 0.8611558 0.3451616
vt 0.8371004 0.3210829
vt 0.8855886 0.3146266
vt 0.7253577 0.3645383
vt 0.7163779 0.3963445
vt 0.6937345 0.3599196
vt 0.6639279 0.3623682
vt 0.7020375 0.4103533
vt 0.7440964 0.4062354
vt 0.7208988 0.3403848
vt 0.8582302 0.3018931
vt 0.8355261 0.4668562
vt 0.8579786 0.4733487
vt 0.6962927 0.2339922
vt 0.7284594 0.1980938
vt 0.6880827 0.2651151
vt 0.6692902 0.247075
vt 0.674421 0.2010314
vt 0.7728432 0.1515844
vt 0.7519697 0.1265733
vt 0.6971474 0.1702068
vt 0.6706434 0.1913131
vt 0.6658697 0.1530285
vt 0.6890605 0.13556
vt 0.7127712 0.09072217
vt 0.6814806 0.09158267
vt 0.7718416 0.1082462
vt 0.8034384 0.1185296
vt 0.7665408 0.07984909
vt 0.8193972 0.0893054
vt 0.7351359 0.09025647
vt 0.7303844 0.04961941
vt 0.7920786 0.0756284
vt 0.7814513 0.0529465
vt 0.7535622 0.03513337
vt 0.7729272 0.02911376
vt 0.8041271 0.0184969
vt 0.8069574 0.06217192
vt 0.8319979 0.04845675
vt 0.8492523 0.04448332
vt 0.8432182 0.007874016
vt 0.8451563 0.07968558
vt 0.8294708 0.1042833
vt 0.8606667 0.0985227
vt 0.7006772 0.06793586
vt 0.8438517 0.1120525
vt 0.8527588 0.1271803
vt 0.8559108 0.1568392
vt 0.8597613 0.1855388
vt 0.8854554 0.1709481
vt 0.886409 0.2135766
vt 0.8558985 0.2265289
vt 0.8281713 0.2130635

g Rock6_(11)_3175_116
usemtl Rock6_(11)_3175_116
usemap Rock6_(11)_3175_116
f 1/1/1 3/3/3 2/2/2
f 1/1/1 4/4/4 3/3/3
f 3/3/3 5/5/5 2/2/2
f 5/5/5 3/3/3 4/4/4
f 2/2/2 5/5/5 6/6/6
f 2/2/2 6/6/6 7/7/7
f 6/6/6 8/8/8 7/7/7
f 7/7/7 8/8/8 9/9/9
f 10/10/10 8/8/8 6/6/6
f 10/10/10 6/6/6 11/11/11
f 9/9/9 8/8/8 12/12/12
f 12/12/12 8/8/8 10/10/10
f 10/10/10 5/5/5 13/13/13
f 13/13/13 14/14/14 10/10/10
f 15/15/15 10/10/10 14/14/14
f 15/15/15 14/14/14 16/16/16
f 17/17/17 15/15/15 16/16/16
f 18/18/18 15/15/15 17/17/17
f 18/18/18 19/19/19 15/15/15
f 10/10/10 19/19/19 12/12/12
f 10/10/10 15/15/15 19/19/19
f 18/18/18 20/20/20 19/19/19
f 20/20/20 12/12/12 19/19/19
f 20/20/20 18/18/18 21/21/21
f 22/22/22 20/20/20 21/21/21
f 12/12/12 20/20/20 22/22/22
f 22/22/22 9/9/9 12/12/12
f 21/21/21 23/23/23 22/22/22
f 24/24/24 22/22/22 23/23/23
f 25/25/25 24/24/24 23/23/23
f 18/18/18 17/17/17 26/26/26
f 18/18/18 26/26/26 21/21/21
f 17/17/17 27/27/27 26/26/26
f 17/17/17 16/16/16 27/27/27
f 27/27/27 28/28/28 26/26/26
f 28/28/28 27/27/27 29/29/29
f 29/29/29 30/30/30 28/28/28
f 30/30/30 31/31/31 28/28/28
f 30/30/30 32/32/32 31/31/31
f 26/26/26 28/28/28 33/33/33
f 34/34/34 33/33/33 28/28/28
f 28/28/28 31/31/31 34/34/34
f 34/34/34 35/35/35 33/33/33
f 36/36/36 33/33/33 35/35/35
f 36/36/36 37/37/37 33/33/33
f 37/37/37 38/38/38 33/33/33
f 36/36/36 35/35/35 39/39/39
f 34/34/34 39/39/39 35/35/35
f 34/34/34 31/31/31 39/39/39
f 36/36/36 39/39/39 40/40/40
f 39/39/39 41/41/41 40/40/40
f 39/39/39 42/42/42 41/41/41
f 31/31/31 42/42/42 39/39/39
f 31/31/31 32/32/32 42/42/42
f 29/29/29 43/43/43 30/30/30
f 29/29/29 44/44/44 43/43/43
f 44/44/44 45/45/45 43/43/43
f 46/46/46 38/38/38 37/37/37
f 37/37/37 47/47/47 46/46/46
f 48/48/48 46/46/46 47/47/47
f 49/49/49 48/48/48 47/47/47
f 50/50/50 49/49/49 47/47/47
f 47/47/47 40/40/40 50/50/50
f 47/47/47 51/51/51 40/40/40
f 47/47/47 37/37/37 51/51/51
f 51/51/51 37/37/37 36/36/36
f 40/40/40 51/51/51 36/36/36
f 48/48/48 52/52/52 46/46/46
f 52/52/52 38/38/38 46/46/46
f 53/53/53 45/45/45 44/44/44
f 16/16/16 53/53/53 44/44/44
f 16/16/16 14/14/14 53/53/53
f 41/41/41 42/42/42 54/54/54
f 55/55/55 54/54/54 42/42/42
f 44/44/44 27/27/27 16/16/16
f 29/29/29 27/27/27 44/44/44
f 56/56/56 57/57/57 9/9/9
f 56/56/56 9/9/9 58/58/58
f 56/56/56 58/58/58 59/59/59
f 60/60/60 57/57/57 56/56/56
f 59/59/59 60/60/60 56/56/56
f 58/58/58 25/25/25 59/59/59
f 9/9/9 22/22/22 58/58/58
f 7/7/7 9/9/9 57/57/57
f 61/61/61 7/7/7 57/57/57
f 57/57/57 62/62/62 61/61/61
f 63/63/63 62/62/62 57/57/57
f 64/64/64 63/63/63 57/57/57
f 64/64/64 57/57/57 60/60/60
f 65/65/65 63/63/63 64/64/64
f 66/66/66 63/63/63 65/65/65
f 63/63/63 66/66/66 62/62/62
f 62/62/62 66/66/66 67/67/67
f 68/68/68 67/67/67 66/66/66
f 68/68/68 66/66/66 65/65/65
f 62/62/62 69/69/69 61/61/61
f 61/61/61 69/69/69 70/70/70
f 70/70/70 69/69/69 71/71/71
f 71/71/71 72/72/72 70/70/70
f 71/71/71 69/69/69 73/73/73
f 62/62/62 73/73/73 69/69/69
f 62/62/62 67/67/67 73/73/73
f 71/71/71 73/73/73 74/74/74
f 71/71/71 75/75/75 72/72/72
f 75/75/75 71/71/71 76/76/76
f 74/74/74 77/77/77 71/71/71
f 77/77/77 78/78/78 71/71/71
f 71/71/71 78/78/78 76/76/76
f 79/79/79 76/76/76 78/78/78
f 79/79/79 80/80/80 76/76/76
f 80/80/80 72/72/72 75/75/75
f 80/80/80 75/75/75 76/76/76
f 80/80/80 79/79/79 81/81/81
f 80/80/80 81/81/81 72/72/72
f 81/81/81 79/79/79 82/82/82
f 81/81/81 82/82/82 72/72/72
f 79/79/79 83/83/83 82/82/82
f 72/72/72 82/82/82 84/84/84
f 84/84/84 85/85/85 72/72/72
f 85/85/85 70/70/70 72/72/72
f 86/86/86 85/85/85 84/84/84
f 74/74/74 73/73/73 87/87/87
f 87/87/87 73/73/73 67/67/67
f 67/67/67 68/68/68 87/87/87
f 85/85/85 86/86/86 88/88/88
f 88/88/88 86/86/86 89/89/89
f 89/89/89 1/1/1 88/88/88
f 88/88/88 1/1/1 85/85/85
f 89/89/89 90/90/90 1/1/1
f 85/85/85 1/1/1 70/70/70
f 61/61/61 70/70/70 1/1/1
f 90/90/90 4/4/4 1/1/1
f 61/61/61 1/1/1 2/2/2
f 61/61/61 2/2/2 7/7/7
f 90/90/90 91/91/91 4/4/4
f 91/91/91 90/90/90 92/92/92
f 92/92/92 93/93/93 91/91/91
f 94/94/94 91/91/91 93/93/93
f 94/94/94 95/95/95 91/91/91
f 4/4/4 91/91/91 5/5/5
f 58/58/58 24/24/24 25/25/25
f 22/22/22 24/24/24 58/58/58
