#Rock5_(7)_2766_129.obj

v 2.835674 -0.4419359 1.642038
v 3.115869 1.480955 1.563944
v 3.463013 -0.4419901 -0.3895982
v 2.160261 -0.4149562 2.856637
v 2.432513 1.416612 2.563995
v 1.032322 1.104923 3.288903
v 1.208834 1.569155 1.813751
v -0.4116892 1.352988 3.33076
v -0.8349751 1.294411 1.954972
v -1.633932 -0.405333 2.115705
v 2.414296 1.672443 0.6079304
v 3.172682 1.292258 0.4769885
v 3.367085 0.3337346 -0.5196929
v 1.661312 2.652571 1.494726
v 2.778452 2.441385 0.2826789
v 2.616399 1.821087 -0.5394861
v 2.182187 2.313402 -1.599333
v 1.786022 1.43189 -1.396143
v 0.8181237 1.114579 -2.472309
v 0.8384776 2.266884 -2.493036
v 1.024291 2.784268 -2.368336
v 0.03828014 2.531387 -3.080156
v -0.08949173 3.644581 -3.163829
v -1.298203 2.953076 -3.019542
v 0.1292994 2.059207 -3.139169
v -1.246351 2.219381 -2.816281
v 2.7922 1.116497 -1.220048
v 2.666731 -0.4930561 -1.265135
v 2.078805 -0.3734027 -1.430914
v 1.995263 1.064743 -1.925211
v 1.365848 -0.3222524 -2.407081
v 0.2113606 -0.4300606 -2.487981
v -1.532592 3.867083 -2.623216
v 0.3859062 0.9924321 -3.013166
v -0.7644347 0.5447479 -2.875978
v 0.2978746 0.7294065 -2.250402
v -0.3562184 -0.4365838 -2.902818
v -0.7849247 1.810945 -3.217453
v 0.2978746 0.7294065 -2.250402
v 0.2978746 0.7294065 -2.250402
v -1.21589 -0.4407451 -3.001235
v 0.6382837 3.674522 -2.316926
v -2.066929 3.913483 -0.5253896
v 0.01870097 4.023955 0.7074936
v 1.032511 3.823844 -0.3248718
v 1.328675 3.272989 -2.046155
v -2.386711 3.754764 -1.263845
v 1.551931 2.937797 -1.555443
v 2.395739 2.857597 0.01798233
v 1.188549 2.954225 0.0707327
v 1.293796 3.394161 -0.1376549
v -0.0252614 2.8815 1.059859
v 1.032511 3.823844 -0.3248718
v 0.01870097 4.023955 0.7074936
v -0.06408699 3.759507 1.131611
v -0.0252614 2.8815 1.059859
v -1.282148 2.444473 0.7578343
v -2.066929 3.913483 -0.5253896
v -2.19869 2.258182 -0.5435818
v -2.421775 1.995739 1.195477
v -1.408944 2.218964 1.87976
v 1.047026 2.648868 1.545381
v 0.5330178 2.156273 2.006992
v -2.433235 1.388019 0.02648692
v -2.343408 0.9223111 1.351324
v -1.774532 1.444362 1.817276
v -0.8349751 1.294411 1.954972
v -1.633932 -0.405333 2.115705
v -2.386711 3.754764 -1.263845
v -2.384446 2.499587 -1.575084
v -1.532592 3.867083 -2.623216
v 1.208834 1.569155 1.813751
v -1.298203 2.953076 -3.019542
v -1.246351 2.219381 -2.816281
v -2.144769 2.176192 -2.231219
v -2.376406 1.344966 -1.488037
v -1.628327 1.222606 -2.54612
v -3.341818 0.6537775 -0.9751332
v -1.21589 -0.4407451 -3.001235
v -2.987503 -0.4418431 -1.33485
v -0.7849247 1.810945 -3.217453
v -3.400663 -0.4319192 0.6229368
v -0.7644347 0.5447479 -2.875978
v -3.263049 1.000144 -0.3052887
v -2.708557 0.8252261 1.325795
v -2.576501 -0.4411962 1.440315
v -1.375821 -0.4417865 1.993447
v 1.12621 -0.4415824 3.247647
v -0.4554116 -0.4415118 3.27375

vn 0.3713202 -0.1171431 0.9210857
vn 0.4216604 0.4760839 0.7717167
vn 0.873969 -0.01337758 0.4857976
vn -0.06855056 -0.01754102 0.9974934
vn -0.1491606 0.7079699 0.6903113
vn -0.5269445 0.1696724 0.832791
vn -0.3006771 0.7124822 0.6340051
vn -0.6773713 0.7081405 0.1992617
vn -0.8851812 0.1890646 0.4250988
vn -0.9902667 0.03212712 0.1354239
vn 0.2642701 0.510763 0.8180968
vn 0.5681462 0.6532981 0.5004114
vn 0.8251283 0.2457545 0.5086925
vn -0.1505972 0.6696613 0.7272375
vn 0.5804784 0.2466262 0.7760286
vn 0.8447326 0.3112956 0.4353411
vn 0.977073 0.1581425 0.1425461
vn 0.9804775 0.1881266 0.05720514
vn 0.962783 -0.009140237 -0.2701212
vn 0.9723453 0.005798573 -0.233476
vn 0.9857111 0.1556058 -0.06450239
vn 0.8284616 -0.2765394 -0.4870086
vn 0.8061782 0.3991113 -0.4367917
vn 0.3129249 -0.04747066 -0.9485909
vn 0.8598275 0.2635007 -0.4373376
vn 0.3893923 0.2368339 -0.890103
vn 0.9672261 0.2509504 -0.03869733
vn 0.9662397 -0.002840212 -0.2576293
vn 0.9797597 0.0112633 0.1998603
vn 0.9376519 0.3063072 0.1642706
vn 0.9523243 -0.01916739 -0.304485
vn 0.8066195 0.1647316 -0.5676518
vn 0.03139067 0.7528303 -0.6574658
vn 0.8196781 -0.5567803 -0.1346238
vn 0.7852754 -0.1246381 -0.6064718
vn 0.7808648 -0.5083592 -0.3630716
vn 0.8991016 0.1721757 -0.4024575
vn 0.4051623 0.0620462 -0.912137
vn 0.7808648 -0.5083592 -0.3630716
vn 0.7808648 -0.5083592 -0.3630716
vn 0.3695958 0.09022651 -0.9248017
vn 0.4645031 0.8855376 0.007751167
vn -0.6177191 0.7786505 -0.1101204
vn -0.03101625 0.926442 0.3751575
vn 0.3736722 0.8071207 0.4570834
vn 0.8337414 0.4464116 0.3249491
vn -0.6521822 0.3456306 -0.6746836
vn 0.7450435 0.5224116 0.4147244
vn 0.3465829 0.8771971 0.3322732
vn 0.09148951 0.8014358 0.5910418
vn 0.2868582 0.3663967 0.8851361
vn -0.3901217 0.7015766 0.5963182
vn 0.3736722 0.8071207 0.4570834
vn -0.03101625 0.926442 0.3751575
vn -0.5964473 0.4350075 0.6745511
vn -0.3901217 0.7015766 0.5963182
vn -0.769532 0.6384828 0.01265648
vn -0.6177191 0.7786505 -0.1101204
vn -0.7978688 0.1570631 -0.5820109
vn -0.823748 0.4745143 -0.3102829
vn -0.7092834 0.6184738 0.3382413
vn -0.4550524 0.6499609 0.6086692
vn -0.5865635 0.2214979 0.7790263
vn -0.6321489 0.5894063 -0.5029792
vn -0.9619434 0.2277094 0.1510408
vn -0.9391434 -0.06981589 0.3363563
vn -0.8851812 0.1890646 0.4250988
vn -0.9902667 0.03212712 0.1354239
vn -0.6521822 0.3456306 -0.6746836
vn -0.3504925 0.01543175 -0.9364384
vn 0.03139067 0.7528303 -0.6574658
vn -0.3006771 0.7124822 0.6340051
vn 0.3129249 -0.04747066 -0.9485909
vn 0.3893923 0.2368339 -0.890103
vn -0.2002512 0.05682192 -0.9780955
vn -0.4037582 0.4469927 -0.7982336
vn 0.1176425 0.04057554 -0.9922268
vn -0.2929615 0.2182899 -0.9308723
vn 0.3695958 0.09022651 -0.9248017
vn -0.2665685 -0.1184195 -0.9565135
vn 0.4051623 0.0620462 -0.912137
vn -0.8594489 0.04932722 -0.5088364
vn 0.7852754 -0.1246381 -0.6064718
vn -0.5918527 0.6401301 -0.4898407
vn -0.879326 0.4750093 0.03394184
vn -0.9044658 -0.415498 0.0964523
vn -0.1536795 -0.9864925 0.05670362
vn -0.5594955 -0.01478738 0.8287014
vn -0.8529447 -0.02276265 0.5215048

vt 0.4957508 0.7081884
vt 0.4550631 0.688027
vt 0.4597036 0.7535401
vt 0.5108017 0.6727943
vt 0.4670235 0.6668269
vt 0.4799553 0.6373504
vt 0.4417159 0.6454004
vt 0.4724002 0.6088207
vt 0.4467384 0.588862
vt 0.4877147 0.5570299
vt 0.4293488 0.6887852
vt 0.441185 0.7080756
vt 0.4433313 0.7414321
vt 0.4154356 0.6565675
vt 0.4105432 0.6903313
vt 0.4081777 0.7141707
vt 0.3767799 0.7188597
vt 0.3869844 0.7423521
vt 0.3553201 0.7685828
vt 0.3391428 0.739279
vt 0.3395938 0.7231526
vt 0.3135699 0.7373515
vt 0.303627 0.7184526
vt 0.2784767 0.7367446
vt 0.3224552 0.7572249
vt 0.2871791 0.7573138
vt 0.4132306 0.739274
vt 0.4332815 0.774832
vt 0.4170016 0.7810211
vt 0.3859532 0.758684
vt 0.3866238 0.7977785
vt 0.3592529 0.8139965
vt 0.2698129 0.7079781
vt 0.3383735 0.7751962
vt 0.3219079 0.8004986
vt 0.3490422 0.785915
vt 0.3414882 0.8218244
vt 0.3031785 0.7703593
vt 0.3490422 0.785915
vt 0.3490422 0.785915
vt 0.3195543 0.8297304
vt 0.3230667 0.7049602
vt 0.2619106 0.6527154
vt 0.3184407 0.6278594
vt 0.3406794 0.6575928
vt 0.3433232 0.7057373
vt 0.2510596 0.6708403
vt 0.3592896 0.7035025
vt 0.3978563 0.6860924
vt 0.3804276 0.6632791
vt 0.3683466 0.6654086
vt 0.3902749 0.6194323
vt 0.3554966 0.6618333
vt 0.358923 0.6274586
vt 0.3697532 0.6223319
vt 0.3902749 0.6194323
vt 0.3812674 0.5794303
vt 0.3260565 0.5801364
vt 0.3499871 0.5429264
vt 0.3970185 0.5498305
vt 0.4153584 0.5756103
vt 0.4120579 0.6423212
vt 0.4267051 0.6268583
vt 0.3745869 0.5252392
vt 0.4143935 0.528908
vt 0.4209855 0.5526235
vt 0.4434648 0.5637886
vt 0.4576935 0.5163269
vt 0.3113269 0.5671791
vt 0.320045 0.5357577
vt 0.272977 0.5534929
vt 0.4417159 0.6454004
vt 0.2715982 0.5275323
vt 0.2822326 0.5113943
vt 0.3090337 0.5184917
vt 0.335777 0.5048922
vt 0.3026499 0.4901616
vt 0.3642001 0.488381
vt 0.2983242 0.4430069
vt 0.3605655 0.4581668
vt 0.2705998 0.4967639
vt 0.4104464 0.4778133
vt 0.2829823 0.4665345
vt 0.3750091 0.5013992
vt 0.4119172 0.5193376
vt 0.43521 0.4962982
vt 0.4647461 0.5137696
vt 0.5165196 0.6407053
vt 0.5103756 0.5955653

g Rock5_(7)_2766_129
usemtl Rock5_(7)_2766_129
usemap Rock5_(7)_2766_129
f 1/1/1 3/3/3 2/2/2
f 2/2/2 4/4/4 1/1/1
f 5/5/5 4/4/4 2/2/2
f 5/5/5 6/6/6 4/4/4
f 2/2/2 7/7/7 5/5/5
f 7/7/7 8/8/8 5/5/5
f 8/8/8 6/6/6 5/5/5
f 7/7/7 9/9/9 8/8/8
f 8/8/8 9/9/9 10/10/10
f 11/11/11 7/7/7 2/2/2
f 2/2/2 12/12/12 11/11/11
f 2/2/2 13/13/13 12/12/12
f 13/13/13 2/2/2 3/3/3
f 7/7/7 11/11/11 14/14/14
f 14/14/14 11/11/11 15/15/15
f 16/16/16 15/15/15 11/11/11
f 13/13/13 16/16/16 12/12/12
f 12/12/12 16/16/16 11/11/11
f 15/15/15 16/16/16 17/17/17
f 18/18/18 17/17/17 16/16/16
f 18/18/18 19/19/19 17/17/17
f 20/20/20 17/17/17 19/19/19
f 21/21/21 17/17/17 20/20/20
f 22/22/22 21/21/21 20/20/20
f 22/22/22 23/23/23 21/21/21
f 24/24/24 23/23/23 22/22/22
f 19/19/19 25/25/25 20/20/20
f 25/25/25 26/26/26 20/20/20
f 26/26/26 22/22/22 20/20/20
f 26/26/26 24/24/24 22/22/22
f 16/16/16 27/27/27 18/18/18
f 16/16/16 13/13/13 27/27/27
f 18/18/18 27/27/27 28/28/28
f 28/28/28 27/27/27 3/3/3
f 18/18/18 28/28/28 29/29/29
f 30/30/30 19/19/19 18/18/18
f 30/30/30 18/18/18 29/29/29
f 29/29/29 31/31/31 30/30/30
f 30/30/30 31/31/31 19/19/19
f 32/32/32 19/19/19 31/31/31
f 24/24/24 33/33/33 23/23/23
f 19/19/19 34/34/34 25/25/25
f 35/35/35 25/25/25 34/34/34
f 32/32/32 35/35/35 36/36/36
f 32/32/32 37/37/37 35/35/35
f 38/38/38 25/25/25 35/35/35
f 38/38/38 26/26/26 25/25/25
f 34/34/34 39/39/39 35/35/35
f 34/34/34 19/19/19 39/39/39
f 40/40/40 19/19/19 32/32/32
f 13/13/13 3/3/3 27/27/27
f 41/41/41 35/35/35 37/37/37
f 42/42/42 33/33/33 43/43/43
f 42/42/42 43/43/43 44/44/44
f 45/45/45 42/42/42 44/44/44
f 46/46/46 42/42/42 45/45/45
f 42/42/42 46/46/46 21/21/21
f 42/42/42 21/21/21 23/23/23
f 23/23/23 33/33/33 42/42/42
f 33/33/33 47/47/47 43/43/43
f 21/21/21 46/46/46 48/48/48
f 48/48/48 17/17/17 21/21/21
f 49/49/49 17/17/17 48/48/48
f 48/48/48 50/50/50 49/49/49
f 51/51/51 50/50/50 48/48/48
f 46/46/46 51/51/51 48/48/48
f 52/52/52 50/50/50 51/51/51
f 50/50/50 52/52/52 14/14/14
f 49/49/49 50/50/50 14/14/14
f 51/51/51 46/46/46 53/53/53
f 54/54/54 51/51/51 53/53/53
f 15/15/15 17/17/17 49/49/49
f 15/15/15 49/49/49 14/14/14
f 55/55/55 51/51/51 54/54/54
f 55/55/55 56/56/56 51/51/51
f 55/55/55 57/57/57 52/52/52
f 55/55/55 58/58/58 57/57/57
f 55/55/55 54/54/54 58/58/58
f 59/59/59 57/57/57 58/58/58
f 59/59/59 60/60/60 57/57/57
f 57/57/57 60/60/60 61/61/61
f 52/52/52 57/57/57 61/61/61
f 52/52/52 61/61/61 62/62/62
f 62/62/62 14/14/14 52/52/52
f 63/63/63 62/62/62 61/61/61
f 63/63/63 61/61/61 9/9/9
f 60/60/60 59/59/59 64/64/64
f 60/60/60 64/64/64 65/65/65
f 66/66/66 60/60/60 65/65/65
f 66/66/66 61/61/61 60/60/60
f 66/66/66 65/65/65 67/67/67
f 61/61/61 66/66/66 67/67/67
f 67/67/67 65/65/65 68/68/68
f 69/69/69 59/59/59 58/58/58
f 70/70/70 59/59/59 69/69/69
f 69/69/69 71/71/71 70/70/70
f 72/72/72 63/63/63 9/9/9
f 62/62/62 63/63/63 7/7/7
f 70/70/70 71/71/71 73/73/73
f 73/73/73 74/74/74 70/70/70
f 75/75/75 70/70/70 74/74/74
f 75/75/75 59/59/59 70/70/70
f 59/59/59 75/75/75 76/76/76
f 76/76/76 64/64/64 59/59/59
f 75/75/75 77/77/77 76/76/76
f 78/78/78 76/76/76 77/77/77
f 78/78/78 77/77/77 79/79/79
f 80/80/80 78/78/78 79/79/79
f 77/77/77 75/75/75 81/81/81
f 74/74/74 81/81/81 75/75/75
f 78/78/78 80/80/80 82/82/82
f 77/77/77 83/83/83 79/79/79
f 77/77/77 81/81/81 83/83/83
f 84/84/84 76/76/76 78/78/78
f 84/84/84 78/78/78 82/82/82
f 84/84/84 82/82/82 85/85/85
f 64/64/64 84/84/84 85/85/85
f 76/76/76 84/84/84 64/64/64
f 86/86/86 85/85/85 82/82/82
f 68/68/68 85/85/85 86/86/86
f 68/68/68 86/86/86 87/87/87
f 65/65/65 85/85/85 68/68/68
f 64/64/64 85/85/85 65/65/65
f 6/6/6 89/89/89 88/88/88
f 6/6/6 8/8/8 89/89/89
f 8/8/8 10/10/10 89/89/89
f 6/6/6 88/88/88 4/4/4
f 14/14/14 62/62/62 7/7/7
