#Rock4_(3)_3097_143.obj

v 2.806035 -0.153419 1.482066
v 2.816246 -0.6812705 0.6472099
v 2.179823 -0.6824969 2.272059
v 1.905262 1.124366 2.529353
v -0.2794565 -0.6814005 2.822546
v -0.3288648 0.8453609 2.878367
v 0.8647893 1.906564 1.319354
v -1.590116 0.9082176 1.738181
v -0.62359 1.491049 0.9439035
v -0.4975856 1.790203 -0.1501284
v 0.8974466 1.988556 0.4241419
v -0.668922 1.217003 -1.344926
v 2.243443 1.329204 0.6054296
v 2.287333 1.0351 1.771452
v 1.701681 1.703403 -1.321246
v 0.9749291 1.228819 -2.624948
v -0.6295284 0.6841912 -2.452517
v 0.02422513 -0.6686768 -2.93445
v 1.829301 -0.6579061 -2.40706
v 3.25622 0.1926568 -0.8463792
v 2.863207 1.324946 -0.6486748
v 3.186818 0.130288 -0.05233502
v 2.744086 -0.6693901 0.03046823
v -0.7309302 -0.6840672 -2.315057
v -1.366665 1.936623 -0.156261
v -1.860439 1.00685 -1.428866
v -1.177228 0.7236121 -1.870268
v -1.322145 -0.6717586 -1.751586
v -2.081702 -0.6806435 -1.88557
v -1.322145 -0.6717586 -1.751586
v -3.230695 -0.6815352 -0.8520939
v -2.350949 0.6991758 -0.2837684
v -2.617449 1.243698 0.2813641
v -1.250541 1.615895 1.356916
v -2.317161 0.4223207 1.063593
v -2.451803 -0.6820597 1.399893
v -1.590116 0.9082176 1.738181
v -1.080169 -0.6822007 1.263041
v -2.209349 1.1696 1.459096
v -0.8712618 -0.6822576 2.404605
v -1.080169 -0.6822007 1.263041
v 2.816246 -0.6812705 0.6472099

vn 0.7433607 0.07445324 -0.6647343
vn 0.6202279 -0.009804276 -0.7843604
vn 0.9519688 -0.20961 -0.2232019
vn 0.9198154 0.3871966 -0.06339279
vn 0.8256421 -0.06625583 0.5602904
vn 0.5641418 0.4014529 0.721512
vn 0.2214366 0.9631443 0.1527053
vn 0.5096051 0.2762029 0.8148709
vn 0.4003809 0.9076598 0.1258919
vn -0.07036005 0.9974744 -0.009705916
vn -0.0008102953 0.9520851 -0.3058321
vn -0.4060792 0.9030116 -0.1402492
vn 0.455367 0.7793174 -0.430471
vn 0.4700271 0.6586275 -0.5876091
vn -0.04733511 0.9875159 -0.1502394
vn -0.5520745 0.5731536 -0.6055648
vn -0.8998783 0.4293207 0.07682952
vn -0.9440719 0.08512955 -0.3185611
vn -0.3367602 -0.1726226 -0.9256316
vn 0.1520231 -0.06898199 -0.9859668
vn 0.2629617 0.6394799 -0.7224381
vn 0.6989857 -0.004437809 -0.715122
vn 0.3136713 -0.557462 -0.7686655
vn -0.9733933 -0.01182441 0.2288357
vn -0.2801516 0.9571607 0.07320225
vn -0.7628268 0.6247711 0.1666025
vn -0.9358922 0.3478024 -0.05603018
vn -0.9724127 -0.05123875 -0.2275703
vn -0.9689471 0.1692421 -0.1802738
vn -0.9724127 -0.05123875 -0.2275703
vn -0.5554256 0.4337719 0.7094676
vn -0.6373103 0.4114576 0.6515661
vn -0.4398082 0.4992763 0.7465199
vn 0.462495 0.8361201 0.2949602
vn -0.1168572 0.03925127 0.9923728
vn 0.3429572 0.09273732 0.9347621
vn 0.5096051 0.2762029 0.8148709
vn 0.3707082 -0.3953535 0.8403994
vn 0.2758208 0.33406 0.9012917
vn 0.1464238 -0.138201 0.9795206
vn 0.3707082 -0.3953535 0.8403994
vn 0.6202279 -0.009804276 -0.7843604

vt 0.08177406 0.5590136
vt 0.09337166 0.5343032
vt 0.04984022 0.5668743
vt 0.07907501 0.6002782
vt 0.0183186 0.6322125
vt 0.05435452 0.6444781
vt 0.1010552 0.6283724
vt 0.06499068 0.6908395
vt 0.09687583 0.6673691
vt 0.1271943 0.66826
vt 0.1208732 0.6303694
vt 0.1603776 0.6804302
vt 0.1261647 0.5914518
vt 0.09427693 0.5895411
vt 0.1666452 0.6231167
vt 0.1920493 0.643589
vt 0.1925114 0.6826488
vt 0.2348071 0.668623
vt 0.2283528 0.6106274
vt 0.1792248 0.5798343
vt 0.1616471 0.5949689
vt 0.1681622 0.5665238
vt 0.183495 0.5468985
vt 0.2263156 0.6977318
vt 0.1229426 0.68769
vt 0.1551462 0.7108501
vt 0.1785464 0.7014391
vt 0.2175588 0.719762
vt 0.1791399 0.7528989
vt 0.1975867 0.7400464
vt 0.1361288 0.7713462
vt 0.1228323 0.7246453
vt 0.1078977 0.7130938
vt 0.08812189 0.6831443
vt 0.08343585 0.7236099
vt 0.06631079 0.7518926
vt 0.06499068 0.6908395
vt 0.0289535 0.7338564
vt 0.08262382 0.7026785
vt 0.01535734 0.6549521
vt 0.008841153 0.6885316
vt 0.1643098 0.5378069

g Rock4_(3)_3097_143
usemtl Rock4_(3)_3097_143
usemap Rock4_(3)_3097_143
f 1/1/1 3/3/3 2/2/2
f 4/4/4 3/3/3 1/1/1
f 4/4/4 5/5/5 3/3/3
f 6/6/6 5/5/5 4/4/4
f 6/6/6 4/4/4 7/7/7
f 8/8/8 6/6/6 7/7/7
f 9/9/9 8/8/8 7/7/7
f 10/10/10 9/9/9 7/7/7
f 10/10/10 7/7/7 11/11/11
f 11/11/11 12/12/12 10/10/10
f 13/13/13 12/12/12 11/11/11
f 2/2/2 13/13/13 14/14/14
f 14/14/14 13/13/13 11/11/11
f 14/14/14 11/11/11 7/7/7
f 2/2/2 14/14/14 1/1/1
f 4/4/4 14/14/14 7/7/7
f 4/4/4 1/1/1 14/14/14
f 15/15/15 12/12/12 13/13/13
f 15/15/15 16/16/16 12/12/12
f 16/16/16 17/17/17 12/12/12
f 16/16/16 18/18/18 17/17/17
f 16/16/16 19/19/19 18/18/18
f 20/20/20 19/19/19 16/16/16
f 21/21/21 20/20/20 16/16/16
f 21/21/21 16/16/16 15/15/15
f 21/21/21 15/15/15 13/13/13
f 21/21/21 13/13/13 22/22/22
f 20/20/20 21/21/21 22/22/22
f 23/23/23 19/19/19 20/20/20
f 20/20/20 22/22/22 23/23/23
f 24/24/24 17/17/17 18/18/18
f 10/10/10 12/12/12 25/25/25
f 26/26/26 25/25/25 12/12/12
f 26/26/26 12/12/12 27/27/27
f 24/24/24 27/27/27 17/17/17
f 17/17/17 27/27/27 12/12/12
f 24/24/24 28/28/28 27/27/27
f 29/29/29 26/26/26 27/27/27
f 30/30/30 29/29/29 27/27/27
f 31/31/31 26/26/26 29/29/29
f 31/31/31 32/32/32 26/26/26
f 32/32/32 25/25/25 26/26/26
f 25/25/25 32/32/32 33/33/33
f 25/25/25 33/33/33 34/34/34
f 32/32/32 31/31/31 35/35/35
f 33/33/33 32/32/32 35/35/35
f 36/36/36 35/35/35 31/31/31
f 35/35/35 36/36/36 37/37/37
f 36/36/36 38/38/38 37/37/37
f 39/39/39 33/33/33 35/35/35
f 39/39/39 35/35/35 37/37/37
f 39/39/39 37/37/37 34/34/34
f 33/33/33 39/39/39 34/34/34
f 25/25/25 34/34/34 9/9/9
f 34/34/34 37/37/37 9/9/9
f 10/10/10 25/25/25 9/9/9
f 6/6/6 37/37/37 40/40/40
f 41/41/41 40/40/40 37/37/37
f 5/5/5 6/6/6 40/40/40
f 42/42/42 22/22/22 13/13/13
f 42/42/42 23/23/23 22/22/22
