#Rock4_(6)_1471_374.obj

v 2.806033 -0.153419 1.482067
v 2.816243 -0.6812705 0.6472087
v 2.179823 -0.6824969 2.272061
v 1.905262 1.124366 2.529354
v -0.2794581 -0.6814005 2.822545
v -0.3288665 0.8453609 2.878366
v 0.8647893 1.906564 1.319355
v -1.590118 0.9082176 1.738178
v -0.6235905 1.491049 0.9439023
v -0.4975856 1.790203 -0.1501299
v 0.8974472 1.988556 0.4241435
v -0.6689205 1.217003 -1.344926
v 2.243443 1.329204 0.6054305
v 2.287332 1.0351 1.771453
v 1.701681 1.703403 -1.321245
v 0.9749286 1.228819 -2.624949
v -0.6295263 0.6841912 -2.452515
v 0.02422565 -0.6686768 -2.934451
v 1.829302 -0.6579061 -2.40706
v 3.256219 0.1926568 -0.8463792
v 2.863206 1.324946 -0.6486736
v 3.186819 0.130288 -0.05233251
v 2.744086 -0.6693901 0.03046983
v -0.7309305 -0.6840672 -2.315058
v -1.366665 1.936623 -0.1562615
v -1.860438 1.00685 -1.428865
v -1.177227 0.7236121 -1.870269
v -1.322144 -0.6717586 -1.751587
v -2.081703 -0.6806435 -1.885571
v -1.322144 -0.6717586 -1.751587
v -3.230696 -0.6815352 -0.8520955
v -2.350948 0.6991758 -0.2837678
v -2.617449 1.243698 0.2813632
v -1.250541 1.615895 1.356915
v -2.317161 0.4223207 1.063594
v -2.451803 -0.6820597 1.399893
v -1.590118 0.9082176 1.738178
v -1.080169 -0.6822007 1.263041
v -2.209348 1.1696 1.459096
v -0.8712633 -0.6822576 2.404604
v -1.080169 -0.6822007 1.263041
v 2.816243 -0.6812705 0.6472087

vn 0.9744141 0.07445324 -0.2120707
vn 0.9262252 -0.009804276 -0.3768431
vn 0.9383383 -0.20961 0.2749269
vn 0.8316045 0.3871966 0.3981369
vn 0.4423017 -0.06625583 0.8944157
vn 0.135309 0.4014529 0.9058295
vn 0.1174246 0.9631443 0.2420011
vn 0.04184622 0.2762029 0.9601879
vn 0.2863443 0.9076598 0.3068559
vn -0.05643955 0.9974744 -0.04311982
vn 0.150013 0.9520851 -0.2665146
vn -0.2842272 0.9030116 -0.3221569
vn 0.6083726 0.7793174 -0.1501571
vn 0.6985686 0.6586275 -0.2796638
vn 0.03285202 0.9875159 -0.154056
vn -0.1819491 0.5731536 -0.7989928
vn -0.8208784 0.4293207 -0.3766198
vn -0.6644791 0.08512955 -0.7424423
vn 0.1631366 -0.1726226 -0.9713845
vn 0.618178 -0.06898199 -0.7830054
vn 0.5848392 0.6394799 -0.4990278
vn 0.9606335 -0.004437809 -0.2777834
vn 0.6517448 -0.557462 -0.5142615
vn -0.959757 -0.01182441 -0.2805831
vn -0.2798448 0.9571607 -0.07436655
vn -0.7458663 0.6247711 -0.2309644
vn -0.7867403 0.3478024 -0.5099738
vn -0.7339809 -0.05123875 -0.6772347
vn -0.7542736 0.1692421 -0.6343724
vn -0.7339809 -0.05123875 -0.6772347
vn -0.8329304 0.4337719 0.3436117
vn -0.8756464 0.4114576 0.2528757
vn -0.7505874 0.4992763 0.4328299
vn 0.2570729 0.8361201 0.4845789
vn -0.5907359 0.03925127 0.8059096
vn -0.1622439 0.09273732 0.9823831
vn 0.04184622 0.2762029 0.9601879
vn -0.09159365 -0.3953535 0.9139509
vn -0.2041671 0.33406 0.9201738
vn -0.3553122 -0.138201 0.9244748
vn -0.09159365 -0.3953535 0.9139509
vn 0.9262252 -0.009804276 -0.3768431

vt 0.08172607 0.5585938
vt 0.09332275 0.5341797
vt 0.04983521 0.5664063
vt 0.07904053 0.6000977
vt 0.01831055 0.6318359
vt 0.05435181 0.644043
vt 0.1010132 0.6279297
vt 0.06494141 0.6904297
vt 0.09686279 0.6669922
vt 0.1270752 0.6679688
vt 0.1208496 0.6298828
vt 0.1602783 0.6801758
vt 0.1260986 0.5913086
vt 0.09423828 0.5893555
vt 0.166626 0.6230469
vt 0.1920166 0.6435547
vt 0.1925049 0.6826172
vt 0.2347412 0.668457
vt 0.2282715 0.6103516
vt 0.1791992 0.5795898
vt 0.1616211 0.5947266
vt 0.1680908 0.5664063
vt 0.1834717 0.546875
vt 0.2261963 0.6972656
vt 0.1229248 0.6875
vt 0.1550293 0.7104492
vt 0.1784668 0.7011719
vt 0.2175293 0.7197266
vt 0.1790771 0.7524414
vt 0.1975098 0.7397461
vt 0.1361084 0.7709961
vt 0.1228027 0.7246094
vt 0.1078491 0.7128906
vt 0.08807373 0.6831055
vt 0.08343506 0.7231445
vt 0.06628418 0.7514648
vt 0.06494141 0.6904297
vt 0.02894592 0.7333984
vt 0.08258057 0.7026367
vt 0.01535034 0.6547852
vt 0.008834839 0.6884766
vt 0.1643066 0.5375977

g Rock4_(6)_1471_374
usemtl Rock4_(6)_1471_374
usemap Rock4_(6)_1471_374
f 1/1/1 3/3/3 2/2/2
f 4/4/4 3/3/3 1/1/1
f 4/4/4 5/5/5 3/3/3
f 6/6/6 5/5/5 4/4/4
f 6/6/6 4/4/4 7/7/7
f 8/8/8 6/6/6 7/7/7
f 9/9/9 8/8/8 7/7/7
f 10/10/10 9/9/9 7/7/7
f 10/10/10 7/7/7 11/11/11
f 11/11/11 12/12/12 10/10/10
f 13/13/13 12/12/12 11/11/11
f 2/2/2 13/13/13 14/14/14
f 14/14/14 13/13/13 11/11/11
f 14/14/14 11/11/11 7/7/7
f 2/2/2 14/14/14 1/1/1
f 4/4/4 14/14/14 7/7/7
f 4/4/4 1/1/1 14/14/14
f 15/15/15 12/12/12 13/13/13
f 15/15/15 16/16/16 12/12/12
f 16/16/16 17/17/17 12/12/12
f 16/16/16 18/18/18 17/17/17
f 16/16/16 19/19/19 18/18/18
f 20/20/20 19/19/19 16/16/16
f 21/21/21 20/20/20 16/16/16
f 21/21/21 16/16/16 15/15/15
f 21/21/21 15/15/15 13/13/13
f 21/21/21 13/13/13 22/22/22
f 20/20/20 21/21/21 22/22/22
f 23/23/23 19/19/19 20/20/20
f 20/20/20 22/22/22 23/23/23
f 24/24/24 17/17/17 18/18/18
f 10/10/10 12/12/12 25/25/25
f 26/26/26 25/25/25 12/12/12
f 26/26/26 12/12/12 27/27/27
f 24/24/24 27/27/27 17/17/17
f 17/17/17 27/27/27 12/12/12
f 24/24/24 28/28/28 27/27/27
f 29/29/29 26/26/26 27/27/27
f 30/30/30 29/29/29 27/27/27
f 31/31/31 26/26/26 29/29/29
f 31/31/31 32/32/32 26/26/26
f 32/32/32 25/25/25 26/26/26
f 25/25/25 32/32/32 33/33/33
f 25/25/25 33/33/33 34/34/34
f 32/32/32 31/31/31 35/35/35
f 33/33/33 32/32/32 35/35/35
f 36/36/36 35/35/35 31/31/31
f 35/35/35 36/36/36 37/37/37
f 36/36/36 38/38/38 37/37/37
f 39/39/39 33/33/33 35/35/35
f 39/39/39 35/35/35 37/37/37
f 39/39/39 37/37/37 34/34/34
f 33/33/33 39/39/39 34/34/34
f 25/25/25 34/34/34 9/9/9
f 34/34/34 37/37/37 9/9/9
f 10/10/10 25/25/25 9/9/9
f 6/6/6 37/37/37 40/40/40
f 41/41/41 40/40/40 37/37/37
f 5/5/5 6/6/6 40/40/40
f 42/42/42 22/22/22 13/13/13
f 42/42/42 23/23/23 22/22/22
