#Rock3_(16)_1307_430.obj

v -0.9440855 1.136906 -1.216792
v -0.7468482 1.254143 -0.2548346
v -1.413694 0.9414755 -0.4915518
v -0.02034568 0.9592803 -1.428617
v -0.1742673 1.097866 -0.09949391
v 0.1628781 0.9454907 -0.6093684
v 0.3469644 0.1322962 -1.149455
v -0.02510872 0.796134 -0.004591906
v -1.174628 0.8310585 -1.429894
v -0.2579154 0.6002639 -1.550423
v -0.9539778 -0.21589 -1.671466
v 0.0666302 -0.2244607 -1.314171
v 1.509475 -0.209759 -0.9086762
v 0.3823515 0.9776998 -0.704118
v 1.391489 0.8841214 -0.2364171
v 0.4745856 1.064101 -0.3634021
v 0.1628781 0.9454907 -0.6093684
v 1.36873 0.7879554 0.2762353
v 0.4568501 0.4594649 0.6407378
v 0.8598422 0.2661246 0.8718216
v 0.2683689 0.6985022 1.177714
v 0.2596201 0.9579569 0.5341898
v -1.344633 -0.2243984 -1.375771
v 1.638109 0.3897389 -0.2464696
v 1.146828 -0.2245951 0.7801661
v 1.123471 0.1747995 0.8086092
v 0.8664919 -0.1333605 0.9139368
v 1.693022 -0.2244684 -0.5556505
v 0.3808452 0.4957438 1.558168
v 0.8194537 -0.2030543 1.222913
v 0.8664919 -0.1333605 0.9139368
v 0.05720134 0.05316483 1.735741
v 0.2683689 0.6985022 1.177714
v -0.256962 0.1026063 1.50911
v 0.103851 -0.2227688 1.702711
v -0.1964381 -0.2194778 1.504252
v -1.45872 0.5425245 -1.023413
v -1.674871 -0.2224525 -0.6187643
v -1.346508 0.6172 -0.2971257
v -1.348934 0.1914481 0.03926393
v -1.050595 0.6201938 -0.05249627
v -1.378553 -0.224503 0.1970382
v -0.757367 1.030764 -0.01623596
v -1.348934 0.1914481 0.03926393
v -1.472794 0.6474112 0.3256972
v -1.378553 -0.224503 0.1970382
v -1.44407 -0.2243498 0.5590827
v -1.406242 0.8316844 0.9874334
v -0.8474675 -0.00868242 1.637611
v -0.6836905 0.7736423 1.563667
v -0.6748965 1.361803 0.276439
v 0.1808954 0.8877454 1.235785
v -0.3462715 0.4248249 1.607319
v -0.757367 1.030764 -0.01623596
v -0.02510872 0.796134 -0.004591906
v 0.4568501 0.4594649 0.6407378
v 0.2683689 0.6985022 1.177714
v -0.256962 0.1026063 1.50911
v -0.7731864 -0.2244991 1.445944
v -0.1964381 -0.2194778 1.504252

vn 0.06832524 0.9348052 -0.3485269
vn -0.06135899 0.9973203 0.03983978
vn -0.6945131 0.6492695 -0.3100009
vn 0.7059554 0.7025735 -0.08953986
vn 0.3768738 0.9105781 0.1697455
vn 0.4689282 0.8790748 0.0856382
vn 0.8484222 0.3156134 -0.424933
vn 0.0650789 0.9128258 0.4031301
vn 0.0952414 0.3864119 -0.9173957
vn 0.7196929 0.08685968 -0.6888377
vn 0.4947622 0.04967994 -0.8676072
vn 0.8392742 -0.02642263 -0.5430661
vn 0.8073519 0.4526938 -0.3784854
vn 0.6513643 0.5773732 -0.4923055
vn 0.6926173 0.7114252 -0.1189764
vn -0.168889 0.9712815 0.1675974
vn 0.4689282 0.8790748 0.0856382
vn 0.1238759 0.6424781 0.7562252
vn 0.004917204 0.8904626 0.4550299
vn 0.08459035 0.6423116 0.7617614
vn 0.301769 0.6356437 0.7105579
vn 0.5565388 0.7666103 0.3202706
vn -0.2990204 0.06310164 -0.952158
vn 0.7198353 0.1174768 0.6841318
vn 0.4258747 -0.02256741 0.9045006
vn 0.1260397 0.2010509 0.9714384
vn 0.3212458 0.07494502 0.9440255
vn 0.7401696 0.0290681 0.6717916
vn -0.06842729 0.4661886 0.882035
vn 0.2747533 0.1502465 0.9497035
vn 0.3212458 0.07494502 0.9440255
vn -0.4725409 0.2348079 0.849453
vn 0.301769 0.6356437 0.7105579
vn -0.61562 0.1169365 0.7793189
vn -0.3014712 -0.06205048 0.951454
vn -0.8050647 -0.08557115 0.5869825
vn -0.6155717 0.2304539 -0.7536328
vn -0.7771444 0.1952759 -0.5982591
vn -0.9380631 0.2920234 -0.1864397
vn -0.8301641 0.2172661 -0.5134423
vn -0.5782696 0.5712633 -0.5824624
vn -0.8366996 0.04803255 -0.5455517
vn -0.3730165 0.8094946 -0.4534061
vn -0.8301641 0.2172661 -0.5134423
vn -0.6238546 0.3899258 -0.6773206
vn -0.8366996 0.04803255 -0.5455517
vn -0.9457172 -0.1460583 -0.2903206
vn -0.8755378 0.4740957 -0.09309536
vn -0.9508153 -0.183919 0.249247
vn -0.5653467 0.7003081 0.4358343
vn -0.1502015 0.9885024 -0.01738766
vn -0.04734971 0.8506142 0.523654
vn -0.3204297 0.09849457 0.9421378
vn -0.3730165 0.8094946 -0.4534061
vn 0.0650789 0.9128258 0.4031301
vn 0.004917204 0.8904626 0.4550299
vn 0.301769 0.6356437 0.7105579
vn -0.61562 0.1169365 0.7793189
vn -0.7061043 -0.5943414 0.384935
vn -0.8050647 -0.08557115 0.5869825

vt 0.1158447 0.9379883
vt 0.09533691 0.9116211
vt 0.08740234 0.9389648
vt 0.1425781 0.9262695
vt 0.1080322 0.8901367
vt 0.1347656 0.8984375
vt 0.1751709 0.9199219
vt 0.1161499 0.8774414
vt 0.1175537 0.9511719
vt 0.1467285 0.9389648
vt 0.1452637 0.9833984
vt 0.1838379 0.9423828
vt 0.2109375 0.8730469
vt 0.144165 0.8945313
vt 0.1627197 0.8598633
vt 0.1395264 0.8823242
vt 0.1347656 0.8984375
vt 0.1549072 0.8461914
vt 0.1179199 0.8393555
vt 0.1309814 0.8173828
vt 0.08795166 0.8276367
vt 0.1026611 0.8564453
vt 0.1208496 0.9916992
vt 0.1801758 0.8525391
vt 0.1566162 0.8022461
vt 0.1452637 0.815918
vt 0.1368408 0.7983398
vt 0.2078857 0.8515625
vt 0.09185791 0.8085938
vt 0.1263428 0.7885742
vt 0.1390381 0.7988281
vt 0.07946777 0.7866211
vt 0.08795166 0.8276367
vt 0.06323242 0.7915039
vt 0.08343506 0.7749023
vt 0.06542969 0.7753906
vt 0.100769 0.9599609
vt 0.07574463 0.9887695
vt 0.0725708 0.9418945
vt 0.050354 0.953125
vt 0.06292725 0.9248047
vt 0.03555298 0.9697266
vt 0.08239746 0.9072266
vt 0.03083801 0.921875
vt 0.04589844 0.9052734
vt 0.009361267 0.9145508
vt 0.007072449 0.8959961
vt 0.04684448 0.8813477
vt 0.02560425 0.8452148
vt 0.05227661 0.8515625
vt 0.08233643 0.8901367
vt 0.08343506 0.8369141
vt 0.04949951 0.8344727
vt 0.08239746 0.9072266
vt 0.1161499 0.8774414
vt 0.1179199 0.8393555
vt 0.08795166 0.8276367
vt 0.04055786 0.8222656
vt 0.01483154 0.8422852
vt 0.02677917 0.8149414

g Rock3_(16)_1307_430
usemtl Rock3_(16)_1307_430
usemap Rock3_(16)_1307_430
f 1/1/1 3/3/3 2/2/2
f 1/1/1 2/2/2 4/4/4
f 4/4/4 2/2/2 5/5/5
f 6/6/6 4/4/4 5/5/5
f 7/7/7 4/4/4 6/6/6
f 5/5/5 8/8/8 6/6/6
f 9/9/9 3/3/3 1/1/1
f 4/4/4 9/9/9 1/1/1
f 10/10/10 9/9/9 4/4/4
f 10/10/10 4/4/4 7/7/7
f 11/11/11 9/9/9 10/10/10
f 12/12/12 11/11/11 10/10/10
f 10/10/10 7/7/7 12/12/12
f 7/7/7 13/13/13 12/12/12
f 7/7/7 14/14/14 13/13/13
f 6/6/6 14/14/14 7/7/7
f 15/15/15 13/13/13 14/14/14
f 15/15/15 14/14/14 16/16/16
f 14/14/14 6/6/6 16/16/16
f 17/17/17 8/8/8 16/16/16
f 8/8/8 18/18/18 16/16/16
f 15/15/15 16/16/16 18/18/18
f 8/8/8 19/19/19 18/18/18
f 19/19/19 20/20/20 18/18/18
f 21/21/21 20/20/20 19/19/19
f 19/19/19 22/22/22 21/21/21
f 9/9/9 11/11/11 23/23/23
f 15/15/15 18/18/18 24/24/24
f 24/24/24 13/13/13 15/15/15
f 18/18/18 25/25/25 24/24/24
f 26/26/26 25/25/25 18/18/18
f 26/26/26 20/20/20 25/25/25
f 26/26/26 18/18/18 20/20/20
f 27/27/27 25/25/25 20/20/20
f 13/13/13 24/24/24 28/28/28
f 28/28/28 24/24/24 25/25/25
f 29/29/29 30/30/30 20/20/20
f 20/20/20 30/30/30 31/31/31
f 32/32/32 30/30/30 29/29/29
f 21/21/21 32/32/32 29/29/29
f 20/20/20 33/33/33 29/29/29
f 32/32/32 33/33/33 34/34/34
f 32/32/32 35/35/35 30/30/30
f 36/36/36 35/35/35 32/32/32
f 36/36/36 32/32/32 34/34/34
f 23/23/23 38/38/38 37/37/37
f 38/38/38 39/39/39 37/37/37
f 40/40/40 39/39/39 38/38/38
f 40/40/40 41/41/41 39/39/39
f 38/38/38 42/42/42 40/40/40
f 43/43/43 39/39/39 41/41/41
f 43/43/43 3/3/3 39/39/39
f 3/3/3 37/37/37 39/39/39
f 3/3/3 9/9/9 37/37/37
f 37/37/37 9/9/9 23/23/23
f 44/44/44 45/45/45 41/41/41
f 45/45/45 44/44/44 46/46/46
f 45/45/45 46/46/46 47/47/47
f 47/47/47 48/48/48 45/45/45
f 47/47/47 49/49/49 48/48/48
f 48/48/48 49/49/49 50/50/50
f 48/48/48 50/50/50 51/51/51
f 51/51/51 45/45/45 48/48/48
f 52/52/52 51/51/51 50/50/50
f 22/22/22 51/51/51 52/52/52
f 50/50/50 49/49/49 53/53/53
f 52/52/52 50/50/50 53/53/53
f 54/54/54 45/45/45 51/51/51
f 5/5/5 51/51/51 22/22/22
f 54/54/54 51/51/51 5/5/5
f 22/22/22 55/55/55 5/5/5
f 56/56/56 55/55/55 22/22/22
f 52/52/52 57/57/57 22/22/22
f 53/53/53 33/33/33 52/52/52
f 53/53/53 58/58/58 33/33/33
f 59/59/59 58/58/58 53/53/53
f 49/49/49 47/47/47 59/59/59
f 49/49/49 59/59/59 53/53/53
f 2/2/2 54/54/54 5/5/5
f 54/54/54 2/2/2 3/3/3
f 59/59/59 60/60/60 58/58/58
f 41/41/41 45/45/45 54/54/54
