#Rock3_(32)_3164_192.obj

v -1.001834 1.099319 -1.205099
v -0.7530348 1.249415 -0.259804
v -1.433113 0.9331432 -0.4493957
v -0.0916009 0.9078396 -1.459115
v -0.1737851 1.094804 -0.1295446
v 0.1349426 0.9220036 -0.6507783
v 0.2858872 0.0888057 -1.170262
v -0.02130742 0.7956184 -0.03189549
v -1.244942 0.7876745 -1.394523
v -0.3371302 0.5463662 -1.555145
v -1.042757 -0.2687304 -1.609635
v -0.00461606 -0.2716419 -1.306926
v 1.45784 -0.2525111 -0.9793623
v 0.3492148 0.9492877 -0.7581394
v 1.381354 0.8654413 -0.3415838
v 0.4599052 1.047142 -0.426127
v 0.1349426 0.9220036 -0.6507783
v 1.385455 0.7877792 0.1746817
v 0.4926518 0.4788394 0.5986449
v 0.9064041 0.2910688 0.8148244
v 0.3342553 0.7381778 1.135917
v 0.2925379 0.9745719 0.4848455
v -1.41714 -0.2639742 -1.293511
v 1.624596 0.3693143 -0.3469144
v 1.18562 -0.2045899 0.7257835
v 1.165824 0.1957175 0.7410384
v 0.9132761 -0.1066967 0.8708737
v 1.65986 -0.2558951 -0.6362726
v 0.4658192 0.5483399 1.516915
v 0.882413 -0.1650001 1.184218
v 0.9132761 -0.1066967 0.8708737
v 0.1498688 0.1146334 1.727222
v 0.3342553 0.7381778 1.135917
v -0.1756714 0.1581419 1.51595
v 0.1933025 -0.1626197 1.701712
v -0.1171137 -0.1643222 1.519478
v -1.508424 0.5158008 -0.9634188
v -1.706561 -0.2327395 -0.520609
v -1.357301 0.6155482 -0.2472676
v -1.343945 0.2020911 0.1038774
v -1.048762 0.6252095 -0.01895275
v -1.36721 -0.2077529 0.2778658
v -0.7519523 1.034766 -0.01310045
v -1.343945 0.2020911 0.1038774
v -1.450065 0.6688289 0.3798876
v -1.36721 -0.2077529 0.2778658
v -1.41334 -0.1942324 0.6426357
v -1.347424 0.8761173 1.030101
v -0.759043 0.05561154 1.679526
v -0.5955003 0.8336443 1.568894
v -0.6523411 1.375449 0.2626849
v 0.2509519 0.9299741 1.1917
v -0.2579957 0.484271 1.607101
v -0.7519523 1.034766 -0.01310045
v -0.02130742 0.7956184 -0.03189549
v 0.4926518 0.4788394 0.5986449
v 0.3342553 0.7381778 1.135917
v -0.1756714 0.1581419 1.51595
v -0.6961687 -0.1674145 1.492077
v -0.1171137 -0.1643222 1.519478

vn 0.1637408 0.9714031 -0.1719446
vn 0.3267166 0.9224708 0.2056787
vn -0.459782 0.8235069 0.3323203
vn 0.6969011 0.5614265 -0.4462389
vn 0.6894651 0.7242767 -0.007816665
vn 0.6938362 0.7073219 -0.1352292
vn 0.4622678 0.2895847 -0.8381224
vn 0.6072776 0.7018976 0.3722279
vn -0.3508133 0.6470043 -0.6769899
vn 0.1311253 0.1869208 -0.9735845
vn -0.1510961 0.2500811 -0.9563627
vn 0.2655185 0.01305631 -0.9640173
vn 0.5084708 0.4083217 -0.75811
vn 0.3711882 0.5883419 -0.7183824
vn 0.6726451 0.5816858 -0.4573732
vn 0.3175701 0.8741755 0.3673778
vn 0.6938362 0.7073219 -0.1352292
vn 0.7685289 0.3237956 0.551833
vn 0.5876375 0.6741486 0.4474435
vn 0.7436154 0.3284871 0.5823509
vn 0.8662765 0.3023529 0.397678
vn 0.8591816 0.5101409 -0.03953822
vn -0.7671534 0.4256883 -0.4798594
vn 0.9702448 -0.2407371 0.02590043
vn 0.8435367 -0.3938388 0.3651534
vn 0.7464676 -0.1575904 0.6464915
vn 0.8261901 -0.2986963 0.4776927
vn 0.9466583 -0.3221194 -0.008776039
vn 0.6451296 0.1511774 0.7489681
vn 0.822426 -0.2228102 0.5234227
vn 0.8261901 -0.2986963 0.4776927
vn 0.2549934 0.01610115 0.9668087
vn 0.8662765 0.3023529 0.397678
vn 0.06901048 -0.04561199 0.9965727
vn 0.3361119 -0.3222986 0.884959
vn -0.2534038 -0.1373666 0.9575578
vn -0.8163882 0.5688729 -0.09946771
vn -0.8508372 0.5121219 0.1175042
vn -0.6842281 0.4924736 0.5378676
vn -0.8300717 0.5133729 0.2177826
vn -0.5678591 0.821856 0.04570325
vn -0.9129694 0.368144 0.1759462
vn -0.2598594 0.965082 0.0330134
vn -0.8300717 0.5133729 0.2177826
vn -0.7208502 0.6928848 -0.01690273
vn -0.9129694 0.368144 0.1759462
vn -0.9046963 0.1218507 0.408261
vn -0.5197366 0.6197469 0.5880372
vn -0.5959725 -0.09162703 0.7977602
vn 0.1006617 0.6011459 0.7927741
vn 0.2253596 0.9484161 0.2229797
vn 0.5776756 0.6232793 0.5270807
vn 0.3726976 -0.1670327 0.912796
vn -0.2598594 0.965082 0.0330134
vn 0.6072776 0.7018976 0.3722279
vn 0.5876375 0.6741486 0.4474435
vn 0.8662765 0.3023529 0.397678
vn 0.06901048 -0.04561199 0.9965727
vn -0.4811562 -0.5591059 0.6751958
vn -0.2534038 -0.1373666 0.9575578

vt 0.1158638 0.9383631
vt 0.09538253 0.9120352
vt 0.08741901 0.9391211
vt 0.1426682 0.9264175
vt 0.1080404 0.8905393
vt 0.1347711 0.8988628
vt 0.1751804 0.9199398
vt 0.1161831 0.8776034
vt 0.1176134 0.9513465
vt 0.1468127 0.9391351
vt 0.1453332 0.9837276
vt 0.1839423 0.9427396
vt 0.2110212 0.8733379
vt 0.144241 0.8946485
vt 0.1627785 0.8600584
vt 0.1395759 0.8824828
vt 0.1347711 0.8988628
vt 0.1549532 0.8464264
vt 0.1179448 0.8396425
vt 0.1310518 0.8177863
vt 0.08797247 0.8280851
vt 0.1027162 0.8567739
vt 0.1208919 0.9921259
vt 0.1802932 0.852975
vt 0.156728 0.8026067
vt 0.1453191 0.8163236
vt 0.1368421 0.7983432
vt 0.2079828 0.8517604
vt 0.09188173 0.8086196
vt 0.1263664 0.7887857
vt 0.1390489 0.7991756
vt 0.07950947 0.7867259
vt 0.08797247 0.8280851
vt 0.06328828 0.791539
vt 0.08346606 0.7749887
vt 0.06547388 0.7755531
vt 0.1007873 0.9601148
vt 0.07576175 0.9891008
vt 0.07257432 0.9420716
vt 0.0503709 0.9534717
vt 0.06298687 0.9252746
vt 0.03557348 0.970162
vt 0.08244275 0.9075034
vt 0.03084773 0.9223279
vt 0.04592365 0.9057153
vt 0.009368702 0.9150389
vt 0.007073132 0.8962587
vt 0.04685852 0.8817821
vt 0.02561666 0.8455088
vt 0.05227689 0.8518144
vt 0.08237857 0.8901991
vt 0.08348626 0.8371816
vt 0.04950949 0.8346252
vt 0.08244275 0.9075034
vt 0.1161831 0.8776034
vt 0.1179448 0.8396425
vt 0.08797247 0.8280851
vt 0.04058571 0.8226988
vt 0.01483814 0.842499
vt 0.02678112 0.815241

g Rock3_(32)_3164_192
usemtl Rock3_(32)_3164_192
usemap Rock3_(32)_3164_192
f 1/1/1 3/3/3 2/2/2
f 1/1/1 2/2/2 4/4/4
f 4/4/4 2/2/2 5/5/5
f 6/6/6 4/4/4 5/5/5
f 7/7/7 4/4/4 6/6/6
f 5/5/5 8/8/8 6/6/6
f 9/9/9 3/3/3 1/1/1
f 4/4/4 9/9/9 1/1/1
f 10/10/10 9/9/9 4/4/4
f 10/10/10 4/4/4 7/7/7
f 11/11/11 9/9/9 10/10/10
f 12/12/12 11/11/11 10/10/10
f 10/10/10 7/7/7 12/12/12
f 7/7/7 13/13/13 12/12/12
f 7/7/7 14/14/14 13/13/13
f 6/6/6 14/14/14 7/7/7
f 15/15/15 13/13/13 14/14/14
f 15/15/15 14/14/14 16/16/16
f 14/14/14 6/6/6 16/16/16
f 17/17/17 8/8/8 16/16/16
f 8/8/8 18/18/18 16/16/16
f 15/15/15 16/16/16 18/18/18
f 8/8/8 19/19/19 18/18/18
f 19/19/19 20/20/20 18/18/18
f 21/21/21 20/20/20 19/19/19
f 19/19/19 22/22/22 21/21/21
f 9/9/9 11/11/11 23/23/23
f 15/15/15 18/18/18 24/24/24
f 24/24/24 13/13/13 15/15/15
f 18/18/18 25/25/25 24/24/24
f 26/26/26 25/25/25 18/18/18
f 26/26/26 20/20/20 25/25/25
f 26/26/26 18/18/18 20/20/20
f 27/27/27 25/25/25 20/20/20
f 13/13/13 24/24/24 28/28/28
f 28/28/28 24/24/24 25/25/25
f 29/29/29 30/30/30 20/20/20
f 20/20/20 30/30/30 31/31/31
f 32/32/32 30/30/30 29/29/29
f 21/21/21 32/32/32 29/29/29
f 20/20/20 33/33/33 29/29/29
f 32/32/32 33/33/33 34/34/34
f 32/32/32 35/35/35 30/30/30
f 36/36/36 35/35/35 32/32/32
f 36/36/36 32/32/32 34/34/34
f 23/23/23 38/38/38 37/37/37
f 38/38/38 39/39/39 37/37/37
f 40/40/40 39/39/39 38/38/38
f 40/40/40 41/41/41 39/39/39
f 38/38/38 42/42/42 40/40/40
f 43/43/43 39/39/39 41/41/41
f 43/43/43 3/3/3 39/39/39
f 3/3/3 37/37/37 39/39/39
f 3/3/3 9/9/9 37/37/37
f 37/37/37 9/9/9 23/23/23
f 44/44/44 45/45/45 41/41/41
f 45/45/45 44/44/44 46/46/46
f 45/45/45 46/46/46 47/47/47
f 47/47/47 48/48/48 45/45/45
f 47/47/47 49/49/49 48/48/48
f 48/48/48 49/49/49 50/50/50
f 48/48/48 50/50/50 51/51/51
f 51/51/51 45/45/45 48/48/48
f 52/52/52 51/51/51 50/50/50
f 22/22/22 51/51/51 52/52/52
f 50/50/50 49/49/49 53/53/53
f 52/52/52 50/50/50 53/53/53
f 54/54/54 45/45/45 51/51/51
f 5/5/5 51/51/51 22/22/22
f 54/54/54 51/51/51 5/5/5
f 22/22/22 55/55/55 5/5/5
f 56/56/56 55/55/55 22/22/22
f 52/52/52 57/57/57 22/22/22
f 53/53/53 33/33/33 52/52/52
f 53/53/53 58/58/58 33/33/33
f 59/59/59 58/58/58 53/53/53
f 49/49/49 47/47/47 59/59/59
f 49/49/49 59/59/59 53/53/53
f 2/2/2 54/54/54 5/5/5
f 54/54/54 2/2/2 3/3/3
f 59/59/59 60/60/60 58/58/58
f 41/41/41 45/45/45 54/54/54
