#Rock1_(4)_1385_342.obj

v 1.355382 -0.2277833 -1.316265
v 1.315615 -0.1664298 -0.6758518
v 1.265203 0.1041676 -0.9879555
v 0.7709003 -0.110894 -0.6009068
v 0.9162018 0.1267845 -1.050689
v 0.6132222 -0.1164165 -0.8313143
v 0.731968 -0.1645501 -1.244923
v 0.983391 -0.2006569 -1.388749
v -1.382806 0.1205353 -0.1967633
v -0.8223456 0.381075 -0.09040432
v -1.334023 0.1627616 0.3129428
v -0.9971268 0.06687517 -0.4114125
v -0.7562641 0.1139234 0.3544202
v -0.5694377 0.0410066 -0.2685219
v 1.023184 0.2827459 0.9684363
v 0.8152306 0.06346773 1.366555
v 0.6229258 0.04977272 1.022095
v 0.78725 0.006442701 0.7068316
v 1.263488 -0.03868877 0.687155
v 1.386905 -0.0131409 1.090879
v 1.185394 0.02445725 1.305382

vn -0.3029283 0.6309944 -0.7141992
vn 0.4894509 0.5333056 -0.6899441
vn 0.0737147 0.9120864 -0.403317
vn 0.6032639 0.7894844 0.1130791
vn -0.08462755 0.9409267 0.3278644
vn 0.1183547 0.7734625 0.622694
vn -0.4079409 0.7421653 0.5317658
vn -0.5870261 0.8093758 -0.01764452
vn -0.2121941 0.9154614 0.3419124
vn -0.04342298 0.989946 -0.134615
vn 0.3864762 0.8995183 0.2037225
vn -0.5979162 0.801088 -0.02746417
vn 0.5024913 0.7130982 -0.4888696
vn -0.2308477 0.7090365 -0.6663157
vn 0.0922149 0.9916928 -0.08967607
vn 0.5368103 0.8290361 0.1566329
vn 0.04746554 0.8594166 0.509068
vn -0.4721246 0.8458276 0.2483431
vn -0.423829 0.8226068 -0.3790608
vn 0.1667911 0.7675187 -0.6189473
vn 0.5685773 0.7430363 -0.3530111

vt 0.2322998 0.722168
vt 0.2139893 0.7592773
vt 0.2314453 0.7470703
vt 0.2440186 0.7788086
vt 0.2480469 0.7514648
vt 0.2592773 0.7705078
vt 0.265625 0.7431641
vt 0.2553711 0.7280273
vt 0.2298584 0.7851563
vt 0.2045898 0.8041992
vt 0.2371826 0.815918
vt 0.203125 0.7792969
vt 0.2050781 0.831543
vt 0.1813965 0.7978516
vt 0.2773438 0.8071289
vt 0.2497559 0.8139648
vt 0.2700195 0.8330078
vt 0.2941895 0.8271484
vt 0.3017578 0.793457
vt 0.2758789 0.7792969
vt 0.2578125 0.7890625

g Rock1_(4)_1385_342
usemtl Rock1_(4)_1385_342
usemap Rock1_(4)_1385_342
f 1/1/1 3/3/3 2/2/2
f 4/4/4 2/2/2 3/3/3
f 3/3/3 5/5/5 4/4/4
f 6/6/6 4/4/4 5/5/5
f 5/5/5 7/7/7 6/6/6
f 5/5/5 3/3/3 8/8/8
f 8/8/8 3/3/3 1/1/1
f 5/5/5 8/8/8 7/7/7
f 9/9/9 11/11/11 10/10/10
f 10/10/10 12/12/12 9/9/9
f 13/13/13 10/10/10 11/11/11
f 10/10/10 13/13/13 14/14/14
f 12/12/12 10/10/10 14/14/14
f 15/15/15 17/17/17 16/16/16
f 15/15/15 18/18/18 17/17/17
f 19/19/19 18/18/18 15/15/15
f 20/20/20 19/19/19 15/15/15
f 15/15/15 21/21/21 20/20/20
f 15/15/15 16/16/16 21/21/21
