#Rock7_1206_407.obj

v 1.615948 3.193065 -2.161097
v 3.132351 1.194415 -0.4922056
v 2.897688 2.425517 -0.0658617
v 1.569539 0.9517951 -2.826763
v 2.834382 -0.7442831 -1.512515
v 3.099543 0.2564352 1.606971
v 0.6837034 -0.7535412 -3.245449
v 1.676588 1.475424 1.172935
v 0.2148209 1.546707 2.678754
v 2.501469 -0.7968525 0.1321993
v 1.556725 -0.7498094 2.278559
v 2.074976 0.3480513 2.535215
v 0.1630554 0.577656 2.624
v -0.6810837 0.6300449 3.232365
v -1.515416 1.968689 1.958539
v -2.360529 0.3008705 1.470398
v -1.117785 -0.7968955 2.068395
v 0.1584406 -0.7991046 2.685827
v 1.109472 1.353776 -3.024926
v -0.1266174 2.326372 2.046972
v -1.481533 -0.7449083 1.236208
v 2.208875 2.681625 1.311308
v 0.6937304 4.483822 2.158694
v 2.317586 5.042902 1.360617
v 0.7400675 5.445632 1.525025
v -0.4545708 3.484607 1.318844
v -1.727235 2.148252 1.36851
v 2.385754 3.028052 0.2426209
v -0.6950397 5.634754 1.546697
v 2.320979 5.308785 0.3931408
v 1.648476 7.171652 0.9306951
v 2.002034 6.733125 -0.2960596
v -0.1711712 6.936234 1.305442
v -0.1711245 7.583107 -0.506053
v -1.344395 6.7626 -0.02090359
v -1.151281 3.822648 0.5197001
v -1.727235 2.148252 1.36851
v -1.239285 7.767223 -1.128441
v -2.361238 7.152822 -0.6546612
v -1.863176 6.338925 -2.169153
v -3.225519 5.89585 -1.375834
v -1.225349 8.09833 -2.135025
v -0.2105436 7.634578 -3.464592
v -3.092329 5.122919 -0.5469255
v -2.08391 3.741892 0.1901212
v -2.897501 3.555134 -0.7047925
v -3.294399 3.306284 0.2004848
v -2.37594 3.012727 -1.851251
v -2.783215 2.408935 1.221886
v -3.472233 0.8787611 0.8497305
v -3.260847 -0.126028 -0.8064632
v -3.124121 2.764265 -1.206432
v -2.700512 1.088025 -1.749799
v -2.770788 -0.8007415 0.2292233
v -2.550611 -0.7935925 -1.212822
v -2.360529 0.3008705 1.470398
v -1.481533 -0.7449083 1.236208
v -1.191064 3.620928 -2.697503
v -1.412552 5.337087 -2.958849
v -2.800997 5.250596 -2.063204
v -0.834569 5.65773 -2.933308
v -0.09679699 3.806098 -2.806478
v -0.09679699 3.806098 -2.806478
v 0.7788458 1.943347 -2.551092
v 0.9852514 3.828828 -2.436982
v 1.602456 6.012543 -1.667293
v 1.921086 3.803201 -0.8966322
v 1.084419 5.66496 -2.941409
v -0.2105436 7.634578 -3.464592
v 1.294117 7.675702 -2.547159
v 1.272861 7.508719 -0.6820688
v 1.648476 7.171652 0.9306951
v -2.37594 3.012727 -1.851251
v -2.700512 1.088025 -1.749799
v -2.522179 2.635783 -3.706364
v -2.347063 2.256927 -4.538723
v -2.02552 -0.7851376 -2.78793
v -1.243212 -0.7959746 -3.76069
v -2.550611 -0.7935925 -1.212822
v -1.594711 1.055416 -4.617253
v -0.5127859 1.969708 -4.75494
v 0.6837034 -0.7535412 -3.245449
v 0.5173931 1.409735 -4.072235
v 1.109472 1.353776 -3.024926
v 0.222826 3.086529 -4.087111
v -0.09679699 3.806098 -2.806478
v -1.873035 2.583151 -4.519815
v -0.09679699 3.806098 -2.806478
v -2.522179 2.635783 -3.706364
v -1.541235 2.130747 -4.633711
v -1.191064 3.620928 -2.697503
v -2.37594 3.012727 -1.851251
v 0.7788458 1.943347 -2.551092
v -1.873035 2.583151 -4.519815
v 1.648476 7.171652 0.9306951
v 1.272861 7.508719 -0.6820688
v 0.6615572 8.327022 -0.8944287
v 1.294117 7.675702 -2.547159
v -0.2105436 7.634578 -3.464592
v -1.225349 8.09833 -2.135025

vn 0.7002271 0.2083494 -0.6828415
vn 0.9647872 0.2369885 -0.1141139
vn 0.9292011 0.3266701 0.1728351
vn 0.6232392 0.2084167 -0.7537475
vn 0.9123213 -0.2055834 -0.3541259
vn 0.8853637 0.0570206 0.461389
vn 0.5331469 -0.1938792 -0.8235078
vn 0.7276299 0.2715951 0.6299133
vn 0.2014954 0.5180077 0.8313047
vn 0.6930915 -0.6892244 0.2111726
vn 0.4717699 -0.2811692 0.8356895
vn 0.3414225 -0.002940032 0.9399053
vn 0.1492823 0.1910429 0.9701636
vn -0.1136752 0.05740277 0.9918582
vn -0.4052383 0.538218 0.7389881
vn -0.6529299 -0.206974 0.7285906
vn -0.5998894 -0.5313354 0.5981768
vn -0.05039858 -0.3824315 0.9226083
vn 0.8676413 0.292697 -0.4019042
vn -0.06134154 0.4206752 0.9051352
vn -0.6166021 -0.6253631 0.4782498
vn 0.7017785 -0.2133567 0.6796953
vn -0.1113778 0.2356937 0.9654239
vn 0.7542794 0.3608481 0.5484992
vn 0.091016 0.367559 0.9255357
vn -0.5691884 0.2356154 0.7877245
vn -0.3994206 0.4988457 0.7691659
vn 0.9889584 0.07445916 0.1281296
vn -0.5529072 0.07375825 0.8299719
vn 0.9708506 0.2351262 0.0465259
vn 0.5268508 0.6693006 0.5238941
vn 0.9001662 0.4008967 -0.1702428
vn -0.2437392 0.6140414 0.7506959
vn -0.1519679 0.8159006 0.5578637
vn -0.525535 0.4862623 0.6981131
vn -0.5016122 0.3890271 0.7726856
vn -0.3994206 0.4988457 0.7691659
vn -0.4865556 0.7938252 0.3648357
vn -0.666702 0.6218505 0.4108653
vn -0.6359089 0.4332559 -0.6386777
vn -0.9421909 0.167775 -0.2900479
vn -0.5979303 0.7836762 -0.1683179
vn -0.1335811 0.3685521 -0.9199595
vn -0.8173717 0.06416636 0.5725262
vn -0.4854264 0.3954478 0.7797322
vn -0.9537634 0.2939075 -0.06288008
vn -0.8005677 0.5423119 0.2549299
vn -0.8297757 0.1192013 -0.5452186
vn -0.3612422 0.309671 0.8795498
vn -0.8643486 -0.1518759 0.4794113
vn -0.9291409 -0.2466284 -0.2754479
vn -0.8532841 0.216099 -0.4745602
vn -0.9119119 -0.08074944 -0.4023632
vn -0.7289767 -0.5838251 0.357409
vn -0.8221388 -0.3971778 -0.407845
vn -0.6529299 -0.206974 0.7285906
vn -0.6166021 -0.6253631 0.4782498
vn -0.3044427 0.3165133 -0.8984063
vn -0.3679636 0.08546878 -0.9259039
vn -0.6775923 0.1066481 -0.727664
vn -0.2339951 0.02069599 -0.9720175
vn 0.2358798 0.4027912 -0.8843754
vn 0.2358798 0.4027912 -0.8843754
vn 0.5743196 0.3407559 -0.7443402
vn 0.5338727 -0.04880117 -0.8441554
vn 0.9192918 0.1039466 -0.3796019
vn 0.9389459 0.2322318 -0.2538677
vn 0.6316953 -0.1080757 -0.7676462
vn -0.1335811 0.3685521 -0.9199595
vn 0.8234208 0.4465194 -0.3501409
vn 0.7184846 0.6794958 0.1485443
vn 0.5268508 0.6693006 0.5238941
vn -0.8297757 0.1192013 -0.5452186
vn -0.9119119 -0.08074944 -0.4023632
vn -0.6855253 0.6617013 -0.303655
vn -0.7159908 -0.03627771 -0.6971664
vn -0.8871386 -0.2699458 -0.3743185
vn -0.2787541 -0.451951 -0.8473703
vn -0.8221388 -0.3971778 -0.407845
vn -0.231367 -0.2959768 -0.9267508
vn 0.2467913 -0.09698949 -0.9642029
vn 0.5331469 -0.1938792 -0.8235078
vn 0.7166659 -0.04666831 -0.6958535
vn 0.8676413 0.292697 -0.4019042
vn 0.5625101 0.4869877 -0.6681508
vn 0.2358798 0.4027912 -0.8843754
vn -0.1340981 0.7799487 -0.6113083
vn 0.2358798 0.4027912 -0.8843754
vn -0.6855253 0.6617013 -0.303655
vn -0.05565123 0.2076781 -0.9766129
vn -0.3044427 0.3165133 -0.8984063
vn -0.8297757 0.1192013 -0.5452186
vn 0.5743196 0.3407559 -0.7443402
vn -0.3242795 0.5171132 -0.7921091
vn 0.5268508 0.6693006 0.5238941
vn 0.7184846 0.6794958 0.1485443
vn 0.1216643 0.947273 0.2964315
vn 0.8234208 0.4465194 -0.3501409
vn -0.1335811 0.3685521 -0.9199595
vn -0.5979303 0.7836762 -0.1683179

vt 0.7294922 0.5
vt 0.6538086 0.5253906
vt 0.6801758 0.5449219
vt 0.6806641 0.4577637
vt 0.6166992 0.4812012
vt 0.612793 0.5576172
vt 0.6503906 0.4152832
vt 0.6474609 0.5844727
vt 0.6264648 0.6313477
vt 0.59375 0.5180664
vt 0.5717773 0.5839844
vt 0.6025391 0.5854492
vt 0.6010742 0.6269531
vt 0.5932617 0.6489258
vt 0.628418 0.6767578
vt 0.5839844 0.7021484
vt 0.5546875 0.6645508
vt 0.5620117 0.6235352
vt 0.6953125 0.4504395
vt 0.6499023 0.6445313
vt 0.550293 0.6879883
vt 0.6787109 0.5854492
vt 0.7050781 0.6357422
vt 0.7285156 0.6020508
vt 0.7338867 0.6376953
vt 0.6787109 0.6694336
vt 0.6367188 0.6904297
vt 0.6943359 0.5605469
vt 0.7329102 0.6738281
vt 0.7470703 0.5874023
vt 0.7895508 0.6274414
vt 0.7895508 0.5922852
vt 0.7641602 0.6660156
vt 0.800293 0.6928711
vt 0.7651367 0.7070313
vt 0.6899414 0.6977539
vt 0.6376953 0.6977539
vt 0.8022461 0.7294922
vt 0.7709961 0.7333984
vt 0.7768555 0.7753906
vt 0.7451172 0.7558594
vt 0.8193359 0.7539063
vt 0.8330078 0.8012695
vt 0.7216797 0.7446289
vt 0.6860352 0.722168
vt 0.6875 0.7602539
vt 0.6699219 0.7460938
vt 0.6879883 0.7998047
vt 0.6430664 0.7236328
vt 0.6123047 0.7475586
vt 0.5986328 0.7905273
vt 0.6713867 0.7807617
vt 0.6357422 0.8100586
vt 0.5712891 0.7685547
vt 0.581543 0.809082
vt 0.5878906 0.7241211
vt 0.5522461 0.7294922
vt 0.722168 0.8291016
vt 0.7612305 0.8071289
vt 0.7397461 0.7773438
vt 0.7763672 0.8134766
vt 0.7407227 0.8525391
vt 0.7675781 0.4672852
vt 0.7143555 0.4604492
vt 0.753418 0.4934082
vt 0.7905273 0.5488281
vt 0.7280273 0.5395508
vt 0.800293 0.5131836
vt 0.8623047 0.5043945
vt 0.8417969 0.5463867
vt 0.8164063 0.5898438
vt 0.7895508 0.6274414
vt 0.5644531 0.8051758
vt 0.5136719 0.7900391
vt 0.5419922 0.8520508
vt 0.5268555 0.8720703
vt 0.4550781 0.8071289
vt 0.4406738 0.8378906
vt 0.4677734 0.7636719
vt 0.4875488 0.8686523
vt 0.4873047 0.9042969
vt 0.4040527 0.8808594
vt 0.4553223 0.9155273
vt 0.4316406 0.9365234
vt 0.4943848 0.9418945
vt 0.4916992 0.9824219
vt 0.5234375 0.8876953
vt 0.5297852 0.9614258
vt 0.5493164 0.8857422
vt 0.5087891 0.8862305
vt 0.550293 0.9389648
vt 0.5883789 0.9199219
vt 0.4404297 0.9575195
vt 0.5234375 0.8876953
vt 0.7895508 0.6274414
vt 0.8232422 0.659668
vt 0.8251953 0.6850586
vt 0.8706055 0.6845703
vt 0.8740234 0.730957
vt 0.8291016 0.7397461

g Rock7_1206_407
usemtl Rock7_1206_407
usemap Rock7_1206_407
f 1/1/1 3/3/3 2/2/2
f 4/4/4 1/1/1 2/2/2
f 4/4/4 2/2/2 5/5/5
f 2/2/2 6/6/6 5/5/5
f 4/4/4 5/5/5 7/7/7
f 8/8/8 6/6/6 2/2/2
f 8/8/8 2/2/2 3/3/3
f 8/8/8 9/9/9 6/6/6
f 6/6/6 10/10/10 5/5/5
f 11/11/11 10/10/10 6/6/6
f 6/6/6 12/12/12 11/11/11
f 12/12/12 6/6/6 9/9/9
f 13/13/13 11/11/11 12/12/12
f 9/9/9 13/13/13 12/12/12
f 14/14/14 11/11/11 13/13/13
f 15/15/15 14/14/14 13/13/13
f 15/15/15 13/13/13 9/9/9
f 14/14/14 15/15/15 16/16/16
f 14/14/14 16/16/16 17/17/17
f 14/14/14 17/17/17 18/18/18
f 14/14/14 18/18/18 11/11/11
f 19/19/19 4/4/4 7/7/7
f 9/9/9 8/8/8 20/20/20
f 15/15/15 9/9/9 20/20/20
f 16/16/16 21/21/21 17/17/17
f 20/20/20 8/8/8 22/22/22
f 23/23/23 20/20/20 22/22/22
f 24/24/24 23/23/23 22/22/22
f 25/25/25 23/23/23 24/24/24
f 23/23/23 25/25/25 26/26/26
f 26/26/26 20/20/20 23/23/23
f 20/20/20 26/26/26 27/27/27
f 16/16/16 15/15/15 27/27/27
f 15/15/15 20/20/20 27/27/27
f 24/24/24 22/22/22 28/28/28
f 25/25/25 29/29/29 26/26/26
f 30/30/30 24/24/24 28/28/28
f 30/30/30 25/25/25 24/24/24
f 31/31/31 25/25/25 30/30/30
f 32/32/32 31/31/31 30/30/30
f 25/25/25 31/31/31 33/33/33
f 33/33/33 29/29/29 25/25/25
f 31/31/31 34/34/34 33/33/33
f 34/34/34 35/35/35 33/33/33
f 29/29/29 33/33/33 35/35/35
f 35/35/35 36/36/36 29/29/29
f 29/29/29 36/36/36 26/26/26
f 26/26/26 36/36/36 37/37/37
f 35/35/35 34/34/34 38/38/38
f 39/39/39 35/35/35 38/38/38
f 38/38/38 40/40/40 39/39/39
f 39/39/39 40/40/40 41/41/41
f 38/38/38 42/42/42 40/40/40
f 42/42/42 43/43/43 40/40/40
f 44/44/44 39/39/39 41/41/41
f 45/45/45 39/39/39 44/44/44
f 35/35/35 39/39/39 45/45/45
f 36/36/36 35/35/35 45/45/45
f 45/45/45 44/44/44 46/46/46
f 41/41/41 46/46/46 44/44/44
f 46/46/46 47/47/47 45/45/45
f 36/36/36 45/45/45 47/47/47
f 41/41/41 48/48/48 46/46/46
f 49/49/49 36/36/36 47/47/47
f 37/37/37 36/36/36 49/49/49
f 49/49/49 47/47/47 50/50/50
f 50/50/50 47/47/47 51/51/51
f 51/51/51 47/47/47 52/52/52
f 52/52/52 46/46/46 48/48/48
f 46/46/46 52/52/52 47/47/47
f 53/53/53 52/52/52 48/48/48
f 51/51/51 52/52/52 53/53/53
f 54/54/54 50/50/50 51/51/51
f 54/54/54 51/51/51 55/55/55
f 51/51/51 53/53/53 55/55/55
f 49/49/49 50/50/50 56/56/56
f 56/56/56 50/50/50 54/54/54
f 57/57/57 56/56/56 54/54/54
f 37/37/37 49/49/49 56/56/56
f 58/58/58 48/48/48 59/59/59
f 59/59/59 48/48/48 60/60/60
f 60/60/60 40/40/40 59/59/59
f 59/59/59 40/40/40 61/61/61
f 59/59/59 61/61/61 58/58/58
f 40/40/40 43/43/43 61/61/61
f 62/62/62 61/61/61 43/43/43
f 58/58/58 61/61/61 62/62/62
f 60/60/60 41/41/41 40/40/40
f 48/48/48 41/41/41 60/60/60
f 63/63/63 65/65/65 64/64/64
f 65/65/65 1/1/1 64/64/64
f 65/65/65 66/66/66 1/1/1
f 1/1/1 66/66/66 67/67/67
f 67/67/67 66/66/66 30/30/30
f 65/65/65 68/68/68 66/66/66
f 63/63/63 68/68/68 65/65/65
f 69/69/69 68/68/68 63/63/63
f 70/70/70 68/68/68 69/69/69
f 68/68/68 70/70/70 66/66/66
f 64/64/64 1/1/1 4/4/4
f 71/71/71 66/66/66 70/70/70
f 66/66/66 32/32/32 30/30/30
f 66/66/66 71/71/71 32/32/32
f 72/72/72 32/32/32 71/71/71
f 1/1/1 67/67/67 3/3/3
f 64/64/64 4/4/4 19/19/19
f 67/67/67 30/30/30 28/28/28
f 28/28/28 3/3/3 67/67/67
f 3/3/3 28/28/28 8/8/8
f 8/8/8 28/28/28 22/22/22
f 73/73/73 75/75/75 74/74/74
f 76/76/76 74/74/74 75/75/75
f 77/77/77 74/74/74 76/76/76
f 78/78/78 77/77/77 76/76/76
f 79/79/79 74/74/74 77/77/77
f 76/76/76 80/80/80 78/78/78
f 80/80/80 81/81/81 78/78/78
f 78/78/78 81/81/81 82/82/82
f 83/83/83 82/82/82 81/81/81
f 82/82/82 83/83/83 84/84/84
f 83/83/83 85/85/85 84/84/84
f 81/81/81 85/85/85 83/83/83
f 86/86/86 84/84/84 85/85/85
f 81/81/81 87/87/87 85/85/85
f 85/85/85 87/87/87 88/88/88
f 87/87/87 89/89/89 88/88/88
f 81/81/81 90/90/90 87/87/87
f 80/80/80 90/90/90 81/81/81
f 80/80/80 76/76/76 90/90/90
f 88/88/88 89/89/89 91/91/91
f 91/91/91 89/89/89 92/92/92
f 86/86/86 93/93/93 84/84/84
f 90/90/90 76/76/76 94/94/94
f 89/89/89 94/94/94 76/76/76
f 95/95/95 96/96/96 34/34/34
f 97/97/97 34/34/34 96/96/96
f 97/97/97 96/96/96 98/98/98
f 97/97/97 98/98/98 99/99/99
f 99/99/99 100/100/100 97/97/97
f 100/100/100 38/38/38 97/97/97
f 34/34/34 97/97/97 38/38/38
