#Rock2_(54)_3250_62.obj

v -0.735984 0.4742039 0.2734847
v -0.5053669 0.3732159 0.7521425
v -0.3676209 -0.2882261 0.9063872
v 0.7339603 0.2424024 0.8093822
v -0.63921 -0.2910336 0.3205471
v -0.5745194 0.5379269 -0.04279942
v -0.107189 0.6098934 0.6490886
v 0.00927019 0.5916797 -0.4162355
v 0.5381351 0.4570722 0.5656456
v 0.9849046 0.1699551 0.001561583
v 0.4613175 0.3225654 -0.818781
v 0.6365933 -0.2748007 -0.820915
v 0.245775 0.05788682 -0.9634371
v 0.05629645 -0.2923854 -0.6806322
v 0.2033618 0.2120292 -0.9370726
v 0.9785421 -0.2873327 -0.3005427
v 0.9550009 -0.2907404 0.06881751
v -0.9354126 0.4245032 -0.5241024
v -0.4289709 0.4705163 -0.9914702
v -0.4058554 -0.2881967 -1.032227
v -0.8306702 0.1308518 0.01067659
v -0.979363 0.1497431 -0.4790522
v -0.8987297 -0.2932283 -0.4473315
v -0.63921 -0.2910336 0.3205471
v -0.5745194 0.5379269 -0.04279942
v 0.2033618 0.2120292 -0.9370726
v 0.2033618 0.2120292 -0.9370726
v 0.05629645 -0.2923854 -0.6806322
v -0.5745194 0.5379269 -0.04279942
v 1.044619 -0.2869185 0.203494
v 0.7247572 -0.2880643 0.9013109
v 0.9550009 -0.2907404 0.06881751

vn -0.8241172 0.3811339 -0.4190082
vn -0.8002051 0.3136332 0.5111809
vn -0.7652949 0.1399239 0.6282874
vn -0.0449461 0.3684295 0.9285685
vn -0.9822323 -0.08618005 -0.1667114
vn -0.3268135 0.9268299 -0.1848765
vn -0.1815051 0.9176086 0.3536246
vn 0.2343963 0.9719284 -0.02033614
vn 0.2947157 0.917356 0.2675828
vn 0.6840311 0.6681997 0.2925931
vn 0.7268818 0.6839414 -0.06218615
vn 0.9694239 0.1229165 -0.2123884
vn 0.4860212 -0.2060571 -0.849308
vn 0.6597177 -0.5481952 -0.5140569
vn 0.6871853 0.3768246 -0.6211116
vn 0.9584646 0.2610358 0.1149169
vn 0.9165685 -0.08193172 0.3913944
vn -0.3929957 0.6719233 -0.6277528
vn 0.1809075 0.6052271 -0.7752243
vn 0.3161129 -0.1265167 -0.9402479
vn -0.9860942 0.1646549 0.0225147
vn -0.6311132 -0.05915041 -0.7734323
vn -0.6855016 -0.2055852 -0.6984428
vn -0.9822323 -0.08618005 -0.1667114
vn -0.3268135 0.9268299 -0.1848765
vn 0.6871853 0.3768246 -0.6211116
vn 0.6871853 0.3768246 -0.6211116
vn 0.6597177 -0.5481952 -0.5140569
vn -0.3268135 0.9268299 -0.1848765
vn 0.6865016 0.1552688 0.7103572
vn -0.1284964 0.1488887 0.9804697
vn 0.9165685 -0.08193172 0.3913944

vt 0.6423263 0.9282266
vt 0.6300176 0.909534
vt 0.6015748 0.9002308
vt 0.6444768 0.8628007
vt 0.6078495 0.9352116
vt 0.6572942 0.936246
vt 0.644129 0.8995352
vt 0.6853108 0.9129032
vt 0.6542136 0.8751403
vt 0.6845469 0.8553007
vt 0.7124879 0.8984747
vt 0.7342402 0.877182
vt 0.7270296 0.9056215
vt 0.7526836 0.9048882
vt 0.7210952 0.9124857
vt 0.7133514 0.8500736
vt 0.699796 0.8358402
vt 0.6804079 0.9512479
vt 0.701471 0.9360154
vt 0.7259656 0.9576307
vt 0.660688 0.9631493
vt 0.6829373 0.9619317
vt 0.6897333 0.9815007
vt 0.6421401 0.9858761
vt 0.6572942 0.936246
vt 0.7210952 0.9124857
vt 0.7210952 0.9124857
vt 0.7465864 0.9330923
vt 0.6572942 0.936246
vt 0.6684015 0.8318685
vt 0.6264908 0.8474367
vt 0.6764885 0.8304977

g Rock2_(54)_3250_62
usemtl Rock2_(54)_3250_62
usemap Rock2_(54)_3250_62
f 1/1/1 3/3/3 2/2/2
f 3/3/3 4/4/4 2/2/2
f 5/5/5 3/3/3 1/1/1
f 5/5/5 1/1/1 6/6/6
f 2/2/2 7/7/7 1/1/1
f 7/7/7 2/2/2 4/4/4
f 8/8/8 6/6/6 7/7/7
f 8/8/8 7/7/7 9/9/9
f 7/7/7 4/4/4 9/9/9
f 4/4/4 10/10/10 9/9/9
f 9/9/9 10/10/10 8/8/8
f 8/8/8 10/10/10 11/11/11
f 10/10/10 12/12/12 11/11/11
f 13/13/13 11/11/11 12/12/12
f 14/14/14 13/13/13 12/12/12
f 8/8/8 11/11/11 15/15/15
f 10/10/10 16/16/16 12/12/12
f 17/17/17 16/16/16 10/10/10
f 6/6/6 8/8/8 18/18/18
f 19/19/19 18/18/18 8/8/8
f 15/15/15 19/19/19 8/8/8
f 19/19/19 20/20/20 18/18/18
f 18/18/18 21/21/21 6/6/6
f 18/18/18 22/22/22 21/21/21
f 22/22/22 18/18/18 20/20/20
f 23/23/23 22/22/22 20/20/20
f 23/23/23 21/21/21 22/22/22
f 24/24/24 21/21/21 23/23/23
f 25/25/25 21/21/21 24/24/24
f 19/19/19 26/26/26 20/20/20
f 26/26/26 11/11/11 13/13/13
f 14/14/14 27/27/27 13/13/13
f 27/27/27 28/28/28 20/20/20
f 1/1/1 7/7/7 29/29/29
f 10/10/10 4/4/4 30/30/30
f 4/4/4 31/31/31 30/30/30
f 3/3/3 31/31/31 4/4/4
f 32/32/32 10/10/10 30/30/30
