#Rock1_3138_212.obj

v 1.359647 0.01363938 -1.331415
v 1.319726 0.0135592 -0.6880805
v 1.242806 0.3054046 -0.9745804
v 0.7728506 0.0130343 -0.6084469
v 0.8926865 0.3021292 -1.035026
v 0.6144446 0.01404162 -0.8384128
v 0.7336709 0.01400771 -1.254676
v 0.9861478 0.01364693 -1.401166
v -1.38959 0.0130544 -0.1851259
v -0.8538237 0.3122752 -0.05576405
v -1.340662 0.01365911 0.3263147
v -1.002398 0.01367842 -0.4037315
v -0.7605367 0.01336455 0.3632292
v -0.572971 0.01361182 -0.263746
v 1.001594 0.2855606 0.9899424
v 0.8172981 0.01372173 1.366728
v 0.6242119 0.01373066 1.022429
v 0.7891996 0.01374345 0.7045479
v 1.267396 0.01349095 0.6808935
v 1.391288 0.0137456 1.085278
v 1.18896 0.01373536 1.302294

vn -0.6664571 0.6754879 -0.3155174
vn -0.02305579 0.6185585 -0.7854005
vn -0.1750951 0.9472646 -0.2683869
vn 0.557626 0.8072798 -0.1932683
vn 0.1429354 0.9017841 0.4078663
vn 0.4811218 0.7196128 0.5006788
vn 0.007233799 0.6684923 0.7436839
vn -0.4675964 0.7751098 0.4249216
vn 0.04974826 0.8683699 0.4934157
vn -0.1042712 0.9942888 0.02274329
vn 0.4416109 0.896966 0.02078179
vn -0.4823095 0.767167 0.422886
vn 0.1114484 0.7799987 -0.6157771
vn -0.5791744 0.7526576 -0.3131513
vn 0.03082932 0.9992471 -0.02355425
vn 0.5316983 0.8391455 -0.1145938
vn 0.3568778 0.8115103 0.462698
vn -0.2144692 0.7936142 0.5693678
vn -0.5569546 0.8294712 0.04218145
vn -0.2336532 0.8278425 -0.5099834
vn 0.2467549 0.8011036 -0.5452936

vt 0.232352 0.7225032
vt 0.2140789 0.7594889
vt 0.2315052 0.7471936
vt 0.2440251 0.7788215
vt 0.2481601 0.7518374
vt 0.25929 0.7707678
vt 0.2656842 0.7432095
vt 0.2554635 0.7281532
vt 0.2299451 0.7854984
vt 0.2046784 0.8044612
vt 0.2372313 0.8160826
vt 0.2031385 0.7796935
vt 0.2051533 0.8319056
vt 0.1814293 0.7981536
vt 0.2774515 0.8074797
vt 0.2498153 0.8143666
vt 0.2700397 0.8334671
vt 0.2944277 0.8271991
vt 0.3019956 0.793874
vt 0.2759953 0.7793822
vt 0.257976 0.7891733

g Rock1_3138_212
usemtl Rock1_3138_212
usemap Rock1_3138_212
f 1/1/1 3/3/3 2/2/2
f 4/4/4 2/2/2 3/3/3
f 3/3/3 5/5/5 4/4/4
f 6/6/6 4/4/4 5/5/5
f 5/5/5 7/7/7 6/6/6
f 5/5/5 3/3/3 8/8/8
f 8/8/8 3/3/3 1/1/1
f 5/5/5 8/8/8 7/7/7
f 9/9/9 11/11/11 10/10/10
f 10/10/10 12/12/12 9/9/9
f 13/13/13 10/10/10 11/11/11
f 10/10/10 13/13/13 14/14/14
f 12/12/12 10/10/10 14/14/14
f 15/15/15 17/17/17 16/16/16
f 15/15/15 18/18/18 17/17/17
f 19/19/19 18/18/18 15/15/15
f 20/20/20 19/19/19 15/15/15
f 15/15/15 21/21/21 20/20/20
f 15/15/15 16/16/16 21/21/21
