#Rock6_(2)_1553_421.obj

v -1.236715 3.209405 0.3464063
v -1.474789 2.872101 -1.102166
v -1.562954 4.526831 -1.224276
v -1.281775 4.841282 0.02394394
v -1.151257 4.899974 -1.929435
v -1.016893 2.822655 -1.835113
v -1.020241 1.809068 -2.316539
v -0.5481994 3.117438 -2.707601
v 0.6218474 1.730926 -2.873072
v 0.2721203 4.178768 -2.267881
v -1.151257 4.899974 -1.929435
v 0.6092284 3.360725 -3.12541
v -0.01488192 5.13487 -1.873339
v 0.8313032 5.230927 -1.022464
v 1.039688 3.768537 -1.387336
v 1.36036 3.983282 -0.3570552
v 1.97557 3.733561 -0.9577493
v 2.106189 2.792788 -1.454772
v 0.9009921 3.958027 -2.628182
v 1.931776 2.928857 -2.678801
v 2.514096 1.132488 -1.114856
v 1.703069 1.427734 -2.834968
v 3.028778 0.3228217 -1.658863
v 2.479299 0.1984252 -2.867007
v 2.18064 -0.5407414 -1.783579
v 2.733011 1.788073 -0.660217
v 1.701104 3.698973 0.3687842
v 1.886443 2.360494 1.176384
v 0.996502 3.311402 0.9016145
v 0.2387274 1.849801 0.9230315
v 0.3801666 1.895067 1.918864
v -0.4070325 1.425858 1.621718
v 2.320269 1.594342 0.807116
v 1.376622 2.152632 1.792226
v 2.123568 1.388564 2.654404
v 3.073162 0.7066534 2.030955
v 3.05627 1.85684 0.1955322
v 2.733011 1.788073 -0.660217
v 1.853983 0.726258 3.383934
v 4.04913 -0.4276555 1.033546
v 0.885152 -0.5281102 3.081409
v -0.2444093 0.627618 2.617982
v -0.01758762 3.073839 0.6209674
v 0.96175 3.805691 0.3615092
v -0.6993084 4.407137 0.5812399
v 3.51659 1.319851 -1.033938
v 4.563238 0.2715785 -0.5201268
v 3.028778 0.3228217 -1.658863
v 2.18064 -0.5407414 -1.783579
v 4.122961 -0.5214713 -0.2905167
v 4.018274 0.6980371 0.9017934
v 2.514096 1.132488 -1.114856
v 0.370042 4.678805 0.3088633
v 0.1843582 -0.5258934 2.745476
v -0.340516 -0.5715036 2.032531
v 0.3592257 0.3622345 -3.266108
v -0.5635187 1.316723 -2.314862
v 1.66106 -0.02172415 -3.327482
v 0.82811 -0.5455053 -3.003249
v -0.7060174 -0.4598513 -2.542685
v -1.741648 2.206295 -0.8956685
v -2.528664 1.464055 -0.6106946
v -1.713919 0.6600761 -3.07507
v -1.068736 -0.5076558 -2.76305
v -2.385829 -0.5129777 -3.040936
v -3.120957 0.2592432 -2.69319
v -4.480313 0.6077139 -0.8795184
v -4.133267 -0.5229296 -1.524206
v -2.605877 1.973176 0.2666703
v -1.459229 2.196388 0.4325117
v -2.853495 1.084525 0.6950037
v -1.32915 2.105422 1.679051
v -3.949997 1.043734 -0.1139413
v -3.451681 -0.463022 0.4123388
v -2.452758 1.584432 1.504685
v -2.939087 0.4809864 1.723798
v -2.473327 -0.5236428 0.7772785
v -2.447234 -0.4485819 1.535059
v -1.735515 -0.4811367 2.399979
v -2.080571 1.310773 2.344724
v -0.8963711 0.8641605 2.904367
v -0.2444093 0.627618 2.617982
v -0.340516 -0.5715036 2.032531
v -0.4070325 1.425858 1.621718
v -0.8118839 2.160965 1.098282
v 0.2387274 1.849801 0.9230315
v -4.303098 -0.4561064 -0.5345918
v -0.2849402 2.534728 1.128038
v -0.01758762 3.073839 0.6209674
v -0.6993084 4.407137 0.5812399
v -0.5402175 5.228827 -0.2612756
v 0.370042 4.678805 0.3088633
v 0.8313032 5.230927 -1.022464
v -0.01488192 5.13487 -1.873339
v -1.151257 4.899974 -1.929435

vn -0.9420279 0.2592962 0.2129526
vn -0.7049142 0.1119816 -0.7003971
vn -0.8667572 0.171937 -0.4681555
vn -0.7989725 0.598763 0.05590901
vn -0.314899 0.5139984 -0.7978998
vn -0.46198 0.2125862 -0.8610351
vn -0.3929334 -0.09348766 -0.9148023
vn -0.2374138 0.2627598 -0.9351962
vn 0.245362 0.02278011 -0.9691639
vn 0.3587908 0.6402245 -0.6792508
vn -0.314899 0.5139984 -0.7978998
vn 0.3935785 0.2773335 -0.87646
vn 0.3215898 0.8400252 -0.436964
vn 0.6853283 0.7107748 0.1585063
vn 0.7248641 0.687723 -0.04011396
vn 0.4692387 0.7857049 0.4030917
vn 0.7055289 0.706033 0.06120799
vn 0.8829049 0.465468 0.06179458
vn 0.5647414 0.820181 -0.09148955
vn 0.9373183 0.3134167 -0.1523296
vn 0.8801839 0.4014389 -0.2532251
vn 0.8345849 0.2542386 -0.4887031
vn 0.9316624 0.1694264 -0.3214031
vn 0.9468599 -0.2158346 -0.2384781
vn 0.7090766 -0.6642826 -0.2365141
vn 0.7495572 0.6418281 0.1619285
vn 0.2850919 0.7137004 0.6398081
vn 0.1095748 0.6574432 0.7454944
vn -0.4561484 0.481303 0.7485158
vn -0.3988088 0.5514535 0.7327009
vn -0.5001969 0.8430533 0.1976463
vn -0.175102 0.8325457 0.5255539
vn 0.3336961 0.7563229 0.5626922
vn -0.01673549 0.7975242 0.6030549
vn 0.2894565 0.7296562 0.6195295
vn 0.3401538 0.5235543 0.7811441
vn 0.3131304 0.8933702 0.3222406
vn 0.7495572 0.6418281 0.1619285
vn -0.2070733 0.3601178 0.909635
vn 0.5195599 -0.1718875 0.836966
vn -0.5232884 -0.2119215 0.8253839
vn -0.5490319 0.209909 0.8090131
vn -0.4208337 0.3590254 0.8330664
vn -0.1696097 0.6043571 0.7784505
vn -0.5058067 0.3320666 0.7961729
vn 0.6171172 0.6760453 -0.4026525
vn 0.9930885 0.04877751 0.1067523
vn 0.9316624 0.1694264 -0.3214031
vn 0.7090766 -0.6642826 -0.2365141
vn 0.8475295 -0.5295672 0.03538981
vn 0.554261 0.4197555 0.7187489
vn 0.8801839 0.4014389 -0.2532251
vn 0.07089424 0.6182205 0.782801
vn -0.8939737 -0.1471811 0.4232596
vn -0.6739717 -0.3909336 0.6268437
vn 0.1079307 0.0003232931 -0.9941584
vn 0.09502262 0.150817 -0.9839842
vn 0.6368476 -0.2291787 -0.7361401
vn 0.3302207 -0.5822027 -0.7429632
vn 0.2803227 -0.07199582 -0.9572021
vn -0.6886216 0.3709733 -0.6230402
vn -0.2046712 0.7743115 -0.5987915
vn 0.3437544 0.4539614 -0.8220413
vn 0.7709713 -0.004566381 -0.6368536
vn 0.1769442 -0.09996416 -0.9791312
vn -0.1937369 0.3971216 -0.8970844
vn -0.6792967 0.447575 -0.5815777
vn -0.5318928 -0.1326384 -0.8363595
vn -0.5451636 0.8361113 -0.06094712
vn -0.6610683 0.7392719 0.1283187
vn -0.9265628 0.3720253 0.05548424
vn -0.1551144 0.9250806 0.346649
vn -0.8664774 0.4953055 0.06236461
vn -0.8712833 0.01214054 0.4906303
vn -0.7035215 0.7026104 -0.1067518
vn -0.9997066 -0.0219943 -0.0101389
vn -0.9685174 -0.1565553 0.1935572
vn -0.8691807 -0.3964908 -0.2954994
vn -0.6399632 -0.3375011 0.6903189
vn -0.7884628 0.3979436 0.4690069
vn -0.3646712 0.2753493 0.889493
vn -0.5490319 0.209909 0.8090131
vn -0.6739717 -0.3909336 0.6268437
vn -0.175102 0.8325457 0.5255539
vn -0.3760309 0.590334 0.7142174
vn -0.3988088 0.5514535 0.7327009
vn -0.996722 -0.06575603 -0.04713216
vn -0.3144438 0.3614806 0.8777568
vn -0.4208337 0.3590254 0.8330664
vn -0.5058067 0.3320666 0.7961729
vn -0.2244983 0.9483293 0.2242145
vn 0.07089424 0.6182205 0.782801
vn 0.6853283 0.7107748 0.1585063
vn 0.3215898 0.8400252 -0.436964
vn -0.314899 0.5139984 -0.7978998

vt 0.8227539 0.1412354
vt 0.7880859 0.1687012
vt 0.824707 0.1916504
vt 0.8452148 0.1732178
vt 0.828125 0.2130127
vt 0.7788086 0.1915283
vt 0.746582 0.1936035
vt 0.7729492 0.217041
vt 0.7329102 0.2392578
vt 0.8007813 0.2414551
vt 0.828125 0.2130127
vt 0.7709961 0.243042
vt 0.8286133 0.2385254
vt 0.840332 0.2668457
vt 0.8022461 0.2770996
vt 0.8203125 0.3027344
vt 0.7973633 0.3010254
vt 0.7705078 0.3005371
vt 0.7866211 0.2524414
vt 0.7612305 0.2722168
vt 0.7294922 0.3244629
vt 0.7255859 0.2697754
vt 0.6962891 0.3203125
vt 0.6928711 0.286377
vt 0.6625977 0.3012695
vt 0.7529297 0.3354492
vt 0.8178711 0.3251953
vt 0.8071289 0.3666992
vt 0.8339844 0.3410645
vt 0.8544922 0.3771973
vt 0.8413086 0.3984375
vt 0.8652344 0.4042969
vt 0.7802734 0.3728027
vt 0.8178711 0.3864746
vt 0.8007813 0.4123535
vt 0.7719727 0.4169922
vt 0.7558594 0.3693848
vt 0.7446289 0.3486328
vt 0.8066406 0.4318848
vt 0.7324219 0.4309082
vt 0.8149414 0.4641113
vt 0.8520508 0.4377441
vt 0.8608398 0.3449707
vt 0.8369141 0.3210449
vt 0.8852539 0.3144531
vt 0.7250977 0.364502
vt 0.7163086 0.3962402
vt 0.6933594 0.3598633
vt 0.6635742 0.3623047
vt 0.7016602 0.4101563
vt 0.7436523 0.4060059
vt 0.7207031 0.340332
vt 0.8579102 0.3017578
vt 0.8354492 0.4667969
vt 0.8579102 0.4731445
vt 0.6962891 0.2338867
vt 0.7280273 0.197998
vt 0.6879883 0.2648926
vt 0.6689453 0.2470703
vt 0.6743164 0.2009277
vt 0.7724609 0.1514893
vt 0.7519531 0.1264648
vt 0.6967773 0.170166
vt 0.6704102 0.1912842
vt 0.6655273 0.1529541
vt 0.6889648 0.135498
vt 0.7124023 0.09069824
vt 0.6811523 0.09155273
vt 0.7714844 0.1082153
vt 0.8032227 0.1184692
vt 0.7661133 0.07983398
vt 0.8193359 0.08929443
vt 0.7348633 0.09020996
vt 0.7299805 0.04959106
vt 0.7919922 0.07562256
vt 0.78125 0.05291748
vt 0.753418 0.03512573
vt 0.7724609 0.02909851
vt 0.8037109 0.01849365
vt 0.8066406 0.06216431
vt 0.831543 0.0484314
vt 0.8491211 0.04446411
vt 0.8427734 0.007873535
vt 0.8447266 0.07965088
vt 0.8291016 0.104248
vt 0.8603516 0.09851074
vt 0.7001953 0.06793213
vt 0.84375 0.1119995
vt 0.8525391 0.1270752
vt 0.8554688 0.1567383
vt 0.859375 0.1854248
vt 0.8852539 0.1708984
vt 0.8862305 0.213501
vt 0.8554688 0.2264404
vt 0.828125 0.2130127

g Rock6_(2)_1553_421
usemtl Rock6_(2)_1553_421
usemap Rock6_(2)_1553_421
f 1/1/1 3/3/3 2/2/2
f 1/1/1 4/4/4 3/3/3
f 3/3/3 5/5/5 2/2/2
f 5/5/5 3/3/3 4/4/4
f 2/2/2 5/5/5 6/6/6
f 2/2/2 6/6/6 7/7/7
f 6/6/6 8/8/8 7/7/7
f 7/7/7 8/8/8 9/9/9
f 10/10/10 8/8/8 6/6/6
f 10/10/10 6/6/6 11/11/11
f 9/9/9 8/8/8 12/12/12
f 12/12/12 8/8/8 10/10/10
f 10/10/10 5/5/5 13/13/13
f 13/13/13 14/14/14 10/10/10
f 15/15/15 10/10/10 14/14/14
f 15/15/15 14/14/14 16/16/16
f 17/17/17 15/15/15 16/16/16
f 18/18/18 15/15/15 17/17/17
f 18/18/18 19/19/19 15/15/15
f 10/10/10 19/19/19 12/12/12
f 10/10/10 15/15/15 19/19/19
f 18/18/18 20/20/20 19/19/19
f 20/20/20 12/12/12 19/19/19
f 20/20/20 18/18/18 21/21/21
f 22/22/22 20/20/20 21/21/21
f 12/12/12 20/20/20 22/22/22
f 22/22/22 9/9/9 12/12/12
f 21/21/21 23/23/23 22/22/22
f 24/24/24 22/22/22 23/23/23
f 25/25/25 24/24/24 23/23/23
f 18/18/18 17/17/17 26/26/26
f 18/18/18 26/26/26 21/21/21
f 17/17/17 27/27/27 26/26/26
f 17/17/17 16/16/16 27/27/27
f 27/27/27 28/28/28 26/26/26
f 28/28/28 27/27/27 29/29/29
f 29/29/29 30/30/30 28/28/28
f 30/30/30 31/31/31 28/28/28
f 30/30/30 32/32/32 31/31/31
f 26/26/26 28/28/28 33/33/33
f 34/34/34 33/33/33 28/28/28
f 28/28/28 31/31/31 34/34/34
f 34/34/34 35/35/35 33/33/33
f 36/36/36 33/33/33 35/35/35
f 36/36/36 37/37/37 33/33/33
f 37/37/37 38/38/38 33/33/33
f 36/36/36 35/35/35 39/39/39
f 34/34/34 39/39/39 35/35/35
f 34/34/34 31/31/31 39/39/39
f 36/36/36 39/39/39 40/40/40
f 39/39/39 41/41/41 40/40/40
f 39/39/39 42/42/42 41/41/41
f 31/31/31 42/42/42 39/39/39
f 31/31/31 32/32/32 42/42/42
f 29/29/29 43/43/43 30/30/30
f 29/29/29 44/44/44 43/43/43
f 44/44/44 45/45/45 43/43/43
f 46/46/46 38/38/38 37/37/37
f 37/37/37 47/47/47 46/46/46
f 48/48/48 46/46/46 47/47/47
f 49/49/49 48/48/48 47/47/47
f 50/50/50 49/49/49 47/47/47
f 47/47/47 40/40/40 50/50/50
f 47/47/47 51/51/51 40/40/40
f 47/47/47 37/37/37 51/51/51
f 51/51/51 37/37/37 36/36/36
f 40/40/40 51/51/51 36/36/36
f 48/48/48 52/52/52 46/46/46
f 52/52/52 38/38/38 46/46/46
f 53/53/53 45/45/45 44/44/44
f 16/16/16 53/53/53 44/44/44
f 16/16/16 14/14/14 53/53/53
f 41/41/41 42/42/42 54/54/54
f 55/55/55 54/54/54 42/42/42
f 44/44/44 27/27/27 16/16/16
f 29/29/29 27/27/27 44/44/44
f 56/56/56 57/57/57 9/9/9
f 56/56/56 9/9/9 58/58/58
f 56/56/56 58/58/58 59/59/59
f 60/60/60 57/57/57 56/56/56
f 59/59/59 60/60/60 56/56/56
f 58/58/58 25/25/25 59/59/59
f 9/9/9 22/22/22 58/58/58
f 7/7/7 9/9/9 57/57/57
f 61/61/61 7/7/7 57/57/57
f 57/57/57 62/62/62 61/61/61
f 63/63/63 62/62/62 57/57/57
f 64/64/64 63/63/63 57/57/57
f 64/64/64 57/57/57 60/60/60
f 65/65/65 63/63/63 64/64/64
f 66/66/66 63/63/63 65/65/65
f 63/63/63 66/66/66 62/62/62
f 62/62/62 66/66/66 67/67/67
f 68/68/68 67/67/67 66/66/66
f 68/68/68 66/66/66 65/65/65
f 62/62/62 69/69/69 61/61/61
f 61/61/61 69/69/69 70/70/70
f 70/70/70 69/69/69 71/71/71
f 71/71/71 72/72/72 70/70/70
f 71/71/71 69/69/69 73/73/73
f 62/62/62 73/73/73 69/69/69
f 62/62/62 67/67/67 73/73/73
f 71/71/71 73/73/73 74/74/74
f 71/71/71 75/75/75 72/72/72
f 75/75/75 71/71/71 76/76/76
f 74/74/74 77/77/77 71/71/71
f 77/77/77 78/78/78 71/71/71
f 71/71/71 78/78/78 76/76/76
f 79/79/79 76/76/76 78/78/78
f 79/79/79 80/80/80 76/76/76
f 80/80/80 72/72/72 75/75/75
f 80/80/80 75/75/75 76/76/76
f 80/80/80 79/79/79 81/81/81
f 80/80/80 81/81/81 72/72/72
f 81/81/81 79/79/79 82/82/82
f 81/81/81 82/82/82 72/72/72
f 79/79/79 83/83/83 82/82/82
f 72/72/72 82/82/82 84/84/84
f 84/84/84 85/85/85 72/72/72
f 85/85/85 70/70/70 72/72/72
f 86/86/86 85/85/85 84/84/84
f 74/74/74 73/73/73 87/87/87
f 87/87/87 73/73/73 67/67/67
f 67/67/67 68/68/68 87/87/87
f 85/85/85 86/86/86 88/88/88
f 88/88/88 86/86/86 89/89/89
f 89/89/89 1/1/1 88/88/88
f 88/88/88 1/1/1 85/85/85
f 89/89/89 90/90/90 1/1/1
f 85/85/85 1/1/1 70/70/70
f 61/61/61 70/70/70 1/1/1
f 90/90/90 4/4/4 1/1/1
f 61/61/61 1/1/1 2/2/2
f 61/61/61 2/2/2 7/7/7
f 90/90/90 91/91/91 4/4/4
f 91/91/91 90/90/90 92/92/92
f 92/92/92 93/93/93 91/91/91
f 94/94/94 91/91/91 93/93/93
f 94/94/94 95/95/95 91/91/91
f 4/4/4 91/91/91 5/5/5
f 58/58/58 24/24/24 25/25/25
f 22/22/22 24/24/24 58/58/58
