#Rock4_1191_382.obj

v 2.806034 -0.1534191 1.482067
v 2.816244 -0.6812705 0.647209
v 2.179823 -0.6824969 2.27206
v 1.905262 1.124366 2.529354
v -0.2794578 -0.6814005 2.822545
v -0.3288655 0.8453609 2.878366
v 0.8647894 1.906564 1.319355
v -1.590117 0.9082176 1.738178
v -0.6235904 1.49105 0.9439024
v -0.4975861 1.790203 -0.1501301
v 0.8974469 1.988556 0.4241433
v -0.6689219 1.217003 -1.344926
v 2.243443 1.329204 0.6054307
v 2.287332 1.0351 1.771452
v 1.701681 1.703403 -1.321245
v 0.9749289 1.228819 -2.62495
v -0.629527 0.6841912 -2.452515
v 0.02422497 -0.6686768 -2.934451
v 1.829302 -0.6579061 -2.40706
v 3.256219 0.1926568 -0.8463793
v 2.863206 1.324946 -0.6486736
v 3.186819 0.130288 -0.05233328
v 2.744086 -0.6693901 0.03046907
v -0.7309297 -0.6840672 -2.315057
v -1.366666 1.936623 -0.1562612
v -1.860438 1.00685 -1.428865
v -1.177228 0.7236121 -1.870269
v -1.322145 -0.6717586 -1.751588
v -2.081702 -0.6806435 -1.885571
v -1.322145 -0.6717586 -1.751588
v -3.230696 -0.6815352 -0.8520948
v -2.350948 0.6991758 -0.2837674
v -2.617449 1.243698 0.2813631
v -1.250542 1.615895 1.356915
v -2.31716 0.4223207 1.063594
v -2.451803 -0.6820597 1.399894
v -1.590117 0.9082176 1.738178
v -1.080169 -0.6822007 1.263042
v -2.209348 1.1696 1.459097
v -0.8712624 -0.6822576 2.404604
v -1.080169 -0.6822007 1.263042
v 2.816244 -0.6812705 0.647209

vn 0.9474532 0.07445324 0.3111096
vn 0.9894347 -0.009804276 0.1446474
vn 0.669503 -0.20961 0.7126215
vn 0.5150436 0.3871966 0.7647281
vn -0.07209741 -0.06625583 0.9951945
vn -0.3425145 0.4014529 0.8494229
vn -0.02144554 0.9631443 0.268129
vn -0.4506342 0.2762029 0.8489056
vn 0.09129134 0.9076598 0.4096578
vn -0.02679477 0.9974744 -0.06577828
vn 0.2644058 0.9520851 -0.1536994
vn -0.08171052 0.9030116 -0.4217743
vn 0.6005376 0.7793174 0.1789385
vn 0.7439328 0.6586275 0.1130211
vn 0.1064078 0.9875159 -0.116146
vn 0.2481561 0.5731536 -0.7809696
vn -0.5167042 0.4293207 -0.7407432
vn -0.1964556 0.08512955 -0.9768102
vn 0.6330075 -0.1726226 -0.7546542
vn 0.9297722 -0.06898199 -0.3616146
vn 0.7570893 0.6394799 -0.1337213
vn 0.968883 -0.004437809 0.2474792
vn 0.8224846 -0.557462 -0.1129394
vn -0.6850991 -0.01182441 -0.728354
vn -0.2035344 0.9571607 -0.2059544
vn -0.5258736 0.6247711 -0.5771638
vn -0.4196814 0.3478024 -0.838392
vn -0.2894199 -0.05123875 -0.9558299
vn -0.3286388 0.1692421 -0.9291682
vn -0.2894199 -0.05123875 -0.9558299
vn -0.8921688 0.4337719 -0.1260034
vn -0.8829977 0.4114576 -0.2258712
vn -0.8664116 0.4992763 -0.007357582
vn -0.02402635 0.8361201 0.5480199
vn -0.9177266 0.03925127 0.3952685
vn -0.637813 0.09273732 0.7645876
vn -0.4506342 0.2762029 0.8489056
vn -0.5422242 -0.3953535 0.7414098
vn -0.6424182 0.33406 0.689712
vn -0.7748874 -0.138201 0.6168063
vn -0.5422242 -0.3953535 0.7414098
vn 0.9894347 -0.009804276 0.1446474

vt 0.08172607 0.5585938
vt 0.09332275 0.5341797
vt 0.04983521 0.5664063
vt 0.07904053 0.6000977
vt 0.01831055 0.6318359
vt 0.05435181 0.644043
vt 0.1010132 0.6279297
vt 0.06494141 0.6904297
vt 0.09686279 0.6669922
vt 0.1270752 0.6679688
vt 0.1208496 0.6298828
vt 0.1602783 0.6801758
vt 0.1260986 0.5913086
vt 0.09423828 0.5893555
vt 0.166626 0.6230469
vt 0.1920166 0.6435547
vt 0.1925049 0.6826172
vt 0.2347412 0.668457
vt 0.2282715 0.6103516
vt 0.1791992 0.5795898
vt 0.1616211 0.5947266
vt 0.1680908 0.5664063
vt 0.1834717 0.546875
vt 0.2261963 0.6972656
vt 0.1229248 0.6875
vt 0.1550293 0.7104492
vt 0.1784668 0.7011719
vt 0.2175293 0.7197266
vt 0.1790771 0.7524414
vt 0.1975098 0.7397461
vt 0.1361084 0.7709961
vt 0.1228027 0.7246094
vt 0.1078491 0.7128906
vt 0.08807373 0.6831055
vt 0.08343506 0.7231445
vt 0.06628418 0.7514648
vt 0.06494141 0.6904297
vt 0.02894592 0.7333984
vt 0.08258057 0.7026367
vt 0.01535034 0.6547852
vt 0.008834839 0.6884766
vt 0.1643066 0.5375977

g Rock4_1191_382
usemtl Rock4_1191_382
usemap Rock4_1191_382
f 1/1/1 3/3/3 2/2/2
f 4/4/4 3/3/3 1/1/1
f 4/4/4 5/5/5 3/3/3
f 6/6/6 5/5/5 4/4/4
f 6/6/6 4/4/4 7/7/7
f 8/8/8 6/6/6 7/7/7
f 9/9/9 8/8/8 7/7/7
f 10/10/10 9/9/9 7/7/7
f 10/10/10 7/7/7 11/11/11
f 11/11/11 12/12/12 10/10/10
f 13/13/13 12/12/12 11/11/11
f 2/2/2 13/13/13 14/14/14
f 14/14/14 13/13/13 11/11/11
f 14/14/14 11/11/11 7/7/7
f 2/2/2 14/14/14 1/1/1
f 4/4/4 14/14/14 7/7/7
f 4/4/4 1/1/1 14/14/14
f 15/15/15 12/12/12 13/13/13
f 15/15/15 16/16/16 12/12/12
f 16/16/16 17/17/17 12/12/12
f 16/16/16 18/18/18 17/17/17
f 16/16/16 19/19/19 18/18/18
f 20/20/20 19/19/19 16/16/16
f 21/21/21 20/20/20 16/16/16
f 21/21/21 16/16/16 15/15/15
f 21/21/21 15/15/15 13/13/13
f 21/21/21 13/13/13 22/22/22
f 20/20/20 21/21/21 22/22/22
f 23/23/23 19/19/19 20/20/20
f 20/20/20 22/22/22 23/23/23
f 24/24/24 17/17/17 18/18/18
f 10/10/10 12/12/12 25/25/25
f 26/26/26 25/25/25 12/12/12
f 26/26/26 12/12/12 27/27/27
f 24/24/24 27/27/27 17/17/17
f 17/17/17 27/27/27 12/12/12
f 24/24/24 28/28/28 27/27/27
f 29/29/29 26/26/26 27/27/27
f 30/30/30 29/29/29 27/27/27
f 31/31/31 26/26/26 29/29/29
f 31/31/31 32/32/32 26/26/26
f 32/32/32 25/25/25 26/26/26
f 25/25/25 32/32/32 33/33/33
f 25/25/25 33/33/33 34/34/34
f 32/32/32 31/31/31 35/35/35
f 33/33/33 32/32/32 35/35/35
f 36/36/36 35/35/35 31/31/31
f 35/35/35 36/36/36 37/37/37
f 36/36/36 38/38/38 37/37/37
f 39/39/39 33/33/33 35/35/35
f 39/39/39 35/35/35 37/37/37
f 39/39/39 37/37/37 34/34/34
f 33/33/33 39/39/39 34/34/34
f 25/25/25 34/34/34 9/9/9
f 34/34/34 37/37/37 9/9/9
f 10/10/10 25/25/25 9/9/9
f 6/6/6 37/37/37 40/40/40
f 41/41/41 40/40/40 37/37/37
f 5/5/5 6/6/6 40/40/40
f 42/42/42 22/22/22 13/13/13
f 42/42/42 23/23/23 22/22/22
