#Rock3_(13)_2956_91.obj

v -0.9440851 1.136906 -1.216793
v -0.7468481 1.254143 -0.2548332
v -1.413693 0.9414754 -0.4915504
v -0.02034378 0.9592805 -1.428616
v -0.1742668 1.097866 -0.09949493
v 0.162878 0.9454908 -0.6093674
v 0.3469639 0.1322961 -1.149456
v -0.02510834 0.796134 -0.004592896
v -1.174627 0.8310585 -1.429893
v -0.2579155 0.6002641 -1.550423
v -0.9539785 -0.2158899 -1.671467
v 0.06662941 -0.2244606 -1.314171
v 1.509476 -0.2097592 -0.9086761
v 0.3823528 0.9776998 -0.7041168
v 1.391489 0.8841214 -0.2364159
v 0.4745865 1.064101 -0.3634033
v 0.162878 0.9454908 -0.6093674
v 1.368729 0.7879553 0.2762337
v 0.4568501 0.459465 0.6407394
v 0.8598423 0.2661247 0.8718224
v 0.2683697 0.6985021 1.177715
v 0.2596207 0.9579568 0.5341911
v -1.344634 -0.2243986 -1.375771
v 1.638111 0.389739 -0.2464714
v 1.146828 -0.2245951 0.7801666
v 1.12347 0.1747994 0.808609
v 0.8664932 -0.1333604 0.9139366
v 1.693022 -0.2244682 -0.5556488
v 0.380846 0.4957438 1.558167
v 0.8194542 -0.2030544 1.222912
v 0.8664932 -0.1333604 0.9139366
v 0.05720139 0.05316496 1.735741
v 0.2683697 0.6985021 1.177715
v -0.2569618 0.1026063 1.509109
v 0.1038513 -0.2227688 1.702709
v -0.1964397 -0.2194777 1.504253
v -1.45872 0.5425243 -1.023411
v -1.67487 -0.2224526 -0.6187668
v -1.346508 0.6171999 -0.2971268
v -1.348934 0.1914482 0.03926468
v -1.050595 0.620194 -0.05249786
v -1.378552 -0.224503 0.1970367
v -0.7573681 1.030765 -0.01623535
v -1.348934 0.1914482 0.03926468
v -1.472793 0.6474113 0.3256989
v -1.378552 -0.224503 0.1970367
v -1.44407 -0.22435 0.559082
v -1.406242 0.8316841 0.9874344
v -0.8474674 -0.008682251 1.637611
v -0.683691 0.7736425 1.563667
v -0.6748981 1.361803 0.2764397
v 0.1808949 0.8877454 1.235786
v -0.3462725 0.4248247 1.607319
v -0.7573681 1.030765 -0.01623535
v -0.02510834 0.796134 -0.004592896
v 0.4568501 0.459465 0.6407394
v 0.2683697 0.6985021 1.177715
v -0.2569618 0.1026063 1.509109
v -0.7731867 -0.2244992 1.445946
v -0.1964397 -0.2194777 1.504253

vn -0.1462991 0.9348052 -0.3236293
vn -0.02691643 0.9973203 0.06802676
vn -0.7456493 0.6492695 0.1498533
vn 0.5234295 0.7025735 -0.4820913
vn 0.4055065 0.9105781 -0.08007416
vn 0.431784 0.8790748 -0.2019657
vn 0.4451635 0.3156134 -0.8379843
vn 0.2866612 0.9128258 0.2908169
vn -0.4540388 0.3864119 -0.8028291
vn 0.1873153 0.08685968 -0.978452
vn -0.09959453 0.04967994 -0.9937872
vn 0.369247 -0.02642263 -0.9289556
vn 0.4386109 0.4526938 -0.7763304
vn 0.2455266 0.5773732 -0.7786892
vn 0.4955002 0.7114252 -0.4983509
vn -0.0405092 0.9712815 0.2344597
vn 0.431784 0.8790748 -0.2019657
vn 0.5392063 0.6424781 0.5444983
vn 0.2677096 0.8904626 0.3679782
vn 0.5103988 0.6423116 0.571777
vn 0.6577153 0.6356437 0.4041876
vn 0.6391584 0.7666103 -0.0615242
vn -0.7954893 0.06310164 -0.6026732
vn 0.9831049 0.1174768 0.1403707
vn 0.8712507 -0.02256741 0.4903191
vn 0.6656917 0.2010509 0.7186328
vn 0.808889 0.07494502 0.5831653
vn 0.9925249 0.0290681 0.1185297
vn 0.4553986 0.4661886 0.7584723
vn 0.7742902 0.1502465 0.6147363
vn 0.808889 0.07494502 0.5831653
vn 0.1071828 0.2348079 0.9661144
vn 0.6577153 0.6356437 0.4041876
vn -0.05006437 0.1169365 0.9918767
vn 0.305709 -0.06205048 0.9501009
vn -0.3159171 -0.08557115 0.9449201
vn -0.9384128 0.2304539 -0.2574343
vn -0.9800435 0.1952759 -0.03717626
vn -0.872524 0.2920234 0.3916938
vn -0.9740984 0.2172661 0.06267168
vn -0.8088154 0.5712633 -0.1395561
vn -0.9980328 0.04803255 0.04029163
vn -0.5667521 0.8094946 -0.1533312
vn -0.9740984 0.2172661 0.06267168
vn -0.9009379 0.3899258 -0.1904434
vn -0.9980328 0.04803255 0.04029163
vn -0.9389635 -0.1460583 0.3114715
vn -0.7674732 0.4740957 0.4315299
vn -0.630424 -0.183919 0.7541482
vn -0.2081528 0.7003081 0.6828184
vn -0.1324837 0.9885024 0.07287575
vn 0.2648841 0.8506142 0.4541937
vn 0.2848597 0.09849457 0.9534956
vn -0.5667521 0.8094946 -0.1533312
vn 0.2866612 0.9128258 0.2908169
vn 0.2677096 0.8904626 0.3679782
vn 0.6577153 0.6356437 0.4041876
vn -0.05006437 0.1169365 0.9918767
vn -0.3523612 -0.5943414 0.7229107
vn -0.3159171 -0.08557115 0.9449201

vt 0.1158638 0.9383631
vt 0.09538253 0.9120352
vt 0.08741901 0.9391211
vt 0.1426682 0.9264175
vt 0.1080404 0.8905393
vt 0.1347711 0.8988628
vt 0.1751804 0.9199398
vt 0.1161831 0.8776034
vt 0.1176134 0.9513465
vt 0.1468127 0.9391351
vt 0.1453332 0.9837276
vt 0.1839423 0.9427396
vt 0.2110212 0.8733379
vt 0.144241 0.8946485
vt 0.1627785 0.8600584
vt 0.1395759 0.8824828
vt 0.1347711 0.8988628
vt 0.1549532 0.8464264
vt 0.1179448 0.8396425
vt 0.1310518 0.8177863
vt 0.08797247 0.8280851
vt 0.1027162 0.8567739
vt 0.1208919 0.9921259
vt 0.1802932 0.852975
vt 0.156728 0.8026067
vt 0.1453191 0.8163236
vt 0.1368421 0.7983432
vt 0.2079828 0.8517604
vt 0.09188173 0.8086196
vt 0.1263664 0.7887857
vt 0.1390489 0.7991756
vt 0.07950947 0.7867259
vt 0.08797247 0.8280851
vt 0.06328828 0.791539
vt 0.08346606 0.7749887
vt 0.06547388 0.7755531
vt 0.1007873 0.9601148
vt 0.07576175 0.9891008
vt 0.07257432 0.9420716
vt 0.0503709 0.9534717
vt 0.06298687 0.9252746
vt 0.03557348 0.970162
vt 0.08244275 0.9075034
vt 0.03084773 0.9223279
vt 0.04592365 0.9057153
vt 0.009368702 0.9150389
vt 0.007073132 0.8962587
vt 0.04685852 0.8817821
vt 0.02561666 0.8455088
vt 0.05227689 0.8518144
vt 0.08237857 0.8901991
vt 0.08348626 0.8371816
vt 0.04950949 0.8346252
vt 0.08244275 0.9075034
vt 0.1161831 0.8776034
vt 0.1179448 0.8396425
vt 0.08797247 0.8280851
vt 0.04058571 0.8226988
vt 0.01483814 0.842499
vt 0.02678112 0.815241

g Rock3_(13)_2956_91
usemtl Rock3_(13)_2956_91
usemap Rock3_(13)_2956_91
f 1/1/1 3/3/3 2/2/2
f 1/1/1 2/2/2 4/4/4
f 4/4/4 2/2/2 5/5/5
f 6/6/6 4/4/4 5/5/5
f 7/7/7 4/4/4 6/6/6
f 5/5/5 8/8/8 6/6/6
f 9/9/9 3/3/3 1/1/1
f 4/4/4 9/9/9 1/1/1
f 10/10/10 9/9/9 4/4/4
f 10/10/10 4/4/4 7/7/7
f 11/11/11 9/9/9 10/10/10
f 12/12/12 11/11/11 10/10/10
f 10/10/10 7/7/7 12/12/12
f 7/7/7 13/13/13 12/12/12
f 7/7/7 14/14/14 13/13/13
f 6/6/6 14/14/14 7/7/7
f 15/15/15 13/13/13 14/14/14
f 15/15/15 14/14/14 16/16/16
f 14/14/14 6/6/6 16/16/16
f 17/17/17 8/8/8 16/16/16
f 8/8/8 18/18/18 16/16/16
f 15/15/15 16/16/16 18/18/18
f 8/8/8 19/19/19 18/18/18
f 19/19/19 20/20/20 18/18/18
f 21/21/21 20/20/20 19/19/19
f 19/19/19 22/22/22 21/21/21
f 9/9/9 11/11/11 23/23/23
f 15/15/15 18/18/18 24/24/24
f 24/24/24 13/13/13 15/15/15
f 18/18/18 25/25/25 24/24/24
f 26/26/26 25/25/25 18/18/18
f 26/26/26 20/20/20 25/25/25
f 26/26/26 18/18/18 20/20/20
f 27/27/27 25/25/25 20/20/20
f 13/13/13 24/24/24 28/28/28
f 28/28/28 24/24/24 25/25/25
f 29/29/29 30/30/30 20/20/20
f 20/20/20 30/30/30 31/31/31
f 32/32/32 30/30/30 29/29/29
f 21/21/21 32/32/32 29/29/29
f 20/20/20 33/33/33 29/29/29
f 32/32/32 33/33/33 34/34/34
f 32/32/32 35/35/35 30/30/30
f 36/36/36 35/35/35 32/32/32
f 36/36/36 32/32/32 34/34/34
f 23/23/23 38/38/38 37/37/37
f 38/38/38 39/39/39 37/37/37
f 40/40/40 39/39/39 38/38/38
f 40/40/40 41/41/41 39/39/39
f 38/38/38 42/42/42 40/40/40
f 43/43/43 39/39/39 41/41/41
f 43/43/43 3/3/3 39/39/39
f 3/3/3 37/37/37 39/39/39
f 3/3/3 9/9/9 37/37/37
f 37/37/37 9/9/9 23/23/23
f 44/44/44 45/45/45 41/41/41
f 45/45/45 44/44/44 46/46/46
f 45/45/45 46/46/46 47/47/47
f 47/47/47 48/48/48 45/45/45
f 47/47/47 49/49/49 48/48/48
f 48/48/48 49/49/49 50/50/50
f 48/48/48 50/50/50 51/51/51
f 51/51/51 45/45/45 48/48/48
f 52/52/52 51/51/51 50/50/50
f 22/22/22 51/51/51 52/52/52
f 50/50/50 49/49/49 53/53/53
f 52/52/52 50/50/50 53/53/53
f 54/54/54 45/45/45 51/51/51
f 5/5/5 51/51/51 22/22/22
f 54/54/54 51/51/51 5/5/5
f 22/22/22 55/55/55 5/5/5
f 56/56/56 55/55/55 22/22/22
f 52/52/52 57/57/57 22/22/22
f 53/53/53 33/33/33 52/52/52
f 53/53/53 58/58/58 33/33/33
f 59/59/59 58/58/58 53/53/53
f 49/49/49 47/47/47 59/59/59
f 49/49/49 59/59/59 53/53/53
f 2/2/2 54/54/54 5/5/5
f 54/54/54 2/2/2 3/3/3
f 59/59/59 60/60/60 58/58/58
f 41/41/41 45/45/45 54/54/54
