#Rock5_(1)_1267_373.obj

v 2.835679 -0.4419359 1.642042
v 3.115872 1.480955 1.563946
v 3.463017 -0.4419901 -0.3895929
v 2.160265 -0.4149562 2.856643
v 2.432515 1.416612 2.563998
v 1.032323 1.104923 3.288905
v 1.208836 1.569155 1.813753
v -0.411686 1.352988 3.330764
v -0.8349738 1.294411 1.954973
v -1.633929 -0.405333 2.115709
v 2.414298 1.672443 0.6079326
v 3.172683 1.292258 0.4769893
v 3.367087 0.3337346 -0.5196909
v 1.661317 2.652571 1.494731
v 2.778457 2.441385 0.2826821
v 2.6164 1.821087 -0.5394863
v 2.18219 2.313402 -1.599332
v 1.786024 1.43189 -1.396142
v 0.8181285 1.114579 -2.472304
v 0.8384826 2.266884 -2.493032
v 1.024292 2.784268 -2.368334
v 0.03828255 2.531387 -3.080153
v -0.0894903 3.644581 -3.163827
v -1.298201 2.953076 -3.019542
v 0.1292998 2.059207 -3.139167
v -1.246348 2.219381 -2.816279
v 2.792206 1.116497 -1.220043
v 2.666735 -0.4930561 -1.265131
v 2.078811 -0.3734027 -1.430911
v 1.995267 1.064743 -1.925208
v 1.36585 -0.3222524 -2.407081
v 0.2113655 -0.4300606 -2.487978
v -1.532591 3.867083 -2.623213
v 0.3859103 0.9924321 -3.013165
v -0.7644335 0.5447479 -2.875976
v 0.297877 0.7294065 -2.250399
v -0.3562143 -0.4365838 -2.902812
v -0.7849202 1.810945 -3.217452
v 0.297877 0.7294065 -2.250399
v 0.297877 0.7294065 -2.250399
v -1.215886 -0.4407451 -3.00123
v 0.638286 3.674522 -2.316924
v -2.066927 3.913483 -0.5253896
v 0.01870144 4.023955 0.7074944
v 1.032515 3.823844 -0.3248692
v 1.328676 3.272989 -2.046154
v -2.386711 3.754764 -1.263845
v 1.551934 2.937797 -1.555439
v 2.395739 2.857597 0.01798498
v 1.18855 2.954225 0.07073553
v 1.293798 3.394161 -0.137655
v -0.02526124 2.8815 1.05986
v 1.032515 3.823844 -0.3248692
v 0.01870144 4.023955 0.7074944
v -0.06408232 3.759507 1.131617
v -0.02526124 2.8815 1.05986
v -1.282148 2.444473 0.7578358
v -2.066927 3.913483 -0.5253896
v -2.198686 2.258182 -0.5435768
v -2.421774 1.995739 1.195479
v -1.408942 2.218964 1.879763
v 1.047027 2.648868 1.545382
v 0.5330213 2.156273 2.006995
v -2.433231 1.388019 0.0264906
v -2.343404 0.9223111 1.351328
v -1.774531 1.444362 1.817276
v -0.8349738 1.294411 1.954973
v -1.633929 -0.405333 2.115709
v -2.386711 3.754764 -1.263845
v -2.384442 2.499587 -1.575079
v -1.532591 3.867083 -2.623213
v 1.208836 1.569155 1.813753
v -1.298201 2.953076 -3.019542
v -1.246348 2.219381 -2.816279
v -2.144763 2.176192 -2.231215
v -2.376403 1.344966 -1.488033
v -1.628323 1.222606 -2.546114
v -3.341817 0.6537775 -0.9751339
v -1.215886 -0.4407451 -3.00123
v -2.987501 -0.4418431 -1.334848
v -0.7849202 1.810945 -3.217452
v -3.400661 -0.4319192 0.6229394
v -0.7644335 0.5447479 -2.875976
v -3.263046 1.000144 -0.305287
v -2.708554 0.8252261 1.325798
v -2.576499 -0.4411962 1.440317
v -1.375822 -0.4417865 1.993448
v 1.126214 -0.4415824 3.247651
v -0.4554082 -0.4415119 3.273754

vn 0.9210856 -0.1171431 -0.3713204
vn 0.7717166 0.4760839 -0.4216605
vn 0.4857973 -0.01337758 -0.8739692
vn 0.9974935 -0.01754102 0.06855026
vn 0.6903113 0.7079699 0.1491604
vn 0.8327911 0.1696724 0.5269443
vn 0.6340052 0.7124822 0.3006769
vn 0.1992619 0.7081405 0.6773712
vn 0.425099 0.1890646 0.8851811
vn 0.1354242 0.03212712 0.9902667
vn 0.8180968 0.510763 -0.2642703
vn 0.5004112 0.6532981 -0.5681463
vn 0.5086923 0.2457545 -0.8251284
vn 0.7272375 0.6696613 0.1505969
vn 0.7760285 0.2466262 -0.5804786
vn 0.4353409 0.3112956 -0.8447328
vn 0.1425459 0.1581425 -0.977073
vn 0.0572049 0.1881266 -0.9804775
vn -0.2701215 -0.009140237 -0.962783
vn -0.2334763 0.005798573 -0.9723452
vn -0.06450269 0.1556058 -0.9857111
vn -0.4870088 -0.2765394 -0.8284615
vn -0.4367919 0.3991113 -0.8061781
vn -0.9485909 -0.04747066 -0.3129247
vn -0.4373378 0.2635007 -0.8598274
vn -0.8901031 0.2368339 -0.3893921
vn -0.03869757 0.2509504 -0.9672261
vn -0.2576295 -0.002840212 -0.9662397
vn 0.19986 0.0112633 -0.9797598
vn 0.1642704 0.3063072 -0.937652
vn -0.3044852 -0.01916739 -0.9523242
vn -0.567652 0.1647316 -0.8066193
vn -0.6574658 0.7528303 -0.03139049
vn -0.134624 -0.5567803 -0.8196781
vn -0.6064719 -0.1246381 -0.7852752
vn -0.3630718 -0.5083592 -0.7808648
vn -0.4024577 0.1721757 -0.8991015
vn -0.9121371 0.0620462 -0.4051621
vn -0.3630718 -0.5083592 -0.7808648
vn -0.3630718 -0.5083592 -0.7808648
vn -0.9248018 0.09022651 -0.3695956
vn 0.007751048 0.8855376 -0.4645031
vn -0.1101203 0.7786505 0.6177192
vn 0.3751575 0.926442 0.03101616
vn 0.4570833 0.8071207 -0.3736723
vn 0.3249488 0.4464116 -0.8337415
vn -0.6746835 0.3456306 0.6521823
vn 0.4147242 0.5224116 -0.7450436
vn 0.3322732 0.8771971 -0.346583
vn 0.5910417 0.8014358 -0.09148967
vn 0.8851361 0.3663967 -0.2868584
vn 0.5963184 0.7015766 0.3901215
vn 0.4570833 0.8071207 -0.3736723
vn 0.3751575 0.926442 0.03101616
vn 0.6745512 0.4350075 0.5964472
vn 0.5963184 0.7015766 0.3901215
vn 0.01265666 0.6384828 0.769532
vn -0.1101203 0.7786505 0.6177192
vn -0.5820107 0.1570631 0.7978689
vn -0.3102827 0.4745143 0.8237481
vn 0.3382415 0.6184738 0.7092834
vn 0.6086693 0.6499609 0.4550523
vn 0.7790264 0.2214979 0.5865633
vn -0.502979 0.5894063 0.632149
vn 0.151041 0.2277094 0.9619434
vn 0.3363565 -0.06981589 0.9391433
vn 0.425099 0.1890646 0.8851811
vn 0.1354242 0.03212712 0.9902667
vn -0.6746835 0.3456306 0.6521823
vn -0.9364384 0.01543175 0.3504928
vn -0.6574658 0.7528303 -0.03139049
vn 0.6340052 0.7124822 0.3006769
vn -0.9485909 -0.04747066 -0.3129247
vn -0.8901031 0.2368339 -0.3893921
vn -0.9780954 0.05682192 0.2002514
vn -0.7982335 0.4469927 0.4037585
vn -0.9922268 0.04057554 -0.1176423
vn -0.9308722 0.2182899 0.2929617
vn -0.9248018 0.09022651 -0.3695956
vn -0.9565135 -0.1184195 0.2665687
vn -0.9121371 0.0620462 -0.4051621
vn -0.5088362 0.04932722 0.859449
vn -0.6064719 -0.1246381 -0.7852752
vn -0.4898406 0.6401301 0.5918527
vn 0.03394207 0.4750093 0.879326
vn 0.0964525 -0.415498 0.9044658
vn 0.05670365 -0.9864925 0.1536794
vn 0.8287016 -0.01478738 0.5594953
vn 0.521505 -0.02276265 0.8529446

vt 0.4956055 0.7080078
vt 0.454834 0.6879883
vt 0.4594727 0.753418
vt 0.5107422 0.6723633
vt 0.4667969 0.6665039
vt 0.4797363 0.637207
vt 0.4416504 0.6450195
vt 0.472168 0.6083984
vt 0.4465332 0.5883789
vt 0.4875488 0.5566406
vt 0.4291992 0.6884766
vt 0.4411621 0.7080078
vt 0.4431152 0.7412109
vt 0.4152832 0.65625
vt 0.4104004 0.6899414
vt 0.407959 0.7138672
vt 0.376709 0.71875
vt 0.3869629 0.7421875
vt 0.3552246 0.7685547
vt 0.3391113 0.7392578
vt 0.3393555 0.7231445
vt 0.3134766 0.7373047
vt 0.3034668 0.7182617
vt 0.2783203 0.7363281
vt 0.3222656 0.7568359
vt 0.2871094 0.7568359
vt 0.4130859 0.7392578
vt 0.4331055 0.7744141
vt 0.4169922 0.7807617
vt 0.3857422 0.7583008
vt 0.3864746 0.7973633
vt 0.3591309 0.8139648
vt 0.2697754 0.7075195
vt 0.3381348 0.7749023
vt 0.3217773 0.800293
vt 0.348877 0.7856445
vt 0.3413086 0.8217773
vt 0.3029785 0.7700195
vt 0.348877 0.7856445
vt 0.348877 0.7856445
vt 0.3193359 0.8295898
vt 0.322998 0.7045898
vt 0.2617188 0.6523438
vt 0.3183594 0.6274414
vt 0.3405762 0.6572266
vt 0.3432617 0.7055664
vt 0.2509766 0.6704102
vt 0.3591309 0.703125
vt 0.3977051 0.6860352
vt 0.3803711 0.6630859
vt 0.3681641 0.6650391
vt 0.3901367 0.6191406
vt 0.3554688 0.6616211
vt 0.3588867 0.6274414
vt 0.3696289 0.6220703
vt 0.3901367 0.6191406
vt 0.3811035 0.5791016
vt 0.3259277 0.5800781
vt 0.3498535 0.5424805
vt 0.3969727 0.5498047
vt 0.4152832 0.5751953
vt 0.4118652 0.6420898
vt 0.4265137 0.6264648
vt 0.3745117 0.5249023
vt 0.4143066 0.5288086
vt 0.4208984 0.5522461
vt 0.4433594 0.5634766
vt 0.4575195 0.5161133
vt 0.3112793 0.5668945
vt 0.3198242 0.5356445
vt 0.2729492 0.5532227
vt 0.4416504 0.6450195
vt 0.2714844 0.5273438
vt 0.2822266 0.5112305
vt 0.3088379 0.5180664
vt 0.3356934 0.5048828
vt 0.3024902 0.4899902
vt 0.3640137 0.4882813
vt 0.2980957 0.4428711
vt 0.3603516 0.4580078
vt 0.2705078 0.496582
vt 0.4104004 0.4777832
vt 0.282959 0.4663086
vt 0.375 0.5009766
vt 0.4118652 0.519043
vt 0.4350586 0.4960938
vt 0.4645996 0.5136719
vt 0.5161133 0.640625
vt 0.5102539 0.5952148

g Rock5_(1)_1267_373
usemtl Rock5_(1)_1267_373
usemap Rock5_(1)_1267_373
f 1/1/1 3/3/3 2/2/2
f 2/2/2 4/4/4 1/1/1
f 5/5/5 4/4/4 2/2/2
f 5/5/5 6/6/6 4/4/4
f 2/2/2 7/7/7 5/5/5
f 7/7/7 8/8/8 5/5/5
f 8/8/8 6/6/6 5/5/5
f 7/7/7 9/9/9 8/8/8
f 8/8/8 9/9/9 10/10/10
f 11/11/11 7/7/7 2/2/2
f 2/2/2 12/12/12 11/11/11
f 2/2/2 13/13/13 12/12/12
f 13/13/13 2/2/2 3/3/3
f 7/7/7 11/11/11 14/14/14
f 14/14/14 11/11/11 15/15/15
f 16/16/16 15/15/15 11/11/11
f 13/13/13 16/16/16 12/12/12
f 12/12/12 16/16/16 11/11/11
f 15/15/15 16/16/16 17/17/17
f 18/18/18 17/17/17 16/16/16
f 18/18/18 19/19/19 17/17/17
f 20/20/20 17/17/17 19/19/19
f 21/21/21 17/17/17 20/20/20
f 22/22/22 21/21/21 20/20/20
f 22/22/22 23/23/23 21/21/21
f 24/24/24 23/23/23 22/22/22
f 19/19/19 25/25/25 20/20/20
f 25/25/25 26/26/26 20/20/20
f 26/26/26 22/22/22 20/20/20
f 26/26/26 24/24/24 22/22/22
f 16/16/16 27/27/27 18/18/18
f 16/16/16 13/13/13 27/27/27
f 18/18/18 27/27/27 28/28/28
f 28/28/28 27/27/27 3/3/3
f 18/18/18 28/28/28 29/29/29
f 30/30/30 19/19/19 18/18/18
f 30/30/30 18/18/18 29/29/29
f 29/29/29 31/31/31 30/30/30
f 30/30/30 31/31/31 19/19/19
f 32/32/32 19/19/19 31/31/31
f 24/24/24 33/33/33 23/23/23
f 19/19/19 34/34/34 25/25/25
f 35/35/35 25/25/25 34/34/34
f 32/32/32 35/35/35 36/36/36
f 32/32/32 37/37/37 35/35/35
f 38/38/38 25/25/25 35/35/35
f 38/38/38 26/26/26 25/25/25
f 34/34/34 39/39/39 35/35/35
f 34/34/34 19/19/19 39/39/39
f 40/40/40 19/19/19 32/32/32
f 13/13/13 3/3/3 27/27/27
f 41/41/41 35/35/35 37/37/37
f 42/42/42 33/33/33 43/43/43
f 42/42/42 43/43/43 44/44/44
f 45/45/45 42/42/42 44/44/44
f 46/46/46 42/42/42 45/45/45
f 42/42/42 46/46/46 21/21/21
f 42/42/42 21/21/21 23/23/23
f 23/23/23 33/33/33 42/42/42
f 33/33/33 47/47/47 43/43/43
f 21/21/21 46/46/46 48/48/48
f 48/48/48 17/17/17 21/21/21
f 49/49/49 17/17/17 48/48/48
f 48/48/48 50/50/50 49/49/49
f 51/51/51 50/50/50 48/48/48
f 46/46/46 51/51/51 48/48/48
f 52/52/52 50/50/50 51/51/51
f 50/50/50 52/52/52 14/14/14
f 49/49/49 50/50/50 14/14/14
f 51/51/51 46/46/46 53/53/53
f 54/54/54 51/51/51 53/53/53
f 15/15/15 17/17/17 49/49/49
f 15/15/15 49/49/49 14/14/14
f 55/55/55 51/51/51 54/54/54
f 55/55/55 56/56/56 51/51/51
f 55/55/55 57/57/57 52/52/52
f 55/55/55 58/58/58 57/57/57
f 55/55/55 54/54/54 58/58/58
f 59/59/59 57/57/57 58/58/58
f 59/59/59 60/60/60 57/57/57
f 57/57/57 60/60/60 61/61/61
f 52/52/52 57/57/57 61/61/61
f 52/52/52 61/61/61 62/62/62
f 62/62/62 14/14/14 52/52/52
f 63/63/63 62/62/62 61/61/61
f 63/63/63 61/61/61 9/9/9
f 60/60/60 59/59/59 64/64/64
f 60/60/60 64/64/64 65/65/65
f 66/66/66 60/60/60 65/65/65
f 66/66/66 61/61/61 60/60/60
f 66/66/66 65/65/65 67/67/67
f 61/61/61 66/66/66 67/67/67
f 67/67/67 65/65/65 68/68/68
f 69/69/69 59/59/59 58/58/58
f 70/70/70 59/59/59 69/69/69
f 69/69/69 71/71/71 70/70/70
f 72/72/72 63/63/63 9/9/9
f 62/62/62 63/63/63 7/7/7
f 70/70/70 71/71/71 73/73/73
f 73/73/73 74/74/74 70/70/70
f 75/75/75 70/70/70 74/74/74
f 75/75/75 59/59/59 70/70/70
f 59/59/59 75/75/75 76/76/76
f 76/76/76 64/64/64 59/59/59
f 75/75/75 77/77/77 76/76/76
f 78/78/78 76/76/76 77/77/77
f 78/78/78 77/77/77 79/79/79
f 80/80/80 78/78/78 79/79/79
f 77/77/77 75/75/75 81/81/81
f 74/74/74 81/81/81 75/75/75
f 78/78/78 80/80/80 82/82/82
f 77/77/77 83/83/83 79/79/79
f 77/77/77 81/81/81 83/83/83
f 84/84/84 76/76/76 78/78/78
f 84/84/84 78/78/78 82/82/82
f 84/84/84 82/82/82 85/85/85
f 64/64/64 84/84/84 85/85/85
f 76/76/76 84/84/84 64/64/64
f 86/86/86 85/85/85 82/82/82
f 68/68/68 85/85/85 86/86/86
f 68/68/68 86/86/86 87/87/87
f 65/65/65 85/85/85 68/68/68
f 64/64/64 85/85/85 65/65/65
f 6/6/6 89/89/89 88/88/88
f 6/6/6 8/8/8 89/89/89
f 8/8/8 10/10/10 89/89/89
f 6/6/6 88/88/88 4/4/4
f 14/14/14 62/62/62 7/7/7
