#Rock1_(5)_1572_363.obj

v 1.359646 0.01363938 -1.331416
v 1.319727 0.0135592 -0.6880805
v 1.242805 0.3054046 -0.9745809
v 0.7728509 0.01303431 -0.6084442
v 0.8926861 0.3021292 -1.035026
v 0.6144449 0.01404162 -0.8384146
v 0.7336723 0.01400771 -1.254677
v 0.9861493 0.01364693 -1.401167
v -1.389588 0.0130544 -0.1851253
v -0.8538242 0.3122752 -0.05576343
v -1.340663 0.0136591 0.3263126
v -1.002399 0.01367842 -0.4037304
v -0.7605361 0.01336455 0.3632305
v -0.5729706 0.01361182 -0.2637461
v 1.001592 0.2855606 0.989943
v 0.8172984 0.01372173 1.366725
v 0.6242121 0.01373067 1.02243
v 0.7892013 0.01374345 0.7045466
v 1.267395 0.01349095 0.6808915
v 1.391289 0.0137456 1.085278
v 1.188961 0.01373536 1.302292

vn 0.2803318 0.6754879 -0.6820046
vn 0.7831292 0.6185585 -0.06398353
vn 0.2588904 0.9472646 -0.1888533
vn 0.2220858 0.8072798 0.5467881
vn -0.3998571 0.9017841 0.1640114
vn -0.4749067 0.7196128 0.5065778
vn -0.7422946 0.6684923 0.04600754
vn -0.4487288 0.7751098 -0.4448002
vn -0.4901498 0.8683699 0.07541248
vn -0.02815015 0.9942888 -0.1029432
vn 0.002276763 0.896966 0.4420937
vn -0.4474632 0.767167 -0.4595994
vn 0.6207512 0.7799987 0.07918355
vn 0.2825208 0.7526576 -0.5947173
vn 0.02512996 0.9992471 0.029559
vn 0.1421663 0.8391455 0.5249986
vn -0.4434569 0.8115103 0.3805221
vn -0.5797776 0.7936142 -0.1844844
vn -0.07116954 0.8294712 -0.5539969
vn 0.4971042 0.8278425 -0.2599311
vn 0.5574199 0.8011036 0.2179817

vt 0.2322998 0.722168
vt 0.2139893 0.7592773
vt 0.2314453 0.7470703
vt 0.2440186 0.7788086
vt 0.2480469 0.7514648
vt 0.2592773 0.7705078
vt 0.265625 0.7431641
vt 0.2553711 0.7280273
vt 0.2298584 0.7851563
vt 0.2045898 0.8041992
vt 0.2371826 0.815918
vt 0.203125 0.7792969
vt 0.2050781 0.831543
vt 0.1813965 0.7978516
vt 0.2773438 0.8071289
vt 0.2497559 0.8139648
vt 0.2700195 0.8330078
vt 0.2941895 0.8271484
vt 0.3017578 0.793457
vt 0.2758789 0.7792969
vt 0.2578125 0.7890625

g Rock1_(5)_1572_363
usemtl Rock1_(5)_1572_363
usemap Rock1_(5)_1572_363
f 1/1/1 3/3/3 2/2/2
f 4/4/4 2/2/2 3/3/3
f 3/3/3 5/5/5 4/4/4
f 6/6/6 4/4/4 5/5/5
f 5/5/5 7/7/7 6/6/6
f 5/5/5 3/3/3 8/8/8
f 8/8/8 3/3/3 1/1/1
f 5/5/5 8/8/8 7/7/7
f 9/9/9 11/11/11 10/10/10
f 10/10/10 12/12/12 9/9/9
f 13/13/13 10/10/10 11/11/11
f 10/10/10 13/13/13 14/14/14
f 12/12/12 10/10/10 14/14/14
f 15/15/15 17/17/17 16/16/16
f 15/15/15 18/18/18 17/17/17
f 19/19/19 18/18/18 15/15/15
f 20/20/20 19/19/19 15/15/15
f 15/15/15 21/21/21 20/20/20
f 15/15/15 16/16/16 21/21/21
