#Rock1_(15)_3259_83.obj

v 1.359648 0.01363938 -1.331417
v 1.319727 0.0135592 -0.6880813
v 1.242805 0.3054046 -0.974579
v 0.7728502 0.0130343 -0.6084436
v 0.8926858 0.3021292 -1.035028
v 0.6144445 0.01404162 -0.8384164
v 0.7336731 0.01400771 -1.254675
v 0.9861494 0.01364693 -1.401168
v -1.389589 0.0130544 -0.1851276
v -0.8538233 0.3122752 -0.05576542
v -1.340662 0.01365911 0.3263113
v -1.0024 0.01367842 -0.4037299
v -0.760537 0.01336455 0.3632285
v -0.572971 0.01361182 -0.2637455
v 1.001592 0.2855606 0.9899449
v 0.8172989 0.01372173 1.366724
v 0.6242107 0.01373066 1.022429
v 0.7892011 0.01374345 0.7045454
v 1.267395 0.01349095 0.6808922
v 1.391289 0.0137456 1.085276
v 1.188961 0.01373536 1.302291

vn 0.4468533 0.6754879 0.5865477
vn -0.3405331 0.6185585 0.7081119
vn 0.03213804 0.9472646 0.3188369
vn -0.5840635 0.8072798 -0.08467086
vn 0.06053459 0.9017841 -0.4279264
vn -0.1971476 0.7196128 -0.6658004
vn 0.3354096 0.6684923 -0.6637909
vn 0.6105876 0.7751098 -0.1624425
vn 0.1826168 0.8683699 -0.4610693
vn 0.1030572 0.9942888 0.02772989
vn -0.3826424 0.896966 -0.2214425
vn 0.6227185 0.767167 -0.1538718
vn -0.382019 0.7799987 0.4956446
vn 0.3704251 0.7526576 0.544327
vn -0.03820623 0.9992471 0.006747853
vn -0.5248744 0.8391455 -0.1426241
vn -0.1042644 0.8115103 -0.5749609
vn 0.4521798 0.7936142 -0.407075
vn 0.5140201 0.8294712 0.2185426
vn -0.02690617 0.8278425 0.5603149
vn -0.4697871 0.8011036 0.3708546

vt 0.232352 0.7225032
vt 0.2140789 0.7594889
vt 0.2315052 0.7471936
vt 0.2440251 0.7788215
vt 0.2481601 0.7518374
vt 0.25929 0.7707678
vt 0.2656842 0.7432095
vt 0.2554635 0.7281532
vt 0.2299451 0.7854984
vt 0.2046784 0.8044612
vt 0.2372313 0.8160826
vt 0.2031385 0.7796935
vt 0.2051533 0.8319056
vt 0.1814293 0.7981536
vt 0.2774515 0.8074797
vt 0.2498153 0.8143666
vt 0.2700397 0.8334671
vt 0.2944277 0.8271991
vt 0.3019956 0.793874
vt 0.2759953 0.7793822
vt 0.257976 0.7891733

g Rock1_(15)_3259_83
usemtl Rock1_(15)_3259_83
usemap Rock1_(15)_3259_83
f 1/1/1 3/3/3 2/2/2
f 4/4/4 2/2/2 3/3/3
f 3/3/3 5/5/5 4/4/4
f 6/6/6 4/4/4 5/5/5
f 5/5/5 7/7/7 6/6/6
f 5/5/5 3/3/3 8/8/8
f 8/8/8 3/3/3 1/1/1
f 5/5/5 8/8/8 7/7/7
f 9/9/9 11/11/11 10/10/10
f 10/10/10 12/12/12 9/9/9
f 13/13/13 10/10/10 11/11/11
f 10/10/10 13/13/13 14/14/14
f 12/12/12 10/10/10 14/14/14
f 15/15/15 17/17/17 16/16/16
f 15/15/15 18/18/18 17/17/17
f 19/19/19 18/18/18 15/15/15
f 20/20/20 19/19/19 15/15/15
f 15/15/15 21/21/21 20/20/20
f 15/15/15 16/16/16 21/21/21
