#Rock1_(9)_1394_357.obj

v 1.319226 -0.5799086 -1.242917
v 1.283187 -0.4353689 -0.6157935
v 1.275531 -0.2006973 -0.9593682
v 0.7517554 -0.2933803 -0.5625524
v 0.9341261 -0.1360451 -1.03361
v 0.5969976 -0.3044216 -0.7947333
v 0.7110962 -0.419497 -1.196266
v 0.9558225 -0.5087215 -1.327987
v -1.348654 0.2928851 -0.2464655
v -0.7571495 0.4812628 -0.1573271
v -1.298734 0.3898827 0.2555922
v -0.9730431 0.1584444 -0.4427976
v -0.7346619 0.2640088 0.3179628
v -0.5549756 0.0891293 -0.2865285
v 1.044899 0.2494828 0.9542879
v 0.8036895 0.1128784 1.370199
v 0.614485 0.08479308 1.024894
v 0.7735075 -0.020047 0.7215934
v 1.238229 -0.1351999 0.7201329
v 1.360489 -0.07830677 1.121
v 1.164731 0.01388422 1.324006

vn -0.4621714 0.4925761 -0.7374051
vn 0.3343349 0.5046561 -0.7959538
vn -0.10093 0.85724 -0.5049285
vn 0.4903124 0.8704311 -0.04408474
vn -0.1869983 0.9544723 0.2324101
vn 0.06695716 0.8529577 0.5176678
vn -0.4556566 0.7411421 0.493037
vn -0.6972618 0.7159332 -0.03557614
vn -0.307421 0.9142218 0.2639904
vn -0.2003594 0.9512987 -0.2342796
vn 0.2701175 0.9610173 0.05901178
vn -0.7077673 0.7051297 -0.04310095
vn 0.3413548 0.707931 -0.6183127
vn -0.3977402 0.5847844 -0.7069865
vn -0.0625758 0.9765446 -0.2060215
vn 0.4235625 0.9058636 0.002459109
vn -0.02680808 0.9141158 0.4045659
vn -0.5625744 0.7997329 0.2096124
vn -0.5751312 0.7061782 -0.4129606
vn -0.01010858 0.7009044 -0.7131836
vn 0.4157832 0.7628482 -0.4951635

vt 0.2322998 0.722168
vt 0.2139893 0.7592773
vt 0.2314453 0.7470703
vt 0.2440186 0.7788086
vt 0.2480469 0.7514648
vt 0.2592773 0.7705078
vt 0.265625 0.7431641
vt 0.2553711 0.7280273
vt 0.2298584 0.7851563
vt 0.2045898 0.8041992
vt 0.2371826 0.815918
vt 0.203125 0.7792969
vt 0.2050781 0.831543
vt 0.1813965 0.7978516
vt 0.2773438 0.8071289
vt 0.2497559 0.8139648
vt 0.2700195 0.8330078
vt 0.2941895 0.8271484
vt 0.3017578 0.793457
vt 0.2758789 0.7792969
vt 0.2578125 0.7890625

g Rock1_(9)_1394_357
usemtl Rock1_(9)_1394_357
usemap Rock1_(9)_1394_357
f 1/1/1 3/3/3 2/2/2
f 4/4/4 2/2/2 3/3/3
f 3/3/3 5/5/5 4/4/4
f 6/6/6 4/4/4 5/5/5
f 5/5/5 7/7/7 6/6/6
f 5/5/5 3/3/3 8/8/8
f 8/8/8 3/3/3 1/1/1
f 5/5/5 8/8/8 7/7/7
f 9/9/9 11/11/11 10/10/10
f 10/10/10 12/12/12 9/9/9
f 13/13/13 10/10/10 11/11/11
f 10/10/10 13/13/13 14/14/14
f 12/12/12 10/10/10 14/14/14
f 15/15/15 17/17/17 16/16/16
f 15/15/15 18/18/18 17/17/17
f 19/19/19 18/18/18 15/15/15
f 20/20/20 19/19/19 15/15/15
f 15/15/15 21/21/21 20/20/20
f 15/15/15 16/16/16 21/21/21
