#Rock6_(13)_2715_150.obj

v -1.236714 3.209405 0.3464084
v -1.474788 2.872101 -1.102166
v -1.562955 4.526831 -1.224278
v -1.281775 4.841282 0.02394491
v -1.151258 4.899974 -1.929438
v -1.016894 2.822655 -1.835113
v -1.020241 1.809068 -2.316538
v -0.548199 3.117438 -2.707598
v 0.621846 1.730926 -2.873071
v 0.272121 4.178768 -2.267882
v -1.151258 4.899974 -1.929438
v 0.6092305 3.360725 -3.12541
v -0.01488272 5.13487 -1.873339
v 0.8313038 5.230927 -1.022463
v 1.039688 3.768537 -1.387336
v 1.360361 3.983282 -0.3570548
v 1.97557 3.733561 -0.9577474
v 2.106189 2.792788 -1.454771
v 0.9009907 3.958027 -2.628182
v 1.931775 2.928857 -2.678801
v 2.514097 1.132488 -1.114856
v 1.703069 1.427734 -2.834967
v 3.028779 0.3228217 -1.658863
v 2.479301 0.1984252 -2.867004
v 2.180639 -0.5407414 -1.783578
v 2.733009 1.788073 -0.6602167
v 1.701104 3.698973 0.3687846
v 1.886443 2.360494 1.176385
v 0.9965035 3.311402 0.9016137
v 0.2387267 1.849801 0.9230335
v 0.3801671 1.895067 1.918862
v -0.4070324 1.425858 1.621718
v 2.320271 1.594342 0.8071156
v 1.376622 2.152632 1.792226
v 2.123566 1.388564 2.654403
v 3.073163 0.7066534 2.030955
v 3.056271 1.85684 0.195531
v 2.733009 1.788073 -0.6602167
v 1.853985 0.726258 3.383933
v 4.049132 -0.4276555 1.033546
v 0.885151 -0.5281102 3.081409
v -0.2444077 0.627618 2.617981
v -0.01758598 3.073839 0.6209685
v 0.9617513 3.805691 0.361509
v -0.6993096 4.407137 0.5812404
v 3.516592 1.319851 -1.033937
v 4.563239 0.2715785 -0.5201267
v 3.028779 0.3228217 -1.658863
v 2.180639 -0.5407414 -1.783578
v 4.12296 -0.5214713 -0.2905171
v 4.018274 0.6980371 0.9017951
v 2.514097 1.132488 -1.114856
v 0.3700404 4.678805 0.3088628
v 0.1843594 -0.5258934 2.745474
v -0.3405143 -0.5715036 2.032531
v 0.3592249 0.3622345 -3.266106
v -0.5635178 1.316723 -2.314861
v 1.661061 -0.02172414 -3.327481
v 0.8281087 -0.5455053 -3.003251
v -0.7060168 -0.4598512 -2.542685
v -1.741649 2.206295 -0.8956684
v -2.528666 1.464055 -0.6106958
v -1.713919 0.6600761 -3.075068
v -1.068738 -0.5076558 -2.763051
v -2.385828 -0.5129777 -3.040935
v -3.120958 0.2592432 -2.693191
v -4.480312 0.6077139 -0.8795214
v -4.133266 -0.5229296 -1.524204
v -2.605875 1.973176 0.266671
v -1.459229 2.196388 0.4325115
v -2.853493 1.084525 0.695002
v -1.32915 2.105422 1.679049
v -3.949997 1.043734 -0.1139415
v -3.451683 -0.463022 0.4123372
v -2.452757 1.584432 1.504686
v -2.939087 0.4809864 1.723796
v -2.473326 -0.5236428 0.7772784
v -2.447233 -0.4485819 1.535059
v -1.735516 -0.4811366 2.399978
v -2.08057 1.310773 2.344725
v -0.8963702 0.8641605 2.904368
v -0.2444077 0.627618 2.617981
v -0.3405143 -0.5715036 2.032531
v -0.4070324 1.425858 1.621718
v -0.8118821 2.160965 1.098282
v 0.2387267 1.849801 0.9230335
v -4.303099 -0.4561064 -0.5345953
v -0.2849403 2.534728 1.128039
v -0.01758598 3.073839 0.6209685
v -0.6993096 4.407137 0.5812404
v -0.5402154 5.228827 -0.2612748
v 0.3700404 4.678805 0.3088628
v 0.8313038 5.230927 -1.022463
v -0.01488272 5.13487 -1.873339
v -1.151258 4.899974 -1.929438

vn -0.6188669 0.2592962 0.7414643
vn -0.9854247 0.1119816 -0.1280562
vn -0.9728794 0.171937 0.1547369
vn -0.6006492 0.598763 0.5298144
vn -0.734876 0.5139984 -0.4424508
vn -0.8900582 0.2125862 -0.4032412
vn -0.8678808 -0.09348766 -0.4878965
vn -0.7567431 0.2627598 -0.5985792
vn -0.3939157 0.02278011 -0.9188643
vn -0.1276869 0.6402245 -0.7575016
vn -0.734876 0.5139984 -0.4424508
vn -0.2198675 0.2773335 -0.9352778
vn -0.0100368 0.8400252 -0.5424544
vn 0.6406482 0.7107748 -0.2904632
vn 0.5513818 0.687723 -0.4722449
vn 0.6176054 0.7857049 0.03509129
vn 0.597581 0.706033 -0.380019
vn 0.7388253 0.465468 -0.4873158
vn 0.3929853 0.820181 -0.4157714
vn 0.6519568 0.3134167 -0.6904508
vn 0.5452776 0.4014389 -0.7358798
vn 0.3659968 0.2542386 -0.8952145
vn 0.5447457 0.1694264 -0.821308
vn 0.607197 -0.2158346 -0.7646746
vn 0.4195213 -0.6642826 -0.6186521
vn 0.6937438 0.6418281 -0.3267665
vn 0.6151537 0.7137004 0.3349891
vn 0.5399507 0.6574432 0.5255681
vn 0.09243786 0.481303 0.8716666
vn 0.128374 0.5514535 0.8242689
vn -0.2772239 0.8430533 0.4608774
vn 0.1802123 0.8325457 0.5238236
vn 0.6069087 0.7563229 0.2442078
vn 0.3530862 0.7975242 0.4891681
vn 0.6063004 0.7296562 0.3162303
vn 0.7447559 0.5235543 0.4137987
vn 0.44449 0.8933702 0.06571381
vn 0.6937438 0.6418281 -0.3267665
vn 0.3881619 0.3601178 0.8483192
vn 0.9211704 -0.1718875 0.3491415
vn 0.08580945 -0.2119215 0.9735122
vn 0.05541579 0.209909 0.9761493
vn 0.1718557 0.3590254 0.9173692
vn 0.3382192 0.6043571 0.7213601
vn 0.08194821 0.3320666 0.9396895
vn 0.2455434 0.6760453 -0.6947454
vn 0.8536566 0.04877751 -0.5185471
vn 0.5447457 0.1694264 -0.821308
vn 0.4195213 -0.6642826 -0.6186521
vn 0.6946851 -0.5295672 -0.4867969
vn 0.8769118 0.4197555 0.2341604
vn 0.5452776 0.4014389 -0.7358798
vn 0.5318923 0.6182205 0.5787002
vn -0.4529282 -0.1471811 0.8793144
vn -0.1544976 -0.3909336 0.9073596
vn -0.5182611 0.0003232931 -0.8552225
vn -0.5223327 0.150817 -0.839299
vn 0.05860847 -0.2291787 -0.9716184
vn -0.1890876 -0.5822027 -0.7907502
vn -0.3588794 -0.07199582 -0.9306031
vn -0.9254863 0.3709733 -0.07651074
vn -0.5263573 0.7743115 -0.3512686
vn -0.2263809 0.4539614 -0.8617834
vn 0.225462 -0.004566381 -0.9742413
vn -0.4543148 -0.09996416 -0.8852148
vn -0.6988966 0.3971216 -0.5948428
vn -0.8928896 0.447575 -0.04924259
vn -0.9305978 -0.1326384 -0.3411669
vn -0.4700459 0.8361113 0.2827981
vn -0.4471216 0.7392719 0.5035467
vn -0.7022511 0.3720253 0.6069931
vn 0.08739671 0.9250806 0.3695779
vn -0.6503457 0.4953055 0.5759539
vn -0.3939751 0.01214054 0.919041
vn -0.6236562 0.7026104 0.3426244
vn -0.8002171 -0.0219943 0.5993069
vn -0.6516906 -0.1565553 0.7421522
vn -0.869909 -0.3964908 0.2933483
vn -0.08892135 -0.3375011 0.9371158
vn -0.3413286 0.3979436 0.851549
vn 0.2507464 0.2753493 0.9280674
vn 0.05541579 0.209909 0.9761493
vn -0.1544976 -0.3909336 0.9073596
vn 0.1802123 0.8325457 0.5238236
vn 0.1352368 0.590334 0.7957492
vn 0.128374 0.5514535 0.8242689
vn -0.8203212 -0.06575603 0.5681103
vn 0.2835113 0.3614806 0.8882304
vn 0.1718557 0.3590254 0.9173692
vn 0.08194821 0.3320666 0.9396895
vn -0.04209794 0.9483293 0.3144828
vn 0.5318923 0.6182205 0.5787002
vn 0.6406482 0.7107748 -0.2904632
vn -0.0100368 0.8400252 -0.5424544
vn -0.734876 0.5139984 -0.4424508

vt 0.8231459 0.1412811
vt 0.7883072 0.1687649
vt 0.8248338 0.191771
vt 0.84566 0.1732586
vt 0.8281713 0.2130635
vt 0.7788596 0.1915323
vt 0.7468348 0.193715
vt 0.773026 0.217105
vt 0.7331188 0.2392735
vt 0.8012317 0.2414989
vt 0.8281713 0.2130635
vt 0.7714517 0.2431242
vt 0.829016 0.2385388
vt 0.8406981 0.2669347
vt 0.8023803 0.2772322
vt 0.8205258 0.3028347
vt 0.7974706 0.3012469
vt 0.7706497 0.3005626
vt 0.786665 0.2525096
vt 0.7615646 0.2723642
vt 0.7297045 0.3246586
vt 0.7256798 0.2698756
vt 0.696672 0.320396
vt 0.6931584 0.2864413
vt 0.6630096 0.301508
vt 0.7531115 0.3356102
vt 0.8181403 0.3254004
vt 0.8071356 0.3668394
vt 0.8341107 0.3410686
vt 0.8549328 0.3773758
vt 0.8416806 0.398488
vt 0.8653755 0.4045208
vt 0.7803735 0.3730094
vt 0.8179173 0.3865156
vt 0.8010911 0.4124908
vt 0.7720816 0.4171657
vt 0.755937 0.3696103
vt 0.7446331 0.3487687
vt 0.8067919 0.4320129
vt 0.7327688 0.4310905
vt 0.8150444 0.4643281
vt 0.8521799 0.4378246
vt 0.8611558 0.3451616
vt 0.8371004 0.3210829
vt 0.8855886 0.3146266
vt 0.7253577 0.3645383
vt 0.7163779 0.3963445
vt 0.6937345 0.3599196
vt 0.6639279 0.3623682
vt 0.7020375 0.4103533
vt 0.7440964 0.4062354
vt 0.7208988 0.3403848
vt 0.8582302 0.3018931
vt 0.8355261 0.4668562
vt 0.8579786 0.4733487
vt 0.6962927 0.2339922
vt 0.7284594 0.1980938
vt 0.6880827 0.2651151
vt 0.6692902 0.247075
vt 0.674421 0.2010314
vt 0.7728432 0.1515844
vt 0.7519697 0.1265733
vt 0.6971474 0.1702068
vt 0.6706434 0.1913131
vt 0.6658697 0.1530285
vt 0.6890605 0.13556
vt 0.7127712 0.09072217
vt 0.6814806 0.09158267
vt 0.7718416 0.1082462
vt 0.8034384 0.1185296
vt 0.7665408 0.07984909
vt 0.8193972 0.0893054
vt 0.7351359 0.09025647
vt 0.7303844 0.04961941
vt 0.7920786 0.0756284
vt 0.7814513 0.0529465
vt 0.7535622 0.03513337
vt 0.7729272 0.02911376
vt 0.8041271 0.0184969
vt 0.8069574 0.06217192
vt 0.8319979 0.04845675
vt 0.8492523 0.04448332
vt 0.8432182 0.007874016
vt 0.8451563 0.07968558
vt 0.8294708 0.1042833
vt 0.8606667 0.0985227
vt 0.7006772 0.06793586
vt 0.8438517 0.1120525
vt 0.8527588 0.1271803
vt 0.8559108 0.1568392
vt 0.8597613 0.1855388
vt 0.8854554 0.1709481
vt 0.886409 0.2135766
vt 0.8558985 0.2265289
vt 0.8281713 0.2130635

g Rock6_(13)_2715_150
usemtl Rock6_(13)_2715_150
usemap Rock6_(13)_2715_150
f 1/1/1 3/3/3 2/2/2
f 1/1/1 4/4/4 3/3/3
f 3/3/3 5/5/5 2/2/2
f 5/5/5 3/3/3 4/4/4
f 2/2/2 5/5/5 6/6/6
f 2/2/2 6/6/6 7/7/7
f 6/6/6 8/8/8 7/7/7
f 7/7/7 8/8/8 9/9/9
f 10/10/10 8/8/8 6/6/6
f 10/10/10 6/6/6 11/11/11
f 9/9/9 8/8/8 12/12/12
f 12/12/12 8/8/8 10/10/10
f 10/10/10 5/5/5 13/13/13
f 13/13/13 14/14/14 10/10/10
f 15/15/15 10/10/10 14/14/14
f 15/15/15 14/14/14 16/16/16
f 17/17/17 15/15/15 16/16/16
f 18/18/18 15/15/15 17/17/17
f 18/18/18 19/19/19 15/15/15
f 10/10/10 19/19/19 12/12/12
f 10/10/10 15/15/15 19/19/19
f 18/18/18 20/20/20 19/19/19
f 20/20/20 12/12/12 19/19/19
f 20/20/20 18/18/18 21/21/21
f 22/22/22 20/20/20 21/21/21
f 12/12/12 20/20/20 22/22/22
f 22/22/22 9/9/9 12/12/12
f 21/21/21 23/23/23 22/22/22
f 24/24/24 22/22/22 23/23/23
f 25/25/25 24/24/24 23/23/23
f 18/18/18 17/17/17 26/26/26
f 18/18/18 26/26/26 21/21/21
f 17/17/17 27/27/27 26/26/26
f 17/17/17 16/16/16 27/27/27
f 27/27/27 28/28/28 26/26/26
f 28/28/28 27/27/27 29/29/29
f 29/29/29 30/30/30 28/28/28
f 30/30/30 31/31/31 28/28/28
f 30/30/30 32/32/32 31/31/31
f 26/26/26 28/28/28 33/33/33
f 34/34/34 33/33/33 28/28/28
f 28/28/28 31/31/31 34/34/34
f 34/34/34 35/35/35 33/33/33
f 36/36/36 33/33/33 35/35/35
f 36/36/36 37/37/37 33/33/33
f 37/37/37 38/38/38 33/33/33
f 36/36/36 35/35/35 39/39/39
f 34/34/34 39/39/39 35/35/35
f 34/34/34 31/31/31 39/39/39
f 36/36/36 39/39/39 40/40/40
f 39/39/39 41/41/41 40/40/40
f 39/39/39 42/42/42 41/41/41
f 31/31/31 42/42/42 39/39/39
f 31/31/31 32/32/32 42/42/42
f 29/29/29 43/43/43 30/30/30
f 29/29/29 44/44/44 43/43/43
f 44/44/44 45/45/45 43/43/43
f 46/46/46 38/38/38 37/37/37
f 37/37/37 47/47/47 46/46/46
f 48/48/48 46/46/46 47/47/47
f 49/49/49 48/48/48 47/47/47
f 50/50/50 49/49/49 47/47/47
f 47/47/47 40/40/40 50/50/50
f 47/47/47 51/51/51 40/40/40
f 47/47/47 37/37/37 51/51/51
f 51/51/51 37/37/37 36/36/36
f 40/40/40 51/51/51 36/36/36
f 48/48/48 52/52/52 46/46/46
f 52/52/52 38/38/38 46/46/46
f 53/53/53 45/45/45 44/44/44
f 16/16/16 53/53/53 44/44/44
f 16/16/16 14/14/14 53/53/53
f 41/41/41 42/42/42 54/54/54
f 55/55/55 54/54/54 42/42/42
f 44/44/44 27/27/27 16/16/16
f 29/29/29 27/27/27 44/44/44
f 56/56/56 57/57/57 9/9/9
f 56/56/56 9/9/9 58/58/58
f 56/56/56 58/58/58 59/59/59
f 60/60/60 57/57/57 56/56/56
f 59/59/59 60/60/60 56/56/56
f 58/58/58 25/25/25 59/59/59
f 9/9/9 22/22/22 58/58/58
f 7/7/7 9/9/9 57/57/57
f 61/61/61 7/7/7 57/57/57
f 57/57/57 62/62/62 61/61/61
f 63/63/63 62/62/62 57/57/57
f 64/64/64 63/63/63 57/57/57
f 64/64/64 57/57/57 60/60/60
f 65/65/65 63/63/63 64/64/64
f 66/66/66 63/63/63 65/65/65
f 63/63/63 66/66/66 62/62/62
f 62/62/62 66/66/66 67/67/67
f 68/68/68 67/67/67 66/66/66
f 68/68/68 66/66/66 65/65/65
f 62/62/62 69/69/69 61/61/61
f 61/61/61 69/69/69 70/70/70
f 70/70/70 69/69/69 71/71/71
f 71/71/71 72/72/72 70/70/70
f 71/71/71 69/69/69 73/73/73
f 62/62/62 73/73/73 69/69/69
f 62/62/62 67/67/67 73/73/73
f 71/71/71 73/73/73 74/74/74
f 71/71/71 75/75/75 72/72/72
f 75/75/75 71/71/71 76/76/76
f 74/74/74 77/77/77 71/71/71
f 77/77/77 78/78/78 71/71/71
f 71/71/71 78/78/78 76/76/76
f 79/79/79 76/76/76 78/78/78
f 79/79/79 80/80/80 76/76/76
f 80/80/80 72/72/72 75/75/75
f 80/80/80 75/75/75 76/76/76
f 80/80/80 79/79/79 81/81/81
f 80/80/80 81/81/81 72/72/72
f 81/81/81 79/79/79 82/82/82
f 81/81/81 82/82/82 72/72/72
f 79/79/79 83/83/83 82/82/82
f 72/72/72 82/82/82 84/84/84
f 84/84/84 85/85/85 72/72/72
f 85/85/85 70/70/70 72/72/72
f 86/86/86 85/85/85 84/84/84
f 74/74/74 73/73/73 87/87/87
f 87/87/87 73/73/73 67/67/67
f 67/67/67 68/68/68 87/87/87
f 85/85/85 86/86/86 88/88/88
f 88/88/88 86/86/86 89/89/89
f 89/89/89 1/1/1 88/88/88
f 88/88/88 1/1/1 85/85/85
f 89/89/89 90/90/90 1/1/1
f 85/85/85 1/1/1 70/70/70
f 61/61/61 70/70/70 1/1/1
f 90/90/90 4/4/4 1/1/1
f 61/61/61 1/1/1 2/2/2
f 61/61/61 2/2/2 7/7/7
f 90/90/90 91/91/91 4/4/4
f 91/91/91 90/90/90 92/92/92
f 92/92/92 93/93/93 91/91/91
f 94/94/94 91/91/91 93/93/93
f 94/94/94 95/95/95 91/91/91
f 4/4/4 91/91/91 5/5/5
f 58/58/58 24/24/24 25/25/25
f 22/22/22 24/24/24 58/58/58
