#Rock1_(19)_2539_172.obj

v 1.359645 0.01363938 -1.331417
v 1.319726 0.0135592 -0.6880801
v 1.242805 0.3054046 -0.9745826
v 0.7728517 0.0130343 -0.6084445
v 0.8926864 0.3021292 -1.035026
v 0.6144432 0.01404162 -0.8384168
v 0.7336743 0.01400771 -1.254676
v 0.9861465 0.01364693 -1.401168
v -1.389587 0.0130544 -0.1851246
v -0.8538232 0.3122752 -0.05576344
v -1.340662 0.01365911 0.3263134
v -1.002401 0.01367842 -0.4037314
v -0.760537 0.01336455 0.3632283
v -0.5729716 0.01361182 -0.2637467
v 1.001594 0.2855606 0.989944
v 0.8173001 0.01372173 1.366726
v 0.6242107 0.01373066 1.022429
v 0.7892014 0.01374345 0.7045475
v 1.267396 0.01349095 0.6808916
v 1.391288 0.0137456 1.085276
v 1.188961 0.01373536 1.302292

vn 0.2559901 0.6754879 -0.6915094
vn 0.7803704 0.6185585 -0.0916923
vn 0.2520361 0.9472646 -0.1979081
vn 0.241321 0.8072798 0.5385755
vn -0.3937945 0.9017841 0.1780767
vn -0.4566587 0.7196128 0.5230872
vn -0.7401983 0.6684923 0.0722807
vn -0.4642078 0.7751098 -0.4286209
vn -0.4871698 0.8683699 0.0927328
vn -0.0317801 0.9942888 -0.1018811
vn 0.01794022 0.896966 0.4417354
vn -0.4634674 0.767167 -0.4434556
vn 0.6231672 0.7799987 0.0571385
vn 0.2612705 0.7526576 -0.6043544
vn 0.02616156 0.9992471 0.02865
vn 0.1606795 0.8391455 0.5196315
vn -0.4296952 0.8115103 0.3959963
vn -0.5859504 0.7936142 -0.1638251
vn -0.09075488 0.8294712 -0.5511272
vn 0.4875818 0.8278425 -0.277382
vn 0.5647937 0.8011036 0.1980936

vt 0.232352 0.7225032
vt 0.2140789 0.7594889
vt 0.2315052 0.7471936
vt 0.2440251 0.7788215
vt 0.2481601 0.7518374
vt 0.25929 0.7707678
vt 0.2656842 0.7432095
vt 0.2554635 0.7281532
vt 0.2299451 0.7854984
vt 0.2046784 0.8044612
vt 0.2372313 0.8160826
vt 0.2031385 0.7796935
vt 0.2051533 0.8319056
vt 0.1814293 0.7981536
vt 0.2774515 0.8074797
vt 0.2498153 0.8143666
vt 0.2700397 0.8334671
vt 0.2944277 0.8271991
vt 0.3019956 0.793874
vt 0.2759953 0.7793822
vt 0.257976 0.7891733

g Rock1_(19)_2539_172
usemtl Rock1_(19)_2539_172
usemap Rock1_(19)_2539_172
f 1/1/1 3/3/3 2/2/2
f 4/4/4 2/2/2 3/3/3
f 3/3/3 5/5/5 4/4/4
f 6/6/6 4/4/4 5/5/5
f 5/5/5 7/7/7 6/6/6
f 5/5/5 3/3/3 8/8/8
f 8/8/8 3/3/3 1/1/1
f 5/5/5 8/8/8 7/7/7
f 9/9/9 11/11/11 10/10/10
f 10/10/10 12/12/12 9/9/9
f 13/13/13 10/10/10 11/11/11
f 10/10/10 13/13/13 14/14/14
f 12/12/12 10/10/10 14/14/14
f 15/15/15 17/17/17 16/16/16
f 15/15/15 18/18/18 17/17/17
f 19/19/19 18/18/18 15/15/15
f 20/20/20 19/19/19 15/15/15
f 15/15/15 21/21/21 20/20/20
f 15/15/15 16/16/16 21/21/21
