#Rock4_(19)_3161_184.obj

v 2.806034 -0.153419 1.482059
v 2.816244 -0.6812705 0.6472054
v 2.179823 -0.6824969 2.272053
v 1.905262 1.124366 2.529346
v -0.2794576 -0.6814005 2.822544
v -0.3288655 0.8453609 2.878361
v 0.8647895 1.906564 1.319347
v -1.590117 0.9082176 1.738178
v -0.6235905 1.491049 0.9438972
v -0.4975863 1.790203 -0.150135
v 0.8974471 1.988556 0.4241371
v -0.6689215 1.217003 -1.344929
v 2.243443 1.329204 0.6054268
v 2.287332 1.0351 1.77145
v 1.701681 1.703403 -1.321247
v 0.9749289 1.228819 -2.62495
v -0.6295271 0.6841912 -2.452518
v 0.02422523 -0.6686768 -2.934452
v 1.829302 -0.6579061 -2.407063
v 3.256219 0.1926568 -0.846386
v 2.863207 1.324946 -0.6486778
v 3.186819 0.130288 -0.05233383
v 2.744086 -0.6693901 0.03046799
v -0.7309299 -0.6840672 -2.31506
v -1.366666 1.936623 -0.1562614
v -1.860438 1.00685 -1.428867
v -1.177228 0.7236121 -1.870274
v -1.322145 -0.6717586 -1.751591
v -2.081702 -0.6806435 -1.885578
v -1.322145 -0.6717586 -1.751591
v -3.230696 -0.6815352 -0.8521004
v -2.350948 0.6991758 -0.2837715
v -2.61745 1.243698 0.2813606
v -1.250541 1.615895 1.356915
v -2.317161 0.4223207 1.063587
v -2.451803 -0.6820597 1.399891
v -1.590117 0.9082176 1.738178
v -1.080169 -0.6822007 1.263035
v -2.209348 1.1696 1.459095
v -0.8712621 -0.6822576 2.404598
v -1.080169 -0.6822007 1.263035
v 2.816244 -0.6812705 0.6472054

vn 0.9474532 0.07445324 0.3111096
vn 0.9894347 -0.009804276 0.1446474
vn 0.669503 -0.20961 0.7126215
vn 0.5150436 0.3871966 0.7647281
vn -0.07209741 -0.06625583 0.9951945
vn -0.3425145 0.4014529 0.8494229
vn -0.02144554 0.9631443 0.268129
vn -0.4506342 0.2762029 0.8489056
vn 0.09129134 0.9076598 0.4096578
vn -0.02679477 0.9974744 -0.06577828
vn 0.2644058 0.9520851 -0.1536994
vn -0.08171052 0.9030116 -0.4217743
vn 0.6005376 0.7793174 0.1789385
vn 0.7439328 0.6586275 0.1130211
vn 0.1064078 0.9875159 -0.116146
vn 0.2481561 0.5731536 -0.7809696
vn -0.5167042 0.4293207 -0.7407432
vn -0.1964556 0.08512955 -0.9768102
vn 0.6330075 -0.1726226 -0.7546542
vn 0.9297722 -0.06898199 -0.3616146
vn 0.7570893 0.6394799 -0.1337213
vn 0.968883 -0.004437809 0.2474792
vn 0.8224846 -0.557462 -0.1129394
vn -0.6850991 -0.01182441 -0.728354
vn -0.2035344 0.9571607 -0.2059544
vn -0.5258736 0.6247711 -0.5771638
vn -0.4196814 0.3478024 -0.838392
vn -0.2894199 -0.05123875 -0.9558299
vn -0.3286388 0.1692421 -0.9291682
vn -0.2894199 -0.05123875 -0.9558299
vn -0.8921688 0.4337719 -0.1260034
vn -0.8829977 0.4114576 -0.2258712
vn -0.8664116 0.4992763 -0.007357582
vn -0.02402635 0.8361201 0.5480199
vn -0.9177266 0.03925127 0.3952685
vn -0.637813 0.09273732 0.7645876
vn -0.4506342 0.2762029 0.8489056
vn -0.5422242 -0.3953535 0.7414098
vn -0.6424182 0.33406 0.689712
vn -0.7748874 -0.138201 0.6168063
vn -0.5422242 -0.3953535 0.7414098
vn 0.9894347 -0.009804276 0.1446474

vt 0.08177406 0.5590136
vt 0.09337166 0.5343032
vt 0.04984022 0.5668743
vt 0.07907501 0.6002782
vt 0.0183186 0.6322125
vt 0.05435452 0.6444781
vt 0.1010552 0.6283724
vt 0.06499068 0.6908395
vt 0.09687583 0.6673691
vt 0.1271943 0.66826
vt 0.1208732 0.6303694
vt 0.1603776 0.6804302
vt 0.1261647 0.5914518
vt 0.09427693 0.5895411
vt 0.1666452 0.6231167
vt 0.1920493 0.643589
vt 0.1925114 0.6826488
vt 0.2348071 0.668623
vt 0.2283528 0.6106274
vt 0.1792248 0.5798343
vt 0.1616471 0.5949689
vt 0.1681622 0.5665238
vt 0.183495 0.5468985
vt 0.2263156 0.6977318
vt 0.1229426 0.68769
vt 0.1551462 0.7108501
vt 0.1785464 0.7014391
vt 0.2175588 0.719762
vt 0.1791399 0.7528989
vt 0.1975867 0.7400464
vt 0.1361288 0.7713462
vt 0.1228323 0.7246453
vt 0.1078977 0.7130938
vt 0.08812189 0.6831443
vt 0.08343585 0.7236099
vt 0.06631079 0.7518926
vt 0.06499068 0.6908395
vt 0.0289535 0.7338564
vt 0.08262382 0.7026785
vt 0.01535734 0.6549521
vt 0.008841153 0.6885316
vt 0.1643098 0.5378069

g Rock4_(19)_3161_184
usemtl Rock4_(19)_3161_184
usemap Rock4_(19)_3161_184
f 1/1/1 3/3/3 2/2/2
f 4/4/4 3/3/3 1/1/1
f 4/4/4 5/5/5 3/3/3
f 6/6/6 5/5/5 4/4/4
f 6/6/6 4/4/4 7/7/7
f 8/8/8 6/6/6 7/7/7
f 9/9/9 8/8/8 7/7/7
f 10/10/10 9/9/9 7/7/7
f 10/10/10 7/7/7 11/11/11
f 11/11/11 12/12/12 10/10/10
f 13/13/13 12/12/12 11/11/11
f 2/2/2 13/13/13 14/14/14
f 14/14/14 13/13/13 11/11/11
f 14/14/14 11/11/11 7/7/7
f 2/2/2 14/14/14 1/1/1
f 4/4/4 14/14/14 7/7/7
f 4/4/4 1/1/1 14/14/14
f 15/15/15 12/12/12 13/13/13
f 15/15/15 16/16/16 12/12/12
f 16/16/16 17/17/17 12/12/12
f 16/16/16 18/18/18 17/17/17
f 16/16/16 19/19/19 18/18/18
f 20/20/20 19/19/19 16/16/16
f 21/21/21 20/20/20 16/16/16
f 21/21/21 16/16/16 15/15/15
f 21/21/21 15/15/15 13/13/13
f 21/21/21 13/13/13 22/22/22
f 20/20/20 21/21/21 22/22/22
f 23/23/23 19/19/19 20/20/20
f 20/20/20 22/22/22 23/23/23
f 24/24/24 17/17/17 18/18/18
f 10/10/10 12/12/12 25/25/25
f 26/26/26 25/25/25 12/12/12
f 26/26/26 12/12/12 27/27/27
f 24/24/24 27/27/27 17/17/17
f 17/17/17 27/27/27 12/12/12
f 24/24/24 28/28/28 27/27/27
f 29/29/29 26/26/26 27/27/27
f 30/30/30 29/29/29 27/27/27
f 31/31/31 26/26/26 29/29/29
f 31/31/31 32/32/32 26/26/26
f 32/32/32 25/25/25 26/26/26
f 25/25/25 32/32/32 33/33/33
f 25/25/25 33/33/33 34/34/34
f 32/32/32 31/31/31 35/35/35
f 33/33/33 32/32/32 35/35/35
f 36/36/36 35/35/35 31/31/31
f 35/35/35 36/36/36 37/37/37
f 36/36/36 38/38/38 37/37/37
f 39/39/39 33/33/33 35/35/35
f 39/39/39 35/35/35 37/37/37
f 39/39/39 37/37/37 34/34/34
f 33/33/33 39/39/39 34/34/34
f 25/25/25 34/34/34 9/9/9
f 34/34/34 37/37/37 9/9/9
f 10/10/10 25/25/25 9/9/9
f 6/6/6 37/37/37 40/40/40
f 41/41/41 40/40/40 37/37/37
f 5/5/5 6/6/6 40/40/40
f 42/42/42 22/22/22 13/13/13
f 42/42/42 23/23/23 22/22/22
