#Rock7_(3)_2906_70.obj

v 1.615951 3.193065 -2.161099
v 3.132355 1.194415 -0.4922115
v 2.897692 2.425517 -0.06586714
v 1.569538 0.9517951 -2.826765
v 2.834382 -0.7442831 -1.512516
v 3.099546 0.2564351 1.606969
v 0.683705 -0.7535412 -3.245452
v 1.676588 1.475424 1.172932
v 0.214823 1.546707 2.678754
v 2.501472 -0.7968525 0.132198
v 1.556725 -0.7498094 2.278557
v 2.074976 0.3480513 2.535216
v 0.1630582 0.5776561 2.623996
v -0.6810825 0.6300449 3.232362
v -1.515414 1.968689 1.958539
v -2.360528 0.3008705 1.470397
v -1.117783 -0.7968955 2.068394
v 0.1584422 -0.7991046 2.685827
v 1.109475 1.353776 -3.024926
v -0.126615 2.326372 2.046968
v -1.481532 -0.7449083 1.236203
v 2.208877 2.681625 1.311307
v 0.693734 4.483822 2.158692
v 2.31759 5.042902 1.360612
v 0.7400668 5.445632 1.525023
v -0.4545701 3.484607 1.318842
v -1.72723 2.148252 1.368505
v 2.385756 3.028052 0.2426168
v -0.6950359 5.634754 1.546691
v 2.320982 5.308785 0.3931363
v 1.64848 7.171652 0.9306908
v 2.002037 6.733125 -0.2960635
v -0.1711701 6.936234 1.305439
v -0.1711226 7.583107 -0.5060555
v -1.344392 6.7626 -0.02090978
v -1.15128 3.822648 0.5196971
v -1.72723 2.148252 1.368505
v -1.239282 7.767223 -1.128441
v -2.361238 7.152822 -0.6546625
v -1.863177 6.338925 -2.169154
v -3.225519 5.89585 -1.375835
v -1.225347 8.09833 -2.135026
v -0.2105401 7.634578 -3.464596
v -3.092327 5.122919 -0.54693
v -2.083911 3.741892 0.1901201
v -2.897503 3.555134 -0.7047942
v -3.294397 3.306284 0.2004819
v -2.375941 3.012727 -1.851252
v -2.783208 2.408935 1.221882
v -3.472234 0.878761 0.8497272
v -3.260846 -0.126028 -0.8064678
v -3.12412 2.764265 -1.206437
v -2.700509 1.088025 -1.749804
v -2.770785 -0.8007415 0.2292209
v -2.55061 -0.7935925 -1.212825
v -2.360528 0.3008705 1.470397
v -1.481532 -0.7449083 1.236203
v -1.191062 3.620928 -2.697503
v -1.412547 5.337087 -2.958854
v -2.800996 5.250596 -2.063205
v -0.8345677 5.65773 -2.933309
v -0.09679471 3.806098 -2.806485
v -0.09679471 3.806098 -2.806485
v 0.7788453 1.943347 -2.551094
v 0.9852557 3.828828 -2.436988
v 1.602459 6.012543 -1.667297
v 1.921089 3.803201 -0.8966365
v 1.084422 5.66496 -2.941415
v -0.2105401 7.634578 -3.464596
v 1.294122 7.675703 -2.547163
v 1.272865 7.50872 -0.6820715
v 1.64848 7.171652 0.9306908
v -2.375941 3.012727 -1.851252
v -2.700509 1.088025 -1.749804
v -2.522176 2.635783 -3.706369
v -2.347059 2.256927 -4.538728
v -2.025519 -0.7851376 -2.787934
v -1.243208 -0.7959746 -3.760692
v -2.55061 -0.7935925 -1.212825
v -1.59471 1.055416 -4.617254
v -0.5127857 1.969708 -4.754944
v 0.683705 -0.7535412 -3.245452
v 0.5173965 1.409735 -4.072237
v 1.109475 1.353776 -3.024926
v 0.2228313 3.086529 -4.087116
v -0.09679471 3.806098 -2.806485
v -1.873033 2.583151 -4.519817
v -0.09679471 3.806098 -2.806485
v -2.522176 2.635783 -3.706369
v -1.541233 2.130747 -4.633714
v -1.191062 3.620928 -2.697503
v -2.375941 3.012727 -1.851252
v 0.7788453 1.943347 -2.551094
v -1.873033 2.583151 -4.519817
v 1.64848 7.171652 0.9306908
v 1.272865 7.50872 -0.6820715
v 0.6615613 8.327022 -0.8944346
v 1.294122 7.675703 -2.547163
v -0.2105401 7.634578 -3.464596
v -1.225347 8.09833 -2.135026

vn 0.9665618 0.2083494 0.1494957
vn 0.6708772 0.2369885 0.7026808
vn 0.4201123 0.3266701 0.8466359
vn 0.9769881 0.2084167 0.04535109
vn 0.8312184 -0.2055834 0.516538
vn 0.163107 0.0570206 0.9849594
vn 0.9786253 -0.1938792 -0.06858072
vn -0.06637812 0.2715951 0.9601198
vn -0.5434763 0.5180077 0.6605312
vn 0.2476082 -0.6892244 0.6809257
vn -0.3845974 -0.2811692 0.8792206
vn -0.5462208 -0.002940032 0.8376362
vn -0.6858491 0.1910429 0.7022207
vn -0.8611795 0.05740277 0.5050493
vn -0.8342121 0.538218 0.1200491
vn -0.9747165 -0.206974 -0.08420014
vn -0.8385975 -0.5313354 -0.1201542
vn -0.7678044 -0.3824315 0.5140259
vn 0.8425676 0.292697 0.4521155
vn -0.7604113 0.4206752 0.4947801
vn -0.7527702 -0.6253631 -0.2055678
vn -0.1217051 -0.2133567 0.969364
vn -0.8386679 0.2356937 0.4910038
vn 0.01471493 0.3608481 0.9325086
vn -0.685181 0.367559 0.6288302
vn -0.9716747 0.2356154 0.01827034
vn -0.8548406 0.4988457 0.142831
vn 0.4917523 0.07445916 0.8675457
vn -0.9956648 0.07375825 0.05666819
vn 0.5461062 0.2351262 0.8040422
vn -0.1022578 0.6693006 0.7359213
vn 0.676921 0.4008967 0.6173005
vn -0.7465407 0.6140414 0.2561842
vn -0.537255 0.8159006 0.2136894
vn -0.8738127 0.4862623 -0.0006730556
vn -0.9190522 0.3890271 0.06325459
vn -0.8548406 0.4988457 0.142831
vn -0.5839746 0.7938252 -0.1697504
vn -0.7290043 0.6218505 -0.2861025
vn 0.1284913 0.4332559 -0.8920647
vn -0.334218 0.167775 -0.9274427
vn -0.2246919 0.7836762 -0.5791072
vn 0.6551499 0.3685521 -0.659506
vn -0.9487586 0.06416636 -0.3094187
vn -0.9149605 0.3954478 0.08042708
vn -0.5227666 0.2939075 -0.8002085
vn -0.6847791 0.5423119 -0.4868014
vn -0.06269643 0.1192013 -0.9908887
vn -0.9201424 0.309671 0.2396703
vn -0.9025477 -0.1518759 -0.4029161
vn -0.3380484 -0.2466284 -0.9082388
vn -0.1333042 0.216099 -0.9672287
vn -0.2262421 -0.08074944 -0.9707183
vn -0.7236872 -0.5838251 -0.3680015
vn -0.1679233 -0.3971778 -0.9022481
vn -0.9747165 -0.206974 -0.08420014
vn -0.7527702 -0.6253631 -0.2055678
vn 0.5352648 0.3165133 -0.7831417
vn 0.519082 0.08546878 -0.8504406
vn 0.1745823 0.1066481 -0.97885
vn 0.6364346 0.02069599 -0.7710531
vn 0.8486807 0.4027912 -0.3427832
vn 0.8486807 0.4027912 -0.3427832
vn 0.9400766 0.3407559 0.01189724
vn 0.995567 -0.04880117 -0.0804058
vn 0.8557715 0.1039466 0.5068039
vn 0.7670693 0.2322318 0.5980579
vn 0.9931792 -0.1080757 0.04376036
vn 0.6551499 0.3685521 -0.659506
vn 0.7746203 0.4465194 0.447866
vn 0.3129291 0.6794958 0.663597
vn -0.1022578 0.6693006 0.7359213
vn -0.06269643 0.1192013 -0.9908887
vn -0.2262421 -0.08074944 -0.9707183
vn -0.1691328 0.6617013 -0.7304419
vn 0.1271325 -0.03627771 -0.9912222
vn -0.2337767 -0.2699458 -0.9340652
vn 0.509901 -0.451951 -0.7319435
vn -0.1679233 -0.3971778 -0.9022481
vn 0.6018278 -0.2959768 -0.7417555
vn 0.9190498 -0.09698949 -0.3820219
vn 0.9786253 -0.1938792 -0.06858072
vn 0.98684 -0.04666831 0.154819
vn 0.8425676 0.292697 0.4521155
vn 0.8720762 0.4869877 0.04823235
vn 0.8486807 0.4027912 -0.3427832
vn 0.4081064 0.7799487 -0.474478
vn 0.8486807 0.4027912 -0.3427832
vn -0.1691328 0.6617013 -0.7304419
vn 0.7472592 0.2076781 -0.6312476
vn 0.5352648 0.3165133 -0.7831417
vn -0.06269643 0.1192013 -0.9908887
vn 0.9400766 0.3407559 0.01189724
vn 0.4383736 0.5171132 -0.7351345
vn -0.1022578 0.6693006 0.7359213
vn 0.3129291 0.6794958 0.663597
vn -0.1638672 0.947273 0.2753569
vn 0.7746203 0.4465194 0.447866
vn 0.6551499 0.3685521 -0.659506
vn -0.2246919 0.7836762 -0.5791072

vt 0.7295056 0.5002039
vt 0.6539292 0.5254137
vt 0.6804363 0.5453828
vt 0.6807258 0.4578963
vt 0.6171846 0.4812309
vt 0.6128387 0.5577188
vt 0.6504912 0.4155024
vt 0.6476479 0.5847154
vt 0.626544 0.6315622
vt 0.594101 0.5183485
vt 0.5717813 0.5843392
vt 0.6028988 0.5858964
vt 0.6011404 0.6273468
vt 0.5934781 0.6491198
vt 0.6286318 0.6768247
vt 0.5843328 0.7025191
vt 0.5548024 0.6647365
vt 0.5620188 0.6237779
vt 0.6955168 0.4504897
vt 0.6500131 0.6447117
vt 0.5507091 0.68826
vt 0.6788056 0.5856813
vt 0.7054418 0.6359378
vt 0.7285283 0.6022151
vt 0.7342326 0.6381418
vt 0.6790416 0.6695554
vt 0.6370343 0.6908599
vt 0.6944427 0.5606457
vt 0.733069 0.6739273
vt 0.7474282 0.5874555
vt 0.7899271 0.6274428
vt 0.7897649 0.5924087
vt 0.7644029 0.6661461
vt 0.8005254 0.6930101
vt 0.765565 0.7073752
vt 0.6900229 0.697772
vt 0.6380605 0.6980144
vt 0.8026155 0.729628
vt 0.7712401 0.7337366
vt 0.7773027 0.7755678
vt 0.7451969 0.7560835
vt 0.8195974 0.7539874
vt 0.8330649 0.8014684
vt 0.7221166 0.7450865
vt 0.6864738 0.7222704
vt 0.6879554 0.7606064
vt 0.669928 0.7465684
vt 0.688381 0.8000849
vt 0.6434162 0.7240624
vt 0.6123256 0.7480232
vt 0.5990074 0.7907449
vt 0.6714492 0.7808847
vt 0.6358641 0.8103409
vt 0.5717086 0.7689644
vt 0.5816119 0.80931
vt 0.58807 0.7242971
vt 0.5524985 0.7296537
vt 0.722491 0.8293291
vt 0.7616025 0.8073109
vt 0.7398993 0.7776347
vt 0.776459 0.8135923
vt 0.7407889 0.8530211
vt 0.7680588 0.4675249
vt 0.7148032 0.4605872
vt 0.7535107 0.4934667
vt 0.7907977 0.5490018
vt 0.7281957 0.5396935
vt 0.8003773 0.5131866
vt 0.8627629 0.5046434
vt 0.8418154 0.546726
vt 0.8165815 0.5899684
vt 0.7899271 0.6274428
vt 0.5645288 0.8054786
vt 0.513846 0.7904915
vt 0.5421942 0.8520726
vt 0.5270745 0.8723366
vt 0.4552413 0.8074423
vt 0.4409145 0.8383524
vt 0.4678135 0.7640884
vt 0.4876265 0.8689664
vt 0.4875035 0.904429
vt 0.4042833 0.8810499
vt 0.4553842 0.9160154
vt 0.4318545 0.9368724
vt 0.4944405 0.9423349
vt 0.4918875 0.9827017
vt 0.5235482 0.8878114
vt 0.5302235 0.9615694
vt 0.5497515 0.8859351
vt 0.5088468 0.8864585
vt 0.550778 0.9391959
vt 0.5885583 0.919957
vt 0.4406613 0.9576455
vt 0.5235482 0.8878114
vt 0.7899271 0.6274428
vt 0.8232609 0.6599153
vt 0.8255436 0.6851881
vt 0.8707227 0.6846035
vt 0.8744633 0.7313917
vt 0.8291687 0.7398788

g Rock7_(3)_2906_70
usemtl Rock7_(3)_2906_70
usemap Rock7_(3)_2906_70
f 1/1/1 3/3/3 2/2/2
f 4/4/4 1/1/1 2/2/2
f 4/4/4 2/2/2 5/5/5
f 2/2/2 6/6/6 5/5/5
f 4/4/4 5/5/5 7/7/7
f 8/8/8 6/6/6 2/2/2
f 8/8/8 2/2/2 3/3/3
f 8/8/8 9/9/9 6/6/6
f 6/6/6 10/10/10 5/5/5
f 11/11/11 10/10/10 6/6/6
f 6/6/6 12/12/12 11/11/11
f 12/12/12 6/6/6 9/9/9
f 13/13/13 11/11/11 12/12/12
f 9/9/9 13/13/13 12/12/12
f 14/14/14 11/11/11 13/13/13
f 15/15/15 14/14/14 13/13/13
f 15/15/15 13/13/13 9/9/9
f 14/14/14 15/15/15 16/16/16
f 14/14/14 16/16/16 17/17/17
f 14/14/14 17/17/17 18/18/18
f 14/14/14 18/18/18 11/11/11
f 19/19/19 4/4/4 7/7/7
f 9/9/9 8/8/8 20/20/20
f 15/15/15 9/9/9 20/20/20
f 16/16/16 21/21/21 17/17/17
f 20/20/20 8/8/8 22/22/22
f 23/23/23 20/20/20 22/22/22
f 24/24/24 23/23/23 22/22/22
f 25/25/25 23/23/23 24/24/24
f 23/23/23 25/25/25 26/26/26
f 26/26/26 20/20/20 23/23/23
f 20/20/20 26/26/26 27/27/27
f 16/16/16 15/15/15 27/27/27
f 15/15/15 20/20/20 27/27/27
f 24/24/24 22/22/22 28/28/28
f 25/25/25 29/29/29 26/26/26
f 30/30/30 24/24/24 28/28/28
f 30/30/30 25/25/25 24/24/24
f 31/31/31 25/25/25 30/30/30
f 32/32/32 31/31/31 30/30/30
f 25/25/25 31/31/31 33/33/33
f 33/33/33 29/29/29 25/25/25
f 31/31/31 34/34/34 33/33/33
f 34/34/34 35/35/35 33/33/33
f 29/29/29 33/33/33 35/35/35
f 35/35/35 36/36/36 29/29/29
f 29/29/29 36/36/36 26/26/26
f 26/26/26 36/36/36 37/37/37
f 35/35/35 34/34/34 38/38/38
f 39/39/39 35/35/35 38/38/38
f 38/38/38 40/40/40 39/39/39
f 39/39/39 40/40/40 41/41/41
f 38/38/38 42/42/42 40/40/40
f 42/42/42 43/43/43 40/40/40
f 44/44/44 39/39/39 41/41/41
f 45/45/45 39/39/39 44/44/44
f 35/35/35 39/39/39 45/45/45
f 36/36/36 35/35/35 45/45/45
f 45/45/45 44/44/44 46/46/46
f 41/41/41 46/46/46 44/44/44
f 46/46/46 47/47/47 45/45/45
f 36/36/36 45/45/45 47/47/47
f 41/41/41 48/48/48 46/46/46
f 49/49/49 36/36/36 47/47/47
f 37/37/37 36/36/36 49/49/49
f 49/49/49 47/47/47 50/50/50
f 50/50/50 47/47/47 51/51/51
f 51/51/51 47/47/47 52/52/52
f 52/52/52 46/46/46 48/48/48
f 46/46/46 52/52/52 47/47/47
f 53/53/53 52/52/52 48/48/48
f 51/51/51 52/52/52 53/53/53
f 54/54/54 50/50/50 51/51/51
f 54/54/54 51/51/51 55/55/55
f 51/51/51 53/53/53 55/55/55
f 49/49/49 50/50/50 56/56/56
f 56/56/56 50/50/50 54/54/54
f 57/57/57 56/56/56 54/54/54
f 37/37/37 49/49/49 56/56/56
f 58/58/58 48/48/48 59/59/59
f 59/59/59 48/48/48 60/60/60
f 60/60/60 40/40/40 59/59/59
f 59/59/59 40/40/40 61/61/61
f 59/59/59 61/61/61 58/58/58
f 40/40/40 43/43/43 61/61/61
f 62/62/62 61/61/61 43/43/43
f 58/58/58 61/61/61 62/62/62
f 60/60/60 41/41/41 40/40/40
f 48/48/48 41/41/41 60/60/60
f 63/63/63 65/65/65 64/64/64
f 65/65/65 1/1/1 64/64/64
f 65/65/65 66/66/66 1/1/1
f 1/1/1 66/66/66 67/67/67
f 67/67/67 66/66/66 30/30/30
f 65/65/65 68/68/68 66/66/66
f 63/63/63 68/68/68 65/65/65
f 69/69/69 68/68/68 63/63/63
f 70/70/70 68/68/68 69/69/69
f 68/68/68 70/70/70 66/66/66
f 64/64/64 1/1/1 4/4/4
f 71/71/71 66/66/66 70/70/70
f 66/66/66 32/32/32 30/30/30
f 66/66/66 71/71/71 32/32/32
f 72/72/72 32/32/32 71/71/71
f 1/1/1 67/67/67 3/3/3
f 64/64/64 4/4/4 19/19/19
f 67/67/67 30/30/30 28/28/28
f 28/28/28 3/3/3 67/67/67
f 3/3/3 28/28/28 8/8/8
f 8/8/8 28/28/28 22/22/22
f 73/73/73 75/75/75 74/74/74
f 76/76/76 74/74/74 75/75/75
f 77/77/77 74/74/74 76/76/76
f 78/78/78 77/77/77 76/76/76
f 79/79/79 74/74/74 77/77/77
f 76/76/76 80/80/80 78/78/78
f 80/80/80 81/81/81 78/78/78
f 78/78/78 81/81/81 82/82/82
f 83/83/83 82/82/82 81/81/81
f 82/82/82 83/83/83 84/84/84
f 83/83/83 85/85/85 84/84/84
f 81/81/81 85/85/85 83/83/83
f 86/86/86 84/84/84 85/85/85
f 81/81/81 87/87/87 85/85/85
f 85/85/85 87/87/87 88/88/88
f 87/87/87 89/89/89 88/88/88
f 81/81/81 90/90/90 87/87/87
f 80/80/80 90/90/90 81/81/81
f 80/80/80 76/76/76 90/90/90
f 88/88/88 89/89/89 91/91/91
f 91/91/91 89/89/89 92/92/92
f 86/86/86 93/93/93 84/84/84
f 90/90/90 76/76/76 94/94/94
f 89/89/89 94/94/94 76/76/76
f 95/95/95 96/96/96 34/34/34
f 97/97/97 34/34/34 96/96/96
f 97/97/97 96/96/96 98/98/98
f 97/97/97 98/98/98 99/99/99
f 99/99/99 100/100/100 97/97/97
f 100/100/100 38/38/38 97/97/97
f 34/34/34 97/97/97 38/38/38
