#Rock3_(30)_2637_139.obj

v -0.9440853 1.136906 -1.216793
v -0.7468468 1.254143 -0.254834
v -1.413693 0.9414755 -0.4915504
v -0.02034317 0.9592803 -1.428618
v -0.1742684 1.097866 -0.09949245
v 0.1628803 0.9454907 -0.6093674
v 0.346962 0.1322962 -1.149455
v -0.02511082 0.796134 -0.004589306
v -1.174628 0.8310585 -1.429895
v -0.2579151 0.6002639 -1.550423
v -0.9539785 -0.21589 -1.671465
v 0.06662847 -0.2244607 -1.314171
v 1.509475 -0.209759 -0.9086751
v 0.3823532 0.9776998 -0.7041188
v 1.391489 0.8841214 -0.236417
v 0.474588 1.064101 -0.3634035
v 0.1628803 0.9454907 -0.6093674
v 1.36873 0.7879554 0.2762353
v 0.4568507 0.4594649 0.6407386
v 0.8598435 0.2661246 0.871821
v 0.2683675 0.6985022 1.177716
v 0.259621 0.9579569 0.5341917
v -1.344635 -0.2243984 -1.375771
v 1.63811 0.3897389 -0.2464712
v 1.146827 -0.2245951 0.7801653
v 1.123469 0.1747995 0.8086119
v 0.8664941 -0.1333605 0.9139372
v 1.693021 -0.2244684 -0.5556501
v 0.3808461 0.4957438 1.558167
v 0.8194535 -0.2030543 1.222914
v 0.8664941 -0.1333605 0.9139372
v 0.05720241 0.05316483 1.735741
v 0.2683675 0.6985022 1.177716
v -0.2569625 0.1026063 1.509112
v 0.1038507 -0.2227688 1.70271
v -0.1964397 -0.2194778 1.504252
v -1.458718 0.5425245 -1.023413
v -1.674872 -0.2224525 -0.6187654
v -1.346507 0.6172 -0.2971262
v -1.348935 0.1914481 0.03926379
v -1.050596 0.6201938 -0.05249655
v -1.378552 -0.224503 0.1970397
v -0.7573676 1.030764 -0.01623773
v -1.348935 0.1914481 0.03926379
v -1.472793 0.6474112 0.3256972
v -1.378552 -0.224503 0.1970397
v -1.444068 -0.2243498 0.559083
v -1.406242 0.8316844 0.9874359
v -0.8474677 -0.008682419 1.637612
v -0.6836912 0.7736423 1.563665
v -0.6748962 1.361803 0.2764387
v 0.1808946 0.8877454 1.235787
v -0.3462713 0.4248249 1.607319
v -0.7573676 1.030764 -0.01623773
v -0.02511082 0.796134 -0.004589306
v 0.4568507 0.4594649 0.6407386
v 0.2683675 0.6985022 1.177716
v -0.2569625 0.1026063 1.509112
v -0.7731863 -0.2244991 1.445944
v -0.1964397 -0.2194778 1.504252

vn -0.1404676 0.9348052 -0.3262027
vn -0.02813293 0.9973203 0.06753276
vn -0.7482185 0.6492695 0.1364475
vn 0.531997 0.7025735 -0.47262
vn 0.4068783 0.9105781 -0.07278389
vn 0.435339 0.8790748 -0.1941842
vn 0.4601306 0.3156134 -0.8298603
vn 0.2813959 0.9128258 0.2959146
vn -0.4395578 0.3864119 -0.8108482
vn 0.2048447 0.08685968 -0.9749328
vn -0.08174362 0.04967994 -0.9954145
vn 0.3858589 -0.02642263 -0.9221793
vn 0.4524726 0.4526938 -0.7683339
vn 0.2594617 0.5773732 -0.7741575
vn 0.504364 0.7114252 -0.4893782
vn -0.04471038 0.9712815 0.233695
vn 0.435339 0.8790748 -0.1941842
vn 0.5293477 0.6424781 0.5540874
vn 0.2610627 0.8904626 0.3727233
vn 0.5000553 0.6423116 0.5808448
vn 0.6503557 0.6356437 0.4159262
vn 0.6401596 0.7666103 -0.05004372
vn -0.7845454 0.06310164 -0.6168523
vn 0.9804275 0.1174768 0.1579912
vn 0.862311 -0.02256741 0.5058759
vn 0.6526876 0.2010509 0.7304638
vn 0.798293 0.07494502 0.597588
vn 0.9902379 0.0290681 0.1363229
vn 0.4417134 0.4661886 0.7665229
vn 0.7631332 0.1502465 0.6285329
vn 0.798293 0.07494502 0.597588
vn 0.08982733 0.2348079 0.9678824
vn 0.6503557 0.6356437 0.4159262
vn -0.06785689 0.1169365 0.9908185
vn 0.2886089 -0.06205048 0.9554343
vn -0.3328241 -0.08557115 0.9390983
vn -0.9336416 0.2304539 -0.274234
vn -0.9792185 0.1952759 -0.0547585
vn -0.8794129 0.2920234 0.3759721
vn -0.9750662 0.2172661 0.04518005
vn -0.8061806 0.5712633 -0.154049
vn -0.9985951 0.04803255 0.02237407
vn -0.5639091 0.8094946 -0.1634777
vn -0.9750662 0.2172661 0.04518005
vn -0.897375 0.3899258 -0.2065812
vn -0.9985951 0.04803255 0.02237407
vn -0.9444021 -0.1460583 0.2945704
vn -0.775094 0.4740957 0.4176871
vn -0.6438567 -0.183919 0.7427129
vn -0.2203734 0.7003081 0.6789728
vn -0.1337702 0.9885024 0.07048642
vn 0.2566904 0.8506142 0.4588743
vn 0.2677021 0.09849457 0.9584542
vn -0.5639091 0.8094946 -0.1634777
vn 0.2813959 0.9128258 0.2959146
vn 0.2610627 0.8904626 0.3727233
vn 0.6503557 0.6356437 0.4159262
vn -0.06785689 0.1169365 0.9908185
vn -0.3652781 -0.5943414 0.7164707
vn -0.3328241 -0.08557115 0.9390983

vt 0.1158638 0.9383631
vt 0.09538253 0.9120352
vt 0.08741901 0.9391211
vt 0.1426682 0.9264175
vt 0.1080404 0.8905393
vt 0.1347711 0.8988628
vt 0.1751804 0.9199398
vt 0.1161831 0.8776034
vt 0.1176134 0.9513465
vt 0.1468127 0.9391351
vt 0.1453332 0.9837276
vt 0.1839423 0.9427396
vt 0.2110212 0.8733379
vt 0.144241 0.8946485
vt 0.1627785 0.8600584
vt 0.1395759 0.8824828
vt 0.1347711 0.8988628
vt 0.1549532 0.8464264
vt 0.1179448 0.8396425
vt 0.1310518 0.8177863
vt 0.08797247 0.8280851
vt 0.1027162 0.8567739
vt 0.1208919 0.9921259
vt 0.1802932 0.852975
vt 0.156728 0.8026067
vt 0.1453191 0.8163236
vt 0.1368421 0.7983432
vt 0.2079828 0.8517604
vt 0.09188173 0.8086196
vt 0.1263664 0.7887857
vt 0.1390489 0.7991756
vt 0.07950947 0.7867259
vt 0.08797247 0.8280851
vt 0.06328828 0.791539
vt 0.08346606 0.7749887
vt 0.06547388 0.7755531
vt 0.1007873 0.9601148
vt 0.07576175 0.9891008
vt 0.07257432 0.9420716
vt 0.0503709 0.9534717
vt 0.06298687 0.9252746
vt 0.03557348 0.970162
vt 0.08244275 0.9075034
vt 0.03084773 0.9223279
vt 0.04592365 0.9057153
vt 0.009368702 0.9150389
vt 0.007073132 0.8962587
vt 0.04685852 0.8817821
vt 0.02561666 0.8455088
vt 0.05227689 0.8518144
vt 0.08237857 0.8901991
vt 0.08348626 0.8371816
vt 0.04950949 0.8346252
vt 0.08244275 0.9075034
vt 0.1161831 0.8776034
vt 0.1179448 0.8396425
vt 0.08797247 0.8280851
vt 0.04058571 0.8226988
vt 0.01483814 0.842499
vt 0.02678112 0.815241

g Rock3_(30)_2637_139
usemtl Rock3_(30)_2637_139
usemap Rock3_(30)_2637_139
f 1/1/1 3/3/3 2/2/2
f 1/1/1 2/2/2 4/4/4
f 4/4/4 2/2/2 5/5/5
f 6/6/6 4/4/4 5/5/5
f 7/7/7 4/4/4 6/6/6
f 5/5/5 8/8/8 6/6/6
f 9/9/9 3/3/3 1/1/1
f 4/4/4 9/9/9 1/1/1
f 10/10/10 9/9/9 4/4/4
f 10/10/10 4/4/4 7/7/7
f 11/11/11 9/9/9 10/10/10
f 12/12/12 11/11/11 10/10/10
f 10/10/10 7/7/7 12/12/12
f 7/7/7 13/13/13 12/12/12
f 7/7/7 14/14/14 13/13/13
f 6/6/6 14/14/14 7/7/7
f 15/15/15 13/13/13 14/14/14
f 15/15/15 14/14/14 16/16/16
f 14/14/14 6/6/6 16/16/16
f 17/17/17 8/8/8 16/16/16
f 8/8/8 18/18/18 16/16/16
f 15/15/15 16/16/16 18/18/18
f 8/8/8 19/19/19 18/18/18
f 19/19/19 20/20/20 18/18/18
f 21/21/21 20/20/20 19/19/19
f 19/19/19 22/22/22 21/21/21
f 9/9/9 11/11/11 23/23/23
f 15/15/15 18/18/18 24/24/24
f 24/24/24 13/13/13 15/15/15
f 18/18/18 25/25/25 24/24/24
f 26/26/26 25/25/25 18/18/18
f 26/26/26 20/20/20 25/25/25
f 26/26/26 18/18/18 20/20/20
f 27/27/27 25/25/25 20/20/20
f 13/13/13 24/24/24 28/28/28
f 28/28/28 24/24/24 25/25/25
f 29/29/29 30/30/30 20/20/20
f 20/20/20 30/30/30 31/31/31
f 32/32/32 30/30/30 29/29/29
f 21/21/21 32/32/32 29/29/29
f 20/20/20 33/33/33 29/29/29
f 32/32/32 33/33/33 34/34/34
f 32/32/32 35/35/35 30/30/30
f 36/36/36 35/35/35 32/32/32
f 36/36/36 32/32/32 34/34/34
f 23/23/23 38/38/38 37/37/37
f 38/38/38 39/39/39 37/37/37
f 40/40/40 39/39/39 38/38/38
f 40/40/40 41/41/41 39/39/39
f 38/38/38 42/42/42 40/40/40
f 43/43/43 39/39/39 41/41/41
f 43/43/43 3/3/3 39/39/39
f 3/3/3 37/37/37 39/39/39
f 3/3/3 9/9/9 37/37/37
f 37/37/37 9/9/9 23/23/23
f 44/44/44 45/45/45 41/41/41
f 45/45/45 44/44/44 46/46/46
f 45/45/45 46/46/46 47/47/47
f 47/47/47 48/48/48 45/45/45
f 47/47/47 49/49/49 48/48/48
f 48/48/48 49/49/49 50/50/50
f 48/48/48 50/50/50 51/51/51
f 51/51/51 45/45/45 48/48/48
f 52/52/52 51/51/51 50/50/50
f 22/22/22 51/51/51 52/52/52
f 50/50/50 49/49/49 53/53/53
f 52/52/52 50/50/50 53/53/53
f 54/54/54 45/45/45 51/51/51
f 5/5/5 51/51/51 22/22/22
f 54/54/54 51/51/51 5/5/5
f 22/22/22 55/55/55 5/5/5
f 56/56/56 55/55/55 22/22/22
f 52/52/52 57/57/57 22/22/22
f 53/53/53 33/33/33 52/52/52
f 53/53/53 58/58/58 33/33/33
f 59/59/59 58/58/58 53/53/53
f 49/49/49 47/47/47 59/59/59
f 49/49/49 59/59/59 53/53/53
f 2/2/2 54/54/54 5/5/5
f 54/54/54 2/2/2 3/3/3
f 59/59/59 60/60/60 58/58/58
f 41/41/41 45/45/45 54/54/54
