#Rock3_(1)_1490_422.obj

v -0.9440856 1.136906 -1.216793
v -0.746848 1.254143 -0.2548345
v -1.413693 0.9414754 -0.4915509
v -0.02034379 0.9592805 -1.428618
v -0.1742668 1.097866 -0.09949412
v 0.1628794 0.9454908 -0.6093676
v 0.346964 0.1322961 -1.149455
v -0.02510951 0.796134 -0.004590743
v -1.174627 0.8310585 -1.429896
v -0.2579146 0.6002641 -1.550423
v -0.9539784 -0.2158899 -1.671467
v 0.06663027 -0.2244608 -1.314171
v 1.509475 -0.209759 -0.908676
v 0.3823519 0.9776998 -0.7041183
v 1.391489 0.8841214 -0.2364164
v 0.4745861 1.064101 -0.3634014
v 0.1628794 0.9454908 -0.6093676
v 1.368729 0.7879553 0.2762361
v 0.4568503 0.459465 0.640738
v 0.8598424 0.2661245 0.8718219
v 0.2683691 0.6985021 1.177714
v 0.2596199 0.9579568 0.5341905
v -1.344634 -0.2243984 -1.375771
v 1.638111 0.389739 -0.2464699
v 1.146827 -0.2245951 0.7801661
v 1.123471 0.1747994 0.80861
v 0.8664924 -0.1333604 0.9139374
v 1.693022 -0.2244685 -0.5556507
v 0.3808453 0.4957438 1.558169
v 0.8194532 -0.2030542 1.222914
v 0.8664924 -0.1333604 0.9139374
v 0.05720125 0.05316472 1.735741
v 0.2683691 0.6985021 1.177714
v -0.2569623 0.1026063 1.509111
v 0.1038517 -0.2227688 1.70271
v -0.1964393 -0.2194777 1.504252
v -1.458719 0.5425243 -1.023413
v -1.67487 -0.2224526 -0.6187658
v -1.346508 0.6171999 -0.2971245
v -1.348933 0.1914482 0.03926283
v -1.050596 0.620194 -0.05249616
v -1.378552 -0.224503 0.1970387
v -0.7573677 1.030765 -0.01623558
v -1.348933 0.1914482 0.03926283
v -1.472793 0.6474113 0.3256978
v -1.378552 -0.224503 0.1970387
v -1.444069 -0.2243497 0.5590825
v -1.406242 0.8316841 0.9874331
v -0.8474685 -0.008682489 1.637611
v -0.6836907 0.7736425 1.563667
v -0.6748978 1.361803 0.2764391
v 0.180894 0.8877454 1.235785
v -0.3462731 0.4248247 1.607319
v -0.7573677 1.030765 -0.01623558
v -0.02510951 0.796134 -0.004590743
v 0.4568503 0.459465 0.640738
v 0.2683691 0.6985021 1.177714
v -0.2569623 0.1026063 1.509111
v -0.7731866 -0.2244992 1.445945
v -0.1964393 -0.2194777 1.504252

vn -0.2264243 0.9348052 -0.2736264
vn -0.008035045 0.9973203 0.07271569
vn -0.6797874 0.6492695 0.3410836
vn 0.3778579 0.7025735 -0.603004
vn 0.3700632 0.9105781 -0.1841212
vn 0.3632849 0.8790748 -0.3086286
vn 0.2085576 0.3156134 -0.9256846
vn 0.353175 0.9128258 0.2049793
vn -0.6495841 0.3864119 -0.654772
vn -0.0771962 0.08685968 -0.9932252
vn -0.358003 0.04967994 -0.932398
vn 0.1113482 -0.02642263 -0.9934301
vn 0.2184866 0.4526938 -0.8644837
vn 0.03160784 0.5773732 -0.8158683
vn 0.3466308 0.7114252 -0.6113275
vn 0.02271913 0.9712815 0.2368464
vn 0.3632849 0.8790748 -0.3086286
vn 0.6636526 0.6424781 0.383128
vn 0.3552308 0.8904626 0.2844073
vn 0.6430534 0.6423116 0.417035
vn 0.7409899 0.6356437 0.2165436
vn 0.6003426 0.7666103 -0.2278102
vn -0.9262066 0.06310164 -0.3716981
vn 0.9853405 0.1174768 -0.1237072
vn 0.9696764 -0.02256741 0.2433485
vn 0.8315617 0.2010509 0.517768
vn 0.9339909 0.07494502 0.3493483
vn 0.9886708 0.0290681 -0.1472587
vn 0.6392047 0.4661886 0.6116252
vn 0.9089366 0.1502465 0.388922
vn 0.9339909 0.07494502 0.3493483
vn 0.3580293 0.2348079 0.9037036
vn 0.7409899 0.6356437 0.2165436
vn 0.2131323 0.1169365 0.9700003
vn 0.5453151 -0.06205048 0.8359313
vn -0.05569637 -0.08557115 0.9947741
vn -0.9730827 0.2304539 -0.0009965599
vn -0.9551886 0.1952759 0.2224459
vn -0.7384347 0.2920234 0.6078129
vn -0.923137 0.2172661 0.3171964
vn -0.8169989 0.5712633 0.07855587
vn -0.9521238 0.04803255 0.301916
vn -0.5871255 0.8094946 0.001467869
vn -0.923137 0.2172661 0.3171964
vn -0.9192763 0.3899258 0.0537485
vn -0.9521238 0.04803255 0.301916
vn -0.8236689 -0.1460583 0.5479385
vn -0.6265988 0.4740957 0.6185524
vn -0.4093638 -0.183919 0.8936415
vn -0.020824 0.7003081 0.7135369
vn -0.1085915 0.9885024 0.1052173
vn 0.3752288 0.8506142 0.368319
vn 0.5260978 0.09849457 0.8447012
vn -0.5871255 0.8094946 0.001467869
vn 0.353175 0.9128258 0.2049793
vn 0.3552308 0.8904626 0.2844073
vn 0.7409899 0.6356437 0.2165436
vn 0.2131323 0.1169365 0.9700003
vn -0.1493663 -0.5943414 0.7902203
vn -0.05569637 -0.08557115 0.9947741

vt 0.1158447 0.9379883
vt 0.09533691 0.9116211
vt 0.08740234 0.9389648
vt 0.1425781 0.9262695
vt 0.1080322 0.8901367
vt 0.1347656 0.8984375
vt 0.1751709 0.9199219
vt 0.1161499 0.8774414
vt 0.1175537 0.9511719
vt 0.1467285 0.9389648
vt 0.1452637 0.9833984
vt 0.1838379 0.9423828
vt 0.2109375 0.8730469
vt 0.144165 0.8945313
vt 0.1627197 0.8598633
vt 0.1395264 0.8823242
vt 0.1347656 0.8984375
vt 0.1549072 0.8461914
vt 0.1179199 0.8393555
vt 0.1309814 0.8173828
vt 0.08795166 0.8276367
vt 0.1026611 0.8564453
vt 0.1208496 0.9916992
vt 0.1801758 0.8525391
vt 0.1566162 0.8022461
vt 0.1452637 0.815918
vt 0.1368408 0.7983398
vt 0.2078857 0.8515625
vt 0.09185791 0.8085938
vt 0.1263428 0.7885742
vt 0.1390381 0.7988281
vt 0.07946777 0.7866211
vt 0.08795166 0.8276367
vt 0.06323242 0.7915039
vt 0.08343506 0.7749023
vt 0.06542969 0.7753906
vt 0.100769 0.9599609
vt 0.07574463 0.9887695
vt 0.0725708 0.9418945
vt 0.050354 0.953125
vt 0.06292725 0.9248047
vt 0.03555298 0.9697266
vt 0.08239746 0.9072266
vt 0.03083801 0.921875
vt 0.04589844 0.9052734
vt 0.009361267 0.9145508
vt 0.007072449 0.8959961
vt 0.04684448 0.8813477
vt 0.02560425 0.8452148
vt 0.05227661 0.8515625
vt 0.08233643 0.8901367
vt 0.08343506 0.8369141
vt 0.04949951 0.8344727
vt 0.08239746 0.9072266
vt 0.1161499 0.8774414
vt 0.1179199 0.8393555
vt 0.08795166 0.8276367
vt 0.04055786 0.8222656
vt 0.01483154 0.8422852
vt 0.02677917 0.8149414

g Rock3_(1)_1490_422
usemtl Rock3_(1)_1490_422
usemap Rock3_(1)_1490_422
f 1/1/1 3/3/3 2/2/2
f 1/1/1 2/2/2 4/4/4
f 4/4/4 2/2/2 5/5/5
f 6/6/6 4/4/4 5/5/5
f 7/7/7 4/4/4 6/6/6
f 5/5/5 8/8/8 6/6/6
f 9/9/9 3/3/3 1/1/1
f 4/4/4 9/9/9 1/1/1
f 10/10/10 9/9/9 4/4/4
f 10/10/10 4/4/4 7/7/7
f 11/11/11 9/9/9 10/10/10
f 12/12/12 11/11/11 10/10/10
f 10/10/10 7/7/7 12/12/12
f 7/7/7 13/13/13 12/12/12
f 7/7/7 14/14/14 13/13/13
f 6/6/6 14/14/14 7/7/7
f 15/15/15 13/13/13 14/14/14
f 15/15/15 14/14/14 16/16/16
f 14/14/14 6/6/6 16/16/16
f 17/17/17 8/8/8 16/16/16
f 8/8/8 18/18/18 16/16/16
f 15/15/15 16/16/16 18/18/18
f 8/8/8 19/19/19 18/18/18
f 19/19/19 20/20/20 18/18/18
f 21/21/21 20/20/20 19/19/19
f 19/19/19 22/22/22 21/21/21
f 9/9/9 11/11/11 23/23/23
f 15/15/15 18/18/18 24/24/24
f 24/24/24 13/13/13 15/15/15
f 18/18/18 25/25/25 24/24/24
f 26/26/26 25/25/25 18/18/18
f 26/26/26 20/20/20 25/25/25
f 26/26/26 18/18/18 20/20/20
f 27/27/27 25/25/25 20/20/20
f 13/13/13 24/24/24 28/28/28
f 28/28/28 24/24/24 25/25/25
f 29/29/29 30/30/30 20/20/20
f 20/20/20 30/30/30 31/31/31
f 32/32/32 30/30/30 29/29/29
f 21/21/21 32/32/32 29/29/29
f 20/20/20 33/33/33 29/29/29
f 32/32/32 33/33/33 34/34/34
f 32/32/32 35/35/35 30/30/30
f 36/36/36 35/35/35 32/32/32
f 36/36/36 32/32/32 34/34/34
f 23/23/23 38/38/38 37/37/37
f 38/38/38 39/39/39 37/37/37
f 40/40/40 39/39/39 38/38/38
f 40/40/40 41/41/41 39/39/39
f 38/38/38 42/42/42 40/40/40
f 43/43/43 39/39/39 41/41/41
f 43/43/43 3/3/3 39/39/39
f 3/3/3 37/37/37 39/39/39
f 3/3/3 9/9/9 37/37/37
f 37/37/37 9/9/9 23/23/23
f 44/44/44 45/45/45 41/41/41
f 45/45/45 44/44/44 46/46/46
f 45/45/45 46/46/46 47/47/47
f 47/47/47 48/48/48 45/45/45
f 47/47/47 49/49/49 48/48/48
f 48/48/48 49/49/49 50/50/50
f 48/48/48 50/50/50 51/51/51
f 51/51/51 45/45/45 48/48/48
f 52/52/52 51/51/51 50/50/50
f 22/22/22 51/51/51 52/52/52
f 50/50/50 49/49/49 53/53/53
f 52/52/52 50/50/50 53/53/53
f 54/54/54 45/45/45 51/51/51
f 5/5/5 51/51/51 22/22/22
f 54/54/54 51/51/51 5/5/5
f 22/22/22 55/55/55 5/5/5
f 56/56/56 55/55/55 22/22/22
f 52/52/52 57/57/57 22/22/22
f 53/53/53 33/33/33 52/52/52
f 53/53/53 58/58/58 33/33/33
f 59/59/59 58/58/58 53/53/53
f 49/49/49 47/47/47 59/59/59
f 49/49/49 59/59/59 53/53/53
f 2/2/2 54/54/54 5/5/5
f 54/54/54 2/2/2 3/3/3
f 59/59/59 60/60/60 58/58/58
f 41/41/41 45/45/45 54/54/54
