#Rock3_(35)_2566_213.obj

v -0.9708646 1.229802 -1.099746
v -0.7800441 1.253119 -0.1296667
v -1.437313 0.9485378 -0.4011576
v -0.04193036 1.099713 -1.323046
v -0.2039127 1.097198 0.01232761
v 0.1389377 1.006985 -0.508417
v 0.3469594 0.2586532 -1.127766
v -0.04686352 0.7914501 0.07674696
v -1.192258 0.9413126 -1.344414
v -0.2691864 0.7488105 -1.482387
v -0.9422634 -0.0690619 -1.690518
v 0.07703476 -0.0867561 -1.329819
v 1.517607 -0.07489621 -0.9162345
v 0.3577518 1.054622 -0.5980482
v 1.367543 0.9407784 -0.1362895
v 0.4464796 1.108107 -0.2497312
v 0.1389377 1.006985 -0.508417
v 1.345754 0.7920139 0.3636853
v 0.4420237 0.4035101 0.687142
v 0.8494009 0.1984143 0.8996542
v 0.2453237 0.5811161 1.244615
v 0.2315731 0.9048131 0.6309741
v -1.333502 -0.1183214 -1.399612
v 1.627638 0.4568362 -0.1953921
v 1.150002 -0.2724381 0.759997
v 1.115635 0.1211662 0.8290281
v 0.8668379 -0.2029586 0.900707
v 1.700336 -0.1207598 -0.5654655
v 0.3620669 0.3435415 1.602987
v 0.8207201 -0.3051842 1.200644
v 0.8668379 -0.2029586 0.900707
v 0.05007785 -0.1234437 1.732383
v 0.2453237 0.5811161 1.244615
v -0.2645814 -0.05950482 1.510107
v 0.1043665 -0.3931855 1.671569
v -0.1952503 -0.3776524 1.472677
v -1.469671 0.6051151 -0.9713138
v -1.666128 -0.2028286 -0.6483909
v -1.36191 0.6079712 -0.2405338
v -1.353783 0.1500838 0.05049513
v -1.066992 0.5938393 0.004897821
v -1.372521 -0.2804905 0.1646987
v -0.7852223 1.006267 0.08475426
v -1.353783 0.1500838 0.05049513
v -1.491002 0.5708032 0.3813309
v -1.372521 -0.2804905 0.1646987
v -1.439199 -0.3191935 0.5244484
v -1.431677 0.6880263 1.058846
v -0.8522352 -0.199209 1.622975
v -0.7096882 0.5906942 1.630467
v -0.7127997 1.307673 0.4102619
v 0.1525124 0.7609935 1.321214
v -0.3629937 0.2484375 1.64023
v -0.7852223 1.006267 0.08475426
v -0.04686352 0.7914501 0.07674696
v 0.4420237 0.4035101 0.687142
v 0.2453237 0.5811161 1.244615
v -0.2645814 -0.05950482 1.510107
v -0.7714558 -0.3921755 1.410681
v -0.1952503 -0.3776524 1.472677

vn -0.4661372 0.8735526 -0.1400788
vn -0.1830872 0.972232 0.1457531
vn -0.6831315 0.4869101 0.5442882
vn 0.06733263 0.7786778 -0.6238006
vn 0.1263621 0.9712725 -0.2016486
vn 0.0943026 0.9418046 -0.3226625
vn -0.1000653 0.3722846 -0.9227086
vn 0.2092101 0.9613885 0.1787827
vn -0.8574823 0.2580341 -0.4451319
vn -0.3434386 0.09091423 -0.9347644
vn -0.5866441 -0.004883951 -0.8098302
vn -0.1428765 0.01911836 -0.9895559
vn -0.1017149 0.5070688 -0.8558828
vn -0.2905647 0.5892884 -0.7538643
vn 0.03391075 0.7810597 -0.6235349
vn -0.1070146 0.9495019 0.2949476
vn 0.0943026 0.9418046 -0.3226625
vn 0.6013232 0.7572506 0.2549152
vn 0.2357744 0.9381866 0.2534094
vn 0.5904973 0.752078 0.2927315
vn 0.6333963 0.7702413 0.07441387
vn 0.3613273 0.8790559 -0.3109716
vn -0.9843503 -0.1216744 -0.1274744
vn 0.8788208 0.32147 -0.3526059
vn 0.9848866 0.1731473 -0.004269749
vn 0.8805887 0.3572443 0.311352
vn 0.9591631 0.2588043 0.1141332
vn 0.893166 0.2362045 -0.3827035
vn 0.6707675 0.5747171 0.4687974
vn 0.9308808 0.3264017 0.1640812
vn 0.9591631 0.2588043 0.1141332
vn 0.5239999 0.2837862 0.8030502
vn 0.6333963 0.7702413 0.07441387
vn 0.4266123 0.1370562 0.8939897
vn 0.741845 0.03366189 0.669726
vn 0.2177173 -0.117179 0.9689522
vn -0.9667206 0.02413636 0.2546934
vn -0.8859164 -0.01150241 0.4637024
vn -0.6011177 0.1194607 0.7901813
vn -0.8356618 0.01454551 0.5490518
vn -0.8648967 0.3880213 0.3184228
vn -0.83409 -0.1566444 0.5289201
vn -0.7131955 0.6702947 0.2050783
vn -0.8356618 0.01454551 0.5490518
vn -0.9328163 0.1900413 0.3061665
vn -0.83409 -0.1566444 0.5289201
vn -0.6118928 -0.3253464 0.720928
vn -0.5278776 0.3204472 0.7865487
vn -0.1239206 -0.2843042 0.9506918
vn 0.02609256 0.6649274 0.7464521
vn -0.2683183 0.9420879 0.2011851
vn 0.283878 0.9014947 0.3266811
vn 0.6946471 0.1865253 0.6947473
vn -0.7131955 0.6702947 0.2050783
vn 0.2092101 0.9613885 0.1787827
vn 0.2357744 0.9381866 0.2534094
vn 0.6333963 0.7702413 0.07441387
vn 0.4266123 0.1370562 0.8939897
vn 0.1757897 -0.6296793 0.7567047
vn 0.2177173 -0.117179 0.9689522

vt 0.1158638 0.9383631
vt 0.09538253 0.9120352
vt 0.08741901 0.9391211
vt 0.1426682 0.9264175
vt 0.1080404 0.8905393
vt 0.1347711 0.8988628
vt 0.1751804 0.9199398
vt 0.1161831 0.8776034
vt 0.1176134 0.9513465
vt 0.1468127 0.9391351
vt 0.1453332 0.9837276
vt 0.1839423 0.9427396
vt 0.2110212 0.8733379
vt 0.144241 0.8946485
vt 0.1627785 0.8600584
vt 0.1395759 0.8824828
vt 0.1347711 0.8988628
vt 0.1549532 0.8464264
vt 0.1179448 0.8396425
vt 0.1310518 0.8177863
vt 0.08797247 0.8280851
vt 0.1027162 0.8567739
vt 0.1208919 0.9921259
vt 0.1802932 0.852975
vt 0.156728 0.8026067
vt 0.1453191 0.8163236
vt 0.1368421 0.7983432
vt 0.2079828 0.8517604
vt 0.09188173 0.8086196
vt 0.1263664 0.7887857
vt 0.1390489 0.7991756
vt 0.07950947 0.7867259
vt 0.08797247 0.8280851
vt 0.06328828 0.791539
vt 0.08346606 0.7749887
vt 0.06547388 0.7755531
vt 0.1007873 0.9601148
vt 0.07576175 0.9891008
vt 0.07257432 0.9420716
vt 0.0503709 0.9534717
vt 0.06298687 0.9252746
vt 0.03557348 0.970162
vt 0.08244275 0.9075034
vt 0.03084773 0.9223279
vt 0.04592365 0.9057153
vt 0.009368702 0.9150389
vt 0.007073132 0.8962587
vt 0.04685852 0.8817821
vt 0.02561666 0.8455088
vt 0.05227689 0.8518144
vt 0.08237857 0.8901991
vt 0.08348626 0.8371816
vt 0.04950949 0.8346252
vt 0.08244275 0.9075034
vt 0.1161831 0.8776034
vt 0.1179448 0.8396425
vt 0.08797247 0.8280851
vt 0.04058571 0.8226988
vt 0.01483814 0.842499
vt 0.02678112 0.815241

g Rock3_(35)_2566_213
usemtl Rock3_(35)_2566_213
usemap Rock3_(35)_2566_213
f 1/1/1 3/3/3 2/2/2
f 1/1/1 2/2/2 4/4/4
f 4/4/4 2/2/2 5/5/5
f 6/6/6 4/4/4 5/5/5
f 7/7/7 4/4/4 6/6/6
f 5/5/5 8/8/8 6/6/6
f 9/9/9 3/3/3 1/1/1
f 4/4/4 9/9/9 1/1/1
f 10/10/10 9/9/9 4/4/4
f 10/10/10 4/4/4 7/7/7
f 11/11/11 9/9/9 10/10/10
f 12/12/12 11/11/11 10/10/10
f 10/10/10 7/7/7 12/12/12
f 7/7/7 13/13/13 12/12/12
f 7/7/7 14/14/14 13/13/13
f 6/6/6 14/14/14 7/7/7
f 15/15/15 13/13/13 14/14/14
f 15/15/15 14/14/14 16/16/16
f 14/14/14 6/6/6 16/16/16
f 17/17/17 8/8/8 16/16/16
f 8/8/8 18/18/18 16/16/16
f 15/15/15 16/16/16 18/18/18
f 8/8/8 19/19/19 18/18/18
f 19/19/19 20/20/20 18/18/18
f 21/21/21 20/20/20 19/19/19
f 19/19/19 22/22/22 21/21/21
f 9/9/9 11/11/11 23/23/23
f 15/15/15 18/18/18 24/24/24
f 24/24/24 13/13/13 15/15/15
f 18/18/18 25/25/25 24/24/24
f 26/26/26 25/25/25 18/18/18
f 26/26/26 20/20/20 25/25/25
f 26/26/26 18/18/18 20/20/20
f 27/27/27 25/25/25 20/20/20
f 13/13/13 24/24/24 28/28/28
f 28/28/28 24/24/24 25/25/25
f 29/29/29 30/30/30 20/20/20
f 20/20/20 30/30/30 31/31/31
f 32/32/32 30/30/30 29/29/29
f 21/21/21 32/32/32 29/29/29
f 20/20/20 33/33/33 29/29/29
f 32/32/32 33/33/33 34/34/34
f 32/32/32 35/35/35 30/30/30
f 36/36/36 35/35/35 32/32/32
f 36/36/36 32/32/32 34/34/34
f 23/23/23 38/38/38 37/37/37
f 38/38/38 39/39/39 37/37/37
f 40/40/40 39/39/39 38/38/38
f 40/40/40 41/41/41 39/39/39
f 38/38/38 42/42/42 40/40/40
f 43/43/43 39/39/39 41/41/41
f 43/43/43 3/3/3 39/39/39
f 3/3/3 37/37/37 39/39/39
f 3/3/3 9/9/9 37/37/37
f 37/37/37 9/9/9 23/23/23
f 44/44/44 45/45/45 41/41/41
f 45/45/45 44/44/44 46/46/46
f 45/45/45 46/46/46 47/47/47
f 47/47/47 48/48/48 45/45/45
f 47/47/47 49/49/49 48/48/48
f 48/48/48 49/49/49 50/50/50
f 48/48/48 50/50/50 51/51/51
f 51/51/51 45/45/45 48/48/48
f 52/52/52 51/51/51 50/50/50
f 22/22/22 51/51/51 52/52/52
f 50/50/50 49/49/49 53/53/53
f 52/52/52 50/50/50 53/53/53
f 54/54/54 45/45/45 51/51/51
f 5/5/5 51/51/51 22/22/22
f 54/54/54 51/51/51 5/5/5
f 22/22/22 55/55/55 5/5/5
f 56/56/56 55/55/55 22/22/22
f 52/52/52 57/57/57 22/22/22
f 53/53/53 33/33/33 52/52/52
f 53/53/53 58/58/58 33/33/33
f 59/59/59 58/58/58 53/53/53
f 49/49/49 47/47/47 59/59/59
f 49/49/49 59/59/59 53/53/53
f 2/2/2 54/54/54 5/5/5
f 54/54/54 2/2/2 3/3/3
f 59/59/59 60/60/60 58/58/58
f 41/41/41 45/45/45 54/54/54
