#Rock3_(54)_2474_50.obj

v -0.9272389 1.047596 -1.306602
v -0.7691206 1.218488 -0.3454535
v -1.418336 0.8758897 -0.5896342
v 0.008056989 0.8853052 -1.475721
v -0.1988682 1.086204 -0.1618366
v 0.1608981 0.9178228 -0.6507881
v 0.3860358 0.08393909 -1.141517
v -0.04557307 0.7938896 -0.04629444
v -1.141659 0.7251288 -1.51189
v -0.2154072 0.514151 -1.587419
v -0.8850591 -0.326099 -1.691394
v 0.1213928 -0.2883058 -1.297693
v 1.547248 -0.2131156 -0.8419152
v 0.3828408 0.9513198 -0.7391183
v 1.375925 0.9094748 -0.2312845
v 0.4600338 1.057272 -0.4001866
v 0.1608981 0.9178228 -0.6507881
v 1.336564 0.838609 0.284475
v 0.4205601 0.5036257 0.6323427
v 0.8195367 0.3334295 0.8873602
v 0.2060461 0.7640219 1.149241
v 0.2145705 0.9904515 0.4933649
v -1.286118 -0.3305914 -1.409876
v 1.635496 0.4222632 -0.2071148
v 1.122378 -0.1531053 0.8313487
v 1.08762 0.2464096 0.8384247
v 0.834976 -0.06309292 0.9501095
v 1.717819 -0.2049465 -0.482232
v 0.3094816 0.5838537 1.543382
v 0.7782746 -0.1184466 1.260362
v 0.834976 -0.06309292 0.9501095
v -0.008965885 0.1419327 1.731668
v 0.2060461 0.7640219 1.149241
v -0.3156359 0.1711607 1.49166
v 0.04602829 -0.1339086 1.714521
v -0.2466353 -0.1489525 1.505495
v -1.433128 0.4496059 -1.101621
v -1.644293 -0.2997753 -0.666319
v -1.350055 0.5637934 -0.376554
v -1.353974 0.1555889 -0.01908839
v -1.063646 0.587311 -0.1219271
v -1.378651 -0.2525661 0.1586359
v -0.7827305 1.007181 -0.09625053
v -1.353974 0.1555889 -0.01908839
v -1.500219 0.6217543 0.2389612
v -1.378651 -0.2525661 0.1586359
v -1.457605 -0.2360335 0.5176084
v -1.463196 0.8408436 0.8923462
v -0.907436 0.05009335 1.604399
v -0.7613733 0.8319631 1.496382
v -0.7198504 1.354681 0.1818442
v 0.1115857 0.9534389 1.194354
v -0.4168794 0.4953009 1.56995
v -0.7827305 1.007181 -0.09625053
v -0.04557307 0.7938896 -0.04629444
v 0.4205601 0.5036257 0.6323427
v 0.2060461 0.7640219 1.149241
v -0.3156359 0.1711607 1.49166
v -0.8204836 -0.1729367 1.426841
v -0.2466353 -0.1489525 1.505495

vn -0.3179016 0.9461422 0.06126671
vn -0.4340132 0.7927176 0.4280552
vn -0.9095095 0.4057777 -0.09020413
vn 0.3765875 0.8874422 0.2657596
vn 0.01213942 0.8325737 0.5537813
vn 0.1031011 0.8748528 0.4732893
vn 0.6319027 0.7536582 -0.1808269
vn -0.259743 0.6230391 0.7378048
vn -0.1239416 0.7285755 -0.6736588
vn 0.5819305 0.6210601 -0.5250154
vn 0.3762157 0.5777239 -0.7243596
vn 0.7455851 0.5126363 -0.4258015
vn 0.5450405 0.8338068 -0.08773375
vn 0.3457246 0.9251535 -0.1567339
vn 0.358851 0.9017013 0.2411656
vn -0.5142363 0.6789998 0.5239469
vn 0.1031011 0.8748528 0.4732893
vn -0.07767905 0.2770415 0.9577129
vn -0.3030295 0.5608205 0.7704891
vn -0.1134401 0.2599051 0.9589478
vn 0.08570127 0.3566277 0.9303074
vn 0.2432121 0.7192124 0.6508314
vn -0.3665411 0.3247951 -0.8718691
vn 0.666779 0.09218902 0.7395316
vn 0.4646742 -0.2240733 0.8566616
vn 0.1077284 -0.1772509 0.9782519
vn 0.3338242 -0.1980151 0.9216026
vn 0.7183644 0.03107176 0.6949727
vn -0.1788961 0.006932437 0.9838436
vn 0.262656 -0.1549692 0.9523636
vn 0.3338242 -0.1980151 0.9216026
vn -0.465474 -0.324752 0.8233286
vn 0.08570127 0.3566277 0.9303074
vn -0.5573461 -0.4485081 0.6987173
vn -0.1874383 -0.5492727 0.8143503
vn -0.6682678 -0.6109309 0.424478
vn -0.708205 0.2652642 -0.6542786
vn -0.8328212 0.1124641 -0.541997
vn -0.9891299 -0.03361513 -0.1431505
vn -0.8841239 0.07663104 -0.4609258
vn -0.7917439 0.4944234 -0.3587297
vn -0.8278787 -0.054015 -0.5583004
vn -0.6843132 0.7181385 -0.126461
vn -0.8841239 0.07663104 -0.4609258
vn -0.7712846 0.364349 -0.5218905
vn -0.8278787 -0.054015 -0.5583004
vn -0.8364502 -0.3599427 -0.4132703
vn -0.99436 0.104049 0.02053866
vn -0.7888336 -0.6113378 0.06330699
vn -0.7575423 0.1956847 0.6227658
vn -0.5165633 0.7750903 0.3638643
vn -0.331198 0.4802301 0.8122112
vn -0.2667794 -0.4187239 0.8680432
vn -0.6843132 0.7181385 -0.126461
vn -0.259743 0.6230391 0.7378048
vn -0.3030295 0.5608205 0.7704891
vn 0.08570127 0.3566277 0.9303074
vn -0.5573461 -0.4485081 0.6987173
vn -0.3972521 -0.9165149 0.04681087
vn -0.6682678 -0.6109309 0.424478

vt 0.1158638 0.9383631
vt 0.09538253 0.9120352
vt 0.08741901 0.9391211
vt 0.1426682 0.9264175
vt 0.1080404 0.8905393
vt 0.1347711 0.8988628
vt 0.1751804 0.9199398
vt 0.1161831 0.8776034
vt 0.1176134 0.9513465
vt 0.1468127 0.9391351
vt 0.1453332 0.9837276
vt 0.1839423 0.9427396
vt 0.2110212 0.8733379
vt 0.144241 0.8946485
vt 0.1627785 0.8600584
vt 0.1395759 0.8824828
vt 0.1347711 0.8988628
vt 0.1549532 0.8464264
vt 0.1179448 0.8396425
vt 0.1310518 0.8177863
vt 0.08797247 0.8280851
vt 0.1027162 0.8567739
vt 0.1208919 0.9921259
vt 0.1802932 0.852975
vt 0.156728 0.8026067
vt 0.1453191 0.8163236
vt 0.1368421 0.7983432
vt 0.2079828 0.8517604
vt 0.09188173 0.8086196
vt 0.1263664 0.7887857
vt 0.1390489 0.7991756
vt 0.07950947 0.7867259
vt 0.08797247 0.8280851
vt 0.06328828 0.791539
vt 0.08346606 0.7749887
vt 0.06547388 0.7755531
vt 0.1007873 0.9601148
vt 0.07576175 0.9891008
vt 0.07257432 0.9420716
vt 0.0503709 0.9534717
vt 0.06298687 0.9252746
vt 0.03557348 0.970162
vt 0.08244275 0.9075034
vt 0.03084773 0.9223279
vt 0.04592365 0.9057153
vt 0.009368702 0.9150389
vt 0.007073132 0.8962587
vt 0.04685852 0.8817821
vt 0.02561666 0.8455088
vt 0.05227689 0.8518144
vt 0.08237857 0.8901991
vt 0.08348626 0.8371816
vt 0.04950949 0.8346252
vt 0.08244275 0.9075034
vt 0.1161831 0.8776034
vt 0.1179448 0.8396425
vt 0.08797247 0.8280851
vt 0.04058571 0.8226988
vt 0.01483814 0.842499
vt 0.02678112 0.815241

g Rock3_(54)_2474_50
usemtl Rock3_(54)_2474_50
usemap Rock3_(54)_2474_50
f 1/1/1 3/3/3 2/2/2
f 1/1/1 2/2/2 4/4/4
f 4/4/4 2/2/2 5/5/5
f 6/6/6 4/4/4 5/5/5
f 7/7/7 4/4/4 6/6/6
f 5/5/5 8/8/8 6/6/6
f 9/9/9 3/3/3 1/1/1
f 4/4/4 9/9/9 1/1/1
f 10/10/10 9/9/9 4/4/4
f 10/10/10 4/4/4 7/7/7
f 11/11/11 9/9/9 10/10/10
f 12/12/12 11/11/11 10/10/10
f 10/10/10 7/7/7 12/12/12
f 7/7/7 13/13/13 12/12/12
f 7/7/7 14/14/14 13/13/13
f 6/6/6 14/14/14 7/7/7
f 15/15/15 13/13/13 14/14/14
f 15/15/15 14/14/14 16/16/16
f 14/14/14 6/6/6 16/16/16
f 17/17/17 8/8/8 16/16/16
f 8/8/8 18/18/18 16/16/16
f 15/15/15 16/16/16 18/18/18
f 8/8/8 19/19/19 18/18/18
f 19/19/19 20/20/20 18/18/18
f 21/21/21 20/20/20 19/19/19
f 19/19/19 22/22/22 21/21/21
f 9/9/9 11/11/11 23/23/23
f 15/15/15 18/18/18 24/24/24
f 24/24/24 13/13/13 15/15/15
f 18/18/18 25/25/25 24/24/24
f 26/26/26 25/25/25 18/18/18
f 26/26/26 20/20/20 25/25/25
f 26/26/26 18/18/18 20/20/20
f 27/27/27 25/25/25 20/20/20
f 13/13/13 24/24/24 28/28/28
f 28/28/28 24/24/24 25/25/25
f 29/29/29 30/30/30 20/20/20
f 20/20/20 30/30/30 31/31/31
f 32/32/32 30/30/30 29/29/29
f 21/21/21 32/32/32 29/29/29
f 20/20/20 33/33/33 29/29/29
f 32/32/32 33/33/33 34/34/34
f 32/32/32 35/35/35 30/30/30
f 36/36/36 35/35/35 32/32/32
f 36/36/36 32/32/32 34/34/34
f 23/23/23 38/38/38 37/37/37
f 38/38/38 39/39/39 37/37/37
f 40/40/40 39/39/39 38/38/38
f 40/40/40 41/41/41 39/39/39
f 38/38/38 42/42/42 40/40/40
f 43/43/43 39/39/39 41/41/41
f 43/43/43 3/3/3 39/39/39
f 3/3/3 37/37/37 39/39/39
f 3/3/3 9/9/9 37/37/37
f 37/37/37 9/9/9 23/23/23
f 44/44/44 45/45/45 41/41/41
f 45/45/45 44/44/44 46/46/46
f 45/45/45 46/46/46 47/47/47
f 47/47/47 48/48/48 45/45/45
f 47/47/47 49/49/49 48/48/48
f 48/48/48 49/49/49 50/50/50
f 48/48/48 50/50/50 51/51/51
f 51/51/51 45/45/45 48/48/48
f 52/52/52 51/51/51 50/50/50
f 22/22/22 51/51/51 52/52/52
f 50/50/50 49/49/49 53/53/53
f 52/52/52 50/50/50 53/53/53
f 54/54/54 45/45/45 51/51/51
f 5/5/5 51/51/51 22/22/22
f 54/54/54 51/51/51 5/5/5
f 22/22/22 55/55/55 5/5/5
f 56/56/56 55/55/55 22/22/22
f 52/52/52 57/57/57 22/22/22
f 53/53/53 33/33/33 52/52/52
f 53/53/53 58/58/58 33/33/33
f 59/59/59 58/58/58 53/53/53
f 49/49/49 47/47/47 59/59/59
f 49/49/49 59/59/59 53/53/53
f 2/2/2 54/54/54 5/5/5
f 54/54/54 2/2/2 3/3/3
f 59/59/59 60/60/60 58/58/58
f 41/41/41 45/45/45 54/54/54
