#Rock3_(15)_1386_344.obj

v -0.944085 1.136906 -1.216794
v -0.7468477 1.254143 -0.2548345
v -1.413694 0.9414755 -0.4915512
v -0.02034428 0.9592803 -1.428617
v -0.1742673 1.097866 -0.09949448
v 0.1628796 0.9454907 -0.6093678
v 0.3469636 0.1322962 -1.149454
v -0.02510918 0.796134 -0.004591017
v -1.174626 0.8310585 -1.429894
v -0.257915 0.6002639 -1.550424
v -0.953979 -0.21589 -1.671467
v 0.06663033 -0.2244607 -1.314172
v 1.509476 -0.209759 -0.9086766
v 0.3823525 0.9776998 -0.7041178
v 1.391489 0.8841214 -0.2364168
v 0.474586 1.064101 -0.3634023
v 0.1628796 0.9454907 -0.6093678
v 1.368728 0.7879554 0.2762356
v 0.4568498 0.4594649 0.6407377
v 0.8598416 0.2661246 0.871822
v 0.2683694 0.6985022 1.177716
v 0.25962 0.9579569 0.5341906
v -1.344634 -0.2243984 -1.375771
v 1.63811 0.3897389 -0.2464697
v 1.146827 -0.2245951 0.7801659
v 1.12347 0.1747995 0.8086101
v 0.8664925 -0.1333605 0.9139368
v 1.693022 -0.2244684 -0.5556501
v 0.3808457 0.4957438 1.558169
v 0.8194536 -0.2030542 1.222913
v 0.8664925 -0.1333605 0.9139368
v 0.05720114 0.05316483 1.735742
v 0.2683694 0.6985022 1.177716
v -0.2569619 0.1026063 1.509111
v 0.1038515 -0.2227688 1.702711
v -0.1964398 -0.2194778 1.504251
v -1.45872 0.5425245 -1.023413
v -1.674871 -0.2224525 -0.6187662
v -1.346508 0.6172 -0.297125
v -1.348934 0.1914481 0.03926298
v -1.050595 0.6201938 -0.05249624
v -1.378552 -0.224503 0.1970383
v -0.7573679 1.030764 -0.01623645
v -1.348934 0.1914481 0.03926298
v -1.472793 0.6474112 0.3256972
v -1.378552 -0.224503 0.1970383
v -1.444069 -0.2243498 0.559083
v -1.406242 0.8316844 0.9874341
v -0.8474684 -0.008682422 1.63761
v -0.6836911 0.7736423 1.563666
v -0.6748973 1.361803 0.2764397
v 0.1808936 0.8877454 1.235785
v -0.346274 0.4248249 1.607318
v -0.7573679 1.030764 -0.01623645
v -0.02510918 0.796134 -0.004591017
v 0.4568498 0.4594649 0.6407377
v 0.2683694 0.6985022 1.177716
v -0.2569619 0.1026063 1.509111
v -0.7731869 -0.2244991 1.445945
v -0.1964398 -0.2194778 1.504251

vn -0.290155 0.9348052 -0.2048156
vn 0.01127953 0.9973203 0.07228351
vn -0.5668007 0.6492695 0.507135
vn 0.2068374 0.7025735 -0.6808882
vn 0.3089633 0.9105781 -0.2745707
vn 0.2698297 0.8790748 -0.3929625
vn -0.04102615 0.3156134 -0.9480006
vn 0.3945168 0.9128258 0.1053832
vn -0.7983304 0.3864119 -0.4619029
vn -0.3344959 0.08685968 -0.9383858
vn -0.589589 0.04967994 -0.8061742
vn -0.1525794 -0.02642263 -0.987938
vn -0.01542309 0.4526938 -0.8915327
vn -0.1830599 0.5773732 -0.7956942
vn 0.1745203 0.7114252 -0.6807473
vn 0.08392499 0.9712815 0.2226409
vn 0.2698297 0.8790748 -0.3929625
vn 0.7408016 0.6424781 0.1960481
vn 0.4172923 0.8904626 0.1815036
vn 0.7297964 0.6423116 0.234165
vn 0.7718363 0.6356437 0.015028
vn 0.519777 0.7666103 -0.3770154
vn -0.9912089 0.06310164 -0.1162893
vn 0.9186011 0.1174768 -0.3773212
vn 0.9995655 -0.02256741 -0.01896378
vn 0.9381 0.2010509 0.2820407
vn 0.9928713 0.07494502 0.0926812
vn 0.9156504 0.0290681 -0.4009233
vn 0.7770187 0.4661886 0.4229775
vn 0.9790496 0.1502465 0.1374334
vn 0.9928713 0.07494502 0.0926812
vn 0.5821033 0.2348079 0.7784736
vn 0.7718363 0.6356437 0.015028
vn 0.4596127 0.1169365 0.8803875
vn 0.7451184 -0.06205048 0.6640394
vn 0.2066425 -0.08557115 0.9746673
vn -0.9394138 0.2304539 0.253757
vn -0.8636542 0.1952759 0.4647243
vn -0.5535827 0.2920234 0.7799157
vn -0.8079179 0.2172661 0.5477811
vn -0.7679483 0.5712633 0.2896783
vn -0.8398938 0.04803255 0.5406212
vn -0.5662692 0.8094946 0.1551055
vn -0.8079179 0.2172661 0.5477811
vn -0.8731532 0.3899258 0.2925086
vn -0.8398938 0.04803255 0.5406212
vn -0.651518 -0.1460583 0.7444403
vn -0.4428352 0.4740957 0.7610061
vn -0.1611661 -0.183919 0.9696388
vn 0.1666809 0.7003081 0.694108
vn -0.07726292 0.9885024 0.129974
vn 0.4585582 0.8506142 0.2572547
vn 0.7288667 0.09849457 0.6775339
vn -0.5662692 0.8094946 0.1551055
vn 0.3945168 0.9128258 0.1053832
vn 0.4172923 0.8904626 0.1815036
vn 0.7718363 0.6356437 0.015028
vn 0.4596127 0.1169365 0.8803875
vn 0.06269372 -0.5943414 0.8017654
vn 0.2066425 -0.08557115 0.9746673

vt 0.1158447 0.9379883
vt 0.09533691 0.9116211
vt 0.08740234 0.9389648
vt 0.1425781 0.9262695
vt 0.1080322 0.8901367
vt 0.1347656 0.8984375
vt 0.1751709 0.9199219
vt 0.1161499 0.8774414
vt 0.1175537 0.9511719
vt 0.1467285 0.9389648
vt 0.1452637 0.9833984
vt 0.1838379 0.9423828
vt 0.2109375 0.8730469
vt 0.144165 0.8945313
vt 0.1627197 0.8598633
vt 0.1395264 0.8823242
vt 0.1347656 0.8984375
vt 0.1549072 0.8461914
vt 0.1179199 0.8393555
vt 0.1309814 0.8173828
vt 0.08795166 0.8276367
vt 0.1026611 0.8564453
vt 0.1208496 0.9916992
vt 0.1801758 0.8525391
vt 0.1566162 0.8022461
vt 0.1452637 0.815918
vt 0.1368408 0.7983398
vt 0.2078857 0.8515625
vt 0.09185791 0.8085938
vt 0.1263428 0.7885742
vt 0.1390381 0.7988281
vt 0.07946777 0.7866211
vt 0.08795166 0.8276367
vt 0.06323242 0.7915039
vt 0.08343506 0.7749023
vt 0.06542969 0.7753906
vt 0.100769 0.9599609
vt 0.07574463 0.9887695
vt 0.0725708 0.9418945
vt 0.050354 0.953125
vt 0.06292725 0.9248047
vt 0.03555298 0.9697266
vt 0.08239746 0.9072266
vt 0.03083801 0.921875
vt 0.04589844 0.9052734
vt 0.009361267 0.9145508
vt 0.007072449 0.8959961
vt 0.04684448 0.8813477
vt 0.02560425 0.8452148
vt 0.05227661 0.8515625
vt 0.08233643 0.8901367
vt 0.08343506 0.8369141
vt 0.04949951 0.8344727
vt 0.08239746 0.9072266
vt 0.1161499 0.8774414
vt 0.1179199 0.8393555
vt 0.08795166 0.8276367
vt 0.04055786 0.8222656
vt 0.01483154 0.8422852
vt 0.02677917 0.8149414

g Rock3_(15)_1386_344
usemtl Rock3_(15)_1386_344
usemap Rock3_(15)_1386_344
f 1/1/1 3/3/3 2/2/2
f 1/1/1 2/2/2 4/4/4
f 4/4/4 2/2/2 5/5/5
f 6/6/6 4/4/4 5/5/5
f 7/7/7 4/4/4 6/6/6
f 5/5/5 8/8/8 6/6/6
f 9/9/9 3/3/3 1/1/1
f 4/4/4 9/9/9 1/1/1
f 10/10/10 9/9/9 4/4/4
f 10/10/10 4/4/4 7/7/7
f 11/11/11 9/9/9 10/10/10
f 12/12/12 11/11/11 10/10/10
f 10/10/10 7/7/7 12/12/12
f 7/7/7 13/13/13 12/12/12
f 7/7/7 14/14/14 13/13/13
f 6/6/6 14/14/14 7/7/7
f 15/15/15 13/13/13 14/14/14
f 15/15/15 14/14/14 16/16/16
f 14/14/14 6/6/6 16/16/16
f 17/17/17 8/8/8 16/16/16
f 8/8/8 18/18/18 16/16/16
f 15/15/15 16/16/16 18/18/18
f 8/8/8 19/19/19 18/18/18
f 19/19/19 20/20/20 18/18/18
f 21/21/21 20/20/20 19/19/19
f 19/19/19 22/22/22 21/21/21
f 9/9/9 11/11/11 23/23/23
f 15/15/15 18/18/18 24/24/24
f 24/24/24 13/13/13 15/15/15
f 18/18/18 25/25/25 24/24/24
f 26/26/26 25/25/25 18/18/18
f 26/26/26 20/20/20 25/25/25
f 26/26/26 18/18/18 20/20/20
f 27/27/27 25/25/25 20/20/20
f 13/13/13 24/24/24 28/28/28
f 28/28/28 24/24/24 25/25/25
f 29/29/29 30/30/30 20/20/20
f 20/20/20 30/30/30 31/31/31
f 32/32/32 30/30/30 29/29/29
f 21/21/21 32/32/32 29/29/29
f 20/20/20 33/33/33 29/29/29
f 32/32/32 33/33/33 34/34/34
f 32/32/32 35/35/35 30/30/30
f 36/36/36 35/35/35 32/32/32
f 36/36/36 32/32/32 34/34/34
f 23/23/23 38/38/38 37/37/37
f 38/38/38 39/39/39 37/37/37
f 40/40/40 39/39/39 38/38/38
f 40/40/40 41/41/41 39/39/39
f 38/38/38 42/42/42 40/40/40
f 43/43/43 39/39/39 41/41/41
f 43/43/43 3/3/3 39/39/39
f 3/3/3 37/37/37 39/39/39
f 3/3/3 9/9/9 37/37/37
f 37/37/37 9/9/9 23/23/23
f 44/44/44 45/45/45 41/41/41
f 45/45/45 44/44/44 46/46/46
f 45/45/45 46/46/46 47/47/47
f 47/47/47 48/48/48 45/45/45
f 47/47/47 49/49/49 48/48/48
f 48/48/48 49/49/49 50/50/50
f 48/48/48 50/50/50 51/51/51
f 51/51/51 45/45/45 48/48/48
f 52/52/52 51/51/51 50/50/50
f 22/22/22 51/51/51 52/52/52
f 50/50/50 49/49/49 53/53/53
f 52/52/52 50/50/50 53/53/53
f 54/54/54 45/45/45 51/51/51
f 5/5/5 51/51/51 22/22/22
f 54/54/54 51/51/51 5/5/5
f 22/22/22 55/55/55 5/5/5
f 56/56/56 55/55/55 22/22/22
f 52/52/52 57/57/57 22/22/22
f 53/53/53 33/33/33 52/52/52
f 53/53/53 58/58/58 33/33/33
f 59/59/59 58/58/58 53/53/53
f 49/49/49 47/47/47 59/59/59
f 49/49/49 59/59/59 53/53/53
f 2/2/2 54/54/54 5/5/5
f 54/54/54 2/2/2 3/3/3
f 59/59/59 60/60/60 58/58/58
f 41/41/41 45/45/45 54/54/54
