#Rock1_(17)_2954_90.obj

v 1.359648 0.01363938 -1.331417
v 1.319728 0.0135592 -0.6880832
v 1.242807 0.3054046 -0.974582
v 0.7728521 0.0130343 -0.608448
v 0.892686 0.3021292 -1.035027
v 0.6144445 0.01404162 -0.8384151
v 0.7336746 0.01400771 -1.254679
v 0.9861513 0.01364693 -1.401172
v -1.389589 0.0130544 -0.1851264
v -0.8538237 0.3122752 -0.0557637
v -1.34066 0.01365911 0.3263066
v -1.002399 0.01367842 -0.4037324
v -0.760533 0.01336455 0.363223
v -0.5729706 0.01361182 -0.2637463
v 1.001594 0.2855606 0.9899391
v 0.8173 0.01372173 1.366721
v 0.624212 0.01373066 1.022427
v 0.7892038 0.01374345 0.7045415
v 1.267395 0.01349095 0.6808907
v 1.391292 0.0137456 1.085272
v 1.188963 0.01373536 1.302288

vn 0.4435363 0.6754879 -0.5890599
vn 0.7738904 0.6185585 0.1359375
vn 0.2982033 0.9472646 -0.1173226
vn 0.0767442 0.8072798 0.5851578
vn -0.4283214 0.9017841 0.05767339
vn -0.5874806 0.7196128 0.3701674
vn -0.729839 0.6684923 -0.1430141
vn -0.3218009 0.7751098 -0.5437361
vn -0.493302 0.8683699 -0.05086252
vn -0.001229987 0.9942888 -0.1067156
vn -0.1094852 0.896966 0.4283282
vn -0.3168376 0.767167 -0.5577354
vn 0.5806106 0.7799987 0.2334382
vn 0.4236025 0.7526576 -0.5040511
vn 0.01684717 0.9992471 0.03494885
vn 0.004921854 0.8391455 0.5438847
vn -0.525205 0.8115103 0.2561461
vn -0.5143635 0.7936142 -0.324972
vn 0.07109782 0.8294712 -0.554006
vn 0.5466466 0.8278425 -0.1259137
vn 0.4842685 0.8011036 0.3517343

vt 0.232352 0.7225032
vt 0.2140789 0.7594889
vt 0.2315052 0.7471936
vt 0.2440251 0.7788215
vt 0.2481601 0.7518374
vt 0.25929 0.7707678
vt 0.2656842 0.7432095
vt 0.2554635 0.7281532
vt 0.2299451 0.7854984
vt 0.2046784 0.8044612
vt 0.2372313 0.8160826
vt 0.2031385 0.7796935
vt 0.2051533 0.8319056
vt 0.1814293 0.7981536
vt 0.2774515 0.8074797
vt 0.2498153 0.8143666
vt 0.2700397 0.8334671
vt 0.2944277 0.8271991
vt 0.3019956 0.793874
vt 0.2759953 0.7793822
vt 0.257976 0.7891733

g Rock1_(17)_2954_90
usemtl Rock1_(17)_2954_90
usemap Rock1_(17)_2954_90
f 1/1/1 3/3/3 2/2/2
f 4/4/4 2/2/2 3/3/3
f 3/3/3 5/5/5 4/4/4
f 6/6/6 4/4/4 5/5/5
f 5/5/5 7/7/7 6/6/6
f 5/5/5 3/3/3 8/8/8
f 8/8/8 3/3/3 1/1/1
f 5/5/5 8/8/8 7/7/7
f 9/9/9 11/11/11 10/10/10
f 10/10/10 12/12/12 9/9/9
f 13/13/13 10/10/10 11/11/11
f 10/10/10 13/13/13 14/14/14
f 12/12/12 10/10/10 14/14/14
f 15/15/15 17/17/17 16/16/16
f 15/15/15 18/18/18 17/17/17
f 19/19/19 18/18/18 15/15/15
f 20/20/20 19/19/19 15/15/15
f 15/15/15 21/21/21 20/20/20
f 15/15/15 16/16/16 21/21/21
