#Rock6_(9)_2424_98.obj

v -1.236708 3.209405 0.346405
v -1.474784 2.872101 -1.102168
v -1.562952 4.526831 -1.224277
v -1.28177 4.841282 0.02394213
v -1.151254 4.899974 -1.929438
v -1.016886 2.822655 -1.835116
v -1.020235 1.809068 -2.316542
v -0.5481982 3.117438 -2.707601
v 0.6218542 1.730926 -2.873075
v 0.2721214 4.178768 -2.267881
v -1.151254 4.899974 -1.929438
v 0.6092333 3.360725 -3.125412
v -0.01488019 5.13487 -1.87334
v 0.831309 5.230927 -1.022463
v 1.039694 3.768537 -1.38734
v 1.360365 3.983282 -0.3570555
v 1.975577 3.733561 -0.9577515
v 2.106194 2.792788 -1.454776
v 0.9009953 3.958027 -2.628183
v 1.931779 2.928857 -2.678801
v 2.5141 1.132488 -1.114859
v 1.703075 1.427734 -2.834969
v 3.028783 0.3228217 -1.658863
v 2.479304 0.1984252 -2.867007
v 2.180643 -0.5407414 -1.783578
v 2.733015 1.788073 -0.6602186
v 1.701106 3.698973 0.3687832
v 1.886446 2.360494 1.176381
v 0.9965032 3.311402 0.9016148
v 0.2387309 1.849801 0.9230311
v 0.3801696 1.895067 1.918862
v -0.4070286 1.425858 1.621716
v 2.320274 1.594342 0.8071145
v 1.376623 2.152632 1.792227
v 2.123568 1.388564 2.654404
v 3.073168 0.7066534 2.030954
v 3.056273 1.85684 0.1955312
v 2.733015 1.788073 -0.6602186
v 1.853987 0.726258 3.383933
v 4.049134 -0.4276555 1.033543
v 0.8851583 -0.5281102 3.081406
v -0.2444025 0.627618 2.61798
v -0.01758265 3.073839 0.6209663
v 0.9617565 3.805691 0.3615067
v -0.6993064 4.407137 0.5812387
v 3.516595 1.319851 -1.03394
v 4.563244 0.2715785 -0.5201293
v 3.028783 0.3228217 -1.658863
v 2.180643 -0.5407414 -1.783578
v 4.122966 -0.5214713 -0.2905186
v 4.018281 0.6980371 0.9017909
v 2.5141 1.132488 -1.114859
v 0.3700459 4.678805 0.3088607
v 0.1843626 -0.5258934 2.745474
v -0.3405128 -0.5715036 2.032531
v 0.359233 0.3622345 -3.266109
v -0.5635126 1.316723 -2.314865
v 1.661064 -0.02172414 -3.327482
v 0.8281109 -0.5455053 -3.003252
v -0.7060136 -0.4598512 -2.542687
v -1.741647 2.206295 -0.8956686
v -2.528664 1.464055 -0.6106963
v -1.713913 0.6600761 -3.075072
v -1.06873 -0.5076558 -2.763053
v -2.385825 -0.5129777 -3.040936
v -3.120954 0.2592432 -2.693192
v -4.480307 0.6077139 -0.8795208
v -4.13326 -0.5229296 -1.524207
v -2.605871 1.973176 0.2666675
v -1.459221 2.196388 0.4325109
v -2.853494 1.084525 0.695002
v -1.329145 2.105422 1.679049
v -3.949993 1.043734 -0.113942
v -3.451681 -0.463022 0.4123373
v -2.452754 1.584432 1.504684
v -2.939081 0.4809865 1.723796
v -2.473322 -0.5236428 0.7772784
v -2.447233 -0.4485819 1.535059
v -1.735513 -0.4811366 2.399977
v -2.08057 1.310773 2.344724
v -0.8963653 0.8641605 2.904366
v -0.2444025 0.627618 2.61798
v -0.3405128 -0.5715036 2.032531
v -0.4070286 1.425858 1.621716
v -0.8118807 2.160965 1.098281
v 0.2387309 1.849801 0.9230311
v -4.303096 -0.4561064 -0.5345939
v -0.284939 2.534728 1.128037
v -0.01758265 3.073839 0.6209663
v -0.6993064 4.407137 0.5812387
v -0.5402108 5.228827 -0.2612766
v 0.3700459 4.678805 0.3088607
v 0.831309 5.230927 -1.022463
v -0.01488019 5.13487 -1.87334
v -1.151254 4.899974 -1.929438

vn -0.908331 0.2592962 0.3281772
vn -0.786361 0.1119816 -0.6075332
vn -0.9181413 0.171937 -0.3570073
vn -0.7858639 0.598763 0.1545991
vn -0.4114553 0.5139984 -0.7526687
vn -0.5652326 0.2125862 -0.7970691
vn -0.50339 -0.09348766 -0.858987
vn -0.3516019 0.2627598 -0.8985173
vn 0.1232301 0.02278011 -0.9921166
vn 0.2717499 0.6402245 -0.7185156
vn -0.4114553 0.5139984 -0.7526687
vn 0.2818027 0.2773335 -0.9185169
vn 0.2648948 0.8400252 -0.4734853
vn 0.6996983 0.7107748 0.07225864
vn 0.7142876 0.687723 -0.1297321
vn 0.5156219 0.7857049 0.341763
vn 0.7076719 0.706033 -0.02679411
vn 0.8837503 0.465468 -0.04821765
vn 0.5490282 0.820181 -0.1608456
vn 0.9111788 0.3134167 -0.2674382
vn 0.8419685 0.4014389 -0.3604661
vn 0.7675079 0.2542386 -0.5884678
vn 0.884591 0.1694264 -0.4345039
vn 0.9099588 -0.2158346 -0.354105
vn 0.6742563 -0.6642826 -0.3226563
vn 0.7638556 0.6418281 0.0676861
vn 0.3622652 0.7137004 0.5994962
vn 0.2012158 0.6574432 0.726141
vn -0.3597621 0.481303 0.7993238
vn -0.3048275 0.5514535 0.7765173
vn -0.4718123 0.8430533 0.2581747
vn -0.1085481 0.8325457 0.5432172
vn 0.4009268 0.7563229 0.5169462
vn 0.05820993 0.7975242 0.6004722
vn 0.3640803 0.7296562 0.5788327
vn 0.4344362 0.5235543 0.7329093
vn 0.3506891 0.8933702 0.2809036
vn 0.7638556 0.6418281 0.0676861
vn -0.0926225 0.3601178 0.9282975
vn 0.6193815 -0.1718875 0.7660425
vn -0.4168471 -0.2119215 0.8839275
vn -0.4444227 0.209909 0.870877
vn -0.3142308 0.3590254 0.87884
vn -0.07172339 0.6043571 0.7934787
vn -0.4031244 0.3320666 0.8527734
vn 0.5623959 0.6760453 -0.4761026
vn 0.9986603 0.04877751 -0.01727685
vn 0.884591 0.1694264 -0.4345039
vn 0.6742563 -0.6642826 -0.3226563
vn 0.8453724 -0.5295672 -0.07002969
vn 0.6391484 0.4197555 0.6444336
vn 0.8419685 0.4014389 -0.3604661
vn 0.1674623 0.6182205 0.7679582
vn -0.8345569 -0.1471811 0.5308977
vn -0.5909975 -0.3909336 0.7056152
vn -0.01624024 0.0003232931 -0.9998681
vn -0.02778643 0.150817 -0.9881712
vn 0.5406007 -0.2291787 -0.8094616
vn 0.2354962 -0.5822027 -0.7781913
vn 0.1594048 -0.07199582 -0.9845846
vn -0.7605972 0.3709733 -0.5327952
vn -0.2773772 0.7743115 -0.5687737
vn 0.2391147 0.4539614 -0.8583375
vn 0.6860059 -0.004566381 -0.7275817
vn 0.05410433 -0.09996416 -0.9935189
vn -0.3035342 0.3971216 -0.8661186
vn -0.7462005 0.447575 -0.4928098
vn -0.631544 -0.1326384 -0.7639105
vn -0.5485132 0.8361113 0.007157758
vn -0.6400417 0.7392719 0.2093408
vn -0.9125212 0.3720253 0.1700067
vn -0.1109101 0.9250806 0.3632147
vn -0.8520464 0.4953055 0.1693796
vn -0.8036836 0.01214054 0.594933
vn -0.7113304 0.7026104 -0.01864688
vn -0.9932413 -0.0219943 0.1139649
vn -0.9370221 -0.1565553 0.312218
vn -0.8991261 -0.3964908 -0.1853843
vn -0.5493768 -0.3375011 0.7643808
vn -0.7241856 0.3979436 0.5632017
vn -0.2515017 0.2753493 0.927863
vn -0.4444227 0.209909 0.870877
vn -0.5909975 -0.3909336 0.7056152
vn -0.1085481 0.8325457 0.5432172
vn -0.2845187 0.590334 0.7553508
vn -0.3048275 0.5514535 0.7765173
vn -0.9948691 -0.06575603 0.07688716
vn -0.2031184 0.3614806 0.9099861
vn -0.3142308 0.3590254 0.87884
vn -0.4031244 0.3320666 0.8527734
vn -0.1949475 0.9483293 0.250334
vn 0.1674623 0.6182205 0.7679582
vn 0.6996983 0.7107748 0.07225864
vn 0.2648948 0.8400252 -0.4734853
vn -0.4114553 0.5139984 -0.7526687

vt 0.8231459 0.1412811
vt 0.7883072 0.1687649
vt 0.8248338 0.191771
vt 0.84566 0.1732586
vt 0.8281713 0.2130635
vt 0.7788596 0.1915323
vt 0.7468348 0.193715
vt 0.773026 0.217105
vt 0.7331188 0.2392735
vt 0.8012317 0.2414989
vt 0.8281713 0.2130635
vt 0.7714517 0.2431242
vt 0.829016 0.2385388
vt 0.8406981 0.2669347
vt 0.8023803 0.2772322
vt 0.8205258 0.3028347
vt 0.7974706 0.3012469
vt 0.7706497 0.3005626
vt 0.786665 0.2525096
vt 0.7615646 0.2723642
vt 0.7297045 0.3246586
vt 0.7256798 0.2698756
vt 0.696672 0.320396
vt 0.6931584 0.2864413
vt 0.6630096 0.301508
vt 0.7531115 0.3356102
vt 0.8181403 0.3254004
vt 0.8071356 0.3668394
vt 0.8341107 0.3410686
vt 0.8549328 0.3773758
vt 0.8416806 0.398488
vt 0.8653755 0.4045208
vt 0.7803735 0.3730094
vt 0.8179173 0.3865156
vt 0.8010911 0.4124908
vt 0.7720816 0.4171657
vt 0.755937 0.3696103
vt 0.7446331 0.3487687
vt 0.8067919 0.4320129
vt 0.7327688 0.4310905
vt 0.8150444 0.4643281
vt 0.8521799 0.4378246
vt 0.8611558 0.3451616
vt 0.8371004 0.3210829
vt 0.8855886 0.3146266
vt 0.7253577 0.3645383
vt 0.7163779 0.3963445
vt 0.6937345 0.3599196
vt 0.6639279 0.3623682
vt 0.7020375 0.4103533
vt 0.7440964 0.4062354
vt 0.7208988 0.3403848
vt 0.8582302 0.3018931
vt 0.8355261 0.4668562
vt 0.8579786 0.4733487
vt 0.6962927 0.2339922
vt 0.7284594 0.1980938
vt 0.6880827 0.2651151
vt 0.6692902 0.247075
vt 0.674421 0.2010314
vt 0.7728432 0.1515844
vt 0.7519697 0.1265733
vt 0.6971474 0.1702068
vt 0.6706434 0.1913131
vt 0.6658697 0.1530285
vt 0.6890605 0.13556
vt 0.7127712 0.09072217
vt 0.6814806 0.09158267
vt 0.7718416 0.1082462
vt 0.8034384 0.1185296
vt 0.7665408 0.07984909
vt 0.8193972 0.0893054
vt 0.7351359 0.09025647
vt 0.7303844 0.04961941
vt 0.7920786 0.0756284
vt 0.7814513 0.0529465
vt 0.7535622 0.03513337
vt 0.7729272 0.02911376
vt 0.8041271 0.0184969
vt 0.8069574 0.06217192
vt 0.8319979 0.04845675
vt 0.8492523 0.04448332
vt 0.8432182 0.007874016
vt 0.8451563 0.07968558
vt 0.8294708 0.1042833
vt 0.8606667 0.0985227
vt 0.7006772 0.06793586
vt 0.8438517 0.1120525
vt 0.8527588 0.1271803
vt 0.8559108 0.1568392
vt 0.8597613 0.1855388
vt 0.8854554 0.1709481
vt 0.886409 0.2135766
vt 0.8558985 0.2265289
vt 0.8281713 0.2130635

g Rock6_(9)_2424_98
usemtl Rock6_(9)_2424_98
usemap Rock6_(9)_2424_98
f 1/1/1 3/3/3 2/2/2
f 1/1/1 4/4/4 3/3/3
f 3/3/3 5/5/5 2/2/2
f 5/5/5 3/3/3 4/4/4
f 2/2/2 5/5/5 6/6/6
f 2/2/2 6/6/6 7/7/7
f 6/6/6 8/8/8 7/7/7
f 7/7/7 8/8/8 9/9/9
f 10/10/10 8/8/8 6/6/6
f 10/10/10 6/6/6 11/11/11
f 9/9/9 8/8/8 12/12/12
f 12/12/12 8/8/8 10/10/10
f 10/10/10 5/5/5 13/13/13
f 13/13/13 14/14/14 10/10/10
f 15/15/15 10/10/10 14/14/14
f 15/15/15 14/14/14 16/16/16
f 17/17/17 15/15/15 16/16/16
f 18/18/18 15/15/15 17/17/17
f 18/18/18 19/19/19 15/15/15
f 10/10/10 19/19/19 12/12/12
f 10/10/10 15/15/15 19/19/19
f 18/18/18 20/20/20 19/19/19
f 20/20/20 12/12/12 19/19/19
f 20/20/20 18/18/18 21/21/21
f 22/22/22 20/20/20 21/21/21
f 12/12/12 20/20/20 22/22/22
f 22/22/22 9/9/9 12/12/12
f 21/21/21 23/23/23 22/22/22
f 24/24/24 22/22/22 23/23/23
f 25/25/25 24/24/24 23/23/23
f 18/18/18 17/17/17 26/26/26
f 18/18/18 26/26/26 21/21/21
f 17/17/17 27/27/27 26/26/26
f 17/17/17 16/16/16 27/27/27
f 27/27/27 28/28/28 26/26/26
f 28/28/28 27/27/27 29/29/29
f 29/29/29 30/30/30 28/28/28
f 30/30/30 31/31/31 28/28/28
f 30/30/30 32/32/32 31/31/31
f 26/26/26 28/28/28 33/33/33
f 34/34/34 33/33/33 28/28/28
f 28/28/28 31/31/31 34/34/34
f 34/34/34 35/35/35 33/33/33
f 36/36/36 33/33/33 35/35/35
f 36/36/36 37/37/37 33/33/33
f 37/37/37 38/38/38 33/33/33
f 36/36/36 35/35/35 39/39/39
f 34/34/34 39/39/39 35/35/35
f 34/34/34 31/31/31 39/39/39
f 36/36/36 39/39/39 40/40/40
f 39/39/39 41/41/41 40/40/40
f 39/39/39 42/42/42 41/41/41
f 31/31/31 42/42/42 39/39/39
f 31/31/31 32/32/32 42/42/42
f 29/29/29 43/43/43 30/30/30
f 29/29/29 44/44/44 43/43/43
f 44/44/44 45/45/45 43/43/43
f 46/46/46 38/38/38 37/37/37
f 37/37/37 47/47/47 46/46/46
f 48/48/48 46/46/46 47/47/47
f 49/49/49 48/48/48 47/47/47
f 50/50/50 49/49/49 47/47/47
f 47/47/47 40/40/40 50/50/50
f 47/47/47 51/51/51 40/40/40
f 47/47/47 37/37/37 51/51/51
f 51/51/51 37/37/37 36/36/36
f 40/40/40 51/51/51 36/36/36
f 48/48/48 52/52/52 46/46/46
f 52/52/52 38/38/38 46/46/46
f 53/53/53 45/45/45 44/44/44
f 16/16/16 53/53/53 44/44/44
f 16/16/16 14/14/14 53/53/53
f 41/41/41 42/42/42 54/54/54
f 55/55/55 54/54/54 42/42/42
f 44/44/44 27/27/27 16/16/16
f 29/29/29 27/27/27 44/44/44
f 56/56/56 57/57/57 9/9/9
f 56/56/56 9/9/9 58/58/58
f 56/56/56 58/58/58 59/59/59
f 60/60/60 57/57/57 56/56/56
f 59/59/59 60/60/60 56/56/56
f 58/58/58 25/25/25 59/59/59
f 9/9/9 22/22/22 58/58/58
f 7/7/7 9/9/9 57/57/57
f 61/61/61 7/7/7 57/57/57
f 57/57/57 62/62/62 61/61/61
f 63/63/63 62/62/62 57/57/57
f 64/64/64 63/63/63 57/57/57
f 64/64/64 57/57/57 60/60/60
f 65/65/65 63/63/63 64/64/64
f 66/66/66 63/63/63 65/65/65
f 63/63/63 66/66/66 62/62/62
f 62/62/62 66/66/66 67/67/67
f 68/68/68 67/67/67 66/66/66
f 68/68/68 66/66/66 65/65/65
f 62/62/62 69/69/69 61/61/61
f 61/61/61 69/69/69 70/70/70
f 70/70/70 69/69/69 71/71/71
f 71/71/71 72/72/72 70/70/70
f 71/71/71 69/69/69 73/73/73
f 62/62/62 73/73/73 69/69/69
f 62/62/62 67/67/67 73/73/73
f 71/71/71 73/73/73 74/74/74
f 71/71/71 75/75/75 72/72/72
f 75/75/75 71/71/71 76/76/76
f 74/74/74 77/77/77 71/71/71
f 77/77/77 78/78/78 71/71/71
f 71/71/71 78/78/78 76/76/76
f 79/79/79 76/76/76 78/78/78
f 79/79/79 80/80/80 76/76/76
f 80/80/80 72/72/72 75/75/75
f 80/80/80 75/75/75 76/76/76
f 80/80/80 79/79/79 81/81/81
f 80/80/80 81/81/81 72/72/72
f 81/81/81 79/79/79 82/82/82
f 81/81/81 82/82/82 72/72/72
f 79/79/79 83/83/83 82/82/82
f 72/72/72 82/82/82 84/84/84
f 84/84/84 85/85/85 72/72/72
f 85/85/85 70/70/70 72/72/72
f 86/86/86 85/85/85 84/84/84
f 74/74/74 73/73/73 87/87/87
f 87/87/87 73/73/73 67/67/67
f 67/67/67 68/68/68 87/87/87
f 85/85/85 86/86/86 88/88/88
f 88/88/88 86/86/86 89/89/89
f 89/89/89 1/1/1 88/88/88
f 88/88/88 1/1/1 85/85/85
f 89/89/89 90/90/90 1/1/1
f 85/85/85 1/1/1 70/70/70
f 61/61/61 70/70/70 1/1/1
f 90/90/90 4/4/4 1/1/1
f 61/61/61 1/1/1 2/2/2
f 61/61/61 2/2/2 7/7/7
f 90/90/90 91/91/91 4/4/4
f 91/91/91 90/90/90 92/92/92
f 92/92/92 93/93/93 91/91/91
f 94/94/94 91/91/91 93/93/93
f 94/94/94 95/95/95 91/91/91
f 4/4/4 91/91/91 5/5/5
f 58/58/58 24/24/24 25/25/25
f 22/22/22 24/24/24 58/58/58
