#Rock3_(25)_2723_155.obj

v -0.9440861 1.136906 -1.216793
v -0.7468482 1.254143 -0.2548352
v -1.413692 0.9414755 -0.4915501
v -0.02034474 0.9592803 -1.428618
v -0.174268 1.097866 -0.09949507
v 0.1628796 0.9454907 -0.6093682
v 0.3469629 0.1322962 -1.149455
v -0.02510948 0.796134 -0.004591329
v -1.174626 0.8310585 -1.429895
v -0.2579129 0.6002639 -1.550424
v -0.9539777 -0.21589 -1.671466
v 0.06663135 -0.2244607 -1.31417
v 1.509475 -0.209759 -0.9086762
v 0.3823541 0.9776998 -0.7041185
v 1.391489 0.8841214 -0.2364164
v 0.4745854 1.064101 -0.3634017
v 0.1628796 0.9454907 -0.6093682
v 1.368727 0.7879554 0.2762348
v 0.4568511 0.4594649 0.6407386
v 0.8598414 0.2661246 0.871823
v 0.2683673 0.6985022 1.177714
v 0.25962 0.9579569 0.5341908
v -1.344633 -0.2243984 -1.375772
v 1.638112 0.3897389 -0.2464678
v 1.146827 -0.2245951 0.7801666
v 1.123469 0.1747995 0.8086099
v 0.8664918 -0.1333605 0.9139376
v 1.693023 -0.2244684 -0.5556495
v 0.380846 0.4957438 1.558169
v 0.8194552 -0.2030543 1.222914
v 0.8664918 -0.1333605 0.9139376
v 0.05720032 0.05316483 1.735742
v 0.2683673 0.6985022 1.177714
v -0.2569641 0.1026063 1.509111
v 0.103853 -0.2227688 1.70271
v -0.1964379 -0.2194778 1.504252
v -1.458718 0.5425245 -1.023413
v -1.67487 -0.2224525 -0.6187663
v -1.346507 0.6172 -0.2971245
v -1.348932 0.1914481 0.03926355
v -1.050595 0.6201938 -0.05249695
v -1.378551 -0.224503 0.1970393
v -0.757369 1.030764 -0.01623549
v -1.348932 0.1914481 0.03926355
v -1.472794 0.6474112 0.3256977
v -1.378551 -0.224503 0.1970393
v -1.444069 -0.2243498 0.5590819
v -1.406241 0.8316844 0.9874341
v -0.847467 -0.008682419 1.637611
v -0.6836918 0.7736423 1.563666
v -0.6748992 1.361803 0.2764381
v 0.180895 0.8877454 1.235785
v -0.3462729 0.4248249 1.607319
v -0.757369 1.030764 -0.01623549
v -0.02510948 0.796134 -0.004591329
v 0.4568511 0.4594649 0.6407386
v 0.2683673 0.6985022 1.177714
v -0.2569641 0.1026063 1.509111
v -0.7731878 -0.2244991 1.445944
v -0.1964379 -0.2194778 1.504252

vn -0.2329588 0.9348052 -0.2680849
vn -0.006278649 0.9973203 0.07288836
vn -0.6713619 0.6492695 0.3573822
vn 0.3632022 0.7025735 -0.6119433
vn 0.3655142 0.9105781 -0.1929943
vn 0.3557344 0.8790748 -0.317302
vn 0.1861674 0.3156134 -0.9304461
vn 0.3580168 0.9128258 0.1964003
vn -0.6651895 0.3864119 -0.6389121
vn -0.1011324 0.08685968 -0.991074
vn -0.3803902 0.04967994 -0.9234908
vn 0.08735219 -0.02642263 -0.995827
vn 0.1975698 0.4526938 -0.8695024
vn 0.01191816 0.5773732 -0.8163934
vn 0.3317834 0.7114252 -0.619511
vn 0.02842576 0.9712815 0.2362294
vn 0.3557344 0.8790748 -0.317302
vn 0.6727013 0.6424781 0.3670079
vn 0.3619879 0.8904626 0.2757556
vn 0.6529261 0.6423116 0.4014019
vn 0.7459977 0.6356437 0.1986063
vn 0.5946727 0.7666103 -0.2422254
vn -0.9349033 0.06310164 -0.3492479
vn 0.9820696 0.1174768 -0.1474397
vn 0.9752643 -0.02256741 0.219887
vn 0.8438094 0.2010509 0.4975583
vn 0.9421461 0.07494502 0.3267168
vn 0.9848309 0.0290681 -0.1710647
vn 0.6537725 0.4661886 0.5960283
vn 0.9180537 0.1502465 0.3668834
vn 0.9421461 0.07494502 0.3267168
vn 0.3797244 0.2348079 0.8948042
vn 0.7459977 0.6356437 0.1986063
vn 0.2364688 0.1169365 0.9645768
vn 0.5653209 -0.06205048 0.8225338
vn -0.0316841 -0.08557115 0.9958281
vn -0.9728236 0.2304539 0.02247657
vn -0.9495447 0.1952759 0.2454223
vn -0.7235581 0.2920234 0.6254486
vn -0.9152169 0.2172661 0.3393721
vn -0.8148662 0.5712633 0.09824076
vn -0.9445639 0.04803255 0.3247954
vn -0.5869192 0.8094946 0.01563016
vn -0.9152169 0.2172661 0.3393721
vn -0.9177123 0.3899258 0.07590777
vn -0.9445639 0.04803255 0.3247954
vn -0.8102118 -0.1460583 0.5676477
vn -0.6114957 0.4740957 0.6334873
vn -0.3876882 -0.183919 0.9032562
vn -0.003605902 0.7003081 0.7138315
vn -0.1060219 0.9885024 0.1078062
vn 0.3840042 0.8506142 0.3591605
vn 0.5463207 0.09849457 0.8317647
vn -0.5869192 0.8094946 0.01563016
vn 0.3580168 0.9128258 0.1964003
vn 0.3619879 0.8904626 0.2757556
vn 0.7459977 0.6356437 0.1986063
vn 0.2364688 0.1169365 0.9645768
vn -0.130261 -0.5943414 0.7935933
vn -0.0316841 -0.08557115 0.9958281

vt 0.1158638 0.9383631
vt 0.09538253 0.9120352
vt 0.08741901 0.9391211
vt 0.1426682 0.9264175
vt 0.1080404 0.8905393
vt 0.1347711 0.8988628
vt 0.1751804 0.9199398
vt 0.1161831 0.8776034
vt 0.1176134 0.9513465
vt 0.1468127 0.9391351
vt 0.1453332 0.9837276
vt 0.1839423 0.9427396
vt 0.2110212 0.8733379
vt 0.144241 0.8946485
vt 0.1627785 0.8600584
vt 0.1395759 0.8824828
vt 0.1347711 0.8988628
vt 0.1549532 0.8464264
vt 0.1179448 0.8396425
vt 0.1310518 0.8177863
vt 0.08797247 0.8280851
vt 0.1027162 0.8567739
vt 0.1208919 0.9921259
vt 0.1802932 0.852975
vt 0.156728 0.8026067
vt 0.1453191 0.8163236
vt 0.1368421 0.7983432
vt 0.2079828 0.8517604
vt 0.09188173 0.8086196
vt 0.1263664 0.7887857
vt 0.1390489 0.7991756
vt 0.07950947 0.7867259
vt 0.08797247 0.8280851
vt 0.06328828 0.791539
vt 0.08346606 0.7749887
vt 0.06547388 0.7755531
vt 0.1007873 0.9601148
vt 0.07576175 0.9891008
vt 0.07257432 0.9420716
vt 0.0503709 0.9534717
vt 0.06298687 0.9252746
vt 0.03557348 0.970162
vt 0.08244275 0.9075034
vt 0.03084773 0.9223279
vt 0.04592365 0.9057153
vt 0.009368702 0.9150389
vt 0.007073132 0.8962587
vt 0.04685852 0.8817821
vt 0.02561666 0.8455088
vt 0.05227689 0.8518144
vt 0.08237857 0.8901991
vt 0.08348626 0.8371816
vt 0.04950949 0.8346252
vt 0.08244275 0.9075034
vt 0.1161831 0.8776034
vt 0.1179448 0.8396425
vt 0.08797247 0.8280851
vt 0.04058571 0.8226988
vt 0.01483814 0.842499
vt 0.02678112 0.815241

g Rock3_(25)_2723_155
usemtl Rock3_(25)_2723_155
usemap Rock3_(25)_2723_155
f 1/1/1 3/3/3 2/2/2
f 1/1/1 2/2/2 4/4/4
f 4/4/4 2/2/2 5/5/5
f 6/6/6 4/4/4 5/5/5
f 7/7/7 4/4/4 6/6/6
f 5/5/5 8/8/8 6/6/6
f 9/9/9 3/3/3 1/1/1
f 4/4/4 9/9/9 1/1/1
f 10/10/10 9/9/9 4/4/4
f 10/10/10 4/4/4 7/7/7
f 11/11/11 9/9/9 10/10/10
f 12/12/12 11/11/11 10/10/10
f 10/10/10 7/7/7 12/12/12
f 7/7/7 13/13/13 12/12/12
f 7/7/7 14/14/14 13/13/13
f 6/6/6 14/14/14 7/7/7
f 15/15/15 13/13/13 14/14/14
f 15/15/15 14/14/14 16/16/16
f 14/14/14 6/6/6 16/16/16
f 17/17/17 8/8/8 16/16/16
f 8/8/8 18/18/18 16/16/16
f 15/15/15 16/16/16 18/18/18
f 8/8/8 19/19/19 18/18/18
f 19/19/19 20/20/20 18/18/18
f 21/21/21 20/20/20 19/19/19
f 19/19/19 22/22/22 21/21/21
f 9/9/9 11/11/11 23/23/23
f 15/15/15 18/18/18 24/24/24
f 24/24/24 13/13/13 15/15/15
f 18/18/18 25/25/25 24/24/24
f 26/26/26 25/25/25 18/18/18
f 26/26/26 20/20/20 25/25/25
f 26/26/26 18/18/18 20/20/20
f 27/27/27 25/25/25 20/20/20
f 13/13/13 24/24/24 28/28/28
f 28/28/28 24/24/24 25/25/25
f 29/29/29 30/30/30 20/20/20
f 20/20/20 30/30/30 31/31/31
f 32/32/32 30/30/30 29/29/29
f 21/21/21 32/32/32 29/29/29
f 20/20/20 33/33/33 29/29/29
f 32/32/32 33/33/33 34/34/34
f 32/32/32 35/35/35 30/30/30
f 36/36/36 35/35/35 32/32/32
f 36/36/36 32/32/32 34/34/34
f 23/23/23 38/38/38 37/37/37
f 38/38/38 39/39/39 37/37/37
f 40/40/40 39/39/39 38/38/38
f 40/40/40 41/41/41 39/39/39
f 38/38/38 42/42/42 40/40/40
f 43/43/43 39/39/39 41/41/41
f 43/43/43 3/3/3 39/39/39
f 3/3/3 37/37/37 39/39/39
f 3/3/3 9/9/9 37/37/37
f 37/37/37 9/9/9 23/23/23
f 44/44/44 45/45/45 41/41/41
f 45/45/45 44/44/44 46/46/46
f 45/45/45 46/46/46 47/47/47
f 47/47/47 48/48/48 45/45/45
f 47/47/47 49/49/49 48/48/48
f 48/48/48 49/49/49 50/50/50
f 48/48/48 50/50/50 51/51/51
f 51/51/51 45/45/45 48/48/48
f 52/52/52 51/51/51 50/50/50
f 22/22/22 51/51/51 52/52/52
f 50/50/50 49/49/49 53/53/53
f 52/52/52 50/50/50 53/53/53
f 54/54/54 45/45/45 51/51/51
f 5/5/5 51/51/51 22/22/22
f 54/54/54 51/51/51 5/5/5
f 22/22/22 55/55/55 5/5/5
f 56/56/56 55/55/55 22/22/22
f 52/52/52 57/57/57 22/22/22
f 53/53/53 33/33/33 52/52/52
f 53/53/53 58/58/58 33/33/33
f 59/59/59 58/58/58 53/53/53
f 49/49/49 47/47/47 59/59/59
f 49/49/49 59/59/59 53/53/53
f 2/2/2 54/54/54 5/5/5
f 54/54/54 2/2/2 3/3/3
f 59/59/59 60/60/60 58/58/58
f 41/41/41 45/45/45 54/54/54
