#Rock2_2945_106.obj

v -0.7356777 0.4740573 0.2745553
v -0.5051324 0.3718341 0.7529826
v -0.3678138 -0.2900451 0.9057287
v 0.7341132 0.2400902 0.8099371
v -0.6393997 -0.2913473 0.3198798
v -0.5741696 0.5383939 -0.04158103
v -0.1068022 0.6084876 0.6504688
v 0.009654667 0.5926169 -0.4148909
v 0.5384251 0.4554392 0.566685
v 0.985014 0.1693146 0.001952432
v 0.4615301 0.324125 -0.8180443
v 0.6364232 -0.273348 -0.821533
v 0.2458181 0.05991474 -0.9633023
v 0.05611028 -0.2908759 -0.6812956
v 0.2035055 0.2140242 -0.9365868
v 0.9783601 -0.287282 -0.3011867
v 0.9548116 -0.291513 0.06816362
v -0.9351335 0.4262962 -0.5231435
v -0.4286592 0.4730428 -0.9904039
v -0.4060318 -0.2855906 -1.03288
v -0.8305858 0.1313641 0.01096907
v -0.979264 0.151463 -0.4787156
v -0.8989174 -0.2916313 -0.4480032
v -0.6393997 -0.2913473 0.3198798
v -0.5741696 0.5383939 -0.04158103
v 0.2035055 0.2140242 -0.9365868
v 0.2035055 0.2140242 -0.9365868
v 0.05611028 -0.2908759 -0.6812956
v -0.5741696 0.5383939 -0.04158103
v 1.044431 -0.2880547 0.2028485
v 0.7245635 -0.2905777 0.9006592
v 0.9548116 -0.291513 0.06816362

vn -0.3924733 0.3850665 0.8352776
vn 0.5363646 0.3150229 0.7829902
vn 0.6518996 0.1408855 0.7451029
vn 0.9304446 0.3661231 0.01505727
vn -0.1366166 -0.08236825 0.9871938
vn -0.1723751 0.9284316 0.329092
vn 0.361373 0.9172869 0.1673149
vn -0.02507331 0.9711689 -0.2370701
vn 0.260713 0.9156283 -0.3060289
vn 0.2730951 0.6650724 -0.6950524
vn -0.08279389 0.6816058 -0.7270206
vn -0.2418148 0.1201515 -0.9628547
vn -0.8643863 -0.2054751 -0.4589297
vn -0.5355105 -0.5490931 -0.6416582
vn -0.6410106 0.376107 -0.6690657
vn 0.08602244 0.257441 -0.9624574
vn 0.3627867 -0.0861112 -0.9278852
vn -0.6136503 0.6749264 0.4097655
vn -0.7788861 0.6066521 -0.1590903
vn -0.9498509 -0.1251119 -0.2865838
vn 0.05327508 0.1679768 0.9843503
vn -0.7537872 -0.05493799 0.6548181
vn -0.6775312 -0.2013833 0.707387
vn -0.1366166 -0.08236825 0.9871938
vn -0.1723751 0.9284316 0.329092
vn -0.6410106 0.376107 -0.6690657
vn -0.6410106 0.376107 -0.6690657
vn -0.5355105 -0.5490931 -0.6416582
vn -0.1723751 0.9284316 0.329092
vn 0.6892813 0.1510324 -0.7085764
vn 0.9843353 0.1467336 0.09774104
vn 0.3627867 -0.0861112 -0.9278852

vt 0.6423263 0.9282266
vt 0.6300176 0.909534
vt 0.6015748 0.9002308
vt 0.6444768 0.8628007
vt 0.6078495 0.9352116
vt 0.6572942 0.936246
vt 0.644129 0.8995352
vt 0.6853108 0.9129032
vt 0.6542136 0.8751403
vt 0.6845469 0.8553007
vt 0.7124879 0.8984747
vt 0.7342402 0.877182
vt 0.7270296 0.9056215
vt 0.7526836 0.9048882
vt 0.7210952 0.9124857
vt 0.7133514 0.8500736
vt 0.699796 0.8358402
vt 0.6804079 0.9512479
vt 0.701471 0.9360154
vt 0.7259656 0.9576307
vt 0.660688 0.9631493
vt 0.6829373 0.9619317
vt 0.6897333 0.9815007
vt 0.6421401 0.9858761
vt 0.6572942 0.936246
vt 0.7210952 0.9124857
vt 0.7210952 0.9124857
vt 0.7465864 0.9330923
vt 0.6572942 0.936246
vt 0.6684015 0.8318685
vt 0.6264908 0.8474367
vt 0.6764885 0.8304977

g Rock2_2945_106
usemtl Rock2_2945_106
usemap Rock2_2945_106
f 1/1/1 3/3/3 2/2/2
f 3/3/3 4/4/4 2/2/2
f 5/5/5 3/3/3 1/1/1
f 5/5/5 1/1/1 6/6/6
f 2/2/2 7/7/7 1/1/1
f 7/7/7 2/2/2 4/4/4
f 8/8/8 6/6/6 7/7/7
f 8/8/8 7/7/7 9/9/9
f 7/7/7 4/4/4 9/9/9
f 4/4/4 10/10/10 9/9/9
f 9/9/9 10/10/10 8/8/8
f 8/8/8 10/10/10 11/11/11
f 10/10/10 12/12/12 11/11/11
f 13/13/13 11/11/11 12/12/12
f 14/14/14 13/13/13 12/12/12
f 8/8/8 11/11/11 15/15/15
f 10/10/10 16/16/16 12/12/12
f 17/17/17 16/16/16 10/10/10
f 6/6/6 8/8/8 18/18/18
f 19/19/19 18/18/18 8/8/8
f 15/15/15 19/19/19 8/8/8
f 19/19/19 20/20/20 18/18/18
f 18/18/18 21/21/21 6/6/6
f 18/18/18 22/22/22 21/21/21
f 22/22/22 18/18/18 20/20/20
f 23/23/23 22/22/22 20/20/20
f 23/23/23 21/21/21 22/22/22
f 24/24/24 21/21/21 23/23/23
f 25/25/25 21/21/21 24/24/24
f 19/19/19 26/26/26 20/20/20
f 26/26/26 11/11/11 13/13/13
f 14/14/14 27/27/27 13/13/13
f 27/27/27 28/28/28 20/20/20
f 1/1/1 7/7/7 29/29/29
f 10/10/10 4/4/4 30/30/30
f 4/4/4 31/31/31 30/30/30
f 3/3/3 31/31/31 4/4/4
f 32/32/32 10/10/10 30/30/30
