#Rock5_(1)_1420_381.obj

v 2.835678 -0.4419365 1.642044
v 3.115871 1.480955 1.563946
v 3.463017 -0.4419899 -0.389595
v 2.160267 -0.414957 2.856642
v 2.432514 1.416613 2.563995
v 1.032326 1.104923 3.288904
v 1.208836 1.569155 1.813751
v -0.4116859 1.352987 3.330763
v -0.8349724 1.294411 1.954971
v -1.63393 -0.4053326 2.115707
v 2.414299 1.672443 0.607933
v 3.172684 1.292257 0.4769897
v 3.367088 0.3337345 -0.5196915
v 1.661316 2.652571 1.494732
v 2.778458 2.441385 0.2826843
v 2.616398 1.821087 -0.5394859
v 2.18219 2.313402 -1.599331
v 1.786022 1.43189 -1.396141
v 0.8181267 1.114578 -2.472305
v 0.8384819 2.266884 -2.493031
v 1.024292 2.784267 -2.368336
v 0.03828049 2.531387 -3.080154
v -0.08948898 3.644581 -3.163826
v -1.298203 2.953075 -3.019543
v 0.1292992 2.059206 -3.139168
v -1.246349 2.219381 -2.816277
v 2.792206 1.116497 -1.220043
v 2.666733 -0.4930553 -1.265129
v 2.078808 -0.3734035 -1.430908
v 1.995266 1.064743 -1.925209
v 1.365849 -0.3222523 -2.407082
v 0.2113647 -0.4300613 -2.487976
v -1.532589 3.867083 -2.623215
v 0.38591 0.9924316 -3.013165
v -0.7644348 0.5447483 -2.875977
v 0.2978783 0.7294064 -2.250401
v -0.3562126 -0.4365845 -2.902813
v -0.7849236 1.810946 -3.217449
v 0.2978783 0.7294064 -2.250401
v 0.2978783 0.7294064 -2.250401
v -1.215885 -0.4407444 -3.001228
v 0.6382866 3.674521 -2.316925
v -2.066929 3.913484 -0.5253906
v 0.01870346 4.023954 0.7074928
v 1.032513 3.823844 -0.3248672
v 1.328674 3.272989 -2.046154
v -2.386711 3.754764 -1.263844
v 1.551933 2.937796 -1.555439
v 2.395741 2.857597 0.01798248
v 1.188549 2.954226 0.07073212
v 1.293797 3.394161 -0.1376534
v -0.02526093 2.8815 1.05986
v 1.032513 3.823844 -0.3248672
v 0.01870346 4.023954 0.7074928
v -0.0640831 3.759507 1.131618
v -0.02526093 2.8815 1.05986
v -1.282146 2.444473 0.7578354
v -2.066929 3.913484 -0.5253906
v -2.198685 2.258181 -0.5435753
v -2.421772 1.995739 1.19548
v -1.408943 2.218964 1.879765
v 1.047028 2.648869 1.545383
v 0.53302 2.156273 2.006996
v -2.433231 1.38802 0.02649307
v -2.343403 0.9223118 1.35133
v -1.774529 1.444363 1.817276
v -0.8349724 1.294411 1.954971
v -1.63393 -0.4053326 2.115707
v -2.386711 3.754764 -1.263844
v -2.384441 2.499586 -1.575077
v -1.532589 3.867083 -2.623215
v 1.208836 1.569155 1.813751
v -1.298203 2.953075 -3.019543
v -1.246349 2.219381 -2.816277
v -2.144764 2.176191 -2.231213
v -2.376404 1.344965 -1.488033
v -1.628323 1.222607 -2.546116
v -3.341816 0.6537781 -0.975132
v -1.215885 -0.4407444 -3.001228
v -2.987503 -0.441843 -1.334846
v -0.7849236 1.810946 -3.217449
v -3.400661 -0.4319191 0.6229401
v -0.7644348 0.5447483 -2.875977
v -3.263046 1.000143 -0.3052864
v -2.708553 0.8252258 1.325798
v -2.5765 -0.4411964 1.440319
v -1.37582 -0.4417858 1.993446
v 1.126213 -0.4415817 3.24765
v -0.4554062 -0.4415112 3.273754

vn 0.9129064 -0.1171431 0.3909979
vn 0.8432313 0.4760839 0.2496097
vn 0.9621748 -0.01337758 -0.2721041
vn 0.6549988 -0.01754102 0.7554263
vn 0.3811847 0.7079699 0.5945391
vn 0.2138917 0.1696724 0.9620091
vn 0.2340661 0.7124822 0.6615
vn -0.3396038 0.7081405 0.6190366
vn -0.3276138 0.1890646 0.9257018
vn -0.6064284 0.03212712 0.7944887
vn 0.7643798 0.510763 0.393503
vn 0.7557002 0.6532981 -0.04603021
vn 0.9437032 0.2457545 -0.2214247
vn 0.4062125 0.6696613 0.6217275
vn 0.958851 0.2466262 0.1406426
vn 0.9058607 0.3112956 -0.287248
vn 0.7931447 0.1581425 -0.5881432
vn 0.7353619 0.1881266 -0.6510386
vn 0.4919367 -0.009140237 -0.8705831
vn 0.5245629 0.005798573 -0.851352
vn 0.6532243 0.1556058 -0.7410026
vn 0.2437394 -0.2765394 -0.929579
vn 0.2633648 0.3991113 -0.8782648
vn -0.44728 -0.04747066 -0.8931333
vn 0.3010091 0.2635007 -0.9164938
vn -0.3518212 0.2368339 -0.9056112
vn 0.6583231 0.2509504 -0.7096722
vn 0.5031982 -0.002840212 -0.8641664
vn 0.8354762 0.0112633 -0.5494112
vn 0.7805246 0.3063072 -0.5449378
vn 0.4602842 -0.01916739 -0.8875647
vn 0.1713743 0.1647316 -0.9713364
vn -0.4414981 0.7528303 -0.4881865
vn 0.486071 -0.5567803 -0.6735954
vn 0.1288625 -0.1246381 -0.9837986
vn 0.2974205 -0.5083592 -0.8081534
vn 0.3534515 0.1721757 -0.9194714
vn -0.3561845 0.0620462 -0.9323534
vn 0.2974205 -0.5083592 -0.8081534
vn 0.2974205 -0.5083592 -0.8081534
vn -0.3903289 0.09022651 -0.9162437
vn 0.3347305 0.8855376 -0.322147
vn -0.5155448 0.7786505 0.3576548
vn 0.2426348 0.926442 0.2878081
vn 0.5872855 0.8071207 0.06043071
vn 0.8202036 0.4464116 -0.3577467
vn -0.9381936 0.3456306 -0.01822722
vn 0.8206539 0.5224116 -0.2315455
vn 0.4800473 0.8771971 -0.008933344
vn 0.4817489 0.8014358 0.3544272
vn 0.8276781 0.3663967 0.4250911
vn 0.1440805 0.7015766 0.6978762
vn 0.5872855 0.8071207 0.06043071
vn 0.2426348 0.926442 0.2878081
vn 0.05300869 0.4350075 0.8988652
vn 0.1440805 0.7015766 0.6978762
vn -0.5365556 0.6384828 0.5517678
vn -0.5155448 0.7786505 0.3576548
vn -0.9760961 0.1570631 0.1502252
vn -0.8027748 0.4745143 0.3610938
vn -0.2641943 0.6184738 0.7400618
vn 0.1067661 0.6499609 0.7524306
vn 0.1337074 0.2214979 0.9659508
vn -0.8028798 0.5894063 0.08935491
vn -0.575336 0.2277094 0.7855806
vn -0.4284602 -0.06981589 0.9008594
vn -0.3276138 0.1890646 0.9257018
vn -0.6064284 0.03212712 0.7944887
vn -0.9381936 0.3456306 -0.01822722
vn -0.9089719 0.01543175 -0.4165717
vn -0.4414981 0.7528303 -0.4881865
vn 0.2340661 0.7124822 0.6615
vn -0.44728 -0.04747066 -0.8931333
vn -0.3518212 0.2368339 -0.9056112
vn -0.8318564 0.05682192 -0.5520744
vn -0.8492453 0.4469927 -0.2810337
vn -0.6164851 0.04057554 -0.7863204
vn -0.8642648 0.2182899 -0.4532061
vn -0.3903289 0.09022651 -0.9162437
vn -0.8636425 -0.1184195 -0.4899985
vn -0.3561845 0.0620462 -0.9323534
vn -0.9681329 0.04932722 0.245531
vn 0.1288625 -0.1246381 -0.9837986
vn -0.7650484 0.6401301 0.07024475
vn -0.5993693 0.4750093 0.6443001
vn -0.5730974 -0.415498 0.7063432
vn -0.06893934 -0.9864925 0.1485935
vn 0.1879333 -0.01478738 0.9820704
vn -0.2367622 -0.02276265 0.971301

vt 0.4956055 0.7080078
vt 0.454834 0.6879883
vt 0.4594727 0.753418
vt 0.5107422 0.6723633
vt 0.4667969 0.6665039
vt 0.4797363 0.637207
vt 0.4416504 0.6450195
vt 0.472168 0.6083984
vt 0.4465332 0.5883789
vt 0.4875488 0.5566406
vt 0.4291992 0.6884766
vt 0.4411621 0.7080078
vt 0.4431152 0.7412109
vt 0.4152832 0.65625
vt 0.4104004 0.6899414
vt 0.407959 0.7138672
vt 0.376709 0.71875
vt 0.3869629 0.7421875
vt 0.3552246 0.7685547
vt 0.3391113 0.7392578
vt 0.3393555 0.7231445
vt 0.3134766 0.7373047
vt 0.3034668 0.7182617
vt 0.2783203 0.7363281
vt 0.3222656 0.7568359
vt 0.2871094 0.7568359
vt 0.4130859 0.7392578
vt 0.4331055 0.7744141
vt 0.4169922 0.7807617
vt 0.3857422 0.7583008
vt 0.3864746 0.7973633
vt 0.3591309 0.8139648
vt 0.2697754 0.7075195
vt 0.3381348 0.7749023
vt 0.3217773 0.800293
vt 0.348877 0.7856445
vt 0.3413086 0.8217773
vt 0.3029785 0.7700195
vt 0.348877 0.7856445
vt 0.348877 0.7856445
vt 0.3193359 0.8295898
vt 0.322998 0.7045898
vt 0.2617188 0.6523438
vt 0.3183594 0.6274414
vt 0.3405762 0.6572266
vt 0.3432617 0.7055664
vt 0.2509766 0.6704102
vt 0.3591309 0.703125
vt 0.3977051 0.6860352
vt 0.3803711 0.6630859
vt 0.3681641 0.6650391
vt 0.3901367 0.6191406
vt 0.3554688 0.6616211
vt 0.3588867 0.6274414
vt 0.3696289 0.6220703
vt 0.3901367 0.6191406
vt 0.3811035 0.5791016
vt 0.3259277 0.5800781
vt 0.3498535 0.5424805
vt 0.3969727 0.5498047
vt 0.4152832 0.5751953
vt 0.4118652 0.6420898
vt 0.4265137 0.6264648
vt 0.3745117 0.5249023
vt 0.4143066 0.5288086
vt 0.4208984 0.5522461
vt 0.4433594 0.5634766
vt 0.4575195 0.5161133
vt 0.3112793 0.5668945
vt 0.3198242 0.5356445
vt 0.2729492 0.5532227
vt 0.4416504 0.6450195
vt 0.2714844 0.5273438
vt 0.2822266 0.5112305
vt 0.3088379 0.5180664
vt 0.3356934 0.5048828
vt 0.3024902 0.4899902
vt 0.3640137 0.4882813
vt 0.2980957 0.4428711
vt 0.3603516 0.4580078
vt 0.2705078 0.496582
vt 0.4104004 0.4777832
vt 0.282959 0.4663086
vt 0.375 0.5009766
vt 0.4118652 0.519043
vt 0.4350586 0.4960938
vt 0.4645996 0.5136719
vt 0.5161133 0.640625
vt 0.5102539 0.5952148

g Rock5_(1)_1420_381
usemtl Rock5_(1)_1420_381
usemap Rock5_(1)_1420_381
f 1/1/1 3/3/3 2/2/2
f 2/2/2 4/4/4 1/1/1
f 5/5/5 4/4/4 2/2/2
f 5/5/5 6/6/6 4/4/4
f 2/2/2 7/7/7 5/5/5
f 7/7/7 8/8/8 5/5/5
f 8/8/8 6/6/6 5/5/5
f 7/7/7 9/9/9 8/8/8
f 8/8/8 9/9/9 10/10/10
f 11/11/11 7/7/7 2/2/2
f 2/2/2 12/12/12 11/11/11
f 2/2/2 13/13/13 12/12/12
f 13/13/13 2/2/2 3/3/3
f 7/7/7 11/11/11 14/14/14
f 14/14/14 11/11/11 15/15/15
f 16/16/16 15/15/15 11/11/11
f 13/13/13 16/16/16 12/12/12
f 12/12/12 16/16/16 11/11/11
f 15/15/15 16/16/16 17/17/17
f 18/18/18 17/17/17 16/16/16
f 18/18/18 19/19/19 17/17/17
f 20/20/20 17/17/17 19/19/19
f 21/21/21 17/17/17 20/20/20
f 22/22/22 21/21/21 20/20/20
f 22/22/22 23/23/23 21/21/21
f 24/24/24 23/23/23 22/22/22
f 19/19/19 25/25/25 20/20/20
f 25/25/25 26/26/26 20/20/20
f 26/26/26 22/22/22 20/20/20
f 26/26/26 24/24/24 22/22/22
f 16/16/16 27/27/27 18/18/18
f 16/16/16 13/13/13 27/27/27
f 18/18/18 27/27/27 28/28/28
f 28/28/28 27/27/27 3/3/3
f 18/18/18 28/28/28 29/29/29
f 30/30/30 19/19/19 18/18/18
f 30/30/30 18/18/18 29/29/29
f 29/29/29 31/31/31 30/30/30
f 30/30/30 31/31/31 19/19/19
f 32/32/32 19/19/19 31/31/31
f 24/24/24 33/33/33 23/23/23
f 19/19/19 34/34/34 25/25/25
f 35/35/35 25/25/25 34/34/34
f 32/32/32 35/35/35 36/36/36
f 32/32/32 37/37/37 35/35/35
f 38/38/38 25/25/25 35/35/35
f 38/38/38 26/26/26 25/25/25
f 34/34/34 39/39/39 35/35/35
f 34/34/34 19/19/19 39/39/39
f 40/40/40 19/19/19 32/32/32
f 13/13/13 3/3/3 27/27/27
f 41/41/41 35/35/35 37/37/37
f 42/42/42 33/33/33 43/43/43
f 42/42/42 43/43/43 44/44/44
f 45/45/45 42/42/42 44/44/44
f 46/46/46 42/42/42 45/45/45
f 42/42/42 46/46/46 21/21/21
f 42/42/42 21/21/21 23/23/23
f 23/23/23 33/33/33 42/42/42
f 33/33/33 47/47/47 43/43/43
f 21/21/21 46/46/46 48/48/48
f 48/48/48 17/17/17 21/21/21
f 49/49/49 17/17/17 48/48/48
f 48/48/48 50/50/50 49/49/49
f 51/51/51 50/50/50 48/48/48
f 46/46/46 51/51/51 48/48/48
f 52/52/52 50/50/50 51/51/51
f 50/50/50 52/52/52 14/14/14
f 49/49/49 50/50/50 14/14/14
f 51/51/51 46/46/46 53/53/53
f 54/54/54 51/51/51 53/53/53
f 15/15/15 17/17/17 49/49/49
f 15/15/15 49/49/49 14/14/14
f 55/55/55 51/51/51 54/54/54
f 55/55/55 56/56/56 51/51/51
f 55/55/55 57/57/57 52/52/52
f 55/55/55 58/58/58 57/57/57
f 55/55/55 54/54/54 58/58/58
f 59/59/59 57/57/57 58/58/58
f 59/59/59 60/60/60 57/57/57
f 57/57/57 60/60/60 61/61/61
f 52/52/52 57/57/57 61/61/61
f 52/52/52 61/61/61 62/62/62
f 62/62/62 14/14/14 52/52/52
f 63/63/63 62/62/62 61/61/61
f 63/63/63 61/61/61 9/9/9
f 60/60/60 59/59/59 64/64/64
f 60/60/60 64/64/64 65/65/65
f 66/66/66 60/60/60 65/65/65
f 66/66/66 61/61/61 60/60/60
f 66/66/66 65/65/65 67/67/67
f 61/61/61 66/66/66 67/67/67
f 67/67/67 65/65/65 68/68/68
f 69/69/69 59/59/59 58/58/58
f 70/70/70 59/59/59 69/69/69
f 69/69/69 71/71/71 70/70/70
f 72/72/72 63/63/63 9/9/9
f 62/62/62 63/63/63 7/7/7
f 70/70/70 71/71/71 73/73/73
f 73/73/73 74/74/74 70/70/70
f 75/75/75 70/70/70 74/74/74
f 75/75/75 59/59/59 70/70/70
f 59/59/59 75/75/75 76/76/76
f 76/76/76 64/64/64 59/59/59
f 75/75/75 77/77/77 76/76/76
f 78/78/78 76/76/76 77/77/77
f 78/78/78 77/77/77 79/79/79
f 80/80/80 78/78/78 79/79/79
f 77/77/77 75/75/75 81/81/81
f 74/74/74 81/81/81 75/75/75
f 78/78/78 80/80/80 82/82/82
f 77/77/77 83/83/83 79/79/79
f 77/77/77 81/81/81 83/83/83
f 84/84/84 76/76/76 78/78/78
f 84/84/84 78/78/78 82/82/82
f 84/84/84 82/82/82 85/85/85
f 64/64/64 84/84/84 85/85/85
f 76/76/76 84/84/84 64/64/64
f 86/86/86 85/85/85 82/82/82
f 68/68/68 85/85/85 86/86/86
f 68/68/68 86/86/86 87/87/87
f 65/65/65 85/85/85 68/68/68
f 64/64/64 85/85/85 65/65/65
f 6/6/6 89/89/89 88/88/88
f 6/6/6 8/8/8 89/89/89
f 8/8/8 10/10/10 89/89/89
f 6/6/6 88/88/88 4/4/4
f 14/14/14 62/62/62 7/7/7
