#Rock4_(4)_2988_187.obj

v 2.806034 -0.1534192 1.482066
v 2.816244 -0.6812705 0.6472091
v 2.179823 -0.6824969 2.272061
v 1.905262 1.124366 2.529354
v -0.2794571 -0.6814002 2.822546
v -0.3288651 0.845361 2.878367
v 0.86479 1.906564 1.319355
v -1.590117 0.9082178 1.738179
v -0.6235905 1.49105 0.9439018
v -0.4975853 1.790203 -0.1501307
v 0.8974476 1.988556 0.4241442
v -0.6689224 1.217003 -1.344925
v 2.243443 1.329204 0.6054304
v 2.287333 1.0351 1.771453
v 1.701681 1.703403 -1.321246
v 0.9749298 1.228819 -2.624949
v -0.6295261 0.6841914 -2.452515
v 0.02422523 -0.6686769 -2.93445
v 1.829302 -0.6579059 -2.407059
v 3.25622 0.1926568 -0.8463788
v 2.863207 1.324946 -0.6486739
v 3.186819 0.130288 -0.05233316
v 2.744085 -0.6693898 0.03046973
v -0.7309303 -0.6840672 -2.315057
v -1.366665 1.936623 -0.1562619
v -1.860437 1.00685 -1.428865
v -1.177227 0.7236122 -1.870268
v -1.322145 -0.6717587 -1.751587
v -2.081703 -0.6806437 -1.885571
v -1.322145 -0.6717587 -1.751587
v -3.230696 -0.6815352 -0.8520948
v -2.350948 0.6991757 -0.2837672
v -2.617449 1.243699 0.2813637
v -1.250542 1.615895 1.356915
v -2.317162 0.4223208 1.063595
v -2.451803 -0.6820599 1.399893
v -1.590117 0.9082178 1.738179
v -1.08017 -0.6822006 1.263042
v -2.209349 1.1696 1.459096
v -0.8712616 -0.6822578 2.404604
v -1.08017 -0.6822006 1.263042
v 2.816244 -0.6812705 0.6472091

vn 0.9474532 0.03582527 0.3178821
vn 0.9894347 -0.02743018 0.1423608
vn 0.669503 -0.2952338 0.6816177
vn 0.5150436 0.2907121 0.8063602
vn -0.07209741 -0.1875335 0.9796087
vn -0.3425145 0.2944977 0.892163
vn -0.02144554 0.9230974 0.3839679
vn -0.4506342 0.1702522 0.8763235
vn 0.09129134 0.8507119 0.5176439
vn -0.02679477 0.9980276 0.05677056
vn 0.2644058 0.9637377 -0.03604389
vn -0.08171052 0.9478356 -0.3081091
vn 0.6005376 0.7515656 0.2729539
vn 0.7439328 0.6398485 0.1927638
vn 0.1064078 0.994307 0.005562782
vn 0.2481561 0.6644088 -0.7049677
vn -0.5167042 0.5167345 -0.6826436
vn -0.1964556 0.2040158 -0.959053
vn 0.6330075 -0.07898322 -0.7701059
vn 0.9297722 -0.02421515 -0.3673381
vn 0.7570893 0.651037 -0.05446737
vn 0.968883 -0.0346869 0.2450765
vn 0.8224846 -0.5394531 -0.1803037
vn -0.6850991 0.07738844 -0.7243276
vn -0.2035344 0.9751692 -0.08728517
vn -0.5258736 0.6907 -0.4963773
vn -0.4196814 0.4477775 -0.7895334
vn -0.2894199 0.06610505 -0.954917
vn -0.3286388 0.2816667 -0.9014767
vn -0.2894199 0.06610505 -0.954917
vn -0.8921688 0.4459305 -0.07197867
vn -0.8829977 0.436004 -0.1738264
vn -0.8664116 0.4964247 0.05379095
vn -0.02402635 0.7627793 0.6462124
vn -0.9177266 -0.009410154 0.3971011
vn -0.637813 -0.001517244 0.7701897
vn -0.4506342 0.1702522 0.8763235
vn -0.5422242 -0.4831041 0.6874616
vn -0.6424182 0.2471541 0.7254059
vn -0.7748874 -0.2126371 0.5952604
vn -0.5422242 -0.4831041 0.6874616
vn 0.9894347 -0.02743018 0.1423608

vt 0.08177406 0.5590136
vt 0.09337166 0.5343032
vt 0.04984022 0.5668743
vt 0.07907501 0.6002782
vt 0.0183186 0.6322125
vt 0.05435452 0.6444781
vt 0.1010552 0.6283724
vt 0.06499068 0.6908395
vt 0.09687583 0.6673691
vt 0.1271943 0.66826
vt 0.1208732 0.6303694
vt 0.1603776 0.6804302
vt 0.1261647 0.5914518
vt 0.09427693 0.5895411
vt 0.1666452 0.6231167
vt 0.1920493 0.643589
vt 0.1925114 0.6826488
vt 0.2348071 0.668623
vt 0.2283528 0.6106274
vt 0.1792248 0.5798343
vt 0.1616471 0.5949689
vt 0.1681622 0.5665238
vt 0.183495 0.5468985
vt 0.2263156 0.6977318
vt 0.1229426 0.68769
vt 0.1551462 0.7108501
vt 0.1785464 0.7014391
vt 0.2175588 0.719762
vt 0.1791399 0.7528989
vt 0.1975867 0.7400464
vt 0.1361288 0.7713462
vt 0.1228323 0.7246453
vt 0.1078977 0.7130938
vt 0.08812189 0.6831443
vt 0.08343585 0.7236099
vt 0.06631079 0.7518926
vt 0.06499068 0.6908395
vt 0.0289535 0.7338564
vt 0.08262382 0.7026785
vt 0.01535734 0.6549521
vt 0.008841153 0.6885316
vt 0.1643098 0.5378069

g Rock4_(4)_2988_187
usemtl Rock4_(4)_2988_187
usemap Rock4_(4)_2988_187
f 1/1/1 3/3/3 2/2/2
f 4/4/4 3/3/3 1/1/1
f 4/4/4 5/5/5 3/3/3
f 6/6/6 5/5/5 4/4/4
f 6/6/6 4/4/4 7/7/7
f 8/8/8 6/6/6 7/7/7
f 9/9/9 8/8/8 7/7/7
f 10/10/10 9/9/9 7/7/7
f 10/10/10 7/7/7 11/11/11
f 11/11/11 12/12/12 10/10/10
f 13/13/13 12/12/12 11/11/11
f 2/2/2 13/13/13 14/14/14
f 14/14/14 13/13/13 11/11/11
f 14/14/14 11/11/11 7/7/7
f 2/2/2 14/14/14 1/1/1
f 4/4/4 14/14/14 7/7/7
f 4/4/4 1/1/1 14/14/14
f 15/15/15 12/12/12 13/13/13
f 15/15/15 16/16/16 12/12/12
f 16/16/16 17/17/17 12/12/12
f 16/16/16 18/18/18 17/17/17
f 16/16/16 19/19/19 18/18/18
f 20/20/20 19/19/19 16/16/16
f 21/21/21 20/20/20 16/16/16
f 21/21/21 16/16/16 15/15/15
f 21/21/21 15/15/15 13/13/13
f 21/21/21 13/13/13 22/22/22
f 20/20/20 21/21/21 22/22/22
f 23/23/23 19/19/19 20/20/20
f 20/20/20 22/22/22 23/23/23
f 24/24/24 17/17/17 18/18/18
f 10/10/10 12/12/12 25/25/25
f 26/26/26 25/25/25 12/12/12
f 26/26/26 12/12/12 27/27/27
f 24/24/24 27/27/27 17/17/17
f 17/17/17 27/27/27 12/12/12
f 24/24/24 28/28/28 27/27/27
f 29/29/29 26/26/26 27/27/27
f 30/30/30 29/29/29 27/27/27
f 31/31/31 26/26/26 29/29/29
f 31/31/31 32/32/32 26/26/26
f 32/32/32 25/25/25 26/26/26
f 25/25/25 32/32/32 33/33/33
f 25/25/25 33/33/33 34/34/34
f 32/32/32 31/31/31 35/35/35
f 33/33/33 32/32/32 35/35/35
f 36/36/36 35/35/35 31/31/31
f 35/35/35 36/36/36 37/37/37
f 36/36/36 38/38/38 37/37/37
f 39/39/39 33/33/33 35/35/35
f 39/39/39 35/35/35 37/37/37
f 39/39/39 37/37/37 34/34/34
f 33/33/33 39/39/39 34/34/34
f 25/25/25 34/34/34 9/9/9
f 34/34/34 37/37/37 9/9/9
f 10/10/10 25/25/25 9/9/9
f 6/6/6 37/37/37 40/40/40
f 41/41/41 40/40/40 37/37/37
f 5/5/5 6/6/6 40/40/40
f 42/42/42 22/22/22 13/13/13
f 42/42/42 23/23/23 22/22/22
