#Rock2_(39)_2469_45.obj

v -0.7356773 0.4740572 0.2745547
v -0.5051264 0.3718343 0.7529866
v -0.3678133 -0.2900453 0.9057289
v 0.7341144 0.2400904 0.8099356
v -0.6393952 -0.2913475 0.319882
v -0.5741693 0.538394 -0.04158232
v -0.1067961 0.6084876 0.6504723
v 0.009658056 0.592617 -0.4148903
v 0.5384252 0.4554391 0.5666842
v 0.9850155 0.1693144 0.001951369
v 0.4615357 0.3241248 -0.8180428
v 0.63643 -0.2733479 -0.8215317
v 0.2458194 0.05991459 -0.9633019
v 0.05611482 -0.2908759 -0.6812954
v 0.2035094 0.2140241 -0.9365876
v 0.9783599 -0.287282 -0.3011886
v 0.9548153 -0.291513 0.06816393
v -0.9351264 0.4262962 -0.5231391
v -0.4286529 0.473043 -0.9904001
v -0.4060307 -0.2855906 -1.032879
v -0.8305848 0.1313639 0.01096942
v -0.9792581 0.151463 -0.4787115
v -0.8989139 -0.2916312 -0.4480004
v -0.6393952 -0.2913475 0.319882
v -0.5741693 0.538394 -0.04158232
v 0.2035094 0.2140241 -0.9365876
v 0.2035094 0.2140241 -0.9365876
v 0.05611482 -0.2908759 -0.6812954
v -0.5741693 0.538394 -0.04158232
v 1.044434 -0.2880545 0.2028495
v 0.724566 -0.2905779 0.9006604
v 0.9548153 -0.291513 0.06816393

vn -0.8513004 0.3850665 0.3563868
vn -0.1272379 0.3150229 0.9405164
vn -0.01612732 0.1408855 0.9898945
vn 0.6800903 0.3661231 0.6351622
vn -0.7633911 -0.08236825 0.6406633
vn -0.3485671 0.9284316 0.1285134
vn 0.1558525 0.9172869 0.3664624
vn 0.1403896 0.9711689 -0.1926698
vn 0.3986276 0.9156283 -0.05216265
vn 0.6687071 0.6650724 -0.3324299
vn 0.4261537 0.6816058 -0.5948166
vn 0.4663543 0.1201515 -0.8764002
vn -0.3334109 -0.2054751 -0.920118
vn 0.03308858 -0.5490931 -0.8351059
vn -0.02678905 0.376107 -0.9261889
vn 0.7092721 0.257441 -0.6562448
vn 0.8913857 -0.0861112 -0.4449905
vn -0.7300005 0.6749264 -0.107581
vn -0.4710725 0.6066521 -0.6403624
vn -0.5123891 -0.1251119 -0.8495908
vn -0.6206257 0.1679768 0.765903
vn -0.9982937 -0.05493799 -0.01978636
vn -0.9769831 -0.2013833 0.07034855
vn -0.7633911 -0.08236825 0.6406633
vn -0.3485671 0.9284316 0.1285134
vn -0.02678905 0.376107 -0.9261889
vn -0.02678905 0.376107 -0.9261889
vn 0.03308858 -0.5490931 -0.8351059
vn -0.3485671 0.9284316 0.1285134
vn 0.9864968 0.1510324 -0.0633508
vn 0.6646145 0.1467336 0.7326369
vn 0.8913857 -0.0861112 -0.4449905

vt 0.6423263 0.9282266
vt 0.6300176 0.909534
vt 0.6015748 0.9002308
vt 0.6444768 0.8628007
vt 0.6078495 0.9352116
vt 0.6572942 0.936246
vt 0.644129 0.8995352
vt 0.6853108 0.9129032
vt 0.6542136 0.8751403
vt 0.6845469 0.8553007
vt 0.7124879 0.8984747
vt 0.7342402 0.877182
vt 0.7270296 0.9056215
vt 0.7526836 0.9048882
vt 0.7210952 0.9124857
vt 0.7133514 0.8500736
vt 0.699796 0.8358402
vt 0.6804079 0.9512479
vt 0.701471 0.9360154
vt 0.7259656 0.9576307
vt 0.660688 0.9631493
vt 0.6829373 0.9619317
vt 0.6897333 0.9815007
vt 0.6421401 0.9858761
vt 0.6572942 0.936246
vt 0.7210952 0.9124857
vt 0.7210952 0.9124857
vt 0.7465864 0.9330923
vt 0.6572942 0.936246
vt 0.6684015 0.8318685
vt 0.6264908 0.8474367
vt 0.6764885 0.8304977

g Rock2_(39)_2469_45
usemtl Rock2_(39)_2469_45
usemap Rock2_(39)_2469_45
f 1/1/1 3/3/3 2/2/2
f 3/3/3 4/4/4 2/2/2
f 5/5/5 3/3/3 1/1/1
f 5/5/5 1/1/1 6/6/6
f 2/2/2 7/7/7 1/1/1
f 7/7/7 2/2/2 4/4/4
f 8/8/8 6/6/6 7/7/7
f 8/8/8 7/7/7 9/9/9
f 7/7/7 4/4/4 9/9/9
f 4/4/4 10/10/10 9/9/9
f 9/9/9 10/10/10 8/8/8
f 8/8/8 10/10/10 11/11/11
f 10/10/10 12/12/12 11/11/11
f 13/13/13 11/11/11 12/12/12
f 14/14/14 13/13/13 12/12/12
f 8/8/8 11/11/11 15/15/15
f 10/10/10 16/16/16 12/12/12
f 17/17/17 16/16/16 10/10/10
f 6/6/6 8/8/8 18/18/18
f 19/19/19 18/18/18 8/8/8
f 15/15/15 19/19/19 8/8/8
f 19/19/19 20/20/20 18/18/18
f 18/18/18 21/21/21 6/6/6
f 18/18/18 22/22/22 21/21/21
f 22/22/22 18/18/18 20/20/20
f 23/23/23 22/22/22 20/20/20
f 23/23/23 21/21/21 22/22/22
f 24/24/24 21/21/21 23/23/23
f 25/25/25 21/21/21 24/24/24
f 19/19/19 26/26/26 20/20/20
f 26/26/26 11/11/11 13/13/13
f 14/14/14 27/27/27 13/13/13
f 27/27/27 28/28/28 20/20/20
f 1/1/1 7/7/7 29/29/29
f 10/10/10 4/4/4 30/30/30
f 4/4/4 31/31/31 30/30/30
f 3/3/3 31/31/31 4/4/4
f 32/32/32 10/10/10 30/30/30
