#Rock4_796_229.obj

v 2.806029 -0.153419 1.482068
v 2.816243 -0.6812705 0.6472107
v 2.179825 -0.6824969 2.27206
v 1.905258 1.124366 2.529353
v -0.2794607 -0.6814005 2.822542
v -0.3288661 0.8453609 2.878367
v 0.8647872 1.906564 1.319353
v -1.590115 0.9082176 1.73818
v -0.6235909 1.491049 0.9439034
v -0.4975837 1.790203 -0.150132
v 0.89745 1.988556 0.424142
v -0.6689252 1.217003 -1.344925
v 2.243443 1.329204 0.6054322
v 2.28733 1.0351 1.771452
v 1.70168 1.703403 -1.321243
v 0.9749264 1.228819 -2.624952
v -0.6295258 0.6841912 -2.452517
v 0.02422895 -0.6686768 -2.934452
v 1.829301 -0.6579061 -2.407058
v 3.256217 0.1926568 -0.8463786
v 2.863202 1.324946 -0.6486737
v 3.18682 0.130288 -0.0523312
v 2.744087 -0.6693901 0.030471
v -0.7309293 -0.6840673 -2.315057
v -1.366661 1.936623 -0.1562596
v -1.860434 1.00685 -1.428862
v -1.177223 0.7236121 -1.870268
v -1.322149 -0.6717586 -1.751585
v -2.081701 -0.6806435 -1.885568
v -1.322149 -0.6717586 -1.751585
v -3.230697 -0.6815352 -0.8520948
v -2.350948 0.6991759 -0.2837661
v -2.617445 1.243698 0.2813609
v -1.250545 1.615895 1.356915
v -2.31716 0.4223207 1.063596
v -2.451799 -0.6820597 1.399896
v -1.590115 0.9082176 1.73818
v -1.080172 -0.6822007 1.263039
v -2.209343 1.1696 1.459099
v -0.8712635 -0.6822576 2.404606
v -1.080172 -0.6822007 1.263039
v 2.816243 -0.6812705 0.6472107

vn 0.9474532 0.07445325 0.3111096
vn 0.9894347 -0.009804277 0.1446474
vn 0.669503 -0.2096101 0.7126215
vn 0.5150436 0.3871966 0.7647282
vn -0.07209741 -0.06625584 0.9951946
vn -0.3425145 0.401453 0.8494231
vn -0.02144554 0.9631444 0.2681291
vn -0.4506342 0.2762029 0.8489057
vn 0.09129134 0.9076599 0.4096578
vn -0.02679477 0.9974746 -0.06577829
vn 0.2644058 0.9520852 -0.1536994
vn -0.08171052 0.9030117 -0.4217744
vn 0.6005376 0.7793176 0.1789385
vn 0.7439328 0.6586276 0.1130212
vn 0.1064078 0.987516 -0.116146
vn 0.2481561 0.5731537 -0.7809697
vn -0.5167042 0.4293208 -0.7407433
vn -0.1964556 0.08512956 -0.9768103
vn 0.6330075 -0.1726226 -0.7546543
vn 0.9297722 -0.068982 -0.3616147
vn 0.7570893 0.6394799 -0.1337213
vn 0.968883 -0.004437809 0.2474792
vn 0.8224846 -0.557462 -0.1129394
vn -0.6850991 -0.01182441 -0.728354
vn -0.2035344 0.9571608 -0.2059545
vn -0.5258736 0.6247712 -0.5771638
vn -0.4196814 0.3478025 -0.8383921
vn -0.2894199 -0.05123876 -0.95583
vn -0.3286388 0.1692421 -0.9291683
vn -0.2894199 -0.05123876 -0.95583
vn -0.8921688 0.4337719 -0.1260034
vn -0.8829977 0.4114576 -0.2258712
vn -0.8664116 0.4992764 -0.007357583
vn -0.02402635 0.8361202 0.54802
vn -0.9177266 0.03925128 0.3952685
vn -0.637813 0.09273733 0.7645878
vn -0.4506342 0.2762029 0.8489057
vn -0.5422242 -0.3953535 0.7414099
vn -0.6424182 0.3340601 0.6897121
vn -0.7748874 -0.138201 0.6168063
vn -0.5422242 -0.3953535 0.7414099
vn 0.9894347 -0.009804277 0.1446474

vt 0.08172607 0.5585938
vt 0.09332275 0.5341797
vt 0.04983521 0.5664063
vt 0.07904053 0.6000977
vt 0.01831055 0.6318359
vt 0.05435181 0.644043
vt 0.1010132 0.6279297
vt 0.06494141 0.6904297
vt 0.09686279 0.6669922
vt 0.1270752 0.6679688
vt 0.1208496 0.6298828
vt 0.1602783 0.6801758
vt 0.1260986 0.5913086
vt 0.09423828 0.5893555
vt 0.166626 0.6230469
vt 0.1920166 0.6435547
vt 0.1925049 0.6826172
vt 0.2347412 0.668457
vt 0.2282715 0.6103516
vt 0.1791992 0.5795898
vt 0.1616211 0.5947266
vt 0.1680908 0.5664063
vt 0.1834717 0.546875
vt 0.2261963 0.6972656
vt 0.1229248 0.6875
vt 0.1550293 0.7104492
vt 0.1784668 0.7011719
vt 0.2175293 0.7197266
vt 0.1790771 0.7524414
vt 0.1975098 0.7397461
vt 0.1361084 0.7709961
vt 0.1228027 0.7246094
vt 0.1078491 0.7128906
vt 0.08807373 0.6831055
vt 0.08343506 0.7231445
vt 0.06628418 0.7514648
vt 0.06494141 0.6904297
vt 0.02894592 0.7333984
vt 0.08258057 0.7026367
vt 0.01535034 0.6547852
vt 0.008834839 0.6884766
vt 0.1643066 0.5375977

g Rock4_796_229
usemtl Rock4_796_229
usemap Rock4_796_229
f 1/1/1 3/3/3 2/2/2
f 4/4/4 3/3/3 1/1/1
f 4/4/4 5/5/5 3/3/3
f 6/6/6 5/5/5 4/4/4
f 6/6/6 4/4/4 7/7/7
f 8/8/8 6/6/6 7/7/7
f 9/9/9 8/8/8 7/7/7
f 10/10/10 9/9/9 7/7/7
f 10/10/10 7/7/7 11/11/11
f 11/11/11 12/12/12 10/10/10
f 13/13/13 12/12/12 11/11/11
f 2/2/2 13/13/13 14/14/14
f 14/14/14 13/13/13 11/11/11
f 14/14/14 11/11/11 7/7/7
f 2/2/2 14/14/14 1/1/1
f 4/4/4 14/14/14 7/7/7
f 4/4/4 1/1/1 14/14/14
f 15/15/15 12/12/12 13/13/13
f 15/15/15 16/16/16 12/12/12
f 16/16/16 17/17/17 12/12/12
f 16/16/16 18/18/18 17/17/17
f 16/16/16 19/19/19 18/18/18
f 20/20/20 19/19/19 16/16/16
f 21/21/21 20/20/20 16/16/16
f 21/21/21 16/16/16 15/15/15
f 21/21/21 15/15/15 13/13/13
f 21/21/21 13/13/13 22/22/22
f 20/20/20 21/21/21 22/22/22
f 23/23/23 19/19/19 20/20/20
f 20/20/20 22/22/22 23/23/23
f 24/24/24 17/17/17 18/18/18
f 10/10/10 12/12/12 25/25/25
f 26/26/26 25/25/25 12/12/12
f 26/26/26 12/12/12 27/27/27
f 24/24/24 27/27/27 17/17/17
f 17/17/17 27/27/27 12/12/12
f 24/24/24 28/28/28 27/27/27
f 29/29/29 26/26/26 27/27/27
f 30/30/30 29/29/29 27/27/27
f 31/31/31 26/26/26 29/29/29
f 31/31/31 32/32/32 26/26/26
f 32/32/32 25/25/25 26/26/26
f 25/25/25 32/32/32 33/33/33
f 25/25/25 33/33/33 34/34/34
f 32/32/32 31/31/31 35/35/35
f 33/33/33 32/32/32 35/35/35
f 36/36/36 35/35/35 31/31/31
f 35/35/35 36/36/36 37/37/37
f 36/36/36 38/38/38 37/37/37
f 39/39/39 33/33/33 35/35/35
f 39/39/39 35/35/35 37/37/37
f 39/39/39 37/37/37 34/34/34
f 33/33/33 39/39/39 34/34/34
f 25/25/25 34/34/34 9/9/9
f 34/34/34 37/37/37 9/9/9
f 10/10/10 25/25/25 9/9/9
f 6/6/6 37/37/37 40/40/40
f 41/41/41 40/40/40 37/37/37
f 5/5/5 6/6/6 40/40/40
f 42/42/42 22/22/22 13/13/13
f 42/42/42 23/23/23 22/22/22
