#Rock2_(53)_2629_132.obj

v -0.7356786 0.4740573 0.2745561
v -0.5051313 0.3718341 0.7529834
v -0.3678168 -0.2900451 0.905728
v 0.7341106 0.2400902 0.8099346
v -0.6393994 -0.2913473 0.3198794
v -0.5741688 0.5383939 -0.04158191
v -0.106802 0.6084876 0.6504717
v 0.009653695 0.5926169 -0.4148898
v 0.5384254 0.4554392 0.5666854
v 0.9850137 0.1693146 0.001952171
v 0.461529 0.324125 -0.8180453
v 0.6364228 -0.273348 -0.8215311
v 0.2458183 0.05991474 -0.9632998
v 0.0561105 -0.2908759 -0.6812949
v 0.2035054 0.2140242 -0.9365891
v 0.9783597 -0.287282 -0.3011894
v 0.9548134 -0.291513 0.068164
v -0.9351326 0.4262962 -0.5231403
v -0.4286599 0.4730428 -0.9904029
v -0.4060298 -0.2855906 -1.032882
v -0.8305846 0.1313641 0.01096891
v -0.9792619 0.151463 -0.4787143
v -0.8989152 -0.2916313 -0.4480028
v -0.6393994 -0.2913473 0.3198794
v -0.5741688 0.5383939 -0.04158191
v 0.2035054 0.2140242 -0.9365891
v 0.2035054 0.2140242 -0.9365891
v 0.0561105 -0.2908759 -0.6812949
v -0.5741688 0.5383939 -0.04158191
v 1.044433 -0.2880547 0.2028497
v 0.7245636 -0.2905777 0.9006617
v 0.9548134 -0.291513 0.068164

vn -0.7049128 0.3850665 -0.5956692
vn -0.8953031 0.3150229 0.3149489
vn -0.8886755 0.1408855 0.4363567
vn -0.2558475 0.3661231 0.8947045
vn -0.9179862 -0.08236825 -0.3879653
vn -0.2731276 0.9284316 -0.2518253
vn -0.2553102 0.9172869 0.3056165
vn 0.2354614 0.9711689 0.03726731
vn 0.2279437 0.9156283 0.3311595
vn 0.6004455 0.6650724 0.4440089
vn 0.7236176 0.6816058 0.1085875
vn 0.9926239 0.1201515 0.0161697
vn 0.667401 -0.2054751 -0.7157905
vn 0.7585853 -0.5490931 -0.3507777
vn 0.812416 0.376107 -0.4455601
vn 0.9072175 0.257441 0.3326869
vn 0.8020508 -0.0861112 0.5910156
vn -0.2365987 0.6749264 -0.6989245
vn 0.3556465 0.6066521 -0.7109773
vn 0.5231166 -0.1251119 -0.8430279
vn -0.9644873 0.1679768 -0.2038333
vn -0.4369232 -0.05493799 -0.8978196
vn -0.5074699 -0.2013833 -0.8378061
vn -0.9179862 -0.08236825 -0.3879653
vn -0.2731276 0.9284316 -0.2518253
vn 0.812416 0.376107 -0.4455601
vn 0.812416 0.376107 -0.4455601
vn 0.7585853 -0.5490931 -0.3507777
vn -0.2731276 0.9284316 -0.2518253
vn 0.5055713 0.1510324 0.8494627
vn -0.3496784 0.1467336 0.9253076
vn 0.8020508 -0.0861112 0.5910156

vt 0.6423263 0.9282266
vt 0.6300176 0.909534
vt 0.6015748 0.9002308
vt 0.6444768 0.8628007
vt 0.6078495 0.9352116
vt 0.6572942 0.936246
vt 0.644129 0.8995352
vt 0.6853108 0.9129032
vt 0.6542136 0.8751403
vt 0.6845469 0.8553007
vt 0.7124879 0.8984747
vt 0.7342402 0.877182
vt 0.7270296 0.9056215
vt 0.7526836 0.9048882
vt 0.7210952 0.9124857
vt 0.7133514 0.8500736
vt 0.699796 0.8358402
vt 0.6804079 0.9512479
vt 0.701471 0.9360154
vt 0.7259656 0.9576307
vt 0.660688 0.9631493
vt 0.6829373 0.9619317
vt 0.6897333 0.9815007
vt 0.6421401 0.9858761
vt 0.6572942 0.936246
vt 0.7210952 0.9124857
vt 0.7210952 0.9124857
vt 0.7465864 0.9330923
vt 0.6572942 0.936246
vt 0.6684015 0.8318685
vt 0.6264908 0.8474367
vt 0.6764885 0.8304977

g Rock2_(53)_2629_132
usemtl Rock2_(53)_2629_132
usemap Rock2_(53)_2629_132
f 1/1/1 3/3/3 2/2/2
f 3/3/3 4/4/4 2/2/2
f 5/5/5 3/3/3 1/1/1
f 5/5/5 1/1/1 6/6/6
f 2/2/2 7/7/7 1/1/1
f 7/7/7 2/2/2 4/4/4
f 8/8/8 6/6/6 7/7/7
f 8/8/8 7/7/7 9/9/9
f 7/7/7 4/4/4 9/9/9
f 4/4/4 10/10/10 9/9/9
f 9/9/9 10/10/10 8/8/8
f 8/8/8 10/10/10 11/11/11
f 10/10/10 12/12/12 11/11/11
f 13/13/13 11/11/11 12/12/12
f 14/14/14 13/13/13 12/12/12
f 8/8/8 11/11/11 15/15/15
f 10/10/10 16/16/16 12/12/12
f 17/17/17 16/16/16 10/10/10
f 6/6/6 8/8/8 18/18/18
f 19/19/19 18/18/18 8/8/8
f 15/15/15 19/19/19 8/8/8
f 19/19/19 20/20/20 18/18/18
f 18/18/18 21/21/21 6/6/6
f 18/18/18 22/22/22 21/21/21
f 22/22/22 18/18/18 20/20/20
f 23/23/23 22/22/22 20/20/20
f 23/23/23 21/21/21 22/22/22
f 24/24/24 21/21/21 23/23/23
f 25/25/25 21/21/21 24/24/24
f 19/19/19 26/26/26 20/20/20
f 26/26/26 11/11/11 13/13/13
f 14/14/14 27/27/27 13/13/13
f 27/27/27 28/28/28 20/20/20
f 1/1/1 7/7/7 29/29/29
f 10/10/10 4/4/4 30/30/30
f 4/4/4 31/31/31 30/30/30
f 3/3/3 31/31/31 4/4/4
f 32/32/32 10/10/10 30/30/30
