#Rock3_(62)_2985_190.obj

v -0.9440842 1.136906 -1.216796
v -0.7468467 1.254143 -0.2548364
v -1.413692 0.9414755 -0.4915543
v -0.02034306 0.9592803 -1.42862
v -0.1742673 1.097866 -0.09949502
v 0.1628801 0.9454907 -0.6093708
v 0.3469657 0.1322962 -1.149458
v -0.02510747 0.796134 -0.004593807
v -1.174627 0.8310585 -1.429896
v -0.2579135 0.6002639 -1.550426
v -0.9539774 -0.21589 -1.671468
v 0.06663062 -0.2244607 -1.314173
v 1.509476 -0.209759 -0.9086778
v 0.3823528 0.9776998 -0.7041204
v 1.39149 0.8841214 -0.2364186
v 0.4745873 1.064101 -0.3634035
v 0.1628801 0.9454907 -0.6093708
v 1.36873 0.7879554 0.276233
v 0.4568515 0.4594649 0.6407357
v 0.8598434 0.2661246 0.871819
v 0.2683704 0.6985022 1.177712
v 0.2596201 0.9579569 0.5341901
v -1.344634 -0.2243984 -1.375772
v 1.638111 0.3897389 -0.2464706
v 1.146829 -0.2245951 0.780164
v 1.123471 0.1747995 0.8086076
v 0.8664929 -0.1333605 0.9139354
v 1.693024 -0.2244684 -0.5556526
v 0.3808459 0.4957438 1.558167
v 0.8194544 -0.2030543 1.222912
v 0.8664929 -0.1333605 0.9139354
v 0.0572023 0.05316483 1.735739
v 0.2683704 0.6985022 1.177712
v -0.2569611 0.1026063 1.509108
v 0.1038514 -0.2227688 1.70271
v -0.1964389 -0.2194778 1.504251
v -1.458719 0.5425245 -1.023414
v -1.67487 -0.2224525 -0.6187683
v -1.346507 0.6172 -0.2971255
v -1.348933 0.1914481 0.03926008
v -1.050594 0.6201938 -0.05249906
v -1.378551 -0.224503 0.1970354
v -0.7573665 1.030764 -0.01623783
v -1.348933 0.1914481 0.03926008
v -1.472793 0.6474112 0.3256971
v -1.378551 -0.224503 0.1970354
v -1.444069 -0.2243498 0.5590796
v -1.406242 0.8316844 0.9874339
v -0.8474674 -0.008682419 1.63761
v -0.6836904 0.7736423 1.563665
v -0.6748976 1.361803 0.2764388
v 0.1808948 0.8877454 1.235784
v -0.3462712 0.4248249 1.607315
v -0.7573665 1.030764 -0.01623783
v -0.02510747 0.796134 -0.004593807
v 0.4568515 0.4594649 0.6407357
v 0.2683704 0.6985022 1.177712
v -0.2569611 0.1026063 1.509108
v -0.7731866 -0.2244991 1.445944
v -0.1964389 -0.2194778 1.504251

vn -0.2692325 0.9348052 -0.2316316
vn 0.004313428 0.9973203 0.07303101
vn -0.6127123 0.6492695 0.4505914
vn 0.2710202 0.7025735 -0.6579806
vn 0.333811 0.9105781 -0.2437573
vn 0.3061817 0.8790748 -0.3653496
vn 0.04984432 0.3156134 -0.9475778
vn 0.3826271 0.9128258 0.1426381
vn -0.7504857 0.3864119 -0.5361502
vn -0.2431994 0.08685968 -0.9660794
vn -0.5097697 0.04967994 -0.8588754
vn -0.05737707 -0.02642263 -0.9980028
vn 0.06992847 0.4526938 -0.8889198
vn -0.1061072 0.5773732 -0.8095563
vn 0.2388378 0.7114252 -0.6609316
vn 0.06224313 0.9712815 0.2296479
vn 0.3061817 0.8790748 -0.3653496
vn 0.7186513 0.6424781 0.2660116
vn 0.3980168 0.8904626 0.2205879
vn 0.7040504 0.6423116 0.3029009
vn 0.7668594 0.6356437 0.08879018
vn 0.5534574 0.7666103 -0.3255665
vn -0.9755397 0.06310164 -0.2105716
vn 0.9504819 0.1174768 -0.2877209
vn 0.9967959 -0.02256741 0.07673803
vn 0.9068192 0.2010509 0.3704827
vn 0.9794528 0.07494502 0.1872307
vn 0.9498025 0.0290681 -0.3114969
vn 0.7329952 0.4661886 0.4953648
vn 0.9614136 0.1502465 0.2304555
vn 0.9794528 0.07494502 0.1872307
vn 0.504968 0.2348079 0.8305857
vn 0.7668594 0.6356437 0.08879018
vn 0.3732904 0.1169365 0.9203152
vn 0.6781819 -0.06205048 0.7322698
vn 0.1124618 -0.08557115 0.9899646
vn -0.9593796 0.2304539 0.1627324
vn -0.9041477 0.1952759 0.3799792
vn -0.625648 0.2920234 0.7233856
vn -0.8566119 0.2172661 0.4679866
vn -0.7921364 0.5712633 0.2148908
vn -0.8877563 0.04803255 0.4578009
vn -0.5785093 0.8094946 0.100227
vn -0.8566119 0.2172661 0.4679866
vn -0.8971297 0.3899258 0.2076446
vn -0.8877563 0.04803255 0.4578009
vn -0.7197409 -0.1460583 0.6787047
vn -0.5135996 0.4740957 0.7151564
vn -0.2531792 -0.183919 0.9497758
vn 0.09952073 0.7003081 0.7068692
vn -0.08934148 0.9885024 0.1219873
vn 0.4318474 0.8506142 0.299939
vn 0.6607139 0.09849457 0.7441478
vn -0.5785093 0.8094946 0.100227
vn 0.3826271 0.9128258 0.1426381
vn 0.3980168 0.8904626 0.2205879
vn 0.7668594 0.6356437 0.08879018
vn 0.3732904 0.1169365 0.9203152
vn -0.01428777 -0.5943414 0.8040859
vn 0.1124618 -0.08557115 0.9899646

vt 0.1158638 0.9383631
vt 0.09538253 0.9120352
vt 0.08741901 0.9391211
vt 0.1426682 0.9264175
vt 0.1080404 0.8905393
vt 0.1347711 0.8988628
vt 0.1751804 0.9199398
vt 0.1161831 0.8776034
vt 0.1176134 0.9513465
vt 0.1468127 0.9391351
vt 0.1453332 0.9837276
vt 0.1839423 0.9427396
vt 0.2110212 0.8733379
vt 0.144241 0.8946485
vt 0.1627785 0.8600584
vt 0.1395759 0.8824828
vt 0.1347711 0.8988628
vt 0.1549532 0.8464264
vt 0.1179448 0.8396425
vt 0.1310518 0.8177863
vt 0.08797247 0.8280851
vt 0.1027162 0.8567739
vt 0.1208919 0.9921259
vt 0.1802932 0.852975
vt 0.156728 0.8026067
vt 0.1453191 0.8163236
vt 0.1368421 0.7983432
vt 0.2079828 0.8517604
vt 0.09188173 0.8086196
vt 0.1263664 0.7887857
vt 0.1390489 0.7991756
vt 0.07950947 0.7867259
vt 0.08797247 0.8280851
vt 0.06328828 0.791539
vt 0.08346606 0.7749887
vt 0.06547388 0.7755531
vt 0.1007873 0.9601148
vt 0.07576175 0.9891008
vt 0.07257432 0.9420716
vt 0.0503709 0.9534717
vt 0.06298687 0.9252746
vt 0.03557348 0.970162
vt 0.08244275 0.9075034
vt 0.03084773 0.9223279
vt 0.04592365 0.9057153
vt 0.009368702 0.9150389
vt 0.007073132 0.8962587
vt 0.04685852 0.8817821
vt 0.02561666 0.8455088
vt 0.05227689 0.8518144
vt 0.08237857 0.8901991
vt 0.08348626 0.8371816
vt 0.04950949 0.8346252
vt 0.08244275 0.9075034
vt 0.1161831 0.8776034
vt 0.1179448 0.8396425
vt 0.08797247 0.8280851
vt 0.04058571 0.8226988
vt 0.01483814 0.842499
vt 0.02678112 0.815241

g Rock3_(62)_2985_190
usemtl Rock3_(62)_2985_190
usemap Rock3_(62)_2985_190
f 1/1/1 3/3/3 2/2/2
f 1/1/1 2/2/2 4/4/4
f 4/4/4 2/2/2 5/5/5
f 6/6/6 4/4/4 5/5/5
f 7/7/7 4/4/4 6/6/6
f 5/5/5 8/8/8 6/6/6
f 9/9/9 3/3/3 1/1/1
f 4/4/4 9/9/9 1/1/1
f 10/10/10 9/9/9 4/4/4
f 10/10/10 4/4/4 7/7/7
f 11/11/11 9/9/9 10/10/10
f 12/12/12 11/11/11 10/10/10
f 10/10/10 7/7/7 12/12/12
f 7/7/7 13/13/13 12/12/12
f 7/7/7 14/14/14 13/13/13
f 6/6/6 14/14/14 7/7/7
f 15/15/15 13/13/13 14/14/14
f 15/15/15 14/14/14 16/16/16
f 14/14/14 6/6/6 16/16/16
f 17/17/17 8/8/8 16/16/16
f 8/8/8 18/18/18 16/16/16
f 15/15/15 16/16/16 18/18/18
f 8/8/8 19/19/19 18/18/18
f 19/19/19 20/20/20 18/18/18
f 21/21/21 20/20/20 19/19/19
f 19/19/19 22/22/22 21/21/21
f 9/9/9 11/11/11 23/23/23
f 15/15/15 18/18/18 24/24/24
f 24/24/24 13/13/13 15/15/15
f 18/18/18 25/25/25 24/24/24
f 26/26/26 25/25/25 18/18/18
f 26/26/26 20/20/20 25/25/25
f 26/26/26 18/18/18 20/20/20
f 27/27/27 25/25/25 20/20/20
f 13/13/13 24/24/24 28/28/28
f 28/28/28 24/24/24 25/25/25
f 29/29/29 30/30/30 20/20/20
f 20/20/20 30/30/30 31/31/31
f 32/32/32 30/30/30 29/29/29
f 21/21/21 32/32/32 29/29/29
f 20/20/20 33/33/33 29/29/29
f 32/32/32 33/33/33 34/34/34
f 32/32/32 35/35/35 30/30/30
f 36/36/36 35/35/35 32/32/32
f 36/36/36 32/32/32 34/34/34
f 23/23/23 38/38/38 37/37/37
f 38/38/38 39/39/39 37/37/37
f 40/40/40 39/39/39 38/38/38
f 40/40/40 41/41/41 39/39/39
f 38/38/38 42/42/42 40/40/40
f 43/43/43 39/39/39 41/41/41
f 43/43/43 3/3/3 39/39/39
f 3/3/3 37/37/37 39/39/39
f 3/3/3 9/9/9 37/37/37
f 37/37/37 9/9/9 23/23/23
f 44/44/44 45/45/45 41/41/41
f 45/45/45 44/44/44 46/46/46
f 45/45/45 46/46/46 47/47/47
f 47/47/47 48/48/48 45/45/45
f 47/47/47 49/49/49 48/48/48
f 48/48/48 49/49/49 50/50/50
f 48/48/48 50/50/50 51/51/51
f 51/51/51 45/45/45 48/48/48
f 52/52/52 51/51/51 50/50/50
f 22/22/22 51/51/51 52/52/52
f 50/50/50 49/49/49 53/53/53
f 52/52/52 50/50/50 53/53/53
f 54/54/54 45/45/45 51/51/51
f 5/5/5 51/51/51 22/22/22
f 54/54/54 51/51/51 5/5/5
f 22/22/22 55/55/55 5/5/5
f 56/56/56 55/55/55 22/22/22
f 52/52/52 57/57/57 22/22/22
f 53/53/53 33/33/33 52/52/52
f 53/53/53 58/58/58 33/33/33
f 59/59/59 58/58/58 53/53/53
f 49/49/49 47/47/47 59/59/59
f 49/49/49 59/59/59 53/53/53
f 2/2/2 54/54/54 5/5/5
f 54/54/54 2/2/2 3/3/3
f 59/59/59 60/60/60 58/58/58
f 41/41/41 45/45/45 54/54/54
