#Rock2_(16)_1360_364.obj

v -0.735678 0.4740573 0.2745542
v -0.5051321 0.3718341 0.7529841
v -0.3678145 -0.2900451 0.9057277
v 0.7341121 0.2400902 0.8099354
v -0.6393993 -0.2913473 0.3198807
v -0.5741696 0.5383939 -0.04158161
v -0.1068014 0.6084876 0.6504698
v 0.009655494 0.5926169 -0.4148896
v 0.538425 0.4554392 0.5666849
v 0.9850132 0.1693146 0.001951487
v 0.4615304 0.324125 -0.8180447
v 0.6364235 -0.273348 -0.8215324
v 0.2458181 0.05991474 -0.9633023
v 0.05611085 -0.2908759 -0.6812947
v 0.203505 0.2140242 -0.9365873
v 0.9783593 -0.287282 -0.3011878
v 0.9548115 -0.291513 0.06816419
v -0.9351326 0.4262962 -0.523142
v -0.4286583 0.4730428 -0.9904028
v -0.406032 -0.2855906 -1.032881
v -0.8305852 0.1313641 0.01096966
v -0.9792635 0.151463 -0.4787145
v -0.8989162 -0.2916313 -0.4480025
v -0.6393993 -0.2913473 0.3198807
v -0.5741696 0.5383939 -0.04158161
v 0.203505 0.2140242 -0.9365873
v 0.203505 0.2140242 -0.9365873
v 0.05611085 -0.2908759 -0.6812947
v -0.5741696 0.5383939 -0.04158161
v 1.044431 -0.2880547 0.2028497
v 0.724563 -0.2905777 0.9006595
v 0.9548115 -0.291513 0.06816419

vn -0.8367752 0.3850665 0.3892699
vn -0.09051344 0.3150229 0.9447581
vn 0.02243584 0.1408855 0.9897717
vn 0.7043104 0.3661231 0.6081946
vn -0.7378618 -0.08236825 0.6699072
vn -0.3432977 0.9284316 0.1419907
vn 0.1700059 0.9172869 0.3601149
vn 0.1327797 0.9711689 -0.1979911
vn 0.3962937 0.9156283 -0.06764743
vn 0.6552535 0.6650724 -0.3582202
vn 0.4026655 0.6816058 -0.6109617
vn 0.4318696 0.1201515 -0.8938972
vn -0.3689915 -0.2054751 -0.9064355
vn 0.0005407035 -0.5490931 -0.835761
vn -0.0628387 0.376107 -0.924443
vn 0.6831769 0.257441 -0.6833692
vn 0.8733795 -0.0861112 -0.4793676
vn -0.7336364 0.6749264 -0.07906985
vn -0.4956537 0.6066521 -0.6215309
vn -0.5450872 -0.1251119 -0.8289915
vn -0.5903273 0.1679768 0.789492
vn -0.9983069 -0.05493799 0.01910669
vn -0.9735022 -0.2013833 0.1083433
vn -0.7378618 -0.08236825 0.6699072
vn -0.3432977 0.9284316 0.1419907
vn -0.0628387 0.376107 -0.924443
vn -0.0628387 0.376107 -0.924443
vn 0.0005407035 -0.5490931 -0.835761
vn -0.3432977 0.9284316 0.1419907
vn 0.9832813 0.1510324 -0.1017213
vn 0.6926425 0.1467336 0.706198
vn 0.8733795 -0.0861112 -0.4793676

vt 0.6420898 0.9282227
vt 0.6298828 0.9091797
vt 0.6015625 0.8999023
vt 0.644043 0.862793
vt 0.6074219 0.9350586
vt 0.6572266 0.9360352
vt 0.644043 0.8994141
vt 0.6850586 0.9125977
vt 0.6538086 0.875
vt 0.684082 0.8549805
vt 0.7124023 0.8984375
vt 0.7338867 0.8769531
vt 0.7265625 0.9052734
vt 0.7524414 0.9047852
vt 0.7207031 0.9121094
vt 0.7128906 0.8496094
vt 0.699707 0.8354492
vt 0.6801758 0.9511719
vt 0.7011719 0.9355469
vt 0.7255859 0.9575195
vt 0.6606445 0.9628906
vt 0.6826172 0.9619141
vt 0.6894531 0.9814453
vt 0.6420898 0.9858398
vt 0.6572266 0.9360352
vt 0.7207031 0.9121094
vt 0.7207031 0.9121094
vt 0.746582 0.9326172
vt 0.6572266 0.9360352
vt 0.6679688 0.831543
vt 0.6264648 0.847168
vt 0.6762695 0.8300781

g Rock2_(16)_1360_364
usemtl Rock2_(16)_1360_364
usemap Rock2_(16)_1360_364
f 1/1/1 3/3/3 2/2/2
f 3/3/3 4/4/4 2/2/2
f 5/5/5 3/3/3 1/1/1
f 5/5/5 1/1/1 6/6/6
f 2/2/2 7/7/7 1/1/1
f 7/7/7 2/2/2 4/4/4
f 8/8/8 6/6/6 7/7/7
f 8/8/8 7/7/7 9/9/9
f 7/7/7 4/4/4 9/9/9
f 4/4/4 10/10/10 9/9/9
f 9/9/9 10/10/10 8/8/8
f 8/8/8 10/10/10 11/11/11
f 10/10/10 12/12/12 11/11/11
f 13/13/13 11/11/11 12/12/12
f 14/14/14 13/13/13 12/12/12
f 8/8/8 11/11/11 15/15/15
f 10/10/10 16/16/16 12/12/12
f 17/17/17 16/16/16 10/10/10
f 6/6/6 8/8/8 18/18/18
f 19/19/19 18/18/18 8/8/8
f 15/15/15 19/19/19 8/8/8
f 19/19/19 20/20/20 18/18/18
f 18/18/18 21/21/21 6/6/6
f 18/18/18 22/22/22 21/21/21
f 22/22/22 18/18/18 20/20/20
f 23/23/23 22/22/22 20/20/20
f 23/23/23 21/21/21 22/22/22
f 24/24/24 21/21/21 23/23/23
f 25/25/25 21/21/21 24/24/24
f 19/19/19 26/26/26 20/20/20
f 26/26/26 11/11/11 13/13/13
f 14/14/14 27/27/27 13/13/13
f 27/27/27 28/28/28 20/20/20
f 1/1/1 7/7/7 29/29/29
f 10/10/10 4/4/4 30/30/30
f 4/4/4 31/31/31 30/30/30
f 3/3/3 31/31/31 4/4/4
f 32/32/32 10/10/10 30/30/30
