#Rock2_(36)_2953_102.obj

v -0.7356787 0.4740573 0.2745476
v -0.5051317 0.3718341 0.7529793
v -0.3678141 -0.2900451 0.9057274
v 0.7341118 0.2400902 0.8099327
v -0.6393995 -0.2913473 0.3198738
v -0.5741701 0.5383939 -0.04158401
v -0.106802 0.6084876 0.6504631
v 0.009655952 0.5926169 -0.4148903
v 0.5384245 0.4554392 0.5666771
v 0.985013 0.1693146 0.00194931
v 0.4615297 0.324125 -0.8180504
v 0.6364231 -0.273348 -0.821537
v 0.2458181 0.05991474 -0.9633064
v 0.05611134 -0.2908759 -0.6813011
v 0.2035055 0.2140242 -0.9365883
v 0.9783592 -0.287282 -0.3011894
v 0.9548111 -0.291513 0.0681572
v -0.9351325 0.4262962 -0.5231438
v -0.4286585 0.4730428 -0.990406
v -0.4060326 -0.2855906 -1.032887
v -0.830585 0.1313641 0.01096725
v -0.9792633 0.151463 -0.4787178
v -0.8989167 -0.2916313 -0.4480095
v -0.6393995 -0.2913473 0.3198738
v -0.5741701 0.5383939 -0.04158401
v 0.2035055 0.2140242 -0.9365883
v 0.2035055 0.2140242 -0.9365883
v 0.05611134 -0.2908759 -0.6813011
v -0.5741701 0.5383939 -0.04158401
v 1.044432 -0.2880547 0.2028465
v 0.7245636 -0.2905777 0.9006538
v 0.9548111 -0.291513 0.0681572

vn -0.9195842 0.3850665 0.07803082
vn -0.4096428 0.3150229 0.856127
vn -0.3190389 0.1408855 0.9372115
vn 0.4524334 0.3661231 0.8131776
vn -0.9231272 -0.08236825 0.3755684
vn -0.3711848 0.9284316 0.01537942
vn 0.03591001 0.9172869 0.3966046
vn 0.1927288 0.9711689 -0.1403087
vn 0.3954077 0.9156283 0.07264755
vn 0.7384462 0.6650724 -0.1112469
vn 0.5880869 0.6816058 -0.4353935
vn 0.7127359 0.1201515 -0.6910652
vn -0.03505031 -0.2054751 -0.9780345
vn 0.2876947 -0.5490931 -0.7846836
vn 0.2586479 0.376107 -0.8897442
vn 0.8763981 0.257441 -0.4070017
vn 0.9849191 -0.0861112 -0.1500641
vn -0.6617932 0.6749264 -0.3263496
vn -0.2518997 0.6066521 -0.7540025
vn -0.2270348 -0.1251119 -0.9658169
vn -0.8256686 0.1679768 0.5385677
vn -0.9440831 -0.05493799 -0.3250983
vn -0.9514526 -0.2013833 -0.232772
vn -0.9231272 -0.08236825 0.3755684
vn -0.3711848 0.9284316 0.01537942
vn 0.2586479 0.376107 -0.8897442
vn 0.2586479 0.376107 -0.8897442
vn 0.2876947 -0.5490931 -0.7846836
vn -0.3711848 0.9284316 0.01537942
vn 0.9583607 0.1510324 0.2423511
vn 0.4077997 0.1467336 0.901204
vn 0.9849191 -0.0861112 -0.1500641

vt 0.6423263 0.9282266
vt 0.6300176 0.909534
vt 0.6015748 0.9002308
vt 0.6444768 0.8628007
vt 0.6078495 0.9352116
vt 0.6572942 0.936246
vt 0.644129 0.8995352
vt 0.6853108 0.9129032
vt 0.6542136 0.8751403
vt 0.6845469 0.8553007
vt 0.7124879 0.8984747
vt 0.7342402 0.877182
vt 0.7270296 0.9056215
vt 0.7526836 0.9048882
vt 0.7210952 0.9124857
vt 0.7133514 0.8500736
vt 0.699796 0.8358402
vt 0.6804079 0.9512479
vt 0.701471 0.9360154
vt 0.7259656 0.9576307
vt 0.660688 0.9631493
vt 0.6829373 0.9619317
vt 0.6897333 0.9815007
vt 0.6421401 0.9858761
vt 0.6572942 0.936246
vt 0.7210952 0.9124857
vt 0.7210952 0.9124857
vt 0.7465864 0.9330923
vt 0.6572942 0.936246
vt 0.6684015 0.8318685
vt 0.6264908 0.8474367
vt 0.6764885 0.8304977

g Rock2_(36)_2953_102
usemtl Rock2_(36)_2953_102
usemap Rock2_(36)_2953_102
f 1/1/1 3/3/3 2/2/2
f 3/3/3 4/4/4 2/2/2
f 5/5/5 3/3/3 1/1/1
f 5/5/5 1/1/1 6/6/6
f 2/2/2 7/7/7 1/1/1
f 7/7/7 2/2/2 4/4/4
f 8/8/8 6/6/6 7/7/7
f 8/8/8 7/7/7 9/9/9
f 7/7/7 4/4/4 9/9/9
f 4/4/4 10/10/10 9/9/9
f 9/9/9 10/10/10 8/8/8
f 8/8/8 10/10/10 11/11/11
f 10/10/10 12/12/12 11/11/11
f 13/13/13 11/11/11 12/12/12
f 14/14/14 13/13/13 12/12/12
f 8/8/8 11/11/11 15/15/15
f 10/10/10 16/16/16 12/12/12
f 17/17/17 16/16/16 10/10/10
f 6/6/6 8/8/8 18/18/18
f 19/19/19 18/18/18 8/8/8
f 15/15/15 19/19/19 8/8/8
f 19/19/19 20/20/20 18/18/18
f 18/18/18 21/21/21 6/6/6
f 18/18/18 22/22/22 21/21/21
f 22/22/22 18/18/18 20/20/20
f 23/23/23 22/22/22 20/20/20
f 23/23/23 21/21/21 22/22/22
f 24/24/24 21/21/21 23/23/23
f 25/25/25 21/21/21 24/24/24
f 19/19/19 26/26/26 20/20/20
f 26/26/26 11/11/11 13/13/13
f 14/14/14 27/27/27 13/13/13
f 27/27/27 28/28/28 20/20/20
f 1/1/1 7/7/7 29/29/29
f 10/10/10 4/4/4 30/30/30
f 4/4/4 31/31/31 30/30/30
f 3/3/3 31/31/31 4/4/4
f 32/32/32 10/10/10 30/30/30
