#Rock3_(6)_2781_209.obj

v -0.9440863 1.136906 -1.216795
v -0.7468477 1.254143 -0.2548333
v -1.413693 0.9414755 -0.4915493
v -0.02034534 0.9592803 -1.428618
v -0.174267 1.097866 -0.09949321
v 0.1628784 0.9454907 -0.6093686
v 0.3469636 0.1322962 -1.149455
v -0.02510918 0.796134 -0.004591224
v -1.174628 0.8310585 -1.429895
v -0.2579146 0.6002639 -1.550423
v -0.953979 -0.21589 -1.671466
v 0.06663081 -0.2244607 -1.31417
v 1.509476 -0.209759 -0.908676
v 0.3823529 0.9776998 -0.7041174
v 1.391489 0.8841214 -0.2364179
v 0.4745858 1.064101 -0.3634027
v 0.1628784 0.9454907 -0.6093686
v 1.36873 0.7879554 0.2762361
v 0.4568507 0.4594649 0.6407384
v 0.8598419 0.2661246 0.8718213
v 0.26837 0.6985022 1.177716
v 0.2596195 0.9579569 0.5341899
v -1.344635 -0.2243984 -1.375772
v 1.638111 0.3897389 -0.2464695
v 1.146829 -0.2245951 0.7801666
v 1.123471 0.1747995 0.8086102
v 0.8664933 -0.1333605 0.9139379
v 1.693022 -0.2244684 -0.5556518
v 0.3808451 0.4957438 1.558167
v 0.8194532 -0.2030543 1.222912
v 0.8664933 -0.1333605 0.9139379
v 0.05720114 0.05316483 1.735741
v 0.26837 0.6985022 1.177716
v -0.2569616 0.1026063 1.509112
v 0.1038509 -0.2227688 1.702709
v -0.1964387 -0.2194778 1.504252
v -1.45872 0.5425245 -1.023413
v -1.67487 -0.2224525 -0.6187644
v -1.346508 0.6172 -0.2971243
v -1.348934 0.1914481 0.03926328
v -1.050595 0.6201938 -0.05249602
v -1.378553 -0.224503 0.1970384
v -0.7573678 1.030764 -0.01623544
v -1.348934 0.1914481 0.03926328
v -1.472792 0.6474112 0.3256989
v -1.378553 -0.224503 0.1970384
v -1.444069 -0.2243498 0.5590832
v -1.406242 0.8316844 0.9874339
v -0.8474674 -0.008682419 1.637611
v -0.6836904 0.7736423 1.563667
v -0.6748984 1.361803 0.2764377
v 0.1808946 0.8877454 1.235785
v -0.3462721 0.4248249 1.607319
v -0.7573678 1.030764 -0.01623544
v -0.02510918 0.796134 -0.004591224
v 0.4568507 0.4594649 0.6407384
v 0.26837 0.6985022 1.177716
v -0.2569616 0.1026063 1.509112
v -0.7731868 -0.2244991 1.445943
v -0.1964387 -0.2194778 1.504252

vn -0.3534099 0.9348052 -0.03522503
vn 0.04543699 0.9973203 0.05733772
vn -0.2432704 0.6492695 0.7206029
vn -0.1555742 0.7025735 -0.694397
vn 0.1335278 0.9105781 -0.3911748
vn 0.04113118 0.8790748 -0.4749061
vn -0.5028855 0.3156134 -0.8046704
vn 0.3952172 0.9128258 -0.1027254
vn -0.9222872 0.3864119 -0.008490205
vn -0.7535056 0.08685968 -0.6516785
vn -0.9103154 0.04967994 -0.4109233
vn -0.6196336 -0.02642263 -0.7844465
vn -0.4527792 0.4526938 -0.7681532
vn -0.5514154 0.5773732 -0.6021472
vn -0.183625 0.7114252 -0.678348
vn 0.1827465 0.9712815 0.1523683
vn 0.04113118 0.8790748 -0.4749061
vn 0.7412126 0.6424781 -0.1944884
vn 0.452548 0.8904626 -0.04771453
vn 0.750421 0.6423116 -0.1558981
vn 0.6790079 0.6356437 -0.3672947
vn 0.2664781 0.7666103 -0.5842073
vn -0.9197946 0.06310164 0.3872934
vn 0.6133582 0.1174768 -0.7810192
vn 0.8604115 -0.02256741 -0.5091001
vn 0.9552672 0.2010509 -0.2168946
vn 0.9096068 0.07494502 -0.4086549
vn 0.5991593 0.0290681 -0.800102
vn 0.8845602 0.4661886 -0.01487744
vn 0.9196345 0.1502465 -0.3629029
vn 0.9096068 0.07494502 -0.4086549
vn 0.8901505 0.2348079 0.390509
vn 0.6790079 0.6356437 -0.3672947
vn 0.8337917 0.1169365 0.5395529
vn 0.9756011 -0.06205048 0.2105999
vn 0.6601359 -0.08557115 0.7462562
vn -0.6923622 0.2304539 0.6837584
vn -0.5224736 0.1952759 0.8299931
vn -0.09733897 0.2920234 0.9514449
vn -0.4330441 0.2172661 0.8747962
vn -0.5254616 0.5712633 0.6305144
vn -0.4643959 0.04803255 0.8843243
vn -0.4162927 0.8094946 0.4140276
vn -0.4330441 0.2172661 0.8747962
vn -0.6156092 0.3899258 0.6848234
vn -0.4643959 0.04803255 0.8843243
vn -0.2000387 -0.1460583 0.9688404
vn -0.01029259 0.4740957 0.8804132
vn 0.3376145 -0.183919 0.9231416
vn 0.4871005 0.7003081 0.5218253
vn -0.003176279 0.9885024 0.1511712
vn 0.5257861 0.8506142 -0.002137184
vn 0.9681102 0.09849457 0.230351
vn -0.4162927 0.8094946 0.4140276
vn 0.3952172 0.9128258 -0.1027254
vn 0.452548 0.8904626 -0.04771453
vn 0.6790079 0.6356437 -0.3672947
vn 0.8337917 0.1169365 0.5395529
vn 0.4496726 -0.5943414 0.666748
vn 0.6601359 -0.08557115 0.7462562

vt 0.1158638 0.9383631
vt 0.09538253 0.9120352
vt 0.08741901 0.9391211
vt 0.1426682 0.9264175
vt 0.1080404 0.8905393
vt 0.1347711 0.8988628
vt 0.1751804 0.9199398
vt 0.1161831 0.8776034
vt 0.1176134 0.9513465
vt 0.1468127 0.9391351
vt 0.1453332 0.9837276
vt 0.1839423 0.9427396
vt 0.2110212 0.8733379
vt 0.144241 0.8946485
vt 0.1627785 0.8600584
vt 0.1395759 0.8824828
vt 0.1347711 0.8988628
vt 0.1549532 0.8464264
vt 0.1179448 0.8396425
vt 0.1310518 0.8177863
vt 0.08797247 0.8280851
vt 0.1027162 0.8567739
vt 0.1208919 0.9921259
vt 0.1802932 0.852975
vt 0.156728 0.8026067
vt 0.1453191 0.8163236
vt 0.1368421 0.7983432
vt 0.2079828 0.8517604
vt 0.09188173 0.8086196
vt 0.1263664 0.7887857
vt 0.1390489 0.7991756
vt 0.07950947 0.7867259
vt 0.08797247 0.8280851
vt 0.06328828 0.791539
vt 0.08346606 0.7749887
vt 0.06547388 0.7755531
vt 0.1007873 0.9601148
vt 0.07576175 0.9891008
vt 0.07257432 0.9420716
vt 0.0503709 0.9534717
vt 0.06298687 0.9252746
vt 0.03557348 0.970162
vt 0.08244275 0.9075034
vt 0.03084773 0.9223279
vt 0.04592365 0.9057153
vt 0.009368702 0.9150389
vt 0.007073132 0.8962587
vt 0.04685852 0.8817821
vt 0.02561666 0.8455088
vt 0.05227689 0.8518144
vt 0.08237857 0.8901991
vt 0.08348626 0.8371816
vt 0.04950949 0.8346252
vt 0.08244275 0.9075034
vt 0.1161831 0.8776034
vt 0.1179448 0.8396425
vt 0.08797247 0.8280851
vt 0.04058571 0.8226988
vt 0.01483814 0.842499
vt 0.02678112 0.815241

g Rock3_(6)_2781_209
usemtl Rock3_(6)_2781_209
usemap Rock3_(6)_2781_209
f 1/1/1 3/3/3 2/2/2
f 1/1/1 2/2/2 4/4/4
f 4/4/4 2/2/2 5/5/5
f 6/6/6 4/4/4 5/5/5
f 7/7/7 4/4/4 6/6/6
f 5/5/5 8/8/8 6/6/6
f 9/9/9 3/3/3 1/1/1
f 4/4/4 9/9/9 1/1/1
f 10/10/10 9/9/9 4/4/4
f 10/10/10 4/4/4 7/7/7
f 11/11/11 9/9/9 10/10/10
f 12/12/12 11/11/11 10/10/10
f 10/10/10 7/7/7 12/12/12
f 7/7/7 13/13/13 12/12/12
f 7/7/7 14/14/14 13/13/13
f 6/6/6 14/14/14 7/7/7
f 15/15/15 13/13/13 14/14/14
f 15/15/15 14/14/14 16/16/16
f 14/14/14 6/6/6 16/16/16
f 17/17/17 8/8/8 16/16/16
f 8/8/8 18/18/18 16/16/16
f 15/15/15 16/16/16 18/18/18
f 8/8/8 19/19/19 18/18/18
f 19/19/19 20/20/20 18/18/18
f 21/21/21 20/20/20 19/19/19
f 19/19/19 22/22/22 21/21/21
f 9/9/9 11/11/11 23/23/23
f 15/15/15 18/18/18 24/24/24
f 24/24/24 13/13/13 15/15/15
f 18/18/18 25/25/25 24/24/24
f 26/26/26 25/25/25 18/18/18
f 26/26/26 20/20/20 25/25/25
f 26/26/26 18/18/18 20/20/20
f 27/27/27 25/25/25 20/20/20
f 13/13/13 24/24/24 28/28/28
f 28/28/28 24/24/24 25/25/25
f 29/29/29 30/30/30 20/20/20
f 20/20/20 30/30/30 31/31/31
f 32/32/32 30/30/30 29/29/29
f 21/21/21 32/32/32 29/29/29
f 20/20/20 33/33/33 29/29/29
f 32/32/32 33/33/33 34/34/34
f 32/32/32 35/35/35 30/30/30
f 36/36/36 35/35/35 32/32/32
f 36/36/36 32/32/32 34/34/34
f 23/23/23 38/38/38 37/37/37
f 38/38/38 39/39/39 37/37/37
f 40/40/40 39/39/39 38/38/38
f 40/40/40 41/41/41 39/39/39
f 38/38/38 42/42/42 40/40/40
f 43/43/43 39/39/39 41/41/41
f 43/43/43 3/3/3 39/39/39
f 3/3/3 37/37/37 39/39/39
f 3/3/3 9/9/9 37/37/37
f 37/37/37 9/9/9 23/23/23
f 44/44/44 45/45/45 41/41/41
f 45/45/45 44/44/44 46/46/46
f 45/45/45 46/46/46 47/47/47
f 47/47/47 48/48/48 45/45/45
f 47/47/47 49/49/49 48/48/48
f 48/48/48 49/49/49 50/50/50
f 48/48/48 50/50/50 51/51/51
f 51/51/51 45/45/45 48/48/48
f 52/52/52 51/51/51 50/50/50
f 22/22/22 51/51/51 52/52/52
f 50/50/50 49/49/49 53/53/53
f 52/52/52 50/50/50 53/53/53
f 54/54/54 45/45/45 51/51/51
f 5/5/5 51/51/51 22/22/22
f 54/54/54 51/51/51 5/5/5
f 22/22/22 55/55/55 5/5/5
f 56/56/56 55/55/55 22/22/22
f 52/52/52 57/57/57 22/22/22
f 53/53/53 33/33/33 52/52/52
f 53/53/53 58/58/58 33/33/33
f 59/59/59 58/58/58 53/53/53
f 49/49/49 47/47/47 59/59/59
f 49/49/49 59/59/59 53/53/53
f 2/2/2 54/54/54 5/5/5
f 54/54/54 2/2/2 3/3/3
f 59/59/59 60/60/60 58/58/58
f 41/41/41 45/45/45 54/54/54
