#Rock2_(7)_1430_410.obj

v -0.7356788 0.4740573 0.2745535
v -0.5051321 0.3718341 0.752984
v -0.3678145 -0.2900451 0.9057274
v 0.7341124 0.2400902 0.8099356
v -0.6393988 -0.2913473 0.3198808
v -0.5741704 0.5383939 -0.04158244
v -0.1068019 0.6084876 0.6504701
v 0.009655661 0.5926169 -0.4148897
v 0.5384241 0.4554392 0.5666847
v 0.9850128 0.1693146 0.001950704
v 0.4615295 0.324125 -0.8180445
v 0.6364231 -0.273348 -0.8215322
v 0.2458185 0.05991474 -0.9633022
v 0.05611121 -0.2908759 -0.6812944
v 0.2035057 0.2140242 -0.936586
v 0.9783599 -0.287282 -0.3011872
v 0.9548109 -0.291513 0.06816418
v -0.9351328 0.4262962 -0.5231419
v -0.4286578 0.4730428 -0.9904032
v -0.4060313 -0.2855906 -1.032882
v -0.8305854 0.1313641 0.01096966
v -0.9792638 0.151463 -0.4787148
v -0.898917 -0.2916313 -0.4480029
v -0.6393988 -0.2913473 0.3198808
v -0.5741704 0.5383939 -0.04158244
v 0.2035057 0.2140242 -0.936586
v 0.2035057 0.2140242 -0.936586
v 0.05611121 -0.2908759 -0.6812944
v -0.5741704 0.5383939 -0.04158244
v 1.044432 -0.2880547 0.2028499
v 0.7245637 -0.2905777 0.9006603
v 0.9548109 -0.291513 0.06816418

vn -0.7531406 0.3850665 0.5333883
vn 0.08084181 0.3150229 0.9456348
vn 0.2000442 0.1408855 0.9696048
vn 0.8021922 0.3661231 0.4716372
vn -0.605377 -0.08236825 0.7916655
vn -0.3121705 0.9284316 0.2014058
vn 0.2319884 0.9172869 0.3236759
vn 0.0950141 0.9711689 -0.2186395
vn 0.3776706 0.9156283 -0.1378037
vn 0.5801606 0.6650724 -0.4702046
vn 0.2862434 0.6816058 -0.673408
vn 0.264096 0.1201515 -0.9569832
vn -0.5259662 -0.2054751 -0.8253118
vn -0.1497489 -0.5490931 -0.8222359
vn -0.2280415 0.376107 -0.8980761
vn 0.5491628 0.257441 -0.7950751
vn 0.7729475 -0.0861112 -0.6285993
vn -0.7358965 0.6749264 0.05413643
vn -0.5993344 0.6066521 -0.5222753
vn -0.6852663 -0.1251119 -0.7174657
vn -0.4387443 0.1679768 0.8827724
vn -0.9785997 -0.05493799 0.198304
vn -0.9381533 -0.2013833 0.2816259
vn -0.605377 -0.08236825 0.7916655
vn -0.3121705 0.9284316 0.2014058
vn -0.2280415 0.376107 -0.8980761
vn -0.2280415 0.376107 -0.8980761
vn -0.1497489 -0.5490931 -0.8222359
vn -0.3121705 0.9284316 0.2014058
vn 0.9489637 0.1510324 -0.2768703
vn 0.8083366 0.1467336 0.5701413
vn 0.7729475 -0.0861112 -0.6285993

vt 0.6420898 0.9282227
vt 0.6298828 0.9091797
vt 0.6015625 0.8999023
vt 0.644043 0.862793
vt 0.6074219 0.9350586
vt 0.6572266 0.9360352
vt 0.644043 0.8994141
vt 0.6850586 0.9125977
vt 0.6538086 0.875
vt 0.684082 0.8549805
vt 0.7124023 0.8984375
vt 0.7338867 0.8769531
vt 0.7265625 0.9052734
vt 0.7524414 0.9047852
vt 0.7207031 0.9121094
vt 0.7128906 0.8496094
vt 0.699707 0.8354492
vt 0.6801758 0.9511719
vt 0.7011719 0.9355469
vt 0.7255859 0.9575195
vt 0.6606445 0.9628906
vt 0.6826172 0.9619141
vt 0.6894531 0.9814453
vt 0.6420898 0.9858398
vt 0.6572266 0.9360352
vt 0.7207031 0.9121094
vt 0.7207031 0.9121094
vt 0.746582 0.9326172
vt 0.6572266 0.9360352
vt 0.6679688 0.831543
vt 0.6264648 0.847168
vt 0.6762695 0.8300781

g Rock2_(7)_1430_410
usemtl Rock2_(7)_1430_410
usemap Rock2_(7)_1430_410
f 1/1/1 3/3/3 2/2/2
f 3/3/3 4/4/4 2/2/2
f 5/5/5 3/3/3 1/1/1
f 5/5/5 1/1/1 6/6/6
f 2/2/2 7/7/7 1/1/1
f 7/7/7 2/2/2 4/4/4
f 8/8/8 6/6/6 7/7/7
f 8/8/8 7/7/7 9/9/9
f 7/7/7 4/4/4 9/9/9
f 4/4/4 10/10/10 9/9/9
f 9/9/9 10/10/10 8/8/8
f 8/8/8 10/10/10 11/11/11
f 10/10/10 12/12/12 11/11/11
f 13/13/13 11/11/11 12/12/12
f 14/14/14 13/13/13 12/12/12
f 8/8/8 11/11/11 15/15/15
f 10/10/10 16/16/16 12/12/12
f 17/17/17 16/16/16 10/10/10
f 6/6/6 8/8/8 18/18/18
f 19/19/19 18/18/18 8/8/8
f 15/15/15 19/19/19 8/8/8
f 19/19/19 20/20/20 18/18/18
f 18/18/18 21/21/21 6/6/6
f 18/18/18 22/22/22 21/21/21
f 22/22/22 18/18/18 20/20/20
f 23/23/23 22/22/22 20/20/20
f 23/23/23 21/21/21 22/22/22
f 24/24/24 21/21/21 23/23/23
f 25/25/25 21/21/21 24/24/24
f 19/19/19 26/26/26 20/20/20
f 26/26/26 11/11/11 13/13/13
f 14/14/14 27/27/27 13/13/13
f 27/27/27 28/28/28 20/20/20
f 1/1/1 7/7/7 29/29/29
f 10/10/10 4/4/4 30/30/30
f 4/4/4 31/31/31 30/30/30
f 3/3/3 31/31/31 4/4/4
f 32/32/32 10/10/10 30/30/30
