#Rock6_1265_379.obj

v -1.236714 3.209405 0.3464078
v -1.47479 2.872101 -1.102166
v -1.562954 4.526831 -1.224277
v -1.281775 4.841282 0.02394372
v -1.151258 4.899974 -1.929436
v -1.016892 2.822655 -1.835113
v -1.020241 1.809068 -2.316539
v -0.5481997 3.117438 -2.7076
v 0.6218476 1.730926 -2.873072
v 0.2721197 4.178768 -2.26788
v -1.151258 4.899974 -1.929436
v 0.6092279 3.360725 -3.12541
v -0.01488252 5.13487 -1.87334
v 0.8313039 5.230927 -1.022462
v 1.039687 3.768537 -1.387338
v 1.360361 3.983282 -0.3570547
v 1.97557 3.733561 -0.9577494
v 2.106188 2.792788 -1.454774
v 0.9009915 3.958027 -2.628182
v 1.931776 2.928857 -2.678801
v 2.514096 1.132488 -1.114856
v 1.70307 1.427734 -2.834966
v 3.028777 0.3228217 -1.658862
v 2.4793 0.1984252 -2.867005
v 2.18064 -0.5407414 -1.783578
v 2.73301 1.788073 -0.6602178
v 1.701103 3.698974 0.3687832
v 1.886442 2.360494 1.176383
v 0.9965028 3.311402 0.9016148
v 0.2387272 1.849801 0.9230317
v 0.3801658 1.895067 1.918864
v -0.4070334 1.425858 1.621717
v 2.320268 1.594342 0.8071162
v 1.376622 2.152632 1.792226
v 2.123567 1.388564 2.654403
v 3.073162 0.7066534 2.030955
v 3.05627 1.85684 0.1955314
v 2.73301 1.788073 -0.6602178
v 1.853983 0.726258 3.383934
v 4.049131 -0.4276555 1.033545
v 0.8851519 -0.5281102 3.081409
v -0.2444094 0.627618 2.617982
v -0.01758749 3.073839 0.6209685
v 0.9617492 3.805691 0.3615088
v -0.6993085 4.407137 0.5812401
v 3.51659 1.319851 -1.033938
v 4.563237 0.2715786 -0.5201265
v 3.028777 0.3228217 -1.658862
v 2.18064 -0.5407414 -1.783578
v 4.122961 -0.5214713 -0.2905173
v 4.018274 0.698037 0.9017934
v 2.514096 1.132488 -1.114856
v 0.3700412 4.678805 0.3088626
v 0.1843574 -0.5258934 2.745476
v -0.3405154 -0.5715036 2.032531
v 0.3592265 0.3622345 -3.266106
v -0.5635191 1.316723 -2.314862
v 1.661061 -0.02172416 -3.327481
v 0.8281083 -0.5455053 -3.003251
v -0.7060189 -0.4598512 -2.542686
v -1.741648 2.206295 -0.8956679
v -2.528665 1.464055 -0.6106961
v -1.713919 0.6600761 -3.07507
v -1.068738 -0.5076558 -2.763051
v -2.385829 -0.5129777 -3.040935
v -3.120958 0.2592432 -2.693191
v -4.480313 0.6077139 -0.8795191
v -4.133265 -0.5229296 -1.524205
v -2.605877 1.973176 0.2666698
v -1.459229 2.196388 0.4325129
v -2.853496 1.084525 0.6950031
v -1.32915 2.105422 1.679051
v -3.949997 1.043734 -0.1139411
v -3.451682 -0.463022 0.4123375
v -2.452758 1.584432 1.504685
v -2.939087 0.4809864 1.723798
v -2.473326 -0.5236428 0.7772791
v -2.447234 -0.4485819 1.535058
v -1.735515 -0.4811366 2.399978
v -2.08057 1.310773 2.344725
v -0.8963705 0.8641605 2.904367
v -0.2444094 0.627618 2.617982
v -0.3405154 -0.5715036 2.032531
v -0.4070334 1.425858 1.621717
v -0.8118836 2.160965 1.098282
v 0.2387272 1.849801 0.9230317
v -4.303099 -0.4561064 -0.5345929
v -0.2849405 2.534728 1.128038
v -0.01758749 3.073839 0.6209685
v -0.6993085 4.407137 0.5812401
v -0.5402166 5.228827 -0.2612738
v 0.3700412 4.678805 0.3088626
v 0.8313039 5.230927 -1.022462
v -0.01488252 5.13487 -1.87334
v -1.151258 4.899974 -1.929436

vn -0.7581589 0.2592962 0.598298
vn -0.9380063 0.1119816 -0.328031
vn -0.9839032 0.171937 -0.0487054
vn -0.6967921 0.598763 0.3949224
vn -0.6281415 0.5139984 -0.5841607
vn -0.7880706 0.2125862 -0.5777125
vn -0.7489529 -0.09348766 -0.6559951
vn -0.6174234 0.2627598 -0.7414482
vn -0.1964695 0.02278011 -0.9802453
vn 0.03087113 0.6402245 -0.7675673
vn -0.6281415 0.5139984 -0.5841607
vn -0.02276731 0.2773335 -0.9605039
vn 0.1017672 0.8400252 -0.5329174
vn 0.6866982 0.7107748 -0.152462
vn 0.6367356 0.687723 -0.348719
vn 0.5971777 0.7857049 0.1613896
vn 0.6629747 0.706033 -0.2489618
vn 0.8232704 0.465468 -0.3249082
vn 0.4701094 0.820181 -0.3260373
vn 0.7800471 0.3134167 -0.5415685
vn 0.6849948 0.4014389 -0.6079711
vn 0.5423254 0.2542386 -0.8007783
vn 0.7020478 0.1694264 -0.6916817
vn 0.7515133 -0.2158346 -0.6234125
vn 0.5378129 -0.6642826 -0.5191202
vn 0.7461262 0.6418281 -0.1770664
vn 0.5330859 0.7137004 0.454369
vn 0.4202869 0.6574432 0.6254018
vn -0.08885135 0.481303 0.8720394
vn -0.04393356 0.5514535 0.8330479
vn -0.3661028 0.8430533 0.3939922
vn 0.06860132 0.8325457 0.5496922
vn 0.5436921 0.7563229 0.3638332
vn 0.2449069 0.7975242 0.5513401
vn 0.5282809 0.7296562 0.4341902
vn 0.6437042 0.5235543 0.5581538
vn 0.4214654 0.8933702 0.1557453
vn 0.7461262 0.6418281 -0.1770664
vn 0.2053508 0.3601178 0.9100254
vn 0.8296463 -0.1718875 0.53117
vn -0.1162888 -0.2119215 0.9703434
vn -0.1465749 0.209909 0.9666716
vn -0.02053363 0.3590254 0.9331018
vn 0.1825932 0.6043571 0.7755078
vn -0.1131098 0.3320666 0.9364496
vn 0.3832092 0.6760453 -0.6293754
vn 0.9420705 0.04877751 -0.3318493
vn 0.7020478 0.1694264 -0.6916817
vn 0.5378129 -0.6642826 -0.5191202
vn 0.7799675 -0.5295672 -0.3334806
vn 0.8099872 0.4197555 0.4095435
vn 0.6849948 0.4014389 -0.6079711
vn 0.401471 0.6182205 0.6757399
vn -0.6241267 -0.1471811 0.7673354
vn -0.3378479 -0.3909336 0.8561715
vn -0.3312474 0.0003232931 -0.9435439
vn -0.3385075 0.150817 -0.9287986
vn 0.2572285 -0.2291787 -0.9387815
vn -0.02237673 -0.5822027 -0.8127357
vn -0.1597677 -0.07199582 -0.9845257
vn -0.8899534 0.3709733 -0.2652579
vn -0.4428397 0.7743115 -0.4520339
vn -0.04426008 0.4539614 -0.8899214
vn 0.421053 -0.004566381 -0.9070246
vn -0.2624989 -0.09996416 -0.9597403
vn -0.5615827 0.3971216 -0.725892
vn -0.8636632 0.447575 -0.2318674
vn -0.8405126 -0.1326384 -0.5253053
vn -0.5181677 0.8361113 0.1800558
vn -0.5411444 0.7392719 0.4007989
vn -0.8120975 0.3720253 0.4495497
vn 0.009500952 0.9250806 0.3796521
vn -0.7549171 0.4953055 0.4298519
vn -0.5746067 0.01214054 0.8183397
vn -0.6807997 0.7026104 0.2070031
vn -0.9063871 -0.0219943 0.4218751
vn -0.7904221 -0.1565553 0.5922189
vn -0.9116492 -0.3964908 0.1081237
vn -0.2797954 -0.3375011 0.8987811
vn -0.5092022 0.3979436 0.7631212
vn 0.05446903 0.2753493 0.9597999
vn -0.1465749 0.209909 0.9666716
vn -0.3378479 -0.3909336 0.8561715
vn 0.06860132 0.8325457 0.5496922
vn -0.03135063 0.590334 0.80655
vn -0.04393356 0.5514535 0.8330479
vn -0.9196437 -0.06575603 0.38721
vn 0.09472813 0.3614806 0.9275551
vn -0.02053363 0.3590254 0.9331018
vn -0.1131098 0.3320666 0.9364496
vn -0.1058904 0.9483293 0.2990967
vn 0.401471 0.6182205 0.6757399
vn 0.6866982 0.7107748 -0.152462
vn 0.1017672 0.8400252 -0.5329174
vn -0.6281415 0.5139984 -0.5841607

vt 0.8227539 0.1412354
vt 0.7880859 0.1687012
vt 0.824707 0.1916504
vt 0.8452148 0.1732178
vt 0.828125 0.2130127
vt 0.7788086 0.1915283
vt 0.746582 0.1936035
vt 0.7729492 0.217041
vt 0.7329102 0.2392578
vt 0.8007813 0.2414551
vt 0.828125 0.2130127
vt 0.7709961 0.243042
vt 0.8286133 0.2385254
vt 0.840332 0.2668457
vt 0.8022461 0.2770996
vt 0.8203125 0.3027344
vt 0.7973633 0.3010254
vt 0.7705078 0.3005371
vt 0.7866211 0.2524414
vt 0.7612305 0.2722168
vt 0.7294922 0.3244629
vt 0.7255859 0.2697754
vt 0.6962891 0.3203125
vt 0.6928711 0.286377
vt 0.6625977 0.3012695
vt 0.7529297 0.3354492
vt 0.8178711 0.3251953
vt 0.8071289 0.3666992
vt 0.8339844 0.3410645
vt 0.8544922 0.3771973
vt 0.8413086 0.3984375
vt 0.8652344 0.4042969
vt 0.7802734 0.3728027
vt 0.8178711 0.3864746
vt 0.8007813 0.4123535
vt 0.7719727 0.4169922
vt 0.7558594 0.3693848
vt 0.7446289 0.3486328
vt 0.8066406 0.4318848
vt 0.7324219 0.4309082
vt 0.8149414 0.4641113
vt 0.8520508 0.4377441
vt 0.8608398 0.3449707
vt 0.8369141 0.3210449
vt 0.8852539 0.3144531
vt 0.7250977 0.364502
vt 0.7163086 0.3962402
vt 0.6933594 0.3598633
vt 0.6635742 0.3623047
vt 0.7016602 0.4101563
vt 0.7436523 0.4060059
vt 0.7207031 0.340332
vt 0.8579102 0.3017578
vt 0.8354492 0.4667969
vt 0.8579102 0.4731445
vt 0.6962891 0.2338867
vt 0.7280273 0.197998
vt 0.6879883 0.2648926
vt 0.6689453 0.2470703
vt 0.6743164 0.2009277
vt 0.7724609 0.1514893
vt 0.7519531 0.1264648
vt 0.6967773 0.170166
vt 0.6704102 0.1912842
vt 0.6655273 0.1529541
vt 0.6889648 0.135498
vt 0.7124023 0.09069824
vt 0.6811523 0.09155273
vt 0.7714844 0.1082153
vt 0.8032227 0.1184692
vt 0.7661133 0.07983398
vt 0.8193359 0.08929443
vt 0.7348633 0.09020996
vt 0.7299805 0.04959106
vt 0.7919922 0.07562256
vt 0.78125 0.05291748
vt 0.753418 0.03512573
vt 0.7724609 0.02909851
vt 0.8037109 0.01849365
vt 0.8066406 0.06216431
vt 0.831543 0.0484314
vt 0.8491211 0.04446411
vt 0.8427734 0.007873535
vt 0.8447266 0.07965088
vt 0.8291016 0.104248
vt 0.8603516 0.09851074
vt 0.7001953 0.06793213
vt 0.84375 0.1119995
vt 0.8525391 0.1270752
vt 0.8554688 0.1567383
vt 0.859375 0.1854248
vt 0.8852539 0.1708984
vt 0.8862305 0.213501
vt 0.8554688 0.2264404
vt 0.828125 0.2130127

g Rock6_1265_379
usemtl Rock6_1265_379
usemap Rock6_1265_379
f 1/1/1 3/3/3 2/2/2
f 1/1/1 4/4/4 3/3/3
f 3/3/3 5/5/5 2/2/2
f 5/5/5 3/3/3 4/4/4
f 2/2/2 5/5/5 6/6/6
f 2/2/2 6/6/6 7/7/7
f 6/6/6 8/8/8 7/7/7
f 7/7/7 8/8/8 9/9/9
f 10/10/10 8/8/8 6/6/6
f 10/10/10 6/6/6 11/11/11
f 9/9/9 8/8/8 12/12/12
f 12/12/12 8/8/8 10/10/10
f 10/10/10 5/5/5 13/13/13
f 13/13/13 14/14/14 10/10/10
f 15/15/15 10/10/10 14/14/14
f 15/15/15 14/14/14 16/16/16
f 17/17/17 15/15/15 16/16/16
f 18/18/18 15/15/15 17/17/17
f 18/18/18 19/19/19 15/15/15
f 10/10/10 19/19/19 12/12/12
f 10/10/10 15/15/15 19/19/19
f 18/18/18 20/20/20 19/19/19
f 20/20/20 12/12/12 19/19/19
f 20/20/20 18/18/18 21/21/21
f 22/22/22 20/20/20 21/21/21
f 12/12/12 20/20/20 22/22/22
f 22/22/22 9/9/9 12/12/12
f 21/21/21 23/23/23 22/22/22
f 24/24/24 22/22/22 23/23/23
f 25/25/25 24/24/24 23/23/23
f 18/18/18 17/17/17 26/26/26
f 18/18/18 26/26/26 21/21/21
f 17/17/17 27/27/27 26/26/26
f 17/17/17 16/16/16 27/27/27
f 27/27/27 28/28/28 26/26/26
f 28/28/28 27/27/27 29/29/29
f 29/29/29 30/30/30 28/28/28
f 30/30/30 31/31/31 28/28/28
f 30/30/30 32/32/32 31/31/31
f 26/26/26 28/28/28 33/33/33
f 34/34/34 33/33/33 28/28/28
f 28/28/28 31/31/31 34/34/34
f 34/34/34 35/35/35 33/33/33
f 36/36/36 33/33/33 35/35/35
f 36/36/36 37/37/37 33/33/33
f 37/37/37 38/38/38 33/33/33
f 36/36/36 35/35/35 39/39/39
f 34/34/34 39/39/39 35/35/35
f 34/34/34 31/31/31 39/39/39
f 36/36/36 39/39/39 40/40/40
f 39/39/39 41/41/41 40/40/40
f 39/39/39 42/42/42 41/41/41
f 31/31/31 42/42/42 39/39/39
f 31/31/31 32/32/32 42/42/42
f 29/29/29 43/43/43 30/30/30
f 29/29/29 44/44/44 43/43/43
f 44/44/44 45/45/45 43/43/43
f 46/46/46 38/38/38 37/37/37
f 37/37/37 47/47/47 46/46/46
f 48/48/48 46/46/46 47/47/47
f 49/49/49 48/48/48 47/47/47
f 50/50/50 49/49/49 47/47/47
f 47/47/47 40/40/40 50/50/50
f 47/47/47 51/51/51 40/40/40
f 47/47/47 37/37/37 51/51/51
f 51/51/51 37/37/37 36/36/36
f 40/40/40 51/51/51 36/36/36
f 48/48/48 52/52/52 46/46/46
f 52/52/52 38/38/38 46/46/46
f 53/53/53 45/45/45 44/44/44
f 16/16/16 53/53/53 44/44/44
f 16/16/16 14/14/14 53/53/53
f 41/41/41 42/42/42 54/54/54
f 55/55/55 54/54/54 42/42/42
f 44/44/44 27/27/27 16/16/16
f 29/29/29 27/27/27 44/44/44
f 56/56/56 57/57/57 9/9/9
f 56/56/56 9/9/9 58/58/58
f 56/56/56 58/58/58 59/59/59
f 60/60/60 57/57/57 56/56/56
f 59/59/59 60/60/60 56/56/56
f 58/58/58 25/25/25 59/59/59
f 9/9/9 22/22/22 58/58/58
f 7/7/7 9/9/9 57/57/57
f 61/61/61 7/7/7 57/57/57
f 57/57/57 62/62/62 61/61/61
f 63/63/63 62/62/62 57/57/57
f 64/64/64 63/63/63 57/57/57
f 64/64/64 57/57/57 60/60/60
f 65/65/65 63/63/63 64/64/64
f 66/66/66 63/63/63 65/65/65
f 63/63/63 66/66/66 62/62/62
f 62/62/62 66/66/66 67/67/67
f 68/68/68 67/67/67 66/66/66
f 68/68/68 66/66/66 65/65/65
f 62/62/62 69/69/69 61/61/61
f 61/61/61 69/69/69 70/70/70
f 70/70/70 69/69/69 71/71/71
f 71/71/71 72/72/72 70/70/70
f 71/71/71 69/69/69 73/73/73
f 62/62/62 73/73/73 69/69/69
f 62/62/62 67/67/67 73/73/73
f 71/71/71 73/73/73 74/74/74
f 71/71/71 75/75/75 72/72/72
f 75/75/75 71/71/71 76/76/76
f 74/74/74 77/77/77 71/71/71
f 77/77/77 78/78/78 71/71/71
f 71/71/71 78/78/78 76/76/76
f 79/79/79 76/76/76 78/78/78
f 79/79/79 80/80/80 76/76/76
f 80/80/80 72/72/72 75/75/75
f 80/80/80 75/75/75 76/76/76
f 80/80/80 79/79/79 81/81/81
f 80/80/80 81/81/81 72/72/72
f 81/81/81 79/79/79 82/82/82
f 81/81/81 82/82/82 72/72/72
f 79/79/79 83/83/83 82/82/82
f 72/72/72 82/82/82 84/84/84
f 84/84/84 85/85/85 72/72/72
f 85/85/85 70/70/70 72/72/72
f 86/86/86 85/85/85 84/84/84
f 74/74/74 73/73/73 87/87/87
f 87/87/87 73/73/73 67/67/67
f 67/67/67 68/68/68 87/87/87
f 85/85/85 86/86/86 88/88/88
f 88/88/88 86/86/86 89/89/89
f 89/89/89 1/1/1 88/88/88
f 88/88/88 1/1/1 85/85/85
f 89/89/89 90/90/90 1/1/1
f 85/85/85 1/1/1 70/70/70
f 61/61/61 70/70/70 1/1/1
f 90/90/90 4/4/4 1/1/1
f 61/61/61 1/1/1 2/2/2
f 61/61/61 2/2/2 7/7/7
f 90/90/90 91/91/91 4/4/4
f 91/91/91 90/90/90 92/92/92
f 92/92/92 93/93/93 91/91/91
f 94/94/94 91/91/91 93/93/93
f 94/94/94 95/95/95 91/91/91
f 4/4/4 91/91/91 5/5/5
f 58/58/58 24/24/24 25/25/25
f 22/22/22 24/24/24 58/58/58
