#Rock6_3148_182.obj

v -1.236714 3.209405 0.3464083
v -1.47479 2.872101 -1.102165
v -1.562955 4.526831 -1.224275
v -1.281774 4.841282 0.02394269
v -1.151258 4.899974 -1.929435
v -1.016892 2.822655 -1.835114
v -1.02024 1.809068 -2.316541
v -0.548198 3.117438 -2.707601
v 0.6218483 1.730926 -2.873074
v 0.2721199 4.178768 -2.267879
v -1.151258 4.899974 -1.929435
v 0.609229 3.360725 -3.12541
v -0.01488182 5.13487 -1.87334
v 0.831304 5.230927 -1.022462
v 1.039687 3.768537 -1.387337
v 1.36036 3.983282 -0.3570549
v 1.975571 3.733561 -0.9577502
v 2.106187 2.792788 -1.454772
v 0.9009929 3.958027 -2.628183
v 1.931776 2.928857 -2.6788
v 2.514095 1.132488 -1.114856
v 1.70307 1.427734 -2.834967
v 3.028778 0.3228217 -1.658862
v 2.4793 0.1984252 -2.867005
v 2.18064 -0.5407414 -1.783577
v 2.73301 1.788073 -0.6602167
v 1.701104 3.698973 0.3687823
v 1.886442 2.360494 1.176384
v 0.9965023 3.311402 0.9016148
v 0.2387274 1.849801 0.9230322
v 0.3801659 1.895067 1.918864
v -0.4070339 1.425858 1.621718
v 2.320269 1.594341 0.8071157
v 1.376621 2.152632 1.792228
v 2.123568 1.388564 2.654403
v 3.073163 0.7066534 2.030954
v 3.05627 1.85684 0.1955321
v 2.73301 1.788073 -0.6602167
v 1.853984 0.726258 3.383933
v 4.04913 -0.4276555 1.033546
v 0.8851519 -0.5281102 3.081409
v -0.2444088 0.627618 2.617982
v -0.01758782 3.073839 0.620969
v 0.9617489 3.805692 0.3615102
v -0.6993096 4.407137 0.5812415
v 3.51659 1.319851 -1.033939
v 4.563238 0.2715785 -0.5201263
v 3.028778 0.3228217 -1.658862
v 2.18064 -0.5407414 -1.783577
v 4.122959 -0.5214713 -0.2905158
v 4.018274 0.6980371 0.9017944
v 2.514095 1.132488 -1.114856
v 0.3700422 4.678805 0.3088616
v 0.1843573 -0.5258934 2.745476
v -0.3405155 -0.5715036 2.032531
v 0.3592263 0.3622345 -3.266106
v -0.5635194 1.316723 -2.314861
v 1.661061 -0.02172415 -3.327481
v 0.8281098 -0.5455053 -3.003251
v -0.7060182 -0.4598512 -2.542687
v -1.741647 2.206295 -0.895668
v -2.528664 1.464055 -0.6106977
v -1.713919 0.6600761 -3.07507
v -1.068738 -0.5076558 -2.76305
v -2.385829 -0.5129777 -3.040935
v -3.120957 0.2592432 -2.693191
v -4.480313 0.6077139 -0.8795189
v -4.133266 -0.5229296 -1.524203
v -2.605877 1.973176 0.2666693
v -1.459228 2.196388 0.4325121
v -2.853495 1.084525 0.6950022
v -1.329149 2.105422 1.67905
v -3.949998 1.043734 -0.1139408
v -3.451682 -0.463022 0.4123359
v -2.452757 1.584432 1.504684
v -2.939087 0.4809864 1.723799
v -2.473327 -0.5236428 0.7772802
v -2.447233 -0.4485819 1.535058
v -1.735516 -0.4811366 2.399979
v -2.080572 1.310773 2.344726
v -0.8963711 0.8641604 2.904367
v -0.2444088 0.627618 2.617982
v -0.3405155 -0.5715036 2.032531
v -0.4070339 1.425858 1.621718
v -0.8118845 2.160965 1.098284
v 0.2387274 1.849801 0.9230322
v -4.303099 -0.4561064 -0.5345919
v -0.2849397 2.534728 1.128038
v -0.01758782 3.073839 0.620969
v -0.6993096 4.407137 0.5812415
v -0.540217 5.228827 -0.2612737
v 0.3700422 4.678805 0.3088616
v 0.831304 5.230927 -1.022462
v -0.01488182 5.13487 -1.87334
v -1.151258 4.899974 -1.929435

vn -0.9044669 0.2592961 -0.3386817
vn -0.205204 0.1119815 -0.9722919
vn -0.4679182 0.171937 -0.8668854
vn -0.6987102 0.598763 -0.3915188
vn 0.1743818 0.5139984 -0.8398788
vn 0.08603549 0.2125862 -0.9733473
vn 0.1732605 -0.09348765 -0.9804289
vn 0.3144813 0.2627598 -0.9121724
vn 0.7367755 0.0227801 -0.6757536
vn 0.6725885 0.6402244 -0.3711297
vn 0.1743818 0.5139984 -0.8398788
vn 0.8098518 0.2773335 -0.5169391
vn 0.5085805 0.8400251 -0.1889534
vn 0.4860746 0.7107747 0.508459
vn 0.6280821 0.6877229 0.3640743
vn 0.1712324 0.7857047 0.5944303
vn 0.5563366 0.7060329 0.4381862
vn 0.7043236 0.4654679 0.5359738
vn 0.5223807 0.8201808 0.2332846
vn 0.867275 0.3134167 0.3867867
vn 0.8748484 0.4014389 0.271085
vn 0.9658901 0.2542386 0.04918289
vn 0.955289 0.1694263 0.2423174
vn 0.9225087 -0.2158346 0.3199895
vn 0.7226144 -0.6642825 0.1911989
vn 0.5379009 0.641828 0.5465524
vn -0.1125853 0.7137003 0.6913438
vn -0.3173126 0.6574431 0.6834334
vn -0.7919862 0.4813029 0.3756398
vn -0.7353678 0.5514535 0.3938693
vn -0.5266442 0.8430532 -0.1091191
vn -0.434693 0.8325456 0.3433797
vn -0.02964512 0.7563228 0.6535264
vn -0.3447907 0.797524 0.4950501
vn -0.09781238 0.7296562 0.6767825
vn -0.1440746 0.5235542 0.8397222
vn 0.0850559 0.8933701 0.4411974
vn 0.5379009 0.641828 0.5465524
vn -0.6721076 0.3601178 0.6469827
vn -0.02468878 -0.1718875 0.9848071
vn -0.8902887 -0.2119215 0.4030824
vn -0.9028335 0.2099089 0.3752731
vn -0.8088377 0.3590254 0.4657062
vn -0.5688238 0.604357 0.557846
vn -0.8596485 0.3320666 0.3882477
vn 0.7368577 0.6760452 0.001843005
vn 0.77179 0.0487775 0.6340039
vn 0.955289 0.1694263 0.2423174
vn 0.7226144 -0.6642825 0.1911989
vn 0.6892292 -0.5295671 0.4944914
vn 0.06917223 0.4197555 0.9049975
vn 0.8748484 0.4014389 0.271085
vn -0.3701184 0.6182204 0.6934087
vn -0.9796485 -0.1471811 -0.1364788
vn -0.9073723 -0.3909336 0.1544224
vn 0.6355761 0.0003232931 -0.7720382
vn 0.6192023 0.150817 -0.7706119
vn 0.936285 -0.2291786 -0.266172
vn 0.6836488 -0.5822026 -0.440073
vn 0.7594457 -0.07199581 -0.6465747
vn -0.2340144 0.3709733 -0.8986747
vn 0.157328 0.7743114 -0.6129352
vn 0.7383419 0.4539613 -0.4987686
vn 0.9939671 -0.004566381 -0.1095841
vn 0.6850371 -0.09996414 -0.7216172
vn 0.3300951 0.3971215 -0.8563479
vn -0.2489614 0.4475749 -0.8588917
vn 0.01404411 -0.1326384 -0.991065
vn -0.422394 0.8361112 -0.3500018
vn -0.6231242 0.7392719 -0.2553295
vn -0.8051589 0.3720252 -0.4618619
vn -0.3198449 0.9250805 0.2047564
vn -0.758694 0.4953055 -0.42315
vn -0.9976318 0.01214054 -0.06770185
vn -0.5296758 0.7026104 -0.4751654
vn -0.8303196 -0.0219943 -0.5568532
vn -0.9159763 -0.1565553 -0.3694291
vn -0.5646528 -0.3964907 -0.7238525
vn -0.9137554 -0.3375011 0.2261506
vn -0.916522 0.3979435 -0.04035169
vn -0.7928307 0.2753492 0.5436931
vn -0.9028335 0.2099089 0.3752731
vn -0.9073723 -0.3909336 0.1544224
vn -0.434693 0.8325456 0.3433797
vn -0.7061839 0.5903339 0.3909094
vn -0.7353678 0.5514535 0.3938693
vn -0.807532 -0.06575602 -0.586147
vn -0.7443965 0.3614806 0.5614317
vn -0.8088377 0.3590254 0.4657062
vn -0.8596485 0.3320666 0.3882477
vn -0.3106989 0.9483292 0.06432609
vn -0.3701184 0.6182204 0.6934087
vn 0.4860746 0.7107747 0.508459
vn 0.5085805 0.8400251 -0.1889534
vn 0.1743818 0.5139984 -0.8398788

vt 0.8231459 0.1412811
vt 0.7883072 0.1687649
vt 0.8248338 0.191771
vt 0.84566 0.1732586
vt 0.8281713 0.2130635
vt 0.7788596 0.1915323
vt 0.7468348 0.193715
vt 0.773026 0.217105
vt 0.7331188 0.2392735
vt 0.8012317 0.2414989
vt 0.8281713 0.2130635
vt 0.7714517 0.2431242
vt 0.829016 0.2385388
vt 0.8406981 0.2669347
vt 0.8023803 0.2772322
vt 0.8205258 0.3028347
vt 0.7974706 0.3012469
vt 0.7706497 0.3005626
vt 0.786665 0.2525096
vt 0.7615646 0.2723642
vt 0.7297045 0.3246586
vt 0.7256798 0.2698756
vt 0.696672 0.320396
vt 0.6931584 0.2864413
vt 0.6630096 0.301508
vt 0.7531115 0.3356102
vt 0.8181403 0.3254004
vt 0.8071356 0.3668394
vt 0.8341107 0.3410686
vt 0.8549328 0.3773758
vt 0.8416806 0.398488
vt 0.8653755 0.4045208
vt 0.7803735 0.3730094
vt 0.8179173 0.3865156
vt 0.8010911 0.4124908
vt 0.7720816 0.4171657
vt 0.755937 0.3696103
vt 0.7446331 0.3487687
vt 0.8067919 0.4320129
vt 0.7327688 0.4310905
vt 0.8150444 0.4643281
vt 0.8521799 0.4378246
vt 0.8611558 0.3451616
vt 0.8371004 0.3210829
vt 0.8855886 0.3146266
vt 0.7253577 0.3645383
vt 0.7163779 0.3963445
vt 0.6937345 0.3599196
vt 0.6639279 0.3623682
vt 0.7020375 0.4103533
vt 0.7440964 0.4062354
vt 0.7208988 0.3403848
vt 0.8582302 0.3018931
vt 0.8355261 0.4668562
vt 0.8579786 0.4733487
vt 0.6962927 0.2339922
vt 0.7284594 0.1980938
vt 0.6880827 0.2651151
vt 0.6692902 0.247075
vt 0.674421 0.2010314
vt 0.7728432 0.1515844
vt 0.7519697 0.1265733
vt 0.6971474 0.1702068
vt 0.6706434 0.1913131
vt 0.6658697 0.1530285
vt 0.6890605 0.13556
vt 0.7127712 0.09072217
vt 0.6814806 0.09158267
vt 0.7718416 0.1082462
vt 0.8034384 0.1185296
vt 0.7665408 0.07984909
vt 0.8193972 0.0893054
vt 0.7351359 0.09025647
vt 0.7303844 0.04961941
vt 0.7920786 0.0756284
vt 0.7814513 0.0529465
vt 0.7535622 0.03513337
vt 0.7729272 0.02911376
vt 0.8041271 0.0184969
vt 0.8069574 0.06217192
vt 0.8319979 0.04845675
vt 0.8492523 0.04448332
vt 0.8432182 0.007874016
vt 0.8451563 0.07968558
vt 0.8294708 0.1042833
vt 0.8606667 0.0985227
vt 0.7006772 0.06793586
vt 0.8438517 0.1120525
vt 0.8527588 0.1271803
vt 0.8559108 0.1568392
vt 0.8597613 0.1855388
vt 0.8854554 0.1709481
vt 0.886409 0.2135766
vt 0.8558985 0.2265289
vt 0.8281713 0.2130635

g Rock6_3148_182
usemtl Rock6_3148_182
usemap Rock6_3148_182
f 1/1/1 3/3/3 2/2/2
f 1/1/1 4/4/4 3/3/3
f 3/3/3 5/5/5 2/2/2
f 5/5/5 3/3/3 4/4/4
f 2/2/2 5/5/5 6/6/6
f 2/2/2 6/6/6 7/7/7
f 6/6/6 8/8/8 7/7/7
f 7/7/7 8/8/8 9/9/9
f 10/10/10 8/8/8 6/6/6
f 10/10/10 6/6/6 11/11/11
f 9/9/9 8/8/8 12/12/12
f 12/12/12 8/8/8 10/10/10
f 10/10/10 5/5/5 13/13/13
f 13/13/13 14/14/14 10/10/10
f 15/15/15 10/10/10 14/14/14
f 15/15/15 14/14/14 16/16/16
f 17/17/17 15/15/15 16/16/16
f 18/18/18 15/15/15 17/17/17
f 18/18/18 19/19/19 15/15/15
f 10/10/10 19/19/19 12/12/12
f 10/10/10 15/15/15 19/19/19
f 18/18/18 20/20/20 19/19/19
f 20/20/20 12/12/12 19/19/19
f 20/20/20 18/18/18 21/21/21
f 22/22/22 20/20/20 21/21/21
f 12/12/12 20/20/20 22/22/22
f 22/22/22 9/9/9 12/12/12
f 21/21/21 23/23/23 22/22/22
f 24/24/24 22/22/22 23/23/23
f 25/25/25 24/24/24 23/23/23
f 18/18/18 17/17/17 26/26/26
f 18/18/18 26/26/26 21/21/21
f 17/17/17 27/27/27 26/26/26
f 17/17/17 16/16/16 27/27/27
f 27/27/27 28/28/28 26/26/26
f 28/28/28 27/27/27 29/29/29
f 29/29/29 30/30/30 28/28/28
f 30/30/30 31/31/31 28/28/28
f 30/30/30 32/32/32 31/31/31
f 26/26/26 28/28/28 33/33/33
f 34/34/34 33/33/33 28/28/28
f 28/28/28 31/31/31 34/34/34
f 34/34/34 35/35/35 33/33/33
f 36/36/36 33/33/33 35/35/35
f 36/36/36 37/37/37 33/33/33
f 37/37/37 38/38/38 33/33/33
f 36/36/36 35/35/35 39/39/39
f 34/34/34 39/39/39 35/35/35
f 34/34/34 31/31/31 39/39/39
f 36/36/36 39/39/39 40/40/40
f 39/39/39 41/41/41 40/40/40
f 39/39/39 42/42/42 41/41/41
f 31/31/31 42/42/42 39/39/39
f 31/31/31 32/32/32 42/42/42
f 29/29/29 43/43/43 30/30/30
f 29/29/29 44/44/44 43/43/43
f 44/44/44 45/45/45 43/43/43
f 46/46/46 38/38/38 37/37/37
f 37/37/37 47/47/47 46/46/46
f 48/48/48 46/46/46 47/47/47
f 49/49/49 48/48/48 47/47/47
f 50/50/50 49/49/49 47/47/47
f 47/47/47 40/40/40 50/50/50
f 47/47/47 51/51/51 40/40/40
f 47/47/47 37/37/37 51/51/51
f 51/51/51 37/37/37 36/36/36
f 40/40/40 51/51/51 36/36/36
f 48/48/48 52/52/52 46/46/46
f 52/52/52 38/38/38 46/46/46
f 53/53/53 45/45/45 44/44/44
f 16/16/16 53/53/53 44/44/44
f 16/16/16 14/14/14 53/53/53
f 41/41/41 42/42/42 54/54/54
f 55/55/55 54/54/54 42/42/42
f 44/44/44 27/27/27 16/16/16
f 29/29/29 27/27/27 44/44/44
f 56/56/56 57/57/57 9/9/9
f 56/56/56 9/9/9 58/58/58
f 56/56/56 58/58/58 59/59/59
f 60/60/60 57/57/57 56/56/56
f 59/59/59 60/60/60 56/56/56
f 58/58/58 25/25/25 59/59/59
f 9/9/9 22/22/22 58/58/58
f 7/7/7 9/9/9 57/57/57
f 61/61/61 7/7/7 57/57/57
f 57/57/57 62/62/62 61/61/61
f 63/63/63 62/62/62 57/57/57
f 64/64/64 63/63/63 57/57/57
f 64/64/64 57/57/57 60/60/60
f 65/65/65 63/63/63 64/64/64
f 66/66/66 63/63/63 65/65/65
f 63/63/63 66/66/66 62/62/62
f 62/62/62 66/66/66 67/67/67
f 68/68/68 67/67/67 66/66/66
f 68/68/68 66/66/66 65/65/65
f 62/62/62 69/69/69 61/61/61
f 61/61/61 69/69/69 70/70/70
f 70/70/70 69/69/69 71/71/71
f 71/71/71 72/72/72 70/70/70
f 71/71/71 69/69/69 73/73/73
f 62/62/62 73/73/73 69/69/69
f 62/62/62 67/67/67 73/73/73
f 71/71/71 73/73/73 74/74/74
f 71/71/71 75/75/75 72/72/72
f 75/75/75 71/71/71 76/76/76
f 74/74/74 77/77/77 71/71/71
f 77/77/77 78/78/78 71/71/71
f 71/71/71 78/78/78 76/76/76
f 79/79/79 76/76/76 78/78/78
f 79/79/79 80/80/80 76/76/76
f 80/80/80 72/72/72 75/75/75
f 80/80/80 75/75/75 76/76/76
f 80/80/80 79/79/79 81/81/81
f 80/80/80 81/81/81 72/72/72
f 81/81/81 79/79/79 82/82/82
f 81/81/81 82/82/82 72/72/72
f 79/79/79 83/83/83 82/82/82
f 72/72/72 82/82/82 84/84/84
f 84/84/84 85/85/85 72/72/72
f 85/85/85 70/70/70 72/72/72
f 86/86/86 85/85/85 84/84/84
f 74/74/74 73/73/73 87/87/87
f 87/87/87 73/73/73 67/67/67
f 67/67/67 68/68/68 87/87/87
f 85/85/85 86/86/86 88/88/88
f 88/88/88 86/86/86 89/89/89
f 89/89/89 1/1/1 88/88/88
f 88/88/88 1/1/1 85/85/85
f 89/89/89 90/90/90 1/1/1
f 85/85/85 1/1/1 70/70/70
f 61/61/61 70/70/70 1/1/1
f 90/90/90 4/4/4 1/1/1
f 61/61/61 1/1/1 2/2/2
f 61/61/61 2/2/2 7/7/7
f 90/90/90 91/91/91 4/4/4
f 91/91/91 90/90/90 92/92/92
f 92/92/92 93/93/93 91/91/91
f 94/94/94 91/91/91 93/93/93
f 94/94/94 95/95/95 91/91/91
f 4/4/4 91/91/91 5/5/5
f 58/58/58 24/24/24 25/25/25
f 22/22/22 24/24/24 58/58/58
