#Rock4_(26)_2833_38.obj

v 2.738404 0.06113134 1.60975
v 2.748349 -0.6450157 0.9191148
v 2.055552 -0.2413467 2.469037
v 1.874828 1.586967 2.293122
v -0.4177191 0.002255744 2.886981
v -0.3825046 1.501278 2.58991
v 0.9239892 2.116795 0.8882372
v -1.596862 1.358477 1.406829
v -0.5712597 1.696225 0.54729
v -0.3897192 1.728574 -0.5788844
v 0.9930261 1.988357 0.0005815136
v -0.550693 0.9038171 -1.617786
v 2.292214 1.326171 0.3916527
v 2.277914 1.307364 1.594762
v 1.841318 1.270665 -1.593093
v 1.135626 0.5427023 -2.786874
v -0.502219 0.1285396 -2.571091
v 0.09054952 -1.328199 -2.699336
v 1.873457 -1.280798 -2.103054
v 3.289917 -0.1610117 -0.7120128
v 2.954906 1.003513 -0.7973079
v 3.188926 -0.0351225 0.07103778
v 2.698938 -0.7724068 0.3132729
v -0.6857943 -1.164751 -2.129493
v -1.24834 1.910277 -0.6596875
v -1.748465 0.7361633 -1.708089
v -1.067148 0.326941 -2.040022
v -1.295009 -0.9949886 -1.612557
v -2.048609 -0.9988707 -1.776963
v -1.295009 -0.9949886 -1.612557
v -3.231801 -0.7072766 -0.8265451
v -2.295993 0.7244371 -0.5476614
v -2.551129 1.396577 -0.1353084
v -1.204409 1.942317 0.8905045
v -2.325838 0.7647165 0.8273524
v -2.534693 -0.2246696 1.400392
v -1.596862 1.358477 1.406829
v -1.161274 -0.3208072 1.33265
v -2.189984 1.577185 1.046236
v -0.9933985 -0.06723239 2.452617
v -1.161274 -0.3208072 1.33265
v 2.748349 -0.6450157 0.9191148

vn 0.8914163 -0.440217 -0.1076384
vn 0.8101968 -0.5264336 -0.2577767
vn 0.7178568 -0.5574541 0.4170449
vn 0.911184 0.03020029 0.4108914
vn 0.3464347 -0.06426542 0.9358701
vn 0.3031933 0.4819129 0.8220911
vn 0.5652544 0.8222871 0.06581435
vn 0.1603491 0.4307689 0.8881027
vn 0.6857625 0.7101894 0.159251
vn 0.4324088 0.869464 -0.2388619
vn 0.5935416 0.6840847 -0.4239534
vn 0.1901191 0.8331704 -0.5193092
vn 0.9104139 0.3476176 -0.2242962
vn 0.9324517 0.173292 -0.3170231
vn 0.5069107 0.7943598 -0.3347151
vn 0.1252615 0.3968767 -0.9092846
vn -0.5079342 0.6675369 -0.5444238
vn -0.5334216 0.218408 -0.8171654
vn 0.06927118 -0.4407657 -0.8949453
vn 0.5159188 -0.5233315 -0.6781976
vn 0.8258033 0.1612559 -0.5404125
vn 0.84193 -0.5158612 -0.1582439
vn 0.306876 -0.8966391 -0.3191639
vn -0.8434278 0.3769443 -0.3828089
vn 0.2176131 0.9327009 -0.2876
vn -0.3493682 0.8319681 -0.4310115
vn -0.5160465 0.5521012 -0.6548896
vn -0.660756 0.1489549 -0.7356725
vn -0.5725468 0.3564953 -0.7383096
vn -0.660756 0.1489549 -0.7356725
vn -0.5235425 0.8377156 0.1553577
vn -0.570814 0.818406 0.06620532
vn -0.4207069 0.8750395 0.2393987
vn 0.6238236 0.7024121 0.3427265
vn -0.5064635 0.4901716 0.7093845
vn -0.107154 0.3745158 0.9210081
vn 0.1603491 0.4307689 0.8881027
vn -0.2801609 -0.09107783 0.9556227
vn -0.02677864 0.5865583 0.8094642
vn -0.3871148 0.254643 0.886171
vn -0.2801609 -0.09107783 0.9556227
vn 0.8101968 -0.5264336 -0.2577767

vt 0.08177406 0.5590136
vt 0.09337166 0.5343032
vt 0.04984022 0.5668743
vt 0.07907501 0.6002782
vt 0.0183186 0.6322125
vt 0.05435452 0.6444781
vt 0.1010552 0.6283724
vt 0.06499068 0.6908395
vt 0.09687583 0.6673691
vt 0.1271943 0.66826
vt 0.1208732 0.6303694
vt 0.1603776 0.6804302
vt 0.1261647 0.5914518
vt 0.09427693 0.5895411
vt 0.1666452 0.6231167
vt 0.1920493 0.643589
vt 0.1925114 0.6826488
vt 0.2348071 0.668623
vt 0.2283528 0.6106274
vt 0.1792248 0.5798343
vt 0.1616471 0.5949689
vt 0.1681622 0.5665238
vt 0.183495 0.5468985
vt 0.2263156 0.6977318
vt 0.1229426 0.68769
vt 0.1551462 0.7108501
vt 0.1785464 0.7014391
vt 0.2175588 0.719762
vt 0.1791399 0.7528989
vt 0.1975867 0.7400464
vt 0.1361288 0.7713462
vt 0.1228323 0.7246453
vt 0.1078977 0.7130938
vt 0.08812189 0.6831443
vt 0.08343585 0.7236099
vt 0.06631079 0.7518926
vt 0.06499068 0.6908395
vt 0.0289535 0.7338564
vt 0.08262382 0.7026785
vt 0.01535734 0.6549521
vt 0.008841153 0.6885316
vt 0.1643098 0.5378069

g Rock4_(26)_2833_38
usemtl Rock4_(26)_2833_38
usemap Rock4_(26)_2833_38
f 1/1/1 3/3/3 2/2/2
f 4/4/4 3/3/3 1/1/1
f 4/4/4 5/5/5 3/3/3
f 6/6/6 5/5/5 4/4/4
f 6/6/6 4/4/4 7/7/7
f 8/8/8 6/6/6 7/7/7
f 9/9/9 8/8/8 7/7/7
f 10/10/10 9/9/9 7/7/7
f 10/10/10 7/7/7 11/11/11
f 11/11/11 12/12/12 10/10/10
f 13/13/13 12/12/12 11/11/11
f 2/2/2 13/13/13 14/14/14
f 14/14/14 13/13/13 11/11/11
f 14/14/14 11/11/11 7/7/7
f 2/2/2 14/14/14 1/1/1
f 4/4/4 14/14/14 7/7/7
f 4/4/4 1/1/1 14/14/14
f 15/15/15 12/12/12 13/13/13
f 15/15/15 16/16/16 12/12/12
f 16/16/16 17/17/17 12/12/12
f 16/16/16 18/18/18 17/17/17
f 16/16/16 19/19/19 18/18/18
f 20/20/20 19/19/19 16/16/16
f 21/21/21 20/20/20 16/16/16
f 21/21/21 16/16/16 15/15/15
f 21/21/21 15/15/15 13/13/13
f 21/21/21 13/13/13 22/22/22
f 20/20/20 21/21/21 22/22/22
f 23/23/23 19/19/19 20/20/20
f 20/20/20 22/22/22 23/23/23
f 24/24/24 17/17/17 18/18/18
f 10/10/10 12/12/12 25/25/25
f 26/26/26 25/25/25 12/12/12
f 26/26/26 12/12/12 27/27/27
f 24/24/24 27/27/27 17/17/17
f 17/17/17 27/27/27 12/12/12
f 24/24/24 28/28/28 27/27/27
f 29/29/29 26/26/26 27/27/27
f 30/30/30 29/29/29 27/27/27
f 31/31/31 26/26/26 29/29/29
f 31/31/31 32/32/32 26/26/26
f 32/32/32 25/25/25 26/26/26
f 25/25/25 32/32/32 33/33/33
f 25/25/25 33/33/33 34/34/34
f 32/32/32 31/31/31 35/35/35
f 33/33/33 32/32/32 35/35/35
f 36/36/36 35/35/35 31/31/31
f 35/35/35 36/36/36 37/37/37
f 36/36/36 38/38/38 37/37/37
f 39/39/39 33/33/33 35/35/35
f 39/39/39 35/35/35 37/37/37
f 39/39/39 37/37/37 34/34/34
f 33/33/33 39/39/39 34/34/34
f 25/25/25 34/34/34 9/9/9
f 34/34/34 37/37/37 9/9/9
f 10/10/10 25/25/25 9/9/9
f 6/6/6 37/37/37 40/40/40
f 41/41/41 40/40/40 37/37/37
f 5/5/5 6/6/6 40/40/40
f 42/42/42 22/22/22 13/13/13
f 42/42/42 23/23/23 22/22/22
