#Shed1A_(1)_2370_255.obj

v -1.950476 0.2946157 1.665218
v -1.950476 0.2946157 0.000629425
v 1.950476 0.2946157 1.665218
v 1.950476 0.2946157 0.000629425
v 0.7506504 -0.3791509 1.665218
v 0.4073639 0.1384406 1.665218
v 1.135588 0.1474781 1.665218
v 1.950476 0.2946157 1.665218
v -1.950476 0.2946157 1.665218
v 1.950476 0.1637897 1.665218
v 1.516804 -0.3732014 1.665218
v -0.335722 0.1617932 1.665218
v 0.03013229 -0.3744712 1.665218
v -1.098045 0.1476016 1.665218
v -0.7260284 -0.3745975 1.665218
v -1.950476 0.1691203 1.665218
v -1.490072 -0.3803501 1.665218
v -1.950476 -0.3791509 0.4653969
v -1.950476 0.2946157 0.000629425
v -1.950476 0.1474781 0.8503304
v -1.950476 0.2946157 1.665218
v -1.950476 0.1691203 1.665218
v -1.950476 -0.3732014 1.231548
v 1.950476 -0.3791509 0.4653969
v 1.950476 0.1474781 0.8503304
v 1.950476 0.2946157 0.000629425
v 1.950476 0.2946157 1.665218
v 1.950476 0.1637897 1.665218
v 1.950476 -0.3732014 1.231548
v -1.950476 0.2946157 1.665218
v 1.950476 0.2946157 1.665218
v -1.950476 0.2946157 0.000629425
v 1.950476 0.2946157 0.000629425
v 0.7506504 -0.3791509 1.665218
v 1.135588 0.1474781 1.665218
v 0.4073639 0.1384406 1.665218
v 1.950476 0.2946157 1.665218
v -1.950476 0.2946157 1.665218
v 1.950476 0.1637897 1.665218
v 1.516804 -0.3732014 1.665218
v -0.335722 0.1617932 1.665218
v 0.03013229 -0.3744712 1.665218
v -1.098045 0.1476016 1.665218
v -0.7260284 -0.3745975 1.665218
v -1.950476 0.1691203 1.665218
v -1.490072 -0.3803501 1.665218
v -1.950476 -0.3791509 0.4653969
v -1.950476 0.1474781 0.8503304
v -1.950476 0.2946157 0.000629425
v -1.950476 0.2946157 1.665218
v -1.950476 0.1691203 1.665218
v -1.950476 -0.3732014 1.231548
v 1.950476 -0.3791509 0.4653969
v 1.950476 0.2946157 0.000629425
v 1.950476 0.1474781 0.8503304
v 1.950476 0.2946157 1.665218
v 1.950476 0.1637897 1.665218
v 1.950476 -0.3732014 1.231548
v -1.885593 0.2638619 1.601772
v -1.885593 0.2638614 -0.4978943
v -1.743446 0.2638609 -0.4978943
v -1.743446 0.2638609 1.601772
v -1.885593 0.06238008 1.601772
v -1.885593 0.2638619 1.601772
v -1.743446 0.2638609 1.601772
v -1.743446 0.06238008 1.601772
v 1.741716 0.2638619 1.601772
v 1.741716 0.2638614 -0.4978943
v 1.883865 0.2638609 -0.4978943
v 1.883865 0.2638609 1.601772
v 1.741716 0.06238008 1.601772
v 1.741716 0.2638619 1.601772
v 1.883865 0.2638609 1.601772
v 1.883865 0.06238008 1.601772
v -1.885593 0.06238008 -0.4978943
v -1.885593 0.06238008 1.601772
v -1.743446 0.06238008 1.601772
v -1.743446 0.06238008 -0.4978943
v -1.743446 0.06238008 -0.4978943
v -1.743446 0.06238008 1.601772
v -1.743446 0.2638609 1.601772
v -1.743446 0.2638609 -0.4978943
v -1.885593 0.2638614 -0.4978943
v -1.885593 0.2638619 1.601772
v -1.885593 0.06238008 1.601772
v -1.885593 0.06238008 -0.4978943
v 1.741716 0.06238008 -0.4978943
v 1.741716 0.06238008 1.601772
v 1.883865 0.06238008 1.601772
v 1.883865 0.06238008 -0.4978943
v 1.883865 0.06238008 -0.4978943
v 1.883865 0.06238008 1.601772
v 1.883865 0.2638609 1.601772
v 1.883865 0.2638609 -0.4978943
v 1.741716 0.2638614 -0.4978943
v 1.741716 0.2638619 1.601772
v 1.741716 0.06238008 1.601772
v 1.741716 0.06238008 -0.4978943

vn 0 1 0
vn 0 1 0
vn 0 1 0
vn 0 1 0
vn 0 0 1
vn 0 0 1
vn 0 0 1
vn 0 0 1
vn 0 0 1
vn 0 0 1
vn 0 0 1
vn 0 0 1
vn 0 0 1
vn 0 0 1
vn 0 0 1
vn 0 0 1
vn 0 0 1
vn -1 0 0
vn -1 0 0
vn -1 0 0
vn -1 0 0
vn -1 0 0
vn -1 0 0
vn 1 0 0
vn 1 0 0
vn 1 0 0
vn 1 0 0
vn 1 0 0
vn 1 0 0
vn 0 -1 0
vn 0 -1 0
vn 0 -1 0
vn 0 -1 0
vn 0 0 -1
vn 0 0 -1
vn 0 0 -1
vn 0 0 -1
vn 0 0 -1
vn 0 0 -1
vn 0 0 -1
vn 0 0 -1
vn 0 0 -1
vn 0 0 -1
vn 0 0 -1
vn 0 0 -1
vn 0 0 -1
vn 1 0 0
vn 1 0 0
vn 1 0 0
vn 1 0 0
vn 1 0 0
vn 1 0 0
vn -1 0 0
vn -1 0 0
vn -1 0 0
vn -1 0 0
vn -1 0 0
vn -1 0 0
vn 0 1 0
vn 0 1 0
vn 0 1 0
vn 0 1 0
vn 0 0 1
vn 0 0 1
vn 0 0 1
vn 0 0 1
vn 0 1 0
vn 0 1 0
vn 0 1 0
vn 0 1 0
vn 0 0 1
vn 0 0 1
vn 0 0 1
vn 0 0 1
vn 0 -1 0
vn 0 -1 0
vn 0 -1 0
vn 0 -1 0
vn 1 0 0
vn 1 0 0
vn 1 0 0
vn 1 0 0
vn -1 0 0
vn -1 0 0
vn -1 0 0
vn -1 0 0
vn 0 -1 0
vn 0 -1 0
vn 0 -1 0
vn 0 -1 0
vn 1 0 0
vn 1 0 0
vn 1 0 0
vn 1 0 0
vn -1 0 0
vn -1 0 0
vn -1 0 0
vn -1 0 0

vt 0.90625 0.0008955002
vt 0.90625 0.03872681
vt 0.9990234 0.0008955002
vt 0.9990234 0.03872681
vt 0.9711914 0.002025604
vt 0.9628906 0.01314545
vt 0.9804688 0.01335907
vt 0.9990234 0.01676941
vt 0.90625 0.01676941
vt 0.9990234 0.01373291
vt 0.9892578 0.001269341
vt 0.9448242 0.01368713
vt 0.9536133 0.001239777
vt 0.9267578 0.01335907
vt 0.9355469 0.001236916
vt 0.90625 0.01398468
vt 0.9174805 0.001998901
vt 0.9711914 0.002025604
vt 0.9599609 0.01676941
vt 0.9804688 0.01335907
vt 0.9990234 0.01676941
vt 0.9990234 0.01373291
vt 0.9892578 0.001269341
vt 0.9711914 0.002025604
vt 0.9804688 0.01335907
vt 0.9599609 0.01676941
vt 0.9990234 0.01676941
vt 0.9990234 0.01373291
vt 0.9892578 0.001269341
vt 0.90625 0.0008955002
vt 0.9990234 0.0008955002
vt 0.90625 0.03872681
vt 0.9990234 0.03872681
vt 0.9711914 0.002025604
vt 0.9804688 0.01335907
vt 0.9628906 0.01314545
vt 0.9990234 0.01676941
vt 0.90625 0.01676941
vt 0.9990234 0.01373291
vt 0.9892578 0.001269341
vt 0.9448242 0.01368713
vt 0.9536133 0.001239777
vt 0.9267578 0.01335907
vt 0.9355469 0.001236916
vt 0.90625 0.01398468
vt 0.9174805 0.001998901
vt 0.9711914 0.002025604
vt 0.9804688 0.01335907
vt 0.9599609 0.01676941
vt 0.9990234 0.01676941
vt 0.9990234 0.01373291
vt 0.9892578 0.001269341
vt 0.9711914 0.002025604
vt 0.9599609 0.01676941
vt 0.9804688 0.01335907
vt 0.9990234 0.01676941
vt 0.9990234 0.01373291
vt 0.9892578 0.001269341
vt 0.7675781 0.5112305
vt 0.7675781 0.5678711
vt 0.7744141 0.5678711
vt 0.7744141 0.5112305
vt 0.7661133 0.5078125
vt 0.7661133 0.5039063
vt 0.762207 0.5039063
vt 0.762207 0.5078125
vt 0.7675781 0.5112305
vt 0.7675781 0.5678711
vt 0.7744141 0.5678711
vt 0.7744141 0.5112305
vt 0.7661133 0.5078125
vt 0.7661133 0.5039063
vt 0.762207 0.5039063
vt 0.762207 0.5078125
vt 0.7744141 0.5678711
vt 0.7744141 0.5112305
vt 0.7675781 0.5112305
vt 0.7675781 0.5678711
vt 0.7744141 0.5678711
vt 0.7744141 0.5112305
vt 0.7675781 0.5112305
vt 0.7675781 0.5678711
vt 0.7744141 0.5678711
vt 0.7744141 0.5112305
vt 0.7675781 0.5112305
vt 0.7675781 0.5678711
vt 0.7744141 0.5678711
vt 0.7744141 0.5112305
vt 0.7675781 0.5112305
vt 0.7675781 0.5678711
vt 0.7744141 0.5678711
vt 0.7744141 0.5112305
vt 0.7675781 0.5112305
vt 0.7675781 0.5678711
vt 0.7744141 0.5678711
vt 0.7744141 0.5112305
vt 0.7675781 0.5112305
vt 0.7675781 0.5678711

g Shed1A_(1)_2370_255
usemtl Shed1A_(1)_2370_255
usemap Shed1A_(1)_2370_255
f 1/1/1 3/3/3 2/2/2
f 2/2/2 3/3/3 4/4/4
f 5/5/5 7/7/7 6/6/6
f 6/6/6 7/7/7 8/8/8
f 9/9/9 6/6/6 8/8/8
f 7/7/7 10/10/10 8/8/8
f 11/11/11 10/10/10 7/7/7
f 6/6/6 9/9/9 12/12/12
f 13/13/13 6/6/6 12/12/12
f 12/12/12 9/9/9 14/14/14
f 15/15/15 12/12/12 14/14/14
f 16/16/16 14/14/14 9/9/9
f 17/17/17 14/14/14 16/16/16
f 18/18/18 20/20/20 19/19/19
f 19/19/19 20/20/20 21/21/21
f 20/20/20 22/22/22 21/21/21
f 23/23/23 22/22/22 20/20/20
f 24/24/24 26/26/26 25/25/25
f 26/26/26 27/27/27 25/25/25
f 27/27/27 28/28/28 25/25/25
f 29/29/29 25/25/25 28/28/28
f 30/30/30 32/32/32 31/31/31
f 32/32/32 33/33/33 31/31/31
f 34/34/34 36/36/36 35/35/35
f 36/36/36 37/37/37 35/35/35
f 38/38/38 37/37/37 36/36/36
f 35/35/35 37/37/37 39/39/39
f 40/40/40 35/35/35 39/39/39
f 36/36/36 41/41/41 38/38/38
f 42/42/42 41/41/41 36/36/36
f 41/41/41 43/43/43 38/38/38
f 44/44/44 43/43/43 41/41/41
f 45/45/45 38/38/38 43/43/43
f 46/46/46 45/45/45 43/43/43
f 47/47/47 49/49/49 48/48/48
f 49/49/49 50/50/50 48/48/48
f 48/48/48 50/50/50 51/51/51
f 52/52/52 48/48/48 51/51/51
f 53/53/53 55/55/55 54/54/54
f 54/54/54 55/55/55 56/56/56
f 56/56/56 55/55/55 57/57/57
f 58/58/58 57/57/57 55/55/55
f 59/59/59 61/61/61 60/60/60
f 59/59/59 62/62/62 61/61/61
f 63/63/63 65/65/65 64/64/64
f 63/63/63 66/66/66 65/65/65
f 67/67/67 69/69/69 68/68/68
f 67/67/67 70/70/70 69/69/69
f 71/71/71 73/73/73 72/72/72
f 71/71/71 74/74/74 73/73/73
f 75/75/75 77/77/77 76/76/76
f 75/75/75 78/78/78 77/77/77
f 79/79/79 81/81/81 80/80/80
f 79/79/79 82/82/82 81/81/81
f 83/83/83 85/85/85 84/84/84
f 83/83/83 86/86/86 85/85/85
f 87/87/87 89/89/89 88/88/88
f 87/87/87 90/90/90 89/89/89
f 91/91/91 93/93/93 92/92/92
f 91/91/91 94/94/94 93/93/93
f 95/95/95 97/97/97 96/96/96
f 95/95/95 98/98/98 97/97/97
