#Signboard3_(12)_2291_296.obj

v 1.907349E-05 -0.07517441 -0.06426215
v 2.288818E-05 3.98939 -0.08882046
v -0.08583641 3.98939 -0.02647579
v -0.06001663 -0.07517441 -0.0206697
v -0.05307388 3.98939 0.07444656
v -0.03710938 -0.07517441 0.04989696
v 0.05303192 3.98939 0.07447541
v 0.03708267 -0.07517441 0.0499171
v 0.08584785 3.98939 -0.02642918
v 0.06002808 -0.07517441 -0.02063709
v 2.288818E-05 3.98939 -0.08882046
v 1.907349E-05 -0.07517441 -0.06426215
v -0.08583641 3.98939 -0.02647579
v 2.288818E-05 3.98939 -0.08882046
v 0.08584785 3.98939 -0.02642918
v -0.05307388 3.98939 0.07444656
v 0.05303192 3.98939 0.07447541
v -0.8100243 3.647441 0.07380426
v -0.8100243 3.647441 0.1278705
v 0 2.837416 0.1278705
v 0 2.837416 0.07380426
v -0.8100243 3.647441 0.1278705
v 0 4.457466 0.1278705
v 0.8100243 3.647441 0.1278705
v 0 2.837416 0.1278705
v 0 4.457466 0.1278705
v 0 4.457466 0.07380426
v 0.8100243 3.647441 0.07380426
v 0.8100243 3.647441 0.1278705
v 0 4.457466 0.07380426
v -0.8100243 3.647441 0.07380426
v 0 2.837416 0.07380426
v 0.8100243 3.647441 0.07380426
v 0 2.837416 0.07380426
v 0 2.837416 0.1278705
v 0.8100243 3.647441 0.1278705
v 0.8100243 3.647441 0.07380426
v 0 4.457466 0.07380426
v 0 4.457466 0.1278705
v -0.8100243 3.647441 0.1278705
v -0.8100243 3.647441 0.07380426

vn 0.000271862 -0.006041934 -0.9999817
vn 0.00027157 -0.006041933 -0.9999817
vn -0.9510228 -0.006482766 -0.3090526
vn -0.9508826 -0.006482491 -0.3094841
vn -0.5878763 -0.007194997 0.8089189
vn -0.5881029 -0.007194892 0.8087541
vn 0.5874364 -0.00719454 0.8092383
vn 0.5876635 -0.007194435 0.8090734
vn 0.9511907 -0.006482029 -0.3085359
vn 0.9510506 -0.006481753 -0.3089672
vn 0.00027157 -0.006041933 -0.9999817
vn 0.000271862 -0.006041934 -0.9999817
vn 0 1 0
vn 0 1 0
vn 0 1 0
vn 0 1 0
vn 0 1 0
vn -0.7071069 -0.7071066 0
vn -0.7071069 -0.7071066 0
vn -0.7071069 -0.7071066 0
vn -0.7071069 -0.7071066 0
vn 0 0 1
vn 0 0 1
vn 0 0 1
vn 0 0 1
vn 0.7071066 0.707107 0
vn 0.7071066 0.707107 0
vn 0.7071066 0.707107 0
vn 0.7071066 0.707107 0
vn 0 0 -1
vn 0 0 -1
vn 0 0 -1
vn 0 0 -1
vn 0.7071069 -0.7071066 0
vn 0.7071069 -0.7071066 0
vn 0.7071069 -0.7071066 0
vn 0.7071069 -0.7071066 0
vn -0.7071066 0.7071069 0
vn -0.7071066 0.7071069 0
vn -0.7071066 0.7071069 0
vn -0.7071066 0.7071069 0

vt 0.3527832 0.009460449
vt 0.3527832 0.2724609
vt 0.3588867 0.2724609
vt 0.3588867 0.009460449
vt 0.3649902 0.2724609
vt 0.3649902 0.009460449
vt 0.3710938 0.2724609
vt 0.3710938 0.009460449
vt 0.3771973 0.2724609
vt 0.3771973 0.009460449
vt 0.3830566 0.2724609
vt 0.3830566 0.009460449
vt 0.1964111 0.02888489
vt 0.2028809 0.03100586
vt 0.2069092 0.02545166
vt 0.1964111 0.02201843
vt 0.2028809 0.01989746
vt 0.8862305 0.9926758
vt 0.8886719 0.9926758
vt 0.8886719 0.8852539
vt 0.8862305 0.8852539
vt 0.8886719 0.9926758
vt 0.9960938 0.9926758
vt 0.9960938 0.8852539
vt 0.8886719 0.8852539
vt 0.9960938 0.9926758
vt 0.9985352 0.9926758
vt 0.9985352 0.8852539
vt 0.9960938 0.8852539
vt 0.7436523 0.9921875
vt 0.7436523 0.8847656
vt 0.6362305 0.8847656
vt 0.6362305 0.9921875
vt 0.8886719 0.8823242
vt 0.8886719 0.8852539
vt 0.9960938 0.8852539
vt 0.9960938 0.8823242
vt 0.9960938 0.9956055
vt 0.9960938 0.9926758
vt 0.8886719 0.9926758
vt 0.8886719 0.9956055

g Signboard3_(12)_2291_296
usemtl Signboard3_(12)_2291_296
usemap Signboard3_(12)_2291_296
f 1/1/1 3/3/3 2/2/2
f 1/1/1 4/4/4 3/3/3
f 4/4/4 5/5/5 3/3/3
f 4/4/4 6/6/6 5/5/5
f 6/6/6 7/7/7 5/5/5
f 6/6/6 8/8/8 7/7/7
f 8/8/8 9/9/9 7/7/7
f 8/8/8 10/10/10 9/9/9
f 10/10/10 11/11/11 9/9/9
f 10/10/10 12/12/12 11/11/11
f 13/13/13 15/15/15 14/14/14
f 15/15/15 13/13/13 16/16/16
f 15/15/15 16/16/16 17/17/17
f 18/18/18 20/20/20 19/19/19
f 18/18/18 21/21/21 20/20/20
f 22/22/22 24/24/24 23/23/23
f 22/22/22 25/25/25 24/24/24
f 26/26/26 28/28/28 27/27/27
f 26/26/26 29/29/29 28/28/28
f 30/30/30 32/32/32 31/31/31
f 30/30/30 33/33/33 32/32/32
f 34/34/34 36/36/36 35/35/35
f 34/34/34 37/37/37 36/36/36
f 38/38/38 40/40/40 39/39/39
f 38/38/38 41/41/41 40/40/40
