#Straw2_(9)_2695_60.obj

v -1.107011 0.08146319 0.7413756
v -1.107011 1.235069 0.7413756
v 0.2369585 1.149096 0.6928374
v 0.2369585 0.07102155 0.6928374
v 1.085768 0.08146319 0.7413758
v 1.085768 1.235069 0.7413758
v -1.107011 1.235069 0.7413756
v -1.107009 1.235069 -0.7413777
v -0.3197852 1.149096 -0.692836
v 0.2369585 1.149096 0.6928374
v 1.085768 1.235069 0.7413758
v 1.08577 1.235069 -0.7413775
v -1.107009 1.235069 -0.7413777
v -1.107009 0.08146319 -0.7413777
v -0.3197852 0.07102155 -0.692836
v -0.3197852 1.149096 -0.692836
v 1.08577 1.235069 -0.7413775
v 1.08577 0.08146319 -0.7413775
v -1.107009 0.08146319 -0.7413777
v -1.107011 0.08146319 0.7413756
v 0.2369585 0.07102155 0.6928374
v -0.3197852 0.07102155 -0.692836
v 1.08577 0.08146319 -0.7413775
v 1.085768 0.08146319 0.7413758
v 1.085768 0.08146319 0.7413758
v 1.085768 1.235069 0.7413758
v 1.08577 1.235069 -0.7413775
v 1.08577 0.08146319 -0.7413775
v -1.107009 0.08146319 -0.7413777
v -1.107009 1.235069 -0.7413777
v -1.107011 1.235069 0.7413756
v -1.107011 0.08146319 0.7413756

vn -0.7448153 0 0.6672707
vn -0.7448153 0 0.6672707
vn -0.7687317 0 0.6395714
vn -0.7683735 0 0.6400017
vn -0.8036981 0 0.5950373
vn -0.8036981 0 0.5950373
vn 0.06345069 0.9966397 0.05179988
vn 0.06345069 0.9966397 0.05179988
vn 0.01516422 0.9998084 0.01237978
vn -0.01486214 0.9998159 -0.01213313
vn -0.06000515 0.9969953 -0.04898696
vn -0.06000516 0.9969953 -0.04898697
vn 0.806343 0 -0.5914483
vn 0.806343 0 -0.5914483
vn 0.7683617 0 -0.6400159
vn 0.7688226 0 -0.6394622
vn 0.7458691 0 -0.6660925
vn 0.7458691 0 -0.6660925
vn -0.007731884 -0.9999502 -0.006312157
vn -0.007731884 -0.9999502 -0.006312156
vn 0.001811518 -0.9999973 0.001478883
vn -0.001848939 -0.9999971 -0.00150944
vn 0.007309455 -0.9999555 0.005967288
vn 0.007309454 -0.9999555 0.005967287
vn 0.6399525 0 0.7684144
vn 0.6399525 0 0.7684144
vn 0.6399525 0 0.7684144
vn 0.6399525 0 0.7684144
vn -0.6399525 0 -0.7684144
vn -0.6399525 0 -0.7684144
vn -0.6399525 0 -0.7684144
vn -0.6399525 0 -0.7684144

vt 0.59375 0.3442383
vt 0.5625 0.3442383
vt 0.5625 0.3811035
vt 0.59375 0.3811035
vt 0.59375 0.4035645
vt 0.5625 0.4035645
vt 0.5625 0.3425293
vt 0.5214844 0.3425293
vt 0.5214844 0.3640137
vt 0.5625 0.3806152
vt 0.5625 0.4035645
vt 0.5214844 0.4035645
vt 0.5625 0.4035645
vt 0.59375 0.4035645
vt 0.59375 0.3828125
vt 0.5625 0.3828125
vt 0.5625 0.3442383
vt 0.59375 0.3442383
vt 0.6030273 0.3276367
vt 0.5664063 0.3276367
vt 0.5664063 0.361084
vt 0.6030273 0.3464355
vt 0.6030273 0.3815918
vt 0.5664063 0.3815918
vt 0.5654297 0.3205566
vt 0.5654297 0.3510742
vt 0.6044922 0.3510742
vt 0.6044922 0.3205566
vt 0.5654297 0.3203125
vt 0.5654297 0.3510742
vt 0.6049805 0.3510742
vt 0.6049805 0.3203125

g Straw2_(9)_2695_60
usemtl Straw2_(9)_2695_60
usemap Straw2_(9)_2695_60
f 1/1/1 3/3/3 2/2/2
f 1/1/1 4/4/4 3/3/3
f 3/3/3 4/4/4 5/5/5
f 3/3/3 5/5/5 6/6/6
f 7/7/7 9/9/9 8/8/8
f 7/7/7 10/10/10 9/9/9
f 9/9/9 10/10/10 11/11/11
f 9/9/9 11/11/11 12/12/12
f 13/13/13 15/15/15 14/14/14
f 13/13/13 16/16/16 15/15/15
f 15/15/15 16/16/16 17/17/17
f 15/15/15 17/17/17 18/18/18
f 19/19/19 21/21/21 20/20/20
f 19/19/19 22/22/22 21/21/21
f 21/21/21 22/22/22 23/23/23
f 21/21/21 23/23/23 24/24/24
f 25/25/25 27/27/27 26/26/26
f 25/25/25 28/28/28 27/27/27
f 29/29/29 31/31/31 30/30/30
f 29/29/29 32/32/32 31/31/31
