#Straw1_1204_249.obj

v 1.647663 0.1449423 -1.647663
v 1.171055 0.1519281 -1.171054
v 3.042143E-16 0.1519281 -1.65612
v 4.280269E-16 0.1449423 -2.330147
v -1.171055 0.1519281 -1.171053
v -1.647663 0.1449423 -1.647663
v -1.65612 0.1519281 -3.042143E-16
v -2.330147 0.1449423 -4.280269E-16
v -1.171055 0.1519281 1.171053
v -1.647663 0.1449423 1.647662
v -3.04214E-16 0.1519281 1.656118
v -4.280269E-16 0.1449423 2.330147
v 1.171055 0.1519281 1.171053
v 1.647663 0.1449423 1.647662
v 1.65612 0.1519281 -9.536743E-07
v 2.330147 0.1449423 -9.536743E-07
v 1.751813E-22 1.316157 -9.536743E-07
v 0.205307 0.3373918 -1.942587
v 0.1459198 0.9981552 -1.380667
v -0.8730965 0.9981552 -1.079459
v -1.228443 0.3373918 -1.518791
v -1.380665 0.9981552 -0.1459198
v -1.942585 0.3373918 -0.205308
v -1.07946 0.9981552 0.8730974
v -1.518791 0.3373918 1.228441
v -0.1459198 0.9981552 1.380666
v -0.205307 0.3373918 1.942586
v 0.8730965 0.9981552 1.079458
v 1.228443 0.3373918 1.51879
v 1.380665 0.9981552 0.1459188
v 1.942585 0.3373918 0.205307
v 1.07946 0.9981552 -0.8730984
v 1.518791 0.3373918 -1.228442
v 0 1.58656 0
v 1.1203 1.336398 0.497757
v 0 1.855953 0
v 1.144138 1.336398 -0.4402046
v 0.497757 1.336398 -1.120299
v -0.4402046 1.336398 -1.144139
v -1.1203 1.336398 -0.497757
v -1.144138 1.336398 0.4402037
v -0.497757 1.336398 1.120299
v 0.4402046 1.336398 1.144138

vn -0.007328274 0.9999463 -0.007328261
vn -0.1928612 0.9620858 -0.1928612
vn -0.2727468 0.9620858 3.251395E-08
vn -0.01036373 0.9999463 1.235453E-09
vn -0.1928612 0.9620858 0.1928613
vn -0.007328267 0.9999463 0.007328264
vn 3.251395E-08 0.9620858 0.2727468
vn 1.235453E-09 0.9999463 0.01036373
vn 0.1928612 0.9620858 0.1928611
vn 0.00732827 0.9999463 0.007328258
vn 0.2727469 0.9620858 -3.251397E-08
vn 0.01036373 0.9999463 -1.235453E-09
vn 0.1928611 0.9620858 -0.1928612
vn 0.007328267 0.9999463 -0.007328259
vn -3.251396E-08 0.9620858 -0.2727469
vn -1.235453E-09 0.9999463 -0.01036373
vn 0 1 0
vn -0.7557961 0.6499166 -0.07987842
vn -0.6519038 0.7551652 -0.06889825
vn -0.5096838 0.7551653 0.4122472
vn -0.5909109 0.6499168 0.477946
vn -0.06889825 0.7551651 0.6519038
vn -0.07987849 0.6499164 0.7557963
vn 0.4122472 0.755165 0.509684
vn 0.4779463 0.6499162 0.5909113
vn 0.6519038 0.7551652 0.06889824
vn 0.7557962 0.6499164 0.07987837
vn 0.5096838 0.7551653 -0.4122471
vn 0.5909111 0.6499167 -0.4779459
vn 0.06889817 0.7551655 -0.6519035
vn 0.07987847 0.6499168 -0.7557959
vn -0.4122472 0.7551652 -0.5096838
vn -0.477946 0.6499167 -0.590911
vn 0 1 0
vn 0.1584406 0.9207235 -0.3566018
vn 0 1 0
vn -0.1401211 0.9207235 -0.3641898
vn -0.3566018 0.9207235 -0.1584406
vn -0.36419 0.9207235 0.140121
vn -0.1584405 0.9207236 0.3566016
vn 0.1401209 0.9207236 0.3641896
vn 0.3566014 0.9207236 0.1584406
vn 0.3641897 0.9207236 -0.140121

vt 0.703125 0.4729004
vt 0.6904297 0.4672852
vt 0.6713867 0.486084
vt 0.6762695 0.4992676
vt 0.6445313 0.4858398
vt 0.6386719 0.4990234
vt 0.6254883 0.4667969
vt 0.6123047 0.472168
vt 0.6259766 0.4401855
vt 0.612793 0.4345703
vt 0.6450195 0.4213867
vt 0.6396484 0.4082031
vt 0.6713867 0.4216309
vt 0.6772461 0.4084473
vt 0.6904297 0.4406738
vt 0.7036133 0.4353027
vt 0.6582031 0.4536133
vt 0.703125 0.4729004
vt 0.6904297 0.4672852
vt 0.6713867 0.486084
vt 0.6762695 0.4992676
vt 0.6445313 0.4858398
vt 0.6386719 0.4990234
vt 0.6254883 0.4667969
vt 0.6123047 0.472168
vt 0.6259766 0.4401855
vt 0.612793 0.4345703
vt 0.6450195 0.4213867
vt 0.6396484 0.4082031
vt 0.6713867 0.4216309
vt 0.6772461 0.4084473
vt 0.6904297 0.4406738
vt 0.7036133 0.4353027
vt 0.6582031 0.4536133
vt 0.6035156 0.473877
vt 0.5561523 0.4536133
vt 0.5751953 0.5014648
vt 0.5356445 0.5009766
vt 0.5078125 0.4731445
vt 0.5083008 0.4335938
vt 0.5366211 0.4057617
vt 0.5761719 0.4060059
vt 0.6040039 0.4343262

g Straw1_1204_249
usemtl Straw1_1204_249
usemap Straw1_1204_249
f 1/1/1 3/3/3 2/2/2
f 1/1/1 4/4/4 3/3/3
f 4/4/4 5/5/5 3/3/3
f 4/4/4 6/6/6 5/5/5
f 6/6/6 7/7/7 5/5/5
f 6/6/6 8/8/8 7/7/7
f 8/8/8 9/9/9 7/7/7
f 8/8/8 10/10/10 9/9/9
f 10/10/10 11/11/11 9/9/9
f 10/10/10 12/12/12 11/11/11
f 12/12/12 13/13/13 11/11/11
f 12/12/12 14/14/14 13/13/13
f 14/14/14 15/15/15 13/13/13
f 14/14/14 16/16/16 15/15/15
f 16/16/16 2/2/2 15/15/15
f 16/16/16 1/1/1 2/2/2
f 2/2/2 3/3/3 17/17/17
f 3/3/3 5/5/5 17/17/17
f 5/5/5 7/7/7 17/17/17
f 7/7/7 9/9/9 17/17/17
f 9/9/9 11/11/11 17/17/17
f 11/11/11 13/13/13 17/17/17
f 13/13/13 15/15/15 17/17/17
f 15/15/15 2/2/2 17/17/17
f 18/18/18 20/20/20 19/19/19
f 18/18/18 21/21/21 20/20/20
f 21/21/21 22/22/22 20/20/20
f 21/21/21 23/23/23 22/22/22
f 23/23/23 24/24/24 22/22/22
f 23/23/23 25/25/25 24/24/24
f 25/25/25 26/26/26 24/24/24
f 25/25/25 27/27/27 26/26/26
f 27/27/27 28/28/28 26/26/26
f 27/27/27 29/29/29 28/28/28
f 29/29/29 30/30/30 28/28/28
f 29/29/29 31/31/31 30/30/30
f 31/31/31 32/32/32 30/30/30
f 31/31/31 33/33/33 32/32/32
f 33/33/33 19/19/19 32/32/32
f 33/33/33 18/18/18 19/19/19
f 19/19/19 20/20/20 34/34/34
f 20/20/20 22/22/22 34/34/34
f 22/22/22 24/24/24 34/34/34
f 24/24/24 26/26/26 34/34/34
f 26/26/26 28/28/28 34/34/34
f 28/28/28 30/30/30 34/34/34
f 30/30/30 32/32/32 34/34/34
f 32/32/32 19/19/19 34/34/34
f 35/35/35 37/37/37 36/36/36
f 37/37/37 38/38/38 36/36/36
f 38/38/38 39/39/39 36/36/36
f 39/39/39 40/40/40 36/36/36
f 40/40/40 41/41/41 36/36/36
f 41/41/41 42/42/42 36/36/36
f 42/42/42 43/43/43 36/36/36
f 43/43/43 35/35/35 36/36/36
