#Straw2_1301_20.obj

v -1.107008 0.08146286 0.7413775
v -1.107008 1.235069 0.7413775
v 0.2369566 1.149096 0.6928356
v 0.2369566 0.07102203 0.6928356
v 1.085769 0.08146286 0.7413778
v 1.085769 1.235069 0.7413778
v -1.107008 1.235069 0.7413775
v -1.10701 1.235069 -0.7413759
v -0.3197853 1.149096 -0.6928352
v 0.2369566 1.149096 0.6928356
v 1.085769 1.235069 0.7413778
v 1.085771 1.235069 -0.7413774
v -1.10701 1.235069 -0.7413759
v -1.10701 0.08146286 -0.7413759
v -0.3197853 0.07102203 -0.6928352
v -0.3197853 1.149096 -0.6928352
v 1.085771 1.235069 -0.7413774
v 1.085771 0.08146286 -0.7413774
v -1.10701 0.08146286 -0.7413759
v -1.107008 0.08146286 0.7413775
v 0.2369566 0.07102203 0.6928356
v -0.3197853 0.07102203 -0.6928352
v 1.085771 0.08146286 -0.7413774
v 1.085769 0.08146286 0.7413778
v 1.085769 0.08146286 0.7413778
v 1.085769 1.235069 0.7413778
v 1.085771 1.235069 -0.7413774
v 1.085771 0.08146286 -0.7413774
v -1.10701 0.08146286 -0.7413759
v -1.10701 1.235069 -0.7413759
v -1.107008 1.235069 0.7413775
v -1.107008 0.08146286 0.7413775

vn -0.4066617 0 0.9135789
vn -0.4066617 0 0.9135789
vn -0.4398168 0 0.8980876
vn -0.4393139 0 0.8983337
vn -0.489942 0 0.8717551
vn -0.489942 0 0.8717551
vn 0.07908928 0.9966397 0.02130968
vn 0.07908929 0.9966397 0.02130968
vn 0.01890172 0.9998084 0.005092864
vn -0.01852518 0.9998159 -0.004991369
vn -0.07479451 0.9969953 -0.02015247
vn -0.07479452 0.9969953 -0.02015247
vn 0.4938236 0 -0.8695621
vn 0.4938236 0 -0.8695621
vn 0.4392973 0 -0.8983418
vn 0.4399444 0 -0.898025
vn 0.4081052 0 -0.912935
vn 0.4081052 0 -0.912935
vn -0.00963755 -0.9999502 -0.002596726
vn -0.00963755 -0.9999502 -0.002596726
vn 0.002257998 -0.9999973 0.0006083883
vn -0.002304646 -0.9999971 -0.0006209618
vn 0.009111003 -0.9999555 0.002454849
vn 0.009111002 -0.9999555 0.002454849
vn 0.8983055 0 0.4393714
vn 0.8983055 0 0.4393714
vn 0.8983055 0 0.4393714
vn 0.8983055 0 0.4393714
vn -0.8983055 0 -0.4393714
vn -0.8983055 0 -0.4393714
vn -0.8983055 0 -0.4393714
vn -0.8983055 0 -0.4393714

vt 0.59375 0.3442383
vt 0.5625 0.3442383
vt 0.5625 0.3811035
vt 0.59375 0.3811035
vt 0.59375 0.4035645
vt 0.5625 0.4035645
vt 0.5625 0.3425293
vt 0.5214844 0.3425293
vt 0.5214844 0.3640137
vt 0.5625 0.3806152
vt 0.5625 0.4035645
vt 0.5214844 0.4035645
vt 0.5625 0.4035645
vt 0.59375 0.4035645
vt 0.59375 0.3828125
vt 0.5625 0.3828125
vt 0.5625 0.3442383
vt 0.59375 0.3442383
vt 0.6030273 0.3276367
vt 0.5664063 0.3276367
vt 0.5664063 0.361084
vt 0.6030273 0.3464355
vt 0.6030273 0.3815918
vt 0.5664063 0.3815918
vt 0.5654297 0.3205566
vt 0.5654297 0.3510742
vt 0.6044922 0.3510742
vt 0.6044922 0.3205566
vt 0.5654297 0.3203125
vt 0.5654297 0.3510742
vt 0.6049805 0.3510742
vt 0.6049805 0.3203125

g Straw2_1301_20
usemtl Straw2_1301_20
usemap Straw2_1301_20
f 1/1/1 3/3/3 2/2/2
f 1/1/1 4/4/4 3/3/3
f 3/3/3 4/4/4 5/5/5
f 3/3/3 5/5/5 6/6/6
f 7/7/7 9/9/9 8/8/8
f 7/7/7 10/10/10 9/9/9
f 9/9/9 10/10/10 11/11/11
f 9/9/9 11/11/11 12/12/12
f 13/13/13 15/15/15 14/14/14
f 13/13/13 16/16/16 15/15/15
f 15/15/15 16/16/16 17/17/17
f 15/15/15 17/17/17 18/18/18
f 19/19/19 21/21/21 20/20/20
f 19/19/19 22/22/22 21/21/21
f 21/21/21 22/22/22 23/23/23
f 21/21/21 23/23/23 24/24/24
f 25/25/25 27/27/27 26/26/26
f 25/25/25 28/28/28 27/27/27
f 29/29/29 31/31/31 30/30/30
f 29/29/29 32/32/32 31/31/31
