#Straw2_(2)_842_28.obj

v -1.10701 0.08146319 0.7413774
v -1.10701 1.235069 0.7413774
v 0.2369565 1.149096 0.6928367
v 0.2369565 0.07102156 0.6928367
v 1.085771 0.08146319 0.7413772
v 1.085771 1.235069 0.7413772
v -1.10701 1.235069 0.7413774
v -1.10701 1.235069 -0.7413771
v -0.3197863 1.149096 -0.6928363
v 0.2369565 1.149096 0.6928367
v 1.085771 1.235069 0.7413772
v 1.085771 1.235069 -0.7413775
v -1.10701 1.235069 -0.7413771
v -1.10701 0.08146319 -0.7413771
v -0.3197863 0.07102156 -0.6928363
v -0.3197863 1.149096 -0.6928363
v 1.085771 1.235069 -0.7413775
v 1.085771 0.08146319 -0.7413775
v -1.10701 0.08146319 -0.7413771
v -1.10701 0.08146319 0.7413774
v 0.2369565 0.07102156 0.6928367
v -0.3197863 0.07102156 -0.6928363
v 1.085771 0.08146319 -0.7413775
v 1.085771 0.08146319 0.7413772
v 1.085771 0.08146319 0.7413772
v 1.085771 1.235069 0.7413772
v 1.085771 1.235069 -0.7413775
v 1.085771 0.08146319 -0.7413775
v -1.10701 0.08146319 -0.7413771
v -1.10701 1.235069 -0.7413771
v -1.10701 1.235069 0.7413774
v -1.10701 0.08146319 0.7413774

vn -0.2666625 0 0.9637899
vn -0.2666625 0 0.9637899
vn -0.3017485 0 0.9533876
vn -0.3012147 0 0.9535564
vn -0.3552249 0 0.9347809
vn -0.3552249 0 0.9347809
vn 0.08137514 0.9966397 0.009343527
vn 0.08137515 0.9966397 0.009343529
vn 0.01944803 0.9998084 0.002233046
vn -0.0190606 0.9998159 -0.002188522
vn -0.07695625 0.9969953 -0.00883611
vn -0.07695626 0.9969953 -0.008836112
vn 0.3593889 0 -0.9331879
vn 0.3593889 0 -0.9331879
vn 0.3011971 0 -0.9535619
vn 0.301884 0 -0.9533446
vn 0.2681856 0 -0.9633672
vn 0.2681856 0 -0.9633672
vn -0.009916099 -0.9999502 -0.001138571
vn -0.009916098 -0.9999502 -0.001138571
vn 0.002323259 -0.9999973 0.0002667547
vn -0.002371256 -0.9999971 -0.0002722703
vn 0.009374332 -0.9999555 0.00107636
vn 0.009374332 -0.9999555 0.00107636
vn 0.953537 0 0.3012757
vn 0.953537 0 0.3012757
vn 0.953537 0 0.3012757
vn 0.953537 0 0.3012757
vn -0.953537 0 -0.3012757
vn -0.953537 0 -0.3012757
vn -0.953537 0 -0.3012757
vn -0.953537 0 -0.3012757

vt 0.59375 0.3442383
vt 0.5625 0.3442383
vt 0.5625 0.3811035
vt 0.59375 0.3811035
vt 0.59375 0.4035645
vt 0.5625 0.4035645
vt 0.5625 0.3425293
vt 0.5214844 0.3425293
vt 0.5214844 0.3640137
vt 0.5625 0.3806152
vt 0.5625 0.4035645
vt 0.5214844 0.4035645
vt 0.5625 0.4035645
vt 0.59375 0.4035645
vt 0.59375 0.3828125
vt 0.5625 0.3828125
vt 0.5625 0.3442383
vt 0.59375 0.3442383
vt 0.6030273 0.3276367
vt 0.5664063 0.3276367
vt 0.5664063 0.361084
vt 0.6030273 0.3464355
vt 0.6030273 0.3815918
vt 0.5664063 0.3815918
vt 0.5654297 0.3205566
vt 0.5654297 0.3510742
vt 0.6044922 0.3510742
vt 0.6044922 0.3205566
vt 0.5654297 0.3203125
vt 0.5654297 0.3510742
vt 0.6049805 0.3510742
vt 0.6049805 0.3203125

g Straw2_(2)_842_28
usemtl Straw2_(2)_842_28
usemap Straw2_(2)_842_28
f 1/1/1 3/3/3 2/2/2
f 1/1/1 4/4/4 3/3/3
f 3/3/3 4/4/4 5/5/5
f 3/3/3 5/5/5 6/6/6
f 7/7/7 9/9/9 8/8/8
f 7/7/7 10/10/10 9/9/9
f 9/9/9 10/10/10 11/11/11
f 9/9/9 11/11/11 12/12/12
f 13/13/13 15/15/15 14/14/14
f 13/13/13 16/16/16 15/15/15
f 15/15/15 16/16/16 17/17/17
f 15/15/15 17/17/17 18/18/18
f 19/19/19 21/21/21 20/20/20
f 19/19/19 22/22/22 21/21/21
f 21/21/21 22/22/22 23/23/23
f 21/21/21 23/23/23 24/24/24
f 25/25/25 27/27/27 26/26/26
f 25/25/25 28/28/28 27/27/27
f 29/29/29 31/31/31 30/30/30
f 29/29/29 32/32/32 31/31/31
