#Straw3_1146_192.obj

v 1.519198 0.1336415 -1.519199
v 1.079749 0.1400826 -1.07975
v 0 0.1400826 -1.526997
v 0 0.1336415 -2.148472
v -1.079749 0.1400826 -1.07975
v -1.519198 0.1336415 -1.519199
v -1.526996 0.1400826 0
v -2.148471 0.1336415 0
v -1.079749 0.1400826 1.07975
v -1.519198 0.1336415 1.519199
v 0 0.1400826 1.526997
v 0 0.1336415 2.148472
v 1.07975 0.1400826 1.07975
v 1.519198 0.1336415 1.519199
v 1.526996 0.1400826 0
v 2.148471 0.1336415 0
v 0 0.6207609 0

vn 0.007328229 0.9999463 -0.007328226
vn 0.08918904 0.9920134 -0.08918905
vn 0 0.9920134 -0.1261322
vn 0 0.9999463 -0.01036367
vn -0.08918905 0.9920134 -0.08918902
vn -0.007328229 0.9999463 -0.007328227
vn -0.1261323 0.9920134 0
vn -0.01036368 0.9999463 0
vn -0.08918898 0.9920134 0.089189
vn -0.007328223 0.9999463 0.007328222
vn 0 0.9920134 0.1261323
vn 0 0.9999463 0.01036367
vn 0.08918899 0.9920134 0.08918899
vn 0.00732823 0.9999463 0.007328229
vn 0.1261323 0.9920134 0
vn 0.01036369 0.9999463 0
vn 0 1 0

vt 0.703125 0.4729004
vt 0.6904297 0.4672852
vt 0.6713867 0.486084
vt 0.6762695 0.4992676
vt 0.6445313 0.4858398
vt 0.6386719 0.4990234
vt 0.6254883 0.4667969
vt 0.6123047 0.472168
vt 0.6259766 0.4401855
vt 0.612793 0.4345703
vt 0.6450195 0.4213867
vt 0.6396484 0.4082031
vt 0.6713867 0.4216309
vt 0.6772461 0.4084473
vt 0.6904297 0.4406738
vt 0.7036133 0.4353027
vt 0.6582031 0.4536133

g Straw3_1146_192
usemtl Straw3_1146_192
usemap Straw3_1146_192
f 1/1/1 3/3/3 2/2/2
f 1/1/1 4/4/4 3/3/3
f 4/4/4 5/5/5 3/3/3
f 4/4/4 6/6/6 5/5/5
f 6/6/6 7/7/7 5/5/5
f 6/6/6 8/8/8 7/7/7
f 8/8/8 9/9/9 7/7/7
f 8/8/8 10/10/10 9/9/9
f 10/10/10 11/11/11 9/9/9
f 10/10/10 12/12/12 11/11/11
f 12/12/12 13/13/13 11/11/11
f 12/12/12 14/14/14 13/13/13
f 14/14/14 15/15/15 13/13/13
f 14/14/14 16/16/16 15/15/15
f 16/16/16 2/2/2 15/15/15
f 16/16/16 1/1/1 2/2/2
f 2/2/2 3/3/3 17/17/17
f 3/3/3 5/5/5 17/17/17
f 5/5/5 7/7/7 17/17/17
f 7/7/7 9/9/9 17/17/17
f 9/9/9 11/11/11 17/17/17
f 11/11/11 13/13/13 17/17/17
f 13/13/13 15/15/15 17/17/17
f 15/15/15 2/2/2 17/17/17
