#Straw2_(1)_1138_98.obj

v -1.10701 0.08146319 0.7413788
v -1.10701 1.235069 0.7413788
v 0.2369574 1.149096 0.6928368
v 0.2369574 0.07102155 0.6928368
v 1.08577 0.08146319 0.7413788
v 1.08577 1.235069 0.7413788
v -1.10701 1.235069 0.7413788
v -1.10701 1.235069 -0.7413788
v -0.3197863 1.149096 -0.6928368
v 0.2369574 1.149096 0.6928368
v 1.08577 1.235069 0.7413788
v 1.08577 1.235069 -0.7413788
v -1.10701 1.235069 -0.7413788
v -1.10701 0.08146319 -0.7413788
v -0.3197863 0.07102155 -0.6928368
v -0.3197863 1.149096 -0.6928368
v 1.08577 1.235069 -0.7413788
v 1.08577 0.08146319 -0.7413788
v -1.10701 0.08146319 -0.7413788
v -1.10701 0.08146319 0.7413788
v 0.2369574 0.07102155 0.6928368
v -0.3197863 0.07102155 -0.6928368
v 1.08577 0.08146319 -0.7413788
v 1.08577 0.08146319 0.7413788
v 1.08577 0.08146319 0.7413788
v 1.08577 1.235069 0.7413788
v 1.08577 1.235069 -0.7413788
v 1.08577 0.08146319 -0.7413788
v -1.10701 0.08146319 -0.7413788
v -1.10701 1.235069 -0.7413788
v -1.10701 1.235069 0.7413788
v -1.10701 0.08146319 0.7413788

vn 0.03609397 0 0.9993484
vn 0.03609397 0 0.9993484
vn -0.0004958846 0 0.9999999
vn 6.402979E-05 0 1
vn -0.05709335 0 0.9983689
vn -0.05709335 0 0.9983689
vn 0.0804092 0.9966397 -0.01560696
vn 0.08040921 0.9966397 -0.01560696
vn 0.01921718 0.9998084 -0.003729929
vn -0.01883434 0.9998159 0.003655659
vn -0.07604274 0.9969953 0.01475949
vn -0.07604275 0.9969953 0.01475949
vn 0.0615438 0 -0.9981044
vn 0.0615438 0 -0.9981044
vn -8.242343E-05 0 -1
vn 0.0006379641 0 -0.9999998
vn -0.0345143 0 -0.9994042
vn -0.0345143 0 -0.9994042
vn -0.009798392 -0.9999502 0.001901811
vn -0.009798391 -0.9999502 0.00190181
vn 0.002295681 -0.9999973 -0.0004455812
vn -0.002343109 -0.9999971 0.000454782
vn 0.009263054 -0.9999555 -0.001797909
vn 0.009263054 -0.9999555 -0.001797909
vn 1 0 0
vn 1 0 0
vn 1 0 0
vn 1 0 0
vn -1 0 0
vn -1 0 0
vn -1 0 0
vn -1 0 0

vt 0.59375 0.3442383
vt 0.5625 0.3442383
vt 0.5625 0.3811035
vt 0.59375 0.3811035
vt 0.59375 0.4035645
vt 0.5625 0.4035645
vt 0.5625 0.3425293
vt 0.5214844 0.3425293
vt 0.5214844 0.3640137
vt 0.5625 0.3806152
vt 0.5625 0.4035645
vt 0.5214844 0.4035645
vt 0.5625 0.4035645
vt 0.59375 0.4035645
vt 0.59375 0.3828125
vt 0.5625 0.3828125
vt 0.5625 0.3442383
vt 0.59375 0.3442383
vt 0.6030273 0.3276367
vt 0.5664063 0.3276367
vt 0.5664063 0.361084
vt 0.6030273 0.3464355
vt 0.6030273 0.3815918
vt 0.5664063 0.3815918
vt 0.5654297 0.3205566
vt 0.5654297 0.3510742
vt 0.6044922 0.3510742
vt 0.6044922 0.3205566
vt 0.5654297 0.3203125
vt 0.5654297 0.3510742
vt 0.6049805 0.3510742
vt 0.6049805 0.3203125

g Straw2_(1)_1138_98
usemtl Straw2_(1)_1138_98
usemap Straw2_(1)_1138_98
f 1/1/1 3/3/3 2/2/2
f 1/1/1 4/4/4 3/3/3
f 3/3/3 4/4/4 5/5/5
f 3/3/3 5/5/5 6/6/6
f 7/7/7 9/9/9 8/8/8
f 7/7/7 10/10/10 9/9/9
f 9/9/9 10/10/10 11/11/11
f 9/9/9 11/11/11 12/12/12
f 13/13/13 15/15/15 14/14/14
f 13/13/13 16/16/16 15/15/15
f 15/15/15 16/16/16 17/17/17
f 15/15/15 17/17/17 18/18/18
f 19/19/19 21/21/21 20/20/20
f 19/19/19 22/22/22 21/21/21
f 21/21/21 22/22/22 23/23/23
f 21/21/21 23/23/23 24/24/24
f 25/25/25 27/27/27 26/26/26
f 25/25/25 28/28/28 27/27/27
f 29/29/29 31/31/31 30/30/30
f 29/29/29 32/32/32 31/31/31
