#Straw2_(1)_2477_259.obj

v -1.10701 0.08146319 0.7413779
v -1.10701 1.235069 0.7413779
v 0.2369574 1.149096 0.6928366
v 0.2369574 0.07102155 0.6928366
v 1.08577 0.08146319 0.7413773
v 1.08577 1.235069 0.7413773
v -1.10701 1.235069 0.7413779
v -1.107008 1.235069 -0.7413775
v -0.3197858 1.149096 -0.6928358
v 0.2369574 1.149096 0.6928366
v 1.08577 1.235069 0.7413773
v 1.085771 1.235069 -0.7413772
v -1.107008 1.235069 -0.7413775
v -1.107008 0.08146319 -0.7413775
v -0.3197858 0.07102155 -0.6928358
v -0.3197858 1.149096 -0.6928358
v 1.085771 1.235069 -0.7413772
v 1.085771 0.08146319 -0.7413772
v -1.107008 0.08146319 -0.7413775
v -1.10701 0.08146319 0.7413779
v 0.2369574 0.07102155 0.6928366
v -0.3197858 0.07102155 -0.6928358
v 1.085771 0.08146319 -0.7413772
v 1.08577 0.08146319 0.7413773
v 1.08577 0.08146319 0.7413773
v 1.08577 1.235069 0.7413773
v 1.085771 1.235069 -0.7413772
v 1.085771 0.08146319 -0.7413772
v -1.107008 0.08146319 -0.7413775
v -1.107008 1.235069 -0.7413775
v -1.10701 1.235069 0.7413779
v -1.10701 0.08146319 0.7413779

vn -0.4712213 0 0.882015
vn -0.4712213 0 0.882015
vn -0.5031783 0 0.8641826
vn -0.5026943 0 0.8644642
vn -0.5512829 0 0.8343183
vn -0.5512829 0 0.8343183
vn 0.07735468 0.9966397 0.02693455
vn 0.07735468 0.9966397 0.02693455
vn 0.01848717 0.9998084 0.006437163
vn -0.01811889 0.9998159 -0.006308888
vn -0.07315411 0.9969953 -0.02547188
vn -0.07315412 0.9969953 -0.02547189
vn 0.5549971 0 -0.8318523
vn 0.5549971 0 -0.8318523
vn 0.5026785 0 -0.8644735
vn 0.503301 0 -0.8641111
vn 0.4726149 0 -0.881269
vn 0.4726149 0 -0.881269
vn -0.009426178 -0.9999502 -0.003282152
vn -0.009426177 -0.9999502 -0.003282152
vn 0.002208476 -0.9999973 0.000768978
vn -0.0022541 -0.9999971 -0.000784869
vn 0.00891118 -0.9999555 0.003102827
vn 0.008911178 -0.9999555 0.003102827
vn 0.864432 0 0.5027497
vn 0.864432 0 0.5027497
vn 0.864432 0 0.5027497
vn 0.864432 0 0.5027497
vn -0.864432 0 -0.5027497
vn -0.864432 0 -0.5027497
vn -0.864432 0 -0.5027497
vn -0.864432 0 -0.5027497

vt 0.59375 0.3442383
vt 0.5625 0.3442383
vt 0.5625 0.3811035
vt 0.59375 0.3811035
vt 0.59375 0.4035645
vt 0.5625 0.4035645
vt 0.5625 0.3425293
vt 0.5214844 0.3425293
vt 0.5214844 0.3640137
vt 0.5625 0.3806152
vt 0.5625 0.4035645
vt 0.5214844 0.4035645
vt 0.5625 0.4035645
vt 0.59375 0.4035645
vt 0.59375 0.3828125
vt 0.5625 0.3828125
vt 0.5625 0.3442383
vt 0.59375 0.3442383
vt 0.6030273 0.3276367
vt 0.5664063 0.3276367
vt 0.5664063 0.361084
vt 0.6030273 0.3464355
vt 0.6030273 0.3815918
vt 0.5664063 0.3815918
vt 0.5654297 0.3205566
vt 0.5654297 0.3510742
vt 0.6044922 0.3510742
vt 0.6044922 0.3205566
vt 0.5654297 0.3203125
vt 0.5654297 0.3510742
vt 0.6049805 0.3510742
vt 0.6049805 0.3203125

g Straw2_(1)_2477_259
usemtl Straw2_(1)_2477_259
usemap Straw2_(1)_2477_259
f 1/1/1 3/3/3 2/2/2
f 1/1/1 4/4/4 3/3/3
f 3/3/3 4/4/4 5/5/5
f 3/3/3 5/5/5 6/6/6
f 7/7/7 9/9/9 8/8/8
f 7/7/7 10/10/10 9/9/9
f 9/9/9 10/10/10 11/11/11
f 9/9/9 11/11/11 12/12/12
f 13/13/13 15/15/15 14/14/14
f 13/13/13 16/16/16 15/15/15
f 15/15/15 16/16/16 17/17/17
f 15/15/15 17/17/17 18/18/18
f 19/19/19 21/21/21 20/20/20
f 19/19/19 22/22/22 21/21/21
f 21/21/21 22/22/22 23/23/23
f 21/21/21 23/23/23 24/24/24
f 25/25/25 27/27/27 26/26/26
f 25/25/25 28/28/28 27/27/27
f 29/29/29 31/31/31 30/30/30
f 29/29/29 32/32/32 31/31/31
