#Straw2_(2)_842_29.obj

v 1.030306 0.08828318 0.7326111
v 1.030306 1.228249 0.7326111
v 1.275769 1.297476 0.8215905
v 1.275769 0.01905602 0.8215905
v 1.030306 1.228249 0.7326111
v 1.030307 1.228249 -0.7326114
v 1.275769 1.297476 -0.8215899
v 1.275769 1.297476 0.8215905
v 1.030307 1.228249 -0.7326114
v 1.030307 0.08828318 -0.7326114
v 1.275769 0.01905602 -0.8215899
v 1.275769 1.297476 -0.8215899
v 1.030307 0.08828318 -0.7326114
v 1.030306 0.08828318 0.7326111
v 1.275769 0.01905602 0.8215905
v 1.275769 0.01905602 -0.8215899
v 1.030306 0.08828318 0.7326111
v 1.275769 0.01905602 0.8215905
v 1.275769 1.297476 0.8215905
v 1.030306 1.228249 0.7326111
v 1.030306 1.228249 0.7326111
v 1.275769 1.297476 0.8215905
v 1.275769 1.297476 -0.8215899
v 1.030307 1.228249 -0.7326114
v 1.030307 1.228249 -0.7326114
v 1.275769 1.297476 -0.8215899
v 1.275769 0.01905602 -0.8215899
v 1.030307 0.08828318 -0.7326114
v 1.030307 0.08828318 -0.7326114
v 1.275769 0.01905602 -0.8215899
v 1.275769 0.01905602 0.8215905
v 1.030306 0.08828318 0.7326111
v -1.030306 0.08828318 -0.7326111
v -1.030306 1.228249 -0.7326111
v -1.275769 1.297476 -0.8215905
v -1.275769 0.01905602 -0.8215905
v -1.030306 1.228249 -0.7326111
v -1.030307 1.228249 0.7326114
v -1.275769 1.297476 0.8215899
v -1.275769 1.297476 -0.8215905
v -1.030307 1.228249 0.7326114
v -1.030307 0.08828318 0.7326114
v -1.275769 0.01905602 0.8215899
v -1.275769 1.297476 0.8215899
v -1.030307 0.08828318 0.7326114
v -1.030306 0.08828318 -0.7326111
v -1.275769 0.01905602 -0.8215905
v -1.275769 0.01905602 0.8215899
v -1.030306 0.08828318 -0.7326111
v -1.275769 0.01905602 -0.8215905
v -1.275769 1.297476 -0.8215905
v -1.030306 1.228249 -0.7326111
v -1.030306 1.228249 -0.7326111
v -1.275769 1.297476 -0.8215905
v -1.275769 1.297476 0.8215899
v -1.030307 1.228249 0.7326114
v -1.030307 1.228249 0.7326114
v -1.275769 1.297476 0.8215899
v -1.275769 0.01905602 0.8215899
v -1.030307 0.08828318 0.7326114
v -1.030307 0.08828318 0.7326114
v -1.275769 0.01905602 0.8215899
v -1.275769 0.01905602 -0.8215905
v -1.030306 0.08828318 -0.7326111

vn -0.6082008 0 0.7937832
vn -0.6082008 0 0.7937832
vn -0.6082008 0 0.7937832
vn -0.6082008 0 0.7937832
vn -0.2588255 0.9624561 -0.08177745
vn -0.2588255 0.9624561 -0.08177745
vn -0.2588255 0.9624561 -0.08177745
vn -0.2588255 0.9624561 -0.08177745
vn -0.04171929 0 -0.9991294
vn -0.04171929 0 -0.9991294
vn -0.04171929 0 -0.9991294
vn -0.04171932 0 -0.9991294
vn -0.258826 -0.962456 -0.08177762
vn -0.258826 -0.962456 -0.08177762
vn -0.258826 -0.962456 -0.08177761
vn -0.258826 -0.962456 -0.08177761
vn 0.6082008 0 -0.7937832
vn 0.6082008 0 -0.7937832
vn 0.6082008 0 -0.7937832
vn 0.6082008 0 -0.7937832
vn 0.2588255 -0.9624561 0.08177747
vn 0.2588255 -0.9624561 0.08177747
vn 0.2588255 -0.9624561 0.08177747
vn 0.2588255 -0.9624561 0.08177747
vn 0.04171932 0 0.9991294
vn 0.04171938 0 0.9991293
vn 0.04171935 0 0.9991294
vn 0.04171935 0 0.9991294
vn 0.258826 0.962456 0.08177763
vn 0.2588261 0.962456 0.08177765
vn 0.2588261 0.962456 0.08177765
vn 0.258826 0.962456 0.08177763
vn 0.6082008 0 -0.7937832
vn 0.6082008 0 -0.7937832
vn 0.6082008 0 -0.7937832
vn 0.6082008 0 -0.7937832
vn 0.2588255 0.9624561 0.08177745
vn 0.2588255 0.9624561 0.08177745
vn 0.2588255 0.9624561 0.08177745
vn 0.2588255 0.9624561 0.08177745
vn 0.04171929 0 0.9991294
vn 0.04171929 0 0.9991294
vn 0.04171929 0 0.9991294
vn 0.04171932 0 0.9991294
vn 0.258826 -0.962456 0.08177762
vn 0.258826 -0.962456 0.08177762
vn 0.258826 -0.962456 0.08177761
vn 0.258826 -0.962456 0.08177761
vn -0.6082008 0 0.7937832
vn -0.6082008 0 0.7937832
vn -0.6082008 0 0.7937832
vn -0.6082008 0 0.7937832
vn -0.2588255 -0.9624561 -0.08177747
vn -0.2588255 -0.9624561 -0.08177747
vn -0.2588255 -0.9624561 -0.08177747
vn -0.2588255 -0.9624561 -0.08177747
vn -0.04171932 0 -0.9991294
vn -0.04171938 0 -0.9991293
vn -0.04171935 0 -0.9991294
vn -0.04171935 0 -0.9991294
vn -0.258826 0.962456 -0.08177763
vn -0.2588261 0.962456 -0.08177765
vn -0.2588261 0.962456 -0.08177765
vn -0.258826 0.962456 -0.08177763

vt 0.6738281 0.3979492
vt 0.6137695 0.3979492
vt 0.6137695 0.3793945
vt 0.6738281 0.3793945
vt 0.6743164 0.3979492
vt 0.6137695 0.3979492
vt 0.6137695 0.3793945
vt 0.6743164 0.3793945
vt 0.6738281 0.3979492
vt 0.6137695 0.3979492
vt 0.6137695 0.3793945
vt 0.6738281 0.3793945
vt 0.6743164 0.3979492
vt 0.6137695 0.3979492
vt 0.6137695 0.3793945
vt 0.6743164 0.3793945
vt 0.6738281 0.3979492
vt 0.6738281 0.3793945
vt 0.6137695 0.3793945
vt 0.6137695 0.3979492
vt 0.6743164 0.3979492
vt 0.6743164 0.3793945
vt 0.6137695 0.3793945
vt 0.6137695 0.3979492
vt 0.6738281 0.3979492
vt 0.6738281 0.3793945
vt 0.6137695 0.3793945
vt 0.6137695 0.3979492
vt 0.6743164 0.3979492
vt 0.6743164 0.3793945
vt 0.6137695 0.3793945
vt 0.6137695 0.3979492
vt 0.6738281 0.3979492
vt 0.6137695 0.3979492
vt 0.6137695 0.3793945
vt 0.6738281 0.3793945
vt 0.6743164 0.3979492
vt 0.6137695 0.3979492
vt 0.6137695 0.3793945
vt 0.6743164 0.3793945
vt 0.6738281 0.3979492
vt 0.6137695 0.3979492
vt 0.6137695 0.3793945
vt 0.6738281 0.3793945
vt 0.6743164 0.3979492
vt 0.6137695 0.3979492
vt 0.6137695 0.3793945
vt 0.6743164 0.3793945
vt 0.6738281 0.3979492
vt 0.6738281 0.3793945
vt 0.6137695 0.3793945
vt 0.6137695 0.3979492
vt 0.6743164 0.3979492
vt 0.6743164 0.3793945
vt 0.6137695 0.3793945
vt 0.6137695 0.3979492
vt 0.6738281 0.3979492
vt 0.6738281 0.3793945
vt 0.6137695 0.3793945
vt 0.6137695 0.3979492
vt 0.6743164 0.3979492
vt 0.6743164 0.3793945
vt 0.6137695 0.3793945
vt 0.6137695 0.3979492

g Straw2_(2)_842_29
usemtl Straw2_(2)_842_29
usemap Straw2_(2)_842_29
f 1/1/1 3/3/3 2/2/2
f 1/1/1 4/4/4 3/3/3
f 5/5/5 7/7/7 6/6/6
f 5/5/5 8/8/8 7/7/7
f 9/9/9 11/11/11 10/10/10
f 9/9/9 12/12/12 11/11/11
f 13/13/13 15/15/15 14/14/14
f 13/13/13 16/16/16 15/15/15
f 17/17/17 19/19/19 18/18/18
f 17/17/17 20/20/20 19/19/19
f 21/21/21 23/23/23 22/22/22
f 21/21/21 24/24/24 23/23/23
f 25/25/25 27/27/27 26/26/26
f 25/25/25 28/28/28 27/27/27
f 29/29/29 31/31/31 30/30/30
f 29/29/29 32/32/32 31/31/31
f 33/33/33 35/35/35 34/34/34
f 33/33/33 36/36/36 35/35/35
f 37/37/37 39/39/39 38/38/38
f 37/37/37 40/40/40 39/39/39
f 41/41/41 43/43/43 42/42/42
f 41/41/41 44/44/44 43/43/43
f 45/45/45 47/47/47 46/46/46
f 45/45/45 48/48/48 47/47/47
f 49/49/49 51/51/51 50/50/50
f 49/49/49 52/52/52 51/51/51
f 53/53/53 55/55/55 54/54/54
f 53/53/53 56/56/56 55/55/55
f 57/57/57 59/59/59 58/58/58
f 57/57/57 60/60/60 59/59/59
f 61/61/61 63/63/63 62/62/62
f 61/61/61 64/64/64 63/63/63
