#Straw2_1370_51.obj

v -1.10701 0.08146319 0.7413771
v -1.10701 1.235069 0.7413771
v 0.2369575 1.149096 0.6928368
v 0.2369575 0.07102155 0.6928368
v 1.08577 0.08146319 0.7413772
v 1.08577 1.235069 0.7413772
v -1.10701 1.235069 0.7413771
v -1.10701 1.235069 -0.7413766
v -0.3197865 1.149096 -0.6928372
v 0.2369575 1.149096 0.6928368
v 1.08577 1.235069 0.7413772
v 1.08577 1.235069 -0.7413765
v -1.10701 1.235069 -0.7413766
v -1.10701 0.08146319 -0.7413766
v -0.3197865 0.07102155 -0.6928372
v -0.3197865 1.149096 -0.6928372
v 1.08577 1.235069 -0.7413765
v 1.08577 0.08146319 -0.7413765
v -1.10701 0.08146319 -0.7413766
v -1.10701 0.08146319 0.7413771
v 0.2369575 0.07102155 0.6928368
v -0.3197865 0.07102155 -0.6928372
v 1.08577 0.08146319 -0.7413765
v 1.08577 0.08146319 0.7413772
v 1.08577 0.08146319 0.7413772
v 1.08577 1.235069 0.7413772
v 1.08577 1.235069 -0.7413765
v 1.08577 0.08146319 -0.7413765
v -1.10701 0.08146319 -0.7413766
v -1.10701 1.235069 -0.7413766
v -1.10701 1.235069 0.7413771
v -1.10701 0.08146319 0.7413771

vn -0.139492 0 0.9902232
vn -0.139492 0 0.9902232
vn -0.1756304 0 0.9844562
vn -0.1750792 0 0.9845544
vn -0.2310674 0 0.9729378
vn -0.2310674 0 0.9729378
vn 0.08189976 0.9966397 -0.001282677
vn 0.08189977 0.9966397 -0.001282678
vn 0.01957341 0.9998084 -0.0003065357
vn -0.01918348 0.9998159 0.0003004668
vn -0.07745237 0.9969953 0.001213063
vn -0.07745238 0.9969953 0.001213062
vn 0.2354027 0 -0.971898
vn 0.2354027 0 -0.971898
vn 0.1750611 0 -0.9845576
vn 0.1757703 0 -0.9844312
vn 0.141057 0 -0.9900015
vn 0.141057 0 -0.9900015
vn -0.009980027 -0.9999502 0.0001563027
vn -0.009980026 -0.9999502 0.0001563025
vn 0.002338237 -0.9999973 -3.662336E-05
vn -0.002386543 -0.9999971 3.737526E-05
vn 0.009434766 -0.9999555 -0.0001477676
vn 0.009434765 -0.9999555 -0.0001477676
vn 0.9845431 0 0.1751422
vn 0.9845431 0 0.1751422
vn 0.9845431 0 0.1751422
vn 0.9845431 0 0.1751422
vn -0.9845431 0 -0.1751422
vn -0.9845431 0 -0.1751422
vn -0.9845431 0 -0.1751422
vn -0.9845431 0 -0.1751422

vt 0.59375 0.3442383
vt 0.5625 0.3442383
vt 0.5625 0.3811035
vt 0.59375 0.3811035
vt 0.59375 0.4035645
vt 0.5625 0.4035645
vt 0.5625 0.3425293
vt 0.5214844 0.3425293
vt 0.5214844 0.3640137
vt 0.5625 0.3806152
vt 0.5625 0.4035645
vt 0.5214844 0.4035645
vt 0.5625 0.4035645
vt 0.59375 0.4035645
vt 0.59375 0.3828125
vt 0.5625 0.3828125
vt 0.5625 0.3442383
vt 0.59375 0.3442383
vt 0.6030273 0.3276367
vt 0.5664063 0.3276367
vt 0.5664063 0.361084
vt 0.6030273 0.3464355
vt 0.6030273 0.3815918
vt 0.5664063 0.3815918
vt 0.5654297 0.3205566
vt 0.5654297 0.3510742
vt 0.6044922 0.3510742
vt 0.6044922 0.3205566
vt 0.5654297 0.3203125
vt 0.5654297 0.3510742
vt 0.6049805 0.3510742
vt 0.6049805 0.3203125

g Straw2_1370_51
usemtl Straw2_1370_51
usemap Straw2_1370_51
f 1/1/1 3/3/3 2/2/2
f 1/1/1 4/4/4 3/3/3
f 3/3/3 4/4/4 5/5/5
f 3/3/3 5/5/5 6/6/6
f 7/7/7 9/9/9 8/8/8
f 7/7/7 10/10/10 9/9/9
f 9/9/9 10/10/10 11/11/11
f 9/9/9 11/11/11 12/12/12
f 13/13/13 15/15/15 14/14/14
f 13/13/13 16/16/16 15/15/15
f 15/15/15 16/16/16 17/17/17
f 15/15/15 17/17/17 18/18/18
f 19/19/19 21/21/21 20/20/20
f 19/19/19 22/22/22 21/21/21
f 21/21/21 22/22/22 23/23/23
f 21/21/21 23/23/23 24/24/24
f 25/25/25 27/27/27 26/26/26
f 25/25/25 28/28/28 27/27/27
f 29/29/29 31/31/31 30/30/30
f 29/29/29 32/32/32 31/31/31
