#Straw2_1055_127.obj

v -1.10701 0.08146319 0.7413769
v -1.10701 1.235069 0.7413769
v 0.2369574 1.149096 0.6928366
v 0.2369574 0.07102156 0.6928366
v 1.08577 0.08146319 0.7413774
v 1.08577 1.235069 0.7413774
v -1.10701 1.235069 0.7413769
v -1.10701 1.235069 -0.7413772
v -0.3197863 1.149096 -0.6928369
v 0.2369574 1.149096 0.6928366
v 1.08577 1.235069 0.7413774
v 1.08577 1.235069 -0.7413767
v -1.10701 1.235069 -0.7413772
v -1.10701 0.08146319 -0.7413772
v -0.3197863 0.07102156 -0.6928369
v -0.3197863 1.149096 -0.6928369
v 1.08577 1.235069 -0.7413767
v 1.08577 0.08146319 -0.7413767
v -1.10701 0.08146319 -0.7413772
v -1.10701 0.08146319 0.7413769
v 0.2369574 0.07102156 0.6928366
v -0.3197863 0.07102156 -0.6928369
v 1.08577 0.08146319 -0.7413767
v 1.08577 0.08146319 0.7413774
v 1.08577 0.08146319 0.7413774
v 1.08577 1.235069 0.7413774
v 1.08577 1.235069 -0.7413767
v 1.08577 0.08146319 -0.7413767
v -1.10701 0.08146319 -0.7413772
v -1.10701 1.235069 -0.7413772
v -1.10701 1.235069 0.7413769
v -1.10701 0.08146319 0.7413769

vn -0.1937223 0 0.9810565
vn -0.1937223 0 0.9810565
vn -0.229489 0 0.9733113
vn -0.228944 0 0.9734396
vn -0.2842088 0 0.9587624
vn -0.2842088 0 0.9587624
vn 0.08184641 0.9966397 0.00322201
vn 0.08184642 0.9966397 0.00322201
vn 0.01956066 0.9998084 0.0007700499
vn -0.01917098 0.9998159 -0.0007546716
vn -0.07740192 0.9969953 -0.003047008
vn -0.07740193 0.9969953 -0.00304701
vn 0.2884805 0 -0.9574858
vn 0.2884805 0 -0.9574858
vn 0.2289261 0 -0.9734439
vn 0.2296273 0 -0.9732787
vn 0.1952728 0 -0.980749
vn 0.1952728 0 -0.980749
vn -0.009973526 -0.9999502 -0.0003926234
vn -0.009973525 -0.9999502 -0.0003926235
vn 0.002336714 -0.9999973 9.198542E-05
vn -0.002384988 -0.9999971 -9.389047E-05
vn 0.00942862 -0.9999555 0.0003711677
vn 0.009428619 -0.9999555 0.0003711679
vn 0.973425 0 0.2290063
vn 0.973425 0 0.2290063
vn 0.973425 0 0.2290063
vn 0.973425 0 0.2290063
vn -0.973425 0 -0.2290063
vn -0.973425 0 -0.2290063
vn -0.973425 0 -0.2290063
vn -0.973425 0 -0.2290063

vt 0.59375 0.3442383
vt 0.5625 0.3442383
vt 0.5625 0.3811035
vt 0.59375 0.3811035
vt 0.59375 0.4035645
vt 0.5625 0.4035645
vt 0.5625 0.3425293
vt 0.5214844 0.3425293
vt 0.5214844 0.3640137
vt 0.5625 0.3806152
vt 0.5625 0.4035645
vt 0.5214844 0.4035645
vt 0.5625 0.4035645
vt 0.59375 0.4035645
vt 0.59375 0.3828125
vt 0.5625 0.3828125
vt 0.5625 0.3442383
vt 0.59375 0.3442383
vt 0.6030273 0.3276367
vt 0.5664063 0.3276367
vt 0.5664063 0.361084
vt 0.6030273 0.3464355
vt 0.6030273 0.3815918
vt 0.5664063 0.3815918
vt 0.5654297 0.3205566
vt 0.5654297 0.3510742
vt 0.6044922 0.3510742
vt 0.6044922 0.3205566
vt 0.5654297 0.3203125
vt 0.5654297 0.3510742
vt 0.6049805 0.3510742
vt 0.6049805 0.3203125

g Straw2_1055_127
usemtl Straw2_1055_127
usemap Straw2_1055_127
f 1/1/1 3/3/3 2/2/2
f 1/1/1 4/4/4 3/3/3
f 3/3/3 4/4/4 5/5/5
f 3/3/3 5/5/5 6/6/6
f 7/7/7 9/9/9 8/8/8
f 7/7/7 10/10/10 9/9/9
f 9/9/9 10/10/10 11/11/11
f 9/9/9 11/11/11 12/12/12
f 13/13/13 15/15/15 14/14/14
f 13/13/13 16/16/16 15/15/15
f 15/15/15 16/16/16 17/17/17
f 15/15/15 17/17/17 18/18/18
f 19/19/19 21/21/21 20/20/20
f 19/19/19 22/22/22 21/21/21
f 21/21/21 22/22/22 23/23/23
f 21/21/21 23/23/23 24/24/24
f 25/25/25 27/27/27 26/26/26
f 25/25/25 28/28/28 27/27/27
f 29/29/29 31/31/31 30/30/30
f 29/29/29 32/32/32 31/31/31
