#Straw2_(6)_1243_20.obj

v -1.10701 0.08146322 0.7413757
v -1.10701 1.235069 0.7413757
v 0.2369569 1.149096 0.6928355
v 0.2369569 0.07102156 0.6928355
v 1.085771 0.08146322 0.7413784
v 1.085771 1.235069 0.7413784
v -1.10701 1.235069 0.7413757
v -1.107009 1.235069 -0.7413765
v -0.3197858 1.149096 -0.6928359
v 0.2369569 1.149096 0.6928355
v 1.085771 1.235069 0.7413784
v 1.08577 1.235069 -0.7413772
v -1.107009 1.235069 -0.7413765
v -1.107009 0.08146322 -0.7413765
v -0.3197858 0.07102156 -0.6928359
v -0.3197858 1.149096 -0.6928359
v 1.08577 1.235069 -0.7413772
v 1.08577 0.08146322 -0.7413772
v -1.107009 0.08146322 -0.7413765
v -1.10701 0.08146322 0.7413757
v 0.2369569 0.07102156 0.6928355
v -0.3197858 0.07102156 -0.6928359
v 1.08577 0.08146322 -0.7413772
v 1.085771 0.08146322 0.7413784
v 1.085771 0.08146322 0.7413784
v 1.085771 1.235069 0.7413784
v 1.08577 1.235069 -0.7413772
v 1.08577 0.08146322 -0.7413772
v -1.107009 0.08146322 -0.7413765
v -1.107009 1.235069 -0.7413765
v -1.10701 1.235069 0.7413757
v -1.10701 0.08146322 0.7413757

vn -0.4125541 0 0.9109331
vn -0.4125541 0 0.9109331
vn -0.4456084 0 0.895228
vn -0.4451071 0 0.8954774
vn -0.4955625 0 0.8685723
vn -0.4955625 0 0.8685723
vn 0.07894999 0.9966397 0.02182008
vn 0.07895 0.9966397 0.02182009
vn 0.01886844 0.9998084 0.005214846
vn -0.01849256 0.9998159 -0.005110922
vn -0.07466278 0.9969953 -0.02063515
vn -0.07466279 0.9969953 -0.02063516
vn 0.4994299 0 -0.8663543
vn 0.4994299 0 -0.8663543
vn 0.4450906 0 -0.8954856
vn 0.4457356 0 -0.8951647
vn 0.4139934 0 -0.9102799
vn 0.4139934 0 -0.9102799
vn -0.009620577 -0.9999502 -0.002658921
vn -0.009620577 -0.9999502 -0.002658921
vn 0.002254021 -0.9999973 0.0006229602
vn -0.002300587 -0.9999971 -0.0006358347
vn 0.009094957 -0.9999555 0.002513647
vn 0.009094956 -0.9999555 0.002513646
vn 0.8954489 0 0.4451644
vn 0.8954489 0 0.4451644
vn 0.8954489 0 0.4451644
vn 0.8954489 0 0.4451644
vn -0.8954489 0 -0.4451644
vn -0.8954489 0 -0.4451644
vn -0.8954489 0 -0.4451644
vn -0.8954489 0 -0.4451644

vt 0.59375 0.3442383
vt 0.5625 0.3442383
vt 0.5625 0.3811035
vt 0.59375 0.3811035
vt 0.59375 0.4035645
vt 0.5625 0.4035645
vt 0.5625 0.3425293
vt 0.5214844 0.3425293
vt 0.5214844 0.3640137
vt 0.5625 0.3806152
vt 0.5625 0.4035645
vt 0.5214844 0.4035645
vt 0.5625 0.4035645
vt 0.59375 0.4035645
vt 0.59375 0.3828125
vt 0.5625 0.3828125
vt 0.5625 0.3442383
vt 0.59375 0.3442383
vt 0.6030273 0.3276367
vt 0.5664063 0.3276367
vt 0.5664063 0.361084
vt 0.6030273 0.3464355
vt 0.6030273 0.3815918
vt 0.5664063 0.3815918
vt 0.5654297 0.3205566
vt 0.5654297 0.3510742
vt 0.6044922 0.3510742
vt 0.6044922 0.3205566
vt 0.5654297 0.3203125
vt 0.5654297 0.3510742
vt 0.6049805 0.3510742
vt 0.6049805 0.3203125

g Straw2_(6)_1243_20
usemtl Straw2_(6)_1243_20
usemap Straw2_(6)_1243_20
f 1/1/1 3/3/3 2/2/2
f 1/1/1 4/4/4 3/3/3
f 3/3/3 4/4/4 5/5/5
f 3/3/3 5/5/5 6/6/6
f 7/7/7 9/9/9 8/8/8
f 7/7/7 10/10/10 9/9/9
f 9/9/9 10/10/10 11/11/11
f 9/9/9 11/11/11 12/12/12
f 13/13/13 15/15/15 14/14/14
f 13/13/13 16/16/16 15/15/15
f 15/15/15 16/16/16 17/17/17
f 15/15/15 17/17/17 18/18/18
f 19/19/19 21/21/21 20/20/20
f 19/19/19 22/22/22 21/21/21
f 21/21/21 22/22/22 23/23/23
f 21/21/21 23/23/23 24/24/24
f 25/25/25 27/27/27 26/26/26
f 25/25/25 28/28/28 27/27/27
f 29/29/29 31/31/31 30/30/30
f 29/29/29 32/32/32 31/31/31
