#Straw2_(6)_1344_197.obj

v -1.10701 0.08146319 0.7413761
v -1.10701 1.235069 0.7413761
v 0.2369574 1.149096 0.6928358
v 0.2369574 0.07102155 0.6928358
v 1.08577 0.08146319 0.7413779
v 1.08577 1.235069 0.7413779
v -1.10701 1.235069 0.7413761
v -1.107009 1.235069 -0.7413758
v -0.3197865 1.149096 -0.6928374
v 0.2369574 1.149096 0.6928358
v 1.08577 1.235069 0.7413779
v 1.08577 1.235069 -0.7413777
v -1.107009 1.235069 -0.7413758
v -1.107009 0.08146319 -0.7413758
v -0.3197865 0.07102155 -0.6928374
v -0.3197865 1.149096 -0.6928374
v 1.08577 1.235069 -0.7413777
v 1.08577 0.08146319 -0.7413777
v -1.107009 0.08146319 -0.7413758
v -1.10701 0.08146319 0.7413761
v 0.2369574 0.07102155 0.6928358
v -0.3197865 0.07102155 -0.6928374
v 1.08577 0.08146319 -0.7413777
v 1.08577 0.08146319 0.7413779
v 1.08577 0.08146319 0.7413779
v 1.08577 1.235069 0.7413779
v 1.08577 1.235069 -0.7413777
v 1.08577 0.08146319 -0.7413777
v -1.107009 0.08146319 -0.7413758
v -1.107009 1.235069 -0.7413758
v -1.10701 1.235069 0.7413761
v -1.10701 0.08146319 0.7413761

vn -0.5359234 0 0.8442666
vn -0.5359234 0 0.8442666
vn -0.5664558 0 0.8240921
vn -0.5659943 0 0.8244091
vn -0.6121901 0 0.7907107
vn -0.6121901 0 0.7907107
vn 0.07512143 0.9966397 0.03264944
vn 0.07512144 0.9966397 0.03264945
vn 0.01795344 0.9998084 0.007802979
vn -0.01759579 0.9998159 -0.007647496
vn -0.07104214 0.9969953 -0.03087645
vn -0.07104215 0.9969953 -0.03087646
vn 0.6157092 0 -0.7879735
vn 0.6157092 0 -0.7879735
vn 0.5659792 0 -0.8244196
vn 0.5665729 0 -0.8240116
vn 0.5372573 0 -0.8434185
vn 0.5372573 0 -0.8434185
vn -0.009154043 -0.9999502 -0.00397855
vn -0.009154042 -0.9999502 -0.00397855
vn 0.002144717 -0.9999973 0.0009321384
vn -0.002189023 -0.9999971 -0.0009514
vn 0.008653913 -0.9999555 0.003761178
vn 0.008653912 -0.9999555 0.003761177
vn 0.8243729 0 0.5660471
vn 0.8243729 0 0.5660471
vn 0.8243729 0 0.5660471
vn 0.8243729 0 0.5660471
vn -0.8243729 0 -0.5660471
vn -0.8243729 0 -0.5660471
vn -0.8243729 0 -0.5660471
vn -0.8243729 0 -0.5660471

vt 0.59375 0.3442383
vt 0.5625 0.3442383
vt 0.5625 0.3811035
vt 0.59375 0.3811035
vt 0.59375 0.4035645
vt 0.5625 0.4035645
vt 0.5625 0.3425293
vt 0.5214844 0.3425293
vt 0.5214844 0.3640137
vt 0.5625 0.3806152
vt 0.5625 0.4035645
vt 0.5214844 0.4035645
vt 0.5625 0.4035645
vt 0.59375 0.4035645
vt 0.59375 0.3828125
vt 0.5625 0.3828125
vt 0.5625 0.3442383
vt 0.59375 0.3442383
vt 0.6030273 0.3276367
vt 0.5664063 0.3276367
vt 0.5664063 0.361084
vt 0.6030273 0.3464355
vt 0.6030273 0.3815918
vt 0.5664063 0.3815918
vt 0.5654297 0.3205566
vt 0.5654297 0.3510742
vt 0.6044922 0.3510742
vt 0.6044922 0.3205566
vt 0.5654297 0.3203125
vt 0.5654297 0.3510742
vt 0.6049805 0.3510742
vt 0.6049805 0.3203125

g Straw2_(6)_1344_197
usemtl Straw2_(6)_1344_197
usemap Straw2_(6)_1344_197
f 1/1/1 3/3/3 2/2/2
f 1/1/1 4/4/4 3/3/3
f 3/3/3 4/4/4 5/5/5
f 3/3/3 5/5/5 6/6/6
f 7/7/7 9/9/9 8/8/8
f 7/7/7 10/10/10 9/9/9
f 9/9/9 10/10/10 11/11/11
f 9/9/9 11/11/11 12/12/12
f 13/13/13 15/15/15 14/14/14
f 13/13/13 16/16/16 15/15/15
f 15/15/15 16/16/16 17/17/17
f 15/15/15 17/17/17 18/18/18
f 19/19/19 21/21/21 20/20/20
f 19/19/19 22/22/22 21/21/21
f 21/21/21 22/22/22 23/23/23
f 21/21/21 23/23/23 24/24/24
f 25/25/25 27/27/27 26/26/26
f 25/25/25 28/28/28 27/27/27
f 29/29/29 31/31/31 30/30/30
f 29/29/29 32/32/32 31/31/31
