#Straw2_(5)_1356_34.obj

v -1.10701 0.08146322 0.7413777
v -1.10701 1.235069 0.7413777
v 0.2369577 1.149096 0.6928378
v 0.2369577 0.07102156 0.6928378
v 1.085771 0.08146322 0.7413782
v 1.085771 1.235069 0.7413782
v -1.10701 1.235069 0.7413777
v -1.10701 1.235069 -0.7413779
v -0.319786 1.149096 -0.6928353
v 0.2369577 1.149096 0.6928378
v 1.085771 1.235069 0.7413782
v 1.08577 1.235069 -0.7413774
v -1.10701 1.235069 -0.7413779
v -1.10701 0.08146322 -0.7413779
v -0.319786 0.07102156 -0.6928353
v -0.319786 1.149096 -0.6928353
v 1.08577 1.235069 -0.7413774
v 1.08577 0.08146322 -0.7413774
v -1.10701 0.08146322 -0.7413779
v -1.10701 0.08146322 0.7413777
v 0.2369577 0.07102156 0.6928378
v -0.319786 0.07102156 -0.6928353
v 1.08577 0.08146322 -0.7413774
v 1.085771 0.08146322 0.7413782
v 1.085771 0.08146322 0.7413782
v 1.085771 1.235069 0.7413782
v 1.08577 1.235069 -0.7413774
v 1.08577 0.08146322 -0.7413774
v -1.10701 0.08146322 -0.7413779
v -1.10701 1.235069 -0.7413779
v -1.10701 1.235069 0.7413777
v -1.10701 0.08146322 0.7413777

vn -0.1953573 0 0.9807322
vn -0.1953573 0 0.9807322
vn -0.231111 0 0.9729274
vn -0.2305662 0 0.9730567
vn -0.2858066 0 0.9582874
vn -0.2858066 0 0.9582874
vn 0.08184093 0.9966397 0.003358434
vn 0.08184094 0.9966397 0.003358434
vn 0.01955935 0.9998084 0.0008026543
vn -0.0191697 0.9998159 -0.0007866265
vn -0.07739674 0.9969953 -0.003176023
vn -0.07739674 0.9969953 -0.003176025
vn 0.2900761 0 -0.9570036
vn 0.2900761 0 -0.9570036
vn 0.2305484 0 -0.9730609
vn 0.2312493 0 -0.9728946
vn 0.1969073 0 -0.9804221
vn 0.1969073 0 -0.9804221
vn -0.009972857 -0.9999502 -0.0004092472
vn -0.009972856 -0.9999502 -0.0004092474
vn 0.002336557 -0.9999973 9.58803E-05
vn -0.002384829 -0.9999971 -9.786585E-05
vn 0.009427989 -0.9999555 0.0003868835
vn 0.009427988 -0.9999555 0.0003868835
vn 0.9730419 0 0.2306286
vn 0.9730419 0 0.2306286
vn 0.9730419 0 0.2306286
vn 0.9730419 0 0.2306286
vn -0.9730419 0 -0.2306286
vn -0.9730419 0 -0.2306286
vn -0.9730419 0 -0.2306286
vn -0.9730419 0 -0.2306286

vt 0.59375 0.3442383
vt 0.5625 0.3442383
vt 0.5625 0.3811035
vt 0.59375 0.3811035
vt 0.59375 0.4035645
vt 0.5625 0.4035645
vt 0.5625 0.3425293
vt 0.5214844 0.3425293
vt 0.5214844 0.3640137
vt 0.5625 0.3806152
vt 0.5625 0.4035645
vt 0.5214844 0.4035645
vt 0.5625 0.4035645
vt 0.59375 0.4035645
vt 0.59375 0.3828125
vt 0.5625 0.3828125
vt 0.5625 0.3442383
vt 0.59375 0.3442383
vt 0.6030273 0.3276367
vt 0.5664063 0.3276367
vt 0.5664063 0.361084
vt 0.6030273 0.3464355
vt 0.6030273 0.3815918
vt 0.5664063 0.3815918
vt 0.5654297 0.3205566
vt 0.5654297 0.3510742
vt 0.6044922 0.3510742
vt 0.6044922 0.3205566
vt 0.5654297 0.3203125
vt 0.5654297 0.3510742
vt 0.6049805 0.3510742
vt 0.6049805 0.3203125

g Straw2_(5)_1356_34
usemtl Straw2_(5)_1356_34
usemap Straw2_(5)_1356_34
f 1/1/1 3/3/3 2/2/2
f 1/1/1 4/4/4 3/3/3
f 3/3/3 4/4/4 5/5/5
f 3/3/3 5/5/5 6/6/6
f 7/7/7 9/9/9 8/8/8
f 7/7/7 10/10/10 9/9/9
f 9/9/9 10/10/10 11/11/11
f 9/9/9 11/11/11 12/12/12
f 13/13/13 15/15/15 14/14/14
f 13/13/13 16/16/16 15/15/15
f 15/15/15 16/16/16 17/17/17
f 15/15/15 17/17/17 18/18/18
f 19/19/19 21/21/21 20/20/20
f 19/19/19 22/22/22 21/21/21
f 21/21/21 22/22/22 23/23/23
f 21/21/21 23/23/23 24/24/24
f 25/25/25 27/27/27 26/26/26
f 25/25/25 28/28/28 27/27/27
f 29/29/29 31/31/31 30/30/30
f 29/29/29 32/32/32 31/31/31
