#Streetlight_el4_955_276.obj

v -0.07794732 -0.03033331 -0.03810346
v -0.8046433 0.1685808 -0.03810341
v -0.8046432 0.1685808 0.03810373
v -0.07794715 -0.03033331 0.03810367
v -1.488193 0.2091533 0.03810368
v -1.488193 0.2091533 -0.03810346
v -0.07794715 -0.03033331 0.03810367
v -0.8046432 0.1685808 0.03810373
v -0.8046432 0.2447874 0.03810373
v -0.07794715 0.04587329 0.03810367
v -1.479296 0.2848392 0.03810366
v -1.488193 0.2091533 0.03810368
v -0.07794715 0.04587329 0.03810367
v -0.8046432 0.2447874 0.03810373
v -0.8046433 0.2447874 -0.03810314
v -0.07794732 0.04587329 -0.03810319
v -1.479296 0.2848392 -0.03810321
v -1.479296 0.2848392 0.03810366
v -0.07794732 0.04587329 -0.03810319
v -0.8046433 0.2447874 -0.03810314
v -0.8046433 0.1685808 -0.03810341
v -0.07794732 -0.03033331 -0.03810346
v -1.488193 0.2091533 -0.03810346
v -1.479296 0.2848392 -0.03810321
v -1.583478 0.05499249 0.276595
v -1.40393 0.05499249 0.07807641
v -1.40393 0.05499249 -0.06798341
v -1.583479 0.05499249 -0.266502
v -2.43929 0.05499249 0.362694
v -2.439289 0.05499249 -0.3526008
v -2.618839 0.05499249 -0.1902092
v -2.618838 0.05499249 0.2003021
v -2.618838 0.05499249 0.2003021
v -2.618839 0.05499249 -0.1902092
v -2.618839 0.3312125 -0.1902092
v -2.618838 0.3312125 0.2003021
v -2.438942 0.4974922 -0.1712054
v -2.438941 0.4974922 0.1812984
v -1.583827 0.4301134 0.09526949
v -1.583828 0.4301134 -0.08517674
v -2.43929 0.3165108 0.362694
v -2.43929 0.05499249 0.362694
v -1.583478 0.05499249 0.276595
v -1.583478 0.2490774 0.276595
v -1.40393 0.2354838 -0.06798341
v -1.40393 0.2354838 0.07807641
v -1.40393 0.05499249 -0.06798341
v -1.40393 0.05499249 0.07807641
v -2.439289 0.05499249 -0.3526008
v -2.439289 0.3165108 -0.3526008
v -1.583479 0.2490774 -0.266502
v -1.583479 0.05499249 -0.266502

vn -0.2061097 -0.7529873 -0.6249231
vn -0.1153867 -0.6794783 -0.7245655
vn -0.1153902 -0.6794792 0.7245641
vn -0.2061128 -0.7529879 0.6249215
vn -0.04284369 -0.7217934 0.6907812
vn -0.04284044 -0.7217926 -0.6907822
vn -0.2061128 -0.7529879 0.6249215
vn -0.1153902 -0.6794792 0.7245641
vn 0.1237067 0.7254527 0.6770635
vn 0.1750855 0.6396477 0.7484623
vn 0.0410363 0.6912717 0.7214288
vn -0.04284369 -0.7217934 0.6907812
vn 0.1750855 0.6396477 0.7484623
vn 0.1237067 0.7254527 0.6770635
vn 0.1237099 0.7254535 -0.6770622
vn 0.1750893 0.6396486 -0.7484607
vn 0.04103971 0.6912726 -0.7214277
vn 0.0410363 0.6912717 0.7214288
vn 0.1750893 0.6396486 -0.7484607
vn 0.1237099 0.7254535 -0.6770622
vn -0.1153867 -0.6794783 -0.7245655
vn -0.2061097 -0.7529873 -0.6249231
vn -0.04284044 -0.7217926 -0.6907822
vn 0.04103971 0.6912726 -0.7214277
vn 0 -1 0
vn 0 -1 0
vn 0 -1 0
vn 0 -1 0
vn 0 -1 0
vn 0 -1 0
vn 0 -1 0
vn 0 -1 0
vn -0.952815 0 0.3035517
vn -0.9528136 0 -0.3035561
vn -0.9171395 0.3156304 -0.2433777
vn -0.9171405 0.3156305 0.2433735
vn -0.05914244 0.9361223 -0.3466659
vn -0.05914406 0.9361223 0.3466656
vn 0.1904041 0.9182879 0.347122
vn 0.1904057 0.9182879 -0.3471211
vn -0.01843353 0.3802676 0.9246927
vn -0.09839456 0 0.9951475
vn 0.2411271 0 0.9704936
vn 0.2176077 0.3735956 0.9017057
vn 0.8749332 0.3257577 -0.3582931
vn 0.8749315 0.3257576 0.3582971
vn 0.8838631 0 -0.4677456
vn 0.8838609 0 0.4677497
vn -0.09838994 0 -0.9951479
vn -0.01842921 0.3802677 -0.9246929
vn 0.2176119 0.3735957 -0.9017047
vn 0.2411316 0 -0.9704925

vt 0.3537598 0.1184692
vt 0.3537598 0.1903076
vt 0.3608398 0.1903076
vt 0.3608398 0.1184692
vt 0.3608398 0.2573242
vt 0.3540039 0.2573242
vt 0.3608398 0.1184692
vt 0.3608398 0.1903076
vt 0.3679199 0.1903076
vt 0.3679199 0.1184692
vt 0.3679199 0.2573242
vt 0.3608398 0.2573242
vt 0.3679199 0.1184692
vt 0.3679199 0.1903076
vt 0.375 0.1903076
vt 0.375 0.1184692
vt 0.375 0.2573242
vt 0.3679199 0.2573242
vt 0.375 0.1184692
vt 0.375 0.1903076
vt 0.3818359 0.1903076
vt 0.3818359 0.1184692
vt 0.3818359 0.2573242
vt 0.375 0.2573242
vt 0.3574219 0.9887695
vt 0.3691406 0.9755859
vt 0.3691406 0.9658203
vt 0.3574219 0.953125
vt 0.3012695 0.9941406
vt 0.3012695 0.9472656
vt 0.2895508 0.9580078
vt 0.2895508 0.9833984
vt 0.1895752 0.9443359
vt 0.1893311 0.9794922
vt 0.2025146 0.9726563
vt 0.2020264 0.9516602
vt 0.2139893 0.9697266
vt 0.213623 0.9541016
vt 0.2568359 0.9575195
vt 0.2568359 0.9663086
vt 0.2109375 0.9418945
vt 0.2059326 0.9291992
vt 0.2670898 0.9355469
vt 0.2607422 0.9448242
vt 0.2714844 0.9663086
vt 0.2712402 0.9575195
vt 0.2807617 0.9682617
vt 0.2810059 0.9555664
vt 0.2059326 0.9946289
vt 0.2111816 0.9819336
vt 0.2607422 0.9790039
vt 0.2670898 0.9882813

g Streetlight_el4_955_276
usemtl Streetlight_el4_955_276
usemap Streetlight_el4_955_276
f 1/1/1 3/3/3 2/2/2
f 1/1/1 4/4/4 3/3/3
f 2/2/2 3/3/3 5/5/5
f 2/2/2 5/5/5 6/6/6
f 7/7/7 9/9/9 8/8/8
f 7/7/7 10/10/10 9/9/9
f 8/8/8 9/9/9 11/11/11
f 8/8/8 11/11/11 12/12/12
f 13/13/13 15/15/15 14/14/14
f 13/13/13 16/16/16 15/15/15
f 14/14/14 15/15/15 17/17/17
f 14/14/14 17/17/17 18/18/18
f 19/19/19 21/21/21 20/20/20
f 19/19/19 22/22/22 21/21/21
f 20/20/20 21/21/21 23/23/23
f 20/20/20 23/23/23 24/24/24
f 25/25/25 27/27/27 26/26/26
f 25/25/25 28/28/28 27/27/27
f 29/29/29 28/28/28 25/25/25
f 29/29/29 30/30/30 28/28/28
f 31/31/31 30/30/30 29/29/29
f 31/31/31 29/29/29 32/32/32
f 33/33/33 35/35/35 34/34/34
f 33/33/33 36/36/36 35/35/35
f 36/36/36 37/37/37 35/35/35
f 36/36/36 38/38/38 37/37/37
f 39/39/39 37/37/37 38/38/38
f 39/39/39 40/40/40 37/37/37
f 41/41/41 36/36/36 33/33/33
f 38/38/38 36/36/36 41/41/41
f 41/41/41 33/33/33 42/42/42
f 43/43/43 41/41/41 42/42/42
f 43/43/43 44/44/44 41/41/41
f 38/38/38 44/44/44 39/39/39
f 38/38/38 41/41/41 44/44/44
f 39/39/39 45/45/45 40/40/40
f 39/39/39 46/46/46 45/45/45
f 46/46/46 44/44/44 43/43/43
f 46/46/46 39/39/39 44/44/44
f 47/47/47 45/45/45 46/46/46
f 47/47/47 46/46/46 48/48/48
f 46/46/46 43/43/43 48/48/48
f 35/35/35 49/49/49 34/34/34
f 35/35/35 50/50/50 49/49/49
f 50/50/50 37/37/37 40/40/40
f 50/50/50 35/35/35 37/37/37
f 49/49/49 50/50/50 51/51/51
f 50/50/50 40/40/40 51/51/51
f 51/51/51 45/45/45 47/47/47
f 45/45/45 51/51/51 40/40/40
f 49/49/49 51/51/51 52/52/52
f 51/51/51 47/47/47 52/52/52
