#Streetlight_el4_952_271.obj

v -0.07794878 -0.03033331 -0.03810915
v -0.8046411 0.1685808 -0.0381088
v -0.8046438 0.1685808 0.03809811
v -0.07794702 -0.03033331 0.03809774
v -1.488192 0.2091533 0.0380986
v -1.488193 0.2091533 -0.03810829
v -0.07794702 -0.03033331 0.03809774
v -0.8046438 0.1685808 0.03809811
v -0.8046438 0.2447874 0.03809811
v -0.07794702 0.04587329 0.03809774
v -1.479297 0.2848392 0.03809744
v -1.488192 0.2091533 0.0380986
v -0.07794702 0.04587329 0.03809774
v -0.8046438 0.2447874 0.03809811
v -0.8046411 0.2447874 -0.0381088
v -0.07794878 0.04587329 -0.03810915
v -1.479299 0.2848392 -0.03810945
v -1.479297 0.2848392 0.03809744
v -0.07794878 0.04587329 -0.03810915
v -0.8046411 0.2447874 -0.0381088
v -0.8046411 0.1685808 -0.0381088
v -0.07794878 -0.03033331 -0.03810915
v -1.488193 0.2091533 -0.03810829
v -1.479299 0.2848392 -0.03810945
v -1.583477 0.05499249 0.2765886
v -1.403929 0.05499249 0.07807034
v -1.403928 0.05499249 -0.06799035
v -1.583477 0.05499249 -0.2665073
v -2.439289 0.05499249 0.3626888
v -2.439288 0.05499249 -0.3526073
v -2.618838 0.05499249 -0.1902145
v -2.618837 0.05499249 0.2002973
v -2.618837 0.05499249 0.2002973
v -2.618838 0.05499249 -0.1902145
v -2.618838 0.3312125 -0.1902145
v -2.618837 0.3312125 0.2002973
v -2.438941 0.4974922 -0.1712124
v -2.438943 0.4974922 0.181292
v -1.583829 0.4301134 0.09526359
v -1.583829 0.4301134 -0.08518254
v -2.439289 0.3165108 0.3626888
v -2.439289 0.05499249 0.3626888
v -1.583477 0.05499249 0.2765886
v -1.583477 0.2490774 0.2765886
v -1.403928 0.2354838 -0.06799035
v -1.403929 0.2354838 0.07807034
v -1.403928 0.05499249 -0.06799035
v -1.403929 0.05499249 0.07807034
v -2.439288 0.05499249 -0.3526073
v -2.439288 0.3165108 -0.3526073
v -1.583477 0.2490774 -0.2665073
v -1.583477 0.05499249 -0.2665073

vn -0.2043415 -0.7529873 -0.6255035
vn -0.113337 -0.6794783 -0.7248889
vn -0.117439 -0.6794792 0.7242348
vn -0.2078793 -0.7529879 0.6243361
vn -0.04479719 -0.7217934 0.6906573
vn -0.04088658 -0.7217926 -0.6909006
vn -0.2078793 -0.7529879 0.6243361
vn -0.117439 -0.6794792 0.7242348
vn 0.1217913 0.7254527 0.6774106
vn 0.172968 0.6396477 0.7489545
vn 0.03899579 0.6912717 0.7215419
vn -0.04479719 -0.7217934 0.6906573
vn 0.172968 0.6396477 0.7489545
vn 0.1217913 0.7254527 0.6774106
vn 0.1256243 0.7254535 -0.6767095
vn 0.1772054 0.6396486 -0.7479624
vn 0.04307989 0.6912726 -0.7213088
vn 0.03899579 0.6912717 0.7215419
vn 0.1772054 0.6396486 -0.7479624
vn 0.1256243 0.7254535 -0.6767095
vn -0.113337 -0.6794783 -0.7248889
vn -0.2043415 -0.7529873 -0.6255035
vn -0.04088658 -0.7217926 -0.6909006
vn 0.04307989 0.6912726 -0.7213088
vn 0 -1 0
vn 0 -1 0
vn 0 -1 0
vn 0 -1 0
vn 0 -1 0
vn 0 -1 0
vn 0 -1 0
vn 0 -1 0
vn -0.9536696 0 0.3008557
vn -0.9519512 0 -0.3062496
vn -0.9164474 0.3156304 -0.2459706
vn -0.9178252 0.3156305 0.2407786
vn -0.05816176 0.9361223 -0.3468318
vn -0.06012427 0.9361223 0.3464969
vn 0.1894216 0.9182879 0.3476591
vn 0.1913866 0.9182879 -0.3465813
vn -0.02104868 0.3802676 0.9246369
vn -0.1012086 0 0.9948652
vn 0.2383813 0 0.9711716
vn 0.2150566 0.3735956 0.9023176
vn 0.875943 0.3257577 -0.3558171
vn 0.8739147 0.3257576 0.3607701
vn 0.8851824 0 -0.465244
vn 0.8825344 0 0.4702476
vn -0.09557505 0 -0.9954221
vn -0.01581392 0.3802677 -0.9247412
vn 0.2201612 0.3735957 -0.9010856
vn 0.2438754 0 -0.9698066

vt 0.3537598 0.1184692
vt 0.3537598 0.1903076
vt 0.3608398 0.1903076
vt 0.3608398 0.1184692
vt 0.3608398 0.2573242
vt 0.3540039 0.2573242
vt 0.3608398 0.1184692
vt 0.3608398 0.1903076
vt 0.3679199 0.1903076
vt 0.3679199 0.1184692
vt 0.3679199 0.2573242
vt 0.3608398 0.2573242
vt 0.3679199 0.1184692
vt 0.3679199 0.1903076
vt 0.375 0.1903076
vt 0.375 0.1184692
vt 0.375 0.2573242
vt 0.3679199 0.2573242
vt 0.375 0.1184692
vt 0.375 0.1903076
vt 0.3818359 0.1903076
vt 0.3818359 0.1184692
vt 0.3818359 0.2573242
vt 0.375 0.2573242
vt 0.3574219 0.9887695
vt 0.3691406 0.9755859
vt 0.3691406 0.9658203
vt 0.3574219 0.953125
vt 0.3012695 0.9941406
vt 0.3012695 0.9472656
vt 0.2895508 0.9580078
vt 0.2895508 0.9833984
vt 0.1895752 0.9443359
vt 0.1893311 0.9794922
vt 0.2025146 0.9726563
vt 0.2020264 0.9516602
vt 0.2139893 0.9697266
vt 0.213623 0.9541016
vt 0.2568359 0.9575195
vt 0.2568359 0.9663086
vt 0.2109375 0.9418945
vt 0.2059326 0.9291992
vt 0.2670898 0.9355469
vt 0.2607422 0.9448242
vt 0.2714844 0.9663086
vt 0.2712402 0.9575195
vt 0.2807617 0.9682617
vt 0.2810059 0.9555664
vt 0.2059326 0.9946289
vt 0.2111816 0.9819336
vt 0.2607422 0.9790039
vt 0.2670898 0.9882813

g Streetlight_el4_952_271
usemtl Streetlight_el4_952_271
usemap Streetlight_el4_952_271
f 1/1/1 3/3/3 2/2/2
f 1/1/1 4/4/4 3/3/3
f 2/2/2 3/3/3 5/5/5
f 2/2/2 5/5/5 6/6/6
f 7/7/7 9/9/9 8/8/8
f 7/7/7 10/10/10 9/9/9
f 8/8/8 9/9/9 11/11/11
f 8/8/8 11/11/11 12/12/12
f 13/13/13 15/15/15 14/14/14
f 13/13/13 16/16/16 15/15/15
f 14/14/14 15/15/15 17/17/17
f 14/14/14 17/17/17 18/18/18
f 19/19/19 21/21/21 20/20/20
f 19/19/19 22/22/22 21/21/21
f 20/20/20 21/21/21 23/23/23
f 20/20/20 23/23/23 24/24/24
f 25/25/25 27/27/27 26/26/26
f 25/25/25 28/28/28 27/27/27
f 29/29/29 28/28/28 25/25/25
f 29/29/29 30/30/30 28/28/28
f 31/31/31 30/30/30 29/29/29
f 31/31/31 29/29/29 32/32/32
f 33/33/33 35/35/35 34/34/34
f 33/33/33 36/36/36 35/35/35
f 36/36/36 37/37/37 35/35/35
f 36/36/36 38/38/38 37/37/37
f 39/39/39 37/37/37 38/38/38
f 39/39/39 40/40/40 37/37/37
f 41/41/41 36/36/36 33/33/33
f 38/38/38 36/36/36 41/41/41
f 41/41/41 33/33/33 42/42/42
f 43/43/43 41/41/41 42/42/42
f 43/43/43 44/44/44 41/41/41
f 38/38/38 44/44/44 39/39/39
f 38/38/38 41/41/41 44/44/44
f 39/39/39 45/45/45 40/40/40
f 39/39/39 46/46/46 45/45/45
f 46/46/46 44/44/44 43/43/43
f 46/46/46 39/39/39 44/44/44
f 47/47/47 45/45/45 46/46/46
f 47/47/47 46/46/46 48/48/48
f 46/46/46 43/43/43 48/48/48
f 35/35/35 49/49/49 34/34/34
f 35/35/35 50/50/50 49/49/49
f 50/50/50 37/37/37 40/40/40
f 50/50/50 35/35/35 37/37/37
f 49/49/49 50/50/50 51/51/51
f 50/50/50 40/40/40 51/51/51
f 51/51/51 45/45/45 47/47/47
f 45/45/45 51/51/51 40/40/40
f 49/49/49 51/51/51 52/52/52
f 51/51/51 47/47/47 52/52/52
