#Streetlight1B_1165_438.obj

v 0.1600933 -0.2264057 -0.2772903
v 0.1264343 0.2264057 -0.2189903
v -0.1264343 0.2264057 -0.2189903
v -0.1600933 -0.2264057 -0.2772903
v -0.2528667 0.2264057 0
v -0.3201866 -0.2264057 0
v -0.1264343 0.2264057 0.2189903
v -0.1600933 -0.2264057 0.2772903
v 0.1264343 0.2264057 0.2189903
v 0.1600933 -0.2264057 0.2772903
v 0.2528667 0.2264057 0
v 0.3201866 -0.2264057 0
v 0.1264343 0.2264057 -0.2189903
v 0.1600933 -0.2264057 -0.2772903
v -0.2528667 0.2264057 0
v -0.1264343 0.2264057 -0.2189903
v 0.1264343 0.2264057 -0.2189903
v 0.2528667 0.2264057 0
v -0.1264343 0.2264057 0.2189903
v 0.1264343 0.2264057 0.2189903
v 0.04443741 0.1890754 -0.1367645
v 0.04443741 6.793635 -0.1367645
v -0.1163387 6.793635 -0.08452606
v -0.1163387 0.1890754 -0.08452606
v -0.1163387 6.793635 0.08452606
v -0.1163387 0.1890754 0.08452606
v 0.04443741 6.793635 0.1367645
v 0.04443741 0.1890754 0.1367645
v 0.1438046 6.793635 0
v 0.1438046 0.1890754 0
v 0.04443741 6.793635 -0.1367645
v 0.04443741 0.1890754 -0.1367645
v 0.2039299 6.79384 0.1177368
v 0.2039299 6.974668 0.1177368
v 0.2039299 6.974668 -0.1177368
v 0.2039299 6.79384 -0.1177368
v 0 6.974668 -0.2354774
v 0 6.79384 -0.2354774
v -0.2039299 6.974668 -0.1177368
v -0.2039299 6.79384 -0.1177368
v -0.2039299 6.974668 0.1177368
v -0.2039299 6.79384 0.1177368
v 0 6.974668 0.2354774
v 0 6.79384 0.2354774
v 0.2039299 6.974668 0.1177368
v 0.2039299 6.79384 0.1177368
v 0.2039299 6.79384 -0.1177368
v 0 6.79384 -0.2354774
v -0.2039299 6.79384 -0.1177368
v -0.2039299 6.79384 0.1177368
v 0.2039299 6.79384 0.1177368
v 0 6.79384 0.2354774
v -0.2039299 6.974668 -0.1177368
v 0 6.974668 -0.2354774
v 0.2039299 6.974668 -0.1177368
v -0.2039299 6.974668 0.1177368
v 0.2039299 6.974668 0.1177368
v 0 6.974668 0.2354774

vn 0.4945644 0.1470522 -0.8566106
vn 0.4945644 0.1470522 -0.8566106
vn -0.4945642 0.1470522 -0.8566107
vn -0.4945642 0.1470522 -0.8566107
vn -0.9891287 0.1470522 0
vn -0.9891287 0.1470522 0
vn -0.4945645 0.1470522 0.8566105
vn -0.4945644 0.1470522 0.8566105
vn 0.4945643 0.1470522 0.8566107
vn 0.4945643 0.1470522 0.8566107
vn 0.9891287 0.1470522 0
vn 0.9891287 0.1470522 0
vn 0.4945644 0.1470522 -0.8566106
vn 0.4945644 0.1470522 -0.8566106
vn 0 1 0
vn 0 1 0
vn 0 1 0
vn 0 1 0
vn 0 1 0
vn 0 1 0
vn 0.3090171 0 -0.9510565
vn 0.3090171 0 -0.9510565
vn -0.8090169 0 -0.5877852
vn -0.8090169 0 -0.5877852
vn -0.809017 0 0.5877852
vn -0.809017 0 0.5877852
vn 0.3090169 0 0.9510565
vn 0.3090169 0 0.9510565
vn 1 0 0
vn 1 0 0
vn 0.3090171 0 -0.9510565
vn 0.3090171 0 -0.9510565
vn 0.8660256 0 0.4999996
vn 0.8660256 0 0.4999996
vn 0.8660251 0 -0.5000004
vn 0.8660251 0 -0.5000004
vn 0 0 -1
vn 0 0 -1
vn -0.866025 0 -0.5000007
vn -0.866025 0 -0.5000007
vn -0.866025 0 0.5000006
vn -0.866025 0 0.5000006
vn 0 0 1
vn 0 0 1
vn 0.8660256 0 0.4999996
vn 0.8660256 0 0.4999996
vn 0 -1 0
vn 0 -1 0
vn 0 -1 0
vn 0 -1 0
vn 0 -1 0
vn 0 -1 0
vn 0 1 0
vn 0 1 0
vn 0 1 0
vn 0 1 0
vn 0 1 0
vn 0 1 0

vt 0.2521973 0.1381836
vt 0.2521973 0.168457
vt 0.2302246 0.168457
vt 0.2302246 0.1381836
vt 0.2081299 0.168457
vt 0.2081299 0.1381836
vt 0.1860352 0.168457
vt 0.1860352 0.1381836
vt 0.1638184 0.168457
vt 0.1638184 0.1381836
vt 0.1417236 0.168457
vt 0.1417236 0.1381836
vt 0.1196289 0.168457
vt 0.1196289 0.1381836
vt 0.1362305 0.04544067
vt 0.1542969 0.03497314
vt 0.1542969 0.01409149
vt 0.1362305 0.003643036
vt 0.1181641 0.03497314
vt 0.1181641 0.01409149
vt 0.2666016 0.005847931
vt 0.2670898 0.4953613
vt 0.2824707 0.4953613
vt 0.2822266 0.005847931
vt 0.2978516 0.4953613
vt 0.2976074 0.005844116
vt 0.3132324 0.4953613
vt 0.3129883 0.005840302
vt 0.3286133 0.4953613
vt 0.3283691 0.005836487
vt 0.3439941 0.4953613
vt 0.34375 0.005832672
vt 0.119751 0.1060791
vt 0.119751 0.1314697
vt 0.1417236 0.1314697
vt 0.1417236 0.1060791
vt 0.1638184 0.1314697
vt 0.1638184 0.1060791
vt 0.185791 0.1314697
vt 0.185791 0.1060791
vt 0.2077637 0.1314697
vt 0.2077637 0.1060791
vt 0.2298584 0.1314697
vt 0.2298584 0.1060791
vt 0.251709 0.1314697
vt 0.251709 0.1060791
vt 0.163208 0.02708435
vt 0.1765137 0.03475952
vt 0.1898193 0.02708435
vt 0.1898193 0.01171875
vt 0.163208 0.01171875
vt 0.1765137 0.004032135
vt 0.1262207 0.09020996
vt 0.1395264 0.09790039
vt 0.152832 0.09020996
vt 0.1262207 0.0748291
vt 0.152832 0.0748291
vt 0.1395264 0.06719971

g Streetlight1B_1165_438
usemtl Streetlight1B_1165_438
usemap Streetlight1B_1165_438
f 1/1/1 3/3/3 2/2/2
f 1/1/1 4/4/4 3/3/3
f 4/4/4 5/5/5 3/3/3
f 4/4/4 6/6/6 5/5/5
f 6/6/6 7/7/7 5/5/5
f 6/6/6 8/8/8 7/7/7
f 8/8/8 9/9/9 7/7/7
f 8/8/8 10/10/10 9/9/9
f 10/10/10 11/11/11 9/9/9
f 10/10/10 12/12/12 11/11/11
f 12/12/12 13/13/13 11/11/11
f 12/12/12 14/14/14 13/13/13
f 15/15/15 17/17/17 16/16/16
f 17/17/17 15/15/15 18/18/18
f 18/18/18 15/15/15 19/19/19
f 18/18/18 19/19/19 20/20/20
f 21/21/21 23/23/23 22/22/22
f 21/21/21 24/24/24 23/23/23
f 24/24/24 25/25/25 23/23/23
f 24/24/24 26/26/26 25/25/25
f 26/26/26 27/27/27 25/25/25
f 26/26/26 28/28/28 27/27/27
f 28/28/28 29/29/29 27/27/27
f 28/28/28 30/30/30 29/29/29
f 30/30/30 31/31/31 29/29/29
f 30/30/30 32/32/32 31/31/31
f 33/33/33 35/35/35 34/34/34
f 33/33/33 36/36/36 35/35/35
f 36/36/36 37/37/37 35/35/35
f 36/36/36 38/38/38 37/37/37
f 38/38/38 39/39/39 37/37/37
f 38/38/38 40/40/40 39/39/39
f 40/40/40 41/41/41 39/39/39
f 40/40/40 42/42/42 41/41/41
f 42/42/42 43/43/43 41/41/41
f 42/42/42 44/44/44 43/43/43
f 44/44/44 45/45/45 43/43/43
f 44/44/44 46/46/46 45/45/45
f 47/47/47 49/49/49 48/48/48
f 49/49/49 47/47/47 50/50/50
f 50/50/50 47/47/47 51/51/51
f 50/50/50 51/51/51 52/52/52
f 53/53/53 55/55/55 54/54/54
f 55/55/55 53/53/53 56/56/56
f 55/55/55 56/56/56 57/57/57
f 57/57/57 56/56/56 58/58/58
