#Streetlight_el1B_2123_200.obj

v 1.285209 -0.253819 0.1591892
v 0.7147839 -0.253819 0.1591892
v 0.7147839 0.3166056 0.1591892
v 1.285209 0.3166056 0.1591892
v 1.285209 0.3166056 0.1591892
v 0.7147839 0.3166056 0.1591892
v 0.7147839 0.3166056 -0.1591892
v 1.285209 0.3166056 -0.1591892
v 1.285209 0.3166056 -0.1591892
v 0.7147839 0.3166056 -0.1591892
v 0.7147839 -0.253819 -0.1591892
v 1.285209 -0.253819 -0.1591892
v 1.285209 -0.253819 -0.1591892
v 0.7147839 -0.253819 -0.1591892
v 0.7147839 -0.253819 0.1591892
v 1.285209 -0.253819 0.1591892
v 0.7147839 -0.253819 0.1591892
v 0.7147839 -0.253819 -0.1591892
v 0.7147839 0.3166056 -0.1591892
v 0.7147839 0.3166056 0.1591892
v 1.285209 -0.253819 -0.1591892
v 1.285209 -0.253819 0.1591892
v 1.285209 0.3166056 0.1591892
v 1.285209 0.3166056 -0.1591892
v 0.9115479 -0.3947351 0.05106544
v 0.9115479 -0.3947351 -0.05106544
v 0.9115479 0.426513 -0.05106544
v 0.9115479 0.426513 0.05106544
v 0.9999964 0.426513 -0.1021309
v 0.9999964 -0.3947351 -0.1021309
v 1.088445 0.426513 -0.05106544
v 1.088445 -0.3947351 -0.05106544
v 1.088445 0.426513 0.05106544
v 1.088445 -0.3947351 0.05106544
v 0.9999964 0.426513 0.1021309
v 0.9999964 -0.3947351 0.1021309
v 0.9115479 0.426513 0.05106544
v 0.9115479 -0.3947351 0.05106544
v 1.088445 -0.3947351 -0.05106544
v 0.9999964 -0.3947351 -0.1021309
v 0.9115479 -0.3947351 -0.05106544
v 1.088445 -0.3947351 0.05106544
v 0.9115479 -0.3947351 0.05106544
v 0.9999964 -0.3947351 0.1021309
v 0.9115479 0.426513 -0.05106544
v 0.9999964 0.426513 -0.1021309
v 1.088445 0.426513 -0.05106544
v 1.088445 0.426513 0.05106544
v 0.9115479 0.426513 0.05106544
v 0.9999964 0.426513 0.1021309
v 0.1002371 0.3316348 -0.03365707
v 0.1002371 0.3316348 0.03365707
v 1.042859 0.3316348 0.03365707
v 1.042859 0.3316348 -0.03365707
v 1.042859 0.3989506 0.03365707
v 0.1002371 0.3989506 0.03365707
v 1.042859 0.3989506 -0.03365707
v 0.1002371 0.3989506 -0.03365707
v 1.042859 0.3316348 -0.03365707
v 0.1002371 0.3316348 -0.03365707
v 0.1002371 -0.3657801 -0.03365707
v 0.1002371 -0.3657801 0.03365707
v 1.042859 -0.3657801 0.03365707
v 1.042859 -0.3657801 -0.03365707
v 1.042859 -0.2984643 0.03365707
v 0.1002371 -0.2984643 0.03365707
v 1.042859 -0.2984643 -0.03365707
v 0.1002371 -0.2984643 -0.03365707
v 1.042859 -0.3657801 -0.03365707
v 0.1002371 -0.3657801 -0.03365707

vn 0 0 1
vn 0 0 1
vn 0 0 1
vn 0 0 1
vn 0 1 0
vn 0 1 0
vn 0 1 0
vn 0 1 0
vn 0 0 -1
vn 0 0 -1
vn 0 0 -1
vn 0 0 -1
vn 0 -1 0
vn 0 -1 0
vn 0 -1 0
vn 0 -1 0
vn -1 0 0
vn -1 0 0
vn -1 0 0
vn -1 0 0
vn 1 0 0
vn 1 0 0
vn 1 0 0
vn 1 0 0
vn -0.8660254 0 0.5000004
vn -0.8660258 0 -0.4999998
vn -0.8660258 0 -0.4999998
vn -0.8660254 0 0.5000004
vn 0 0 -1
vn 0 0 -1
vn 0.8660255 0 -0.5000003
vn 0.8660255 0 -0.5000003
vn 0.8660255 0 0.5000003
vn 0.8660255 0 0.5000003
vn 0 0 1
vn 0 0 1
vn -0.8660254 0 0.5000004
vn -0.8660254 0 0.5000004
vn 0 -1 0
vn 0 -1 0
vn 0 -1 0
vn 0 -1 0
vn 0 -1 0
vn 0 -1 0
vn 0 1 0
vn 0 1 0
vn 0 1 0
vn 0 1 0
vn 0 1 0
vn 0 1 0
vn 0 -0.7071049 -0.7071089
vn 0 -0.7071057 0.7071081
vn 0 -0.7071057 0.7071081
vn 0 -0.7071049 -0.7071089
vn 0 0.7071049 0.7071089
vn 0 0.7071049 0.7071089
vn 0 0.7071057 -0.7071081
vn 0 0.7071057 -0.7071081
vn 0 -0.7071049 -0.7071089
vn 0 -0.7071049 -0.7071089
vn 0 -0.7071062 -0.7071075
vn 0 -0.707107 0.7071067
vn 0 -0.707107 0.7071067
vn 0 -0.7071062 -0.7071075
vn 0 0.7071062 0.7071075
vn 0 0.7071062 0.7071075
vn 0 0.707107 -0.7071067
vn 0 0.707107 -0.7071067
vn 0 -0.7071062 -0.7071075
vn 0 -0.7071062 -0.7071075

vt 0.1243896 0.2268066
vt 0.1713867 0.2268066
vt 0.1713867 0.2739258
vt 0.1243896 0.2739258
vt 0.2337646 0.3273926
vt 0.2337646 0.2844238
vt 0.2578125 0.2844238
vt 0.2578125 0.3273926
vt 0.1242676 0.3278809
vt 0.1242676 0.2807617
vt 0.1713867 0.2807617
vt 0.1713867 0.3278809
vt 0.2578125 0.1983643
vt 0.2578125 0.241333
vt 0.2337646 0.241333
vt 0.2337646 0.1983643
vt 0.2337646 0.241333
vt 0.2578125 0.241333
vt 0.2578125 0.2844238
vt 0.2337646 0.2844238
vt 0.2578125 0.2414551
vt 0.2337646 0.2414551
vt 0.2337646 0.2844238
vt 0.2578125 0.2844238
vt 0.2192383 0.008056641
vt 0.2258301 0.008056641
vt 0.2258301 0.06231689
vt 0.2192383 0.06231689
vt 0.2325439 0.06231689
vt 0.2325439 0.008056641
vt 0.2392578 0.06231689
vt 0.2392578 0.008056641
vt 0.2458496 0.06231689
vt 0.2458496 0.008056641
vt 0.2524414 0.06231689
vt 0.2524414 0.008056641
vt 0.2590332 0.06231689
vt 0.2590332 0.008056641
vt 0.1832275 0.08081055
vt 0.1761475 0.0848999
vt 0.1689453 0.08081055
vt 0.1832275 0.0725708
vt 0.1689453 0.0725708
vt 0.1761475 0.06842041
vt 0.1291504 0.05795288
vt 0.1234131 0.0612793
vt 0.1176147 0.05795288
vt 0.1176147 0.05130005
vt 0.1291504 0.05130005
vt 0.1234131 0.04794312
vt 0.3537598 0.01206207
vt 0.3608398 0.01206207
vt 0.3608398 0.1175537
vt 0.3537598 0.1175537
vt 0.3679199 0.1175537
vt 0.3679199 0.01205444
vt 0.375 0.1175537
vt 0.375 0.01205444
vt 0.3818359 0.1175537
vt 0.3818359 0.01205444
vt 0.3537598 0.01206207
vt 0.3608398 0.01206207
vt 0.3608398 0.1175537
vt 0.3537598 0.1175537
vt 0.3679199 0.1175537
vt 0.3679199 0.01205444
vt 0.375 0.1175537
vt 0.375 0.01205444
vt 0.3818359 0.1175537
vt 0.3818359 0.01205444

g Streetlight_el1B_2123_200
usemtl Streetlight_el1B_2123_200
usemap Streetlight_el1B_2123_200
f 1/1/1 3/3/3 2/2/2
f 1/1/1 4/4/4 3/3/3
f 5/5/5 7/7/7 6/6/6
f 5/5/5 8/8/8 7/7/7
f 9/9/9 11/11/11 10/10/10
f 9/9/9 12/12/12 11/11/11
f 13/13/13 15/15/15 14/14/14
f 13/13/13 16/16/16 15/15/15
f 17/17/17 19/19/19 18/18/18
f 17/17/17 20/20/20 19/19/19
f 21/21/21 23/23/23 22/22/22
f 21/21/21 24/24/24 23/23/23
f 25/25/25 27/27/27 26/26/26
f 25/25/25 28/28/28 27/27/27
f 26/26/26 27/27/27 29/29/29
f 26/26/26 29/29/29 30/30/30
f 30/30/30 29/29/29 31/31/31
f 30/30/30 31/31/31 32/32/32
f 32/32/32 31/31/31 33/33/33
f 32/32/32 33/33/33 34/34/34
f 34/34/34 33/33/33 35/35/35
f 34/34/34 35/35/35 36/36/36
f 36/36/36 35/35/35 37/37/37
f 36/36/36 37/37/37 38/38/38
f 39/39/39 41/41/41 40/40/40
f 41/41/41 39/39/39 42/42/42
f 41/41/41 42/42/42 43/43/43
f 43/43/43 42/42/42 44/44/44
f 45/45/45 47/47/47 46/46/46
f 47/47/47 45/45/45 48/48/48
f 48/48/48 45/45/45 49/49/49
f 48/48/48 49/49/49 50/50/50
f 51/51/51 53/53/53 52/52/52
f 51/51/51 54/54/54 53/53/53
f 52/52/52 53/53/53 55/55/55
f 52/52/52 55/55/55 56/56/56
f 56/56/56 55/55/55 57/57/57
f 56/56/56 57/57/57 58/58/58
f 58/58/58 57/57/57 59/59/59
f 58/58/58 59/59/59 60/60/60
f 61/61/61 63/63/63 62/62/62
f 61/61/61 64/64/64 63/63/63
f 62/62/62 63/63/63 65/65/65
f 62/62/62 65/65/65 66/66/66
f 66/66/66 65/65/65 67/67/67
f 66/66/66 67/67/67 68/68/68
f 68/68/68 67/67/67 69/69/69
f 68/68/68 69/69/69 70/70/70
