#Streetlight_el3_2743_379.obj

v 0.07372388 -0.1334086 -0.2268944
v 0.07372392 0.08958147 -0.2268944
v -0.1930073 0.08958153 -0.1402283
v -0.1930074 -0.1334085 -0.1402283
v -0.1930073 0.08958153 0.1402283
v -0.1930074 -0.1334085 0.1402283
v 0.07372392 0.08958147 0.2268944
v 0.07372388 -0.1334086 0.2268944
v 0.2385723 0.08958144 0
v 0.2385722 -0.1334086 0
v 0.07372392 0.08958147 -0.2268944
v 0.07372388 -0.1334086 -0.2268944
v 0.2385722 -0.1334086 0
v 0.07372388 -0.1334086 -0.2268944
v -0.1930074 -0.1334085 -0.1402283
v -0.1930074 -0.1334085 0.1402283
v 0.07372388 -0.1334086 0.2268944
v -0.1930073 0.08958153 -0.1402283
v 0.07372392 0.08958147 -0.2268944
v 0.2385723 0.08958144 0
v -0.1930073 0.08958153 0.1402283
v 0.07372392 0.08958147 0.2268944
v -0.1600789 -0.07688615 -0.05374908
v -3.874873 -0.07688645 -0.05374908
v -3.874873 -0.07688645 0.05374908
v -0.1600789 -0.07688615 0.05374908
v -3.874873 0.03061458 0.05374908
v -0.1600789 0.03061488 0.05374908
v -3.874873 0.03061458 -0.05374908
v -0.1600789 0.03061488 -0.05374908
v -3.874873 -0.07688645 -0.05374908
v -0.1600789 -0.07688615 -0.05374908
v -3.874873 -0.07688645 -0.05374908
v -3.874873 0.03061458 -0.05374908
v -3.874873 0.03061458 0.05374908
v -3.874873 -0.07688645 0.05374908
v -3.25011 -1.412455 0.2736626
v -3.25011 -0.1380929 0.2736626
v -3.356647 -0.1380929 -0.2700615
v -3.356647 -1.412455 -0.2700615
v -3.25011 -0.1380929 0.2736626
v -3.907699 -0.1380933 0.2736626
v -3.801162 -0.1380933 -0.2700615
v -3.356647 -0.1380929 -0.2700615
v -3.907699 -0.1380933 0.2736626
v -3.907699 -1.412455 0.2736626
v -3.801158 -1.412455 -0.2700615
v -3.801162 -0.1380933 -0.2700615
v -3.907699 -1.412455 0.2736626
v -3.25011 -1.412455 0.2736626
v -3.356647 -1.412455 -0.2700615
v -3.801158 -1.412455 -0.2700615
v -3.356647 -1.412455 -0.2700615
v -3.356647 -0.1380929 -0.2700615
v -3.801162 -0.1380933 -0.2700615
v -3.801158 -1.412455 -0.2700615
v -3.907699 -1.412455 0.2736626
v -3.907699 -0.1380933 0.2736626
v -3.25011 -0.1380929 0.2736626
v -3.25011 -1.412455 0.2736626
v -3.648971 -0.2396482 -0.06826782
v -3.64897 0.2093627 -0.06826782
v -3.64897 0.2093627 0.0718689
v -3.648971 -0.2396482 0.0718689
v -3.508834 0.2093631 0.0718689
v -3.508834 -0.2396482 0.0718689
v -3.508834 0.2093631 -0.06826782
v -3.508834 -0.2396482 -0.06826782
v -3.64897 0.2093627 -0.06826782
v -3.648971 -0.2396482 -0.06826782
v -3.880435 -0.3898714 0.3867836
v -3.880435 -0.3898714 0.2459869
v -3.749366 -0.1700891 0.2459869
v -3.749366 -0.1700891 0.5869102
v -3.749366 -0.1700891 0.5869102
v -3.749366 -0.1700891 0.2459869
v -3.408439 -0.1700886 0.2459869
v -3.408439 -0.1700886 0.5869102
v -3.408439 -0.1700886 0.5869102
v -3.408439 -0.1700886 0.2459869
v -3.277373 -0.389871 0.2459831
v -3.277373 -0.389871 0.3867836
v -3.880435 -0.3898714 0.3867836
v -3.749366 -0.1700891 0.5869102
v -3.749366 -0.1700891 0.2459869
v -3.880435 -0.3898714 0.2459869
v -3.749366 -0.1700891 0.5869102
v -3.408439 -0.1700886 0.5869102
v -3.408439 -0.1700886 0.2459869
v -3.749366 -0.1700891 0.2459869
v -3.408439 -0.1700886 0.5869102
v -3.277373 -0.389871 0.3867836
v -3.277373 -0.389871 0.2459831
v -3.408439 -0.1700886 0.2459869
v -3.880435 -0.7998565 0.3867836
v -3.880435 -0.7998565 0.2459869
v -3.749366 -0.5800746 0.2459869
v -3.749366 -0.5800746 0.5869102
v -3.749366 -0.5800746 0.5869102
v -3.749366 -0.5800746 0.2459869
v -3.408439 -0.5800742 0.2459869
v -3.408439 -0.5800742 0.5869102
v -3.408439 -0.5800742 0.5869102
v -3.408439 -0.5800742 0.2459869
v -3.277373 -0.7998561 0.2459831
v -3.277373 -0.7998561 0.3867836
v -3.880435 -0.7998565 0.3867836
v -3.749366 -0.5800746 0.5869102
v -3.749366 -0.5800746 0.2459869
v -3.880435 -0.7998565 0.2459869
v -3.749366 -0.5800746 0.5869102
v -3.408439 -0.5800742 0.5869102
v -3.408439 -0.5800742 0.2459869
v -3.749366 -0.5800746 0.2459869
v -3.408439 -0.5800742 0.5869102
v -3.277373 -0.7998561 0.3867836
v -3.277373 -0.7998561 0.2459831
v -3.408439 -0.5800742 0.2459869
v -3.880435 -1.211982 0.3867836
v -3.880435 -1.211982 0.2459869
v -3.749366 -0.9922002 0.2459869
v -3.749366 -0.9922002 0.5869102
v -3.749366 -0.9922002 0.5869102
v -3.749366 -0.9922002 0.2459869
v -3.408439 -0.9922003 0.2459869
v -3.408439 -0.9922003 0.5869102
v -3.408439 -0.9922003 0.5869102
v -3.408439 -0.9922003 0.2459869
v -3.277373 -1.211982 0.2459831
v -3.277373 -1.211982 0.3867836
v -3.880435 -1.211982 0.3867836
v -3.749366 -0.9922002 0.5869102
v -3.749366 -0.9922002 0.2459869
v -3.880435 -1.211982 0.2459869
v -3.749366 -0.9922002 0.5869102
v -3.408439 -0.9922003 0.5869102
v -3.408439 -0.9922003 0.2459869
v -3.749366 -0.9922002 0.2459869
v -3.408439 -0.9922003 0.5869102
v -3.277373 -1.211982 0.3867836
v -3.277373 -1.211982 0.2459831
v -3.408439 -0.9922003 0.2459869
v -3.749083 0.1130196 -0.09645081
v -3.749083 0.2639148 -0.09645081
v -3.749083 0.2639148 0.1000557
v -3.749083 0.1130196 0.1000557
v -3.578902 0.2639152 0.198307
v -3.578902 0.1130201 0.198307
v -3.408725 0.2639152 0.1000557
v -3.408725 0.1130201 0.1000557
v -3.408725 0.2639152 -0.09645081
v -3.408725 0.1130201 -0.09645081
v -3.578902 0.2639171 -0.194706
v -3.578902 0.1130196 -0.194706
v -3.749083 0.2639148 -0.09645081
v -3.749083 0.1130196 -0.09645081
v -3.408725 0.1130201 -0.09645081
v -3.578902 0.1130196 -0.194706
v -3.749083 0.1130196 -0.09645081
v -3.408725 0.1130201 0.1000557
v -3.749083 0.1130196 0.1000557
v -3.578902 0.1130201 0.198307
v -3.749083 0.2639148 -0.09645081
v -3.578902 0.2639171 -0.194706
v -3.408725 0.2639152 -0.09645081
v -3.749083 0.2639148 0.1000557
v -3.408725 0.2639152 0.1000557
v -3.578902 0.2639152 0.198307

vn 0.309017 5.403025E-08 -0.9510565
vn 0.309017 5.403025E-08 -0.9510565
vn -0.8090172 -1.414531E-07 -0.5877849
vn -0.8090172 -1.414531E-07 -0.5877849
vn -0.8090167 -1.41453E-07 0.5877857
vn -0.8090167 -1.41453E-07 0.5877857
vn 0.3090168 5.403022E-08 0.9510565
vn 0.3090168 5.403022E-08 0.9510565
vn 1 1.748456E-07 0
vn 1 1.748456E-07 0
vn 0.309017 5.403025E-08 -0.9510565
vn 0.309017 5.403025E-08 -0.9510565
vn 1.748456E-07 -1 0
vn 1.748456E-07 -1 0
vn 1.748456E-07 -1 0
vn 1.748456E-07 -1 0
vn 1.748456E-07 -1 0
vn -1.748456E-07 1 0
vn -1.748456E-07 1 0
vn -1.748456E-07 1 0
vn -1.748456E-07 1 0
vn -1.748456E-07 1 0
vn 1.236344E-07 -0.7071066 -0.707107
vn 1.236344E-07 -0.7071066 -0.707107
vn 1.236346E-07 -0.7071074 0.7071062
vn 1.236346E-07 -0.7071074 0.7071062
vn -1.236344E-07 0.7071066 0.7071069
vn -1.236344E-07 0.7071066 0.7071069
vn -1.236346E-07 0.7071074 -0.7071062
vn -1.236346E-07 0.7071074 -0.7071062
vn 1.236344E-07 -0.7071066 -0.707107
vn 1.236344E-07 -0.7071066 -0.707107
vn -1 -1.748456E-07 0
vn -1 -1.748456E-07 0
vn -1 -1.748456E-07 0
vn -1 -1.748456E-07 0
vn 0.9813392 1.715828E-07 -0.1922848
vn 0.9813392 1.715828E-07 -0.1922848
vn 0.9813392 1.715828E-07 -0.1922848
vn 0.9813392 1.715828E-07 -0.1922848
vn -1.748456E-07 1 0
vn -1.748456E-07 1 0
vn -1.748456E-07 1 0
vn -1.748456E-07 1 0
vn -0.9813393 -1.715828E-07 -0.1922844
vn -0.9813393 -1.715828E-07 -0.1922844
vn -0.9813393 -1.715828E-07 -0.1922844
vn -0.9813393 -1.715828E-07 -0.1922844
vn 1.748456E-07 -1 0
vn 1.748456E-07 -1 0
vn 1.748456E-07 -1 0
vn 1.748456E-07 -1 0
vn 0 0 -1
vn 0 0 -1
vn 0 0 -1
vn 0 0 -1
vn 0 0 1
vn 0 0 1
vn 0 0 1
vn 0 0 1
vn -0.7071115 -1.236353E-07 -0.7071021
vn -0.7071115 -1.236353E-07 -0.7071021
vn -0.7071115 -1.236353E-07 0.7071021
vn -0.7071115 -1.236353E-07 0.7071021
vn 0.7071115 1.236353E-07 0.7071021
vn 0.7071115 1.236353E-07 0.7071021
vn 0.7071115 1.236353E-07 -0.7071021
vn 0.7071115 1.236353E-07 -0.7071021
vn -0.7071115 -1.236353E-07 -0.7071021
vn -0.7071115 -1.236353E-07 -0.7071021
vn -0.8588725 0.5121895 0
vn -0.8588725 0.5121895 0
vn -0.8588725 0.5121895 0
vn -0.8588724 0.5121896 0
vn -1.748456E-07 1 0
vn -1.748456E-07 1 0
vn -1.748456E-07 1 0
vn -1.748456E-07 1 0
vn 0.8588725 0.5121893 0
vn 0.8588725 0.5121894 0
vn 0.8588725 0.5121893 0
vn 0.8588725 0.5121893 0
vn 0.8588725 -0.5121895 0
vn 0.8588724 -0.5121896 0
vn 0.8588725 -0.5121895 0
vn 0.8588725 -0.5121895 0
vn 1.748456E-07 -1 0
vn 1.748456E-07 -1 0
vn 1.748456E-07 -1 0
vn 1.748456E-07 -1 0
vn -0.8588721 -0.5121901 0
vn -0.8588721 -0.51219 0
vn -0.8588721 -0.51219 0
vn -0.8588721 -0.5121901 0
vn -0.8588719 0.5121904 0
vn -0.8588719 0.5121903 0
vn -0.8588719 0.5121903 0
vn -0.858872 0.5121903 0
vn -1.748456E-07 1 0
vn -1.748456E-07 1 0
vn -1.748456E-07 1 0
vn -1.748456E-07 1 0
vn 0.8588721 0.5121902 0
vn 0.8588721 0.5121902 0
vn 0.8588721 0.5121902 0
vn 0.858872 0.5121902 0
vn 0.8588719 -0.5121904 0
vn 0.858872 -0.5121903 0
vn 0.8588719 -0.5121903 0
vn 0.8588719 -0.5121903 0
vn 1.748456E-07 -1 0
vn 1.748456E-07 -1 0
vn 1.748456E-07 -1 0
vn 1.748456E-07 -1 0
vn -0.8588716 -0.5121909 0
vn -0.8588716 -0.5121909 0
vn -0.8588716 -0.5121909 0
vn -0.8588716 -0.5121909 0
vn -0.8588719 0.5121904 0
vn -0.8588719 0.5121903 0
vn -0.8588719 0.5121903 0
vn -0.858872 0.5121903 0
vn -1.748456E-07 1 0
vn -1.748456E-07 1 0
vn -1.748456E-07 1 0
vn -1.748456E-07 1 0
vn 0.8588721 0.5121902 0
vn 0.8588721 0.5121902 0
vn 0.8588721 0.5121902 0
vn 0.858872 0.5121902 0
vn 0.8588719 -0.5121904 0
vn 0.858872 -0.5121903 0
vn 0.8588719 -0.5121903 0
vn 0.8588719 -0.5121903 0
vn 1.748456E-07 -1 0
vn 1.748456E-07 -1 0
vn 1.748456E-07 -1 0
vn 1.748456E-07 -1 0
vn -0.8588716 -0.5121909 0
vn -0.8588716 -0.5121909 0
vn -0.8588716 -0.5121909 0
vn -0.8588716 -0.5121909 0
vn -0.866023 -1.514203E-07 -0.5000041
vn -0.8660224 -1.514202E-07 -0.5000052
vn -0.8660258 -1.514208E-07 0.4999993
vn -0.8660258 -1.514208E-07 0.4999993
vn 0 0 1
vn 0 0 1
vn 0.8660256 1.514207E-07 0.4999998
vn 0.8660256 1.514207E-07 0.4999998
vn 0.8660237 1.514204E-07 -0.5000029
vn 0.8660244 1.514205E-07 -0.5000018
vn 0 0 -1
vn 0 0 -1
vn -0.8660224 -1.514202E-07 -0.5000052
vn -0.866023 -1.514203E-07 -0.5000041
vn 1.748456E-07 -1 0
vn 1.748456E-07 -1 0
vn 1.748456E-07 -1 0
vn 1.748456E-07 -1 0
vn 1.748456E-07 -1 0
vn 1.748456E-07 -1 0
vn -1.748456E-07 1 0
vn -1.748456E-07 1 0
vn -1.748456E-07 1 0
vn -1.748456E-07 1 0
vn -1.748456E-07 1 0
vn -1.748456E-07 1 0

vt 0.119812 0.1060791
vt 0.119812 0.1318359
vt 0.1461182 0.1318359
vt 0.1461182 0.1060791
vt 0.1724854 0.1318359
vt 0.1724854 0.1060791
vt 0.1987305 0.1318359
vt 0.1987305 0.1060791
vt 0.2250977 0.1318359
vt 0.2250977 0.1060791
vt 0.2514648 0.1318359
vt 0.2514648 0.1060791
vt 0.1680908 0.06124878
vt 0.1621094 0.04669189
vt 0.1464844 0.0479126
vt 0.1428223 0.06317139
vt 0.1561279 0.07141113
vt 0.1766357 0.06228638
vt 0.1893311 0.07012939
vt 0.2008057 0.06045532
vt 0.1801758 0.04779053
vt 0.1950684 0.04666138
vt 0.3537598 0.01206207
vt 0.3540039 0.2724609
vt 0.3608398 0.2724609
vt 0.3608398 0.01206207
vt 0.3679199 0.2724609
vt 0.3679199 0.01205444
vt 0.375 0.2724609
vt 0.375 0.01205444
vt 0.3820801 0.2724609
vt 0.3818359 0.01205444
vt 0.2011719 0.03192139
vt 0.2072754 0.02578735
vt 0.2011719 0.01965332
vt 0.1949463 0.02578735
vt 0.1810303 0.3349609
vt 0.1810303 0.4365234
vt 0.2243652 0.4365234
vt 0.2243652 0.3349609
vt 0.1815186 0.439209
vt 0.1815186 0.4914551
vt 0.2248535 0.4831543
vt 0.2248535 0.4475098
vt 0.1807861 0.4365234
vt 0.1807861 0.3349609
vt 0.2241211 0.3349609
vt 0.2241211 0.4365234
vt 0.1812744 0.2785645
vt 0.1812744 0.3308105
vt 0.2246094 0.3225098
vt 0.2246094 0.2868652
vt 0.2243652 0.3349609
vt 0.2243652 0.4365234
vt 0.2597656 0.4365234
vt 0.2597656 0.3349609
vt 0.12854 0.3349609
vt 0.12854 0.4365234
vt 0.1810303 0.4365234
vt 0.1810303 0.3349609
vt 0.2202148 0.07214355
vt 0.2202148 0.09539795
vt 0.2280273 0.09539795
vt 0.2280273 0.07214355
vt 0.2357178 0.09539795
vt 0.2357178 0.07214355
vt 0.2434082 0.09539795
vt 0.2434082 0.07214355
vt 0.2509766 0.09539795
vt 0.2509766 0.07214355
vt 0.2092285 0.2739258
vt 0.2214355 0.2739258
vt 0.2214355 0.2529297
vt 0.1920166 0.2529297
vt 0.1920166 0.2529297
vt 0.2214355 0.2529297
vt 0.2214355 0.2236328
vt 0.1920166 0.2236328
vt 0.1920166 0.2236328
vt 0.2214355 0.2236328
vt 0.2214355 0.2025146
vt 0.2093506 0.2025146
vt 0.1728516 0.4604492
vt 0.1561279 0.4743652
vt 0.1561279 0.4509277
vt 0.1728516 0.4509277
vt 0.1561279 0.4743652
vt 0.1326904 0.4743652
vt 0.1326904 0.4509277
vt 0.1561279 0.4509277
vt 0.1326904 0.4743652
vt 0.1159058 0.4604492
vt 0.1159058 0.4509277
vt 0.1326904 0.4509277
vt 0.2092285 0.2739258
vt 0.2214355 0.2739258
vt 0.2214355 0.2529297
vt 0.1920166 0.2529297
vt 0.1920166 0.2529297
vt 0.2214355 0.2529297
vt 0.2214355 0.2236328
vt 0.1920166 0.2236328
vt 0.1920166 0.2236328
vt 0.2214355 0.2236328
vt 0.2214355 0.2025146
vt 0.2093506 0.2025146
vt 0.1728516 0.4604492
vt 0.1561279 0.4743652
vt 0.1561279 0.4509277
vt 0.1728516 0.4509277
vt 0.1561279 0.4743652
vt 0.1326904 0.4743652
vt 0.1326904 0.4509277
vt 0.1561279 0.4509277
vt 0.1326904 0.4743652
vt 0.1159058 0.4604492
vt 0.1159058 0.4509277
vt 0.1326904 0.4509277
vt 0.2092285 0.2739258
vt 0.2214355 0.2739258
vt 0.2214355 0.2529297
vt 0.1920166 0.2529297
vt 0.1920166 0.2529297
vt 0.2214355 0.2529297
vt 0.2214355 0.2236328
vt 0.1920166 0.2236328
vt 0.1920166 0.2236328
vt 0.2214355 0.2236328
vt 0.2214355 0.2025146
vt 0.2093506 0.2025146
vt 0.1728516 0.4604492
vt 0.1561279 0.4743652
vt 0.1561279 0.4509277
vt 0.1728516 0.4509277
vt 0.1561279 0.4743652
vt 0.1326904 0.4743652
vt 0.1326904 0.4509277
vt 0.1561279 0.4509277
vt 0.1326904 0.4743652
vt 0.1159058 0.4604492
vt 0.1159058 0.4509277
vt 0.1326904 0.4509277
vt 0.1196899 0.1773682
vt 0.1196899 0.1920166
vt 0.1417236 0.1920166
vt 0.1417236 0.1773682
vt 0.1636963 0.1920166
vt 0.1636963 0.1773682
vt 0.1856689 0.1920166
vt 0.1856689 0.1773682
vt 0.2077637 0.1920166
vt 0.2077637 0.1773682
vt 0.2297363 0.1920166
vt 0.2297363 0.1773682
vt 0.251709 0.1920166
vt 0.251709 0.1773682
vt 0.1610107 0.2211914
vt 0.1673584 0.2103271
vt 0.1610107 0.1993408
vt 0.1484375 0.2211914
vt 0.1484375 0.1993408
vt 0.1422119 0.2103271
vt 0.2585449 0.4606934
vt 0.2451172 0.453125
vt 0.2318115 0.4606934
vt 0.2585449 0.4760742
vt 0.2318115 0.4760742
vt 0.2451172 0.4838867

g Streetlight_el3_2743_379
usemtl Streetlight_el3_2743_379
usemap Streetlight_el3_2743_379
f 1/1/1 3/3/3 2/2/2
f 1/1/1 4/4/4 3/3/3
f 4/4/4 5/5/5 3/3/3
f 4/4/4 6/6/6 5/5/5
f 6/6/6 7/7/7 5/5/5
f 6/6/6 8/8/8 7/7/7
f 8/8/8 9/9/9 7/7/7
f 8/8/8 10/10/10 9/9/9
f 10/10/10 11/11/11 9/9/9
f 10/10/10 12/12/12 11/11/11
f 13/13/13 15/15/15 14/14/14
f 15/15/15 13/13/13 16/16/16
f 16/16/16 13/13/13 17/17/17
f 18/18/18 20/20/20 19/19/19
f 20/20/20 18/18/18 21/21/21
f 20/20/20 21/21/21 22/22/22
f 23/23/23 25/25/25 24/24/24
f 23/23/23 26/26/26 25/25/25
f 26/26/26 27/27/27 25/25/25
f 26/26/26 28/28/28 27/27/27
f 28/28/28 29/29/29 27/27/27
f 28/28/28 30/30/30 29/29/29
f 30/30/30 31/31/31 29/29/29
f 30/30/30 32/32/32 31/31/31
f 33/33/33 35/35/35 34/34/34
f 33/33/33 36/36/36 35/35/35
f 37/37/37 39/39/39 38/38/38
f 37/37/37 40/40/40 39/39/39
f 41/41/41 43/43/43 42/42/42
f 41/41/41 44/44/44 43/43/43
f 45/45/45 47/47/47 46/46/46
f 45/45/45 48/48/48 47/47/47
f 49/49/49 51/51/51 50/50/50
f 49/49/49 52/52/52 51/51/51
f 53/53/53 55/55/55 54/54/54
f 53/53/53 56/56/56 55/55/55
f 57/57/57 59/59/59 58/58/58
f 57/57/57 60/60/60 59/59/59
f 61/61/61 63/63/63 62/62/62
f 61/61/61 64/64/64 63/63/63
f 64/64/64 65/65/65 63/63/63
f 64/64/64 66/66/66 65/65/65
f 66/66/66 67/67/67 65/65/65
f 66/66/66 68/68/68 67/67/67
f 68/68/68 69/69/69 67/67/67
f 68/68/68 70/70/70 69/69/69
f 71/71/71 73/73/73 72/72/72
f 71/71/71 74/74/74 73/73/73
f 75/75/75 77/77/77 76/76/76
f 75/75/75 78/78/78 77/77/77
f 79/79/79 81/81/81 80/80/80
f 79/79/79 82/82/82 81/81/81
f 83/83/83 85/85/85 84/84/84
f 83/83/83 86/86/86 85/85/85
f 87/87/87 89/89/89 88/88/88
f 87/87/87 90/90/90 89/89/89
f 91/91/91 93/93/93 92/92/92
f 91/91/91 94/94/94 93/93/93
f 95/95/95 97/97/97 96/96/96
f 95/95/95 98/98/98 97/97/97
f 99/99/99 101/101/101 100/100/100
f 99/99/99 102/102/102 101/101/101
f 103/103/103 105/105/105 104/104/104
f 103/103/103 106/106/106 105/105/105
f 107/107/107 109/109/109 108/108/108
f 107/107/107 110/110/110 109/109/109
f 111/111/111 113/113/113 112/112/112
f 111/111/111 114/114/114 113/113/113
f 115/115/115 117/117/117 116/116/116
f 115/115/115 118/118/118 117/117/117
f 119/119/119 121/121/121 120/120/120
f 119/119/119 122/122/122 121/121/121
f 123/123/123 125/125/125 124/124/124
f 123/123/123 126/126/126 125/125/125
f 127/127/127 129/129/129 128/128/128
f 127/127/127 130/130/130 129/129/129
f 131/131/131 133/133/133 132/132/132
f 131/131/131 134/134/134 133/133/133
f 135/135/135 137/137/137 136/136/136
f 135/135/135 138/138/138 137/137/137
f 139/139/139 141/141/141 140/140/140
f 139/139/139 142/142/142 141/141/141
f 143/143/143 145/145/145 144/144/144
f 143/143/143 146/146/146 145/145/145
f 146/146/146 147/147/147 145/145/145
f 146/146/146 148/148/148 147/147/147
f 148/148/148 149/149/149 147/147/147
f 148/148/148 150/150/150 149/149/149
f 150/150/150 151/151/151 149/149/149
f 150/150/150 152/152/152 151/151/151
f 152/152/152 153/153/153 151/151/151
f 152/152/152 154/154/154 153/153/153
f 154/154/154 155/155/155 153/153/153
f 154/154/154 156/156/156 155/155/155
f 157/157/157 159/159/159 158/158/158
f 159/159/159 157/157/157 160/160/160
f 159/159/159 160/160/160 161/161/161
f 161/161/161 160/160/160 162/162/162
f 163/163/163 165/165/165 164/164/164
f 165/165/165 163/163/163 166/166/166
f 165/165/165 166/166/166 167/167/167
f 167/167/167 166/166/166 168/168/168
