#Street_el2_1885_351.obj

v -1.446086 0.9830899 0.08179139
v 1.44609 0.9830899 0.08179123
v 1.44609 -0.983089 0.08179123
v -1.446086 -0.983089 0.08179139
v -1.446088 0.9830899 -3.865956E-06
v -1.446088 -0.983089 -3.865956E-06
v 1.446089 -0.983089 -3.784206E-06
v 1.446089 0.9830899 -3.784206E-06
v -1.446088 0.9830899 -3.865956E-06
v -1.446086 0.9830899 0.08179139
v -1.446086 -0.983089 0.08179139
v -1.446088 -0.983089 -3.865956E-06
v -1.446088 -0.983089 -3.865956E-06
v -1.446086 -0.983089 0.08179139
v 1.44609 -0.983089 0.08179123
v 1.446089 -0.983089 -3.784206E-06
v 1.446089 -0.983089 -3.784206E-06
v 1.44609 -0.983089 0.08179123
v 1.44609 0.9830899 0.08179123
v 1.446089 0.9830899 -3.784206E-06
v 1.446089 0.9830899 -3.784206E-06
v 1.44609 0.9830899 0.08179123
v -1.446086 0.9830899 0.08179139
v -1.446088 0.9830899 -3.865956E-06

vn -0.01512824 0 0.9998856
vn -0.01512824 0 0.9998856
vn -0.01512824 0 0.9998856
vn -0.01512824 0 0.9998856
vn 0.01512824 0 -0.9998856
vn 0.01512824 0 -0.9998856
vn 0.01512824 0 -0.9998856
vn 0.01512824 0 -0.9998856
vn -0.9998856 0 -0.01512824
vn -0.9998856 0 -0.01512824
vn -0.9998856 0 -0.01512824
vn -0.9998856 0 -0.01512824
vn 0 -1 0
vn 0 -1 0
vn 0 -1 0
vn 0 -1 0
vn 0.9998856 0 0.01512824
vn 0.9998856 0 0.01512824
vn 0.9998856 0 0.01512824
vn 0.9998856 0 0.01512824
vn 0 1 0
vn 0 1 0
vn 0 1 0
vn 0 1 0

vt 0.4169922 0.004077911
vt 0.4169922 0.1459961
vt 0.5131836 0.1459961
vt 0.5131836 0.004077911
vt 0.2763672 0.3730469
vt 0.3398438 0.3730469
vt 0.3398438 0.279541
vt 0.2763672 0.279541
vt 0.2763672 0.3730469
vt 0.2763672 0.3757324
vt 0.3398438 0.3757324
vt 0.3398438 0.3730469
vt 0.3398438 0.3730469
vt 0.3425293 0.3730469
vt 0.3425293 0.279541
vt 0.3398438 0.279541
vt 0.3398438 0.279541
vt 0.3398438 0.2768555
vt 0.2763672 0.2768555
vt 0.2763672 0.279541
vt 0.2763672 0.279541
vt 0.2736816 0.279541
vt 0.2736816 0.3730469
vt 0.2763672 0.3730469

g Street_el2_1885_351
usemtl Street_el2_1885_351
usemap Street_el2_1885_351
f 1/1/1 3/3/3 2/2/2
f 1/1/1 4/4/4 3/3/3
f 5/5/5 7/7/7 6/6/6
f 5/5/5 8/8/8 7/7/7
f 9/9/9 11/11/11 10/10/10
f 9/9/9 12/12/12 11/11/11
f 13/13/13 15/15/15 14/14/14
f 13/13/13 16/16/16 15/15/15
f 17/17/17 19/19/19 18/18/18
f 17/17/17 20/20/20 19/19/19
f 21/21/21 23/23/23 22/22/22
f 21/21/21 24/24/24 23/23/23
