#Sunflower2_base_1252_149.obj

v -0.04220728 -0.2471854 -0.07309695
v -0.01618987 3.823689 -0.04305651
v -0.01618923 3.823689 0.04304402
v -0.04220708 -0.2471854 0.07308364
v 0.05837499 3.823689 -6.691606E-06
v 0.08439045 -0.2471854 -6.963736E-06
v -0.01618987 3.823689 -0.04305651
v -0.04220728 -0.2471854 -0.07309695
v 0.004852655 4.053287 -0.04289583
v 0.05376504 4.053287 -0.01465566
v 0.004852589 4.053287 0.01358591
v 0.004852655 4.053287 -0.04289583
v -0.02258603 4.156641 -0.1704401
v 0.07253817 4.204914 -0.1442502
v -0.02258488 4.253187 -0.1180613
v -0.02258603 4.156641 -0.1704401

vn -0.736614 0.009587578 -0.6762453
vn -0.7362291 0.01089434 -0.6766447
vn -0.2176403 0.01408499 0.9759274
vn -0.2193342 0.009587579 0.9756026
vn 0.9546292 0.006916672 -0.2977168
vn 0.9542831 0.006390628 -0.2988358
vn -0.7362291 0.01089434 -0.6766447
vn -0.736614 0.009587578 -0.6762453
vn -0.7783695 -0.3872644 -0.4941328
vn 0.9875063 0.1389343 -0.07435407
vn -0.06993291 0.3294807 0.9415688
vn -0.7783695 -0.3872644 -0.4941328
vn -0.7164911 -0.6473461 -0.2599685
vn 0.9832481 0.1646694 0.07814848
vn -0.03019197 0.4917036 0.8702391
vn -0.7164911 -0.6473461 -0.2599685

vt 0.2263184 0.1213379
vt 0.3349609 0.1213379
vt 0.3349609 0.1177979
vt 0.2263184 0.1177979
vt 0.3349609 0.1143188
vt 0.2263184 0.1143188
vt 0.3349609 0.1107788
vt 0.2263184 0.1107788
vt 0.3410645 0.1107788
vt 0.3410645 0.1143188
vt 0.3410645 0.1177979
vt 0.3410645 0.1213379
vt 0.3457031 0.1107788
vt 0.3457031 0.1143188
vt 0.3457031 0.1177979
vt 0.3457031 0.1213379

g Sunflower2_base_1252_149
usemtl Sunflower2_base_1252_149
usemap Sunflower2_base_1252_149
f 1/1/1 3/3/3 2/2/2
f 1/1/1 4/4/4 3/3/3
f 4/4/4 5/5/5 3/3/3
f 4/4/4 6/6/6 5/5/5
f 6/6/6 7/7/7 5/5/5
f 6/6/6 8/8/8 7/7/7
f 5/5/5 7/7/7 9/9/9
f 5/5/5 9/9/9 10/10/10
f 3/3/3 5/5/5 10/10/10
f 3/3/3 10/10/10 11/11/11
f 2/2/2 3/3/3 11/11/11
f 2/2/2 11/11/11 12/12/12
f 10/10/10 9/9/9 13/13/13
f 10/10/10 13/13/13 14/14/14
f 11/11/11 10/10/10 14/14/14
f 11/11/11 14/14/14 15/15/15
f 12/12/12 11/11/11 15/15/15
f 12/12/12 15/15/15 16/16/16
