#Sunflower2_alpha_2486_681.obj

v 1.03204 2.613805 0.01793867
v 0.2898558 2.821396 0.2103039
v -0.0166009 2.646058 0.005489095
v 0.4092112 2.503749 -0.5597619
v -0.1595114 2.874316 -1.099549
v -0.3406375 2.961011 -0.3463361
v 0.2610607 2.572826 -1.30554
v 1.021011 2.372295 -0.6839646
v 0.7833817 1.877669 -1.480076
v -0.8323815 2.590537 0.01282196
v -0.1614177 2.367407 -0.1955324
v -0.003665424 2.079695 -0.006258372
v -0.3784207 2.200186 0.535791
v 0.2767976 2.208713 1.00312
v 0.4247126 2.165942 0.2962729
v -0.1924313 2.195042 1.219461
v -0.9129565 2.414039 0.6738856
v -0.9425872 1.927896 1.427531
v 0.4574385 1.934327 0.8399924
v -0.07170147 1.96108 0.327465
v -0.003665424 1.795271 -0.006258372
v 0.6590285 1.84892 0.07578362
v 0.7339525 2.193625 -0.64764
v 0.047247 2.093027 -0.4435442
v 1.15544 2.033558 -0.3948666
v 1.058525 1.85548 0.5126971
v 1.696577 1.532587 -0.029362
v -0.4704659 2.912592 -0.5448046
v -0.03506623 3.080809 -0.2653017
v -2.622511E-07 2.982214 -0.006054401
v -0.4826737 2.886063 0.04118204
v -0.5016428 3.183787 0.554845
v -0.03381582 3.224281 0.3007413
v -0.7974328 2.966432 0.450966
v -0.8241144 2.773248 -0.2070731
v -1.122121 2.474694 0.3034672
v -0.2844083 3.505759 0.4356105
v -0.1999742 3.369983 0.03396844
v -2.622511E-07 3.281902 -0.006054401
v 0.1598319 3.472086 0.2982893
v 0.5042101 3.639853 0.02253609
v 0.2014419 3.432379 -0.1902384
v 0.5261375 3.666586 0.3236793
v 0.06911661 3.59124 0.6115454
v 0.5622226 3.545083 0.7894101
v 1.03204 2.613805 0.01793867
v 0.4092112 2.503749 -0.5597619
v -0.0166009 2.646058 0.005489095
v 0.2898558 2.821396 0.2103039
v -0.1595114 2.874316 -1.099549
v -0.3406375 2.961011 -0.3463361
v 0.2610607 2.572826 -1.30554
v 1.021011 2.372295 -0.6839646
v 0.7833817 1.877669 -1.480076
v -0.8323815 2.590537 0.01282196
v -0.3784207 2.200186 0.535791
v -0.003665424 2.079695 -0.006258372
v -0.1614177 2.367407 -0.1955324
v 0.2767976 2.208713 1.00312
v 0.4247126 2.165942 0.2962729
v -0.1924313 2.195042 1.219461
v -0.9129565 2.414039 0.6738856
v -0.9425872 1.927896 1.427531
v 0.4574385 1.934327 0.8399924
v 0.6590285 1.84892 0.07578362
v -0.003665424 1.795271 -0.006258372
v -0.07170147 1.96108 0.327465
v 0.7339525 2.193625 -0.64764
v 0.047247 2.093027 -0.4435442
v 1.15544 2.033558 -0.3948666
v 1.058525 1.85548 0.5126971
v 1.696577 1.532587 -0.029362
v -0.4704659 2.912592 -0.5448046
v -0.4826737 2.886063 0.04118204
v -2.622511E-07 2.982214 -0.006054401
v -0.03506623 3.080809 -0.2653017
v -0.5016428 3.183787 0.554845
v -0.03381582 3.224281 0.3007413
v -0.7974328 2.966432 0.450966
v -0.8241144 2.773248 -0.2070731
v -1.122121 2.474694 0.3034672
v -0.2844083 3.505759 0.4356105
v 0.1598319 3.472086 0.2982893
v -2.622511E-07 3.281902 -0.006054401
v -0.1999742 3.369983 0.03396844
v 0.5042101 3.639853 0.02253609
v 0.2014419 3.432379 -0.1902384
v 0.5261375 3.666586 0.3236793
v 0.06911661 3.59124 0.6115454
v 0.5622226 3.545083 0.7894101
v 0.1995035 4.001638 -0.5302358
v 0.02478863 4.463553 -0.469695
v -0.2386317 4.044007 -0.5160328
v -0.4212687 4.363049 -0.2735054
v -0.1657616 4.63972 -0.04517944
v 0.2723781 4.597352 -0.05938167
v 0.4550114 4.278311 -0.3019143
v 0.8990052 4.341687 -0.4508106
v 0.3879991 3.788342 -0.9074565
v -0.4882811 3.873079 -0.8790476
v -0.8535461 4.511162 -0.3939911
v -0.3425355 5.064507 0.06265554
v 0.5337402 4.979769 0.03424582
v -0.2394632 4.028997 -0.4969126
v 0.008954055 4.177806 -0.1057248
v 0.198672 3.986628 -0.5111156
v 0.45418 4.2633 -0.2827941
v 0.2715475 4.582341 -0.04026591
v -0.166593 4.62471 -0.0260592
v -0.4221002 4.348038 -0.2543852
v -0.8535461 4.511162 -0.3939911
v -0.4882811 3.873079 -0.8790476
v 0.3879946 3.788342 -0.9074573
v 0.8990052 4.341686 -0.4508106
v 0.5337402 4.979769 0.03424582
v -0.3425355 5.064506 0.06265554

vn 0.3675772 0.9299923 -0.001238119
vn 0.3767813 0.925729 -0.03258785
vn 0.1848973 0.9379173 0.2934695
vn 0.2510832 0.9098858 0.3302504
vn 0.03049833 0.8335475 0.5516056
vn -0.008352973 0.8359469 0.548747
vn 0.2000699 0.6945163 0.6911
vn 0.4712149 0.881897 0.01464906
vn 0.40473 0.7848942 0.4691856
vn -0.2303738 0.8190627 0.5254183
vn -0.240011 0.7997287 0.5502989
vn -0.04923256 0.9625025 0.2667681
vn -0.1188529 0.9668252 0.2261047
vn 0.08790985 0.9959548 -0.01860734
vn 0.1267117 0.9917762 -0.01800686
vn -0.1002227 0.9753243 -0.1967188
vn -0.3398806 0.7998737 0.494655
vn -0.2892097 0.9557032 0.05467523
vn 0.1826362 0.981935 0.04947565
vn 0.2144028 0.9757876 0.04324674
vn -0.1639362 0.9857837 0.03681969
vn -0.1626922 0.9796773 0.1173201
vn -0.4644606 0.8834874 0.06104575
vn -0.4813899 0.8761011 0.02666244
vn -0.5003431 0.8093663 0.3075439
vn 0.2207269 0.9626752 0.1566408
vn -0.2060723 0.9151635 0.3464251
vn -0.1686281 0.9414733 -0.2918781
vn -0.1984156 0.9399011 -0.2778802
vn 0.1724806 0.9203784 -0.3509333
vn 0.1537267 0.8923756 -0.4243044
vn 0.4584639 0.7912045 -0.4047302
vn 0.4822733 0.792257 -0.3738203
vn 0.4386328 0.6491489 -0.6214557
vn -0.2293886 0.8965096 -0.3790139
vn 0.145176 0.7637166 -0.629016
vn 0.4060311 0.9127985 -0.04402018
vn 0.4263773 0.9043348 -0.01952294
vn 0.2227347 0.9142441 -0.3384483
vn 0.1607685 0.9419594 -0.2947306
vn 0.0006421953 0.8338776 -0.5519493
vn 0.01445328 0.8130901 -0.5819585
vn -0.2305809 0.8686473 -0.4385026
vn 0.3400858 0.9392264 0.04685912
vn -0.05823807 0.9783529 -0.1985804
vn -0.3675772 -0.9299924 0.001238111
vn -0.2510832 -0.9098858 -0.3302503
vn -0.1848973 -0.9379173 -0.2934695
vn -0.3767812 -0.925729 0.0325879
vn -0.03049847 -0.8335475 -0.5516055
vn 0.008352995 -0.835947 -0.5487469
vn -0.2000701 -0.6945163 -0.6911
vn -0.4712148 -0.881897 -0.01464905
vn -0.40473 -0.7848941 -0.4691857
vn 0.2303738 -0.8190628 -0.5254183
vn 0.1188528 -0.9668252 -0.2261046
vn 0.04923253 -0.9625026 -0.266768
vn 0.240011 -0.7997288 -0.5502988
vn -0.08791009 -0.9959548 0.01860744
vn -0.1267118 -0.9917762 0.01800695
vn 0.1002226 -0.9753243 0.1967188
vn 0.3398805 -0.7998737 -0.494655
vn 0.2892098 -0.9557032 -0.05467524
vn -0.1826362 -0.981935 -0.0494757
vn 0.1626923 -0.9796773 -0.1173201
vn 0.1639362 -0.9857837 -0.03681969
vn -0.2144028 -0.9757876 -0.0432468
vn 0.4644607 -0.8834874 -0.06104574
vn 0.4813899 -0.8761011 -0.02666236
vn 0.5003431 -0.8093662 -0.3075439
vn -0.220727 -0.9626752 -0.1566408
vn 0.2060723 -0.9151634 -0.3464251
vn 0.168628 -0.9414733 0.2918782
vn -0.1537268 -0.8923756 0.4243043
vn -0.1724806 -0.9203784 0.3509332
vn 0.1984155 -0.9399011 0.2778802
vn -0.4584641 -0.7912044 0.4047302
vn -0.4822734 -0.7922569 0.3738202
vn -0.4386329 -0.6491489 0.6214556
vn 0.2293886 -0.8965097 0.3790138
vn -0.145176 -0.7637168 0.6290158
vn -0.4060311 -0.9127985 0.04402049
vn -0.1607684 -0.9419594 0.2947307
vn -0.2227345 -0.9142441 0.3384484
vn -0.4263773 -0.9043348 0.01952329
vn -0.0006421357 -0.8338776 0.5519493
vn -0.0144529 -0.8130902 0.5819585
vn 0.2305805 -0.8686473 0.4385028
vn -0.3400858 -0.9392264 -0.04685903
vn 0.05823797 -0.9783529 0.1985806
vn 0.6085265 0.7740428 -0.1747955
vn 0.7802023 0.6171516 -0.1020227
vn 0.6577491 0.7507739 0.06086832
vn 0.8062593 0.5755584 0.1366704
vn 0.9055471 0.4236116 -0.02319163
vn 0.8563249 0.4468802 -0.2588555
vn 0.7078145 0.622096 -0.3346574
vn 0.6533247 0.6100373 -0.4483543
vn 0.5044863 0.8378145 -0.2087123
vn 0.5782738 0.8029331 0.1445618
vn 0.8008993 0.5402749 0.2581933
vn 0.9497374 0.3124977 0.01855113
vn 0.8759503 0.3473789 -0.3347225
vn -0.5440362 -0.8201256 -0.1772538
vn -0.7802025 -0.6171514 0.1020223
vn -0.4607937 -0.8594766 0.22129
vn -0.6287044 -0.6025111 0.4916415
vn -0.8798582 -0.3061945 0.3634484
vn -0.9631008 -0.2668435 -0.03509513
vn -0.7951896 -0.5238094 -0.3054463
vn -0.7956281 -0.5249357 -0.3023552
vn -0.5463355 -0.8190564 -0.1751126
vn -0.4637099 -0.8581158 0.2204783
vn -0.6303763 -0.6030542 0.4888266
vn -0.8796694 -0.3089329 0.3615832
vn -0.9622951 -0.2698738 -0.03400718

vt 0.2368164 0
vt 0.229126 0.01809692
vt 0.2341309 0.02403259
vt 0.2507324 0.0135498
vt 0.2626953 0.02877808
vt 0.2419434 0.0333252
vt 0.2687988 0.01887512
vt 0.255127 0
vt 0.2800293 0
vt 0.2368164 0
vt 0.229126 0.01809692
vt 0.2341309 0.02403259
vt 0.2507324 0.0135498
vt 0.2626953 0.02877808
vt 0.2419434 0.0333252
vt 0.2687988 0.01887512
vt 0.255127 0
vt 0.2800293 0
vt 0.2368164 0
vt 0.229126 0.01809692
vt 0.2341309 0.02403259
vt 0.2507324 0.0135498
vt 0.2626953 0.02877808
vt 0.2419434 0.0333252
vt 0.2687988 0.01887512
vt 0.255127 0
vt 0.2800293 0
vt 0.2368164 0
vt 0.229126 0.01809692
vt 0.2341309 0.02403259
vt 0.2507324 0.0135498
vt 0.2626953 0.02877808
vt 0.2419434 0.0333252
vt 0.2687988 0.01887512
vt 0.255127 0
vt 0.2800293 0
vt 0.2368164 0
vt 0.229126 0.01809692
vt 0.2341309 0.02403259
vt 0.2507324 0.0135498
vt 0.2626953 0.02877808
vt 0.2419434 0.0333252
vt 0.2687988 0.01887512
vt 0.255127 0
vt 0.2800293 0
vt 0.2368164 0
vt 0.2507324 0.0135498
vt 0.2341309 0.02403259
vt 0.229126 0.01809692
vt 0.2626953 0.02877808
vt 0.2419434 0.0333252
vt 0.2687988 0.01887512
vt 0.255127 0
vt 0.2800293 0
vt 0.2368164 0
vt 0.2507324 0.0135498
vt 0.2341309 0.02403259
vt 0.229126 0.01809692
vt 0.2626953 0.02877808
vt 0.2419434 0.0333252
vt 0.2687988 0.01887512
vt 0.255127 0
vt 0.2800293 0
vt 0.2368164 0
vt 0.2507324 0.0135498
vt 0.2341309 0.02403259
vt 0.229126 0.01809692
vt 0.2626953 0.02877808
vt 0.2419434 0.0333252
vt 0.2687988 0.01887512
vt 0.255127 0
vt 0.2800293 0
vt 0.2368164 0
vt 0.2507324 0.0135498
vt 0.2341309 0.02403259
vt 0.229126 0.01809692
vt 0.2626953 0.02877808
vt 0.2419434 0.0333252
vt 0.2687988 0.01887512
vt 0.255127 0
vt 0.2800293 0
vt 0.2368164 0
vt 0.2507324 0.0135498
vt 0.2341309 0.02403259
vt 0.229126 0.01809692
vt 0.2626953 0.02877808
vt 0.2419434 0.0333252
vt 0.2687988 0.01887512
vt 0.255127 0
vt 0.2800293 0
vt 0.8276367 0.2266846
vt 0.8217773 0.2175293
vt 0.8164063 0.2266846
vt 0.8110352 0.2175293
vt 0.8164063 0.2073975
vt 0.8276367 0.2073975
vt 0.8330078 0.2175293
vt 0.8442383 0.2175293
vt 0.8330078 0.2368164
vt 0.8110352 0.2368164
vt 0.7998047 0.2175293
vt 0.8110352 0.1982422
vt 0.8330078 0.1982422
vt 0.7905273 0.2695313
vt 0.7851563 0.2602539
vt 0.7792969 0.2695313
vt 0.7739258 0.2602539
vt 0.7792969 0.2502441
vt 0.7905273 0.2502441
vt 0.7958984 0.2602539
vt 0.8071289 0.2602539
vt 0.7958984 0.279541
vt 0.7739258 0.279541
vt 0.7626953 0.2602539
vt 0.7739258 0.2410889
vt 0.7958984 0.2410889

g Sunflower2_alpha_2486_681
usemtl Sunflower2_alpha_2486_681
usemap Sunflower2_alpha_2486_681
f 1/1/1 3/3/3 2/2/2
f 1/1/1 4/4/4 3/3/3
f 3/3/3 4/4/4 5/5/5
f 3/3/3 5/5/5 6/6/6
f 5/5/5 4/4/4 7/7/7
f 1/1/1 8/8/8 4/4/4
f 8/8/8 9/9/9 4/4/4
f 7/7/7 4/4/4 9/9/9
f 10/10/10 12/12/12 11/11/11
f 10/10/10 13/13/13 12/12/12
f 12/12/12 13/13/13 14/14/14
f 12/12/12 14/14/14 15/15/15
f 14/14/14 13/13/13 16/16/16
f 10/10/10 17/17/17 13/13/13
f 17/17/17 18/18/18 13/13/13
f 16/16/16 13/13/13 18/18/18
f 19/19/19 21/21/21 20/20/20
f 19/19/19 22/22/22 21/21/21
f 21/21/21 22/22/22 23/23/23
f 21/21/21 23/23/23 24/24/24
f 23/23/23 22/22/22 25/25/25
f 19/19/19 26/26/26 22/22/22
f 26/26/26 27/27/27 22/22/22
f 25/25/25 22/22/22 27/27/27
f 28/28/28 30/30/30 29/29/29
f 28/28/28 31/31/31 30/30/30
f 30/30/30 31/31/31 32/32/32
f 30/30/30 32/32/32 33/33/33
f 32/32/32 31/31/31 34/34/34
f 28/28/28 35/35/35 31/31/31
f 35/35/35 36/36/36 31/31/31
f 34/34/34 31/31/31 36/36/36
f 37/37/37 39/39/39 38/38/38
f 37/37/37 40/40/40 39/39/39
f 39/39/39 40/40/40 41/41/41
f 39/39/39 41/41/41 42/42/42
f 41/41/41 40/40/40 43/43/43
f 37/37/37 44/44/44 40/40/40
f 44/44/44 45/45/45 40/40/40
f 43/43/43 40/40/40 45/45/45
f 46/46/46 48/48/48 47/47/47
f 46/46/46 49/49/49 48/48/48
f 48/48/48 50/50/50 47/47/47
f 48/48/48 51/51/51 50/50/50
f 50/50/50 52/52/52 47/47/47
f 46/46/46 47/47/47 53/53/53
f 53/53/53 47/47/47 54/54/54
f 52/52/52 54/54/54 47/47/47
f 55/55/55 57/57/57 56/56/56
f 55/55/55 58/58/58 57/57/57
f 57/57/57 59/59/59 56/56/56
f 57/57/57 60/60/60 59/59/59
f 59/59/59 61/61/61 56/56/56
f 55/55/55 56/56/56 62/62/62
f 62/62/62 56/56/56 63/63/63
f 61/61/61 63/63/63 56/56/56
f 64/64/64 66/66/66 65/65/65
f 64/64/64 67/67/67 66/66/66
f 66/66/66 68/68/68 65/65/65
f 66/66/66 69/69/69 68/68/68
f 68/68/68 70/70/70 65/65/65
f 64/64/64 65/65/65 71/71/71
f 71/71/71 65/65/65 72/72/72
f 70/70/70 72/72/72 65/65/65
f 73/73/73 75/75/75 74/74/74
f 73/73/73 76/76/76 75/75/75
f 75/75/75 77/77/77 74/74/74
f 75/75/75 78/78/78 77/77/77
f 77/77/77 79/79/79 74/74/74
f 73/73/73 74/74/74 80/80/80
f 80/80/80 74/74/74 81/81/81
f 79/79/79 81/81/81 74/74/74
f 82/82/82 84/84/84 83/83/83
f 82/82/82 85/85/85 84/84/84
f 84/84/84 86/86/86 83/83/83
f 84/84/84 87/87/87 86/86/86
f 86/86/86 88/88/88 83/83/83
f 82/82/82 83/83/83 89/89/89
f 89/89/89 83/83/83 90/90/90
f 88/88/88 90/90/90 83/83/83
f 91/91/91 93/93/93 92/92/92
f 93/93/93 94/94/94 92/92/92
f 94/94/94 95/95/95 92/92/92
f 95/95/95 96/96/96 92/92/92
f 96/96/96 97/97/97 92/92/92
f 97/97/97 91/91/91 92/92/92
f 98/98/98 91/91/91 97/97/97
f 98/98/98 99/99/99 91/91/91
f 99/99/99 93/93/93 91/91/91
f 99/99/99 100/100/100 93/93/93
f 100/100/100 94/94/94 93/93/93
f 100/100/100 101/101/101 94/94/94
f 101/101/101 95/95/95 94/94/94
f 101/101/101 102/102/102 95/95/95
f 102/102/102 96/96/96 95/95/95
f 102/102/102 103/103/103 96/96/96
f 103/103/103 97/97/97 96/96/96
f 103/103/103 98/98/98 97/97/97
f 104/104/104 106/106/106 105/105/105
f 106/106/106 107/107/107 105/105/105
f 107/107/107 108/108/108 105/105/105
f 108/108/108 109/109/109 105/105/105
f 109/109/109 110/110/110 105/105/105
f 110/110/110 104/104/104 105/105/105
f 111/111/111 104/104/104 110/110/110
f 111/111/111 112/112/112 104/104/104
f 112/112/112 106/106/106 104/104/104
f 112/112/112 113/113/113 106/106/106
f 113/113/113 107/107/107 106/106/106
f 113/113/113 114/114/114 107/107/107
f 114/114/114 108/108/108 107/107/107
f 114/114/114 115/115/115 108/108/108
f 115/115/115 109/109/109 108/108/108
f 115/115/115 116/116/116 109/109/109
f 116/116/116 110/110/110 109/109/109
f 116/116/116 111/111/111 110/110/110
