#Sunflower2_base_1494_118.obj

v -0.04218979 -0.2471854 -0.07308892
v -0.01617462 3.823689 -0.04304853
v -0.01617478 3.823689 0.04305123
v -0.04218933 -0.2471854 0.07309217
v 0.05839032 3.823689 1.402017E-06
v 0.08440739 -0.2471854 1.657239E-06
v -0.01617462 3.823689 -0.04304853
v -0.04218979 -0.2471854 -0.07308892
v 0.004867455 4.053287 -0.04288768
v 0.05378193 4.053287 -0.01464718
v 0.004866897 4.053287 0.0135932
v 0.004867455 4.053287 -0.04288768
v -0.02256837 4.156641 -0.1704315
v 0.07255405 4.204914 -0.1442426
v -0.02256964 4.253187 -0.118054
v -0.02256837 4.156641 -0.1704315

vn -0.642749 0.009587577 -0.7660169
vn -0.6423155 0.01089434 -0.766363
vn -0.3422989 0.01408499 0.9394855
vn -0.3439365 0.009587578 0.9389439
vn 0.9851648 0.006916671 -0.1714714
vn 0.9849667 0.006390627 -0.1726258
vn -0.6423155 0.01089434 -0.766363
vn -0.642749 0.009587577 -0.7660169
vn -0.7077567 -0.3872643 -0.5908527
vn 0.9888135 0.1389343 0.05426855
vn -0.1913842 0.3294807 0.9245619
vn -0.7077567 -0.3872643 -0.5908527
vn -0.6767514 -0.647346 -0.3506434
vn 0.9648246 0.1646694 0.2049328
vn -0.1427331 0.4917035 0.8589849
vn -0.6767514 -0.647346 -0.3506434

vt 0.2263184 0.1213379
vt 0.3349609 0.1213379
vt 0.3349609 0.1177979
vt 0.2263184 0.1177979
vt 0.3349609 0.1143188
vt 0.2263184 0.1143188
vt 0.3349609 0.1107788
vt 0.2263184 0.1107788
vt 0.3410645 0.1107788
vt 0.3410645 0.1143188
vt 0.3410645 0.1177979
vt 0.3410645 0.1213379
vt 0.3457031 0.1107788
vt 0.3457031 0.1143188
vt 0.3457031 0.1177979
vt 0.3457031 0.1213379

g Sunflower2_base_1494_118
usemtl Sunflower2_base_1494_118
usemap Sunflower2_base_1494_118
f 1/1/1 3/3/3 2/2/2
f 1/1/1 4/4/4 3/3/3
f 4/4/4 5/5/5 3/3/3
f 4/4/4 6/6/6 5/5/5
f 6/6/6 7/7/7 5/5/5
f 6/6/6 8/8/8 7/7/7
f 5/5/5 7/7/7 9/9/9
f 5/5/5 9/9/9 10/10/10
f 3/3/3 5/5/5 10/10/10
f 3/3/3 10/10/10 11/11/11
f 2/2/2 3/3/3 11/11/11
f 2/2/2 11/11/11 12/12/12
f 10/10/10 9/9/9 13/13/13
f 10/10/10 13/13/13 14/14/14
f 11/11/11 10/10/10 14/14/14
f 11/11/11 14/14/14 15/15/15
f 12/12/12 11/11/11 15/15/15
f 12/12/12 15/15/15 16/16/16
