#Sunflower1_alpha_1142_267.obj

v 0.3687657 2.860234 0.8782413
v -0.08876403 2.860234 0.2961189
v 0 2.638432 0
v 0.6522017 2.638432 0.1654869
v 0.8561451 2.860234 -0.5846677
v 0.1394262 2.860234 -0.4651207
v 1.223298 2.699286 -0.2547739
v 0.9946592 2.67254 0.6504591
v 1.654667 2.20714 0.250309
v 0.5939304 2.331657 -0.7327038
v 0.25123 2.352345 -0.08038727
v -0.0002946066 2.079695 -0.003660255
v -0.1047271 1.960548 -0.65456
v -0.9002299 2.028497 -0.552878
v -0.5164443 2.200108 0.03585025
v -0.7135444 1.8385 -0.99584
v 0.1885031 1.984531 -1.168344
v -0.324995 1.339517 -1.522565
v -0.86294 1.903326 0.2718518
v -0.2237146 1.839093 -0.0896071
v -0.0002946066 1.545518 -0.003660255
v -0.2746162 1.484774 0.6044793
v 0.453109 1.494184 0.9481477
v 0.4656139 1.630038 0.2377031
v 0.03927083 1.360245 1.227371
v -0.7934164 1.576785 0.8745019
v -0.6206936 0.9398125 1.482472
v 0.1988836 3.152952 -0.6691247
v 0.2028777 3.127844 -0.1256699
v 0 2.982214 0
v -0.3023594 3.036114 -0.3874618
v -0.7355857 3.236479 -0.03387903
v -0.2687187 3.16903 0.2162286
v -0.814176 3.143069 -0.395302
v -0.2803632 3.078424 -0.8218154
v -0.8805917 2.809254 -0.8984329
v -0.4759664 3.505759 -0.2222832
v -0.06661017 3.369983 -0.1927536
v 0 3.281902 0
v -0.2800247 3.472086 0.1993932
v 0.03963001 3.639853 0.503464
v 0.2096559 3.432379 0.1747808
v -0.255811 3.666586 0.5657794
v -0.6026457 3.59124 0.1517304
v -0.7124258 3.545083 0.6643091
v 0.3687657 2.860234 0.8782413
v 0.6522017 2.638432 0.1654869
v 0 2.638432 0
v -0.08876403 2.860234 0.2961189
v 0.8561451 2.860234 -0.5846677
v 0.1394262 2.860234 -0.4651207
v 1.223298 2.699286 -0.2547739
v 0.9946592 2.67254 0.6504591
v 1.654667 2.20714 0.250309
v 0.5939304 2.331657 -0.7327038
v -0.1047271 1.960548 -0.65456
v -0.0002946066 2.079695 -0.003660255
v 0.25123 2.352345 -0.08038727
v -0.9002299 2.028497 -0.552878
v -0.5164443 2.200108 0.03585025
v -0.7135444 1.8385 -0.99584
v 0.1885031 1.984531 -1.168344
v -0.324995 1.339517 -1.522565
v -0.86294 1.903326 0.2718518
v -0.2746162 1.484774 0.6044793
v -0.0002946066 1.545518 -0.003660255
v -0.2237146 1.839093 -0.0896071
v 0.453109 1.494184 0.9481477
v 0.4656139 1.630038 0.2377031
v 0.03927083 1.360245 1.227371
v -0.7934164 1.576785 0.8745019
v -0.6206936 0.9398125 1.482472
v 0.1988836 3.152952 -0.6691247
v -0.3023594 3.036114 -0.3874618
v 0 2.982214 0
v 0.2028777 3.127844 -0.1256699
v -0.7355857 3.236479 -0.03387903
v -0.2687187 3.16903 0.2162286
v -0.814176 3.143069 -0.395302
v -0.2803632 3.078424 -0.8218154
v -0.8805917 2.809254 -0.8984329
v -0.4759664 3.505759 -0.2222832
v -0.2800247 3.472086 0.1993932
v 0 3.281902 0
v -0.06661017 3.369983 -0.1927536
v 0.03963001 3.639853 0.503464
v 0.2096559 3.432379 0.1747808
v -0.255811 3.666586 0.5657794
v -0.6026457 3.59124 0.1517304
v -0.7124258 3.545083 0.6643091
v 0.1692768 4.029586 -0.456834
v 0.02227542 4.418221 -0.4058976
v -0.1993544 4.065233 -0.4448843
v -0.3530152 4.333661 -0.2408313
v -0.1380432 4.566441 -0.04872943
v 0.2305854 4.530794 -0.06068197
v 0.3842447 4.262366 -0.2647336
v 0.7578076 4.315688 -0.3900088
v 0.3278638 3.850129 -0.7742126
v -0.4093961 3.921422 -0.7503103
v -0.7167161 4.458277 -0.3422058
v -0.2867737 4.923838 0.04199933
v 0.4504876 4.852543 0.01809578
v -0.2000544 4.052605 -0.4287987
v 0.008955562 4.177806 -0.09966864
v 0.1685769 4.016957 -0.4407484
v 0.3835462 4.249737 -0.2486493
v 0.229888 4.518165 -0.04459355
v -0.1387432 4.553812 -0.03264384
v -0.3537151 4.321032 -0.2247458
v -0.7167161 4.458277 -0.3422058
v -0.4093961 3.921422 -0.7503103
v 0.3278638 3.850128 -0.7742126
v 0.7578076 4.315688 -0.3900088
v 0.4504876 4.852543 0.01809578
v -0.2867737 4.923837 0.04199933

vn 0.3569977 0.9313861 -0.07122204
vn 0.3797882 0.9204515 -0.09235778
vn 0.05698339 0.9942148 0.09104796
vn 0.09683419 0.9823145 0.1602539
vn -0.2047982 0.9423404 0.2646739
vn -0.2375554 0.9403472 0.2435459
vn -0.1265003 0.8580642 0.4977183
vn 0.438992 0.8984861 0.002945036
vn 0.1618764 0.9099717 0.3817692
vn -0.2664621 0.8134385 -0.5170258
vn -0.2942892 0.7981054 -0.5257581
vn -0.0009997487 0.9422953 -0.3347814
vn 0.04679133 0.9175084 -0.3949545
vn 0.2664244 0.9501127 -0.1621848
vn 0.2605 0.9574378 -0.1243083
vn 0.4526572 0.8380265 -0.3046523
vn -0.2298819 0.7574891 -0.6110356
vn 0.2271245 0.8208388 -0.5240594
vn 0.03287318 0.7949234 0.6058185
vn 0.04968056 0.7768857 0.6276786
vn -0.07594807 0.9465489 0.3134917
vn -0.151058 0.9291397 0.3374625
vn -0.2049809 0.9784671 0.02418532
vn -0.1787715 0.9838816 -0.004225098
vn -0.4496822 0.8923061 0.03969443
vn -0.05459926 0.7463934 0.6632614
vn -0.3819177 0.8572133 0.3454334
vn -0.27143 0.9609729 -0.05344978
vn -0.3029716 0.9515929 -0.0517607
vn 0.068175 0.9976513 0.006636987
vn 0.07836546 0.99422 -0.07338541
vn 0.3779277 0.9255816 0.02166595
vn 0.3907393 0.9186797 0.05788258
vn 0.4537949 0.8637527 -0.2190927
vn -0.2926746 0.9418333 -0.1652016
vn 0.1583309 0.9420717 -0.2956896
vn 0.3201939 0.9127988 0.253524
vn 0.3175022 0.9043351 0.2852551
vn 0.396174 0.9142444 -0.08487266
vn 0.3213473 0.9419596 -0.09720117
vn 0.3877295 0.8338776 -0.3928283
vn 0.4186258 0.8130903 -0.40452
vn 0.1433785 0.8686468 -0.4742313
vn 0.209441 0.9392264 0.2720078
vn 0.09783641 0.9783528 -0.1823564
vn -0.3569977 -0.9313861 0.07122204
vn -0.09683426 -0.9823145 -0.1602538
vn -0.05698353 -0.9942149 -0.09104782
vn -0.3797882 -0.9204515 0.09235778
vn 0.204798 -0.9423406 -0.2646736
vn 0.2375551 -0.9403473 -0.2435457
vn 0.1265004 -0.8580642 -0.4977183
vn -0.438992 -0.8984861 -0.002945021
vn -0.1618764 -0.9099717 -0.3817692
vn 0.266462 -0.8134385 0.5170259
vn -0.0467914 -0.9175083 0.3949544
vn 0.000999704 -0.9422953 0.3347814
vn 0.2942892 -0.7981054 0.5257581
vn -0.2664244 -0.9501127 0.1621848
vn -0.2605 -0.9574378 0.1243083
vn -0.4526572 -0.8380265 0.3046523
vn 0.2298817 -0.7574891 0.6110357
vn -0.2271246 -0.8208387 0.5240593
vn -0.03287318 -0.7949234 -0.6058185
vn 0.151058 -0.9291397 -0.3374625
vn 0.07594804 -0.9465489 -0.3134917
vn -0.04968056 -0.7768857 -0.6276786
vn 0.2049809 -0.9784672 -0.02418534
vn 0.1787715 -0.9838816 0.004225098
vn 0.4496822 -0.8923061 -0.03969447
vn 0.05459929 -0.7463934 -0.6632614
vn 0.3819177 -0.8572133 -0.3454334
vn 0.27143 -0.9609728 0.05344968
vn -0.07836557 -0.99422 0.07338555
vn -0.06817513 -0.9976513 -0.006636867
vn 0.3029717 -0.9515929 0.05176055
vn -0.3779279 -0.9255815 -0.02166565
vn -0.3907396 -0.9186796 -0.05788222
vn -0.453795 -0.8637525 0.2190927
vn 0.2926745 -0.9418334 0.1652018
vn -0.158331 -0.9420716 0.2956897
vn -0.3201937 -0.9127988 -0.2535241
vn -0.3213473 -0.9419596 0.09720118
vn -0.396174 -0.9142444 0.08487266
vn -0.3175021 -0.9043351 -0.285255
vn -0.3877295 -0.8338776 0.3928283
vn -0.4186259 -0.8130904 0.40452
vn -0.1433784 -0.8686469 0.4742312
vn -0.209441 -0.9392264 -0.2720077
vn -0.09783642 -0.9783528 0.1823564
vn 0.3746336 0.7740427 -0.5103994
vn 0.5549747 0.6171513 -0.557788
vn 0.5576807 0.7507736 -0.3540214
vn 0.7215436 0.5755583 -0.3848474
vn 0.7023593 0.4236119 -0.5720527
vn 0.5193126 0.4468797 -0.7284319
vn 0.3554499 0.6220958 -0.6976045
vn 0.2428123 0.6100371 -0.7542524
vn 0.2715704 0.8378143 -0.4736208
vn 0.5459686 0.8029329 -0.239201
vn 0.7916081 0.5402749 -0.2854112
vn 0.7628503 0.3124978 -0.566043
vn 0.4884526 0.3473783 -0.8004639
vn -0.5388668 -0.8201256 0.192397
vn -0.5549752 -0.6171507 0.557788
vn -0.2293064 -0.8594765 0.4568574
vn -0.1968627 -0.6025109 0.7734506
vn -0.4739799 -0.3061945 0.8255833
vn -0.7835401 -0.2668434 0.5611234
vn -0.8159834 -0.523809 0.2445304
vn -0.8144405 -0.5249351 0.2472444
vn -0.5393769 -0.8190565 0.1954972
vn -0.2321101 -0.8581159 0.4579979
vn -0.1999069 -0.6030538 0.7722458
vn -0.4749712 -0.308933 0.823992
vn -0.7822374 -0.2698737 0.5614916

vt 0.2368164 0
vt 0.229126 0.01809692
vt 0.2341309 0.02403259
vt 0.2507324 0.0135498
vt 0.2626953 0.02877808
vt 0.2419434 0.0333252
vt 0.2687988 0.01887512
vt 0.255127 0
vt 0.2800293 0
vt 0.2368164 0
vt 0.229126 0.01809692
vt 0.2341309 0.02403259
vt 0.2507324 0.0135498
vt 0.2626953 0.02877808
vt 0.2419434 0.0333252
vt 0.2687988 0.01887512
vt 0.255127 0
vt 0.2800293 0
vt 0.2368164 0
vt 0.229126 0.01809692
vt 0.2341309 0.02403259
vt 0.2507324 0.0135498
vt 0.2626953 0.02877808
vt 0.2419434 0.0333252
vt 0.2687988 0.01887512
vt 0.255127 0
vt 0.2800293 0
vt 0.2368164 0
vt 0.229126 0.01809692
vt 0.2341309 0.02403259
vt 0.2507324 0.0135498
vt 0.2626953 0.02877808
vt 0.2419434 0.0333252
vt 0.2687988 0.01887512
vt 0.255127 0
vt 0.2800293 0
vt 0.2368164 0
vt 0.229126 0.01809692
vt 0.2341309 0.02403259
vt 0.2507324 0.0135498
vt 0.2626953 0.02877808
vt 0.2419434 0.0333252
vt 0.2687988 0.01887512
vt 0.255127 0
vt 0.2800293 0
vt 0.2368164 0
vt 0.2507324 0.0135498
vt 0.2341309 0.02403259
vt 0.229126 0.01809692
vt 0.2626953 0.02877808
vt 0.2419434 0.0333252
vt 0.2687988 0.01887512
vt 0.255127 0
vt 0.2800293 0
vt 0.2368164 0
vt 0.2507324 0.0135498
vt 0.2341309 0.02403259
vt 0.229126 0.01809692
vt 0.2626953 0.02877808
vt 0.2419434 0.0333252
vt 0.2687988 0.01887512
vt 0.255127 0
vt 0.2800293 0
vt 0.2368164 0
vt 0.2507324 0.0135498
vt 0.2341309 0.02403259
vt 0.229126 0.01809692
vt 0.2626953 0.02877808
vt 0.2419434 0.0333252
vt 0.2687988 0.01887512
vt 0.255127 0
vt 0.2800293 0
vt 0.2368164 0
vt 0.2507324 0.0135498
vt 0.2341309 0.02403259
vt 0.229126 0.01809692
vt 0.2626953 0.02877808
vt 0.2419434 0.0333252
vt 0.2687988 0.01887512
vt 0.255127 0
vt 0.2800293 0
vt 0.2368164 0
vt 0.2507324 0.0135498
vt 0.2341309 0.02403259
vt 0.229126 0.01809692
vt 0.2626953 0.02877808
vt 0.2419434 0.0333252
vt 0.2687988 0.01887512
vt 0.255127 0
vt 0.2800293 0
vt 0.8276367 0.2266846
vt 0.8217773 0.2175293
vt 0.8164063 0.2266846
vt 0.8110352 0.2175293
vt 0.8164063 0.2073975
vt 0.8276367 0.2073975
vt 0.8330078 0.2175293
vt 0.8442383 0.2175293
vt 0.8330078 0.2368164
vt 0.8110352 0.2368164
vt 0.7998047 0.2175293
vt 0.8110352 0.1982422
vt 0.8330078 0.1982422
vt 0.7905273 0.2695313
vt 0.7851563 0.2602539
vt 0.7792969 0.2695313
vt 0.7739258 0.2602539
vt 0.7792969 0.2502441
vt 0.7905273 0.2502441
vt 0.7958984 0.2602539
vt 0.8071289 0.2602539
vt 0.7958984 0.279541
vt 0.7739258 0.279541
vt 0.7626953 0.2602539
vt 0.7739258 0.2410889
vt 0.7958984 0.2410889

g Sunflower1_alpha_1142_267
usemtl Sunflower1_alpha_1142_267
usemap Sunflower1_alpha_1142_267
f 1/1/1 3/3/3 2/2/2
f 1/1/1 4/4/4 3/3/3
f 3/3/3 4/4/4 5/5/5
f 3/3/3 5/5/5 6/6/6
f 5/5/5 4/4/4 7/7/7
f 1/1/1 8/8/8 4/4/4
f 8/8/8 9/9/9 4/4/4
f 7/7/7 4/4/4 9/9/9
f 10/10/10 12/12/12 11/11/11
f 10/10/10 13/13/13 12/12/12
f 12/12/12 13/13/13 14/14/14
f 12/12/12 14/14/14 15/15/15
f 14/14/14 13/13/13 16/16/16
f 10/10/10 17/17/17 13/13/13
f 17/17/17 18/18/18 13/13/13
f 16/16/16 13/13/13 18/18/18
f 19/19/19 21/21/21 20/20/20
f 19/19/19 22/22/22 21/21/21
f 21/21/21 22/22/22 23/23/23
f 21/21/21 23/23/23 24/24/24
f 23/23/23 22/22/22 25/25/25
f 19/19/19 26/26/26 22/22/22
f 26/26/26 27/27/27 22/22/22
f 25/25/25 22/22/22 27/27/27
f 28/28/28 30/30/30 29/29/29
f 28/28/28 31/31/31 30/30/30
f 30/30/30 31/31/31 32/32/32
f 30/30/30 32/32/32 33/33/33
f 32/32/32 31/31/31 34/34/34
f 28/28/28 35/35/35 31/31/31
f 35/35/35 36/36/36 31/31/31
f 34/34/34 31/31/31 36/36/36
f 37/37/37 39/39/39 38/38/38
f 37/37/37 40/40/40 39/39/39
f 39/39/39 40/40/40 41/41/41
f 39/39/39 41/41/41 42/42/42
f 41/41/41 40/40/40 43/43/43
f 37/37/37 44/44/44 40/40/40
f 44/44/44 45/45/45 40/40/40
f 43/43/43 40/40/40 45/45/45
f 46/46/46 48/48/48 47/47/47
f 46/46/46 49/49/49 48/48/48
f 48/48/48 50/50/50 47/47/47
f 48/48/48 51/51/51 50/50/50
f 50/50/50 52/52/52 47/47/47
f 46/46/46 47/47/47 53/53/53
f 53/53/53 47/47/47 54/54/54
f 52/52/52 54/54/54 47/47/47
f 55/55/55 57/57/57 56/56/56
f 55/55/55 58/58/58 57/57/57
f 57/57/57 59/59/59 56/56/56
f 57/57/57 60/60/60 59/59/59
f 59/59/59 61/61/61 56/56/56
f 55/55/55 56/56/56 62/62/62
f 62/62/62 56/56/56 63/63/63
f 61/61/61 63/63/63 56/56/56
f 64/64/64 66/66/66 65/65/65
f 64/64/64 67/67/67 66/66/66
f 66/66/66 68/68/68 65/65/65
f 66/66/66 69/69/69 68/68/68
f 68/68/68 70/70/70 65/65/65
f 64/64/64 65/65/65 71/71/71
f 71/71/71 65/65/65 72/72/72
f 70/70/70 72/72/72 65/65/65
f 73/73/73 75/75/75 74/74/74
f 73/73/73 76/76/76 75/75/75
f 75/75/75 77/77/77 74/74/74
f 75/75/75 78/78/78 77/77/77
f 77/77/77 79/79/79 74/74/74
f 73/73/73 74/74/74 80/80/80
f 80/80/80 74/74/74 81/81/81
f 79/79/79 81/81/81 74/74/74
f 82/82/82 84/84/84 83/83/83
f 82/82/82 85/85/85 84/84/84
f 84/84/84 86/86/86 83/83/83
f 84/84/84 87/87/87 86/86/86
f 86/86/86 88/88/88 83/83/83
f 82/82/82 83/83/83 89/89/89
f 89/89/89 83/83/83 90/90/90
f 88/88/88 90/90/90 83/83/83
f 91/91/91 93/93/93 92/92/92
f 93/93/93 94/94/94 92/92/92
f 94/94/94 95/95/95 92/92/92
f 95/95/95 96/96/96 92/92/92
f 96/96/96 97/97/97 92/92/92
f 97/97/97 91/91/91 92/92/92
f 98/98/98 91/91/91 97/97/97
f 98/98/98 99/99/99 91/91/91
f 99/99/99 93/93/93 91/91/91
f 99/99/99 100/100/100 93/93/93
f 100/100/100 94/94/94 93/93/93
f 100/100/100 101/101/101 94/94/94
f 101/101/101 95/95/95 94/94/94
f 101/101/101 102/102/102 95/95/95
f 102/102/102 96/96/96 95/95/95
f 102/102/102 103/103/103 96/96/96
f 103/103/103 97/97/97 96/96/96
f 103/103/103 98/98/98 97/97/97
f 104/104/104 106/106/106 105/105/105
f 106/106/106 107/107/107 105/105/105
f 107/107/107 108/108/108 105/105/105
f 108/108/108 109/109/109 105/105/105
f 109/109/109 110/110/110 105/105/105
f 110/110/110 104/104/104 105/105/105
f 111/111/111 104/104/104 110/110/110
f 111/111/111 112/112/112 104/104/104
f 112/112/112 106/106/106 104/104/104
f 112/112/112 113/113/113 106/106/106
f 113/113/113 107/107/107 106/106/106
f 113/113/113 114/114/114 107/107/107
f 114/114/114 108/108/108 107/107/107
f 114/114/114 115/115/115 108/108/108
f 115/115/115 109/109/109 108/108/108
f 115/115/115 116/116/116 109/109/109
f 116/116/116 110/110/110 109/109/109
f 116/116/116 111/111/111 110/110/110
