#Sunflower2_alpha_1184_174.obj

v 1.032037 2.613805 0.01793949
v 0.289856 2.821396 0.2103035
v -0.01660021 2.646058 0.005490535
v 0.4092117 2.503749 -0.5597603
v -0.1595114 2.874316 -1.09955
v -0.3406387 2.961011 -0.3463351
v 0.2610605 2.572826 -1.305539
v 1.021013 2.372295 -0.6839644
v 0.78338 1.877669 -1.480075
v -0.8323796 2.590537 0.01282156
v -0.161418 2.367407 -0.1955314
v -0.003664348 2.079695 -0.006255872
v -0.3784215 2.200186 0.5357913
v 0.2767947 2.208713 1.003119
v 0.4247149 2.165942 0.2962727
v -0.1924287 2.195042 1.219463
v -0.9129557 2.414039 0.6738855
v -0.9425889 1.927896 1.427529
v 0.4574352 1.934327 0.8399929
v -0.07169703 1.96108 0.3274634
v -0.003668396 1.795271 -0.006257939
v 0.6590306 1.84892 0.07578363
v 0.7339547 2.193625 -0.6476403
v 0.04724795 2.093027 -0.443545
v 1.155439 2.033558 -0.3948669
v 1.058526 1.85548 0.512695
v 1.696577 1.532587 -0.02936064
v -0.4704642 2.912592 -0.5448033
v -0.03506534 3.080809 -0.2653011
v 9.779577E-08 2.982214 -0.006055722
v -0.4826756 2.886063 0.04117987
v -0.5016397 3.183787 0.5548471
v -0.03381525 3.224281 0.3007419
v -0.7974376 2.966432 0.4509669
v -0.8241168 2.773248 -0.2070753
v -1.122119 2.474694 0.3034691
v -0.2844091 3.505759 0.4356078
v -0.1999716 3.369983 0.03396684
v -9.359637E-07 3.281902 -0.006053699
v 0.1598334 3.472086 0.2982902
v 0.5042125 3.639853 0.02253605
v 0.201445 3.432379 -0.1902382
v 0.5261404 3.666586 0.3236808
v 0.06911939 3.59124 0.6115439
v 0.562224 3.545083 0.7894088
v 1.032037 2.613805 0.01793949
v 0.4092117 2.503749 -0.5597603
v -0.01660021 2.646058 0.005490535
v 0.289856 2.821396 0.2103035
v -0.1595114 2.874316 -1.09955
v -0.3406387 2.961011 -0.3463351
v 0.2610605 2.572826 -1.305539
v 1.021013 2.372295 -0.6839644
v 0.78338 1.877669 -1.480075
v -0.8323796 2.590537 0.01282156
v -0.3784215 2.200186 0.5357913
v -0.003664348 2.079695 -0.006255872
v -0.161418 2.367407 -0.1955314
v 0.2767947 2.208713 1.003119
v 0.4247149 2.165942 0.2962727
v -0.1924287 2.195042 1.219463
v -0.9129557 2.414039 0.6738855
v -0.9425889 1.927896 1.427529
v 0.4574352 1.934327 0.8399929
v 0.6590306 1.84892 0.07578363
v -0.003668396 1.795271 -0.006257939
v -0.07169703 1.96108 0.3274634
v 0.7339547 2.193625 -0.6476403
v 0.04724795 2.093027 -0.443545
v 1.155439 2.033558 -0.3948669
v 1.058526 1.85548 0.512695
v 1.696577 1.532587 -0.02936064
v -0.4704642 2.912592 -0.5448033
v -0.4826756 2.886063 0.04117987
v 9.779577E-08 2.982214 -0.006055722
v -0.03506534 3.080809 -0.2653011
v -0.5016397 3.183787 0.5548471
v -0.03381525 3.224281 0.3007419
v -0.7974376 2.966432 0.4509669
v -0.8241168 2.773248 -0.2070753
v -1.122119 2.474694 0.3034691
v -0.2844091 3.505759 0.4356078
v 0.1598334 3.472086 0.2982902
v -9.359637E-07 3.281902 -0.006053699
v -0.1999716 3.369983 0.03396684
v 0.5042125 3.639853 0.02253605
v 0.201445 3.432379 -0.1902382
v 0.5261404 3.666586 0.3236808
v 0.06911939 3.59124 0.6115439
v 0.562224 3.545083 0.7894088
v 0.1995044 4.001638 -0.5302352
v 0.02478914 4.463553 -0.4696924
v -0.2386318 4.044007 -0.5160308
v -0.4212674 4.363049 -0.2735041
v -0.1657628 4.63972 -0.04517973
v 0.2723785 4.597352 -0.05938406
v 0.4550101 4.278311 -0.3019128
v 0.8990064 4.341687 -0.4508093
v 0.3879971 3.788342 -0.9074582
v -0.4882804 3.873079 -0.8790495
v -0.8535476 4.511162 -0.393994
v -0.3425383 5.064507 0.06265485
v 0.5337391 4.979769 0.03424616
v -0.2394645 4.028997 -0.4969134
v 0.00895657 4.177806 -0.1057205
v 0.1986717 3.986628 -0.5111178
v 0.4541763 4.2633 -0.2827933
v 0.2715458 4.582341 -0.04026658
v -0.1665915 4.62471 -0.02606019
v -0.4220961 4.348038 -0.2543846
v -0.8535476 4.511162 -0.393994
v -0.4882804 3.873079 -0.8790495
v 0.3879971 3.788342 -0.9074582
v 0.8990074 4.341686 -0.4508114
v 0.5337391 4.979769 0.03424616
v -0.3425373 5.064506 0.06265283

vn 0.3509337 0.9299921 -0.109362
vn 0.3505039 0.9257289 -0.1420321
vn 0.2630773 0.9379171 0.2260568
vn 0.3371567 0.9098856 0.2417301
vn 0.1914862 0.8335473 0.5182006
vn 0.1535143 0.8359467 0.5269026
vn 0.3946014 0.6945162 0.6016119
vn 0.4546571 0.8818968 -0.1246792
vn 0.5248877 0.784894 0.3292937
vn -0.06553943 0.8190625 0.5699483
vn -0.06742738 0.7997285 0.5965632
vn 0.03145821 0.9625024 0.2694429
vn -0.04704616 0.966825 0.2510697
vn 0.07854035 0.9959546 -0.04365531
vn 0.1158005 0.991776 -0.05450089
vn -0.1536788 0.9753241 -0.1585108
vn -0.1792501 0.7998735 0.5727755
vn -0.2603103 0.955703 0.1373688
vn 0.1891084 0.9819348 -0.006465681
vn 0.217635 0.9757874 -0.0217677
vn -0.1458397 0.9857835 0.08343577
vn -0.1209595 0.9796771 0.1600049
vn -0.4259249 0.8834872 0.1950338
vn -0.4522235 0.8761009 0.1671556
vn -0.3876733 0.8093662 0.4411755
vn 0.2570511 0.962675 0.08474316
vn -0.09499229 0.9151633 0.3917302
vn -0.2470603 0.9414731 -0.229324
vn -0.2714089 0.9399009 -0.2071795
vn 0.06156147 0.9203783 -0.3861527
vn 0.0220449 0.8923754 -0.450755
vn 0.3190468 0.7912043 -0.5217324
vn 0.3508986 0.7922568 -0.4991987
vn 0.2363112 0.6491488 -0.7230234
vn -0.3307741 0.8965095 -0.2947188
vn -0.04637416 0.7637165 -0.643884
vn 0.3750937 0.9127983 -0.1615664
vn 0.4017484 0.9043347 -0.144142
vn 0.1132644 0.9142439 -0.3890105
vn 0.06690864 0.9419593 -0.3289921
vn -0.161826 0.8338774 -0.5276938
vn -0.1574584 0.81309 -0.5604386
vn -0.3494212 0.8686472 -0.351222
vn 0.3388149 0.9392262 -0.05530407
vn -0.1141014 0.9783527 -0.1726462
vn -0.3509337 -0.9299922 0.1093619
vn -0.3371567 -0.9098856 -0.2417301
vn -0.2630773 -0.9379171 -0.2260568
vn -0.3505038 -0.9257289 0.1420321
vn -0.1914864 -0.8335474 -0.5182005
vn -0.1535142 -0.8359468 -0.5269025
vn -0.3946016 -0.6945162 -0.6016118
vn -0.4546571 -0.8818968 0.1246792
vn -0.5248877 -0.7848939 -0.3292937
vn 0.06553946 -0.8190626 -0.5699482
vn 0.04704608 -0.966825 -0.2510696
vn -0.03145821 -0.9625024 -0.2694427
vn 0.06742747 -0.7997286 -0.5965631
vn -0.07854055 -0.9959546 0.04365547
vn -0.1158006 -0.991776 0.054501
vn 0.1536787 -0.9753241 0.1585109
vn 0.1792501 -0.7998735 -0.5727754
vn 0.2603103 -0.955703 -0.1373688
vn -0.1891084 -0.9819348 0.006465636
vn 0.1209595 -0.9796771 -0.1600049
vn 0.1458397 -0.9857835 -0.08343577
vn -0.2176351 -0.9757874 0.02176767
vn 0.4259249 -0.8834872 -0.1950338
vn 0.4522235 -0.8761009 -0.1671555
vn 0.3876733 -0.809366 -0.4411755
vn -0.2570512 -0.962675 -0.08474316
vn 0.09499225 -0.9151632 -0.3917302
vn 0.2470602 -0.9414731 0.2293241
vn -0.02204502 -0.8923754 0.450755
vn -0.0615615 -0.9203783 0.3861526
vn 0.2714088 -0.9399009 0.2071795
vn -0.319047 -0.7912042 0.5217326
vn -0.3508987 -0.7922567 0.4991987
vn -0.2363113 -0.6491488 0.7230233
vn 0.330774 -0.8965095 0.2947187
vn 0.0463741 -0.7637166 0.6438839
vn -0.3750936 -0.9127983 0.1615667
vn -0.06690849 -0.9419593 0.3289922
vn -0.1132641 -0.9142439 0.3890106
vn -0.4017483 -0.9043347 0.1441423
vn 0.1618261 -0.8338774 0.5276937
vn 0.1574587 -0.81309 0.5604385
vn 0.3494208 -0.8686471 0.3512223
vn -0.3388149 -0.9392262 0.05530415
vn 0.1141014 -0.9783527 0.1726464
vn 0.5301337 0.7740427 -0.3461447
vn 0.7156235 0.6171514 -0.3271194
vn 0.6465327 0.7507737 -0.1354042
vn 0.8107743 0.5755582 -0.1066661
vn 0.8586172 0.4236116 -0.2886688
vn 0.7422186 0.4468801 -0.4994095
vn 0.5779767 0.6220959 -0.5281473
vn 0.492439 0.6100371 -0.6207725
vn 0.4207193 0.8378143 -0.3479402
vn 0.5952083 0.8029329 -0.03202756
vn 0.8414161 0.5402747 0.01105231
vn 0.9131355 0.3124977 -0.2617801
vn 0.738647 0.3473789 -0.5776923
vn -0.5721083 -0.8201255 -0.009292781
vn -0.7156238 -0.6171513 0.3271191
vn -0.3752602 -0.8594764 0.3471021
vn -0.4561695 -0.602511 0.6548967
vn -0.7339277 -0.3061944 0.6062962
vn -0.9307759 -0.2668435 0.2499016
vn -0.849866 -0.5238093 -0.05789295
vn -0.8493754 -0.5249356 -0.05480975
vn -0.5736756 -0.8190562 -0.006569698
vn -0.3782861 -0.8581156 0.3471846
vn -0.4585959 -0.6030541 0.6526986
vn -0.7342963 -0.3089329 0.604458
vn -0.9296857 -0.2698738 0.2507042

vt 0.2368164 0
vt 0.229126 0.01809692
vt 0.2341309 0.02403259
vt 0.2507324 0.0135498
vt 0.2626953 0.02877808
vt 0.2419434 0.0333252
vt 0.2687988 0.01887512
vt 0.255127 0
vt 0.2800293 0
vt 0.2368164 0
vt 0.229126 0.01809692
vt 0.2341309 0.02403259
vt 0.2507324 0.0135498
vt 0.2626953 0.02877808
vt 0.2419434 0.0333252
vt 0.2687988 0.01887512
vt 0.255127 0
vt 0.2800293 0
vt 0.2368164 0
vt 0.229126 0.01809692
vt 0.2341309 0.02403259
vt 0.2507324 0.0135498
vt 0.2626953 0.02877808
vt 0.2419434 0.0333252
vt 0.2687988 0.01887512
vt 0.255127 0
vt 0.2800293 0
vt 0.2368164 0
vt 0.229126 0.01809692
vt 0.2341309 0.02403259
vt 0.2507324 0.0135498
vt 0.2626953 0.02877808
vt 0.2419434 0.0333252
vt 0.2687988 0.01887512
vt 0.255127 0
vt 0.2800293 0
vt 0.2368164 0
vt 0.229126 0.01809692
vt 0.2341309 0.02403259
vt 0.2507324 0.0135498
vt 0.2626953 0.02877808
vt 0.2419434 0.0333252
vt 0.2687988 0.01887512
vt 0.255127 0
vt 0.2800293 0
vt 0.2368164 0
vt 0.2507324 0.0135498
vt 0.2341309 0.02403259
vt 0.229126 0.01809692
vt 0.2626953 0.02877808
vt 0.2419434 0.0333252
vt 0.2687988 0.01887512
vt 0.255127 0
vt 0.2800293 0
vt 0.2368164 0
vt 0.2507324 0.0135498
vt 0.2341309 0.02403259
vt 0.229126 0.01809692
vt 0.2626953 0.02877808
vt 0.2419434 0.0333252
vt 0.2687988 0.01887512
vt 0.255127 0
vt 0.2800293 0
vt 0.2368164 0
vt 0.2507324 0.0135498
vt 0.2341309 0.02403259
vt 0.229126 0.01809692
vt 0.2626953 0.02877808
vt 0.2419434 0.0333252
vt 0.2687988 0.01887512
vt 0.255127 0
vt 0.2800293 0
vt 0.2368164 0
vt 0.2507324 0.0135498
vt 0.2341309 0.02403259
vt 0.229126 0.01809692
vt 0.2626953 0.02877808
vt 0.2419434 0.0333252
vt 0.2687988 0.01887512
vt 0.255127 0
vt 0.2800293 0
vt 0.2368164 0
vt 0.2507324 0.0135498
vt 0.2341309 0.02403259
vt 0.229126 0.01809692
vt 0.2626953 0.02877808
vt 0.2419434 0.0333252
vt 0.2687988 0.01887512
vt 0.255127 0
vt 0.2800293 0
vt 0.8276367 0.2266846
vt 0.8217773 0.2175293
vt 0.8164063 0.2266846
vt 0.8110352 0.2175293
vt 0.8164063 0.2073975
vt 0.8276367 0.2073975
vt 0.8330078 0.2175293
vt 0.8442383 0.2175293
vt 0.8330078 0.2368164
vt 0.8110352 0.2368164
vt 0.7998047 0.2175293
vt 0.8110352 0.1982422
vt 0.8330078 0.1982422
vt 0.7905273 0.2695313
vt 0.7851563 0.2602539
vt 0.7792969 0.2695313
vt 0.7739258 0.2602539
vt 0.7792969 0.2502441
vt 0.7905273 0.2502441
vt 0.7958984 0.2602539
vt 0.8071289 0.2602539
vt 0.7958984 0.279541
vt 0.7739258 0.279541
vt 0.7626953 0.2602539
vt 0.7739258 0.2410889
vt 0.7958984 0.2410889

g Sunflower2_alpha_1184_174
usemtl Sunflower2_alpha_1184_174
usemap Sunflower2_alpha_1184_174
f 1/1/1 3/3/3 2/2/2
f 1/1/1 4/4/4 3/3/3
f 3/3/3 4/4/4 5/5/5
f 3/3/3 5/5/5 6/6/6
f 5/5/5 4/4/4 7/7/7
f 1/1/1 8/8/8 4/4/4
f 8/8/8 9/9/9 4/4/4
f 7/7/7 4/4/4 9/9/9
f 10/10/10 12/12/12 11/11/11
f 10/10/10 13/13/13 12/12/12
f 12/12/12 13/13/13 14/14/14
f 12/12/12 14/14/14 15/15/15
f 14/14/14 13/13/13 16/16/16
f 10/10/10 17/17/17 13/13/13
f 17/17/17 18/18/18 13/13/13
f 16/16/16 13/13/13 18/18/18
f 19/19/19 21/21/21 20/20/20
f 19/19/19 22/22/22 21/21/21
f 21/21/21 22/22/22 23/23/23
f 21/21/21 23/23/23 24/24/24
f 23/23/23 22/22/22 25/25/25
f 19/19/19 26/26/26 22/22/22
f 26/26/26 27/27/27 22/22/22
f 25/25/25 22/22/22 27/27/27
f 28/28/28 30/30/30 29/29/29
f 28/28/28 31/31/31 30/30/30
f 30/30/30 31/31/31 32/32/32
f 30/30/30 32/32/32 33/33/33
f 32/32/32 31/31/31 34/34/34
f 28/28/28 35/35/35 31/31/31
f 35/35/35 36/36/36 31/31/31
f 34/34/34 31/31/31 36/36/36
f 37/37/37 39/39/39 38/38/38
f 37/37/37 40/40/40 39/39/39
f 39/39/39 40/40/40 41/41/41
f 39/39/39 41/41/41 42/42/42
f 41/41/41 40/40/40 43/43/43
f 37/37/37 44/44/44 40/40/40
f 44/44/44 45/45/45 40/40/40
f 43/43/43 40/40/40 45/45/45
f 46/46/46 48/48/48 47/47/47
f 46/46/46 49/49/49 48/48/48
f 48/48/48 50/50/50 47/47/47
f 48/48/48 51/51/51 50/50/50
f 50/50/50 52/52/52 47/47/47
f 46/46/46 47/47/47 53/53/53
f 53/53/53 47/47/47 54/54/54
f 52/52/52 54/54/54 47/47/47
f 55/55/55 57/57/57 56/56/56
f 55/55/55 58/58/58 57/57/57
f 57/57/57 59/59/59 56/56/56
f 57/57/57 60/60/60 59/59/59
f 59/59/59 61/61/61 56/56/56
f 55/55/55 56/56/56 62/62/62
f 62/62/62 56/56/56 63/63/63
f 61/61/61 63/63/63 56/56/56
f 64/64/64 66/66/66 65/65/65
f 64/64/64 67/67/67 66/66/66
f 66/66/66 68/68/68 65/65/65
f 66/66/66 69/69/69 68/68/68
f 68/68/68 70/70/70 65/65/65
f 64/64/64 65/65/65 71/71/71
f 71/71/71 65/65/65 72/72/72
f 70/70/70 72/72/72 65/65/65
f 73/73/73 75/75/75 74/74/74
f 73/73/73 76/76/76 75/75/75
f 75/75/75 77/77/77 74/74/74
f 75/75/75 78/78/78 77/77/77
f 77/77/77 79/79/79 74/74/74
f 73/73/73 74/74/74 80/80/80
f 80/80/80 74/74/74 81/81/81
f 79/79/79 81/81/81 74/74/74
f 82/82/82 84/84/84 83/83/83
f 82/82/82 85/85/85 84/84/84
f 84/84/84 86/86/86 83/83/83
f 84/84/84 87/87/87 86/86/86
f 86/86/86 88/88/88 83/83/83
f 82/82/82 83/83/83 89/89/89
f 89/89/89 83/83/83 90/90/90
f 88/88/88 90/90/90 83/83/83
f 91/91/91 93/93/93 92/92/92
f 93/93/93 94/94/94 92/92/92
f 94/94/94 95/95/95 92/92/92
f 95/95/95 96/96/96 92/92/92
f 96/96/96 97/97/97 92/92/92
f 97/97/97 91/91/91 92/92/92
f 98/98/98 91/91/91 97/97/97
f 98/98/98 99/99/99 91/91/91
f 99/99/99 93/93/93 91/91/91
f 99/99/99 100/100/100 93/93/93
f 100/100/100 94/94/94 93/93/93
f 100/100/100 101/101/101 94/94/94
f 101/101/101 95/95/95 94/94/94
f 101/101/101 102/102/102 95/95/95
f 102/102/102 96/96/96 95/95/95
f 102/102/102 103/103/103 96/96/96
f 103/103/103 97/97/97 96/96/96
f 103/103/103 98/98/98 97/97/97
f 104/104/104 106/106/106 105/105/105
f 106/106/106 107/107/107 105/105/105
f 107/107/107 108/108/108 105/105/105
f 108/108/108 109/109/109 105/105/105
f 109/109/109 110/110/110 105/105/105
f 110/110/110 104/104/104 105/105/105
f 111/111/111 104/104/104 110/110/110
f 111/111/111 112/112/112 104/104/104
f 112/112/112 106/106/106 104/104/104
f 112/112/112 113/113/113 106/106/106
f 113/113/113 107/107/107 106/106/106
f 113/113/113 114/114/114 107/107/107
f 114/114/114 108/108/108 107/107/107
f 114/114/114 115/115/115 108/108/108
f 115/115/115 109/109/109 108/108/108
f 115/115/115 116/116/116 109/109/109
f 116/116/116 110/110/110 109/109/109
f 116/116/116 111/111/111 110/110/110
