#Tire_1153_153.obj

v -0.5059621 0.002591572 0.4228165
v -0.5087356 0.5904867 0.4101923
v -0.6605991 0.5816523 0.03213658
v -0.6578255 -0.006242717 0.04476083
v -0.1608316 0.00887119 0.6393995
v -0.1636052 0.5967662 0.6267753
v 0.2457388 0.0101965 0.6117859
v 0.2429653 0.5980915 0.5991616
v 0.5584531 0.006061294 0.3505286
v 0.5556795 0.5939564 0.3379043
v 0.2429653 0.5980915 0.5991616
v 0.2457388 0.0101965 0.6117859
v 0.6578643 -0.001954513 -0.04458792
v 0.6550907 0.5859405 -0.05721217
v -0.5087356 0.5904867 0.4101923
v -0.8924257 0.5955606 0.7307451
v -1.159447 0.5800257 0.06601835
v -0.6605991 0.5816523 0.03213658
v -0.1636052 0.5967662 0.6267753
v -0.2855789 0.6066009 1.111572
v 0.2429653 0.5980915 0.5991616
v 0.4292966 0.6089314 1.06302
v 0.5556795 0.5939564 0.3379043
v 0.9791438 0.6016605 0.6036488
v 0.6550907 0.5859405 -0.05721217
v 1.153939 0.5875666 -0.09108799
v -0.8924257 0.5955606 0.7307451
v -0.8896521 0.007665594 0.7433693
v -1.156674 -0.007869299 0.0786426
v -1.159447 0.5800257 0.06601835
v -0.2855789 0.6066009 1.111572
v -0.2828053 0.01870583 1.124196
v 0.4292966 0.6089314 1.06302
v 0.4320701 0.02103624 1.075644
v -0.2828053 0.01870583 1.124196
v -0.2855789 0.6066009 1.111572
v 0.9791438 0.6016605 0.6036488
v 0.9819174 0.01376543 0.616273
v 1.153939 0.5875666 -0.09108799
v 1.156713 -0.0003284664 -0.07846374
v 0.5060012 -0.01078941 -0.4226377
v 0.5032277 0.5771057 -0.4352619
v 0.6550907 0.5859405 -0.05721217
v 0.6578643 -0.001954513 -0.04458792
v 0.1608708 -0.01706899 -0.6392207
v 0.1580967 0.5708266 -0.6518509
v -0.2457001 -0.01839377 -0.611613
v -0.2484737 0.5695013 -0.6242372
v -0.5584143 -0.0142585 -0.3503557
v -0.5611879 0.5736365 -0.3629799
v -0.2484737 0.5695013 -0.6242372
v -0.2457001 -0.01839377 -0.611613
v -0.6578255 -0.006242717 0.04476083
v -0.6605991 0.5816523 0.03213658
v 0.5032277 0.5771057 -0.4352619
v 0.8869173 0.5720323 -0.7558207
v 1.153939 0.5875666 -0.09108799
v 0.6550907 0.5859405 -0.05721217
v 0.1580967 0.5708266 -0.6518509
v 0.2800709 0.5609915 -1.136642
v -0.2484737 0.5695013 -0.6242372
v -0.434805 0.5586615 -1.088095
v -0.5611879 0.5736365 -0.3629799
v -0.9846519 0.5659318 -0.6287184
v -0.6605991 0.5816523 0.03213658
v -1.159447 0.5800257 0.06601835
v 0.8869173 0.5720323 -0.7558207
v 0.8896908 -0.01586282 -0.7431964
v 1.156713 -0.0003284664 -0.07846374
v 1.153939 0.5875666 -0.09108799
v 0.2800709 0.5609915 -1.136642
v 0.2828444 -0.02690363 -1.124017
v -0.434805 0.5586615 -1.088095
v -0.4320314 -0.02923351 -1.075471
v 0.2828444 -0.02690363 -1.124017
v 0.2800709 0.5609915 -1.136642
v -0.9846519 0.5659318 -0.6287184
v -0.9818783 -0.02196323 -0.6160942
v -1.159447 0.5800257 0.06601835
v -1.156674 -0.007869299 0.0786426
v -0.5059621 0.002591572 0.4228165
v -0.6578255 -0.006242717 0.04476083
v -1.156674 -0.007869299 0.0786426
v -0.8896521 0.007665594 0.7433693
v -0.1608316 0.00887119 0.6393995
v -0.2828053 0.01870583 1.124196
v 0.2457388 0.0101965 0.6117859
v 0.4320701 0.02103624 1.075644
v 0.5584531 0.006061294 0.3505286
v 0.9819174 0.01376543 0.616273
v 0.6578643 -0.001954513 -0.04458792
v 1.156713 -0.0003284664 -0.07846374
v 0.5060012 -0.01078941 -0.4226377
v 0.6578643 -0.001954513 -0.04458792
v 1.156713 -0.0003284664 -0.07846374
v 0.8896908 -0.01586282 -0.7431964
v 0.1608708 -0.01706899 -0.6392207
v 0.2828444 -0.02690363 -1.124017
v -0.2457001 -0.01839377 -0.611613
v -0.4320314 -0.02923351 -1.075471
v -0.5584143 -0.0142585 -0.3503557
v -0.9818783 -0.02196323 -0.6160942
v -0.6578255 -0.006242717 0.04476083
v -1.156674 -0.007869299 0.0786426

vn 0.701376 0.4091524 -0.5836661
vn 0.701376 0.4091524 -0.5836661
vn 0.8178898 0.575375 8.069352E-05
vn 0.8178898 0.575375 8.069352E-05
vn 0.3169602 0.08664736 -0.9444725
vn 0.3169602 0.08664736 -0.9444725
vn -0.1885235 -0.2689539 -0.9445223
vn -0.1885235 -0.2689539 -0.9445223
vn -0.6219976 -0.5218239 -0.5837969
vn -0.6219976 -0.5218239 -0.5837969
vn -0.1885235 -0.2689539 -0.9445223
vn -0.1885235 -0.2689539 -0.9445223
vn -0.8178898 -0.575375 -8.069352E-05
vn -0.8178898 -0.575375 -8.069352E-05
vn -0.571399 0.8122547 -0.1172411
vn -0.8877837 0.02137256 0.4597643
vn -0.9905812 -0.1252812 -0.0552608
vn -0.571399 0.8122547 -0.1172411
vn -0.571399 0.8122547 -0.1172411
vn -0.5486236 0.3059102 0.7780944
vn -0.571399 0.8122547 -0.1172411
vn -0.1026483 0.6196482 0.7781383
vn -0.571399 0.8122547 -0.1172411
vn 0.2797948 0.8427489 0.4598795
vn -0.571399 0.8122547 -0.1172411
vn 0.4526254 0.8899958 -0.05511839
vn -0.8877837 0.02137256 0.4597643
vn -0.349828 -0.7433417 0.5701434
vn -0.4526251 -0.8899958 0.05511841
vn -0.9905812 -0.1252812 -0.0552608
vn -0.5486236 0.3059102 0.7780944
vn -0.01066818 -0.4588037 0.8884735
vn -0.1026483 0.6196482 0.7781383
vn 0.4353072 -0.1450658 0.8885174
vn -0.01066818 -0.4588037 0.8884735
vn -0.5486236 0.3059102 0.7780944
vn 0.2797948 0.8427489 0.4598795
vn 0.8177503 0.07803482 0.5702586
vn 0.4526254 0.8899958 -0.05511839
vn 0.990581 0.1252815 0.05526076
vn -0.701376 -0.4091524 0.5836661
vn -0.701376 -0.4091524 0.5836661
vn -0.8178898 -0.575375 -8.069352E-05
vn -0.8178898 -0.575375 -8.069352E-05
vn -0.3169602 -0.08664736 0.9444725
vn -0.3169602 -0.08664736 0.9444725
vn 0.1885235 0.2689539 0.9445223
vn 0.1885235 0.2689539 0.9445223
vn 0.6219976 0.5218239 0.5837969
vn 0.6219976 0.5218239 0.5837969
vn 0.1885235 0.2689539 0.9445223
vn 0.1885235 0.2689539 0.9445223
vn 0.8178898 0.575375 8.069352E-05
vn 0.8178898 0.575375 8.069352E-05
vn -0.571399 0.8122547 -0.1172411
vn 0.3498281 0.7433416 -0.5701434
vn 0.4526254 0.8899958 -0.05511839
vn -0.571399 0.8122547 -0.1172411
vn -0.571399 0.8122547 -0.1172411
vn 0.01066812 0.4588037 -0.8884735
vn -0.571399 0.8122547 -0.1172411
vn -0.4353072 0.1450658 -0.8885174
vn -0.571399 0.8122547 -0.1172411
vn -0.8177503 -0.07803464 -0.5702586
vn -0.571399 0.8122547 -0.1172411
vn -0.9905812 -0.1252812 -0.0552608
vn 0.3498281 0.7433416 -0.5701434
vn 0.8877838 -0.02137247 -0.4597643
vn 0.990581 0.1252815 0.05526076
vn 0.4526254 0.8899958 -0.05511839
vn 0.01066812 0.4588037 -0.8884735
vn 0.5486236 -0.3059102 -0.7780944
vn -0.4353072 0.1450658 -0.8885174
vn 0.1026483 -0.6196482 -0.7781383
vn 0.5486236 -0.3059102 -0.7780944
vn 0.01066812 0.4588037 -0.8884735
vn -0.8177503 -0.07803464 -0.5702586
vn -0.2797945 -0.8427491 -0.4598794
vn -0.9905812 -0.1252812 -0.0552608
vn -0.4526251 -0.8899958 0.05511841
vn 0.571399 -0.8122547 0.1172411
vn 0.571399 -0.8122547 0.1172411
vn -0.4526251 -0.8899958 0.05511841
vn -0.349828 -0.7433417 0.5701434
vn 0.571399 -0.8122547 0.1172411
vn -0.01066818 -0.4588037 0.8884735
vn 0.571399 -0.8122547 0.1172411
vn 0.4353072 -0.1450658 0.8885174
vn 0.571399 -0.8122547 0.1172411
vn 0.8177503 0.07803482 0.5702586
vn 0.571399 -0.8122547 0.1172411
vn 0.990581 0.1252815 0.05526076
vn 0.571399 -0.8122547 0.1172411
vn 0.571399 -0.8122547 0.1172411
vn 0.990581 0.1252815 0.05526076
vn 0.8877838 -0.02137247 -0.4597643
vn 0.571399 -0.8122547 0.1172411
vn 0.5486236 -0.3059102 -0.7780944
vn 0.571399 -0.8122547 0.1172411
vn 0.1026483 -0.6196482 -0.7781383
vn 0.571399 -0.8122547 0.1172411
vn -0.2797945 -0.8427491 -0.4598794
vn 0.571399 -0.8122547 0.1172411
vn -0.4526251 -0.8899958 0.05511841

vt 0.9125977 0.9438477
vt 0.9125977 0.9345703
vt 0.902832 0.9345703
vt 0.902832 0.9438477
vt 0.9228516 0.9438477
vt 0.9228516 0.9345703
vt 0.9326172 0.9438477
vt 0.9326172 0.9345703
vt 0.9228516 0.9438477
vt 0.9228516 0.9345703
vt 0.9125977 0.9345703
vt 0.9125977 0.9438477
vt 0.9326172 0.9438477
vt 0.9326172 0.9345703
vt 0.9199219 0.7944336
vt 0.9301758 0.7924805
vt 0.9233398 0.7792969
vt 0.9160156 0.7866211
vt 0.918457 0.8027344
vt 0.9277344 0.8071289
vt 0.9125977 0.8085938
vt 0.9169922 0.8178711
vt 0.9042969 0.8100586
vt 0.9023438 0.8203125
vt 0.8964844 0.8061523
vt 0.8891602 0.8134766
vt 0.9619141 0.8735352
vt 0.9619141 0.8583984
vt 0.9448242 0.8583984
vt 0.9448242 0.8735352
vt 0.9794922 0.8735352
vt 0.9794922 0.8583984
vt 0.9619141 0.8735352
vt 0.9619141 0.8583984
vt 0.9448242 0.8583984
vt 0.9448242 0.8735352
vt 0.9794922 0.8735352
vt 0.9794922 0.8583984
vt 0.996582 0.8735352
vt 0.996582 0.8583984
vt 0.9125977 0.9438477
vt 0.9125977 0.9345703
vt 0.902832 0.9345703
vt 0.902832 0.9438477
vt 0.9228516 0.9438477
vt 0.9228516 0.9345703
vt 0.9326172 0.9438477
vt 0.9326172 0.9345703
vt 0.9228516 0.9438477
vt 0.9228516 0.9345703
vt 0.9125977 0.9345703
vt 0.9125977 0.9438477
vt 0.9326172 0.9438477
vt 0.9326172 0.9345703
vt 0.9199219 0.7944336
vt 0.9301758 0.7924805
vt 0.9233398 0.7792969
vt 0.9160156 0.7866211
vt 0.918457 0.8027344
vt 0.9277344 0.8071289
vt 0.9125977 0.8085938
vt 0.9169922 0.8178711
vt 0.9042969 0.8100586
vt 0.9023438 0.8203125
vt 0.8964844 0.8061523
vt 0.8891602 0.8134766
vt 0.9619141 0.8735352
vt 0.9619141 0.8583984
vt 0.9448242 0.8583984
vt 0.9448242 0.8735352
vt 0.9794922 0.8735352
vt 0.9794922 0.8583984
vt 0.9619141 0.8735352
vt 0.9619141 0.8583984
vt 0.9448242 0.8583984
vt 0.9448242 0.8735352
vt 0.9794922 0.8735352
vt 0.9794922 0.8583984
vt 0.996582 0.8735352
vt 0.996582 0.8583984
vt 0.9199219 0.7944336
vt 0.9160156 0.7866211
vt 0.9233398 0.7792969
vt 0.9301758 0.7924805
vt 0.918457 0.8027344
vt 0.9277344 0.8071289
vt 0.9125977 0.8085938
vt 0.9169922 0.8178711
vt 0.9042969 0.8100586
vt 0.9023438 0.8203125
vt 0.8964844 0.8061523
vt 0.8891602 0.8134766
vt 0.9199219 0.7944336
vt 0.9160156 0.7866211
vt 0.9233398 0.7792969
vt 0.9301758 0.7924805
vt 0.918457 0.8027344
vt 0.9277344 0.8071289
vt 0.9125977 0.8085938
vt 0.9169922 0.8178711
vt 0.9042969 0.8100586
vt 0.9023438 0.8203125
vt 0.8964844 0.8061523
vt 0.8891602 0.8134766

g Tire_1153_153
usemtl Tire_1153_153
usemap Tire_1153_153
f 1/1/1 3/3/3 2/2/2
f 1/1/1 4/4/4 3/3/3
f 5/5/5 1/1/1 2/2/2
f 5/5/5 2/2/2 6/6/6
f 7/7/7 5/5/5 6/6/6
f 7/7/7 6/6/6 8/8/8
f 9/9/9 11/11/11 10/10/10
f 9/9/9 12/12/12 11/11/11
f 13/13/13 9/9/9 10/10/10
f 13/13/13 10/10/10 14/14/14
f 15/15/15 17/17/17 16/16/16
f 15/15/15 18/18/18 17/17/17
f 19/19/19 15/15/15 16/16/16
f 19/19/19 16/16/16 20/20/20
f 21/21/21 19/19/19 20/20/20
f 21/21/21 20/20/20 22/22/22
f 23/23/23 21/21/21 22/22/22
f 23/23/23 22/22/22 24/24/24
f 25/25/25 23/23/23 24/24/24
f 25/25/25 24/24/24 26/26/26
f 27/27/27 29/29/29 28/28/28
f 27/27/27 30/30/30 29/29/29
f 31/31/31 27/27/27 28/28/28
f 31/31/31 28/28/28 32/32/32
f 33/33/33 35/35/35 34/34/34
f 33/33/33 36/36/36 35/35/35
f 37/37/37 33/33/33 34/34/34
f 37/37/37 34/34/34 38/38/38
f 39/39/39 37/37/37 38/38/38
f 39/39/39 38/38/38 40/40/40
f 41/41/41 43/43/43 42/42/42
f 41/41/41 44/44/44 43/43/43
f 45/45/45 41/41/41 42/42/42
f 45/45/45 42/42/42 46/46/46
f 47/47/47 45/45/45 46/46/46
f 47/47/47 46/46/46 48/48/48
f 49/49/49 51/51/51 50/50/50
f 49/49/49 52/52/52 51/51/51
f 53/53/53 49/49/49 50/50/50
f 53/53/53 50/50/50 54/54/54
f 55/55/55 57/57/57 56/56/56
f 55/55/55 58/58/58 57/57/57
f 59/59/59 55/55/55 56/56/56
f 59/59/59 56/56/56 60/60/60
f 61/61/61 59/59/59 60/60/60
f 61/61/61 60/60/60 62/62/62
f 63/63/63 61/61/61 62/62/62
f 63/63/63 62/62/62 64/64/64
f 65/65/65 63/63/63 64/64/64
f 65/65/65 64/64/64 66/66/66
f 67/67/67 69/69/69 68/68/68
f 67/67/67 70/70/70 69/69/69
f 71/71/71 67/67/67 68/68/68
f 71/71/71 68/68/68 72/72/72
f 73/73/73 75/75/75 74/74/74
f 73/73/73 76/76/76 75/75/75
f 77/77/77 73/73/73 74/74/74
f 77/77/77 74/74/74 78/78/78
f 79/79/79 77/77/77 78/78/78
f 79/79/79 78/78/78 80/80/80
f 81/81/81 83/83/83 82/82/82
f 81/81/81 84/84/84 83/83/83
f 85/85/85 84/84/84 81/81/81
f 85/85/85 86/86/86 84/84/84
f 87/87/87 86/86/86 85/85/85
f 87/87/87 88/88/88 86/86/86
f 89/89/89 88/88/88 87/87/87
f 89/89/89 90/90/90 88/88/88
f 91/91/91 90/90/90 89/89/89
f 91/91/91 92/92/92 90/90/90
f 93/93/93 95/95/95 94/94/94
f 93/93/93 96/96/96 95/95/95
f 97/97/97 96/96/96 93/93/93
f 97/97/97 98/98/98 96/96/96
f 99/99/99 98/98/98 97/97/97
f 99/99/99 100/100/100 98/98/98
f 101/101/101 100/100/100 99/99/99
f 101/101/101 102/102/102 100/100/100
f 103/103/103 102/102/102 101/101/101
f 103/103/103 104/104/104 102/102/102
