#Tree2_(1)_729_87.obj

v -0.947683 2.593094 -1.247158
v -1.43189 2.457369 -1.18567
v -0.7597011 2.141749 -1.385764
v -1.388367 1.965532 -1.30593
v -1.743185 2.410607 -0.7887206
v -1.792537 1.904819 -0.7905539
v -1.699211 2.480202 -0.2888373
v -1.735445 1.995176 -0.1415337
v -1.325735 2.625384 0.02115479
v -1.250543 2.183674 0.26094
v -0.8415245 2.76111 -0.04033605
v -0.621873 2.359892 0.1811081
v -0.5302328 2.807871 -0.4372861
v -0.2177065 2.420604 -0.3342701
v -0.5742028 2.738276 -0.9371688
v -0.2747955 2.330247 -0.983288
v -0.9974773 2.86026 -0.8983192
v -1.4466 2.734369 -0.8412839
v -1.227294 2.916618 -0.6478291
v -1.405815 2.798922 -0.3776199
v -0.9566885 2.924814 -0.4346547
v 2.077333 5.668246 -2.225861
v 1.221398 5.541389 -2.802408
v 2.515573 5.079143 -2.417614
v 1.35908 4.907739 -3.196617
v 0.201632 5.496245 -2.604496
v -0.01877441 4.846745 -2.929208
v -0.3846011 5.559262 -1.748054
v -0.8108585 4.931889 -1.772031
v -0.1938927 5.693524 -0.7347761
v -0.553186 5.113296 -0.4029429
v 0.6620454 5.820383 -0.1582223
v 0.6033148 5.284699 0.3760618
v 1.681815 5.865525 -0.3561363
v 1.981169 5.345695 0.1086546
v 2.268048 5.802509 -1.212577
v 2.773253 5.26055 -1.048525
v 2.783708 4.389544 -2.480873
v 1.46008 4.193369 -3.372454
v -0.1168908 4.123561 -3.066399
v -1.023444 4.22101 -1.741995
v -0.7285305 4.428633 -0.1750537
v 0.5950967 4.624807 0.7165317
v 2.172075 4.694616 0.4104775
v 3.078621 4.597167 -0.9139329
v 1.038743 6.029766 -0.9008334
v 0.3081523 5.921485 -1.392953
v 0.9201335 6.000619 -1.518621
v 0.8085353 5.867697 -2.123973
v 1.539119 5.975979 -1.631857
v 0.9061303 4.917651 -2.688765
v -0.07884538 4.917651 -2.280775
v 0.9061304 4.300433 -3.177898
v -0.4247175 4.300433 -2.626643
v -0.4868364 4.917651 -1.295798
v -0.9759662 4.300433 -1.295798
v -0.07884437 4.917651 -0.3108221
v -0.4247175 4.300433 0.03504548
v 0.9061285 4.917651 0.09716839
v 0.9061283 4.300433 0.5863019
v 1.891108 4.917651 -0.3108213
v 2.236976 4.300433 0.03504622
v 2.299099 4.917651 -1.295798
v 2.788232 4.300433 -1.295798
v 1.891111 4.917651 -2.280775
v 2.236976 4.300433 -2.626644
v 0.9061325 3.575043 -3.613034
v -0.7324028 3.575043 -2.934332
v -1.411104 3.575043 -1.295798
v -0.7324036 3.575043 0.3427331
v 0.9061298 3.575043 1.02144
v 2.54467 3.575043 0.3427331
v 3.223371 3.575043 -1.295801
v 2.544662 3.575043 -2.934331
v 1.500617 5.200411 -1.049555
v 0.6598837 5.200411 -0.7013123
v 0.9061295 5.255187 -1.295799
v 0.3116424 5.200411 -1.542043
v 1.152375 5.200411 -1.890282

vn -0.02471021 0.4964109 -0.8677359
vn -0.6241863 0.324102 -0.7108793
vn 0.05940787 0.2762739 -0.959241
vn -0.6178843 0.08159798 -0.7820235
vn -0.9509399 0.2647371 -0.1600862
vn -0.9870535 0.01452599 -0.1597326
vn -0.8135643 0.3530899 0.4619963
vn -0.8318445 0.114349 0.5431013
vn -0.2925308 0.5374057 0.790962
vn -0.243177 0.32259 0.9147681
vn 0.3069462 0.7097141 0.6341057
vn 0.4341153 0.5172651 0.7375505
vn 0.6337 0.7690797 0.0833113
vn 0.8032844 0.5843369 0.1152586
vn 0.4963235 0.6807264 -0.5387713
vn 0.6480753 0.484515 -0.5875743
vn -0.1182907 0.8906247 -0.4390841
vn -0.6233957 0.7524443 -0.2126157
vn -0.2926259 0.9536011 -0.07081706
vn -0.4172212 0.8544849 0.3094867
vn 0.08788276 0.9926653 0.08301906
vn 0.4943131 0.6742987 -0.5486126
vn 0.0007668808 0.6064851 -0.7950945
vn 0.6462402 0.424205 -0.6343687
vn 0.03483938 0.3401981 -0.9397082
vn -0.5261155 0.5823539 -0.6197308
vn -0.6178584 0.310304 -0.7224696
vn -0.7776939 0.6160398 -0.1252487
vn -0.9295118 0.352034 -0.1099078
vn -0.6065964 0.6878113 0.3986934
vn -0.7175577 0.4409437 0.539147
vn -0.1130497 0.7556249 0.6451749
vn -0.1061562 0.5249509 0.8444865
vn 0.4138328 0.7797561 0.4698113
vn 0.5465422 0.554845 0.627247
vn 0.6654102 0.7460701 -0.02467164
vn 0.8581948 0.513114 0.01468536
vn 0.7180004 0.2220959 -0.659658
vn 0.05714594 0.131294 -0.989695
vn -0.6483452 0.09898195 -0.7548848
vn -0.9852062 0.144088 -0.0927759
vn -0.7561085 0.2401891 0.6087767
vn -0.09525368 0.3309911 0.9388139
vn 0.6102377 0.363303 0.7040034
vn 0.9470984 0.3181969 0.04189432
vn 0.02064823 0.9966761 0.07880531
vn -0.266542 0.9638119 -0.004692622
vn -0.08166547 0.9906772 -0.1090388
vn -0.1802394 0.9393159 -0.2918894
vn 0.1069509 0.9721802 -0.2083915
vn -0.09473122 0.6802621 -0.7268215
vn -0.5809263 0.6802611 -0.4469559
vn -0.116704 0.4296829 -0.8954065
vn -0.7156701 0.4296831 -0.5506258
vn -0.7268215 0.6802621 0.09473122
vn -0.8954065 0.4296829 0.116704
vn -0.4469563 0.6802614 0.5809255
vn -0.5506258 0.4296831 0.7156701
vn 0.09473122 0.6802621 0.7268215
vn 0.116704 0.4296829 0.8954065
vn 0.5809264 0.6802614 0.4469551
vn 0.7156701 0.4296831 0.5506258
vn 0.7268215 0.6802621 -0.09473122
vn 0.8954065 0.4296829 -0.116704
vn 0.4469551 0.6802614 -0.5809264
vn 0.5506253 0.4296827 -0.7156707
vn -0.125809 0.228989 -0.9652648
vn -0.7715057 0.2289891 -0.5935848
vn -0.9652648 0.228989 0.125809
vn -0.5935848 0.2289891 0.7715057
vn 0.125809 0.228989 0.9652648
vn 0.7715057 0.2289891 0.5935848
vn 0.9652648 0.228989 -0.125809
vn 0.5935844 0.228988 -0.7715063
vn 0.2159403 0.9762389 0.01809192
vn -0.01809192 0.9762389 0.2159403
vn 0 1 0
vn -0.2159403 0.9762389 -0.01809192
vn 0.01809093 0.976239 -0.2159402

vt 0.3613281 0.484375
vt 0.3461914 0.479248
vt 0.3603516 0.498291
vt 0.3356934 0.4875488
vt 0.3395996 0.463623
vt 0.3259277 0.4626465
vt 0.3447266 0.4484863
vt 0.3364258 0.4379883
vt 0.3603516 0.4418945
vt 0.3613281 0.4282227
vt 0.3754883 0.4470215
vt 0.3859863 0.4387207
vt 0.3820801 0.4626465
vt 0.395752 0.463623
vt 0.3769531 0.4780273
vt 0.3852539 0.4882813
vt 0.3652344 0.4726563
vt 0.3513184 0.4677734
vt 0.3608398 0.4631348
vt 0.3564453 0.4538574
vt 0.3701172 0.4587402
vt 0.4470215 0.4243164
vt 0.4257813 0.4155273
vt 0.4472656 0.4458008
vt 0.4106445 0.4306641
vt 0.4169922 0.3942871
vt 0.3955078 0.3942871
vt 0.4257813 0.3728027
vt 0.4106445 0.3579102
vt 0.4470215 0.3642578
vt 0.4470215 0.3427734
vt 0.4685059 0.3730469
vt 0.4833984 0.357666
vt 0.4770508 0.3942871
vt 0.4985352 0.394043
vt 0.4682617 0.4155273
vt 0.4833984 0.4306641
vt 0.4470215 0.4689941
vt 0.394043 0.4470215
vt 0.3723145 0.394043
vt 0.394043 0.3413086
vt 0.4470215 0.3193359
vt 0.5 0.3413086
vt 0.5219727 0.3942871
vt 0.5 0.4472656
vt 0.4609375 0.3884277
vt 0.4411621 0.3803711
vt 0.4470215 0.3942871
vt 0.4331055 0.3999023
vt 0.4528809 0.407959
vt 0.4470215 0.4243164
vt 0.4257813 0.4155273
vt 0.4472656 0.4458008
vt 0.4106445 0.4306641
vt 0.4169922 0.3942871
vt 0.3955078 0.3942871
vt 0.4257813 0.3728027
vt 0.4106445 0.3579102
vt 0.4470215 0.3642578
vt 0.4470215 0.3427734
vt 0.4685059 0.3730469
vt 0.4833984 0.357666
vt 0.4770508 0.3942871
vt 0.4985352 0.394043
vt 0.4682617 0.4155273
vt 0.4833984 0.4306641
vt 0.4470215 0.4689941
vt 0.394043 0.4470215
vt 0.3723145 0.394043
vt 0.394043 0.3413086
vt 0.4470215 0.3193359
vt 0.5 0.3413086
vt 0.5219727 0.3942871
vt 0.5 0.4472656
vt 0.4609375 0.3884277
vt 0.4411621 0.3803711
vt 0.4470215 0.3942871
vt 0.4331055 0.3999023
vt 0.4528809 0.407959

g Tree2_(1)_729_87
usemtl Tree2_(1)_729_87
usemap Tree2_(1)_729_87
f 1/1/1 3/3/3 2/2/2
f 2/2/2 3/3/3 4/4/4
f 2/2/2 4/4/4 5/5/5
f 5/5/5 4/4/4 6/6/6
f 5/5/5 6/6/6 7/7/7
f 7/7/7 6/6/6 8/8/8
f 7/7/7 8/8/8 9/9/9
f 9/9/9 8/8/8 10/10/10
f 9/9/9 10/10/10 11/11/11
f 11/11/11 10/10/10 12/12/12
f 11/11/11 12/12/12 13/13/13
f 13/13/13 12/12/12 14/14/14
f 13/13/13 14/14/14 15/15/15
f 15/15/15 14/14/14 16/16/16
f 15/15/15 16/16/16 1/1/1
f 1/1/1 16/16/16 3/3/3
f 15/15/15 1/1/1 17/17/17
f 1/1/1 2/2/2 17/17/17
f 17/17/17 2/2/2 18/18/18
f 2/2/2 5/5/5 18/18/18
f 5/5/5 7/7/7 18/18/18
f 17/17/17 18/18/18 19/19/19
f 18/18/18 20/20/20 19/19/19
f 18/18/18 7/7/7 20/20/20
f 7/7/7 9/9/9 20/20/20
f 9/9/9 11/11/11 20/20/20
f 20/20/20 21/21/21 19/19/19
f 21/21/21 17/17/17 19/19/19
f 20/20/20 11/11/11 21/21/21
f 11/11/11 13/13/13 21/21/21
f 13/13/13 15/15/15 21/21/21
f 21/21/21 15/15/15 17/17/17
f 22/22/22 24/24/24 23/23/23
f 23/23/23 24/24/24 25/25/25
f 23/23/23 25/25/25 26/26/26
f 26/26/26 25/25/25 27/27/27
f 26/26/26 27/27/27 28/28/28
f 28/28/28 27/27/27 29/29/29
f 28/28/28 29/29/29 30/30/30
f 30/30/30 29/29/29 31/31/31
f 30/30/30 31/31/31 32/32/32
f 32/32/32 31/31/31 33/33/33
f 32/32/32 33/33/33 34/34/34
f 34/34/34 33/33/33 35/35/35
f 34/34/34 35/35/35 36/36/36
f 36/36/36 35/35/35 37/37/37
f 36/36/36 37/37/37 22/22/22
f 22/22/22 37/37/37 24/24/24
f 24/24/24 38/38/38 25/25/25
f 25/25/25 38/38/38 39/39/39
f 25/25/25 39/39/39 27/27/27
f 27/27/27 39/39/39 40/40/40
f 27/27/27 40/40/40 29/29/29
f 29/29/29 40/40/40 41/41/41
f 29/29/29 41/41/41 31/31/31
f 31/31/31 41/41/41 42/42/42
f 31/31/31 42/42/42 33/33/33
f 33/33/33 42/42/42 43/43/43
f 33/33/33 43/43/43 35/35/35
f 35/35/35 43/43/43 44/44/44
f 35/35/35 44/44/44 37/37/37
f 37/37/37 44/44/44 45/45/45
f 37/37/37 45/45/45 24/24/24
f 24/24/24 45/45/45 38/38/38
f 32/32/32 34/34/34 46/46/46
f 34/34/34 36/36/36 46/46/46
f 47/47/47 32/32/32 46/46/46
f 47/47/47 46/46/46 48/48/48
f 49/49/49 47/47/47 48/48/48
f 50/50/50 49/49/49 48/48/48
f 46/46/46 50/50/50 48/48/48
f 50/50/50 23/23/23 49/49/49
f 22/22/22 23/23/23 50/50/50
f 36/36/36 22/22/22 50/50/50
f 46/46/46 36/36/36 50/50/50
f 23/23/23 26/26/26 49/49/49
f 26/26/26 28/28/28 49/49/49
f 49/49/49 28/28/28 47/47/47
f 28/28/28 30/30/30 47/47/47
f 30/30/30 32/32/32 47/47/47
f 51/51/51 53/53/53 52/52/52
f 52/52/52 53/53/53 54/54/54
f 52/52/52 54/54/54 55/55/55
f 55/55/55 54/54/54 56/56/56
f 55/55/55 56/56/56 57/57/57
f 57/57/57 56/56/56 58/58/58
f 57/57/57 58/58/58 59/59/59
f 59/59/59 58/58/58 60/60/60
f 59/59/59 60/60/60 61/61/61
f 61/61/61 60/60/60 62/62/62
f 61/61/61 62/62/62 63/63/63
f 63/63/63 62/62/62 64/64/64
f 63/63/63 64/64/64 65/65/65
f 65/65/65 64/64/64 66/66/66
f 65/65/65 66/66/66 51/51/51
f 51/51/51 66/66/66 53/53/53
f 53/53/53 67/67/67 54/54/54
f 54/54/54 67/67/67 68/68/68
f 54/54/54 68/68/68 56/56/56
f 56/56/56 68/68/68 69/69/69
f 56/56/56 69/69/69 58/58/58
f 58/58/58 69/69/69 70/70/70
f 58/58/58 70/70/70 60/60/60
f 60/60/60 70/70/70 71/71/71
f 60/60/60 71/71/71 62/62/62
f 62/62/62 71/71/71 72/72/72
f 62/62/62 72/72/72 64/64/64
f 64/64/64 72/72/72 73/73/73
f 64/64/64 73/73/73 66/66/66
f 66/66/66 73/73/73 74/74/74
f 66/66/66 74/74/74 53/53/53
f 53/53/53 74/74/74 67/67/67
f 61/61/61 63/63/63 75/75/75
f 63/63/63 65/65/65 75/75/75
f 76/76/76 61/61/61 75/75/75
f 76/76/76 75/75/75 77/77/77
f 78/78/78 76/76/76 77/77/77
f 79/79/79 78/78/78 77/77/77
f 75/75/75 79/79/79 77/77/77
f 79/79/79 52/52/52 78/78/78
f 51/51/51 52/52/52 79/79/79
f 65/65/65 51/51/51 79/79/79
f 75/75/75 65/65/65 79/79/79
f 52/52/52 55/55/55 78/78/78
f 55/55/55 57/57/57 78/78/78
f 78/78/78 57/57/57 76/76/76
f 57/57/57 59/59/59 76/76/76
f 59/59/59 61/61/61 76/76/76
