#Tree4_(7)_1159_282.obj

v -2.491711 6.129236 -0.4659446
v -3.228822 5.983608 -0.365606
v -2.327988 5.560323 -0.9431496
v -3.285007 5.371249 -0.8128774
v -3.653041 5.739669 0.2133038
v -3.835792 5.054531 -0.06125212
v -3.515868 5.540316 0.9316698
v -3.657701 4.795703 0.8714325
v -2.89766 5.502325 1.368682
v -2.855049 4.746378 1.438823
v -2.160553 5.647953 1.268343
v -1.898027 4.935453 1.308551
v -1.736331 5.891891 0.6894318
v -1.347237 5.252171 0.5569248
v -1.873504 6.091246 -0.0289324
v -1.525337 5.511 -0.3757594
v -2.467366 6.30267 0.1721122
v -3.151069 6.167593 0.2651798
v -2.765711 6.271781 0.5914751
v -3.023834 5.982682 0.9315022
v -2.340127 6.117759 0.8384315
v 2.217854 7.354592 -2.494817
v 0.8755572 7.329135 -2.837819
v 2.611904 6.5694 -2.99575
v 0.7982535 6.534998 -3.459197
v -0.3162745 7.316662 -2.131086
v -0.8120799 6.518145 -2.504297
v -0.6594713 7.324482 -0.7886121
v -1.275788 6.528714 -0.6904187
v 0.04699797 7.348016 0.4032017
v -0.3212385 6.560512 0.9198971
v 1.389314 7.37348 0.7462076
v 1.492416 6.594912 1.383343
v 2.581138 7.38595 0.03947287
v 3.102749 6.611767 0.4284436
v 2.924339 7.37813 -1.303002
v 3.566458 6.601199 -1.385435
v 2.839005 5.645878 -3.269423
v 0.7632515 5.606506 -3.799845
v -1.079796 5.587218 -2.706947
v -1.610517 5.599314 -0.6309391
v -0.5180109 5.635708 1.212089
v 1.557742 5.675082 1.742514
v 3.400793 5.69437 0.6496156
v 3.931499 5.682274 -1.426397
v 1.552918 7.72575 -0.3300922
v 0.4071849 7.70402 -0.6228648
v 1.125374 7.781335 -1.050118
v 0.7001262 7.697345 -1.768741
v 1.845852 7.719076 -1.475969
v 0.4598773 6.511011 -2.618052
v -0.5894085 6.526672 -1.660243
v 0.1699542 5.761833 -3.293453
v -1.24779 5.782992 -1.999313
v -0.6596601 6.420261 -0.2451826
v -1.342709 5.639215 -0.08736004
v 0.2902866 6.254119 0.7982057
v -0.05919614 5.414735 1.32241
v 1.703951 6.125566 0.8587218
v 1.850874 5.241035 1.404174
v 2.753245 6.109905 -0.09909131
v 3.268623 5.219882 0.1100315
v 2.823493 6.216312 -1.514151
v 3.363542 5.363655 -1.801923
v 1.87355 6.382455 -2.55754
v 2.080029 5.588139 -3.211691
v -0.1083917 4.862029 -3.912852
v -1.853916 4.888076 -2.319513
v -1.970766 4.711063 0.03447754
v -0.3905207 4.434681 1.77018
v 1.96116 4.220827 1.870849
v 3.706689 4.194779 0.2775049
v 3.823542 4.371792 -2.076485
v 2.243293 4.648178 -3.812185
v 1.9679 6.614914 -0.813377
v 1.072275 6.628283 0.004165833
v 1.121013 6.764997 -0.8441337
v 0.2614475 6.770093 -0.8864226
v 1.157061 6.756725 -1.703964
v -1.404489 4.948887 -2.365072
v -1.804185 4.708665 -2.802702
v -1.031501 4.433386 -2.283359
v -1.550445 4.121498 -2.851552
v -2.422602 4.545877 -2.809352
v -2.353363 3.910143 -2.860189
v -2.897478 4.555882 -2.381129
v -2.969917 3.923131 -2.30421
v -2.95064 4.732815 -1.768879
v -3.038936 4.152855 -1.509293
v -2.550943 4.973036 -1.331251
v -2.519993 4.464743 -0.9410977
v -1.932524 5.135823 -1.324595
v -1.717071 4.676098 -0.9324622
v -1.457647 5.125819 -1.752824
v -1.10052 4.663109 -1.488446
v -1.842204 5.217913 -2.146827
v -2.212942 4.995096 -2.552752
v -2.275554 5.217892 -2.18445
v -2.653414 5.004375 -2.155547
v -2.282671 5.22719 -1.749625

vn -0.0178035 0.7784641 -0.6274367
vn -0.6186343 0.6549021 -0.4340448
vn 0.007960171 0.5973637 -0.801931
vn -0.6708632 0.4577628 -0.5834345
vn -0.8869501 0.4479261 0.1126132
vn -0.9740081 0.223919 0.0341818
vn -0.665575 0.278779 0.6923094
vn -0.7238962 0.03281599 0.689128
vn -0.08418719 0.2465458 0.9654676
vn -0.06704046 -0.003602002 0.9977438
vn 0.5166442 0.3701069 0.7720749
vn 0.6117823 0.135999 0.7792475
vn 0.7849591 0.5770843 0.2254174
vn 0.9149273 0.3698429 0.1616299
vn 0.563584 0.7462302 -0.3542789
vn 0.6648154 0.560946 -0.4933154
vn 0.02109159 0.9965098 -0.08076754
vn -0.4731601 0.8641002 0.171611
vn -0.0940787 0.9454778 0.3118025
vn -0.1932576 0.7337341 0.6513724
vn 0.3009943 0.8661441 0.3989947
vn 0.5578384 0.5128449 -0.6525385
vn 0.04996683 0.737739 -0.6732344
vn 0.5231878 0.2558199 -0.8129149
vn -0.10596 0.5344177 -0.8385525
vn -0.3242806 0.8987413 -0.2951375
vn -0.5695754 0.7338651 -0.37017
vn -0.3456756 0.9015374 0.2602668
vn -0.5960782 0.7373294 0.3178617
vn -0.001683675 0.7444899 0.6676316
vn -0.1699447 0.5427799 0.8225015
vn 0.5061887 0.5195948 0.6883271
vn 0.4592032 0.2641829 0.848139
vn 0.8804361 0.3585939 0.3102303
vn 0.9228194 0.064735 0.379755
vn 0.9018303 0.3557971 -0.2451747
vn 0.949322 0.06127099 -0.3082753
vn 0.4689742 0.05827697 -0.8812871
vn -0.2110619 0.359409 -0.9089984
vn -0.7121768 0.5749891 -0.4027305
vn -0.7408238 0.5787333 0.3409515
vn -0.2802215 0.3684478 0.8864097
vn 0.3998149 0.067316 0.9141207
vn 0.9009299 -0.1482641 0.4078519
vn 0.9295762 -0.152008 -0.33583
vn 0.5503672 0.8233867 0.1383128
vn 0.2777908 0.9434429 0.1809635
vn 0.4044969 0.9144735 0.0109762
vn 0.2401064 0.9636868 -0.1168617
vn 0.512682 0.8436309 -0.1595121
vn 0.03390636 0.8238653 -0.5657706
vn -0.2615047 0.959092 -0.1084341
vn -0.1664431 0.6650369 -0.7280265
vn -0.5303726 0.8316296 -0.1646117
vn -0.2005505 0.8739552 0.4426984
vn -0.4552814 0.7267453 0.5143541
vn 0.1810605 0.618327 0.7647802
vn 0.01484454 0.4118249 0.9111421
vn 0.6597882 0.34195 0.669141
vn 0.6046109 0.07134299 0.7933195
vn 0.9551989 0.206723 0.2118033
vn 0.9685408 -0.09525002 0.2299049
vn 0.8942447 0.29186 -0.339329
vn 0.8934488 0.009635 -0.4490618
vn 0.5126325 0.5474889 -0.6614105
vn 0.4233234 0.324556 -0.8458492
vn -0.2988503 0.5162241 -0.8026214
vn -0.691173 0.6958141 -0.1952502
vn -0.6102231 0.5827472 0.5366877
vn -0.1034192 0.2432561 0.964433
vn 0.5323604 -0.123789 0.8374179
vn 0.9246838 -0.303379 0.2300458
vn 0.8437329 -0.190312 -0.5018927
vn 0.3369284 0.1491791 -0.9296369
vn 0.6755034 0.7373568 -0.0001864508
vn 0.553942 0.7851081 0.2770445
vn 0.5098731 0.8568879 0.07597841
vn 0.320014 0.9356971 0.1485324
vn 0.441575 0.8879461 -0.1286985
vn 0.5570008 0.6109444 -0.5625808
vn 0.08412881 0.3693524 -0.9254735
vn 0.7151513 0.4137206 -0.5633773
vn 0.1808961 0.1407688 -0.9733759
vn -0.5293713 0.2056359 -0.8230918
vn -0.5122389 -0.04420039 -0.8577048
vn -0.9241166 0.2156964 -0.3154105
vn -0.9582258 -0.03283307 -0.2841218
vn -0.8688723 0.3936419 0.3001783
vn -0.8958104 0.1682102 0.4113746
vn -0.3959994 0.6352329 0.6630713
vn -0.3615556 0.4411621 0.821373
vn 0.2174998 0.7989506 0.5606887
vn 0.3315805 0.6261312 0.7057011
vn 0.6122452 0.7888891 0.05300778
vn 0.7775666 0.6147642 0.1321186
vn 0.1109422 0.9311942 -0.3472308
vn -0.3595919 0.7211424 -0.5921549
vn -0.2876737 0.9266384 -0.2420437
vn -0.6373907 0.764573 -0.09571426
vn -0.1668574 0.9746255 0.1492103

vt 0.3613281 0.484375
vt 0.3461914 0.479248
vt 0.3603516 0.498291
vt 0.3356934 0.4875488
vt 0.3395996 0.463623
vt 0.3259277 0.4626465
vt 0.3447266 0.4484863
vt 0.3364258 0.4379883
vt 0.3603516 0.4418945
vt 0.3613281 0.4282227
vt 0.3754883 0.4470215
vt 0.3859863 0.4387207
vt 0.3820801 0.4626465
vt 0.395752 0.463623
vt 0.3769531 0.4780273
vt 0.3852539 0.4882813
vt 0.3652344 0.4726563
vt 0.3513184 0.4677734
vt 0.3608398 0.4631348
vt 0.3564453 0.4538574
vt 0.3701172 0.4587402
vt 0.4470215 0.4243164
vt 0.4257813 0.4155273
vt 0.4472656 0.4458008
vt 0.4106445 0.4306641
vt 0.4169922 0.3942871
vt 0.3955078 0.3942871
vt 0.4257813 0.3728027
vt 0.4106445 0.3579102
vt 0.4470215 0.3642578
vt 0.4470215 0.3427734
vt 0.4685059 0.3730469
vt 0.4833984 0.357666
vt 0.4770508 0.3942871
vt 0.4985352 0.394043
vt 0.4682617 0.4155273
vt 0.4833984 0.4306641
vt 0.4470215 0.4689941
vt 0.394043 0.4470215
vt 0.3723145 0.394043
vt 0.394043 0.3413086
vt 0.4470215 0.3193359
vt 0.5 0.3413086
vt 0.5219727 0.3942871
vt 0.5 0.4472656
vt 0.4609375 0.3884277
vt 0.4411621 0.3803711
vt 0.4470215 0.3942871
vt 0.4331055 0.3999023
vt 0.4528809 0.407959
vt 0.4470215 0.4243164
vt 0.4257813 0.4155273
vt 0.4472656 0.4458008
vt 0.4106445 0.4306641
vt 0.4169922 0.3942871
vt 0.3955078 0.3942871
vt 0.4257813 0.3728027
vt 0.4106445 0.3579102
vt 0.4470215 0.3642578
vt 0.4470215 0.3427734
vt 0.4685059 0.3730469
vt 0.4833984 0.357666
vt 0.4770508 0.3942871
vt 0.4985352 0.394043
vt 0.4682617 0.4155273
vt 0.4833984 0.4306641
vt 0.4470215 0.4689941
vt 0.394043 0.4470215
vt 0.3723145 0.394043
vt 0.394043 0.3413086
vt 0.4470215 0.3193359
vt 0.5 0.3413086
vt 0.5219727 0.3942871
vt 0.5 0.4472656
vt 0.4609375 0.3884277
vt 0.4411621 0.3803711
vt 0.4470215 0.3942871
vt 0.4331055 0.3999023
vt 0.4528809 0.407959
vt 0.3613281 0.484375
vt 0.3461914 0.479248
vt 0.3603516 0.498291
vt 0.3356934 0.4875488
vt 0.3395996 0.463623
vt 0.3259277 0.4626465
vt 0.3447266 0.4484863
vt 0.3364258 0.4379883
vt 0.3603516 0.4418945
vt 0.3613281 0.4282227
vt 0.3754883 0.4470215
vt 0.3859863 0.4387207
vt 0.3820801 0.4626465
vt 0.395752 0.463623
vt 0.3769531 0.4780273
vt 0.3852539 0.4882813
vt 0.3652344 0.4726563
vt 0.3513184 0.4677734
vt 0.3608398 0.4631348
vt 0.3564453 0.4538574
vt 0.3701172 0.4587402

g Tree4_(7)_1159_282
usemtl Tree4_(7)_1159_282
usemap Tree4_(7)_1159_282
f 1/1/1 3/3/3 2/2/2
f 2/2/2 3/3/3 4/4/4
f 2/2/2 4/4/4 5/5/5
f 5/5/5 4/4/4 6/6/6
f 5/5/5 6/6/6 7/7/7
f 7/7/7 6/6/6 8/8/8
f 7/7/7 8/8/8 9/9/9
f 9/9/9 8/8/8 10/10/10
f 9/9/9 10/10/10 11/11/11
f 11/11/11 10/10/10 12/12/12
f 11/11/11 12/12/12 13/13/13
f 13/13/13 12/12/12 14/14/14
f 13/13/13 14/14/14 15/15/15
f 15/15/15 14/14/14 16/16/16
f 15/15/15 16/16/16 1/1/1
f 1/1/1 16/16/16 3/3/3
f 15/15/15 1/1/1 17/17/17
f 1/1/1 2/2/2 17/17/17
f 17/17/17 2/2/2 18/18/18
f 2/2/2 5/5/5 18/18/18
f 5/5/5 7/7/7 18/18/18
f 17/17/17 18/18/18 19/19/19
f 18/18/18 20/20/20 19/19/19
f 18/18/18 7/7/7 20/20/20
f 7/7/7 9/9/9 20/20/20
f 9/9/9 11/11/11 20/20/20
f 20/20/20 21/21/21 19/19/19
f 21/21/21 17/17/17 19/19/19
f 20/20/20 11/11/11 21/21/21
f 11/11/11 13/13/13 21/21/21
f 13/13/13 15/15/15 21/21/21
f 21/21/21 15/15/15 17/17/17
f 22/22/22 24/24/24 23/23/23
f 23/23/23 24/24/24 25/25/25
f 23/23/23 25/25/25 26/26/26
f 26/26/26 25/25/25 27/27/27
f 26/26/26 27/27/27 28/28/28
f 28/28/28 27/27/27 29/29/29
f 28/28/28 29/29/29 30/30/30
f 30/30/30 29/29/29 31/31/31
f 30/30/30 31/31/31 32/32/32
f 32/32/32 31/31/31 33/33/33
f 32/32/32 33/33/33 34/34/34
f 34/34/34 33/33/33 35/35/35
f 34/34/34 35/35/35 36/36/36
f 36/36/36 35/35/35 37/37/37
f 36/36/36 37/37/37 22/22/22
f 22/22/22 37/37/37 24/24/24
f 24/24/24 38/38/38 25/25/25
f 25/25/25 38/38/38 39/39/39
f 25/25/25 39/39/39 27/27/27
f 27/27/27 39/39/39 40/40/40
f 27/27/27 40/40/40 29/29/29
f 29/29/29 40/40/40 41/41/41
f 29/29/29 41/41/41 31/31/31
f 31/31/31 41/41/41 42/42/42
f 31/31/31 42/42/42 33/33/33
f 33/33/33 42/42/42 43/43/43
f 33/33/33 43/43/43 35/35/35
f 35/35/35 43/43/43 44/44/44
f 35/35/35 44/44/44 37/37/37
f 37/37/37 44/44/44 45/45/45
f 37/37/37 45/45/45 24/24/24
f 24/24/24 45/45/45 38/38/38
f 32/32/32 34/34/34 46/46/46
f 34/34/34 36/36/36 46/46/46
f 47/47/47 32/32/32 46/46/46
f 47/47/47 46/46/46 48/48/48
f 49/49/49 47/47/47 48/48/48
f 50/50/50 49/49/49 48/48/48
f 46/46/46 50/50/50 48/48/48
f 50/50/50 23/23/23 49/49/49
f 22/22/22 23/23/23 50/50/50
f 36/36/36 22/22/22 50/50/50
f 46/46/46 36/36/36 50/50/50
f 23/23/23 26/26/26 49/49/49
f 26/26/26 28/28/28 49/49/49
f 49/49/49 28/28/28 47/47/47
f 28/28/28 30/30/30 47/47/47
f 30/30/30 32/32/32 47/47/47
f 51/51/51 53/53/53 52/52/52
f 52/52/52 53/53/53 54/54/54
f 52/52/52 54/54/54 55/55/55
f 55/55/55 54/54/54 56/56/56
f 55/55/55 56/56/56 57/57/57
f 57/57/57 56/56/56 58/58/58
f 57/57/57 58/58/58 59/59/59
f 59/59/59 58/58/58 60/60/60
f 59/59/59 60/60/60 61/61/61
f 61/61/61 60/60/60 62/62/62
f 61/61/61 62/62/62 63/63/63
f 63/63/63 62/62/62 64/64/64
f 63/63/63 64/64/64 65/65/65
f 65/65/65 64/64/64 66/66/66
f 65/65/65 66/66/66 51/51/51
f 51/51/51 66/66/66 53/53/53
f 53/53/53 67/67/67 54/54/54
f 54/54/54 67/67/67 68/68/68
f 54/54/54 68/68/68 56/56/56
f 56/56/56 68/68/68 69/69/69
f 56/56/56 69/69/69 58/58/58
f 58/58/58 69/69/69 70/70/70
f 58/58/58 70/70/70 60/60/60
f 60/60/60 70/70/70 71/71/71
f 60/60/60 71/71/71 62/62/62
f 62/62/62 71/71/71 72/72/72
f 62/62/62 72/72/72 64/64/64
f 64/64/64 72/72/72 73/73/73
f 64/64/64 73/73/73 66/66/66
f 66/66/66 73/73/73 74/74/74
f 66/66/66 74/74/74 53/53/53
f 53/53/53 74/74/74 67/67/67
f 61/61/61 63/63/63 75/75/75
f 63/63/63 65/65/65 75/75/75
f 76/76/76 61/61/61 75/75/75
f 76/76/76 75/75/75 77/77/77
f 78/78/78 76/76/76 77/77/77
f 79/79/79 78/78/78 77/77/77
f 75/75/75 79/79/79 77/77/77
f 79/79/79 52/52/52 78/78/78
f 51/51/51 52/52/52 79/79/79
f 65/65/65 51/51/51 79/79/79
f 75/75/75 65/65/65 79/79/79
f 52/52/52 55/55/55 78/78/78
f 55/55/55 57/57/57 78/78/78
f 78/78/78 57/57/57 76/76/76
f 57/57/57 59/59/59 76/76/76
f 59/59/59 61/61/61 76/76/76
f 80/80/80 82/82/82 81/81/81
f 81/81/81 82/82/82 83/83/83
f 81/81/81 83/83/83 84/84/84
f 84/84/84 83/83/83 85/85/85
f 84/84/84 85/85/85 86/86/86
f 86/86/86 85/85/85 87/87/87
f 86/86/86 87/87/87 88/88/88
f 88/88/88 87/87/87 89/89/89
f 88/88/88 89/89/89 90/90/90
f 90/90/90 89/89/89 91/91/91
f 90/90/90 91/91/91 92/92/92
f 92/92/92 91/91/91 93/93/93
f 92/92/92 93/93/93 94/94/94
f 94/94/94 93/93/93 95/95/95
f 94/94/94 95/95/95 80/80/80
f 80/80/80 95/95/95 82/82/82
f 94/94/94 80/80/80 96/96/96
f 80/80/80 81/81/81 96/96/96
f 96/96/96 81/81/81 97/97/97
f 81/81/81 84/84/84 97/97/97
f 84/84/84 86/86/86 97/97/97
f 96/96/96 97/97/97 98/98/98
f 97/97/97 99/99/99 98/98/98
f 97/97/97 86/86/86 99/99/99
f 86/86/86 88/88/88 99/99/99
f 88/88/88 90/90/90 99/99/99
f 99/99/99 100/100/100 98/98/98
f 100/100/100 96/96/96 98/98/98
f 99/99/99 90/90/90 100/100/100
f 90/90/90 92/92/92 100/100/100
f 92/92/92 94/94/94 100/100/100
f 100/100/100 94/94/94 96/96/96
