#Tree_conf2_(59)_2872_763.obj

v 2.229062 2.41453 -0.01389029
v 1.067523 2.895794 -0.4499961
v 1.566362 2.41453 -1.586004
v -0.4499918 2.895794 -1.067523
v -0.01388777 2.41453 -2.229061
v -1.586003 2.41453 -1.566361
v -1.25391 2.895794 0.007811692
v -2.229055 2.41453 0.01388713
v -0.436656 2.895794 1.073048
v -1.566361 2.41453 1.586005
v 0.01389471 2.41453 2.229058
v 0.8921816 2.895794 0.8811253
v 1.586011 2.41453 1.566359
v 3.470556E-06 3.673443 -1.583401E-06
v 0.7697535 5.456536 -0.7697495
v 0.2848018 6.349499 -0.2848004
v 4.946316E-06 6.349499 -0.4027721
v 5.130721E-06 5.456536 -1.088588
v -0.2847961 6.349499 -0.2848016
v -0.7697429 5.456536 -0.7697482
v -0.4027645 6.349499 -2.115584E-06
v -1.088582 5.456536 -1.508288E-06
v -0.2847948 6.349499 0.2847973
v -0.7697465 5.456536 0.7697464
v 1.994795E-06 6.349499 0.4027689
v 1.810391E-06 5.456536 1.088585
v 0.2848031 6.349499 0.2847984
v 0.7697498 5.456536 0.769745
v 0.4027714 6.349499 -1.051218E-06
v 1.088589 5.456536 -1.658514E-06
v 3.470556E-06 7.127673 -1.583401E-06
v 1.482312 3.35846 1.321718
v 0.9566595 3.86839 0.3851402
v 1.918957 3.351292 -0.0871219
v 0.2965034 3.862013 -0.8680093
v 1.23151 3.344651 -1.392075
v -0.1773467 3.34243 -1.828714
v -0.8338407 3.863356 -0.6041114
v -1.482309 3.345927 -1.141267
v -0.8861108 3.869257 0.5554446
v -1.918954 3.353096 0.267571
v -1.231499 3.359736 1.572523
v 0.09976462 3.872375 1.168108
v 0.1773499 3.361958 2.009163
v 3.850765E-06 4.729911 0.1149882
v -1.323038 5.128105 0.9046314
v -0.5031125 5.474663 0.7122228
v -0.4085324 5.021135 1.517631
v 0.5287437 5.308237 0.505628
v 0.6659787 4.847831 1.302498
v 1.271064 4.709711 0.3852492
v 0.5758578 5.256999 -0.3610492
v 1.052274 4.687684 -0.6967992
v -0.2408025 5.365918 -0.6453712
v 0.1377755 4.794655 -1.309803
v -0.9367422 4.967959 -1.094666
v -0.8834068 5.49236 -0.0688803
v -1.541828 5.10608 -0.1774187
v 0.01566001 6.137804 0.05302643
v 1.425085 4.340247 -0.8985677
v 0.5214467 4.778743 -0.7078242
v 0.38112 4.334083 -1.61885
v -0.6765406 4.77326 -0.4880266
v -0.8663922 4.328372 -1.389967
v -1.586671 4.326462 -0.3459933
v -0.7503856 4.774414 0.5073772
v -1.357798 4.32947 0.9015253
v 0.1877615 4.779488 0.8481824
v -0.3138321 4.335634 1.621808
v 0.9336793 4.341344 1.392923
v 0.9438282 4.782169 0.1965352
v 1.653959 4.343255 0.3489509
v 0.05396436 5.519577 0.007841316

vn 0.6317883 0.7214358 0.2835031
vn 0.3743328 0.92652 -0.0378886
vn 0.6472101 0.7214344 -0.2462753
vn 0.05959802 0.92652 -0.3714952
vn 0.2835032 0.7214358 -0.6317883
vn -0.2462746 0.721436 -0.6472086
vn -0.3674152 0.9153271 -0.1648706
vn -0.6317883 0.7214358 -0.2835031
vn -0.301883 0.9098089 0.2848059
vn -0.6472101 0.7214344 0.2462753
vn -0.2835032 0.7214358 0.6317883
vn 0.1432206 0.9153271 0.3763831
vn 0.2462746 0.721436 0.6472086
vn 0 1 0
vn 0.8286613 0.4664523 -0.3094234
vn 0.7568295 0.5893607 -0.2826008
vn 0.3353297 0.5893612 -0.734988
vn 0.3671566 0.4664526 -0.8047472
vn -0.2826008 0.5893613 -0.7568289
vn -0.3094234 0.4664523 -0.8286613
vn -0.7349879 0.5893614 -0.3353297
vn -0.8047472 0.4664526 -0.3671566
vn -0.7568288 0.5893613 0.2826013
vn -0.8286613 0.4664523 0.3094234
vn -0.3353298 0.5893611 0.7349881
vn -0.3671566 0.4664526 0.8047472
vn 0.2826015 0.5893606 0.7568291
vn 0.3094234 0.4664523 0.8286613
vn 0.7349883 0.5893607 0.3353299
vn 0.8047472 0.4664526 0.3671566
vn 0 1 0
vn 0.369903 0.685831 0.6267436
vn 0.3798402 0.8907663 0.2495134
vn 0.7510942 0.6344045 0.1827252
vn 0.3445217 0.889865 -0.2990738
vn 0.7066338 0.589 -0.3921068
vn 0.276002 0.5742365 -0.7707629
vn -0.206258 0.874849 -0.4382885
vn -0.2971803 0.5975742 -0.7447073
vn -0.4957449 0.8681709 0.02272157
vn -0.6911906 0.6471028 -0.3217352
vn -0.6678525 0.6952757 0.26564
vn -0.1579812 0.8767521 0.4542552
vn -0.2244059 0.7119436 0.6654158
vn 0.0487729 0.9930726 -0.1069022
vn -0.8153155 0.5627667 0.136214
vn -0.2769225 0.8928517 0.3551475
vn -0.4801978 0.5627652 0.6728337
vn 0.3402205 0.8018581 0.4911963
vn 0.136214 0.5627667 0.8153155
vn 0.6728329 0.562767 0.4801972
vn 0.662876 0.7447317 -0.07726756
vn 0.8153155 0.5627667 -0.136214
vn 0.2539144 0.8006369 -0.5426859
vn 0.4801978 0.5627652 -0.6728337
vn -0.136214 0.5627667 -0.8153155
vn -0.3278829 0.8897872 -0.3174454
vn -0.6728329 0.562767 -0.4801972
vn 0 1 0
vn 0.7086334 0.6858311 -0.1657544
vn 0.3516022 0.8907662 -0.2879434
vn 0.3987848 0.6344045 -0.6621946
vn -0.1824804 0.889865 -0.4181403
vn -0.1630751 0.589 -0.7915084
vn -0.6530964 0.5742365 -0.4936776
vn -0.4798939 0.8748488 0.06588909
vn -0.7994816 0.5975742 0.06110907
vn -0.126431 0.8681709 0.4798902
vn -0.5135479 0.6471027 0.563495
vn 0.05397144 0.6952757 0.7167138
vn 0.3863066 0.8767521 0.2864839
vn 0.5679767 0.7119437 0.4129634
vn -0.08744747 0.9930726 -0.07848454

vt 0.2459717 0.0847168
vt 0.213623 0.08380127
vt 0.2144775 0.1161499
vt 0.1708984 0.08374023
vt 0.1700439 0.1160889
vt 0.1385498 0.08459473
vt 0.1621094 0.04983521
vt 0.1385498 0.0401001
vt 0.1923828 0.03216553
vt 0.1700439 0.008682251
vt 0.2145996 0.008712769
vt 0.2225342 0.04989624
vt 0.2460938 0.04019165
vt 0.1922607 0.06237793
vt 0.3461914 0.0803833
vt 0.3190918 0.06854248
vt 0.3068848 0.08081055
vt 0.3181152 0.1083374
vt 0.2895508 0.08081055
vt 0.2785645 0.1083374
vt 0.2770996 0.06854248
vt 0.2504883 0.08032227
vt 0.2770996 0.05114746
vt 0.2504883 0.04064941
vt 0.2895508 0.03884888
vt 0.2785645 0.01256561
vt 0.3068848 0.03887939
vt 0.3183594 0.01262665
vt 0.3190918 0.0512085
vt 0.3464355 0.04077148
vt 0.2978516 0.05935669
vt 0.2459717 0.0847168
vt 0.213623 0.08380127
vt 0.2144775 0.1161499
vt 0.1708984 0.08374023
vt 0.1700439 0.1160889
vt 0.1385498 0.08459473
vt 0.1621094 0.04983521
vt 0.1385498 0.0401001
vt 0.1923828 0.03216553
vt 0.1700439 0.008682251
vt 0.2145996 0.008712769
vt 0.2225342 0.04989624
vt 0.2460938 0.04019165
vt 0.1922607 0.06237793
vt 0.2459717 0.0847168
vt 0.213623 0.08380127
vt 0.2144775 0.1161499
vt 0.1708984 0.08374023
vt 0.1700439 0.1160889
vt 0.1385498 0.08459473
vt 0.1621094 0.04983521
vt 0.1385498 0.0401001
vt 0.1923828 0.03216553
vt 0.1700439 0.008682251
vt 0.2145996 0.008712769
vt 0.2225342 0.04989624
vt 0.2460938 0.04019165
vt 0.1922607 0.06237793
vt 0.2459717 0.0847168
vt 0.213623 0.08380127
vt 0.2144775 0.1161499
vt 0.1708984 0.08374023
vt 0.1700439 0.1160889
vt 0.1385498 0.08459473
vt 0.1621094 0.04983521
vt 0.1385498 0.0401001
vt 0.1923828 0.03216553
vt 0.1700439 0.008682251
vt 0.2145996 0.008712769
vt 0.2225342 0.04989624
vt 0.2460938 0.04019165
vt 0.1922607 0.06237793

g Tree_conf2_(59)_2872_763
usemtl Tree_conf2_(59)_2872_763
usemap Tree_conf2_(59)_2872_763
f 1/1/1 3/3/3 2/2/2
f 3/3/3 4/4/4 2/2/2
f 3/3/3 5/5/5 4/4/4
f 5/5/5 6/6/6 4/4/4
f 6/6/6 7/7/7 4/4/4
f 6/6/6 8/8/8 7/7/7
f 8/8/8 9/9/9 7/7/7
f 8/8/8 10/10/10 9/9/9
f 10/10/10 11/11/11 9/9/9
f 11/11/11 12/12/12 9/9/9
f 11/11/11 13/13/13 12/12/12
f 13/13/13 2/2/2 12/12/12
f 13/13/13 1/1/1 2/2/2
f 2/2/2 4/4/4 14/14/14
f 4/4/4 7/7/7 14/14/14
f 7/7/7 9/9/9 14/14/14
f 9/9/9 12/12/12 14/14/14
f 12/12/12 2/2/2 14/14/14
f 15/15/15 17/17/17 16/16/16
f 15/15/15 18/18/18 17/17/17
f 18/18/18 19/19/19 17/17/17
f 18/18/18 20/20/20 19/19/19
f 20/20/20 21/21/21 19/19/19
f 20/20/20 22/22/22 21/21/21
f 22/22/22 23/23/23 21/21/21
f 22/22/22 24/24/24 23/23/23
f 24/24/24 25/25/25 23/23/23
f 24/24/24 26/26/26 25/25/25
f 26/26/26 27/27/27 25/25/25
f 26/26/26 28/28/28 27/27/27
f 28/28/28 29/29/29 27/27/27
f 28/28/28 30/30/30 29/29/29
f 30/30/30 16/16/16 29/29/29
f 30/30/30 15/15/15 16/16/16
f 16/16/16 17/17/17 31/31/31
f 17/17/17 19/19/19 31/31/31
f 19/19/19 21/21/21 31/31/31
f 21/21/21 23/23/23 31/31/31
f 23/23/23 25/25/25 31/31/31
f 25/25/25 27/27/27 31/31/31
f 27/27/27 29/29/29 31/31/31
f 29/29/29 16/16/16 31/31/31
f 32/32/32 34/34/34 33/33/33
f 34/34/34 35/35/35 33/33/33
f 34/34/34 36/36/36 35/35/35
f 36/36/36 37/37/37 35/35/35
f 37/37/37 38/38/38 35/35/35
f 37/37/37 39/39/39 38/38/38
f 39/39/39 40/40/40 38/38/38
f 39/39/39 41/41/41 40/40/40
f 41/41/41 42/42/42 40/40/40
f 42/42/42 43/43/43 40/40/40
f 42/42/42 44/44/44 43/43/43
f 44/44/44 33/33/33 43/43/43
f 44/44/44 32/32/32 33/33/33
f 33/33/33 35/35/35 45/45/45
f 35/35/35 38/38/38 45/45/45
f 38/38/38 40/40/40 45/45/45
f 40/40/40 43/43/43 45/45/45
f 43/43/43 33/33/33 45/45/45
f 46/46/46 48/48/48 47/47/47
f 48/48/48 49/49/49 47/47/47
f 48/48/48 50/50/50 49/49/49
f 50/50/50 51/51/51 49/49/49
f 51/51/51 52/52/52 49/49/49
f 51/51/51 53/53/53 52/52/52
f 53/53/53 54/54/54 52/52/52
f 53/53/53 55/55/55 54/54/54
f 55/55/55 56/56/56 54/54/54
f 56/56/56 57/57/57 54/54/54
f 56/56/56 58/58/58 57/57/57
f 58/58/58 47/47/47 57/57/57
f 58/58/58 46/46/46 47/47/47
f 47/47/47 49/49/49 59/59/59
f 49/49/49 52/52/52 59/59/59
f 52/52/52 54/54/54 59/59/59
f 54/54/54 57/57/57 59/59/59
f 57/57/57 47/47/47 59/59/59
f 60/60/60 62/62/62 61/61/61
f 62/62/62 63/63/63 61/61/61
f 62/62/62 64/64/64 63/63/63
f 64/64/64 65/65/65 63/63/63
f 65/65/65 66/66/66 63/63/63
f 65/65/65 67/67/67 66/66/66
f 67/67/67 68/68/68 66/66/66
f 67/67/67 69/69/69 68/68/68
f 69/69/69 70/70/70 68/68/68
f 70/70/70 71/71/71 68/68/68
f 70/70/70 72/72/72 71/71/71
f 72/72/72 61/61/61 71/71/71
f 72/72/72 60/60/60 61/61/61
f 61/61/61 63/63/63 73/73/73
f 63/63/63 66/66/66 73/73/73
f 66/66/66 68/68/68 73/73/73
f 68/68/68 71/71/71 73/73/73
f 71/71/71 61/61/61 73/73/73
