#Tree_conf2_(9)_1826_225.obj

v 0.1189057 -0.1466557 -0.4504045
v 0.05755854 1.159755 -0.177142
v -0.1506851 1.159755 -0.1094802
v -0.4105721 -0.1466557 -0.2783653
v -0.150684 1.159755 0.1094796
v -0.4105766 -0.1466557 0.2783653
v 0.05755975 1.159755 0.1771427
v 0.1189073 -0.1466557 0.450404
v 0.1862585 1.159755 -9.310147E-08
v 0.4461445 -0.1466557 -3.873079E-07
v 0.05755854 1.159755 -0.177142
v 0.1189057 -0.1466557 -0.4504045
v -0.06863081 6.66993 0.05615782
v -0.06862915 6.66993 -0.05615747
v 0.0381835 6.66993 -0.09086457
v 0.0381835 6.66993 -0.09086457
v 0.1042001 6.66993 -9.032792E-08
v 0.03818308 6.66993 0.09086467

vn 0.2852294 0.2088854 -0.9354203
vn 0.3001923 0.08978422 -0.9496439
vn -0.8101003 0.1000239 -0.577696
vn -0.7957993 0.2305968 -0.5599362
vn -0.7981425 0.1000239 0.5941076
vn -0.7842068 0.2305969 0.5760597
vn 0.3195096 0.08978421 0.94332
vn 0.3042595 0.2088854 0.9294046
vn 0.9964517 0.08355004 -0.01016856
vn 0.9807305 0.1951094 -0.01000813
vn 0.3001923 0.08978422 -0.9496439
vn 0.2852294 0.2088854 -0.9354203
vn -0.8026462 0.01773245 0.5961918
vn -0.8146455 0.01773245 -0.5796882
vn 0.2997886 0.01597498 -0.953872
vn 0.2997886 0.01597498 -0.953872
vn 0.9998371 0.01488988 -0.01020311
vn 0.3191923 0.01597498 0.9475554

vt 0.4238281 0.003742218
vt 0.4238281 0.02593994
vt 0.4316406 0.02593994
vt 0.4316406 0.003742218
vt 0.4394531 0.02593994
vt 0.4394531 0.003740311
vt 0.4472656 0.02593994
vt 0.4472656 0.003740311
vt 0.4550781 0.02593994
vt 0.4550781 0.003740311
vt 0.4628906 0.02593994
vt 0.4628906 0.003738403
vt 0.4394531 0.1196289
vt 0.4318848 0.1196289
vt 0.4240723 0.1196289
vt 0.4628906 0.1195679
vt 0.4550781 0.1196289
vt 0.4472656 0.1196289

g Tree_conf2_(9)_1826_225
usemtl Tree_conf2_(9)_1826_225
usemap Tree_conf2_(9)_1826_225
f 1/1/1 3/3/3 2/2/2
f 1/1/1 4/4/4 3/3/3
f 4/4/4 5/5/5 3/3/3
f 4/4/4 6/6/6 5/5/5
f 6/6/6 7/7/7 5/5/5
f 6/6/6 8/8/8 7/7/7
f 8/8/8 9/9/9 7/7/7
f 8/8/8 10/10/10 9/9/9
f 10/10/10 11/11/11 9/9/9
f 10/10/10 12/12/12 11/11/11
f 3/3/3 5/5/5 13/13/13
f 3/3/3 13/13/13 14/14/14
f 2/2/2 3/3/3 14/14/14
f 2/2/2 14/14/14 15/15/15
f 9/9/9 11/11/11 16/16/16
f 9/9/9 16/16/16 17/17/17
f 7/7/7 9/9/9 17/17/17
f 7/7/7 17/17/17 18/18/18
f 5/5/5 18/18/18 13/13/13
f 5/5/5 7/7/7 18/18/18
