#Tree1_big_(11)_1501_164.obj

v 1.37265 -0.546896 -0.9689522
v 1.550484 1.136108 -0.6640873
v 0.4346085 1.136108 -1.246849
v -0.3102264 -0.546896 -1.773293
v 0.6773453 -0.546896 1.14538
v 0.9894562 1.136108 0.7613869
v -0.8179932 -0.546896 0.8729076
v -0.2071533 1.136108 0.7694492
v -1.238365 -0.546896 -0.7514744
v -0.4405746 1.136108 -0.5947361
v -0.3102264 -0.546896 -1.773293
v 0.4346085 1.136108 -1.246849
v 0.4942474 2.328596 -0.6577072
v -0.2785263 2.328596 -0.2110405
v -1.010017 3.727932 0.862402
v -0.5057602 3.727932 0.5276909
v -0.6431122 4.680656 0.3733807
v -1.132408 4.680656 0.7000656
v -0.8816071 3.727934 1.415716
v -1.014153 4.680658 1.235331
v -0.250473 3.727932 1.539209
v -0.4086304 4.680656 1.358828
v 0.03110504 3.727932 0.9272461
v -0.140892 4.680656 0.766016
v -0.5057602 3.727932 0.5276909
v -0.6431122 4.680656 0.3733807
v -0.02248383 8.350024 0.1213226
v 0.1932602 8.350024 -0.3994617
v -0.5316544 8.350024 -0.002187729
v -0.6117249 8.350024 -0.4695778
v -0.1786957 8.350024 -0.7660713
v -0.1786957 8.350024 -0.7660713
v 1.274338 2.328596 -0.1965027
v 0.4942474 2.328596 -0.6577072
v 0.8247528 2.328596 0.7963524
v -0.1365433 2.328596 0.8768005
v 1.124878 1.367723 -0.1166439
v 2.268524 3.302402 0.3345928
v 1.933815 3.354219 0.1460781
v 2.596603 5.641138 0.4054718
v 2.770584 5.613056 0.5191765
v 2.161125 3.29171 0.6476212
v 0.8883896 1.363157 0.3131733
v 0.4146729 1.410002 0.4085426
v 1.832108 3.328365 0.6575642
v 0.2772217 1.448805 0.09155464
v 1.687759 3.364986 0.3810921
v 0.6925507 1.428324 -0.2736206
v 1.933815 3.354219 0.1460781
v 1.124878 1.367723 -0.1166439
v 2.448822 5.651249 0.4967957
v 2.596603 5.641138 0.4054718
v 2.544548 5.627417 0.6739559
v 2.722336 5.607681 0.6675968
v 1.124878 1.367723 -0.1166439
v 0.6925507 1.428324 -0.2736206
v -0.5241013 3.556955 1.088989
v -0.8260422 4.823696 2.702232
v -0.651123 4.945642 2.477125
v -0.7263641 6.447114 3.664757
v -0.8298492 6.384369 3.780941
v -1.068466 4.87802 2.610418
v -0.8609009 3.748156 1.025606
v -0.9219589 4.107924 0.8927631
v -1.052589 5.005831 2.378901
v -0.6634598 4.20186 0.8515739
v -0.8211517 5.050483 2.292053
v -0.3842697 3.877893 0.9658813
v -0.651123 4.945642 2.477125
v -0.5241013 3.556955 1.088989
v -0.7886581 6.508055 3.556215
v -0.7263641 6.447114 3.664757
v -0.9371948 6.478193 3.614134
v -0.9449844 6.40909 3.73929
v -0.5241013 3.556955 1.088989
v -0.3842697 3.877893 0.9658813

vn 0.454748 0.410459 -0.7903971
vn 0.4477557 0.2508199 -0.8582565
vn 0.4477557 0.2508199 -0.8582565
vn -0.1767029 0.5708936 -0.8017833
vn 0.08584996 -0.2251669 0.9705306
vn -0.02796801 0.05578002 0.9980513
vn -0.7722961 0.143698 0.6187969
vn -0.9585468 0.223389 0.176877
vn -0.5984992 0.5665582 -0.5664012
vn -0.5690938 0.3924479 -0.7225766
vn -0.1767029 0.5708936 -0.8017833
vn 0.4477557 0.2508199 -0.8582565
vn -0.5035461 0.3538041 -0.7882031
vn -0.5035461 0.3538041 -0.7882031
vn -0.7640013 -0.03859802 -0.6440592
vn 0.03377899 0.2217219 -0.9745247
vn 0.6220719 -0.16555 -0.765258
vn -0.5462149 -0.195815 -0.8144358
vn -0.6665131 -0.141718 0.7318991
vn -0.976863 0.05235 0.20736
vn -0.03391198 -0.02649699 0.9990736
vn -0.199583 0.245263 0.94869
vn 0.669632 0.364055 -0.6473461
vn 0.6220719 -0.16555 -0.765258
vn 0.03377899 0.2217219 -0.9745247
vn 0.6220719 -0.16555 -0.765258
vn 0.7111392 0.180287 0.6795422
vn 0.9967073 -0.05039701 -0.06352001
vn -0.6555077 0.2641659 0.7074786
vn -0.9935549 0.100391 0.05263398
vn 0.137897 -0.2745639 -0.9516297
vn 0.137897 -0.2745639 -0.9516297
vn 0.412819 0.5868669 -0.6965398
vn -0.5035461 0.3538041 -0.7882031
vn 0.7764891 0.004428001 0.6301151
vn 0.008414993 -0.2483708 0.9686285
vn 0.6936977 -0.1270489 -0.7089725
vn 0.8154678 -0.1958209 -0.5446708
vn 0.168069 0.174408 -0.970224
vn 0.194339 0.048455 -0.9797369
vn 0.8051186 -0.09748995 -0.5850468
vn 0.5401139 -0.3380539 0.7707118
vn 0.440386 -0.546424 0.712377
vn -0.7695006 0.4134237 0.4867748
vn -0.7019608 0.218577 0.6778459
vn -0.7588649 0.6240191 -0.186344
vn -0.869577 0.466799 -0.161042
vn -0.007025999 0.388291 -0.92151
vn 0.168069 0.174408 -0.970224
vn 0.6936977 -0.1270489 -0.7089725
vn -0.9467078 0.257086 -0.194039
vn 0.194339 0.048455 -0.9797369
vn -0.7392852 0.1828601 0.6480892
vn 0.5892401 -0.113937 0.7998841
vn 0.6936977 -0.1270489 -0.7089725
vn -0.007025999 0.388291 -0.92151
vn 0.6361715 -0.4637033 0.6166564
vn 0.4569152 -0.5536762 0.6961833
vn 0.9658524 -0.018269 0.2584481
vn 0.9612878 -0.1449309 0.2343519
vn 0.5071028 -0.4642898 0.7261416
vn -0.8398435 -0.4244199 0.3384238
vn -0.793701 -0.584596 0.168185
vn -0.382557 0.7290349 -0.5675899
vn -0.5959706 0.5471466 -0.5877495
vn 0.3044539 0.8388157 -0.4513269
vn 0.2733141 0.7396073 -0.6150452
vn 0.9517032 0.2502251 0.1779001
vn 0.9658524 -0.018269 0.2584481
vn 0.6361715 -0.4637033 0.6166564
vn 0.2923839 0.5726039 -0.765922
vn 0.9612878 -0.1449309 0.2343519
vn -0.5668419 0.5250439 -0.6348379
vn -0.8515224 -0.234014 0.4691982
vn 0.6361715 -0.4637033 0.6166564
vn 0.9517032 0.2502251 0.1779001

vt 0.1055908 0.3232422
vt 0.1096802 0.3532715
vt 0.1278076 0.3532715
vt 0.1287842 0.3232422
vt 0.07672119 0.3232422
vt 0.08624268 0.3532715
vt 0.05950928 0.3232422
vt 0.06634521 0.3532715
vt 0.04046631 0.3232422
vt 0.04293823 0.3532715
vt 0.02571106 0.3232422
vt 0.02592468 0.3532715
vt 0.02734375 0.3781738
vt 0.04507446 0.3779297
vt 0.04846191 0.4140625
vt 0.0319519 0.4150391
vt 0.03213501 0.4318848
vt 0.04855347 0.4309082
vt 0.06231689 0.4130859
vt 0.06256104 0.4299316
vt 0.07836914 0.4121094
vt 0.07855225 0.4289551
vt 0.1002808 0.4121094
vt 0.09954834 0.4289551
vt 0.1193237 0.4147949
vt 0.1175537 0.4313965
vt 0.0793457 0.4919434
vt 0.09680176 0.4921875
vt 0.06341553 0.4929199
vt 0.04891968 0.4938965
vt 0.03283691 0.494873
vt 0.1108398 0.4936523
vt 0.1090088 0.3774414
vt 0.1254883 0.3781738
vt 0.08795166 0.3774414
vt 0.06793213 0.3776855
vt 0.1115723 0.3449707
vt 0.1104736 0.4145508
vt 0.1217041 0.4125977
vt 0.1165771 0.4851074
vt 0.1097412 0.4863281
vt 0.1027222 0.4145508
vt 0.1022949 0.3449707
vt 0.09362793 0.3449707
vt 0.09539795 0.4125977
vt 0.08660889 0.3449707
vt 0.08764648 0.411377
vt 0.08013916 0.3449707
vt 0.0814209 0.4123535
vt 0.1115723 0.3449707
vt 0.08782959 0.484375
vt 0.08465576 0.4846191
vt 0.09527588 0.4853516
vt 0.1028442 0.4865723
vt 0.1115723 0.3449707
vt 0.1218872 0.3449707
vt 0.09686279 0.4006348
vt 0.0960083 0.4465332
vt 0.1040649 0.4453125
vt 0.1004028 0.4931641
vt 0.09552002 0.4938965
vt 0.09051514 0.4465332
vt 0.09020996 0.4006348
vt 0.08398438 0.4006348
vt 0.08526611 0.4453125
vt 0.07897949 0.4006348
vt 0.07971191 0.4443359
vt 0.07434082 0.4006348
vt 0.07525635 0.4450684
vt 0.09686279 0.4006348
vt 0.07983398 0.4926758
vt 0.07757568 0.4926758
vt 0.08520508 0.4931641
vt 0.09057617 0.4941406
vt 0.09686279 0.4006348
vt 0.104248 0.4006348

g Tree1_big_(11)_1501_164
usemtl Tree1_big_(11)_1501_164
usemap Tree1_big_(11)_1501_164
f 1/1/1 3/3/3 2/2/2
f 1/1/1 4/4/4 3/3/3
f 5/5/5 1/1/1 2/2/2
f 5/5/5 2/2/2 6/6/6
f 7/7/7 5/5/5 6/6/6
f 7/7/7 6/6/6 8/8/8
f 9/9/9 7/7/7 8/8/8
f 9/9/9 8/8/8 10/10/10
f 11/11/11 9/9/9 10/10/10
f 11/11/11 10/10/10 12/12/12
f 13/13/13 12/12/12 10/10/10
f 13/13/13 10/10/10 14/14/14
f 14/14/14 10/10/10 8/8/8
f 13/13/13 14/14/14 15/15/15
f 13/13/13 15/15/15 16/16/16
f 15/15/15 17/17/17 16/16/16
f 15/15/15 18/18/18 17/17/17
f 19/19/19 18/18/18 15/15/15
f 14/14/14 19/19/19 15/15/15
f 19/19/19 20/20/20 18/18/18
f 21/21/21 20/20/20 19/19/19
f 21/21/21 22/22/22 20/20/20
f 23/23/23 22/22/22 21/21/21
f 23/23/23 24/24/24 22/22/22
f 25/25/25 24/24/24 23/23/23
f 25/25/25 26/26/26 24/24/24
f 24/24/24 27/27/27 22/22/22
f 20/20/20 22/22/22 27/27/27
f 24/24/24 28/28/28 27/27/27
f 20/20/20 27/27/27 29/29/29
f 18/18/18 20/20/20 29/29/29
f 18/18/18 29/29/29 30/30/30
f 17/17/17 18/18/18 30/30/30
f 17/17/17 30/30/30 31/31/31
f 24/24/24 32/32/32 28/28/28
f 24/24/24 26/26/26 32/32/32
f 33/33/33 25/25/25 23/23/23
f 33/33/33 34/34/34 25/25/25
f 35/35/35 23/23/23 21/21/21
f 35/35/35 33/33/33 23/23/23
f 36/36/36 35/35/35 21/21/21
f 36/36/36 21/21/21 19/19/19
f 14/14/14 36/36/36 19/19/19
f 33/33/33 3/3/3 34/34/34
f 33/33/33 2/2/2 3/3/3
f 35/35/35 2/2/2 33/33/33
f 35/35/35 6/6/6 2/2/2
f 36/36/36 6/6/6 35/35/35
f 36/36/36 8/8/8 6/6/6
f 14/14/14 8/8/8 36/36/36
f 37/37/37 39/39/39 38/38/38
f 38/38/38 39/39/39 40/40/40
f 38/38/38 40/40/40 41/41/41
f 42/42/42 38/38/38 41/41/41
f 43/43/43 38/38/38 42/42/42
f 44/44/44 43/43/43 42/42/42
f 44/44/44 42/42/42 45/45/45
f 46/46/46 44/44/44 45/45/45
f 46/46/46 45/45/45 47/47/47
f 48/48/48 46/46/46 47/47/47
f 48/48/48 47/47/47 49/49/49
f 43/43/43 50/50/50 38/38/38
f 49/49/49 47/47/47 51/51/51
f 49/49/49 51/51/51 52/52/52
f 47/47/47 53/53/53 51/51/51
f 47/47/47 45/45/45 53/53/53
f 45/45/45 54/54/54 53/53/53
f 45/45/45 42/42/42 54/54/54
f 42/42/42 41/41/41 54/54/54
f 55/55/55 56/56/56 39/39/39
f 57/57/57 59/59/59 58/58/58
f 58/58/58 59/59/59 60/60/60
f 58/58/58 60/60/60 61/61/61
f 62/62/62 58/58/58 61/61/61
f 63/63/63 58/58/58 62/62/62
f 64/64/64 63/63/63 62/62/62
f 64/64/64 62/62/62 65/65/65
f 66/66/66 64/64/64 65/65/65
f 66/66/66 65/65/65 67/67/67
f 68/68/68 66/66/66 67/67/67
f 68/68/68 67/67/67 69/69/69
f 63/63/63 70/70/70 58/58/58
f 69/69/69 67/67/67 71/71/71
f 69/69/69 71/71/71 72/72/72
f 67/67/67 73/73/73 71/71/71
f 67/67/67 65/65/65 73/73/73
f 65/65/65 74/74/74 73/73/73
f 65/65/65 62/62/62 74/74/74
f 62/62/62 61/61/61 74/74/74
f 75/75/75 76/76/76 59/59/59
