#Tree_conf2_(10)_2202_43.obj

v 0.1189065 -0.1466557 -0.4504027
v 0.05755874 1.159755 -0.1771429
v -0.1506831 1.159755 -0.10948
v -0.4105744 -0.1466557 -0.2783659
v -0.15069 1.159755 0.10948
v -0.4105716 -0.1466557 0.2783646
v 0.05755487 1.159755 0.1771415
v 0.1189042 -0.1466557 0.4504036
v 0.1862595 1.159755 -7.177334E-07
v 0.4461443 -0.1466557 6.979346E-07
v 0.05755874 1.159755 -0.1771429
v 0.1189065 -0.1466557 -0.4504027
v -0.06862976 6.66993 0.05615869
v -0.06863427 6.66993 -0.05615766
v 0.0381881 6.66993 -0.09086516
v 0.0381881 6.66993 -0.09086516
v 0.1042072 6.66993 7.521602E-07
v 0.03818743 6.66993 0.09086539

vn 0.2380405 0.2202612 -0.9459502
vn 0.2521822 0.1013408 -0.9623587
vn -0.8380195 0.1071745 -0.5350112
vn -0.8227481 0.2375189 -0.5164012
vn -0.767221 0.09285838 0.6346252
vn -0.7541131 0.2236404 0.6174936
vn 0.3665523 0.07821421 0.9271041
vn 0.3507105 0.1974784 0.9154258
vn 0.9947447 0.08354381 -0.05918979
vn 0.9791337 0.1950949 -0.05687949
vn 0.2521822 0.1013408 -0.9623587
vn 0.2380405 0.2202612 -0.9459502
vn -0.7716751 0.01054818 0.6359295
vn -0.8427197 0.02491407 -0.5377758
vn 0.2515121 0.02758879 -0.9674609
vn 0.2515121 0.02758879 -0.9674609
vn 0.9980733 0.01488877 -0.0602316
vn 0.3663936 0.004358782 0.9304497

vt 0.4238281 0.003742218
vt 0.4238281 0.02593994
vt 0.4316406 0.02593994
vt 0.4316406 0.003742218
vt 0.4394531 0.02593994
vt 0.4394531 0.003740311
vt 0.4472656 0.02593994
vt 0.4472656 0.003740311
vt 0.4550781 0.02593994
vt 0.4550781 0.003740311
vt 0.4628906 0.02593994
vt 0.4628906 0.003738403
vt 0.4394531 0.1196289
vt 0.4318848 0.1196289
vt 0.4240723 0.1196289
vt 0.4628906 0.1195679
vt 0.4550781 0.1196289
vt 0.4472656 0.1196289

g Tree_conf2_(10)_2202_43
usemtl Tree_conf2_(10)_2202_43
usemap Tree_conf2_(10)_2202_43
f 1/1/1 3/3/3 2/2/2
f 1/1/1 4/4/4 3/3/3
f 4/4/4 5/5/5 3/3/3
f 4/4/4 6/6/6 5/5/5
f 6/6/6 7/7/7 5/5/5
f 6/6/6 8/8/8 7/7/7
f 8/8/8 9/9/9 7/7/7
f 8/8/8 10/10/10 9/9/9
f 10/10/10 11/11/11 9/9/9
f 10/10/10 12/12/12 11/11/11
f 3/3/3 5/5/5 13/13/13
f 3/3/3 13/13/13 14/14/14
f 2/2/2 3/3/3 14/14/14
f 2/2/2 14/14/14 15/15/15
f 9/9/9 11/11/11 16/16/16
f 9/9/9 16/16/16 17/17/17
f 7/7/7 9/9/9 17/17/17
f 7/7/7 17/17/17 18/18/18
f 5/5/5 18/18/18 13/13/13
f 5/5/5 7/7/7 18/18/18
