#Tree1_(16)_1160_278.obj

v -0.4416056 6.484625 -1.577856
v -1.39759 6.484625 -1.181872
v -0.4416073 5.622716 -2.052586
v -1.733275 5.622716 -1.517563
v -1.793566 6.484625 -0.2258921
v -2.268299 5.622716 -0.2258939
v -1.397588 6.484625 0.7300891
v -1.733276 5.622716 1.065775
v -0.4416077 6.484625 1.12607
v -0.441609 5.622716 1.600808
v 0.5143777 6.484625 0.7300875
v 0.850063 5.622716 1.065778
v 0.9103565 6.484625 -0.2258903
v 1.385093 5.622716 -0.225895
v 0.5143766 6.484625 -1.181873
v 0.8500624 5.622716 -1.51756
v -0.4416048 4.609753 -2.152974
v -1.804258 4.609753 -1.588548
v -2.368683 4.609753 -0.2258941
v -1.804262 4.609753 1.13676
v -0.4416078 4.609753 1.701189
v 0.9210494 4.609753 1.136757
v 1.485479 4.609753 -0.2258939
v 0.9210455 4.609753 -1.588548
v 0.1353813 6.879482 0.01310383
v -0.6806032 6.879482 0.3510953
v -0.4416067 6.955975 -0.2258927
v -1.018593 6.879482 -0.4648878
v -0.2026142 6.879482 -0.8028742
v -0.4963034 5.42801 1.781257
v -1.262317 5.284224 2.032504
v -0.4443544 5.091809 1.142741
v -1.557366 4.882892 1.507799
v -1.602624 5.008309 2.724356
v -2.05182 4.481992 2.513034
v -1.317863 4.761891 3.451517
v -1.63807 4.12395 3.569595
v -0.5748566 4.689319 3.788048
v -0.5584897 4.018503 4.058564
v 0.1911622 4.833102 3.536795
v 0.5545221 4.22742 3.693507
v 0.5314627 5.109017 2.844959
v 1.048977 4.628322 2.688262
v 0.2467037 5.355435 2.117789
v 0.6352248 4.986362 1.631709
v -0.3995087 4.544276 0.8063738
v -1.60422 4.318147 1.201499
v -2.139408 3.884214 2.289562
v -1.691573 3.496674 3.433178
v -0.5230443 3.38254 3.962436
v 0.6816734 3.608667 3.567297
v 1.216864 4.0426 2.479236
v 0.7690235 4.43014 1.335625
v -0.1039903 5.263332 3.078569
v -0.7578313 5.140604 3.293021
v -0.5590968 5.405268 2.911319
v -1.000884 5.350937 2.672344
v -0.3470535 5.473663 2.457894
v 3.467296 4.289501 -0.06889316
v 2.692064 4.465175 -0.73135
v 3.661677 3.344652 -0.2631486
v 2.614225 3.582012 -1.158231
v 1.69377 4.720965 -0.6381443
v 1.265388 3.927623 -1.032295
v 1.057211 4.907035 0.156125
v 0.4053002 4.179029 0.04087858
v 1.155262 4.914389 1.186191
v 0.5377815 4.188965 1.432646
v 1.930498 4.738715 1.84865
v 1.58524 3.951605 2.327724
v 2.928791 4.482923 1.755444
v 2.934073 3.605993 2.201794
v 3.565352 4.296852 0.961176
v 3.794167 3.354586 1.128616
v 3.498888 2.339954 -0.2790734
v 2.393876 2.590359 -1.223342
v 0.9709149 2.954962 -1.090486
v 0.06355828 3.220186 0.04166285
v 0.2033272 3.230665 1.509912
v 1.308342 2.980261 2.454183
v 2.731304 2.615658 2.321328
v 3.638655 2.350435 1.189175
v 2.46738 4.988973 1.168392
v 1.80567 5.13892 0.6029497
v 2.426967 5.058652 0.5443777
v 2.349015 4.980098 -0.0750061
v 3.010713 4.830153 0.4904368

vn 0.6503269 0.5420592 -0.5322093
vn 0.08352175 0.5420586 -0.8361797
vn 0.7347441 0.3140009 -0.601294
vn 0.09436345 0.3140011 -0.9447216
vn -0.5322093 0.5420592 -0.6503269
vn -0.601294 0.3140009 -0.7347441
vn -0.8361795 0.542059 -0.08352241
vn -0.9447216 0.3140011 -0.09436345
vn -0.6503269 0.5420592 0.5322093
vn -0.7347441 0.3140009 0.601294
vn -0.08352107 0.542059 0.8361796
vn -0.09436345 0.3140011 0.9447216
vn 0.5322093 0.5420592 0.6503269
vn 0.601294 0.3140009 0.7347441
vn 0.8361796 0.542059 0.08352107
vn 0.9447218 0.3140009 0.09436274
vn 0.7637445 0.1613551 -0.6250272
vn 0.098088 0.161355 -0.9820098
vn -0.6250272 0.1613551 -0.7637445
vn -0.9820098 0.161355 -0.098088
vn -0.7637445 0.1613551 0.6250272
vn -0.098088 0.161355 0.9820098
vn 0.6250272 0.1613551 0.7637445
vn 0.98201 0.1613549 0.09808734
vn 0.1368767 0.9538103 0.267415
vn -0.2674156 0.9538102 0.1368759
vn 0 1 0
vn -0.1368773 0.95381 -0.2674157
vn 0.267415 0.9538103 -0.1368767
vn 0.4638931 0.7981869 -0.3843187
vn -0.0698548 0.6852556 -0.7249448
vn 0.6152375 0.6220729 -0.4842604
vn 0.01220512 0.4944831 -0.8691016
vn -0.6596456 0.468548 -0.5876483
vn -0.6541449 0.249645 -0.7139831
vn -0.9599879 0.275008 -0.05285633
vn -0.993474 0.030982 -0.109771
vn -0.7949451 0.2180079 0.5661581
vn -0.8070076 -0.03341699 0.589595
vn -0.2611959 0.3309391 0.9067835
vn -0.2039751 0.09417298 0.974436
vn 0.3285944 0.547647 0.7694859
vn 0.4623758 0.339011 0.819317
vn 0.6289365 0.7411867 0.2346938
vn 0.8017043 0.557674 0.2151042
vn 0.6899179 0.491927 -0.5310567
vn 0.06308433 0.3593008 -0.9310872
vn -0.6295669 0.1047991 -0.769846
vn -0.9822891 -0.122495 -0.141786
vn -0.7884626 -0.189435 0.5851848
vn -0.1616283 -0.056809 0.9852153
vn 0.531023 0.1976929 0.8239734
vn 0.8837448 0.424986 0.1959133
vn -0.1747212 0.885857 0.4298022
vn -0.5461576 0.7939746 0.2670511
vn -0.3053648 0.9373471 0.1677283
vn -0.4090146 0.9059739 -0.1091718
vn -0.03757932 0.9978563 0.05357897
vn 0.853899 0.3310159 0.4016032
vn 0.8673824 0.4402091 -0.2320858
vn 0.9113601 0.08483202 0.4027734
vn 0.9265937 0.2082001 -0.3131726
vn 0.4295641 0.5992017 -0.6755976
vn 0.4319439 0.3878301 -0.8142557
vn -0.2030865 0.714857 -0.6691303
vn -0.2828305 0.5184991 -0.8069484
vn -0.6599735 0.719427 -0.216471
vn -0.799024 0.523662 -0.2955315
vn -0.6734561 0.610234 0.4172186
vn -0.8142577 0.4002951 0.4204144
vn -0.2356372 0.4512419 0.8607298
vn -0.3196065 0.2206639 0.9214984
vn 0.3970135 0.335586 0.8542613
vn 0.3951676 0.08999498 0.9141901
vn 0.9178094 -0.07173201 0.3904877
vn 0.9336443 0.05650397 -0.353717
vn 0.4194707 0.243225 -0.8745776
vn -0.3235157 0.379052 -0.8669816
vn -0.8600837 0.384418 -0.3353788
vn -0.8759183 0.2561819 0.4088252
vn -0.3617433 0.06946103 0.9296865
vn 0.381242 -0.06636602 0.9220902
vn -0.002740547 0.9129925 0.4079673
vn -0.06876891 0.9976278 -0.003092002
vn 0.1788795 0.9689379 0.170767
vn 0.3439742 0.9353735 -0.0822082
vn 0.4100024 0.850738 0.3288509

vt 0.4470215 0.4243164
vt 0.4257813 0.4155273
vt 0.4472656 0.4458008
vt 0.4106445 0.4306641
vt 0.4169922 0.3942871
vt 0.3955078 0.3942871
vt 0.4257813 0.3728027
vt 0.4106445 0.3579102
vt 0.4470215 0.3642578
vt 0.4470215 0.3427734
vt 0.4685059 0.3730469
vt 0.4833984 0.357666
vt 0.4770508 0.3942871
vt 0.4985352 0.394043
vt 0.4682617 0.4155273
vt 0.4833984 0.4306641
vt 0.4470215 0.4689941
vt 0.394043 0.4470215
vt 0.3723145 0.394043
vt 0.394043 0.3413086
vt 0.4470215 0.3193359
vt 0.5 0.3413086
vt 0.5219727 0.3942871
vt 0.5 0.4472656
vt 0.4609375 0.3884277
vt 0.4411621 0.3803711
vt 0.4470215 0.3942871
vt 0.4331055 0.3999023
vt 0.4528809 0.407959
vt 0.3144531 0.4064941
vt 0.2939453 0.3986816
vt 0.3151855 0.4223633
vt 0.2832031 0.4101563
vt 0.2856445 0.3781738
vt 0.2697754 0.3789063
vt 0.293457 0.357666
vt 0.2817383 0.3469238
vt 0.3139648 0.3493652
vt 0.3132324 0.333252
vt 0.3344727 0.3571777
vt 0.3452148 0.345459
vt 0.3427734 0.3776855
vt 0.3586426 0.3769531
vt 0.3349609 0.3981934
vt 0.3464355 0.4089355
vt 0.3132324 0.4384766
vt 0.2705078 0.420166
vt 0.253418 0.3769531
vt 0.2717285 0.3342285
vt 0.3151855 0.3171387
vt 0.357666 0.3354492
vt 0.375 0.3786621
vt 0.3564453 0.4213867
vt 0.3261719 0.3720703
vt 0.3083496 0.3659668
vt 0.314209 0.3779297
vt 0.3022461 0.3837891
vt 0.3200684 0.3898926
vt 0.4470215 0.4243164
vt 0.4257813 0.4155273
vt 0.4472656 0.4458008
vt 0.4106445 0.4306641
vt 0.4169922 0.3942871
vt 0.3955078 0.3942871
vt 0.4257813 0.3728027
vt 0.4106445 0.3579102
vt 0.4470215 0.3642578
vt 0.4470215 0.3427734
vt 0.4685059 0.3730469
vt 0.4833984 0.357666
vt 0.4770508 0.3942871
vt 0.4985352 0.394043
vt 0.4682617 0.4155273
vt 0.4833984 0.4306641
vt 0.4470215 0.4689941
vt 0.394043 0.4470215
vt 0.3723145 0.394043
vt 0.394043 0.3413086
vt 0.4470215 0.3193359
vt 0.5 0.3413086
vt 0.5219727 0.3942871
vt 0.5 0.4472656
vt 0.4609375 0.3884277
vt 0.4411621 0.3803711
vt 0.4470215 0.3942871
vt 0.4331055 0.3999023
vt 0.4528809 0.407959

g Tree1_(16)_1160_278
usemtl Tree1_(16)_1160_278
usemap Tree1_(16)_1160_278
f 1/1/1 3/3/3 2/2/2
f 2/2/2 3/3/3 4/4/4
f 2/2/2 4/4/4 5/5/5
f 5/5/5 4/4/4 6/6/6
f 5/5/5 6/6/6 7/7/7
f 7/7/7 6/6/6 8/8/8
f 7/7/7 8/8/8 9/9/9
f 9/9/9 8/8/8 10/10/10
f 9/9/9 10/10/10 11/11/11
f 11/11/11 10/10/10 12/12/12
f 11/11/11 12/12/12 13/13/13
f 13/13/13 12/12/12 14/14/14
f 13/13/13 14/14/14 15/15/15
f 15/15/15 14/14/14 16/16/16
f 15/15/15 16/16/16 1/1/1
f 1/1/1 16/16/16 3/3/3
f 3/3/3 17/17/17 4/4/4
f 4/4/4 17/17/17 18/18/18
f 4/4/4 18/18/18 6/6/6
f 6/6/6 18/18/18 19/19/19
f 6/6/6 19/19/19 8/8/8
f 8/8/8 19/19/19 20/20/20
f 8/8/8 20/20/20 10/10/10
f 10/10/10 20/20/20 21/21/21
f 10/10/10 21/21/21 12/12/12
f 12/12/12 21/21/21 22/22/22
f 12/12/12 22/22/22 14/14/14
f 14/14/14 22/22/22 23/23/23
f 14/14/14 23/23/23 16/16/16
f 16/16/16 23/23/23 24/24/24
f 16/16/16 24/24/24 3/3/3
f 3/3/3 24/24/24 17/17/17
f 11/11/11 13/13/13 25/25/25
f 13/13/13 15/15/15 25/25/25
f 26/26/26 11/11/11 25/25/25
f 26/26/26 25/25/25 27/27/27
f 28/28/28 26/26/26 27/27/27
f 29/29/29 28/28/28 27/27/27
f 25/25/25 29/29/29 27/27/27
f 29/29/29 2/2/2 28/28/28
f 1/1/1 2/2/2 29/29/29
f 15/15/15 1/1/1 29/29/29
f 25/25/25 15/15/15 29/29/29
f 2/2/2 5/5/5 28/28/28
f 5/5/5 7/7/7 28/28/28
f 28/28/28 7/7/7 26/26/26
f 7/7/7 9/9/9 26/26/26
f 9/9/9 11/11/11 26/26/26
f 30/30/30 32/32/32 31/31/31
f 31/31/31 32/32/32 33/33/33
f 31/31/31 33/33/33 34/34/34
f 34/34/34 33/33/33 35/35/35
f 34/34/34 35/35/35 36/36/36
f 36/36/36 35/35/35 37/37/37
f 36/36/36 37/37/37 38/38/38
f 38/38/38 37/37/37 39/39/39
f 38/38/38 39/39/39 40/40/40
f 40/40/40 39/39/39 41/41/41
f 40/40/40 41/41/41 42/42/42
f 42/42/42 41/41/41 43/43/43
f 42/42/42 43/43/43 44/44/44
f 44/44/44 43/43/43 45/45/45
f 44/44/44 45/45/45 30/30/30
f 30/30/30 45/45/45 32/32/32
f 32/32/32 46/46/46 33/33/33
f 33/33/33 46/46/46 47/47/47
f 33/33/33 47/47/47 35/35/35
f 35/35/35 47/47/47 48/48/48
f 35/35/35 48/48/48 37/37/37
f 37/37/37 48/48/48 49/49/49
f 37/37/37 49/49/49 39/39/39
f 39/39/39 49/49/49 50/50/50
f 39/39/39 50/50/50 41/41/41
f 41/41/41 50/50/50 51/51/51
f 41/41/41 51/51/51 43/43/43
f 43/43/43 51/51/51 52/52/52
f 43/43/43 52/52/52 45/45/45
f 45/45/45 52/52/52 53/53/53
f 45/45/45 53/53/53 32/32/32
f 32/32/32 53/53/53 46/46/46
f 40/40/40 42/42/42 54/54/54
f 42/42/42 44/44/44 54/54/54
f 55/55/55 40/40/40 54/54/54
f 55/55/55 54/54/54 56/56/56
f 57/57/57 55/55/55 56/56/56
f 58/58/58 57/57/57 56/56/56
f 54/54/54 58/58/58 56/56/56
f 58/58/58 31/31/31 57/57/57
f 30/30/30 31/31/31 58/58/58
f 44/44/44 30/30/30 58/58/58
f 54/54/54 44/44/44 58/58/58
f 31/31/31 34/34/34 57/57/57
f 34/34/34 36/36/36 57/57/57
f 57/57/57 36/36/36 55/55/55
f 36/36/36 38/38/38 55/55/55
f 38/38/38 40/40/40 55/55/55
f 59/59/59 61/61/61 60/60/60
f 60/60/60 61/61/61 62/62/62
f 60/60/60 62/62/62 63/63/63
f 63/63/63 62/62/62 64/64/64
f 63/63/63 64/64/64 65/65/65
f 65/65/65 64/64/64 66/66/66
f 65/65/65 66/66/66 67/67/67
f 67/67/67 66/66/66 68/68/68
f 67/67/67 68/68/68 69/69/69
f 69/69/69 68/68/68 70/70/70
f 69/69/69 70/70/70 71/71/71
f 71/71/71 70/70/70 72/72/72
f 71/71/71 72/72/72 73/73/73
f 73/73/73 72/72/72 74/74/74
f 73/73/73 74/74/74 59/59/59
f 59/59/59 74/74/74 61/61/61
f 61/61/61 75/75/75 62/62/62
f 62/62/62 75/75/75 76/76/76
f 62/62/62 76/76/76 64/64/64
f 64/64/64 76/76/76 77/77/77
f 64/64/64 77/77/77 66/66/66
f 66/66/66 77/77/77 78/78/78
f 66/66/66 78/78/78 68/68/68
f 68/68/68 78/78/78 79/79/79
f 68/68/68 79/79/79 70/70/70
f 70/70/70 79/79/79 80/80/80
f 70/70/70 80/80/80 72/72/72
f 72/72/72 80/80/80 81/81/81
f 72/72/72 81/81/81 74/74/74
f 74/74/74 81/81/81 82/82/82
f 74/74/74 82/82/82 61/61/61
f 61/61/61 82/82/82 75/75/75
f 69/69/69 71/71/71 83/83/83
f 71/71/71 73/73/73 83/83/83
f 84/84/84 69/69/69 83/83/83
f 84/84/84 83/83/83 85/85/85
f 86/86/86 84/84/84 85/85/85
f 87/87/87 86/86/86 85/85/85
f 83/83/83 87/87/87 85/85/85
f 87/87/87 60/60/60 86/86/86
f 59/59/59 60/60/60 87/87/87
f 73/73/73 59/59/59 87/87/87
f 83/83/83 73/73/73 87/87/87
f 60/60/60 63/63/63 86/86/86
f 63/63/63 65/65/65 86/86/86
f 86/86/86 65/65/65 84/84/84
f 65/65/65 67/67/67 84/84/84
f 67/67/67 69/69/69 84/84/84
