#Tree1_big_(2)_998_141.obj

v -0.6182504 9.078475 -2.208994
v -1.956624 9.078475 -1.654622
v -0.6182511 7.871802 -2.873621
v -2.426586 7.871802 -2.124585
v -2.510993 9.078475 -0.3162475
v -3.17562 7.871802 -0.3162467
v -1.956624 9.078475 1.022125
v -2.426589 7.871802 1.492091
v -0.6182511 9.078475 1.576497
v -0.6182517 7.871802 2.241127
v 0.7201259 9.078475 1.022126
v 1.190092 7.871802 1.492091
v 1.274498 9.078475 -0.3162467
v 1.939127 7.871802 -0.316251
v 0.7201242 9.078475 -1.654625
v 1.190087 7.871802 -2.124588
v -0.6182508 6.453654 -3.014159
v -2.525963 6.453654 -2.223963
v -3.316158 6.453654 -0.316247
v -2.525962 6.453654 1.591465
v -0.6182506 6.453654 2.381662
v 1.289463 6.453654 1.591462
v 2.079669 6.453654 -0.3162493
v 1.28946 6.453654 -2.223962
v 0.1895332 9.631275 0.0183446
v -0.9528438 9.631275 0.4915354
v -0.6182507 9.738364 -0.3162485
v -1.426026 9.631275 -0.6508424
v -0.283659 9.631275 -1.124029
v -0.6948294 7.599214 2.493762
v -1.767246 7.397913 2.84551
v -0.6220965 7.128533 1.599836
v -2.180307 6.836048 2.110916
v -2.243674 7.011633 3.814094
v -2.872547 6.274788 3.518245
v -1.845008 6.666648 4.832128
v -2.293293 5.77353 4.997434
v -0.8047997 6.565046 5.303267
v -0.7818792 5.625905 5.681987
v 0.2676263 6.766343 4.951516
v 0.7763315 5.918388 5.170908
v 0.7440514 7.152624 3.982939
v 1.468566 6.47965 3.763572
v 0.3453872 7.49761 2.964901
v 0.8893178 6.980906 2.28439
v -0.5593126 6.361987 1.128918
v -2.245907 6.045405 1.682102
v -2.995176 5.4379 3.205388
v -2.368201 4.895342 4.806453
v -0.7322564 4.735554 5.54741
v 0.9543409 5.052135 4.994218
v 1.70361 5.659639 3.470932
v 1.076631 6.202197 1.869875
v -0.1455878 7.368665 4.309996
v -1.060957 7.196846 4.610227
v -0.7827351 7.567375 4.075843
v -1.401235 7.491312 3.741278
v -0.4858738 7.663128 3.441048
v 4.854211 6.005301 -0.09644702
v 3.768887 6.251245 -1.023891
v 5.126351 4.682513 -0.368413
v 3.659912 5.014816 -1.62152
v 2.371281 6.609352 -0.8934026
v 1.771544 5.498672 -1.445212
v 1.480094 6.869849 0.2185747
v 0.5674179 5.850641 0.05722989
v 1.617372 6.880144 1.660662
v 0.752895 5.864551 2.0057
v 2.702696 6.634201 2.588106
v 2.219332 5.532247 3.258814
v 4.100308 6.276092 2.457624
v 4.107706 5.048391 3.082508
v 4.991496 6.015593 1.345643
v 5.311834 4.69642 1.580063
v 4.898443 3.275937 -0.3907037
v 3.351421 3.626502 -1.712677
v 1.359282 4.136947 -1.526678
v 0.08898028 4.508259 0.05832621
v 0.2846583 4.522932 2.11388
v 1.831678 4.172366 3.435857
v 3.823824 3.661921 3.249861
v 5.094115 3.290609 1.664844
v 3.454331 6.984561 1.63575
v 2.527943 7.194488 0.8441267
v 3.397758 7.082113 0.7621254
v 3.288621 6.972137 -0.1050078
v 4.214996 6.762213 0.6866094

vn 0.7783817 0.5420592 -0.316692
vn 0.3264641 0.5420586 -0.7743343
vn 0.8794214 0.3140009 -0.3578009
vn 0.3688413 0.3140011 -0.8748482
vn -0.316692 0.5420592 -0.7783817
vn -0.3578009 0.3140009 -0.8794214
vn -0.7743339 0.542059 -0.3264646
vn -0.8748482 0.3140011 -0.3688413
vn -0.7783817 0.5420592 0.316692
vn -0.8794214 0.3140009 0.3578009
vn -0.3264634 0.542059 0.7743344
vn -0.3688413 0.3140011 0.8748482
vn 0.316692 0.5420592 0.7783817
vn 0.3578009 0.3140009 0.8794214
vn 0.7743344 0.542059 0.3264634
vn 0.8748486 0.3140009 0.3688407
vn 0.9141322 0.1613551 -0.3719234
vn 0.3833995 0.161355 -0.9093785
vn -0.3719234 0.1613551 -0.9141322
vn -0.9093785 0.161355 -0.3833995
vn -0.9141322 0.1613551 0.3719234
vn -0.3833995 0.161355 0.9093785
vn 0.3719234 0.1613551 0.9141322
vn 0.9093788 0.1613549 0.3833989
vn 0.05190314 0.9538103 0.295892
vn -0.2958924 0.9538102 0.05190222
vn 0 1 0
vn -0.05190352 0.95381 -0.2958929
vn 0.295892 0.9538103 -0.05190314
vn 0.5566185 0.7981869 -0.2303769
vn 0.1471 0.6852556 -0.7132925
vn 0.7307096 0.6220729 -0.2812274
vn 0.2680323 0.4944831 -0.8268284
vn -0.4569467 0.468548 -0.7560836
vn -0.4144242 0.249645 -0.8751743
vn -0.9016792 0.275008 -0.3336844
vn -0.9168863 0.030982 -0.3979443
vn -0.9265789 0.2180079 0.3064702
vn -0.9450182 -0.03341699 0.325306
vn -0.517059 0.330939 0.7893854
vn -0.4823408 0.09417299 0.8709069
vn 0.08698753 0.547647 0.8321754
vn 0.2001166 0.339011 0.9192524
vn 0.5317196 0.7411867 0.409776
vn 0.7025784 0.557674 0.4420217
vn 0.8158709 0.4919271 -0.303912
vn 0.3349321 0.3593008 -0.8710473
vn -0.3744612 0.1047991 -0.9213012
vn -0.8967552 -0.122495 -0.4252354
vn -0.9259974 -0.189435 0.3265624
vn -0.445058 -0.056809 0.8936981
vn 0.2643356 0.1976929 0.9439514
vn 0.7866293 0.4249861 0.4478854
vn -0.2937309 0.885857 0.3591373
vn -0.6006305 0.7939746 0.09406079
vn -0.3412538 0.9373471 0.0701874
vn -0.3586106 0.9059739 -0.2249662
vn -0.05171201 0.9978563 0.04010957
vn 0.6974365 0.331016 0.6356185
vn 0.8972473 0.4402091 0.03410456
vn 0.7519955 0.08483202 0.6536868
vn 0.9777431 0.2082001 -0.02590787
vn 0.6097393 0.5992017 -0.5188211
vn 0.6529151 0.3878301 -0.6506072
vn 0.003332421 0.714857 -0.6992627
vn -0.03220916 0.5184991 -0.8544713
vn -0.566751 0.719427 -0.4015195
vn -0.6762927 0.523662 -0.5180795
vn -0.7665614 0.610234 0.1999953
vn -0.9020404 0.4002951 0.1615148
vn -0.4790526 0.4512419 0.7529205
vn -0.5772111 0.2206639 0.7862155
vn 0.1273548 0.335586 0.933361
vn 0.1079131 0.08999498 0.9900786
vn 0.7617819 -0.07173201 0.6438501
vn 0.9964399 0.05650397 -0.06256828
vn 0.6587908 0.243225 -0.7119243
vn -0.05337518 0.379052 -0.9238347
vn -0.722881 0.384418 -0.5741653
vn -0.9575385 0.2561819 0.1322526
vn -0.6198883 0.06946103 0.7816097
vn 0.09227672 -0.06636602 0.9935192
vn -0.122962 0.9129925 0.3890054
vn -0.06479678 0.9976278 -0.02324007
vn 0.1205464 0.9689379 0.2159346
vn 0.3529182 0.9353735 0.02291639
vn 0.2947529 0.850738 0.4351616

vt 0.4470215 0.4243164
vt 0.4257813 0.4155273
vt 0.4472656 0.4458008
vt 0.4106445 0.4306641
vt 0.4169922 0.3942871
vt 0.3955078 0.3942871
vt 0.4257813 0.3728027
vt 0.4106445 0.3579102
vt 0.4470215 0.3642578
vt 0.4470215 0.3427734
vt 0.4685059 0.3730469
vt 0.4833984 0.357666
vt 0.4770508 0.3942871
vt 0.4985352 0.394043
vt 0.4682617 0.4155273
vt 0.4833984 0.4306641
vt 0.4470215 0.4689941
vt 0.394043 0.4470215
vt 0.3723145 0.394043
vt 0.394043 0.3413086
vt 0.4470215 0.3193359
vt 0.5 0.3413086
vt 0.5219727 0.3942871
vt 0.5 0.4472656
vt 0.4609375 0.3884277
vt 0.4411621 0.3803711
vt 0.4470215 0.3942871
vt 0.4331055 0.3999023
vt 0.4528809 0.407959
vt 0.3144531 0.4064941
vt 0.2939453 0.3986816
vt 0.3151855 0.4223633
vt 0.2832031 0.4101563
vt 0.2856445 0.3781738
vt 0.2697754 0.3789063
vt 0.293457 0.357666
vt 0.2817383 0.3469238
vt 0.3139648 0.3493652
vt 0.3132324 0.333252
vt 0.3344727 0.3571777
vt 0.3452148 0.345459
vt 0.3427734 0.3776855
vt 0.3586426 0.3769531
vt 0.3349609 0.3981934
vt 0.3464355 0.4089355
vt 0.3132324 0.4384766
vt 0.2705078 0.420166
vt 0.253418 0.3769531
vt 0.2717285 0.3342285
vt 0.3151855 0.3171387
vt 0.357666 0.3354492
vt 0.375 0.3786621
vt 0.3564453 0.4213867
vt 0.3261719 0.3720703
vt 0.3083496 0.3659668
vt 0.314209 0.3779297
vt 0.3022461 0.3837891
vt 0.3200684 0.3898926
vt 0.4470215 0.4243164
vt 0.4257813 0.4155273
vt 0.4472656 0.4458008
vt 0.4106445 0.4306641
vt 0.4169922 0.3942871
vt 0.3955078 0.3942871
vt 0.4257813 0.3728027
vt 0.4106445 0.3579102
vt 0.4470215 0.3642578
vt 0.4470215 0.3427734
vt 0.4685059 0.3730469
vt 0.4833984 0.357666
vt 0.4770508 0.3942871
vt 0.4985352 0.394043
vt 0.4682617 0.4155273
vt 0.4833984 0.4306641
vt 0.4470215 0.4689941
vt 0.394043 0.4470215
vt 0.3723145 0.394043
vt 0.394043 0.3413086
vt 0.4470215 0.3193359
vt 0.5 0.3413086
vt 0.5219727 0.3942871
vt 0.5 0.4472656
vt 0.4609375 0.3884277
vt 0.4411621 0.3803711
vt 0.4470215 0.3942871
vt 0.4331055 0.3999023
vt 0.4528809 0.407959

g Tree1_big_(2)_998_141
usemtl Tree1_big_(2)_998_141
usemap Tree1_big_(2)_998_141
f 1/1/1 3/3/3 2/2/2
f 2/2/2 3/3/3 4/4/4
f 2/2/2 4/4/4 5/5/5
f 5/5/5 4/4/4 6/6/6
f 5/5/5 6/6/6 7/7/7
f 7/7/7 6/6/6 8/8/8
f 7/7/7 8/8/8 9/9/9
f 9/9/9 8/8/8 10/10/10
f 9/9/9 10/10/10 11/11/11
f 11/11/11 10/10/10 12/12/12
f 11/11/11 12/12/12 13/13/13
f 13/13/13 12/12/12 14/14/14
f 13/13/13 14/14/14 15/15/15
f 15/15/15 14/14/14 16/16/16
f 15/15/15 16/16/16 1/1/1
f 1/1/1 16/16/16 3/3/3
f 3/3/3 17/17/17 4/4/4
f 4/4/4 17/17/17 18/18/18
f 4/4/4 18/18/18 6/6/6
f 6/6/6 18/18/18 19/19/19
f 6/6/6 19/19/19 8/8/8
f 8/8/8 19/19/19 20/20/20
f 8/8/8 20/20/20 10/10/10
f 10/10/10 20/20/20 21/21/21
f 10/10/10 21/21/21 12/12/12
f 12/12/12 21/21/21 22/22/22
f 12/12/12 22/22/22 14/14/14
f 14/14/14 22/22/22 23/23/23
f 14/14/14 23/23/23 16/16/16
f 16/16/16 23/23/23 24/24/24
f 16/16/16 24/24/24 3/3/3
f 3/3/3 24/24/24 17/17/17
f 11/11/11 13/13/13 25/25/25
f 13/13/13 15/15/15 25/25/25
f 26/26/26 11/11/11 25/25/25
f 26/26/26 25/25/25 27/27/27
f 28/28/28 26/26/26 27/27/27
f 29/29/29 28/28/28 27/27/27
f 25/25/25 29/29/29 27/27/27
f 29/29/29 2/2/2 28/28/28
f 1/1/1 2/2/2 29/29/29
f 15/15/15 1/1/1 29/29/29
f 25/25/25 15/15/15 29/29/29
f 2/2/2 5/5/5 28/28/28
f 5/5/5 7/7/7 28/28/28
f 28/28/28 7/7/7 26/26/26
f 7/7/7 9/9/9 26/26/26
f 9/9/9 11/11/11 26/26/26
f 30/30/30 32/32/32 31/31/31
f 31/31/31 32/32/32 33/33/33
f 31/31/31 33/33/33 34/34/34
f 34/34/34 33/33/33 35/35/35
f 34/34/34 35/35/35 36/36/36
f 36/36/36 35/35/35 37/37/37
f 36/36/36 37/37/37 38/38/38
f 38/38/38 37/37/37 39/39/39
f 38/38/38 39/39/39 40/40/40
f 40/40/40 39/39/39 41/41/41
f 40/40/40 41/41/41 42/42/42
f 42/42/42 41/41/41 43/43/43
f 42/42/42 43/43/43 44/44/44
f 44/44/44 43/43/43 45/45/45
f 44/44/44 45/45/45 30/30/30
f 30/30/30 45/45/45 32/32/32
f 32/32/32 46/46/46 33/33/33
f 33/33/33 46/46/46 47/47/47
f 33/33/33 47/47/47 35/35/35
f 35/35/35 47/47/47 48/48/48
f 35/35/35 48/48/48 37/37/37
f 37/37/37 48/48/48 49/49/49
f 37/37/37 49/49/49 39/39/39
f 39/39/39 49/49/49 50/50/50
f 39/39/39 50/50/50 41/41/41
f 41/41/41 50/50/50 51/51/51
f 41/41/41 51/51/51 43/43/43
f 43/43/43 51/51/51 52/52/52
f 43/43/43 52/52/52 45/45/45
f 45/45/45 52/52/52 53/53/53
f 45/45/45 53/53/53 32/32/32
f 32/32/32 53/53/53 46/46/46
f 40/40/40 42/42/42 54/54/54
f 42/42/42 44/44/44 54/54/54
f 55/55/55 40/40/40 54/54/54
f 55/55/55 54/54/54 56/56/56
f 57/57/57 55/55/55 56/56/56
f 58/58/58 57/57/57 56/56/56
f 54/54/54 58/58/58 56/56/56
f 58/58/58 31/31/31 57/57/57
f 30/30/30 31/31/31 58/58/58
f 44/44/44 30/30/30 58/58/58
f 54/54/54 44/44/44 58/58/58
f 31/31/31 34/34/34 57/57/57
f 34/34/34 36/36/36 57/57/57
f 57/57/57 36/36/36 55/55/55
f 36/36/36 38/38/38 55/55/55
f 38/38/38 40/40/40 55/55/55
f 59/59/59 61/61/61 60/60/60
f 60/60/60 61/61/61 62/62/62
f 60/60/60 62/62/62 63/63/63
f 63/63/63 62/62/62 64/64/64
f 63/63/63 64/64/64 65/65/65
f 65/65/65 64/64/64 66/66/66
f 65/65/65 66/66/66 67/67/67
f 67/67/67 66/66/66 68/68/68
f 67/67/67 68/68/68 69/69/69
f 69/69/69 68/68/68 70/70/70
f 69/69/69 70/70/70 71/71/71
f 71/71/71 70/70/70 72/72/72
f 71/71/71 72/72/72 73/73/73
f 73/73/73 72/72/72 74/74/74
f 73/73/73 74/74/74 59/59/59
f 59/59/59 74/74/74 61/61/61
f 61/61/61 75/75/75 62/62/62
f 62/62/62 75/75/75 76/76/76
f 62/62/62 76/76/76 64/64/64
f 64/64/64 76/76/76 77/77/77
f 64/64/64 77/77/77 66/66/66
f 66/66/66 77/77/77 78/78/78
f 66/66/66 78/78/78 68/68/68
f 68/68/68 78/78/78 79/79/79
f 68/68/68 79/79/79 70/70/70
f 70/70/70 79/79/79 80/80/80
f 70/70/70 80/80/80 72/72/72
f 72/72/72 80/80/80 81/81/81
f 72/72/72 81/81/81 74/74/74
f 74/74/74 81/81/81 82/82/82
f 74/74/74 82/82/82 61/61/61
f 61/61/61 82/82/82 75/75/75
f 69/69/69 71/71/71 83/83/83
f 71/71/71 73/73/73 83/83/83
f 84/84/84 69/69/69 83/83/83
f 84/84/84 83/83/83 85/85/85
f 86/86/86 84/84/84 85/85/85
f 87/87/87 86/86/86 85/85/85
f 83/83/83 87/87/87 85/85/85
f 87/87/87 60/60/60 86/86/86
f 59/59/59 60/60/60 87/87/87
f 73/73/73 59/59/59 87/87/87
f 83/83/83 73/73/73 87/87/87
f 60/60/60 63/63/63 86/86/86
f 63/63/63 65/65/65 86/86/86
f 86/86/86 65/65/65 84/84/84
f 65/65/65 67/67/67 84/84/84
f 67/67/67 69/69/69 84/84/84
