#Tree3_1269_266.obj

v 0.8980942 -0.2467098 0.2916012
v 0.5627136 1.493185 0.4763365
v 0.3880882 1.493185 0.08865738
v 0.6446228 -0.2467098 -0.1738405
v 0.2988243 -0.2467098 -0.2453794
v -0.0335083 1.493185 -0.07192516
v -0.04980087 0.9535935 -0.1633215
v 0.4182129 1.112749 0.8406219
v 0.3880882 1.493185 0.8640118
v 0.2328224 -0.2360249 0.822773
v -0.0335083 1.493185 1.024593
v -0.08604813 -0.2467098 0.949831
v -0.3927078 3.338958 -0.07598209
v -0.282505 3.369289 0.2992973
v -0.6720314 3.252133 -0.2578878
v -0.3927078 3.338958 0.6745768
v -0.6720314 3.252133 0.8564796
v -0.4551048 1.493185 0.8640118
v -0.9610672 3.155363 0.693285
v -0.629734 1.493185 0.4763365
v -1.080788 3.11528 0.4763365
v -0.4551048 1.493185 0.08865738
v -0.7989349 -0.2467098 -0.1738405
v -0.5550194 -0.2467098 -0.2188835
v -0.04980087 0.9535935 -0.1633215
v -0.0335083 1.493185 -0.07192516
v -0.9514656 -0.2467098 0.2916012
v -0.9610672 3.155363 -0.09469128
v -0.6720314 3.252133 -0.2578878
v -0.9104424 6.154762 0.1526995
v -0.6790504 6.154762 0.1140661
v -1.015423 6.154762 0.4641733
v -0.9104424 6.154762 0.6148453
v -0.6790504 6.154762 0.7348061
v -0.4742317 6.154762 0.6568289
v -0.396183 6.154762 0.4611778
v -0.4742317 6.154762 0.2476254
v -0.6790504 6.154762 0.1140661
v -0.7402954 -0.2467098 0.5776014
v -0.5274124 0.9751863 0.8321648
v -0.7940712 -0.4677124 1.26951
v -0.365284 -0.2467098 0.8304157
v -0.7940712 -0.4677124 1.26951
v -0.5274124 0.9751863 0.8321648
v -0.08604813 -0.2467098 -0.9542065
v -0.08604813 -0.2467098 -0.9542065
v 1.052338 -0.5420864 1.041769
v 1.052338 -0.5420864 1.041769
v 0.3649864 0.9880412 0.2978563
v 0.8266029 1.692036 0.5149956
v 0.7412949 1.647383 0.3210487
v 0.2852592 1.035575 0.07437229
v 0.5962486 1.812386 0.2134466
v 0.09975433 1.159606 -0.01835537
v 0.3977776 1.887208 0.3212328
v -0.08286667 1.287479 0.07398891
v 0.4349594 1.966669 0.5139685
v -0.1556206 1.344287 0.2973118
v 0.3783836 1.883636 0.6549177
v -0.07589722 1.296754 0.5207958
v 0.5956078 1.668309 0.7647381
v 0.1096001 1.172722 0.6135254
v 0.7720909 1.6095 0.6538057
v 0.2922287 1.044849 0.5211802
v 0.8266029 1.692036 0.5149956
v 0.3649864 0.9880412 0.2978563
v 1.656429 2.454257 0.1529112
v 1.468845 2.584558 0.2474413
v 1.393528 2.641651 0.4760513
v 1.474613 2.592094 0.704834
v 1.664577 2.464917 0.7997608
v 1.852161 2.334618 0.7052298
v 1.927471 2.277522 0.4766188
v 1.94949 3.38979 0.4636135
v 2.120274 3.410829 0.4620104
v 1.846397 2.327078 0.247839
v 1.927471 2.277522 0.4766188
v 2.290672 3.447176 0.5720892
v 2.367409 3.477539 0.7393112
v 1.945511 3.508565 0.6701336
v 2.014069 3.510238 0.8324566
v 2.148346 3.463095 0.9026108
v 2.309746 3.484134 0.8772564
v 2.367409 3.477539 0.7393112

vn 0.9929395 0.115254 -0.02806601
vn 0.9915838 0.126627 0.02696599
vn 0.6973661 0.09115901 -0.7108942
vn 0.6424422 0.164291 -0.7485161
vn 0.6099829 0.237761 -0.7559039
vn -0.001002 0.04265301 -0.9990895
vn 0.017306 0.324559 -0.9457071
vn 0.5980041 0.05652802 0.7994972
vn 0.6884832 0.08713903 0.7199983
vn 0.1616429 -0.03089199 0.9863657
vn 0.040334 0.03889001 0.9984291
vn -0.006314001 -0.03331299 0.999425
vn 0.709532 0.047315 -0.703083
vn 0.9937516 0.1062549 -0.03417098
vn 0.07905303 0.06419402 -0.9948013
vn 0.7416818 0.07829998 0.666166
vn -0.007586001 -0.012572 0.9998922
vn -0.6327342 0.03390702 0.7736264
vn -0.6885497 -0.04222897 0.7239586
vn -0.9959517 0.06695198 0.05998098
vn -0.9942289 0.030462 0.102864
vn -0.7009459 0.06118899 -0.7105849
vn -0.6455361 0.2019731 -0.7365392
vn -0.5744283 0.2847561 -0.7674282
vn 0.017306 0.324559 -0.9457071
vn -0.001002 0.04265301 -0.9990895
vn -0.9844401 0.173637 -0.026977
vn -0.6463799 0.121351 -0.753304
vn 0.07905303 0.06419402 -0.9948013
vn -0.6591269 0.2468529 -0.7103629
vn 0.237198 0.2529961 -0.9379393
vn -0.9788612 0.06183 0.1949561
vn -0.6389951 -0.07486501 0.765559
vn -0.06068499 -0.116526 0.9913319
vn 0.6780022 -0.06800602 0.7319072
vn 0.997654 0.042641 0.05355599
vn 0.802715 0.154694 -0.57595
vn 0.237198 0.2529961 -0.9379393
vn -0.9313074 0.106873 0.3482021
vn -0.5537537 0.08505797 0.8283247
vn -0.6821411 0.051948 0.729373
vn 0.115235 0.022652 0.9930799
vn -0.6821411 0.051948 0.729373
vn -0.5537537 0.08505797 0.8283247
vn -0.005751002 0.176202 -0.9843372
vn -0.005751002 0.176202 -0.9843372
vn 0.6754212 0.009463004 0.7373714
vn 0.6754212 0.009463004 0.7373714
vn 0.8293071 -0.5490681 -0.103797
vn 0.6207192 -0.7834702 -0.0297
vn 0.5955119 -0.4675329 -0.6532829
vn 0.6803712 -0.232616 -0.6949711
vn 0.022058 0.14151 -0.9896911
vn 0.152667 0.251613 -0.9557111
vn -0.4895219 0.6481669 -0.5833078
vn -0.4355789 0.6197538 -0.6528218
vn -0.6344126 0.7724905 0.02790898
vn -0.7363443 0.6739743 -0.05963002
vn -0.569568 0.479693 0.667448
vn -0.668103 0.410288 0.6207271
vn -0.04284502 -0.121057 0.9917204
vn -0.10848 -0.17088 0.9793019
vn 0.5012919 -0.6206129 0.6029478
vn 0.5606411 -0.5936821 0.577255
vn 0.6207192 -0.7834702 -0.0297
vn 0.8293071 -0.5490681 -0.103797
vn 0.15877 0.218502 -0.9628339
vn -0.3058359 0.6673079 -0.6790909
vn -0.6427991 0.7606009 -0.09108
vn -0.6617193 0.2733921 0.6981292
vn -0.09419003 -0.3617901 0.9274892
vn 0.5029488 -0.6864228 0.5252299
vn 0.7744331 -0.624091 -0.103749
vn -0.3058871 0.7714701 -0.557913
vn 0.3673139 0.5219939 -0.769807
vn 0.6468171 -0.3145871 -0.6947392
vn 0.7744331 -0.624091 -0.103749
vn 0.8694703 -0.001752001 -0.4939821
vn 0.8511692 -0.4938701 0.1777731
vn -0.9105108 0.3227668 0.2584409
vn -0.6938308 -0.1897499 0.6946896
vn -0.164191 -0.539331 0.8259319
vn 0.4437619 -0.6452188 0.6219068
vn 0.8511692 -0.4938701 0.1777731

vt 0.126709 0.3288574
vt 0.1293945 0.3742676
vt 0.1407471 0.3754883
vt 0.1362305 0.3291016
vt 0.1413574 0.3303223
vt 0.1525879 0.3789063
vt 0.15271 0.3623047
vt 0.1174927 0.3647461
vt 0.118103 0.3754883
vt 0.1054077 0.3300781
vt 0.1060181 0.3786621
vt 0.1013794 0.3305664
vt 0.149292 0.4240723
vt 0.1358643 0.4257813
vt 0.15979 0.4228516
vt 0.121521 0.4277344
vt 0.1089478 0.4287109
vt 0.09356689 0.3813477
vt 0.09710693 0.4299316
vt 0.08105469 0.3840332
vt 0.08880615 0.4311523
vt 0.06884766 0.3857422
vt 0.0670166 0.3334961
vt 0.06384277 0.3349609
vt 0.05545044 0.3713379
vt 0.05654907 0.3869629
vt 0.07647705 0.3317871
vt 0.07189941 0.435791
vt 0.0625 0.4394531
vt 0.074646 0.4926758
vt 0.06512451 0.4936523
vt 0.09069824 0.4914551
vt 0.1012573 0.4904785
vt 0.1171875 0.4887695
vt 0.1308594 0.4870605
vt 0.1435547 0.4853516
vt 0.1560059 0.4838867
vt 0.1673584 0.4829102
vt 0.08154297 0.3320313
vt 0.09130859 0.3662109
vt 0.0892334 0.3222656
vt 0.097229 0.3310547
vt 0.0892334 0.3222656
vt 0.09130859 0.3662109
vt 0.1542969 0.3291016
vt 0.04974365 0.3359375
vt 0.1149902 0.3195801
vt 0.1149902 0.3195801
vt 0.050354 0.3269043
vt 0.05477905 0.3681641
vt 0.06396484 0.3632813
vt 0.06066895 0.3205566
vt 0.07598877 0.3637695
vt 0.07141113 0.3161621
vt 0.08642578 0.3591309
vt 0.08282471 0.3151855
vt 0.09460449 0.3659668
vt 0.09399414 0.3178711
vt 0.1016846 0.3613281
vt 0.1053467 0.3225098
vt 0.1165771 0.3642578
vt 0.1170654 0.3259277
vt 0.1252441 0.3696289
vt 0.1287842 0.3276367
vt 0.131958 0.3745117
vt 0.1402588 0.3256836
vt 0.06628418 0.4277344
vt 0.07714844 0.4272461
vt 0.08837891 0.4291992
vt 0.09985352 0.4318848
vt 0.1115112 0.4338379
vt 0.1234131 0.4348145
vt 0.1357422 0.4345703
vt 0.0758667 0.472168
vt 0.06762695 0.4794922
vt 0.05535889 0.4287109
vt 0.04382324 0.4294434
vt 0.05892944 0.4885254
vt 0.05099487 0.494873
vt 0.08605957 0.4821777
vt 0.09484863 0.4853516
vt 0.1034546 0.4858398
vt 0.1099854 0.4914551
vt 0.1179199 0.4924316

g Tree3_1269_266
usemtl Tree3_1269_266
usemap Tree3_1269_266
f 1/1/1 3/3/3 2/2/2
f 1/1/1 4/4/4 3/3/3
f 5/5/5 3/3/3 4/4/4
f 3/3/3 5/5/5 6/6/6
f 6/6/6 5/5/5 7/7/7
f 8/8/8 1/1/1 2/2/2
f 8/8/8 2/2/2 9/9/9
f 9/9/9 10/10/10 8/8/8
f 10/10/10 9/9/9 11/11/11
f 10/10/10 11/11/11 12/12/12
f 2/2/2 3/3/3 13/13/13
f 2/2/2 13/13/13 14/14/14
f 9/9/9 2/2/2 14/14/14
f 3/3/3 15/15/15 13/13/13
f 3/3/3 6/6/6 15/15/15
f 11/11/11 9/9/9 16/16/16
f 9/9/9 14/14/14 16/16/16
f 11/11/11 16/16/16 17/17/17
f 18/18/18 11/11/11 17/17/17
f 18/18/18 12/12/12 11/11/11
f 18/18/18 17/17/17 19/19/19
f 20/20/20 18/18/18 19/19/19
f 20/20/20 19/19/19 21/21/21
f 22/22/22 20/20/20 21/21/21
f 23/23/23 20/20/20 22/22/22
f 22/22/22 24/24/24 23/23/23
f 22/22/22 25/25/25 24/24/24
f 25/25/25 22/22/22 26/26/26
f 23/23/23 27/27/27 20/20/20
f 26/26/26 22/22/22 28/28/28
f 22/22/22 21/21/21 28/28/28
f 26/26/26 28/28/28 29/29/29
f 29/29/29 28/28/28 30/30/30
f 29/29/29 30/30/30 31/31/31
f 28/28/28 32/32/32 30/30/30
f 28/28/28 21/21/21 32/32/32
f 21/21/21 33/33/33 32/32/32
f 21/21/21 19/19/19 33/33/33
f 19/19/19 34/34/34 33/33/33
f 19/19/19 17/17/17 34/34/34
f 17/17/17 35/35/35 34/34/34
f 17/17/17 16/16/16 35/35/35
f 16/16/16 36/36/36 35/35/35
f 16/16/16 14/14/14 36/36/36
f 14/14/14 37/37/37 36/36/36
f 14/14/14 13/13/13 37/37/37
f 13/13/13 38/38/38 37/37/37
f 13/13/13 15/15/15 38/38/38
f 39/39/39 41/41/41 40/40/40
f 40/40/40 27/27/27 39/39/39
f 27/27/27 40/40/40 20/20/20
f 20/20/20 40/40/40 18/18/18
f 42/42/42 18/18/18 40/40/40
f 12/12/12 18/18/18 42/42/42
f 43/43/43 42/42/42 44/44/44
f 5/5/5 45/45/45 7/7/7
f 46/46/46 24/24/24 25/25/25
f 10/10/10 47/47/47 8/8/8
f 48/48/48 1/1/1 8/8/8
f 49/49/49 51/51/51 50/50/50
f 49/49/49 52/52/52 51/51/51
f 52/52/52 53/53/53 51/51/51
f 52/52/52 54/54/54 53/53/53
f 54/54/54 55/55/55 53/53/53
f 54/54/54 56/56/56 55/55/55
f 56/56/56 57/57/57 55/55/55
f 56/56/56 58/58/58 57/57/57
f 58/58/58 59/59/59 57/57/57
f 58/58/58 60/60/60 59/59/59
f 60/60/60 61/61/61 59/59/59
f 60/60/60 62/62/62 61/61/61
f 62/62/62 63/63/63 61/61/61
f 62/62/62 64/64/64 63/63/63
f 64/64/64 65/65/65 63/63/63
f 64/64/64 66/66/66 65/65/65
f 51/51/51 53/53/53 67/67/67
f 53/53/53 68/68/68 67/67/67
f 53/53/53 55/55/55 68/68/68
f 55/55/55 69/69/69 68/68/68
f 55/55/55 57/57/57 69/69/69
f 57/57/57 70/70/70 69/69/69
f 57/57/57 59/59/59 70/70/70
f 59/59/59 71/71/71 70/70/70
f 59/59/59 61/61/61 71/71/71
f 61/61/61 72/72/72 71/71/71
f 61/61/61 63/63/63 72/72/72
f 63/63/63 73/73/73 72/72/72
f 63/63/63 65/65/65 73/73/73
f 67/67/67 68/68/68 74/74/74
f 67/67/67 74/74/74 75/75/75
f 76/76/76 67/67/67 75/75/75
f 51/51/51 67/67/67 76/76/76
f 50/50/50 51/51/51 76/76/76
f 50/50/50 76/76/76 77/77/77
f 77/77/77 76/76/76 78/78/78
f 76/76/76 75/75/75 78/78/78
f 77/77/77 78/78/78 79/79/79
f 68/68/68 80/80/80 74/74/74
f 68/68/68 69/69/69 80/80/80
f 69/69/69 81/81/81 80/80/80
f 69/69/69 70/70/70 81/81/81
f 70/70/70 82/82/82 81/81/81
f 70/70/70 71/71/71 82/82/82
f 71/71/71 83/83/83 82/82/82
f 71/71/71 72/72/72 83/83/83
f 72/72/72 84/84/84 83/83/83
f 72/72/72 73/73/73 84/84/84
