#Tree3_1320_226.obj

v 0.8980939 -0.2467098 0.2916017
v 0.5627139 1.493185 0.476336
v 0.3880885 1.493185 0.08865688
v 0.644623 -0.2467098 -0.1738407
v 0.2988243 -0.2467098 -0.2453793
v -0.03350845 1.493185 -0.07192484
v -0.0498013 0.9535935 -0.1633207
v 0.4182127 1.112749 0.8406222
v 0.3880882 1.493185 0.8640118
v 0.2328219 -0.2360249 0.8227737
v -0.03350858 1.493185 1.024594
v -0.08604796 -0.2467098 0.9498304
v -0.3927079 3.338958 -0.07598192
v -0.2825055 3.369289 0.299298
v -0.6720311 3.252133 -0.2578884
v -0.3927079 3.338958 0.6745768
v -0.6720312 3.252133 0.8564791
v -0.4551052 1.493185 0.8640121
v -0.9610669 3.155363 0.6932843
v -0.6297337 1.493185 0.4763357
v -1.080788 3.11528 0.4763367
v -0.4551048 1.493185 0.08865722
v -0.7989347 -0.2467098 -0.173841
v -0.5550194 -0.2467098 -0.2188835
v -0.0498013 0.9535935 -0.1633207
v -0.03350845 1.493185 -0.07192484
v -0.9514661 -0.2467098 0.2916019
v -0.9610668 3.155363 -0.09469199
v -0.6720311 3.252133 -0.2578884
v -0.9104424 6.154762 0.1526995
v -0.6790507 6.154762 0.1140667
v -1.015423 6.154762 0.4641739
v -0.9104423 6.154762 0.6148449
v -0.6790505 6.154762 0.734806
v -0.4742317 6.154762 0.6568286
v -0.396183 6.154762 0.4611778
v -0.4742315 6.154762 0.2476248
v -0.6790507 6.154762 0.1140667
v -0.7402952 -0.2467098 0.577601
v -0.5274121 0.9751863 0.8321639
v -0.7940709 -0.4677124 1.269509
v -0.3652843 -0.2467098 0.8304163
v -0.7940709 -0.4677124 1.269509
v -0.5274121 0.9751863 0.8321639
v -0.0860486 -0.2467098 -0.9542054
v -0.0860486 -0.2467098 -0.9542054
v 1.052338 -0.5420864 1.041769
v 1.052338 -0.5420864 1.041769
v 0.3649868 0.9880412 0.2978555
v 0.8266025 1.692036 0.5149963
v 0.741295 1.647383 0.3210485
v 0.2852597 1.035575 0.0743716
v 0.5962484 1.812386 0.2134469
v 0.09975421 1.159606 -0.01835519
v 0.3977777 1.887208 0.3212326
v -0.08286656 1.287479 0.07398868
v 0.4349597 1.966669 0.5139679
v -0.1556208 1.344287 0.2973121
v 0.3783832 1.883636 0.6549184
v -0.07589746 1.296754 0.5207962
v 0.595608 1.668309 0.7647375
v 0.1096 1.172722 0.6135252
v 0.7720906 1.6095 0.6538064
v 0.2922282 1.044849 0.5211809
v 0.8266025 1.692036 0.5149963
v 0.3649868 0.9880412 0.2978555
v 1.65643 2.454257 0.1529109
v 1.468845 2.584558 0.2474419
v 1.393528 2.641651 0.4760509
v 1.474613 2.592094 0.7048342
v 1.664577 2.464917 0.7997608
v 1.852161 2.334618 0.7052296
v 1.927471 2.277522 0.4766191
v 1.949489 3.38979 0.4636143
v 2.120273 3.410829 0.4620111
v 1.846397 2.327078 0.2478394
v 1.927471 2.277522 0.4766191
v 2.290672 3.447176 0.5720896
v 2.367408 3.477539 0.7393121
v 1.945511 3.508565 0.6701338
v 2.014068 3.510238 0.8324571
v 2.148346 3.463095 0.9026102
v 2.309746 3.484134 0.8772566
v 2.367408 3.477539 0.7393121

vn 0.8658134 0.115254 -0.4869124
vn 0.890223 0.126627 -0.4375713
vn 0.2864362 0.09115901 -0.9537528
vn 0.2203141 0.164291 -0.9614937
vn 0.1881458 0.237761 -0.9529276
vn -0.4658193 0.04265301 -0.8838513
vn -0.4247727 0.324559 -0.8451211
vn 0.9013585 0.05652802 0.4293689
vn 0.9444484 0.08713903 0.3168975
vn 0.6020852 -0.03089199 0.797834
vn 0.5003257 0.03889001 0.8649635
vn 0.4594998 -0.03331299 0.8875529
vn 0.3008395 0.047315 -0.9525003
vn 0.8636913 0.1062549 -0.4926939
vn -0.3929652 0.06419402 -0.9173099
vn 0.9664844 0.07829998 0.2444931
vn 0.4585914 -0.012572 0.8885583
vn -0.2000362 0.03390702 0.9792017
vn -0.272553 -0.04222897 0.9612136
vn -0.8536277 0.06695198 0.5165628
vn -0.8321471 0.030462 0.5537179
vn -0.9510987 0.06118899 -0.302766
vn -0.9141322 0.2019731 -0.351524
vn -0.8655673 0.2847561 -0.4119551
vn -0.4247727 0.324559 -0.8451211
vn -0.4658193 0.04265301 -0.8838513
vn -0.8839051 0.173637 0.4342373
vn -0.9226807 0.121351 -0.3659703
vn -0.3929652 0.06419402 -0.9173099
vn -0.9139804 0.2468529 -0.3220302
vn -0.2265262 0.2529961 -0.9405737
vn -0.7756891 0.06183 0.6280792
vn -0.209332 -0.07486501 0.9749745
vn 0.4076087 -0.116526 0.9056914
vn 0.9407132 -0.06800602 0.3323159
vn 0.9079697 0.042641 -0.4168607
vn 0.4424801 0.154694 -0.8833352
vn -0.2265262 0.2529961 -0.9405737
vn -0.6622841 0.106873 0.7415915
vn -0.1046745 0.08505797 0.9908624
vn -0.264361 0.051948 0.9630237
vn 0.564133 0.022652 0.8253731
vn -0.264361 0.051948 0.9630237
vn -0.1046745 0.08505797 0.9908624
vn -0.4631577 0.176202 -0.8685838
vn -0.4631577 0.176202 -0.8685838
vn 0.9409715 0.009463004 0.3383534
vn 0.9409715 0.009463004 0.3383534
vn 0.6857367 -0.5490681 -0.4777963
vn 0.5355921 -0.7834702 -0.3151436
vn 0.2230924 -0.4675329 -0.8553612
vn 0.2788035 -0.232616 -0.9317501
vn -0.4410347 0.14151 -0.8862637
vn -0.3096168 0.251613 -0.9169669
vn -0.7047331 0.6481669 -0.2884975
vn -0.6893357 0.6197538 -0.3751287
vn -0.548546 0.7724905 0.3199307
vn -0.6795049 0.6739743 0.2898824
vn -0.1935371 0.479693 0.855826
vn -0.3024946 0.410288 0.8603259
vn 0.4235801 -0.121057 0.8977333
vn 0.3597059 -0.17088 0.917285
vn 0.7242907 -0.6206129 0.3004041
vn 0.7648658 -0.5936821 0.2500443
vn 0.5355921 -0.7834702 -0.3151436
vn 0.6857367 -0.5490681 -0.4777963
vn -0.3075296 0.218502 -0.9261116
vn -0.5867217 0.6673079 -0.4587567
vn -0.6113412 0.7606009 0.2185134
vn -0.2608247 0.2733921 0.9258657
vn 0.3482429 -0.3617901 0.8647744
vn 0.6895908 -0.6864228 0.2308431
vn 0.6371887 -0.624091 -0.4522179
vn -0.5303761 0.7714701 -0.3514755
vn -0.03311616 0.5219939 -0.8523061
vn 0.249212 -0.3145871 -0.9159303
vn 0.6371887 -0.624091 -0.4522179
vn 0.5397111 -0.001752001 -0.8418485
vn 0.8361177 -0.4938701 -0.2387457
vn -0.6856475 0.3227668 0.6524639
vn -0.2908479 -0.1897499 0.9377645
vn 0.2390232 -0.539331 0.8074591
vn 0.6821923 -0.6452188 0.3439571
vn 0.8361177 -0.4938701 -0.2387457

vt 0.126709 0.3288574
vt 0.1293945 0.3742676
vt 0.1407471 0.3754883
vt 0.1362305 0.3291016
vt 0.1413574 0.3303223
vt 0.1525879 0.3789063
vt 0.15271 0.3623047
vt 0.1174927 0.3647461
vt 0.118103 0.3754883
vt 0.1054077 0.3300781
vt 0.1060181 0.3786621
vt 0.1013794 0.3305664
vt 0.149292 0.4240723
vt 0.1358643 0.4257813
vt 0.15979 0.4228516
vt 0.121521 0.4277344
vt 0.1089478 0.4287109
vt 0.09356689 0.3813477
vt 0.09710693 0.4299316
vt 0.08105469 0.3840332
vt 0.08880615 0.4311523
vt 0.06884766 0.3857422
vt 0.0670166 0.3334961
vt 0.06384277 0.3349609
vt 0.05545044 0.3713379
vt 0.05654907 0.3869629
vt 0.07647705 0.3317871
vt 0.07189941 0.435791
vt 0.0625 0.4394531
vt 0.074646 0.4926758
vt 0.06512451 0.4936523
vt 0.09069824 0.4914551
vt 0.1012573 0.4904785
vt 0.1171875 0.4887695
vt 0.1308594 0.4870605
vt 0.1435547 0.4853516
vt 0.1560059 0.4838867
vt 0.1673584 0.4829102
vt 0.08154297 0.3320313
vt 0.09130859 0.3662109
vt 0.0892334 0.3222656
vt 0.097229 0.3310547
vt 0.0892334 0.3222656
vt 0.09130859 0.3662109
vt 0.1542969 0.3291016
vt 0.04974365 0.3359375
vt 0.1149902 0.3195801
vt 0.1149902 0.3195801
vt 0.050354 0.3269043
vt 0.05477905 0.3681641
vt 0.06396484 0.3632813
vt 0.06066895 0.3205566
vt 0.07598877 0.3637695
vt 0.07141113 0.3161621
vt 0.08642578 0.3591309
vt 0.08282471 0.3151855
vt 0.09460449 0.3659668
vt 0.09399414 0.3178711
vt 0.1016846 0.3613281
vt 0.1053467 0.3225098
vt 0.1165771 0.3642578
vt 0.1170654 0.3259277
vt 0.1252441 0.3696289
vt 0.1287842 0.3276367
vt 0.131958 0.3745117
vt 0.1402588 0.3256836
vt 0.06628418 0.4277344
vt 0.07714844 0.4272461
vt 0.08837891 0.4291992
vt 0.09985352 0.4318848
vt 0.1115112 0.4338379
vt 0.1234131 0.4348145
vt 0.1357422 0.4345703
vt 0.0758667 0.472168
vt 0.06762695 0.4794922
vt 0.05535889 0.4287109
vt 0.04382324 0.4294434
vt 0.05892944 0.4885254
vt 0.05099487 0.494873
vt 0.08605957 0.4821777
vt 0.09484863 0.4853516
vt 0.1034546 0.4858398
vt 0.1099854 0.4914551
vt 0.1179199 0.4924316

g Tree3_1320_226
usemtl Tree3_1320_226
usemap Tree3_1320_226
f 1/1/1 3/3/3 2/2/2
f 1/1/1 4/4/4 3/3/3
f 5/5/5 3/3/3 4/4/4
f 3/3/3 5/5/5 6/6/6
f 6/6/6 5/5/5 7/7/7
f 8/8/8 1/1/1 2/2/2
f 8/8/8 2/2/2 9/9/9
f 9/9/9 10/10/10 8/8/8
f 10/10/10 9/9/9 11/11/11
f 10/10/10 11/11/11 12/12/12
f 2/2/2 3/3/3 13/13/13
f 2/2/2 13/13/13 14/14/14
f 9/9/9 2/2/2 14/14/14
f 3/3/3 15/15/15 13/13/13
f 3/3/3 6/6/6 15/15/15
f 11/11/11 9/9/9 16/16/16
f 9/9/9 14/14/14 16/16/16
f 11/11/11 16/16/16 17/17/17
f 18/18/18 11/11/11 17/17/17
f 18/18/18 12/12/12 11/11/11
f 18/18/18 17/17/17 19/19/19
f 20/20/20 18/18/18 19/19/19
f 20/20/20 19/19/19 21/21/21
f 22/22/22 20/20/20 21/21/21
f 23/23/23 20/20/20 22/22/22
f 22/22/22 24/24/24 23/23/23
f 22/22/22 25/25/25 24/24/24
f 25/25/25 22/22/22 26/26/26
f 23/23/23 27/27/27 20/20/20
f 26/26/26 22/22/22 28/28/28
f 22/22/22 21/21/21 28/28/28
f 26/26/26 28/28/28 29/29/29
f 29/29/29 28/28/28 30/30/30
f 29/29/29 30/30/30 31/31/31
f 28/28/28 32/32/32 30/30/30
f 28/28/28 21/21/21 32/32/32
f 21/21/21 33/33/33 32/32/32
f 21/21/21 19/19/19 33/33/33
f 19/19/19 34/34/34 33/33/33
f 19/19/19 17/17/17 34/34/34
f 17/17/17 35/35/35 34/34/34
f 17/17/17 16/16/16 35/35/35
f 16/16/16 36/36/36 35/35/35
f 16/16/16 14/14/14 36/36/36
f 14/14/14 37/37/37 36/36/36
f 14/14/14 13/13/13 37/37/37
f 13/13/13 38/38/38 37/37/37
f 13/13/13 15/15/15 38/38/38
f 39/39/39 41/41/41 40/40/40
f 40/40/40 27/27/27 39/39/39
f 27/27/27 40/40/40 20/20/20
f 20/20/20 40/40/40 18/18/18
f 42/42/42 18/18/18 40/40/40
f 12/12/12 18/18/18 42/42/42
f 43/43/43 42/42/42 44/44/44
f 5/5/5 45/45/45 7/7/7
f 46/46/46 24/24/24 25/25/25
f 10/10/10 47/47/47 8/8/8
f 48/48/48 1/1/1 8/8/8
f 49/49/49 51/51/51 50/50/50
f 49/49/49 52/52/52 51/51/51
f 52/52/52 53/53/53 51/51/51
f 52/52/52 54/54/54 53/53/53
f 54/54/54 55/55/55 53/53/53
f 54/54/54 56/56/56 55/55/55
f 56/56/56 57/57/57 55/55/55
f 56/56/56 58/58/58 57/57/57
f 58/58/58 59/59/59 57/57/57
f 58/58/58 60/60/60 59/59/59
f 60/60/60 61/61/61 59/59/59
f 60/60/60 62/62/62 61/61/61
f 62/62/62 63/63/63 61/61/61
f 62/62/62 64/64/64 63/63/63
f 64/64/64 65/65/65 63/63/63
f 64/64/64 66/66/66 65/65/65
f 51/51/51 53/53/53 67/67/67
f 53/53/53 68/68/68 67/67/67
f 53/53/53 55/55/55 68/68/68
f 55/55/55 69/69/69 68/68/68
f 55/55/55 57/57/57 69/69/69
f 57/57/57 70/70/70 69/69/69
f 57/57/57 59/59/59 70/70/70
f 59/59/59 71/71/71 70/70/70
f 59/59/59 61/61/61 71/71/71
f 61/61/61 72/72/72 71/71/71
f 61/61/61 63/63/63 72/72/72
f 63/63/63 73/73/73 72/72/72
f 63/63/63 65/65/65 73/73/73
f 67/67/67 68/68/68 74/74/74
f 67/67/67 74/74/74 75/75/75
f 76/76/76 67/67/67 75/75/75
f 51/51/51 67/67/67 76/76/76
f 50/50/50 51/51/51 76/76/76
f 50/50/50 76/76/76 77/77/77
f 77/77/77 76/76/76 78/78/78
f 76/76/76 75/75/75 78/78/78
f 77/77/77 78/78/78 79/79/79
f 68/68/68 80/80/80 74/74/74
f 68/68/68 69/69/69 80/80/80
f 69/69/69 81/81/81 80/80/80
f 69/69/69 70/70/70 81/81/81
f 70/70/70 82/82/82 81/81/81
f 70/70/70 71/71/71 82/82/82
f 71/71/71 83/83/83 82/82/82
f 71/71/71 72/72/72 83/83/83
f 72/72/72 84/84/84 83/83/83
f 72/72/72 73/73/73 84/84/84
