#Tree_conf1_(14)_2674_141.obj

v 0.1324637 -0.04437639 0.02973968
v 0.05209689 0.3509289 0.0116973
v 0.03219705 0.3509289 -0.04954725
v 0.08187 -0.04437639 -0.125981
v -0.03219869 0.3509289 -0.04954748
v -0.08186978 -0.04437639 -0.1259825
v -0.05209785 0.3509289 0.01169697
v -0.1324649 -0.04437639 0.02973993
v -1.219982E-06 0.3509289 0.04954724
v 1.924593E-06 -0.04437639 0.1259819
v 0.05209689 0.3509289 0.0116973
v 0.1324637 -0.04437639 0.02973968
v -0.01651442 2.018247 -0.02541644
v 0.01651567 2.018247 -0.02541503
v 0.02672434 2.018247 0.005999991
v 0.02672434 2.018247 0.005999991
v -5.618654E-07 2.018247 0.02541472
v -0.0267227 2.018247 0.005999929

vn 0.949658 0.203269 0.2383935
vn 0.9637617 0.08719235 0.2521127
vn 0.5363977 0.0971316 -0.8383573
vn 0.5201411 0.2244588 -0.8240579
vn -0.6336042 0.09713166 -0.7675358
vn -0.6157408 0.224459 -0.7553021
vn -0.9263151 0.08719229 0.3665214
vn -0.9139695 0.203269 0.3512003
vn 0.06022102 0.0811393 0.9948818
vn 0.05932152 0.1898378 0.9800217
vn 0.9637617 0.08719235 0.2521127
vn 0.949658 0.203269 0.2383935
vn -0.6357552 0.01723529 -0.7716984
vn 0.5380306 0.01723531 -0.8427491
vn 0.9677374 0.01552718 0.251482
vn 0.9677374 0.01552718 0.251482
vn 0.06041391 0.01447243 0.9980685
vn -0.9303376 0.01552705 0.3663753

vt 0.4238281 0.003742218
vt 0.4238281 0.02593994
vt 0.4316406 0.02593994
vt 0.4316406 0.003742218
vt 0.4394531 0.02593994
vt 0.4394531 0.003740311
vt 0.4472656 0.02593994
vt 0.4472656 0.003740311
vt 0.4550781 0.02593994
vt 0.4550781 0.003740311
vt 0.4628906 0.02593994
vt 0.4628906 0.003738403
vt 0.4394531 0.1196289
vt 0.4318848 0.1196289
vt 0.4240723 0.1196289
vt 0.4628906 0.1195679
vt 0.4550781 0.1196289
vt 0.4472656 0.1196289

g Tree_conf1_(14)_2674_141
usemtl Tree_conf1_(14)_2674_141
usemap Tree_conf1_(14)_2674_141
f 1/1/1 3/3/3 2/2/2
f 1/1/1 4/4/4 3/3/3
f 4/4/4 5/5/5 3/3/3
f 4/4/4 6/6/6 5/5/5
f 6/6/6 7/7/7 5/5/5
f 6/6/6 8/8/8 7/7/7
f 8/8/8 9/9/9 7/7/7
f 8/8/8 10/10/10 9/9/9
f 10/10/10 11/11/11 9/9/9
f 10/10/10 12/12/12 11/11/11
f 3/3/3 5/5/5 13/13/13
f 3/3/3 13/13/13 14/14/14
f 2/2/2 3/3/3 14/14/14
f 2/2/2 14/14/14 15/15/15
f 9/9/9 11/11/11 16/16/16
f 9/9/9 16/16/16 17/17/17
f 7/7/7 9/9/9 17/17/17
f 7/7/7 17/17/17 18/18/18
f 5/5/5 18/18/18 13/13/13
f 5/5/5 7/7/7 18/18/18
