#Tree2_big_(9)_1162_247.obj

v 1.085375 1.8353 0.1018963
v 1.828989 3.285057 -0.43547
v 1.657782 3.24048 -0.8099284
v 0.573117 1.712282 -0.203618
v 0.8230923 2.073336 0.7482352
v 1.61718 3.449301 -0.1197558
v 0.5279827 2.223991 1.082601
v 1.490924 6.483141 -2.371642
v 1.634343 6.483141 -2.025398
v 1.490924 6.483141 -1.679149
v 1.117568 3.643358 -0.02470343
v 0.07051484 2.430738 0.9792635
v 0.61654 3.74066 -0.2479451
v -0.7117877 2.190363 0.4802483
v 0.4170777 3.739399 -0.4777517
v -0.5047581 2.073336 -0.01943788
v 0.659174 3.521427 -0.9725282
v -0.02434787 1.822065 -0.6696998
v 0.6550142 6.483141 -2.0254
v 0.7983994 6.483141 -2.371645
v 1.17785 3.333319 -1.04942
v -0.02434787 1.822065 -0.6696998
v 1.144666 6.483141 -2.51506
v 1.657782 3.24048 -0.8099284
v 0.573117 1.712282 -0.203618
v -0.02434787 1.822065 -0.6696998
v 1.490924 6.483141 -2.371642
v 0.7984015 6.483141 -1.679147
v 1.144663 6.483141 -1.535728
v -0.6627127 0.4609413 -0.1901386
v -0.937213 0.6592159 0.3560223
v -0.662711 0.9419289 0.902178
v 1.049536E-06 0.6592159 1.128402
v 0.6627299 0.6874599 -0.2806244
v -1.536342E-06 1.179359 -0.9688224
v 0.7855314 1.118179 0.7923632
v 1.172136 0.9419289 0.1845784
v 0.6627299 0.6874599 -0.2806244
v -1.308868 0.3112164 1.018577
v -0.8015128 0.213913 1.350032
v -0.03299178 -0.1508617 1.081444
v -0.712573 -0.1647091 1.216985
v -1.214447 -0.1905041 1.675444
v -1.00327 -0.4645939 1.611002
v -1.214447 -0.1905041 1.675444
v -1.44667 -0.7210388 2.137897
v 1.10022 0.3612061 1.013401
v 0.6174372 -0.2880173 1.314741
v 1.11886 -0.1508617 0.3236748
v 1.272436 -0.2880173 0.8165486
v 1.315943 -0.7212238 1.638915
v -1.308868 0.3112164 1.018577
v -1.214447 -0.1905041 1.675444
v -1.532232 -0.4784927 1.413656
v -1.44667 -0.7210388 2.137897
v -1.357499 -0.1863728 0.6181287
v -1.308868 0.3112164 1.018577
v -1.139289 -0.1508617 0.2399936
v -1.999272 -0.4909039 -0.4151788
v -1.999272 -0.4909039 -0.4151788
v 0.03727104 0.4335003 -0.9404943
v -0.8152661 -0.1508617 -0.3550032
v -0.5536 -0.3704395 -0.8861308
v 0.1056708 -0.8974133 -1.834898
v 0.3686331 -0.3704395 -0.8861315
v 0.7037161 -0.1508617 -0.4386877
v -1.536342E-06 1.179359 -0.9688224
v -1.999272 -0.4909039 -0.4151788
v 0.7037161 -0.1508617 -0.4386877
v 1.645308 -0.6928177 -0.2995049
v 1.645308 -0.6928177 -0.2995049
v -0.07676982 1.610033 0.09565085
v -0.8780551 2.196728 0.1129518
v -1.113254 1.986975 0.05151657
v -0.2607047 1.445997 0.04760416
v -0.4728092 1.378052 0.163596
v -0.02872334 1.774071 0.2795857
v -0.1447309 1.842016 0.4916718
v -1.026378 2.283609 0.3841376
v -0.3568052 1.774071 0.6076578
v -0.5407365 1.610035 0.5596124
v -1.261578 2.073856 0.3227061
v -0.5887866 1.445997 0.3756763
v -1.173369 2.542549 -0.7294974
v -0.98625 2.709425 -0.6806231
v -0.98625 2.709425 -0.6806231
v -1.59896 3.305382 -0.8973944
v -0.4728092 1.378052 0.163596
v -1.261578 2.073856 0.3227061
v -1.113254 1.986975 0.05151657
v -1.291377 2.611671 -0.5137455
v -1.173369 2.542549 -0.7294974
v -1.291377 2.611671 -0.5137455
v -1.699718 3.364405 -0.713171
v -1.59896 3.305382 -0.8973944
v -0.98625 2.709425 -0.6806231
v -1.439177 3.447874 -0.8556585
v -1.699718 3.364405 -0.713171
v -1.53993 3.506895 -0.6714376
v -1.104254 2.778547 -0.4648699
v -1.104254 2.778547 -0.4648699
v -1.53993 3.506895 -0.6714376
v -0.98625 2.709425 -0.6806231
v -1.261578 2.073856 0.3227061
v -1.104254 2.778547 -0.4648699
v -1.291377 2.611671 -0.5137455

vn 0.9132924 -0.3371709 -0.2285012
vn 0.8668545 -0.352839 -0.3522325
vn 0.3303591 -0.4416449 -0.8341538
vn 0.2135217 -0.246164 -0.9454162
vn 0.8522116 0.08349802 0.5164917
vn 0.9380456 0.134854 0.3191942
vn 0.3961252 0.2369131 0.8871061
vn 0.2921541 -0.251435 -0.9227277
vn 0.9046133 0.021219 -0.4257049
vn 0.9308381 0.274749 0.2409429
vn 0.5685385 0.44408 0.6925005
vn -0.2506643 0.3261311 0.9114856
vn -0.0750334 0.5701939 0.8180764
vn -0.8429649 0.352136 0.4067067
vn -0.8159739 0.3675431 0.4462048
vn -0.9389837 0.190888 -0.2861318
vn -0.9417244 -0.08098095 -0.3264926
vn -0.5743653 -0.143503 -0.8059227
vn -0.9501406 0.06846599 0.3042125
vn -0.8965434 -0.2562009 -0.361346
vn -0.4446307 -0.327403 -0.8337331
vn -0.5743653 -0.143503 -0.8059227
vn -0.4513358 -0.3512689 -0.8203086
vn 0.3303591 -0.4416449 -0.8341538
vn 0.2135217 -0.246164 -0.9454162
vn -0.5743653 -0.143503 -0.8059227
vn 0.2921541 -0.251435 -0.9227277
vn -0.2327956 0.475129 0.8485627
vn 0.5182688 0.4572679 0.7227057
vn -0.8238698 0.3460911 -0.4488425
vn -0.8371123 0.4522469 0.3077593
vn -0.2946359 0.4481292 0.8440201
vn 0.4071062 0.167681 0.8978572
vn 0.2801868 0.1959529 -0.9397328
vn -0.346239 0.2755259 -0.8967742
vn 0.8653738 0.208623 0.4556366
vn 0.9119369 0.221386 -0.3454842
vn 0.2801868 0.1959529 -0.9397328
vn -0.5879302 0.6389848 0.4960207
vn 0.4300711 0.3673829 0.8246628
vn 0.4415972 0.02434001 0.8968832
vn 0.3531557 -0.019511 0.9353611
vn 0.05673534 0.6323718 0.7725847
vn 0.3531557 -0.019511 0.9353611
vn 0.05673534 0.6323718 0.7725847
vn 0.1493753 0.676885 0.720773
vn 0.8043132 0.3803267 0.4565434
vn 0.3531557 -0.019511 0.9353611
vn 0.9982688 0.05863598 -0.004610747
vn 0.9040188 -0.016972 -0.4271557
vn 0.7659658 0.489 0.4173433
vn -0.5879302 0.6389848 0.4960207
vn 0.05673534 0.6323718 0.7725847
vn -0.9401345 0.173637 0.2932529
vn 0.1493753 0.676885 0.720773
vn -0.9401345 0.173637 0.2932529
vn -0.5879302 0.6389848 0.4960207
vn -0.8047456 0.2254061 0.5491601
vn -0.9401345 0.173637 0.2932529
vn -0.9401345 0.173637 0.2932529
vn -0.218674 0.4164998 -0.8824453
vn -0.6676466 0.274373 -0.6920748
vn -0.9136431 0.153429 -0.3764517
vn -0.1014256 0.5555828 -0.8252518
vn 0.2848521 0.01699201 -0.9584209
vn 0.1947489 0.1688749 -0.9662061
vn -0.346239 0.2755259 -0.8967742
vn -0.9401345 0.173637 0.2932529
vn 0.1947489 0.1688749 -0.9662061
vn 0.5566114 0.3062461 -0.7722675
vn 0.5566114 0.3062461 -0.7722675
vn 0.01712203 0.4029588 -0.9150579
vn 0.4177917 0.02636 -0.9081604
vn -0.2104796 -0.5568762 -0.8034844
vn -0.3438339 -0.1007939 -0.9336054
vn -0.6320941 -0.6331879 -0.4466878
vn 0.3291894 0.7606381 -0.5595213
vn 0.5100412 0.8510838 0.1245572
vn -0.002439827 0.539537 0.8419585
vn 0.3373291 0.4079698 0.8483924
vn -0.1181012 -0.2859819 0.9509293
vn -0.7760607 -0.4238028 0.4670344
vn -0.5344859 -0.7340966 0.4188402
vn -0.08368142 -0.5169717 -0.8519024
vn 0.494632 -0.117654 -0.8611021
vn 0.494632 -0.117654 -0.8611021
vn -0.3393734 -0.223248 -0.9137757
vn -0.6320941 -0.6331879 -0.4466878
vn -0.7760607 -0.4238028 0.4670344
vn -0.2104796 -0.5568762 -0.8034844
vn -0.9004995 -0.3610662 0.2423466
vn -0.08368142 -0.5169717 -0.8519024
vn -0.9004995 -0.3610662 0.2423466
vn -0.7757803 -0.425273 0.4661628
vn -0.3393734 -0.223248 -0.9137757
vn 0.494632 -0.117654 -0.8611021
vn 0.3316116 0.198859 -0.9222195
vn -0.7757803 -0.425273 0.4661628
vn 0.3185717 0.282481 0.9048296
vn 0.09577452 0.5991837 0.7948623
vn 0.09577452 0.5991837 0.7948623
vn 0.3185717 0.282481 0.9048296
vn 0.494632 -0.117654 -0.8611021
vn -0.7760607 -0.4238028 0.4670344
vn 0.09577452 0.5991837 0.7948623
vn -0.9004995 -0.3610662 0.2423466

vt 0.1541748 0.3811035
vt 0.1590576 0.4104004
vt 0.1722412 0.4101563
vt 0.1663818 0.376709
vt 0.1364746 0.3845215
vt 0.1468506 0.4121094
vt 0.126709 0.3862305
vt 0.1921387 0.473877
vt 0.1811523 0.4743652
vt 0.168335 0.4765625
vt 0.1317139 0.4157715
vt 0.1170654 0.3901367
vt 0.1200562 0.4199219
vt 0.1000366 0.3901367
vt 0.1082153 0.4238281
vt 0.09014893 0.3935547
vt 0.09667969 0.4287109
vt 0.0737915 0.3967285
vt 0.1230469 0.4912109
vt 0.1109619 0.4958496
vt 0.07879639 0.4335938
vt 0.0737915 0.3967285
vt 0.09790039 0.4995117
vt 0.06658936 0.4365234
vt 0.06036377 0.4016113
vt 0.0737915 0.3967285
vt 0.08673096 0.5014648
vt 0.1363525 0.4863281
vt 0.1523438 0.4812012
vt 0.07971191 0.3654785
vt 0.09265137 0.3664551
vt 0.1063843 0.3684082
vt 0.1200562 0.361084
vt 0.05514526 0.3876953
vt 0.06793213 0.3845215
vt 0.1364746 0.3662109
vt 0.1503906 0.3605957
vt 0.1633301 0.3591309
vt 0.1005859 0.3500977
vt 0.1080933 0.3491211
vt 0.1171875 0.3447266
vt 0.1099243 0.3425293
vt 0.1017456 0.3344727
vt 0.1046753 0.3322754
vt 0.1017456 0.3344727
vt 0.0958252 0.3178711
vt 0.1339111 0.3461914
vt 0.1220703 0.3371582
vt 0.1396484 0.333252
vt 0.1322021 0.3295898
vt 0.1195679 0.3183594
vt 0.1005859 0.3500977
vt 0.1017456 0.3344727
vt 0.09527588 0.3286133
vt 0.0958252 0.3178711
vt 0.09289551 0.3415527
vt 0.1005859 0.3500977
vt 0.08953857 0.3452148
vt 0.07525635 0.3251953
vt 0.07525635 0.3251953
vt 0.06292725 0.369873
vt 0.07281494 0.3515625
vt 0.06408691 0.3474121
vt 0.04751587 0.3354492
vt 0.05215454 0.3608398
vt 0.05004883 0.3742676
vt 0.06793213 0.3845215
vt 0.07525635 0.3251953
vt 0.163208 0.3413086
vt 0.1427002 0.314209
vt 0.1427002 0.314209
vt 0.1293945 0.354248
vt 0.1226807 0.392334
vt 0.1434326 0.3952637
vt 0.1375732 0.3566895
vt 0.1451416 0.3615723
vt 0.1209106 0.3537598
vt 0.1124878 0.3549805
vt 0.1031494 0.3913574
vt 0.1035767 0.3566895
vt 0.09338379 0.3581543
vt 0.08624268 0.3920898
vt 0.08288574 0.3581543
vt 0.1407471 0.4306641
vt 0.1242676 0.4301758
vt 0.1242676 0.4301758
vt 0.1412354 0.4660645
vt 0.07305908 0.3564453
vt 0.08624268 0.3920898
vt 0.07385254 0.3935547
vt 0.0859375 0.4306641
vt 0.07189941 0.4326172
vt 0.0859375 0.4306641
vt 0.08843994 0.4650879
vt 0.07489014 0.465332
vt 0.1242676 0.4301758
vt 0.1218262 0.4648438
vt 0.08843994 0.4650879
vt 0.1048584 0.465332
vt 0.1066284 0.4301758
vt 0.1066284 0.4301758
vt 0.1048584 0.465332
vt 0.1242676 0.4301758
vt 0.08624268 0.3920898
vt 0.1066284 0.4301758
vt 0.0859375 0.4306641

g Tree2_big_(9)_1162_247
usemtl Tree2_big_(9)_1162_247
usemap Tree2_big_(9)_1162_247
f 1/1/1 3/3/3 2/2/2
f 1/1/1 4/4/4 3/3/3
f 5/5/5 1/1/1 2/2/2
f 5/5/5 2/2/2 6/6/6
f 7/7/7 5/5/5 6/6/6
f 2/2/2 3/3/3 8/8/8
f 2/2/2 8/8/8 9/9/9
f 6/6/6 2/2/2 9/9/9
f 6/6/6 9/9/9 10/10/10
f 11/11/11 6/6/6 10/10/10
f 7/7/7 6/6/6 11/11/11
f 12/12/12 7/7/7 11/11/11
f 12/12/12 11/11/11 13/13/13
f 14/14/14 12/12/12 13/13/13
f 14/14/14 13/13/13 15/15/15
f 16/16/16 14/14/14 15/15/15
f 16/16/16 15/15/15 17/17/17
f 18/18/18 16/16/16 17/17/17
f 17/17/17 15/15/15 19/19/19
f 17/17/17 19/19/19 20/20/20
f 21/21/21 17/17/17 20/20/20
f 22/22/22 17/17/17 21/21/21
f 21/21/21 20/20/20 23/23/23
f 24/24/24 21/21/21 23/23/23
f 25/25/25 21/21/21 24/24/24
f 25/25/25 26/26/26 21/21/21
f 24/24/24 23/23/23 27/27/27
f 15/15/15 28/28/28 19/19/19
f 15/15/15 13/13/13 28/28/28
f 13/13/13 29/29/29 28/28/28
f 30/30/30 14/14/14 16/16/16
f 30/30/30 31/31/31 14/14/14
f 31/31/31 12/12/12 14/14/14
f 31/31/31 32/32/32 12/12/12
f 32/32/32 7/7/7 12/12/12
f 32/32/32 33/33/33 7/7/7
f 34/34/34 22/22/22 25/25/25
f 34/34/34 35/35/35 22/22/22
f 35/35/35 30/30/30 16/16/16
f 35/35/35 16/16/16 18/18/18
f 33/33/33 5/5/5 7/7/7
f 33/33/33 36/36/36 5/5/5
f 36/36/36 1/1/1 5/5/5
f 36/36/36 37/37/37 1/1/1
f 37/37/37 4/4/4 1/1/1
f 37/37/37 38/38/38 4/4/4
f 32/32/32 31/31/31 39/39/39
f 33/33/33 39/39/39 40/40/40
f 41/41/41 33/33/33 40/40/40
f 41/41/41 40/40/40 42/42/42
f 42/42/42 40/40/40 43/43/43
f 42/42/42 43/43/43 44/44/44
f 40/40/40 39/39/39 45/45/45
f 44/44/44 43/43/43 46/46/46
f 37/37/37 36/36/36 47/47/47
f 36/36/36 33/33/33 47/47/47
f 33/33/33 48/48/48 47/47/47
f 33/33/33 41/41/41 48/48/48
f 49/49/49 37/37/37 47/47/47
f 49/49/49 47/47/47 50/50/50
f 47/47/47 48/48/48 51/51/51
f 50/50/50 47/47/47 51/51/51
f 33/33/33 32/32/32 52/52/52
f 39/39/39 54/54/54 53/53/53
f 53/53/53 54/54/54 55/55/55
f 39/39/39 56/56/56 54/54/54
f 31/31/31 56/56/56 57/57/57
f 31/31/31 58/58/58 56/56/56
f 58/58/58 31/31/31 59/59/59
f 31/31/31 30/30/30 60/60/60
f 61/61/61 62/62/62 30/30/30
f 62/62/62 61/61/61 63/63/63
f 61/61/61 30/30/30 35/35/35
f 64/64/64 63/63/63 61/61/61
f 64/64/64 61/61/61 65/65/65
f 61/61/61 66/66/66 65/65/65
f 66/66/66 61/61/61 34/34/34
f 34/34/34 61/61/61 67/67/67
f 30/30/30 62/62/62 68/68/68
f 13/13/13 11/11/11 29/29/29
f 11/11/11 10/10/10 29/29/29
f 69/69/69 38/38/38 70/70/70
f 38/38/38 37/37/37 70/70/70
f 37/37/37 49/49/49 71/71/71
f 72/72/72 74/74/74 73/73/73
f 72/72/72 75/75/75 74/74/74
f 75/75/75 76/76/76 74/74/74
f 77/77/77 72/72/72 73/73/73
f 78/78/78 77/77/77 73/73/73
f 78/78/78 73/73/73 79/79/79
f 80/80/80 78/78/78 79/79/79
f 81/81/81 80/80/80 79/79/79
f 81/81/81 79/79/79 82/82/82
f 83/83/83 81/81/81 82/82/82
f 73/73/73 74/74/74 84/84/84
f 73/73/73 84/84/84 85/85/85
f 79/79/79 73/73/73 86/86/86
f 85/85/85 84/84/84 87/87/87
f 88/88/88 83/83/83 89/89/89
f 88/88/88 89/89/89 90/90/90
f 90/90/90 82/82/82 91/91/91
f 90/90/90 93/93/93 92/92/92
f 92/92/92 91/91/91 94/94/94
f 92/92/92 94/94/94 95/95/95
f 96/96/96 87/87/87 97/97/97
f 93/93/93 99/99/99 98/98/98
f 93/93/93 100/100/100 99/99/99
f 101/101/101 97/97/97 102/102/102
f 101/101/101 103/103/103 97/97/97
f 79/79/79 103/103/103 101/101/101
f 104/104/104 79/79/79 105/105/105
f 104/104/104 105/105/105 106/106/106
