#Tree4_(9)_2372_673.obj

v 1.649 -0.1087268 -0.2710417
v 0.9947566 1.197125 0.2054711
v 0.9725536 0.9077535 -1.046144
v 1.113352 -0.007759798 -1.027271
v 0.8603998 1.998779 -0.2360939
v 0.464862 1.998779 -1.114193
v 0.8710248 3.322641 -0.8530299
v 1.077958 3.250427 -0.377352
v 0.2644619 3.499787 -1.126116
v -0.4900559 1.998779 -1.477912
v -0.4019063 3.677775 -0.982764
v -1.321086 2.538194 -1.155862
v -0.7282808 3.75481 -0.3128648
v -1.693687 2.566373 -0.3302089
v -0.4807161 3.682956 -0.02716029
v -1.444982 1.998779 0.6420012
v 0.1530224 3.507116 0.2253132
v -0.4900569 1.998779 1.005722
v 0.7959687 3.327577 0.05719839
v 0.4648606 1.998779 0.6419995
v 1.077958 3.250427 -0.377352
v 0.8603998 1.998779 -0.2360939
v 1.207073 5.526218 -0.3408354
v 0.6444284 5.526218 -0.5738938
v 0.6444284 5.526218 -0.5738938
v 0.4113623 5.526218 -0.01124502
v 0.6444284 5.526218 -0.5738938
v 0.9740227 5.526218 0.2218117
v 1.207073 5.526218 -0.3408354
v 0.9740227 5.526218 0.2218117
v 0.9947566 1.197125 0.2054711
v 0.7959042 0.6271882 1.412253
v 1.312921 -0.08299191 0.6160771
v 1.33127 -0.2933443 1.523448
v 0.9643179 -1.052223 2.854056
v 0.4113623 5.526218 -0.01124502
v 0.4113623 5.526218 -0.01124502
v 0.9740227 5.526218 0.2218117
v -0.3533531 1.089863 1.163907
v 0.5105641 -0.2495115 1.571656
v -0.3154274 -0.007759798 1.207775
v -1.437682 0.01500591 1.313033
v -1.155434 -0.6044034 1.360409
v -2.090547 -0.599919 2.243827
v -1.208842 0.769768 0.4236594
v -1.840528 1.998779 -0.2360945
v -1.425899 1.307367 -0.4120877
v -1.444981 1.998779 -1.114192
v -0.6717047 0.9077535 -1.046141
v 0.118608 1.206413 -1.308779
v 0.2641709 0.2683377 -1.970744
v 0.815595 -0.2463671 -1.928795
v -0.4572341 -0.1337112 -1.027272
v -0.06903108 -0.2463671 -1.928797
v -1.630355 0.07463427 -0.7411519
v -1.336922 -0.4881959 -0.969456
v -1.630355 0.07463427 -0.7411519
v 0.2641709 0.2683377 -1.970744
v -0.001973724 -0.8139682 -3.040453
v -0.001973724 -0.8139682 -3.040453
v 0.2641709 0.2683377 -1.970744
v -1.630355 0.07463427 -0.7411519
v -2.466255 -1.130942 -1.216009
v 2.127043 -0.2192227 -0.1883492
v 2.453201 0.3101302 0.2113376
v 0.9947566 1.197125 0.2054711
v 3.156656 -0.826737 0.3388988
v 2.453201 0.3101302 0.2113376
v 2.089918 -0.1782409 0.4586759
v 1.312921 -0.08299191 0.6160771
v 3.156656 -0.826737 0.3388988
v -1.143337 -0.1337112 0.3631091
v -1.61738 -0.4927883 -0.4026584
v -1.630355 0.07463427 -0.7411519
v -2.466255 -1.130942 -1.216009
v -1.65725 -0.4339224 0.8776585
v -1.437682 0.01500591 1.313033
v -2.090547 -0.599919 2.243827
v -1.630355 0.07463427 -0.7411519
v -1.437682 0.01500591 1.313033
v 0.7959042 0.6271882 1.412253
v 0.9643179 -1.052223 2.854056
v -0.8967347 2.926876 -0.3255623
v -2.091596 4.022573 0.8340362
v -0.5626122 2.839557 -0.08052938
v -1.651234 4.286763 0.8074985
v -0.2117819 3.16222 -0.04012127
v 0.01893752 3.308532 -0.416714
v -1.753196 4.405365 0.3179965
v -0.2324703 3.463918 -0.7067472
v -0.2744793 3.301548 -1.000764
v -2.193558 4.141176 0.3445361
v -0.7497177 2.880481 -0.9743525
v -0.940126 2.765478 -0.6139478
v -0.940126 2.765478 -0.6139478
v -2.193558 4.141176 0.3445361
v -2.539768 5.52331 0.4039624
v -2.47517 5.523309 0.7358148
v -2.833227 5.52331 0.4257466
v -1.753196 4.405365 0.3179965
v -2.091596 4.022573 0.8340362
v -2.47517 5.523309 0.7358148
v -2.768629 5.52331 0.7576029
v -2.833227 5.52331 0.4257466
v -0.805855 1.713094 -0.9715571
v -1.940494 3.014723 -1.967193
v -1.081216 1.483486 -0.7462556
v -2.036595 3.105563 -1.470272
v -1.238557 1.65237 -0.3272769
v -0.9391972 1.75097 0.01495409
v -1.568331 3.310784 -1.418388
v -0.6466317 2.019552 -0.1022557
v -0.3244001 1.91954 -0.1295045
v -1.47223 3.219944 -1.915313
v -0.1928597 1.695827 -0.7095897
v -0.4890432 1.613798 -1.000994
v -0.4890432 1.613798 -1.000994
v -1.47223 3.219944 -1.915313
v -2.014295 4.672457 -1.985741
v -2.346186 4.609434 -1.998886
v -1.98746 4.774529 -2.260433
v -1.568331 3.310784 -1.418388
v -1.940494 3.014723 -1.967193
v -2.346186 4.609434 -1.998886
v -2.319366 4.711502 -2.273575
v -1.98746 4.774529 -2.260433

vn 0.6298345 0.4752699 -0.614351
vn 0.8768305 0.4740199 0.08045717
vn 0.708562 0.3570758 -0.6086352
vn 0.8075882 0.3716308 -0.4579214
vn 0.9901764 0.139459 0.01009332
vn 0.5907176 0.06812399 -0.8039975
vn 0.6804864 -0.034691 -0.7319391
vn 0.9730223 -0.229188 -0.02646818
vn 0.08726282 0.2846749 -0.9546441
vn -0.07710183 0.03371199 -0.9964531
vn -0.4911342 0.548427 -0.676768
vn -0.6061556 0.2998459 -0.7366599
vn -0.7655001 0.6427877 0.02887248
vn -0.8864133 0.4594558 0.05631813
vn -0.5506717 0.490514 0.6753938
vn -0.6965199 0.1787599 0.6949137
vn -0.0238249 0.1775949 0.9838153
vn -0.0765167 0.2419801 0.9672595
vn 0.6564327 -0.138798 0.7415061
vn 0.6036699 0.2325539 0.7625624
vn 0.9730223 -0.229188 -0.02646818
vn 0.9901764 0.139459 0.01009332
vn 0.9328869 -0.3458401 0.1005819
vn -0.3672171 0.6795754 -0.6350819
vn -0.3672171 0.6795754 -0.6350819
vn -0.4745459 0.2286319 0.8500198
vn -0.3672171 0.6795754 -0.6350819
vn 0.5819381 -0.389785 0.7137337
vn 0.9328869 -0.3458401 0.1005819
vn 0.5819381 -0.389785 0.7137337
vn 0.8768305 0.4740199 0.08045717
vn 0.5151808 0.360433 0.7776097
vn 0.6290479 0.4422792 0.6392872
vn 0.5280126 0.6618493 0.5321262
vn -0.1914971 0.06659099 0.9792317
vn -0.4745459 0.2286319 0.8500198
vn -0.4745459 0.2286319 0.8500198
vn 0.5819381 -0.389785 0.7137337
vn -0.1693544 0.049349 0.9843189
vn -0.1914971 0.06659099 0.9792317
vn -0.9301144 -0.3025329 -0.208233
vn -0.1693544 0.049349 0.9843189
vn -0.1914971 0.06659099 0.9792317
vn -0.8459024 -0.191461 0.4977871
vn -0.795998 -0.1878229 0.5754215
vn -0.9916657 0.126915 -0.02217843
vn -0.9301144 -0.3025329 -0.208233
vn -0.6775829 0.07395096 -0.731719
vn -0.5105675 -0.251599 -0.8222036
vn -0.01616918 -0.101271 -0.9947276
vn -0.01616918 -0.101271 -0.9947276
vn 0.2729447 0.33168 -0.9030447
vn -0.562232 0.05232403 -0.8253226
vn -0.4230388 -0.22901 -0.8766941
vn -0.9301144 -0.3025329 -0.208233
vn -0.4230388 -0.22901 -0.8766941
vn -0.9301144 -0.3025329 -0.208233
vn -0.01616918 -0.101271 -0.9947276
vn 0.2729447 0.33168 -0.9030447
vn 0.2729447 0.33168 -0.9030447
vn -0.01616918 -0.101271 -0.9947276
vn -0.9301144 -0.3025329 -0.208233
vn -0.4230388 -0.22901 -0.8766941
vn 0.5520329 0.8161831 -0.1706008
vn 0.7869661 0.5997311 -0.1449377
vn 0.8768305 0.4740199 0.08045717
vn 0.5280126 0.6618493 0.5321262
vn 0.7869661 0.5997311 -0.1449377
vn 0.5280126 0.6618493 0.5321262
vn 0.6290479 0.4422792 0.6392872
vn 0.5280126 0.6618493 0.5321262
vn -0.9868405 0.1424 0.0766035
vn -0.8459024 -0.191461 0.4977871
vn -0.9301144 -0.3025329 -0.208233
vn -0.4230388 -0.22901 -0.8766941
vn -0.8459024 -0.191461 0.4977871
vn -0.1693544 0.049349 0.9843189
vn -0.8459024 -0.191461 0.4977871
vn -0.9301144 -0.3025329 -0.208233
vn -0.1693544 0.049349 0.9843189
vn 0.5151808 0.360433 0.7776097
vn -0.1914971 0.06659099 0.9792317
vn -0.4293181 -0.8628667 0.2667341
vn -0.6764132 -0.5434508 0.497118
vn 0.0830428 -0.750657 0.6554525
vn 0.4405587 0.09143602 0.8930551
vn 0.6888771 -0.114192 0.7158272
vn 0.782936 0.5856197 0.2099067
vn 0.6580646 0.6840867 -0.3146051
vn 0.4307902 0.835787 -0.3404114
vn -0.165351 0.6189021 -0.7678667
vn -0.5787973 -0.155831 -0.8004439
vn -0.5706899 0.190956 -0.7986545
vn -0.7842835 -0.4627653 -0.4132163
vn -0.7842835 -0.4627653 -0.4132163
vn -0.5787973 -0.155831 -0.8004439
vn 0.7284184 0.370975 -0.5760072
vn 0.2287683 0.4915891 0.8402412
vn -0.4505409 -0.3125331 -0.8362631
vn 0.6580646 0.6840867 -0.3146051
vn -0.6764132 -0.5434508 0.497118
vn 0.2287683 0.4915891 0.8402412
vn -0.4420666 0.1621339 0.8822074
vn -0.4505409 -0.3125331 -0.8362631
vn -0.02979415 -0.6759275 -0.7363656
vn -0.2711247 -0.3177881 -0.9085715
vn -0.5112277 -0.8002949 -0.3133276
vn -0.9546597 -0.175644 0.2403623
vn -0.7859221 -0.4349001 0.439532
vn -0.4393668 0.2376339 0.8663065
vn 0.07144191 0.4337419 0.8982004
vn 0.1059303 0.6587548 0.744863
vn 0.6578596 0.7206411 0.218854
vn 0.8993979 0.1549622 -0.4087423
vn 0.8327232 0.4731117 -0.2876412
vn 0.6141083 -0.1000433 -0.7828553
vn 0.6141083 -0.1000433 -0.7828553
vn 0.8993979 0.1549622 -0.4087423
vn 0.3706879 0.1483921 0.9168263
vn -0.9421085 0.2770755 0.1888404
vn 0.941808 -0.03210646 -0.3346145
vn 0.07144191 0.4337419 0.8982004
vn -0.2711247 -0.3177881 -0.9085715
vn -0.9421085 0.2770755 0.1888404
vn -0.8122517 0.2076827 -0.5450827
vn 0.941808 -0.03210646 -0.3346145

vt 0.03128052 0.3469238
vt 0.02098083 0.3811035
vt 0.04177856 0.3684082
vt 0.03814697 0.3459473
vt 0.02276611 0.3959961
vt 0.04354858 0.395752
vt 0.04064941 0.434082
vt 0.02258301 0.435791
vt 0.06384277 0.4343262
vt 0.06234741 0.3962402
vt 0.08276367 0.4355469
vt 0.08111572 0.407959
vt 0.09765625 0.4365234
vt 0.09967041 0.4067383
vt 0.1126099 0.4375
vt 0.1130981 0.3928223
vt 0.130127 0.439209
vt 0.1300049 0.3950195
vt 0.1516113 0.4384766
vt 0.1491699 0.3989258
vt 0.1682129 0.4372559
vt 0.1669922 0.4020996
vt 0.04025269 0.4936523
vt 0.06768799 0.4929199
vt 0.06768799 0.4929199
vt 0.1057739 0.4926758
vt 0.06768799 0.4929199
vt 0.1367188 0.4934082
vt 0.1651611 0.4941406
vt 0.1367188 0.4934082
vt 0.1706543 0.3869629
vt 0.1635742 0.3657227
vt 0.1831055 0.3806152
vt 0.18396 0.348877
vt 0.1702881 0.3166504
vt 0.1057739 0.4926758
vt 0.1057739 0.4926758
vt 0.1367188 0.4934082
vt 0.1357422 0.3745117
vt 0.1550293 0.3452148
vt 0.1451416 0.3503418
vt 0.1269531 0.3393555
vt 0.138916 0.3330078
vt 0.1308594 0.3168945
vt 0.1133423 0.3647461
vt 0.09954834 0.3955078
vt 0.09466553 0.3771973
vt 0.08105469 0.3979492
vt 0.07415771 0.3681641
vt 0.05825806 0.3747559
vt 0.05395508 0.3427734
vt 0.04519653 0.3320313
vt 0.07104492 0.345459
vt 0.05923462 0.3339844
vt 0.08972168 0.3439941
vt 0.08074951 0.3334961
vt 0.08972168 0.3439941
vt 0.05395508 0.3427734
vt 0.05123901 0.3146973
vt 0.05123901 0.3146973
vt 0.05395508 0.3427734
vt 0.08972168 0.3439941
vt 0.08709717 0.3164063
vt 0.02653503 0.3339844
vt 0.01992798 0.3444824
vt 0.02098083 0.3811035
vt 0.02056885 0.315918
vt 0.01992798 0.3444824
vt 0.00907135 0.3374023
vt 0.004844666 0.3596191
vt 0.02056885 0.315918
vt 0.1107178 0.3481445
vt 0.09783936 0.3349609
vt 0.08972168 0.3439941
vt 0.08709717 0.3164063
vt 0.1159668 0.3349609
vt 0.1269531 0.3393555
vt 0.1308594 0.3168945
vt 0.08972168 0.3439941
vt 0.1269531 0.3393555
vt 0.1635742 0.3657227
vt 0.1702881 0.3166504
vt 0.1189575 0.3955078
vt 0.1228027 0.4504395
vt 0.1253662 0.3933105
vt 0.1341553 0.4477539
vt 0.1331787 0.3930664
vt 0.1392822 0.3894043
vt 0.1452637 0.4487305
vt 0.1452637 0.3918457
vt 0.1491699 0.3884277
vt 0.1569824 0.4511719
vt 0.1594238 0.3896484
vt 0.1643066 0.3933105
vt 0.1153564 0.3920898
vt 0.1113892 0.4519043
vt 0.1470947 0.4968262
vt 0.1340332 0.4968262
vt 0.1560059 0.4968262
vt 0.1452637 0.4487305
vt 0.1228027 0.4504395
vt 0.1340332 0.4968262
vt 0.12146 0.4968262
vt 0.1110229 0.4968262
vt 0.07354736 0.3759766
vt 0.07739258 0.4306641
vt 0.07989502 0.3737793
vt 0.08874512 0.4282227
vt 0.08770752 0.373291
vt 0.09381104 0.369873
vt 0.09985352 0.4291992
vt 0.09985352 0.3720703
vt 0.1037598 0.3688965
vt 0.1115723 0.4313965
vt 0.1139526 0.3701172
vt 0.1188965 0.3737793
vt 0.06994629 0.3725586
vt 0.065979 0.4321289
vt 0.1016235 0.4770508
vt 0.08856201 0.4770508
vt 0.1105957 0.4770508
vt 0.09985352 0.4291992
vt 0.07739258 0.4306641
vt 0.08856201 0.4770508
vt 0.07598877 0.4770508
vt 0.06555176 0.4770508

g Tree4_(9)_2372_673
usemtl Tree4_(9)_2372_673
usemap Tree4_(9)_2372_673
f 1/1/1 3/3/3 2/2/2
f 1/1/1 4/4/4 3/3/3
f 3/3/3 5/5/5 2/2/2
f 3/3/3 6/6/6 5/5/5
f 5/5/5 6/6/6 7/7/7
f 5/5/5 7/7/7 8/8/8
f 6/6/6 9/9/9 7/7/7
f 6/6/6 10/10/10 9/9/9
f 10/10/10 11/11/11 9/9/9
f 10/10/10 12/12/12 11/11/11
f 12/12/12 13/13/13 11/11/11
f 12/12/12 14/14/14 13/13/13
f 14/14/14 15/15/15 13/13/13
f 14/14/14 16/16/16 15/15/15
f 16/16/16 17/17/17 15/15/15
f 16/16/16 18/18/18 17/17/17
f 18/18/18 19/19/19 17/17/17
f 18/18/18 20/20/20 19/19/19
f 20/20/20 21/21/21 19/19/19
f 20/20/20 22/22/22 21/21/21
f 8/8/8 7/7/7 23/23/23
f 7/7/7 24/24/24 23/23/23
f 7/7/7 9/9/9 24/24/24
f 9/9/9 11/11/11 25/25/25
f 11/11/11 13/13/13 26/26/26
f 11/11/11 26/26/26 27/27/27
f 17/17/17 19/19/19 28/28/28
f 19/19/19 21/21/21 29/29/29
f 19/19/19 29/29/29 30/30/30
f 31/31/31 22/22/22 20/20/20
f 20/20/20 32/32/32 31/31/31
f 33/33/33 31/31/31 32/32/32
f 33/33/33 32/32/32 34/34/34
f 34/34/34 32/32/32 35/35/35
f 13/13/13 15/15/15 36/36/36
f 15/15/15 38/38/38 37/37/37
f 15/15/15 17/17/17 38/38/38
f 39/39/39 40/40/40 32/32/32
f 39/39/39 41/41/41 40/40/40
f 41/41/41 39/39/39 42/42/42
f 41/41/41 42/42/42 43/43/43
f 43/43/43 42/42/42 44/44/44
f 39/39/39 32/32/32 20/20/20
f 39/39/39 20/20/20 18/18/18
f 39/39/39 18/18/18 16/16/16
f 39/39/39 16/16/16 45/45/45
f 45/45/45 16/16/16 46/46/46
f 45/45/45 46/46/46 47/47/47
f 47/47/47 46/46/46 48/48/48
f 47/47/47 48/48/48 49/49/49
f 49/49/49 48/48/48 10/10/10
f 49/49/49 10/10/10 50/50/50
f 50/50/50 10/10/10 6/6/6
f 50/50/50 6/6/6 3/3/3
f 50/50/50 3/3/3 51/51/51
f 49/49/49 50/50/50 51/51/51
f 3/3/3 52/52/52 51/51/51
f 3/3/3 4/4/4 52/52/52
f 53/53/53 49/49/49 51/51/51
f 53/53/53 51/51/51 54/54/54
f 47/47/47 49/49/49 55/55/55
f 49/49/49 53/53/53 56/56/56
f 49/49/49 56/56/56 57/57/57
f 10/10/10 48/48/48 12/12/12
f 48/48/48 14/14/14 12/12/12
f 48/48/48 46/46/46 14/14/14
f 46/46/46 16/16/16 14/14/14
f 58/58/58 52/52/52 59/59/59
f 54/54/54 61/61/61 60/60/60
f 62/62/62 56/56/56 63/63/63
f 1/1/1 65/65/65 64/64/64
f 1/1/1 66/66/66 65/65/65
f 64/64/64 65/65/65 67/67/67
f 2/2/2 69/69/69 68/68/68
f 2/2/2 70/70/70 69/69/69
f 68/68/68 69/69/69 71/71/71
f 72/72/72 74/74/74 73/73/73
f 72/72/72 45/45/45 74/74/74
f 73/73/73 74/74/74 75/75/75
f 45/45/45 72/72/72 76/76/76
f 45/45/45 76/76/76 77/77/77
f 77/77/77 76/76/76 78/78/78
f 45/45/45 47/47/47 79/79/79
f 39/39/39 45/45/45 80/80/80
f 81/81/81 40/40/40 82/82/82
f 83/83/83 85/85/85 84/84/84
f 85/85/85 86/86/86 84/84/84
f 85/85/85 87/87/87 86/86/86
f 87/87/87 88/88/88 86/86/86
f 88/88/88 89/89/89 86/86/86
f 88/88/88 90/90/90 89/89/89
f 90/90/90 91/91/91 89/89/89
f 91/91/91 92/92/92 89/89/89
f 91/91/91 93/93/93 92/92/92
f 93/93/93 94/94/94 92/92/92
f 95/95/95 83/83/83 84/84/84
f 95/95/95 84/84/84 96/96/96
f 86/86/86 89/89/89 97/97/97
f 86/86/86 97/97/97 98/98/98
f 89/89/89 99/99/99 97/97/97
f 100/100/100 92/92/92 99/99/99
f 101/101/101 86/86/86 102/102/102
f 84/84/84 102/102/102 103/103/103
f 96/96/96 84/84/84 103/103/103
f 96/96/96 103/103/103 104/104/104
f 105/105/105 107/107/107 106/106/106
f 107/107/107 108/108/108 106/106/106
f 107/107/107 109/109/109 108/108/108
f 109/109/109 110/110/110 108/108/108
f 110/110/110 111/111/111 108/108/108
f 110/110/110 112/112/112 111/111/111
f 112/112/112 113/113/113 111/111/111
f 113/113/113 114/114/114 111/111/111
f 113/113/113 115/115/115 114/114/114
f 115/115/115 116/116/116 114/114/114
f 117/117/117 105/105/105 106/106/106
f 117/117/117 106/106/106 118/118/118
f 108/108/108 111/111/111 119/119/119
f 108/108/108 119/119/119 120/120/120
f 111/111/111 121/121/121 119/119/119
f 122/122/122 114/114/114 121/121/121
f 123/123/123 108/108/108 124/124/124
f 106/106/106 124/124/124 125/125/125
f 118/118/118 106/106/106 125/125/125
f 118/118/118 125/125/125 126/126/126
