#Tree2_(36)_2946_361.obj

v -0.9476832 2.593094 -1.247161
v -1.431888 2.457369 -1.18567
v -0.7597011 2.141749 -1.385768
v -1.388367 1.965532 -1.305936
v -1.743184 2.410607 -0.7887239
v -1.792535 1.904819 -0.7905575
v -1.69921 2.480202 -0.2888432
v -1.735444 1.995176 -0.141539
v -1.325734 2.625384 0.02115035
v -1.250542 2.183674 0.2609398
v -0.841525 2.76111 -0.04034051
v -0.6218706 2.359892 0.1811019
v -0.5302333 2.807871 -0.4372871
v -0.2177027 2.420604 -0.334277
v -0.5742011 2.738276 -0.9371743
v -0.2747936 2.330247 -0.9832954
v -0.9974782 2.86026 -0.8983232
v -1.446601 2.734369 -0.8412841
v -1.227293 2.916618 -0.6478311
v -1.405813 2.798922 -0.3776236
v -0.9566904 2.924814 -0.4346549
v 2.077334 5.668246 -2.225864
v 1.221397 5.541389 -2.802411
v 2.515574 5.079143 -2.417616
v 1.359081 4.907739 -3.196622
v 0.2016334 5.496245 -2.604503
v -0.01877305 4.846745 -2.929209
v -0.3846019 5.559262 -1.748057
v -0.810859 4.931889 -1.77203
v -0.1938917 5.693524 -0.7347806
v -0.553184 5.113296 -0.4029419
v 0.6620468 5.820383 -0.1582252
v 0.6033159 5.284699 0.3760587
v 1.681816 5.865525 -0.3561398
v 1.981168 5.345695 0.1086535
v 2.268048 5.802509 -1.212579
v 2.773252 5.26055 -1.048526
v 2.783709 4.389544 -2.480881
v 1.46008 4.193369 -3.372461
v -0.1168889 4.123561 -3.066405
v -1.023441 4.22101 -1.742002
v -0.7285287 4.428633 -0.175058
v 0.5950999 4.624807 0.7165297
v 2.172076 4.694616 0.4104765
v 3.078622 4.597167 -0.9139372
v 1.038744 6.029766 -0.9008365
v 0.3081527 5.921485 -1.392955
v 0.9201342 6.000619 -1.518627
v 0.8085366 5.867697 -2.12398
v 1.539121 5.975979 -1.631863
v 0.9061301 4.917651 -2.688767
v -0.07884406 4.917651 -2.28078
v 0.9061302 4.300433 -3.177902
v -0.4247172 4.300433 -2.626643
v -0.4868351 4.917651 -1.295803
v -0.9759662 4.300433 -1.295802
v -0.07884528 4.917651 -0.3108243
v -0.4247168 4.300433 0.0350426
v 0.9061309 4.917651 0.09716256
v 0.9061307 4.300433 0.5862973
v 1.891109 4.917651 -0.3108236
v 2.236978 4.300433 0.03503876
v 2.299098 4.917651 -1.295801
v 2.788231 4.300433 -1.295801
v 1.89111 4.917651 -2.280779
v 2.236978 4.300433 -2.626647
v 0.9061306 3.575043 -3.613035
v -0.7324026 3.575043 -2.934338
v -1.411101 3.575043 -1.295803
v -0.732403 3.575043 0.3427283
v 0.9061302 3.575043 1.021439
v 2.544669 3.575043 0.3427264
v 3.223372 3.575043 -1.295807
v 2.54466 3.575043 -2.934334
v 1.500619 5.200411 -1.049557
v 0.6598856 5.200411 -0.701313
v 0.9061304 5.255187 -1.295798
v 0.3116441 5.200411 -1.542047
v 1.152375 5.200411 -1.890284

vn 0.8560794 0.4964109 -0.1438896
vn 0.6182176 0.324102 -0.7160761
vn 0.9582899 0.2762739 -0.07316443
vn 0.6895522 0.08159798 -0.7196246
vn 0.02769844 0.2647371 -0.9639227
vn 0.02237836 0.01452599 -0.999644
vn -0.5695603 0.3530899 -0.7422457
vn -0.6524093 0.114349 -0.7491906
vn -0.8236935 0.5374057 -0.1808985
vn -0.9395298 0.32259 -0.1149765
vn -0.5858318 0.7097141 0.3912891
vn -0.6707919 0.5172651 0.5314839
vn 0.00468874 0.7690797 0.6391358
vn -0.003617078 0.5843369 0.8115032
vn 0.6019474 0.6807264 0.4174576
vn 0.6711696 0.484515 0.5610496
vn 0.4186278 0.8906247 -0.1775903
vn 0.1248035 0.7524443 -0.6467238
vn 0.02987322 0.9536011 -0.2995874
vn -0.3639585 0.8544849 -0.3706612
vn -0.0701351 0.9926653 0.09847137
vn 0.6114184 0.6742987 0.4141121
vn 0.7876353 0.6064851 -0.1086583
vn 0.7172661 0.424205 0.5527923
vn 0.935562 0.3401981 -0.09481113
vn 0.5414324 0.5823539 -0.6063948
vn 0.6305685 0.310304 -0.7114034
vn 0.01703385 0.6160398 -0.7875309
vn -0.0190538 0.352034 -0.9357932
vn -0.4783776 0.6878113 -0.5459583
vn -0.6327649 0.4409437 -0.6365352
vn -0.654594 0.7556249 -0.02318762
vn -0.8510606 0.5249509 0.01106882
vn -0.4083913 0.7797561 0.4745491
vn -0.546066 0.554845 0.6276615
vn 0.1160081 0.7460701 0.6556841
vn 0.1035558 0.513114 0.8520506
vn 0.7521903 0.2220959 0.6203895
vn 0.9881429 0.131294 -0.07959583
vn 0.6584798 0.09898195 -0.746061
vn -0.04368712 0.144088 -0.9886001
vn -0.7070374 0.2401891 -0.6651371
vn -0.9429902 0.3309911 0.03484857
vn -0.6133267 0.363303 0.7013139
vn 0.08884035 0.3181969 0.9438528
vn -0.075214 0.9966761 0.03129666
vn -0.03203252 0.9638119 -0.2646518
vn 0.09676292 0.9906772 -0.09589399
vn 0.2643084 0.9393159 -0.2186932
vn 0.2211269 0.9721802 0.07725524
vn 0.7068697 0.6802621 -0.1938523
vn 0.3627586 0.6802611 -0.6369075
vn 0.8708269 0.4296829 -0.238816
vn 0.4468992 0.4296831 -0.784636
vn -0.1938523 0.6802621 -0.7068697
vn -0.238816 0.4296829 -0.8708269
vn -0.6369069 0.6802614 -0.362759
vn -0.784636 0.4296831 -0.4468992
vn -0.7068697 0.6802621 0.1938523
vn -0.8708269 0.4296829 0.238816
vn -0.3627578 0.6802614 0.6369075
vn -0.4468992 0.4296831 0.784636
vn 0.1938523 0.6802621 0.7068697
vn 0.238816 0.4296829 0.8708269
vn 0.6369075 0.6802614 0.3627578
vn 0.7846365 0.4296827 0.4468986
vn 0.9387676 0.228989 -0.2574481
vn 0.4817656 0.2289891 -0.8458521
vn -0.2574481 0.228989 -0.9387676
vn -0.8458521 0.2289891 -0.4817656
vn -0.9387676 0.228989 0.2574481
vn -0.4817656 0.2289891 0.8458521
vn 0.2574481 0.228989 0.9387676
vn 0.8458528 0.228988 0.4817651
vn 0.01179709 0.9762389 0.2163755
vn -0.2163755 0.9762389 0.01179709
vn 0 1 0
vn -0.01179709 0.9762389 -0.2163755
vn 0.2163753 0.976239 -0.01179806

vt 0.3613281 0.484375
vt 0.3461914 0.479248
vt 0.3603516 0.498291
vt 0.3356934 0.4875488
vt 0.3395996 0.463623
vt 0.3259277 0.4626465
vt 0.3447266 0.4484863
vt 0.3364258 0.4379883
vt 0.3603516 0.4418945
vt 0.3613281 0.4282227
vt 0.3754883 0.4470215
vt 0.3859863 0.4387207
vt 0.3820801 0.4626465
vt 0.395752 0.463623
vt 0.3769531 0.4780273
vt 0.3852539 0.4882813
vt 0.3652344 0.4726563
vt 0.3513184 0.4677734
vt 0.3608398 0.4631348
vt 0.3564453 0.4538574
vt 0.3701172 0.4587402
vt 0.4470215 0.4243164
vt 0.4257813 0.4155273
vt 0.4472656 0.4458008
vt 0.4106445 0.4306641
vt 0.4169922 0.3942871
vt 0.3955078 0.3942871
vt 0.4257813 0.3728027
vt 0.4106445 0.3579102
vt 0.4470215 0.3642578
vt 0.4470215 0.3427734
vt 0.4685059 0.3730469
vt 0.4833984 0.357666
vt 0.4770508 0.3942871
vt 0.4985352 0.394043
vt 0.4682617 0.4155273
vt 0.4833984 0.4306641
vt 0.4470215 0.4689941
vt 0.394043 0.4470215
vt 0.3723145 0.394043
vt 0.394043 0.3413086
vt 0.4470215 0.3193359
vt 0.5 0.3413086
vt 0.5219727 0.3942871
vt 0.5 0.4472656
vt 0.4609375 0.3884277
vt 0.4411621 0.3803711
vt 0.4470215 0.3942871
vt 0.4331055 0.3999023
vt 0.4528809 0.407959
vt 0.4470215 0.4243164
vt 0.4257813 0.4155273
vt 0.4472656 0.4458008
vt 0.4106445 0.4306641
vt 0.4169922 0.3942871
vt 0.3955078 0.3942871
vt 0.4257813 0.3728027
vt 0.4106445 0.3579102
vt 0.4470215 0.3642578
vt 0.4470215 0.3427734
vt 0.4685059 0.3730469
vt 0.4833984 0.357666
vt 0.4770508 0.3942871
vt 0.4985352 0.394043
vt 0.4682617 0.4155273
vt 0.4833984 0.4306641
vt 0.4470215 0.4689941
vt 0.394043 0.4470215
vt 0.3723145 0.394043
vt 0.394043 0.3413086
vt 0.4470215 0.3193359
vt 0.5 0.3413086
vt 0.5219727 0.3942871
vt 0.5 0.4472656
vt 0.4609375 0.3884277
vt 0.4411621 0.3803711
vt 0.4470215 0.3942871
vt 0.4331055 0.3999023
vt 0.4528809 0.407959

g Tree2_(36)_2946_361
usemtl Tree2_(36)_2946_361
usemap Tree2_(36)_2946_361
f 1/1/1 3/3/3 2/2/2
f 2/2/2 3/3/3 4/4/4
f 2/2/2 4/4/4 5/5/5
f 5/5/5 4/4/4 6/6/6
f 5/5/5 6/6/6 7/7/7
f 7/7/7 6/6/6 8/8/8
f 7/7/7 8/8/8 9/9/9
f 9/9/9 8/8/8 10/10/10
f 9/9/9 10/10/10 11/11/11
f 11/11/11 10/10/10 12/12/12
f 11/11/11 12/12/12 13/13/13
f 13/13/13 12/12/12 14/14/14
f 13/13/13 14/14/14 15/15/15
f 15/15/15 14/14/14 16/16/16
f 15/15/15 16/16/16 1/1/1
f 1/1/1 16/16/16 3/3/3
f 15/15/15 1/1/1 17/17/17
f 1/1/1 2/2/2 17/17/17
f 17/17/17 2/2/2 18/18/18
f 2/2/2 5/5/5 18/18/18
f 5/5/5 7/7/7 18/18/18
f 17/17/17 18/18/18 19/19/19
f 18/18/18 20/20/20 19/19/19
f 18/18/18 7/7/7 20/20/20
f 7/7/7 9/9/9 20/20/20
f 9/9/9 11/11/11 20/20/20
f 20/20/20 21/21/21 19/19/19
f 21/21/21 17/17/17 19/19/19
f 20/20/20 11/11/11 21/21/21
f 11/11/11 13/13/13 21/21/21
f 13/13/13 15/15/15 21/21/21
f 21/21/21 15/15/15 17/17/17
f 22/22/22 24/24/24 23/23/23
f 23/23/23 24/24/24 25/25/25
f 23/23/23 25/25/25 26/26/26
f 26/26/26 25/25/25 27/27/27
f 26/26/26 27/27/27 28/28/28
f 28/28/28 27/27/27 29/29/29
f 28/28/28 29/29/29 30/30/30
f 30/30/30 29/29/29 31/31/31
f 30/30/30 31/31/31 32/32/32
f 32/32/32 31/31/31 33/33/33
f 32/32/32 33/33/33 34/34/34
f 34/34/34 33/33/33 35/35/35
f 34/34/34 35/35/35 36/36/36
f 36/36/36 35/35/35 37/37/37
f 36/36/36 37/37/37 22/22/22
f 22/22/22 37/37/37 24/24/24
f 24/24/24 38/38/38 25/25/25
f 25/25/25 38/38/38 39/39/39
f 25/25/25 39/39/39 27/27/27
f 27/27/27 39/39/39 40/40/40
f 27/27/27 40/40/40 29/29/29
f 29/29/29 40/40/40 41/41/41
f 29/29/29 41/41/41 31/31/31
f 31/31/31 41/41/41 42/42/42
f 31/31/31 42/42/42 33/33/33
f 33/33/33 42/42/42 43/43/43
f 33/33/33 43/43/43 35/35/35
f 35/35/35 43/43/43 44/44/44
f 35/35/35 44/44/44 37/37/37
f 37/37/37 44/44/44 45/45/45
f 37/37/37 45/45/45 24/24/24
f 24/24/24 45/45/45 38/38/38
f 32/32/32 34/34/34 46/46/46
f 34/34/34 36/36/36 46/46/46
f 47/47/47 32/32/32 46/46/46
f 47/47/47 46/46/46 48/48/48
f 49/49/49 47/47/47 48/48/48
f 50/50/50 49/49/49 48/48/48
f 46/46/46 50/50/50 48/48/48
f 50/50/50 23/23/23 49/49/49
f 22/22/22 23/23/23 50/50/50
f 36/36/36 22/22/22 50/50/50
f 46/46/46 36/36/36 50/50/50
f 23/23/23 26/26/26 49/49/49
f 26/26/26 28/28/28 49/49/49
f 49/49/49 28/28/28 47/47/47
f 28/28/28 30/30/30 47/47/47
f 30/30/30 32/32/32 47/47/47
f 51/51/51 53/53/53 52/52/52
f 52/52/52 53/53/53 54/54/54
f 52/52/52 54/54/54 55/55/55
f 55/55/55 54/54/54 56/56/56
f 55/55/55 56/56/56 57/57/57
f 57/57/57 56/56/56 58/58/58
f 57/57/57 58/58/58 59/59/59
f 59/59/59 58/58/58 60/60/60
f 59/59/59 60/60/60 61/61/61
f 61/61/61 60/60/60 62/62/62
f 61/61/61 62/62/62 63/63/63
f 63/63/63 62/62/62 64/64/64
f 63/63/63 64/64/64 65/65/65
f 65/65/65 64/64/64 66/66/66
f 65/65/65 66/66/66 51/51/51
f 51/51/51 66/66/66 53/53/53
f 53/53/53 67/67/67 54/54/54
f 54/54/54 67/67/67 68/68/68
f 54/54/54 68/68/68 56/56/56
f 56/56/56 68/68/68 69/69/69
f 56/56/56 69/69/69 58/58/58
f 58/58/58 69/69/69 70/70/70
f 58/58/58 70/70/70 60/60/60
f 60/60/60 70/70/70 71/71/71
f 60/60/60 71/71/71 62/62/62
f 62/62/62 71/71/71 72/72/72
f 62/62/62 72/72/72 64/64/64
f 64/64/64 72/72/72 73/73/73
f 64/64/64 73/73/73 66/66/66
f 66/66/66 73/73/73 74/74/74
f 66/66/66 74/74/74 53/53/53
f 53/53/53 74/74/74 67/67/67
f 61/61/61 63/63/63 75/75/75
f 63/63/63 65/65/65 75/75/75
f 76/76/76 61/61/61 75/75/75
f 76/76/76 75/75/75 77/77/77
f 78/78/78 76/76/76 77/77/77
f 79/79/79 78/78/78 77/77/77
f 75/75/75 79/79/79 77/77/77
f 79/79/79 52/52/52 78/78/78
f 51/51/51 52/52/52 79/79/79
f 65/65/65 51/51/51 79/79/79
f 75/75/75 65/65/65 79/79/79
f 52/52/52 55/55/55 78/78/78
f 55/55/55 57/57/57 78/78/78
f 78/78/78 57/57/57 76/76/76
f 57/57/57 59/59/59 76/76/76
f 59/59/59 61/61/61 76/76/76
