#Tree_conf1_(1)_2226_31.obj

v 0.1094566 1.578246 0.3661333
v 0.03892596 1.930737 0.1420323
v 0.1273213 1.938304 0.07318278
v 0.3483653 1.598699 0.1800525
v 0.1409872 1.947921 -0.03793184
v 0.3853084 1.62469 -0.1202707
v 0.07192262 1.953952 -0.1262262
v 0.1986423 1.640992 -0.3589082
v -0.03941806 1.952867 -0.139976
v -0.1022846 1.638057 -0.3960712
v -0.1278134 1.945299 -0.07112655
v -0.3411963 1.617604 -0.2099876
v -0.1414824 1.935683 0.03999082
v -0.3781394 1.591613 0.09033562
v -0.07241741 1.929651 0.1282855
v -0.1914733 1.575311 0.3289731
v -0.00358584 2.232562 0.01496909
v -0.5621581 0.6246044 0.6367037
v -0.1598658 0.849957 0.4109198
v 0.04298684 0.6214363 0.8242599
v 0.3784066 0.8471389 0.1273558
v 0.6035112 0.6185017 0.5289735
v 0.7910634 0.61752 -0.07617705
v 0.2650524 0.8477323 -0.3581659
v 0.4957801 0.6190658 -0.6367035
v -0.2330171 0.8503399 -0.380618
v -0.1093645 0.622234 -0.8242593
v -0.6698888 0.6251684 -0.5289729
v -0.4961776 0.8517178 0.04285236
v -0.8574414 0.6261503 0.07617725
v -0.04382572 1.230687 -3.693762E-07
v -0.3161327 1.416121 -0.4689034
v -0.240167 1.556894 -0.1451875
v -0.5581529 1.372669 -0.1078461
v -0.1586014 1.489291 0.2622033
v -0.4732164 1.302272 0.3163875
v -0.1110755 1.246167 0.5552844
v 0.1835738 1.468478 0.280806
v 0.3161323 1.23722 0.468903
v 0.2958267 1.512721 -0.04162157
v 0.5581529 1.280672 0.1078461
v 0.4732164 1.351069 -0.3163875
v 0.06822041 1.564082 -0.2953296
v 0.1110755 1.407174 -0.5552844
v 0.02009034 1.826264 0.05963391
v 0.3820775 1.057775 0.6121234
v 0.3001457 1.251559 0.2239779
v 0.6914647 1.055051 0.163704
v 0.2057359 1.249136 -0.2906005
v 0.5931501 1.052527 -0.3721448
v 0.1447284 1.051683 -0.681534
v -0.2218244 1.249646 -0.3223176
v -0.3911251 1.053012 -0.5832233
v -0.3682132 1.251888 0.08064981
v -0.7005122 1.055737 -0.1348039
v -0.6021975 1.05826 0.4010449
v -0.08830775 1.253073 0.4054049
v -0.1537759 1.059104 0.7104341
v -0.007256374 1.578954 0.0231788

vn 0.7501209 0.4115613 0.5176251
vn 0.6931455 0.5340773 0.4840565
vn 0.8172761 0.5632517 -0.1216846
vn 0.8860337 0.4410965 -0.1427513
vn 0.4750077 0.6014429 -0.6423659
vn 0.5131594 0.4797606 -0.711686
vn -0.1424206 0.6261111 -0.7666167
vn -0.1611307 0.5047326 -0.8481048
vn -0.6661491 0.6216261 -0.4120997
vn -0.7331753 0.5001927 -0.460718
vn -0.7801431 0.5908968 0.2054691
vn -0.8568431 0.4690853 0.2139599
vn -0.4259614 0.5530602 0.7160175
vn -0.4695925 0.43078 0.7706565
vn 0.1813514 0.5299489 0.8284115
vn 0.1924744 0.4073827 0.8927445
vn 0.03987476 0.9962845 0.07633416
vn 0.07866827 0.6754404 0.7332063
vn 0.2484043 0.8853248 0.3930587
vn 0.6152012 0.6235921 0.4823485
vn 0.4474779 0.8843999 -0.1326654
vn 0.8133692 0.5780541 -0.06545126
vn 0.5752818 0.5632923 -0.5930873
vn -0.006731272 0.8687778 -0.4951563
vn 0.03772846 0.5866373 -0.8089705
vn -0.4707858 0.8619226 -0.1882818
vn -0.5021414 0.6363669 -0.585569
vn -0.7277174 0.6849957 -0.03475973
vn -0.3391325 0.8707365 0.3560997
vn -0.4863372 0.7018849 0.5204166
vn 0.09113201 0.9926714 -0.07936158
vn -0.8057594 0.5518385 -0.215002
vn -0.4084485 0.8873513 0.2139561
vn -0.7217882 0.551837 0.4177291
vn 0.10853 0.7936295 0.5986428
vn -0.215002 0.5518385 0.8057594
vn 0.4177285 0.5518386 0.7217873
vn 0.6456172 0.735074 0.2069889
vn 0.8057594 0.5518385 0.215002
vn 0.4639254 0.7923025 -0.3962697
vn 0.7217882 0.551837 -0.4177291
vn 0.215002 0.5518385 -0.8057594
vn -0.1712153 0.8842494 -0.4344975
vn -0.4177285 0.5518386 -0.7217873
vn 0 0.9999999 0
vn 0.7232206 0.6754403 0.1439861
vn 0.4493217 0.8853247 -0.1196236
vn 0.6441217 0.6235921 -0.4429897
vn 0.007087871 0.8843999 -0.4666759
vn 0.1805499 0.5780541 -0.7957733
vn -0.39412 0.5632922 -0.7262032
vn -0.4745509 0.8687778 -0.1415149
vn -0.7607481 0.5866373 -0.2777025
vn -0.3203394 0.8619226 0.3930291
vn -0.7088485 0.6363668 0.3042545
vn -0.2505934 0.6849957 0.6840934
vn 0.2385116 0.8707364 0.4300351
vn 0.3513426 0.701885 0.6196094
vn -0.04850905 0.9926714 -0.1106805

vt 0.3461914 0.0803833
vt 0.3190918 0.06854248
vt 0.3068848 0.08081055
vt 0.3181152 0.1083374
vt 0.2895508 0.08081055
vt 0.2785645 0.1083374
vt 0.2770996 0.06854248
vt 0.2504883 0.08032227
vt 0.2770996 0.05114746
vt 0.2504883 0.04064941
vt 0.2895508 0.03884888
vt 0.2785645 0.01256561
vt 0.3068848 0.03887939
vt 0.3183594 0.01262665
vt 0.3190918 0.0512085
vt 0.3464355 0.04077148
vt 0.2978516 0.05935669
vt 0.2459717 0.0847168
vt 0.213623 0.08380127
vt 0.2144775 0.1161499
vt 0.1708984 0.08374023
vt 0.1700439 0.1160889
vt 0.1385498 0.08459473
vt 0.1621094 0.04983521
vt 0.1385498 0.0401001
vt 0.1923828 0.03216553
vt 0.1700439 0.008682251
vt 0.2145996 0.008712769
vt 0.2225342 0.04989624
vt 0.2460938 0.04019165
vt 0.1922607 0.06237793
vt 0.2459717 0.0847168
vt 0.213623 0.08380127
vt 0.2144775 0.1161499
vt 0.1708984 0.08374023
vt 0.1700439 0.1160889
vt 0.1385498 0.08459473
vt 0.1621094 0.04983521
vt 0.1385498 0.0401001
vt 0.1923828 0.03216553
vt 0.1700439 0.008682251
vt 0.2145996 0.008712769
vt 0.2225342 0.04989624
vt 0.2460938 0.04019165
vt 0.1922607 0.06237793
vt 0.2459717 0.0847168
vt 0.213623 0.08380127
vt 0.2144775 0.1161499
vt 0.1708984 0.08374023
vt 0.1700439 0.1160889
vt 0.1385498 0.08459473
vt 0.1621094 0.04983521
vt 0.1385498 0.0401001
vt 0.1923828 0.03216553
vt 0.1700439 0.008682251
vt 0.2145996 0.008712769
vt 0.2225342 0.04989624
vt 0.2460938 0.04019165
vt 0.1922607 0.06237793

g Tree_conf1_(1)_2226_31
usemtl Tree_conf1_(1)_2226_31
usemap Tree_conf1_(1)_2226_31
f 1/1/1 3/3/3 2/2/2
f 1/1/1 4/4/4 3/3/3
f 4/4/4 5/5/5 3/3/3
f 4/4/4 6/6/6 5/5/5
f 6/6/6 7/7/7 5/5/5
f 6/6/6 8/8/8 7/7/7
f 8/8/8 9/9/9 7/7/7
f 8/8/8 10/10/10 9/9/9
f 10/10/10 11/11/11 9/9/9
f 10/10/10 12/12/12 11/11/11
f 12/12/12 13/13/13 11/11/11
f 12/12/12 14/14/14 13/13/13
f 14/14/14 15/15/15 13/13/13
f 14/14/14 16/16/16 15/15/15
f 16/16/16 2/2/2 15/15/15
f 16/16/16 1/1/1 2/2/2
f 2/2/2 3/3/3 17/17/17
f 3/3/3 5/5/5 17/17/17
f 5/5/5 7/7/7 17/17/17
f 7/7/7 9/9/9 17/17/17
f 9/9/9 11/11/11 17/17/17
f 11/11/11 13/13/13 17/17/17
f 13/13/13 15/15/15 17/17/17
f 15/15/15 2/2/2 17/17/17
f 18/18/18 20/20/20 19/19/19
f 20/20/20 21/21/21 19/19/19
f 20/20/20 22/22/22 21/21/21
f 22/22/22 23/23/23 21/21/21
f 23/23/23 24/24/24 21/21/21
f 23/23/23 25/25/25 24/24/24
f 25/25/25 26/26/26 24/24/24
f 25/25/25 27/27/27 26/26/26
f 27/27/27 28/28/28 26/26/26
f 28/28/28 29/29/29 26/26/26
f 28/28/28 30/30/30 29/29/29
f 30/30/30 19/19/19 29/29/29
f 30/30/30 18/18/18 19/19/19
f 19/19/19 21/21/21 31/31/31
f 21/21/21 24/24/24 31/31/31
f 24/24/24 26/26/26 31/31/31
f 26/26/26 29/29/29 31/31/31
f 29/29/29 19/19/19 31/31/31
f 32/32/32 34/34/34 33/33/33
f 34/34/34 35/35/35 33/33/33
f 34/34/34 36/36/36 35/35/35
f 36/36/36 37/37/37 35/35/35
f 37/37/37 38/38/38 35/35/35
f 37/37/37 39/39/39 38/38/38
f 39/39/39 40/40/40 38/38/38
f 39/39/39 41/41/41 40/40/40
f 41/41/41 42/42/42 40/40/40
f 42/42/42 43/43/43 40/40/40
f 42/42/42 44/44/44 43/43/43
f 44/44/44 33/33/33 43/43/43
f 44/44/44 32/32/32 33/33/33
f 33/33/33 35/35/35 45/45/45
f 35/35/35 38/38/38 45/45/45
f 38/38/38 40/40/40 45/45/45
f 40/40/40 43/43/43 45/45/45
f 43/43/43 33/33/33 45/45/45
f 46/46/46 48/48/48 47/47/47
f 48/48/48 49/49/49 47/47/47
f 48/48/48 50/50/50 49/49/49
f 50/50/50 51/51/51 49/49/49
f 51/51/51 52/52/52 49/49/49
f 51/51/51 53/53/53 52/52/52
f 53/53/53 54/54/54 52/52/52
f 53/53/53 55/55/55 54/54/54
f 55/55/55 56/56/56 54/54/54
f 56/56/56 57/57/57 54/54/54
f 56/56/56 58/58/58 57/57/57
f 58/58/58 47/47/47 57/57/57
f 58/58/58 46/46/46 47/47/47
f 47/47/47 49/49/49 59/59/59
f 49/49/49 52/52/52 59/59/59
f 52/52/52 54/54/54 59/59/59
f 54/54/54 57/57/57 59/59/59
f 57/57/57 47/47/47 59/59/59
