#Tree2_big_(9)_1162_246.obj

v -1.326756 3.630331 -1.746023
v -2.004643 3.440317 -1.659938
v -1.063584 2.998449 -1.940069
v -1.943714 2.751745 -1.8283
v -2.440459 3.374849 -1.104207
v -2.50955 2.666746 -1.106775
v -2.378896 3.472282 -0.4043725
v -2.429625 2.793247 -0.1981476
v -1.856029 3.675539 0.02961398
v -1.750757 3.057144 0.3653174
v -1.178138 3.865553 -0.0564697
v -0.8706196 3.30385 0.2535501
v -0.7423272 3.93102 -0.6121984
v -0.3047863 3.388845 -0.4679793
v -0.8038849 3.833588 -1.312035
v -0.384713 3.262346 -1.376603
v -1.39647 4.004364 -1.257646
v -2.025243 3.828115 -1.177798
v -1.718212 4.083265 -0.9069615
v -1.968139 3.91849 -0.5286667
v -1.339367 4.094739 -0.6085148
v 2.908267 7.935545 -3.116205
v 1.709957 7.757944 -3.923374
v 3.521803 7.1108 -3.38466
v 1.902711 6.870834 -4.475265
v 0.2822848 7.694744 -3.646297
v -0.02628447 6.785442 -4.100891
v -0.538441 7.782967 -2.447277
v -1.135203 6.904644 -2.480842
v -0.2714495 7.970934 -1.028685
v -0.7744586 7.158613 -0.5641196
v 0.9268661 8.148536 -0.2215101
v 0.8446403 7.398579 0.5264874
v 2.354539 8.211735 -0.4985899
v 2.773636 7.483973 0.1521142
v 3.175269 8.123513 -1.697609
v 3.882555 7.364771 -1.467935
v 3.897192 6.145361 -3.473224
v 2.044111 5.870716 -4.721439
v -0.1636456 5.772985 -4.292957
v -1.432821 5.909414 -2.438796
v -1.01994 6.200086 -0.2450765
v 0.8331385 6.47473 1.003145
v 3.040905 6.572462 0.574667
v 4.310069 6.436033 -1.279506
v 1.454241 8.441672 -1.261166
v 0.4314112 8.290079 -1.950135
v 1.288188 8.400867 -2.126071
v 1.131951 8.214775 -2.973561
v 2.154767 8.36637 -2.2846
v 1.268583 6.884712 -3.764272
v -0.1103837 6.884712 -3.193084
v 1.268582 6.020607 -4.449056
v -0.5946018 6.020607 -3.677301
v -0.681569 6.884712 -1.814116
v -1.366352 6.020607 -1.814119
v -0.110385 6.884712 -0.4351514
v -0.5946044 6.020607 0.04906184
v 1.268583 6.884712 0.136034
v 1.268581 6.020607 0.8208256
v 2.647552 6.884712 -0.4351524
v 3.131767 6.020607 0.04906339
v 3.218737 6.884712 -1.814116
v 3.903525 6.020607 -1.814116
v 2.647554 6.884712 -3.193085
v 3.131766 6.020607 -3.677301
v 1.268582 5.00506 -5.058249
v -1.025366 5.00506 -4.108065
v -1.975542 5.00506 -1.814118
v -1.025368 5.00506 0.4798263
v 1.268582 5.00506 1.430015
v 3.562536 5.00506 0.4798248
v 4.512719 5.00506 -1.81412
v 3.562525 5.00506 -4.108063
v 2.100864 7.280575 -1.469378
v 0.9238389 7.280575 -0.9818364
v 1.268582 7.357262 -1.814117
v 0.4363013 7.280575 -2.15886
v 1.613325 7.280575 -2.646398

vn -0.1967396 0.4964109 -0.8454997
vn -0.7530618 0.324102 -0.5725871
vn -0.1324939 0.2762739 -0.9519024
vn -0.7610304 0.08159798 -0.6435639
vn -0.9637837 0.2647371 0.032175
vn -0.999106 0.01452599 0.03970161
vn -0.7054687 0.3530899 0.6145255
vn -0.7072587 0.114349 0.6976458
vn -0.1294322 0.5374057 0.8333322
vn -0.05644864 0.32259 0.9448541
vn 0.4268909 0.7097141 0.5604197
vn 0.5720881 0.5172651 0.6365156
vn 0.6376129 0.7690797 -0.04434377
vn 0.8101634 0.5843368 -0.04675093
vn 0.3792967 0.6807265 -0.6266941
vn 0.5183161 0.484515 -0.704694
vn -0.2032276 0.8906247 -0.4067999
vn -0.6532224 0.7524443 -0.08442792
vn -0.3008638 0.9536011 -0.01122358
vn -0.3473599 0.8544849 0.3862598
vn 0.1026341 0.9926653 0.06388888
vn 0.3753699 0.6742987 -0.6359392
vn -0.1573286 0.6064851 -0.7793739
vn 0.5072141 0.4242049 -0.7501893
vn -0.1526883 0.3401981 -0.9278747
vn -0.6388267 0.5823539 -0.5027566
vn -0.7491646 0.310304 -0.5852041
vn -0.78707 0.6160398 0.0318723
vn -0.9328071 0.352034 0.07709141
vn -0.5152184 0.6878113 0.5113372
vn -0.5960396 0.4409437 0.671048
vn 0.01748046 0.7556249 0.6547713
vn 0.06386341 0.5249509 0.8487332
vn 0.4989788 0.7797561 0.3781541
vn 0.66034 0.554845 0.5060616
vn 0.6472208 0.7460701 -0.1564755
vn 0.8439817 0.513114 -0.1562336
vn 0.5725136 0.2220959 -0.7892412
vn -0.1407655 0.131294 -0.9812987
vn -0.7854875 0.09898195 -0.6109109
vn -0.9839834 0.144088 0.1049543
vn -0.619977 0.240189 0.7469523
vn 0.09330237 0.3309911 0.9390099
vn 0.7380245 0.363303 0.5686217
vn 0.9365202 0.3181969 -0.1472436
vn 0.03590403 0.9966761 0.07312678
vn -0.2621538 0.9638119 0.04839477
vn -0.1017142 0.9906772 -0.09062533
vn -0.2346744 0.9393159 -0.2502271
vn 0.06338345 0.9721802 -0.2254951
vn -0.2373462 0.6802621 -0.693477
vn -0.6581923 0.6802611 -0.3225335
vn -0.2923983 0.4296829 -0.8543277
vn -0.8108577 0.4296831 -0.3973441
vn -0.693477 0.6802621 0.2373462
vn -0.8543277 0.4296829 0.2923983
vn -0.3225341 0.6802614 0.6581916
vn -0.3973441 0.4296831 0.8108577
vn 0.2373462 0.6802621 0.693477
vn 0.2923983 0.4296829 0.8543277
vn 0.6581923 0.6802614 0.3225328
vn 0.8108577 0.4296831 0.3973441
vn 0.693477 0.6802621 -0.2373462
vn 0.8543277 0.4296829 -0.2923983
vn 0.3225328 0.6802614 -0.6581923
vn 0.3973435 0.4296827 -0.8108582
vn -0.3152108 0.228989 -0.9209812
vn -0.8741196 0.2289891 -0.4283443
vn -0.9209812 0.228989 0.3152108
vn -0.4283443 0.2289891 0.8741196
vn 0.3152108 0.228989 0.9209812
vn 0.8741196 0.2289891 0.4283443
vn 0.9209812 0.228989 -0.3152108
vn 0.4283438 0.228988 -0.8741202
vn 0.2152264 0.9762389 -0.02520239
vn 0.02520239 0.9762389 0.2152264
vn 0 1 0
vn -0.2152264 0.9762389 0.02520239
vn -0.02520333 0.976239 -0.2152261

vt 0.3613281 0.484375
vt 0.3461914 0.479248
vt 0.3603516 0.498291
vt 0.3356934 0.4875488
vt 0.3395996 0.463623
vt 0.3259277 0.4626465
vt 0.3447266 0.4484863
vt 0.3364258 0.4379883
vt 0.3603516 0.4418945
vt 0.3613281 0.4282227
vt 0.3754883 0.4470215
vt 0.3859863 0.4387207
vt 0.3820801 0.4626465
vt 0.395752 0.463623
vt 0.3769531 0.4780273
vt 0.3852539 0.4882813
vt 0.3652344 0.4726563
vt 0.3513184 0.4677734
vt 0.3608398 0.4631348
vt 0.3564453 0.4538574
vt 0.3701172 0.4587402
vt 0.4470215 0.4243164
vt 0.4257813 0.4155273
vt 0.4472656 0.4458008
vt 0.4106445 0.4306641
vt 0.4169922 0.3942871
vt 0.3955078 0.3942871
vt 0.4257813 0.3728027
vt 0.4106445 0.3579102
vt 0.4470215 0.3642578
vt 0.4470215 0.3427734
vt 0.4685059 0.3730469
vt 0.4833984 0.357666
vt 0.4770508 0.3942871
vt 0.4985352 0.394043
vt 0.4682617 0.4155273
vt 0.4833984 0.4306641
vt 0.4470215 0.4689941
vt 0.394043 0.4470215
vt 0.3723145 0.394043
vt 0.394043 0.3413086
vt 0.4470215 0.3193359
vt 0.5 0.3413086
vt 0.5219727 0.3942871
vt 0.5 0.4472656
vt 0.4609375 0.3884277
vt 0.4411621 0.3803711
vt 0.4470215 0.3942871
vt 0.4331055 0.3999023
vt 0.4528809 0.407959
vt 0.4470215 0.4243164
vt 0.4257813 0.4155273
vt 0.4472656 0.4458008
vt 0.4106445 0.4306641
vt 0.4169922 0.3942871
vt 0.3955078 0.3942871
vt 0.4257813 0.3728027
vt 0.4106445 0.3579102
vt 0.4470215 0.3642578
vt 0.4470215 0.3427734
vt 0.4685059 0.3730469
vt 0.4833984 0.357666
vt 0.4770508 0.3942871
vt 0.4985352 0.394043
vt 0.4682617 0.4155273
vt 0.4833984 0.4306641
vt 0.4470215 0.4689941
vt 0.394043 0.4470215
vt 0.3723145 0.394043
vt 0.394043 0.3413086
vt 0.4470215 0.3193359
vt 0.5 0.3413086
vt 0.5219727 0.3942871
vt 0.5 0.4472656
vt 0.4609375 0.3884277
vt 0.4411621 0.3803711
vt 0.4470215 0.3942871
vt 0.4331055 0.3999023
vt 0.4528809 0.407959

g Tree2_big_(9)_1162_246
usemtl Tree2_big_(9)_1162_246
usemap Tree2_big_(9)_1162_246
f 1/1/1 3/3/3 2/2/2
f 2/2/2 3/3/3 4/4/4
f 2/2/2 4/4/4 5/5/5
f 5/5/5 4/4/4 6/6/6
f 5/5/5 6/6/6 7/7/7
f 7/7/7 6/6/6 8/8/8
f 7/7/7 8/8/8 9/9/9
f 9/9/9 8/8/8 10/10/10
f 9/9/9 10/10/10 11/11/11
f 11/11/11 10/10/10 12/12/12
f 11/11/11 12/12/12 13/13/13
f 13/13/13 12/12/12 14/14/14
f 13/13/13 14/14/14 15/15/15
f 15/15/15 14/14/14 16/16/16
f 15/15/15 16/16/16 1/1/1
f 1/1/1 16/16/16 3/3/3
f 15/15/15 1/1/1 17/17/17
f 1/1/1 2/2/2 17/17/17
f 17/17/17 2/2/2 18/18/18
f 2/2/2 5/5/5 18/18/18
f 5/5/5 7/7/7 18/18/18
f 17/17/17 18/18/18 19/19/19
f 18/18/18 20/20/20 19/19/19
f 18/18/18 7/7/7 20/20/20
f 7/7/7 9/9/9 20/20/20
f 9/9/9 11/11/11 20/20/20
f 20/20/20 21/21/21 19/19/19
f 21/21/21 17/17/17 19/19/19
f 20/20/20 11/11/11 21/21/21
f 11/11/11 13/13/13 21/21/21
f 13/13/13 15/15/15 21/21/21
f 21/21/21 15/15/15 17/17/17
f 22/22/22 24/24/24 23/23/23
f 23/23/23 24/24/24 25/25/25
f 23/23/23 25/25/25 26/26/26
f 26/26/26 25/25/25 27/27/27
f 26/26/26 27/27/27 28/28/28
f 28/28/28 27/27/27 29/29/29
f 28/28/28 29/29/29 30/30/30
f 30/30/30 29/29/29 31/31/31
f 30/30/30 31/31/31 32/32/32
f 32/32/32 31/31/31 33/33/33
f 32/32/32 33/33/33 34/34/34
f 34/34/34 33/33/33 35/35/35
f 34/34/34 35/35/35 36/36/36
f 36/36/36 35/35/35 37/37/37
f 36/36/36 37/37/37 22/22/22
f 22/22/22 37/37/37 24/24/24
f 24/24/24 38/38/38 25/25/25
f 25/25/25 38/38/38 39/39/39
f 25/25/25 39/39/39 27/27/27
f 27/27/27 39/39/39 40/40/40
f 27/27/27 40/40/40 29/29/29
f 29/29/29 40/40/40 41/41/41
f 29/29/29 41/41/41 31/31/31
f 31/31/31 41/41/41 42/42/42
f 31/31/31 42/42/42 33/33/33
f 33/33/33 42/42/42 43/43/43
f 33/33/33 43/43/43 35/35/35
f 35/35/35 43/43/43 44/44/44
f 35/35/35 44/44/44 37/37/37
f 37/37/37 44/44/44 45/45/45
f 37/37/37 45/45/45 24/24/24
f 24/24/24 45/45/45 38/38/38
f 32/32/32 34/34/34 46/46/46
f 34/34/34 36/36/36 46/46/46
f 47/47/47 32/32/32 46/46/46
f 47/47/47 46/46/46 48/48/48
f 49/49/49 47/47/47 48/48/48
f 50/50/50 49/49/49 48/48/48
f 46/46/46 50/50/50 48/48/48
f 50/50/50 23/23/23 49/49/49
f 22/22/22 23/23/23 50/50/50
f 36/36/36 22/22/22 50/50/50
f 46/46/46 36/36/36 50/50/50
f 23/23/23 26/26/26 49/49/49
f 26/26/26 28/28/28 49/49/49
f 49/49/49 28/28/28 47/47/47
f 28/28/28 30/30/30 47/47/47
f 30/30/30 32/32/32 47/47/47
f 51/51/51 53/53/53 52/52/52
f 52/52/52 53/53/53 54/54/54
f 52/52/52 54/54/54 55/55/55
f 55/55/55 54/54/54 56/56/56
f 55/55/55 56/56/56 57/57/57
f 57/57/57 56/56/56 58/58/58
f 57/57/57 58/58/58 59/59/59
f 59/59/59 58/58/58 60/60/60
f 59/59/59 60/60/60 61/61/61
f 61/61/61 60/60/60 62/62/62
f 61/61/61 62/62/62 63/63/63
f 63/63/63 62/62/62 64/64/64
f 63/63/63 64/64/64 65/65/65
f 65/65/65 64/64/64 66/66/66
f 65/65/65 66/66/66 51/51/51
f 51/51/51 66/66/66 53/53/53
f 53/53/53 67/67/67 54/54/54
f 54/54/54 67/67/67 68/68/68
f 54/54/54 68/68/68 56/56/56
f 56/56/56 68/68/68 69/69/69
f 56/56/56 69/69/69 58/58/58
f 58/58/58 69/69/69 70/70/70
f 58/58/58 70/70/70 60/60/60
f 60/60/60 70/70/70 71/71/71
f 60/60/60 71/71/71 62/62/62
f 62/62/62 71/71/71 72/72/72
f 62/62/62 72/72/72 64/64/64
f 64/64/64 72/72/72 73/73/73
f 64/64/64 73/73/73 66/66/66
f 66/66/66 73/73/73 74/74/74
f 66/66/66 74/74/74 53/53/53
f 53/53/53 74/74/74 67/67/67
f 61/61/61 63/63/63 75/75/75
f 63/63/63 65/65/65 75/75/75
f 76/76/76 61/61/61 75/75/75
f 76/76/76 75/75/75 77/77/77
f 78/78/78 76/76/76 77/77/77
f 79/79/79 78/78/78 77/77/77
f 75/75/75 79/79/79 77/77/77
f 79/79/79 52/52/52 78/78/78
f 51/51/51 52/52/52 79/79/79
f 65/65/65 51/51/51 79/79/79
f 75/75/75 65/65/65 79/79/79
f 52/52/52 55/55/55 78/78/78
f 55/55/55 57/57/57 78/78/78
f 78/78/78 57/57/57 76/76/76
f 57/57/57 59/59/59 76/76/76
f 59/59/59 61/61/61 76/76/76
