#Tree2_(4)_1469_131.obj

v -0.9476866 2.593094 -1.24716
v -1.431892 2.457369 -1.18567
v -0.7596998 2.141748 -1.385762
v -1.388371 1.965532 -1.305931
v -1.743188 2.410608 -0.7887201
v -1.792537 1.904819 -0.7905536
v -1.699212 2.480202 -0.2888383
v -1.735442 1.995176 -0.141534
v -1.325739 2.625383 0.02115248
v -1.250541 2.183674 0.2609408
v -0.8415258 2.76111 -0.04033482
v -0.6218691 2.359892 0.1811076
v -0.5302368 2.807871 -0.4372872
v -0.2177039 2.420605 -0.3342696
v -0.5742052 2.738276 -0.9371688
v -0.2747985 2.330248 -0.9832891
v -0.997475 2.86026 -0.898318
v -1.446603 2.734369 -0.8412848
v -1.227296 2.916618 -0.6478302
v -1.405818 2.798922 -0.3776203
v -0.95669 2.924814 -0.4346553
v 2.077334 5.668246 -2.22586
v 1.2214 5.541389 -2.802408
v 2.515575 5.079143 -2.417614
v 1.359082 4.907739 -3.196618
v 0.2016313 5.496245 -2.604497
v -0.01877316 4.846745 -2.929209
v -0.3846029 5.559262 -1.748054
v -0.81086 4.931889 -1.77203
v -0.193895 5.693524 -0.7347771
v -0.5531824 5.113296 -0.4029407
v 0.6620451 5.820383 -0.1582238
v 0.6033123 5.284699 0.3760609
v 1.681815 5.865525 -0.3561367
v 1.98117 5.345695 0.108655
v 2.268049 5.802509 -1.212577
v 2.773253 5.26055 -1.048525
v 2.783706 4.389544 -2.480874
v 1.46008 4.193369 -3.372456
v -0.1168915 4.123561 -3.0664
v -1.023443 4.22101 -1.741995
v -0.7285311 4.428633 -0.1750536
v 0.5951018 4.624807 0.7165332
v 2.172073 4.694616 0.410477
v 3.078623 4.597167 -0.9139341
v 1.038744 6.029766 -0.9008335
v 0.3081511 5.921485 -1.392954
v 0.9201317 6.000619 -1.518622
v 0.8085338 5.867697 -2.123973
v 1.53912 5.975979 -1.631857
v 0.9061326 4.917651 -2.688765
v -0.07884807 4.917651 -2.280776
v 0.9061316 4.300433 -3.177898
v -0.4247197 4.300433 -2.626645
v -0.4868381 4.917651 -1.2958
v -0.9759694 4.300433 -1.295799
v -0.07884449 4.917651 -0.310822
v -0.4247179 4.300433 0.03504438
v 0.9061331 4.917651 0.09716852
v 0.9061336 4.300433 0.5863035
v 1.89111 4.917651 -0.3108214
v 2.236978 4.300433 0.03504645
v 2.299097 4.917651 -1.295798
v 2.788231 4.300433 -1.295799
v 1.891111 4.917651 -2.280776
v 2.236977 4.300433 -2.626645
v 0.9061286 3.575043 -3.613035
v -0.7324033 3.575043 -2.934331
v -1.411105 3.575043 -1.295799
v -0.7324017 3.575043 0.3427326
v 0.9061292 3.575043 1.021438
v 2.544669 3.575043 0.3427331
v 3.223368 3.575043 -1.295802
v 2.54466 3.575043 -2.934332
v 1.500617 5.200411 -1.049555
v 0.6598864 5.200411 -0.7013116
v 0.9061326 5.255187 -1.295797
v 0.3116409 5.200411 -1.542043
v 1.152372 5.200411 -1.890285

vn 0.8550573 0.4964109 -0.1498444
vn 0.6132189 0.324102 -0.7203615
vn 0.9577576 0.2762739 -0.07983227
vn 0.684527 0.08159798 -0.7244065
vn 0.02098894 0.2647371 -0.9640923
vn 0.01542038 0.01452599 -0.9997756
vn -0.5747125 0.3530899 -0.7382636
vn -0.6576078 0.114349 -0.7446318
vn -0.8249326 0.5374057 -0.1751613
vn -0.9403073 0.32259 -0.1084347
vn -0.5830943 0.7097141 0.395357
vn -0.6670766 0.5172651 0.5361397
vn 0.009136945 0.7690797 0.6390877
vn 0.002030998 0.5843369 0.8115087
vn 0.6048383 0.6807264 0.413258
vn 0.6750582 0.484515 0.5563648
vn 0.4173817 0.8906247 -0.1804997
vn 0.1202993 0.7524443 -0.6475769
vn 0.0277874 0.9536011 -0.299788
vn -0.3665294 0.8544849 -0.3681192
vn -0.06944805 0.9926653 0.09895713
vn 0.6142858 0.6742987 0.4098467
vn 0.78686 0.6064851 -0.1141375
vn 0.7210962 0.424205 0.5477868
vn 0.9348795 0.3401981 -0.1013203
vn 0.537199 0.5823539 -0.6101485
vn 0.6256019 0.310304 -0.7157749
vn 0.01155227 0.6160398 -0.7876304
vn -0.02556638 0.352034 -0.9356381
vn -0.4821659 0.6878113 -0.5426157
vn -0.6371799 0.4409437 -0.6321159
vn -0.6547396 0.7556249 -0.01863115
vn -0.8509629 0.5249509 0.01699185
vn -0.4050786 0.7797561 0.4773801
vn -0.5416844 0.554845 0.631447
vn 0.1205688 0.7460701 0.6548608
vn 0.1094835 0.513114 0.8513093
vn 0.75649 0.2220959 0.6151393
vn 0.9875651 0.131294 -0.08647127
vn 0.6532714 0.09898195 -0.7506258
vn -0.05056663 0.144088 -0.9882721
vn -0.7116497 0.2401891 -0.6602001
vn -0.9427248 0.3309911 0.04141086
vn -0.6084308 0.363303 0.7055657
vn 0.09540732 0.3181969 0.9432117
vn -0.07499436 0.9966761 0.03181938
vn -0.0338737 0.9638119 -0.2644225
vn 0.09609316 0.9906772 -0.09656514
vn 0.26278 0.9393159 -0.2205275
vn 0.2216593 0.9721802 0.07571436
vn 0.7055035 0.6802621 -0.1987674
vn 0.358317 0.6802611 -0.6394169
vn 0.8691438 0.4296829 -0.2448711
vn 0.4414274 0.4296831 -0.7877274
vn -0.1987674 0.6802621 -0.7055035
vn -0.2448711 0.4296829 -0.8691438
vn -0.6394162 0.6802614 -0.3583174
vn -0.7877274 0.4296831 -0.4414274
vn -0.7055035 0.6802621 0.1987674
vn -0.8691438 0.4296829 0.2448711
vn -0.3583162 0.6802614 0.6394169
vn -0.4414274 0.4296831 0.7877274
vn 0.1987674 0.6802621 0.7055035
vn 0.2448711 0.4296829 0.8691438
vn 0.6394169 0.6802614 0.3583162
vn 0.787728 0.4296827 0.4414268
vn 0.9369531 0.228989 -0.2639756
vn 0.4758669 0.2289891 -0.8491849
vn -0.2639756 0.228989 -0.9369531
vn -0.8491849 0.2289891 -0.4758669
vn -0.9369531 0.228989 0.2639756
vn -0.4758669 0.2289891 0.8491849
vn 0.2639756 0.228989 0.9369531
vn 0.8491854 0.228988 0.4758664
vn 0.01330276 0.9762389 0.2162882
vn -0.2162882 0.9762389 0.01330276
vn 0 1 0
vn -0.01330276 0.9762389 -0.2162882
vn 0.2162879 0.976239 -0.01330373

vt 0.3613281 0.484375
vt 0.3461914 0.479248
vt 0.3603516 0.498291
vt 0.3356934 0.4875488
vt 0.3395996 0.463623
vt 0.3259277 0.4626465
vt 0.3447266 0.4484863
vt 0.3364258 0.4379883
vt 0.3603516 0.4418945
vt 0.3613281 0.4282227
vt 0.3754883 0.4470215
vt 0.3859863 0.4387207
vt 0.3820801 0.4626465
vt 0.395752 0.463623
vt 0.3769531 0.4780273
vt 0.3852539 0.4882813
vt 0.3652344 0.4726563
vt 0.3513184 0.4677734
vt 0.3608398 0.4631348
vt 0.3564453 0.4538574
vt 0.3701172 0.4587402
vt 0.4470215 0.4243164
vt 0.4257813 0.4155273
vt 0.4472656 0.4458008
vt 0.4106445 0.4306641
vt 0.4169922 0.3942871
vt 0.3955078 0.3942871
vt 0.4257813 0.3728027
vt 0.4106445 0.3579102
vt 0.4470215 0.3642578
vt 0.4470215 0.3427734
vt 0.4685059 0.3730469
vt 0.4833984 0.357666
vt 0.4770508 0.3942871
vt 0.4985352 0.394043
vt 0.4682617 0.4155273
vt 0.4833984 0.4306641
vt 0.4470215 0.4689941
vt 0.394043 0.4470215
vt 0.3723145 0.394043
vt 0.394043 0.3413086
vt 0.4470215 0.3193359
vt 0.5 0.3413086
vt 0.5219727 0.3942871
vt 0.5 0.4472656
vt 0.4609375 0.3884277
vt 0.4411621 0.3803711
vt 0.4470215 0.3942871
vt 0.4331055 0.3999023
vt 0.4528809 0.407959
vt 0.4470215 0.4243164
vt 0.4257813 0.4155273
vt 0.4472656 0.4458008
vt 0.4106445 0.4306641
vt 0.4169922 0.3942871
vt 0.3955078 0.3942871
vt 0.4257813 0.3728027
vt 0.4106445 0.3579102
vt 0.4470215 0.3642578
vt 0.4470215 0.3427734
vt 0.4685059 0.3730469
vt 0.4833984 0.357666
vt 0.4770508 0.3942871
vt 0.4985352 0.394043
vt 0.4682617 0.4155273
vt 0.4833984 0.4306641
vt 0.4470215 0.4689941
vt 0.394043 0.4470215
vt 0.3723145 0.394043
vt 0.394043 0.3413086
vt 0.4470215 0.3193359
vt 0.5 0.3413086
vt 0.5219727 0.3942871
vt 0.5 0.4472656
vt 0.4609375 0.3884277
vt 0.4411621 0.3803711
vt 0.4470215 0.3942871
vt 0.4331055 0.3999023
vt 0.4528809 0.407959

g Tree2_(4)_1469_131
usemtl Tree2_(4)_1469_131
usemap Tree2_(4)_1469_131
f 1/1/1 3/3/3 2/2/2
f 2/2/2 3/3/3 4/4/4
f 2/2/2 4/4/4 5/5/5
f 5/5/5 4/4/4 6/6/6
f 5/5/5 6/6/6 7/7/7
f 7/7/7 6/6/6 8/8/8
f 7/7/7 8/8/8 9/9/9
f 9/9/9 8/8/8 10/10/10
f 9/9/9 10/10/10 11/11/11
f 11/11/11 10/10/10 12/12/12
f 11/11/11 12/12/12 13/13/13
f 13/13/13 12/12/12 14/14/14
f 13/13/13 14/14/14 15/15/15
f 15/15/15 14/14/14 16/16/16
f 15/15/15 16/16/16 1/1/1
f 1/1/1 16/16/16 3/3/3
f 15/15/15 1/1/1 17/17/17
f 1/1/1 2/2/2 17/17/17
f 17/17/17 2/2/2 18/18/18
f 2/2/2 5/5/5 18/18/18
f 5/5/5 7/7/7 18/18/18
f 17/17/17 18/18/18 19/19/19
f 18/18/18 20/20/20 19/19/19
f 18/18/18 7/7/7 20/20/20
f 7/7/7 9/9/9 20/20/20
f 9/9/9 11/11/11 20/20/20
f 20/20/20 21/21/21 19/19/19
f 21/21/21 17/17/17 19/19/19
f 20/20/20 11/11/11 21/21/21
f 11/11/11 13/13/13 21/21/21
f 13/13/13 15/15/15 21/21/21
f 21/21/21 15/15/15 17/17/17
f 22/22/22 24/24/24 23/23/23
f 23/23/23 24/24/24 25/25/25
f 23/23/23 25/25/25 26/26/26
f 26/26/26 25/25/25 27/27/27
f 26/26/26 27/27/27 28/28/28
f 28/28/28 27/27/27 29/29/29
f 28/28/28 29/29/29 30/30/30
f 30/30/30 29/29/29 31/31/31
f 30/30/30 31/31/31 32/32/32
f 32/32/32 31/31/31 33/33/33
f 32/32/32 33/33/33 34/34/34
f 34/34/34 33/33/33 35/35/35
f 34/34/34 35/35/35 36/36/36
f 36/36/36 35/35/35 37/37/37
f 36/36/36 37/37/37 22/22/22
f 22/22/22 37/37/37 24/24/24
f 24/24/24 38/38/38 25/25/25
f 25/25/25 38/38/38 39/39/39
f 25/25/25 39/39/39 27/27/27
f 27/27/27 39/39/39 40/40/40
f 27/27/27 40/40/40 29/29/29
f 29/29/29 40/40/40 41/41/41
f 29/29/29 41/41/41 31/31/31
f 31/31/31 41/41/41 42/42/42
f 31/31/31 42/42/42 33/33/33
f 33/33/33 42/42/42 43/43/43
f 33/33/33 43/43/43 35/35/35
f 35/35/35 43/43/43 44/44/44
f 35/35/35 44/44/44 37/37/37
f 37/37/37 44/44/44 45/45/45
f 37/37/37 45/45/45 24/24/24
f 24/24/24 45/45/45 38/38/38
f 32/32/32 34/34/34 46/46/46
f 34/34/34 36/36/36 46/46/46
f 47/47/47 32/32/32 46/46/46
f 47/47/47 46/46/46 48/48/48
f 49/49/49 47/47/47 48/48/48
f 50/50/50 49/49/49 48/48/48
f 46/46/46 50/50/50 48/48/48
f 50/50/50 23/23/23 49/49/49
f 22/22/22 23/23/23 50/50/50
f 36/36/36 22/22/22 50/50/50
f 46/46/46 36/36/36 50/50/50
f 23/23/23 26/26/26 49/49/49
f 26/26/26 28/28/28 49/49/49
f 49/49/49 28/28/28 47/47/47
f 28/28/28 30/30/30 47/47/47
f 30/30/30 32/32/32 47/47/47
f 51/51/51 53/53/53 52/52/52
f 52/52/52 53/53/53 54/54/54
f 52/52/52 54/54/54 55/55/55
f 55/55/55 54/54/54 56/56/56
f 55/55/55 56/56/56 57/57/57
f 57/57/57 56/56/56 58/58/58
f 57/57/57 58/58/58 59/59/59
f 59/59/59 58/58/58 60/60/60
f 59/59/59 60/60/60 61/61/61
f 61/61/61 60/60/60 62/62/62
f 61/61/61 62/62/62 63/63/63
f 63/63/63 62/62/62 64/64/64
f 63/63/63 64/64/64 65/65/65
f 65/65/65 64/64/64 66/66/66
f 65/65/65 66/66/66 51/51/51
f 51/51/51 66/66/66 53/53/53
f 53/53/53 67/67/67 54/54/54
f 54/54/54 67/67/67 68/68/68
f 54/54/54 68/68/68 56/56/56
f 56/56/56 68/68/68 69/69/69
f 56/56/56 69/69/69 58/58/58
f 58/58/58 69/69/69 70/70/70
f 58/58/58 70/70/70 60/60/60
f 60/60/60 70/70/70 71/71/71
f 60/60/60 71/71/71 62/62/62
f 62/62/62 71/71/71 72/72/72
f 62/62/62 72/72/72 64/64/64
f 64/64/64 72/72/72 73/73/73
f 64/64/64 73/73/73 66/66/66
f 66/66/66 73/73/73 74/74/74
f 66/66/66 74/74/74 53/53/53
f 53/53/53 74/74/74 67/67/67
f 61/61/61 63/63/63 75/75/75
f 63/63/63 65/65/65 75/75/75
f 76/76/76 61/61/61 75/75/75
f 76/76/76 75/75/75 77/77/77
f 78/78/78 76/76/76 77/77/77
f 79/79/79 78/78/78 77/77/77
f 75/75/75 79/79/79 77/77/77
f 79/79/79 52/52/52 78/78/78
f 51/51/51 52/52/52 79/79/79
f 65/65/65 51/51/51 79/79/79
f 75/75/75 65/65/65 79/79/79
f 52/52/52 55/55/55 78/78/78
f 55/55/55 57/57/57 78/78/78
f 78/78/78 57/57/57 76/76/76
f 57/57/57 59/59/59 76/76/76
f 59/59/59 61/61/61 76/76/76
