#Tree4_(15)_1315_297.obj

v -2.491713 6.129236 -0.4659429
v -3.228825 5.983608 -0.3656075
v -2.327987 5.560323 -0.9431472
v -3.285008 5.371249 -0.8128752
v -3.653047 5.739669 0.2133056
v -3.835789 5.054531 -0.06124965
v -3.51587 5.540316 0.9316698
v -3.657696 4.795703 0.8714338
v -2.897666 5.502325 1.368684
v -2.85505 4.746378 1.438823
v -2.16055 5.647953 1.268343
v -1.898026 4.935453 1.308553
v -1.73633 5.891891 0.6894326
v -1.347238 5.252171 0.5569239
v -1.873504 6.091246 -0.02893473
v -1.525333 5.511 -0.3757565
v -2.467364 6.30267 0.1721125
v -3.15107 6.167593 0.2651814
v -2.76571 6.271781 0.5914729
v -3.023834 5.982682 0.9315022
v -2.340126 6.117759 0.8384302
v 2.217851 7.354592 -2.494818
v 0.8755602 7.329135 -2.837819
v 2.611903 6.5694 -2.995752
v 0.7982511 6.534998 -3.459197
v -0.3162729 7.316662 -2.131082
v -0.8120809 6.518145 -2.504299
v -0.6594719 7.324482 -0.7886104
v -1.27579 6.528714 -0.690421
v 0.04700027 7.348016 0.4032008
v -0.3212398 6.560512 0.9198983
v 1.389316 7.37348 0.7462069
v 1.492415 6.594912 1.383345
v 2.581139 7.38595 0.03947157
v 3.102754 6.611767 0.4284432
v 2.924338 7.37813 -1.303
v 3.566461 6.601199 -1.385437
v 2.839005 5.645878 -3.269423
v 0.7632549 5.606506 -3.799846
v -1.079798 5.587218 -2.706949
v -1.610518 5.599314 -0.6309405
v -0.5180144 5.635708 1.212089
v 1.557739 5.675082 1.742514
v 3.400794 5.69437 0.6496145
v 3.931503 5.682274 -1.426398
v 1.552918 7.72575 -0.3300942
v 0.4071853 7.70402 -0.6228647
v 1.125375 7.781335 -1.05012
v 0.7001258 7.697345 -1.768742
v 1.845853 7.719076 -1.475971
v 0.4598765 6.511011 -2.618052
v -0.5894068 6.526672 -1.660244
v 0.1699498 5.761833 -3.293454
v -1.247787 5.782992 -1.999313
v -0.6596605 6.420261 -0.2451812
v -1.342707 5.639215 -0.08735987
v 0.2902854 6.254119 0.798207
v -0.05919493 5.414735 1.32241
v 1.703954 6.125566 0.85872
v 1.850872 5.241035 1.404172
v 2.753248 6.109905 -0.0990895
v 3.268625 5.219882 0.1100293
v 2.823494 6.216312 -1.514149
v 3.363543 5.363655 -1.801921
v 1.87355 6.382455 -2.55754
v 2.080031 5.588139 -3.211691
v -0.1083907 4.862029 -3.912849
v -1.853914 4.888076 -2.319512
v -1.970769 4.711063 0.03447427
v -0.3905182 4.434681 1.770182
v 1.961163 4.220827 1.87085
v 3.706691 4.194779 0.2775069
v 3.823545 4.371792 -2.076485
v 2.243293 4.648178 -3.812185
v 1.967902 6.614914 -0.813376
v 1.072276 6.628283 0.004166129
v 1.121014 6.764997 -0.844135
v 0.2614475 6.770093 -0.8864245
v 1.157063 6.756725 -1.703965
v -1.404492 4.948887 -2.365072
v -1.804188 4.708665 -2.802704
v -1.031506 4.433386 -2.283359
v -1.550449 4.121498 -2.851554
v -2.422604 4.545877 -2.809351
v -2.353363 3.910143 -2.860188
v -2.897482 4.555882 -2.381128
v -2.969914 3.923131 -2.304208
v -2.950643 4.732815 -1.76888
v -3.038936 4.152855 -1.509295
v -2.550945 4.973036 -1.331252
v -2.519994 4.464743 -0.9410995
v -1.932525 5.135823 -1.324597
v -1.717073 4.676098 -0.9324617
v -1.457651 5.125819 -1.752827
v -1.10052 4.663109 -1.488444
v -1.842204 5.217913 -2.146828
v -2.212943 4.995096 -2.552752
v -2.275557 5.217892 -2.184453
v -2.653413 5.004375 -2.155547
v -2.282673 5.22719 -1.749624

vn 0.5523863 0.7784641 -0.2980992
vn 0.109427 0.6549021 -0.7477493
vn 0.7198231 0.5973637 -0.3535696
vn 0.2193634 0.4577628 -0.8615875
vn -0.499498 0.4479261 -0.7415282
vn -0.4686027 0.223919 -0.8545595
vn -0.9176859 0.278779 -0.2830814
vn -0.9410752 0.03281599 -0.3366016
vn -0.9001696 0.2465458 0.3590404
vn -0.921285 -0.003602002 0.3888717
vn -0.4572093 0.3701069 0.8086907
vn -0.4208258 0.135999 0.8968891
vn 0.1517149 0.5770843 0.802469
vn 0.2671415 0.3698429 0.8898605
vn 0.5699029 0.7462302 0.3440221
vn 0.7396132 0.560946 0.3719031
vn 0.08162357 0.9965098 -0.01748838
vn -0.3660841 0.8641002 -0.3454175
vn -0.3207989 0.9454778 0.0562112
vn -0.6686919 0.7337341 0.1203559
vn -0.220985 0.8661441 0.4482856
vn 0.8337086 0.5128449 0.2047442
vn 0.6237711 0.737739 -0.2581685
vn 0.9613639 0.2558199 0.1016645
vn 0.7012943 0.5344177 -0.4717882
vn 0.1177519 0.8987413 -0.4223725
vn 0.07444227 0.7338651 -0.6752039
vn -0.3879289 0.9015374 -0.1916809
vn -0.5519917 0.7373294 -0.3894234
vn -0.5970509 0.7444899 0.2987725
vn -0.8110504 0.5427799 0.2181454
vn -0.3871127 0.5195948 0.7616857
vn -0.5509806 0.2641829 0.7915983
vn 0.1189064 0.3585939 0.9258897
vn 0.07587302 0.064735 0.995014
vn 0.6245875 0.3557971 0.6951971
vn 0.7023057 0.06127099 0.7092339
vn 0.9980471 0.05827697 0.02249256
vn 0.716942 0.359409 -0.5973437
vn 0.03938675 0.5749891 -0.8172126
vn -0.6377156 0.5787333 -0.5083175
vn -0.9177282 0.3684478 0.1483955
vn -0.6366228 0.067316 0.7682319
vn 0.04093328 -0.1482641 0.9881004
vn 0.7180352 -0.152008 0.6792048
vn 0.1240012 0.8233867 0.5537673
vn -0.03668697 0.9434429 0.329499
vn 0.1721245 0.9144735 0.3662122
vn 0.2123658 0.9636868 0.1618904
vn 0.3730535 0.8436309 0.3861581
vn 0.5205666 0.8238653 -0.2241796
vn -0.02076761 0.959092 -0.282332
vn 0.5753752 0.6650369 -0.476098
vn -0.09151964 0.8316296 -0.5477374
vn -0.4855953 0.8739552 0.01998833
vn -0.6641631 0.7267453 -0.1752959
vn -0.6016273 0.618327 0.505684
vn -0.807108 0.4118249 0.4230568
vn -0.3008932 0.34195 0.8902435
vn -0.4366197 0.07134299 0.896813
vn 0.2404419 0.206723 0.9483951
vn 0.2302752 -0.09525002 0.9684528
vn 0.7052695 0.29186 0.6460748
vn 0.8029191 0.009635 0.5960101
vn 0.8213006 0.5474889 0.1603783
vn 0.9458637 0.324556 -0.002341747
vn 0.5824476 0.5162241 -0.6279073
vn -0.1364771 0.6958141 -0.705136
vn -0.7537974 0.5827472 -0.3036369
vn -0.9078953 0.2432561 0.3413981
vn -0.5085017 -0.123789 0.8521164
vn 0.2104241 -0.303379 0.9293455
vn 0.8277445 -0.190312 0.5278452
vn 0.9818412 0.1491791 -0.1171898
vn 0.3039832 0.7373568 0.6032405
vn 0.001701146 0.7851081 0.6193565
vn 0.1614623 0.8568879 0.4895643
vn 0.01126927 0.9356971 0.3526242
vn 0.313551 0.8879461 0.3365079
vn 0.7529864 0.6109444 0.2444557
vn 0.8644226 0.3693524 -0.3411047
vn 0.824828 0.4137206 0.3853493
vn 0.950729 0.1407688 -0.276222
vn 0.4970507 0.2056359 -0.8430033
vn 0.5356708 -0.04420039 -0.8432693
vn -0.1339256 0.2156964 -0.9672327
vn -0.1772122 -0.03283307 -0.9836249
vn -0.6588906 0.3936419 -0.6410221
vn -0.7703211 0.1682102 -0.6150698
vn -0.7703267 0.6352329 -0.05546078
vn -0.896222 0.4411621 0.04650092
vn -0.4029544 0.7989506 0.4464368
vn -0.4811626 0.6261312 0.6135489
vn 0.2280217 0.7888891 0.5706664
vn 0.2317196 0.6147642 0.7539039
vn 0.3600262 0.9311942 -0.0570839
vn 0.3671505 0.7211424 -0.5874983
vn 0.08679567 0.9266384 -0.3657975
vn -0.2011881 0.764573 -0.6123329
vn -0.2083132 0.9746255 -0.08191895

vt 0.3613281 0.484375
vt 0.3461914 0.479248
vt 0.3603516 0.498291
vt 0.3356934 0.4875488
vt 0.3395996 0.463623
vt 0.3259277 0.4626465
vt 0.3447266 0.4484863
vt 0.3364258 0.4379883
vt 0.3603516 0.4418945
vt 0.3613281 0.4282227
vt 0.3754883 0.4470215
vt 0.3859863 0.4387207
vt 0.3820801 0.4626465
vt 0.395752 0.463623
vt 0.3769531 0.4780273
vt 0.3852539 0.4882813
vt 0.3652344 0.4726563
vt 0.3513184 0.4677734
vt 0.3608398 0.4631348
vt 0.3564453 0.4538574
vt 0.3701172 0.4587402
vt 0.4470215 0.4243164
vt 0.4257813 0.4155273
vt 0.4472656 0.4458008
vt 0.4106445 0.4306641
vt 0.4169922 0.3942871
vt 0.3955078 0.3942871
vt 0.4257813 0.3728027
vt 0.4106445 0.3579102
vt 0.4470215 0.3642578
vt 0.4470215 0.3427734
vt 0.4685059 0.3730469
vt 0.4833984 0.357666
vt 0.4770508 0.3942871
vt 0.4985352 0.394043
vt 0.4682617 0.4155273
vt 0.4833984 0.4306641
vt 0.4470215 0.4689941
vt 0.394043 0.4470215
vt 0.3723145 0.394043
vt 0.394043 0.3413086
vt 0.4470215 0.3193359
vt 0.5 0.3413086
vt 0.5219727 0.3942871
vt 0.5 0.4472656
vt 0.4609375 0.3884277
vt 0.4411621 0.3803711
vt 0.4470215 0.3942871
vt 0.4331055 0.3999023
vt 0.4528809 0.407959
vt 0.4470215 0.4243164
vt 0.4257813 0.4155273
vt 0.4472656 0.4458008
vt 0.4106445 0.4306641
vt 0.4169922 0.3942871
vt 0.3955078 0.3942871
vt 0.4257813 0.3728027
vt 0.4106445 0.3579102
vt 0.4470215 0.3642578
vt 0.4470215 0.3427734
vt 0.4685059 0.3730469
vt 0.4833984 0.357666
vt 0.4770508 0.3942871
vt 0.4985352 0.394043
vt 0.4682617 0.4155273
vt 0.4833984 0.4306641
vt 0.4470215 0.4689941
vt 0.394043 0.4470215
vt 0.3723145 0.394043
vt 0.394043 0.3413086
vt 0.4470215 0.3193359
vt 0.5 0.3413086
vt 0.5219727 0.3942871
vt 0.5 0.4472656
vt 0.4609375 0.3884277
vt 0.4411621 0.3803711
vt 0.4470215 0.3942871
vt 0.4331055 0.3999023
vt 0.4528809 0.407959
vt 0.3613281 0.484375
vt 0.3461914 0.479248
vt 0.3603516 0.498291
vt 0.3356934 0.4875488
vt 0.3395996 0.463623
vt 0.3259277 0.4626465
vt 0.3447266 0.4484863
vt 0.3364258 0.4379883
vt 0.3603516 0.4418945
vt 0.3613281 0.4282227
vt 0.3754883 0.4470215
vt 0.3859863 0.4387207
vt 0.3820801 0.4626465
vt 0.395752 0.463623
vt 0.3769531 0.4780273
vt 0.3852539 0.4882813
vt 0.3652344 0.4726563
vt 0.3513184 0.4677734
vt 0.3608398 0.4631348
vt 0.3564453 0.4538574
vt 0.3701172 0.4587402

g Tree4_(15)_1315_297
usemtl Tree4_(15)_1315_297
usemap Tree4_(15)_1315_297
f 1/1/1 3/3/3 2/2/2
f 2/2/2 3/3/3 4/4/4
f 2/2/2 4/4/4 5/5/5
f 5/5/5 4/4/4 6/6/6
f 5/5/5 6/6/6 7/7/7
f 7/7/7 6/6/6 8/8/8
f 7/7/7 8/8/8 9/9/9
f 9/9/9 8/8/8 10/10/10
f 9/9/9 10/10/10 11/11/11
f 11/11/11 10/10/10 12/12/12
f 11/11/11 12/12/12 13/13/13
f 13/13/13 12/12/12 14/14/14
f 13/13/13 14/14/14 15/15/15
f 15/15/15 14/14/14 16/16/16
f 15/15/15 16/16/16 1/1/1
f 1/1/1 16/16/16 3/3/3
f 15/15/15 1/1/1 17/17/17
f 1/1/1 2/2/2 17/17/17
f 17/17/17 2/2/2 18/18/18
f 2/2/2 5/5/5 18/18/18
f 5/5/5 7/7/7 18/18/18
f 17/17/17 18/18/18 19/19/19
f 18/18/18 20/20/20 19/19/19
f 18/18/18 7/7/7 20/20/20
f 7/7/7 9/9/9 20/20/20
f 9/9/9 11/11/11 20/20/20
f 20/20/20 21/21/21 19/19/19
f 21/21/21 17/17/17 19/19/19
f 20/20/20 11/11/11 21/21/21
f 11/11/11 13/13/13 21/21/21
f 13/13/13 15/15/15 21/21/21
f 21/21/21 15/15/15 17/17/17
f 22/22/22 24/24/24 23/23/23
f 23/23/23 24/24/24 25/25/25
f 23/23/23 25/25/25 26/26/26
f 26/26/26 25/25/25 27/27/27
f 26/26/26 27/27/27 28/28/28
f 28/28/28 27/27/27 29/29/29
f 28/28/28 29/29/29 30/30/30
f 30/30/30 29/29/29 31/31/31
f 30/30/30 31/31/31 32/32/32
f 32/32/32 31/31/31 33/33/33
f 32/32/32 33/33/33 34/34/34
f 34/34/34 33/33/33 35/35/35
f 34/34/34 35/35/35 36/36/36
f 36/36/36 35/35/35 37/37/37
f 36/36/36 37/37/37 22/22/22
f 22/22/22 37/37/37 24/24/24
f 24/24/24 38/38/38 25/25/25
f 25/25/25 38/38/38 39/39/39
f 25/25/25 39/39/39 27/27/27
f 27/27/27 39/39/39 40/40/40
f 27/27/27 40/40/40 29/29/29
f 29/29/29 40/40/40 41/41/41
f 29/29/29 41/41/41 31/31/31
f 31/31/31 41/41/41 42/42/42
f 31/31/31 42/42/42 33/33/33
f 33/33/33 42/42/42 43/43/43
f 33/33/33 43/43/43 35/35/35
f 35/35/35 43/43/43 44/44/44
f 35/35/35 44/44/44 37/37/37
f 37/37/37 44/44/44 45/45/45
f 37/37/37 45/45/45 24/24/24
f 24/24/24 45/45/45 38/38/38
f 32/32/32 34/34/34 46/46/46
f 34/34/34 36/36/36 46/46/46
f 47/47/47 32/32/32 46/46/46
f 47/47/47 46/46/46 48/48/48
f 49/49/49 47/47/47 48/48/48
f 50/50/50 49/49/49 48/48/48
f 46/46/46 50/50/50 48/48/48
f 50/50/50 23/23/23 49/49/49
f 22/22/22 23/23/23 50/50/50
f 36/36/36 22/22/22 50/50/50
f 46/46/46 36/36/36 50/50/50
f 23/23/23 26/26/26 49/49/49
f 26/26/26 28/28/28 49/49/49
f 49/49/49 28/28/28 47/47/47
f 28/28/28 30/30/30 47/47/47
f 30/30/30 32/32/32 47/47/47
f 51/51/51 53/53/53 52/52/52
f 52/52/52 53/53/53 54/54/54
f 52/52/52 54/54/54 55/55/55
f 55/55/55 54/54/54 56/56/56
f 55/55/55 56/56/56 57/57/57
f 57/57/57 56/56/56 58/58/58
f 57/57/57 58/58/58 59/59/59
f 59/59/59 58/58/58 60/60/60
f 59/59/59 60/60/60 61/61/61
f 61/61/61 60/60/60 62/62/62
f 61/61/61 62/62/62 63/63/63
f 63/63/63 62/62/62 64/64/64
f 63/63/63 64/64/64 65/65/65
f 65/65/65 64/64/64 66/66/66
f 65/65/65 66/66/66 51/51/51
f 51/51/51 66/66/66 53/53/53
f 53/53/53 67/67/67 54/54/54
f 54/54/54 67/67/67 68/68/68
f 54/54/54 68/68/68 56/56/56
f 56/56/56 68/68/68 69/69/69
f 56/56/56 69/69/69 58/58/58
f 58/58/58 69/69/69 70/70/70
f 58/58/58 70/70/70 60/60/60
f 60/60/60 70/70/70 71/71/71
f 60/60/60 71/71/71 62/62/62
f 62/62/62 71/71/71 72/72/72
f 62/62/62 72/72/72 64/64/64
f 64/64/64 72/72/72 73/73/73
f 64/64/64 73/73/73 66/66/66
f 66/66/66 73/73/73 74/74/74
f 66/66/66 74/74/74 53/53/53
f 53/53/53 74/74/74 67/67/67
f 61/61/61 63/63/63 75/75/75
f 63/63/63 65/65/65 75/75/75
f 76/76/76 61/61/61 75/75/75
f 76/76/76 75/75/75 77/77/77
f 78/78/78 76/76/76 77/77/77
f 79/79/79 78/78/78 77/77/77
f 75/75/75 79/79/79 77/77/77
f 79/79/79 52/52/52 78/78/78
f 51/51/51 52/52/52 79/79/79
f 65/65/65 51/51/51 79/79/79
f 75/75/75 65/65/65 79/79/79
f 52/52/52 55/55/55 78/78/78
f 55/55/55 57/57/57 78/78/78
f 78/78/78 57/57/57 76/76/76
f 57/57/57 59/59/59 76/76/76
f 59/59/59 61/61/61 76/76/76
f 80/80/80 82/82/82 81/81/81
f 81/81/81 82/82/82 83/83/83
f 81/81/81 83/83/83 84/84/84
f 84/84/84 83/83/83 85/85/85
f 84/84/84 85/85/85 86/86/86
f 86/86/86 85/85/85 87/87/87
f 86/86/86 87/87/87 88/88/88
f 88/88/88 87/87/87 89/89/89
f 88/88/88 89/89/89 90/90/90
f 90/90/90 89/89/89 91/91/91
f 90/90/90 91/91/91 92/92/92
f 92/92/92 91/91/91 93/93/93
f 92/92/92 93/93/93 94/94/94
f 94/94/94 93/93/93 95/95/95
f 94/94/94 95/95/95 80/80/80
f 80/80/80 95/95/95 82/82/82
f 94/94/94 80/80/80 96/96/96
f 80/80/80 81/81/81 96/96/96
f 96/96/96 81/81/81 97/97/97
f 81/81/81 84/84/84 97/97/97
f 84/84/84 86/86/86 97/97/97
f 96/96/96 97/97/97 98/98/98
f 97/97/97 99/99/99 98/98/98
f 97/97/97 86/86/86 99/99/99
f 86/86/86 88/88/88 99/99/99
f 88/88/88 90/90/90 99/99/99
f 99/99/99 100/100/100 98/98/98
f 100/100/100 96/96/96 98/98/98
f 99/99/99 90/90/90 100/100/100
f 90/90/90 92/92/92 100/100/100
f 92/92/92 94/94/94 100/100/100
f 100/100/100 94/94/94 96/96/96
