#Tree4_(17)_3128_520.obj

v 1.648997 -0.1087268 -0.2710429
v 0.9947522 1.197125 0.2054716
v 0.9725476 0.9077535 -1.046142
v 1.113348 -0.007759798 -1.027271
v 0.8603963 1.998779 -0.2360944
v 0.4648574 1.998779 -1.114193
v 0.8710235 3.322641 -0.8530291
v 1.077955 3.250427 -0.3773527
v 0.2644571 3.499787 -1.126116
v -0.4900598 1.998779 -1.477914
v -0.4019078 3.677775 -0.9827656
v -1.321092 2.538194 -1.155862
v -0.72828 3.75481 -0.3128659
v -1.693691 2.566373 -0.3302098
v -0.4807229 3.682956 -0.02716121
v -1.444986 1.998779 0.6420001
v 0.1530239 3.507116 0.2253126
v -0.4900611 1.998779 1.005721
v 0.7959675 3.327577 0.05719851
v 0.4648567 1.998779 0.642
v 1.077955 3.250427 -0.3773527
v 0.8603963 1.998779 -0.2360944
v 1.207074 5.526218 -0.3408349
v 0.6444223 5.526218 -0.5738948
v 0.6444223 5.526218 -0.5738948
v 0.4113584 5.526218 -0.01124335
v 0.6444223 5.526218 -0.5738948
v 0.9740165 5.526218 0.2218112
v 1.207074 5.526218 -0.3408349
v 0.9740165 5.526218 0.2218112
v 0.9947522 1.197125 0.2054716
v 0.7958988 0.6271882 1.412253
v 1.312921 -0.08299191 0.6160767
v 1.331269 -0.2933443 1.523449
v 0.9643131 -1.052223 2.854056
v 0.4113584 5.526218 -0.01124335
v 0.4113584 5.526218 -0.01124335
v 0.9740165 5.526218 0.2218112
v -0.3533559 1.089863 1.163906
v 0.5105623 -0.2495115 1.571657
v -0.315433 -0.007759798 1.207775
v -1.437689 0.01500591 1.313032
v -1.15544 -0.6044034 1.360409
v -2.090555 -0.599919 2.243827
v -1.208844 0.769768 0.4236603
v -1.840532 1.998779 -0.2360948
v -1.425901 1.307367 -0.4120866
v -1.444986 1.998779 -1.114193
v -0.6717074 0.9077535 -1.046142
v 0.1186058 1.206413 -1.30878
v 0.264171 0.2683377 -1.970745
v 0.8155908 -0.2463671 -1.928795
v -0.4572389 -0.1337112 -1.02727
v -0.06903582 -0.2463671 -1.928795
v -1.63036 0.07463427 -0.7411514
v -1.336921 -0.4881959 -0.969457
v -1.63036 0.07463427 -0.7411514
v 0.264171 0.2683377 -1.970745
v -0.001975806 -0.8139682 -3.040454
v -0.001975806 -0.8139682 -3.040454
v 0.264171 0.2683377 -1.970745
v -1.63036 0.07463427 -0.7411514
v -2.466259 -1.130942 -1.21601
v 2.127042 -0.2192227 -0.1883507
v 2.453198 0.3101302 0.2113374
v 0.9947522 1.197125 0.2054716
v 3.156651 -0.826737 0.3388993
v 2.453198 0.3101302 0.2113374
v 2.089911 -0.1782409 0.4586755
v 1.312921 -0.08299191 0.6160767
v 3.156651 -0.826737 0.3388993
v -1.143342 -0.1337112 0.3631079
v -1.617382 -0.4927883 -0.4026591
v -1.63036 0.07463427 -0.7411514
v -2.466259 -1.130942 -1.21601
v -1.657253 -0.4339224 0.8776582
v -1.437689 0.01500591 1.313032
v -2.090555 -0.599919 2.243827
v -1.63036 0.07463427 -0.7411514
v -1.437689 0.01500591 1.313032
v 0.7958988 0.6271882 1.412253
v 0.9643131 -1.052223 2.854056
v -0.8967389 2.926876 -0.3255618
v -2.091599 4.022573 0.8340368
v -0.5626184 2.839557 -0.08052881
v -1.651235 4.286763 0.8074982
v -0.2117878 3.16222 -0.0401217
v 0.01893296 3.308532 -0.4167134
v -1.753204 4.405365 0.3179953
v -0.232473 3.463918 -0.7067481
v -0.274486 3.301548 -1.000765
v -2.193564 4.141176 0.344534
v -0.749725 2.880481 -0.974353
v -0.9401274 2.765478 -0.6139498
v -0.9401274 2.765478 -0.6139498
v -2.193564 4.141176 0.344534
v -2.53977 5.52331 0.4039623
v -2.475173 5.523309 0.7358135
v -2.833233 5.52331 0.4257455
v -1.753204 4.405365 0.3179953
v -2.091599 4.022573 0.8340368
v -2.475173 5.523309 0.7358135
v -2.768631 5.52331 0.7576015
v -2.833233 5.52331 0.4257455
v -0.8058622 1.713094 -0.9715582
v -1.940494 3.014723 -1.967193
v -1.081216 1.483486 -0.7462562
v -2.036596 3.105563 -1.470271
v -1.238564 1.65237 -0.3272756
v -0.9392029 1.75097 0.01495438
v -1.568337 3.310784 -1.418388
v -0.6466336 2.019552 -0.1022542
v -0.3244024 1.91954 -0.1295052
v -1.472232 3.219944 -1.915313
v -0.1928622 1.695827 -0.7095919
v -0.4890432 1.613798 -1.000994
v -0.4890432 1.613798 -1.000994
v -1.472232 3.219944 -1.915313
v -2.014299 4.672457 -1.985743
v -2.346192 4.609434 -1.998887
v -1.987468 4.774529 -2.260434
v -1.568337 3.310784 -1.418388
v -1.940494 3.014723 -1.967193
v -2.346192 4.609434 -1.998887
v -2.319368 4.711502 -2.273577
v -1.987468 4.774529 -2.260434

vn 0.7585673 0.4752699 -0.4457513
vn 0.8320897 0.4740199 0.2879787
vn 0.8336386 0.3570758 -0.4213592
vn 0.8937149 0.3716308 -0.2513249
vn 0.9589822 0.139459 0.246788
vn 0.765977 0.06812399 -0.6392481
vn 0.8358905 -0.034691 -0.5477989
vn 0.9510772 -0.229188 0.2071835
vn 0.3132104 0.2846749 -0.9060128
vn 0.1636294 0.03371199 -0.9859456
vn -0.3148827 0.548427 -0.774646
vn -0.4122267 0.2998459 -0.8603264
vn -0.7501619 0.6427877 -0.1551809
vn -0.8741298 0.4594558 -0.1574722
vn -0.6963152 0.490514 0.5239668
vn -0.8425963 0.1787599 0.5080122
vn -0.258598 0.1775949 0.9495193
vn -0.305796 0.2419801 0.9208336
vn 0.4598827 -0.138798 0.8770651
vn 0.4036137 0.2325539 0.8848811
vn 0.9510772 -0.229188 0.2071835
vn 0.9589822 0.139459 0.246788
vn 0.8817002 -0.3458401 0.320935
vn -0.2045442 0.6795754 -0.7045133
vn -0.2045442 0.6795754 -0.7045133
vn -0.6641967 0.2286319 0.7117373
vn -0.2045442 0.6795754 -0.7045133
vn 0.3942001 -0.389785 0.8322703
vn 0.8817002 -0.3458401 0.320935
vn 0.3942001 -0.389785 0.8322703
vn 0.8320897 0.4740199 0.2879787
vn 0.3140951 0.360433 0.8783122
vn 0.4577587 0.4422792 0.7712628
vn 0.3853078 0.6618493 0.6430346
vn -0.4202999 0.06659099 0.9049385
vn -0.6641967 0.2286319 0.7117373
vn -0.6641967 0.2286319 0.7117373
vn 0.3942001 -0.389785 0.8322703
vn -0.4000184 0.049349 0.9151775
vn -0.4202999 0.06659099 0.9049385
vn -0.8532432 -0.3025329 -0.4247938
vn -0.4000184 0.049349 0.9151775
vn -0.4202999 0.06659099 0.9049385
vn -0.940457 -0.191461 0.2808617
vn -0.910584 -0.1878229 0.368184
vn -0.9575357 0.126915 -0.2588783
vn -0.8532432 -0.3025329 -0.4247938
vn -0.4827605 0.07395096 -0.8726245
vn -0.2989428 -0.251599 -0.9205059
vn 0.2223781 -0.101271 -0.9696866
vn 0.2223781 -0.101271 -0.9696866
vn 0.4811458 0.33168 -0.8114722
vn -0.3483592 0.05232403 -0.9358996
vn -0.2009163 -0.22901 -0.9524636
vn -0.8532432 -0.3025329 -0.4247938
vn -0.2009163 -0.22901 -0.9524636
vn -0.8532432 -0.3025329 -0.4247938
vn 0.2223781 -0.101271 -0.9696866
vn 0.4811458 0.33168 -0.8114722
vn 0.4811458 0.33168 -0.8114722
vn 0.2223781 -0.101271 -0.9696866
vn -0.8532432 -0.3025329 -0.4247938
vn -0.2009163 -0.22901 -0.9524636
vn 0.5768201 0.8161831 -0.03351934
vn 0.798783 0.5997311 0.04762666
vn 0.8320897 0.4740199 0.2879787
vn 0.3853078 0.6618493 0.6430346
vn 0.798783 0.5997311 0.04762666
vn 0.3853078 0.6618493 0.6430346
vn 0.4577587 0.4422792 0.7712628
vn 0.3853078 0.6618493 0.6430346
vn -0.9764932 0.1424 -0.1618126
vn -0.940457 -0.191461 0.2808617
vn -0.8532432 -0.3025329 -0.4247938
vn -0.2009163 -0.22901 -0.9524636
vn -0.940457 -0.191461 0.2808617
vn -0.4000184 0.049349 0.9151775
vn -0.940457 -0.191461 0.2808617
vn -0.8532432 -0.3025329 -0.4247938
vn -0.4000184 0.049349 0.9151775
vn 0.3140951 0.360433 0.8783122
vn -0.4202999 0.06659099 0.9049385
vn -0.4806803 -0.8628667 0.156229
vn -0.7757338 -0.5434508 0.3207775
vn -0.07624625 -0.750657 0.6562777
vn 0.2140112 0.09143602 0.9725423
vn 0.49753 -0.114192 0.8598976
vn 0.7099417 0.5856197 0.3911932
vn 0.7142359 0.6840867 -0.1479607
vn 0.4997436 0.835787 -0.2274127
vn 0.02323538 0.6189021 -0.7851243
vn -0.3703974 -0.155831 -0.9157087
vn -0.362954 0.190956 -0.9120308
vn -0.6625902 -0.4627653 -0.5889164
vn -0.6625902 -0.4627653 -0.5889164
vn -0.3703974 -0.155831 -0.9157087
vn 0.8451086 0.370975 -0.3849269
vn 0.02101667 0.4915891 0.8705736
vn -0.2372958 -0.3125331 -0.91979
vn 0.7142359 0.6840867 -0.1479607
vn -0.7757338 -0.5434508 0.3207775
vn 0.02101667 0.4915891 0.8705736
vn -0.6403651 0.1621339 0.750763
vn -0.2372958 -0.3125331 -0.91979
vn 0.147313 -0.6759275 -0.7220947
vn -0.04578793 -0.3177881 -0.9470555
vn -0.4213777 -0.8002949 -0.4265779
vn -0.9844416 -0.175644 0.004888877
vn -0.8682773 -0.4349001 0.2386555
vn -0.6339382 0.2376339 0.7359705
vn -0.1456091 0.4337419 0.889194
vn -0.07542336 0.6587548 0.7485675
vn 0.5863591 0.7206411 0.3699448
vn 0.9710858 0.1549622 -0.1816014
vn 0.8773647 0.4731117 -0.07997784
vn 0.7836277 -0.1000433 -0.6131222
vn 0.7836277 -0.1000433 -0.6131222
vn 0.9710858 0.1549622 -0.1816014
vn 0.1404817 0.1483921 0.9788998
vn -0.959924 0.2770755 -0.04213159
vn 0.9945217 -0.03210646 -0.0994776
vn -0.1456091 0.4337419 0.889194
vn -0.04578793 -0.3177881 -0.9470555
vn -0.959924 0.2770755 -0.04213159
vn -0.6581847 0.2076827 -0.7236441
vn 0.9945217 -0.03210646 -0.0994776

vt 0.03128052 0.3469238
vt 0.02098083 0.3811035
vt 0.04177856 0.3684082
vt 0.03814697 0.3459473
vt 0.02276611 0.3959961
vt 0.04354858 0.395752
vt 0.04064941 0.434082
vt 0.02258301 0.435791
vt 0.06384277 0.4343262
vt 0.06234741 0.3962402
vt 0.08276367 0.4355469
vt 0.08111572 0.407959
vt 0.09765625 0.4365234
vt 0.09967041 0.4067383
vt 0.1126099 0.4375
vt 0.1130981 0.3928223
vt 0.130127 0.439209
vt 0.1300049 0.3950195
vt 0.1516113 0.4384766
vt 0.1491699 0.3989258
vt 0.1682129 0.4372559
vt 0.1669922 0.4020996
vt 0.04025269 0.4936523
vt 0.06768799 0.4929199
vt 0.06768799 0.4929199
vt 0.1057739 0.4926758
vt 0.06768799 0.4929199
vt 0.1367188 0.4934082
vt 0.1651611 0.4941406
vt 0.1367188 0.4934082
vt 0.1706543 0.3869629
vt 0.1635742 0.3657227
vt 0.1831055 0.3806152
vt 0.18396 0.348877
vt 0.1702881 0.3166504
vt 0.1057739 0.4926758
vt 0.1057739 0.4926758
vt 0.1367188 0.4934082
vt 0.1357422 0.3745117
vt 0.1550293 0.3452148
vt 0.1451416 0.3503418
vt 0.1269531 0.3393555
vt 0.138916 0.3330078
vt 0.1308594 0.3168945
vt 0.1133423 0.3647461
vt 0.09954834 0.3955078
vt 0.09466553 0.3771973
vt 0.08105469 0.3979492
vt 0.07415771 0.3681641
vt 0.05825806 0.3747559
vt 0.05395508 0.3427734
vt 0.04519653 0.3320313
vt 0.07104492 0.345459
vt 0.05923462 0.3339844
vt 0.08972168 0.3439941
vt 0.08074951 0.3334961
vt 0.08972168 0.3439941
vt 0.05395508 0.3427734
vt 0.05123901 0.3146973
vt 0.05123901 0.3146973
vt 0.05395508 0.3427734
vt 0.08972168 0.3439941
vt 0.08709717 0.3164063
vt 0.02653503 0.3339844
vt 0.01992798 0.3444824
vt 0.02098083 0.3811035
vt 0.02056885 0.315918
vt 0.01992798 0.3444824
vt 0.00907135 0.3374023
vt 0.004844666 0.3596191
vt 0.02056885 0.315918
vt 0.1107178 0.3481445
vt 0.09783936 0.3349609
vt 0.08972168 0.3439941
vt 0.08709717 0.3164063
vt 0.1159668 0.3349609
vt 0.1269531 0.3393555
vt 0.1308594 0.3168945
vt 0.08972168 0.3439941
vt 0.1269531 0.3393555
vt 0.1635742 0.3657227
vt 0.1702881 0.3166504
vt 0.1189575 0.3955078
vt 0.1228027 0.4504395
vt 0.1253662 0.3933105
vt 0.1341553 0.4477539
vt 0.1331787 0.3930664
vt 0.1392822 0.3894043
vt 0.1452637 0.4487305
vt 0.1452637 0.3918457
vt 0.1491699 0.3884277
vt 0.1569824 0.4511719
vt 0.1594238 0.3896484
vt 0.1643066 0.3933105
vt 0.1153564 0.3920898
vt 0.1113892 0.4519043
vt 0.1470947 0.4968262
vt 0.1340332 0.4968262
vt 0.1560059 0.4968262
vt 0.1452637 0.4487305
vt 0.1228027 0.4504395
vt 0.1340332 0.4968262
vt 0.12146 0.4968262
vt 0.1110229 0.4968262
vt 0.07354736 0.3759766
vt 0.07739258 0.4306641
vt 0.07989502 0.3737793
vt 0.08874512 0.4282227
vt 0.08770752 0.373291
vt 0.09381104 0.369873
vt 0.09985352 0.4291992
vt 0.09985352 0.3720703
vt 0.1037598 0.3688965
vt 0.1115723 0.4313965
vt 0.1139526 0.3701172
vt 0.1188965 0.3737793
vt 0.06994629 0.3725586
vt 0.065979 0.4321289
vt 0.1016235 0.4770508
vt 0.08856201 0.4770508
vt 0.1105957 0.4770508
vt 0.09985352 0.4291992
vt 0.07739258 0.4306641
vt 0.08856201 0.4770508
vt 0.07598877 0.4770508
vt 0.06555176 0.4770508

g Tree4_(17)_3128_520
usemtl Tree4_(17)_3128_520
usemap Tree4_(17)_3128_520
f 1/1/1 3/3/3 2/2/2
f 1/1/1 4/4/4 3/3/3
f 3/3/3 5/5/5 2/2/2
f 3/3/3 6/6/6 5/5/5
f 5/5/5 6/6/6 7/7/7
f 5/5/5 7/7/7 8/8/8
f 6/6/6 9/9/9 7/7/7
f 6/6/6 10/10/10 9/9/9
f 10/10/10 11/11/11 9/9/9
f 10/10/10 12/12/12 11/11/11
f 12/12/12 13/13/13 11/11/11
f 12/12/12 14/14/14 13/13/13
f 14/14/14 15/15/15 13/13/13
f 14/14/14 16/16/16 15/15/15
f 16/16/16 17/17/17 15/15/15
f 16/16/16 18/18/18 17/17/17
f 18/18/18 19/19/19 17/17/17
f 18/18/18 20/20/20 19/19/19
f 20/20/20 21/21/21 19/19/19
f 20/20/20 22/22/22 21/21/21
f 8/8/8 7/7/7 23/23/23
f 7/7/7 24/24/24 23/23/23
f 7/7/7 9/9/9 24/24/24
f 9/9/9 11/11/11 25/25/25
f 11/11/11 13/13/13 26/26/26
f 11/11/11 26/26/26 27/27/27
f 17/17/17 19/19/19 28/28/28
f 19/19/19 21/21/21 29/29/29
f 19/19/19 29/29/29 30/30/30
f 31/31/31 22/22/22 20/20/20
f 20/20/20 32/32/32 31/31/31
f 33/33/33 31/31/31 32/32/32
f 33/33/33 32/32/32 34/34/34
f 34/34/34 32/32/32 35/35/35
f 13/13/13 15/15/15 36/36/36
f 15/15/15 38/38/38 37/37/37
f 15/15/15 17/17/17 38/38/38
f 39/39/39 40/40/40 32/32/32
f 39/39/39 41/41/41 40/40/40
f 41/41/41 39/39/39 42/42/42
f 41/41/41 42/42/42 43/43/43
f 43/43/43 42/42/42 44/44/44
f 39/39/39 32/32/32 20/20/20
f 39/39/39 20/20/20 18/18/18
f 39/39/39 18/18/18 16/16/16
f 39/39/39 16/16/16 45/45/45
f 45/45/45 16/16/16 46/46/46
f 45/45/45 46/46/46 47/47/47
f 47/47/47 46/46/46 48/48/48
f 47/47/47 48/48/48 49/49/49
f 49/49/49 48/48/48 10/10/10
f 49/49/49 10/10/10 50/50/50
f 50/50/50 10/10/10 6/6/6
f 50/50/50 6/6/6 3/3/3
f 50/50/50 3/3/3 51/51/51
f 49/49/49 50/50/50 51/51/51
f 3/3/3 52/52/52 51/51/51
f 3/3/3 4/4/4 52/52/52
f 53/53/53 49/49/49 51/51/51
f 53/53/53 51/51/51 54/54/54
f 47/47/47 49/49/49 55/55/55
f 49/49/49 53/53/53 56/56/56
f 49/49/49 56/56/56 57/57/57
f 10/10/10 48/48/48 12/12/12
f 48/48/48 14/14/14 12/12/12
f 48/48/48 46/46/46 14/14/14
f 46/46/46 16/16/16 14/14/14
f 58/58/58 52/52/52 59/59/59
f 54/54/54 61/61/61 60/60/60
f 62/62/62 56/56/56 63/63/63
f 1/1/1 65/65/65 64/64/64
f 1/1/1 66/66/66 65/65/65
f 64/64/64 65/65/65 67/67/67
f 2/2/2 69/69/69 68/68/68
f 2/2/2 70/70/70 69/69/69
f 68/68/68 69/69/69 71/71/71
f 72/72/72 74/74/74 73/73/73
f 72/72/72 45/45/45 74/74/74
f 73/73/73 74/74/74 75/75/75
f 45/45/45 72/72/72 76/76/76
f 45/45/45 76/76/76 77/77/77
f 77/77/77 76/76/76 78/78/78
f 45/45/45 47/47/47 79/79/79
f 39/39/39 45/45/45 80/80/80
f 81/81/81 40/40/40 82/82/82
f 83/83/83 85/85/85 84/84/84
f 85/85/85 86/86/86 84/84/84
f 85/85/85 87/87/87 86/86/86
f 87/87/87 88/88/88 86/86/86
f 88/88/88 89/89/89 86/86/86
f 88/88/88 90/90/90 89/89/89
f 90/90/90 91/91/91 89/89/89
f 91/91/91 92/92/92 89/89/89
f 91/91/91 93/93/93 92/92/92
f 93/93/93 94/94/94 92/92/92
f 95/95/95 83/83/83 84/84/84
f 95/95/95 84/84/84 96/96/96
f 86/86/86 89/89/89 97/97/97
f 86/86/86 97/97/97 98/98/98
f 89/89/89 99/99/99 97/97/97
f 100/100/100 92/92/92 99/99/99
f 101/101/101 86/86/86 102/102/102
f 84/84/84 102/102/102 103/103/103
f 96/96/96 84/84/84 103/103/103
f 96/96/96 103/103/103 104/104/104
f 105/105/105 107/107/107 106/106/106
f 107/107/107 108/108/108 106/106/106
f 107/107/107 109/109/109 108/108/108
f 109/109/109 110/110/110 108/108/108
f 110/110/110 111/111/111 108/108/108
f 110/110/110 112/112/112 111/111/111
f 112/112/112 113/113/113 111/111/111
f 113/113/113 114/114/114 111/111/111
f 113/113/113 115/115/115 114/114/114
f 115/115/115 116/116/116 114/114/114
f 117/117/117 105/105/105 106/106/106
f 117/117/117 106/106/106 118/118/118
f 108/108/108 111/111/111 119/119/119
f 108/108/108 119/119/119 120/120/120
f 111/111/111 121/121/121 119/119/119
f 122/122/122 114/114/114 121/121/121
f 123/123/123 108/108/108 124/124/124
f 106/106/106 124/124/124 125/125/125
f 118/118/118 106/106/106 125/125/125
f 118/118/118 125/125/125 126/126/126
