#Tree_conf1_(48)_2929_6.obj

v 0.1094565 1.578246 0.3661322
v 0.03892817 1.930737 0.1420304
v 0.1273213 1.938304 0.07318398
v 0.3483694 1.598699 0.1800502
v 0.1409893 1.94792 -0.03793614
v 0.3853115 1.62469 -0.120275
v 0.07192659 1.953952 -0.1262272
v 0.1986457 1.640992 -0.3589103
v -0.03941398 1.952866 -0.1399769
v -0.1022837 1.638057 -0.3960728
v -0.1278112 1.945299 -0.07113051
v -0.3411925 1.617604 -0.2099908
v -0.1414792 1.935683 0.03998552
v -0.3781346 1.591613 0.09033433
v -0.07241239 1.929651 0.1282807
v -0.1914688 1.575311 0.3289697
v -0.003582347 2.232561 0.01496829
v -0.5621549 0.6246043 0.6367045
v -0.1598625 0.8499569 0.4109166
v 0.0429902 0.6214364 0.8242562
v 0.3784081 0.8471388 0.127354
v 0.6035142 0.6185019 0.5289728
v 0.7910659 0.61752 -0.0761805
v 0.2650549 0.8477322 -0.3581673
v 0.4957825 0.6190658 -0.6367045
v -0.2330158 0.8503399 -0.3806208
v -0.1093626 0.622234 -0.8242602
v -0.6698866 0.6251685 -0.5289769
v -0.4961744 0.8517178 0.0428514
v -0.8574383 0.6261504 0.07617641
v -0.04382302 1.230687 -2.041223E-06
v -0.3161304 1.416121 -0.4689037
v -0.2401642 1.556894 -0.1451861
v -0.5581501 1.372669 -0.107848
v -0.158601 1.489291 0.2622012
v -0.4732147 1.302272 0.3163835
v -0.1110732 1.246167 0.5552801
v 0.1835774 1.468478 0.280805
v 0.3161345 1.23722 0.4688996
v 0.2958284 1.512721 -0.04162258
v 0.5581541 1.280672 0.107844
v 0.4732188 1.351069 -0.3163876
v 0.0682238 1.564082 -0.2953344
v 0.1110772 1.407174 -0.5552841
v 0.02009176 1.826264 0.05963026
v 0.3820782 1.057775 0.61212
v 0.3001476 1.251559 0.2239773
v 0.6914665 1.055051 0.1637
v 0.2057369 1.249136 -0.2906028
v 0.5931529 1.052527 -0.3721497
v 0.1447289 1.051683 -0.6815338
v -0.2218218 1.249646 -0.3223194
v -0.3911249 1.053012 -0.5832244
v -0.3682101 1.251888 0.08064669
v -0.7005091 1.055737 -0.1348044
v -0.6021956 1.05826 0.4010453
v -0.08830536 1.253073 0.4054053
v -0.1537715 1.059105 0.7104335
v -0.007256549 1.578954 0.02317809

vn 0.2257493 0.4115614 0.8829805
vn 0.204828 0.5340773 0.8202481
vn 0.6962448 0.5632517 0.4449614
vn 0.761932 0.4410966 0.4742293
vn 0.7800758 0.601443 -0.1724762
vn 0.8543715 0.4797607 -0.1996972
vn 0.3960544 0.6261111 -0.6716591
vn 0.4354599 0.5047327 -0.7453989
vn -0.2317252 0.6216262 -0.7482542
vn -0.2503426 0.5001928 -0.8289365
vn -0.7232653 0.5908968 -0.3573909
vn -0.7866831 0.4690854 -0.4013585
vn -0.7914576 0.5530603 0.2602291
vn -0.8602439 0.43078 0.2727801
vn -0.4072778 0.5299489 0.7438272
vn -0.4411388 0.4073828 0.7996473
vn -0.02005999 0.9962847 0.0837526
vn -0.4221902 0.6754404 0.6045954
vn -0.07080339 0.8853249 0.4595506
vn 0.1471696 0.6235922 0.767772
vn 0.4245809 0.8844 0.193824
vn 0.6563686 0.5780542 0.4848028
vn 0.8233328 0.5632923 -0.06946111
vn 0.3201062 0.8687779 -0.3778321
vn 0.5597247 0.5866373 -0.5852905
vn -0.2313833 0.8619227 -0.4511664
vn 0.005879708 0.636367 -0.7713641
vn -0.5259649 0.6849957 -0.5041249
vn -0.4896098 0.8707366 0.04582756
vn -0.7085324 0.701885 0.07307033
vn 0.1208441 0.9926715 0
vn -0.4664487 0.5518385 -0.691303
vn -0.4485334 0.8873515 -0.1068887
vn -0.8186551 0.551837 -0.1589963
vn -0.3112992 0.7936296 0.5227283
vn -0.691303 0.5518385 0.4664487
vn -0.1589961 0.5518387 0.8186539
vn 0.3509433 0.735074 0.5800905
vn 0.4664487 0.5518385 0.691303
vn 0.6101004 0.7923027 0.005833988
vn 0.8186551 0.551837 0.1589963
vn 0.691303 0.5518385 -0.4664487
vn 0.1562278 0.8842495 -0.4401087
vn 0.1589961 0.5518387 -0.8186539
vn 0 1 0
vn 0.4508419 0.6754404 0.5835425
vn 0.4174064 0.8853248 0.2048701
vn 0.7766739 0.6235922 0.08894084
vn 0.3118237 0.8844 -0.3472788
vn 0.6587635 0.5780542 -0.4815435
vn 0.1797 0.5632923 -0.8064798
vn -0.2649358 0.8687779 -0.4183708
vn -0.3913273 0.5866374 -0.7090272
vn -0.4996899 0.8619227 0.08601896
vn -0.7343751 0.6363669 -0.2360728
vn -0.6382421 0.6849957 0.3513231
vn -0.1025471 0.8707365 0.4809388
vn -0.1419565 0.701885 0.6980013
vn 0.03610479 0.9926715 -0.1153245

vt 0.346352 0.0804
vt 0.3192169 0.06857581
vt 0.3069375 0.08081667
vt 0.318316 0.108348
vt 0.2895985 0.08081667
vt 0.278728 0.108348
vt 0.277312 0.06855653
vt 0.250676 0.080356
vt 0.2772941 0.05117327
vt 0.250635 0.040667
vt 0.2896006 0.03886759
vt 0.278733 0.012571
vt 0.3070041 0.03889474
vt 0.318468 0.012633
vt 0.3192638 0.05121925
vt 0.346459 0.040772
vt 0.29807 0.059361
vt 0.246084 0.084731
vt 0.2137165 0.08380155
vt 0.214583 0.116184
vt 0.1709694 0.08376582
vt 0.170068 0.116147
vt 0.138618 0.084641
vt 0.1621461 0.04986486
vt 0.138658 0.040129
vt 0.192383 0.03218562
vt 0.170156 0.008684
vt 0.214663 0.008718
vt 0.2225946 0.04991324
vt 0.246116 0.040215
vt 0.192349 0.062384
vt 0.246084 0.084731
vt 0.2137165 0.08380155
vt 0.214583 0.116184
vt 0.1709694 0.08376582
vt 0.170068 0.116147
vt 0.138618 0.084641
vt 0.1621461 0.04986486
vt 0.138658 0.040129
vt 0.192383 0.03218562
vt 0.170156 0.008684
vt 0.214663 0.008718
vt 0.2225946 0.04991324
vt 0.246116 0.040215
vt 0.192349 0.062384
vt 0.246084 0.084731
vt 0.2137165 0.08380155
vt 0.214583 0.116184
vt 0.1709694 0.08376582
vt 0.170068 0.116147
vt 0.138618 0.084641
vt 0.1621461 0.04986486
vt 0.138658 0.040129
vt 0.192383 0.03218562
vt 0.170156 0.008684
vt 0.214663 0.008718
vt 0.2225946 0.04991324
vt 0.246116 0.040215
vt 0.192349 0.062384

g Tree_conf1_(48)_2929_6
usemtl Tree_conf1_(48)_2929_6
usemap Tree_conf1_(48)_2929_6
f 1/1/1 3/3/3 2/2/2
f 1/1/1 4/4/4 3/3/3
f 4/4/4 5/5/5 3/3/3
f 4/4/4 6/6/6 5/5/5
f 6/6/6 7/7/7 5/5/5
f 6/6/6 8/8/8 7/7/7
f 8/8/8 9/9/9 7/7/7
f 8/8/8 10/10/10 9/9/9
f 10/10/10 11/11/11 9/9/9
f 10/10/10 12/12/12 11/11/11
f 12/12/12 13/13/13 11/11/11
f 12/12/12 14/14/14 13/13/13
f 14/14/14 15/15/15 13/13/13
f 14/14/14 16/16/16 15/15/15
f 16/16/16 2/2/2 15/15/15
f 16/16/16 1/1/1 2/2/2
f 2/2/2 3/3/3 17/17/17
f 3/3/3 5/5/5 17/17/17
f 5/5/5 7/7/7 17/17/17
f 7/7/7 9/9/9 17/17/17
f 9/9/9 11/11/11 17/17/17
f 11/11/11 13/13/13 17/17/17
f 13/13/13 15/15/15 17/17/17
f 15/15/15 2/2/2 17/17/17
f 18/18/18 20/20/20 19/19/19
f 20/20/20 21/21/21 19/19/19
f 20/20/20 22/22/22 21/21/21
f 22/22/22 23/23/23 21/21/21
f 23/23/23 24/24/24 21/21/21
f 23/23/23 25/25/25 24/24/24
f 25/25/25 26/26/26 24/24/24
f 25/25/25 27/27/27 26/26/26
f 27/27/27 28/28/28 26/26/26
f 28/28/28 29/29/29 26/26/26
f 28/28/28 30/30/30 29/29/29
f 30/30/30 19/19/19 29/29/29
f 30/30/30 18/18/18 19/19/19
f 19/19/19 21/21/21 31/31/31
f 21/21/21 24/24/24 31/31/31
f 24/24/24 26/26/26 31/31/31
f 26/26/26 29/29/29 31/31/31
f 29/29/29 19/19/19 31/31/31
f 32/32/32 34/34/34 33/33/33
f 34/34/34 35/35/35 33/33/33
f 34/34/34 36/36/36 35/35/35
f 36/36/36 37/37/37 35/35/35
f 37/37/37 38/38/38 35/35/35
f 37/37/37 39/39/39 38/38/38
f 39/39/39 40/40/40 38/38/38
f 39/39/39 41/41/41 40/40/40
f 41/41/41 42/42/42 40/40/40
f 42/42/42 43/43/43 40/40/40
f 42/42/42 44/44/44 43/43/43
f 44/44/44 33/33/33 43/43/43
f 44/44/44 32/32/32 33/33/33
f 33/33/33 35/35/35 45/45/45
f 35/35/35 38/38/38 45/45/45
f 38/38/38 40/40/40 45/45/45
f 40/40/40 43/43/43 45/45/45
f 43/43/43 33/33/33 45/45/45
f 46/46/46 48/48/48 47/47/47
f 48/48/48 49/49/49 47/47/47
f 48/48/48 50/50/50 49/49/49
f 50/50/50 51/51/51 49/49/49
f 51/51/51 52/52/52 49/49/49
f 51/51/51 53/53/53 52/52/52
f 53/53/53 54/54/54 52/52/52
f 53/53/53 55/55/55 54/54/54
f 55/55/55 56/56/56 54/54/54
f 56/56/56 57/57/57 54/54/54
f 56/56/56 58/58/58 57/57/57
f 58/58/58 47/47/47 57/57/57
f 58/58/58 46/46/46 47/47/47
f 47/47/47 49/49/49 59/59/59
f 49/49/49 52/52/52 59/59/59
f 52/52/52 54/54/54 59/59/59
f 54/54/54 57/57/57 59/59/59
f 57/57/57 47/47/47 59/59/59
