#Tree_conf1_(15)_1105_370.obj

v 0.1324656 -0.04437619 0.02974064
v 0.05209864 0.3509291 0.01169575
v 0.03219891 0.3509291 -0.04954618
v 0.08186843 -0.04437619 -0.1259809
v -0.03219813 0.3509291 -0.04954939
v -0.08186821 -0.04437619 -0.1259815
v -0.05209816 0.3509291 0.01169723
v -0.1324652 -0.04437619 0.02974202
v 1.072298E-07 0.3509291 0.04954983
v -1.191325E-07 -0.04437619 0.1259832
v 0.05209864 0.3509291 0.01169575
v 0.1324656 -0.04437619 0.02974064
v -0.01651665 2.018247 -0.02541448
v 0.01651628 2.018247 -0.02541727
v 0.02672342 2.018247 0.005999537
v 0.02672342 2.018247 0.005999537
v -3.107051E-07 2.018247 0.02541383
v -0.02672323 2.018247 0.005999059

vn 0.9355519 0.203269 0.2888327
vn 0.948902 0.08719236 0.3032864
vn 0.5804588 0.09713162 -0.8084762
vn 0.5634608 0.2244589 -0.7950667
vn -0.5916561 0.09713169 -0.8003183
vn -0.5744724 0.224459 -0.787147
vn -0.9445884 0.0871923 0.3164654
vn -0.9314412 0.2032691 0.3018264
vn 0.006936651 0.08113931 0.9966793
vn 0.006833042 0.1898378 0.9817923
vn 0.948902 0.08719236 0.3032864
vn 0.9355519 0.203269 0.2888327
vn -0.5935815 0.01723529 -0.8045899
vn 0.5823242 0.01723531 -0.8127745
vn 0.9529057 0.01552718 0.3028691
vn 0.9529057 0.01552718 0.3028691
vn 0.00695887 0.01447244 0.9998717
vn -0.9485974 0.01552706 0.3161045

vt 0.4238281 0.003742218
vt 0.4238281 0.02593994
vt 0.4316406 0.02593994
vt 0.4316406 0.003742218
vt 0.4394531 0.02593994
vt 0.4394531 0.003740311
vt 0.4472656 0.02593994
vt 0.4472656 0.003740311
vt 0.4550781 0.02593994
vt 0.4550781 0.003740311
vt 0.4628906 0.02593994
vt 0.4628906 0.003738403
vt 0.4394531 0.1196289
vt 0.4318848 0.1196289
vt 0.4240723 0.1196289
vt 0.4628906 0.1195679
vt 0.4550781 0.1196289
vt 0.4472656 0.1196289

g Tree_conf1_(15)_1105_370
usemtl Tree_conf1_(15)_1105_370
usemap Tree_conf1_(15)_1105_370
f 1/1/1 3/3/3 2/2/2
f 1/1/1 4/4/4 3/3/3
f 4/4/4 5/5/5 3/3/3
f 4/4/4 6/6/6 5/5/5
f 6/6/6 7/7/7 5/5/5
f 6/6/6 8/8/8 7/7/7
f 8/8/8 9/9/9 7/7/7
f 8/8/8 10/10/10 9/9/9
f 10/10/10 11/11/11 9/9/9
f 10/10/10 12/12/12 11/11/11
f 3/3/3 5/5/5 13/13/13
f 3/3/3 13/13/13 14/14/14
f 2/2/2 3/3/3 14/14/14
f 2/2/2 14/14/14 15/15/15
f 9/9/9 11/11/11 16/16/16
f 9/9/9 16/16/16 17/17/17
f 7/7/7 9/9/9 17/17/17
f 7/7/7 17/17/17 18/18/18
f 5/5/5 18/18/18 13/13/13
f 5/5/5 7/7/7 18/18/18
