#Tree1_big_(3)_1225_242.obj

v 1.372649 -0.5468957 -0.9689517
v 1.550481 1.136109 -0.6640875
v 0.4346116 1.136109 -1.246851
v -0.3102254 -0.5468957 -1.773292
v 0.6773486 -0.5468957 1.14538
v 0.9894557 1.136109 0.7613872
v -0.8179924 -0.5468957 0.8729079
v -0.2071516 1.136109 0.7694491
v -1.238361 -0.5468957 -0.7514738
v -0.4405758 1.136109 -0.594736
v -0.3102254 -0.5468957 -1.773292
v 0.4346116 1.136109 -1.246851
v 0.4942477 2.328596 -0.6577069
v -0.2785255 2.328596 -0.2110409
v -1.010021 3.727932 0.8624016
v -0.5057579 3.727932 0.5276902
v -0.6431105 4.680657 0.3733808
v -1.132413 4.680657 0.7000657
v -0.8816047 3.727933 1.415716
v -1.014152 4.680658 1.23533
v -0.2504709 3.727932 1.53921
v -0.4086325 4.680657 1.358828
v 0.03110201 3.727932 0.9272456
v -0.1408917 4.680657 0.7660165
v -0.5057579 3.727932 0.5276902
v -0.6431105 4.680657 0.3733808
v -0.02248027 8.350024 0.121323
v 0.1932606 8.350024 -0.3994615
v -0.531657 8.350024 -0.002186762
v -0.611725 8.350024 -0.469577
v -0.1786942 8.350024 -0.7660721
v -0.1786942 8.350024 -0.7660721
v 1.27434 2.328596 -0.1965023
v 0.4942477 2.328596 -0.6577069
v 0.8247544 2.328596 0.7963519
v -0.1365433 2.328597 0.8768013
v 1.124878 1.367724 -0.1166435
v 2.268523 3.302403 0.3345926
v 1.933817 3.35422 0.1460781
v 2.596604 5.641139 0.4054723
v 2.770585 5.613056 0.5191773
v 2.161121 3.29171 0.647621
v 0.8883884 1.363157 0.3131728
v 0.4146745 1.410002 0.4085423
v 1.832108 3.328365 0.6575639
v 0.2772254 1.448805 0.09155471
v 1.687761 3.364986 0.3810927
v 0.69255 1.428324 -0.2736204
v 1.933817 3.35422 0.1460781
v 1.124878 1.367724 -0.1166435
v 2.448821 5.651249 0.4967948
v 2.596604 5.641139 0.4054723
v 2.544549 5.627417 0.6739554
v 2.722337 5.607681 0.6675975
v 1.124878 1.367724 -0.1166435
v 0.69255 1.428324 -0.2736204
v -0.5241031 3.556955 1.088989
v -0.8260404 4.823697 2.702233
v -0.6511248 4.945643 2.477125
v -0.7263669 6.447114 3.664756
v -0.8298482 6.384369 3.780941
v -1.068468 4.87802 2.610418
v -0.8609007 3.748155 1.025606
v -0.9219613 4.107923 0.8927625
v -1.05259 5.005831 2.378901
v -0.6634585 4.20186 0.8515739
v -0.8211542 5.050483 2.292053
v -0.384273 3.877894 0.9658808
v -0.6511248 4.945643 2.477125
v -0.5241031 3.556955 1.088989
v -0.7886591 6.508055 3.556215
v -0.7263669 6.447114 3.664756
v -0.9371952 6.478194 3.614134
v -0.9449876 6.409091 3.73929
v -0.5241031 3.556955 1.088989
v -0.384273 3.877894 0.9658808

vn 0.5526844 0.410459 -0.7253022
vn 0.5544832 0.2508199 -0.7934972
vn 0.5544832 0.2508199 -0.7934972
vn -0.0720504 0.5708936 -0.8178564
vn -0.03976344 -0.2251669 0.9735085
vn -0.1561767 0.05578002 0.9861528
vn -0.8455083 0.143698 0.5142631
vn -0.9733387 0.223389 0.05204888
vn -0.5206312 0.5665582 -0.6387135
vn -0.4713717 0.3924479 -0.7898059
vn -0.0720504 0.5708936 -0.8178564
vn 0.5544832 0.2508199 -0.7934972
vn -0.3979235 0.3538041 -0.8464512
vn -0.3979235 0.3538041 -0.8464512
vn -0.674763 -0.03859802 -0.7370245
vn 0.1589116 0.2217219 -0.962074
vn 0.7153817 -0.16555 -0.6788388
vn -0.4368616 -0.195815 -0.877957
vn -0.7551603 -0.141718 0.6400382
vn -0.9954256 0.05235 0.07992125
vn -0.1622028 -0.02649699 0.9864017
vn -0.3200122 0.245263 0.9151165
vn 0.747372 0.364055 -0.5557868
vn 0.7153817 -0.16555 -0.6788388
vn 0.1589116 0.2217219 -0.962074
vn 0.7153817 -0.16555 -0.6788388
vn 0.6177742 0.180287 0.7654095
vn 0.9965938 -0.05039701 0.06527644
vn -0.7411038 0.2641659 0.6172371
vn -0.9920667 0.100391 -0.07566626
vn 0.2592174 -0.2745639 -0.9259703
vn 0.2592174 -0.2745639 -0.9259703
vn 0.4990253 0.5868669 -0.6376213
vn -0.3979235 0.3538041 -0.8464512
vn 0.6889416 0.004428001 0.7248034
vn -0.1163097 -0.2483708 0.9616569
vn 0.7791684 -0.1270489 -0.6138038
vn 0.8787817 -0.1958209 -0.4351975
vn 0.2915315 0.174408 -0.9405271
vn 0.3188073 0.048455 -0.9465802
vn 0.8737146 -0.09748995 -0.4765697
vn 0.4364381 -0.3380539 0.8338113
vn 0.3450468 -0.546424 0.7631275
vn -0.8257459 0.4134237 0.3836985
vn -0.7833571 0.218577 0.5818726
vn -0.7285737 0.6240191 -0.2824543
vn -0.8416213 0.466799 -0.2716104
vn 0.1116234 0.388291 -0.9147515
vn 0.2915315 0.174408 -0.9405271
vn 0.7791684 -0.1270489 -0.6138038
vn -0.9138643 0.257086 -0.3142592
vn 0.3188073 0.048455 -0.9465802
vn -0.8165416 0.1828601 0.54756
vn 0.4814017 -0.113937 0.8690632
vn 0.7791684 -0.1270489 -0.6138038
vn 0.1116234 0.388291 -0.9147515
vn 0.5515227 -0.4637033 0.6933988
vn 0.3635225 -0.5536762 0.7491956
vn 0.9245607 -0.018269 0.3805964
vn 0.9231351 -0.1449309 0.3561132
vn 0.4094374 -0.4642898 0.7853636
vn -0.8764123 -0.4244199 0.2275286
vn -0.8087451 -0.584596 0.06464351
vn -0.3063316 0.7290349 -0.6121022
vn -0.5153763 0.5471466 -0.6595588
vn 0.3600044 0.8388157 -0.4083932
vn 0.3501927 0.7396073 -0.5747575
vn 0.9208951 0.2502251 0.2988973
vn 0.9245607 -0.018269 0.3805964
vn 0.5515227 -0.4637033 0.6933988
vn 0.3885207 0.5726039 -0.7219256
vn 0.9231351 -0.1449309 0.3561132
vn -0.4804298 0.5250439 -0.702507
vn -0.9048238 -0.234014 0.3557125
vn 0.5515227 -0.4637033 0.6933988
vn 0.9208951 0.2502251 0.2988973

vt 0.1055908 0.3232422
vt 0.1096802 0.3532715
vt 0.1278076 0.3532715
vt 0.1287842 0.3232422
vt 0.07672119 0.3232422
vt 0.08624268 0.3532715
vt 0.05950928 0.3232422
vt 0.06634521 0.3532715
vt 0.04046631 0.3232422
vt 0.04293823 0.3532715
vt 0.02571106 0.3232422
vt 0.02592468 0.3532715
vt 0.02734375 0.3781738
vt 0.04507446 0.3779297
vt 0.04846191 0.4140625
vt 0.0319519 0.4150391
vt 0.03213501 0.4318848
vt 0.04855347 0.4309082
vt 0.06231689 0.4130859
vt 0.06256104 0.4299316
vt 0.07836914 0.4121094
vt 0.07855225 0.4289551
vt 0.1002808 0.4121094
vt 0.09954834 0.4289551
vt 0.1193237 0.4147949
vt 0.1175537 0.4313965
vt 0.0793457 0.4919434
vt 0.09680176 0.4921875
vt 0.06341553 0.4929199
vt 0.04891968 0.4938965
vt 0.03283691 0.494873
vt 0.1108398 0.4936523
vt 0.1090088 0.3774414
vt 0.1254883 0.3781738
vt 0.08795166 0.3774414
vt 0.06793213 0.3776855
vt 0.1115723 0.3449707
vt 0.1104736 0.4145508
vt 0.1217041 0.4125977
vt 0.1165771 0.4851074
vt 0.1097412 0.4863281
vt 0.1027222 0.4145508
vt 0.1022949 0.3449707
vt 0.09362793 0.3449707
vt 0.09539795 0.4125977
vt 0.08660889 0.3449707
vt 0.08764648 0.411377
vt 0.08013916 0.3449707
vt 0.0814209 0.4123535
vt 0.1115723 0.3449707
vt 0.08782959 0.484375
vt 0.08465576 0.4846191
vt 0.09527588 0.4853516
vt 0.1028442 0.4865723
vt 0.1115723 0.3449707
vt 0.1218872 0.3449707
vt 0.09686279 0.4006348
vt 0.0960083 0.4465332
vt 0.1040649 0.4453125
vt 0.1004028 0.4931641
vt 0.09552002 0.4938965
vt 0.09051514 0.4465332
vt 0.09020996 0.4006348
vt 0.08398438 0.4006348
vt 0.08526611 0.4453125
vt 0.07897949 0.4006348
vt 0.07971191 0.4443359
vt 0.07434082 0.4006348
vt 0.07525635 0.4450684
vt 0.09686279 0.4006348
vt 0.07983398 0.4926758
vt 0.07757568 0.4926758
vt 0.08520508 0.4931641
vt 0.09057617 0.4941406
vt 0.09686279 0.4006348
vt 0.104248 0.4006348

g Tree1_big_(3)_1225_242
usemtl Tree1_big_(3)_1225_242
usemap Tree1_big_(3)_1225_242
f 1/1/1 3/3/3 2/2/2
f 1/1/1 4/4/4 3/3/3
f 5/5/5 1/1/1 2/2/2
f 5/5/5 2/2/2 6/6/6
f 7/7/7 5/5/5 6/6/6
f 7/7/7 6/6/6 8/8/8
f 9/9/9 7/7/7 8/8/8
f 9/9/9 8/8/8 10/10/10
f 11/11/11 9/9/9 10/10/10
f 11/11/11 10/10/10 12/12/12
f 13/13/13 12/12/12 10/10/10
f 13/13/13 10/10/10 14/14/14
f 14/14/14 10/10/10 8/8/8
f 13/13/13 14/14/14 15/15/15
f 13/13/13 15/15/15 16/16/16
f 15/15/15 17/17/17 16/16/16
f 15/15/15 18/18/18 17/17/17
f 19/19/19 18/18/18 15/15/15
f 14/14/14 19/19/19 15/15/15
f 19/19/19 20/20/20 18/18/18
f 21/21/21 20/20/20 19/19/19
f 21/21/21 22/22/22 20/20/20
f 23/23/23 22/22/22 21/21/21
f 23/23/23 24/24/24 22/22/22
f 25/25/25 24/24/24 23/23/23
f 25/25/25 26/26/26 24/24/24
f 24/24/24 27/27/27 22/22/22
f 20/20/20 22/22/22 27/27/27
f 24/24/24 28/28/28 27/27/27
f 20/20/20 27/27/27 29/29/29
f 18/18/18 20/20/20 29/29/29
f 18/18/18 29/29/29 30/30/30
f 17/17/17 18/18/18 30/30/30
f 17/17/17 30/30/30 31/31/31
f 24/24/24 32/32/32 28/28/28
f 24/24/24 26/26/26 32/32/32
f 33/33/33 25/25/25 23/23/23
f 33/33/33 34/34/34 25/25/25
f 35/35/35 23/23/23 21/21/21
f 35/35/35 33/33/33 23/23/23
f 36/36/36 35/35/35 21/21/21
f 36/36/36 21/21/21 19/19/19
f 14/14/14 36/36/36 19/19/19
f 33/33/33 3/3/3 34/34/34
f 33/33/33 2/2/2 3/3/3
f 35/35/35 2/2/2 33/33/33
f 35/35/35 6/6/6 2/2/2
f 36/36/36 6/6/6 35/35/35
f 36/36/36 8/8/8 6/6/6
f 14/14/14 8/8/8 36/36/36
f 37/37/37 39/39/39 38/38/38
f 38/38/38 39/39/39 40/40/40
f 38/38/38 40/40/40 41/41/41
f 42/42/42 38/38/38 41/41/41
f 43/43/43 38/38/38 42/42/42
f 44/44/44 43/43/43 42/42/42
f 44/44/44 42/42/42 45/45/45
f 46/46/46 44/44/44 45/45/45
f 46/46/46 45/45/45 47/47/47
f 48/48/48 46/46/46 47/47/47
f 48/48/48 47/47/47 49/49/49
f 43/43/43 50/50/50 38/38/38
f 49/49/49 47/47/47 51/51/51
f 49/49/49 51/51/51 52/52/52
f 47/47/47 53/53/53 51/51/51
f 47/47/47 45/45/45 53/53/53
f 45/45/45 54/54/54 53/53/53
f 45/45/45 42/42/42 54/54/54
f 42/42/42 41/41/41 54/54/54
f 55/55/55 56/56/56 39/39/39
f 57/57/57 59/59/59 58/58/58
f 58/58/58 59/59/59 60/60/60
f 58/58/58 60/60/60 61/61/61
f 62/62/62 58/58/58 61/61/61
f 63/63/63 58/58/58 62/62/62
f 64/64/64 63/63/63 62/62/62
f 64/64/64 62/62/62 65/65/65
f 66/66/66 64/64/64 65/65/65
f 66/66/66 65/65/65 67/67/67
f 68/68/68 66/66/66 67/67/67
f 68/68/68 67/67/67 69/69/69
f 63/63/63 70/70/70 58/58/58
f 69/69/69 67/67/67 71/71/71
f 69/69/69 71/71/71 72/72/72
f 67/67/67 73/73/73 71/71/71
f 67/67/67 65/65/65 73/73/73
f 65/65/65 74/74/74 73/73/73
f 65/65/65 62/62/62 74/74/74
f 62/62/62 61/61/61 74/74/74
f 75/75/75 76/76/76 59/59/59
