#Tree2_big_(1)_2326_116.obj

v 1.08537 1.8353 0.101897
v 1.828983 3.285057 -0.43547
v 1.657783 3.240481 -0.8099309
v 0.5731167 1.712281 -0.2036167
v 0.8230943 2.073336 0.7482356
v 1.617183 3.449301 -0.1197576
v 0.5279791 2.223991 1.082602
v 1.49092 6.48314 -2.371642
v 1.634342 6.48314 -2.025399
v 1.490924 6.48314 -1.67915
v 1.117566 3.643358 -0.02470522
v 0.07051334 2.430738 0.9792619
v 0.6165435 3.74066 -0.2479455
v -0.7117837 2.190363 0.480248
v 0.4170757 3.739399 -0.4777505
v -0.5047572 2.073336 -0.0194381
v 0.6591725 3.521428 -0.9725272
v -0.02435017 1.822066 -0.6697016
v 0.6550123 6.48314 -2.025397
v 0.7983982 6.48314 -2.371646
v 1.177851 3.333319 -1.049418
v -0.02435017 1.822066 -0.6697016
v 1.144666 6.48314 -2.515062
v 1.657783 3.240481 -0.8099309
v 0.5731167 1.712281 -0.2036167
v -0.02435017 1.822066 -0.6697016
v 1.49092 6.48314 -2.371642
v 0.7984033 6.48314 -1.67915
v 1.144665 6.48314 -1.535728
v -0.66271 0.4609415 -0.1901366
v -0.9372113 0.6592157 0.3560207
v -0.6627105 0.9419294 0.9021782
v 1.206789E-06 0.6592157 1.128404
v 0.6627327 0.6874593 -0.2806241
v 1.037013E-06 1.179359 -0.9688252
v 0.785535 1.118179 0.7923618
v 1.172139 0.9419294 0.1845759
v 0.6627327 0.6874593 -0.2806241
v -1.308872 0.3112161 1.018579
v -0.801516 0.2139121 1.350034
v -0.03299327 -0.1508609 1.081447
v -0.7125682 -0.164709 1.216987
v -1.214448 -0.1905044 1.675443
v -1.003265 -0.4645944 1.611002
v -1.214448 -0.1905044 1.675443
v -1.446672 -0.7210387 2.137897
v 1.100221 0.3612069 1.0134
v 0.6174349 -0.2880173 1.314742
v 1.118857 -0.1508609 0.3236747
v 1.272434 -0.2880173 0.8165497
v 1.315945 -0.7212233 1.638915
v -1.308872 0.3112161 1.018579
v -1.214448 -0.1905044 1.675443
v -1.532232 -0.4784926 1.413656
v -1.446672 -0.7210387 2.137897
v -1.357503 -0.1863734 0.6181271
v -1.308872 0.3112161 1.018579
v -1.139293 -0.1508609 0.2399914
v -1.999276 -0.4909039 -0.4151801
v -1.999276 -0.4909039 -0.4151801
v 0.03726898 0.4335002 -0.9404917
v -0.815263 -0.1508609 -0.3550034
v -0.5535985 -0.3704397 -0.886135
v 0.1056735 -0.8974142 -1.8349
v 0.3686327 -0.3704397 -0.8861331
v 0.7037159 -0.1508609 -0.4386874
v 1.037013E-06 1.179359 -0.9688252
v -1.999276 -0.4909039 -0.4151801
v 0.7037159 -0.1508609 -0.4386874
v 1.645308 -0.6928171 -0.2995074
v 1.645308 -0.6928171 -0.2995074
v -0.07677272 1.610034 0.09564956
v -0.8780517 2.196727 0.1129517
v -1.113259 1.986975 0.05152007
v -0.2607003 1.445998 0.04760098
v -0.4728095 1.378052 0.1635937
v -0.02872445 1.77407 0.2795856
v -0.1447327 1.842016 0.4916724
v -1.026378 2.283609 0.384137
v -0.3568041 1.77407 0.6076588
v -0.540739 1.610034 0.5596122
v -1.261577 2.073857 0.322707
v -0.5887873 1.445998 0.3756762
v -1.173372 2.542549 -0.7294979
v -0.9862538 2.709425 -0.6806223
v -0.9862538 2.709425 -0.6806223
v -1.598962 3.305381 -0.8973949
v -0.4728095 1.378052 0.1635937
v -1.261577 2.073857 0.322707
v -1.113259 1.986975 0.05152007
v -1.291378 2.611672 -0.5137436
v -1.173372 2.542549 -0.7294979
v -1.291378 2.611672 -0.5137436
v -1.699715 3.364405 -0.7131699
v -1.598962 3.305381 -0.8973949
v -0.9862538 2.709425 -0.6806223
v -1.439179 3.447873 -0.8556584
v -1.699715 3.364405 -0.7131699
v -1.539934 3.506896 -0.671437
v -1.104252 2.778548 -0.4648699
v -1.104252 2.778548 -0.4648699
v -1.539934 3.506896 -0.671437
v -0.9862538 2.709425 -0.6806223
v -1.261577 2.073857 0.322707
v -1.104252 2.778548 -0.4648699
v -1.291378 2.611672 -0.5137436

vn 0.8841906 -0.3371709 0.3233
vn 0.9151763 -0.352839 0.1948251
vn 0.7414938 -0.4416449 -0.5051106
vn 0.7072099 -0.246164 -0.6627649
vn 0.4156201 0.08349802 0.9056976
vn 0.5973717 0.134854 0.790545
vn -0.1698559 0.2369131 0.9565675
vn 0.7595678 -0.251435 -0.5998644
vn 0.9876561 0.021219 0.1551943
vn 0.635312 0.274749 0.7217282
vn 0.08205165 0.44408 0.8922222
vn -0.7189167 0.3261311 0.6138383
vn -0.5211264 0.5701939 0.6350639
vn -0.9259667 0.352136 -0.1363297
vn -0.925787 0.3675431 -0.08849053
vn -0.6166993 0.190888 -0.7637039
vn -0.5963218 -0.08098095 -0.7986504
vn -0.02323429 -0.143503 -0.9893771
vn -0.9571728 0.06846599 -0.2813051
vn -0.5393671 -0.2562009 -0.8021497
vn 0.0997581 -0.327403 -0.939604
vn -0.02323429 -0.143503 -0.9893771
vn 0.08667544 -0.3512689 -0.932254
vn 0.7414938 -0.4416449 -0.5051106
vn 0.7072099 -0.246164 -0.6627649
vn -0.02323429 -0.143503 -0.9893771
vn 0.7595678 -0.251435 -0.5998644
vn -0.6688201 0.475129 0.5717797
vn 0.02349283 0.4572679 0.8890186
vn -0.4301176 0.3460911 -0.8337985
vn -0.8656035 0.4522469 -0.2149498
vn -0.7174598 0.4481292 0.5333215
vn -0.1667987 0.167681 0.9716282
vn 0.7592033 0.1959529 -0.6206552
vn 0.216574 0.2755259 -0.9365795
vn 0.4606606 0.208623 0.8627099
vn 0.9487069 0.221386 0.2257064
vn 0.7592033 0.1959529 -0.6206552
vn -0.7649747 0.6389848 0.08069853
vn -0.1067206 0.3673829 0.9239267
vn -0.1377022 0.02434001 0.9901745
vn -0.2324996 -0.019511 0.9724008
vn -0.3865294 0.6323718 0.6713427
vn -0.2324996 -0.019511 0.9724008
vn -0.3865294 0.6323718 0.6713427
vn -0.2807753 0.676885 0.6804351
vn 0.4096086 0.3803267 0.8291998
vn -0.2324996 -0.019511 0.9724008
vn 0.8289065 0.05863598 0.5563056
vn 0.987978 -0.016972 0.1536599
vn 0.3998615 0.489 0.7752353
vn -0.7649747 0.6389848 0.08069853
vn -0.3865294 0.6323718 0.6713427
vn -0.9427409 0.173637 -0.2847626
vn -0.2807753 0.676885 0.6804351
vn -0.9427409 0.173637 -0.2847626
vn -0.7649747 0.6389848 0.08069853
vn -0.9742602 0.2254061 0.003031135
vn -0.9427409 0.173637 -0.2847626
vn -0.9427409 0.173637 -0.2847626
vn 0.3141264 0.4164998 -0.8531427
vn -0.1643274 0.274373 -0.9474788
vn -0.5450457 0.153429 -0.824248
vn 0.3790882 0.5555828 -0.7400134
vn 0.7735507 0.01699201 -0.6335066
vn 0.7033358 0.1688749 -0.6905071
vn 0.216574 0.2755259 -0.9365795
vn -0.9427409 0.173637 -0.2847626
vn 0.7033358 0.1688749 -0.6905071
vn 0.8940507 0.3062461 -0.3269352
vn 0.8940507 0.3062461 -0.3269352
vn 0.5276058 0.4029588 -0.7478344
vn 0.855391 0.02636 -0.5173118
vn 0.2766048 -0.5568762 -0.7831849
vn 0.2392306 -0.1007939 -0.965717
vn -0.2725838 -0.6331879 -0.7244108
vn 0.586431 0.7606381 -0.278439
vn 0.3522996 0.8510838 0.3892832
vn -0.4744369 0.539537 0.6955642
vn -0.1968024 0.4079698 0.891532
vn -0.6313187 -0.2859819 0.7208682
vn -0.9044361 -0.4238028 -0.04885371
vn -0.6774305 -0.7340966 0.04679948
vn 0.4087294 -0.5169717 -0.7521173
vn 0.8925916 -0.117654 -0.4352445
vn 0.8925916 -0.117654 -0.4352445
vn 0.2317964 -0.223248 -0.9468003
vn -0.2725838 -0.6331879 -0.7244108
vn -0.9044361 -0.4238028 -0.04885371
vn 0.2766048 -0.5568762 -0.7831849
vn -0.8813697 -0.3610662 -0.3046614
vn 0.4087294 -0.5169717 -0.7521173
vn -0.8813697 -0.3610662 -0.3046614
vn -0.9037149 -0.425273 -0.0494179
vn 0.2317964 -0.223248 -0.9468003
vn 0.8925916 -0.117654 -0.4352445
vn 0.7919437 0.198859 -0.5773042
vn -0.9037149 -0.425273 -0.0494179
vn -0.2439955 0.282481 0.9277233
vn -0.3667145 0.5991837 0.7116876
vn -0.3667145 0.5991837 0.7116876
vn -0.2439955 0.282481 0.9277233
vn 0.8925916 -0.117654 -0.4352445
vn -0.9044361 -0.4238028 -0.04885371
vn -0.3667145 0.5991837 0.7116876
vn -0.8813697 -0.3610662 -0.3046614

vt 0.1541748 0.3811035
vt 0.1590576 0.4104004
vt 0.1722412 0.4101563
vt 0.1663818 0.376709
vt 0.1364746 0.3845215
vt 0.1468506 0.4121094
vt 0.126709 0.3862305
vt 0.1921387 0.473877
vt 0.1811523 0.4743652
vt 0.168335 0.4765625
vt 0.1317139 0.4157715
vt 0.1170654 0.3901367
vt 0.1200562 0.4199219
vt 0.1000366 0.3901367
vt 0.1082153 0.4238281
vt 0.09014893 0.3935547
vt 0.09667969 0.4287109
vt 0.0737915 0.3967285
vt 0.1230469 0.4912109
vt 0.1109619 0.4958496
vt 0.07879639 0.4335938
vt 0.0737915 0.3967285
vt 0.09790039 0.4995117
vt 0.06658936 0.4365234
vt 0.06036377 0.4016113
vt 0.0737915 0.3967285
vt 0.08673096 0.5014648
vt 0.1363525 0.4863281
vt 0.1523438 0.4812012
vt 0.07971191 0.3654785
vt 0.09265137 0.3664551
vt 0.1063843 0.3684082
vt 0.1200562 0.361084
vt 0.05514526 0.3876953
vt 0.06793213 0.3845215
vt 0.1364746 0.3662109
vt 0.1503906 0.3605957
vt 0.1633301 0.3591309
vt 0.1005859 0.3500977
vt 0.1080933 0.3491211
vt 0.1171875 0.3447266
vt 0.1099243 0.3425293
vt 0.1017456 0.3344727
vt 0.1046753 0.3322754
vt 0.1017456 0.3344727
vt 0.0958252 0.3178711
vt 0.1339111 0.3461914
vt 0.1220703 0.3371582
vt 0.1396484 0.333252
vt 0.1322021 0.3295898
vt 0.1195679 0.3183594
vt 0.1005859 0.3500977
vt 0.1017456 0.3344727
vt 0.09527588 0.3286133
vt 0.0958252 0.3178711
vt 0.09289551 0.3415527
vt 0.1005859 0.3500977
vt 0.08953857 0.3452148
vt 0.07525635 0.3251953
vt 0.07525635 0.3251953
vt 0.06292725 0.369873
vt 0.07281494 0.3515625
vt 0.06408691 0.3474121
vt 0.04751587 0.3354492
vt 0.05215454 0.3608398
vt 0.05004883 0.3742676
vt 0.06793213 0.3845215
vt 0.07525635 0.3251953
vt 0.163208 0.3413086
vt 0.1427002 0.314209
vt 0.1427002 0.314209
vt 0.1293945 0.354248
vt 0.1226807 0.392334
vt 0.1434326 0.3952637
vt 0.1375732 0.3566895
vt 0.1451416 0.3615723
vt 0.1209106 0.3537598
vt 0.1124878 0.3549805
vt 0.1031494 0.3913574
vt 0.1035767 0.3566895
vt 0.09338379 0.3581543
vt 0.08624268 0.3920898
vt 0.08288574 0.3581543
vt 0.1407471 0.4306641
vt 0.1242676 0.4301758
vt 0.1242676 0.4301758
vt 0.1412354 0.4660645
vt 0.07305908 0.3564453
vt 0.08624268 0.3920898
vt 0.07385254 0.3935547
vt 0.0859375 0.4306641
vt 0.07189941 0.4326172
vt 0.0859375 0.4306641
vt 0.08843994 0.4650879
vt 0.07489014 0.465332
vt 0.1242676 0.4301758
vt 0.1218262 0.4648438
vt 0.08843994 0.4650879
vt 0.1048584 0.465332
vt 0.1066284 0.4301758
vt 0.1066284 0.4301758
vt 0.1048584 0.465332
vt 0.1242676 0.4301758
vt 0.08624268 0.3920898
vt 0.1066284 0.4301758
vt 0.0859375 0.4306641

g Tree2_big_(1)_2326_116
usemtl Tree2_big_(1)_2326_116
usemap Tree2_big_(1)_2326_116
f 1/1/1 3/3/3 2/2/2
f 1/1/1 4/4/4 3/3/3
f 5/5/5 1/1/1 2/2/2
f 5/5/5 2/2/2 6/6/6
f 7/7/7 5/5/5 6/6/6
f 2/2/2 3/3/3 8/8/8
f 2/2/2 8/8/8 9/9/9
f 6/6/6 2/2/2 9/9/9
f 6/6/6 9/9/9 10/10/10
f 11/11/11 6/6/6 10/10/10
f 7/7/7 6/6/6 11/11/11
f 12/12/12 7/7/7 11/11/11
f 12/12/12 11/11/11 13/13/13
f 14/14/14 12/12/12 13/13/13
f 14/14/14 13/13/13 15/15/15
f 16/16/16 14/14/14 15/15/15
f 16/16/16 15/15/15 17/17/17
f 18/18/18 16/16/16 17/17/17
f 17/17/17 15/15/15 19/19/19
f 17/17/17 19/19/19 20/20/20
f 21/21/21 17/17/17 20/20/20
f 22/22/22 17/17/17 21/21/21
f 21/21/21 20/20/20 23/23/23
f 24/24/24 21/21/21 23/23/23
f 25/25/25 21/21/21 24/24/24
f 25/25/25 26/26/26 21/21/21
f 24/24/24 23/23/23 27/27/27
f 15/15/15 28/28/28 19/19/19
f 15/15/15 13/13/13 28/28/28
f 13/13/13 29/29/29 28/28/28
f 30/30/30 14/14/14 16/16/16
f 30/30/30 31/31/31 14/14/14
f 31/31/31 12/12/12 14/14/14
f 31/31/31 32/32/32 12/12/12
f 32/32/32 7/7/7 12/12/12
f 32/32/32 33/33/33 7/7/7
f 34/34/34 22/22/22 25/25/25
f 34/34/34 35/35/35 22/22/22
f 35/35/35 30/30/30 16/16/16
f 35/35/35 16/16/16 18/18/18
f 33/33/33 5/5/5 7/7/7
f 33/33/33 36/36/36 5/5/5
f 36/36/36 1/1/1 5/5/5
f 36/36/36 37/37/37 1/1/1
f 37/37/37 4/4/4 1/1/1
f 37/37/37 38/38/38 4/4/4
f 32/32/32 31/31/31 39/39/39
f 33/33/33 39/39/39 40/40/40
f 41/41/41 33/33/33 40/40/40
f 41/41/41 40/40/40 42/42/42
f 42/42/42 40/40/40 43/43/43
f 42/42/42 43/43/43 44/44/44
f 40/40/40 39/39/39 45/45/45
f 44/44/44 43/43/43 46/46/46
f 37/37/37 36/36/36 47/47/47
f 36/36/36 33/33/33 47/47/47
f 33/33/33 48/48/48 47/47/47
f 33/33/33 41/41/41 48/48/48
f 49/49/49 37/37/37 47/47/47
f 49/49/49 47/47/47 50/50/50
f 47/47/47 48/48/48 51/51/51
f 50/50/50 47/47/47 51/51/51
f 33/33/33 32/32/32 52/52/52
f 39/39/39 54/54/54 53/53/53
f 53/53/53 54/54/54 55/55/55
f 39/39/39 56/56/56 54/54/54
f 31/31/31 56/56/56 57/57/57
f 31/31/31 58/58/58 56/56/56
f 58/58/58 31/31/31 59/59/59
f 31/31/31 30/30/30 60/60/60
f 61/61/61 62/62/62 30/30/30
f 62/62/62 61/61/61 63/63/63
f 61/61/61 30/30/30 35/35/35
f 64/64/64 63/63/63 61/61/61
f 64/64/64 61/61/61 65/65/65
f 61/61/61 66/66/66 65/65/65
f 66/66/66 61/61/61 34/34/34
f 34/34/34 61/61/61 67/67/67
f 30/30/30 62/62/62 68/68/68
f 13/13/13 11/11/11 29/29/29
f 11/11/11 10/10/10 29/29/29
f 69/69/69 38/38/38 70/70/70
f 38/38/38 37/37/37 70/70/70
f 37/37/37 49/49/49 71/71/71
f 72/72/72 74/74/74 73/73/73
f 72/72/72 75/75/75 74/74/74
f 75/75/75 76/76/76 74/74/74
f 77/77/77 72/72/72 73/73/73
f 78/78/78 77/77/77 73/73/73
f 78/78/78 73/73/73 79/79/79
f 80/80/80 78/78/78 79/79/79
f 81/81/81 80/80/80 79/79/79
f 81/81/81 79/79/79 82/82/82
f 83/83/83 81/81/81 82/82/82
f 73/73/73 74/74/74 84/84/84
f 73/73/73 84/84/84 85/85/85
f 79/79/79 73/73/73 86/86/86
f 85/85/85 84/84/84 87/87/87
f 88/88/88 83/83/83 89/89/89
f 88/88/88 89/89/89 90/90/90
f 90/90/90 82/82/82 91/91/91
f 90/90/90 93/93/93 92/92/92
f 92/92/92 91/91/91 94/94/94
f 92/92/92 94/94/94 95/95/95
f 96/96/96 87/87/87 97/97/97
f 93/93/93 99/99/99 98/98/98
f 93/93/93 100/100/100 99/99/99
f 101/101/101 97/97/97 102/102/102
f 101/101/101 103/103/103 97/97/97
f 79/79/79 103/103/103 101/101/101
f 104/104/104 79/79/79 105/105/105
f 104/104/104 105/105/105 106/106/106
