#Tree_conf2_(176)_3149_417.obj

v 2.229059 2.41453 -0.01388962
v 1.067522 2.895794 -0.4499953
v 1.566361 2.41453 -1.586004
v -0.4499963 2.895794 -1.067522
v -0.01388964 2.41453 -2.229059
v -1.586005 2.41453 -1.566361
v -1.253916 2.895794 0.007813685
v -2.229059 2.41453 0.01388914
v -0.4366567 2.895794 1.073047
v -1.566362 2.41453 1.586005
v 0.01388962 2.41453 2.229059
v 0.8921764 2.895794 0.8811278
v 1.586003 2.41453 1.566362
v 0 3.673443 0
v 0.7697467 5.456536 -0.769747
v 0.2848007 6.349499 -0.2848007
v 6.459091E-07 6.349499 -0.4027693
v 1.277159E-06 5.456536 -1.088587
v -0.2847998 6.349499 -0.2848008
v -0.769747 5.456536 -0.7697472
v -0.4027679 6.349499 -3.271749E-07
v -1.088586 5.456536 -3.808823E-07
v -0.2847998 6.349499 0.2848002
v -0.7697468 5.456536 0.769746
v 1.198407E-06 6.349499 0.4027686
v 5.671565E-07 5.456536 1.088586
v 0.2848007 6.349499 0.2848002
v 0.7697469 5.456536 0.7697462
v 0.4027697 6.349499 -3.538914E-07
v 1.088586 5.456536 -9.313712E-08
v 8.962771E-07 7.127673 -5.775429E-07
v 1.48231 3.35846 1.321719
v 0.9566597 3.86839 0.3851403
v 1.918955 3.351292 -0.08711993
v 0.2964984 3.862013 -0.8680071
v 1.231503 3.344651 -1.392073
v -0.177348 3.34243 -1.828714
v -0.8338457 3.863356 -0.6041088
v -1.482309 3.345927 -1.141268
v -0.8861159 3.869257 0.5554457
v -1.918955 3.353096 0.2675719
v -1.231502 3.359736 1.572524
v 0.09976341 3.872375 1.168109
v 0.1773469 3.361958 2.009166
v -1.936771E-07 4.729911 0.1149903
v -1.323042 5.128105 0.904633
v -0.5031177 5.474663 0.7122256
v -0.4085392 5.021135 1.517634
v 0.5287387 5.308237 0.5056307
v 0.6659746 4.847831 1.3025
v 1.271063 4.709711 0.3852502
v 0.5758542 5.256999 -0.3610472
v 1.052275 4.687684 -0.6967993
v -0.2408061 5.365918 -0.6453701
v 0.1377718 4.794655 -1.309801
v -0.9367418 4.967959 -1.094666
v -0.8834114 5.49236 -0.06887841
v -1.54183 5.10608 -0.1774178
v 0.01565732 6.137804 0.05302751
v 1.425083 4.340247 -0.898567
v 0.5214415 4.778743 -0.7078219
v 0.3811183 4.334083 -1.61885
v -0.6765448 4.77326 -0.4880248
v -0.8663929 4.328372 -1.389967
v -1.586676 4.326462 -0.3459921
v -0.7503855 4.774414 0.5073778
v -1.3578 4.32947 0.9015256
v 0.1877595 4.779488 0.848183
v -0.3138358 4.335634 1.62181
v 0.9336753 4.341344 1.392926
v 0.9438239 4.782169 0.1965373
v 1.653958 4.343255 0.3489523
v 0.05396368 5.519577 0.007842219

vn -0.07087947 0.7214358 0.6888444
vn 0.1534647 0.92652 0.3435246
vn 0.4369681 0.7214344 0.537207
vn 0.3714283 0.92652 -0.0600137
vn 0.6888444 0.7214358 0.07087951
vn 0.5372058 0.721436 -0.436967
vn 0.0412197 0.9153271 -0.4005961
vn 0.07087947 0.7214358 -0.6888444
vn -0.3651649 0.9098089 -0.1972368
vn -0.4369681 0.7214344 -0.537207
vn -0.6888444 0.7214358 -0.07087951
vn -0.3124111 0.9153271 0.2541174
vn -0.5372058 0.721436 0.436967
vn 0 1 0
vn 0.5538767 0.4664523 0.6896688
vn 0.505864 0.5893607 0.6298856
vn 0.8030958 0.5893612 0.08769614
vn 0.8793193 0.4664526 0.09601956
vn 0.6298851 0.5893613 -0.5058637
vn 0.6896688 0.4664523 -0.5538767
vn 0.08769612 0.5893614 -0.8030957
vn 0.09601956 0.4664526 -0.8793193
vn -0.5058641 0.5893613 -0.6298848
vn -0.5538767 0.4664523 -0.6896688
vn -0.8030959 0.5893611 -0.08769615
vn -0.8793193 0.4664526 -0.09601956
vn -0.6298851 0.5893606 0.5058645
vn -0.6896688 0.4664523 0.5538767
vn -0.08769617 0.5893607 0.8030962
vn -0.09601956 0.4664526 0.8793193
vn 0 1 0
vn -0.4789721 0.685831 0.5479248
vn -0.1176855 0.8907663 0.4389597
vn 0.06225201 0.6344045 0.7704906
vn 0.3920947 0.889865 0.2332427
vn 0.5940815 0.589 0.5478562
vn 0.8184419 0.5742365 0.02013789
vn 0.3514029 0.874849 -0.3333994
vn 0.6138 0.5975742 -0.5159019
vn -0.1771713 0.8681709 -0.4635619
vn 0.08853509 0.6471028 -0.7572448
vn -0.4618333 0.6952757 -0.5507284
vn -0.4808854 0.8767521 -0.007422306
vn -0.702224 0.7119436 -0.004213981
vn 0.1168083 0.9930726 0.01275519
vn -0.3852313 0.5627667 -0.7313622
vn -0.4241177 0.8928517 -0.1514598
vn -0.7895517 0.5627652 -0.2447518
vn -0.3595907 0.8018581 0.4771984
vn -0.7313622 0.5627667 0.3852313
vn -0.2447515 0.562767 0.7895507
vn 0.2814178 0.7447317 0.6051271
vn 0.3852313 0.5627667 0.7313622
vn 0.5949578 0.8006369 0.07075225
vn 0.7895517 0.5627652 0.2447518
vn 0.7313622 0.5627667 -0.3852313
vn 0.1984923 0.8897872 -0.4109497
vn 0.2447515 0.562767 -0.7895507
vn 0 1 0
vn 0.3797949 0.6858311 0.6207992
vn 0.383749 0.8907662 0.2434588
vn 0.7538972 0.6344045 0.1707921
vn 0.3397359 0.889865 -0.3044995
vn 0.7003273 0.589 -0.4032628
vn 0.2637452 0.5742365 -0.7750427
vn -0.2131823 0.8748488 -0.434963
vn -0.3089519 0.5975742 -0.7399013
vn -0.4953225 0.8681709 0.03057959
vn -0.6962056 0.6471027 -0.3107344
vn -0.6635563 0.6952757 0.2761969
vn -0.1507582 0.8767521 0.4567032
vn -0.2138261 0.7119437 0.6688907
vn 0.04707161 0.9930726 -0.1076622

vt 0.2459717 0.0847168
vt 0.213623 0.08380127
vt 0.2144775 0.1161499
vt 0.1708984 0.08374023
vt 0.1700439 0.1160889
vt 0.1385498 0.08459473
vt 0.1621094 0.04983521
vt 0.1385498 0.0401001
vt 0.1923828 0.03216553
vt 0.1700439 0.008682251
vt 0.2145996 0.008712769
vt 0.2225342 0.04989624
vt 0.2460938 0.04019165
vt 0.1922607 0.06237793
vt 0.3461914 0.0803833
vt 0.3190918 0.06854248
vt 0.3068848 0.08081055
vt 0.3181152 0.1083374
vt 0.2895508 0.08081055
vt 0.2785645 0.1083374
vt 0.2770996 0.06854248
vt 0.2504883 0.08032227
vt 0.2770996 0.05114746
vt 0.2504883 0.04064941
vt 0.2895508 0.03884888
vt 0.2785645 0.01256561
vt 0.3068848 0.03887939
vt 0.3183594 0.01262665
vt 0.3190918 0.0512085
vt 0.3464355 0.04077148
vt 0.2978516 0.05935669
vt 0.2459717 0.0847168
vt 0.213623 0.08380127
vt 0.2144775 0.1161499
vt 0.1708984 0.08374023
vt 0.1700439 0.1160889
vt 0.1385498 0.08459473
vt 0.1621094 0.04983521
vt 0.1385498 0.0401001
vt 0.1923828 0.03216553
vt 0.1700439 0.008682251
vt 0.2145996 0.008712769
vt 0.2225342 0.04989624
vt 0.2460938 0.04019165
vt 0.1922607 0.06237793
vt 0.2459717 0.0847168
vt 0.213623 0.08380127
vt 0.2144775 0.1161499
vt 0.1708984 0.08374023
vt 0.1700439 0.1160889
vt 0.1385498 0.08459473
vt 0.1621094 0.04983521
vt 0.1385498 0.0401001
vt 0.1923828 0.03216553
vt 0.1700439 0.008682251
vt 0.2145996 0.008712769
vt 0.2225342 0.04989624
vt 0.2460938 0.04019165
vt 0.1922607 0.06237793
vt 0.2459717 0.0847168
vt 0.213623 0.08380127
vt 0.2144775 0.1161499
vt 0.1708984 0.08374023
vt 0.1700439 0.1160889
vt 0.1385498 0.08459473
vt 0.1621094 0.04983521
vt 0.1385498 0.0401001
vt 0.1923828 0.03216553
vt 0.1700439 0.008682251
vt 0.2145996 0.008712769
vt 0.2225342 0.04989624
vt 0.2460938 0.04019165
vt 0.1922607 0.06237793

g Tree_conf2_(176)_3149_417
usemtl Tree_conf2_(176)_3149_417
usemap Tree_conf2_(176)_3149_417
f 1/1/1 3/3/3 2/2/2
f 3/3/3 4/4/4 2/2/2
f 3/3/3 5/5/5 4/4/4
f 5/5/5 6/6/6 4/4/4
f 6/6/6 7/7/7 4/4/4
f 6/6/6 8/8/8 7/7/7
f 8/8/8 9/9/9 7/7/7
f 8/8/8 10/10/10 9/9/9
f 10/10/10 11/11/11 9/9/9
f 11/11/11 12/12/12 9/9/9
f 11/11/11 13/13/13 12/12/12
f 13/13/13 2/2/2 12/12/12
f 13/13/13 1/1/1 2/2/2
f 2/2/2 4/4/4 14/14/14
f 4/4/4 7/7/7 14/14/14
f 7/7/7 9/9/9 14/14/14
f 9/9/9 12/12/12 14/14/14
f 12/12/12 2/2/2 14/14/14
f 15/15/15 17/17/17 16/16/16
f 15/15/15 18/18/18 17/17/17
f 18/18/18 19/19/19 17/17/17
f 18/18/18 20/20/20 19/19/19
f 20/20/20 21/21/21 19/19/19
f 20/20/20 22/22/22 21/21/21
f 22/22/22 23/23/23 21/21/21
f 22/22/22 24/24/24 23/23/23
f 24/24/24 25/25/25 23/23/23
f 24/24/24 26/26/26 25/25/25
f 26/26/26 27/27/27 25/25/25
f 26/26/26 28/28/28 27/27/27
f 28/28/28 29/29/29 27/27/27
f 28/28/28 30/30/30 29/29/29
f 30/30/30 16/16/16 29/29/29
f 30/30/30 15/15/15 16/16/16
f 16/16/16 17/17/17 31/31/31
f 17/17/17 19/19/19 31/31/31
f 19/19/19 21/21/21 31/31/31
f 21/21/21 23/23/23 31/31/31
f 23/23/23 25/25/25 31/31/31
f 25/25/25 27/27/27 31/31/31
f 27/27/27 29/29/29 31/31/31
f 29/29/29 16/16/16 31/31/31
f 32/32/32 34/34/34 33/33/33
f 34/34/34 35/35/35 33/33/33
f 34/34/34 36/36/36 35/35/35
f 36/36/36 37/37/37 35/35/35
f 37/37/37 38/38/38 35/35/35
f 37/37/37 39/39/39 38/38/38
f 39/39/39 40/40/40 38/38/38
f 39/39/39 41/41/41 40/40/40
f 41/41/41 42/42/42 40/40/40
f 42/42/42 43/43/43 40/40/40
f 42/42/42 44/44/44 43/43/43
f 44/44/44 33/33/33 43/43/43
f 44/44/44 32/32/32 33/33/33
f 33/33/33 35/35/35 45/45/45
f 35/35/35 38/38/38 45/45/45
f 38/38/38 40/40/40 45/45/45
f 40/40/40 43/43/43 45/45/45
f 43/43/43 33/33/33 45/45/45
f 46/46/46 48/48/48 47/47/47
f 48/48/48 49/49/49 47/47/47
f 48/48/48 50/50/50 49/49/49
f 50/50/50 51/51/51 49/49/49
f 51/51/51 52/52/52 49/49/49
f 51/51/51 53/53/53 52/52/52
f 53/53/53 54/54/54 52/52/52
f 53/53/53 55/55/55 54/54/54
f 55/55/55 56/56/56 54/54/54
f 56/56/56 57/57/57 54/54/54
f 56/56/56 58/58/58 57/57/57
f 58/58/58 47/47/47 57/57/57
f 58/58/58 46/46/46 47/47/47
f 47/47/47 49/49/49 59/59/59
f 49/49/49 52/52/52 59/59/59
f 52/52/52 54/54/54 59/59/59
f 54/54/54 57/57/57 59/59/59
f 57/57/57 47/47/47 59/59/59
f 60/60/60 62/62/62 61/61/61
f 62/62/62 63/63/63 61/61/61
f 62/62/62 64/64/64 63/63/63
f 64/64/64 65/65/65 63/63/63
f 65/65/65 66/66/66 63/63/63
f 65/65/65 67/67/67 66/66/66
f 67/67/67 68/68/68 66/66/66
f 67/67/67 69/69/69 68/68/68
f 69/69/69 70/70/70 68/68/68
f 70/70/70 71/71/71 68/68/68
f 70/70/70 72/72/72 71/71/71
f 72/72/72 61/61/61 71/71/71
f 72/72/72 60/60/60 61/61/61
f 61/61/61 63/63/63 73/73/73
f 63/63/63 66/66/66 73/73/73
f 66/66/66 68/68/68 73/73/73
f 68/68/68 71/71/71 73/73/73
f 71/71/71 61/61/61 73/73/73
