#Tree_conf2_(88)_2651_609.obj

v 2.229058 2.41453 -0.01389307
v 1.06752 2.895794 -0.4499984
v 1.566356 2.41453 -1.58601
v -0.4499984 2.895794 -1.06752
v -0.01388837 2.41453 -2.229064
v -1.586 2.41453 -1.566368
v -1.253917 2.895794 0.007805045
v -2.229064 2.41453 0.01388837
v -0.4366625 2.895794 1.073047
v -1.566362 2.41453 1.586005
v 0.01389174 2.41453 2.229048
v 0.892175 2.895794 0.8811194
v 1.585999 2.41453 1.566357
v -6.615606E-07 3.673443 -5.354079E-06
v 0.7697439 5.456536 -0.7697511
v 0.2848044 6.349499 -0.2848094
v 2.294849E-06 6.349499 -0.4027785
v 1.244906E-06 5.456536 -1.088589
v -0.2847987 6.349499 -0.2848057
v -0.7697417 5.456536 -0.7697558
v -0.4027678 6.349499 -3.617971E-06
v -1.088584 5.456536 -7.260546E-06
v -0.2848057 6.349499 0.2847987
v -0.7697452 5.456536 0.7697404
v -3.617971E-06 6.349499 0.4027678
v 2.124492E-06 5.456536 1.088572
v 0.2847974 6.349499 0.284795
v 0.7697404 5.456536 0.7697452
v 0.4027665 6.349499 -7.090189E-06
v 1.088583 5.456536 -3.447613E-06
v -6.615606E-07 7.127673 -5.354079E-06
v 1.482305 3.35846 1.321713
v 0.9566641 3.86839 0.3851336
v 1.918957 3.351292 -0.08712492
v 0.2964925 3.862013 -0.8680118
v 1.231505 3.344651 -1.392079
v -0.1773481 3.34243 -1.828723
v -0.833846 3.863356 -0.60412
v -1.482312 3.345927 -1.14127
v -0.8861167 3.869257 0.5554398
v -1.918959 3.353096 0.2675727
v -1.231497 3.359736 1.572514
v 0.09976978 3.872375 1.168099
v 0.1773455 3.361958 2.009161
v -1.572077E-06 4.729911 0.1149842
v -1.323046 5.128105 0.9046309
v -0.503116 5.474663 0.7122144
v -0.4085437 5.021135 1.517631
v 0.5287386 5.308237 0.5056197
v 0.66597 4.847831 1.302493
v 1.271059 4.709711 0.385245
v 0.5758591 5.256999 -0.3610576
v 1.052277 4.687684 -0.6968039
v -0.2408126 5.365918 -0.645374
v 0.1377692 4.794655 -1.309809
v -0.9367446 4.967959 -1.094671
v -0.8834179 5.49236 -0.06888266
v -1.541833 5.10608 -0.1774226
v 0.01565646 6.137804 0.05302163
v 1.425085 4.340247 -0.8985725
v 0.5214443 4.778743 -0.7078256
v 0.381115 4.334083 -1.618854
v -0.6765457 4.77326 -0.4880359
v -0.866397 4.328372 -1.389972
v -1.586677 4.326462 -0.345991
v -0.750388 4.774414 0.5073695
v -1.357801 4.32947 0.9015163
v 0.1877534 4.779488 0.8481796
v -0.3138403 4.335634 1.62181
v 0.9336764 4.341344 1.392922
v 0.9438186 4.782169 0.1965322
v 1.653963 4.343255 0.3489456
v 0.05396197 5.519577 0.00783513

vn 0.4293101 0.7214358 0.5433445
vn 0.3494846 0.92652 0.1393595
vn 0.687772 0.7214344 0.08063465
vn 0.2245047 0.92652 -0.3019243
vn 0.5433446 0.7214358 -0.4293101
vn 0.0806345 0.721436 -0.6877704
vn -0.2496645 0.9153271 -0.3159808
vn -0.4293101 0.7214358 -0.5433445
vn -0.3993209 0.9098089 0.1130954
vn -0.687772 0.7214344 -0.08063465
vn -0.5433446 0.7214358 0.4293101
vn -0.04689287 0.9153271 0.3999718
vn -0.0806345 0.721436 0.6877704
vn 0 1 0
vn 0.8778703 0.4664523 0.1084714
vn 0.8017727 0.5893607 0.09906903
vn 0.6369907 0.5893612 -0.4968865
vn 0.6974488 0.4664526 -0.5440471
vn 0.09906882 0.5893613 -0.8017721
vn 0.1084714 0.4664523 -0.8778703
vn -0.4968865 0.5893614 -0.6369905
vn -0.5440471 0.4664526 -0.6974488
vn -0.8017722 0.5893613 -0.09906828
vn -0.8778703 0.4664523 -0.1084714
vn -0.6369907 0.5893611 0.4968866
vn -0.6974488 0.4664526 0.5440471
vn -0.09906831 0.5893606 0.8017727
vn -0.1084714 0.4664523 0.8778703
vn 0.4968868 0.5893607 0.636991
vn 0.5440471 0.4664526 0.6974488
vn 0 1 0
vn 0.03846154 0.685831 0.7267437
vn 0.2215743 0.8907663 0.3967875
vn 0.5816815 0.6344045 0.5090948
vn 0.4437277 0.889865 -0.1060476
vn 0.8078538 0.589 -0.0212397
vn 0.6009056 0.5742365 -0.556026
vn 0.01959147 0.874849 -0.4839993
vn 0.08053812 0.5975742 -0.7977585
vn -0.4501514 0.8681709 -0.2089092
vn -0.4643261 0.6471028 -0.6046976
vn -0.7150264 0.6952757 -0.07299882
vn -0.3499955 0.8767521 0.329862
vn -0.5064716 0.7119436 0.4864389
vn 0.09264876 0.9930726 -0.07227095
vn -0.7860029 0.5627667 -0.2559162
vn -0.4096861 0.8928517 0.187011
vn -0.7367489 0.5627652 0.3748283
vn 0.07476738 0.8018581 0.5928183
vn -0.2559162 0.5627667 0.7860029
vn 0.3748278 0.562767 0.736748
vn 0.6235751 0.7447317 0.237758
vn 0.7860029 0.5627667 0.2559162
vn 0.4759337 0.8006369 -0.363961
vn 0.7367489 0.5627652 -0.3748283
vn 0.2559162 0.5627667 -0.7860029
vn -0.1441078 0.8897872 -0.4330263
vn -0.3748278 0.562767 -0.736748
vn 0 1 0
vn 0.7050407 0.6858311 0.1804255
vn 0.4448642 0.8907662 -0.09290498
vn 0.6596316 0.6344045 -0.4030099
vn 0.03136924 0.889865 -0.4551443
vn 0.2210942 0.589 -0.7773007
vn -0.3510959 0.5742365 -0.7395838
vn -0.4560394 0.8748488 -0.1633019
vn -0.7372581 0.5975742 -0.3152071
vn -0.3338599 0.8681709 0.3671744
vn -0.7158053 0.6471027 0.2624514
vn -0.2832942 0.6952757 0.6605574
vn 0.2102267 0.8767521 0.4325627
vn 0.3129013 0.7119437 0.6286724
vn -0.04128913 0.9930726 -0.1100095

vt 0.2459717 0.0847168
vt 0.213623 0.08380127
vt 0.2144775 0.1161499
vt 0.1708984 0.08374023
vt 0.1700439 0.1160889
vt 0.1385498 0.08459473
vt 0.1621094 0.04983521
vt 0.1385498 0.0401001
vt 0.1923828 0.03216553
vt 0.1700439 0.008682251
vt 0.2145996 0.008712769
vt 0.2225342 0.04989624
vt 0.2460938 0.04019165
vt 0.1922607 0.06237793
vt 0.3461914 0.0803833
vt 0.3190918 0.06854248
vt 0.3068848 0.08081055
vt 0.3181152 0.1083374
vt 0.2895508 0.08081055
vt 0.2785645 0.1083374
vt 0.2770996 0.06854248
vt 0.2504883 0.08032227
vt 0.2770996 0.05114746
vt 0.2504883 0.04064941
vt 0.2895508 0.03884888
vt 0.2785645 0.01256561
vt 0.3068848 0.03887939
vt 0.3183594 0.01262665
vt 0.3190918 0.0512085
vt 0.3464355 0.04077148
vt 0.2978516 0.05935669
vt 0.2459717 0.0847168
vt 0.213623 0.08380127
vt 0.2144775 0.1161499
vt 0.1708984 0.08374023
vt 0.1700439 0.1160889
vt 0.1385498 0.08459473
vt 0.1621094 0.04983521
vt 0.1385498 0.0401001
vt 0.1923828 0.03216553
vt 0.1700439 0.008682251
vt 0.2145996 0.008712769
vt 0.2225342 0.04989624
vt 0.2460938 0.04019165
vt 0.1922607 0.06237793
vt 0.2459717 0.0847168
vt 0.213623 0.08380127
vt 0.2144775 0.1161499
vt 0.1708984 0.08374023
vt 0.1700439 0.1160889
vt 0.1385498 0.08459473
vt 0.1621094 0.04983521
vt 0.1385498 0.0401001
vt 0.1923828 0.03216553
vt 0.1700439 0.008682251
vt 0.2145996 0.008712769
vt 0.2225342 0.04989624
vt 0.2460938 0.04019165
vt 0.1922607 0.06237793
vt 0.2459717 0.0847168
vt 0.213623 0.08380127
vt 0.2144775 0.1161499
vt 0.1708984 0.08374023
vt 0.1700439 0.1160889
vt 0.1385498 0.08459473
vt 0.1621094 0.04983521
vt 0.1385498 0.0401001
vt 0.1923828 0.03216553
vt 0.1700439 0.008682251
vt 0.2145996 0.008712769
vt 0.2225342 0.04989624
vt 0.2460938 0.04019165
vt 0.1922607 0.06237793

g Tree_conf2_(88)_2651_609
usemtl Tree_conf2_(88)_2651_609
usemap Tree_conf2_(88)_2651_609
f 1/1/1 3/3/3 2/2/2
f 3/3/3 4/4/4 2/2/2
f 3/3/3 5/5/5 4/4/4
f 5/5/5 6/6/6 4/4/4
f 6/6/6 7/7/7 4/4/4
f 6/6/6 8/8/8 7/7/7
f 8/8/8 9/9/9 7/7/7
f 8/8/8 10/10/10 9/9/9
f 10/10/10 11/11/11 9/9/9
f 11/11/11 12/12/12 9/9/9
f 11/11/11 13/13/13 12/12/12
f 13/13/13 2/2/2 12/12/12
f 13/13/13 1/1/1 2/2/2
f 2/2/2 4/4/4 14/14/14
f 4/4/4 7/7/7 14/14/14
f 7/7/7 9/9/9 14/14/14
f 9/9/9 12/12/12 14/14/14
f 12/12/12 2/2/2 14/14/14
f 15/15/15 17/17/17 16/16/16
f 15/15/15 18/18/18 17/17/17
f 18/18/18 19/19/19 17/17/17
f 18/18/18 20/20/20 19/19/19
f 20/20/20 21/21/21 19/19/19
f 20/20/20 22/22/22 21/21/21
f 22/22/22 23/23/23 21/21/21
f 22/22/22 24/24/24 23/23/23
f 24/24/24 25/25/25 23/23/23
f 24/24/24 26/26/26 25/25/25
f 26/26/26 27/27/27 25/25/25
f 26/26/26 28/28/28 27/27/27
f 28/28/28 29/29/29 27/27/27
f 28/28/28 30/30/30 29/29/29
f 30/30/30 16/16/16 29/29/29
f 30/30/30 15/15/15 16/16/16
f 16/16/16 17/17/17 31/31/31
f 17/17/17 19/19/19 31/31/31
f 19/19/19 21/21/21 31/31/31
f 21/21/21 23/23/23 31/31/31
f 23/23/23 25/25/25 31/31/31
f 25/25/25 27/27/27 31/31/31
f 27/27/27 29/29/29 31/31/31
f 29/29/29 16/16/16 31/31/31
f 32/32/32 34/34/34 33/33/33
f 34/34/34 35/35/35 33/33/33
f 34/34/34 36/36/36 35/35/35
f 36/36/36 37/37/37 35/35/35
f 37/37/37 38/38/38 35/35/35
f 37/37/37 39/39/39 38/38/38
f 39/39/39 40/40/40 38/38/38
f 39/39/39 41/41/41 40/40/40
f 41/41/41 42/42/42 40/40/40
f 42/42/42 43/43/43 40/40/40
f 42/42/42 44/44/44 43/43/43
f 44/44/44 33/33/33 43/43/43
f 44/44/44 32/32/32 33/33/33
f 33/33/33 35/35/35 45/45/45
f 35/35/35 38/38/38 45/45/45
f 38/38/38 40/40/40 45/45/45
f 40/40/40 43/43/43 45/45/45
f 43/43/43 33/33/33 45/45/45
f 46/46/46 48/48/48 47/47/47
f 48/48/48 49/49/49 47/47/47
f 48/48/48 50/50/50 49/49/49
f 50/50/50 51/51/51 49/49/49
f 51/51/51 52/52/52 49/49/49
f 51/51/51 53/53/53 52/52/52
f 53/53/53 54/54/54 52/52/52
f 53/53/53 55/55/55 54/54/54
f 55/55/55 56/56/56 54/54/54
f 56/56/56 57/57/57 54/54/54
f 56/56/56 58/58/58 57/57/57
f 58/58/58 47/47/47 57/57/57
f 58/58/58 46/46/46 47/47/47
f 47/47/47 49/49/49 59/59/59
f 49/49/49 52/52/52 59/59/59
f 52/52/52 54/54/54 59/59/59
f 54/54/54 57/57/57 59/59/59
f 57/57/57 47/47/47 59/59/59
f 60/60/60 62/62/62 61/61/61
f 62/62/62 63/63/63 61/61/61
f 62/62/62 64/64/64 63/63/63
f 64/64/64 65/65/65 63/63/63
f 65/65/65 66/66/66 63/63/63
f 65/65/65 67/67/67 66/66/66
f 67/67/67 68/68/68 66/66/66
f 67/67/67 69/69/69 68/68/68
f 69/69/69 70/70/70 68/68/68
f 70/70/70 71/71/71 68/68/68
f 70/70/70 72/72/72 71/71/71
f 72/72/72 61/61/61 71/71/71
f 72/72/72 60/60/60 61/61/61
f 61/61/61 63/63/63 73/73/73
f 63/63/63 66/66/66 73/73/73
f 66/66/66 68/68/68 73/73/73
f 68/68/68 71/71/71 73/73/73
f 71/71/71 61/61/61 73/73/73
