#Tree_conf2_(88)_2651_610.obj

v 0.1189075 -0.1466557 -0.4504063
v 0.05756095 1.159755 -0.1771503
v -0.1506898 1.159755 -0.1094811
v -0.4105719 -0.1466557 -0.2783754
v -0.1506841 1.159755 0.1094732
v -0.4105761 -0.1466557 0.2783621
v 0.05755237 1.159755 0.1771414
v 0.1189086 -0.1466557 0.4503965
v 0.1862573 1.159755 -9.910104E-06
v 0.4461396 -0.1466557 -1.205887E-06
v 0.05756095 1.159755 -0.1771503
v 0.1189075 -0.1466557 -0.4504063
v -0.06863119 6.66993 0.05614694
v -0.06863542 6.66993 -0.05615665
v 0.0381882 6.66993 -0.09087641
v 0.0381882 6.66993 -0.09087641
v 0.1041989 6.66993 -2.995215E-06
v 0.03818845 6.66993 0.09085944

vn 0.916523 0.2088854 -0.3411047
vn 0.936909 0.08978422 -0.3378468
vn -0.03260967 0.1000239 -0.9944505
vn -0.03804323 0.2305968 -0.9723054
vn -0.9566039 0.1000239 -0.2736861
vn -0.9338023 0.2305969 -0.2735659
vn -0.5557367 0.08978421 0.826496
vn -0.5539343 0.2088854 0.8059303
vn 0.6129074 0.08355004 0.7857252
vn 0.6032373 0.1951094 0.7733285
vn 0.936909 0.08978422 -0.3378468
vn 0.916523 0.2088854 -0.3411047
vn -0.960994 0.01773245 -0.2760002
vn -0.03378537 0.01773245 -0.9992718
vn 0.940024 0.01597498 -0.340734
vn 0.940024 0.01597498 -0.340734
vn 0.6149896 0.01488988 0.7883946
vn -0.5592952 0.01597498 0.8288147

vt 0.4238281 0.003742218
vt 0.4238281 0.02593994
vt 0.4316406 0.02593994
vt 0.4316406 0.003742218
vt 0.4394531 0.02593994
vt 0.4394531 0.003740311
vt 0.4472656 0.02593994
vt 0.4472656 0.003740311
vt 0.4550781 0.02593994
vt 0.4550781 0.003740311
vt 0.4628906 0.02593994
vt 0.4628906 0.003738403
vt 0.4394531 0.1196289
vt 0.4318848 0.1196289
vt 0.4240723 0.1196289
vt 0.4628906 0.1195679
vt 0.4550781 0.1196289
vt 0.4472656 0.1196289

g Tree_conf2_(88)_2651_610
usemtl Tree_conf2_(88)_2651_610
usemap Tree_conf2_(88)_2651_610
f 1/1/1 3/3/3 2/2/2
f 1/1/1 4/4/4 3/3/3
f 4/4/4 5/5/5 3/3/3
f 4/4/4 6/6/6 5/5/5
f 6/6/6 7/7/7 5/5/5
f 6/6/6 8/8/8 7/7/7
f 8/8/8 9/9/9 7/7/7
f 8/8/8 10/10/10 9/9/9
f 10/10/10 11/11/11 9/9/9
f 10/10/10 12/12/12 11/11/11
f 3/3/3 5/5/5 13/13/13
f 3/3/3 13/13/13 14/14/14
f 2/2/2 3/3/3 14/14/14
f 2/2/2 14/14/14 15/15/15
f 9/9/9 11/11/11 16/16/16
f 9/9/9 16/16/16 17/17/17
f 7/7/7 9/9/9 17/17/17
f 7/7/7 17/17/17 18/18/18
f 5/5/5 18/18/18 13/13/13
f 5/5/5 7/7/7 18/18/18
