#Tree_conf2_(59)_2872_764.obj

v 0.1189129 -0.1466557 -0.450406
v 0.05756087 1.159755 -0.1771432
v -0.1506849 1.159755 -0.10948
v -0.4105682 -0.1466557 -0.2783683
v -0.1506815 1.159755 0.1094771
v -0.4105676 -0.1466557 0.2783627
v 0.05756039 1.159755 0.1771415
v 0.1189106 -0.1466557 0.4504031
v 0.1862633 1.159755 -1.657945E-06
v 0.4461515 -0.1466557 -1.892194E-06
v 0.05756087 1.159755 -0.1771432
v 0.1189129 -0.1466557 -0.450406
v -0.06862524 6.66993 0.05615488
v -0.06862881 6.66993 -0.05615832
v 0.03818915 6.66993 -0.09086522
v 0.03818915 6.66993 -0.09086522
v 0.1042071 6.66993 -1.362364E-06
v 0.03818934 6.66993 0.09086404

vn 0.6552132 0.2088854 -0.7259908
vn 0.6747978 0.08978422 -0.7325209
vn -0.4884076 0.1000239 -0.866864
vn -0.4829942 0.2305968 -0.8447139
vn -0.9748242 0.1000239 0.1992812
vn -0.954547 0.2305969 0.1888523
vn -0.1109727 0.08978421 0.9897596
vn -0.1188768 0.2088854 0.970688
vn 0.9066044 0.08355004 0.4136277
vn 0.8923007 0.1951094 0.4071018
vn 0.6747978 0.08978422 -0.7325209
vn 0.6552132 0.2088854 -0.7259908
vn -0.9797868 0.01773245 0.1992574
vn -0.491678 0.01773245 -0.8705966
vn 0.6762263 0.01597498 -0.7365208
vn 0.6762263 0.01597498 -0.7365208
vn 0.9096845 0.01488988 0.415033
vn -0.1130573 0.01597498 0.9934601

vt 0.4238281 0.003742218
vt 0.4238281 0.02593994
vt 0.4316406 0.02593994
vt 0.4316406 0.003742218
vt 0.4394531 0.02593994
vt 0.4394531 0.003740311
vt 0.4472656 0.02593994
vt 0.4472656 0.003740311
vt 0.4550781 0.02593994
vt 0.4550781 0.003740311
vt 0.4628906 0.02593994
vt 0.4628906 0.003738403
vt 0.4394531 0.1196289
vt 0.4318848 0.1196289
vt 0.4240723 0.1196289
vt 0.4628906 0.1195679
vt 0.4550781 0.1196289
vt 0.4472656 0.1196289

g Tree_conf2_(59)_2872_764
usemtl Tree_conf2_(59)_2872_764
usemap Tree_conf2_(59)_2872_764
f 1/1/1 3/3/3 2/2/2
f 1/1/1 4/4/4 3/3/3
f 4/4/4 5/5/5 3/3/3
f 4/4/4 6/6/6 5/5/5
f 6/6/6 7/7/7 5/5/5
f 6/6/6 8/8/8 7/7/7
f 8/8/8 9/9/9 7/7/7
f 8/8/8 10/10/10 9/9/9
f 10/10/10 11/11/11 9/9/9
f 10/10/10 12/12/12 11/11/11
f 3/3/3 5/5/5 13/13/13
f 3/3/3 13/13/13 14/14/14
f 2/2/2 3/3/3 14/14/14
f 2/2/2 14/14/14 15/15/15
f 9/9/9 11/11/11 16/16/16
f 9/9/9 16/16/16 17/17/17
f 7/7/7 9/9/9 17/17/17
f 7/7/7 17/17/17 18/18/18
f 5/5/5 18/18/18 13/13/13
f 5/5/5 7/7/7 18/18/18
