#Tree1_(23)_2751_33.obj

v -0.4416043 6.484625 -1.57785
v -1.397579 6.484625 -1.18187
v -0.4416022 5.622716 -2.052589
v -1.733271 5.622716 -1.51756
v -1.793561 6.484625 -0.2258866
v -2.268296 5.622716 -0.2258902
v -1.397584 6.484625 0.7300896
v -1.733274 5.622716 1.065782
v -0.441602 6.484625 1.126068
v -0.4416041 5.622716 1.600806
v 0.5143827 6.484625 0.7300913
v 0.8500646 5.622716 1.065777
v 0.9103609 6.484625 -0.2258904
v 1.385099 5.622716 -0.2258884
v 0.5143775 6.484625 -1.181872
v 0.8500705 5.622716 -1.517557
v -0.4416064 4.609753 -2.152971
v -1.804254 4.609753 -1.58854
v -2.368678 4.609753 -0.2258861
v -1.804257 4.609753 1.136758
v -0.4416035 4.609753 1.70119
v 0.921051 4.609753 1.136765
v 1.485481 4.609753 -0.2258925
v 0.9210507 4.609753 -1.58854
v 0.1353869 6.879482 0.01310557
v -0.680598 6.879482 0.3510937
v -0.4416067 6.955975 -0.2258897
v -1.018583 6.879482 -0.4648842
v -0.2026083 6.879482 -0.8028763
v -0.4963018 5.42801 1.781263
v -1.262313 5.284224 2.03251
v -0.4443488 5.091809 1.142743
v -1.557361 4.882892 1.507797
v -1.602619 5.008309 2.724355
v -2.051813 4.481992 2.513032
v -1.317857 4.761891 3.451521
v -1.638063 4.12395 3.569593
v -0.574849 4.689319 3.788051
v -0.5584814 4.018503 4.058564
v 0.1911695 4.833102 3.536801
v 0.5545279 4.22742 3.693511
v 0.5314714 5.109017 2.844958
v 1.04898 4.628322 2.688268
v 0.2467134 5.355435 2.11779
v 0.6352334 4.986362 1.631706
v -0.3994996 4.544276 0.8063681
v -1.604216 4.318147 1.201507
v -2.139404 3.884214 2.289566
v -1.691572 3.496673 3.433179
v -0.523039 3.382539 3.962434
v 0.6816809 3.608668 3.567302
v 1.216869 4.0426 2.479243
v 0.769026 4.43014 1.335626
v -0.1039833 5.263332 3.078574
v -0.7578241 5.140604 3.293021
v -0.55909 5.405268 2.91132
v -1.000875 5.350937 2.672346
v -0.3470448 5.473663 2.457895
v 3.467299 4.289501 -0.06888789
v 2.692073 4.465175 -0.7313463
v 3.661684 3.344652 -0.2631503
v 2.61423 3.582011 -1.15823
v 1.693774 4.720965 -0.6381426
v 1.265396 3.927623 -1.032293
v 1.057214 4.907035 0.1561305
v 0.4053048 4.179029 0.04088202
v 1.155272 4.914389 1.186191
v 0.5377862 4.188965 1.432648
v 1.930505 4.738715 1.848646
v 1.58524 3.951605 2.327728
v 2.928796 4.482923 1.755445
v 2.934078 3.605994 2.201797
v 3.565356 4.296852 0.9611722
v 3.794168 3.354586 1.128622
v 3.498893 2.339955 -0.2790754
v 2.393876 2.590358 -1.223335
v 0.9709198 2.954963 -1.090479
v 0.06356279 3.220185 0.04166125
v 0.2033326 3.230666 1.509918
v 1.308346 2.980262 2.454188
v 2.731309 2.615658 2.321329
v 3.63866 2.350435 1.189175
v 2.467383 4.988973 1.168396
v 1.805678 5.13892 0.6029494
v 2.426971 5.058652 0.5443764
v 2.349021 4.980098 -0.07500891
v 3.01072 4.830153 0.4904402

vn -0.7698613 0.5420592 -0.3368761
vn -0.7825818 0.5420586 0.3061669
vn -0.8697949 0.3140009 -0.3806051
vn -0.8841663 0.3140011 0.3459094
vn -0.3368761 0.5420592 0.7698613
vn -0.3806051 0.3140009 0.8697949
vn 0.3061662 0.542059 0.7825819
vn 0.3459094 0.3140011 0.8841663
vn 0.7698613 0.5420592 0.3368761
vn 0.8697949 0.3140009 0.3806051
vn 0.7825814 0.542059 -0.3061674
vn 0.8841663 0.3140011 -0.3459094
vn 0.3368761 0.5420592 -0.7698613
vn 0.3806051 0.3140009 -0.8697949
vn -0.3061674 0.542059 -0.7825814
vn -0.3459102 0.3140009 -0.8841661
vn -0.9041258 0.1613551 -0.3956276
vn -0.9190643 0.161355 0.3595625
vn -0.3956276 0.1613551 0.9041258
vn 0.3595625 0.161355 0.9190643
vn 0.9041258 0.1613551 0.3956276
vn 0.9190643 0.161355 -0.3595625
vn 0.3956276 0.1613551 -0.9041258
vn -0.3595632 0.1613549 -0.9190642
vn 0.1758268 0.9538103 -0.2435794
vn 0.243579 0.9538102 0.1758277
vn 0 1 0
vn -0.1758272 0.95381 0.2435803
vn -0.2435794 0.9538103 -0.1758268
vn -0.5533284 0.7981869 -0.2381709
vn -0.6137329 0.6852556 0.3921181
vn -0.7111965 0.6220729 -0.3274522
vn -0.7794414 0.4944831 0.3846529
vn -0.2230691 0.468548 0.8548117
vn -0.3380666 0.249645 0.9074075
vn 0.3898168 0.275008 0.8788706
vn 0.3543767 0.030982 0.9345894
vn 0.8659052 0.2180079 0.4502008
vn 0.892264 -0.03341699 0.4502758
vn 0.9263085 0.3309391 -0.1800891
vn 0.9605087 0.09417298 -0.2618291
vn 0.535644 0.547647 -0.6427817
vn 0.5191331 0.339011 -0.7845843
vn -0.0772419 0.7411867 -0.6668402
vn -0.1733105 0.557674 -0.8117654
vn -0.7868524 0.491927 -0.3726542
vn -0.8577908 0.3593008 0.3675568
vn -0.3989946 0.1047991 0.9109448
vn 0.3207789 -0.122495 0.9391996
vn 0.8798972 -0.189435 0.4357696
vn 0.9508353 -0.056809 -0.3044421
vn 0.4920386 0.1976929 -0.8478299
vn -0.2277349 0.424986 -0.8760843
vn 0.4622292 0.885857 -0.0400198
vn 0.486346 0.7939746 0.3647904
vn 0.2883217 0.9373471 0.1955787
vn 0.08892767 0.9059739 0.413888
vn 0.06481114 0.9978563 0.009078966
vn -0.03099686 0.3310159 -0.9431159
vn -0.601398 0.4402091 -0.6667358
vn -0.0561049 0.08483202 -0.9948145
vn -0.7005479 0.2082001 -0.6825581
vn -0.7970732 0.5992017 -0.07504421
vn -0.9216236 0.3878301 -0.01406118
vn -0.5034006 0.714857 0.4853528
vn -0.5898291 0.5184991 0.6190802
vn 0.1075929 0.719427 0.686184
vn 0.1004747 0.523662 0.8459805
vn 0.6779943 0.610234 0.4098027
vn 0.7449176 0.4002951 0.5337244
vn 0.8736688 0.4512419 -0.181889
vn 0.9659935 0.2206639 -0.1347742
vn 0.5799949 0.335586 -0.7422857
vn 0.6341982 0.08999498 -0.7679151
vn -0.06997964 -0.07173201 -0.994966
vn -0.739859 0.05650397 -0.6703849
vn -0.9696605 0.243225 0.02449748
vn -0.6247699 0.379052 0.6826288
vn 0.09278065 0.384418 0.9184849
vn 0.7626593 0.2561819 0.5939038
vn 0.9924607 0.06946103 -0.1009801
vn 0.6475701 -0.06636602 -0.7591103
vn 0.3645195 0.9129925 -0.1832222
vn 0.02854289 0.9976278 0.06264205
vn 0.07065199 0.9689379 -0.2369969
vn -0.2297416 0.9353735 -0.2688777
vn 0.1062349 0.850738 -0.5147418

vt 0.447169 0.424388
vt 0.425817 0.415571
vt 0.447271 0.445814
vt 0.410806 0.430777
vt 0.41711 0.394335
vt 0.395684 0.394437
vt 0.425927 0.372983
vt 0.410721 0.357972
vt 0.447163 0.364275
vt 0.447061 0.34285
vt 0.468515 0.373093
vt 0.483526 0.357887
vt 0.477222 0.394329
vt 0.498648 0.394227
vt 0.468405 0.415681
vt 0.483611 0.430692
vt 0.447111 0.469179
vt 0.394204 0.447221
vt 0.372319 0.394277
vt 0.394277 0.34137
vt 0.447221 0.319484
vt 0.500128 0.341442
vt 0.522014 0.394387
vt 0.500055 0.447293
vt 0.461012 0.388517
vt 0.441351 0.380485
vt 0.447166 0.394332
vt 0.43332 0.400146
vt 0.45298 0.408178
vt 0.314491 0.406598
vt 0.294035 0.398756
vt 0.315242 0.422535
vt 0.283312 0.410356
vt 0.285713 0.378189
vt 0.269776 0.37894
vt 0.293555 0.357733
vt 0.281955 0.34701
vt 0.314122 0.349411
vt 0.313371 0.333474
vt 0.334578 0.357254
vt 0.345301 0.345653
vt 0.3429 0.37782
vt 0.358837 0.37707
vt 0.335058 0.398277
vt 0.346658 0.408999
vt 0.313415 0.438713
vt 0.270713 0.420383
vt 0.253599 0.377113
vt 0.271928 0.334411
vt 0.315198 0.317297
vt 0.357901 0.335627
vt 0.375014 0.378896
vt 0.356685 0.421599
vt 0.326225 0.372174
vt 0.308476 0.366086
vt 0.314307 0.378005
vt 0.302388 0.383836
vt 0.320137 0.389923
vt 0.447169 0.424388
vt 0.425817 0.415571
vt 0.447271 0.445814
vt 0.410806 0.430777
vt 0.41711 0.394335
vt 0.395684 0.394437
vt 0.425927 0.372983
vt 0.410721 0.357972
vt 0.447163 0.364275
vt 0.447061 0.34285
vt 0.468515 0.373093
vt 0.483526 0.357887
vt 0.477222 0.394329
vt 0.498648 0.394227
vt 0.468405 0.415681
vt 0.483611 0.430692
vt 0.447111 0.469179
vt 0.394204 0.447221
vt 0.372319 0.394277
vt 0.394277 0.34137
vt 0.447221 0.319484
vt 0.500128 0.341442
vt 0.522014 0.394387
vt 0.500055 0.447293
vt 0.461012 0.388517
vt 0.441351 0.380485
vt 0.447166 0.394332
vt 0.43332 0.400146
vt 0.45298 0.408178

g Tree1_(23)_2751_33
usemtl Tree1_(23)_2751_33
usemap Tree1_(23)_2751_33
f 1/1/1 3/3/3 2/2/2
f 2/2/2 3/3/3 4/4/4
f 2/2/2 4/4/4 5/5/5
f 5/5/5 4/4/4 6/6/6
f 5/5/5 6/6/6 7/7/7
f 7/7/7 6/6/6 8/8/8
f 7/7/7 8/8/8 9/9/9
f 9/9/9 8/8/8 10/10/10
f 9/9/9 10/10/10 11/11/11
f 11/11/11 10/10/10 12/12/12
f 11/11/11 12/12/12 13/13/13
f 13/13/13 12/12/12 14/14/14
f 13/13/13 14/14/14 15/15/15
f 15/15/15 14/14/14 16/16/16
f 15/15/15 16/16/16 1/1/1
f 1/1/1 16/16/16 3/3/3
f 3/3/3 17/17/17 4/4/4
f 4/4/4 17/17/17 18/18/18
f 4/4/4 18/18/18 6/6/6
f 6/6/6 18/18/18 19/19/19
f 6/6/6 19/19/19 8/8/8
f 8/8/8 19/19/19 20/20/20
f 8/8/8 20/20/20 10/10/10
f 10/10/10 20/20/20 21/21/21
f 10/10/10 21/21/21 12/12/12
f 12/12/12 21/21/21 22/22/22
f 12/12/12 22/22/22 14/14/14
f 14/14/14 22/22/22 23/23/23
f 14/14/14 23/23/23 16/16/16
f 16/16/16 23/23/23 24/24/24
f 16/16/16 24/24/24 3/3/3
f 3/3/3 24/24/24 17/17/17
f 11/11/11 13/13/13 25/25/25
f 13/13/13 15/15/15 25/25/25
f 26/26/26 11/11/11 25/25/25
f 26/26/26 25/25/25 27/27/27
f 28/28/28 26/26/26 27/27/27
f 29/29/29 28/28/28 27/27/27
f 25/25/25 29/29/29 27/27/27
f 29/29/29 2/2/2 28/28/28
f 1/1/1 2/2/2 29/29/29
f 15/15/15 1/1/1 29/29/29
f 25/25/25 15/15/15 29/29/29
f 2/2/2 5/5/5 28/28/28
f 5/5/5 7/7/7 28/28/28
f 28/28/28 7/7/7 26/26/26
f 7/7/7 9/9/9 26/26/26
f 9/9/9 11/11/11 26/26/26
f 30/30/30 32/32/32 31/31/31
f 31/31/31 32/32/32 33/33/33
f 31/31/31 33/33/33 34/34/34
f 34/34/34 33/33/33 35/35/35
f 34/34/34 35/35/35 36/36/36
f 36/36/36 35/35/35 37/37/37
f 36/36/36 37/37/37 38/38/38
f 38/38/38 37/37/37 39/39/39
f 38/38/38 39/39/39 40/40/40
f 40/40/40 39/39/39 41/41/41
f 40/40/40 41/41/41 42/42/42
f 42/42/42 41/41/41 43/43/43
f 42/42/42 43/43/43 44/44/44
f 44/44/44 43/43/43 45/45/45
f 44/44/44 45/45/45 30/30/30
f 30/30/30 45/45/45 32/32/32
f 32/32/32 46/46/46 33/33/33
f 33/33/33 46/46/46 47/47/47
f 33/33/33 47/47/47 35/35/35
f 35/35/35 47/47/47 48/48/48
f 35/35/35 48/48/48 37/37/37
f 37/37/37 48/48/48 49/49/49
f 37/37/37 49/49/49 39/39/39
f 39/39/39 49/49/49 50/50/50
f 39/39/39 50/50/50 41/41/41
f 41/41/41 50/50/50 51/51/51
f 41/41/41 51/51/51 43/43/43
f 43/43/43 51/51/51 52/52/52
f 43/43/43 52/52/52 45/45/45
f 45/45/45 52/52/52 53/53/53
f 45/45/45 53/53/53 32/32/32
f 32/32/32 53/53/53 46/46/46
f 40/40/40 42/42/42 54/54/54
f 42/42/42 44/44/44 54/54/54
f 55/55/55 40/40/40 54/54/54
f 55/55/55 54/54/54 56/56/56
f 57/57/57 55/55/55 56/56/56
f 58/58/58 57/57/57 56/56/56
f 54/54/54 58/58/58 56/56/56
f 58/58/58 31/31/31 57/57/57
f 30/30/30 31/31/31 58/58/58
f 44/44/44 30/30/30 58/58/58
f 54/54/54 44/44/44 58/58/58
f 31/31/31 34/34/34 57/57/57
f 34/34/34 36/36/36 57/57/57
f 57/57/57 36/36/36 55/55/55
f 36/36/36 38/38/38 55/55/55
f 38/38/38 40/40/40 55/55/55
f 59/59/59 61/61/61 60/60/60
f 60/60/60 61/61/61 62/62/62
f 60/60/60 62/62/62 63/63/63
f 63/63/63 62/62/62 64/64/64
f 63/63/63 64/64/64 65/65/65
f 65/65/65 64/64/64 66/66/66
f 65/65/65 66/66/66 67/67/67
f 67/67/67 66/66/66 68/68/68
f 67/67/67 68/68/68 69/69/69
f 69/69/69 68/68/68 70/70/70
f 69/69/69 70/70/70 71/71/71
f 71/71/71 70/70/70 72/72/72
f 71/71/71 72/72/72 73/73/73
f 73/73/73 72/72/72 74/74/74
f 73/73/73 74/74/74 59/59/59
f 59/59/59 74/74/74 61/61/61
f 61/61/61 75/75/75 62/62/62
f 62/62/62 75/75/75 76/76/76
f 62/62/62 76/76/76 64/64/64
f 64/64/64 76/76/76 77/77/77
f 64/64/64 77/77/77 66/66/66
f 66/66/66 77/77/77 78/78/78
f 66/66/66 78/78/78 68/68/68
f 68/68/68 78/78/78 79/79/79
f 68/68/68 79/79/79 70/70/70
f 70/70/70 79/79/79 80/80/80
f 70/70/70 80/80/80 72/72/72
f 72/72/72 80/80/80 81/81/81
f 72/72/72 81/81/81 74/74/74
f 74/74/74 81/81/81 82/82/82
f 74/74/74 82/82/82 61/61/61
f 61/61/61 82/82/82 75/75/75
f 69/69/69 71/71/71 83/83/83
f 71/71/71 73/73/73 83/83/83
f 84/84/84 69/69/69 83/83/83
f 84/84/84 83/83/83 85/85/85
f 86/86/86 84/84/84 85/85/85
f 87/87/87 86/86/86 85/85/85
f 83/83/83 87/87/87 85/85/85
f 87/87/87 60/60/60 86/86/86
f 59/59/59 60/60/60 87/87/87
f 73/73/73 59/59/59 87/87/87
f 83/83/83 73/73/73 87/87/87
f 60/60/60 63/63/63 86/86/86
f 63/63/63 65/65/65 86/86/86
f 86/86/86 65/65/65 84/84/84
f 65/65/65 67/67/67 84/84/84
f 67/67/67 69/69/69 84/84/84
