#Tree2_(1)_1078_278.obj

v 0.7752662 1.310929 0.07278354
v 1.306419 2.346469 -0.3110495
v 1.184129 2.31463 -0.5785222
v 0.4093681 1.223058 -0.1454427
v 0.5879225 1.480954 0.5344545
v 1.155128 2.463786 -0.08554027
v 0.3771302 1.588565 0.7732862
v 1.064944 4.630815 -1.694032
v 1.167387 4.630815 -1.446713
v 1.064946 4.630815 -1.199394
v 0.7982605 2.602398 -0.01764547
v 0.05036803 1.736241 0.6994745
v 0.4403847 2.6719 -0.1771039
v -0.50842 1.564545 0.3430364
v 0.297912 2.670999 -0.3412501
v -0.3605428 1.480954 -0.01388497
v 0.4708388 2.515306 -0.6946639
v -0.01739136 1.301476 -0.4783573
v 0.467866 4.630815 -1.446712
v 0.5702864 4.630815 -1.694032
v 0.8413202 2.380942 -0.749583
v -0.01739136 1.301476 -0.4783573
v 0.8176174 4.630815 -1.796474
v 1.184129 2.31463 -0.5785222
v 0.4093681 1.223058 -0.1454427
v -0.01739136 1.301476 -0.4783573
v 1.064944 4.630815 -1.694032
v 0.5702852 4.630815 -1.199391
v 0.8176172 4.630815 -1.096951
v -0.473366 0.3292439 -0.1358107
v -0.6694378 0.4708683 0.2543006
v -0.4733646 0.6728067 0.6444108
v -8.714629E-07 0.4708683 0.8060029
v 0.4733792 0.4910424 -0.2004445
v 6.629121E-07 0.8423996 -0.6920167
v 0.5610948 0.7986991 0.5659736
v 0.8372409 0.6728067 0.131841
v 0.4733792 0.4910424 -0.2004445
v -0.9349054 0.2222972 0.7275569
v -0.5725104 0.1527944 0.9643114
v -0.02356439 -0.1077578 0.7724614
v -0.50898 -0.1176493 0.8692761
v -0.8674613 -0.1360745 1.196744
v -0.7166197 -0.3318532 1.150715
v -0.8674613 -0.1360745 1.196744
v -1.033335 -0.5150276 1.527068
v 0.7858716 0.2580049 0.7238587
v 0.4410282 -0.2057266 0.9391006
v 0.7991853 -0.1077578 0.2311956
v 0.9088846 -0.2057266 0.5832493
v 0.9399619 -0.5151595 1.170651
v -0.9349054 0.2222972 0.7275569
v -0.8674613 -0.1360745 1.196744
v -1.094449 -0.3417804 1.009754
v -1.033335 -0.5150276 1.527068
v -0.9696426 -0.1331239 0.4415213
v -0.9349054 0.2222972 0.7275569
v -0.8137782 -0.1077578 0.1714242
v -1.428053 -0.3506457 -0.296556
v -1.428053 -0.3506457 -0.296556
v 0.02662343 0.309643 -0.6717807
v -0.5823323 -0.1077578 -0.2535743
v -0.3954286 -0.2645998 -0.6329519
v 0.07547889 -0.6410102 -1.310642
v 0.2633098 -0.2645998 -0.6329511
v 0.5026539 -0.1077578 -0.3133473
v 6.629121E-07 0.8423996 -0.6920167
v -1.428053 -0.3506457 -0.296556
v 0.5026539 -0.1077578 -0.3133473
v 1.175221 -0.4948694 -0.2139332
v 1.175221 -0.4948694 -0.2139332
v -0.0548357 1.150024 0.0683201
v -0.6271825 1.569091 0.08067974
v -0.7951832 1.419268 0.0367984
v -0.1862163 1.032856 0.0340044
v -0.3377205 0.984323 0.1168546
v -0.02051474 1.267193 0.1997041
v -0.103379 1.315726 0.351193
v -0.7331254 1.631149 0.2743852
v -0.2548595 1.267193 0.4340409
v -0.3862418 1.150024 0.3997245
v -0.9011262 1.481326 0.2305039
v -0.420561 1.032856 0.2683412
v -0.8381205 1.816107 -0.5210699
v -0.7044665 1.935304 -0.486158
v -0.7044665 1.935304 -0.486158
v -1.142115 2.360987 -0.6409965
v -0.3377205 0.984323 0.1168546
v -0.9011262 1.481326 0.2305039
v -0.7951832 1.419268 0.0367984
v -0.9224102 1.86548 -0.3669625
v -0.8381205 1.816107 -0.5210699
v -0.9224102 1.86548 -0.3669625
v -1.214082 2.403146 -0.509407
v -1.142115 2.360987 -0.6409965
v -0.7044665 1.935304 -0.486158
v -1.027985 2.462767 -0.6111878
v -1.214082 2.403146 -0.509407
v -1.099952 2.504926 -0.4795983
v -0.7887528 1.984677 -0.3320491
v -0.7887528 1.984677 -0.3320491
v -1.099952 2.504926 -0.4795983
v -0.7044665 1.935304 -0.486158
v -0.9011262 1.481326 0.2305039
v -0.7887528 1.984677 -0.3320491
v -0.9224102 1.86548 -0.3669625

vn 0.8940973 -0.3371709 -0.2947979
vn 0.8387193 -0.352839 -0.4147945
vn 0.2683585 -0.441645 -0.8561154
vn 0.1436837 -0.246164 -0.9585187
vn 0.8877612 0.08349802 0.4526679
vn 0.9589099 0.134854 0.2496122
vn 0.4600529 0.2369131 0.8557006
vn 0.2237669 -0.251435 -0.9416521
vn 0.8709937 0.021219 -0.4908358
vn 0.9459888 0.274749 0.1720991
vn 0.6177455 0.44408 0.6489865
vn -0.1832123 0.3261311 0.9274005
vn -0.01489684 0.5701939 0.8213751
vn -0.8109029 0.352136 0.4673721
vn -0.7810907 0.3675431 0.5047866
vn -0.9574233 0.190888 -0.2165699
vn -0.9631135 -0.08098095 -0.2566213
vn -0.6318662 -0.143503 -0.761677
vn -0.9252996 0.06846599 0.3730053
vn -0.9206074 -0.2562009 -0.2946913
vn -0.5045178 -0.327403 -0.7989175
vn -0.6318662 -0.143503 -0.761677
vn -0.5102214 -0.351269 -0.7850377
vn 0.2683585 -0.441645 -0.8561154
vn 0.1436837 -0.246164 -0.9585187
vn -0.6318662 -0.143503 -0.761677
vn 0.2237669 -0.251435 -0.9416521
vn -0.1700016 0.475129 0.8633376
vn 0.5698238 0.4572679 0.6827934
vn -0.8545395 0.3460911 -0.3872769
vn -0.8123151 0.452247 0.3682618
vn -0.2320084 0.4481292 0.8633379
vn 0.4717921 0.167681 0.8656184
vn 0.2105859 0.195953 -0.9577348
vn -0.4110091 0.2755259 -0.8689976
vn 0.8964297 0.208623 0.391012
vn 0.8841749 0.221386 -0.4113672
vn 0.2105859 0.195953 -0.9577348
vn -0.5500101 0.6389848 0.5377614
vn 0.4893327 0.3673829 0.7909383
vn 0.506119 0.02434001 0.8621201
vn 0.4207342 -0.019511 0.9069741
vn 0.1131849 0.6323718 0.7663518
vn 0.4207342 -0.019511 0.9069741
vn 0.1131849 0.6323718 0.7663518
vn 0.2017801 0.676885 0.7078923
vn 0.8355995 0.3803267 0.3963899
vn 0.4207342 -0.019511 0.9069741
vn 0.9952483 0.05863598 -0.0777348
vn 0.8702946 -0.016972 -0.4922391
vn 0.7944833 0.489 0.3601045
vn -0.5500101 0.6389848 0.5377614
vn 0.1131849 0.6323718 0.7663518
vn -0.9161234 0.173637 0.3613421
vn 0.2017801 0.676885 0.7078923
vn -0.9161234 0.173637 0.3613421
vn -0.5500101 0.6389848 0.5377614
vn -0.7623495 0.2254061 0.6066426
vn -0.9161234 0.173637 0.3613421
vn -0.9161234 0.173637 0.3613421
vn -0.2827371 0.4164998 -0.864053
vn -0.716556 0.274373 -0.6413009
vn -0.9387679 0.153429 -0.3085035
vn -0.1616137 0.5555828 -0.8156033
vn 0.2138696 0.01699201 -0.9767145
vn 0.1234381 0.1688749 -0.9778774
vn -0.4110091 0.2755259 -0.8689976
vn -0.9161234 0.173637 0.3613421
vn 0.1234381 0.1688749 -0.9778774
vn 0.4985368 0.3062461 -0.8109713
vn 0.4985368 0.3062461 -0.8109713
vn -0.04996404 0.4029588 -0.9138532
vn 0.3501341 0.02636 -0.9363286
vn -0.2687799 -0.5568762 -0.7859046
vn -0.4113088 -0.1007939 -0.905906
vn -0.6631212 -0.6331879 -0.3991781
vn 0.2873124 0.7606381 -0.5821351
vn 0.5177959 0.8510838 0.08685514
vn 0.05925134 0.539537 0.8398745
vn 0.3985786 0.4079698 0.8213986
vn -0.04811561 -0.2859819 0.9570262
vn -0.7397586 -0.4238028 0.5226361
vn -0.5023639 -0.7340966 0.4568728
vn -0.1458697 -0.5169717 -0.8434823
vn 0.4302156 -0.117654 -0.8950263
vn 0.4302156 -0.117654 -0.8950263
vn -0.4054075 -0.223248 -0.8864564
vn -0.6631212 -0.6331879 -0.3991781
vn -0.7397586 -0.4238028 0.5226361
vn -0.2687799 -0.5568762 -0.7859046
vn -0.8803244 -0.3610662 0.3076688
vn -0.1458697 -0.5169717 -0.8434823
vn -0.8803244 -0.3610662 0.3076688
vn -0.7395428 -0.425273 0.5217462
vn -0.4054075 -0.223248 -0.8864564
vn 0.4302156 -0.117654 -0.8950263
vn 0.2631557 0.198859 -0.9440361
vn -0.7395428 -0.425273 0.5217462
vn 0.3840064 0.282481 0.8790583
vn 0.1537513 0.5991837 0.7857094
vn 0.1537513 0.5991837 0.7857094
vn 0.3840064 0.282481 0.8790583
vn 0.4302156 -0.117654 -0.8950263
vn -0.7397586 -0.4238028 0.5226361
vn 0.1537513 0.5991837 0.7857094
vn -0.8803244 -0.3610662 0.3076688

vt 0.1541748 0.3811035
vt 0.1590576 0.4104004
vt 0.1722412 0.4101563
vt 0.1663818 0.376709
vt 0.1364746 0.3845215
vt 0.1468506 0.4121094
vt 0.126709 0.3862305
vt 0.1921387 0.473877
vt 0.1811523 0.4743652
vt 0.168335 0.4765625
vt 0.1317139 0.4157715
vt 0.1170654 0.3901367
vt 0.1200562 0.4199219
vt 0.1000366 0.3901367
vt 0.1082153 0.4238281
vt 0.09014893 0.3935547
vt 0.09667969 0.4287109
vt 0.0737915 0.3967285
vt 0.1230469 0.4912109
vt 0.1109619 0.4958496
vt 0.07879639 0.4335938
vt 0.0737915 0.3967285
vt 0.09790039 0.4995117
vt 0.06658936 0.4365234
vt 0.06036377 0.4016113
vt 0.0737915 0.3967285
vt 0.08673096 0.5014648
vt 0.1363525 0.4863281
vt 0.1523438 0.4812012
vt 0.07971191 0.3654785
vt 0.09265137 0.3664551
vt 0.1063843 0.3684082
vt 0.1200562 0.361084
vt 0.05514526 0.3876953
vt 0.06793213 0.3845215
vt 0.1364746 0.3662109
vt 0.1503906 0.3605957
vt 0.1633301 0.3591309
vt 0.1005859 0.3500977
vt 0.1080933 0.3491211
vt 0.1171875 0.3447266
vt 0.1099243 0.3425293
vt 0.1017456 0.3344727
vt 0.1046753 0.3322754
vt 0.1017456 0.3344727
vt 0.0958252 0.3178711
vt 0.1339111 0.3461914
vt 0.1220703 0.3371582
vt 0.1396484 0.333252
vt 0.1322021 0.3295898
vt 0.1195679 0.3183594
vt 0.1005859 0.3500977
vt 0.1017456 0.3344727
vt 0.09527588 0.3286133
vt 0.0958252 0.3178711
vt 0.09289551 0.3415527
vt 0.1005859 0.3500977
vt 0.08953857 0.3452148
vt 0.07525635 0.3251953
vt 0.07525635 0.3251953
vt 0.06292725 0.369873
vt 0.07281494 0.3515625
vt 0.06408691 0.3474121
vt 0.04751587 0.3354492
vt 0.05215454 0.3608398
vt 0.05004883 0.3742676
vt 0.06793213 0.3845215
vt 0.07525635 0.3251953
vt 0.163208 0.3413086
vt 0.1427002 0.314209
vt 0.1427002 0.314209
vt 0.1293945 0.354248
vt 0.1226807 0.392334
vt 0.1434326 0.3952637
vt 0.1375732 0.3566895
vt 0.1451416 0.3615723
vt 0.1209106 0.3537598
vt 0.1124878 0.3549805
vt 0.1031494 0.3913574
vt 0.1035767 0.3566895
vt 0.09338379 0.3581543
vt 0.08624268 0.3920898
vt 0.08288574 0.3581543
vt 0.1407471 0.4306641
vt 0.1242676 0.4301758
vt 0.1242676 0.4301758
vt 0.1412354 0.4660645
vt 0.07305908 0.3564453
vt 0.08624268 0.3920898
vt 0.07385254 0.3935547
vt 0.0859375 0.4306641
vt 0.07189941 0.4326172
vt 0.0859375 0.4306641
vt 0.08843994 0.4650879
vt 0.07489014 0.465332
vt 0.1242676 0.4301758
vt 0.1218262 0.4648438
vt 0.08843994 0.4650879
vt 0.1048584 0.465332
vt 0.1066284 0.4301758
vt 0.1066284 0.4301758
vt 0.1048584 0.465332
vt 0.1242676 0.4301758
vt 0.08624268 0.3920898
vt 0.1066284 0.4301758
vt 0.0859375 0.4306641

g Tree2_(1)_1078_278
usemtl Tree2_(1)_1078_278
usemap Tree2_(1)_1078_278
f 1/1/1 3/3/3 2/2/2
f 1/1/1 4/4/4 3/3/3
f 5/5/5 1/1/1 2/2/2
f 5/5/5 2/2/2 6/6/6
f 7/7/7 5/5/5 6/6/6
f 2/2/2 3/3/3 8/8/8
f 2/2/2 8/8/8 9/9/9
f 6/6/6 2/2/2 9/9/9
f 6/6/6 9/9/9 10/10/10
f 11/11/11 6/6/6 10/10/10
f 7/7/7 6/6/6 11/11/11
f 12/12/12 7/7/7 11/11/11
f 12/12/12 11/11/11 13/13/13
f 14/14/14 12/12/12 13/13/13
f 14/14/14 13/13/13 15/15/15
f 16/16/16 14/14/14 15/15/15
f 16/16/16 15/15/15 17/17/17
f 18/18/18 16/16/16 17/17/17
f 17/17/17 15/15/15 19/19/19
f 17/17/17 19/19/19 20/20/20
f 21/21/21 17/17/17 20/20/20
f 22/22/22 17/17/17 21/21/21
f 21/21/21 20/20/20 23/23/23
f 24/24/24 21/21/21 23/23/23
f 25/25/25 21/21/21 24/24/24
f 25/25/25 26/26/26 21/21/21
f 24/24/24 23/23/23 27/27/27
f 15/15/15 28/28/28 19/19/19
f 15/15/15 13/13/13 28/28/28
f 13/13/13 29/29/29 28/28/28
f 30/30/30 14/14/14 16/16/16
f 30/30/30 31/31/31 14/14/14
f 31/31/31 12/12/12 14/14/14
f 31/31/31 32/32/32 12/12/12
f 32/32/32 7/7/7 12/12/12
f 32/32/32 33/33/33 7/7/7
f 34/34/34 22/22/22 25/25/25
f 34/34/34 35/35/35 22/22/22
f 35/35/35 30/30/30 16/16/16
f 35/35/35 16/16/16 18/18/18
f 33/33/33 5/5/5 7/7/7
f 33/33/33 36/36/36 5/5/5
f 36/36/36 1/1/1 5/5/5
f 36/36/36 37/37/37 1/1/1
f 37/37/37 4/4/4 1/1/1
f 37/37/37 38/38/38 4/4/4
f 32/32/32 31/31/31 39/39/39
f 33/33/33 39/39/39 40/40/40
f 41/41/41 33/33/33 40/40/40
f 41/41/41 40/40/40 42/42/42
f 42/42/42 40/40/40 43/43/43
f 42/42/42 43/43/43 44/44/44
f 40/40/40 39/39/39 45/45/45
f 44/44/44 43/43/43 46/46/46
f 37/37/37 36/36/36 47/47/47
f 36/36/36 33/33/33 47/47/47
f 33/33/33 48/48/48 47/47/47
f 33/33/33 41/41/41 48/48/48
f 49/49/49 37/37/37 47/47/47
f 49/49/49 47/47/47 50/50/50
f 47/47/47 48/48/48 51/51/51
f 50/50/50 47/47/47 51/51/51
f 33/33/33 32/32/32 52/52/52
f 39/39/39 54/54/54 53/53/53
f 53/53/53 54/54/54 55/55/55
f 39/39/39 56/56/56 54/54/54
f 31/31/31 56/56/56 57/57/57
f 31/31/31 58/58/58 56/56/56
f 58/58/58 31/31/31 59/59/59
f 31/31/31 30/30/30 60/60/60
f 61/61/61 62/62/62 30/30/30
f 62/62/62 61/61/61 63/63/63
f 61/61/61 30/30/30 35/35/35
f 64/64/64 63/63/63 61/61/61
f 64/64/64 61/61/61 65/65/65
f 61/61/61 66/66/66 65/65/65
f 66/66/66 61/61/61 34/34/34
f 34/34/34 61/61/61 67/67/67
f 30/30/30 62/62/62 68/68/68
f 13/13/13 11/11/11 29/29/29
f 11/11/11 10/10/10 29/29/29
f 69/69/69 38/38/38 70/70/70
f 38/38/38 37/37/37 70/70/70
f 37/37/37 49/49/49 71/71/71
f 72/72/72 74/74/74 73/73/73
f 72/72/72 75/75/75 74/74/74
f 75/75/75 76/76/76 74/74/74
f 77/77/77 72/72/72 73/73/73
f 78/78/78 77/77/77 73/73/73
f 78/78/78 73/73/73 79/79/79
f 80/80/80 78/78/78 79/79/79
f 81/81/81 80/80/80 79/79/79
f 81/81/81 79/79/79 82/82/82
f 83/83/83 81/81/81 82/82/82
f 73/73/73 74/74/74 84/84/84
f 73/73/73 84/84/84 85/85/85
f 79/79/79 73/73/73 86/86/86
f 85/85/85 84/84/84 87/87/87
f 88/88/88 83/83/83 89/89/89
f 88/88/88 89/89/89 90/90/90
f 90/90/90 82/82/82 91/91/91
f 90/90/90 93/93/93 92/92/92
f 92/92/92 91/91/91 94/94/94
f 92/92/92 94/94/94 95/95/95
f 96/96/96 87/87/87 97/97/97
f 93/93/93 99/99/99 98/98/98
f 93/93/93 100/100/100 99/99/99
f 101/101/101 97/97/97 102/102/102
f 101/101/101 103/103/103 97/97/97
f 79/79/79 103/103/103 101/101/101
f 104/104/104 79/79/79 105/105/105
f 104/104/104 105/105/105 106/106/106
