#Tree_conf2_(5)_1898_313.obj

v 2.229059 2.41453 -0.01389007
v 1.067522 2.895794 -0.4499953
v 1.566361 2.41453 -1.586003
v -0.4499955 2.895794 -1.067521
v -0.0138902 2.41453 -2.22906
v -1.586005 2.41453 -1.566361
v -1.253916 2.895794 0.007813535
v -2.229059 2.41453 0.01388994
v -0.436657 2.895794 1.073047
v -1.566361 2.41453 1.586005
v 0.0138902 2.41453 2.22906
v 0.8921771 2.895794 0.8811277
v 1.586003 2.41453 1.566362
v 0 3.673443 0
v 0.7697468 5.456536 -0.7697469
v 0.2848005 6.349499 -0.2848013
v 1.384215E-06 6.349499 -0.4027689
v 1.129007E-06 5.456536 -1.088586
v -0.2847998 6.349499 -0.2848004
v -0.7697468 5.456536 -0.7697463
v -0.4027675 6.349499 2.023171E-07
v -1.088586 5.456536 -1.129007E-06
v -0.2847996 6.349499 0.2848011
v -0.7697463 5.456536 0.7697468
v 9.14776E-07 6.349499 0.4027683
v 7.101851E-07 5.456536 1.088585
v 0.2848008 6.349499 0.2848002
v 0.7697468 5.456536 0.7697463
v 0.4027698 6.349499 -8.33969E-07
v 1.088586 5.456536 -8.365154E-07
v 9.195962E-07 7.127673 -2.526608E-07
v 1.48231 3.35846 1.321719
v 0.9566591 3.86839 0.3851391
v 1.918955 3.351292 -0.08712076
v 0.2964979 3.862013 -0.8680074
v 1.231503 3.344651 -1.392072
v -0.1773481 3.34243 -1.828715
v -0.8338462 3.863357 -0.6041089
v -1.482309 3.345927 -1.141268
v -0.8861151 3.869257 0.5554466
v -1.918955 3.353096 0.2675725
v -1.231502 3.359736 1.572524
v 0.09976377 3.872375 1.168109
v 0.1773472 3.361958 2.009165
v 3.205961E-07 4.729911 0.1149907
v -1.323042 5.128105 0.9046341
v -0.5031178 5.474663 0.7122254
v -0.4085391 5.021135 1.517634
v 0.5287389 5.308237 0.5056306
v 0.6659746 4.847831 1.302499
v 1.271063 4.709711 0.3852495
v 0.5758542 5.256999 -0.3610482
v 1.052275 4.687684 -0.6967984
v -0.2408062 5.365918 -0.6453692
v 0.1377714 4.794655 -1.309802
v -0.9367422 4.967959 -1.094666
v -0.8834118 5.49236 -0.06887815
v -1.541831 5.10608 -0.1774176
v 0.01565729 6.137804 0.05302739
v 1.425082 4.340247 -0.8985665
v 0.5214419 4.778743 -0.7078208
v 0.3811184 4.334083 -1.61885
v -0.6765448 4.77326 -0.4880251
v -0.8663929 4.328372 -1.389967
v -1.586676 4.326462 -0.3459912
v -0.7503857 4.774414 0.5073784
v -1.3578 4.32947 0.9015265
v 0.1877593 4.779488 0.8481832
v -0.3138355 4.335634 1.62181
v 0.9336752 4.341344 1.392925
v 0.9438235 4.782169 0.1965377
v 1.653959 4.343255 0.3489528
v 0.05396358 5.519577 0.007841637

vn 0.6688669 0.7214358 0.1792975
vn 0.3635255 0.92652 -0.0970042
vn 0.599744 0.7214344 -0.3461785
vn -0.0003093258 0.92652 -0.3762453
vn 0.1792975 0.7214358 -0.6688669
vn -0.3461776 0.721436 -0.5997425
vn -0.3889782 0.9153271 -0.10427
vn -0.6688669 0.7214358 -0.1792975
vn -0.2526872 0.9098089 0.3292369
vn -0.599744 0.7214344 0.3461785
vn -0.1792975 0.7214358 0.6688669
vn 0.201319 0.9153271 0.3487793
vn 0.3461776 0.721436 0.5997425
vn 0 1 0
vn 0.7688265 0.4664523 -0.4374106
vn 0.7021816 0.5893607 -0.3994936
vn 0.2140322 0.5893612 -0.7790017
vn 0.2343464 0.4664526 -0.8529383
vn -0.3994935 0.5893613 -0.702181
vn -0.4374106 0.4664523 -0.7688265
vn -0.7790015 0.5893614 -0.2140321
vn -0.8529383 0.4664526 -0.2343464
vn -0.7021807 0.5893613 0.399494
vn -0.7688265 0.4664523 0.4374106
vn -0.2140322 0.5893611 0.7790018
vn -0.2343464 0.4664526 0.8529383
vn 0.3994943 0.5893606 0.7021812
vn 0.4374106 0.4664523 0.7688265
vn 0.779002 0.5893607 0.2140323
vn 0.8529383 0.4664526 0.2343464
vn 0 1 0
vn 0.4649706 0.685831 0.5598553
vn 0.4147209 0.8907663 0.1858549
vn 0.7706057 0.6344045 0.06080996
vn 0.2925104 0.889865 -0.3501114
vn 0.6351913 0.589 -0.4996109
vn 0.1497654 0.5742365 -0.8048745
vn -0.2734085 0.874849 -0.3998587
vn -0.4119571 0.5975742 -0.6878927
vn -0.4858037 0.8681709 0.1013611
vn -0.7335985 0.6471028 -0.2075842
vn -0.61704 0.6952757 0.3685828
vn -0.08364242 0.8767521 0.4736136
vn -0.1156001 0.7119436 0.6926564
vn 0.03113046 0.9930726 -0.1133039
vn -0.7832283 0.5627667 0.2642859
vn -0.2168458 0.8928517 0.3947071
vn -0.3669482 0.5627652 0.7407053
vn 0.4140858 0.8018581 0.4307629
vn 0.2642859 0.5627667 0.7832283
vn 0.7407042 0.562767 0.3669477
vn 0.6421183 0.7447317 -0.1818209
vn 0.7832283 0.5627667 -0.2642859
vn 0.1642725 0.8006369 -0.5761901
vn 0.3669482 0.5627652 -0.7407053
vn -0.2642859 0.5627667 -0.7832283
vn -0.3742422 0.8897872 -0.2611926
vn -0.7407042 0.562767 -0.3669477
vn 0 1 0
vn 0.6732038 0.6858311 -0.2764642
vn 0.3012727 0.8907662 -0.3402503
vn 0.2882675 0.6344045 -0.7172397
vn -0.2467263 0.889865 -0.3837532
vn -0.2870139 0.589 -0.7554482
vn -0.7233658 0.5742365 -0.3833984
vn -0.4632819 0.8748488 0.1414543
vn -0.779554 0.5975742 0.187618
vn -0.04841319 0.8681709 0.4938984
vn -0.4172811 0.6471027 0.6380709
vn 0.1673937 0.6952757 0.6989785
vn 0.426991 0.8767521 0.2213242
vn 0.6264811 0.7119437 0.3172661
vn -0.09882781 0.9930726 -0.06356056

vt 0.2459717 0.0847168
vt 0.213623 0.08380127
vt 0.2144775 0.1161499
vt 0.1708984 0.08374023
vt 0.1700439 0.1160889
vt 0.1385498 0.08459473
vt 0.1621094 0.04983521
vt 0.1385498 0.0401001
vt 0.1923828 0.03216553
vt 0.1700439 0.008682251
vt 0.2145996 0.008712769
vt 0.2225342 0.04989624
vt 0.2460938 0.04019165
vt 0.1922607 0.06237793
vt 0.3461914 0.0803833
vt 0.3190918 0.06854248
vt 0.3068848 0.08081055
vt 0.3181152 0.1083374
vt 0.2895508 0.08081055
vt 0.2785645 0.1083374
vt 0.2770996 0.06854248
vt 0.2504883 0.08032227
vt 0.2770996 0.05114746
vt 0.2504883 0.04064941
vt 0.2895508 0.03884888
vt 0.2785645 0.01256561
vt 0.3068848 0.03887939
vt 0.3183594 0.01262665
vt 0.3190918 0.0512085
vt 0.3464355 0.04077148
vt 0.2978516 0.05935669
vt 0.2459717 0.0847168
vt 0.213623 0.08380127
vt 0.2144775 0.1161499
vt 0.1708984 0.08374023
vt 0.1700439 0.1160889
vt 0.1385498 0.08459473
vt 0.1621094 0.04983521
vt 0.1385498 0.0401001
vt 0.1923828 0.03216553
vt 0.1700439 0.008682251
vt 0.2145996 0.008712769
vt 0.2225342 0.04989624
vt 0.2460938 0.04019165
vt 0.1922607 0.06237793
vt 0.2459717 0.0847168
vt 0.213623 0.08380127
vt 0.2144775 0.1161499
vt 0.1708984 0.08374023
vt 0.1700439 0.1160889
vt 0.1385498 0.08459473
vt 0.1621094 0.04983521
vt 0.1385498 0.0401001
vt 0.1923828 0.03216553
vt 0.1700439 0.008682251
vt 0.2145996 0.008712769
vt 0.2225342 0.04989624
vt 0.2460938 0.04019165
vt 0.1922607 0.06237793
vt 0.2459717 0.0847168
vt 0.213623 0.08380127
vt 0.2144775 0.1161499
vt 0.1708984 0.08374023
vt 0.1700439 0.1160889
vt 0.1385498 0.08459473
vt 0.1621094 0.04983521
vt 0.1385498 0.0401001
vt 0.1923828 0.03216553
vt 0.1700439 0.008682251
vt 0.2145996 0.008712769
vt 0.2225342 0.04989624
vt 0.2460938 0.04019165
vt 0.1922607 0.06237793

g Tree_conf2_(5)_1898_313
usemtl Tree_conf2_(5)_1898_313
usemap Tree_conf2_(5)_1898_313
f 1/1/1 3/3/3 2/2/2
f 3/3/3 4/4/4 2/2/2
f 3/3/3 5/5/5 4/4/4
f 5/5/5 6/6/6 4/4/4
f 6/6/6 7/7/7 4/4/4
f 6/6/6 8/8/8 7/7/7
f 8/8/8 9/9/9 7/7/7
f 8/8/8 10/10/10 9/9/9
f 10/10/10 11/11/11 9/9/9
f 11/11/11 12/12/12 9/9/9
f 11/11/11 13/13/13 12/12/12
f 13/13/13 2/2/2 12/12/12
f 13/13/13 1/1/1 2/2/2
f 2/2/2 4/4/4 14/14/14
f 4/4/4 7/7/7 14/14/14
f 7/7/7 9/9/9 14/14/14
f 9/9/9 12/12/12 14/14/14
f 12/12/12 2/2/2 14/14/14
f 15/15/15 17/17/17 16/16/16
f 15/15/15 18/18/18 17/17/17
f 18/18/18 19/19/19 17/17/17
f 18/18/18 20/20/20 19/19/19
f 20/20/20 21/21/21 19/19/19
f 20/20/20 22/22/22 21/21/21
f 22/22/22 23/23/23 21/21/21
f 22/22/22 24/24/24 23/23/23
f 24/24/24 25/25/25 23/23/23
f 24/24/24 26/26/26 25/25/25
f 26/26/26 27/27/27 25/25/25
f 26/26/26 28/28/28 27/27/27
f 28/28/28 29/29/29 27/27/27
f 28/28/28 30/30/30 29/29/29
f 30/30/30 16/16/16 29/29/29
f 30/30/30 15/15/15 16/16/16
f 16/16/16 17/17/17 31/31/31
f 17/17/17 19/19/19 31/31/31
f 19/19/19 21/21/21 31/31/31
f 21/21/21 23/23/23 31/31/31
f 23/23/23 25/25/25 31/31/31
f 25/25/25 27/27/27 31/31/31
f 27/27/27 29/29/29 31/31/31
f 29/29/29 16/16/16 31/31/31
f 32/32/32 34/34/34 33/33/33
f 34/34/34 35/35/35 33/33/33
f 34/34/34 36/36/36 35/35/35
f 36/36/36 37/37/37 35/35/35
f 37/37/37 38/38/38 35/35/35
f 37/37/37 39/39/39 38/38/38
f 39/39/39 40/40/40 38/38/38
f 39/39/39 41/41/41 40/40/40
f 41/41/41 42/42/42 40/40/40
f 42/42/42 43/43/43 40/40/40
f 42/42/42 44/44/44 43/43/43
f 44/44/44 33/33/33 43/43/43
f 44/44/44 32/32/32 33/33/33
f 33/33/33 35/35/35 45/45/45
f 35/35/35 38/38/38 45/45/45
f 38/38/38 40/40/40 45/45/45
f 40/40/40 43/43/43 45/45/45
f 43/43/43 33/33/33 45/45/45
f 46/46/46 48/48/48 47/47/47
f 48/48/48 49/49/49 47/47/47
f 48/48/48 50/50/50 49/49/49
f 50/50/50 51/51/51 49/49/49
f 51/51/51 52/52/52 49/49/49
f 51/51/51 53/53/53 52/52/52
f 53/53/53 54/54/54 52/52/52
f 53/53/53 55/55/55 54/54/54
f 55/55/55 56/56/56 54/54/54
f 56/56/56 57/57/57 54/54/54
f 56/56/56 58/58/58 57/57/57
f 58/58/58 47/47/47 57/57/57
f 58/58/58 46/46/46 47/47/47
f 47/47/47 49/49/49 59/59/59
f 49/49/49 52/52/52 59/59/59
f 52/52/52 54/54/54 59/59/59
f 54/54/54 57/57/57 59/59/59
f 57/57/57 47/47/47 59/59/59
f 60/60/60 62/62/62 61/61/61
f 62/62/62 63/63/63 61/61/61
f 62/62/62 64/64/64 63/63/63
f 64/64/64 65/65/65 63/63/63
f 65/65/65 66/66/66 63/63/63
f 65/65/65 67/67/67 66/66/66
f 67/67/67 68/68/68 66/66/66
f 67/67/67 69/69/69 68/68/68
f 69/69/69 70/70/70 68/68/68
f 70/70/70 71/71/71 68/68/68
f 70/70/70 72/72/72 71/71/71
f 72/72/72 61/61/61 71/71/71
f 72/72/72 60/60/60 61/61/61
f 61/61/61 63/63/63 73/73/73
f 63/63/63 66/66/66 73/73/73
f 66/66/66 68/68/68 73/73/73
f 68/68/68 71/71/71 73/73/73
f 71/71/71 61/61/61 73/73/73
