#Tree2_big_(40)_2910_733.obj

v 1.085374 1.8353 0.1018948
v 1.828992 3.285057 -0.4354766
v 1.65778 3.240481 -0.8099309
v 0.5731184 1.712281 -0.2036195
v 0.8230962 2.073336 0.7482322
v 1.617181 3.449301 -0.1197566
v 0.5279842 2.223991 1.0826
v 1.490924 6.48314 -2.371645
v 1.634344 6.48314 -2.025403
v 1.490925 6.48314 -1.679151
v 1.117568 3.643358 -0.02470736
v 0.07051855 2.430738 0.9792615
v 0.6165423 3.74066 -0.2479459
v -0.7117822 2.190363 0.4802462
v 0.4170806 3.739399 -0.4777541
v -0.5047577 2.073336 -0.0194374
v 0.6591756 3.521428 -0.9725294
v -0.02434271 1.822066 -0.6697052
v 0.6550146 6.48314 -2.025402
v 0.798404 6.48314 -2.371651
v 1.177852 3.333319 -1.049419
v -0.02434271 1.822066 -0.6697052
v 1.144665 6.48314 -2.515062
v 1.65778 3.240481 -0.8099309
v 0.5731184 1.712281 -0.2036195
v -0.02434271 1.822066 -0.6697052
v 1.490924 6.48314 -2.371645
v 0.7984014 6.48314 -1.679149
v 1.144669 6.48314 -1.535735
v -0.6627076 0.4609415 -0.1901387
v -0.9372083 0.6592157 0.3560162
v -0.6627105 0.9419294 0.9021782
v 2.411036E-07 0.6592157 1.128402
v 0.6627309 0.6874593 -0.280626
v 3.940139E-06 1.179359 -0.9688292
v 0.7855366 1.118179 0.7923595
v 1.17214 0.9419294 0.1845752
v 0.6627309 0.6874593 -0.280626
v -1.308865 0.3112161 1.018576
v -0.801512 0.2139121 1.350034
v -0.03298671 -0.1508609 1.081443
v -0.7125691 -0.164709 1.216986
v -1.214441 -0.1905044 1.675439
v -1.003266 -0.4645944 1.610999
v -1.214441 -0.1905044 1.675439
v -1.446666 -0.7210387 2.137895
v 1.100225 0.3612069 1.013399
v 0.6174424 -0.2880173 1.314739
v 1.118861 -0.1508609 0.3236711
v 1.27244 -0.2880173 0.816548
v 1.315946 -0.7212233 1.638911
v -1.308865 0.3112161 1.018576
v -1.214441 -0.1905044 1.675439
v -1.532226 -0.4784926 1.41365
v -1.446666 -0.7210387 2.137895
v -1.357496 -0.1863734 0.6181232
v -1.308865 0.3112161 1.018576
v -1.139285 -0.1508609 0.2399913
v -1.999272 -0.4909039 -0.4151832
v -1.999272 -0.4909039 -0.4151832
v 0.03727541 0.4335002 -0.9404982
v -0.8152655 -0.1508609 -0.3550029
v -0.5535987 -0.3704397 -0.8861331
v 0.1056711 -0.8974142 -1.834899
v 0.3686376 -0.3704397 -0.8861347
v 0.7037224 -0.1508609 -0.4386937
v 3.940139E-06 1.179359 -0.9688292
v -1.999272 -0.4909039 -0.4151832
v 0.7037224 -0.1508609 -0.4386937
v 1.64531 -0.6928171 -0.299506
v 1.64531 -0.6928171 -0.299506
v -0.07676978 1.610034 0.0956491
v -0.8780534 2.196727 0.1129519
v -1.113253 1.986975 0.05151599
v -0.2606974 1.445998 0.04759924
v -0.4728049 1.378052 0.1635918
v -0.02871956 1.77407 0.2795862
v -0.144725 1.842016 0.4916671
v -1.026373 2.283609 0.3841355
v -0.3568027 1.77407 0.6076578
v -0.5407359 1.610034 0.5596132
v -1.261578 2.073857 0.3227049
v -0.5887805 1.445998 0.3756708
v -1.173369 2.542549 -0.7294971
v -0.9862512 2.709425 -0.6806232
v -0.9862512 2.709425 -0.6806232
v -1.59896 3.305381 -0.8973972
v -0.4728049 1.378052 0.1635918
v -1.261578 2.073857 0.3227049
v -1.113253 1.986975 0.05151599
v -1.29137 2.611672 -0.5137503
v -1.173369 2.542549 -0.7294971
v -1.29137 2.611672 -0.5137503
v -1.699713 3.364405 -0.7131751
v -1.59896 3.305381 -0.8973972
v -0.9862512 2.709425 -0.6806232
v -1.439179 3.447873 -0.8556623
v -1.699713 3.364405 -0.7131751
v -1.539929 3.506896 -0.6714375
v -1.104255 2.778548 -0.4648684
v -1.104255 2.778548 -0.4648684
v -1.539929 3.506896 -0.6714375
v -0.9862512 2.709425 -0.6806232
v -1.261578 2.073857 0.3227049
v -1.104255 2.778548 -0.4648684
v -1.29137 2.611672 -0.5137503

vn 0.7016205 -0.3371709 -0.6277298
vn 0.602879 -0.352839 -0.7155707
vn -0.09636956 -0.4416449 -0.8919992
vn -0.2515914 -0.246164 -0.9360049
vn 0.9947056 0.08349802 0.05990848
vn 0.9787215 0.134854 -0.1546568
vn 0.7638437 0.2369131 0.6003459
vn -0.1714449 -0.251435 -0.9525687
vn 0.6020537 0.021219 -0.7981736
vn 0.9358829 0.274749 -0.2205361
vn 0.8257202 0.44408 0.3478206
vn 0.2029171 0.3261311 0.9232894
vn 0.3147931 0.5701939 0.7588045
vn -0.5563589 0.352136 0.7526387
vn -0.5140728 0.3675431 0.7750106
vn -0.9641461 0.190888 0.1843479
vn -0.9853772 -0.08098095 0.1499133
vn -0.8837249 -0.143503 -0.4454629
vn -0.6989464 0.06846599 0.7118893
vn -0.9616406 -0.2562009 0.09802252
vn -0.7818927 -0.327403 -0.5305198
vn -0.8837249 -0.143503 -0.4454629
vn -0.7815703 -0.3512689 -0.5155173
vn -0.09636956 -0.4416449 -0.8919992
vn -0.2515914 -0.246164 -0.9360049
vn -0.8837249 -0.143503 -0.4454629
vn -0.1714449 -0.251435 -0.9525687
vn 0.1894085 0.475129 0.8592886
vn 0.7953151 0.4572679 0.3979698
vn -0.9381073 0.3460911 -0.01325768
vn -0.597285 0.4522469 0.662362
vn 0.1325751 0.4481292 0.8840839
vn 0.7785693 0.167681 0.6047421
vn -0.1899572 0.1959529 -0.9620389
vn -0.7242088 0.2755259 -0.6321449
vn 0.9779962 0.208623 -6.973743E-05
vn 0.6459126 0.221386 -0.730606
vn -0.1899572 0.1959529 -0.9620389
vn -0.2890855 0.6389848 0.712831
vn 0.7647838 0.3673829 0.5292783
vn 0.8086334 0.02434001 0.5878091
vn 0.7483083 -0.019511 0.6630642
vn 0.4101866 0.6323718 0.6571552
vn 0.7483083 -0.019511 0.6630642
vn 0.4101866 0.6323718 0.6571552
vn 0.4680137 0.676885 0.568146
vn 0.9243916 0.3803267 0.02918395
vn 0.7483083 -0.019511 0.6630642
vn 0.8811304 0.05863598 -0.469224
vn 0.6008518 -0.016972 -0.7991803
vn 0.8721962 0.489 0.01236722
vn -0.2890855 0.6389848 0.712831
vn 0.4101866 0.6323718 0.6571552
vn -0.6951995 0.173637 0.6975298
vn 0.4680137 0.676885 0.568146
vn -0.6951995 0.173637 0.6975298
vn -0.2890855 0.6389848 0.712831
vn -0.4561656 0.2254061 0.8608747
vn -0.6951995 0.173637 0.6975298
vn -0.6951995 0.173637 0.6975298
vn -0.6046613 0.4164998 -0.6789055
vn -0.9132137 0.274373 -0.3012645
vn -0.9838092 0.153429 0.0926244
vn -0.4742693 0.5555828 -0.6829322
vn -0.194537 0.01699201 -0.980748
vn -0.2778887 0.1688749 -0.9456527
vn -0.7242088 0.2755259 -0.6321449
vn -0.6951995 0.173637 0.6975298
vn -0.2778887 0.1688749 -0.9456527
vn 0.1326569 0.3062461 -0.942664
vn 0.1326569 0.3062461 -0.942664
vn -0.4112224 0.4029588 -0.8176309
vn -0.05349174 0.02636 -0.9982203
vn -0.560619 -0.5568762 -0.6128583
vn -0.7392421 -0.1007939 -0.6658542
vn -0.7674181 -0.6331879 -0.1007093
vn 0.03056079 0.7606381 -0.6484565
vn 0.5093273 0.8510838 -0.1274447
vn 0.3901525 0.539537 0.7461106
vn 0.6937817 0.4079698 0.5934877
vn 0.3385893 -0.2859819 0.8964217
vn -0.4690515 -0.4238028 0.7748432
vn -0.2777597 -0.7340966 0.6196384
vn -0.470987 -0.5169717 -0.7147808
vn 0.03642431 -0.117654 -0.9923865
vn 0.03642431 -0.117654 -0.9923865
vn -0.7260559 -0.223248 -0.650387
vn -0.7674181 -0.6331879 -0.1007093
vn -0.4690515 -0.4238028 0.7748432
vn -0.560619 -0.5568762 -0.6128583
vn -0.6838499 -0.3610662 0.6340194
vn -0.470987 -0.5169717 -0.7147808
vn -0.6838499 -0.3610662 0.6340194
vn -0.4692096 -0.425273 0.7739413
vn -0.7260559 -0.223248 -0.650387
vn 0.03642431 -0.117654 -0.9923865
vn -0.1362956 0.198859 -0.9705043
vn -0.4692096 -0.425273 0.7739413
vn 0.7034819 0.282481 0.652164
vn 0.4551092 0.5991837 0.6586763
vn 0.4551092 0.5991837 0.6586763
vn 0.7034819 0.282481 0.652164
vn 0.03642431 -0.117654 -0.9923865
vn -0.4690515 -0.4238028 0.7748432
vn 0.4551092 0.5991837 0.6586763
vn -0.6838499 -0.3610662 0.6340194

vt 0.1541748 0.3811035
vt 0.1590576 0.4104004
vt 0.1722412 0.4101563
vt 0.1663818 0.376709
vt 0.1364746 0.3845215
vt 0.1468506 0.4121094
vt 0.126709 0.3862305
vt 0.1921387 0.473877
vt 0.1811523 0.4743652
vt 0.168335 0.4765625
vt 0.1317139 0.4157715
vt 0.1170654 0.3901367
vt 0.1200562 0.4199219
vt 0.1000366 0.3901367
vt 0.1082153 0.4238281
vt 0.09014893 0.3935547
vt 0.09667969 0.4287109
vt 0.0737915 0.3967285
vt 0.1230469 0.4912109
vt 0.1109619 0.4958496
vt 0.07879639 0.4335938
vt 0.0737915 0.3967285
vt 0.09790039 0.4995117
vt 0.06658936 0.4365234
vt 0.06036377 0.4016113
vt 0.0737915 0.3967285
vt 0.08673096 0.5014648
vt 0.1363525 0.4863281
vt 0.1523438 0.4812012
vt 0.07971191 0.3654785
vt 0.09265137 0.3664551
vt 0.1063843 0.3684082
vt 0.1200562 0.361084
vt 0.05514526 0.3876953
vt 0.06793213 0.3845215
vt 0.1364746 0.3662109
vt 0.1503906 0.3605957
vt 0.1633301 0.3591309
vt 0.1005859 0.3500977
vt 0.1080933 0.3491211
vt 0.1171875 0.3447266
vt 0.1099243 0.3425293
vt 0.1017456 0.3344727
vt 0.1046753 0.3322754
vt 0.1017456 0.3344727
vt 0.0958252 0.3178711
vt 0.1339111 0.3461914
vt 0.1220703 0.3371582
vt 0.1396484 0.333252
vt 0.1322021 0.3295898
vt 0.1195679 0.3183594
vt 0.1005859 0.3500977
vt 0.1017456 0.3344727
vt 0.09527588 0.3286133
vt 0.0958252 0.3178711
vt 0.09289551 0.3415527
vt 0.1005859 0.3500977
vt 0.08953857 0.3452148
vt 0.07525635 0.3251953
vt 0.07525635 0.3251953
vt 0.06292725 0.369873
vt 0.07281494 0.3515625
vt 0.06408691 0.3474121
vt 0.04751587 0.3354492
vt 0.05215454 0.3608398
vt 0.05004883 0.3742676
vt 0.06793213 0.3845215
vt 0.07525635 0.3251953
vt 0.163208 0.3413086
vt 0.1427002 0.314209
vt 0.1427002 0.314209
vt 0.1293945 0.354248
vt 0.1226807 0.392334
vt 0.1434326 0.3952637
vt 0.1375732 0.3566895
vt 0.1451416 0.3615723
vt 0.1209106 0.3537598
vt 0.1124878 0.3549805
vt 0.1031494 0.3913574
vt 0.1035767 0.3566895
vt 0.09338379 0.3581543
vt 0.08624268 0.3920898
vt 0.08288574 0.3581543
vt 0.1407471 0.4306641
vt 0.1242676 0.4301758
vt 0.1242676 0.4301758
vt 0.1412354 0.4660645
vt 0.07305908 0.3564453
vt 0.08624268 0.3920898
vt 0.07385254 0.3935547
vt 0.0859375 0.4306641
vt 0.07189941 0.4326172
vt 0.0859375 0.4306641
vt 0.08843994 0.4650879
vt 0.07489014 0.465332
vt 0.1242676 0.4301758
vt 0.1218262 0.4648438
vt 0.08843994 0.4650879
vt 0.1048584 0.465332
vt 0.1066284 0.4301758
vt 0.1066284 0.4301758
vt 0.1048584 0.465332
vt 0.1242676 0.4301758
vt 0.08624268 0.3920898
vt 0.1066284 0.4301758
vt 0.0859375 0.4306641

g Tree2_big_(40)_2910_733
usemtl Tree2_big_(40)_2910_733
usemap Tree2_big_(40)_2910_733
f 1/1/1 3/3/3 2/2/2
f 1/1/1 4/4/4 3/3/3
f 5/5/5 1/1/1 2/2/2
f 5/5/5 2/2/2 6/6/6
f 7/7/7 5/5/5 6/6/6
f 2/2/2 3/3/3 8/8/8
f 2/2/2 8/8/8 9/9/9
f 6/6/6 2/2/2 9/9/9
f 6/6/6 9/9/9 10/10/10
f 11/11/11 6/6/6 10/10/10
f 7/7/7 6/6/6 11/11/11
f 12/12/12 7/7/7 11/11/11
f 12/12/12 11/11/11 13/13/13
f 14/14/14 12/12/12 13/13/13
f 14/14/14 13/13/13 15/15/15
f 16/16/16 14/14/14 15/15/15
f 16/16/16 15/15/15 17/17/17
f 18/18/18 16/16/16 17/17/17
f 17/17/17 15/15/15 19/19/19
f 17/17/17 19/19/19 20/20/20
f 21/21/21 17/17/17 20/20/20
f 22/22/22 17/17/17 21/21/21
f 21/21/21 20/20/20 23/23/23
f 24/24/24 21/21/21 23/23/23
f 25/25/25 21/21/21 24/24/24
f 25/25/25 26/26/26 21/21/21
f 24/24/24 23/23/23 27/27/27
f 15/15/15 28/28/28 19/19/19
f 15/15/15 13/13/13 28/28/28
f 13/13/13 29/29/29 28/28/28
f 30/30/30 14/14/14 16/16/16
f 30/30/30 31/31/31 14/14/14
f 31/31/31 12/12/12 14/14/14
f 31/31/31 32/32/32 12/12/12
f 32/32/32 7/7/7 12/12/12
f 32/32/32 33/33/33 7/7/7
f 34/34/34 22/22/22 25/25/25
f 34/34/34 35/35/35 22/22/22
f 35/35/35 30/30/30 16/16/16
f 35/35/35 16/16/16 18/18/18
f 33/33/33 5/5/5 7/7/7
f 33/33/33 36/36/36 5/5/5
f 36/36/36 1/1/1 5/5/5
f 36/36/36 37/37/37 1/1/1
f 37/37/37 4/4/4 1/1/1
f 37/37/37 38/38/38 4/4/4
f 32/32/32 31/31/31 39/39/39
f 33/33/33 39/39/39 40/40/40
f 41/41/41 33/33/33 40/40/40
f 41/41/41 40/40/40 42/42/42
f 42/42/42 40/40/40 43/43/43
f 42/42/42 43/43/43 44/44/44
f 40/40/40 39/39/39 45/45/45
f 44/44/44 43/43/43 46/46/46
f 37/37/37 36/36/36 47/47/47
f 36/36/36 33/33/33 47/47/47
f 33/33/33 48/48/48 47/47/47
f 33/33/33 41/41/41 48/48/48
f 49/49/49 37/37/37 47/47/47
f 49/49/49 47/47/47 50/50/50
f 47/47/47 48/48/48 51/51/51
f 50/50/50 47/47/47 51/51/51
f 33/33/33 32/32/32 52/52/52
f 39/39/39 54/54/54 53/53/53
f 53/53/53 54/54/54 55/55/55
f 39/39/39 56/56/56 54/54/54
f 31/31/31 56/56/56 57/57/57
f 31/31/31 58/58/58 56/56/56
f 58/58/58 31/31/31 59/59/59
f 31/31/31 30/30/30 60/60/60
f 61/61/61 62/62/62 30/30/30
f 62/62/62 61/61/61 63/63/63
f 61/61/61 30/30/30 35/35/35
f 64/64/64 63/63/63 61/61/61
f 64/64/64 61/61/61 65/65/65
f 61/61/61 66/66/66 65/65/65
f 66/66/66 61/61/61 34/34/34
f 34/34/34 61/61/61 67/67/67
f 30/30/30 62/62/62 68/68/68
f 13/13/13 11/11/11 29/29/29
f 11/11/11 10/10/10 29/29/29
f 69/69/69 38/38/38 70/70/70
f 38/38/38 37/37/37 70/70/70
f 37/37/37 49/49/49 71/71/71
f 72/72/72 74/74/74 73/73/73
f 72/72/72 75/75/75 74/74/74
f 75/75/75 76/76/76 74/74/74
f 77/77/77 72/72/72 73/73/73
f 78/78/78 77/77/77 73/73/73
f 78/78/78 73/73/73 79/79/79
f 80/80/80 78/78/78 79/79/79
f 81/81/81 80/80/80 79/79/79
f 81/81/81 79/79/79 82/82/82
f 83/83/83 81/81/81 82/82/82
f 73/73/73 74/74/74 84/84/84
f 73/73/73 84/84/84 85/85/85
f 79/79/79 73/73/73 86/86/86
f 85/85/85 84/84/84 87/87/87
f 88/88/88 83/83/83 89/89/89
f 88/88/88 89/89/89 90/90/90
f 90/90/90 82/82/82 91/91/91
f 90/90/90 93/93/93 92/92/92
f 92/92/92 91/91/91 94/94/94
f 92/92/92 94/94/94 95/95/95
f 96/96/96 87/87/87 97/97/97
f 93/93/93 99/99/99 98/98/98
f 93/93/93 100/100/100 99/99/99
f 101/101/101 97/97/97 102/102/102
f 101/101/101 103/103/103 97/97/97
f 79/79/79 103/103/103 101/101/101
f 104/104/104 79/79/79 105/105/105
f 104/104/104 105/105/105 106/106/106
