#Tree4_744_92.obj

v -2.491711 6.129237 -0.4659437
v -3.228823 5.983608 -0.3656041
v -2.327988 5.560323 -0.9431487
v -3.285009 5.371249 -0.8128778
v -3.653042 5.739669 0.2133028
v -3.835792 5.054531 -0.06125028
v -3.51587 5.540316 0.9316698
v -3.657701 4.795703 0.8714317
v -2.897662 5.502325 1.368682
v -2.855048 4.746378 1.438823
v -2.160553 5.647953 1.268344
v -1.898025 4.935453 1.308551
v -1.736329 5.891891 0.6894343
v -1.347237 5.252171 0.5569245
v -1.873503 6.091246 -0.02893154
v -1.525334 5.511 -0.3757581
v -2.467368 6.30267 0.172112
v -3.151068 6.167593 0.2651828
v -2.765712 6.271781 0.5914747
v -3.023835 5.982682 0.9315029
v -2.340127 6.117759 0.8384323
v 2.217851 7.354592 -2.494818
v 0.8755574 7.329135 -2.837819
v 2.611902 6.5694 -2.995751
v 0.7982522 6.534998 -3.459197
v -0.3162747 7.316662 -2.131086
v -0.8120821 6.518145 -2.504298
v -0.6594711 7.324482 -0.7886105
v -1.275787 6.528714 -0.6904173
v 0.04699853 7.348016 0.4032021
v -0.3212389 6.560512 0.9198971
v 1.389315 7.37348 0.7462077
v 1.492416 6.594911 1.383344
v 2.581137 7.38595 0.03947126
v 3.102753 6.611767 0.4284436
v 2.924339 7.37813 -1.303002
v 3.566458 6.601199 -1.385437
v 2.839004 5.645878 -3.269422
v 0.7632514 5.606506 -3.799844
v -1.079797 5.587218 -2.706948
v -1.610516 5.599314 -0.6309392
v -0.5180126 5.635708 1.212088
v 1.557741 5.675082 1.742514
v 3.400793 5.69437 0.6496158
v 3.931504 5.682274 -1.426397
v 1.552918 7.72575 -0.330093
v 0.4071832 7.704019 -0.6228651
v 1.125376 7.781335 -1.050116
v 0.7001256 7.697345 -1.768741
v 1.845852 7.719076 -1.475969
v 0.4598773 6.511011 -2.618053
v -0.5894087 6.526672 -1.660245
v 0.1699529 5.761833 -3.293452
v -1.247788 5.782992 -1.999314
v -0.6596591 6.420261 -0.2451831
v -1.342706 5.639215 -0.08735971
v 0.2902858 6.254119 0.7982078
v -0.05919455 5.414735 1.32241
v 1.703953 6.125566 0.8587214
v 1.850873 5.241036 1.404172
v 2.753247 6.109906 -0.09909108
v 3.268623 5.219882 0.11003
v 2.823493 6.216312 -1.51415
v 3.363542 5.363655 -1.801924
v 1.873549 6.382455 -2.557542
v 2.080031 5.588139 -3.21169
v -0.1083925 4.862029 -3.91285
v -1.853919 4.888076 -2.319514
v -1.970767 4.711063 0.03447637
v -0.390518 4.434681 1.770183
v 1.961161 4.220828 1.870848
v 3.706691 4.194779 0.2775056
v 3.823543 4.371792 -2.076487
v 2.243291 4.648178 -3.812187
v 1.967901 6.614914 -0.8133776
v 1.072276 6.628282 0.004165123
v 1.121013 6.764997 -0.8441346
v 0.2614457 6.770093 -0.8864244
v 1.157063 6.756725 -1.703963
v -1.404489 4.948886 -2.365072
v -1.804187 4.708665 -2.802702
v -1.031504 4.433385 -2.283359
v -1.550447 4.121498 -2.851553
v -2.422603 4.545877 -2.809351
v -2.353363 3.910143 -2.860187
v -2.89748 4.555882 -2.381129
v -2.969918 3.923131 -2.30421
v -2.95064 4.732815 -1.768878
v -3.038936 4.152854 -1.509294
v -2.550944 4.973035 -1.33125
v -2.519991 4.464743 -0.941097
v -1.932524 5.135823 -1.324595
v -1.717071 4.676098 -0.9324605
v -1.457649 5.125819 -1.752825
v -1.10052 4.663109 -1.488444
v -1.842204 5.217912 -2.146827
v -2.212941 4.995097 -2.552749
v -2.275556 5.217892 -2.18445
v -2.653414 5.004375 -2.155545
v -2.282672 5.22719 -1.749626

vn 0.3764451 0.7784641 -0.5022776
vn -0.2142524 0.6549021 -0.7247063
vn 0.5051829 0.5973637 -0.6228539
vn -0.1621924 0.4577628 -0.8741549
vn -0.7644319 0.4479261 -0.4636875
vn -0.7837878 0.223919 -0.5792553
vn -0.9518037 0.278779 0.1278752
vn -0.9954821 0.03281599 0.08909792
vn -0.6666089 0.2465458 0.7034541
vn -0.6732671 -0.003602002 0.7393906
vn -0.07591048 0.3701069 0.9258825
vn -0.005892485 0.135999 0.9906915
vn 0.474268 0.5770843 0.6648636
vn 0.6157039 0.3698429 0.6957909
vn 0.66164 0.7462302 0.07330082
vn 0.8273975 0.560946 0.02743837
vn 0.06676446 0.9965098 -0.05010746
vn -0.4771963 0.8641002 -0.1600452
vn -0.2676507 0.9454778 0.1855659
vn -0.5565707 0.7337341 0.3896966
vn -0.01261036 0.8661441 0.4996352
vn 0.8427151 0.5128449 -0.1637721
vn 0.4579952 0.737739 -0.4959654
vn 0.9153724 0.2558199 -0.310885
vn 0.4387837 0.5344177 -0.7224033
vn -0.07023834 0.8987413 -0.4328171
vn -0.2155878 0.7338651 -0.6441769
vn -0.4325532 0.9015374 -0.01132017
vn -0.6644204 0.7373294 -0.1220282
vn -0.4167098 0.7444899 0.5216203
vn -0.6447942 0.5427799 0.5381733
vn -0.03198898 0.5195948 0.8538138
vn -0.1682053 0.2641829 0.9496918
vn 0.4962444 0.3585939 0.7906654
vn 0.4861676 0.064735 0.8714646
vn 0.8585591 0.3557971 0.3691675
vn 0.9349992 0.06127099 0.3493168
vn 0.9154706 0.05827697 -0.3981423
vn 0.4003333 0.359409 -0.8429463
vn -0.3069672 0.5749891 -0.7583923
vn -0.7921034 0.5787333 -0.1940107
vn -0.7708893 0.3684478 0.5195922
vn -0.2557515 0.067316 0.964396
vn 0.4515495 -0.1482641 0.8798413
vn 0.9366851 -0.152008 0.3154594
vn 0.3448088 0.8233867 0.4507121
vn 0.1048806 0.9434429 0.3145085
vn 0.3098387 0.9144735 0.2602656
vn 0.2606816 0.9636868 0.05790375
vn 0.500609 0.8436309 0.1941071
vn 0.3785594 0.8238653 -0.421828
vn -0.1372575 0.959092 -0.2475945
vn 0.3226655 0.6650369 -0.6735079
vn -0.3127928 0.8316296 -0.4588603
vn -0.4324458 0.8739552 0.2217947
vn -0.6764499 0.7267453 0.1194015
vn -0.3340897 0.618327 0.7113759
vn -0.5552795 0.4118249 0.7225406
vn 0.1001966 0.34195 0.9343612
vn -0.02026224 0.07134299 0.997246
vn 0.616014 0.206723 0.7601265
vn 0.6151963 -0.09525002 0.7825989
vn 0.9112022 0.29186 0.2907374
vn 0.9788535 0.009635 0.2043358
vn 0.8128449 0.5474889 -0.1988442
vn 0.8576829 0.324556 -0.3988025
vn 0.2654201 0.5162241 -0.814288
vn -0.4196155 0.6958141 -0.5828941
vn -0.8116446 0.5827472 0.04048303
vn -0.6810213 0.2432561 0.6906782
vn -0.1042623 -0.123789 0.9868159
vn 0.5807744 -0.303379 0.7554219
vn 0.9728031 -0.190312 0.1320437
vn 0.8421787 0.1491791 -0.518151
vn 0.5289464 0.7373568 0.4201435
vn 0.2612903 0.7851081 0.561545
vn 0.3518909 0.8568879 0.3767175
vn 0.158114 0.9356971 0.3153899
vn 0.4257697 0.8879461 0.1739882
vn 0.7860889 0.6109444 -0.09386823
vn 0.6416794 0.3693524 -0.6721803
vn 0.9103955 0.4137206 0.003907472
vn 0.7472398 0.1407688 -0.6494743
vn 0.09768888 0.2056359 -0.9737406
vn 0.1326371 -0.04420039 -0.9901786
vn -0.5272175 0.2156964 -0.8218983
vn -0.5733881 -0.03283307 -0.8186257
vn -0.8669799 0.3936419 -0.3056009
vn -0.9572538 0.1682102 -0.2353093
vn -0.7225699 0.6352329 0.272712
vn -0.7940981 0.4411621 0.4180719
vn -0.1785794 0.7989506 0.5742711
vn -0.1794941 0.6261312 0.7587763
vn 0.4463268 0.7888891 0.4224291
vn 0.52653 0.6147642 0.5872233
vn 0.3028957 0.9311942 -0.2028093
vn 0.08691786 0.7211424 -0.6873129
vn -0.07461426 0.9266384 -0.3684752
vn -0.439441 0.764573 -0.471508
vn -0.2234641 0.9746255 0.01299556

vt 0.3613281 0.484375
vt 0.3461914 0.479248
vt 0.3603516 0.498291
vt 0.3356934 0.4875488
vt 0.3395996 0.463623
vt 0.3259277 0.4626465
vt 0.3447266 0.4484863
vt 0.3364258 0.4379883
vt 0.3603516 0.4418945
vt 0.3613281 0.4282227
vt 0.3754883 0.4470215
vt 0.3859863 0.4387207
vt 0.3820801 0.4626465
vt 0.395752 0.463623
vt 0.3769531 0.4780273
vt 0.3852539 0.4882813
vt 0.3652344 0.4726563
vt 0.3513184 0.4677734
vt 0.3608398 0.4631348
vt 0.3564453 0.4538574
vt 0.3701172 0.4587402
vt 0.4470215 0.4243164
vt 0.4257813 0.4155273
vt 0.4472656 0.4458008
vt 0.4106445 0.4306641
vt 0.4169922 0.3942871
vt 0.3955078 0.3942871
vt 0.4257813 0.3728027
vt 0.4106445 0.3579102
vt 0.4470215 0.3642578
vt 0.4470215 0.3427734
vt 0.4685059 0.3730469
vt 0.4833984 0.357666
vt 0.4770508 0.3942871
vt 0.4985352 0.394043
vt 0.4682617 0.4155273
vt 0.4833984 0.4306641
vt 0.4470215 0.4689941
vt 0.394043 0.4470215
vt 0.3723145 0.394043
vt 0.394043 0.3413086
vt 0.4470215 0.3193359
vt 0.5 0.3413086
vt 0.5219727 0.3942871
vt 0.5 0.4472656
vt 0.4609375 0.3884277
vt 0.4411621 0.3803711
vt 0.4470215 0.3942871
vt 0.4331055 0.3999023
vt 0.4528809 0.407959
vt 0.4470215 0.4243164
vt 0.4257813 0.4155273
vt 0.4472656 0.4458008
vt 0.4106445 0.4306641
vt 0.4169922 0.3942871
vt 0.3955078 0.3942871
vt 0.4257813 0.3728027
vt 0.4106445 0.3579102
vt 0.4470215 0.3642578
vt 0.4470215 0.3427734
vt 0.4685059 0.3730469
vt 0.4833984 0.357666
vt 0.4770508 0.3942871
vt 0.4985352 0.394043
vt 0.4682617 0.4155273
vt 0.4833984 0.4306641
vt 0.4470215 0.4689941
vt 0.394043 0.4470215
vt 0.3723145 0.394043
vt 0.394043 0.3413086
vt 0.4470215 0.3193359
vt 0.5 0.3413086
vt 0.5219727 0.3942871
vt 0.5 0.4472656
vt 0.4609375 0.3884277
vt 0.4411621 0.3803711
vt 0.4470215 0.3942871
vt 0.4331055 0.3999023
vt 0.4528809 0.407959
vt 0.3613281 0.484375
vt 0.3461914 0.479248
vt 0.3603516 0.498291
vt 0.3356934 0.4875488
vt 0.3395996 0.463623
vt 0.3259277 0.4626465
vt 0.3447266 0.4484863
vt 0.3364258 0.4379883
vt 0.3603516 0.4418945
vt 0.3613281 0.4282227
vt 0.3754883 0.4470215
vt 0.3859863 0.4387207
vt 0.3820801 0.4626465
vt 0.395752 0.463623
vt 0.3769531 0.4780273
vt 0.3852539 0.4882813
vt 0.3652344 0.4726563
vt 0.3513184 0.4677734
vt 0.3608398 0.4631348
vt 0.3564453 0.4538574
vt 0.3701172 0.4587402

g Tree4_744_92
usemtl Tree4_744_92
usemap Tree4_744_92
f 1/1/1 3/3/3 2/2/2
f 2/2/2 3/3/3 4/4/4
f 2/2/2 4/4/4 5/5/5
f 5/5/5 4/4/4 6/6/6
f 5/5/5 6/6/6 7/7/7
f 7/7/7 6/6/6 8/8/8
f 7/7/7 8/8/8 9/9/9
f 9/9/9 8/8/8 10/10/10
f 9/9/9 10/10/10 11/11/11
f 11/11/11 10/10/10 12/12/12
f 11/11/11 12/12/12 13/13/13
f 13/13/13 12/12/12 14/14/14
f 13/13/13 14/14/14 15/15/15
f 15/15/15 14/14/14 16/16/16
f 15/15/15 16/16/16 1/1/1
f 1/1/1 16/16/16 3/3/3
f 15/15/15 1/1/1 17/17/17
f 1/1/1 2/2/2 17/17/17
f 17/17/17 2/2/2 18/18/18
f 2/2/2 5/5/5 18/18/18
f 5/5/5 7/7/7 18/18/18
f 17/17/17 18/18/18 19/19/19
f 18/18/18 20/20/20 19/19/19
f 18/18/18 7/7/7 20/20/20
f 7/7/7 9/9/9 20/20/20
f 9/9/9 11/11/11 20/20/20
f 20/20/20 21/21/21 19/19/19
f 21/21/21 17/17/17 19/19/19
f 20/20/20 11/11/11 21/21/21
f 11/11/11 13/13/13 21/21/21
f 13/13/13 15/15/15 21/21/21
f 21/21/21 15/15/15 17/17/17
f 22/22/22 24/24/24 23/23/23
f 23/23/23 24/24/24 25/25/25
f 23/23/23 25/25/25 26/26/26
f 26/26/26 25/25/25 27/27/27
f 26/26/26 27/27/27 28/28/28
f 28/28/28 27/27/27 29/29/29
f 28/28/28 29/29/29 30/30/30
f 30/30/30 29/29/29 31/31/31
f 30/30/30 31/31/31 32/32/32
f 32/32/32 31/31/31 33/33/33
f 32/32/32 33/33/33 34/34/34
f 34/34/34 33/33/33 35/35/35
f 34/34/34 35/35/35 36/36/36
f 36/36/36 35/35/35 37/37/37
f 36/36/36 37/37/37 22/22/22
f 22/22/22 37/37/37 24/24/24
f 24/24/24 38/38/38 25/25/25
f 25/25/25 38/38/38 39/39/39
f 25/25/25 39/39/39 27/27/27
f 27/27/27 39/39/39 40/40/40
f 27/27/27 40/40/40 29/29/29
f 29/29/29 40/40/40 41/41/41
f 29/29/29 41/41/41 31/31/31
f 31/31/31 41/41/41 42/42/42
f 31/31/31 42/42/42 33/33/33
f 33/33/33 42/42/42 43/43/43
f 33/33/33 43/43/43 35/35/35
f 35/35/35 43/43/43 44/44/44
f 35/35/35 44/44/44 37/37/37
f 37/37/37 44/44/44 45/45/45
f 37/37/37 45/45/45 24/24/24
f 24/24/24 45/45/45 38/38/38
f 32/32/32 34/34/34 46/46/46
f 34/34/34 36/36/36 46/46/46
f 47/47/47 32/32/32 46/46/46
f 47/47/47 46/46/46 48/48/48
f 49/49/49 47/47/47 48/48/48
f 50/50/50 49/49/49 48/48/48
f 46/46/46 50/50/50 48/48/48
f 50/50/50 23/23/23 49/49/49
f 22/22/22 23/23/23 50/50/50
f 36/36/36 22/22/22 50/50/50
f 46/46/46 36/36/36 50/50/50
f 23/23/23 26/26/26 49/49/49
f 26/26/26 28/28/28 49/49/49
f 49/49/49 28/28/28 47/47/47
f 28/28/28 30/30/30 47/47/47
f 30/30/30 32/32/32 47/47/47
f 51/51/51 53/53/53 52/52/52
f 52/52/52 53/53/53 54/54/54
f 52/52/52 54/54/54 55/55/55
f 55/55/55 54/54/54 56/56/56
f 55/55/55 56/56/56 57/57/57
f 57/57/57 56/56/56 58/58/58
f 57/57/57 58/58/58 59/59/59
f 59/59/59 58/58/58 60/60/60
f 59/59/59 60/60/60 61/61/61
f 61/61/61 60/60/60 62/62/62
f 61/61/61 62/62/62 63/63/63
f 63/63/63 62/62/62 64/64/64
f 63/63/63 64/64/64 65/65/65
f 65/65/65 64/64/64 66/66/66
f 65/65/65 66/66/66 51/51/51
f 51/51/51 66/66/66 53/53/53
f 53/53/53 67/67/67 54/54/54
f 54/54/54 67/67/67 68/68/68
f 54/54/54 68/68/68 56/56/56
f 56/56/56 68/68/68 69/69/69
f 56/56/56 69/69/69 58/58/58
f 58/58/58 69/69/69 70/70/70
f 58/58/58 70/70/70 60/60/60
f 60/60/60 70/70/70 71/71/71
f 60/60/60 71/71/71 62/62/62
f 62/62/62 71/71/71 72/72/72
f 62/62/62 72/72/72 64/64/64
f 64/64/64 72/72/72 73/73/73
f 64/64/64 73/73/73 66/66/66
f 66/66/66 73/73/73 74/74/74
f 66/66/66 74/74/74 53/53/53
f 53/53/53 74/74/74 67/67/67
f 61/61/61 63/63/63 75/75/75
f 63/63/63 65/65/65 75/75/75
f 76/76/76 61/61/61 75/75/75
f 76/76/76 75/75/75 77/77/77
f 78/78/78 76/76/76 77/77/77
f 79/79/79 78/78/78 77/77/77
f 75/75/75 79/79/79 77/77/77
f 79/79/79 52/52/52 78/78/78
f 51/51/51 52/52/52 79/79/79
f 65/65/65 51/51/51 79/79/79
f 75/75/75 65/65/65 79/79/79
f 52/52/52 55/55/55 78/78/78
f 55/55/55 57/57/57 78/78/78
f 78/78/78 57/57/57 76/76/76
f 57/57/57 59/59/59 76/76/76
f 59/59/59 61/61/61 76/76/76
f 80/80/80 82/82/82 81/81/81
f 81/81/81 82/82/82 83/83/83
f 81/81/81 83/83/83 84/84/84
f 84/84/84 83/83/83 85/85/85
f 84/84/84 85/85/85 86/86/86
f 86/86/86 85/85/85 87/87/87
f 86/86/86 87/87/87 88/88/88
f 88/88/88 87/87/87 89/89/89
f 88/88/88 89/89/89 90/90/90
f 90/90/90 89/89/89 91/91/91
f 90/90/90 91/91/91 92/92/92
f 92/92/92 91/91/91 93/93/93
f 92/92/92 93/93/93 94/94/94
f 94/94/94 93/93/93 95/95/95
f 94/94/94 95/95/95 80/80/80
f 80/80/80 95/95/95 82/82/82
f 94/94/94 80/80/80 96/96/96
f 80/80/80 81/81/81 96/96/96
f 96/96/96 81/81/81 97/97/97
f 81/81/81 84/84/84 97/97/97
f 84/84/84 86/86/86 97/97/97
f 96/96/96 97/97/97 98/98/98
f 97/97/97 99/99/99 98/98/98
f 97/97/97 86/86/86 99/99/99
f 86/86/86 88/88/88 99/99/99
f 88/88/88 90/90/90 99/99/99
f 99/99/99 100/100/100 98/98/98
f 100/100/100 96/96/96 98/98/98
f 99/99/99 90/90/90 100/100/100
f 90/90/90 92/92/92 100/100/100
f 92/92/92 94/94/94 100/100/100
f 100/100/100 94/94/94 96/96/96
