#Tree3_(6)_1364_119.obj

v -0.5663605 6.129975 -1.258507
v -1.729263 6.129975 -0.7768135
v -0.5663605 5.081509 -1.835995
v -2.137604 5.081509 -1.185158
v -2.210953 6.129975 0.3860855
v -2.788437 5.081509 0.3860855
v -1.729263 6.129975 1.548988
v -2.137604 5.081509 1.957336
v -0.5663605 6.129975 2.030678
v -0.5663605 5.081509 2.60817
v 0.5965424 6.129975 1.548988
v 1.00489 5.081509 1.957336
v 1.078232 6.129975 0.3860855
v 1.655731 5.081509 0.3860855
v 0.5965424 6.129975 -0.7768135
v 1.00489 5.081509 -1.185165
v -0.5663605 3.849293 -1.958107
v -2.223953 3.849293 -1.271511
v -2.910553 3.849293 0.3860855
v -2.223953 3.849293 2.043682
v -0.5663605 3.849293 2.730278
v 1.091232 3.849293 2.043682
v 1.77784 3.849293 0.3860855
v 1.091232 3.849293 -1.271511
v 0.1355133 6.610299 0.6768112
v -0.8570862 6.610299 1.087963
v -0.5663605 6.703349 0.3860855
v -1.268234 6.610299 0.0953598
v -0.2756348 6.610299 -0.3157883
v 2.33223 4.214333 -0.3507309
v 1.564468 4.326895 0.02710724
v 2.205902 3.702219 -0.9014015
v 1.09034 3.865771 -0.3524055
v 1.277657 4.317745 0.8410873
v 0.6736145 3.852474 0.8302956
v 1.639816 4.192244 1.614388
v 1.199837 3.670125 1.953888
v 2.438805 4.023906 1.89402
v 2.360748 3.425531 2.360188
v 3.206573 3.911345 1.516178
v 3.476303 3.261982 1.811188
v 3.493385 3.920494 0.702198
v 3.893036 3.275278 0.6284866
v 3.131226 4.045995 -0.07110214
v 3.366806 3.457628 -0.4951019
v 2.079422 3.061068 -1.085419
v 0.8719482 3.238092 -0.4911919
v 0.4208832 3.223703 0.7889557
v 0.990448 3.026327 2.005119
v 2.247017 2.761585 2.444893
v 3.454491 2.584558 1.850666
v 3.905548 2.598948 0.5705185
v 3.335976 2.796324 -0.6456451
v 2.918182 4.291519 0.9612656
v 2.262848 4.3876 1.283775
v 2.455872 4.501337 0.8007278
v 1.95372 4.494721 0.6237183
v 2.609055 4.398644 0.3012161

vn 0 0.5420592 -0.8403403
vn -0.5942106 0.5420586 -0.5942106
vn 0 0.3140009 -0.9494227
vn -0.6713431 0.3140011 -0.6713431
vn -0.8403403 0.5420592 0
vn -0.9494227 0.3140009 0
vn -0.5942109 0.542059 0.59421
vn -0.6713431 0.3140011 0.6713431
vn 0 0.5420592 0.8403403
vn 0 0.3140009 0.9494227
vn 0.5942109 0.542059 0.59421
vn 0.6713431 0.3140011 0.6713431
vn 0.8403403 0.5420592 0
vn 0.9494227 0.3140009 0
vn 0.59421 0.542059 -0.5942109
vn 0.6713427 0.3140009 -0.6713437
vn 0 0.1613551 -0.9868965
vn -0.6978411 0.161355 -0.6978411
vn -0.9868965 0.1613551 0
vn -0.6978411 0.161355 0.6978411
vn 0 0.1613551 0.9868965
vn 0.6978411 0.161355 0.6978411
vn 0.9868965 0.1613551 0
vn 0.6978407 0.1613549 -0.6978417
vn 0.2936361 0.9538103 0.06343401
vn -0.06343499 0.9538099 0.2936369
vn 0 1 0
vn -0.2936369 0.9538099 -0.06343499
vn 0.063434 0.95381 -0.293637
vn 0.05813998 0.6025708 -0.7959448
vn -0.5140039 0.686452 -0.514377
vn 0.011819 0.3881159 -0.9215347
vn -0.6345939 0.4828859 -0.6034167
vn -0.7277333 0.6796343 0.09220304
vn -0.8760673 0.4751822 0.08190203
vn -0.457849 0.5861099 0.6684681
vn -0.571149 0.369518 0.7329701
vn 0.137556 0.460665 0.8768501
vn 0.101543 0.2277891 0.9684014
vn 0.7097003 0.3767832 0.5952812
vn 0.7479559 0.133019 0.6502829
vn 0.9234295 0.3836018 -0.01129899
vn 0.9894289 0.140723 -0.03503599
vn 0.6535442 0.4771261 -0.5875633
vn 0.6845108 0.2463869 -0.6861039
vn -0.01750601 0.2415741 -0.9702245
vn -0.689433 0.340085 -0.6395501
vn -0.940437 0.332078 0.072818
vn -0.623484 0.222242 0.749584
vn 0.07575899 0.07491998 0.9943076
vn 0.7476861 -0.02359101 0.6636331
vn 0.9986901 -0.015583 -0.048736
vn 0.6817369 0.09425099 -0.7255009
vn 0.4567461 0.8812572 0.121527
vn 0.119112 0.9252396 0.3601999
vn 0.180511 0.9807378 0.07462698
vn -0.1116811 0.9935194 0.02113001
vn 0.2259521 0.9495373 -0.2175421

vt 0.4470215 0.4243164
vt 0.4257813 0.4155273
vt 0.4472656 0.4458008
vt 0.4106445 0.4306641
vt 0.4169922 0.3942871
vt 0.3955078 0.3942871
vt 0.4257813 0.3728027
vt 0.4106445 0.3579102
vt 0.4470215 0.3642578
vt 0.4470215 0.3427734
vt 0.4685059 0.3730469
vt 0.4833984 0.357666
vt 0.4770508 0.3942871
vt 0.4985352 0.394043
vt 0.4682617 0.4155273
vt 0.4833984 0.4306641
vt 0.4470215 0.4689941
vt 0.394043 0.4470215
vt 0.3723145 0.394043
vt 0.394043 0.3413086
vt 0.4470215 0.3193359
vt 0.5 0.3413086
vt 0.5219727 0.3942871
vt 0.5 0.4472656
vt 0.4609375 0.3884277
vt 0.4411621 0.3803711
vt 0.4470215 0.3942871
vt 0.4331055 0.3999023
vt 0.4528809 0.407959
vt 0.3144531 0.4064941
vt 0.2939453 0.3986816
vt 0.3151855 0.4223633
vt 0.2832031 0.4101563
vt 0.2856445 0.3781738
vt 0.2697754 0.3789063
vt 0.293457 0.357666
vt 0.2817383 0.3469238
vt 0.3139648 0.3493652
vt 0.3132324 0.333252
vt 0.3344727 0.3571777
vt 0.3452148 0.345459
vt 0.3427734 0.3776855
vt 0.3586426 0.3769531
vt 0.3349609 0.3981934
vt 0.3464355 0.4089355
vt 0.3132324 0.4384766
vt 0.2705078 0.420166
vt 0.253418 0.3769531
vt 0.2717285 0.3342285
vt 0.3151855 0.3171387
vt 0.357666 0.3354492
vt 0.375 0.3786621
vt 0.3564453 0.4213867
vt 0.3261719 0.3720703
vt 0.3083496 0.3659668
vt 0.314209 0.3779297
vt 0.3022461 0.3837891
vt 0.3200684 0.3898926

g Tree3_(6)_1364_119
usemtl Tree3_(6)_1364_119
usemap Tree3_(6)_1364_119
f 1/1/1 3/3/3 2/2/2
f 2/2/2 3/3/3 4/4/4
f 2/2/2 4/4/4 5/5/5
f 5/5/5 4/4/4 6/6/6
f 5/5/5 6/6/6 7/7/7
f 7/7/7 6/6/6 8/8/8
f 7/7/7 8/8/8 9/9/9
f 9/9/9 8/8/8 10/10/10
f 9/9/9 10/10/10 11/11/11
f 11/11/11 10/10/10 12/12/12
f 11/11/11 12/12/12 13/13/13
f 13/13/13 12/12/12 14/14/14
f 13/13/13 14/14/14 15/15/15
f 15/15/15 14/14/14 16/16/16
f 15/15/15 16/16/16 1/1/1
f 1/1/1 16/16/16 3/3/3
f 3/3/3 17/17/17 4/4/4
f 4/4/4 17/17/17 18/18/18
f 4/4/4 18/18/18 6/6/6
f 6/6/6 18/18/18 19/19/19
f 6/6/6 19/19/19 8/8/8
f 8/8/8 19/19/19 20/20/20
f 8/8/8 20/20/20 10/10/10
f 10/10/10 20/20/20 21/21/21
f 10/10/10 21/21/21 12/12/12
f 12/12/12 21/21/21 22/22/22
f 12/12/12 22/22/22 14/14/14
f 14/14/14 22/22/22 23/23/23
f 14/14/14 23/23/23 16/16/16
f 16/16/16 23/23/23 24/24/24
f 16/16/16 24/24/24 3/3/3
f 3/3/3 24/24/24 17/17/17
f 11/11/11 13/13/13 25/25/25
f 13/13/13 15/15/15 25/25/25
f 26/26/26 11/11/11 25/25/25
f 26/26/26 25/25/25 27/27/27
f 28/28/28 26/26/26 27/27/27
f 29/29/29 28/28/28 27/27/27
f 25/25/25 29/29/29 27/27/27
f 29/29/29 2/2/2 28/28/28
f 1/1/1 2/2/2 29/29/29
f 15/15/15 1/1/1 29/29/29
f 25/25/25 15/15/15 29/29/29
f 2/2/2 5/5/5 28/28/28
f 5/5/5 7/7/7 28/28/28
f 28/28/28 7/7/7 26/26/26
f 7/7/7 9/9/9 26/26/26
f 9/9/9 11/11/11 26/26/26
f 30/30/30 32/32/32 31/31/31
f 31/31/31 32/32/32 33/33/33
f 31/31/31 33/33/33 34/34/34
f 34/34/34 33/33/33 35/35/35
f 34/34/34 35/35/35 36/36/36
f 36/36/36 35/35/35 37/37/37
f 36/36/36 37/37/37 38/38/38
f 38/38/38 37/37/37 39/39/39
f 38/38/38 39/39/39 40/40/40
f 40/40/40 39/39/39 41/41/41
f 40/40/40 41/41/41 42/42/42
f 42/42/42 41/41/41 43/43/43
f 42/42/42 43/43/43 44/44/44
f 44/44/44 43/43/43 45/45/45
f 44/44/44 45/45/45 30/30/30
f 30/30/30 45/45/45 32/32/32
f 32/32/32 46/46/46 33/33/33
f 33/33/33 46/46/46 47/47/47
f 33/33/33 47/47/47 35/35/35
f 35/35/35 47/47/47 48/48/48
f 35/35/35 48/48/48 37/37/37
f 37/37/37 48/48/48 49/49/49
f 37/37/37 49/49/49 39/39/39
f 39/39/39 49/49/49 50/50/50
f 39/39/39 50/50/50 41/41/41
f 41/41/41 50/50/50 51/51/51
f 41/41/41 51/51/51 43/43/43
f 43/43/43 51/51/51 52/52/52
f 43/43/43 52/52/52 45/45/45
f 45/45/45 52/52/52 53/53/53
f 45/45/45 53/53/53 32/32/32
f 32/32/32 53/53/53 46/46/46
f 40/40/40 42/42/42 54/54/54
f 42/42/42 44/44/44 54/54/54
f 55/55/55 40/40/40 54/54/54
f 55/55/55 54/54/54 56/56/56
f 57/57/57 55/55/55 56/56/56
f 58/58/58 57/57/57 56/56/56
f 54/54/54 58/58/58 56/56/56
f 58/58/58 31/31/31 57/57/57
f 30/30/30 31/31/31 58/58/58
f 44/44/44 30/30/30 58/58/58
f 54/54/54 44/44/44 58/58/58
f 31/31/31 34/34/34 57/57/57
f 34/34/34 36/36/36 57/57/57
f 57/57/57 36/36/36 55/55/55
f 36/36/36 38/38/38 55/55/55
f 38/38/38 40/40/40 55/55/55
