#Tree4_(114)_3020_497.obj

v -2.491715 6.129237 -0.4659485
v -3.228826 5.983608 -0.3656123
v -2.32799 5.560323 -0.9431554
v -3.285011 5.371249 -0.8128809
v -3.653042 5.739669 0.2133046
v -3.835794 5.054531 -0.06125534
v -3.515872 5.540316 0.9316657
v -3.657702 4.795703 0.8714272
v -2.897663 5.502325 1.368681
v -2.855048 4.746378 1.438822
v -2.160557 5.647953 1.268339
v -1.898027 4.935453 1.308548
v -1.736332 5.891891 0.6894262
v -1.347239 5.252171 0.5569197
v -1.873503 6.091246 -0.02893491
v -1.525334 5.511 -0.3757612
v -2.467371 6.30267 0.1721063
v -3.151072 6.167593 0.265178
v -2.765714 6.271781 0.5914695
v -3.023836 5.982682 0.9315011
v -2.34013 6.117759 0.8384269
v 2.217851 7.354592 -2.49482
v 0.8755548 7.329135 -2.837821
v 2.611902 6.5694 -2.995755
v 0.7982511 6.534998 -3.459199
v -0.3162745 7.316662 -2.131088
v -0.8120813 6.518145 -2.504301
v -0.6594747 7.324482 -0.7886173
v -1.27579 6.528714 -0.6904181
v 0.0469968 7.348016 0.4032
v -0.3212411 6.560512 0.9198949
v 1.38931 7.37348 0.7462013
v 1.492413 6.594911 1.383338
v 2.581136 7.38595 0.03947058
v 3.102749 6.611767 0.4284376
v 2.92434 7.37813 -1.303002
v 3.566458 6.601199 -1.385437
v 2.839004 5.645878 -3.269424
v 0.7632487 5.606506 -3.799849
v -1.079801 5.587218 -2.706952
v -1.610519 5.599314 -0.6309456
v -0.5180134 5.635708 1.212084
v 1.557739 5.675082 1.742511
v 3.400791 5.69437 0.6496112
v 3.931503 5.682274 -1.4264
v 1.552915 7.72575 -0.3300974
v 0.4071831 7.704019 -0.6228672
v 1.125374 7.781335 -1.050117
v 0.7001227 7.697345 -1.768746
v 1.845851 7.719076 -1.475975
v 0.4598757 6.511011 -2.618057
v -0.5894098 6.526672 -1.660246
v 0.1699509 5.761833 -3.293459
v -1.247788 5.782992 -1.999316
v -0.659661 6.420261 -0.2451863
v -1.342708 5.639215 -0.08736531
v 0.2902848 6.254119 0.7982036
v -0.05919772 5.414735 1.322405
v 1.70395 6.125566 0.8587164
v 1.850874 5.241036 1.404172
v 2.753246 6.109906 -0.09909191
v 3.26862 5.219882 0.1100255
v 2.82349 6.216312 -1.514156
v 3.363543 5.363655 -1.801927
v 1.873551 6.382455 -2.557541
v 2.08003 5.588139 -3.211695
v -0.1083927 4.862029 -3.912855
v -1.853921 4.888076 -2.319519
v -1.970769 4.711063 0.03447701
v -0.3905201 4.434681 1.770177
v 1.961163 4.220828 1.870848
v 3.706691 4.194779 0.277504
v 3.823546 4.371792 -2.076487
v 2.24329 4.648178 -3.812193
v 1.967898 6.614914 -0.8133823
v 1.072273 6.628282 0.004161437
v 1.121013 6.764997 -0.8441362
v 0.2614443 6.770093 -0.8864295
v 1.157058 6.756725 -1.703968
v -1.40449 4.948886 -2.365078
v -1.804187 4.708665 -2.802707
v -1.031504 4.433385 -2.28336
v -1.55045 4.121498 -2.851557
v -2.422604 4.545877 -2.809358
v -2.353364 3.910143 -2.860189
v -2.897481 4.555882 -2.381132
v -2.96992 3.923131 -2.304214
v -2.950639 4.732815 -1.76888
v -3.038934 4.152854 -1.509295
v -2.550946 4.973035 -1.33125
v -2.519995 4.464743 -0.9411021
v -1.932529 5.135823 -1.324599
v -1.717075 4.676098 -0.9324652
v -1.457648 5.125819 -1.752827
v -1.100522 4.663109 -1.488448
v -1.842204 5.217912 -2.146829
v -2.212944 4.995097 -2.552755
v -2.275557 5.217892 -2.184454
v -2.653419 5.004375 -2.155551
v -2.282673 5.22719 -1.749628

vn 0.3569777 0.7784641 -0.5162951
vn -0.2417877 0.6549021 -0.7159902
vn 0.481014 0.5973637 -0.6417026
vn -0.1954763 0.4577628 -0.867319
vn -0.7815917 0.4479261 -0.4341391
vn -0.8053494 0.223919 -0.548883
vn -0.9462223 0.278779 0.1641512
vn -0.9913507 0.03281599 0.1270712
vn -0.6392424 0.2465458 0.7284122
vn -0.6445225 -0.003602002 0.7645769
vn -0.04047614 0.3701069 0.928107
vn 0.03196716 0.135999 0.9901931
vn 0.4993268 0.5770843 0.6462558
vn 0.6418412 0.3698429 0.671756
vn 0.6639577 0.7462302 0.04796535
vn 0.8278418 0.560946 -0.004197389
vn 0.06480104 0.9965098 -0.05262201
vn -0.4829633 0.8641002 -0.1416942
vn -0.2603647 0.9454778 0.1956576
vn -0.5412736 0.7337341 0.4106792
vn 0.006490424 0.8661441 0.4997522
vn 0.8358418 0.5128449 -0.1958535
vn 0.4387094 0.737739 -0.5131037
vn 0.9028247 0.2558199 -0.3456352
vn 0.4108595 0.5344177 -0.7386422
vn -0.08672541 0.8987413 -0.4298171
vn -0.240045 0.7338651 -0.6354687
vn -0.4326698 0.9015374 0.00521639
vn -0.668598 0.7373294 -0.09655088
vn -0.3964739 0.7444899 0.5371622
vn -0.6237592 0.5427799 0.5624185
vn 0.0006594658 0.5195948 0.8544126
vn -0.1317938 0.2641829 0.9554255
vn 0.5260941 0.3585939 0.771126
vn 0.5191121 0.064735 0.8522512
vn 0.8720385 0.3557971 0.3360915
vn 0.9476642 0.06127099 0.3133344
vn 0.8995886 0.05827697 -0.4328327
vn 0.3678311 0.359409 -0.8576279
vn -0.335722 0.5749891 -0.7461089
vn -0.7989382 0.5787333 -0.1636019
vn -0.7504722 0.3684478 0.5486692
vn -0.2187142 0.067316 0.9734643
vn 0.4848394 -0.1482641 0.8619447
vn 0.948055 -0.152008 0.2794374
vn 0.3617791 0.8233867 0.4372075
vn 0.1168217 0.9434429 0.3102712
vn 0.3195574 0.9144735 0.2482363
vn 0.2627037 0.9636868 0.04790056
vn 0.5076605 0.8436309 0.1748365
vn 0.3621644 0.8238653 -0.435985
vn -0.1466182 0.959092 -0.2421689
vn 0.2966945 0.6650369 -0.6853454
vn -0.3300979 0.8316296 -0.4465731
vn -0.423655 0.8739552 0.238157
vn -0.6713935 0.7267453 0.1451621
vn -0.3066633 0.618327 0.7236223
vn -0.527265 0.4118249 0.7432308
vn 0.1358263 0.34195 0.9298502
vn 0.01785836 0.07134299 0.997292
vn 0.6446093 0.206723 0.7360329
vn 0.6446509 -0.09525002 0.75852
vn 0.9216461 0.29186 0.2557071
vn 0.9859465 0.009635 0.1667836
vn 0.8046533 0.5474889 -0.2297586
vn 0.841818 0.324556 -0.4312842
vn 0.2341115 0.5162241 -0.8238353
vn -0.441582 0.6958141 -0.5664345
vn -0.809505 0.5827472 0.07146722
vn -0.6541325 0.2432561 0.7161964
vn -0.06647894 -0.123789 0.9900792
vn 0.6092157 -0.303379 0.7326783
vn 0.9771382 -0.190312 0.09477544
vn 0.8217646 0.1491791 -0.5499532
vn 0.5446143 0.7373568 0.3996251
vn 0.2825567 0.7851081 0.5511507
vn 0.3660286 0.8568879 0.3629963
vn 0.1700499 0.9356971 0.3091179
vn 0.4321071 0.8879461 0.1575921
vn 0.781928 0.6109444 -0.1238369
vn 0.6155261 0.3693524 -0.6962086
vn 0.9098799 0.4137206 -0.03088251
vn 0.721877 0.1407688 -0.6775528
vn 0.06040993 0.2056359 -0.9767623
vn 0.09470448 -0.04420039 -0.9945237
vn -0.5582381 0.2156964 -0.8011526
vn -0.6042498 -0.03283307 -0.7961181
vn -0.8780241 0.3936419 -0.2722495
vn -0.9655461 0.1682102 -0.1985598
vn -0.7116216 0.6352329 0.300123
vn -0.7775433 0.4411621 0.4481099
vn -0.1565056 0.7989506 0.5806755
vn -0.1503694 0.6261312 0.7650809
vn 0.4621423 0.7888891 0.4050661
vn 0.5485839 0.6147642 0.5666752
vn 0.2949249 0.9311942 -0.2142351
vn 0.06059146 0.7211424 -0.6901322
vn -0.08863959 0.9266384 -0.3653551
vn -0.4571369 0.764573 -0.4543721
vn -0.2228044 0.9746255 0.02152485

vt 0.3613281 0.484375
vt 0.3461914 0.479248
vt 0.3603516 0.498291
vt 0.3356934 0.4875488
vt 0.3395996 0.463623
vt 0.3259277 0.4626465
vt 0.3447266 0.4484863
vt 0.3364258 0.4379883
vt 0.3603516 0.4418945
vt 0.3613281 0.4282227
vt 0.3754883 0.4470215
vt 0.3859863 0.4387207
vt 0.3820801 0.4626465
vt 0.395752 0.463623
vt 0.3769531 0.4780273
vt 0.3852539 0.4882813
vt 0.3652344 0.4726563
vt 0.3513184 0.4677734
vt 0.3608398 0.4631348
vt 0.3564453 0.4538574
vt 0.3701172 0.4587402
vt 0.4470215 0.4243164
vt 0.4257813 0.4155273
vt 0.4472656 0.4458008
vt 0.4106445 0.4306641
vt 0.4169922 0.3942871
vt 0.3955078 0.3942871
vt 0.4257813 0.3728027
vt 0.4106445 0.3579102
vt 0.4470215 0.3642578
vt 0.4470215 0.3427734
vt 0.4685059 0.3730469
vt 0.4833984 0.357666
vt 0.4770508 0.3942871
vt 0.4985352 0.394043
vt 0.4682617 0.4155273
vt 0.4833984 0.4306641
vt 0.4470215 0.4689941
vt 0.394043 0.4470215
vt 0.3723145 0.394043
vt 0.394043 0.3413086
vt 0.4470215 0.3193359
vt 0.5 0.3413086
vt 0.5219727 0.3942871
vt 0.5 0.4472656
vt 0.4609375 0.3884277
vt 0.4411621 0.3803711
vt 0.4470215 0.3942871
vt 0.4331055 0.3999023
vt 0.4528809 0.407959
vt 0.4470215 0.4243164
vt 0.4257813 0.4155273
vt 0.4472656 0.4458008
vt 0.4106445 0.4306641
vt 0.4169922 0.3942871
vt 0.3955078 0.3942871
vt 0.4257813 0.3728027
vt 0.4106445 0.3579102
vt 0.4470215 0.3642578
vt 0.4470215 0.3427734
vt 0.4685059 0.3730469
vt 0.4833984 0.357666
vt 0.4770508 0.3942871
vt 0.4985352 0.394043
vt 0.4682617 0.4155273
vt 0.4833984 0.4306641
vt 0.4470215 0.4689941
vt 0.394043 0.4470215
vt 0.3723145 0.394043
vt 0.394043 0.3413086
vt 0.4470215 0.3193359
vt 0.5 0.3413086
vt 0.5219727 0.3942871
vt 0.5 0.4472656
vt 0.4609375 0.3884277
vt 0.4411621 0.3803711
vt 0.4470215 0.3942871
vt 0.4331055 0.3999023
vt 0.4528809 0.407959
vt 0.3613281 0.484375
vt 0.3461914 0.479248
vt 0.3603516 0.498291
vt 0.3356934 0.4875488
vt 0.3395996 0.463623
vt 0.3259277 0.4626465
vt 0.3447266 0.4484863
vt 0.3364258 0.4379883
vt 0.3603516 0.4418945
vt 0.3613281 0.4282227
vt 0.3754883 0.4470215
vt 0.3859863 0.4387207
vt 0.3820801 0.4626465
vt 0.395752 0.463623
vt 0.3769531 0.4780273
vt 0.3852539 0.4882813
vt 0.3652344 0.4726563
vt 0.3513184 0.4677734
vt 0.3608398 0.4631348
vt 0.3564453 0.4538574
vt 0.3701172 0.4587402

g Tree4_(114)_3020_497
usemtl Tree4_(114)_3020_497
usemap Tree4_(114)_3020_497
f 1/1/1 3/3/3 2/2/2
f 2/2/2 3/3/3 4/4/4
f 2/2/2 4/4/4 5/5/5
f 5/5/5 4/4/4 6/6/6
f 5/5/5 6/6/6 7/7/7
f 7/7/7 6/6/6 8/8/8
f 7/7/7 8/8/8 9/9/9
f 9/9/9 8/8/8 10/10/10
f 9/9/9 10/10/10 11/11/11
f 11/11/11 10/10/10 12/12/12
f 11/11/11 12/12/12 13/13/13
f 13/13/13 12/12/12 14/14/14
f 13/13/13 14/14/14 15/15/15
f 15/15/15 14/14/14 16/16/16
f 15/15/15 16/16/16 1/1/1
f 1/1/1 16/16/16 3/3/3
f 15/15/15 1/1/1 17/17/17
f 1/1/1 2/2/2 17/17/17
f 17/17/17 2/2/2 18/18/18
f 2/2/2 5/5/5 18/18/18
f 5/5/5 7/7/7 18/18/18
f 17/17/17 18/18/18 19/19/19
f 18/18/18 20/20/20 19/19/19
f 18/18/18 7/7/7 20/20/20
f 7/7/7 9/9/9 20/20/20
f 9/9/9 11/11/11 20/20/20
f 20/20/20 21/21/21 19/19/19
f 21/21/21 17/17/17 19/19/19
f 20/20/20 11/11/11 21/21/21
f 11/11/11 13/13/13 21/21/21
f 13/13/13 15/15/15 21/21/21
f 21/21/21 15/15/15 17/17/17
f 22/22/22 24/24/24 23/23/23
f 23/23/23 24/24/24 25/25/25
f 23/23/23 25/25/25 26/26/26
f 26/26/26 25/25/25 27/27/27
f 26/26/26 27/27/27 28/28/28
f 28/28/28 27/27/27 29/29/29
f 28/28/28 29/29/29 30/30/30
f 30/30/30 29/29/29 31/31/31
f 30/30/30 31/31/31 32/32/32
f 32/32/32 31/31/31 33/33/33
f 32/32/32 33/33/33 34/34/34
f 34/34/34 33/33/33 35/35/35
f 34/34/34 35/35/35 36/36/36
f 36/36/36 35/35/35 37/37/37
f 36/36/36 37/37/37 22/22/22
f 22/22/22 37/37/37 24/24/24
f 24/24/24 38/38/38 25/25/25
f 25/25/25 38/38/38 39/39/39
f 25/25/25 39/39/39 27/27/27
f 27/27/27 39/39/39 40/40/40
f 27/27/27 40/40/40 29/29/29
f 29/29/29 40/40/40 41/41/41
f 29/29/29 41/41/41 31/31/31
f 31/31/31 41/41/41 42/42/42
f 31/31/31 42/42/42 33/33/33
f 33/33/33 42/42/42 43/43/43
f 33/33/33 43/43/43 35/35/35
f 35/35/35 43/43/43 44/44/44
f 35/35/35 44/44/44 37/37/37
f 37/37/37 44/44/44 45/45/45
f 37/37/37 45/45/45 24/24/24
f 24/24/24 45/45/45 38/38/38
f 32/32/32 34/34/34 46/46/46
f 34/34/34 36/36/36 46/46/46
f 47/47/47 32/32/32 46/46/46
f 47/47/47 46/46/46 48/48/48
f 49/49/49 47/47/47 48/48/48
f 50/50/50 49/49/49 48/48/48
f 46/46/46 50/50/50 48/48/48
f 50/50/50 23/23/23 49/49/49
f 22/22/22 23/23/23 50/50/50
f 36/36/36 22/22/22 50/50/50
f 46/46/46 36/36/36 50/50/50
f 23/23/23 26/26/26 49/49/49
f 26/26/26 28/28/28 49/49/49
f 49/49/49 28/28/28 47/47/47
f 28/28/28 30/30/30 47/47/47
f 30/30/30 32/32/32 47/47/47
f 51/51/51 53/53/53 52/52/52
f 52/52/52 53/53/53 54/54/54
f 52/52/52 54/54/54 55/55/55
f 55/55/55 54/54/54 56/56/56
f 55/55/55 56/56/56 57/57/57
f 57/57/57 56/56/56 58/58/58
f 57/57/57 58/58/58 59/59/59
f 59/59/59 58/58/58 60/60/60
f 59/59/59 60/60/60 61/61/61
f 61/61/61 60/60/60 62/62/62
f 61/61/61 62/62/62 63/63/63
f 63/63/63 62/62/62 64/64/64
f 63/63/63 64/64/64 65/65/65
f 65/65/65 64/64/64 66/66/66
f 65/65/65 66/66/66 51/51/51
f 51/51/51 66/66/66 53/53/53
f 53/53/53 67/67/67 54/54/54
f 54/54/54 67/67/67 68/68/68
f 54/54/54 68/68/68 56/56/56
f 56/56/56 68/68/68 69/69/69
f 56/56/56 69/69/69 58/58/58
f 58/58/58 69/69/69 70/70/70
f 58/58/58 70/70/70 60/60/60
f 60/60/60 70/70/70 71/71/71
f 60/60/60 71/71/71 62/62/62
f 62/62/62 71/71/71 72/72/72
f 62/62/62 72/72/72 64/64/64
f 64/64/64 72/72/72 73/73/73
f 64/64/64 73/73/73 66/66/66
f 66/66/66 73/73/73 74/74/74
f 66/66/66 74/74/74 53/53/53
f 53/53/53 74/74/74 67/67/67
f 61/61/61 63/63/63 75/75/75
f 63/63/63 65/65/65 75/75/75
f 76/76/76 61/61/61 75/75/75
f 76/76/76 75/75/75 77/77/77
f 78/78/78 76/76/76 77/77/77
f 79/79/79 78/78/78 77/77/77
f 75/75/75 79/79/79 77/77/77
f 79/79/79 52/52/52 78/78/78
f 51/51/51 52/52/52 79/79/79
f 65/65/65 51/51/51 79/79/79
f 75/75/75 65/65/65 79/79/79
f 52/52/52 55/55/55 78/78/78
f 55/55/55 57/57/57 78/78/78
f 78/78/78 57/57/57 76/76/76
f 57/57/57 59/59/59 76/76/76
f 59/59/59 61/61/61 76/76/76
f 80/80/80 82/82/82 81/81/81
f 81/81/81 82/82/82 83/83/83
f 81/81/81 83/83/83 84/84/84
f 84/84/84 83/83/83 85/85/85
f 84/84/84 85/85/85 86/86/86
f 86/86/86 85/85/85 87/87/87
f 86/86/86 87/87/87 88/88/88
f 88/88/88 87/87/87 89/89/89
f 88/88/88 89/89/89 90/90/90
f 90/90/90 89/89/89 91/91/91
f 90/90/90 91/91/91 92/92/92
f 92/92/92 91/91/91 93/93/93
f 92/92/92 93/93/93 94/94/94
f 94/94/94 93/93/93 95/95/95
f 94/94/94 95/95/95 80/80/80
f 80/80/80 95/95/95 82/82/82
f 94/94/94 80/80/80 96/96/96
f 80/80/80 81/81/81 96/96/96
f 96/96/96 81/81/81 97/97/97
f 81/81/81 84/84/84 97/97/97
f 84/84/84 86/86/86 97/97/97
f 96/96/96 97/97/97 98/98/98
f 97/97/97 99/99/99 98/98/98
f 97/97/97 86/86/86 99/99/99
f 86/86/86 88/88/88 99/99/99
f 88/88/88 90/90/90 99/99/99
f 99/99/99 100/100/100 98/98/98
f 100/100/100 96/96/96 98/98/98
f 99/99/99 90/90/90 100/100/100
f 90/90/90 92/92/92 100/100/100
f 92/92/92 94/94/94 100/100/100
f 100/100/100 94/94/94 96/96/96
