#Tree3_(7)_1574_222.obj

v -0.5663579 6.129975 -1.258505
v -1.729262 6.129975 -0.7768144
v -0.5663627 5.081509 -1.835995
v -2.137608 5.081509 -1.18516
v -2.210956 6.129975 0.3860861
v -2.78844 5.081509 0.3860871
v -1.729259 6.129975 1.548988
v -2.137607 5.081509 1.957336
v -0.566359 6.129975 2.030681
v -0.5663618 5.081509 2.60817
v 0.5965452 6.129975 1.548988
v 1.00489 5.081509 1.957335
v 1.078239 6.129975 0.3860854
v 1.655731 5.081509 0.3860844
v 0.5965426 6.129975 -0.7768151
v 1.00489 5.081509 -1.185164
v -0.5663604 3.849293 -1.958106
v -2.223958 3.849293 -1.27151
v -2.910547 3.849293 0.3860867
v -2.223957 3.849293 2.043682
v -0.5663567 3.849293 2.730279
v 1.091233 3.849293 2.043682
v 1.777838 3.849293 0.3860849
v 1.091233 3.849293 -1.271511
v 0.1355111 6.610299 0.676814
v -0.8570858 6.610299 1.087964
v -0.5663623 6.703349 0.3860866
v -1.268228 6.610299 0.09536132
v -0.2756388 6.610299 -0.3157868
v 2.332237 4.214332 -0.3507338
v 1.564472 4.326895 0.027108
v 2.205899 3.702219 -0.9014023
v 1.090338 3.865771 -0.3524046
v 1.277655 4.317745 0.8410877
v 0.6736153 3.852475 0.8302963
v 1.639824 4.192243 1.614385
v 1.199836 3.670125 1.953887
v 2.438808 4.023906 1.89402
v 2.360744 3.425532 2.360188
v 3.206574 3.911345 1.516178
v 3.476298 3.261982 1.811186
v 3.493383 3.920494 0.7021983
v 3.893036 3.275279 0.6284852
v 3.131222 4.045995 -0.07110107
v 3.366807 3.457629 -0.4951051
v 2.079421 3.061067 -1.085421
v 0.8719475 3.238093 -0.4911912
v 0.4208883 3.223703 0.7889561
v 0.9904556 3.026327 2.00512
v 2.24702 2.761585 2.444893
v 3.454494 2.584558 1.850665
v 3.905545 2.598947 0.5705196
v 3.335978 2.796325 -0.6456465
v 2.918184 4.291519 0.9612637
v 2.262851 4.3876 1.283773
v 2.45587 4.501337 0.8007285
v 1.953721 4.494721 0.6237184
v 2.609054 4.398644 0.3012127

vn -0.008575034 0.5420592 -0.8402966
vn -0.6002431 0.5420586 -0.5881162
vn -0.009688136 0.3140009 -0.9493732
vn -0.6781588 0.3140011 -0.6644577
vn -0.8402966 0.5420592 0.008575034
vn -0.9493732 0.3140009 0.009688136
vn -0.5881165 0.542059 0.6002425
vn -0.6644577 0.3140011 0.6781588
vn 0.008575034 0.5420592 0.8402966
vn 0.009688136 0.3140009 0.9493732
vn 0.6002434 0.542059 0.5881156
vn 0.6781588 0.3140011 0.6644577
vn 0.8402966 0.5420592 -0.008575034
vn 0.9493732 0.3140009 -0.009688136
vn 0.5881156 0.542059 -0.6002434
vn 0.6644573 0.3140009 -0.6781594
vn -0.01007053 0.1613551 -0.9868451
vn -0.7049258 0.161355 -0.6906838
vn -0.9868451 0.1613551 0.01007053
vn -0.6906838 0.161355 0.7049258
vn 0.01007053 0.1613551 0.9868451
vn 0.7049258 0.161355 0.6906838
vn 0.9868451 0.1613551 -0.01007053
vn 0.6906834 0.1613549 -0.7049263
vn 0.2942681 0.9538103 0.06043438
vn -0.06043535 0.9538099 0.294269
vn 0 1 0
vn -0.294269 0.9538099 -0.06043535
vn 0.06043436 0.95381 -0.294269
vn 0.05001494 0.6025708 -0.7964966
vn -0.519226 0.686452 -0.5091052
vn 0.002414824 0.3881159 -0.9216074
vn -0.6407183 0.4828859 -0.5969098
vn -0.7267546 0.6796343 0.09962421
vn -0.8751859 0.4751822 0.09083737
vn -0.451004 0.5861099 0.6731052
vn -0.5636398 0.369518 0.7387601
vn 0.1464964 0.460665 0.8754008
vn 0.1114196 0.2277891 0.9673148
vn 0.7157378 0.3767832 0.5880083
vn 0.7545527 0.133019 0.6426167
vn 0.9232662 0.3836018 -0.0207213
vn 0.9890199 0.140723 -0.04513054
vn 0.6475146 0.4771261 -0.5942016
vn 0.677474 0.2463869 -0.6930531
vn -0.0274055 0.2415741 -0.9699954
vn -0.6959233 0.340085 -0.6324817
vn -0.9396451 0.332078 0.08241066
vn -0.6158026 0.222242 0.7559072
vn 0.0859012 0.07491998 0.9934828
vn 0.7544191 -0.02359101 0.655969
vn 0.9981408 -0.015583 -0.05892434
vn 0.6742983 0.09425099 -0.7324197
vn 0.4579624 0.8812572 0.1168599
vn 0.1227813 0.9252396 0.3589657
vn 0.1812631 0.9807378 0.07278112
vn -0.1114596 0.9935194 0.02226853
vn 0.2237205 0.9495373 -0.2198364

vt 0.4470215 0.4243164
vt 0.4257813 0.4155273
vt 0.4472656 0.4458008
vt 0.4106445 0.4306641
vt 0.4169922 0.3942871
vt 0.3955078 0.3942871
vt 0.4257813 0.3728027
vt 0.4106445 0.3579102
vt 0.4470215 0.3642578
vt 0.4470215 0.3427734
vt 0.4685059 0.3730469
vt 0.4833984 0.357666
vt 0.4770508 0.3942871
vt 0.4985352 0.394043
vt 0.4682617 0.4155273
vt 0.4833984 0.4306641
vt 0.4470215 0.4689941
vt 0.394043 0.4470215
vt 0.3723145 0.394043
vt 0.394043 0.3413086
vt 0.4470215 0.3193359
vt 0.5 0.3413086
vt 0.5219727 0.3942871
vt 0.5 0.4472656
vt 0.4609375 0.3884277
vt 0.4411621 0.3803711
vt 0.4470215 0.3942871
vt 0.4331055 0.3999023
vt 0.4528809 0.407959
vt 0.3144531 0.4064941
vt 0.2939453 0.3986816
vt 0.3151855 0.4223633
vt 0.2832031 0.4101563
vt 0.2856445 0.3781738
vt 0.2697754 0.3789063
vt 0.293457 0.357666
vt 0.2817383 0.3469238
vt 0.3139648 0.3493652
vt 0.3132324 0.333252
vt 0.3344727 0.3571777
vt 0.3452148 0.345459
vt 0.3427734 0.3776855
vt 0.3586426 0.3769531
vt 0.3349609 0.3981934
vt 0.3464355 0.4089355
vt 0.3132324 0.4384766
vt 0.2705078 0.420166
vt 0.253418 0.3769531
vt 0.2717285 0.3342285
vt 0.3151855 0.3171387
vt 0.357666 0.3354492
vt 0.375 0.3786621
vt 0.3564453 0.4213867
vt 0.3261719 0.3720703
vt 0.3083496 0.3659668
vt 0.314209 0.3779297
vt 0.3022461 0.3837891
vt 0.3200684 0.3898926

g Tree3_(7)_1574_222
usemtl Tree3_(7)_1574_222
usemap Tree3_(7)_1574_222
f 1/1/1 3/3/3 2/2/2
f 2/2/2 3/3/3 4/4/4
f 2/2/2 4/4/4 5/5/5
f 5/5/5 4/4/4 6/6/6
f 5/5/5 6/6/6 7/7/7
f 7/7/7 6/6/6 8/8/8
f 7/7/7 8/8/8 9/9/9
f 9/9/9 8/8/8 10/10/10
f 9/9/9 10/10/10 11/11/11
f 11/11/11 10/10/10 12/12/12
f 11/11/11 12/12/12 13/13/13
f 13/13/13 12/12/12 14/14/14
f 13/13/13 14/14/14 15/15/15
f 15/15/15 14/14/14 16/16/16
f 15/15/15 16/16/16 1/1/1
f 1/1/1 16/16/16 3/3/3
f 3/3/3 17/17/17 4/4/4
f 4/4/4 17/17/17 18/18/18
f 4/4/4 18/18/18 6/6/6
f 6/6/6 18/18/18 19/19/19
f 6/6/6 19/19/19 8/8/8
f 8/8/8 19/19/19 20/20/20
f 8/8/8 20/20/20 10/10/10
f 10/10/10 20/20/20 21/21/21
f 10/10/10 21/21/21 12/12/12
f 12/12/12 21/21/21 22/22/22
f 12/12/12 22/22/22 14/14/14
f 14/14/14 22/22/22 23/23/23
f 14/14/14 23/23/23 16/16/16
f 16/16/16 23/23/23 24/24/24
f 16/16/16 24/24/24 3/3/3
f 3/3/3 24/24/24 17/17/17
f 11/11/11 13/13/13 25/25/25
f 13/13/13 15/15/15 25/25/25
f 26/26/26 11/11/11 25/25/25
f 26/26/26 25/25/25 27/27/27
f 28/28/28 26/26/26 27/27/27
f 29/29/29 28/28/28 27/27/27
f 25/25/25 29/29/29 27/27/27
f 29/29/29 2/2/2 28/28/28
f 1/1/1 2/2/2 29/29/29
f 15/15/15 1/1/1 29/29/29
f 25/25/25 15/15/15 29/29/29
f 2/2/2 5/5/5 28/28/28
f 5/5/5 7/7/7 28/28/28
f 28/28/28 7/7/7 26/26/26
f 7/7/7 9/9/9 26/26/26
f 9/9/9 11/11/11 26/26/26
f 30/30/30 32/32/32 31/31/31
f 31/31/31 32/32/32 33/33/33
f 31/31/31 33/33/33 34/34/34
f 34/34/34 33/33/33 35/35/35
f 34/34/34 35/35/35 36/36/36
f 36/36/36 35/35/35 37/37/37
f 36/36/36 37/37/37 38/38/38
f 38/38/38 37/37/37 39/39/39
f 38/38/38 39/39/39 40/40/40
f 40/40/40 39/39/39 41/41/41
f 40/40/40 41/41/41 42/42/42
f 42/42/42 41/41/41 43/43/43
f 42/42/42 43/43/43 44/44/44
f 44/44/44 43/43/43 45/45/45
f 44/44/44 45/45/45 30/30/30
f 30/30/30 45/45/45 32/32/32
f 32/32/32 46/46/46 33/33/33
f 33/33/33 46/46/46 47/47/47
f 33/33/33 47/47/47 35/35/35
f 35/35/35 47/47/47 48/48/48
f 35/35/35 48/48/48 37/37/37
f 37/37/37 48/48/48 49/49/49
f 37/37/37 49/49/49 39/39/39
f 39/39/39 49/49/49 50/50/50
f 39/39/39 50/50/50 41/41/41
f 41/41/41 50/50/50 51/51/51
f 41/41/41 51/51/51 43/43/43
f 43/43/43 51/51/51 52/52/52
f 43/43/43 52/52/52 45/45/45
f 45/45/45 52/52/52 53/53/53
f 45/45/45 53/53/53 32/32/32
f 32/32/32 53/53/53 46/46/46
f 40/40/40 42/42/42 54/54/54
f 42/42/42 44/44/44 54/54/54
f 55/55/55 40/40/40 54/54/54
f 55/55/55 54/54/54 56/56/56
f 57/57/57 55/55/55 56/56/56
f 58/58/58 57/57/57 56/56/56
f 54/54/54 58/58/58 56/56/56
f 58/58/58 31/31/31 57/57/57
f 30/30/30 31/31/31 58/58/58
f 44/44/44 30/30/30 58/58/58
f 54/54/54 44/44/44 58/58/58
f 31/31/31 34/34/34 57/57/57
f 34/34/34 36/36/36 57/57/57
f 57/57/57 36/36/36 55/55/55
f 36/36/36 38/38/38 55/55/55
f 38/38/38 40/40/40 55/55/55
