#Tree4_(113)_3043_485.obj

v 1.648995 -0.1087268 -0.2710429
v 0.9947538 1.197125 0.2054713
v 0.9725478 0.9077535 -1.046143
v 1.113347 -0.007759798 -1.02727
v 0.8603976 1.998779 -0.2360945
v 0.4648557 1.998779 -1.114192
v 0.8710231 3.322641 -0.8530291
v 1.077956 3.250427 -0.3773526
v 0.264458 3.499787 -1.126117
v -0.4900607 1.998779 -1.477913
v -0.4019079 3.677775 -0.9827656
v -1.321092 2.538194 -1.155862
v -0.7282813 3.75481 -0.3128656
v -1.69369 2.566373 -0.3302087
v -0.4807214 3.682956 -0.02716121
v -1.444986 1.998779 0.6420011
v 0.1530222 3.507116 0.2253128
v -0.4900605 1.998779 1.005721
v 0.7959667 3.327577 0.05719774
v 0.4648563 1.998779 0.6420005
v 1.077956 3.250427 -0.3773526
v 0.8603976 1.998779 -0.2360945
v 1.207072 5.526218 -0.3408358
v 0.6444222 5.526218 -0.5738953
v 0.6444222 5.526218 -0.5738953
v 0.4113585 5.526218 -0.0112428
v 0.6444222 5.526218 -0.5738953
v 0.9740173 5.526218 0.2218111
v 1.207072 5.526218 -0.3408358
v 0.9740173 5.526218 0.2218111
v 0.9947538 1.197125 0.2054713
v 0.7959006 0.6271882 1.412253
v 1.312919 -0.08299191 0.6160759
v 1.331269 -0.2933443 1.523449
v 0.964314 -1.052223 2.854056
v 0.4113585 5.526218 -0.0112428
v 0.4113585 5.526218 -0.0112428
v 0.9740173 5.526218 0.2218111
v -0.3533573 1.089863 1.163905
v 0.5105625 -0.2495115 1.571656
v -0.3154325 -0.007759798 1.207774
v -1.437688 0.01500591 1.313032
v -1.155438 -0.6044034 1.360409
v -2.090553 -0.599919 2.243827
v -1.208842 0.769768 0.4236608
v -1.840532 1.998779 -0.2360948
v -1.4259 1.307367 -0.4120872
v -1.444986 1.998779 -1.114192
v -0.6717091 0.9077535 -1.046142
v 0.1186065 1.206413 -1.30878
v 0.2641706 0.2683377 -1.970744
v 0.8155898 -0.2463671 -1.928796
v -0.4572386 -0.1337112 -1.027271
v -0.06903505 -0.2463671 -1.928795
v -1.630361 0.07463427 -0.7411506
v -1.336921 -0.4881959 -0.9694562
v -1.630361 0.07463427 -0.7411506
v 0.2641706 0.2683377 -1.970744
v -0.001974676 -0.8139682 -3.040454
v -0.001974676 -0.8139682 -3.040454
v 0.2641706 0.2683377 -1.970744
v -1.630361 0.07463427 -0.7411506
v -2.466261 -1.130942 -1.21601
v 2.127041 -0.2192227 -0.1883505
v 2.453197 0.3101302 0.2113371
v 0.9947538 1.197125 0.2054713
v 3.15665 -0.826737 0.3388983
v 2.453197 0.3101302 0.2113371
v 2.089911 -0.1782409 0.4586754
v 1.312919 -0.08299191 0.6160759
v 3.15665 -0.826737 0.3388983
v -1.143344 -0.1337112 0.3631076
v -1.617384 -0.4927883 -0.4026589
v -1.630361 0.07463427 -0.7411506
v -2.466261 -1.130942 -1.21601
v -1.657252 -0.4339224 0.8776578
v -1.437688 0.01500591 1.313032
v -2.090553 -0.599919 2.243827
v -1.630361 0.07463427 -0.7411506
v -1.437688 0.01500591 1.313032
v 0.7959006 0.6271882 1.412253
v 0.964314 -1.052223 2.854056
v -0.8967388 2.926876 -0.325562
v -2.091598 4.022573 0.8340375
v -0.5626188 2.839557 -0.08052838
v -1.651235 4.286763 0.8074988
v -0.2117862 3.16222 -0.04012223
v 0.01893077 3.308532 -0.4167133
v -1.753202 4.405365 0.3179964
v -0.232475 3.463918 -0.7067477
v -0.2744861 3.301548 -1.000765
v -2.193564 4.141176 0.3445356
v -0.7497241 2.880481 -0.9743542
v -0.9401297 2.765478 -0.6139494
v -0.9401297 2.765478 -0.6139494
v -2.193564 4.141176 0.3445356
v -2.53977 5.52331 0.4039633
v -2.475174 5.523309 0.7358143
v -2.833232 5.52331 0.4257451
v -1.753202 4.405365 0.3179964
v -2.091598 4.022573 0.8340375
v -2.475174 5.523309 0.7358143
v -2.768631 5.52331 0.757603
v -2.833232 5.52331 0.4257451
v -0.8058617 1.713094 -0.9715589
v -1.940495 3.014723 -1.967192
v -1.081216 1.483486 -0.7462559
v -2.036598 3.105563 -1.470271
v -1.238565 1.65237 -0.3272761
v -0.9392014 1.75097 0.01495468
v -1.568336 3.310784 -1.418388
v -0.646632 2.019552 -0.1022546
v -0.3244027 1.91954 -0.1295048
v -1.472232 3.219944 -1.915312
v -0.1928635 1.695827 -0.709591
v -0.4890451 1.613798 -1.000994
v -0.4890451 1.613798 -1.000994
v -1.472232 3.219944 -1.915312
v -2.0143 4.672457 -1.985742
v -2.346193 4.609434 -1.998886
v -1.987467 4.774529 -2.260434
v -1.568336 3.310784 -1.418388
v -1.940495 3.014723 -1.967192
v -2.346193 4.609434 -1.998886
v -2.319368 4.711502 -2.273576
v -1.987467 4.774529 -2.260434

vn -0.01351926 0.4752699 -0.8797362
vn 0.6609844 0.4740199 -0.5817258
vn 0.04473242 0.3570758 -0.9330038
vn 0.2222733 0.3716308 -0.9013796
vn 0.6877534 0.139459 -0.712423
vn -0.1781766 0.06812399 -0.9816375
vn -0.06413999 -0.034691 -0.9973378
vn 0.6494038 -0.229188 -0.7250846
vn -0.6335803 0.2846749 -0.7193999
vn -0.7769011 0.03371199 -0.6287196
vn -0.8291622 0.548427 -0.1082485
vn -0.9517128 0.2998459 -0.06584191
vn -0.5050538 0.6427877 0.5759729
vn -0.5682027 0.4594558 0.6826757
vn 0.112265 0.490514 0.8641717
vn 0.02622345 0.1787599 0.9835433
vn 0.6983657 0.1775949 0.6933581
vn 0.6501298 0.2419801 0.7202618
vn 0.9897826 -0.138798 0.032646
vn 0.9688227 0.2325539 0.08544719
vn 0.6494038 -0.229188 -0.7250846
vn 0.6877534 0.139459 -0.712423
vn 0.7141252 -0.3458401 -0.6086213
vn -0.7137252 0.6795754 -0.1696283
vn -0.7137252 0.6795754 -0.1696283
vn 0.2914415 0.2286319 0.9288645
vn -0.7137252 0.6795754 -0.1696283
vn 0.9184154 -0.389785 0.06768161
vn 0.7141252 -0.3458401 -0.6086213
vn 0.9184154 -0.389785 0.06768161
vn 0.6609844 0.4740199 -0.5817258
vn 0.9189475 0.360433 0.1600742
vn 0.8967028 0.4422792 -0.01770088
vn 0.7494224 0.6618493 -0.01793721
vn 0.5798163 0.06659099 0.8120215
vn 0.2914415 0.2286319 0.9288645
vn 0.2914415 0.2286319 0.9288645
vn 0.9184154 -0.389785 0.06768161
vn 0.598728 0.049349 0.7994307
vn 0.5798163 0.06659099 0.8120215
vn -0.7904282 -0.3025329 0.5326324
vn 0.598728 0.049349 0.7994307
vn 0.5798163 0.06659099 0.8120215
vn -0.2196395 -0.191461 0.9566092
vn -0.1289455 -0.1878229 0.9737021
vn -0.6975564 0.126915 0.7052004
vn -0.7904282 -0.3025329 0.5326324
vn -0.997206 0.07395096 -0.01055506
vn -0.9481746 -0.251599 -0.1940694
vn -0.7337762 -0.101271 -0.6718011
vn -0.7337762 -0.101271 -0.6718011
vn -0.4684984 0.33168 -0.8188393
vn -0.9859428 0.05232403 -0.1586787
vn -0.9276146 -0.22901 -0.2951029
vn -0.7904282 -0.3025329 0.5326324
vn -0.9276146 -0.22901 -0.2951029
vn -0.7904282 -0.3025329 0.5326324
vn -0.7337762 -0.101271 -0.6718011
vn -0.4684984 0.33168 -0.8188393
vn -0.4684984 0.33168 -0.8188393
vn -0.7337762 -0.101271 -0.6718011
vn -0.7904282 -0.3025329 0.5326324
vn -0.9276146 -0.22901 -0.2951029
vn 0.2554003 0.8161831 -0.5182815
vn 0.4354838 0.5997311 -0.6713245
vn 0.6609844 0.4740199 -0.5817258
vn 0.7494224 0.6618493 -0.01793721
vn 0.4354838 0.5997311 -0.6713245
vn 0.7494224 0.6618493 -0.01793721
vn 0.8967028 0.4422792 -0.01770088
vn 0.7494224 0.6618493 -0.01793721
vn -0.6224762 0.1424 0.7695751
vn -0.2196395 -0.191461 0.9566092
vn -0.7904282 -0.3025329 0.5326324
vn -0.9276146 -0.22901 -0.2951029
vn -0.2196395 -0.191461 0.9566092
vn 0.598728 0.049349 0.7994307
vn -0.2196395 -0.191461 0.9566092
vn -0.7904282 -0.3025329 0.5326324
vn 0.598728 0.049349 0.7994307
vn 0.9189475 0.360433 0.1600742
vn 0.5798163 0.06659099 0.8120215
vn -0.1012338 -0.8628667 0.4951897
vn -0.1036575 -0.5434508 0.8330164
vn 0.533248 -0.750657 0.3900777
vn 0.9515399 0.09143602 0.2936177
vn 0.9934217 -0.114192 -0.008570522
vn 0.6905072 0.5856197 -0.4245578
vn 0.2236438 0.6840867 -0.6942686
vn 0.04871917 0.835787 -0.5468881
vn -0.6714762 0.6189021 -0.4075289
vn -0.9792517 -0.155831 -0.1295482
vn -0.9723806 0.190956 -0.1342085
vn -0.8391368 -0.4627653 0.2858283
vn -0.8391368 -0.4627653 0.2858283
vn -0.9792517 -0.155831 -0.1295482
vn 0.08208129 0.370975 -0.9250082
vn 0.7676345 0.4915891 0.4111903
vn -0.9171402 -0.3125331 -0.2473398
vn 0.2236438 0.6840867 -0.6942686
vn -0.1036575 -0.5434508 0.8330164
vn 0.7676345 0.4915891 0.4111903
vn 0.3371445 0.1621339 0.9273868
vn -0.9171402 -0.3125331 -0.2473398
vn -0.5554401 -0.6759275 -0.4843638
vn -0.8463824 -0.3177881 -0.4273731
vn -0.578932 -0.8002949 0.156095
vn -0.4813924 -0.175644 0.8587262
vn -0.2207448 -0.4349001 0.8730026
vn 0.3274478 0.2376339 0.9144989
vn 0.7016315 0.4337419 0.5653151
vn 0.613932 0.6587548 0.4348903
vn 0.6110586 0.7206411 -0.327542
vn 0.3210906 0.1549622 -0.9342845
vn 0.3632532 0.4731117 -0.8026285
vn -0.1467436 -0.1000433 -0.9841025
vn -0.1467436 -0.1000433 -0.9841025
vn 0.3210906 0.1549622 -0.9342845
vn 0.9207963 0.1483921 0.3607133
vn -0.510198 0.2770755 0.8142034
vn 0.4040873 -0.03210646 -0.9141569
vn 0.7016315 0.4337419 0.5653151
vn -0.8463824 -0.3177881 -0.4273731
vn -0.510198 0.2770755 0.8142034
vn -0.9541561 0.2076827 0.2155323
vn 0.4040873 -0.03210646 -0.9141569

vt 0.03128052 0.3469238
vt 0.02098083 0.3811035
vt 0.04177856 0.3684082
vt 0.03814697 0.3459473
vt 0.02276611 0.3959961
vt 0.04354858 0.395752
vt 0.04064941 0.434082
vt 0.02258301 0.435791
vt 0.06384277 0.4343262
vt 0.06234741 0.3962402
vt 0.08276367 0.4355469
vt 0.08111572 0.407959
vt 0.09765625 0.4365234
vt 0.09967041 0.4067383
vt 0.1126099 0.4375
vt 0.1130981 0.3928223
vt 0.130127 0.439209
vt 0.1300049 0.3950195
vt 0.1516113 0.4384766
vt 0.1491699 0.3989258
vt 0.1682129 0.4372559
vt 0.1669922 0.4020996
vt 0.04025269 0.4936523
vt 0.06768799 0.4929199
vt 0.06768799 0.4929199
vt 0.1057739 0.4926758
vt 0.06768799 0.4929199
vt 0.1367188 0.4934082
vt 0.1651611 0.4941406
vt 0.1367188 0.4934082
vt 0.1706543 0.3869629
vt 0.1635742 0.3657227
vt 0.1831055 0.3806152
vt 0.18396 0.348877
vt 0.1702881 0.3166504
vt 0.1057739 0.4926758
vt 0.1057739 0.4926758
vt 0.1367188 0.4934082
vt 0.1357422 0.3745117
vt 0.1550293 0.3452148
vt 0.1451416 0.3503418
vt 0.1269531 0.3393555
vt 0.138916 0.3330078
vt 0.1308594 0.3168945
vt 0.1133423 0.3647461
vt 0.09954834 0.3955078
vt 0.09466553 0.3771973
vt 0.08105469 0.3979492
vt 0.07415771 0.3681641
vt 0.05825806 0.3747559
vt 0.05395508 0.3427734
vt 0.04519653 0.3320313
vt 0.07104492 0.345459
vt 0.05923462 0.3339844
vt 0.08972168 0.3439941
vt 0.08074951 0.3334961
vt 0.08972168 0.3439941
vt 0.05395508 0.3427734
vt 0.05123901 0.3146973
vt 0.05123901 0.3146973
vt 0.05395508 0.3427734
vt 0.08972168 0.3439941
vt 0.08709717 0.3164063
vt 0.02653503 0.3339844
vt 0.01992798 0.3444824
vt 0.02098083 0.3811035
vt 0.02056885 0.315918
vt 0.01992798 0.3444824
vt 0.00907135 0.3374023
vt 0.004844666 0.3596191
vt 0.02056885 0.315918
vt 0.1107178 0.3481445
vt 0.09783936 0.3349609
vt 0.08972168 0.3439941
vt 0.08709717 0.3164063
vt 0.1159668 0.3349609
vt 0.1269531 0.3393555
vt 0.1308594 0.3168945
vt 0.08972168 0.3439941
vt 0.1269531 0.3393555
vt 0.1635742 0.3657227
vt 0.1702881 0.3166504
vt 0.1189575 0.3955078
vt 0.1228027 0.4504395
vt 0.1253662 0.3933105
vt 0.1341553 0.4477539
vt 0.1331787 0.3930664
vt 0.1392822 0.3894043
vt 0.1452637 0.4487305
vt 0.1452637 0.3918457
vt 0.1491699 0.3884277
vt 0.1569824 0.4511719
vt 0.1594238 0.3896484
vt 0.1643066 0.3933105
vt 0.1153564 0.3920898
vt 0.1113892 0.4519043
vt 0.1470947 0.4968262
vt 0.1340332 0.4968262
vt 0.1560059 0.4968262
vt 0.1452637 0.4487305
vt 0.1228027 0.4504395
vt 0.1340332 0.4968262
vt 0.12146 0.4968262
vt 0.1110229 0.4968262
vt 0.07354736 0.3759766
vt 0.07739258 0.4306641
vt 0.07989502 0.3737793
vt 0.08874512 0.4282227
vt 0.08770752 0.373291
vt 0.09381104 0.369873
vt 0.09985352 0.4291992
vt 0.09985352 0.3720703
vt 0.1037598 0.3688965
vt 0.1115723 0.4313965
vt 0.1139526 0.3701172
vt 0.1188965 0.3737793
vt 0.06994629 0.3725586
vt 0.065979 0.4321289
vt 0.1016235 0.4770508
vt 0.08856201 0.4770508
vt 0.1105957 0.4770508
vt 0.09985352 0.4291992
vt 0.07739258 0.4306641
vt 0.08856201 0.4770508
vt 0.07598877 0.4770508
vt 0.06555176 0.4770508

g Tree4_(113)_3043_485
usemtl Tree4_(113)_3043_485
usemap Tree4_(113)_3043_485
f 1/1/1 3/3/3 2/2/2
f 1/1/1 4/4/4 3/3/3
f 3/3/3 5/5/5 2/2/2
f 3/3/3 6/6/6 5/5/5
f 5/5/5 6/6/6 7/7/7
f 5/5/5 7/7/7 8/8/8
f 6/6/6 9/9/9 7/7/7
f 6/6/6 10/10/10 9/9/9
f 10/10/10 11/11/11 9/9/9
f 10/10/10 12/12/12 11/11/11
f 12/12/12 13/13/13 11/11/11
f 12/12/12 14/14/14 13/13/13
f 14/14/14 15/15/15 13/13/13
f 14/14/14 16/16/16 15/15/15
f 16/16/16 17/17/17 15/15/15
f 16/16/16 18/18/18 17/17/17
f 18/18/18 19/19/19 17/17/17
f 18/18/18 20/20/20 19/19/19
f 20/20/20 21/21/21 19/19/19
f 20/20/20 22/22/22 21/21/21
f 8/8/8 7/7/7 23/23/23
f 7/7/7 24/24/24 23/23/23
f 7/7/7 9/9/9 24/24/24
f 9/9/9 11/11/11 25/25/25
f 11/11/11 13/13/13 26/26/26
f 11/11/11 26/26/26 27/27/27
f 17/17/17 19/19/19 28/28/28
f 19/19/19 21/21/21 29/29/29
f 19/19/19 29/29/29 30/30/30
f 31/31/31 22/22/22 20/20/20
f 20/20/20 32/32/32 31/31/31
f 33/33/33 31/31/31 32/32/32
f 33/33/33 32/32/32 34/34/34
f 34/34/34 32/32/32 35/35/35
f 13/13/13 15/15/15 36/36/36
f 15/15/15 38/38/38 37/37/37
f 15/15/15 17/17/17 38/38/38
f 39/39/39 40/40/40 32/32/32
f 39/39/39 41/41/41 40/40/40
f 41/41/41 39/39/39 42/42/42
f 41/41/41 42/42/42 43/43/43
f 43/43/43 42/42/42 44/44/44
f 39/39/39 32/32/32 20/20/20
f 39/39/39 20/20/20 18/18/18
f 39/39/39 18/18/18 16/16/16
f 39/39/39 16/16/16 45/45/45
f 45/45/45 16/16/16 46/46/46
f 45/45/45 46/46/46 47/47/47
f 47/47/47 46/46/46 48/48/48
f 47/47/47 48/48/48 49/49/49
f 49/49/49 48/48/48 10/10/10
f 49/49/49 10/10/10 50/50/50
f 50/50/50 10/10/10 6/6/6
f 50/50/50 6/6/6 3/3/3
f 50/50/50 3/3/3 51/51/51
f 49/49/49 50/50/50 51/51/51
f 3/3/3 52/52/52 51/51/51
f 3/3/3 4/4/4 52/52/52
f 53/53/53 49/49/49 51/51/51
f 53/53/53 51/51/51 54/54/54
f 47/47/47 49/49/49 55/55/55
f 49/49/49 53/53/53 56/56/56
f 49/49/49 56/56/56 57/57/57
f 10/10/10 48/48/48 12/12/12
f 48/48/48 14/14/14 12/12/12
f 48/48/48 46/46/46 14/14/14
f 46/46/46 16/16/16 14/14/14
f 58/58/58 52/52/52 59/59/59
f 54/54/54 61/61/61 60/60/60
f 62/62/62 56/56/56 63/63/63
f 1/1/1 65/65/65 64/64/64
f 1/1/1 66/66/66 65/65/65
f 64/64/64 65/65/65 67/67/67
f 2/2/2 69/69/69 68/68/68
f 2/2/2 70/70/70 69/69/69
f 68/68/68 69/69/69 71/71/71
f 72/72/72 74/74/74 73/73/73
f 72/72/72 45/45/45 74/74/74
f 73/73/73 74/74/74 75/75/75
f 45/45/45 72/72/72 76/76/76
f 45/45/45 76/76/76 77/77/77
f 77/77/77 76/76/76 78/78/78
f 45/45/45 47/47/47 79/79/79
f 39/39/39 45/45/45 80/80/80
f 81/81/81 40/40/40 82/82/82
f 83/83/83 85/85/85 84/84/84
f 85/85/85 86/86/86 84/84/84
f 85/85/85 87/87/87 86/86/86
f 87/87/87 88/88/88 86/86/86
f 88/88/88 89/89/89 86/86/86
f 88/88/88 90/90/90 89/89/89
f 90/90/90 91/91/91 89/89/89
f 91/91/91 92/92/92 89/89/89
f 91/91/91 93/93/93 92/92/92
f 93/93/93 94/94/94 92/92/92
f 95/95/95 83/83/83 84/84/84
f 95/95/95 84/84/84 96/96/96
f 86/86/86 89/89/89 97/97/97
f 86/86/86 97/97/97 98/98/98
f 89/89/89 99/99/99 97/97/97
f 100/100/100 92/92/92 99/99/99
f 101/101/101 86/86/86 102/102/102
f 84/84/84 102/102/102 103/103/103
f 96/96/96 84/84/84 103/103/103
f 96/96/96 103/103/103 104/104/104
f 105/105/105 107/107/107 106/106/106
f 107/107/107 108/108/108 106/106/106
f 107/107/107 109/109/109 108/108/108
f 109/109/109 110/110/110 108/108/108
f 110/110/110 111/111/111 108/108/108
f 110/110/110 112/112/112 111/111/111
f 112/112/112 113/113/113 111/111/111
f 113/113/113 114/114/114 111/111/111
f 113/113/113 115/115/115 114/114/114
f 115/115/115 116/116/116 114/114/114
f 117/117/117 105/105/105 106/106/106
f 117/117/117 106/106/106 118/118/118
f 108/108/108 111/111/111 119/119/119
f 108/108/108 119/119/119 120/120/120
f 111/111/111 121/121/121 119/119/119
f 122/122/122 114/114/114 121/121/121
f 123/123/123 108/108/108 124/124/124
f 106/106/106 124/124/124 125/125/125
f 118/118/118 106/106/106 125/125/125
f 118/118/118 125/125/125 126/126/126
