#Tree_conf1_(70)_3034_467.obj

v 0.1324665 -0.04437639 0.02974024
v 0.05209767 0.3509289 0.01169766
v 0.03219809 0.3509289 -0.04954759
v 0.08186684 -0.04437639 -0.125982
v -0.03219816 0.3509289 -0.0495474
v -0.081868 -0.04437639 -0.1259813
v -0.0520971 0.3509289 0.0116968
v -0.1324667 -0.04437639 0.02974023
v 3.618024E-08 0.3509289 0.0495475
v 5.812459E-07 -0.04437639 0.1259817
v 0.05209767 0.3509289 0.01169766
v 0.1324665 -0.04437639 0.02974024
v -0.01651748 2.018247 -0.02541584
v 0.01651567 2.018247 -0.02541621
v 0.02672327 2.018247 0.006000265
v 0.02672327 2.018247 0.006000265
v 2.509072E-07 2.018247 0.02541524
v -0.0267223 2.018247 0.006000007

vn 0.8231912 0.203269 -0.5301302
vn 0.8428456 0.08719236 -0.531045
vn -0.2451778 0.09713161 -0.9646001
vn -0.2458548 0.2244589 -0.94296
vn -0.9933218 0.09713168 -0.06226936
vn -0.9721814 0.224459 -0.06694368
vn -0.3657415 0.0871923 0.9266232
vn -0.3684839 0.2032691 0.9071391
vn 0.7672743 0.0811393 0.6361657
vn 0.7558138 0.1898378 0.6266636
vn 0.8428456 0.08719236 -0.531045
vn 0.8231912 0.203269 -0.5301302
vn -0.9978303 0.01723529 -0.06354502
vn -0.2472669 0.01723531 -0.9687942
vn 0.8451031 0.01552718 -0.5343778
vn 0.8451031 0.01552718 -0.5343778
vn 0.7697318 0.01447243 0.6382034
vn -0.368598 0.01552706 0.9294593

vt 0.4238281 0.003742218
vt 0.4238281 0.02593994
vt 0.4316406 0.02593994
vt 0.4316406 0.003742218
vt 0.4394531 0.02593994
vt 0.4394531 0.003740311
vt 0.4472656 0.02593994
vt 0.4472656 0.003740311
vt 0.4550781 0.02593994
vt 0.4550781 0.003740311
vt 0.4628906 0.02593994
vt 0.4628906 0.003738403
vt 0.4394531 0.1196289
vt 0.4318848 0.1196289
vt 0.4240723 0.1196289
vt 0.4628906 0.1195679
vt 0.4550781 0.1196289
vt 0.4472656 0.1196289

g Tree_conf1_(70)_3034_467
usemtl Tree_conf1_(70)_3034_467
usemap Tree_conf1_(70)_3034_467
f 1/1/1 3/3/3 2/2/2
f 1/1/1 4/4/4 3/3/3
f 4/4/4 5/5/5 3/3/3
f 4/4/4 6/6/6 5/5/5
f 6/6/6 7/7/7 5/5/5
f 6/6/6 8/8/8 7/7/7
f 8/8/8 9/9/9 7/7/7
f 8/8/8 10/10/10 9/9/9
f 10/10/10 11/11/11 9/9/9
f 10/10/10 12/12/12 11/11/11
f 3/3/3 5/5/5 13/13/13
f 3/3/3 13/13/13 14/14/14
f 2/2/2 3/3/3 14/14/14
f 2/2/2 14/14/14 15/15/15
f 9/9/9 11/11/11 16/16/16
f 9/9/9 16/16/16 17/17/17
f 7/7/7 9/9/9 17/17/17
f 7/7/7 17/17/17 18/18/18
f 5/5/5 18/18/18 13/13/13
f 5/5/5 7/7/7 18/18/18
