#Tree4_744_93.obj

v 1.648995 -0.1087268 -0.2710431
v 0.994753 1.197125 0.2054704
v 0.9725488 0.9077535 -1.04614
v 1.113348 -0.007759809 -1.027269
v 0.8603979 1.998779 -0.2360937
v 0.4648564 1.998779 -1.114191
v 0.8710234 3.322641 -0.8530287
v 1.077956 3.250427 -0.3773526
v 0.264458 3.499787 -1.126117
v -0.4900601 1.998779 -1.477912
v -0.4019083 3.677775 -0.982767
v -1.321092 2.538194 -1.155864
v -0.7282805 3.75481 -0.3128646
v -1.693691 2.566373 -0.3302111
v -0.4807222 3.682956 -0.02716269
v -1.444986 1.998779 0.6420011
v 0.1530219 3.507115 0.225312
v -0.4900609 1.998779 1.005721
v 0.795967 3.327577 0.05719791
v 0.4648557 1.998779 0.6419997
v 1.077956 3.250427 -0.3773526
v 0.8603979 1.998779 -0.2360937
v 1.207073 5.526218 -0.3408349
v 0.6444236 5.526218 -0.5738935
v 0.6444236 5.526218 -0.5738935
v 0.4113578 5.526218 -0.01124373
v 0.6444236 5.526218 -0.5738935
v 0.9740161 5.526218 0.2218099
v 1.207073 5.526218 -0.3408349
v 0.9740161 5.526218 0.2218099
v 0.994753 1.197125 0.2054704
v 0.7959014 0.6271882 1.412255
v 1.31292 -0.0829919 0.616078
v 1.331269 -0.2933443 1.523449
v 0.9643136 -1.052223 2.854056
v 0.4113578 5.526218 -0.01124373
v 0.4113578 5.526218 -0.01124373
v 0.9740161 5.526218 0.2218099
v -0.353357 1.089863 1.163906
v 0.5105627 -0.2495115 1.571656
v -0.3154314 -0.007759809 1.207776
v -1.437687 0.01500589 1.313033
v -1.155438 -0.6044034 1.360408
v -2.090554 -0.599919 2.243826
v -1.208843 0.769768 0.42366
v -1.840532 1.998779 -0.236094
v -1.425899 1.307367 -0.4120855
v -1.444987 1.998779 -1.114193
v -0.6717076 0.9077535 -1.04614
v 0.118607 1.206413 -1.308779
v 0.2641697 0.2683377 -1.970745
v 0.8155906 -0.2463671 -1.928796
v -0.4572378 -0.1337112 -1.02727
v -0.06903578 -0.2463671 -1.928797
v -1.630361 0.07463425 -0.7411512
v -1.33692 -0.4881959 -0.9694552
v -1.630361 0.07463425 -0.7411512
v 0.2641697 0.2683377 -1.970745
v -0.001975357 -0.8139682 -3.040456
v -0.001975357 -0.8139682 -3.040456
v 0.2641697 0.2683377 -1.970745
v -1.630361 0.07463425 -0.7411512
v -2.466261 -1.130942 -1.21601
v 2.127041 -0.2192227 -0.1883508
v 2.453198 0.3101302 0.2113396
v 0.994753 1.197125 0.2054704
v 3.156651 -0.826737 0.3389004
v 2.453198 0.3101302 0.2113396
v 2.089911 -0.1782408 0.4586765
v 1.31292 -0.0829919 0.616078
v 3.156651 -0.826737 0.3389004
v -1.143344 -0.1337112 0.3631084
v -1.617384 -0.4927883 -0.4026605
v -1.630361 0.07463425 -0.7411512
v -2.466261 -1.130942 -1.21601
v -1.657252 -0.4339224 0.8776575
v -1.437687 0.01500589 1.313033
v -2.090554 -0.599919 2.243826
v -1.630361 0.07463425 -0.7411512
v -1.437687 0.01500589 1.313033
v 0.7959014 0.6271882 1.412255
v 0.9643136 -1.052223 2.854056
v -0.896738 2.926876 -0.3255611
v -2.091598 4.022573 0.8340371
v -0.562619 2.839557 -0.08052918
v -1.651236 4.286763 0.8074974
v -0.2117862 3.16222 -0.0401227
v 0.01893212 3.308532 -0.4167112
v -1.753202 4.405365 0.3179964
v -0.2324741 3.463919 -0.7067468
v -0.2744861 3.301548 -1.000765
v -2.193564 4.141176 0.3445362
v -0.7497236 2.880481 -0.9743544
v -0.9401284 2.765478 -0.613948
v -0.9401284 2.765478 -0.613948
v -2.193564 4.141176 0.3445362
v -2.539769 5.52331 0.4039637
v -2.475173 5.523309 0.735816
v -2.833231 5.52331 0.4257456
v -1.753202 4.405365 0.3179964
v -2.091598 4.022573 0.8340371
v -2.475173 5.523309 0.735816
v -2.768632 5.52331 0.7576004
v -2.833231 5.52331 0.4257456
v -0.8058608 1.713094 -0.9715575
v -1.940495 3.014723 -1.967193
v -1.081217 1.483486 -0.7462574
v -2.036597 3.105563 -1.470272
v -1.238564 1.65237 -0.3272751
v -0.939201 1.75097 0.01495533
v -1.568337 3.310784 -1.41839
v -0.6466331 2.019552 -0.1022562
v -0.3244035 1.91954 -0.1295063
v -1.472232 3.219944 -1.915311
v -0.1928642 1.695827 -0.7095928
v -0.4890448 1.613798 -1.000994
v -0.4890448 1.613798 -1.000994
v -1.472232 3.219944 -1.915311
v -2.0143 4.672457 -1.985743
v -2.346192 4.609434 -1.998886
v -1.987466 4.774529 -2.260435
v -1.568337 3.310784 -1.41839
v -1.940495 3.014723 -1.967193
v -2.346192 4.609434 -1.998886
v -2.319368 4.711502 -2.273577
v -1.987466 4.774529 -2.260435

vn 0.8500272 0.4752699 -0.2270954
vn 0.7250292 0.4740199 0.4996376
vn 0.9158638 0.3570758 -0.1835496
vn 0.9283735 0.3716308 -0.003648669
vn 0.8583125 0.139459 0.4938126
vn 0.9088178 0.06812399 -0.4115936
vn 0.9517842 -0.034691 -0.3048005
vn 0.8612658 -0.229188 0.453535
vn 0.543686 0.2846749 -0.7895351
vn 0.4208685 0.03371199 -0.906495
vn -0.09668323 0.548427 -0.8305902
vn -0.1676248 0.2998459 -0.9391456
vn -0.6815214 0.6427877 -0.3497894
vn -0.8003796 0.4594558 -0.385088
vn -0.8109117 0.490514 0.3190897
vn -0.9476265 0.1787599 0.2646675
vn -0.5026682 0.1775949 0.8460406
vn -0.5404966 0.2419801 0.8057972
vn 0.2090836 -0.138798 0.9679976
vn 0.15277 0.2325539 0.9605103
vn 0.8612658 -0.229188 0.453535
vn 0.8583125 0.139459 0.4938126
vn 0.7640427 -0.3458401 0.5446407
vn -0.009068578 0.6795754 -0.7335497
vn -0.009068578 0.6795754 -0.7335497
vn -0.8300798 0.2286319 0.5086206
vn -0.009068578 0.6795754 -0.7335497
vn 0.1577412 -0.389785 0.9072956
vn 0.7640427 -0.3458401 0.5446407
vn 0.1577412 -0.389785 0.9072956
vn 0.7250292 0.4740199 0.4996376
vn 0.06825283 0.360433 0.9302847
vn 0.2352783 0.4422792 0.8654671
vn 0.1996838 0.6618493 0.7225524
vn -0.6466032 0.06659099 0.7599145
vn -0.8300798 0.2286319 0.5086206
vn -0.8300798 0.2286319 0.5086206
vn 0.1577412 -0.389785 0.9072956
vn -0.6297905 0.049349 0.7751957
vn -0.6466032 0.06659099 0.7599145
vn -0.7088954 -0.3025329 -0.6371351
vn -0.6297905 0.049349 0.7751957
vn -0.6466032 0.06659099 0.7599145
vn -0.9813038 -0.191461 0.01963711
vn -0.9758234 -0.1878229 0.1117649
vn -0.8536912 0.126915 -0.5050781
vn -0.7088954 -0.3025329 -0.6371351
vn -0.2323168 0.07395096 -0.9698248
vn -0.0423876 -0.251599 -0.9669029
vn 0.4731456 -0.101271 -0.8751442
vn 0.4731456 -0.101271 -0.8751442
vn 0.6802926 0.33168 -0.6535981
vn -0.08590204 0.05232403 -0.9949287
vn 0.06061253 -0.22901 -0.9715351
vn -0.7088954 -0.3025329 -0.6371351
vn 0.06061253 -0.22901 -0.9715351
vn -0.7088954 -0.3025329 -0.6371351
vn 0.4731456 -0.101271 -0.8751442
vn 0.6802926 0.33168 -0.6535981
vn 0.6802926 0.33168 -0.6535981
vn 0.4731456 -0.101271 -0.8751442
vn -0.7088954 -0.3025329 -0.6371351
vn 0.06061253 -0.22901 -0.9715351
vn 0.5648383 0.8161831 0.1216661
vn 0.7570876 0.5997311 0.2591159
vn 0.7250292 0.4740199 0.4996376
vn 0.1996838 0.6618493 0.7225524
vn 0.7570876 0.5997311 0.2591159
vn 0.1996838 0.6618493 0.7225524
vn 0.2352783 0.4422792 0.8654671
vn 0.1996838 0.6618493 0.7225524
vn -0.8978704 0.1424 -0.4165945
vn -0.9813038 -0.191461 0.01963711
vn -0.7088954 -0.3025329 -0.6371351
vn 0.06061253 -0.22901 -0.9715351
vn -0.9813038 -0.191461 0.01963711
vn -0.6297905 0.049349 0.7751957
vn -0.9813038 -0.191461 0.01963711
vn -0.7088954 -0.3025329 -0.6371351
vn -0.6297905 0.049349 0.7751957
vn 0.06825283 0.360433 0.9302847
vn -0.6466032 0.06659099 0.7599145
vn -0.5049415 -0.8628667 0.02225366
vn -0.8332119 -0.5434508 0.1020738
vn -0.2486585 -0.750657 0.6121135
vn -0.05335236 0.09143602 0.9943807
vn 0.2499474 -0.114192 0.9615022
vn 0.5797623 0.5856197 0.5665026
vn 0.7278158 0.6840867 0.0480572
vn 0.5423139 0.835787 -0.085766
vn 0.2319637 0.6189021 -0.7504352
vn -0.1125302 -0.155831 -0.981353
vn -0.1063385 0.190956 -0.9758217
vn -0.4813511 -0.4627653 -0.7444122
vn -0.4813511 -0.4627653 -0.7444122
vn -0.1125302 -0.155831 -0.981353
vn 0.9171929 0.370975 -0.1453776
vn -0.2121261 0.4915891 0.8445961
vn 0.01683152 -0.3125331 -0.9497578
vn 0.7278158 0.6840867 0.0480572
vn -0.8332119 -0.5434508 0.1020738
vn -0.2121261 0.4915891 0.8445961
vn -0.8175299 0.1621339 0.5525916
vn 0.01683152 -0.3125331 -0.9497578
vn 0.334715 -0.6759275 -0.6565728
vn 0.2086688 -0.3177881 -0.9249152
vn -0.2922233 -0.8002949 -0.5235776
vn -0.9500276 -0.175644 -0.2580632
vn -0.9004769 -0.4349001 -0.001771033
vn -0.8073877 0.2376339 0.5400513
vn -0.3776764 0.4337419 0.8180639
vn -0.2725002 0.6587548 0.7012744
vn 0.4663355 0.7206411 0.5130375
vn 0.9843259 0.1549622 0.08419737
vn 0.8668792 0.4731117 0.157117
vn 0.9188544 -0.1000433 -0.381704
vn 0.9188544 -0.1000433 -0.381704
vn 0.9843259 0.1549622 0.08419737
vn -0.1259109 0.1483921 0.9808804
vn -0.9138486 0.2770755 -0.2968332
vn 0.9849904 -0.03210646 0.1695972
vn -0.3776764 0.4337419 0.8180639
vn 0.2086688 -0.3177881 -0.9249152
vn -0.9138486 0.2770755 -0.2968332
vn -0.4411429 0.2076827 -0.8730755
vn 0.9849904 -0.03210646 0.1695972

vt 0.03128052 0.3469238
vt 0.02098083 0.3811035
vt 0.04177856 0.3684082
vt 0.03814697 0.3459473
vt 0.02276611 0.3959961
vt 0.04354858 0.395752
vt 0.04064941 0.434082
vt 0.02258301 0.435791
vt 0.06384277 0.4343262
vt 0.06234741 0.3962402
vt 0.08276367 0.4355469
vt 0.08111572 0.407959
vt 0.09765625 0.4365234
vt 0.09967041 0.4067383
vt 0.1126099 0.4375
vt 0.1130981 0.3928223
vt 0.130127 0.439209
vt 0.1300049 0.3950195
vt 0.1516113 0.4384766
vt 0.1491699 0.3989258
vt 0.1682129 0.4372559
vt 0.1669922 0.4020996
vt 0.04025269 0.4936523
vt 0.06768799 0.4929199
vt 0.06768799 0.4929199
vt 0.1057739 0.4926758
vt 0.06768799 0.4929199
vt 0.1367188 0.4934082
vt 0.1651611 0.4941406
vt 0.1367188 0.4934082
vt 0.1706543 0.3869629
vt 0.1635742 0.3657227
vt 0.1831055 0.3806152
vt 0.18396 0.348877
vt 0.1702881 0.3166504
vt 0.1057739 0.4926758
vt 0.1057739 0.4926758
vt 0.1367188 0.4934082
vt 0.1357422 0.3745117
vt 0.1550293 0.3452148
vt 0.1451416 0.3503418
vt 0.1269531 0.3393555
vt 0.138916 0.3330078
vt 0.1308594 0.3168945
vt 0.1133423 0.3647461
vt 0.09954834 0.3955078
vt 0.09466553 0.3771973
vt 0.08105469 0.3979492
vt 0.07415771 0.3681641
vt 0.05825806 0.3747559
vt 0.05395508 0.3427734
vt 0.04519653 0.3320313
vt 0.07104492 0.345459
vt 0.05923462 0.3339844
vt 0.08972168 0.3439941
vt 0.08074951 0.3334961
vt 0.08972168 0.3439941
vt 0.05395508 0.3427734
vt 0.05123901 0.3146973
vt 0.05123901 0.3146973
vt 0.05395508 0.3427734
vt 0.08972168 0.3439941
vt 0.08709717 0.3164063
vt 0.02653503 0.3339844
vt 0.01992798 0.3444824
vt 0.02098083 0.3811035
vt 0.02056885 0.315918
vt 0.01992798 0.3444824
vt 0.00907135 0.3374023
vt 0.004844666 0.3596191
vt 0.02056885 0.315918
vt 0.1107178 0.3481445
vt 0.09783936 0.3349609
vt 0.08972168 0.3439941
vt 0.08709717 0.3164063
vt 0.1159668 0.3349609
vt 0.1269531 0.3393555
vt 0.1308594 0.3168945
vt 0.08972168 0.3439941
vt 0.1269531 0.3393555
vt 0.1635742 0.3657227
vt 0.1702881 0.3166504
vt 0.1189575 0.3955078
vt 0.1228027 0.4504395
vt 0.1253662 0.3933105
vt 0.1341553 0.4477539
vt 0.1331787 0.3930664
vt 0.1392822 0.3894043
vt 0.1452637 0.4487305
vt 0.1452637 0.3918457
vt 0.1491699 0.3884277
vt 0.1569824 0.4511719
vt 0.1594238 0.3896484
vt 0.1643066 0.3933105
vt 0.1153564 0.3920898
vt 0.1113892 0.4519043
vt 0.1470947 0.4968262
vt 0.1340332 0.4968262
vt 0.1560059 0.4968262
vt 0.1452637 0.4487305
vt 0.1228027 0.4504395
vt 0.1340332 0.4968262
vt 0.12146 0.4968262
vt 0.1110229 0.4968262
vt 0.07354736 0.3759766
vt 0.07739258 0.4306641
vt 0.07989502 0.3737793
vt 0.08874512 0.4282227
vt 0.08770752 0.373291
vt 0.09381104 0.369873
vt 0.09985352 0.4291992
vt 0.09985352 0.3720703
vt 0.1037598 0.3688965
vt 0.1115723 0.4313965
vt 0.1139526 0.3701172
vt 0.1188965 0.3737793
vt 0.06994629 0.3725586
vt 0.065979 0.4321289
vt 0.1016235 0.4770508
vt 0.08856201 0.4770508
vt 0.1105957 0.4770508
vt 0.09985352 0.4291992
vt 0.07739258 0.4306641
vt 0.08856201 0.4770508
vt 0.07598877 0.4770508
vt 0.06555176 0.4770508

g Tree4_744_93
usemtl Tree4_744_93
usemap Tree4_744_93
f 1/1/1 3/3/3 2/2/2
f 1/1/1 4/4/4 3/3/3
f 3/3/3 5/5/5 2/2/2
f 3/3/3 6/6/6 5/5/5
f 5/5/5 6/6/6 7/7/7
f 5/5/5 7/7/7 8/8/8
f 6/6/6 9/9/9 7/7/7
f 6/6/6 10/10/10 9/9/9
f 10/10/10 11/11/11 9/9/9
f 10/10/10 12/12/12 11/11/11
f 12/12/12 13/13/13 11/11/11
f 12/12/12 14/14/14 13/13/13
f 14/14/14 15/15/15 13/13/13
f 14/14/14 16/16/16 15/15/15
f 16/16/16 17/17/17 15/15/15
f 16/16/16 18/18/18 17/17/17
f 18/18/18 19/19/19 17/17/17
f 18/18/18 20/20/20 19/19/19
f 20/20/20 21/21/21 19/19/19
f 20/20/20 22/22/22 21/21/21
f 8/8/8 7/7/7 23/23/23
f 7/7/7 24/24/24 23/23/23
f 7/7/7 9/9/9 24/24/24
f 9/9/9 11/11/11 25/25/25
f 11/11/11 13/13/13 26/26/26
f 11/11/11 26/26/26 27/27/27
f 17/17/17 19/19/19 28/28/28
f 19/19/19 21/21/21 29/29/29
f 19/19/19 29/29/29 30/30/30
f 31/31/31 22/22/22 20/20/20
f 20/20/20 32/32/32 31/31/31
f 33/33/33 31/31/31 32/32/32
f 33/33/33 32/32/32 34/34/34
f 34/34/34 32/32/32 35/35/35
f 13/13/13 15/15/15 36/36/36
f 15/15/15 38/38/38 37/37/37
f 15/15/15 17/17/17 38/38/38
f 39/39/39 40/40/40 32/32/32
f 39/39/39 41/41/41 40/40/40
f 41/41/41 39/39/39 42/42/42
f 41/41/41 42/42/42 43/43/43
f 43/43/43 42/42/42 44/44/44
f 39/39/39 32/32/32 20/20/20
f 39/39/39 20/20/20 18/18/18
f 39/39/39 18/18/18 16/16/16
f 39/39/39 16/16/16 45/45/45
f 45/45/45 16/16/16 46/46/46
f 45/45/45 46/46/46 47/47/47
f 47/47/47 46/46/46 48/48/48
f 47/47/47 48/48/48 49/49/49
f 49/49/49 48/48/48 10/10/10
f 49/49/49 10/10/10 50/50/50
f 50/50/50 10/10/10 6/6/6
f 50/50/50 6/6/6 3/3/3
f 50/50/50 3/3/3 51/51/51
f 49/49/49 50/50/50 51/51/51
f 3/3/3 52/52/52 51/51/51
f 3/3/3 4/4/4 52/52/52
f 53/53/53 49/49/49 51/51/51
f 53/53/53 51/51/51 54/54/54
f 47/47/47 49/49/49 55/55/55
f 49/49/49 53/53/53 56/56/56
f 49/49/49 56/56/56 57/57/57
f 10/10/10 48/48/48 12/12/12
f 48/48/48 14/14/14 12/12/12
f 48/48/48 46/46/46 14/14/14
f 46/46/46 16/16/16 14/14/14
f 58/58/58 52/52/52 59/59/59
f 54/54/54 61/61/61 60/60/60
f 62/62/62 56/56/56 63/63/63
f 1/1/1 65/65/65 64/64/64
f 1/1/1 66/66/66 65/65/65
f 64/64/64 65/65/65 67/67/67
f 2/2/2 69/69/69 68/68/68
f 2/2/2 70/70/70 69/69/69
f 68/68/68 69/69/69 71/71/71
f 72/72/72 74/74/74 73/73/73
f 72/72/72 45/45/45 74/74/74
f 73/73/73 74/74/74 75/75/75
f 45/45/45 72/72/72 76/76/76
f 45/45/45 76/76/76 77/77/77
f 77/77/77 76/76/76 78/78/78
f 45/45/45 47/47/47 79/79/79
f 39/39/39 45/45/45 80/80/80
f 81/81/81 40/40/40 82/82/82
f 83/83/83 85/85/85 84/84/84
f 85/85/85 86/86/86 84/84/84
f 85/85/85 87/87/87 86/86/86
f 87/87/87 88/88/88 86/86/86
f 88/88/88 89/89/89 86/86/86
f 88/88/88 90/90/90 89/89/89
f 90/90/90 91/91/91 89/89/89
f 91/91/91 92/92/92 89/89/89
f 91/91/91 93/93/93 92/92/92
f 93/93/93 94/94/94 92/92/92
f 95/95/95 83/83/83 84/84/84
f 95/95/95 84/84/84 96/96/96
f 86/86/86 89/89/89 97/97/97
f 86/86/86 97/97/97 98/98/98
f 89/89/89 99/99/99 97/97/97
f 100/100/100 92/92/92 99/99/99
f 101/101/101 86/86/86 102/102/102
f 84/84/84 102/102/102 103/103/103
f 96/96/96 84/84/84 103/103/103
f 96/96/96 103/103/103 104/104/104
f 105/105/105 107/107/107 106/106/106
f 107/107/107 108/108/108 106/106/106
f 107/107/107 109/109/109 108/108/108
f 109/109/109 110/110/110 108/108/108
f 110/110/110 111/111/111 108/108/108
f 110/110/110 112/112/112 111/111/111
f 112/112/112 113/113/113 111/111/111
f 113/113/113 114/114/114 111/111/111
f 113/113/113 115/115/115 114/114/114
f 115/115/115 116/116/116 114/114/114
f 117/117/117 105/105/105 106/106/106
f 117/117/117 106/106/106 118/118/118
f 108/108/108 111/111/111 119/119/119
f 108/108/108 119/119/119 120/120/120
f 111/111/111 121/121/121 119/119/119
f 122/122/122 114/114/114 121/121/121
f 123/123/123 108/108/108 124/124/124
f 106/106/106 124/124/124 125/125/125
f 118/118/118 106/106/106 125/125/125
f 118/118/118 125/125/125 126/126/126
