#Tree_conf1_(1)_1022_289.obj

v 0.1094556 1.578246 0.3661341
v 0.03892485 1.930737 0.1420333
v 0.1273201 1.938304 0.07318397
v 0.3483658 1.598699 0.1800525
v 0.1409883 1.947921 -0.03793291
v 0.385309 1.62469 -0.1202715
v 0.07192312 1.953952 -0.1262269
v 0.1986431 1.640992 -0.3589088
v -0.03941738 1.952867 -0.1399769
v -0.102285 1.638057 -0.3960708
v -0.1278127 1.945299 -0.07112755
v -0.3411964 1.617604 -0.2099875
v -0.1414812 1.935683 0.03998909
v -0.3781384 1.591613 0.09033479
v -0.07241587 1.929651 0.1282832
v -0.1914724 1.575311 0.3289723
v -0.003585377 2.232562 0.01496829
v -0.5621588 0.6246044 0.6367048
v -0.1598648 0.849957 0.4109185
v 0.04298804 0.6214363 0.8242586
v 0.378406 0.8471389 0.1273561
v 0.6035106 0.6185017 0.5289739
v 0.7910635 0.61752 -0.07617671
v 0.2650526 0.8477323 -0.3581663
v 0.4957811 0.6190658 -0.6367042
v -0.2330174 0.8503399 -0.3806179
v -0.1093644 0.622234 -0.8242596
v -0.6698887 0.6251684 -0.5289734
v -0.4961776 0.8517178 0.04285247
v -0.8574415 0.6261503 0.07617718
v -0.04382559 1.230687 -7.349751E-07
v -0.316133 1.416121 -0.4689032
v -0.2401679 1.556894 -0.1451862
v -0.5581535 1.372669 -0.1078453
v -0.1586021 1.489291 0.2622042
v -0.4732156 1.302272 0.3163863
v -0.1110747 1.246167 0.5552835
v 0.1835737 1.468478 0.2808054
v 0.3161323 1.23722 0.4689028
v 0.2958277 1.512721 -0.04162237
v 0.5581535 1.280672 0.1078453
v 0.4732154 1.351069 -0.3163864
v 0.06822187 1.564082 -0.2953315
v 0.1110744 1.407174 -0.5552836
v 0.0200914 1.826264 0.05963326
v 0.3820775 1.057775 0.612124
v 0.3001461 1.251559 0.2239775
v 0.691465 1.055051 0.163703
v 0.2057349 1.249136 -0.290599
v 0.5931513 1.052527 -0.372147
v 0.1447274 1.051683 -0.6815331
v -0.2218248 1.249646 -0.322317
v -0.3911254 1.053012 -0.5832227
v -0.3682126 1.251888 0.08064873
v -0.7005123 1.055737 -0.1348038
v -0.6021987 1.05826 0.4010462
v -0.08830803 1.253073 0.4054056
v -0.1537758 1.059104 0.7104341
v -0.007256183 1.578954 0.02317847

vn 0.6107163 0.4115613 0.6764929
vn 0.5630055 0.5340773 0.6307029
vn 0.8233281 0.5632517 0.06984398
vn 0.8950894 0.4410965 0.06518179
vn 0.6102005 0.6014429 -0.5156758
vn 0.663294 0.4797606 -0.5743437
vn 0.03799641 0.6261111 -0.7788075
vn 0.03855988 0.5047326 -0.8624141
vn -0.5533101 0.6216261 -0.5544626
vn -0.6073347 0.5001927 -0.6172127
vn -0.8064932 0.5908968 0.0202409
vn -0.8830863 0.4690853 0.01083592
vn -0.5794386 0.5530602 0.5986445
vn -0.6344823 0.43078 0.6417639
vn -0.01434666 0.5299489 0.8479081
vn -0.01834163 0.4073827 0.9130733
vn 0.02121921 0.9962845 0.08346644
vn -0.09233835 0.6754404 0.7316104
vn 0.1511849 0.8853248 0.4397078
vn 0.4875507 0.6235921 0.6110867
vn 0.4660037 0.8843999 -0.02602313
vn 0.8065732 0.5780541 0.1236652
vn 0.6964272 0.5632923 -0.4446246
vn 0.107507 0.8687778 -0.4833915
vn 0.223057 0.5866373 -0.7785257
vn -0.4147559 0.8619226 -0.2916623
vn -0.3537547 0.6363669 -0.6854886
vn -0.7001415 0.6849957 -0.2014518
vn -0.412039 0.8707365 0.2684059
vn -0.593135 0.7018849 0.3943961
vn 0.106962 0.9926714 -0.05623556
vn -0.7345668 0.5518385 -0.3948238
vn -0.4467488 0.8873513 0.1141181
vn -0.7986007 0.551837 0.2402348
vn -0.03228346 0.7936295 0.6075441
vn -0.3948238 0.5518385 0.7345668
vn 0.2402344 0.5518386 0.7985997
vn 0.5805768 0.735074 0.3501381
vn 0.7345668 0.5518385 0.3948238
vn 0.5427291 0.7923025 -0.2787502
vn 0.7986007 0.551837 -0.2402348
vn 0.3948238 0.5518385 -0.7345668
vn -0.06652637 0.8842494 -0.4622521
vn -0.2402344 0.5518386 -0.7985997
vn 0 0.9999999 0
vn 0.6706058 0.6754403 0.3067051
vn 0.4647938 0.8853247 -0.0129073
vn 0.7288415 0.6235921 -0.2827063
vn 0.1143942 0.8843999 -0.4524937
vn 0.3589979 0.5780541 -0.732785
vn -0.2162436 0.5632922 -0.7974587
vn -0.4291923 0.8687778 -0.2470203
vn -0.6763231 0.5866373 -0.4454701
vn -0.4022579 0.8619226 0.3086712
vn -0.7598706 0.6363668 0.1327923
vn -0.4014328 0.6849957 0.6079742
vn 0.1330409 0.8707364 0.4734111
vn 0.1991701 0.701885 0.6838777
vn -0.02170977 0.9926714 -0.118878

vt 0.3461914 0.0803833
vt 0.3190918 0.06854248
vt 0.3068848 0.08081055
vt 0.3181152 0.1083374
vt 0.2895508 0.08081055
vt 0.2785645 0.1083374
vt 0.2770996 0.06854248
vt 0.2504883 0.08032227
vt 0.2770996 0.05114746
vt 0.2504883 0.04064941
vt 0.2895508 0.03884888
vt 0.2785645 0.01256561
vt 0.3068848 0.03887939
vt 0.3183594 0.01262665
vt 0.3190918 0.0512085
vt 0.3464355 0.04077148
vt 0.2978516 0.05935669
vt 0.2459717 0.0847168
vt 0.213623 0.08380127
vt 0.2144775 0.1161499
vt 0.1708984 0.08374023
vt 0.1700439 0.1160889
vt 0.1385498 0.08459473
vt 0.1621094 0.04983521
vt 0.1385498 0.0401001
vt 0.1923828 0.03216553
vt 0.1700439 0.008682251
vt 0.2145996 0.008712769
vt 0.2225342 0.04989624
vt 0.2460938 0.04019165
vt 0.1922607 0.06237793
vt 0.2459717 0.0847168
vt 0.213623 0.08380127
vt 0.2144775 0.1161499
vt 0.1708984 0.08374023
vt 0.1700439 0.1160889
vt 0.1385498 0.08459473
vt 0.1621094 0.04983521
vt 0.1385498 0.0401001
vt 0.1923828 0.03216553
vt 0.1700439 0.008682251
vt 0.2145996 0.008712769
vt 0.2225342 0.04989624
vt 0.2460938 0.04019165
vt 0.1922607 0.06237793
vt 0.2459717 0.0847168
vt 0.213623 0.08380127
vt 0.2144775 0.1161499
vt 0.1708984 0.08374023
vt 0.1700439 0.1160889
vt 0.1385498 0.08459473
vt 0.1621094 0.04983521
vt 0.1385498 0.0401001
vt 0.1923828 0.03216553
vt 0.1700439 0.008682251
vt 0.2145996 0.008712769
vt 0.2225342 0.04989624
vt 0.2460938 0.04019165
vt 0.1922607 0.06237793

g Tree_conf1_(1)_1022_289
usemtl Tree_conf1_(1)_1022_289
usemap Tree_conf1_(1)_1022_289
f 1/1/1 3/3/3 2/2/2
f 1/1/1 4/4/4 3/3/3
f 4/4/4 5/5/5 3/3/3
f 4/4/4 6/6/6 5/5/5
f 6/6/6 7/7/7 5/5/5
f 6/6/6 8/8/8 7/7/7
f 8/8/8 9/9/9 7/7/7
f 8/8/8 10/10/10 9/9/9
f 10/10/10 11/11/11 9/9/9
f 10/10/10 12/12/12 11/11/11
f 12/12/12 13/13/13 11/11/11
f 12/12/12 14/14/14 13/13/13
f 14/14/14 15/15/15 13/13/13
f 14/14/14 16/16/16 15/15/15
f 16/16/16 2/2/2 15/15/15
f 16/16/16 1/1/1 2/2/2
f 2/2/2 3/3/3 17/17/17
f 3/3/3 5/5/5 17/17/17
f 5/5/5 7/7/7 17/17/17
f 7/7/7 9/9/9 17/17/17
f 9/9/9 11/11/11 17/17/17
f 11/11/11 13/13/13 17/17/17
f 13/13/13 15/15/15 17/17/17
f 15/15/15 2/2/2 17/17/17
f 18/18/18 20/20/20 19/19/19
f 20/20/20 21/21/21 19/19/19
f 20/20/20 22/22/22 21/21/21
f 22/22/22 23/23/23 21/21/21
f 23/23/23 24/24/24 21/21/21
f 23/23/23 25/25/25 24/24/24
f 25/25/25 26/26/26 24/24/24
f 25/25/25 27/27/27 26/26/26
f 27/27/27 28/28/28 26/26/26
f 28/28/28 29/29/29 26/26/26
f 28/28/28 30/30/30 29/29/29
f 30/30/30 19/19/19 29/29/29
f 30/30/30 18/18/18 19/19/19
f 19/19/19 21/21/21 31/31/31
f 21/21/21 24/24/24 31/31/31
f 24/24/24 26/26/26 31/31/31
f 26/26/26 29/29/29 31/31/31
f 29/29/29 19/19/19 31/31/31
f 32/32/32 34/34/34 33/33/33
f 34/34/34 35/35/35 33/33/33
f 34/34/34 36/36/36 35/35/35
f 36/36/36 37/37/37 35/35/35
f 37/37/37 38/38/38 35/35/35
f 37/37/37 39/39/39 38/38/38
f 39/39/39 40/40/40 38/38/38
f 39/39/39 41/41/41 40/40/40
f 41/41/41 42/42/42 40/40/40
f 42/42/42 43/43/43 40/40/40
f 42/42/42 44/44/44 43/43/43
f 44/44/44 33/33/33 43/43/43
f 44/44/44 32/32/32 33/33/33
f 33/33/33 35/35/35 45/45/45
f 35/35/35 38/38/38 45/45/45
f 38/38/38 40/40/40 45/45/45
f 40/40/40 43/43/43 45/45/45
f 43/43/43 33/33/33 45/45/45
f 46/46/46 48/48/48 47/47/47
f 48/48/48 49/49/49 47/47/47
f 48/48/48 50/50/50 49/49/49
f 50/50/50 51/51/51 49/49/49
f 51/51/51 52/52/52 49/49/49
f 51/51/51 53/53/53 52/52/52
f 53/53/53 54/54/54 52/52/52
f 53/53/53 55/55/55 54/54/54
f 55/55/55 56/56/56 54/54/54
f 56/56/56 57/57/57 54/54/54
f 56/56/56 58/58/58 57/57/57
f 58/58/58 47/47/47 57/57/57
f 58/58/58 46/46/46 47/47/47
f 47/47/47 49/49/49 59/59/59
f 49/49/49 52/52/52 59/59/59
f 52/52/52 54/54/54 59/59/59
f 54/54/54 57/57/57 59/59/59
f 57/57/57 47/47/47 59/59/59
