#Tree6_1117_89.obj

v 0.853296 1.203469 0.2766831
v 0.8723305 1.102065 0.2347624
v 0.9885359 0.8131804 0.546026
v 0.9770449 0.8551276 0.6485516
v 0.875231 1.203829 -0.2412092
v 0.8906696 1.102365 -0.1979715
v 0.9521523 0.8427292 -0.605064
v 0.9549356 0.8006436 -0.5019945
v 0.939409 0.3147555 -0.6059669
v 0.9279234 0.3567035 -0.5034413
v 0.9770449 0.8551276 0.6485516
v 0.9885359 0.8131804 0.546026
v 0.9198832 0.369152 0.5358638
v 0.9271413 0.3138283 0.6530208
v 1.047499 0.07121472 0.2414761
v 1.062935 -0.03025097 0.2847165
v 1.168784 0.08903125 -0.1868823
v 1.187821 -0.01236871 -0.2288003
v 0.9279234 0.3567035 -0.5034413
v 0.939409 0.3147555 -0.6059669
v 0.8723305 1.102065 0.2347624
v 0.6727931 0.9908481 0.1953409
v 0.6891571 0.7435222 0.4453416
v 0.9885359 0.8131804 0.546026
v 0.8906696 1.102365 -0.1979715
v 0.6728925 0.9893467 -0.1567061
v 0.9549356 0.8006436 -0.5019945
v 0.6893976 0.7398913 -0.4045749
v 0.9279234 0.3567035 -0.5034413
v 0.8648146 0.3814259 -0.4219003
v 0.9885359 0.8131804 0.546026
v 0.6891571 0.7435222 0.4453416
v 0.7124009 0.3922431 0.4468478
v 0.9198832 0.369152 0.5358638
v 0.9001995 0.128169 0.2020903
v 1.047499 0.07121472 0.2414761
v 0.8941619 0.1274851 -0.1631659
v 1.168784 0.08903125 -0.1868823
v 0.8648146 0.3814259 -0.4219003
v 0.9279234 0.3567035 -0.5034413
v 0.8648146 0.3814259 -0.4219003
v 0.6727931 0.9908481 0.1953409
v 0.6728925 0.9893467 -0.1567061
v 0.6893976 0.7398913 -0.4045749
v 0.8941619 0.1274851 -0.1631659
v 0.6891571 0.7435222 0.4453416
v 0.6727931 0.9908481 0.1953409
v 0.8648146 0.3814259 -0.4219003
v 0.9001995 0.128169 0.2020903
v 0.7124009 0.3922431 0.4468478
v 0.6891571 0.7435222 0.4453416
v 0.8941619 0.1274851 -0.1631659
v 0.853296 1.203469 0.2766831
v 0.2640768 1.092484 0.1515938
v 0.2642107 1.090455 -0.3218845
v 0.875231 1.203829 -0.2412092
v 0.875231 1.203829 -0.2412092
v 0.2642107 1.090455 -0.3218845
v 0.2864092 0.7549635 -0.6552436
v 0.9521523 0.8427292 -0.605064
v 0.317668 0.2825277 -0.653218
v 0.939409 0.3147555 -0.6059669
v 0.3396792 -0.05011252 -0.316987
v 1.187821 -0.01236871 -0.2288003
v 0.339544 -0.04808733 0.1564873
v 1.062935 -0.03025097 0.2847165
v 0.3173468 0.2874046 0.4898504
v 0.9271413 0.3138283 0.6530208
v 0.2860867 0.7598404 0.4878208
v 0.9770449 0.8551276 0.6485516
v 0.2640768 1.092484 0.1515938
v 0.853296 1.203469 0.2766831
v -0.3104338 0.6982086 -0.5620726
v -0.3294654 0.9858193 -0.2762881
v -0.2836364 0.2931826 -0.5603414
v -0.2647671 0.008025251 -0.2720912
v -0.2648831 0.009750862 0.1338079
v -0.283912 0.2973766 0.4196005
v -0.3107121 0.7023874 0.4178612
v -0.32958 0.9875563 0.1296151
v -0.3294654 0.9858193 -0.2762881
v 0.2642107 1.090455 -0.3218845
v -1.058621 1.139538 -0.4596318
v -1.036829 1.141805 0.01785514
v -1.110233 -0.01325256 -0.4517907
v -1.110528 0.3227789 -0.7917238
v -1.088445 -0.01098552 0.02569486
v -1.057915 0.3282693 0.3610362
v -1.036538 0.805774 0.357787
v -0.8200124 0.7881526 -0.8071969
v -1.058621 1.139538 -0.4596318
v -1.036829 1.141805 0.01785514
v -1.042872 1.046839 -0.02075957
v -1.061073 1.044943 -0.4197308
v -1.058621 1.139538 -0.4596318
v -1.036538 0.805774 0.357787
v -1.042618 0.7660607 0.2632767
v -1.057915 0.3282693 0.3610362
v -1.060481 0.367077 0.2659929
v -1.088445 -0.01098552 0.02569486
v -1.085986 0.08361021 -0.01420742
v -1.058621 1.139538 -0.4596318
v -1.061073 1.044943 -0.4197308
v -0.8787451 0.7521069 -0.7093673
v -0.8200124 0.7881526 -0.8071969
v -1.104437 0.3624925 -0.6972136
v -1.110528 0.3227789 -0.7917238
v -1.104197 0.08170934 -0.41318
v -1.110233 -0.01325256 -0.4517907
v -1.085986 0.08361021 -0.01420742
v -1.088445 -0.01098552 0.02569486
v -1.042872 1.046839 -0.02075957
v -0.7697922 0.9771649 -0.05658561
v -0.7858357 0.9754945 -0.4082646
v -1.061073 1.044943 -0.4197308
v -1.042618 0.7660607 0.2632767
v -0.7695698 0.7296698 0.1937817
v -1.060481 0.367077 0.2659929
v -0.7853393 0.3933688 0.2024565
v -1.085986 0.08361021 -0.01420742
v -0.9213814 0.1190063 -0.03967419
v -1.061073 1.044943 -0.4197308
v -0.7858357 0.9754945 -0.4082646
v -0.808314 0.7256271 -0.6552484
v -0.8787451 0.7521069 -0.7093673
v -0.956807 0.3729374 -0.6633869
v -1.104437 0.3624925 -0.6972136
v -0.9351119 0.1175091 -0.4031298
v -1.104197 0.08170934 -0.41318
v -0.9213814 0.1190063 -0.03967419
v -1.085986 0.08361021 -0.01420742
v -0.9213814 0.1190063 -0.03967419
v -0.7697922 0.9771649 -0.05658561
v -0.7695698 0.7296698 0.1937817
v -0.7853393 0.3933688 0.2024565
v -0.9351119 0.1175091 -0.4031298
v -0.7858357 0.9754945 -0.4082646
v -0.7697922 0.9771649 -0.05658561
v -0.9213814 0.1190063 -0.03967419
v -0.956807 0.3729374 -0.6633869
v -0.808314 0.7256271 -0.6552484
v -0.7858357 0.9754945 -0.4082646
v -0.9351119 0.1175091 -0.4031298
v -0.2382086 0.8654817 0.1614907
v -0.2345056 0.9973785 0.8203222
v -0.519995 0.9199941 0.8451761
v -0.4640621 0.7161254 0.1816502
v -0.4223008 0.4932261 0.8827544
v -0.3905411 0.4565284 0.2121326
v -0.08785724 0.479564 0.8811248
v -0.1192466 0.4454458 0.2108132
v 0.02820992 0.7911469 0.8425411
v -0.02510349 0.6981928 0.1795136
v -0.02510349 0.6981928 0.1795136
v 0.02820992 0.7911469 0.8425411
v -0.2288833 0.8929187 0.8328217
v -0.06589837 0.7649722 0.8466077
v -0.1379056 0.5716661 0.8705464
v -0.3453916 0.580142 0.8715549
v -0.4016218 0.7786874 0.8482432
v 0.02820992 0.7911469 0.8425411
v -0.06589837 0.7649722 0.8466077
v -0.2288833 0.8929187 0.8328217
v -0.2345056 0.9973785 0.8203222
v -0.4016218 0.7786874 0.8482432
v -0.4016218 0.7786874 0.8482432
v -0.519995 0.9199941 0.8451761
v -0.519995 0.9199941 0.8451761
v -0.4016218 0.7786874 0.8482432
v -0.3453916 0.580142 0.8715549
v -0.519995 0.9199941 0.8451761
v -0.3453916 0.580142 0.8715549
v -0.4223008 0.4932261 0.8827544
v -0.1379056 0.5716661 0.8705464
v -0.08785724 0.479564 0.8811248
v -0.06589837 0.7649722 0.8466077
v 0.02820992 0.7911469 0.8425411

vn 0.7060468 0.06602158 0.7050809
vn 0.7060468 0.06602158 0.7050809
vn 0.7060468 0.06602158 0.7050809
vn 0.7060468 0.06602158 0.7050809
vn 0.7060468 0.06602158 0.7050809
vn 0.7060468 0.06602158 0.7050809
vn 0.7060468 0.06602158 0.7050809
vn 0.7060468 0.06602158 0.7050809
vn 0.7060468 0.06602158 0.7050809
vn 0.7060468 0.06602158 0.7050809
vn 0.7060468 0.06602158 0.7050809
vn 0.7060468 0.06602158 0.7050809
vn 0.423234 -0.4021987 0.8118554
vn 0.423234 -0.4021987 0.8118554
vn 0.2239901 0.1897213 0.9559468
vn 0.2239901 0.1897213 0.9559468
vn 0.7060468 0.06602158 0.7050809
vn 0.7060468 0.06602158 0.7050809
vn 0.7060468 0.06602158 0.7050809
vn 0.7060468 0.06602158 0.7050809
vn 0.6145577 -0.6948216 -0.3735531
vn 0.6145577 -0.6948216 -0.3735531
vn 0.6145577 -0.6948216 -0.3735531
vn 0.6145577 -0.6948216 -0.3735531
vn -0.3772355 -0.6888294 0.6190375
vn -0.3772355 -0.6888294 0.6190375
vn -0.6132963 0.01246697 0.7897545
vn -0.6132963 0.01246697 0.7897545
vn -0.4385429 0.7112805 0.549327
vn -0.4385429 0.7112805 0.549327
vn 0.6145577 -0.6948216 -0.3735531
vn 0.6145577 -0.6948216 -0.3735531
vn 0.8317309 -0.04381233 -0.5534476
vn 0.8317309 -0.04381233 -0.5534476
vn 0.5752243 0.7545325 -0.3159078
vn 0.5752245 0.7545322 -0.3159082
vn 0.04465675 0.9982566 0.03859386
vn 0.04465675 0.9982566 0.03859386
vn -0.4385429 0.7112805 0.549327
vn -0.4385429 0.7112805 0.549327
vn 0.7406105 0.2844648 0.6087494
vn 0.7406105 0.2844648 0.6087494
vn 0.7406105 0.2844648 0.6087494
vn 0.7406105 0.2844648 0.6087494
vn 0.6301229 0.1538597 0.7610993
vn 0.6301229 0.1538597 0.7610993
vn 0.6301229 0.1538597 0.7610993
vn 0.6301229 0.1538597 0.7610993
vn 0.6097821 0.2326856 0.7576432
vn 0.6097821 0.2326856 0.7576432
vn 0.6097821 0.2326856 0.7576432
vn 0.6097821 0.2326856 0.7576432
vn -0.1253009 0.9831344 -0.1332156
vn -0.1253009 0.9831344 -0.1332156
vn -0.1253009 0.9831344 -0.1332156
vn -0.1253009 0.9831344 -0.1332156
vn 0.3881942 0.9123498 -0.1300887
vn 0.1805665 0.9193978 -0.349433
vn 0.5353351 0.3997422 -0.7440582
vn 0.7195901 0.3328695 -0.6094162
vn 0.5713416 -0.3575931 -0.7387124
vn 0.6141552 -0.4586009 -0.6422606
vn 0.2580024 -0.9034697 -0.3423116
vn 0.1420296 -0.9346901 -0.325856
vn -0.2858698 -0.9361448 0.2047229
vn -0.4394538 -0.8955817 0.06938277
vn -0.7184619 -0.3451283 0.6039031
vn -0.8089941 -0.4183804 0.4128999
vn -0.6681425 0.4620385 0.583186
vn -0.7348077 0.3256144 0.5950068
vn -0.2892247 0.9395294 0.1833945
vn -0.1909541 0.8977082 0.39706
vn 0.6098449 0.3745158 -0.6984463
vn 0.1136909 0.9261321 -0.3596578
vn 0.6740047 -0.442436 -0.591581
vn 0.320513 -0.936078 -0.1450156
vn -0.2171652 -0.9018555 0.3734915
vn -0.6356405 -0.3798628 0.6720605
vn -0.7230636 0.3453589 0.5982527
vn -0.4256732 0.8879298 0.1743072
vn 0.1136909 0.9261321 -0.3596578
vn 0.1805665 0.9193978 -0.349433
vn 0.2957724 0.9420671 -0.158203
vn -0.2750771 0.9397668 0.2029064
vn 0.4515041 -0.8829389 -0.1286972
vn 0.8095086 -0.4460708 -0.3817285
vn -0.1852075 -0.9348588 0.3028815
vn -0.6944239 -0.401059 0.5974339
vn -0.7327445 0.393549 0.5551619
vn 0.833243 0.3504549 -0.4276534
vn 0.2957724 0.9420671 -0.158203
vn -0.7060468 -0.06602158 -0.7050809
vn -0.7060468 -0.06602158 -0.7050809
vn -0.7060468 -0.06602158 -0.7050809
vn -0.7060468 -0.06602158 -0.7050809
vn -0.7060468 -0.06602158 -0.7050809
vn -0.7060468 -0.06602158 -0.7050809
vn -0.7060468 -0.06602158 -0.7050809
vn -0.7060468 -0.06602158 -0.7050809
vn -0.7060468 -0.06602158 -0.7050809
vn -0.7060468 -0.06602158 -0.7050809
vn -0.7060468 -0.06602158 -0.7050809
vn -0.7060468 -0.06602158 -0.7050809
vn -0.2239901 -0.1897213 -0.9559468
vn -0.2239901 -0.1897213 -0.9559468
vn -0.423234 0.4021987 -0.8118554
vn -0.423234 0.4021987 -0.8118554
vn -0.7060468 -0.06602158 -0.7050809
vn -0.7060468 -0.06602158 -0.7050809
vn -0.7060468 -0.06602158 -0.7050809
vn -0.7060468 -0.06602158 -0.7050809
vn -0.04465675 -0.9982566 -0.03859386
vn -0.04465675 -0.9982566 -0.03859386
vn -0.04465675 -0.9982566 -0.03859386
vn -0.04465675 -0.9982566 -0.03859386
vn 0.6132963 -0.01246697 -0.7897545
vn 0.6132963 -0.01246697 -0.7897545
vn 0.3772355 0.6888294 -0.6190375
vn 0.3772355 0.6888294 -0.6190375
vn -0.1313579 0.9817977 -0.13718
vn -0.1313579 0.9817977 -0.13718
vn -0.04465675 -0.9982566 -0.03859386
vn -0.04465675 -0.9982566 -0.03859386
vn -0.5684862 -0.738243 0.3630714
vn -0.5684862 -0.738243 0.3630714
vn -0.853111 0.07102147 0.5168729
vn -0.8531109 0.07102104 0.5168731
vn -0.6145577 0.6948216 0.3735531
vn -0.6145577 0.6948216 0.3735531
vn -0.1313579 0.9817977 -0.13718
vn -0.1313579 0.9817977 -0.13718
vn -0.8458838 0.02828417 -0.5326168
vn -0.8458838 0.02828417 -0.5326168
vn -0.8458838 0.02828417 -0.5326168
vn -0.8458838 0.02828417 -0.5326168
vn -0.7030564 0.06281309 -0.7083546
vn -0.7030564 0.06281309 -0.7083546
vn -0.7030564 0.06281309 -0.7083546
vn -0.7030564 0.06281309 -0.7083546
vn -0.7314205 0.1286813 -0.6696754
vn -0.7314205 0.1286813 -0.6696754
vn -0.7314205 0.1286813 -0.6696754
vn -0.7314205 0.1286813 -0.6696754
vn -0.2789457 0.8166738 -0.5052061
vn -0.2789457 0.8166738 -0.5052061
vn -0.2789457 0.8166738 -0.5052061
vn -0.2789457 0.8166738 -0.5052061
vn -0.6583469 -0.275667 -0.7004193
vn -0.6583469 -0.275667 -0.7004193
vn -0.06588776 -0.9977894 0.008656437
vn -0.06588776 -0.9977894 0.008656437
vn 0.6804325 -0.3517752 0.6428575
vn 0.6804325 -0.3517752 0.6428575
vn 0.6804325 -0.3517752 0.6428575
vn 0.6804325 -0.3517752 0.6428575
vn -0.6946716 0.1193303 0.7093601
vn -0.6946716 0.1193303 0.7093601
vn -0.6946716 0.1193303 0.7093601
vn -0.6946716 0.1193303 0.7093601
vn -0.6946716 0.1193303 0.7093601
vn -0.6946721 0.1193352 0.7093587
vn -0.6946721 0.1193352 0.7093587
vn -0.6946721 0.1193352 0.7093587
vn -0.6946721 0.1193352 0.7093587
vn -0.6946711 0.1193251 0.7093614
vn -0.6946711 0.1193251 0.7093614
vn -0.6946711 0.1193251 0.7093614
vn -0.694672 0.119299 0.7093648
vn -0.694672 0.119299 0.7093648
vn -0.694672 0.119299 0.7093648
vn -0.694672 0.119299 0.7093648
vn -0.694672 0.119299 0.7093648
vn -0.694672 0.119299 0.7093648
vn -0.694671 0.1193269 0.7093611
vn -0.694671 0.1193269 0.7093611
vn -0.6946717 0.1193272 0.7093604
vn -0.6946717 0.1193272 0.7093604

vt 0.2044678 0.4519043
vt 0.2053223 0.4399414
vt 0.189209 0.4399414
vt 0.189209 0.4519043
vt 0.2193604 0.4519043
vt 0.2198486 0.4399414
vt 0.2344971 0.4519043
vt 0.2344971 0.4399414
vt 0.2495117 0.4519043
vt 0.2492676 0.4399414
vt 0.2497559 0.4519043
vt 0.2497559 0.4399414
vt 0.2322998 0.4399414
vt 0.2325439 0.4519043
vt 0.2175293 0.4399414
vt 0.2177734 0.4519043
vt 0.2032471 0.4399414
vt 0.2034912 0.4519043
vt 0.1885986 0.4399414
vt 0.1888428 0.4519043
vt 0.2053223 0.4399414
vt 0.2064209 0.4240723
vt 0.189209 0.4240723
vt 0.189209 0.4399414
vt 0.2198486 0.4399414
vt 0.2198486 0.4240723
vt 0.2344971 0.4399414
vt 0.2338867 0.4240723
vt 0.2492676 0.4399414
vt 0.2490234 0.4240723
vt 0.2497559 0.4399414
vt 0.2497559 0.4240723
vt 0.2321777 0.4240723
vt 0.2322998 0.4399414
vt 0.2189941 0.4240723
vt 0.2175293 0.4399414
vt 0.2036133 0.4240723
vt 0.2032471 0.4399414
vt 0.1883545 0.4240723
vt 0.1885986 0.4399414
vt 0.1955566 0.4733887
vt 0.2316895 0.4606934
vt 0.2194824 0.4558105
vt 0.2020264 0.458252
vt 0.201416 0.4907227
vt 0.2376709 0.4768066
vt 0.2316895 0.4606934
vt 0.1955566 0.4733887
vt 0.2165527 0.4973145
vt 0.2324219 0.4919434
vt 0.2376709 0.4768066
vt 0.201416 0.4907227
vt 0.1508789 0.3220215
vt 0.1538086 0.3530273
vt 0.1724854 0.3537598
vt 0.1729736 0.3208008
vt 0.02183533 0.3210449
vt 0.02078247 0.3537598
vt 0.03924561 0.3518066
vt 0.04174805 0.3215332
vt 0.05758667 0.3525391
vt 0.06027222 0.3217773
vt 0.07611084 0.3530273
vt 0.07891846 0.3212891
vt 0.09552002 0.3520508
vt 0.09661865 0.3181152
vt 0.1152344 0.3510742
vt 0.1134644 0.3178711
vt 0.1348877 0.3520508
vt 0.130249 0.3205566
vt 0.1538086 0.3530273
vt 0.1508789 0.3220215
vt 0.03744507 0.3847656
vt 0.01751709 0.3847656
vt 0.05786133 0.3845215
vt 0.07769775 0.3842773
vt 0.09698486 0.3833008
vt 0.1156006 0.3820801
vt 0.1339111 0.3820801
vt 0.152832 0.3833008
vt 0.1719971 0.3859863
vt 0.1724854 0.3537598
vt 0.175415 0.4265137
vt 0.1544189 0.4238281
vt 0.07568359 0.4257813
vt 0.05670166 0.4279785
vt 0.09460449 0.4230957
vt 0.1140137 0.4213867
vt 0.1341553 0.4213867
vt 0.03955078 0.4128418
vt 0.01812744 0.4240723
vt 0.2044678 0.4519043
vt 0.2053223 0.4399414
vt 0.189209 0.4399414
vt 0.189209 0.4519043
vt 0.2193604 0.4519043
vt 0.2198486 0.4399414
vt 0.2344971 0.4519043
vt 0.2344971 0.4399414
vt 0.2495117 0.4519043
vt 0.2492676 0.4399414
vt 0.2497559 0.4519043
vt 0.2497559 0.4399414
vt 0.2322998 0.4399414
vt 0.2325439 0.4519043
vt 0.2175293 0.4399414
vt 0.2177734 0.4519043
vt 0.2032471 0.4399414
vt 0.2034912 0.4519043
vt 0.1885986 0.4399414
vt 0.1888428 0.4519043
vt 0.2053223 0.4399414
vt 0.2064209 0.4240723
vt 0.189209 0.4240723
vt 0.189209 0.4399414
vt 0.2198486 0.4399414
vt 0.2198486 0.4240723
vt 0.2344971 0.4399414
vt 0.2338867 0.4240723
vt 0.2492676 0.4399414
vt 0.2490234 0.4240723
vt 0.2497559 0.4399414
vt 0.2497559 0.4240723
vt 0.2321777 0.4240723
vt 0.2322998 0.4399414
vt 0.2189941 0.4240723
vt 0.2175293 0.4399414
vt 0.2036133 0.4240723
vt 0.2032471 0.4399414
vt 0.1883545 0.4240723
vt 0.1885986 0.4399414
vt 0.1955566 0.4733887
vt 0.2316895 0.4606934
vt 0.2194824 0.4558105
vt 0.2020264 0.458252
vt 0.201416 0.4907227
vt 0.2376709 0.4768066
vt 0.2316895 0.4606934
vt 0.1955566 0.4733887
vt 0.2165527 0.4973145
vt 0.2324219 0.4919434
vt 0.2376709 0.4768066
vt 0.201416 0.4907227
vt 0.09277344 0.3457031
vt 0.09417725 0.3779297
vt 0.1102295 0.3779297
vt 0.109314 0.3457031
vt 0.1262207 0.3779297
vt 0.1257324 0.345459
vt 0.1422119 0.3779297
vt 0.142334 0.3447266
vt 0.1584473 0.3779297
vt 0.1588135 0.3439941
vt 0.07623291 0.345459
vt 0.07794189 0.3779297
vt 0.2211914 0.4897461
vt 0.2310791 0.4763184
vt 0.2211914 0.4626465
vt 0.2053223 0.4677734
vt 0.2053223 0.4846191
vt 0.2490234 0.4453125
vt 0.2470703 0.4360352
vt 0.2370605 0.4360352
vt 0.2368164 0.4453125
vt 0.2248535 0.4360352
vt 0.2248535 0.4360352
vt 0.2247314 0.4453125
vt 0.2247314 0.4453125
vt 0.2248535 0.4360352
vt 0.2124023 0.4360352
vt 0.2247314 0.4453125
vt 0.2124023 0.4360352
vt 0.2126465 0.4453125
vt 0.2000732 0.4360352
vt 0.2005615 0.4453125
vt 0.1901855 0.4360352
vt 0.1883545 0.4453125

g Tree6_1117_89
usemtl Tree6_1117_89
usemap Tree6_1117_89
f 1/1/1 3/3/3 2/2/2
f 1/1/1 4/4/4 3/3/3
f 5/5/5 1/1/1 2/2/2
f 5/5/5 2/2/2 6/6/6
f 7/7/7 5/5/5 6/6/6
f 7/7/7 6/6/6 8/8/8
f 9/9/9 7/7/7 8/8/8
f 9/9/9 8/8/8 10/10/10
f 11/11/11 13/13/13 12/12/12
f 11/11/11 14/14/14 13/13/13
f 14/14/14 15/15/15 13/13/13
f 14/14/14 16/16/16 15/15/15
f 16/16/16 17/17/17 15/15/15
f 16/16/16 18/18/18 17/17/17
f 18/18/18 19/19/19 17/17/17
f 18/18/18 20/20/20 19/19/19
f 21/21/21 23/23/23 22/22/22
f 21/21/21 24/24/24 23/23/23
f 25/25/25 21/21/21 22/22/22
f 25/25/25 22/22/22 26/26/26
f 27/27/27 25/25/25 26/26/26
f 27/27/27 26/26/26 28/28/28
f 29/29/29 27/27/27 28/28/28
f 29/29/29 28/28/28 30/30/30
f 31/31/31 33/33/33 32/32/32
f 31/31/31 34/34/34 33/33/33
f 34/34/34 35/35/35 33/33/33
f 34/34/34 36/36/36 35/35/35
f 36/36/36 37/37/37 35/35/35
f 36/36/36 38/38/38 37/37/37
f 38/38/38 39/39/39 37/37/37
f 38/38/38 40/40/40 39/39/39
f 41/41/41 43/43/43 42/42/42
f 41/41/41 44/44/44 43/43/43
f 45/45/45 47/47/47 46/46/46
f 45/45/45 48/48/48 47/47/47
f 49/49/49 51/51/51 50/50/50
f 49/49/49 52/52/52 51/51/51
f 53/53/53 55/55/55 54/54/54
f 53/53/53 56/56/56 55/55/55
f 57/57/57 59/59/59 58/58/58
f 57/57/57 60/60/60 59/59/59
f 60/60/60 61/61/61 59/59/59
f 60/60/60 62/62/62 61/61/61
f 62/62/62 63/63/63 61/61/61
f 62/62/62 64/64/64 63/63/63
f 64/64/64 65/65/65 63/63/63
f 64/64/64 66/66/66 65/65/65
f 66/66/66 67/67/67 65/65/65
f 66/66/66 68/68/68 67/67/67
f 68/68/68 69/69/69 67/67/67
f 68/68/68 70/70/70 69/69/69
f 70/70/70 71/71/71 69/69/69
f 70/70/70 72/72/72 71/71/71
f 58/58/58 59/59/59 73/73/73
f 58/58/58 73/73/73 74/74/74
f 59/59/59 75/75/75 73/73/73
f 59/59/59 61/61/61 75/75/75
f 61/61/61 76/76/76 75/75/75
f 61/61/61 63/63/63 76/76/76
f 63/63/63 77/77/77 76/76/76
f 63/63/63 65/65/65 77/77/77
f 65/65/65 78/78/78 77/77/77
f 65/65/65 67/67/67 78/78/78
f 67/67/67 79/79/79 78/78/78
f 67/67/67 69/69/69 79/79/79
f 69/69/69 80/80/80 79/79/79
f 71/71/71 81/81/81 80/80/80
f 71/71/71 82/82/82 81/81/81
f 80/80/80 81/81/81 83/83/83
f 80/80/80 83/83/83 84/84/84
f 79/79/79 80/80/80 84/84/84
f 75/75/75 76/76/76 85/85/85
f 75/75/75 85/85/85 86/86/86
f 76/76/76 87/87/87 85/85/85
f 76/76/76 77/77/77 87/87/87
f 77/77/77 88/88/88 87/87/87
f 77/77/77 78/78/78 88/88/88
f 78/78/78 89/89/89 88/88/88
f 78/78/78 79/79/79 89/89/89
f 79/79/79 84/84/84 89/89/89
f 69/69/69 71/71/71 80/80/80
f 73/73/73 86/86/86 90/90/90
f 74/74/74 73/73/73 90/90/90
f 74/74/74 90/90/90 91/91/91
f 73/73/73 75/75/75 86/86/86
f 92/92/92 94/94/94 93/93/93
f 92/92/92 95/95/95 94/94/94
f 96/96/96 92/92/92 93/93/93
f 96/96/96 93/93/93 97/97/97
f 98/98/98 96/96/96 97/97/97
f 98/98/98 97/97/97 99/99/99
f 100/100/100 98/98/98 99/99/99
f 100/100/100 99/99/99 101/101/101
f 102/102/102 104/104/104 103/103/103
f 102/102/102 105/105/105 104/104/104
f 105/105/105 106/106/106 104/104/104
f 105/105/105 107/107/107 106/106/106
f 107/107/107 108/108/108 106/106/106
f 107/107/107 109/109/109 108/108/108
f 109/109/109 110/110/110 108/108/108
f 109/109/109 111/111/111 110/110/110
f 112/112/112 114/114/114 113/113/113
f 112/112/112 115/115/115 114/114/114
f 116/116/116 112/112/112 113/113/113
f 116/116/116 113/113/113 117/117/117
f 118/118/118 116/116/116 117/117/117
f 118/118/118 117/117/117 119/119/119
f 120/120/120 118/118/118 119/119/119
f 120/120/120 119/119/119 121/121/121
f 122/122/122 124/124/124 123/123/123
f 122/122/122 125/125/125 124/124/124
f 125/125/125 126/126/126 124/124/124
f 125/125/125 127/127/127 126/126/126
f 127/127/127 128/128/128 126/126/126
f 127/127/127 129/129/129 128/128/128
f 129/129/129 130/130/130 128/128/128
f 129/129/129 131/131/131 130/130/130
f 132/132/132 134/134/134 133/133/133
f 132/132/132 135/135/135 134/134/134
f 136/136/136 138/138/138 137/137/137
f 136/136/136 139/139/139 138/138/138
f 140/140/140 142/142/142 141/141/141
f 140/140/140 143/143/143 142/142/142
f 144/144/144 146/146/146 145/145/145
f 144/144/144 147/147/147 146/146/146
f 147/147/147 148/148/148 146/146/146
f 147/147/147 149/149/149 148/148/148
f 149/149/149 150/150/150 148/148/148
f 149/149/149 151/151/151 150/150/150
f 151/151/151 152/152/152 150/150/150
f 151/151/151 153/153/153 152/152/152
f 154/154/154 144/144/144 145/145/145
f 154/154/154 145/145/145 155/155/155
f 156/156/156 158/158/158 157/157/157
f 158/158/158 156/156/156 159/159/159
f 159/159/159 156/156/156 160/160/160
f 161/161/161 163/163/163 162/162/162
f 161/161/161 164/164/164 163/163/163
f 164/164/164 165/165/165 163/163/163
f 164/164/164 167/167/167 166/166/166
f 168/168/168 170/170/170 169/169/169
f 171/171/171 173/173/173 172/172/172
f 173/173/173 174/174/174 172/172/172
f 173/173/173 175/175/175 174/174/174
f 175/175/175 176/176/176 174/174/174
f 175/175/175 177/177/177 176/176/176
