#Tree1_big_(5)_1137_255.obj

v -0.6182507 9.078475 -2.208994
v -1.956622 9.078475 -1.654623
v -0.6182501 7.871802 -2.873621
v -2.426589 7.871802 -2.124584
v -2.510994 9.078475 -0.3162476
v -3.175622 7.871802 -0.3162476
v -1.956623 9.078475 1.022125
v -2.426589 7.871802 1.492089
v -0.6182507 9.078475 1.576497
v -0.6182513 7.871802 2.241131
v 0.7201259 9.078475 1.022126
v 1.190089 7.871802 1.492089
v 1.274499 9.078475 -0.3162474
v 1.939127 7.871802 -0.3162501
v 0.7201262 9.078475 -1.654623
v 1.190089 7.871802 -2.124587
v -0.6182512 6.453654 -3.01416
v -2.525964 6.453654 -2.223963
v -3.316158 6.453654 -0.3162477
v -2.525964 6.453654 1.591463
v -0.618251 6.453654 2.381664
v 1.289466 6.453654 1.591462
v 2.079668 6.453654 -0.316251
v 1.28946 6.453654 -2.223962
v 0.1895346 9.631275 0.01834386
v -0.9528447 9.631275 0.4915324
v -0.6182511 9.738364 -0.3162476
v -1.42603 9.631275 -0.6508424
v -0.2836576 9.631275 -1.124028
v -0.6948283 7.599214 2.493762
v -1.767247 7.397913 2.84551
v -0.6220949 7.128533 1.599835
v -2.180309 6.836048 2.110917
v -2.243672 7.011633 3.814095
v -2.872545 6.274788 3.518247
v -1.84501 6.666648 4.832127
v -2.293295 5.77353 4.99743
v -0.8047971 6.565046 5.303267
v -0.7818819 5.625905 5.681987
v 0.2676262 6.766343 4.951516
v 0.7763305 5.918388 5.170908
v 0.7440514 7.152624 3.982938
v 1.468566 6.47965 3.763572
v 0.3453873 7.49761 2.964901
v 0.8893186 6.980906 2.284388
v -0.5593096 6.361987 1.128918
v -2.24591 6.045405 1.682103
v -2.995174 5.4379 3.205389
v -2.368204 4.895342 4.806451
v -0.7322599 4.735554 5.547408
v 0.9543408 5.052135 4.994218
v 1.703608 5.659639 3.470932
v 1.076634 6.202197 1.869875
v -0.1455864 7.368665 4.309997
v -1.06096 7.196846 4.610226
v -0.7827331 7.567375 4.075845
v -1.401235 7.491312 3.74128
v -0.4858714 7.663128 3.441048
v 4.854212 6.005301 -0.09644699
v 3.76889 6.251245 -1.023891
v 5.12635 4.682513 -0.3684123
v 3.659914 5.014816 -1.621521
v 2.371278 6.609352 -0.8934052
v 1.771544 5.498672 -1.445214
v 1.480096 6.869849 0.2185754
v 0.5674195 5.850641 0.05723151
v 1.61737 6.880144 1.660662
v 0.7528962 5.864551 2.005701
v 2.702698 6.634201 2.588108
v 2.219333 5.532247 3.258817
v 4.100304 6.276092 2.457623
v 4.107704 5.048391 3.082509
v 4.991495 6.015593 1.345642
v 5.31183 4.69642 1.580065
v 4.898443 3.275937 -0.3907032
v 3.351422 3.626502 -1.712677
v 1.35928 4.136947 -1.526679
v 0.08898193 4.508259 0.05832757
v 0.2846546 4.522932 2.113881
v 1.83168 4.172366 3.435858
v 3.823823 3.661921 3.24986
v 5.094116 3.290609 1.664845
v 3.454329 6.984561 1.635751
v 2.527941 7.194488 0.8441257
v 3.397757 7.082113 0.762124
v 3.288619 6.972137 -0.105009
v 4.214999 6.762213 0.6866111

vn -0.657602 0.5420592 -0.5231935
vn -0.8349488 0.5420586 0.09504116
vn -0.7429636 0.3140009 -0.5911079
vn -0.9433309 0.3140011 0.1073781
vn -0.5231935 0.5420592 0.657602
vn -0.5911079 0.3140009 0.7429636
vn 0.09504047 0.542059 0.8349488
vn 0.1073781 0.3140011 0.9433309
vn 0.657602 0.5420592 0.5231935
vn 0.7429636 0.3140009 0.5911079
vn 0.8349487 0.542059 -0.09504181
vn 0.9433309 0.3140011 -0.1073781
vn 0.5231935 0.5420592 -0.657602
vn 0.5911079 0.3140009 -0.7429636
vn -0.09504181 0.542059 -0.8349487
vn -0.1073789 0.3140009 -0.943331
vn -0.7722884 0.1613551 -0.614439
vn -0.9805642 0.161355 0.1116164
vn -0.614439 0.1613551 0.7722884
vn 0.1116164 0.161355 0.9805642
vn 0.7722884 0.1613551 0.614439
vn 0.9805642 0.161355 -0.1116164
vn 0.614439 0.1613551 -0.7722884
vn -0.1116171 0.1613549 -0.9805642
vn 0.2324568 0.9538103 -0.1902888
vn 0.1902882 0.9538102 0.2324576
vn 0 1 0
vn -0.2324574 0.95381 0.1902896
vn -0.1902888 0.9538103 -0.2324568
vn -0.4736585 0.7981869 -0.3722168
vn -0.6938182 0.6852556 0.221452
vn -0.6033215 0.6220729 -0.4990276
vn -0.8520589 0.4944831 0.1717038
vn -0.4350039 0.468548 0.7689177
vn -0.5596487 0.249645 0.7902346
vn 0.1511739 0.275008 0.9494825
vn 0.1026195 0.030982 0.9942381
vn 0.7213408 0.2180079 0.6573735
vn 0.7467973 -0.03341699 0.6642117
vn 0.9414995 0.330939 0.06370375
vn 0.9955345 0.09417299 -0.006519586
vn 0.6826843 0.547647 -0.4837613
vn 0.7031236 0.339011 -0.6250511
vn 0.09650654 0.7411867 -0.6643257
vn 0.0408549 0.557674 -0.8290539
vn -0.6648405 0.4919271 -0.5621342
vn -0.9233954 0.3593008 0.1350702
vn -0.6194435 0.1047991 0.7780148
vn 0.06896397 -0.122495 0.9900702
vn 0.7385682 -0.189435 0.6470173
vn 0.9971228 -0.056809 -0.05018792
vn 0.6931703 0.1976929 -0.6931323
vn 0.004762918 0.4249861 -0.9051874
vn 0.4570156 0.885857 0.07996321
vn 0.3764201 0.7939746 0.4774016
vn 0.2284624 0.9373471 0.2630312
vn -0.02028592 0.9059739 0.4228473
vn 0.06030949 0.9978563 0.02541014
vn 0.212115 0.331016 -0.9194757
vn -0.4101161 0.4402091 -0.798762
vn 0.2011179 0.08483202 -0.9758868
vn -0.5018831 0.2082001 -0.8395035
vn -0.7511078 0.5992017 -0.2771182
vn -0.8871382 0.3878301 -0.2501471
vn -0.6111131 0.714857 0.3398826
vn -0.7289705 0.5184991 0.446946
vn -0.07213733 0.719427 0.6908118
vn -0.1200327 0.523662 0.8434277
vn 0.5500944 0.610234 0.5700971
vn 0.5829682 0.4002951 0.7070445
vn 0.8910853 0.4512419 0.04845282
vn 0.9682238 0.2206639 0.1176865
vn 0.7510894 0.335586 -0.568548
vn 0.8100553 0.08999498 -0.5794061
vn 0.1877468 -0.07173201 -0.9795946
vn -0.5430018 0.05650397 -0.8378283
vn -0.9434628 0.243225 -0.22521
vn -0.779052 0.379052 0.4993971
vn -0.146079 0.384418 0.9115282
vn 0.584669 0.2561819 0.7697617
vn 0.9851303 0.06946103 0.1571418
vn 0.8207192 -0.06636602 -0.5674641
vn 0.3993358 0.9129925 -0.08352116
vn 0.01150806 0.9976278 0.06786963
vn 0.129116 0.9689379 -0.2109224
vn -0.1530309 0.9353735 -0.3188385
vn 0.2347967 0.850738 -0.4702291

vt 0.4470215 0.4243164
vt 0.4257813 0.4155273
vt 0.4472656 0.4458008
vt 0.4106445 0.4306641
vt 0.4169922 0.3942871
vt 0.3955078 0.3942871
vt 0.4257813 0.3728027
vt 0.4106445 0.3579102
vt 0.4470215 0.3642578
vt 0.4470215 0.3427734
vt 0.4685059 0.3730469
vt 0.4833984 0.357666
vt 0.4770508 0.3942871
vt 0.4985352 0.394043
vt 0.4682617 0.4155273
vt 0.4833984 0.4306641
vt 0.4470215 0.4689941
vt 0.394043 0.4470215
vt 0.3723145 0.394043
vt 0.394043 0.3413086
vt 0.4470215 0.3193359
vt 0.5 0.3413086
vt 0.5219727 0.3942871
vt 0.5 0.4472656
vt 0.4609375 0.3884277
vt 0.4411621 0.3803711
vt 0.4470215 0.3942871
vt 0.4331055 0.3999023
vt 0.4528809 0.407959
vt 0.3144531 0.4064941
vt 0.2939453 0.3986816
vt 0.3151855 0.4223633
vt 0.2832031 0.4101563
vt 0.2856445 0.3781738
vt 0.2697754 0.3789063
vt 0.293457 0.357666
vt 0.2817383 0.3469238
vt 0.3139648 0.3493652
vt 0.3132324 0.333252
vt 0.3344727 0.3571777
vt 0.3452148 0.345459
vt 0.3427734 0.3776855
vt 0.3586426 0.3769531
vt 0.3349609 0.3981934
vt 0.3464355 0.4089355
vt 0.3132324 0.4384766
vt 0.2705078 0.420166
vt 0.253418 0.3769531
vt 0.2717285 0.3342285
vt 0.3151855 0.3171387
vt 0.357666 0.3354492
vt 0.375 0.3786621
vt 0.3564453 0.4213867
vt 0.3261719 0.3720703
vt 0.3083496 0.3659668
vt 0.314209 0.3779297
vt 0.3022461 0.3837891
vt 0.3200684 0.3898926
vt 0.4470215 0.4243164
vt 0.4257813 0.4155273
vt 0.4472656 0.4458008
vt 0.4106445 0.4306641
vt 0.4169922 0.3942871
vt 0.3955078 0.3942871
vt 0.4257813 0.3728027
vt 0.4106445 0.3579102
vt 0.4470215 0.3642578
vt 0.4470215 0.3427734
vt 0.4685059 0.3730469
vt 0.4833984 0.357666
vt 0.4770508 0.3942871
vt 0.4985352 0.394043
vt 0.4682617 0.4155273
vt 0.4833984 0.4306641
vt 0.4470215 0.4689941
vt 0.394043 0.4470215
vt 0.3723145 0.394043
vt 0.394043 0.3413086
vt 0.4470215 0.3193359
vt 0.5 0.3413086
vt 0.5219727 0.3942871
vt 0.5 0.4472656
vt 0.4609375 0.3884277
vt 0.4411621 0.3803711
vt 0.4470215 0.3942871
vt 0.4331055 0.3999023
vt 0.4528809 0.407959

g Tree1_big_(5)_1137_255
usemtl Tree1_big_(5)_1137_255
usemap Tree1_big_(5)_1137_255
f 1/1/1 3/3/3 2/2/2
f 2/2/2 3/3/3 4/4/4
f 2/2/2 4/4/4 5/5/5
f 5/5/5 4/4/4 6/6/6
f 5/5/5 6/6/6 7/7/7
f 7/7/7 6/6/6 8/8/8
f 7/7/7 8/8/8 9/9/9
f 9/9/9 8/8/8 10/10/10
f 9/9/9 10/10/10 11/11/11
f 11/11/11 10/10/10 12/12/12
f 11/11/11 12/12/12 13/13/13
f 13/13/13 12/12/12 14/14/14
f 13/13/13 14/14/14 15/15/15
f 15/15/15 14/14/14 16/16/16
f 15/15/15 16/16/16 1/1/1
f 1/1/1 16/16/16 3/3/3
f 3/3/3 17/17/17 4/4/4
f 4/4/4 17/17/17 18/18/18
f 4/4/4 18/18/18 6/6/6
f 6/6/6 18/18/18 19/19/19
f 6/6/6 19/19/19 8/8/8
f 8/8/8 19/19/19 20/20/20
f 8/8/8 20/20/20 10/10/10
f 10/10/10 20/20/20 21/21/21
f 10/10/10 21/21/21 12/12/12
f 12/12/12 21/21/21 22/22/22
f 12/12/12 22/22/22 14/14/14
f 14/14/14 22/22/22 23/23/23
f 14/14/14 23/23/23 16/16/16
f 16/16/16 23/23/23 24/24/24
f 16/16/16 24/24/24 3/3/3
f 3/3/3 24/24/24 17/17/17
f 11/11/11 13/13/13 25/25/25
f 13/13/13 15/15/15 25/25/25
f 26/26/26 11/11/11 25/25/25
f 26/26/26 25/25/25 27/27/27
f 28/28/28 26/26/26 27/27/27
f 29/29/29 28/28/28 27/27/27
f 25/25/25 29/29/29 27/27/27
f 29/29/29 2/2/2 28/28/28
f 1/1/1 2/2/2 29/29/29
f 15/15/15 1/1/1 29/29/29
f 25/25/25 15/15/15 29/29/29
f 2/2/2 5/5/5 28/28/28
f 5/5/5 7/7/7 28/28/28
f 28/28/28 7/7/7 26/26/26
f 7/7/7 9/9/9 26/26/26
f 9/9/9 11/11/11 26/26/26
f 30/30/30 32/32/32 31/31/31
f 31/31/31 32/32/32 33/33/33
f 31/31/31 33/33/33 34/34/34
f 34/34/34 33/33/33 35/35/35
f 34/34/34 35/35/35 36/36/36
f 36/36/36 35/35/35 37/37/37
f 36/36/36 37/37/37 38/38/38
f 38/38/38 37/37/37 39/39/39
f 38/38/38 39/39/39 40/40/40
f 40/40/40 39/39/39 41/41/41
f 40/40/40 41/41/41 42/42/42
f 42/42/42 41/41/41 43/43/43
f 42/42/42 43/43/43 44/44/44
f 44/44/44 43/43/43 45/45/45
f 44/44/44 45/45/45 30/30/30
f 30/30/30 45/45/45 32/32/32
f 32/32/32 46/46/46 33/33/33
f 33/33/33 46/46/46 47/47/47
f 33/33/33 47/47/47 35/35/35
f 35/35/35 47/47/47 48/48/48
f 35/35/35 48/48/48 37/37/37
f 37/37/37 48/48/48 49/49/49
f 37/37/37 49/49/49 39/39/39
f 39/39/39 49/49/49 50/50/50
f 39/39/39 50/50/50 41/41/41
f 41/41/41 50/50/50 51/51/51
f 41/41/41 51/51/51 43/43/43
f 43/43/43 51/51/51 52/52/52
f 43/43/43 52/52/52 45/45/45
f 45/45/45 52/52/52 53/53/53
f 45/45/45 53/53/53 32/32/32
f 32/32/32 53/53/53 46/46/46
f 40/40/40 42/42/42 54/54/54
f 42/42/42 44/44/44 54/54/54
f 55/55/55 40/40/40 54/54/54
f 55/55/55 54/54/54 56/56/56
f 57/57/57 55/55/55 56/56/56
f 58/58/58 57/57/57 56/56/56
f 54/54/54 58/58/58 56/56/56
f 58/58/58 31/31/31 57/57/57
f 30/30/30 31/31/31 58/58/58
f 44/44/44 30/30/30 58/58/58
f 54/54/54 44/44/44 58/58/58
f 31/31/31 34/34/34 57/57/57
f 34/34/34 36/36/36 57/57/57
f 57/57/57 36/36/36 55/55/55
f 36/36/36 38/38/38 55/55/55
f 38/38/38 40/40/40 55/55/55
f 59/59/59 61/61/61 60/60/60
f 60/60/60 61/61/61 62/62/62
f 60/60/60 62/62/62 63/63/63
f 63/63/63 62/62/62 64/64/64
f 63/63/63 64/64/64 65/65/65
f 65/65/65 64/64/64 66/66/66
f 65/65/65 66/66/66 67/67/67
f 67/67/67 66/66/66 68/68/68
f 67/67/67 68/68/68 69/69/69
f 69/69/69 68/68/68 70/70/70
f 69/69/69 70/70/70 71/71/71
f 71/71/71 70/70/70 72/72/72
f 71/71/71 72/72/72 73/73/73
f 73/73/73 72/72/72 74/74/74
f 73/73/73 74/74/74 59/59/59
f 59/59/59 74/74/74 61/61/61
f 61/61/61 75/75/75 62/62/62
f 62/62/62 75/75/75 76/76/76
f 62/62/62 76/76/76 64/64/64
f 64/64/64 76/76/76 77/77/77
f 64/64/64 77/77/77 66/66/66
f 66/66/66 77/77/77 78/78/78
f 66/66/66 78/78/78 68/68/68
f 68/68/68 78/78/78 79/79/79
f 68/68/68 79/79/79 70/70/70
f 70/70/70 79/79/79 80/80/80
f 70/70/70 80/80/80 72/72/72
f 72/72/72 80/80/80 81/81/81
f 72/72/72 81/81/81 74/74/74
f 74/74/74 81/81/81 82/82/82
f 74/74/74 82/82/82 61/61/61
f 61/61/61 82/82/82 75/75/75
f 69/69/69 71/71/71 83/83/83
f 71/71/71 73/73/73 83/83/83
f 84/84/84 69/69/69 83/83/83
f 84/84/84 83/83/83 85/85/85
f 86/86/86 84/84/84 85/85/85
f 87/87/87 86/86/86 85/85/85
f 83/83/83 87/87/87 85/85/85
f 87/87/87 60/60/60 86/86/86
f 59/59/59 60/60/60 87/87/87
f 73/73/73 59/59/59 87/87/87
f 83/83/83 73/73/73 87/87/87
f 60/60/60 63/63/63 86/86/86
f 63/63/63 65/65/65 86/86/86
f 86/86/86 65/65/65 84/84/84
f 65/65/65 67/67/67 84/84/84
f 67/67/67 69/69/69 84/84/84
