#Tree3_(10)_2768_81.obj

v 0.8980955 -0.2467098 0.2916041
v 0.5627139 1.493185 0.4763384
v 0.3880863 1.493185 0.08865542
v 0.6446227 -0.2467098 -0.1738415
v 0.2988262 -0.2467098 -0.2453769
v -0.03350783 1.493185 -0.07192353
v -0.04980081 0.9535935 -0.1633217
v 0.4182144 1.112749 0.8406233
v 0.3880884 1.493185 0.8640119
v 0.2328228 -0.2360249 0.8227746
v -0.03350665 1.493185 1.024594
v -0.0860488 -0.2467098 0.9498281
v -0.3927063 3.338958 -0.07597892
v -0.2825074 3.369289 0.2992952
v -0.6720306 3.252133 -0.2578873
v -0.39271 3.338958 0.6745743
v -0.6720325 3.252133 0.8564773
v -0.4551064 1.493185 0.8640095
v -0.9610658 3.155363 0.6932883
v -0.6297349 1.493185 0.476336
v -1.080789 3.11528 0.4763349
v -0.4551045 1.493185 0.08865947
v -0.7989324 -0.2467098 -0.1738378
v -0.5550178 -0.2467098 -0.2188808
v -0.04980081 0.9535935 -0.1633217
v -0.03350783 1.493185 -0.07192353
v -0.9514651 -0.2467098 0.291604
v -0.9610677 3.155363 -0.09469008
v -0.6720306 3.252133 -0.2578873
v -0.9104431 6.154762 0.1526981
v -0.6790479 6.154762 0.114069
v -1.015423 6.154762 0.464173
v -0.9104424 6.154762 0.6148461
v -0.6790515 6.154762 0.734803
v -0.4742313 6.154762 0.6568308
v -0.3961834 6.154762 0.4611753
v -0.474233 6.154762 0.2476219
v -0.6790479 6.154762 0.114069
v -0.7402948 -0.2467098 0.5776011
v -0.5274116 0.9751863 0.8321676
v -0.794072 -0.4677124 1.269508
v -0.3652857 -0.2467098 0.8304143
v -0.794072 -0.4677124 1.269508
v -0.5274116 0.9751863 0.8321676
v -0.08604915 -0.2467098 -0.9542083
v -0.08604915 -0.2467098 -0.9542083
v 1.052338 -0.5420864 1.041769
v 1.052338 -0.5420864 1.041769
v 0.364986 0.9880412 0.2978573
v 0.8266032 1.692036 0.5149962
v 0.7412964 1.647383 0.3210519
v 0.2852588 1.035575 0.07437143
v 0.5962496 1.812386 0.2134466
v 0.09975444 1.159606 -0.0183554
v 0.3977781 1.887208 0.3212325
v -0.08286703 1.287479 0.07398926
v 0.4349605 1.966669 0.5139717
v -0.1556193 1.344287 0.2973135
v 0.3783858 1.883636 0.6549201
v -0.07589766 1.296754 0.5207938
v 0.5956079 1.668309 0.7647364
v 0.1096002 1.172722 0.6135246
v 0.772091 1.6095 0.6538071
v 0.2922305 1.044849 0.5211835
v 0.8266032 1.692036 0.5149962
v 0.364986 0.9880412 0.2978573
v 1.656427 2.454257 0.1529087
v 1.468845 2.584558 0.2474396
v 1.393527 2.641651 0.4760486
v 1.474615 2.592094 0.7048363
v 1.664578 2.464917 0.7997624
v 1.852163 2.334618 0.7052306
v 1.927472 2.277522 0.476618
v 1.949488 3.38979 0.463611
v 2.120274 3.410829 0.4620095
v 1.846398 2.327078 0.2478394
v 1.927472 2.277522 0.476618
v 2.290673 3.447176 0.5720895
v 2.367409 3.477539 0.7393099
v 1.945512 3.508565 0.6701363
v 2.014069 3.510238 0.8324574
v 2.148345 3.463095 0.9026079
v 2.309745 3.484134 0.8772528
v 2.367409 3.477539 0.7393099

vn 0.4894376 0.115254 -0.8643884
vn 0.5358396 0.126627 -0.8347704
vn -0.2478518 0.09115901 -0.9644996
vn -0.3084549 0.164291 -0.9369439
vn -0.3315633 0.237761 -0.9129818
vn -0.8556572 0.04265301 -0.5157825
vn -0.800499 0.324559 -0.503848
vn 0.9935389 0.05652802 -0.09841397
vn 0.9722821 0.08713903 -0.2169665
vn 0.9278359 -0.03089199 0.3717073
vn 0.875431 0.03889001 0.481776
vn 0.8521612 -0.03331299 0.5222179
vn -0.2348749 0.047315 -0.9708735
vn 0.4846323 0.1062549 -0.8682405
vn -0.8105896 0.06419402 -0.5820856
vn 0.9537156 0.07829998 -0.2903374
vn 0.8519033 -0.012572 0.5235482
vn 0.3349673 0.03390702 0.9416195
vn 0.263593 -0.04222897 0.9637092
vn -0.4636787 0.06695198 0.8834702
vn -0.4260835 0.030462 0.9041709
vn -0.9706695 0.06118899 0.2325012
vn -0.9642313 0.2019731 0.1716537
vn -0.9538991 0.2847561 0.0948182
vn -0.800499 0.324559 -0.503848
vn -0.8556572 0.04265301 -0.5157825
vn -0.5321549 0.173637 0.8286504
vn -0.9790169 0.121351 0.1637067
vn -0.8105896 0.06419402 -0.5820856
vn -0.9488543 0.2468529 0.1968225
vn -0.6801418 0.2529961 -0.6880409
vn -0.3393133 0.06183 0.9386392
vn 0.3248247 -0.07486501 0.9428065
vn 0.8171183 -0.116526 0.56457
vn 0.9770552 -0.06800602 -0.2018373
vn 0.5617374 0.042641 -0.826216
vn -0.07787353 0.154694 -0.9848887
vn -0.6801418 0.2529961 -0.6880409
vn -0.1835566 0.106873 0.9771823
vn 0.4226263 0.08505797 0.9023038
vn 0.2715411 0.051948 0.9610239
vn 0.9095846 0.022652 0.4149007
vn 0.2715411 0.051948 0.9610239
vn 0.4226263 0.08505797 0.9023038
vn -0.8454862 0.176202 -0.5040892
vn -0.8454862 0.176202 -0.5040892
vn 0.9803975 0.009463004 -0.1968026
vn 0.9803975 0.009463004 -0.1968026
vn 0.340002 -0.5490681 -0.7634938
vn 0.2955599 -0.7834702 -0.5466432
vn -0.2512112 -0.4675329 -0.8475293
vn -0.2430112 -0.232616 -0.9417194
vn -0.8356884 0.14151 -0.5306599
vn -0.7390649 0.251613 -0.6248792
vn -0.752401 0.6481669 0.1173559
vn -0.7840048 0.6197538 0.03523868
vn -0.3041739 0.7724905 0.5574375
vn -0.4318102 0.6739743 0.5994154
vn 0.2767512 0.479693 0.8326485
vn 0.1858083 0.410288 0.8928264
vn 0.8266761 -0.121057 0.5495013
vn 0.7821063 -0.17088 0.5992578
vn 0.7752976 -0.6206129 -0.117274
vn 0.7839968 -0.5936821 -0.1813581
vn 0.2955599 -0.7834702 -0.5466432
vn 0.340002 -0.5490681 -0.7634938
vn -0.7420055 0.218502 -0.6337861
vn -0.7393975 0.6673079 -0.08939475
vn -0.4103555 0.7606009 0.5030851
vn 0.2553593 0.2733921 0.927388
vn 0.7451484 -0.3617901 0.5602338
vn 0.7096342 -0.6864228 -0.158881
vn 0.3116671 -0.624091 -0.7165012
vn -0.6357056 0.7714701 -0.02668855
vn -0.4689499 0.5219939 -0.7124664
vn -0.2601638 -0.3145871 -0.9128799
vn 0.3116671 -0.624091 -0.7165012
vn 0.02680427 -0.001752001 -0.9996392
vn 0.5923082 -0.4938701 -0.636603
vn -0.2496307 0.3227668 0.9129655
vn 0.2358101 -0.1897499 0.9530941
vn 0.6220254 -0.539331 0.5676325
vn 0.7617756 -0.6452188 -0.05822918
vn 0.5923082 -0.4938701 -0.636603

vt 0.126709 0.3288574
vt 0.1293945 0.3742676
vt 0.1407471 0.3754883
vt 0.1362305 0.3291016
vt 0.1413574 0.3303223
vt 0.1525879 0.3789063
vt 0.15271 0.3623047
vt 0.1174927 0.3647461
vt 0.118103 0.3754883
vt 0.1054077 0.3300781
vt 0.1060181 0.3786621
vt 0.1013794 0.3305664
vt 0.149292 0.4240723
vt 0.1358643 0.4257813
vt 0.15979 0.4228516
vt 0.121521 0.4277344
vt 0.1089478 0.4287109
vt 0.09356689 0.3813477
vt 0.09710693 0.4299316
vt 0.08105469 0.3840332
vt 0.08880615 0.4311523
vt 0.06884766 0.3857422
vt 0.0670166 0.3334961
vt 0.06384277 0.3349609
vt 0.05545044 0.3713379
vt 0.05654907 0.3869629
vt 0.07647705 0.3317871
vt 0.07189941 0.435791
vt 0.0625 0.4394531
vt 0.074646 0.4926758
vt 0.06512451 0.4936523
vt 0.09069824 0.4914551
vt 0.1012573 0.4904785
vt 0.1171875 0.4887695
vt 0.1308594 0.4870605
vt 0.1435547 0.4853516
vt 0.1560059 0.4838867
vt 0.1673584 0.4829102
vt 0.08154297 0.3320313
vt 0.09130859 0.3662109
vt 0.0892334 0.3222656
vt 0.097229 0.3310547
vt 0.0892334 0.3222656
vt 0.09130859 0.3662109
vt 0.1542969 0.3291016
vt 0.04974365 0.3359375
vt 0.1149902 0.3195801
vt 0.1149902 0.3195801
vt 0.050354 0.3269043
vt 0.05477905 0.3681641
vt 0.06396484 0.3632813
vt 0.06066895 0.3205566
vt 0.07598877 0.3637695
vt 0.07141113 0.3161621
vt 0.08642578 0.3591309
vt 0.08282471 0.3151855
vt 0.09460449 0.3659668
vt 0.09399414 0.3178711
vt 0.1016846 0.3613281
vt 0.1053467 0.3225098
vt 0.1165771 0.3642578
vt 0.1170654 0.3259277
vt 0.1252441 0.3696289
vt 0.1287842 0.3276367
vt 0.131958 0.3745117
vt 0.1402588 0.3256836
vt 0.06628418 0.4277344
vt 0.07714844 0.4272461
vt 0.08837891 0.4291992
vt 0.09985352 0.4318848
vt 0.1115112 0.4338379
vt 0.1234131 0.4348145
vt 0.1357422 0.4345703
vt 0.0758667 0.472168
vt 0.06762695 0.4794922
vt 0.05535889 0.4287109
vt 0.04382324 0.4294434
vt 0.05892944 0.4885254
vt 0.05099487 0.494873
vt 0.08605957 0.4821777
vt 0.09484863 0.4853516
vt 0.1034546 0.4858398
vt 0.1099854 0.4914551
vt 0.1179199 0.4924316

g Tree3_(10)_2768_81
usemtl Tree3_(10)_2768_81
usemap Tree3_(10)_2768_81
f 1/1/1 3/3/3 2/2/2
f 1/1/1 4/4/4 3/3/3
f 5/5/5 3/3/3 4/4/4
f 3/3/3 5/5/5 6/6/6
f 6/6/6 5/5/5 7/7/7
f 8/8/8 1/1/1 2/2/2
f 8/8/8 2/2/2 9/9/9
f 9/9/9 10/10/10 8/8/8
f 10/10/10 9/9/9 11/11/11
f 10/10/10 11/11/11 12/12/12
f 2/2/2 3/3/3 13/13/13
f 2/2/2 13/13/13 14/14/14
f 9/9/9 2/2/2 14/14/14
f 3/3/3 15/15/15 13/13/13
f 3/3/3 6/6/6 15/15/15
f 11/11/11 9/9/9 16/16/16
f 9/9/9 14/14/14 16/16/16
f 11/11/11 16/16/16 17/17/17
f 18/18/18 11/11/11 17/17/17
f 18/18/18 12/12/12 11/11/11
f 18/18/18 17/17/17 19/19/19
f 20/20/20 18/18/18 19/19/19
f 20/20/20 19/19/19 21/21/21
f 22/22/22 20/20/20 21/21/21
f 23/23/23 20/20/20 22/22/22
f 22/22/22 24/24/24 23/23/23
f 22/22/22 25/25/25 24/24/24
f 25/25/25 22/22/22 26/26/26
f 23/23/23 27/27/27 20/20/20
f 26/26/26 22/22/22 28/28/28
f 22/22/22 21/21/21 28/28/28
f 26/26/26 28/28/28 29/29/29
f 29/29/29 28/28/28 30/30/30
f 29/29/29 30/30/30 31/31/31
f 28/28/28 32/32/32 30/30/30
f 28/28/28 21/21/21 32/32/32
f 21/21/21 33/33/33 32/32/32
f 21/21/21 19/19/19 33/33/33
f 19/19/19 34/34/34 33/33/33
f 19/19/19 17/17/17 34/34/34
f 17/17/17 35/35/35 34/34/34
f 17/17/17 16/16/16 35/35/35
f 16/16/16 36/36/36 35/35/35
f 16/16/16 14/14/14 36/36/36
f 14/14/14 37/37/37 36/36/36
f 14/14/14 13/13/13 37/37/37
f 13/13/13 38/38/38 37/37/37
f 13/13/13 15/15/15 38/38/38
f 39/39/39 41/41/41 40/40/40
f 40/40/40 27/27/27 39/39/39
f 27/27/27 40/40/40 20/20/20
f 20/20/20 40/40/40 18/18/18
f 42/42/42 18/18/18 40/40/40
f 12/12/12 18/18/18 42/42/42
f 43/43/43 42/42/42 44/44/44
f 5/5/5 45/45/45 7/7/7
f 46/46/46 24/24/24 25/25/25
f 10/10/10 47/47/47 8/8/8
f 48/48/48 1/1/1 8/8/8
f 49/49/49 51/51/51 50/50/50
f 49/49/49 52/52/52 51/51/51
f 52/52/52 53/53/53 51/51/51
f 52/52/52 54/54/54 53/53/53
f 54/54/54 55/55/55 53/53/53
f 54/54/54 56/56/56 55/55/55
f 56/56/56 57/57/57 55/55/55
f 56/56/56 58/58/58 57/57/57
f 58/58/58 59/59/59 57/57/57
f 58/58/58 60/60/60 59/59/59
f 60/60/60 61/61/61 59/59/59
f 60/60/60 62/62/62 61/61/61
f 62/62/62 63/63/63 61/61/61
f 62/62/62 64/64/64 63/63/63
f 64/64/64 65/65/65 63/63/63
f 64/64/64 66/66/66 65/65/65
f 51/51/51 53/53/53 67/67/67
f 53/53/53 68/68/68 67/67/67
f 53/53/53 55/55/55 68/68/68
f 55/55/55 69/69/69 68/68/68
f 55/55/55 57/57/57 69/69/69
f 57/57/57 70/70/70 69/69/69
f 57/57/57 59/59/59 70/70/70
f 59/59/59 71/71/71 70/70/70
f 59/59/59 61/61/61 71/71/71
f 61/61/61 72/72/72 71/71/71
f 61/61/61 63/63/63 72/72/72
f 63/63/63 73/73/73 72/72/72
f 63/63/63 65/65/65 73/73/73
f 67/67/67 68/68/68 74/74/74
f 67/67/67 74/74/74 75/75/75
f 76/76/76 67/67/67 75/75/75
f 51/51/51 67/67/67 76/76/76
f 50/50/50 51/51/51 76/76/76
f 50/50/50 76/76/76 77/77/77
f 77/77/77 76/76/76 78/78/78
f 76/76/76 75/75/75 78/78/78
f 77/77/77 78/78/78 79/79/79
f 68/68/68 80/80/80 74/74/74
f 68/68/68 69/69/69 80/80/80
f 69/69/69 81/81/81 80/80/80
f 69/69/69 70/70/70 81/81/81
f 70/70/70 82/82/82 81/81/81
f 70/70/70 71/71/71 82/82/82
f 71/71/71 83/83/83 82/82/82
f 71/71/71 72/72/72 83/83/83
f 72/72/72 84/84/84 83/83/83
f 72/72/72 73/73/73 84/84/84
