#Tree1_(5)_2105_151.obj

v 0.9804637 -0.3906398 -0.6921089
v 1.107486 0.8115063 -0.4743481
v 0.3104363 0.8115063 -0.8906065
v -0.2215897 -0.3906398 -1.266638
v 0.4838175 -0.3906398 0.8181278
v 0.7067533 0.8115063 0.5438475
v -0.5842801 -0.3906398 0.6235062
v -0.1479664 0.8115063 0.5496059
v -0.8845447 -0.3906398 -0.5367658
v -0.3146983 0.8115063 -0.4248117
v -0.2215897 -0.3906398 -1.266638
v 0.3104363 0.8115063 -0.8906065
v 0.3530333 1.663283 -0.4697887
v -0.1989482 1.663283 -0.1507447
v -0.7214427 2.662808 0.6159999
v -0.3612562 2.662808 0.3769204
v -0.4593663 3.343327 0.2667006
v -0.8088664 3.343327 0.5000451
v -0.629718 2.662809 1.011225
v -0.7243941 3.343328 0.8823771
v -0.1789083 2.662808 1.099437
v -0.291883 3.343327 0.9705906
v 0.02221664 2.662808 0.6623175
v -0.1006363 3.343327 0.5471554
v -0.3612562 2.662808 0.3769204
v -0.4593663 3.343327 0.2667006
v -0.01605929 5.964303 0.08665843
v 0.1380437 5.964303 -0.2853294
v -0.3797553 5.964303 -0.00156289
v -0.4369467 5.964303 -0.3354136
v -0.1276375 5.964303 -0.547196
v -0.1276375 5.964303 -0.547196
v 0.9102434 1.663283 -0.1403588
v 0.3530333 1.663283 -0.4697887
v 0.5891095 1.663283 0.5688229
v -0.09753141 1.663283 0.6262865
v 0.8034838 0.9769454 -0.08331602
v 1.620376 2.358859 0.2389956
v 1.381297 2.395871 0.1043427
v 1.854716 4.029385 0.289625
v 1.978989 4.009326 0.3708418
v 1.543657 2.351222 0.4625862
v 0.6345629 0.9736834 0.2236953
v 0.2961959 1.007144 0.2918147
v 1.308648 2.377404 0.4696878
v 0.1980171 1.034861 0.06539639
v 1.205544 2.403562 0.2722104
v 0.4946787 1.020232 -0.1954417
v 1.381297 2.395871 0.1043427
v 0.8034838 0.9769454 -0.08331602
v 1.749157 4.036607 0.3548546
v 1.854716 4.029385 0.289625
v 1.817535 4.019584 0.4813981
v 1.944527 4.005486 0.4768543
v 0.8034838 0.9769454 -0.08331602
v 0.4946787 1.020232 -0.1954417
v -0.3743589 2.540682 0.7778488
v -0.5900293 3.445498 1.930164
v -0.4650895 3.532602 1.769376
v -0.5188358 4.605082 2.617682
v -0.5927503 4.560264 2.700671
v -0.76319 3.4843 1.864584
v -0.6149285 2.677254 0.732575
v -0.658545 2.934231 0.6376863
v -0.7518499 3.575594 1.699215
v -0.4738978 3.001329 0.6082681
v -0.5865405 3.607488 1.637179
v -0.2744812 2.769924 0.6899131
v -0.4650895 3.532602 1.769376
v -0.3743589 2.540682 0.7778488
v -0.5633273 4.648611 2.540155
v -0.5188358 4.605082 2.617682
v -0.6694241 4.627281 2.581523
v -0.6749926 4.577922 2.670922
v -0.3743589 2.540682 0.7778488
v -0.2744812 2.769924 0.6899131

vn 0.7401196 0.410459 -0.5326786
vn 0.7617205 0.2508199 -0.5973871
vn 0.7617205 0.2508199 -0.5973871
vn 0.1695021 0.5708936 -0.8033364
vn -0.3218352 -0.2251669 0.9196315
vn -0.436878 0.05578002 0.8977896
vn -0.9587019 0.143698 0.2454416
vn -0.9462343 0.223389 -0.2339613
vn -0.3118182 0.5665582 -0.7627458
vn -0.2206516 0.3924478 -0.8929152
vn 0.1695021 0.5708936 -0.8033364
vn 0.7617205 0.2508199 -0.5973871
vn -0.1338803 0.3538041 -0.9256883
vn -0.1338803 0.3538041 -0.9256883
vn -0.4305955 -0.03859802 -0.9017193
vn 0.4324747 0.2217219 -0.8739594
vn 0.8822049 -0.16555 -0.4408036
vn -0.1619425 -0.195815 -0.9671769
vn -0.9089444 -0.141718 0.3920919
vn -0.9754872 0.05235 -0.2137384
vn -0.4427149 -0.02649699 0.8962709
vn -0.5728886 0.245263 0.7820772
vn 0.8769333 0.364055 -0.3137705
vn 0.8822049 -0.16555 -0.4408036
vn 0.4324747 0.2217219 -0.8739594
vn 0.8822049 -0.16555 -0.4408036
vn 0.3678071 0.1802871 0.912258
vn 0.9342764 -0.05039701 0.3529699
vn -0.8888513 0.2641658 0.374379
vn -0.9269171 0.100391 -0.3615887
vn 0.5178986 -0.2745639 -0.8101825
vn 0.5178986 -0.2745639 -0.8101825
vn 0.6632302 0.5868669 -0.464449
vn -0.1338803 0.3538041 -0.9256883
vn 0.4477209 0.004428001 0.8941624
vn -0.3916016 -0.2483708 0.8859797
vn 0.9242618 -0.1270489 -0.3599982
vn 0.9674807 -0.1958209 -0.1601104
vn 0.5530528 0.174408 -0.8146868
vn 0.5809084 0.048455 -0.8125254
vn 0.9746945 -0.09748995 -0.2011626
vn 0.1744069 -0.3380539 0.9248253
vn 0.1075911 -0.546424 0.8305691
vn -0.9017355 0.4134237 0.1263093
vn -0.9189599 0.218577 0.3282328
vn -0.614586 0.6240191 -0.4825808
vn -0.7258844 0.466799 -0.5051638
vn 0.3734449 0.3882911 -0.8424779
vn 0.5530528 0.174408 -0.8146868
vn 0.9242618 -0.1270489 -0.3599982
vn -0.7825565 0.257086 -0.5670204
vn 0.5809084 0.048455 -0.8125254
vn -0.9407001 0.1828601 0.2857366
vn 0.2071407 -0.113937 0.9716538
vn 0.9242618 -0.1270489 -0.3599982
vn 0.3734449 0.3882911 -0.8424779
vn 0.3254261 -0.4637033 0.8240614
vn 0.1293257 -0.5536762 0.8226284
vn 0.7734495 -0.018269 0.6335945
vn 0.7792232 -0.1449309 0.6097592
vn 0.1627026 -0.4642898 0.8706106
vn -0.9046742 -0.4244199 -0.03784761
vn -0.7924616 -0.584596 -0.1739312
vn -0.1145847 0.7290349 -0.6748173
vn -0.3007147 0.5471467 -0.7811538
vn 0.4634228 0.8388157 -0.2857051
vn 0.5025361 0.7396072 -0.4477036
vn 0.7937602 0.2502251 0.5543755
vn 0.7734495 -0.018269 0.6335945
vn 0.3254261 -0.4637033 0.8240614
vn 0.5821019 0.5726039 -0.5773059
vn 0.7792232 -0.1449309 0.6097592
vn -0.2547659 0.5250439 -0.8120487
vn -0.96922 -0.2340141 0.07648602
vn 0.3254261 -0.4637033 0.8240614
vn 0.7937602 0.2502251 0.5543755

vt 0.1055908 0.3232422
vt 0.1096802 0.3532715
vt 0.1278076 0.3532715
vt 0.1287842 0.3232422
vt 0.07672119 0.3232422
vt 0.08624268 0.3532715
vt 0.05950928 0.3232422
vt 0.06634521 0.3532715
vt 0.04046631 0.3232422
vt 0.04293823 0.3532715
vt 0.02571106 0.3232422
vt 0.02592468 0.3532715
vt 0.02734375 0.3781738
vt 0.04507446 0.3779297
vt 0.04846191 0.4140625
vt 0.0319519 0.4150391
vt 0.03213501 0.4318848
vt 0.04855347 0.4309082
vt 0.06231689 0.4130859
vt 0.06256104 0.4299316
vt 0.07836914 0.4121094
vt 0.07855225 0.4289551
vt 0.1002808 0.4121094
vt 0.09954834 0.4289551
vt 0.1193237 0.4147949
vt 0.1175537 0.4313965
vt 0.0793457 0.4919434
vt 0.09680176 0.4921875
vt 0.06341553 0.4929199
vt 0.04891968 0.4938965
vt 0.03283691 0.494873
vt 0.1108398 0.4936523
vt 0.1090088 0.3774414
vt 0.1254883 0.3781738
vt 0.08795166 0.3774414
vt 0.06793213 0.3776855
vt 0.1115723 0.3449707
vt 0.1104736 0.4145508
vt 0.1217041 0.4125977
vt 0.1165771 0.4851074
vt 0.1097412 0.4863281
vt 0.1027222 0.4145508
vt 0.1022949 0.3449707
vt 0.09362793 0.3449707
vt 0.09539795 0.4125977
vt 0.08660889 0.3449707
vt 0.08764648 0.411377
vt 0.08013916 0.3449707
vt 0.0814209 0.4123535
vt 0.1115723 0.3449707
vt 0.08782959 0.484375
vt 0.08465576 0.4846191
vt 0.09527588 0.4853516
vt 0.1028442 0.4865723
vt 0.1115723 0.3449707
vt 0.1218872 0.3449707
vt 0.09686279 0.4006348
vt 0.0960083 0.4465332
vt 0.1040649 0.4453125
vt 0.1004028 0.4931641
vt 0.09552002 0.4938965
vt 0.09051514 0.4465332
vt 0.09020996 0.4006348
vt 0.08398438 0.4006348
vt 0.08526611 0.4453125
vt 0.07897949 0.4006348
vt 0.07971191 0.4443359
vt 0.07434082 0.4006348
vt 0.07525635 0.4450684
vt 0.09686279 0.4006348
vt 0.07983398 0.4926758
vt 0.07757568 0.4926758
vt 0.08520508 0.4931641
vt 0.09057617 0.4941406
vt 0.09686279 0.4006348
vt 0.104248 0.4006348

g Tree1_(5)_2105_151
usemtl Tree1_(5)_2105_151
usemap Tree1_(5)_2105_151
f 1/1/1 3/3/3 2/2/2
f 1/1/1 4/4/4 3/3/3
f 5/5/5 1/1/1 2/2/2
f 5/5/5 2/2/2 6/6/6
f 7/7/7 5/5/5 6/6/6
f 7/7/7 6/6/6 8/8/8
f 9/9/9 7/7/7 8/8/8
f 9/9/9 8/8/8 10/10/10
f 11/11/11 9/9/9 10/10/10
f 11/11/11 10/10/10 12/12/12
f 13/13/13 12/12/12 10/10/10
f 13/13/13 10/10/10 14/14/14
f 14/14/14 10/10/10 8/8/8
f 13/13/13 14/14/14 15/15/15
f 13/13/13 15/15/15 16/16/16
f 15/15/15 17/17/17 16/16/16
f 15/15/15 18/18/18 17/17/17
f 19/19/19 18/18/18 15/15/15
f 14/14/14 19/19/19 15/15/15
f 19/19/19 20/20/20 18/18/18
f 21/21/21 20/20/20 19/19/19
f 21/21/21 22/22/22 20/20/20
f 23/23/23 22/22/22 21/21/21
f 23/23/23 24/24/24 22/22/22
f 25/25/25 24/24/24 23/23/23
f 25/25/25 26/26/26 24/24/24
f 24/24/24 27/27/27 22/22/22
f 20/20/20 22/22/22 27/27/27
f 24/24/24 28/28/28 27/27/27
f 20/20/20 27/27/27 29/29/29
f 18/18/18 20/20/20 29/29/29
f 18/18/18 29/29/29 30/30/30
f 17/17/17 18/18/18 30/30/30
f 17/17/17 30/30/30 31/31/31
f 24/24/24 32/32/32 28/28/28
f 24/24/24 26/26/26 32/32/32
f 33/33/33 25/25/25 23/23/23
f 33/33/33 34/34/34 25/25/25
f 35/35/35 23/23/23 21/21/21
f 35/35/35 33/33/33 23/23/23
f 36/36/36 35/35/35 21/21/21
f 36/36/36 21/21/21 19/19/19
f 14/14/14 36/36/36 19/19/19
f 33/33/33 3/3/3 34/34/34
f 33/33/33 2/2/2 3/3/3
f 35/35/35 2/2/2 33/33/33
f 35/35/35 6/6/6 2/2/2
f 36/36/36 6/6/6 35/35/35
f 36/36/36 8/8/8 6/6/6
f 14/14/14 8/8/8 36/36/36
f 37/37/37 39/39/39 38/38/38
f 38/38/38 39/39/39 40/40/40
f 38/38/38 40/40/40 41/41/41
f 42/42/42 38/38/38 41/41/41
f 43/43/43 38/38/38 42/42/42
f 44/44/44 43/43/43 42/42/42
f 44/44/44 42/42/42 45/45/45
f 46/46/46 44/44/44 45/45/45
f 46/46/46 45/45/45 47/47/47
f 48/48/48 46/46/46 47/47/47
f 48/48/48 47/47/47 49/49/49
f 43/43/43 50/50/50 38/38/38
f 49/49/49 47/47/47 51/51/51
f 49/49/49 51/51/51 52/52/52
f 47/47/47 53/53/53 51/51/51
f 47/47/47 45/45/45 53/53/53
f 45/45/45 54/54/54 53/53/53
f 45/45/45 42/42/42 54/54/54
f 42/42/42 41/41/41 54/54/54
f 55/55/55 56/56/56 39/39/39
f 57/57/57 59/59/59 58/58/58
f 58/58/58 59/59/59 60/60/60
f 58/58/58 60/60/60 61/61/61
f 62/62/62 58/58/58 61/61/61
f 63/63/63 58/58/58 62/62/62
f 64/64/64 63/63/63 62/62/62
f 64/64/64 62/62/62 65/65/65
f 66/66/66 64/64/64 65/65/65
f 66/66/66 65/65/65 67/67/67
f 68/68/68 66/66/66 67/67/67
f 68/68/68 67/67/67 69/69/69
f 63/63/63 70/70/70 58/58/58
f 69/69/69 67/67/67 71/71/71
f 69/69/69 71/71/71 72/72/72
f 67/67/67 73/73/73 71/71/71
f 67/67/67 65/65/65 73/73/73
f 65/65/65 74/74/74 73/73/73
f 65/65/65 62/62/62 74/74/74
f 62/62/62 61/61/61 74/74/74
f 75/75/75 76/76/76 59/59/59
