#Tree4_(77)_3102_539.obj

v -2.491709 6.129237 -0.4659443
v -3.228821 5.983608 -0.3656076
v -2.327987 5.560323 -0.9431483
v -3.285002 5.371249 -0.8128775
v -3.653038 5.739669 0.2133029
v -3.835789 5.054531 -0.06125124
v -3.515866 5.540316 0.9316711
v -3.657693 4.795703 0.871435
v -2.897662 5.502325 1.368683
v -2.855042 4.746378 1.438824
v -2.16055 5.647953 1.268343
v -1.89802 4.935453 1.30855
v -1.736326 5.891891 0.6894318
v -1.347233 5.252171 0.5569233
v -1.873498 6.091246 -0.0289325
v -1.525329 5.511 -0.3757591
v -2.467361 6.30267 0.1721124
v -3.151065 6.167593 0.2651794
v -2.765705 6.271781 0.5914738
v -3.023833 5.982682 0.9315026
v -2.340122 6.117759 0.8384315
v 2.217859 7.354592 -2.494816
v 0.8755635 7.329135 -2.83782
v 2.611909 6.5694 -2.995751
v 0.7982585 6.534998 -3.459198
v -0.3162736 7.316662 -2.131088
v -0.8120781 6.518145 -2.504297
v -0.6594703 7.324482 -0.7886106
v -1.275785 6.528714 -0.6904175
v 0.04700188 7.348016 0.4032004
v -0.3212363 6.560512 0.919896
v 1.38932 7.37348 0.7462075
v 1.492422 6.594911 1.383343
v 2.581142 7.38595 0.03947168
v 3.102758 6.611767 0.4284422
v 2.924346 7.37813 -1.303002
v 3.566466 6.601199 -1.385438
v 2.839005 5.645878 -3.269425
v 0.7632512 5.606506 -3.799847
v -1.07979 5.587218 -2.706947
v -1.61051 5.599314 -0.6309389
v -0.5180067 5.635708 1.212088
v 1.557748 5.675082 1.742514
v 3.400796 5.69437 0.6496138
v 3.931508 5.682274 -1.426398
v 1.552921 7.72575 -0.3300904
v 0.4071862 7.704019 -0.6228646
v 1.125382 7.781335 -1.050117
v 0.7001315 7.697345 -1.768742
v 1.845858 7.719076 -1.475971
v 0.4598807 6.511011 -2.618053
v -0.5894054 6.526672 -1.660242
v 0.1699565 5.761833 -3.293453
v -1.247784 5.782992 -1.999313
v -0.6596566 6.420261 -0.2451836
v -1.342704 5.639215 -0.08736185
v 0.2902882 6.254119 0.7982072
v -0.05919374 5.414735 1.322411
v 1.703958 6.125566 0.8587205
v 1.850874 5.241036 1.404173
v 2.753251 6.109906 -0.09909054
v 3.26863 5.219882 0.1100289
v 2.823495 6.216312 -1.514153
v 3.363549 5.363655 -1.801926
v 1.87355 6.382455 -2.557539
v 2.080032 5.588139 -3.21169
v -0.1083908 4.862029 -3.912852
v -1.853917 4.888076 -2.319515
v -1.970765 4.711063 0.03447736
v -0.3905125 4.434681 1.770183
v 1.961165 4.220828 1.870848
v 3.706691 4.194779 0.2775031
v 3.823546 4.371792 -2.076485
v 2.243294 4.648178 -3.812187
v 1.967903 6.614914 -0.8133768
v 1.072284 6.628282 0.004166648
v 1.121014 6.764997 -0.8441328
v 0.2614532 6.770093 -0.8864253
v 1.157065 6.756725 -1.703965
v -1.404482 4.948886 -2.365071
v -1.804182 4.708665 -2.802703
v -1.031496 4.433385 -2.283357
v -1.550445 4.121498 -2.851552
v -2.4226 4.545877 -2.80935
v -2.353361 3.910143 -2.860189
v -2.897479 4.555882 -2.381128
v -2.969914 3.923131 -2.304208
v -2.95064 4.732815 -1.768879
v -3.038931 4.152854 -1.509293
v -2.550941 4.973035 -1.331251
v -2.51999 4.464743 -0.9410977
v -1.932523 5.135823 -1.324595
v -1.717067 4.676098 -0.9324616
v -1.457644 5.125819 -1.752826
v -1.100513 4.663109 -1.488446
v -1.842197 5.217912 -2.14683
v -2.212938 4.995097 -2.552752
v -2.275553 5.217892 -2.184448
v -2.653413 5.004375 -2.155546
v -2.282672 5.22719 -1.749624

vn 0.1120316 0.7784641 -0.6176105
vn -0.5157726 0.6549021 -0.5523421
vn 0.1732424 0.5973637 -0.783035
vn -0.5360559 0.4577628 -0.7092935
vn -0.8911014 0.4479261 -0.0728042
vn -0.9601045 0.223919 -0.1675099
vn -0.7940915 0.278779 0.5400935
vn -0.8505015 0.03281599 0.5249479
vn -0.2815701 0.2465458 0.927326
vn -0.2714514 -0.003602002 0.9624454
vn 0.3462348 0.3701069 0.862057
vn 0.4378463 0.135999 0.8887041
vn 0.7215627 0.5770843 0.3825194
vn 0.8618952 0.3698429 0.3469191
vn 0.6245528 0.7462302 -0.2303785
vn 0.752292 0.560946 -0.3455377
vn 0.03730166 0.9965098 -0.07467821
vn -0.4983866 0.8641002 0.07029688
vn -0.1563853 0.9454778 0.2856838
vn -0.32349 0.7337341 0.5974853
vn 0.2121982 0.8661441 0.4525111
vn 0.6804674 0.5128449 -0.5234064
vn 0.1877927 0.737739 -0.6484405
vn 0.679651 0.2558199 -0.6874814
vn 0.06932895 0.5344177 -0.8423724
vn -0.2564112 0.8987413 -0.3556928
vn -0.4809479 0.7338651 -0.4797198
vn -0.3919362 0.9015374 0.1833477
vn -0.6488343 0.7373294 0.1880407
vn -0.1393925 0.7444899 0.65292
vn -0.3359859 0.5427799 0.7697424
vn 0.3532831 0.5195948 0.7779539
vn 0.2743363 0.2641829 0.9246334
vn 0.7974869 0.3585939 0.4852062
vn 0.8246141 0.064735 0.5619797
vn 0.9330114 0.3557971 -0.05383511
vn 0.9925002 0.06127099 -0.1057796
vn 0.6407104 0.05827697 -0.7655678
vn -0.01897734 0.359409 -0.9329872
vn -0.6137633 0.5749891 -0.5410012
vn -0.7952296 0.5787333 0.18077
vn -0.4570755 0.3684478 0.8095235
vn 0.2026124 0.067316 0.9769426
vn 0.7973987 -0.1482641 0.5849558
vn 0.9788642 -0.152008 -0.1368154
vn 0.5099894 0.8233867 0.2488881
vn 0.2344779 0.9434429 0.2343835
vn 0.3935294 0.9144735 0.09419537
vn 0.2590512 0.9636868 -0.06480888
vn 0.5345619 0.8436309 -0.05030423
vn 0.149906 0.8238653 -0.5466024
vn -0.2335064 0.959092 -0.1600544
vn -0.01265647 0.6650369 -0.7467033
vn -0.484999 0.8316296 -0.2704959
vn -0.2875726 0.8739552 0.3917963
vn -0.5516069 0.7267453 0.4093545
vn 0.0193764 0.618327 0.785682
vn -0.1734607 0.4118249 0.8946014
vn 0.5075363 0.34195 0.7908711
vn 0.4279258 0.07134299 0.9009938
vn 0.8909486 0.206723 0.4043219
vn 0.9002687 -0.09525002 0.4247867
vn 0.9450148 0.29186 -0.1475287
vn 0.9668759 0.009635 -0.2550649
vn 0.6380646 0.5474889 -0.5414143
vn 0.5887301 0.324556 -0.740311
vn -0.1268246 0.5162241 -0.8470114
vn -0.6360185 0.6958141 -0.3336514
vn -0.7078228 0.5827472 0.3992402
vn -0.3001749 0.2432561 0.9223456
vn 0.3481314 -0.123789 0.9292367
vn 0.8573263 -0.303379 0.415876
vn 0.9291298 -0.190312 -0.3170163
vn 0.521481 0.1491791 -0.8401209
vn 0.6610082 0.7373568 0.1391867
vn 0.4848643 0.7851081 0.3853725
vn 0.4832273 0.8568879 0.1795402
vn 0.2824838 0.9356971 0.2113616
vn 0.4586273 0.8879461 -0.03482423
vn 0.6610878 0.6109444 -0.435557
vn 0.2732614 0.3693524 -0.8882043
vn 0.816 0.4137206 -0.4037069
vn 0.3778299 0.1407688 -0.9151113
vn -0.3481624 0.2056359 -0.914602
vn -0.3242573 -0.04420039 -0.9449357
vn -0.8391588 0.2156964 -0.4992871
vn -0.8789898 -0.03283307 -0.4757089
vn -0.9121108 0.3936419 0.1144552
vn -0.9614112 0.1682102 0.2177012
vn -0.5242836 0.6352329 0.567103
vn -0.5232415 0.4411621 0.7291052
vn 0.09713961 0.7989506 0.5934997
vn 0.178847 0.6261312 0.7589291
vn 0.5881361 0.7888891 0.178185
vn 0.7335785 0.6147642 0.2897027
vn 0.1801955 0.9311942 -0.3168706
vn -0.2296825 0.7211424 -0.6536052
vn -0.2315461 0.9266384 -0.2961886
vn -0.6039295 0.764573 -0.2251607
vn -0.1940523 0.9746255 0.1115742

vt 0.3613281 0.484375
vt 0.3461914 0.479248
vt 0.3603516 0.498291
vt 0.3356934 0.4875488
vt 0.3395996 0.463623
vt 0.3259277 0.4626465
vt 0.3447266 0.4484863
vt 0.3364258 0.4379883
vt 0.3603516 0.4418945
vt 0.3613281 0.4282227
vt 0.3754883 0.4470215
vt 0.3859863 0.4387207
vt 0.3820801 0.4626465
vt 0.395752 0.463623
vt 0.3769531 0.4780273
vt 0.3852539 0.4882813
vt 0.3652344 0.4726563
vt 0.3513184 0.4677734
vt 0.3608398 0.4631348
vt 0.3564453 0.4538574
vt 0.3701172 0.4587402
vt 0.4470215 0.4243164
vt 0.4257813 0.4155273
vt 0.4472656 0.4458008
vt 0.4106445 0.4306641
vt 0.4169922 0.3942871
vt 0.3955078 0.3942871
vt 0.4257813 0.3728027
vt 0.4106445 0.3579102
vt 0.4470215 0.3642578
vt 0.4470215 0.3427734
vt 0.4685059 0.3730469
vt 0.4833984 0.357666
vt 0.4770508 0.3942871
vt 0.4985352 0.394043
vt 0.4682617 0.4155273
vt 0.4833984 0.4306641
vt 0.4470215 0.4689941
vt 0.394043 0.4470215
vt 0.3723145 0.394043
vt 0.394043 0.3413086
vt 0.4470215 0.3193359
vt 0.5 0.3413086
vt 0.5219727 0.3942871
vt 0.5 0.4472656
vt 0.4609375 0.3884277
vt 0.4411621 0.3803711
vt 0.4470215 0.3942871
vt 0.4331055 0.3999023
vt 0.4528809 0.407959
vt 0.4470215 0.4243164
vt 0.4257813 0.4155273
vt 0.4472656 0.4458008
vt 0.4106445 0.4306641
vt 0.4169922 0.3942871
vt 0.3955078 0.3942871
vt 0.4257813 0.3728027
vt 0.4106445 0.3579102
vt 0.4470215 0.3642578
vt 0.4470215 0.3427734
vt 0.4685059 0.3730469
vt 0.4833984 0.357666
vt 0.4770508 0.3942871
vt 0.4985352 0.394043
vt 0.4682617 0.4155273
vt 0.4833984 0.4306641
vt 0.4470215 0.4689941
vt 0.394043 0.4470215
vt 0.3723145 0.394043
vt 0.394043 0.3413086
vt 0.4470215 0.3193359
vt 0.5 0.3413086
vt 0.5219727 0.3942871
vt 0.5 0.4472656
vt 0.4609375 0.3884277
vt 0.4411621 0.3803711
vt 0.4470215 0.3942871
vt 0.4331055 0.3999023
vt 0.4528809 0.407959
vt 0.3613281 0.484375
vt 0.3461914 0.479248
vt 0.3603516 0.498291
vt 0.3356934 0.4875488
vt 0.3395996 0.463623
vt 0.3259277 0.4626465
vt 0.3447266 0.4484863
vt 0.3364258 0.4379883
vt 0.3603516 0.4418945
vt 0.3613281 0.4282227
vt 0.3754883 0.4470215
vt 0.3859863 0.4387207
vt 0.3820801 0.4626465
vt 0.395752 0.463623
vt 0.3769531 0.4780273
vt 0.3852539 0.4882813
vt 0.3652344 0.4726563
vt 0.3513184 0.4677734
vt 0.3608398 0.4631348
vt 0.3564453 0.4538574
vt 0.3701172 0.4587402

g Tree4_(77)_3102_539
usemtl Tree4_(77)_3102_539
usemap Tree4_(77)_3102_539
f 1/1/1 3/3/3 2/2/2
f 2/2/2 3/3/3 4/4/4
f 2/2/2 4/4/4 5/5/5
f 5/5/5 4/4/4 6/6/6
f 5/5/5 6/6/6 7/7/7
f 7/7/7 6/6/6 8/8/8
f 7/7/7 8/8/8 9/9/9
f 9/9/9 8/8/8 10/10/10
f 9/9/9 10/10/10 11/11/11
f 11/11/11 10/10/10 12/12/12
f 11/11/11 12/12/12 13/13/13
f 13/13/13 12/12/12 14/14/14
f 13/13/13 14/14/14 15/15/15
f 15/15/15 14/14/14 16/16/16
f 15/15/15 16/16/16 1/1/1
f 1/1/1 16/16/16 3/3/3
f 15/15/15 1/1/1 17/17/17
f 1/1/1 2/2/2 17/17/17
f 17/17/17 2/2/2 18/18/18
f 2/2/2 5/5/5 18/18/18
f 5/5/5 7/7/7 18/18/18
f 17/17/17 18/18/18 19/19/19
f 18/18/18 20/20/20 19/19/19
f 18/18/18 7/7/7 20/20/20
f 7/7/7 9/9/9 20/20/20
f 9/9/9 11/11/11 20/20/20
f 20/20/20 21/21/21 19/19/19
f 21/21/21 17/17/17 19/19/19
f 20/20/20 11/11/11 21/21/21
f 11/11/11 13/13/13 21/21/21
f 13/13/13 15/15/15 21/21/21
f 21/21/21 15/15/15 17/17/17
f 22/22/22 24/24/24 23/23/23
f 23/23/23 24/24/24 25/25/25
f 23/23/23 25/25/25 26/26/26
f 26/26/26 25/25/25 27/27/27
f 26/26/26 27/27/27 28/28/28
f 28/28/28 27/27/27 29/29/29
f 28/28/28 29/29/29 30/30/30
f 30/30/30 29/29/29 31/31/31
f 30/30/30 31/31/31 32/32/32
f 32/32/32 31/31/31 33/33/33
f 32/32/32 33/33/33 34/34/34
f 34/34/34 33/33/33 35/35/35
f 34/34/34 35/35/35 36/36/36
f 36/36/36 35/35/35 37/37/37
f 36/36/36 37/37/37 22/22/22
f 22/22/22 37/37/37 24/24/24
f 24/24/24 38/38/38 25/25/25
f 25/25/25 38/38/38 39/39/39
f 25/25/25 39/39/39 27/27/27
f 27/27/27 39/39/39 40/40/40
f 27/27/27 40/40/40 29/29/29
f 29/29/29 40/40/40 41/41/41
f 29/29/29 41/41/41 31/31/31
f 31/31/31 41/41/41 42/42/42
f 31/31/31 42/42/42 33/33/33
f 33/33/33 42/42/42 43/43/43
f 33/33/33 43/43/43 35/35/35
f 35/35/35 43/43/43 44/44/44
f 35/35/35 44/44/44 37/37/37
f 37/37/37 44/44/44 45/45/45
f 37/37/37 45/45/45 24/24/24
f 24/24/24 45/45/45 38/38/38
f 32/32/32 34/34/34 46/46/46
f 34/34/34 36/36/36 46/46/46
f 47/47/47 32/32/32 46/46/46
f 47/47/47 46/46/46 48/48/48
f 49/49/49 47/47/47 48/48/48
f 50/50/50 49/49/49 48/48/48
f 46/46/46 50/50/50 48/48/48
f 50/50/50 23/23/23 49/49/49
f 22/22/22 23/23/23 50/50/50
f 36/36/36 22/22/22 50/50/50
f 46/46/46 36/36/36 50/50/50
f 23/23/23 26/26/26 49/49/49
f 26/26/26 28/28/28 49/49/49
f 49/49/49 28/28/28 47/47/47
f 28/28/28 30/30/30 47/47/47
f 30/30/30 32/32/32 47/47/47
f 51/51/51 53/53/53 52/52/52
f 52/52/52 53/53/53 54/54/54
f 52/52/52 54/54/54 55/55/55
f 55/55/55 54/54/54 56/56/56
f 55/55/55 56/56/56 57/57/57
f 57/57/57 56/56/56 58/58/58
f 57/57/57 58/58/58 59/59/59
f 59/59/59 58/58/58 60/60/60
f 59/59/59 60/60/60 61/61/61
f 61/61/61 60/60/60 62/62/62
f 61/61/61 62/62/62 63/63/63
f 63/63/63 62/62/62 64/64/64
f 63/63/63 64/64/64 65/65/65
f 65/65/65 64/64/64 66/66/66
f 65/65/65 66/66/66 51/51/51
f 51/51/51 66/66/66 53/53/53
f 53/53/53 67/67/67 54/54/54
f 54/54/54 67/67/67 68/68/68
f 54/54/54 68/68/68 56/56/56
f 56/56/56 68/68/68 69/69/69
f 56/56/56 69/69/69 58/58/58
f 58/58/58 69/69/69 70/70/70
f 58/58/58 70/70/70 60/60/60
f 60/60/60 70/70/70 71/71/71
f 60/60/60 71/71/71 62/62/62
f 62/62/62 71/71/71 72/72/72
f 62/62/62 72/72/72 64/64/64
f 64/64/64 72/72/72 73/73/73
f 64/64/64 73/73/73 66/66/66
f 66/66/66 73/73/73 74/74/74
f 66/66/66 74/74/74 53/53/53
f 53/53/53 74/74/74 67/67/67
f 61/61/61 63/63/63 75/75/75
f 63/63/63 65/65/65 75/75/75
f 76/76/76 61/61/61 75/75/75
f 76/76/76 75/75/75 77/77/77
f 78/78/78 76/76/76 77/77/77
f 79/79/79 78/78/78 77/77/77
f 75/75/75 79/79/79 77/77/77
f 79/79/79 52/52/52 78/78/78
f 51/51/51 52/52/52 79/79/79
f 65/65/65 51/51/51 79/79/79
f 75/75/75 65/65/65 79/79/79
f 52/52/52 55/55/55 78/78/78
f 55/55/55 57/57/57 78/78/78
f 78/78/78 57/57/57 76/76/76
f 57/57/57 59/59/59 76/76/76
f 59/59/59 61/61/61 76/76/76
f 80/80/80 82/82/82 81/81/81
f 81/81/81 82/82/82 83/83/83
f 81/81/81 83/83/83 84/84/84
f 84/84/84 83/83/83 85/85/85
f 84/84/84 85/85/85 86/86/86
f 86/86/86 85/85/85 87/87/87
f 86/86/86 87/87/87 88/88/88
f 88/88/88 87/87/87 89/89/89
f 88/88/88 89/89/89 90/90/90
f 90/90/90 89/89/89 91/91/91
f 90/90/90 91/91/91 92/92/92
f 92/92/92 91/91/91 93/93/93
f 92/92/92 93/93/93 94/94/94
f 94/94/94 93/93/93 95/95/95
f 94/94/94 95/95/95 80/80/80
f 80/80/80 95/95/95 82/82/82
f 94/94/94 80/80/80 96/96/96
f 80/80/80 81/81/81 96/96/96
f 96/96/96 81/81/81 97/97/97
f 81/81/81 84/84/84 97/97/97
f 84/84/84 86/86/86 97/97/97
f 96/96/96 97/97/97 98/98/98
f 97/97/97 99/99/99 98/98/98
f 97/97/97 86/86/86 99/99/99
f 86/86/86 88/88/88 99/99/99
f 88/88/88 90/90/90 99/99/99
f 99/99/99 100/100/100 98/98/98
f 100/100/100 96/96/96 98/98/98
f 99/99/99 90/90/90 100/100/100
f 90/90/90 92/92/92 100/100/100
f 92/92/92 94/94/94 100/100/100
f 100/100/100 94/94/94 96/96/96
