#Tree4_(93)_3144_401.obj

v 1.648996 -0.1087268 -0.2710432
v 0.9947533 1.197125 0.2054711
v 0.9725462 0.9077535 -1.046143
v 1.113348 -0.007759798 -1.027271
v 0.8603956 1.998779 -0.2360947
v 0.4648557 1.998779 -1.114191
v 0.8710243 3.322641 -0.8530292
v 1.077955 3.250427 -0.3773542
v 0.2644576 3.499787 -1.126117
v -0.4900604 1.998779 -1.477914
v -0.4019077 3.677775 -0.9827641
v -1.32109 2.538194 -1.155861
v -0.7282822 3.75481 -0.3128655
v -1.69369 2.566373 -0.330208
v -0.480724 3.682956 -0.02716093
v -1.444985 1.998779 0.6420015
v 0.1530213 3.507116 0.2253133
v -0.4900615 1.998779 1.00572
v 0.7959675 3.327577 0.0571977
v 0.4648541 1.998779 0.6419998
v 1.077955 3.250427 -0.3773542
v 0.8603956 1.998779 -0.2360947
v 1.207073 5.526218 -0.3408338
v 0.6444234 5.526218 -0.5738958
v 0.6444234 5.526218 -0.5738958
v 0.4113595 5.526218 -0.01124292
v 0.6444234 5.526218 -0.5738958
v 0.9740181 5.526218 0.2218111
v 1.207073 5.526218 -0.3408338
v 0.9740181 5.526218 0.2218111
v 0.9947533 1.197125 0.2054711
v 0.7959009 0.6271882 1.412253
v 1.312919 -0.08299191 0.6160775
v 1.331269 -0.2933443 1.52345
v 0.9643157 -1.052223 2.854057
v 0.4113595 5.526218 -0.01124292
v 0.4113595 5.526218 -0.01124292
v 0.9740181 5.526218 0.2218111
v -0.3533587 1.089863 1.163906
v 0.510565 -0.2495115 1.571656
v -0.3154325 -0.007759798 1.207775
v -1.437688 0.01500591 1.313034
v -1.155436 -0.6044034 1.360409
v -2.090554 -0.599919 2.243826
v -1.208841 0.769768 0.4236596
v -1.840533 1.998779 -0.2360955
v -1.425901 1.307367 -0.4120885
v -1.444987 1.998779 -1.114191
v -0.6717095 0.9077535 -1.046143
v 0.1186077 1.206413 -1.308779
v 0.2641685 0.2683377 -1.970745
v 0.8155907 -0.2463671 -1.928797
v -0.4572377 -0.1337112 -1.02727
v -0.06903708 -0.2463671 -1.928796
v -1.630361 0.07463427 -0.741152
v -1.336922 -0.4881959 -0.9694574
v -1.630361 0.07463427 -0.741152
v 0.2641685 0.2683377 -1.970745
v -0.001977182 -0.8139682 -3.040453
v -0.001977182 -0.8139682 -3.040453
v 0.2641685 0.2683377 -1.970745
v -1.630361 0.07463427 -0.741152
v -2.466261 -1.130942 -1.21601
v 2.12704 -0.2192227 -0.1883499
v 2.453197 0.3101302 0.2113386
v 0.9947533 1.197125 0.2054711
v 3.156649 -0.826737 0.3388966
v 2.453197 0.3101302 0.2113386
v 2.08991 -0.1782409 0.458674
v 1.312919 -0.08299191 0.6160775
v 3.156649 -0.826737 0.3388966
v -1.143344 -0.1337112 0.3631094
v -1.617382 -0.4927883 -0.4026584
v -1.630361 0.07463427 -0.741152
v -2.466261 -1.130942 -1.21601
v -1.657252 -0.4339224 0.8776566
v -1.437688 0.01500591 1.313034
v -2.090554 -0.599919 2.243826
v -1.630361 0.07463427 -0.741152
v -1.437688 0.01500591 1.313034
v 0.7959009 0.6271882 1.412253
v 0.9643157 -1.052223 2.854057
v -0.8967394 2.926876 -0.3255618
v -2.091598 4.022573 0.8340368
v -0.5626176 2.839557 -0.08052655
v -1.651234 4.286763 0.8074982
v -0.2117874 3.16222 -0.04012141
v 0.01893029 3.308532 -0.4167123
v -1.753201 4.405365 0.3179955
v -0.2324745 3.463918 -0.7067465
v -0.2744868 3.301548 -1.000766
v -2.193565 4.141176 0.3445341
v -0.749725 2.880481 -0.9743536
v -0.9401299 2.765478 -0.6139501
v -0.9401299 2.765478 -0.6139501
v -2.193565 4.141176 0.3445341
v -2.539769 5.52331 0.4039647
v -2.475173 5.523309 0.7358143
v -2.833232 5.52331 0.4257478
v -1.753201 4.405365 0.3179955
v -2.091598 4.022573 0.8340368
v -2.475173 5.523309 0.7358143
v -2.768631 5.52331 0.7576045
v -2.833232 5.52331 0.4257478
v -0.8058599 1.713094 -0.9715598
v -1.940495 3.014723 -1.967191
v -1.081216 1.483486 -0.7462552
v -2.036596 3.105563 -1.47027
v -1.238566 1.65237 -0.3272765
v -0.9392012 1.75097 0.01495549
v -1.568337 3.310784 -1.418388
v -0.646631 2.019552 -0.1022537
v -0.3244018 1.91954 -0.1295051
v -1.472232 3.219944 -1.91531
v -0.1928622 1.695827 -0.7095904
v -0.4890459 1.613798 -1.000995
v -0.4890459 1.613798 -1.000995
v -1.472232 3.219944 -1.91531
v -2.014301 4.672457 -1.985742
v -2.346193 4.609434 -1.998887
v -1.987467 4.774529 -2.260434
v -1.568337 3.310784 -1.418388
v -1.940495 3.014723 -1.967191
v -2.346193 4.609434 -1.998887
v -2.31937 4.711502 -2.273576
v -1.987467 4.774529 -2.260434

vn 0.2500064 0.4752699 -0.843573
vn 0.8046256 0.4740199 -0.3576071
vn 0.3215148 0.3570758 -0.8769978
vn 0.4814914 0.3716308 -0.793761
vn 0.8692299 0.139459 -0.4743317
vn 0.1233268 0.06812399 -0.990025
vn 0.2368441 -0.034691 -0.9709281
vn 0.8364167 -0.229188 -0.4978754
vn -0.3896345 0.2846749 -0.8758681
vn -0.5535052 0.03371199 -0.8321632
vn -0.7589201 0.548427 -0.3510954
vn -0.8885434 0.2998459 -0.3472509
vn -0.6541017 0.6427877 0.3987167
vn -0.7462527 0.4594558 0.4816712
vn -0.1511218 0.490514 0.8582298
vn -0.2689053 0.1787599 0.9464327
vn 0.4592418 0.1775949 0.8703774
vn 0.4051701 0.2419801 0.8816365
vn 0.9347938 -0.138798 0.3269491
vn 0.8990123 0.2325539 0.3710735
vn 0.8364167 -0.229188 -0.4978754
vn 0.8692299 0.139459 -0.4743317
vn 0.8633756 -0.3458401 -0.3673924
vn -0.6304152 0.6795754 -0.3751721
vn -0.6304152 0.6795754 -0.3751721
vn 0.0005330443 0.2286319 0.9735128
vn -0.6304152 0.6795754 -0.3751721
vn 0.8562178 -0.389785 0.3390557
vn 0.8633756 -0.3458401 -0.3673924
vn 0.8562178 -0.389785 0.3390557
vn 0.8046256 0.4740199 -0.3576071
vn 0.8291141 0.360433 0.4273849
vn 0.8610139 0.4422792 0.2510863
vn 0.7205347 0.6618493 0.2068462
vn 0.3106477 0.06659099 0.9481897
vn 0.0005330443 0.2286319 0.9735128
vn 0.0005330443 0.2286319 0.9735128
vn 0.8562178 -0.389785 0.3390557
vn 0.3324578 0.049349 0.9418261
vn 0.3106477 0.06659099 0.9481897
vn -0.9134823 -0.3025329 0.2720731
vn 0.3324578 0.049349 0.9418261
vn 0.3106477 0.06659099 0.9481897
vn -0.4954833 -0.191461 0.8472538
vn -0.4140421 -0.1878229 0.8906693
vn -0.8764266 0.126915 0.4645095
vn -0.9134823 -0.3025329 0.2720731
vn -0.9484799 0.07395096 -0.3080861
vn -0.8468462 -0.251599 -0.4685611
vn -0.4994763 -0.101271 -0.860388
vn -0.4994763 -0.101271 -0.860388
vn -0.2023794 0.33168 -0.9214288
vn -0.8934649 0.05232403 -0.4460747
vn -0.797032 -0.22901 -0.5588331
vn -0.9134823 -0.3025329 0.2720731
vn -0.797032 -0.22901 -0.5588331
vn -0.9134823 -0.3025329 0.2720731
vn -0.4994763 -0.101271 -0.860388
vn -0.2023794 0.33168 -0.9214288
vn -0.2023794 0.33168 -0.9214288
vn -0.4994763 -0.101271 -0.860388
vn -0.9134823 -0.3025329 0.2720731
vn -0.797032 -0.22901 -0.5588331
vn 0.3986163 0.8161831 -0.4182703
vn 0.6162066 0.5997311 -0.5105017
vn 0.8046256 0.4740199 -0.3576071
vn 0.7205347 0.6618493 0.2068462
vn 0.6162066 0.5997311 -0.5105017
vn 0.7205347 0.6618493 0.2068462
vn 0.8610139 0.4422792 0.2510863
vn 0.7205347 0.6618493 0.2068462
vn -0.8240156 0.1424 0.5483799
vn -0.4954833 -0.191461 0.8472538
vn -0.9134823 -0.3025329 0.2720731
vn -0.797032 -0.22901 -0.5588331
vn -0.4954833 -0.191461 0.8472538
vn 0.3324578 0.049349 0.9418261
vn -0.4954833 -0.191461 0.8472538
vn -0.9134823 -0.3025329 0.2720731
vn 0.3324578 0.049349 0.9418261
vn 0.8291141 0.360433 0.4273849
vn 0.3106477 0.06659099 0.9481897
vn -0.2445941 -0.8628667 0.4423062
vn -0.3478661 -0.5434508 0.7639701
vn 0.3923047 -0.750657 0.5316117
vn 0.8203079 0.09143602 0.5645657
vn 0.9505842 -0.114192 0.2887037
vn 0.7858299 0.5856197 -0.1987987
vn 0.4209044 0.6840867 -0.5957053
vn 0.2099294 0.835787 -0.507336
vn -0.5190007 0.6189021 -0.5895748
vn -0.8957852 -0.155831 -0.4162758
vn -0.8878353 0.190956 -0.4186697
vn -0.8862081 -0.4627653 0.02199137
vn -0.8862081 -0.4627653 0.02199137
vn -0.8957852 -0.155831 -0.4162758
vn 0.3547675 0.370975 -0.858206
vn 0.6096705 0.4915891 0.6218055
vn -0.8013103 -0.3125331 -0.5101224
vn 0.4209044 0.6840867 -0.5957053
vn -0.3478661 -0.5434508 0.7639701
vn 0.6096705 0.4915891 0.6218055
vn 0.04458907 0.1621339 0.9857608
vn -0.8013103 -0.3125331 -0.5101224
vn -0.3853054 -0.6759275 -0.6282211
vn -0.6799833 -0.3177881 -0.6607825
vn -0.5991239 -0.8002949 -0.0240514
vn -0.716022 -0.175644 0.6756195
vn -0.4715524 -0.4349001 0.7671376
vn 0.03918704 0.2376339 0.9705641
vn 0.5006238 0.4337419 0.749162
vn 0.4559093 0.6587548 0.5984887
vn 0.6810189 0.7206411 -0.1299596
vn 0.5856265 0.1549622 -0.7956308
vn 0.586517 0.4731117 -0.6573911
vn 0.1540601 -0.1000433 -0.9829836
vn 0.1540601 -0.1000433 -0.9829836
vn 0.5856265 0.1549622 -0.7956308
vn 0.7709178 0.1483921 0.6194075
vn -0.7302057 0.2770755 0.6245229
vn 0.658815 -0.03210646 -0.7516195
vn 0.5006238 0.4337419 0.749162
vn -0.6799833 -0.3177881 -0.6607825
vn -0.7302057 0.2770755 0.6245229
vn -0.9749632 0.2076827 -0.07946551
vn 0.658815 -0.03210646 -0.7516195

vt 0.03128052 0.3469238
vt 0.02098083 0.3811035
vt 0.04177856 0.3684082
vt 0.03814697 0.3459473
vt 0.02276611 0.3959961
vt 0.04354858 0.395752
vt 0.04064941 0.434082
vt 0.02258301 0.435791
vt 0.06384277 0.4343262
vt 0.06234741 0.3962402
vt 0.08276367 0.4355469
vt 0.08111572 0.407959
vt 0.09765625 0.4365234
vt 0.09967041 0.4067383
vt 0.1126099 0.4375
vt 0.1130981 0.3928223
vt 0.130127 0.439209
vt 0.1300049 0.3950195
vt 0.1516113 0.4384766
vt 0.1491699 0.3989258
vt 0.1682129 0.4372559
vt 0.1669922 0.4020996
vt 0.04025269 0.4936523
vt 0.06768799 0.4929199
vt 0.06768799 0.4929199
vt 0.1057739 0.4926758
vt 0.06768799 0.4929199
vt 0.1367188 0.4934082
vt 0.1651611 0.4941406
vt 0.1367188 0.4934082
vt 0.1706543 0.3869629
vt 0.1635742 0.3657227
vt 0.1831055 0.3806152
vt 0.18396 0.348877
vt 0.1702881 0.3166504
vt 0.1057739 0.4926758
vt 0.1057739 0.4926758
vt 0.1367188 0.4934082
vt 0.1357422 0.3745117
vt 0.1550293 0.3452148
vt 0.1451416 0.3503418
vt 0.1269531 0.3393555
vt 0.138916 0.3330078
vt 0.1308594 0.3168945
vt 0.1133423 0.3647461
vt 0.09954834 0.3955078
vt 0.09466553 0.3771973
vt 0.08105469 0.3979492
vt 0.07415771 0.3681641
vt 0.05825806 0.3747559
vt 0.05395508 0.3427734
vt 0.04519653 0.3320313
vt 0.07104492 0.345459
vt 0.05923462 0.3339844
vt 0.08972168 0.3439941
vt 0.08074951 0.3334961
vt 0.08972168 0.3439941
vt 0.05395508 0.3427734
vt 0.05123901 0.3146973
vt 0.05123901 0.3146973
vt 0.05395508 0.3427734
vt 0.08972168 0.3439941
vt 0.08709717 0.3164063
vt 0.02653503 0.3339844
vt 0.01992798 0.3444824
vt 0.02098083 0.3811035
vt 0.02056885 0.315918
vt 0.01992798 0.3444824
vt 0.00907135 0.3374023
vt 0.004844666 0.3596191
vt 0.02056885 0.315918
vt 0.1107178 0.3481445
vt 0.09783936 0.3349609
vt 0.08972168 0.3439941
vt 0.08709717 0.3164063
vt 0.1159668 0.3349609
vt 0.1269531 0.3393555
vt 0.1308594 0.3168945
vt 0.08972168 0.3439941
vt 0.1269531 0.3393555
vt 0.1635742 0.3657227
vt 0.1702881 0.3166504
vt 0.1189575 0.3955078
vt 0.1228027 0.4504395
vt 0.1253662 0.3933105
vt 0.1341553 0.4477539
vt 0.1331787 0.3930664
vt 0.1392822 0.3894043
vt 0.1452637 0.4487305
vt 0.1452637 0.3918457
vt 0.1491699 0.3884277
vt 0.1569824 0.4511719
vt 0.1594238 0.3896484
vt 0.1643066 0.3933105
vt 0.1153564 0.3920898
vt 0.1113892 0.4519043
vt 0.1470947 0.4968262
vt 0.1340332 0.4968262
vt 0.1560059 0.4968262
vt 0.1452637 0.4487305
vt 0.1228027 0.4504395
vt 0.1340332 0.4968262
vt 0.12146 0.4968262
vt 0.1110229 0.4968262
vt 0.07354736 0.3759766
vt 0.07739258 0.4306641
vt 0.07989502 0.3737793
vt 0.08874512 0.4282227
vt 0.08770752 0.373291
vt 0.09381104 0.369873
vt 0.09985352 0.4291992
vt 0.09985352 0.3720703
vt 0.1037598 0.3688965
vt 0.1115723 0.4313965
vt 0.1139526 0.3701172
vt 0.1188965 0.3737793
vt 0.06994629 0.3725586
vt 0.065979 0.4321289
vt 0.1016235 0.4770508
vt 0.08856201 0.4770508
vt 0.1105957 0.4770508
vt 0.09985352 0.4291992
vt 0.07739258 0.4306641
vt 0.08856201 0.4770508
vt 0.07598877 0.4770508
vt 0.06555176 0.4770508

g Tree4_(93)_3144_401
usemtl Tree4_(93)_3144_401
usemap Tree4_(93)_3144_401
f 1/1/1 3/3/3 2/2/2
f 1/1/1 4/4/4 3/3/3
f 3/3/3 5/5/5 2/2/2
f 3/3/3 6/6/6 5/5/5
f 5/5/5 6/6/6 7/7/7
f 5/5/5 7/7/7 8/8/8
f 6/6/6 9/9/9 7/7/7
f 6/6/6 10/10/10 9/9/9
f 10/10/10 11/11/11 9/9/9
f 10/10/10 12/12/12 11/11/11
f 12/12/12 13/13/13 11/11/11
f 12/12/12 14/14/14 13/13/13
f 14/14/14 15/15/15 13/13/13
f 14/14/14 16/16/16 15/15/15
f 16/16/16 17/17/17 15/15/15
f 16/16/16 18/18/18 17/17/17
f 18/18/18 19/19/19 17/17/17
f 18/18/18 20/20/20 19/19/19
f 20/20/20 21/21/21 19/19/19
f 20/20/20 22/22/22 21/21/21
f 8/8/8 7/7/7 23/23/23
f 7/7/7 24/24/24 23/23/23
f 7/7/7 9/9/9 24/24/24
f 9/9/9 11/11/11 25/25/25
f 11/11/11 13/13/13 26/26/26
f 11/11/11 26/26/26 27/27/27
f 17/17/17 19/19/19 28/28/28
f 19/19/19 21/21/21 29/29/29
f 19/19/19 29/29/29 30/30/30
f 31/31/31 22/22/22 20/20/20
f 20/20/20 32/32/32 31/31/31
f 33/33/33 31/31/31 32/32/32
f 33/33/33 32/32/32 34/34/34
f 34/34/34 32/32/32 35/35/35
f 13/13/13 15/15/15 36/36/36
f 15/15/15 38/38/38 37/37/37
f 15/15/15 17/17/17 38/38/38
f 39/39/39 40/40/40 32/32/32
f 39/39/39 41/41/41 40/40/40
f 41/41/41 39/39/39 42/42/42
f 41/41/41 42/42/42 43/43/43
f 43/43/43 42/42/42 44/44/44
f 39/39/39 32/32/32 20/20/20
f 39/39/39 20/20/20 18/18/18
f 39/39/39 18/18/18 16/16/16
f 39/39/39 16/16/16 45/45/45
f 45/45/45 16/16/16 46/46/46
f 45/45/45 46/46/46 47/47/47
f 47/47/47 46/46/46 48/48/48
f 47/47/47 48/48/48 49/49/49
f 49/49/49 48/48/48 10/10/10
f 49/49/49 10/10/10 50/50/50
f 50/50/50 10/10/10 6/6/6
f 50/50/50 6/6/6 3/3/3
f 50/50/50 3/3/3 51/51/51
f 49/49/49 50/50/50 51/51/51
f 3/3/3 52/52/52 51/51/51
f 3/3/3 4/4/4 52/52/52
f 53/53/53 49/49/49 51/51/51
f 53/53/53 51/51/51 54/54/54
f 47/47/47 49/49/49 55/55/55
f 49/49/49 53/53/53 56/56/56
f 49/49/49 56/56/56 57/57/57
f 10/10/10 48/48/48 12/12/12
f 48/48/48 14/14/14 12/12/12
f 48/48/48 46/46/46 14/14/14
f 46/46/46 16/16/16 14/14/14
f 58/58/58 52/52/52 59/59/59
f 54/54/54 61/61/61 60/60/60
f 62/62/62 56/56/56 63/63/63
f 1/1/1 65/65/65 64/64/64
f 1/1/1 66/66/66 65/65/65
f 64/64/64 65/65/65 67/67/67
f 2/2/2 69/69/69 68/68/68
f 2/2/2 70/70/70 69/69/69
f 68/68/68 69/69/69 71/71/71
f 72/72/72 74/74/74 73/73/73
f 72/72/72 45/45/45 74/74/74
f 73/73/73 74/74/74 75/75/75
f 45/45/45 72/72/72 76/76/76
f 45/45/45 76/76/76 77/77/77
f 77/77/77 76/76/76 78/78/78
f 45/45/45 47/47/47 79/79/79
f 39/39/39 45/45/45 80/80/80
f 81/81/81 40/40/40 82/82/82
f 83/83/83 85/85/85 84/84/84
f 85/85/85 86/86/86 84/84/84
f 85/85/85 87/87/87 86/86/86
f 87/87/87 88/88/88 86/86/86
f 88/88/88 89/89/89 86/86/86
f 88/88/88 90/90/90 89/89/89
f 90/90/90 91/91/91 89/89/89
f 91/91/91 92/92/92 89/89/89
f 91/91/91 93/93/93 92/92/92
f 93/93/93 94/94/94 92/92/92
f 95/95/95 83/83/83 84/84/84
f 95/95/95 84/84/84 96/96/96
f 86/86/86 89/89/89 97/97/97
f 86/86/86 97/97/97 98/98/98
f 89/89/89 99/99/99 97/97/97
f 100/100/100 92/92/92 99/99/99
f 101/101/101 86/86/86 102/102/102
f 84/84/84 102/102/102 103/103/103
f 96/96/96 84/84/84 103/103/103
f 96/96/96 103/103/103 104/104/104
f 105/105/105 107/107/107 106/106/106
f 107/107/107 108/108/108 106/106/106
f 107/107/107 109/109/109 108/108/108
f 109/109/109 110/110/110 108/108/108
f 110/110/110 111/111/111 108/108/108
f 110/110/110 112/112/112 111/111/111
f 112/112/112 113/113/113 111/111/111
f 113/113/113 114/114/114 111/111/111
f 113/113/113 115/115/115 114/114/114
f 115/115/115 116/116/116 114/114/114
f 117/117/117 105/105/105 106/106/106
f 117/117/117 106/106/106 118/118/118
f 108/108/108 111/111/111 119/119/119
f 108/108/108 119/119/119 120/120/120
f 111/111/111 121/121/121 119/119/119
f 122/122/122 114/114/114 121/121/121
f 123/123/123 108/108/108 124/124/124
f 106/106/106 124/124/124 125/125/125
f 118/118/118 106/106/106 125/125/125
f 118/118/118 125/125/125 126/126/126
