#Tree_conf2_(105)_3017_500.obj

v 2.22906 2.41453 -0.01388812
v 1.067522 2.895794 -0.4499969
v 1.566362 2.41453 -1.586004
v -0.4499969 2.895794 -1.067522
v -0.01388812 2.41453 -2.22906
v -1.586004 2.41453 -1.566362
v -1.253916 2.895794 0.007812502
v -2.22906 2.41453 0.01388812
v -0.436656 2.895794 1.073047
v -1.566362 2.41453 1.586004
v 0.01388812 2.41453 2.22906
v 0.8921772 2.895794 0.8811244
v 1.586003 2.41453 1.566359
v 0 3.673443 0
v 0.7697484 5.456536 -0.7697455
v 0.2848005 6.349499 -0.284802
v 1.759642E-06 6.349499 -0.4027703
v -2.839971E-07 5.456536 -1.088585
v -0.2847982 6.349499 -0.2848009
v -0.7697455 5.456536 -0.7697484
v -0.4027665 6.349499 -2.158857E-06
v -1.088585 5.456536 2.839971E-07
v -0.2848009 6.349499 0.2847982
v -0.7697484 5.456536 0.7697455
v 1.634894E-06 6.349499 0.4027661
v 2.839971E-07 5.456536 1.088585
v 0.2848016 6.349499 0.2847967
v 0.7697452 5.456536 0.7697446
v 0.4027699 6.349499 -2.034109E-06
v 1.088585 5.456536 3.509753E-06
v 0 7.127673 0
v 1.482309 3.35846 1.321717
v 0.9566612 3.86839 0.3851413
v 1.918953 3.351292 -0.08712271
v 0.2964975 3.862013 -0.8680059
v 1.231502 3.344651 -1.392073
v -0.1773488 3.34243 -1.828712
v -0.8338447 3.863356 -0.6041108
v -1.482308 3.345927 -1.141267
v -0.8861144 3.869257 0.555443
v -1.918956 3.353096 0.2675724
v -1.231504 3.359736 1.572523
v 0.09976356 3.872375 1.168112
v 0.1773466 3.361958 2.009162
v -1.213053E-06 4.729911 0.1149924
v -1.323044 5.128105 0.9046301
v -0.5031175 5.474663 0.7122217
v -0.4085405 5.021135 1.517637
v 0.5287378 5.308237 0.5056286
v 0.6659742 4.847831 1.302497
v 1.271063 4.709711 0.3852516
v 0.5758551 5.256999 -0.3610483
v 1.052276 4.687684 -0.6968002
v -0.2408051 5.365918 -0.6453696
v 0.1377696 4.794655 -1.309799
v -0.9367421 4.967959 -1.094667
v -0.8834122 5.49236 -0.06887721
v -1.541831 5.10608 -0.1774179
v 0.01565699 6.137804 0.05303118
v 1.425084 4.340247 -0.8985671
v 0.5214437 4.778743 -0.7078212
v 0.3811199 4.334083 -1.61885
v -0.676545 4.77326 -0.4880228
v -0.8663912 4.328372 -1.389966
v -1.586677 4.326462 -0.3459907
v -0.7503849 4.774414 0.5073749
v -1.3578 4.32947 0.9015289
v 0.1877605 4.779488 0.8481863
v -0.3138363 4.335634 1.621808
v 0.9336753 4.341344 1.392928
v 0.9438224 4.782169 0.1965379
v 1.653957 4.343255 0.348949
v 0.05396206 5.519577 0.007842643

vn 0.6891171 0.7214358 0.0681767
vn 0.3429199 0.92652 -0.154811
vn 0.5354887 0.7214344 -0.439072
vn -0.06147028 0.92652 -0.37119
vn 0.06817675 0.7214358 -0.6891171
vn -0.4390709 0.721436 -0.5354874
vn -0.4007547 0.9153271 -0.03964791
vn -0.6891171 0.7214358 -0.0681767
vn -0.1958028 0.9098089 0.3659358
vn -0.5354887 0.7214344 0.439072
vn -0.06817675 0.7214358 0.6891171
vn 0.255341 0.9153271 0.3114118
vn 0.4390709 0.721436 0.5354874
vn 0 1 0
vn 0.6874907 0.4664523 -0.5565778
vn 0.6278963 0.5893607 -0.5083309
vn 0.08454505 0.5893612 -0.8034335
vn 0.0925694 0.4664526 -0.8796891
vn -0.5083307 0.5893613 -0.6278958
vn -0.5565778 0.4664523 -0.6874907
vn -0.8034334 0.5893614 -0.08454504
vn -0.8796891 0.4664526 -0.0925694
vn -0.6278955 0.5893613 0.5083312
vn -0.6874907 0.4664523 0.5565778
vn -0.08454507 0.5893611 0.8034337
vn -0.0925694 0.4664526 0.8796891
vn 0.5083315 0.5893606 0.6278958
vn 0.5565778 0.4664523 0.6874907
vn 0.8034339 0.5893607 0.08454509
vn 0.8796891 0.4664526 0.0925694
vn 0 1 0
vn 0.5497994 0.685831 0.4768189
vn 0.439418 0.8907663 0.1159626
vn 0.7702404 0.6344045 -0.06527403
vn 0.2317027 0.889865 -0.3930066
vn 0.5455214 0.589 -0.596226
vn 0.01692714 0.5742365 -0.8185145
vn -0.3347754 0.874849 -0.3500924
vn -0.5183057 0.5975742 -0.6117714
vn -0.4628633 0.8681709 0.1789884
vn -0.7575862 0.6471028 -0.08556386
vn -0.5489124 0.6952757 0.4639901
vn -0.005535822 0.8767521 0.4809108
vn -0.001459256 0.7119436 0.7022351
vn 0.01229687 0.9930726 -0.1168575
vn -0.7298453 0.5627667 0.3880973
vn -0.1497948 0.8928517 0.4247085
vn -0.2416526 0.5627652 0.7905057
vn 0.4786053 0.8018581 0.357716
vn 0.3880973 0.5627667 0.7298453
vn 0.7905046 0.562767 0.2416523
vn 0.6040184 0.7447317 -0.2837894
vn 0.7298453 0.5627667 -0.3880973
vn 0.06841779 0.8006369 -0.5952306
vn 0.2416526 0.5627652 -0.7905057
vn -0.3880973 0.5627667 -0.7298453
vn -0.4117251 0.8897872 -0.1968787
vn -0.7905046 0.562767 -0.2416523
vn 0 1 0
vn 0.6193045 0.6858311 -0.3822272
vn 0.2419516 0.8907662 -0.3847011
vn 0.1678333 0.6344045 -0.7545614
vn -0.3058298 0.889865 -0.3385388
vn -0.4060069 0.589 -0.6987398
vn -0.7760713 0.5742365 -0.2607028
vn -0.4341233 0.8748488 0.2148869
vn -0.7386836 0.5975742 0.3118519
vn 0.03252241 0.8681709 0.4951987
vn -0.3080009 0.6471027 0.6974191
vn 0.2787977 0.6952757 0.6624677
vn 0.457291 0.8767521 0.1489654
vn 0.6697242 0.7119437 0.2112005
vn -0.107846 0.9930726 -0.0466489

vt 0.2459717 0.0847168
vt 0.213623 0.08380127
vt 0.2144775 0.1161499
vt 0.1708984 0.08374023
vt 0.1700439 0.1160889
vt 0.1385498 0.08459473
vt 0.1621094 0.04983521
vt 0.1385498 0.0401001
vt 0.1923828 0.03216553
vt 0.1700439 0.008682251
vt 0.2145996 0.008712769
vt 0.2225342 0.04989624
vt 0.2460938 0.04019165
vt 0.1922607 0.06237793
vt 0.3461914 0.0803833
vt 0.3190918 0.06854248
vt 0.3068848 0.08081055
vt 0.3181152 0.1083374
vt 0.2895508 0.08081055
vt 0.2785645 0.1083374
vt 0.2770996 0.06854248
vt 0.2504883 0.08032227
vt 0.2770996 0.05114746
vt 0.2504883 0.04064941
vt 0.2895508 0.03884888
vt 0.2785645 0.01256561
vt 0.3068848 0.03887939
vt 0.3183594 0.01262665
vt 0.3190918 0.0512085
vt 0.3464355 0.04077148
vt 0.2978516 0.05935669
vt 0.2459717 0.0847168
vt 0.213623 0.08380127
vt 0.2144775 0.1161499
vt 0.1708984 0.08374023
vt 0.1700439 0.1160889
vt 0.1385498 0.08459473
vt 0.1621094 0.04983521
vt 0.1385498 0.0401001
vt 0.1923828 0.03216553
vt 0.1700439 0.008682251
vt 0.2145996 0.008712769
vt 0.2225342 0.04989624
vt 0.2460938 0.04019165
vt 0.1922607 0.06237793
vt 0.2459717 0.0847168
vt 0.213623 0.08380127
vt 0.2144775 0.1161499
vt 0.1708984 0.08374023
vt 0.1700439 0.1160889
vt 0.1385498 0.08459473
vt 0.1621094 0.04983521
vt 0.1385498 0.0401001
vt 0.1923828 0.03216553
vt 0.1700439 0.008682251
vt 0.2145996 0.008712769
vt 0.2225342 0.04989624
vt 0.2460938 0.04019165
vt 0.1922607 0.06237793
vt 0.2459717 0.0847168
vt 0.213623 0.08380127
vt 0.2144775 0.1161499
vt 0.1708984 0.08374023
vt 0.1700439 0.1160889
vt 0.1385498 0.08459473
vt 0.1621094 0.04983521
vt 0.1385498 0.0401001
vt 0.1923828 0.03216553
vt 0.1700439 0.008682251
vt 0.2145996 0.008712769
vt 0.2225342 0.04989624
vt 0.2460938 0.04019165
vt 0.1922607 0.06237793

g Tree_conf2_(105)_3017_500
usemtl Tree_conf2_(105)_3017_500
usemap Tree_conf2_(105)_3017_500
f 1/1/1 3/3/3 2/2/2
f 3/3/3 4/4/4 2/2/2
f 3/3/3 5/5/5 4/4/4
f 5/5/5 6/6/6 4/4/4
f 6/6/6 7/7/7 4/4/4
f 6/6/6 8/8/8 7/7/7
f 8/8/8 9/9/9 7/7/7
f 8/8/8 10/10/10 9/9/9
f 10/10/10 11/11/11 9/9/9
f 11/11/11 12/12/12 9/9/9
f 11/11/11 13/13/13 12/12/12
f 13/13/13 2/2/2 12/12/12
f 13/13/13 1/1/1 2/2/2
f 2/2/2 4/4/4 14/14/14
f 4/4/4 7/7/7 14/14/14
f 7/7/7 9/9/9 14/14/14
f 9/9/9 12/12/12 14/14/14
f 12/12/12 2/2/2 14/14/14
f 15/15/15 17/17/17 16/16/16
f 15/15/15 18/18/18 17/17/17
f 18/18/18 19/19/19 17/17/17
f 18/18/18 20/20/20 19/19/19
f 20/20/20 21/21/21 19/19/19
f 20/20/20 22/22/22 21/21/21
f 22/22/22 23/23/23 21/21/21
f 22/22/22 24/24/24 23/23/23
f 24/24/24 25/25/25 23/23/23
f 24/24/24 26/26/26 25/25/25
f 26/26/26 27/27/27 25/25/25
f 26/26/26 28/28/28 27/27/27
f 28/28/28 29/29/29 27/27/27
f 28/28/28 30/30/30 29/29/29
f 30/30/30 16/16/16 29/29/29
f 30/30/30 15/15/15 16/16/16
f 16/16/16 17/17/17 31/31/31
f 17/17/17 19/19/19 31/31/31
f 19/19/19 21/21/21 31/31/31
f 21/21/21 23/23/23 31/31/31
f 23/23/23 25/25/25 31/31/31
f 25/25/25 27/27/27 31/31/31
f 27/27/27 29/29/29 31/31/31
f 29/29/29 16/16/16 31/31/31
f 32/32/32 34/34/34 33/33/33
f 34/34/34 35/35/35 33/33/33
f 34/34/34 36/36/36 35/35/35
f 36/36/36 37/37/37 35/35/35
f 37/37/37 38/38/38 35/35/35
f 37/37/37 39/39/39 38/38/38
f 39/39/39 40/40/40 38/38/38
f 39/39/39 41/41/41 40/40/40
f 41/41/41 42/42/42 40/40/40
f 42/42/42 43/43/43 40/40/40
f 42/42/42 44/44/44 43/43/43
f 44/44/44 33/33/33 43/43/43
f 44/44/44 32/32/32 33/33/33
f 33/33/33 35/35/35 45/45/45
f 35/35/35 38/38/38 45/45/45
f 38/38/38 40/40/40 45/45/45
f 40/40/40 43/43/43 45/45/45
f 43/43/43 33/33/33 45/45/45
f 46/46/46 48/48/48 47/47/47
f 48/48/48 49/49/49 47/47/47
f 48/48/48 50/50/50 49/49/49
f 50/50/50 51/51/51 49/49/49
f 51/51/51 52/52/52 49/49/49
f 51/51/51 53/53/53 52/52/52
f 53/53/53 54/54/54 52/52/52
f 53/53/53 55/55/55 54/54/54
f 55/55/55 56/56/56 54/54/54
f 56/56/56 57/57/57 54/54/54
f 56/56/56 58/58/58 57/57/57
f 58/58/58 47/47/47 57/57/57
f 58/58/58 46/46/46 47/47/47
f 47/47/47 49/49/49 59/59/59
f 49/49/49 52/52/52 59/59/59
f 52/52/52 54/54/54 59/59/59
f 54/54/54 57/57/57 59/59/59
f 57/57/57 47/47/47 59/59/59
f 60/60/60 62/62/62 61/61/61
f 62/62/62 63/63/63 61/61/61
f 62/62/62 64/64/64 63/63/63
f 64/64/64 65/65/65 63/63/63
f 65/65/65 66/66/66 63/63/63
f 65/65/65 67/67/67 66/66/66
f 67/67/67 68/68/68 66/66/66
f 67/67/67 69/69/69 68/68/68
f 69/69/69 70/70/70 68/68/68
f 70/70/70 71/71/71 68/68/68
f 70/70/70 72/72/72 71/71/71
f 72/72/72 61/61/61 71/71/71
f 72/72/72 60/60/60 61/61/61
f 61/61/61 63/63/63 73/73/73
f 63/63/63 66/66/66 73/73/73
f 66/66/66 68/68/68 73/73/73
f 68/68/68 71/71/71 73/73/73
f 71/71/71 61/61/61 73/73/73
