#Tree_conf1_(82)_2661_630.obj

v 0.1324653 -0.04437639 0.02973985
v 0.05209761 0.3509289 0.01169511
v 0.03219884 0.3509289 -0.04954888
v 0.08186775 -0.04437639 -0.1259827
v -0.03219802 0.3509289 -0.0495477
v -0.08186773 -0.04437639 -0.1259815
v -0.05209925 0.3509289 0.01169529
v -0.1324662 -0.04437639 0.02974154
v 7.093715E-07 0.3509289 0.0495492
v -2.195272E-07 -0.04437639 0.1259801
v 0.05209761 0.3509289 0.01169511
v 0.1324653 -0.04437639 0.02973985
v -0.01651658 2.018247 -0.02541647
v 0.01651634 2.018247 -0.02541559
v 0.0267226 2.018247 0.005999347
v 0.0267226 2.018247 0.005999347
v 1.197554E-07 2.018247 0.02541603
v -0.02672428 2.018247 0.005999713

vn 0.8974857 0.203269 0.3914092
vn 0.9091396 0.08719235 0.4072621
vn 0.6670369 0.0971316 -0.7386653
vn 0.648649 0.2244588 -0.7272359
vn -0.4986702 0.09713166 -0.8613321
vn -0.4830633 0.224459 -0.8463258
vn -0.9739991 0.08719229 0.2091008
vn -0.9593008 0.203269 0.19602
vn -0.1043067 0.0811393 0.9912293
vn -0.1027488 0.1898378 0.9764237
vn 0.9091396 0.08719235 0.4072621
vn 0.8974857 0.203269 0.3914092
vn -0.5001069 0.01723529 -0.8657918
vn 0.6693702 0.01723531 -0.7427287
vn 0.913165 0.01552718 0.4072942
vn 0.913165 0.01552718 0.4072942
vn -0.1046408 0.01447243 0.9944043
vn -0.9779428 0.01552705 0.2082948

vt 0.4238281 0.003742218
vt 0.4238281 0.02593994
vt 0.4316406 0.02593994
vt 0.4316406 0.003742218
vt 0.4394531 0.02593994
vt 0.4394531 0.003740311
vt 0.4472656 0.02593994
vt 0.4472656 0.003740311
vt 0.4550781 0.02593994
vt 0.4550781 0.003740311
vt 0.4628906 0.02593994
vt 0.4628906 0.003738403
vt 0.4394531 0.1196289
vt 0.4318848 0.1196289
vt 0.4240723 0.1196289
vt 0.4628906 0.1195679
vt 0.4550781 0.1196289
vt 0.4472656 0.1196289

g Tree_conf1_(82)_2661_630
usemtl Tree_conf1_(82)_2661_630
usemap Tree_conf1_(82)_2661_630
f 1/1/1 3/3/3 2/2/2
f 1/1/1 4/4/4 3/3/3
f 4/4/4 5/5/5 3/3/3
f 4/4/4 6/6/6 5/5/5
f 6/6/6 7/7/7 5/5/5
f 6/6/6 8/8/8 7/7/7
f 8/8/8 9/9/9 7/7/7
f 8/8/8 10/10/10 9/9/9
f 10/10/10 11/11/11 9/9/9
f 10/10/10 12/12/12 11/11/11
f 3/3/3 5/5/5 13/13/13
f 3/3/3 13/13/13 14/14/14
f 2/2/2 3/3/3 14/14/14
f 2/2/2 14/14/14 15/15/15
f 9/9/9 11/11/11 16/16/16
f 9/9/9 16/16/16 17/17/17
f 7/7/7 9/9/9 17/17/17
f 7/7/7 17/17/17 18/18/18
f 5/5/5 18/18/18 13/13/13
f 5/5/5 7/7/7 18/18/18
