#Tree1_big_(37)_3232_455.obj

v -0.6182508 9.078475 -2.208994
v -1.956625 9.078475 -1.654622
v -0.6182499 7.871802 -2.873621
v -2.426587 7.871802 -2.124585
v -2.510994 9.078475 -0.3162468
v -3.175621 7.871802 -0.3162478
v -1.956625 9.078475 1.022125
v -2.426588 7.871802 1.492088
v -0.6182514 9.078475 1.576497
v -0.6182512 7.871802 2.24113
v 0.7201257 9.078475 1.022127
v 1.190088 7.871802 1.49209
v 1.274498 9.078475 -0.3162462
v 1.939127 7.871802 -0.3162485
v 0.7201276 9.078475 -1.654623
v 1.190088 7.871802 -2.124588
v -0.6182509 6.453654 -3.014158
v -2.525964 6.453654 -2.223964
v -3.316157 6.453654 -0.3162467
v -2.525965 6.453654 1.591462
v -0.6182501 6.453654 2.381666
v 1.289466 6.453654 1.591461
v 2.079669 6.453654 -0.3162507
v 1.289461 6.453654 -2.223964
v 0.189533 9.631275 0.01834533
v -0.952843 9.631275 0.4915323
v -0.6182505 9.738364 -0.3162459
v -1.42603 9.631275 -0.6508436
v -0.2836561 9.631275 -1.124027
v -0.6948276 7.599214 2.493764
v -1.767247 7.397913 2.845511
v -0.6220937 7.128533 1.599835
v -2.180309 6.836048 2.110914
v -2.243671 7.011633 3.814095
v -2.872546 6.274788 3.518246
v -1.845011 6.666648 4.832127
v -2.293296 5.77353 4.99743
v -0.8047967 6.565046 5.303268
v -0.7818822 5.625905 5.681984
v 0.2676265 6.766343 4.951515
v 0.7763308 5.918388 5.170908
v 0.7440525 7.152624 3.982937
v 1.468567 6.47965 3.763571
v 0.3453887 7.49761 2.964903
v 0.8893169 6.980906 2.284387
v -0.5593107 6.361987 1.12892
v -2.24591 6.045405 1.6821
v -2.995172 5.4379 3.20539
v -2.368203 4.895342 4.806451
v -0.7322586 4.735554 5.547409
v 0.9543412 5.052135 4.99422
v 1.703609 5.659639 3.470929
v 1.076631 6.202197 1.869875
v -0.1455843 7.368665 4.309996
v -1.060961 7.196846 4.610227
v -0.7827331 7.567375 4.075845
v -1.401233 7.491312 3.741279
v -0.4858709 7.663128 3.441049
v 4.854212 6.005301 -0.0964471
v 3.768891 6.251245 -1.02389
v 5.126349 4.682513 -0.3684099
v 3.659911 5.014816 -1.62152
v 2.371279 6.609352 -0.893406
v 1.771546 5.498672 -1.445214
v 1.480095 6.869849 0.2185735
v 0.5674191 5.850641 0.05723169
v 1.617371 6.880144 1.660661
v 0.7528965 5.864551 2.005702
v 2.702699 6.634201 2.588108
v 2.219333 5.532247 3.258816
v 4.100305 6.276092 2.457625
v 4.107703 5.048391 3.082508
v 4.991495 6.015593 1.345644
v 5.31183 4.69642 1.580063
v 4.898442 3.275937 -0.3907058
v 3.351425 3.626502 -1.712676
v 1.359277 4.136947 -1.526678
v 0.0889806 4.508259 0.05832643
v 0.2846539 4.522932 2.113881
v 1.831681 4.172366 3.435858
v 3.823823 3.661921 3.249861
v 5.094114 3.290609 1.664844
v 3.454331 6.984561 1.63575
v 2.527942 7.194488 0.8441267
v 3.397757 7.082113 0.7621254
v 3.288618 6.972137 -0.1050093
v 4.214999 6.762213 0.6866128

vn 0.7124759 0.5420592 -0.4455894
vn 0.1887173 0.5420586 -0.8188761
vn 0.8049605 0.3140009 -0.5034302
vn 0.2132141 0.3140011 -0.9251719
vn -0.4455894 0.5420592 -0.7124759
vn -0.5034302 0.3140009 -0.8049605
vn -0.8188758 0.542059 -0.188718
vn -0.9251719 0.3140011 -0.2132141
vn -0.7124759 0.5420592 0.4455894
vn -0.8049605 0.3140009 0.5034302
vn -0.1887166 0.542059 0.8188761
vn -0.2132141 0.3140011 0.9251719
vn 0.4455894 0.5420592 0.7124759
vn 0.5034302 0.3140009 0.8049605
vn 0.8188761 0.542059 0.1887166
vn 0.9251722 0.3140009 0.2132134
vn 0.8367324 0.1613551 -0.5233006
vn 0.2216297 0.161355 -0.9616885
vn -0.5233006 0.1613551 -0.8367324
vn -0.9616885 0.161355 -0.2216297
vn -0.8367324 0.1613551 0.5233006
vn -0.2216297 0.161355 0.9616885
vn 0.5233006 0.1613551 0.8367324
vn 0.9616887 0.1613549 0.2216291
vn 0.1019181 0.9538103 0.2825928
vn -0.2825933 0.9538102 0.1019173
vn 0 1 0
vn -0.1019186 0.95381 -0.2825936
vn 0.2825928 0.9538103 -0.1019181
vn 0.5088181 0.7981869 -0.322493
vn 0.02249175 0.6852556 -0.7279552
vn 0.6715982 0.6220729 -0.4024689
vn 0.1221428 0.4944831 -0.8605624
vn -0.5799358 0.468548 -0.6664362
vn -0.5584843 0.249645 -0.7910579
vn -0.9455705 0.275008 -0.1739738
vn -0.9715812 0.030982 -0.2346701
vn -0.8602284 0.2180079 0.460955
vn -0.8751612 -0.03341699 0.4826761
vn -0.3739007 0.330939 0.8664165
vn -0.3257058 0.09417299 0.9407694
vn 0.2285265 0.547647 0.8048965
vn 0.3549222 0.339011 0.8712645
vn 0.5941609 0.7411867 0.312434
vn 0.7680187 0.557674 0.314876
vn 0.7516023 0.4919271 -0.4394335
vn 0.1804605 0.3593008 -0.9156075
vn -0.5270312 0.1047991 -0.8433595
vn -0.9564329 -0.122495 -0.2650113
vn -0.8562071 -0.189435 0.4806493
vn -0.2850645 -0.056809 0.9568234
vn 0.4224274 0.1976929 0.8845748
vn 0.8518287 0.4249861 0.3062266
vn -0.2277319 0.885857 0.4042222
vn -0.5755735 0.7939746 0.1957537
vn -0.3241433 0.9373471 0.1277167
vn -0.391901 0.9059739 -0.1600781
vn -0.04406047 0.9978563 0.04838993
vn 0.7961808 0.331016 0.5064824
vn 0.8897864 0.4402091 -0.1203998
vn 0.8530314 0.08483202 0.5149184
vn 0.9587874 0.2082001 -0.1933376
vn 0.5116438 0.5992017 -0.6157743
vn 0.5315598 0.3878301 -0.7530152
vn -0.1167344 0.714857 -0.6894581
vn -0.1783877 0.5184991 -0.8362634
vn -0.6272553 0.719427 -0.2982875
vn -0.7551771 0.523662 -0.3943166
vn -0.7208602 0.610234 0.3285956
vn -0.8609332 0.4002951 0.313939
vn -0.3427169 0.4512419 0.8239695
vn -0.4337044 0.2206639 0.8736178
vn 0.2856616 0.335586 0.8976521
vn 0.276243 0.08999498 0.956865
vn 0.8609843 -0.07173201 0.503548
vn 0.9709146 0.05650397 -0.2326629
vn 0.5268243 0.243225 -0.814431
vn -0.2111447 0.379052 -0.9009647
vn -0.8107004 0.384418 -0.441574
vn -0.9206303 0.2561819 0.2946364
vn -0.4765387 0.06946103 0.8764052
vn 0.2614293 -0.06636602 0.9629384
vn -0.05437073 0.9129925 0.4043373
vn -0.06782403 0.9976278 -0.01177386
vn 0.1558193 0.9689379 0.1920404
vn 0.3516144 0.9353735 -0.0379965
vn 0.3650676 0.850738 0.3781144

vt 0.4470215 0.4243164
vt 0.4257813 0.4155273
vt 0.4472656 0.4458008
vt 0.4106445 0.4306641
vt 0.4169922 0.3942871
vt 0.3955078 0.3942871
vt 0.4257813 0.3728027
vt 0.4106445 0.3579102
vt 0.4470215 0.3642578
vt 0.4470215 0.3427734
vt 0.4685059 0.3730469
vt 0.4833984 0.357666
vt 0.4770508 0.3942871
vt 0.4985352 0.394043
vt 0.4682617 0.4155273
vt 0.4833984 0.4306641
vt 0.4470215 0.4689941
vt 0.394043 0.4470215
vt 0.3723145 0.394043
vt 0.394043 0.3413086
vt 0.4470215 0.3193359
vt 0.5 0.3413086
vt 0.5219727 0.3942871
vt 0.5 0.4472656
vt 0.4609375 0.3884277
vt 0.4411621 0.3803711
vt 0.4470215 0.3942871
vt 0.4331055 0.3999023
vt 0.4528809 0.407959
vt 0.3144531 0.4064941
vt 0.2939453 0.3986816
vt 0.3151855 0.4223633
vt 0.2832031 0.4101563
vt 0.2856445 0.3781738
vt 0.2697754 0.3789063
vt 0.293457 0.357666
vt 0.2817383 0.3469238
vt 0.3139648 0.3493652
vt 0.3132324 0.333252
vt 0.3344727 0.3571777
vt 0.3452148 0.345459
vt 0.3427734 0.3776855
vt 0.3586426 0.3769531
vt 0.3349609 0.3981934
vt 0.3464355 0.4089355
vt 0.3132324 0.4384766
vt 0.2705078 0.420166
vt 0.253418 0.3769531
vt 0.2717285 0.3342285
vt 0.3151855 0.3171387
vt 0.357666 0.3354492
vt 0.375 0.3786621
vt 0.3564453 0.4213867
vt 0.3261719 0.3720703
vt 0.3083496 0.3659668
vt 0.314209 0.3779297
vt 0.3022461 0.3837891
vt 0.3200684 0.3898926
vt 0.4470215 0.4243164
vt 0.4257813 0.4155273
vt 0.4472656 0.4458008
vt 0.4106445 0.4306641
vt 0.4169922 0.3942871
vt 0.3955078 0.3942871
vt 0.4257813 0.3728027
vt 0.4106445 0.3579102
vt 0.4470215 0.3642578
vt 0.4470215 0.3427734
vt 0.4685059 0.3730469
vt 0.4833984 0.357666
vt 0.4770508 0.3942871
vt 0.4985352 0.394043
vt 0.4682617 0.4155273
vt 0.4833984 0.4306641
vt 0.4470215 0.4689941
vt 0.394043 0.4470215
vt 0.3723145 0.394043
vt 0.394043 0.3413086
vt 0.4470215 0.3193359
vt 0.5 0.3413086
vt 0.5219727 0.3942871
vt 0.5 0.4472656
vt 0.4609375 0.3884277
vt 0.4411621 0.3803711
vt 0.4470215 0.3942871
vt 0.4331055 0.3999023
vt 0.4528809 0.407959

g Tree1_big_(37)_3232_455
usemtl Tree1_big_(37)_3232_455
usemap Tree1_big_(37)_3232_455
f 1/1/1 3/3/3 2/2/2
f 2/2/2 3/3/3 4/4/4
f 2/2/2 4/4/4 5/5/5
f 5/5/5 4/4/4 6/6/6
f 5/5/5 6/6/6 7/7/7
f 7/7/7 6/6/6 8/8/8
f 7/7/7 8/8/8 9/9/9
f 9/9/9 8/8/8 10/10/10
f 9/9/9 10/10/10 11/11/11
f 11/11/11 10/10/10 12/12/12
f 11/11/11 12/12/12 13/13/13
f 13/13/13 12/12/12 14/14/14
f 13/13/13 14/14/14 15/15/15
f 15/15/15 14/14/14 16/16/16
f 15/15/15 16/16/16 1/1/1
f 1/1/1 16/16/16 3/3/3
f 3/3/3 17/17/17 4/4/4
f 4/4/4 17/17/17 18/18/18
f 4/4/4 18/18/18 6/6/6
f 6/6/6 18/18/18 19/19/19
f 6/6/6 19/19/19 8/8/8
f 8/8/8 19/19/19 20/20/20
f 8/8/8 20/20/20 10/10/10
f 10/10/10 20/20/20 21/21/21
f 10/10/10 21/21/21 12/12/12
f 12/12/12 21/21/21 22/22/22
f 12/12/12 22/22/22 14/14/14
f 14/14/14 22/22/22 23/23/23
f 14/14/14 23/23/23 16/16/16
f 16/16/16 23/23/23 24/24/24
f 16/16/16 24/24/24 3/3/3
f 3/3/3 24/24/24 17/17/17
f 11/11/11 13/13/13 25/25/25
f 13/13/13 15/15/15 25/25/25
f 26/26/26 11/11/11 25/25/25
f 26/26/26 25/25/25 27/27/27
f 28/28/28 26/26/26 27/27/27
f 29/29/29 28/28/28 27/27/27
f 25/25/25 29/29/29 27/27/27
f 29/29/29 2/2/2 28/28/28
f 1/1/1 2/2/2 29/29/29
f 15/15/15 1/1/1 29/29/29
f 25/25/25 15/15/15 29/29/29
f 2/2/2 5/5/5 28/28/28
f 5/5/5 7/7/7 28/28/28
f 28/28/28 7/7/7 26/26/26
f 7/7/7 9/9/9 26/26/26
f 9/9/9 11/11/11 26/26/26
f 30/30/30 32/32/32 31/31/31
f 31/31/31 32/32/32 33/33/33
f 31/31/31 33/33/33 34/34/34
f 34/34/34 33/33/33 35/35/35
f 34/34/34 35/35/35 36/36/36
f 36/36/36 35/35/35 37/37/37
f 36/36/36 37/37/37 38/38/38
f 38/38/38 37/37/37 39/39/39
f 38/38/38 39/39/39 40/40/40
f 40/40/40 39/39/39 41/41/41
f 40/40/40 41/41/41 42/42/42
f 42/42/42 41/41/41 43/43/43
f 42/42/42 43/43/43 44/44/44
f 44/44/44 43/43/43 45/45/45
f 44/44/44 45/45/45 30/30/30
f 30/30/30 45/45/45 32/32/32
f 32/32/32 46/46/46 33/33/33
f 33/33/33 46/46/46 47/47/47
f 33/33/33 47/47/47 35/35/35
f 35/35/35 47/47/47 48/48/48
f 35/35/35 48/48/48 37/37/37
f 37/37/37 48/48/48 49/49/49
f 37/37/37 49/49/49 39/39/39
f 39/39/39 49/49/49 50/50/50
f 39/39/39 50/50/50 41/41/41
f 41/41/41 50/50/50 51/51/51
f 41/41/41 51/51/51 43/43/43
f 43/43/43 51/51/51 52/52/52
f 43/43/43 52/52/52 45/45/45
f 45/45/45 52/52/52 53/53/53
f 45/45/45 53/53/53 32/32/32
f 32/32/32 53/53/53 46/46/46
f 40/40/40 42/42/42 54/54/54
f 42/42/42 44/44/44 54/54/54
f 55/55/55 40/40/40 54/54/54
f 55/55/55 54/54/54 56/56/56
f 57/57/57 55/55/55 56/56/56
f 58/58/58 57/57/57 56/56/56
f 54/54/54 58/58/58 56/56/56
f 58/58/58 31/31/31 57/57/57
f 30/30/30 31/31/31 58/58/58
f 44/44/44 30/30/30 58/58/58
f 54/54/54 44/44/44 58/58/58
f 31/31/31 34/34/34 57/57/57
f 34/34/34 36/36/36 57/57/57
f 57/57/57 36/36/36 55/55/55
f 36/36/36 38/38/38 55/55/55
f 38/38/38 40/40/40 55/55/55
f 59/59/59 61/61/61 60/60/60
f 60/60/60 61/61/61 62/62/62
f 60/60/60 62/62/62 63/63/63
f 63/63/63 62/62/62 64/64/64
f 63/63/63 64/64/64 65/65/65
f 65/65/65 64/64/64 66/66/66
f 65/65/65 66/66/66 67/67/67
f 67/67/67 66/66/66 68/68/68
f 67/67/67 68/68/68 69/69/69
f 69/69/69 68/68/68 70/70/70
f 69/69/69 70/70/70 71/71/71
f 71/71/71 70/70/70 72/72/72
f 71/71/71 72/72/72 73/73/73
f 73/73/73 72/72/72 74/74/74
f 73/73/73 74/74/74 59/59/59
f 59/59/59 74/74/74 61/61/61
f 61/61/61 75/75/75 62/62/62
f 62/62/62 75/75/75 76/76/76
f 62/62/62 76/76/76 64/64/64
f 64/64/64 76/76/76 77/77/77
f 64/64/64 77/77/77 66/66/66
f 66/66/66 77/77/77 78/78/78
f 66/66/66 78/78/78 68/68/68
f 68/68/68 78/78/78 79/79/79
f 68/68/68 79/79/79 70/70/70
f 70/70/70 79/79/79 80/80/80
f 70/70/70 80/80/80 72/72/72
f 72/72/72 80/80/80 81/81/81
f 72/72/72 81/81/81 74/74/74
f 74/74/74 81/81/81 82/82/82
f 74/74/74 82/82/82 61/61/61
f 61/61/61 82/82/82 75/75/75
f 69/69/69 71/71/71 83/83/83
f 71/71/71 73/73/73 83/83/83
f 84/84/84 69/69/69 83/83/83
f 84/84/84 83/83/83 85/85/85
f 86/86/86 84/84/84 85/85/85
f 87/87/87 86/86/86 85/85/85
f 83/83/83 87/87/87 85/85/85
f 87/87/87 60/60/60 86/86/86
f 59/59/59 60/60/60 87/87/87
f 73/73/73 59/59/59 87/87/87
f 83/83/83 73/73/73 87/87/87
f 60/60/60 63/63/63 86/86/86
f 63/63/63 65/65/65 86/86/86
f 86/86/86 65/65/65 84/84/84
f 65/65/65 67/67/67 84/84/84
f 67/67/67 69/69/69 84/84/84
