#Tree_conf1_(46)_2667_619.obj

v 0.1094555 1.578246 0.3661342
v 0.03892504 1.930737 0.1420331
v 0.1273205 1.938304 0.07318469
v 0.3483656 1.598699 0.1800522
v 0.1409881 1.947921 -0.03793226
v 0.3853088 1.62469 -0.1202708
v 0.07192297 1.953952 -0.1262268
v 0.1986435 1.640992 -0.3589089
v -0.03941703 1.952867 -0.1399765
v -0.1022851 1.638057 -0.3960717
v -0.1278124 1.945299 -0.07112809
v -0.3411965 1.617604 -0.2099878
v -0.1414811 1.935683 0.03998874
v -0.3781388 1.591613 0.09033527
v -0.07241597 1.929651 0.1282833
v -0.1914722 1.575311 0.3289715
v -0.003585172 2.232562 0.01496875
v -0.5621589 0.6246044 0.6367052
v -0.1598646 0.849957 0.4109183
v 0.04298799 0.6214363 0.8242591
v 0.378406 0.8471389 0.1273565
v 0.6035109 0.6185017 0.5289749
v 0.7910634 0.61752 -0.07617738
v 0.2650531 0.8477323 -0.3581671
v 0.4957807 0.6190658 -0.6367041
v -0.2330169 0.8503399 -0.3806188
v -0.1093652 0.622234 -0.824258
v -0.669888 0.6251684 -0.5289738
v -0.4961769 0.8517178 0.04285195
v -0.8574414 0.6261503 0.07617635
v -0.04382535 1.230687 -2.065169E-07
v -0.3161328 1.416121 -0.4689029
v -0.240168 1.556894 -0.1451855
v -0.5581536 1.372669 -0.107846
v -0.1586016 1.489291 0.2622043
v -0.4732158 1.302272 0.3163857
v -0.1110744 1.246167 0.5552837
v 0.1835736 1.468478 0.2808058
v 0.3161328 1.23722 0.4689029
v 0.2958272 1.512721 -0.04162175
v 0.5581536 1.280672 0.107846
v 0.4732158 1.351069 -0.3163857
v 0.06822177 1.564082 -0.2953309
v 0.1110744 1.407174 -0.5552837
v 0.02009154 1.826264 0.05963253
v 0.3820784 1.057775 0.6121228
v 0.300146 1.251559 0.2239769
v 0.6914647 1.055051 0.1637031
v 0.2057355 1.249136 -0.2905992
v 0.5931507 1.052527 -0.3721458
v 0.1447272 1.051683 -0.6815335
v -0.2218249 1.249646 -0.3223181
v -0.3911255 1.053012 -0.5832222
v -0.368213 1.251888 0.08064885
v -0.7005127 1.055737 -0.1348027
v -0.6021988 1.05826 0.4010462
v -0.08830818 1.253073 0.4054051
v -0.1537753 1.059104 0.710434
v -0.007256985 1.578954 0.0231785

vn -0.8471228 0.4115613 0.3361549
vn -0.7875586 0.5340773 0.3074293
vn -0.3528515 0.5632517 0.7471569
vn -0.3735324 0.4410965 0.8160314
vn 0.2702337 0.6014429 0.7518245
vn 0.3066777 0.4797606 0.8220574
vn 0.7165539 0.6261111 0.3074663
vn 0.7947044 0.5047326 0.337179
vn 0.7127298 0.6216261 -0.3249571
vn 0.7903912 0.5001927 -0.3536791
vn 0.2625567 0.5908968 -0.762827
vn 0.2981066 0.4690853 -0.8313191
vn -0.3587214 0.5530602 -0.7519596
vn -0.3799142 0.43078 -0.8185925
vn -0.7895632 0.5299489 -0.3094253
vn -0.8492347 0.4073827 -0.3359163
vn -0.08562309 0.9962845 -0.009251371
vn -0.6533564 0.6754404 -0.3419147
vn -0.4648228 0.8853248 -0.011815
vn -0.7428373 0.6235921 0.2435684
vn -0.1382828 0.8843999 0.4457741
vn -0.3974384 0.5780541 0.7126684
vn 0.1735526 0.5632923 0.807825
vn 0.4154564 0.8687778 0.2694829
vn 0.6516902 0.5866373 0.4807875
vn 0.4180953 0.8619226 -0.2868548
vn 0.7658545 0.6363669 -0.09221708
vn 0.4331796 0.6849957 -0.5857785
vn -0.1076908 0.8707365 -0.4798131
vn -0.1625401 0.7018849 -0.6934971
vn 0.01536066 0.9926714 0.1198639
vn 0.6264046 0.5518385 -0.5505375
vn 0.04900796 0.8873513 -0.4584819
vn 0.05364626 0.551837 -0.8322247
vn -0.5580577 0.7936295 -0.2423294
vn -0.5505375 0.5518385 -0.6264046
vn -0.8322236 0.5518386 -0.0536462
vn -0.5307762 0.735074 0.4218326
vn -0.6264046 0.5518385 0.5505375
vn 0.07176399 0.7923025 0.6058931
vn -0.05364626 0.551837 0.8322247
vn 0.5505375 0.5518385 0.6264046
vn 0.4563971 0.8842494 0.09901774
vn 0.8322236 0.5518386 0.0536462
vn 0 0.9999999 0
vn -0.5215019 0.6754403 0.5213597
vn -0.1501512 0.8853247 0.4400619
vn 0.01050463 0.6235921 0.7816792
vn 0.3840982 0.8843999 0.2651513
vn 0.5613737 0.5780541 0.5922103
vn 0.8227799 0.5632922 0.07572966
vn 0.3813008 0.8687778 -0.3159664
vn 0.6535338 0.5866373 -0.4782784
vn -0.1488374 0.8619226 -0.4847026
vn 0.1408105 0.6363668 -0.7584257
vn -0.4296011 0.6849957 -0.5884079
vn -0.4900725 0.8707364 -0.04058256
vn -0.7103837 0.701885 -0.0520812
vn 0.1189784 0.9926714 0.02115288

vt 0.3461914 0.0803833
vt 0.3190918 0.06854248
vt 0.3068848 0.08081055
vt 0.3181152 0.1083374
vt 0.2895508 0.08081055
vt 0.2785645 0.1083374
vt 0.2770996 0.06854248
vt 0.2504883 0.08032227
vt 0.2770996 0.05114746
vt 0.2504883 0.04064941
vt 0.2895508 0.03884888
vt 0.2785645 0.01256561
vt 0.3068848 0.03887939
vt 0.3183594 0.01262665
vt 0.3190918 0.0512085
vt 0.3464355 0.04077148
vt 0.2978516 0.05935669
vt 0.2459717 0.0847168
vt 0.213623 0.08380127
vt 0.2144775 0.1161499
vt 0.1708984 0.08374023
vt 0.1700439 0.1160889
vt 0.1385498 0.08459473
vt 0.1621094 0.04983521
vt 0.1385498 0.0401001
vt 0.1923828 0.03216553
vt 0.1700439 0.008682251
vt 0.2145996 0.008712769
vt 0.2225342 0.04989624
vt 0.2460938 0.04019165
vt 0.1922607 0.06237793
vt 0.2459717 0.0847168
vt 0.213623 0.08380127
vt 0.2144775 0.1161499
vt 0.1708984 0.08374023
vt 0.1700439 0.1160889
vt 0.1385498 0.08459473
vt 0.1621094 0.04983521
vt 0.1385498 0.0401001
vt 0.1923828 0.03216553
vt 0.1700439 0.008682251
vt 0.2145996 0.008712769
vt 0.2225342 0.04989624
vt 0.2460938 0.04019165
vt 0.1922607 0.06237793
vt 0.2459717 0.0847168
vt 0.213623 0.08380127
vt 0.2144775 0.1161499
vt 0.1708984 0.08374023
vt 0.1700439 0.1160889
vt 0.1385498 0.08459473
vt 0.1621094 0.04983521
vt 0.1385498 0.0401001
vt 0.1923828 0.03216553
vt 0.1700439 0.008682251
vt 0.2145996 0.008712769
vt 0.2225342 0.04989624
vt 0.2460938 0.04019165
vt 0.1922607 0.06237793

g Tree_conf1_(46)_2667_619
usemtl Tree_conf1_(46)_2667_619
usemap Tree_conf1_(46)_2667_619
f 1/1/1 3/3/3 2/2/2
f 1/1/1 4/4/4 3/3/3
f 4/4/4 5/5/5 3/3/3
f 4/4/4 6/6/6 5/5/5
f 6/6/6 7/7/7 5/5/5
f 6/6/6 8/8/8 7/7/7
f 8/8/8 9/9/9 7/7/7
f 8/8/8 10/10/10 9/9/9
f 10/10/10 11/11/11 9/9/9
f 10/10/10 12/12/12 11/11/11
f 12/12/12 13/13/13 11/11/11
f 12/12/12 14/14/14 13/13/13
f 14/14/14 15/15/15 13/13/13
f 14/14/14 16/16/16 15/15/15
f 16/16/16 2/2/2 15/15/15
f 16/16/16 1/1/1 2/2/2
f 2/2/2 3/3/3 17/17/17
f 3/3/3 5/5/5 17/17/17
f 5/5/5 7/7/7 17/17/17
f 7/7/7 9/9/9 17/17/17
f 9/9/9 11/11/11 17/17/17
f 11/11/11 13/13/13 17/17/17
f 13/13/13 15/15/15 17/17/17
f 15/15/15 2/2/2 17/17/17
f 18/18/18 20/20/20 19/19/19
f 20/20/20 21/21/21 19/19/19
f 20/20/20 22/22/22 21/21/21
f 22/22/22 23/23/23 21/21/21
f 23/23/23 24/24/24 21/21/21
f 23/23/23 25/25/25 24/24/24
f 25/25/25 26/26/26 24/24/24
f 25/25/25 27/27/27 26/26/26
f 27/27/27 28/28/28 26/26/26
f 28/28/28 29/29/29 26/26/26
f 28/28/28 30/30/30 29/29/29
f 30/30/30 19/19/19 29/29/29
f 30/30/30 18/18/18 19/19/19
f 19/19/19 21/21/21 31/31/31
f 21/21/21 24/24/24 31/31/31
f 24/24/24 26/26/26 31/31/31
f 26/26/26 29/29/29 31/31/31
f 29/29/29 19/19/19 31/31/31
f 32/32/32 34/34/34 33/33/33
f 34/34/34 35/35/35 33/33/33
f 34/34/34 36/36/36 35/35/35
f 36/36/36 37/37/37 35/35/35
f 37/37/37 38/38/38 35/35/35
f 37/37/37 39/39/39 38/38/38
f 39/39/39 40/40/40 38/38/38
f 39/39/39 41/41/41 40/40/40
f 41/41/41 42/42/42 40/40/40
f 42/42/42 43/43/43 40/40/40
f 42/42/42 44/44/44 43/43/43
f 44/44/44 33/33/33 43/43/43
f 44/44/44 32/32/32 33/33/33
f 33/33/33 35/35/35 45/45/45
f 35/35/35 38/38/38 45/45/45
f 38/38/38 40/40/40 45/45/45
f 40/40/40 43/43/43 45/45/45
f 43/43/43 33/33/33 45/45/45
f 46/46/46 48/48/48 47/47/47
f 48/48/48 49/49/49 47/47/47
f 48/48/48 50/50/50 49/49/49
f 50/50/50 51/51/51 49/49/49
f 51/51/51 52/52/52 49/49/49
f 51/51/51 53/53/53 52/52/52
f 53/53/53 54/54/54 52/52/52
f 53/53/53 55/55/55 54/54/54
f 55/55/55 56/56/56 54/54/54
f 56/56/56 57/57/57 54/54/54
f 56/56/56 58/58/58 57/57/57
f 58/58/58 47/47/47 57/57/57
f 58/58/58 46/46/46 47/47/47
f 47/47/47 49/49/49 59/59/59
f 49/49/49 52/52/52 59/59/59
f 52/52/52 54/54/54 59/59/59
f 54/54/54 57/57/57 59/59/59
f 57/57/57 47/47/47 59/59/59
