#Tree_conf2_(13)_1326_385.obj

v 2.229061 2.41453 -0.01389065
v 1.067521 2.895794 -0.4499955
v 1.566361 2.41453 -1.586004
v -0.4499955 2.895794 -1.067521
v -0.01388997 2.41453 -2.229059
v -1.586006 2.41453 -1.566361
v -1.253915 2.895794 0.007814224
v -2.229059 2.41453 0.01388997
v -0.4366561 2.895794 1.073048
v -1.566361 2.41453 1.586006
v 0.01388997 2.41453 2.229059
v 0.8921768 2.895794 0.8811278
v 1.586004 2.41453 1.566361
v 0 3.673443 0
v 0.7697465 5.456536 -0.7697472
v 0.2848017 6.349499 -0.2848013
v 2.192961E-06 6.349499 -0.4027689
v 9.254212E-07 5.456536 -1.088587
v -0.2847989 6.349499 -0.2848006
v -0.7697472 5.456536 -0.7697465
v -0.4027682 6.349499 -4.13471E-07
v -1.088587 5.456536 -9.254212E-07
v -0.2847999 6.349499 0.2848006
v -0.7697472 5.456536 0.7697454
v 1.366019E-06 6.349499 0.4027675
v 8.540691E-07 5.456536 1.088586
v 0.2848006 6.349499 0.2847999
v 0.7697472 5.456536 0.7697465
v 0.40277 6.349499 -2.731098E-07
v 1.088586 5.456536 -8.540691E-07
v 1.77949E-06 7.127673 -6.865808E-07
v 1.482311 3.35846 1.321718
v 0.9566597 3.86839 0.3851404
v 1.918954 3.351292 -0.0871205
v 0.2964979 3.862013 -0.8680063
v 1.231502 3.344651 -1.392071
v -0.1773484 3.34243 -1.828714
v -0.833847 3.863357 -0.6041091
v -1.48231 3.345927 -1.141268
v -0.886116 3.869257 0.5554456
v -1.918955 3.353096 0.2675712
v -1.231502 3.359736 1.572524
v 0.09976339 3.872375 1.16811
v 0.1773479 3.361958 2.009165
v -3.846031E-07 4.729911 0.1149912
v -1.323042 5.128105 0.9046327
v -0.5031186 5.474663 0.7122249
v -0.4085399 5.021135 1.517633
v 0.5287386 5.308237 0.5056304
v 0.665974 4.847831 1.302499
v 1.271063 4.709711 0.3852508
v 0.5758546 5.256999 -0.3610475
v 1.052274 4.687684 -0.6967996
v -0.2408068 5.365918 -0.6453691
v 0.1377712 4.794655 -1.3098
v -0.9367427 4.967959 -1.094665
v -0.8834115 5.49236 -0.06887843
v -1.541831 5.10608 -0.1774176
v 0.01565736 6.137804 0.05302759
v 1.425084 4.340247 -0.8985668
v 0.5214425 4.778743 -0.7078217
v 0.3811185 4.334083 -1.618849
v -0.6765448 4.77326 -0.4880244
v -0.8663933 4.328372 -1.389967
v -1.586676 4.326462 -0.3459916
v -0.7503858 4.774414 0.5073781
v -1.3578 4.32947 0.9015265
v 0.1877591 4.779488 0.8481822
v -0.313836 4.335634 1.621809
v 0.9336751 4.341344 1.392926
v 0.9438245 4.782169 0.1965375
v 1.65396 4.343255 0.3489513
v 0.05396364 5.519577 0.007841605

vn 0.6476019 0.7214358 0.2452392
vn 0.3713993 0.92652 -0.06019194
vn 0.6313353 0.7214344 -0.284514
vn 0.03729001 0.92652 -0.374393
vn 0.2452392 0.7214358 -0.6476018
vn -0.2845132 0.721436 -0.6313338
vn -0.3766116 0.9153271 -0.1426183
vn -0.6476019 0.7214358 -0.2452392
vn -0.2843227 0.9098089 0.3023382
vn -0.6313353 0.7214344 0.284514
vn -0.2452392 0.7214358 0.6476018
vn 0.1654582 0.9153271 0.3671511
vn 0.2845132 0.721436 0.6313338
vn 0 1 0
vn 0.8086882 0.4664523 -0.3583931
vn 0.7385879 0.5893607 -0.3273257
vn 0.2908057 0.5893612 -0.7537144
vn 0.3184066 0.4664526 -0.825251
vn -0.3273256 0.5893613 -0.7385873
vn -0.3583931 0.4664523 -0.8086882
vn -0.7537143 0.5893614 -0.2908056
vn -0.825251 0.4664526 -0.3184066
vn -0.7385871 0.5893613 0.3273261
vn -0.8086882 0.4664523 0.3583931
vn -0.2908057 0.5893611 0.7537145
vn -0.3184066 0.4664526 0.825251
vn 0.3273264 0.5893606 0.7385874
vn 0.3583931 0.4664523 0.8086882
vn 0.7537147 0.5893607 0.2908058
vn 0.825251 0.4664526 0.3184066
vn 0 1 0
vn 0.4066976 0.685831 0.6035171
vn 0.3940728 0.8907663 0.2263672
vn 0.7606718 0.6344045 0.1375114
vn 0.3260325 0.889865 -0.3191287
vn 0.6819375 0.589 -0.4336362
vn 0.2294461 0.5742365 -0.7858798
vn -0.2320825 0.874849 -0.4251786
vn -0.3411547 0.5975742 -0.725616
vn -0.4935009 0.8681709 0.0523079
vn -0.7091829 0.6471028 -0.2798528
vn -0.6507835 0.6952757 0.3050777
vn -0.1305515 0.8767521 0.4628846
vn -0.1842379 0.7119436 0.6776375
vn 0.04229698 0.9930726 -0.1096259
vn -0.8057178 0.5627667 0.1846959
vn -0.2552031 0.8928517 0.3710623
vn -0.4391294 0.5627652 0.700329
vn 0.3689674 0.8018581 0.4699859
vn 0.1846958 0.5627667 0.8057177
vn 0.7003281 0.562767 0.4391288
vn 0.6570734 0.7447317 -0.1167446
vn 0.8057178 0.5627667 -0.1846959
vn 0.2210283 0.8006369 -0.5568905
vn 0.4391294 0.5627652 -0.700329
vn -0.1846958 0.5627667 -0.8057177
vn -0.3462682 0.8897872 -0.2972829
vn -0.7003281 0.562767 -0.4391288
vn 0 1 0
vn 0.6974608 0.6858311 -0.2078078
vn 0.3337656 0.8907662 -0.3084413
vn 0.3584976 0.6344045 -0.6848433
vn -0.2071433 0.889865 -0.4064874
vn -0.2100861 0.589 -0.7803478
vn -0.6814325 0.5742365 -0.4537645
vn -0.4750984 0.8748488 0.09445097
vn -0.7944005 0.5975742 0.1087788
vn -0.09752561 0.8681709 0.4865883
vn -0.4789541 0.6471027 0.5931786
vn 0.09670757 0.6952757 0.7122073
vn 0.4027371 0.8767521 0.2628852
vn 0.5916412 0.7119437 0.3782816
vn -0.0919816 0.9930726 -0.07311817

vt 0.2459717 0.0847168
vt 0.213623 0.08380127
vt 0.2144775 0.1161499
vt 0.1708984 0.08374023
vt 0.1700439 0.1160889
vt 0.1385498 0.08459473
vt 0.1621094 0.04983521
vt 0.1385498 0.0401001
vt 0.1923828 0.03216553
vt 0.1700439 0.008682251
vt 0.2145996 0.008712769
vt 0.2225342 0.04989624
vt 0.2460938 0.04019165
vt 0.1922607 0.06237793
vt 0.3461914 0.0803833
vt 0.3190918 0.06854248
vt 0.3068848 0.08081055
vt 0.3181152 0.1083374
vt 0.2895508 0.08081055
vt 0.2785645 0.1083374
vt 0.2770996 0.06854248
vt 0.2504883 0.08032227
vt 0.2770996 0.05114746
vt 0.2504883 0.04064941
vt 0.2895508 0.03884888
vt 0.2785645 0.01256561
vt 0.3068848 0.03887939
vt 0.3183594 0.01262665
vt 0.3190918 0.0512085
vt 0.3464355 0.04077148
vt 0.2978516 0.05935669
vt 0.2459717 0.0847168
vt 0.213623 0.08380127
vt 0.2144775 0.1161499
vt 0.1708984 0.08374023
vt 0.1700439 0.1160889
vt 0.1385498 0.08459473
vt 0.1621094 0.04983521
vt 0.1385498 0.0401001
vt 0.1923828 0.03216553
vt 0.1700439 0.008682251
vt 0.2145996 0.008712769
vt 0.2225342 0.04989624
vt 0.2460938 0.04019165
vt 0.1922607 0.06237793
vt 0.2459717 0.0847168
vt 0.213623 0.08380127
vt 0.2144775 0.1161499
vt 0.1708984 0.08374023
vt 0.1700439 0.1160889
vt 0.1385498 0.08459473
vt 0.1621094 0.04983521
vt 0.1385498 0.0401001
vt 0.1923828 0.03216553
vt 0.1700439 0.008682251
vt 0.2145996 0.008712769
vt 0.2225342 0.04989624
vt 0.2460938 0.04019165
vt 0.1922607 0.06237793
vt 0.2459717 0.0847168
vt 0.213623 0.08380127
vt 0.2144775 0.1161499
vt 0.1708984 0.08374023
vt 0.1700439 0.1160889
vt 0.1385498 0.08459473
vt 0.1621094 0.04983521
vt 0.1385498 0.0401001
vt 0.1923828 0.03216553
vt 0.1700439 0.008682251
vt 0.2145996 0.008712769
vt 0.2225342 0.04989624
vt 0.2460938 0.04019165
vt 0.1922607 0.06237793

g Tree_conf2_(13)_1326_385
usemtl Tree_conf2_(13)_1326_385
usemap Tree_conf2_(13)_1326_385
f 1/1/1 3/3/3 2/2/2
f 3/3/3 4/4/4 2/2/2
f 3/3/3 5/5/5 4/4/4
f 5/5/5 6/6/6 4/4/4
f 6/6/6 7/7/7 4/4/4
f 6/6/6 8/8/8 7/7/7
f 8/8/8 9/9/9 7/7/7
f 8/8/8 10/10/10 9/9/9
f 10/10/10 11/11/11 9/9/9
f 11/11/11 12/12/12 9/9/9
f 11/11/11 13/13/13 12/12/12
f 13/13/13 2/2/2 12/12/12
f 13/13/13 1/1/1 2/2/2
f 2/2/2 4/4/4 14/14/14
f 4/4/4 7/7/7 14/14/14
f 7/7/7 9/9/9 14/14/14
f 9/9/9 12/12/12 14/14/14
f 12/12/12 2/2/2 14/14/14
f 15/15/15 17/17/17 16/16/16
f 15/15/15 18/18/18 17/17/17
f 18/18/18 19/19/19 17/17/17
f 18/18/18 20/20/20 19/19/19
f 20/20/20 21/21/21 19/19/19
f 20/20/20 22/22/22 21/21/21
f 22/22/22 23/23/23 21/21/21
f 22/22/22 24/24/24 23/23/23
f 24/24/24 25/25/25 23/23/23
f 24/24/24 26/26/26 25/25/25
f 26/26/26 27/27/27 25/25/25
f 26/26/26 28/28/28 27/27/27
f 28/28/28 29/29/29 27/27/27
f 28/28/28 30/30/30 29/29/29
f 30/30/30 16/16/16 29/29/29
f 30/30/30 15/15/15 16/16/16
f 16/16/16 17/17/17 31/31/31
f 17/17/17 19/19/19 31/31/31
f 19/19/19 21/21/21 31/31/31
f 21/21/21 23/23/23 31/31/31
f 23/23/23 25/25/25 31/31/31
f 25/25/25 27/27/27 31/31/31
f 27/27/27 29/29/29 31/31/31
f 29/29/29 16/16/16 31/31/31
f 32/32/32 34/34/34 33/33/33
f 34/34/34 35/35/35 33/33/33
f 34/34/34 36/36/36 35/35/35
f 36/36/36 37/37/37 35/35/35
f 37/37/37 38/38/38 35/35/35
f 37/37/37 39/39/39 38/38/38
f 39/39/39 40/40/40 38/38/38
f 39/39/39 41/41/41 40/40/40
f 41/41/41 42/42/42 40/40/40
f 42/42/42 43/43/43 40/40/40
f 42/42/42 44/44/44 43/43/43
f 44/44/44 33/33/33 43/43/43
f 44/44/44 32/32/32 33/33/33
f 33/33/33 35/35/35 45/45/45
f 35/35/35 38/38/38 45/45/45
f 38/38/38 40/40/40 45/45/45
f 40/40/40 43/43/43 45/45/45
f 43/43/43 33/33/33 45/45/45
f 46/46/46 48/48/48 47/47/47
f 48/48/48 49/49/49 47/47/47
f 48/48/48 50/50/50 49/49/49
f 50/50/50 51/51/51 49/49/49
f 51/51/51 52/52/52 49/49/49
f 51/51/51 53/53/53 52/52/52
f 53/53/53 54/54/54 52/52/52
f 53/53/53 55/55/55 54/54/54
f 55/55/55 56/56/56 54/54/54
f 56/56/56 57/57/57 54/54/54
f 56/56/56 58/58/58 57/57/57
f 58/58/58 47/47/47 57/57/57
f 58/58/58 46/46/46 47/47/47
f 47/47/47 49/49/49 59/59/59
f 49/49/49 52/52/52 59/59/59
f 52/52/52 54/54/54 59/59/59
f 54/54/54 57/57/57 59/59/59
f 57/57/57 47/47/47 59/59/59
f 60/60/60 62/62/62 61/61/61
f 62/62/62 63/63/63 61/61/61
f 62/62/62 64/64/64 63/63/63
f 64/64/64 65/65/65 63/63/63
f 65/65/65 66/66/66 63/63/63
f 65/65/65 67/67/67 66/66/66
f 67/67/67 68/68/68 66/66/66
f 67/67/67 69/69/69 68/68/68
f 69/69/69 70/70/70 68/68/68
f 70/70/70 71/71/71 68/68/68
f 70/70/70 72/72/72 71/71/71
f 72/72/72 61/61/61 71/71/71
f 72/72/72 60/60/60 61/61/61
f 61/61/61 63/63/63 73/73/73
f 63/63/63 66/66/66 73/73/73
f 66/66/66 68/68/68 73/73/73
f 68/68/68 71/71/71 73/73/73
f 71/71/71 61/61/61 73/73/73
