#Tree3_(4)_2231_27.obj

v -0.5663608 6.129975 -1.258504
v -1.729265 6.129975 -0.7768153
v -0.566358 5.081509 -1.835994
v -2.137605 5.081509 -1.18516
v -2.210953 6.129975 0.386086
v -2.788439 5.081509 0.3860872
v -1.729264 6.129975 1.54899
v -2.137609 5.081509 1.957334
v -0.5663632 6.129975 2.030678
v -0.5663583 5.081509 2.608168
v 0.5965409 6.129975 1.54899
v 1.004888 5.081509 1.957335
v 1.078237 6.129975 0.3860849
v 1.655731 5.081509 0.3860842
v 0.5965405 6.129975 -0.7768157
v 1.004894 5.081509 -1.185163
v -0.5663575 3.849293 -1.958108
v -2.223961 3.849293 -1.27151
v -2.910549 3.849293 0.3860869
v -2.223955 3.849293 2.043682
v -0.5663586 3.849293 2.730279
v 1.091237 3.849293 2.043681
v 1.777841 3.849293 0.3860845
v 1.091232 3.849293 -1.271512
v 0.1355095 6.610299 0.6768129
v -0.857088 6.610299 1.087963
v -0.566362 6.703349 0.3860871
v -1.268234 6.610299 0.09536135
v -0.275636 6.610299 -0.3157882
v 2.33223 4.214332 -0.3507321
v 1.564468 4.326895 0.02710815
v 2.2059 3.702219 -0.9014013
v 1.090339 3.865771 -0.3524061
v 1.277657 4.317745 0.8410887
v 0.6736212 3.852475 0.8302955
v 1.639822 4.192243 1.614387
v 1.199835 3.670125 1.953887
v 2.438801 4.023906 1.894019
v 2.360741 3.425532 2.360186
v 3.206578 3.911345 1.51618
v 3.476303 3.261982 1.811187
v 3.493382 3.920494 0.7021987
v 3.893036 3.275279 0.6284863
v 3.131225 4.045995 -0.07110324
v 3.366807 3.457629 -0.4951058
v 2.079421 3.061067 -1.08542
v 0.8719462 3.238093 -0.4911907
v 0.4208888 3.223703 0.7889565
v 0.9904544 3.026327 2.005123
v 2.247017 2.761585 2.444893
v 3.454491 2.584558 1.850667
v 3.905549 2.598947 0.5705198
v 3.335975 2.796325 -0.6456469
v 2.918184 4.291519 0.9612649
v 2.262849 4.3876 1.283774
v 2.45587 4.501337 0.8007296
v 1.953723 4.494721 0.6237194
v 2.609057 4.398644 0.3012143

vn -0.05077356 0.5420592 -0.8388051
vn -0.6290273 0.5420586 -0.5572227
vn -0.05736434 0.3140009 -0.9476881
vn -0.7106794 0.3140011 -0.629554
vn -0.8388051 0.5420592 0.05077356
vn -0.9476881 0.3140009 0.05736434
vn -0.557223 0.542059 0.6290268
vn -0.629554 0.3140011 0.7106794
vn 0.05077356 0.5420592 0.8388051
vn 0.05736434 0.3140009 0.9476881
vn 0.6290277 0.542059 0.557222
vn 0.7106794 0.3140011 0.629554
vn 0.8388051 0.5420592 -0.05077356
vn 0.9476881 0.3140009 -0.05736434
vn 0.557222 0.542059 -0.6290277
vn 0.6295535 0.3140009 -0.7106799
vn -0.05962852 0.1613551 -0.9850935
vn -0.7387299 0.161355 -0.6544024
vn -0.9850935 0.1613551 0.05962852
vn -0.6544024 0.161355 0.7387299
vn 0.05962852 0.1613551 0.9850935
vn 0.7387299 0.161355 0.6544024
vn 0.9850935 0.1613551 -0.05962852
vn 0.654402 0.1613549 -0.7387305
vn 0.2969323 0.9538103 0.04557656
vn -0.04557748 0.9538099 0.2969332
vn 0 1 0
vn -0.2969332 0.9538099 -0.04557748
vn 0.04557649 0.95381 -0.2969332
vn 0.009942584 0.6025708 -0.7980035
vn -0.5441436 0.686452 -0.482381
vn -0.04388195 0.3881159 -0.9205652
vn -0.6698931 0.4828859 -0.5639721
vn -0.7208328 0.6796343 0.1360044
vn -0.8695182 0.4751822 0.1346846
vn -0.4166235 0.5861099 0.6949102
vn -0.5258193 0.369518 0.76614
vn 0.1902842 0.460665 0.866937
vn 0.1598686 0.2277891 0.9604969
vn 0.7443708 0.3767832 0.5513134
vn 0.7858797 0.133019 0.6039032
vn 0.9210597 0.3836018 -0.06707218
vn 0.9855044 0.140723 -0.09475352
vn 0.6168495 0.4771261 -0.6259772
vn 0.6418056 0.2463869 -0.7262087
vn -0.07609522 0.2415741 -0.9673942
vn -0.7268152 0.340085 -0.5967259
vn -0.9343193 0.332078 0.1295064
vn -0.5770549 0.222242 0.7858856
vn 0.1356969 0.07491998 0.9879136
vn 0.7864171 -0.02359101 0.6172453
vn 0.9939209 -0.015583 -0.1089881
vn 0.6366565 0.09425099 -0.7653661
vn 0.4632543 0.8812572 0.09370829
vn 0.1406577 0.9252396 0.352345
vn 0.1846902 0.9807378 0.06358413
vn -0.1102003 0.9935194 0.0278392
vn 0.2123953 0.9495373 -0.2307967

vt 0.4470215 0.4243164
vt 0.4257813 0.4155273
vt 0.4472656 0.4458008
vt 0.4106445 0.4306641
vt 0.4169922 0.3942871
vt 0.3955078 0.3942871
vt 0.4257813 0.3728027
vt 0.4106445 0.3579102
vt 0.4470215 0.3642578
vt 0.4470215 0.3427734
vt 0.4685059 0.3730469
vt 0.4833984 0.357666
vt 0.4770508 0.3942871
vt 0.4985352 0.394043
vt 0.4682617 0.4155273
vt 0.4833984 0.4306641
vt 0.4470215 0.4689941
vt 0.394043 0.4470215
vt 0.3723145 0.394043
vt 0.394043 0.3413086
vt 0.4470215 0.3193359
vt 0.5 0.3413086
vt 0.5219727 0.3942871
vt 0.5 0.4472656
vt 0.4609375 0.3884277
vt 0.4411621 0.3803711
vt 0.4470215 0.3942871
vt 0.4331055 0.3999023
vt 0.4528809 0.407959
vt 0.3144531 0.4064941
vt 0.2939453 0.3986816
vt 0.3151855 0.4223633
vt 0.2832031 0.4101563
vt 0.2856445 0.3781738
vt 0.2697754 0.3789063
vt 0.293457 0.357666
vt 0.2817383 0.3469238
vt 0.3139648 0.3493652
vt 0.3132324 0.333252
vt 0.3344727 0.3571777
vt 0.3452148 0.345459
vt 0.3427734 0.3776855
vt 0.3586426 0.3769531
vt 0.3349609 0.3981934
vt 0.3464355 0.4089355
vt 0.3132324 0.4384766
vt 0.2705078 0.420166
vt 0.253418 0.3769531
vt 0.2717285 0.3342285
vt 0.3151855 0.3171387
vt 0.357666 0.3354492
vt 0.375 0.3786621
vt 0.3564453 0.4213867
vt 0.3261719 0.3720703
vt 0.3083496 0.3659668
vt 0.314209 0.3779297
vt 0.3022461 0.3837891
vt 0.3200684 0.3898926

g Tree3_(4)_2231_27
usemtl Tree3_(4)_2231_27
usemap Tree3_(4)_2231_27
f 1/1/1 3/3/3 2/2/2
f 2/2/2 3/3/3 4/4/4
f 2/2/2 4/4/4 5/5/5
f 5/5/5 4/4/4 6/6/6
f 5/5/5 6/6/6 7/7/7
f 7/7/7 6/6/6 8/8/8
f 7/7/7 8/8/8 9/9/9
f 9/9/9 8/8/8 10/10/10
f 9/9/9 10/10/10 11/11/11
f 11/11/11 10/10/10 12/12/12
f 11/11/11 12/12/12 13/13/13
f 13/13/13 12/12/12 14/14/14
f 13/13/13 14/14/14 15/15/15
f 15/15/15 14/14/14 16/16/16
f 15/15/15 16/16/16 1/1/1
f 1/1/1 16/16/16 3/3/3
f 3/3/3 17/17/17 4/4/4
f 4/4/4 17/17/17 18/18/18
f 4/4/4 18/18/18 6/6/6
f 6/6/6 18/18/18 19/19/19
f 6/6/6 19/19/19 8/8/8
f 8/8/8 19/19/19 20/20/20
f 8/8/8 20/20/20 10/10/10
f 10/10/10 20/20/20 21/21/21
f 10/10/10 21/21/21 12/12/12
f 12/12/12 21/21/21 22/22/22
f 12/12/12 22/22/22 14/14/14
f 14/14/14 22/22/22 23/23/23
f 14/14/14 23/23/23 16/16/16
f 16/16/16 23/23/23 24/24/24
f 16/16/16 24/24/24 3/3/3
f 3/3/3 24/24/24 17/17/17
f 11/11/11 13/13/13 25/25/25
f 13/13/13 15/15/15 25/25/25
f 26/26/26 11/11/11 25/25/25
f 26/26/26 25/25/25 27/27/27
f 28/28/28 26/26/26 27/27/27
f 29/29/29 28/28/28 27/27/27
f 25/25/25 29/29/29 27/27/27
f 29/29/29 2/2/2 28/28/28
f 1/1/1 2/2/2 29/29/29
f 15/15/15 1/1/1 29/29/29
f 25/25/25 15/15/15 29/29/29
f 2/2/2 5/5/5 28/28/28
f 5/5/5 7/7/7 28/28/28
f 28/28/28 7/7/7 26/26/26
f 7/7/7 9/9/9 26/26/26
f 9/9/9 11/11/11 26/26/26
f 30/30/30 32/32/32 31/31/31
f 31/31/31 32/32/32 33/33/33
f 31/31/31 33/33/33 34/34/34
f 34/34/34 33/33/33 35/35/35
f 34/34/34 35/35/35 36/36/36
f 36/36/36 35/35/35 37/37/37
f 36/36/36 37/37/37 38/38/38
f 38/38/38 37/37/37 39/39/39
f 38/38/38 39/39/39 40/40/40
f 40/40/40 39/39/39 41/41/41
f 40/40/40 41/41/41 42/42/42
f 42/42/42 41/41/41 43/43/43
f 42/42/42 43/43/43 44/44/44
f 44/44/44 43/43/43 45/45/45
f 44/44/44 45/45/45 30/30/30
f 30/30/30 45/45/45 32/32/32
f 32/32/32 46/46/46 33/33/33
f 33/33/33 46/46/46 47/47/47
f 33/33/33 47/47/47 35/35/35
f 35/35/35 47/47/47 48/48/48
f 35/35/35 48/48/48 37/37/37
f 37/37/37 48/48/48 49/49/49
f 37/37/37 49/49/49 39/39/39
f 39/39/39 49/49/49 50/50/50
f 39/39/39 50/50/50 41/41/41
f 41/41/41 50/50/50 51/51/51
f 41/41/41 51/51/51 43/43/43
f 43/43/43 51/51/51 52/52/52
f 43/43/43 52/52/52 45/45/45
f 45/45/45 52/52/52 53/53/53
f 45/45/45 53/53/53 32/32/32
f 32/32/32 53/53/53 46/46/46
f 40/40/40 42/42/42 54/54/54
f 42/42/42 44/44/44 54/54/54
f 55/55/55 40/40/40 54/54/54
f 55/55/55 54/54/54 56/56/56
f 57/57/57 55/55/55 56/56/56
f 58/58/58 57/57/57 56/56/56
f 54/54/54 58/58/58 56/56/56
f 58/58/58 31/31/31 57/57/57
f 30/30/30 31/31/31 58/58/58
f 44/44/44 30/30/30 58/58/58
f 54/54/54 44/44/44 58/58/58
f 31/31/31 34/34/34 57/57/57
f 34/34/34 36/36/36 57/57/57
f 57/57/57 36/36/36 55/55/55
f 36/36/36 38/38/38 55/55/55
f 38/38/38 40/40/40 55/55/55
