#Tree3_(3)_1317_357.obj

v 0.8980947 -0.2467098 0.2915986
v 0.5627123 1.493185 0.476336
v 0.3880886 1.493185 0.08865677
v 0.6446237 -0.2467098 -0.1738404
v 0.298824 -0.2467098 -0.2453787
v -0.03351005 1.493185 -0.07192601
v -0.04980214 0.9535935 -0.1633217
v 0.4182135 1.112749 0.8406196
v 0.3880867 1.493185 0.864011
v 0.2328231 -0.2360249 0.822771
v -0.03350718 1.493185 1.024593
v -0.08604912 -0.2467098 0.9498295
v -0.3927055 3.338958 -0.0759816
v -0.2825058 3.369289 0.2992979
v -0.6720324 3.252133 -0.2578889
v -0.3927084 3.338958 0.6745762
v -0.6720315 3.252133 0.8564799
v -0.4551059 1.493185 0.8640106
v -0.9610682 3.155363 0.693284
v -0.6297358 1.493185 0.4763357
v -1.080788 3.11528 0.4763349
v -0.4551039 1.493185 0.08865634
v -0.7989346 -0.2467098 -0.1738416
v -0.5550198 -0.2467098 -0.2188842
v -0.04980214 0.9535935 -0.1633217
v -0.03351005 1.493185 -0.07192601
v -0.9514679 -0.2467098 0.2916012
v -0.9610671 3.155363 -0.09468977
v -0.6720324 3.252133 -0.2578889
v -0.910444 6.154762 0.1526993
v -0.6790514 6.154762 0.1140654
v -1.015424 6.154762 0.4641746
v -0.9104425 6.154762 0.6148471
v -0.6790511 6.154762 0.7348072
v -0.4742318 6.154762 0.6568283
v -0.3961827 6.154762 0.4611764
v -0.4742312 6.154762 0.2476235
v -0.6790514 6.154762 0.1140654
v -0.7402959 -0.2467098 0.5776024
v -0.5274118 0.9751863 0.832164
v -0.7940696 -0.4677124 1.269511
v -0.3652837 -0.2467098 0.8304154
v -0.7940696 -0.4677124 1.269511
v -0.5274118 0.9751863 0.832164
v -0.0860483 -0.2467098 -0.954207
v -0.0860483 -0.2467098 -0.954207
v 1.052339 -0.5420864 1.041771
v 1.052339 -0.5420864 1.041771
v 0.3649868 0.9880412 0.297856
v 0.8266028 1.692036 0.5149958
v 0.741294 1.647383 0.3210481
v 0.2852595 1.035575 0.07437131
v 0.5962479 1.812386 0.2134455
v 0.09975584 1.159606 -0.01835474
v 0.397778 1.887208 0.3212305
v -0.08286581 1.287479 0.07398887
v 0.4349593 1.966669 0.5139703
v -0.1556206 1.344287 0.2973134
v 0.3783846 1.883636 0.6549189
v -0.0758986 1.296754 0.5207971
v 0.595608 1.668309 0.7647395
v 0.1096019 1.172722 0.6135253
v 0.7720931 1.6095 0.6538053
v 0.2922267 1.044849 0.5211796
v 0.8266028 1.692036 0.5149958
v 0.3649868 0.9880412 0.297856
v 1.65643 2.454257 0.1529093
v 1.468846 2.584558 0.2474397
v 1.393529 2.641651 0.4760515
v 1.474614 2.592094 0.7048326
v 1.664578 2.464917 0.7997601
v 1.852162 2.334618 0.7052297
v 1.92747 2.277522 0.476619
v 1.949489 3.38979 0.4636137
v 2.120275 3.410829 0.4620087
v 1.846396 2.327078 0.24784
v 1.92747 2.277522 0.476619
v 2.290673 3.447176 0.5720883
v 2.36741 3.477539 0.7393109
v 1.945512 3.508565 0.6701332
v 2.014071 3.510238 0.8324568
v 2.148347 3.463095 0.9026119
v 2.309746 3.484134 0.8772544
v 2.36741 3.477539 0.7393109

vn 0.5354476 0.115254 -0.8366675
vn 0.5801806 0.126627 -0.8045845
vn -0.1953523 0.09115901 -0.9764874
vn -0.2573563 0.164291 -0.952248
vn -0.2817262 0.237761 -0.92957
vn -0.826525 0.04265301 -0.5612819
vn -0.7720926 0.324559 -0.5463833
vn 0.9974061 0.05652802 -0.0445632
vn 0.9825889 0.08713903 -0.1640914
vn 0.9063863 -0.03089199 0.4213191
vn 0.8481081 0.03889001 0.528394
vn 0.8226863 -0.03331299 0.5675189
vn -0.1820498 0.047315 -0.9821504
vn 0.5308574 0.1062549 -0.8407737
vn -0.7779392 0.06419402 -0.6250519
vn 0.9680157 0.07829998 -0.2383587
vn 0.8223568 -0.012572 0.5688334
vn 0.2835772 0.03390702 0.9583499
vn 0.2111131 -0.04222897 0.9765491
vn -0.5107577 0.06695198 0.8571138
vn -0.4743365 0.030462 0.8798165
vn -0.9818184 0.06118899 0.1796907
vn -0.9721004 0.2019731 0.1192802
vn -0.9576299 0.2847561 0.04311547
vn -0.7720926 0.324559 -0.5463833
vn -0.826525 0.04265301 -0.5612819
vn -0.5761705 0.173637 0.7986726
vn -0.9864349 0.121351 0.1105455
vn -0.7779392 0.06419402 -0.6250519
vn -0.9581066 0.2468529 0.1452433
vn -0.6419545 0.2529961 -0.7238007
vn -0.3895564 0.06183 0.9189249
vn 0.2733853 -0.07486501 0.9589869
vn 0.7854052 -0.116526 0.6079148
vn 0.9865373 -0.06800602 -0.1487263
vn 0.6055781 0.042641 -0.7946427
vn -0.0245204 0.154694 -0.9876581
vn -0.6419545 0.2529961 -0.7238007
vn -0.236111 0.106873 0.9658312
vn 0.3732333 0.08505797 0.9238302
vn 0.2191949 0.051948 0.9742973
vn 0.8858269 0.022652 0.4634628
vn 0.2191949 0.051948 0.9742973
vn 0.3732333 0.08505797 0.9238302
vn -0.817001 0.176202 -0.5490559
vn -0.817001 0.176202 -0.5490559
vn 0.9896024 0.009463004 -0.1435184
vn 0.9896024 0.009463004 -0.1435184
vn 0.3807764 -0.5490681 -0.7439983
vn 0.3246772 -0.7834702 -0.5298671
vn -0.2050298 -0.4675329 -0.8598697
vn -0.1917501 -0.232616 -0.9534788
vn -0.8057811 0.14151 -0.5750582
vn -0.7042058 0.251613 -0.6639165
vn -0.7576448 0.6481669 0.07651243
vn -0.7847633 0.6197538 -0.007193118
vn -0.3338621 0.7724905 0.54018
vn -0.4635809 0.6739743 0.575197
vn 0.2313368 0.479693 0.8463912
vn 0.1372739 0.410288 0.9015652
vn 0.7957636 -0.121057 0.5933849
vn 0.7485693 -0.17088 0.6406592
vn 0.7805035 -0.6206129 -0.07519293
vn 0.7926541 -0.5936821 -0.1387131
vn 0.3246772 -0.7834702 -0.5298671
vn 0.3807764 -0.5490681 -0.7439983
vn -0.7066606 0.218502 -0.6729694
vn -0.7334841 0.6673079 -0.129233
vn -0.4369504 0.7606009 0.4801673
vn 0.2048549 0.2733921 0.9398358
vn 0.7137749 -0.3617901 0.5996946
vn 0.7171852 -0.6864228 -0.1202886
vn 0.3499427 -0.624091 -0.6986062
vn -0.6333334 0.7714701 -0.06101334
vn -0.4297511 0.5219939 -0.7367743
vn -0.2104367 -0.3145871 -0.9256086
vn 0.3499427 -0.624091 -0.6986062
vn 0.08080173 -0.001752001 -0.9967287
vn 0.6258545 -0.4938701 -0.6036543
vn -0.2986172 0.3227668 0.8981367
vn 0.1839448 -0.1897499 0.9644477
vn 0.5904319 -0.539331 0.6004269
vn 0.7638096 -0.6452188 -0.01696542
vn 0.6258545 -0.4938701 -0.6036543

vt 0.126709 0.3288574
vt 0.1293945 0.3742676
vt 0.1407471 0.3754883
vt 0.1362305 0.3291016
vt 0.1413574 0.3303223
vt 0.1525879 0.3789063
vt 0.15271 0.3623047
vt 0.1174927 0.3647461
vt 0.118103 0.3754883
vt 0.1054077 0.3300781
vt 0.1060181 0.3786621
vt 0.1013794 0.3305664
vt 0.149292 0.4240723
vt 0.1358643 0.4257813
vt 0.15979 0.4228516
vt 0.121521 0.4277344
vt 0.1089478 0.4287109
vt 0.09356689 0.3813477
vt 0.09710693 0.4299316
vt 0.08105469 0.3840332
vt 0.08880615 0.4311523
vt 0.06884766 0.3857422
vt 0.0670166 0.3334961
vt 0.06384277 0.3349609
vt 0.05545044 0.3713379
vt 0.05654907 0.3869629
vt 0.07647705 0.3317871
vt 0.07189941 0.435791
vt 0.0625 0.4394531
vt 0.074646 0.4926758
vt 0.06512451 0.4936523
vt 0.09069824 0.4914551
vt 0.1012573 0.4904785
vt 0.1171875 0.4887695
vt 0.1308594 0.4870605
vt 0.1435547 0.4853516
vt 0.1560059 0.4838867
vt 0.1673584 0.4829102
vt 0.08154297 0.3320313
vt 0.09130859 0.3662109
vt 0.0892334 0.3222656
vt 0.097229 0.3310547
vt 0.0892334 0.3222656
vt 0.09130859 0.3662109
vt 0.1542969 0.3291016
vt 0.04974365 0.3359375
vt 0.1149902 0.3195801
vt 0.1149902 0.3195801
vt 0.050354 0.3269043
vt 0.05477905 0.3681641
vt 0.06396484 0.3632813
vt 0.06066895 0.3205566
vt 0.07598877 0.3637695
vt 0.07141113 0.3161621
vt 0.08642578 0.3591309
vt 0.08282471 0.3151855
vt 0.09460449 0.3659668
vt 0.09399414 0.3178711
vt 0.1016846 0.3613281
vt 0.1053467 0.3225098
vt 0.1165771 0.3642578
vt 0.1170654 0.3259277
vt 0.1252441 0.3696289
vt 0.1287842 0.3276367
vt 0.131958 0.3745117
vt 0.1402588 0.3256836
vt 0.06628418 0.4277344
vt 0.07714844 0.4272461
vt 0.08837891 0.4291992
vt 0.09985352 0.4318848
vt 0.1115112 0.4338379
vt 0.1234131 0.4348145
vt 0.1357422 0.4345703
vt 0.0758667 0.472168
vt 0.06762695 0.4794922
vt 0.05535889 0.4287109
vt 0.04382324 0.4294434
vt 0.05892944 0.4885254
vt 0.05099487 0.494873
vt 0.08605957 0.4821777
vt 0.09484863 0.4853516
vt 0.1034546 0.4858398
vt 0.1099854 0.4914551
vt 0.1179199 0.4924316

g Tree3_(3)_1317_357
usemtl Tree3_(3)_1317_357
usemap Tree3_(3)_1317_357
f 1/1/1 3/3/3 2/2/2
f 1/1/1 4/4/4 3/3/3
f 5/5/5 3/3/3 4/4/4
f 3/3/3 5/5/5 6/6/6
f 6/6/6 5/5/5 7/7/7
f 8/8/8 1/1/1 2/2/2
f 8/8/8 2/2/2 9/9/9
f 9/9/9 10/10/10 8/8/8
f 10/10/10 9/9/9 11/11/11
f 10/10/10 11/11/11 12/12/12
f 2/2/2 3/3/3 13/13/13
f 2/2/2 13/13/13 14/14/14
f 9/9/9 2/2/2 14/14/14
f 3/3/3 15/15/15 13/13/13
f 3/3/3 6/6/6 15/15/15
f 11/11/11 9/9/9 16/16/16
f 9/9/9 14/14/14 16/16/16
f 11/11/11 16/16/16 17/17/17
f 18/18/18 11/11/11 17/17/17
f 18/18/18 12/12/12 11/11/11
f 18/18/18 17/17/17 19/19/19
f 20/20/20 18/18/18 19/19/19
f 20/20/20 19/19/19 21/21/21
f 22/22/22 20/20/20 21/21/21
f 23/23/23 20/20/20 22/22/22
f 22/22/22 24/24/24 23/23/23
f 22/22/22 25/25/25 24/24/24
f 25/25/25 22/22/22 26/26/26
f 23/23/23 27/27/27 20/20/20
f 26/26/26 22/22/22 28/28/28
f 22/22/22 21/21/21 28/28/28
f 26/26/26 28/28/28 29/29/29
f 29/29/29 28/28/28 30/30/30
f 29/29/29 30/30/30 31/31/31
f 28/28/28 32/32/32 30/30/30
f 28/28/28 21/21/21 32/32/32
f 21/21/21 33/33/33 32/32/32
f 21/21/21 19/19/19 33/33/33
f 19/19/19 34/34/34 33/33/33
f 19/19/19 17/17/17 34/34/34
f 17/17/17 35/35/35 34/34/34
f 17/17/17 16/16/16 35/35/35
f 16/16/16 36/36/36 35/35/35
f 16/16/16 14/14/14 36/36/36
f 14/14/14 37/37/37 36/36/36
f 14/14/14 13/13/13 37/37/37
f 13/13/13 38/38/38 37/37/37
f 13/13/13 15/15/15 38/38/38
f 39/39/39 41/41/41 40/40/40
f 40/40/40 27/27/27 39/39/39
f 27/27/27 40/40/40 20/20/20
f 20/20/20 40/40/40 18/18/18
f 42/42/42 18/18/18 40/40/40
f 12/12/12 18/18/18 42/42/42
f 43/43/43 42/42/42 44/44/44
f 5/5/5 45/45/45 7/7/7
f 46/46/46 24/24/24 25/25/25
f 10/10/10 47/47/47 8/8/8
f 48/48/48 1/1/1 8/8/8
f 49/49/49 51/51/51 50/50/50
f 49/49/49 52/52/52 51/51/51
f 52/52/52 53/53/53 51/51/51
f 52/52/52 54/54/54 53/53/53
f 54/54/54 55/55/55 53/53/53
f 54/54/54 56/56/56 55/55/55
f 56/56/56 57/57/57 55/55/55
f 56/56/56 58/58/58 57/57/57
f 58/58/58 59/59/59 57/57/57
f 58/58/58 60/60/60 59/59/59
f 60/60/60 61/61/61 59/59/59
f 60/60/60 62/62/62 61/61/61
f 62/62/62 63/63/63 61/61/61
f 62/62/62 64/64/64 63/63/63
f 64/64/64 65/65/65 63/63/63
f 64/64/64 66/66/66 65/65/65
f 51/51/51 53/53/53 67/67/67
f 53/53/53 68/68/68 67/67/67
f 53/53/53 55/55/55 68/68/68
f 55/55/55 69/69/69 68/68/68
f 55/55/55 57/57/57 69/69/69
f 57/57/57 70/70/70 69/69/69
f 57/57/57 59/59/59 70/70/70
f 59/59/59 71/71/71 70/70/70
f 59/59/59 61/61/61 71/71/71
f 61/61/61 72/72/72 71/71/71
f 61/61/61 63/63/63 72/72/72
f 63/63/63 73/73/73 72/72/72
f 63/63/63 65/65/65 73/73/73
f 67/67/67 68/68/68 74/74/74
f 67/67/67 74/74/74 75/75/75
f 76/76/76 67/67/67 75/75/75
f 51/51/51 67/67/67 76/76/76
f 50/50/50 51/51/51 76/76/76
f 50/50/50 76/76/76 77/77/77
f 77/77/77 76/76/76 78/78/78
f 76/76/76 75/75/75 78/78/78
f 77/77/77 78/78/78 79/79/79
f 68/68/68 80/80/80 74/74/74
f 68/68/68 69/69/69 80/80/80
f 69/69/69 81/81/81 80/80/80
f 69/69/69 70/70/70 81/81/81
f 70/70/70 82/82/82 81/81/81
f 70/70/70 71/71/71 82/82/82
f 71/71/71 83/83/83 82/82/82
f 71/71/71 72/72/72 83/83/83
f 72/72/72 84/84/84 83/83/83
f 72/72/72 73/73/73 84/84/84
