#Tree4_(7)_1159_283.obj

v 1.648993 -0.1087265 -0.2710427
v 0.9947528 1.197124 0.2054723
v 0.9725488 0.907753 -1.046142
v 1.113346 -0.007759094 -1.027271
v 0.8603976 1.998779 -0.2360946
v 0.4648578 1.998779 -1.114192
v 0.8710243 3.322641 -0.8530281
v 1.077957 3.250427 -0.3773516
v 0.2644606 3.499787 -1.126115
v -0.4900595 1.998779 -1.477913
v -0.4019087 3.677774 -0.9827663
v -1.32109 2.538195 -1.155863
v -0.7282816 3.75481 -0.3128652
v -1.693689 2.566374 -0.3302098
v -0.4807231 3.682957 -0.02716211
v -1.444988 1.998779 0.642
v 0.1530239 3.507115 0.225312
v -0.4900628 1.998779 1.005721
v 0.7959686 3.327577 0.05719882
v 0.4648549 1.998779 0.6420005
v 1.077957 3.250427 -0.3773516
v 0.8603976 1.998779 -0.2360946
v 1.207074 5.526218 -0.3408346
v 0.6444239 5.526218 -0.5738935
v 0.6444239 5.526218 -0.5738935
v 0.411359 5.526218 -0.01124233
v 0.6444239 5.526218 -0.5738935
v 0.9740182 5.526218 0.2218104
v 1.207074 5.526218 -0.3408346
v 0.9740182 5.526218 0.2218104
v 0.9947528 1.197124 0.2054723
v 0.795902 0.6271877 1.412253
v 1.31292 -0.08299255 0.6160778
v 1.33127 -0.2933445 1.523451
v 0.9643149 -1.052223 2.854056
v 0.411359 5.526218 -0.01124233
v 0.411359 5.526218 -0.01124233
v 0.9740182 5.526218 0.2218104
v -0.3533586 1.089863 1.163905
v 0.5105622 -0.2495117 1.571657
v -0.3154332 -0.007759094 1.207775
v -1.437689 0.01500511 1.313032
v -1.155438 -0.6044025 1.360408
v -2.090555 -0.5999184 2.243826
v -1.208841 0.7697678 0.42366
v -1.840532 1.998779 -0.2360959
v -1.4259 1.307367 -0.4120881
v -1.444985 1.998779 -1.114192
v -0.6717079 0.907753 -1.046141
v 0.1186059 1.206413 -1.30878
v 0.2641712 0.2683372 -1.970745
v 0.8155902 -0.2463665 -1.928795
v -0.4572383 -0.1337109 -1.027271
v -0.06903375 -0.2463665 -1.928796
v -1.630359 0.07463455 -0.7411504
v -1.33692 -0.4881954 -0.9694564
v -1.630359 0.07463455 -0.7411504
v 0.2641712 0.2683372 -1.970745
v -0.001973787 -0.8139687 -3.040454
v -0.001973787 -0.8139687 -3.040454
v 0.2641712 0.2683372 -1.970745
v -1.630359 0.07463455 -0.7411504
v -2.466258 -1.130941 -1.216011
v 2.127042 -0.219223 -0.1883508
v 2.453196 0.3101311 0.2113391
v 0.9947528 1.197124 0.2054723
v 3.156647 -0.8267365 0.3389007
v 2.453196 0.3101311 0.2113391
v 2.089912 -0.1782417 0.4586761
v 1.31292 -0.08299255 0.6160778
v 3.156647 -0.8267365 0.3389007
v -1.143344 -0.1337109 0.3631079
v -1.617384 -0.4927883 -0.4026593
v -1.630359 0.07463455 -0.7411504
v -2.466258 -1.130941 -1.216011
v -1.657253 -0.4339218 0.877657
v -1.437689 0.01500511 1.313032
v -2.090555 -0.5999184 2.243826
v -1.630359 0.07463455 -0.7411504
v -1.437689 0.01500511 1.313032
v 0.795902 0.6271877 1.412253
v 0.9643149 -1.052223 2.854056
v -0.8967382 2.926876 -0.325562
v -2.091597 4.022573 0.8340359
v -0.5626172 2.839558 -0.08052832
v -1.651235 4.286763 0.8074988
v -0.2117845 3.16222 -0.04012131
v 0.01893088 3.308533 -0.4167125
v -1.753203 4.405365 0.3179948
v -0.2324751 3.463919 -0.7067483
v -0.2744852 3.301548 -1.000765
v -2.193566 4.141176 0.3445338
v -0.7497237 2.880481 -0.9743545
v -0.9401296 2.765478 -0.6139502
v -0.9401296 2.765478 -0.6139502
v -2.193566 4.141176 0.3445338
v -2.539769 5.52331 0.4039609
v -2.475173 5.523309 0.7358142
v -2.833232 5.52331 0.4257452
v -1.753203 4.405365 0.3179948
v -2.091597 4.022573 0.8340359
v -2.475173 5.523309 0.7358142
v -2.768632 5.52331 0.7576011
v -2.833232 5.52331 0.4257452
v -0.805861 1.713095 -0.9715582
v -1.940497 3.014723 -1.967193
v -1.081218 1.483486 -0.7462568
v -2.036598 3.105563 -1.470271
v -1.238563 1.65237 -0.3272761
v -0.9392012 1.750971 0.01495289
v -1.568337 3.310783 -1.418389
v -0.6466312 2.019552 -0.1022557
v -0.3244036 1.91954 -0.1295047
v -1.472231 3.219944 -1.915314
v -0.1928626 1.695826 -0.709591
v -0.4890445 1.613798 -1.000994
v -0.4890445 1.613798 -1.000994
v -1.472231 3.219944 -1.915314
v -2.014301 4.672457 -1.985744
v -2.346191 4.609434 -1.998887
v -1.987468 4.774529 -2.260436
v -1.568337 3.310783 -1.418389
v -1.940497 3.014723 -1.967193
v -2.346191 4.609434 -1.998887
v -2.319367 4.711502 -2.273577
v -1.987468 4.774529 -2.260436

vn 0.5241638 0.4752699 -0.7066618
vn 0.8784707 0.4740199 -0.05995314
vn 0.6027988 0.3570758 -0.7135338
vn 0.7245243 0.3716308 -0.5804784
vn 0.9791897 0.139459 -0.1474405
vn 0.4553968 0.06812399 -0.8876784
vn 0.555479 -0.034691 -0.8308066
vn 0.9564416 -0.229188 -0.1808101
vn -0.06560381 0.2846749 -0.9563766
vn -0.2345247 0.03371199 -0.9715254
vn -0.5924727 0.548427 -0.590088
vn -0.7155524 0.2998459 -0.6309336
vn -0.7511762 0.6427877 0.1501947
vn -0.8661889 0.4594558 0.1965125
vn -0.4363039 0.490514 0.754344
vn -0.5771945 0.1787599 0.7968008
vn 0.1328723 0.1775949 0.9750923
vn 0.07821871 0.2419801 0.9671233
vn 0.7659606 -0.138798 0.6277258
vn 0.7172159 0.2325539 0.6569019
vn 0.9564416 -0.229188 -0.1808101
vn 0.9791897 0.139459 -0.1474405
vn 0.9370134 -0.3458401 -0.04899541
vn -0.4635046 0.6795754 -0.5686307
vn -0.4635046 0.6795754 -0.5686307
vn -0.3333863 0.2286319 0.914648
vn -0.4635046 0.6795754 -0.5686307
vn 0.6879983 -0.389785 0.6121488
vn 0.9370134 -0.3458401 -0.04899541
vn 0.6879983 -0.389785 0.6121488
vn 0.8784707 0.4740199 -0.05995314
vn 0.6322441 0.360433 0.6858247
vn 0.7226744 0.4422792 0.53116
vn 0.6058889 0.6618493 0.4414229
vn -0.03339639 0.06659099 0.9972214
vn -0.3333863 0.2286319 0.914648
vn -0.3333863 0.2286319 0.914648
vn 0.6879983 -0.389785 0.6121488
vn -0.01072653 0.049349 0.998724
vn -0.03339639 0.06659099 0.9972214
vn -0.9513892 -0.3025329 -0.05772755
vn -0.01072653 0.049349 0.998724
vn -0.03339639 0.06659099 0.9972214
vn -0.756014 -0.191461 0.6259277
vn -0.6944028 -0.1878229 0.6946419
vn -0.9825811 0.126915 0.1357458
vn -0.9513892 -0.3025329 -0.05772755
vn -0.7852859 0.07395096 -0.614701
vn -0.6347784 -0.251599 -0.730585
vn -0.1740925 -0.101271 -0.979508
vn -0.1740925 -0.101271 -0.979508
vn 0.1259195 0.33168 -0.9349506
vn -0.6862817 0.05232403 -0.7254514
vn -0.557025 -0.22901 -0.7982967
vn -0.9513892 -0.3025329 -0.05772755
vn -0.557025 -0.22901 -0.7982967
vn -0.9513892 -0.3025329 -0.05772755
vn -0.1740925 -0.101271 -0.979508
vn 0.1259195 0.33168 -0.9349506
vn 0.1259195 0.33168 -0.9349506
vn -0.1740925 -0.101271 -0.979508
vn -0.9513892 -0.3025329 -0.05772755
vn -0.557025 -0.22901 -0.7982967
vn 0.5178933 0.8161831 -0.2561865
vn 0.7539187 0.5997311 -0.2681963
vn 0.8784707 0.4740199 -0.05995314
vn 0.6058889 0.6618493 0.4414229
vn 0.7539187 0.5997311 -0.2681963
vn 0.6058889 0.6618493 0.4414229
vn 0.7226744 0.4422792 0.53116
vn 0.6058889 0.6618493 0.4414229
vn -0.9621143 0.1424 0.2325046
vn -0.756014 -0.191461 0.6259277
vn -0.9513892 -0.3025329 -0.05772755
vn -0.557025 -0.22901 -0.7982967
vn -0.756014 -0.191461 0.6259277
vn -0.01072653 0.049349 0.998724
vn -0.756014 -0.191461 0.6259277
vn -0.9513892 -0.3025329 -0.05772755
vn -0.01072653 0.049349 0.998724
vn 0.6322441 0.360433 0.6858247
vn -0.03339639 0.06659099 0.9972214
vn -0.3814569 -0.8628667 0.3315897
vn -0.5887865 -0.5434508 0.598324
vn 0.1861822 -0.750657 0.6339166
vn 0.5769229 0.09143602 0.8116646
vn 0.7939102 -0.114192 0.5972158
vn 0.8063483 0.5856197 0.08277643
vn 0.5996847 0.6840867 -0.4152151
vn 0.371198 0.835787 -0.4045642
vn -0.2853139 0.6189021 -0.7318169
vn -0.6986815 -0.155831 -0.6982557
vn -0.6903927 0.190956 -0.6977777
vn -0.8399983 -0.4627653 -0.2832865
vn -0.8399983 -0.4627653 -0.2832865
vn -0.6986815 -0.155831 -0.6982557
vn 0.6275895 0.370975 -0.6844771
vn 0.35943 0.4915891 0.79319
vn -0.5777501 -0.3125331 -0.7540079
vn 0.5996847 0.6840867 -0.4152151
vn -0.5887865 -0.5434508 0.598324
vn 0.35943 0.4915891 0.79319
vn -0.2962033 0.1621339 0.9412631
vn -0.5777501 -0.3125331 -0.7540079
vn -0.1464732 -0.6759275 -0.7222656
vn -0.41211 -0.3177881 -0.8539181
vn -0.5545356 -0.8002949 -0.2280749
vn -0.9043105 -0.175644 0.3890653
vn -0.7060571 -0.4349001 0.5588786
vn -0.2960655 0.2376339 0.9251353
vn 0.2133178 0.4337419 0.8754219
vn 0.222992 0.6587548 0.7185518
vn 0.6842847 0.7206411 0.111493
vn 0.8229844 0.1549622 -0.5465194
vn 0.7764087 0.4731117 -0.4163591
vn 0.481851 -0.1000433 -0.8705235
vn 0.481851 -0.1000433 -0.8705235
vn 0.8229844 0.1549622 -0.5465194
vn 0.5117193 0.1483921 0.8462406
vn -0.9001091 0.2770755 0.3362033
vn 0.8766392 -0.03210646 -0.4800759
vn 0.2133178 0.4337419 0.8754219
vn -0.41211 -0.3177881 -0.8539181
vn -0.9001091 0.2770755 0.3362033
vn -0.8885732 0.2076827 -0.4090301
vn 0.8766392 -0.03210646 -0.4800759

vt 0.03128052 0.3469238
vt 0.02098083 0.3811035
vt 0.04177856 0.3684082
vt 0.03814697 0.3459473
vt 0.02276611 0.3959961
vt 0.04354858 0.395752
vt 0.04064941 0.434082
vt 0.02258301 0.435791
vt 0.06384277 0.4343262
vt 0.06234741 0.3962402
vt 0.08276367 0.4355469
vt 0.08111572 0.407959
vt 0.09765625 0.4365234
vt 0.09967041 0.4067383
vt 0.1126099 0.4375
vt 0.1130981 0.3928223
vt 0.130127 0.439209
vt 0.1300049 0.3950195
vt 0.1516113 0.4384766
vt 0.1491699 0.3989258
vt 0.1682129 0.4372559
vt 0.1669922 0.4020996
vt 0.04025269 0.4936523
vt 0.06768799 0.4929199
vt 0.06768799 0.4929199
vt 0.1057739 0.4926758
vt 0.06768799 0.4929199
vt 0.1367188 0.4934082
vt 0.1651611 0.4941406
vt 0.1367188 0.4934082
vt 0.1706543 0.3869629
vt 0.1635742 0.3657227
vt 0.1831055 0.3806152
vt 0.18396 0.348877
vt 0.1702881 0.3166504
vt 0.1057739 0.4926758
vt 0.1057739 0.4926758
vt 0.1367188 0.4934082
vt 0.1357422 0.3745117
vt 0.1550293 0.3452148
vt 0.1451416 0.3503418
vt 0.1269531 0.3393555
vt 0.138916 0.3330078
vt 0.1308594 0.3168945
vt 0.1133423 0.3647461
vt 0.09954834 0.3955078
vt 0.09466553 0.3771973
vt 0.08105469 0.3979492
vt 0.07415771 0.3681641
vt 0.05825806 0.3747559
vt 0.05395508 0.3427734
vt 0.04519653 0.3320313
vt 0.07104492 0.345459
vt 0.05923462 0.3339844
vt 0.08972168 0.3439941
vt 0.08074951 0.3334961
vt 0.08972168 0.3439941
vt 0.05395508 0.3427734
vt 0.05123901 0.3146973
vt 0.05123901 0.3146973
vt 0.05395508 0.3427734
vt 0.08972168 0.3439941
vt 0.08709717 0.3164063
vt 0.02653503 0.3339844
vt 0.01992798 0.3444824
vt 0.02098083 0.3811035
vt 0.02056885 0.315918
vt 0.01992798 0.3444824
vt 0.00907135 0.3374023
vt 0.004844666 0.3596191
vt 0.02056885 0.315918
vt 0.1107178 0.3481445
vt 0.09783936 0.3349609
vt 0.08972168 0.3439941
vt 0.08709717 0.3164063
vt 0.1159668 0.3349609
vt 0.1269531 0.3393555
vt 0.1308594 0.3168945
vt 0.08972168 0.3439941
vt 0.1269531 0.3393555
vt 0.1635742 0.3657227
vt 0.1702881 0.3166504
vt 0.1189575 0.3955078
vt 0.1228027 0.4504395
vt 0.1253662 0.3933105
vt 0.1341553 0.4477539
vt 0.1331787 0.3930664
vt 0.1392822 0.3894043
vt 0.1452637 0.4487305
vt 0.1452637 0.3918457
vt 0.1491699 0.3884277
vt 0.1569824 0.4511719
vt 0.1594238 0.3896484
vt 0.1643066 0.3933105
vt 0.1153564 0.3920898
vt 0.1113892 0.4519043
vt 0.1470947 0.4968262
vt 0.1340332 0.4968262
vt 0.1560059 0.4968262
vt 0.1452637 0.4487305
vt 0.1228027 0.4504395
vt 0.1340332 0.4968262
vt 0.12146 0.4968262
vt 0.1110229 0.4968262
vt 0.07354736 0.3759766
vt 0.07739258 0.4306641
vt 0.07989502 0.3737793
vt 0.08874512 0.4282227
vt 0.08770752 0.373291
vt 0.09381104 0.369873
vt 0.09985352 0.4291992
vt 0.09985352 0.3720703
vt 0.1037598 0.3688965
vt 0.1115723 0.4313965
vt 0.1139526 0.3701172
vt 0.1188965 0.3737793
vt 0.06994629 0.3725586
vt 0.065979 0.4321289
vt 0.1016235 0.4770508
vt 0.08856201 0.4770508
vt 0.1105957 0.4770508
vt 0.09985352 0.4291992
vt 0.07739258 0.4306641
vt 0.08856201 0.4770508
vt 0.07598877 0.4770508
vt 0.06555176 0.4770508

g Tree4_(7)_1159_283
usemtl Tree4_(7)_1159_283
usemap Tree4_(7)_1159_283
f 1/1/1 3/3/3 2/2/2
f 1/1/1 4/4/4 3/3/3
f 3/3/3 5/5/5 2/2/2
f 3/3/3 6/6/6 5/5/5
f 5/5/5 6/6/6 7/7/7
f 5/5/5 7/7/7 8/8/8
f 6/6/6 9/9/9 7/7/7
f 6/6/6 10/10/10 9/9/9
f 10/10/10 11/11/11 9/9/9
f 10/10/10 12/12/12 11/11/11
f 12/12/12 13/13/13 11/11/11
f 12/12/12 14/14/14 13/13/13
f 14/14/14 15/15/15 13/13/13
f 14/14/14 16/16/16 15/15/15
f 16/16/16 17/17/17 15/15/15
f 16/16/16 18/18/18 17/17/17
f 18/18/18 19/19/19 17/17/17
f 18/18/18 20/20/20 19/19/19
f 20/20/20 21/21/21 19/19/19
f 20/20/20 22/22/22 21/21/21
f 8/8/8 7/7/7 23/23/23
f 7/7/7 24/24/24 23/23/23
f 7/7/7 9/9/9 24/24/24
f 9/9/9 11/11/11 25/25/25
f 11/11/11 13/13/13 26/26/26
f 11/11/11 26/26/26 27/27/27
f 17/17/17 19/19/19 28/28/28
f 19/19/19 21/21/21 29/29/29
f 19/19/19 29/29/29 30/30/30
f 31/31/31 22/22/22 20/20/20
f 20/20/20 32/32/32 31/31/31
f 33/33/33 31/31/31 32/32/32
f 33/33/33 32/32/32 34/34/34
f 34/34/34 32/32/32 35/35/35
f 13/13/13 15/15/15 36/36/36
f 15/15/15 38/38/38 37/37/37
f 15/15/15 17/17/17 38/38/38
f 39/39/39 40/40/40 32/32/32
f 39/39/39 41/41/41 40/40/40
f 41/41/41 39/39/39 42/42/42
f 41/41/41 42/42/42 43/43/43
f 43/43/43 42/42/42 44/44/44
f 39/39/39 32/32/32 20/20/20
f 39/39/39 20/20/20 18/18/18
f 39/39/39 18/18/18 16/16/16
f 39/39/39 16/16/16 45/45/45
f 45/45/45 16/16/16 46/46/46
f 45/45/45 46/46/46 47/47/47
f 47/47/47 46/46/46 48/48/48
f 47/47/47 48/48/48 49/49/49
f 49/49/49 48/48/48 10/10/10
f 49/49/49 10/10/10 50/50/50
f 50/50/50 10/10/10 6/6/6
f 50/50/50 6/6/6 3/3/3
f 50/50/50 3/3/3 51/51/51
f 49/49/49 50/50/50 51/51/51
f 3/3/3 52/52/52 51/51/51
f 3/3/3 4/4/4 52/52/52
f 53/53/53 49/49/49 51/51/51
f 53/53/53 51/51/51 54/54/54
f 47/47/47 49/49/49 55/55/55
f 49/49/49 53/53/53 56/56/56
f 49/49/49 56/56/56 57/57/57
f 10/10/10 48/48/48 12/12/12
f 48/48/48 14/14/14 12/12/12
f 48/48/48 46/46/46 14/14/14
f 46/46/46 16/16/16 14/14/14
f 58/58/58 52/52/52 59/59/59
f 54/54/54 61/61/61 60/60/60
f 62/62/62 56/56/56 63/63/63
f 1/1/1 65/65/65 64/64/64
f 1/1/1 66/66/66 65/65/65
f 64/64/64 65/65/65 67/67/67
f 2/2/2 69/69/69 68/68/68
f 2/2/2 70/70/70 69/69/69
f 68/68/68 69/69/69 71/71/71
f 72/72/72 74/74/74 73/73/73
f 72/72/72 45/45/45 74/74/74
f 73/73/73 74/74/74 75/75/75
f 45/45/45 72/72/72 76/76/76
f 45/45/45 76/76/76 77/77/77
f 77/77/77 76/76/76 78/78/78
f 45/45/45 47/47/47 79/79/79
f 39/39/39 45/45/45 80/80/80
f 81/81/81 40/40/40 82/82/82
f 83/83/83 85/85/85 84/84/84
f 85/85/85 86/86/86 84/84/84
f 85/85/85 87/87/87 86/86/86
f 87/87/87 88/88/88 86/86/86
f 88/88/88 89/89/89 86/86/86
f 88/88/88 90/90/90 89/89/89
f 90/90/90 91/91/91 89/89/89
f 91/91/91 92/92/92 89/89/89
f 91/91/91 93/93/93 92/92/92
f 93/93/93 94/94/94 92/92/92
f 95/95/95 83/83/83 84/84/84
f 95/95/95 84/84/84 96/96/96
f 86/86/86 89/89/89 97/97/97
f 86/86/86 97/97/97 98/98/98
f 89/89/89 99/99/99 97/97/97
f 100/100/100 92/92/92 99/99/99
f 101/101/101 86/86/86 102/102/102
f 84/84/84 102/102/102 103/103/103
f 96/96/96 84/84/84 103/103/103
f 96/96/96 103/103/103 104/104/104
f 105/105/105 107/107/107 106/106/106
f 107/107/107 108/108/108 106/106/106
f 107/107/107 109/109/109 108/108/108
f 109/109/109 110/110/110 108/108/108
f 110/110/110 111/111/111 108/108/108
f 110/110/110 112/112/112 111/111/111
f 112/112/112 113/113/113 111/111/111
f 113/113/113 114/114/114 111/111/111
f 113/113/113 115/115/115 114/114/114
f 115/115/115 116/116/116 114/114/114
f 117/117/117 105/105/105 106/106/106
f 117/117/117 106/106/106 118/118/118
f 108/108/108 111/111/111 119/119/119
f 108/108/108 119/119/119 120/120/120
f 111/111/111 121/121/121 119/119/119
f 122/122/122 114/114/114 121/121/121
f 123/123/123 108/108/108 124/124/124
f 106/106/106 124/124/124 125/125/125
f 118/118/118 106/106/106 125/125/125
f 118/118/118 125/125/125 126/126/126
