#Tree_conf2_(19)_1030_298.obj

v 0.1189084 -0.1466557 -0.4504068
v 0.05755579 1.159755 -0.1771449
v -0.1506855 1.159755 -0.1094771
v -0.4105744 -0.1466557 -0.2783691
v -0.150685 1.159755 0.1094826
v -0.4105714 -0.1466557 0.278362
v 0.0575547 1.159755 0.177145
v 0.1189093 -0.1466557 0.450401
v 0.1862586 1.159755 1.9259E-06
v 0.4461484 -0.1466557 -3.022102E-06
v 0.05755579 1.159755 -0.1771449
v 0.1189084 -0.1466557 -0.4504068
v -0.0686297 6.66993 0.05615534
v -0.06863069 6.66993 -0.05615554
v 0.03818868 6.66993 -0.0908658
v 0.03818868 6.66993 -0.0908658
v 0.1042031 6.66993 -3.068148E-06
v 0.03818749 6.66993 0.09086122

vn 0.1151512 0.2088854 -0.971137
vn 0.1273602 0.08978422 -0.9877845
vn -0.899564 0.1000239 -0.4251821
vn -0.8823452 0.2305968 -0.410234
vn -0.6803795 0.1000239 0.726002
vn -0.6698585 0.2305969 0.7057724
vn 0.4814372 0.08978421 0.8718699
vn 0.4639649 0.2088854 0.8608736
vn 0.9789177 0.08355004 -0.1863853
vn 0.9634731 0.1951094 -0.1834446
vn 0.1273602 0.08978422 -0.9877845
vn 0.1151512 0.2088854 -0.971137
vn -0.6844432 0.01773245 0.7288505
vn -0.90439 0.01773245 -0.4263381
vn 0.1262144 0.01597498 -0.9918744
vn 0.1262144 0.01597498 -0.9918744
vn 0.9822435 0.01488988 -0.1870185
vn 0.4818745 0.01597498 0.8760946

vt 0.4238281 0.003742218
vt 0.4238281 0.02593994
vt 0.4316406 0.02593994
vt 0.4316406 0.003742218
vt 0.4394531 0.02593994
vt 0.4394531 0.003740311
vt 0.4472656 0.02593994
vt 0.4472656 0.003740311
vt 0.4550781 0.02593994
vt 0.4550781 0.003740311
vt 0.4628906 0.02593994
vt 0.4628906 0.003738403
vt 0.4394531 0.1196289
vt 0.4318848 0.1196289
vt 0.4240723 0.1196289
vt 0.4628906 0.1195679
vt 0.4550781 0.1196289
vt 0.4472656 0.1196289

g Tree_conf2_(19)_1030_298
usemtl Tree_conf2_(19)_1030_298
usemap Tree_conf2_(19)_1030_298
f 1/1/1 3/3/3 2/2/2
f 1/1/1 4/4/4 3/3/3
f 4/4/4 5/5/5 3/3/3
f 4/4/4 6/6/6 5/5/5
f 6/6/6 7/7/7 5/5/5
f 6/6/6 8/8/8 7/7/7
f 8/8/8 9/9/9 7/7/7
f 8/8/8 10/10/10 9/9/9
f 10/10/10 11/11/11 9/9/9
f 10/10/10 12/12/12 11/11/11
f 3/3/3 5/5/5 13/13/13
f 3/3/3 13/13/13 14/14/14
f 2/2/2 3/3/3 14/14/14
f 2/2/2 14/14/14 15/15/15
f 9/9/9 11/11/11 16/16/16
f 9/9/9 16/16/16 17/17/17
f 7/7/7 9/9/9 17/17/17
f 7/7/7 17/17/17 18/18/18
f 5/5/5 18/18/18 13/13/13
f 5/5/5 7/7/7 18/18/18
