#Tree6_1012_107.obj

v 0.8051525 1.266685 0.01558933
v 0.8274317 1.160138 -0.00793998
v 0.9679753 0.9382558 0.3454123
v 0.9581597 0.9978514 0.4389808
v 0.8087398 1.172674 -0.4941569
v 0.8304388 1.081584 -0.4338683
v 0.8896143 0.7541602 -0.7891253
v 0.8980073 0.7318904 -0.6803312
v 0.9016248 0.2349415 -0.6932766
v 0.8918093 0.2945389 -0.5997097
v 0.9581597 0.9978514 0.4389808
v 0.9679753 0.9382558 0.3454123
v 0.9199085 0.4975637 0.4192931
v 0.9338863 0.4650597 0.5441422
v 1.050882 0.1558691 0.1788617
v 1.072577 0.06477813 0.2391533
v 1.155991 0.09940396 -0.2504207
v 1.17827 -0.007139591 -0.2739492
v 0.8918093 0.2945389 -0.5997097
v 0.9016248 0.2349415 -0.6932766
v 0.8274317 1.160138 -0.00793998
v 0.6320602 1.035748 -0.01776113
v 0.6688253 0.8394589 0.272165
v 0.9679753 0.9382558 0.3454123
v 0.8304388 1.081584 -0.4338683
v 0.6197949 0.9695399 -0.3633103
v 0.8980073 0.7318904 -0.6803312
v 0.6392162 0.679612 -0.5620652
v 0.8918093 0.2945389 -0.5997097
v 0.8305333 0.3313125 -0.5213807
v 0.9679753 0.9382558 0.3454123
v 0.6688253 0.8394589 0.272165
v 0.7085571 0.495649 0.3366308
v 0.9199085 0.4975637 0.4192931
v 0.8997739 0.1987242 0.1361743
v 1.050882 0.1558691 0.1788617
v 0.8808773 0.1306478 -0.2222317
v 1.155991 0.09940396 -0.2504207
v 0.8305333 0.3313125 -0.5213807
v 0.8918093 0.2945389 -0.5997097
v 0.8305333 0.3313125 -0.5213807
v 0.6320602 1.035748 -0.01776113
v 0.6197949 0.9695399 -0.3633103
v 0.6392162 0.679612 -0.5620652
v 0.8808773 0.1306478 -0.2222317
v 0.6688253 0.8394589 0.272165
v 0.6320602 1.035748 -0.01776113
v 0.8305333 0.3313125 -0.5213807
v 0.8997739 0.1987242 0.1361743
v 0.7085571 0.495649 0.3366308
v 0.6688253 0.8394589 0.272165
v 0.8808773 0.1306478 -0.2222317
v 0.8051525 1.266685 0.01558933
v 0.2177363 1.111325 -0.06154546
v 0.2012434 1.022269 -0.5262855
v 0.8087398 1.172674 -0.4941569
v 0.8087398 1.172674 -0.4941569
v 0.2012434 1.022269 -0.5262855
v 0.2273647 0.6323451 -0.7935932
v 0.8896143 0.7541602 -0.7891253
v 0.2807985 0.1699557 -0.7068914
v 0.9016248 0.2349415 -0.6932766
v 0.3302471 -0.09404447 -0.3169639
v 1.17827 -0.007139591 -0.2739492
v 0.3467409 -0.004993476 0.1477728
v 1.072577 0.06477813 0.2391533
v 0.3206204 0.3849308 0.4150821
v 0.9338863 0.4650597 0.5441422
v 0.2671859 0.8473202 0.3283789
v 0.9581597 0.9978514 0.4389808
v 0.2177363 1.111325 -0.06154546
v 0.8051525 1.266685 0.01558933
v -0.3624989 0.57008 -0.6658784
v -0.3848909 0.9043542 -0.4367197
v -0.3166884 0.1736654 -0.5915534
v -0.2742989 -0.05264708 -0.257273
v -0.260155 0.02368302 0.1411382
v -0.2825505 0.357974 0.370301
v -0.3283606 0.7543733 0.2959733
v -0.3707496 0.9806966 -0.03830753
v -0.3848909 0.9043542 -0.4367197
v 0.2012434 1.022269 -0.5262855
v -1.126475 0.9927111 -0.6132424
v -1.087962 1.083606 -0.1455591
v -1.123653 -0.1401029 -0.3932968
v -1.151715 0.1274075 -0.7884214
v -1.085145 -0.04920774 0.0743857
v -1.058733 0.3468654 0.3406691
v -1.059905 0.8160958 0.2495645
v -0.8840714 0.5931435 -0.9009805
v -1.126475 0.9927111 -0.6132424
v -1.087962 1.083606 -0.1455591
v -1.090904 0.9829966 -0.1659258
v -1.123075 0.9070452 -0.5567076
v -1.126475 0.9927111 -0.6132424
v -1.059905 0.8160958 0.2495645
v -1.067451 0.7594712 0.1642243
v -1.058733 0.3468654 0.3406691
v -1.066474 0.3674014 0.240349
v -1.085145 -0.04920774 0.0743857
v -1.088535 0.03645918 0.01785124
v -1.126475 0.9927111 -0.6132424
v -1.123075 0.9070452 -0.5567076
v -0.9375613 0.5734034 -0.7957717
v -0.8840714 0.5931435 -0.9009805
v -1.144159 0.1840332 -0.7030807
v -1.151715 0.1274075 -0.7884214
v -1.120717 -0.0394968 -0.3729295
v -1.123653 -0.1401029 -0.3932968
v -1.088535 0.03645918 0.01785124
v -1.085145 -0.04920774 0.0743857
v -1.090904 0.9829966 -0.1659258
v -0.8162933 0.9188017 -0.2002547
v -0.8446499 0.8518546 -0.5447143
v -1.123075 0.9070452 -0.5567076
v -1.067451 0.7594712 0.1642243
v -0.7956194 0.7217735 0.0907612
v -1.066474 0.3674014 0.240349
v -0.7952819 0.392447 0.161231
v -1.088535 0.03645918 0.01785124
v -0.9267747 0.07306475 -0.02074383
v -1.123075 0.9070452 -0.5567076
v -0.8446499 0.8518546 -0.5447143
v -0.8640953 0.5601399 -0.7408355
v -0.9375613 0.5734034 -0.7957717
v -0.996078 0.2063642 -0.6781487
v -1.144159 0.1840332 -0.7030807
v -0.9532468 0.004213492 -0.3769036
v -1.120717 -0.0394968 -0.3729295
v -0.9267747 0.07306475 -0.02074383
v -1.088535 0.03645918 0.01785124
v -0.9267747 0.07306475 -0.02074383
v -0.8162933 0.9188017 -0.2002547
v -0.7956194 0.7217735 0.0907612
v -0.7952819 0.392447 0.161231
v -0.9532468 0.004213492 -0.3769036
v -0.8446499 0.8518546 -0.5447143
v -0.8162933 0.9188017 -0.2002547
v -0.9267747 0.07306475 -0.02074383
v -0.996078 0.2063642 -0.6781487
v -0.8640953 0.5601399 -0.7408355
v -0.8446499 0.8518546 -0.5447143
v -0.9532468 0.004213492 -0.3769036
v -0.2726865 0.8702856 0.01128551
v -0.2519071 1.121127 0.634275
v -0.5323989 1.038378 0.6851519
v -0.4904321 0.7183496 0.06807858
v -0.4135281 0.6300111 0.7955785
v -0.4037879 0.4719076 0.1421306
v -0.07907575 0.6295499 0.7819824
v -0.132489 0.4715333 0.1311007
v 0.02081347 0.9330766 0.6822925
v -0.05146431 0.7177436 0.0502342
v -0.05146431 0.7177436 0.0502342
v 0.02081347 0.9330766 0.6822925
v -0.2409511 1.021053 0.6653393
v -0.07176106 0.9043853 0.6951299
v -0.1337321 0.7160784 0.7569789
v -0.3412232 0.7163647 0.765414
v -0.4074916 0.9048492 0.7087778
v 0.02081347 0.9330766 0.6822925
v -0.07176106 0.9043853 0.6951299
v -0.2409511 1.021053 0.6653393
v -0.2519071 1.121127 0.634275
v -0.4074916 0.9048492 0.7087778
v -0.4074916 0.9048492 0.7087778
v -0.5323989 1.038378 0.6851519
v -0.5323989 1.038378 0.6851519
v -0.4074916 0.9048492 0.7087778
v -0.3412232 0.7163647 0.765414
v -0.5323989 1.038378 0.6851519
v -0.3412232 0.7163647 0.765414
v -0.4135281 0.6300111 0.7955785
v -0.1337321 0.7160784 0.7569789
v -0.07907575 0.6295499 0.7819824
v -0.07176106 0.9043853 0.6951299
v 0.02081347 0.9330766 0.6822925

vn 0.7892441 0.4699676 0.395252
vn 0.7892441 0.4699676 0.395252
vn 0.7892441 0.4699676 0.395252
vn 0.7892441 0.4699676 0.395252
vn 0.7892441 0.4699676 0.395252
vn 0.7892441 0.4699676 0.395252
vn 0.7892441 0.4699676 0.395252
vn 0.7892441 0.4699676 0.395252
vn 0.7892441 0.4699676 0.395252
vn 0.7892441 0.4699676 0.395252
vn 0.7892441 0.4699676 0.395252
vn 0.7892441 0.4699676 0.395252
vn 0.7362181 -0.008145181 0.6766955
vn 0.7362181 -0.008145181 0.6766955
vn 0.3782402 0.5154753 0.768908
vn 0.3782402 0.5154753 0.768908
vn 0.7892441 0.4699676 0.395252
vn 0.7892441 0.4699676 0.395252
vn 0.7892441 0.4699676 0.395252
vn 0.7892441 0.4699676 0.395252
vn 0.7072728 -0.5633481 -0.4270882
vn 0.7072728 -0.5633481 -0.4270882
vn 0.7072728 -0.5633481 -0.4270882
vn 0.7072728 -0.5633481 -0.4270882
vn 0.07643089 -0.5580473 0.8262818
vn 0.07643089 -0.5580473 0.8262818
vn -0.347695 0.06232911 0.9355337
vn -0.347695 0.06232911 0.9355337
vn -0.5105173 0.6805092 0.5256229
vn -0.5105173 0.6805092 0.5256229
vn 0.7072728 -0.5633481 -0.4270882
vn 0.7072728 -0.5633481 -0.4270882
vn 0.6155895 0.04113707 -0.7869927
vn 0.6155895 0.04113707 -0.7869927
vn 0.1548869 0.7634507 -0.6270192
vn 0.1548871 0.7634504 -0.6270196
vn -0.3166572 0.9343721 -0.1633309
vn -0.3166572 0.9343721 -0.1633309
vn -0.5105173 0.6805092 0.5256229
vn -0.5105173 0.6805092 0.5256229
vn 0.7149358 0.6512307 0.2544903
vn 0.7149358 0.6512307 0.2544903
vn 0.7149358 0.6512307 0.2544903
vn 0.7149358 0.6512307 0.2544903
vn 0.7036906 0.5442508 0.456739
vn 0.7036906 0.5442508 0.456739
vn 0.7036906 0.5442508 0.456739
vn 0.7036906 0.5442508 0.456739
vn 0.6556801 0.6092095 0.4460353
vn 0.6556801 0.6092095 0.4460353
vn 0.6556801 0.6092095 0.4460353
vn 0.6556801 0.6092095 0.4460353
vn -0.5074651 0.8213404 -0.2605366
vn -0.5074651 0.8213404 -0.2605366
vn -0.5074651 0.8213404 -0.2605366
vn -0.5074651 0.8213404 -0.2605366
vn -0.02196331 0.9069206 -0.4207289
vn -0.2668849 0.789363 -0.5528821
vn 0.1385387 0.3041235 -0.9425052
vn 0.362591 0.3357626 -0.8693626
vn 0.4501773 -0.3743899 -0.8106618
vn 0.5505156 -0.4260575 -0.7179189
vn 0.4734792 -0.8481337 -0.2376695
vn 0.3856117 -0.9055246 -0.177
vn 0.1414538 -0.8772249 0.4587673
vn -0.0457207 -0.9241428 0.3793018
vn -0.358511 -0.348212 0.8661514
vn -0.4619998 -0.4967359 0.7347174
vn -0.6153185 0.3963614 0.6813816
vn -0.6217113 0.2560302 0.7402187
vn -0.5558078 0.8258242 0.09535281
vn -0.3972773 0.8782508 0.2661702
vn 0.2261847 0.3160097 -0.9214002
vn -0.3317476 0.7731032 -0.5406061
vn 0.6111809 -0.3792208 -0.6947299
vn 0.5924391 -0.8024484 -0.07136276
vn 0.2339872 -0.7770218 0.5843691
vn -0.2541044 -0.3360376 0.9069232
vn -0.617629 0.2783876 0.7355507
vn -0.6611044 0.7364898 0.1432616
vn -0.3317476 0.7731032 -0.5406061
vn -0.2668849 0.789363 -0.5528821
vn -0.1227229 0.8990018 -0.4203987
vn -0.5381989 0.8358137 0.1084317
vn 0.69417 -0.7111977 -0.111022
vn 0.7879612 -0.2822635 -0.5472152
vn 0.2563485 -0.8183173 0.514434
vn -0.3181778 -0.3941011 0.8622339
vn -0.6551427 0.3070092 0.6903141
vn 0.5047783 0.4375674 -0.7441328
vn -0.1227229 0.8990018 -0.4203987
vn -0.7892441 -0.4699676 -0.395252
vn -0.7892441 -0.4699676 -0.395252
vn -0.7892441 -0.4699676 -0.395252
vn -0.7892441 -0.4699676 -0.395252
vn -0.7892441 -0.4699676 -0.395252
vn -0.7892441 -0.4699676 -0.395252
vn -0.7892441 -0.4699676 -0.395252
vn -0.7892441 -0.4699676 -0.395252
vn -0.7892441 -0.4699676 -0.395252
vn -0.7892441 -0.4699676 -0.395252
vn -0.7892441 -0.4699676 -0.395252
vn -0.7892441 -0.4699676 -0.395252
vn -0.3782402 -0.5154753 -0.768908
vn -0.3782402 -0.5154753 -0.768908
vn -0.7362181 0.008145181 -0.6766955
vn -0.7362181 0.008145181 -0.6766955
vn -0.7892441 -0.4699676 -0.395252
vn -0.7892441 -0.4699676 -0.395252
vn -0.7892441 -0.4699676 -0.395252
vn -0.7892441 -0.4699676 -0.395252
vn 0.3166572 -0.9343721 0.1633309
vn 0.3166572 -0.9343721 0.1633309
vn 0.3166572 -0.9343721 0.1633309
vn 0.3166572 -0.9343721 0.1633309
vn 0.347695 -0.06232911 -0.9355337
vn 0.347695 -0.06232911 -0.9355337
vn -0.07643089 0.5580473 -0.8262818
vn -0.07643089 0.5580473 -0.8262818
vn -0.5134125 0.817211 -0.2618657
vn -0.5134125 0.817211 -0.2618657
vn 0.3166572 -0.9343721 0.1633309
vn 0.3166572 -0.9343721 0.1633309
vn -0.1426227 -0.732954 0.6651597
vn -0.1426227 -0.732954 0.6651597
vn -0.6541606 -0.03315432 0.7556287
vn -0.6541603 -0.03315461 0.7556289
vn -0.7072728 0.5633481 0.4270882
vn -0.7072728 0.5633481 0.4270882
vn -0.5134125 0.817211 -0.2618657
vn -0.5134125 0.817211 -0.2618657
vn -0.9040784 -0.3745687 -0.2057685
vn -0.9040784 -0.3745687 -0.2057685
vn -0.9040784 -0.3745687 -0.2057685
vn -0.9040784 -0.3745687 -0.2057685
vn -0.8347287 -0.3525791 -0.4229845
vn -0.8347287 -0.3525791 -0.4229845
vn -0.8347287 -0.3525791 -0.4229845
vn -0.8347287 -0.3525791 -0.4229845
vn -0.8742254 -0.2895393 -0.3897395
vn -0.8742254 -0.2895393 -0.3897395
vn -0.8742254 -0.2895393 -0.3897395
vn -0.8742254 -0.2895393 -0.3897395
vn -0.6800246 0.5169709 -0.5199112
vn -0.6800246 0.5169709 -0.5199112
vn -0.6800246 0.5169709 -0.5199112
vn -0.6800246 0.5169709 -0.5199112
vn -0.6684453 -0.6459057 -0.3687634
vn -0.6684453 -0.6459057 -0.3687634
vn 0.3097692 -0.9264042 0.214052
vn 0.3097692 -0.9264042 0.214052
vn 0.9036448 0.06352702 0.4235449
vn 0.9036448 0.06352702 0.4235449
vn 0.9036448 0.06352702 0.4235449
vn 0.9036448 0.06352702 0.4235449
vn -0.4804674 0.1127899 0.8697296
vn -0.4804674 0.1127899 0.8697296
vn -0.4804674 0.1127899 0.8697296
vn -0.4804674 0.1127899 0.8697296
vn -0.4804674 0.1127899 0.8697296
vn -0.48047 0.1127939 0.8697277
vn -0.48047 0.1127939 0.8697277
vn -0.48047 0.1127939 0.8697277
vn -0.48047 0.1127939 0.8697277
vn -0.4804646 0.1127858 0.8697317
vn -0.4804646 0.1127858 0.8697317
vn -0.4804646 0.1127858 0.8697317
vn -0.480455 0.1127626 0.86974
vn -0.480455 0.1127626 0.86974
vn -0.480455 0.1127626 0.86974
vn -0.480455 0.1127626 0.86974
vn -0.480455 0.1127626 0.86974
vn -0.480455 0.1127626 0.86974
vn -0.4804652 0.1127873 0.8697311
vn -0.4804652 0.1127873 0.8697311
vn -0.4804662 0.1127872 0.8697306
vn -0.4804662 0.1127872 0.8697306

vt 0.2044678 0.4519043
vt 0.2053223 0.4399414
vt 0.189209 0.4399414
vt 0.189209 0.4519043
vt 0.2193604 0.4519043
vt 0.2198486 0.4399414
vt 0.2344971 0.4519043
vt 0.2344971 0.4399414
vt 0.2495117 0.4519043
vt 0.2492676 0.4399414
vt 0.2497559 0.4519043
vt 0.2497559 0.4399414
vt 0.2322998 0.4399414
vt 0.2325439 0.4519043
vt 0.2175293 0.4399414
vt 0.2177734 0.4519043
vt 0.2032471 0.4399414
vt 0.2034912 0.4519043
vt 0.1885986 0.4399414
vt 0.1888428 0.4519043
vt 0.2053223 0.4399414
vt 0.2064209 0.4240723
vt 0.189209 0.4240723
vt 0.189209 0.4399414
vt 0.2198486 0.4399414
vt 0.2198486 0.4240723
vt 0.2344971 0.4399414
vt 0.2338867 0.4240723
vt 0.2492676 0.4399414
vt 0.2490234 0.4240723
vt 0.2497559 0.4399414
vt 0.2497559 0.4240723
vt 0.2321777 0.4240723
vt 0.2322998 0.4399414
vt 0.2189941 0.4240723
vt 0.2175293 0.4399414
vt 0.2036133 0.4240723
vt 0.2032471 0.4399414
vt 0.1883545 0.4240723
vt 0.1885986 0.4399414
vt 0.1955566 0.4733887
vt 0.2316895 0.4606934
vt 0.2194824 0.4558105
vt 0.2020264 0.458252
vt 0.201416 0.4907227
vt 0.2376709 0.4768066
vt 0.2316895 0.4606934
vt 0.1955566 0.4733887
vt 0.2165527 0.4973145
vt 0.2324219 0.4919434
vt 0.2376709 0.4768066
vt 0.201416 0.4907227
vt 0.1508789 0.3220215
vt 0.1538086 0.3530273
vt 0.1724854 0.3537598
vt 0.1729736 0.3208008
vt 0.02183533 0.3210449
vt 0.02078247 0.3537598
vt 0.03924561 0.3518066
vt 0.04174805 0.3215332
vt 0.05758667 0.3525391
vt 0.06027222 0.3217773
vt 0.07611084 0.3530273
vt 0.07891846 0.3212891
vt 0.09552002 0.3520508
vt 0.09661865 0.3181152
vt 0.1152344 0.3510742
vt 0.1134644 0.3178711
vt 0.1348877 0.3520508
vt 0.130249 0.3205566
vt 0.1538086 0.3530273
vt 0.1508789 0.3220215
vt 0.03744507 0.3847656
vt 0.01751709 0.3847656
vt 0.05786133 0.3845215
vt 0.07769775 0.3842773
vt 0.09698486 0.3833008
vt 0.1156006 0.3820801
vt 0.1339111 0.3820801
vt 0.152832 0.3833008
vt 0.1719971 0.3859863
vt 0.1724854 0.3537598
vt 0.175415 0.4265137
vt 0.1544189 0.4238281
vt 0.07568359 0.4257813
vt 0.05670166 0.4279785
vt 0.09460449 0.4230957
vt 0.1140137 0.4213867
vt 0.1341553 0.4213867
vt 0.03955078 0.4128418
vt 0.01812744 0.4240723
vt 0.2044678 0.4519043
vt 0.2053223 0.4399414
vt 0.189209 0.4399414
vt 0.189209 0.4519043
vt 0.2193604 0.4519043
vt 0.2198486 0.4399414
vt 0.2344971 0.4519043
vt 0.2344971 0.4399414
vt 0.2495117 0.4519043
vt 0.2492676 0.4399414
vt 0.2497559 0.4519043
vt 0.2497559 0.4399414
vt 0.2322998 0.4399414
vt 0.2325439 0.4519043
vt 0.2175293 0.4399414
vt 0.2177734 0.4519043
vt 0.2032471 0.4399414
vt 0.2034912 0.4519043
vt 0.1885986 0.4399414
vt 0.1888428 0.4519043
vt 0.2053223 0.4399414
vt 0.2064209 0.4240723
vt 0.189209 0.4240723
vt 0.189209 0.4399414
vt 0.2198486 0.4399414
vt 0.2198486 0.4240723
vt 0.2344971 0.4399414
vt 0.2338867 0.4240723
vt 0.2492676 0.4399414
vt 0.2490234 0.4240723
vt 0.2497559 0.4399414
vt 0.2497559 0.4240723
vt 0.2321777 0.4240723
vt 0.2322998 0.4399414
vt 0.2189941 0.4240723
vt 0.2175293 0.4399414
vt 0.2036133 0.4240723
vt 0.2032471 0.4399414
vt 0.1883545 0.4240723
vt 0.1885986 0.4399414
vt 0.1955566 0.4733887
vt 0.2316895 0.4606934
vt 0.2194824 0.4558105
vt 0.2020264 0.458252
vt 0.201416 0.4907227
vt 0.2376709 0.4768066
vt 0.2316895 0.4606934
vt 0.1955566 0.4733887
vt 0.2165527 0.4973145
vt 0.2324219 0.4919434
vt 0.2376709 0.4768066
vt 0.201416 0.4907227
vt 0.09277344 0.3457031
vt 0.09417725 0.3779297
vt 0.1102295 0.3779297
vt 0.109314 0.3457031
vt 0.1262207 0.3779297
vt 0.1257324 0.345459
vt 0.1422119 0.3779297
vt 0.142334 0.3447266
vt 0.1584473 0.3779297
vt 0.1588135 0.3439941
vt 0.07623291 0.345459
vt 0.07794189 0.3779297
vt 0.2211914 0.4897461
vt 0.2310791 0.4763184
vt 0.2211914 0.4626465
vt 0.2053223 0.4677734
vt 0.2053223 0.4846191
vt 0.2490234 0.4453125
vt 0.2470703 0.4360352
vt 0.2370605 0.4360352
vt 0.2368164 0.4453125
vt 0.2248535 0.4360352
vt 0.2248535 0.4360352
vt 0.2247314 0.4453125
vt 0.2247314 0.4453125
vt 0.2248535 0.4360352
vt 0.2124023 0.4360352
vt 0.2247314 0.4453125
vt 0.2124023 0.4360352
vt 0.2126465 0.4453125
vt 0.2000732 0.4360352
vt 0.2005615 0.4453125
vt 0.1901855 0.4360352
vt 0.1883545 0.4453125

g Tree6_1012_107
usemtl Tree6_1012_107
usemap Tree6_1012_107
f 1/1/1 3/3/3 2/2/2
f 1/1/1 4/4/4 3/3/3
f 5/5/5 1/1/1 2/2/2
f 5/5/5 2/2/2 6/6/6
f 7/7/7 5/5/5 6/6/6
f 7/7/7 6/6/6 8/8/8
f 9/9/9 7/7/7 8/8/8
f 9/9/9 8/8/8 10/10/10
f 11/11/11 13/13/13 12/12/12
f 11/11/11 14/14/14 13/13/13
f 14/14/14 15/15/15 13/13/13
f 14/14/14 16/16/16 15/15/15
f 16/16/16 17/17/17 15/15/15
f 16/16/16 18/18/18 17/17/17
f 18/18/18 19/19/19 17/17/17
f 18/18/18 20/20/20 19/19/19
f 21/21/21 23/23/23 22/22/22
f 21/21/21 24/24/24 23/23/23
f 25/25/25 21/21/21 22/22/22
f 25/25/25 22/22/22 26/26/26
f 27/27/27 25/25/25 26/26/26
f 27/27/27 26/26/26 28/28/28
f 29/29/29 27/27/27 28/28/28
f 29/29/29 28/28/28 30/30/30
f 31/31/31 33/33/33 32/32/32
f 31/31/31 34/34/34 33/33/33
f 34/34/34 35/35/35 33/33/33
f 34/34/34 36/36/36 35/35/35
f 36/36/36 37/37/37 35/35/35
f 36/36/36 38/38/38 37/37/37
f 38/38/38 39/39/39 37/37/37
f 38/38/38 40/40/40 39/39/39
f 41/41/41 43/43/43 42/42/42
f 41/41/41 44/44/44 43/43/43
f 45/45/45 47/47/47 46/46/46
f 45/45/45 48/48/48 47/47/47
f 49/49/49 51/51/51 50/50/50
f 49/49/49 52/52/52 51/51/51
f 53/53/53 55/55/55 54/54/54
f 53/53/53 56/56/56 55/55/55
f 57/57/57 59/59/59 58/58/58
f 57/57/57 60/60/60 59/59/59
f 60/60/60 61/61/61 59/59/59
f 60/60/60 62/62/62 61/61/61
f 62/62/62 63/63/63 61/61/61
f 62/62/62 64/64/64 63/63/63
f 64/64/64 65/65/65 63/63/63
f 64/64/64 66/66/66 65/65/65
f 66/66/66 67/67/67 65/65/65
f 66/66/66 68/68/68 67/67/67
f 68/68/68 69/69/69 67/67/67
f 68/68/68 70/70/70 69/69/69
f 70/70/70 71/71/71 69/69/69
f 70/70/70 72/72/72 71/71/71
f 58/58/58 59/59/59 73/73/73
f 58/58/58 73/73/73 74/74/74
f 59/59/59 75/75/75 73/73/73
f 59/59/59 61/61/61 75/75/75
f 61/61/61 76/76/76 75/75/75
f 61/61/61 63/63/63 76/76/76
f 63/63/63 77/77/77 76/76/76
f 63/63/63 65/65/65 77/77/77
f 65/65/65 78/78/78 77/77/77
f 65/65/65 67/67/67 78/78/78
f 67/67/67 79/79/79 78/78/78
f 67/67/67 69/69/69 79/79/79
f 69/69/69 80/80/80 79/79/79
f 71/71/71 81/81/81 80/80/80
f 71/71/71 82/82/82 81/81/81
f 80/80/80 81/81/81 83/83/83
f 80/80/80 83/83/83 84/84/84
f 79/79/79 80/80/80 84/84/84
f 75/75/75 76/76/76 85/85/85
f 75/75/75 85/85/85 86/86/86
f 76/76/76 87/87/87 85/85/85
f 76/76/76 77/77/77 87/87/87
f 77/77/77 88/88/88 87/87/87
f 77/77/77 78/78/78 88/88/88
f 78/78/78 89/89/89 88/88/88
f 78/78/78 79/79/79 89/89/89
f 79/79/79 84/84/84 89/89/89
f 69/69/69 71/71/71 80/80/80
f 73/73/73 86/86/86 90/90/90
f 74/74/74 73/73/73 90/90/90
f 74/74/74 90/90/90 91/91/91
f 73/73/73 75/75/75 86/86/86
f 92/92/92 94/94/94 93/93/93
f 92/92/92 95/95/95 94/94/94
f 96/96/96 92/92/92 93/93/93
f 96/96/96 93/93/93 97/97/97
f 98/98/98 96/96/96 97/97/97
f 98/98/98 97/97/97 99/99/99
f 100/100/100 98/98/98 99/99/99
f 100/100/100 99/99/99 101/101/101
f 102/102/102 104/104/104 103/103/103
f 102/102/102 105/105/105 104/104/104
f 105/105/105 106/106/106 104/104/104
f 105/105/105 107/107/107 106/106/106
f 107/107/107 108/108/108 106/106/106
f 107/107/107 109/109/109 108/108/108
f 109/109/109 110/110/110 108/108/108
f 109/109/109 111/111/111 110/110/110
f 112/112/112 114/114/114 113/113/113
f 112/112/112 115/115/115 114/114/114
f 116/116/116 112/112/112 113/113/113
f 116/116/116 113/113/113 117/117/117
f 118/118/118 116/116/116 117/117/117
f 118/118/118 117/117/117 119/119/119
f 120/120/120 118/118/118 119/119/119
f 120/120/120 119/119/119 121/121/121
f 122/122/122 124/124/124 123/123/123
f 122/122/122 125/125/125 124/124/124
f 125/125/125 126/126/126 124/124/124
f 125/125/125 127/127/127 126/126/126
f 127/127/127 128/128/128 126/126/126
f 127/127/127 129/129/129 128/128/128
f 129/129/129 130/130/130 128/128/128
f 129/129/129 131/131/131 130/130/130
f 132/132/132 134/134/134 133/133/133
f 132/132/132 135/135/135 134/134/134
f 136/136/136 138/138/138 137/137/137
f 136/136/136 139/139/139 138/138/138
f 140/140/140 142/142/142 141/141/141
f 140/140/140 143/143/143 142/142/142
f 144/144/144 146/146/146 145/145/145
f 144/144/144 147/147/147 146/146/146
f 147/147/147 148/148/148 146/146/146
f 147/147/147 149/149/149 148/148/148
f 149/149/149 150/150/150 148/148/148
f 149/149/149 151/151/151 150/150/150
f 151/151/151 152/152/152 150/150/150
f 151/151/151 153/153/153 152/152/152
f 154/154/154 144/144/144 145/145/145
f 154/154/154 145/145/145 155/155/155
f 156/156/156 158/158/158 157/157/157
f 158/158/158 156/156/156 159/159/159
f 159/159/159 156/156/156 160/160/160
f 161/161/161 163/163/163 162/162/162
f 161/161/161 164/164/164 163/163/163
f 164/164/164 165/165/165 163/163/163
f 164/164/164 167/167/167 166/166/166
f 168/168/168 170/170/170 169/169/169
f 171/171/171 173/173/173 172/172/172
f 173/173/173 174/174/174 172/172/172
f 173/173/173 175/175/175 174/174/174
f 175/175/175 176/176/176 174/174/174
f 175/175/175 177/177/177 176/176/176
