#Tree_conf2_(80)_2513_689.obj

v 0.118909 -0.1466557 -0.4504071
v 0.05755744 1.159755 -0.1771443
v -0.1506838 1.159755 -0.1094842
v -0.4105718 -0.1466557 -0.2783691
v -0.1506841 1.159755 0.1094751
v -0.4105722 -0.1466557 0.2783624
v 0.05755837 1.159755 0.1771375
v 0.1189097 -0.1466557 0.450397
v 0.1862584 1.159755 -2.05995E-06
v 0.4461477 -0.1466557 -6.878084E-06
v 0.05755744 1.159755 -0.1771443
v 0.118909 -0.1466557 -0.4504071
v -0.06863014 6.66993 0.05615545
v -0.06862976 6.66993 -0.0561632
v 0.038189 6.66993 -0.09086886
v 0.038189 6.66993 -0.09086886
v 0.1042056 6.66993 -6.347334E-06
v 0.03818714 6.66993 0.09086304

vn -0.02767798 0.2088854 -0.9775484
vn -0.01802677 0.08978422 -0.9957981
vn -0.9519449 0.1000239 -0.2894755
vn -0.9327306 0.2305968 -0.2771978
vn -0.5672522 0.1000239 0.8174473
vn -0.5597932 0.2305969 0.7958999
vn 0.6034168 0.08978421 0.7923554
vn 0.5845279 0.2088854 0.7840242
vn 0.9412798 0.08355004 -0.3271264
vn 0.926429 0.1951094 -0.3219653
vn -0.01802677 0.08978422 -0.9957981
vn -0.02767798 0.2088854 -0.9775484
vn -0.5708571 0.01773245 0.8208579
vn -0.956888 0.01773245 -0.2899155
vn -0.01975667 0.01597498 -0.9996772
vn -0.01975667 0.01597498 -0.9996772
vn 0.9444777 0.01488988 -0.3282378
vn 0.6044655 0.01597498 0.7964711

vt 0.4238281 0.003742218
vt 0.4238281 0.02593994
vt 0.4316406 0.02593994
vt 0.4316406 0.003742218
vt 0.4394531 0.02593994
vt 0.4394531 0.003740311
vt 0.4472656 0.02593994
vt 0.4472656 0.003740311
vt 0.4550781 0.02593994
vt 0.4550781 0.003740311
vt 0.4628906 0.02593994
vt 0.4628906 0.003738403
vt 0.4394531 0.1196289
vt 0.4318848 0.1196289
vt 0.4240723 0.1196289
vt 0.4628906 0.1195679
vt 0.4550781 0.1196289
vt 0.4472656 0.1196289

g Tree_conf2_(80)_2513_689
usemtl Tree_conf2_(80)_2513_689
usemap Tree_conf2_(80)_2513_689
f 1/1/1 3/3/3 2/2/2
f 1/1/1 4/4/4 3/3/3
f 4/4/4 5/5/5 3/3/3
f 4/4/4 6/6/6 5/5/5
f 6/6/6 7/7/7 5/5/5
f 6/6/6 8/8/8 7/7/7
f 8/8/8 9/9/9 7/7/7
f 8/8/8 10/10/10 9/9/9
f 10/10/10 11/11/11 9/9/9
f 10/10/10 12/12/12 11/11/11
f 3/3/3 5/5/5 13/13/13
f 3/3/3 13/13/13 14/14/14
f 2/2/2 3/3/3 14/14/14
f 2/2/2 14/14/14 15/15/15
f 9/9/9 11/11/11 16/16/16
f 9/9/9 16/16/16 17/17/17
f 7/7/7 9/9/9 17/17/17
f 7/7/7 17/17/17 18/18/18
f 5/5/5 18/18/18 13/13/13
f 5/5/5 7/7/7 18/18/18
