#Tree_conf2_(26)_1201_280.obj

v 2.229059 2.41453 -0.01389011
v 1.067521 2.895794 -0.4499938
v 1.566361 2.41453 -1.586003
v -0.4499957 2.895794 -1.067523
v -0.01389011 2.41453 -2.229059
v -1.586005 2.41453 -1.566363
v -1.253917 2.895794 0.007813646
v -2.229059 2.41453 0.01389011
v -0.4366571 2.895794 1.073048
v -1.566363 2.41453 1.586003
v 0.01389011 2.41453 2.229059
v 0.8921759 2.895794 0.8811278
v 1.586003 2.41453 1.566363
v 0 3.673443 0
v 0.7697479 5.456536 -0.7697468
v 0.2848012 6.349499 -0.2848022
v 1.318387E-06 6.349499 -0.4027693
v 4.219532E-07 5.456536 -1.088588
v -0.2848003 6.349499 -0.2847993
v -0.7697468 5.456536 -0.7697459
v -0.4027674 6.349499 6.021904E-07
v -1.088586 5.456536 -4.086783E-07
v -0.2847993 6.349499 0.2847984
v -0.7697479 5.456536 0.7697468
v 5.889156E-07 6.349499 0.4027693
v 1.511899E-06 5.456536 1.088585
v 0.2848003 6.349499 0.2847993
v 0.7697468 5.456536 0.7697459
v 0.4027693 6.349499 -5.889156E-07
v 1.088586 5.456536 4.086783E-07
v 1.907302E-06 7.127672 1.327486E-08
v 1.482311 3.358461 1.32172
v 0.9566589 3.868391 0.3851389
v 1.918955 3.351292 -0.08711797
v 0.2964975 3.862013 -0.868006
v 1.231503 3.344652 -1.392071
v -0.1773478 3.34243 -1.828713
v -0.8338456 3.863356 -0.6041076
v -1.48231 3.345928 -1.141268
v -0.8861161 3.869257 0.555446
v -1.918954 3.353096 0.2675728
v -1.231502 3.359735 1.572522
v 0.09976365 3.872375 1.168108
v 0.177347 3.361958 2.009164
v 7.789051E-07 4.729911 0.1149892
v -1.323041 5.128105 0.9046321
v -0.5031171 5.474663 0.7122253
v -0.4085388 5.021135 1.517632
v 0.5287393 5.308237 0.5056301
v 0.665975 4.847831 1.302499
v 1.271064 4.709711 0.3852519
v 0.5758548 5.256999 -0.3610483
v 1.052275 4.687684 -0.6967986
v -0.2408068 5.365918 -0.6453684
v 0.1377719 4.794655 -1.309803
v -0.9367418 4.967959 -1.094666
v -0.8834112 5.49236 -0.06887896
v -1.54183 5.106079 -0.1774184
v 0.01565686 6.137804 0.05302773
v 1.425083 4.340246 -0.8985659
v 0.5214413 4.778743 -0.7078214
v 0.3811187 4.334083 -1.61885
v -0.6765438 4.77326 -0.4880235
v -0.8663923 4.328372 -1.389967
v -1.586677 4.326462 -0.3459933
v -0.7503852 4.774414 0.5073782
v -1.357799 4.32947 0.9015253
v 0.1877583 4.779488 0.8481825
v -0.3138369 4.335634 1.62181
v 0.933676 4.341344 1.392926
v 0.9438225 4.782169 0.1965379
v 1.653959 4.343255 0.3489526
v 0.05396285 5.519577 0.007841126

vn 0.6924211 0.7214358 -0.009134231
vn 0.3235066 0.92652 -0.1921043
vn 0.4831578 0.7214344 -0.4960755
vn -0.1025004 0.92652 -0.3620142
vn -0.009134186 0.7214358 -0.6924211
vn -0.4960743 0.721436 -0.4831567
vn -0.4026761 0.9153271 0.005312103
vn -0.6924211 0.7214358 0.009134231
vn -0.1537526 0.9098089 0.3854969
vn -0.4831578 0.7214344 0.4960755
vn 0.009134186 0.7214358 0.6924211
vn 0.2884912 0.9153271 0.2809789
vn 0.4960743 0.721436 0.4831567
vn 0 1 0
vn 0.6211006 0.4664523 -0.6298066
vn 0.5672612 0.5893607 -0.575212
vn -0.005622444 0.5893612 -0.8078501
vn -0.006156082 0.4664526 -0.8845248
vn -0.5752117 0.5893613 -0.5672607
vn -0.6298066 0.4664523 -0.6211006
vn -0.8078499 0.5893614 0.005622444
vn -0.8845248 0.4664526 0.006156082
vn -0.5672603 0.5893613 0.5752121
vn -0.6211006 0.4664523 0.6298066
vn 0.005622445 0.5893611 0.8078502
vn 0.006156082 0.4664526 0.8845248
vn 0.5752125 0.5893606 0.5672606
vn 0.6298066 0.4664523 0.6211006
vn 0.8078504 0.5893607 -0.005622447
vn 0.8845248 0.4664526 -0.006156082
vn 0 1 0
vn 0.5995658 0.685831 0.4125004
vn 0.4496125 0.8907663 0.06621241
vn 0.7581487 0.6344045 -0.1508027
vn 0.1864081 0.889865 -0.4164041
vn 0.4755941 0.589 -0.6533676
vn -0.07450078 0.5742365 -0.8152927
vn -0.3717452 0.874849 -0.3105554
vn -0.5833254 0.5975742 -0.5501241
vn -0.4400035 0.8681709 0.2295129
vn -0.7624026 0.6471028 -0.0005052318
vn -0.4937176 0.6952757 0.5223357
vn 0.04815429 0.8767521 0.4785259
vn 0.07689872 0.7119436 0.6980135
vn -0.000817771 0.9930726 -0.1174998
vn -0.6819882 0.5627667 0.4671036
vn -0.1014746 0.8928517 0.4387695
vn -0.1519466 0.5627652 0.8125316
vn 0.5155277 0.8018581 0.3020843
vn 0.4671036 0.5627667 0.6819882
vn 0.8125305 0.562767 0.1519464
vn 0.5685847 0.7447317 -0.3494084
vn 0.6819882 0.5627667 -0.4671036
vn 0.001580323 0.8006369 -0.5991477
vn 0.1519466 0.5627652 -0.8125316
vn -0.4671036 0.5627667 -0.6819882
vn -0.4311204 0.8897872 -0.149713
vn -0.8125305 0.562767 -0.1519464
vn 0 1 0
vn 0.5727925 0.6858311 -0.448937
vn 0.1975196 0.8907662 -0.4092939
vn 0.08259852 0.6344045 -0.7685755
vn -0.3416914 0.889865 -0.3023035
vn -0.4814309 0.589 -0.6490788
vn -0.8003126 0.5742365 -0.1724883
vn -0.4074378 0.8748488 0.2619807
vn -0.6992781 0.5975742 0.3923203
vn 0.08756901 0.8681709 0.4884784
vn -0.2282664 0.6471027 0.7274286
vn 0.3509691 0.6952757 0.6272259
vn 0.4710561 0.8767521 0.09701507
vn 0.6891066 0.7119437 0.1351603
vn -0.1123773 0.9930726 -0.0343252

vt 0.2459717 0.0847168
vt 0.213623 0.08380127
vt 0.2144775 0.1161499
vt 0.1708984 0.08374023
vt 0.1700439 0.1160889
vt 0.1385498 0.08459473
vt 0.1621094 0.04983521
vt 0.1385498 0.0401001
vt 0.1923828 0.03216553
vt 0.1700439 0.008682251
vt 0.2145996 0.008712769
vt 0.2225342 0.04989624
vt 0.2460938 0.04019165
vt 0.1922607 0.06237793
vt 0.3461914 0.0803833
vt 0.3190918 0.06854248
vt 0.3068848 0.08081055
vt 0.3181152 0.1083374
vt 0.2895508 0.08081055
vt 0.2785645 0.1083374
vt 0.2770996 0.06854248
vt 0.2504883 0.08032227
vt 0.2770996 0.05114746
vt 0.2504883 0.04064941
vt 0.2895508 0.03884888
vt 0.2785645 0.01256561
vt 0.3068848 0.03887939
vt 0.3183594 0.01262665
vt 0.3190918 0.0512085
vt 0.3464355 0.04077148
vt 0.2978516 0.05935669
vt 0.2459717 0.0847168
vt 0.213623 0.08380127
vt 0.2144775 0.1161499
vt 0.1708984 0.08374023
vt 0.1700439 0.1160889
vt 0.1385498 0.08459473
vt 0.1621094 0.04983521
vt 0.1385498 0.0401001
vt 0.1923828 0.03216553
vt 0.1700439 0.008682251
vt 0.2145996 0.008712769
vt 0.2225342 0.04989624
vt 0.2460938 0.04019165
vt 0.1922607 0.06237793
vt 0.2459717 0.0847168
vt 0.213623 0.08380127
vt 0.2144775 0.1161499
vt 0.1708984 0.08374023
vt 0.1700439 0.1160889
vt 0.1385498 0.08459473
vt 0.1621094 0.04983521
vt 0.1385498 0.0401001
vt 0.1923828 0.03216553
vt 0.1700439 0.008682251
vt 0.2145996 0.008712769
vt 0.2225342 0.04989624
vt 0.2460938 0.04019165
vt 0.1922607 0.06237793
vt 0.2459717 0.0847168
vt 0.213623 0.08380127
vt 0.2144775 0.1161499
vt 0.1708984 0.08374023
vt 0.1700439 0.1160889
vt 0.1385498 0.08459473
vt 0.1621094 0.04983521
vt 0.1385498 0.0401001
vt 0.1923828 0.03216553
vt 0.1700439 0.008682251
vt 0.2145996 0.008712769
vt 0.2225342 0.04989624
vt 0.2460938 0.04019165
vt 0.1922607 0.06237793

g Tree_conf2_(26)_1201_280
usemtl Tree_conf2_(26)_1201_280
usemap Tree_conf2_(26)_1201_280
f 1/1/1 3/3/3 2/2/2
f 3/3/3 4/4/4 2/2/2
f 3/3/3 5/5/5 4/4/4
f 5/5/5 6/6/6 4/4/4
f 6/6/6 7/7/7 4/4/4
f 6/6/6 8/8/8 7/7/7
f 8/8/8 9/9/9 7/7/7
f 8/8/8 10/10/10 9/9/9
f 10/10/10 11/11/11 9/9/9
f 11/11/11 12/12/12 9/9/9
f 11/11/11 13/13/13 12/12/12
f 13/13/13 2/2/2 12/12/12
f 13/13/13 1/1/1 2/2/2
f 2/2/2 4/4/4 14/14/14
f 4/4/4 7/7/7 14/14/14
f 7/7/7 9/9/9 14/14/14
f 9/9/9 12/12/12 14/14/14
f 12/12/12 2/2/2 14/14/14
f 15/15/15 17/17/17 16/16/16
f 15/15/15 18/18/18 17/17/17
f 18/18/18 19/19/19 17/17/17
f 18/18/18 20/20/20 19/19/19
f 20/20/20 21/21/21 19/19/19
f 20/20/20 22/22/22 21/21/21
f 22/22/22 23/23/23 21/21/21
f 22/22/22 24/24/24 23/23/23
f 24/24/24 25/25/25 23/23/23
f 24/24/24 26/26/26 25/25/25
f 26/26/26 27/27/27 25/25/25
f 26/26/26 28/28/28 27/27/27
f 28/28/28 29/29/29 27/27/27
f 28/28/28 30/30/30 29/29/29
f 30/30/30 16/16/16 29/29/29
f 30/30/30 15/15/15 16/16/16
f 16/16/16 17/17/17 31/31/31
f 17/17/17 19/19/19 31/31/31
f 19/19/19 21/21/21 31/31/31
f 21/21/21 23/23/23 31/31/31
f 23/23/23 25/25/25 31/31/31
f 25/25/25 27/27/27 31/31/31
f 27/27/27 29/29/29 31/31/31
f 29/29/29 16/16/16 31/31/31
f 32/32/32 34/34/34 33/33/33
f 34/34/34 35/35/35 33/33/33
f 34/34/34 36/36/36 35/35/35
f 36/36/36 37/37/37 35/35/35
f 37/37/37 38/38/38 35/35/35
f 37/37/37 39/39/39 38/38/38
f 39/39/39 40/40/40 38/38/38
f 39/39/39 41/41/41 40/40/40
f 41/41/41 42/42/42 40/40/40
f 42/42/42 43/43/43 40/40/40
f 42/42/42 44/44/44 43/43/43
f 44/44/44 33/33/33 43/43/43
f 44/44/44 32/32/32 33/33/33
f 33/33/33 35/35/35 45/45/45
f 35/35/35 38/38/38 45/45/45
f 38/38/38 40/40/40 45/45/45
f 40/40/40 43/43/43 45/45/45
f 43/43/43 33/33/33 45/45/45
f 46/46/46 48/48/48 47/47/47
f 48/48/48 49/49/49 47/47/47
f 48/48/48 50/50/50 49/49/49
f 50/50/50 51/51/51 49/49/49
f 51/51/51 52/52/52 49/49/49
f 51/51/51 53/53/53 52/52/52
f 53/53/53 54/54/54 52/52/52
f 53/53/53 55/55/55 54/54/54
f 55/55/55 56/56/56 54/54/54
f 56/56/56 57/57/57 54/54/54
f 56/56/56 58/58/58 57/57/57
f 58/58/58 47/47/47 57/57/57
f 58/58/58 46/46/46 47/47/47
f 47/47/47 49/49/49 59/59/59
f 49/49/49 52/52/52 59/59/59
f 52/52/52 54/54/54 59/59/59
f 54/54/54 57/57/57 59/59/59
f 57/57/57 47/47/47 59/59/59
f 60/60/60 62/62/62 61/61/61
f 62/62/62 63/63/63 61/61/61
f 62/62/62 64/64/64 63/63/63
f 64/64/64 65/65/65 63/63/63
f 65/65/65 66/66/66 63/63/63
f 65/65/65 67/67/67 66/66/66
f 67/67/67 68/68/68 66/66/66
f 67/67/67 69/69/69 68/68/68
f 69/69/69 70/70/70 68/68/68
f 70/70/70 71/71/71 68/68/68
f 70/70/70 72/72/72 71/71/71
f 72/72/72 61/61/61 71/71/71
f 72/72/72 60/60/60 61/61/61
f 61/61/61 63/63/63 73/73/73
f 63/63/63 66/66/66 73/73/73
f 66/66/66 68/68/68 73/73/73
f 68/68/68 71/71/71 73/73/73
f 71/71/71 61/61/61 73/73/73
