#Tree_conf2_(21)_1188_248.obj

v 2.22906 2.41453 -0.01389
v 1.067521 2.895794 -0.4499936
v 1.566361 2.41453 -1.586004
v -0.4499974 2.895794 -1.067521
v -0.01389 2.41453 -2.22906
v -1.586004 2.41453 -1.566361
v -1.253916 2.895794 0.007812258
v -2.22906 2.41453 0.01389
v -0.4366553 2.895794 1.073047
v -1.566361 2.41453 1.586004
v 0.01389 2.41453 2.22906
v 0.8921787 2.895794 0.8811267
v 1.586004 2.41453 1.566361
v 0 3.673443 0
v 0.7697472 5.456536 -0.7697482
v 0.2848025 6.349499 -0.2848017
v 1.308316E-06 6.349499 -0.4027696
v 7.275123E-07 5.456536 -1.088585
v -0.2847979 6.349499 -0.284802
v -0.7697482 5.456536 -0.7697472
v -0.4027696 6.349499 -1.308316E-06
v -1.088585 5.456536 -7.275123E-07
v -0.2847987 6.349499 0.2848022
v -0.7697467 5.456536 0.7697443
v 2.477453E-06 6.349499 0.4027701
v -7.275123E-07 5.456536 1.088585
v 0.2848022 6.349499 0.2847987
v 0.7697482 5.456536 0.7697472
v 0.4027696 6.349499 1.308316E-06
v 1.088585 5.456536 7.275123E-07
v 0 7.127672 0
v 1.482309 3.358461 1.321718
v 0.9566596 3.868391 0.3851388
v 1.918957 3.351292 -0.08712061
v 0.2964972 3.862013 -0.8680061
v 1.231504 3.344652 -1.39207
v -0.1773469 3.34243 -1.828712
v -0.8338454 3.863356 -0.6041096
v -1.482311 3.345928 -1.141269
v -0.8861144 3.869257 0.5554473
v -1.918955 3.353096 0.2675702
v -1.231503 3.359735 1.572524
v 0.09976444 3.872375 1.168109
v 0.1773481 3.361958 2.009166
v -9.463523E-07 4.729911 0.1149886
v -1.323043 5.128105 0.9046336
v -0.5031169 5.474663 0.7122271
v -0.4085407 5.021135 1.517634
v 0.528737 5.308237 0.5056325
v 0.6659728 4.847831 1.302501
v 1.271065 4.709711 0.3852502
v 0.575854 5.256999 -0.3610464
v 1.052275 4.687684 -0.6968002
v -0.2408073 5.365918 -0.6453683
v 0.1377726 4.794655 -1.309801
v -0.9367409 4.967959 -1.094667
v -0.8834105 5.49236 -0.06887752
v -1.541829 5.106079 -0.1774164
v 0.01565713 6.137804 0.05302785
v 1.425084 4.340246 -0.8985679
v 0.5214405 4.778743 -0.7078204
v 0.3811202 4.334083 -1.618849
v -0.6765461 4.77326 -0.4880231
v -0.8663931 4.328372 -1.389968
v -1.586675 4.326462 -0.3459924
v -0.7503847 4.774414 0.5073783
v -1.357799 4.32947 0.9015243
v 0.1877573 4.779488 0.8481835
v -0.3138352 4.335634 1.621809
v 0.9336749 4.341344 1.392924
v 0.943822 4.782169 0.1965379
v 1.65396 4.343255 0.3489526
v 0.05396507 5.519577 0.007841072

vn 0.08940037 0.7214358 0.6866863
vn 0.2283372 0.92652 0.2990362
vn 0.5487772 0.7214344 0.4223458
vn 0.3476788 0.92652 -0.1438056
vn 0.6866863 0.7214358 -0.08940033
vn 0.4223448 0.721436 -0.5487759
vn -0.05199072 0.9153271 -0.399341
vn -0.08940037 0.7214358 -0.6866863
vn -0.4007309 0.9098089 -0.1079929
vn -0.5487772 0.7214344 -0.4223458
vn -0.6866863 0.7214358 0.08940033
vn -0.2456139 0.9153271 0.3191397
vn -0.4223448 0.721436 0.5487759
vn 0 1 0
vn 0.6976081 0.4664523 0.543843
vn 0.6371362 0.5893607 0.4967007
vn 0.8017432 0.5893612 -0.09930322
vn 0.8778384 0.4664526 -0.1087283
vn 0.4967002 0.5893613 -0.6371359
vn 0.543843 0.4664523 -0.6976081
vn -0.0993032 0.5893614 -0.8017431
vn -0.1087283 0.4664526 -0.8778384
vn -0.6371362 0.5893613 -0.4966998
vn -0.6976081 0.4664523 -0.543843
vn -0.8017433 0.5893611 0.09930323
vn -0.8778384 0.4664526 0.1087283
vn -0.4967001 0.5893606 0.6371366
vn -0.543843 0.4664523 0.6976081
vn 0.09930326 0.5893607 0.8017436
vn 0.1087283 0.4664526 0.8778384
vn 0 1 0
vn -0.3401596 0.685831 0.6433718
vn -0.01360577 0.8907663 0.454258
vn 0.2377374 0.6344045 0.7355351
vn 0.4352178 0.889865 0.1368424
vn 0.7041298 0.589 0.3965857
vn 0.801145 0.5742365 -0.1685799
vn 0.2653324 0.874849 -0.4052628
vn 0.4787381 0.5975742 -0.6432068
vn -0.279008 0.8681709 -0.4104069
vn -0.08794455 0.6471028 -0.7573135
vn -0.5760852 0.6952757 -0.4297878
vn -0.4697085 0.8767521 0.103343
vn -0.6843795 0.7119436 0.1573561
vn 0.1166116 0.9930726 -0.01444341
vn -0.5430672 0.5627667 -0.6231948
vn -0.4475791 0.8928517 -0.04988775
vn -0.8246727 0.5627652 -0.05665883
vn -0.2402382 0.8018581 0.5470917
vn -0.6231948 0.5627667 0.5430672
vn -0.05665874 0.562767 0.8246716
vn 0.4130107 0.7447317 0.5242108
vn 0.5430672 0.5627667 0.6231948
vn 0.5952857 0.8006369 -0.06793752
vn 0.8246727 0.5627652 0.05665883
vn 0.6231948 0.5627667 -0.5430672
vn 0.09868786 0.8897872 -0.4455777
vn 0.05665874 0.562767 -0.8246716
vn 0 1 0
vn 0.5123555 0.6858311 0.5168439
vn 0.4294446 0.8907662 0.1487037
vn 0.7729684 0.6344045 -0.007121675
vn 0.2606227 0.889865 -0.3744545
vn 0.5888455 0.589 -0.5534799
vn 0.07847939 0.5742365 -0.8149193
vn -0.3074788 0.8748488 -0.3742944
vn -0.4707947 0.5975742 -0.6490434
vn -0.4750213 0.8681709 0.1436462
vn -0.7489983 0.6471027 -0.1423361
vn -0.582275 0.6952757 0.4213639
vn -0.04171278 0.8767521 0.4791303
vn -0.05430435 0.7119437 0.7001337
vn 0.02105654 0.9930726 -0.1156006

vt 0.2459717 0.0847168
vt 0.213623 0.08380127
vt 0.2144775 0.1161499
vt 0.1708984 0.08374023
vt 0.1700439 0.1160889
vt 0.1385498 0.08459473
vt 0.1621094 0.04983521
vt 0.1385498 0.0401001
vt 0.1923828 0.03216553
vt 0.1700439 0.008682251
vt 0.2145996 0.008712769
vt 0.2225342 0.04989624
vt 0.2460938 0.04019165
vt 0.1922607 0.06237793
vt 0.3461914 0.0803833
vt 0.3190918 0.06854248
vt 0.3068848 0.08081055
vt 0.3181152 0.1083374
vt 0.2895508 0.08081055
vt 0.2785645 0.1083374
vt 0.2770996 0.06854248
vt 0.2504883 0.08032227
vt 0.2770996 0.05114746
vt 0.2504883 0.04064941
vt 0.2895508 0.03884888
vt 0.2785645 0.01256561
vt 0.3068848 0.03887939
vt 0.3183594 0.01262665
vt 0.3190918 0.0512085
vt 0.3464355 0.04077148
vt 0.2978516 0.05935669
vt 0.2459717 0.0847168
vt 0.213623 0.08380127
vt 0.2144775 0.1161499
vt 0.1708984 0.08374023
vt 0.1700439 0.1160889
vt 0.1385498 0.08459473
vt 0.1621094 0.04983521
vt 0.1385498 0.0401001
vt 0.1923828 0.03216553
vt 0.1700439 0.008682251
vt 0.2145996 0.008712769
vt 0.2225342 0.04989624
vt 0.2460938 0.04019165
vt 0.1922607 0.06237793
vt 0.2459717 0.0847168
vt 0.213623 0.08380127
vt 0.2144775 0.1161499
vt 0.1708984 0.08374023
vt 0.1700439 0.1160889
vt 0.1385498 0.08459473
vt 0.1621094 0.04983521
vt 0.1385498 0.0401001
vt 0.1923828 0.03216553
vt 0.1700439 0.008682251
vt 0.2145996 0.008712769
vt 0.2225342 0.04989624
vt 0.2460938 0.04019165
vt 0.1922607 0.06237793
vt 0.2459717 0.0847168
vt 0.213623 0.08380127
vt 0.2144775 0.1161499
vt 0.1708984 0.08374023
vt 0.1700439 0.1160889
vt 0.1385498 0.08459473
vt 0.1621094 0.04983521
vt 0.1385498 0.0401001
vt 0.1923828 0.03216553
vt 0.1700439 0.008682251
vt 0.2145996 0.008712769
vt 0.2225342 0.04989624
vt 0.2460938 0.04019165
vt 0.1922607 0.06237793

g Tree_conf2_(21)_1188_248
usemtl Tree_conf2_(21)_1188_248
usemap Tree_conf2_(21)_1188_248
f 1/1/1 3/3/3 2/2/2
f 3/3/3 4/4/4 2/2/2
f 3/3/3 5/5/5 4/4/4
f 5/5/5 6/6/6 4/4/4
f 6/6/6 7/7/7 4/4/4
f 6/6/6 8/8/8 7/7/7
f 8/8/8 9/9/9 7/7/7
f 8/8/8 10/10/10 9/9/9
f 10/10/10 11/11/11 9/9/9
f 11/11/11 12/12/12 9/9/9
f 11/11/11 13/13/13 12/12/12
f 13/13/13 2/2/2 12/12/12
f 13/13/13 1/1/1 2/2/2
f 2/2/2 4/4/4 14/14/14
f 4/4/4 7/7/7 14/14/14
f 7/7/7 9/9/9 14/14/14
f 9/9/9 12/12/12 14/14/14
f 12/12/12 2/2/2 14/14/14
f 15/15/15 17/17/17 16/16/16
f 15/15/15 18/18/18 17/17/17
f 18/18/18 19/19/19 17/17/17
f 18/18/18 20/20/20 19/19/19
f 20/20/20 21/21/21 19/19/19
f 20/20/20 22/22/22 21/21/21
f 22/22/22 23/23/23 21/21/21
f 22/22/22 24/24/24 23/23/23
f 24/24/24 25/25/25 23/23/23
f 24/24/24 26/26/26 25/25/25
f 26/26/26 27/27/27 25/25/25
f 26/26/26 28/28/28 27/27/27
f 28/28/28 29/29/29 27/27/27
f 28/28/28 30/30/30 29/29/29
f 30/30/30 16/16/16 29/29/29
f 30/30/30 15/15/15 16/16/16
f 16/16/16 17/17/17 31/31/31
f 17/17/17 19/19/19 31/31/31
f 19/19/19 21/21/21 31/31/31
f 21/21/21 23/23/23 31/31/31
f 23/23/23 25/25/25 31/31/31
f 25/25/25 27/27/27 31/31/31
f 27/27/27 29/29/29 31/31/31
f 29/29/29 16/16/16 31/31/31
f 32/32/32 34/34/34 33/33/33
f 34/34/34 35/35/35 33/33/33
f 34/34/34 36/36/36 35/35/35
f 36/36/36 37/37/37 35/35/35
f 37/37/37 38/38/38 35/35/35
f 37/37/37 39/39/39 38/38/38
f 39/39/39 40/40/40 38/38/38
f 39/39/39 41/41/41 40/40/40
f 41/41/41 42/42/42 40/40/40
f 42/42/42 43/43/43 40/40/40
f 42/42/42 44/44/44 43/43/43
f 44/44/44 33/33/33 43/43/43
f 44/44/44 32/32/32 33/33/33
f 33/33/33 35/35/35 45/45/45
f 35/35/35 38/38/38 45/45/45
f 38/38/38 40/40/40 45/45/45
f 40/40/40 43/43/43 45/45/45
f 43/43/43 33/33/33 45/45/45
f 46/46/46 48/48/48 47/47/47
f 48/48/48 49/49/49 47/47/47
f 48/48/48 50/50/50 49/49/49
f 50/50/50 51/51/51 49/49/49
f 51/51/51 52/52/52 49/49/49
f 51/51/51 53/53/53 52/52/52
f 53/53/53 54/54/54 52/52/52
f 53/53/53 55/55/55 54/54/54
f 55/55/55 56/56/56 54/54/54
f 56/56/56 57/57/57 54/54/54
f 56/56/56 58/58/58 57/57/57
f 58/58/58 47/47/47 57/57/57
f 58/58/58 46/46/46 47/47/47
f 47/47/47 49/49/49 59/59/59
f 49/49/49 52/52/52 59/59/59
f 52/52/52 54/54/54 59/59/59
f 54/54/54 57/57/57 59/59/59
f 57/57/57 47/47/47 59/59/59
f 60/60/60 62/62/62 61/61/61
f 62/62/62 63/63/63 61/61/61
f 62/62/62 64/64/64 63/63/63
f 64/64/64 65/65/65 63/63/63
f 65/65/65 66/66/66 63/63/63
f 65/65/65 67/67/67 66/66/66
f 67/67/67 68/68/68 66/66/66
f 67/67/67 69/69/69 68/68/68
f 69/69/69 70/70/70 68/68/68
f 70/70/70 71/71/71 68/68/68
f 70/70/70 72/72/72 71/71/71
f 72/72/72 61/61/61 71/71/71
f 72/72/72 60/60/60 61/61/61
f 61/61/61 63/63/63 73/73/73
f 63/63/63 66/66/66 73/73/73
f 66/66/66 68/68/68 73/73/73
f 68/68/68 71/71/71 73/73/73
f 71/71/71 61/61/61 73/73/73
