#Tree2_(17)_3126_518.obj

v 0.7752665 1.310929 0.07278243
v 1.30642 2.346469 -0.3110512
v 1.184129 2.31463 -0.5785205
v 0.4093684 1.223058 -0.1454413
v 0.5879218 1.480954 0.5344542
v 1.155129 2.463786 -0.08553927
v 0.3771316 1.588565 0.7732888
v 1.064944 4.630815 -1.694033
v 1.167387 4.630815 -1.446715
v 1.064945 4.630815 -1.199393
v 0.7982628 2.602398 -0.0176461
v 0.05036936 1.736241 0.6994739
v 0.4403878 2.6719 -0.1771038
v -0.5084188 1.564545 0.3430382
v 0.2979113 2.670999 -0.341251
v -0.3605412 1.480954 -0.01388288
v 0.4708379 2.515306 -0.6946645
v -0.0173909 1.301476 -0.4783586
v 0.467865 4.630815 -1.446714
v 0.5702859 4.630815 -1.694031
v 0.8413222 2.380942 -0.7495841
v -0.0173909 1.301476 -0.4783586
v 0.8176179 4.630815 -1.796471
v 1.184129 2.31463 -0.5785205
v 0.4093684 1.223058 -0.1454413
v -0.0173909 1.301476 -0.4783586
v 1.064944 4.630815 -1.694033
v 0.5702863 4.630815 -1.199392
v 0.8176189 4.630815 -1.096949
v -0.4733675 0.3292439 -0.1358106
v -0.6694376 0.4708683 0.2543023
v -0.4733663 0.6728067 0.6444137
v -2.19927E-06 0.4708683 0.8060019
v 0.4733807 0.4910424 -0.2004462
v 1.787332E-07 0.8423996 -0.6920156
v 0.5610939 0.7986991 0.5659723
v 0.8372418 0.6728067 0.1318414
v 0.4733807 0.4910424 -0.2004462
v -0.9349048 0.2222972 0.7275578
v -0.5725094 0.1527944 0.9643083
v -0.02356395 -0.1077578 0.7724609
v -0.5089781 -0.1176493 0.8692766
v -0.8674602 -0.1360745 1.196746
v -0.7166182 -0.3318532 1.150717
v -0.8674602 -0.1360745 1.196746
v -1.033335 -0.5150276 1.527069
v 0.7858716 0.2580049 0.723857
v 0.4410258 -0.2057266 0.9391022
v 0.7991849 -0.1077578 0.2311964
v 0.9088825 -0.2057266 0.5832483
v 0.9399607 -0.5151595 1.170653
v -0.9349048 0.2222972 0.7275578
v -0.8674602 -0.1360745 1.196746
v -1.094449 -0.3417804 1.009755
v -1.033335 -0.5150276 1.527069
v -0.9696413 -0.1331239 0.441521
v -0.9349048 0.2222972 0.7275578
v -0.8137778 -0.1077578 0.1714255
v -1.428055 -0.3506457 -0.2965565
v -1.428055 -0.3506457 -0.2965565
v 0.02662342 0.309643 -0.6717806
v -0.582332 -0.1077578 -0.2535713
v -0.3954279 -0.2645998 -0.6329514
v 0.07547969 -0.6410102 -1.310642
v 0.2633082 -0.2645998 -0.6329529
v 0.5026548 -0.1077578 -0.3133481
v 1.787332E-07 0.8423996 -0.6920156
v -1.428055 -0.3506457 -0.2965565
v 0.5026548 -0.1077578 -0.3133481
v 1.17522 -0.4948694 -0.2139326
v 1.17522 -0.4948694 -0.2139326
v -0.05483572 1.150024 0.06832256
v -0.6271803 1.569091 0.08068015
v -0.7951825 1.419268 0.03680074
v -0.1862164 1.032856 0.03400032
v -0.3377218 0.984323 0.1168536
v -0.02051362 1.267193 0.1997044
v -0.103378 1.315726 0.3511927
v -0.7331262 1.631149 0.2743862
v -0.254859 1.267193 0.4340439
v -0.3862418 1.150024 0.3997249
v -0.9011263 1.481326 0.2305036
v -0.4205618 1.032856 0.2683398
v -0.8381213 1.816107 -0.5210693
v -0.7044647 1.935304 -0.4861583
v -0.7044647 1.935304 -0.4861583
v -1.142116 2.360987 -0.6409982
v -0.3377218 0.984323 0.1168536
v -0.9011263 1.481326 0.2305036
v -0.7951825 1.419268 0.03680074
v -0.9224103 1.86548 -0.3669622
v -0.8381213 1.816107 -0.5210693
v -0.9224103 1.86548 -0.3669622
v -1.214084 2.403146 -0.5094091
v -1.142116 2.360987 -0.6409982
v -0.7044647 1.935304 -0.4861583
v -1.027986 2.462767 -0.6111868
v -1.214084 2.403146 -0.5094091
v -1.09995 2.504926 -0.4795988
v -0.7887548 1.984677 -0.3320497
v -0.7887548 1.984677 -0.3320497
v -1.09995 2.504926 -0.4795988
v -0.7044647 1.935304 -0.4861583
v -0.9011263 1.481326 0.2305036
v -0.7887548 1.984677 -0.3320497
v -0.9224103 1.86548 -0.3669622

vn 0.8223446 -0.3371709 -0.4583287
vn 0.7453037 -0.352839 -0.5657094
vn 0.1018684 -0.441645 -0.8913881
vn -0.03990057 -0.246164 -0.9684066
vn 0.9572681 0.08349802 0.2768862
vn 0.9887934 0.134854 0.06404838
vn 0.6133601 0.2369131 0.7534333
vn 0.04192692 -0.251435 -0.9669657
vn 0.7626383 0.021219 -0.6464771
vn 0.9614677 0.274749 -0.009630293
vn 0.7291814 0.44408 0.5206605
vn -0.004793048 0.3261311 0.9453124
vn 0.1404733 0.5701939 0.809411
vn -0.7080593 0.352136 0.6120884
vn -0.6717184 0.3675431 0.6432003
vn -0.981094 0.190888 -0.03188124
vn -0.9942449 -0.08098095 -0.07013768
vn -0.7643278 -0.143503 -0.6286572
vn -0.8382175 0.06846599 0.5410211
vn -0.9596924 -0.2562009 -0.1155492
vn -0.6463026 -0.327403 -0.6892752
vn -0.7643278 -0.143503 -0.6286572
vn -0.6492826 -0.351269 -0.6745682
vn 0.1018684 -0.441645 -0.8913881
vn -0.03990057 -0.246164 -0.9684066
vn -0.7643278 -0.143503 -0.6286572
vn 0.04192692 -0.251435 -0.9669657
vn -0.003917128 0.475129 0.8799075
vn 0.6885058 0.4572679 0.5629085
vn -0.9122961 0.3460911 -0.218945
vn -0.7281614 0.452247 0.5150278
vn -0.0648084 0.4481292 0.8916166
vn 0.626761 0.167681 0.7609559
vn 0.02594614 0.195953 -0.98027
vn -0.5677096 0.2755259 -0.7757521
vn 0.954138 0.208623 0.2147026
vn 0.7905886 0.221386 -0.5709272
vn 0.02594614 0.195953 -0.98027
vn -0.4385684 0.6389848 0.6319464
vn 0.629884 0.3673829 0.684307
vn 0.6598096 0.02434001 0.7510384
vn 0.5844309 -0.019511 0.8112089
vn 0.2558606 0.6323718 0.7311916
vn 0.5844309 -0.019511 0.8112089
vn 0.2558606 0.6323718 0.7311916
vn 0.3318228 0.676885 0.6570543
vn 0.8954178 0.3803267 0.2314705
vn 0.5844309 -0.019511 0.8112089
vn 0.9626644 0.05863598 -0.2642713
vn 0.7616869 -0.016972 -0.6477231
vn 0.8481894 0.489 0.203602
vn -0.4385684 0.6389848 0.6319464
vn 0.2558606 0.6323718 0.7311916
vn -0.8314087 0.173637 0.527835
vn 0.3318228 0.676885 0.6570543
vn -0.8314087 0.173637 0.527835
vn -0.4385684 0.6389848 0.6319464
vn -0.6340808 0.2254061 0.7396849
vn -0.8314087 0.173637 0.527835
vn -0.8314087 0.173637 0.527835
vn -0.4408116 0.4164998 -0.7951183
vn -0.8247631 0.274373 -0.4944547
vn -0.9801344 0.153429 -0.1256837
vn -0.3127183 0.5555828 -0.7704123
vn 0.02558675 0.01699201 -0.9995282
vn -0.06343734 0.1688749 -0.9835939
vn -0.5677096 0.2755259 -0.7757521
vn -0.8314087 0.173637 0.527835
vn -0.06343734 0.1688749 -0.9835939
vn 0.3364303 0.3062461 -0.8905212
vn 0.3364303 0.3062461 -0.8905212
vn -0.2216301 0.4029588 -0.8879776
vn 0.1670259 0.02636 -0.9856001
vn -0.4123485 -0.5568762 -0.7210115
vn -0.5749733 -0.1007939 -0.8119398
vn -0.7265689 -0.6331879 -0.2667781
vn 0.1722176 0.7606381 -0.6259159
vn 0.5248815 0.8510838 -0.01248401
vn 0.2167807 0.539537 0.8135761
vn 0.5465145 0.4079698 0.7313567
vn 0.1334674 -0.2859819 0.9488946
vn -0.6277593 -0.4238028 0.6529238
vn -0.4070537 -0.7340966 0.5435159
vn -0.3025221 -0.5169717 -0.8007626
vn 0.253466 -0.117654 -0.9601628
vn 0.253466 -0.117654 -0.9601628
vn -0.5655056 -0.223248 -0.7939546
vn -0.7265689 -0.6331879 -0.2667781
vn -0.6277593 -0.4238028 0.6529238
vn -0.4123485 -0.5568762 -0.7210115
vn -0.806389 -0.3610662 0.4683673
vn -0.3025221 -0.5169717 -0.8007626
vn -0.806389 -0.3610662 0.4683673
vn -0.6277155 -0.425273 0.6520092
vn -0.5655056 -0.223248 -0.7939546
vn 0.253466 -0.117654 -0.9601628
vn 0.08015686 0.198859 -0.9767445
vn -0.6277155 -0.425273 0.6520092
vn 0.5430924 0.282481 0.7907308
vn 0.2993525 0.5991837 0.7425408
vn 0.2993525 0.5991837 0.7425408
vn 0.5430924 0.282481 0.7907308
vn 0.253466 -0.117654 -0.9601628
vn -0.6277593 -0.4238028 0.6529238
vn 0.2993525 0.5991837 0.7425408
vn -0.806389 -0.3610662 0.4683673

vt 0.1541748 0.3811035
vt 0.1590576 0.4104004
vt 0.1722412 0.4101563
vt 0.1663818 0.376709
vt 0.1364746 0.3845215
vt 0.1468506 0.4121094
vt 0.126709 0.3862305
vt 0.1921387 0.473877
vt 0.1811523 0.4743652
vt 0.168335 0.4765625
vt 0.1317139 0.4157715
vt 0.1170654 0.3901367
vt 0.1200562 0.4199219
vt 0.1000366 0.3901367
vt 0.1082153 0.4238281
vt 0.09014893 0.3935547
vt 0.09667969 0.4287109
vt 0.0737915 0.3967285
vt 0.1230469 0.4912109
vt 0.1109619 0.4958496
vt 0.07879639 0.4335938
vt 0.0737915 0.3967285
vt 0.09790039 0.4995117
vt 0.06658936 0.4365234
vt 0.06036377 0.4016113
vt 0.0737915 0.3967285
vt 0.08673096 0.5014648
vt 0.1363525 0.4863281
vt 0.1523438 0.4812012
vt 0.07971191 0.3654785
vt 0.09265137 0.3664551
vt 0.1063843 0.3684082
vt 0.1200562 0.361084
vt 0.05514526 0.3876953
vt 0.06793213 0.3845215
vt 0.1364746 0.3662109
vt 0.1503906 0.3605957
vt 0.1633301 0.3591309
vt 0.1005859 0.3500977
vt 0.1080933 0.3491211
vt 0.1171875 0.3447266
vt 0.1099243 0.3425293
vt 0.1017456 0.3344727
vt 0.1046753 0.3322754
vt 0.1017456 0.3344727
vt 0.0958252 0.3178711
vt 0.1339111 0.3461914
vt 0.1220703 0.3371582
vt 0.1396484 0.333252
vt 0.1322021 0.3295898
vt 0.1195679 0.3183594
vt 0.1005859 0.3500977
vt 0.1017456 0.3344727
vt 0.09527588 0.3286133
vt 0.0958252 0.3178711
vt 0.09289551 0.3415527
vt 0.1005859 0.3500977
vt 0.08953857 0.3452148
vt 0.07525635 0.3251953
vt 0.07525635 0.3251953
vt 0.06292725 0.369873
vt 0.07281494 0.3515625
vt 0.06408691 0.3474121
vt 0.04751587 0.3354492
vt 0.05215454 0.3608398
vt 0.05004883 0.3742676
vt 0.06793213 0.3845215
vt 0.07525635 0.3251953
vt 0.163208 0.3413086
vt 0.1427002 0.314209
vt 0.1427002 0.314209
vt 0.1293945 0.354248
vt 0.1226807 0.392334
vt 0.1434326 0.3952637
vt 0.1375732 0.3566895
vt 0.1451416 0.3615723
vt 0.1209106 0.3537598
vt 0.1124878 0.3549805
vt 0.1031494 0.3913574
vt 0.1035767 0.3566895
vt 0.09338379 0.3581543
vt 0.08624268 0.3920898
vt 0.08288574 0.3581543
vt 0.1407471 0.4306641
vt 0.1242676 0.4301758
vt 0.1242676 0.4301758
vt 0.1412354 0.4660645
vt 0.07305908 0.3564453
vt 0.08624268 0.3920898
vt 0.07385254 0.3935547
vt 0.0859375 0.4306641
vt 0.07189941 0.4326172
vt 0.0859375 0.4306641
vt 0.08843994 0.4650879
vt 0.07489014 0.465332
vt 0.1242676 0.4301758
vt 0.1218262 0.4648438
vt 0.08843994 0.4650879
vt 0.1048584 0.465332
vt 0.1066284 0.4301758
vt 0.1066284 0.4301758
vt 0.1048584 0.465332
vt 0.1242676 0.4301758
vt 0.08624268 0.3920898
vt 0.1066284 0.4301758
vt 0.0859375 0.4306641

g Tree2_(17)_3126_518
usemtl Tree2_(17)_3126_518
usemap Tree2_(17)_3126_518
f 1/1/1 3/3/3 2/2/2
f 1/1/1 4/4/4 3/3/3
f 5/5/5 1/1/1 2/2/2
f 5/5/5 2/2/2 6/6/6
f 7/7/7 5/5/5 6/6/6
f 2/2/2 3/3/3 8/8/8
f 2/2/2 8/8/8 9/9/9
f 6/6/6 2/2/2 9/9/9
f 6/6/6 9/9/9 10/10/10
f 11/11/11 6/6/6 10/10/10
f 7/7/7 6/6/6 11/11/11
f 12/12/12 7/7/7 11/11/11
f 12/12/12 11/11/11 13/13/13
f 14/14/14 12/12/12 13/13/13
f 14/14/14 13/13/13 15/15/15
f 16/16/16 14/14/14 15/15/15
f 16/16/16 15/15/15 17/17/17
f 18/18/18 16/16/16 17/17/17
f 17/17/17 15/15/15 19/19/19
f 17/17/17 19/19/19 20/20/20
f 21/21/21 17/17/17 20/20/20
f 22/22/22 17/17/17 21/21/21
f 21/21/21 20/20/20 23/23/23
f 24/24/24 21/21/21 23/23/23
f 25/25/25 21/21/21 24/24/24
f 25/25/25 26/26/26 21/21/21
f 24/24/24 23/23/23 27/27/27
f 15/15/15 28/28/28 19/19/19
f 15/15/15 13/13/13 28/28/28
f 13/13/13 29/29/29 28/28/28
f 30/30/30 14/14/14 16/16/16
f 30/30/30 31/31/31 14/14/14
f 31/31/31 12/12/12 14/14/14
f 31/31/31 32/32/32 12/12/12
f 32/32/32 7/7/7 12/12/12
f 32/32/32 33/33/33 7/7/7
f 34/34/34 22/22/22 25/25/25
f 34/34/34 35/35/35 22/22/22
f 35/35/35 30/30/30 16/16/16
f 35/35/35 16/16/16 18/18/18
f 33/33/33 5/5/5 7/7/7
f 33/33/33 36/36/36 5/5/5
f 36/36/36 1/1/1 5/5/5
f 36/36/36 37/37/37 1/1/1
f 37/37/37 4/4/4 1/1/1
f 37/37/37 38/38/38 4/4/4
f 32/32/32 31/31/31 39/39/39
f 33/33/33 39/39/39 40/40/40
f 41/41/41 33/33/33 40/40/40
f 41/41/41 40/40/40 42/42/42
f 42/42/42 40/40/40 43/43/43
f 42/42/42 43/43/43 44/44/44
f 40/40/40 39/39/39 45/45/45
f 44/44/44 43/43/43 46/46/46
f 37/37/37 36/36/36 47/47/47
f 36/36/36 33/33/33 47/47/47
f 33/33/33 48/48/48 47/47/47
f 33/33/33 41/41/41 48/48/48
f 49/49/49 37/37/37 47/47/47
f 49/49/49 47/47/47 50/50/50
f 47/47/47 48/48/48 51/51/51
f 50/50/50 47/47/47 51/51/51
f 33/33/33 32/32/32 52/52/52
f 39/39/39 54/54/54 53/53/53
f 53/53/53 54/54/54 55/55/55
f 39/39/39 56/56/56 54/54/54
f 31/31/31 56/56/56 57/57/57
f 31/31/31 58/58/58 56/56/56
f 58/58/58 31/31/31 59/59/59
f 31/31/31 30/30/30 60/60/60
f 61/61/61 62/62/62 30/30/30
f 62/62/62 61/61/61 63/63/63
f 61/61/61 30/30/30 35/35/35
f 64/64/64 63/63/63 61/61/61
f 64/64/64 61/61/61 65/65/65
f 61/61/61 66/66/66 65/65/65
f 66/66/66 61/61/61 34/34/34
f 34/34/34 61/61/61 67/67/67
f 30/30/30 62/62/62 68/68/68
f 13/13/13 11/11/11 29/29/29
f 11/11/11 10/10/10 29/29/29
f 69/69/69 38/38/38 70/70/70
f 38/38/38 37/37/37 70/70/70
f 37/37/37 49/49/49 71/71/71
f 72/72/72 74/74/74 73/73/73
f 72/72/72 75/75/75 74/74/74
f 75/75/75 76/76/76 74/74/74
f 77/77/77 72/72/72 73/73/73
f 78/78/78 77/77/77 73/73/73
f 78/78/78 73/73/73 79/79/79
f 80/80/80 78/78/78 79/79/79
f 81/81/81 80/80/80 79/79/79
f 81/81/81 79/79/79 82/82/82
f 83/83/83 81/81/81 82/82/82
f 73/73/73 74/74/74 84/84/84
f 73/73/73 84/84/84 85/85/85
f 79/79/79 73/73/73 86/86/86
f 85/85/85 84/84/84 87/87/87
f 88/88/88 83/83/83 89/89/89
f 88/88/88 89/89/89 90/90/90
f 90/90/90 82/82/82 91/91/91
f 90/90/90 93/93/93 92/92/92
f 92/92/92 91/91/91 94/94/94
f 92/92/92 94/94/94 95/95/95
f 96/96/96 87/87/87 97/97/97
f 93/93/93 99/99/99 98/98/98
f 93/93/93 100/100/100 99/99/99
f 101/101/101 97/97/97 102/102/102
f 101/101/101 103/103/103 97/97/97
f 79/79/79 103/103/103 101/101/101
f 104/104/104 79/79/79 105/105/105
f 104/104/104 105/105/105 106/106/106
