#Tree2_big_1196_308.obj

v -1.326756 3.630331 -1.746021
v -2.004644 3.440317 -1.659937
v -1.063584 2.998448 -1.940069
v -1.943717 2.751745 -1.828302
v -2.440458 3.37485 -1.104208
v -2.50955 2.666747 -1.106774
v -2.378896 3.472283 -0.4043715
v -2.429622 2.793247 -0.1981479
v -1.856029 3.675538 0.02961571
v -1.750759 3.057143 0.3653159
v -1.178136 3.865554 -0.05646945
v -0.8706216 3.303849 0.2535501
v -0.7423272 3.93102 -0.6121988
v -0.3047869 3.388846 -0.4679779
v -0.8038852 3.833587 -1.312034
v -0.3847144 3.262345 -1.376604
v -1.39647 4.004364 -1.257647
v -2.025243 3.828116 -1.177798
v -1.71821 4.083265 -0.9069613
v -1.968141 3.91849 -0.5286667
v -1.339366 4.094739 -0.6085166
v 2.908267 7.935544 -3.116204
v 1.709956 7.757943 -3.923372
v 3.521801 7.110799 -3.38466
v 1.902711 6.870834 -4.475266
v 0.2822834 7.694743 -3.646295
v -0.02628387 6.785442 -4.100892
v -0.5384429 7.782968 -2.447276
v -1.135204 6.904644 -2.480842
v -0.2714511 7.970934 -1.028687
v -0.7744573 7.158614 -0.5641181
v 0.9268649 8.148536 -0.2215115
v 0.8446412 7.39858 0.5264881
v 2.354539 8.211735 -0.4985908
v 2.773636 7.483972 0.1521156
v 3.175266 8.123513 -1.697608
v 3.882554 7.36477 -1.467937
v 3.897189 6.145361 -3.473223
v 2.04411 5.870717 -4.721437
v -0.1636453 5.772985 -4.292957
v -1.432821 5.909414 -2.438795
v -1.01994 6.200086 -0.245076
v 0.8331379 6.47473 1.003144
v 3.040906 6.572463 0.5746675
v 4.310069 6.436034 -1.279508
v 1.454242 8.441672 -1.261167
v 0.4314122 8.290079 -1.950133
v 1.288188 8.400867 -2.12607
v 1.131949 8.214775 -2.973563
v 2.154767 8.36637 -2.284598
v 1.268582 6.884712 -3.764271
v -0.1103849 6.884712 -3.193084
v 1.268581 6.020607 -4.449058
v -0.5946043 6.020607 -3.6773
v -0.681569 6.884712 -1.814119
v -1.366355 6.020607 -1.814118
v -0.1103842 6.884712 -0.4351518
v -0.5946038 6.020607 0.04906456
v 1.268582 6.884712 0.1360342
v 1.268581 6.020607 0.8208244
v 2.647552 6.884712 -0.4351513
v 3.131768 6.020607 0.04906457
v 3.218737 6.884712 -1.814117
v 3.903522 6.020607 -1.81412
v 2.647554 6.884712 -3.193084
v 3.131768 6.020607 -3.677302
v 1.268581 5.00506 -5.058249
v -1.025366 5.00506 -4.108064
v -1.975543 5.00506 -1.814119
v -1.025366 5.00506 0.4798263
v 1.268582 5.00506 1.430016
v 3.562536 5.00506 0.4798261
v 4.512717 5.00506 -1.814122
v 3.562524 5.00506 -4.108064
v 2.100865 7.280576 -1.469378
v 0.9238393 7.280576 -0.9818365
v 1.268582 7.357262 -1.814117
v 0.436302 7.280576 -2.158859
v 1.613323 7.280576 -2.646396

vn 0.2487504 0.4964109 -0.8316846
vn -0.3696711 0.324102 -0.8708049
vn 0.3573279 0.2762739 -0.8921824
vn -0.3413689 0.08159798 -0.9363808
vn -0.8527169 0.2647371 -0.45032
vn -0.8871184 0.01452599 -0.4613132
vn -0.9174266 0.3530899 0.1834555
vn -0.9602271 0.114349 0.2547318
vn -0.5258929 0.5374057 0.6592662
vn -0.5178691 0.32259 0.7923051
vn 0.09252942 0.7097141 0.698387
vn 0.1808279 0.5172651 0.8365035
vn 0.5755759 0.7690797 0.2779008
vn 0.7265777 0.5843368 0.3614349
vn 0.6402847 0.6807265 -0.3558751
vn 0.7996859 0.484515 -0.3546091
vn 0.02542356 0.8906247 -0.4540278
vn -0.5252283 0.7524443 -0.3974454
vn -0.2556386 0.9536011 -0.1590405
vn -0.4932476 0.8544849 0.1629794
vn 0.05740296 0.9926653 0.1063976
vn 0.641463 0.6742987 -0.3658503
vn 0.2501535 0.6064851 -0.7547179
vn 0.8126231 0.4242049 -0.399617
vn 0.3278721 0.3401981 -0.8813428
vn -0.3051446 0.5823539 -0.7534922
vn -0.3600267 0.310304 -0.8798251
vn -0.699145 0.6160398 -0.3628929
vn -0.8481119 0.352034 -0.3959524
vn -0.7010479 0.6878113 0.1882751
vn -0.8504689 0.4409437 0.2868295
vn -0.3097378 0.7556249 0.5771425
vn -0.3657173 0.5249509 0.7685554
vn 0.2455605 0.7797561 0.5759169
vn 0.3221823 0.554845 0.7670369
vn 0.6395602 0.7460701 0.1853164
vn 0.8102666 0.513114 0.2831643
vn 0.8886942 0.2220959 -0.4011183
vn 0.3647338 0.131294 -0.9218087
vn -0.3788056 0.09898195 -0.9201678
vn -0.9063691 0.144088 -0.397157
vn -0.9089169 0.240189 0.3408508
vn -0.3849562 0.3309911 0.8615414
vn 0.3585836 0.363303 0.8599004
vn 0.8861468 0.3181969 0.3368893
vn -0.005115726 0.9966761 0.08130469
vn -0.251615 0.9638119 -0.08807135
vn -0.04333698 0.9906772 -0.1291535
vn -0.07957373 0.9393159 -0.333697
vn 0.1669255 0.9721802 -0.1643209
vn 0.1380585 0.6802621 -0.7198495
vn -0.4113889 0.6802611 -0.6066334
vn 0.1700809 0.4296829 -0.8868174
vn -0.5068092 0.4296831 -0.7473399
vn -0.7198495 0.6802621 -0.1380585
vn -0.8868174 0.4296829 -0.1700809
vn -0.6066335 0.6802614 0.4113881
vn -0.7473399 0.4296831 0.5068092
vn -0.1380585 0.6802621 0.7198495
vn -0.1700809 0.4296829 0.8868174
vn 0.4113893 0.6802614 0.6066326
vn 0.5068092 0.4296831 0.7473399
vn 0.7198495 0.6802621 0.1380585
vn 0.8868174 0.4296829 0.1700809
vn 0.6066326 0.6802614 -0.4113893
vn 0.7473395 0.4296827 -0.5068099
vn 0.1833504 0.228989 -0.9560056
vn -0.5463498 0.2289891 -0.8056463
vn -0.9560056 0.228989 -0.1833504
vn -0.8056463 0.2289891 0.5463498
vn -0.1833504 0.228989 0.9560056
vn 0.5463498 0.2289891 0.8056463
vn 0.9560056 0.228989 0.1833504
vn 0.8056461 0.228988 -0.5463505
vn 0.1993642 0.9762389 0.08492026
vn -0.08492026 0.9762389 0.1993642
vn 0 1 0
vn -0.1993642 0.9762389 -0.08492026
vn 0.08491929 0.976239 -0.1993644

vt 0.3613281 0.484375
vt 0.3461914 0.479248
vt 0.3603516 0.498291
vt 0.3356934 0.4875488
vt 0.3395996 0.463623
vt 0.3259277 0.4626465
vt 0.3447266 0.4484863
vt 0.3364258 0.4379883
vt 0.3603516 0.4418945
vt 0.3613281 0.4282227
vt 0.3754883 0.4470215
vt 0.3859863 0.4387207
vt 0.3820801 0.4626465
vt 0.395752 0.463623
vt 0.3769531 0.4780273
vt 0.3852539 0.4882813
vt 0.3652344 0.4726563
vt 0.3513184 0.4677734
vt 0.3608398 0.4631348
vt 0.3564453 0.4538574
vt 0.3701172 0.4587402
vt 0.4470215 0.4243164
vt 0.4257813 0.4155273
vt 0.4472656 0.4458008
vt 0.4106445 0.4306641
vt 0.4169922 0.3942871
vt 0.3955078 0.3942871
vt 0.4257813 0.3728027
vt 0.4106445 0.3579102
vt 0.4470215 0.3642578
vt 0.4470215 0.3427734
vt 0.4685059 0.3730469
vt 0.4833984 0.357666
vt 0.4770508 0.3942871
vt 0.4985352 0.394043
vt 0.4682617 0.4155273
vt 0.4833984 0.4306641
vt 0.4470215 0.4689941
vt 0.394043 0.4470215
vt 0.3723145 0.394043
vt 0.394043 0.3413086
vt 0.4470215 0.3193359
vt 0.5 0.3413086
vt 0.5219727 0.3942871
vt 0.5 0.4472656
vt 0.4609375 0.3884277
vt 0.4411621 0.3803711
vt 0.4470215 0.3942871
vt 0.4331055 0.3999023
vt 0.4528809 0.407959
vt 0.4470215 0.4243164
vt 0.4257813 0.4155273
vt 0.4472656 0.4458008
vt 0.4106445 0.4306641
vt 0.4169922 0.3942871
vt 0.3955078 0.3942871
vt 0.4257813 0.3728027
vt 0.4106445 0.3579102
vt 0.4470215 0.3642578
vt 0.4470215 0.3427734
vt 0.4685059 0.3730469
vt 0.4833984 0.357666
vt 0.4770508 0.3942871
vt 0.4985352 0.394043
vt 0.4682617 0.4155273
vt 0.4833984 0.4306641
vt 0.4470215 0.4689941
vt 0.394043 0.4470215
vt 0.3723145 0.394043
vt 0.394043 0.3413086
vt 0.4470215 0.3193359
vt 0.5 0.3413086
vt 0.5219727 0.3942871
vt 0.5 0.4472656
vt 0.4609375 0.3884277
vt 0.4411621 0.3803711
vt 0.4470215 0.3942871
vt 0.4331055 0.3999023
vt 0.4528809 0.407959

g Tree2_big_1196_308
usemtl Tree2_big_1196_308
usemap Tree2_big_1196_308
f 1/1/1 3/3/3 2/2/2
f 2/2/2 3/3/3 4/4/4
f 2/2/2 4/4/4 5/5/5
f 5/5/5 4/4/4 6/6/6
f 5/5/5 6/6/6 7/7/7
f 7/7/7 6/6/6 8/8/8
f 7/7/7 8/8/8 9/9/9
f 9/9/9 8/8/8 10/10/10
f 9/9/9 10/10/10 11/11/11
f 11/11/11 10/10/10 12/12/12
f 11/11/11 12/12/12 13/13/13
f 13/13/13 12/12/12 14/14/14
f 13/13/13 14/14/14 15/15/15
f 15/15/15 14/14/14 16/16/16
f 15/15/15 16/16/16 1/1/1
f 1/1/1 16/16/16 3/3/3
f 15/15/15 1/1/1 17/17/17
f 1/1/1 2/2/2 17/17/17
f 17/17/17 2/2/2 18/18/18
f 2/2/2 5/5/5 18/18/18
f 5/5/5 7/7/7 18/18/18
f 17/17/17 18/18/18 19/19/19
f 18/18/18 20/20/20 19/19/19
f 18/18/18 7/7/7 20/20/20
f 7/7/7 9/9/9 20/20/20
f 9/9/9 11/11/11 20/20/20
f 20/20/20 21/21/21 19/19/19
f 21/21/21 17/17/17 19/19/19
f 20/20/20 11/11/11 21/21/21
f 11/11/11 13/13/13 21/21/21
f 13/13/13 15/15/15 21/21/21
f 21/21/21 15/15/15 17/17/17
f 22/22/22 24/24/24 23/23/23
f 23/23/23 24/24/24 25/25/25
f 23/23/23 25/25/25 26/26/26
f 26/26/26 25/25/25 27/27/27
f 26/26/26 27/27/27 28/28/28
f 28/28/28 27/27/27 29/29/29
f 28/28/28 29/29/29 30/30/30
f 30/30/30 29/29/29 31/31/31
f 30/30/30 31/31/31 32/32/32
f 32/32/32 31/31/31 33/33/33
f 32/32/32 33/33/33 34/34/34
f 34/34/34 33/33/33 35/35/35
f 34/34/34 35/35/35 36/36/36
f 36/36/36 35/35/35 37/37/37
f 36/36/36 37/37/37 22/22/22
f 22/22/22 37/37/37 24/24/24
f 24/24/24 38/38/38 25/25/25
f 25/25/25 38/38/38 39/39/39
f 25/25/25 39/39/39 27/27/27
f 27/27/27 39/39/39 40/40/40
f 27/27/27 40/40/40 29/29/29
f 29/29/29 40/40/40 41/41/41
f 29/29/29 41/41/41 31/31/31
f 31/31/31 41/41/41 42/42/42
f 31/31/31 42/42/42 33/33/33
f 33/33/33 42/42/42 43/43/43
f 33/33/33 43/43/43 35/35/35
f 35/35/35 43/43/43 44/44/44
f 35/35/35 44/44/44 37/37/37
f 37/37/37 44/44/44 45/45/45
f 37/37/37 45/45/45 24/24/24
f 24/24/24 45/45/45 38/38/38
f 32/32/32 34/34/34 46/46/46
f 34/34/34 36/36/36 46/46/46
f 47/47/47 32/32/32 46/46/46
f 47/47/47 46/46/46 48/48/48
f 49/49/49 47/47/47 48/48/48
f 50/50/50 49/49/49 48/48/48
f 46/46/46 50/50/50 48/48/48
f 50/50/50 23/23/23 49/49/49
f 22/22/22 23/23/23 50/50/50
f 36/36/36 22/22/22 50/50/50
f 46/46/46 36/36/36 50/50/50
f 23/23/23 26/26/26 49/49/49
f 26/26/26 28/28/28 49/49/49
f 49/49/49 28/28/28 47/47/47
f 28/28/28 30/30/30 47/47/47
f 30/30/30 32/32/32 47/47/47
f 51/51/51 53/53/53 52/52/52
f 52/52/52 53/53/53 54/54/54
f 52/52/52 54/54/54 55/55/55
f 55/55/55 54/54/54 56/56/56
f 55/55/55 56/56/56 57/57/57
f 57/57/57 56/56/56 58/58/58
f 57/57/57 58/58/58 59/59/59
f 59/59/59 58/58/58 60/60/60
f 59/59/59 60/60/60 61/61/61
f 61/61/61 60/60/60 62/62/62
f 61/61/61 62/62/62 63/63/63
f 63/63/63 62/62/62 64/64/64
f 63/63/63 64/64/64 65/65/65
f 65/65/65 64/64/64 66/66/66
f 65/65/65 66/66/66 51/51/51
f 51/51/51 66/66/66 53/53/53
f 53/53/53 67/67/67 54/54/54
f 54/54/54 67/67/67 68/68/68
f 54/54/54 68/68/68 56/56/56
f 56/56/56 68/68/68 69/69/69
f 56/56/56 69/69/69 58/58/58
f 58/58/58 69/69/69 70/70/70
f 58/58/58 70/70/70 60/60/60
f 60/60/60 70/70/70 71/71/71
f 60/60/60 71/71/71 62/62/62
f 62/62/62 71/71/71 72/72/72
f 62/62/62 72/72/72 64/64/64
f 64/64/64 72/72/72 73/73/73
f 64/64/64 73/73/73 66/66/66
f 66/66/66 73/73/73 74/74/74
f 66/66/66 74/74/74 53/53/53
f 53/53/53 74/74/74 67/67/67
f 61/61/61 63/63/63 75/75/75
f 63/63/63 65/65/65 75/75/75
f 76/76/76 61/61/61 75/75/75
f 76/76/76 75/75/75 77/77/77
f 78/78/78 76/76/76 77/77/77
f 79/79/79 78/78/78 77/77/77
f 75/75/75 79/79/79 77/77/77
f 79/79/79 52/52/52 78/78/78
f 51/51/51 52/52/52 79/79/79
f 65/65/65 51/51/51 79/79/79
f 75/75/75 65/65/65 79/79/79
f 52/52/52 55/55/55 78/78/78
f 55/55/55 57/57/57 78/78/78
f 78/78/78 57/57/57 76/76/76
f 57/57/57 59/59/59 76/76/76
f 59/59/59 61/61/61 76/76/76
