#Tree_conf2_(13)_1326_386.obj

v 0.1189081 -0.1466557 -0.4504046
v 0.05755738 1.159755 -0.1771418
v -0.1506858 1.159755 -0.1094807
v -0.410573 -0.1466557 -0.2783652
v -0.1506866 1.159755 0.1094803
v -0.4105743 -0.1466557 0.2783647
v 0.05755635 1.159755 0.1771419
v 0.118908 -0.1466557 0.4504044
v 0.1862587 1.159755 3.202004E-07
v 0.4461458 -0.1466557 -5.517168E-07
v 0.05755738 1.159755 -0.1771418
v 0.1189081 -0.1466557 -0.4504046
v -0.06863121 6.66993 0.05615845
v -0.06863142 6.66993 -0.05615842
v 0.03818621 6.66993 -0.09086457
v 0.03818621 6.66993 -0.09086457
v 0.1042029 6.66993 4.295744E-07
v 0.03818589 6.66993 0.09086376

vn 0.610655 0.2088854 -0.7638503
vn 0.6298144 0.08978422 -0.7715392
vn -0.5393406 0.1000239 -0.8361262
vn -0.5326131 0.2305968 -0.8143392
vn -0.9611723 0.1000239 0.2571829
vn -0.9415546 0.2305969 0.2455608
vn -0.05162388 0.08978421 0.9946225
vn -0.06065363 0.2088854 0.9760574
vn 0.9297034 0.08355004 0.3587075
vn 0.9150352 0.1951094 0.3530481
vn 0.6298144 0.08978422 -0.7715392
vn 0.610655 0.2088854 -0.7638503
vn -0.9661275 0.01773245 0.2574557
vn -0.5428282 0.01773245 -0.8396566
vn 0.6310014 0.01597498 -0.7756172
vn 0.6310014 0.01597498 -0.7756172
vn 0.932862 0.01488988 0.3599262
vn -0.05348358 0.01597498 0.9984409

vt 0.4238281 0.003742218
vt 0.4238281 0.02593994
vt 0.4316406 0.02593994
vt 0.4316406 0.003742218
vt 0.4394531 0.02593994
vt 0.4394531 0.003740311
vt 0.4472656 0.02593994
vt 0.4472656 0.003740311
vt 0.4550781 0.02593994
vt 0.4550781 0.003740311
vt 0.4628906 0.02593994
vt 0.4628906 0.003738403
vt 0.4394531 0.1196289
vt 0.4318848 0.1196289
vt 0.4240723 0.1196289
vt 0.4628906 0.1195679
vt 0.4550781 0.1196289
vt 0.4472656 0.1196289

g Tree_conf2_(13)_1326_386
usemtl Tree_conf2_(13)_1326_386
usemap Tree_conf2_(13)_1326_386
f 1/1/1 3/3/3 2/2/2
f 1/1/1 4/4/4 3/3/3
f 4/4/4 5/5/5 3/3/3
f 4/4/4 6/6/6 5/5/5
f 6/6/6 7/7/7 5/5/5
f 6/6/6 8/8/8 7/7/7
f 8/8/8 9/9/9 7/7/7
f 8/8/8 10/10/10 9/9/9
f 10/10/10 11/11/11 9/9/9
f 10/10/10 12/12/12 11/11/11
f 3/3/3 5/5/5 13/13/13
f 3/3/3 13/13/13 14/14/14
f 2/2/2 3/3/3 14/14/14
f 2/2/2 14/14/14 15/15/15
f 9/9/9 11/11/11 16/16/16
f 9/9/9 16/16/16 17/17/17
f 7/7/7 9/9/9 17/17/17
f 7/7/7 17/17/17 18/18/18
f 5/5/5 18/18/18 13/13/13
f 5/5/5 7/7/7 18/18/18
