#Tree_conf2_1343_320.obj

v 2.229059 2.41453 -0.01389027
v 1.06752 2.895794 -0.4499955
v 1.56636 2.41453 -1.586004
v -0.4499969 2.895794 -1.067522
v -0.01388931 2.41453 -2.229059
v -1.586006 2.41453 -1.56636
v -1.253918 2.895794 0.007813931
v -2.229057 2.41453 0.01388979
v -0.436657 2.895794 1.073047
v -1.56636 2.41453 1.586005
v 0.01388931 2.41453 2.229059
v 0.8921776 2.895794 0.8811274
v 1.586004 2.41453 1.566361
v -4.379534E-23 3.673443 2.384186E-07
v 0.7697449 5.456536 -0.769747
v 0.2848015 6.349499 -0.2848008
v 7.398508E-17 6.349499 -0.4027693
v 1.999635E-16 5.456536 -1.088586
v -0.2848015 6.349499 -0.2848005
v -0.7697487 5.456536 -0.7697468
v -0.4027672 6.349499 -2.384186E-07
v -1.088585 5.456536 -2.384186E-07
v -0.2848015 6.349499 0.2848003
v -0.7697449 5.456536 0.7697463
v -7.398495E-17 6.349499 0.4027686
v -1.999634E-16 5.456536 1.088586
v 0.2848015 6.349499 0.2848001
v 0.7697487 5.456536 0.7697461
v 0.402771 6.349499 -4.768372E-07
v 1.088585 5.456536 -4.768372E-07
v 8.759067E-23 7.127673 -4.768372E-07
v 1.482311 3.35846 1.321718
v 0.9566574 3.86839 0.3851399
v 1.918955 3.351292 -0.08712053
v 0.2964973 3.862013 -0.8680072
v 1.231503 3.344651 -1.392073
v -0.1773491 3.34243 -1.828714
v -0.833847 3.863357 -0.6041088
v -1.482311 3.345927 -1.141267
v -0.886116 3.869257 0.5554461
v -1.918957 3.353096 0.2675724
v -1.231503 3.359736 1.572524
v 0.09976196 3.872375 1.168109
v 0.1773491 3.361958 2.009165
v -2.112267E-17 4.729911 0.1149902
v -1.32304 5.128105 0.9046333
v -0.5031166 5.474663 0.7122254
v -0.4085388 5.021135 1.517634
v 0.5287399 5.308237 0.5056305
v 0.6659737 4.847831 1.302499
v 1.271061 4.70971 0.3852499
v 0.5758553 5.256999 -0.3610475
v 1.052273 4.687684 -0.696799
v -0.2408066 5.365918 -0.6453698
v 0.1377716 4.794655 -1.309801
v -0.9367409 4.967959 -1.094666
v -0.8834114 5.49236 -0.06887841
v -1.541832 5.10608 -0.1774175
v 0.01565552 6.137803 0.05302739
v 1.425081 4.340247 -0.8985672
v 0.5214424 4.778743 -0.7078218
v 0.3811188 4.334083 -1.61885
v -0.6765442 4.773259 -0.4880245
v -0.866394 4.328372 -1.389966
v -1.586678 4.326462 -0.3459916
v -0.7503853 4.774414 0.5073779
v -1.3578 4.32947 0.9015259
v 0.1877594 4.779489 0.8481829
v -0.3138351 4.335634 1.621809
v 0.9336739 4.341344 1.392925
v 0.9438248 4.782169 0.1965373
v 1.653957 4.343255 0.3489518
v 0.05396271 5.519576 0.007842064

vn -0.004315122 0.7214358 -0.6924679
vn -0.1898482 0.92652 -0.3248356
vn -0.492701 0.7214344 -0.4865985
vn -0.3627188 0.92652 0.0999785
vn -0.6924679 0.7214358 0.004315077
vn -0.4865973 0.721436 0.4926997
vn 0.00250956 0.9153271 0.4027033
vn 0.004315122 0.7214358 0.6924679
vn 0.3844175 0.9098089 0.1564317
vn 0.492701 0.7214344 0.4865985
vn 0.6924679 0.7214358 -0.004315077
vn 0.2829799 0.9153271 -0.2865287
vn 0.4865973 0.721436 -0.4926997
vn 0 1 0
vn -0.6254687 0.4664523 -0.6254686
vn -0.5712501 0.5893607 -0.5712506
vn -0.8078696 0.5893612 9.630556E-08
vn -0.8845462 0.4664526 1.054461E-07
vn -0.5712501 0.5893613 0.5712498
vn -0.6254686 0.4664523 0.6254687
vn 9.630555E-08 0.5893614 0.8078694
vn 1.054461E-07 0.4664526 0.8845462
vn 0.5712503 0.5893613 0.5712497
vn 0.6254687 0.4664523 0.6254686
vn 0.8078697 0.5893611 -9.630558E-08
vn 0.8845462 0.4664526 -1.054461E-07
vn 0.57125 0.5893606 -0.5712506
vn 0.6254686 0.4664523 -0.6254687
vn -9.630561E-08 0.5893607 -0.8078699
vn -1.054461E-07 0.4664526 -0.8845462
vn 0 1 0
vn 0.4166631 0.685831 -0.5966804
vn 0.06933986 0.8907663 -0.4491408
vn -0.1455228 0.6344045 -0.7591798
vn -0.4150967 0.889865 -0.1893015
vn -0.6500419 0.589 -0.4801296
vn -0.8157914 0.5742365 0.06882496
vn -0.313135 0.874849 0.3695749
vn -0.5541704 0.5975742 0.5794826
vn 0.2264451 0.8681709 0.4415902
vn -0.00581114 0.6471028 0.7623805
vn 0.518887 0.6952757 0.4973408
vn 0.4788494 0.8767521 -0.04482283
vn 0.6985317 0.7119436 -0.07203904
vn -0.1175027 0.9930726 1.400741E-08
vn 0.462346 0.5627667 0.6852224
vn 0.4380527 0.8928517 0.1045257
vn 0.8114543 0.5627652 0.1575977
vn 0.3056647 0.8018581 -0.5134128
vn 0.6852224 0.5627667 -0.4623459
vn 0.1575975 0.562767 -0.8114532
vn -0.3454428 0.7447317 -0.5710025
vn -0.462346 0.5627667 -0.6852224
vn -0.5991222 0.8006369 -0.005750038
vn -0.8114543 0.5627652 -0.1575977
vn -0.6852224 0.5627667 0.4623459
vn -0.1527098 0.8897872 0.430068
vn -0.1575975 0.562767 0.8114532
vn 0 1 0
vn -0.4449398 0.6858311 -0.5759029
vn -0.4079093 0.8907662 -0.2003632
vn -0.767982 0.6344045 -0.0879454
vn -0.3046741 0.889865 0.3395792
vn -0.6524135 0.589 0.4769019
vn -0.1780539 0.5742365 0.7990927
vn 0.2591388 0.8748488 0.4092512
vn 0.3874442 0.5975742 0.7019914
vn 0.4890759 0.8681709 -0.08416733
vn 0.7258223 0.6471027 0.2333234
vn 0.6296532 0.6952757 -0.3465954
vn 0.100291 0.8767521 -0.4703695
vn 0.1399528 0.7119437 -0.6881492
vn -0.03510645 0.9930726 0.1121357

vt 0.2459717 0.0847168
vt 0.213623 0.08380127
vt 0.2144775 0.1161499
vt 0.1708984 0.08374023
vt 0.1700439 0.1160889
vt 0.1385498 0.08459473
vt 0.1621094 0.04983521
vt 0.1385498 0.0401001
vt 0.1923828 0.03216553
vt 0.1700439 0.008682251
vt 0.2145996 0.008712769
vt 0.2225342 0.04989624
vt 0.2460938 0.04019165
vt 0.1922607 0.06237793
vt 0.3461914 0.0803833
vt 0.3190918 0.06854248
vt 0.3068848 0.08081055
vt 0.3181152 0.1083374
vt 0.2895508 0.08081055
vt 0.2785645 0.1083374
vt 0.2770996 0.06854248
vt 0.2504883 0.08032227
vt 0.2770996 0.05114746
vt 0.2504883 0.04064941
vt 0.2895508 0.03884888
vt 0.2785645 0.01256561
vt 0.3068848 0.03887939
vt 0.3183594 0.01262665
vt 0.3190918 0.0512085
vt 0.3464355 0.04077148
vt 0.2978516 0.05935669
vt 0.2459717 0.0847168
vt 0.213623 0.08380127
vt 0.2144775 0.1161499
vt 0.1708984 0.08374023
vt 0.1700439 0.1160889
vt 0.1385498 0.08459473
vt 0.1621094 0.04983521
vt 0.1385498 0.0401001
vt 0.1923828 0.03216553
vt 0.1700439 0.008682251
vt 0.2145996 0.008712769
vt 0.2225342 0.04989624
vt 0.2460938 0.04019165
vt 0.1922607 0.06237793
vt 0.2459717 0.0847168
vt 0.213623 0.08380127
vt 0.2144775 0.1161499
vt 0.1708984 0.08374023
vt 0.1700439 0.1160889
vt 0.1385498 0.08459473
vt 0.1621094 0.04983521
vt 0.1385498 0.0401001
vt 0.1923828 0.03216553
vt 0.1700439 0.008682251
vt 0.2145996 0.008712769
vt 0.2225342 0.04989624
vt 0.2460938 0.04019165
vt 0.1922607 0.06237793
vt 0.2459717 0.0847168
vt 0.213623 0.08380127
vt 0.2144775 0.1161499
vt 0.1708984 0.08374023
vt 0.1700439 0.1160889
vt 0.1385498 0.08459473
vt 0.1621094 0.04983521
vt 0.1385498 0.0401001
vt 0.1923828 0.03216553
vt 0.1700439 0.008682251
vt 0.2145996 0.008712769
vt 0.2225342 0.04989624
vt 0.2460938 0.04019165
vt 0.1922607 0.06237793

g Tree_conf2_1343_320
usemtl Tree_conf2_1343_320
usemap Tree_conf2_1343_320
f 1/1/1 3/3/3 2/2/2
f 3/3/3 4/4/4 2/2/2
f 3/3/3 5/5/5 4/4/4
f 5/5/5 6/6/6 4/4/4
f 6/6/6 7/7/7 4/4/4
f 6/6/6 8/8/8 7/7/7
f 8/8/8 9/9/9 7/7/7
f 8/8/8 10/10/10 9/9/9
f 10/10/10 11/11/11 9/9/9
f 11/11/11 12/12/12 9/9/9
f 11/11/11 13/13/13 12/12/12
f 13/13/13 2/2/2 12/12/12
f 13/13/13 1/1/1 2/2/2
f 2/2/2 4/4/4 14/14/14
f 4/4/4 7/7/7 14/14/14
f 7/7/7 9/9/9 14/14/14
f 9/9/9 12/12/12 14/14/14
f 12/12/12 2/2/2 14/14/14
f 15/15/15 17/17/17 16/16/16
f 15/15/15 18/18/18 17/17/17
f 18/18/18 19/19/19 17/17/17
f 18/18/18 20/20/20 19/19/19
f 20/20/20 21/21/21 19/19/19
f 20/20/20 22/22/22 21/21/21
f 22/22/22 23/23/23 21/21/21
f 22/22/22 24/24/24 23/23/23
f 24/24/24 25/25/25 23/23/23
f 24/24/24 26/26/26 25/25/25
f 26/26/26 27/27/27 25/25/25
f 26/26/26 28/28/28 27/27/27
f 28/28/28 29/29/29 27/27/27
f 28/28/28 30/30/30 29/29/29
f 30/30/30 16/16/16 29/29/29
f 30/30/30 15/15/15 16/16/16
f 16/16/16 17/17/17 31/31/31
f 17/17/17 19/19/19 31/31/31
f 19/19/19 21/21/21 31/31/31
f 21/21/21 23/23/23 31/31/31
f 23/23/23 25/25/25 31/31/31
f 25/25/25 27/27/27 31/31/31
f 27/27/27 29/29/29 31/31/31
f 29/29/29 16/16/16 31/31/31
f 32/32/32 34/34/34 33/33/33
f 34/34/34 35/35/35 33/33/33
f 34/34/34 36/36/36 35/35/35
f 36/36/36 37/37/37 35/35/35
f 37/37/37 38/38/38 35/35/35
f 37/37/37 39/39/39 38/38/38
f 39/39/39 40/40/40 38/38/38
f 39/39/39 41/41/41 40/40/40
f 41/41/41 42/42/42 40/40/40
f 42/42/42 43/43/43 40/40/40
f 42/42/42 44/44/44 43/43/43
f 44/44/44 33/33/33 43/43/43
f 44/44/44 32/32/32 33/33/33
f 33/33/33 35/35/35 45/45/45
f 35/35/35 38/38/38 45/45/45
f 38/38/38 40/40/40 45/45/45
f 40/40/40 43/43/43 45/45/45
f 43/43/43 33/33/33 45/45/45
f 46/46/46 48/48/48 47/47/47
f 48/48/48 49/49/49 47/47/47
f 48/48/48 50/50/50 49/49/49
f 50/50/50 51/51/51 49/49/49
f 51/51/51 52/52/52 49/49/49
f 51/51/51 53/53/53 52/52/52
f 53/53/53 54/54/54 52/52/52
f 53/53/53 55/55/55 54/54/54
f 55/55/55 56/56/56 54/54/54
f 56/56/56 57/57/57 54/54/54
f 56/56/56 58/58/58 57/57/57
f 58/58/58 47/47/47 57/57/57
f 58/58/58 46/46/46 47/47/47
f 47/47/47 49/49/49 59/59/59
f 49/49/49 52/52/52 59/59/59
f 52/52/52 54/54/54 59/59/59
f 54/54/54 57/57/57 59/59/59
f 57/57/57 47/47/47 59/59/59
f 60/60/60 62/62/62 61/61/61
f 62/62/62 63/63/63 61/61/61
f 62/62/62 64/64/64 63/63/63
f 64/64/64 65/65/65 63/63/63
f 65/65/65 66/66/66 63/63/63
f 65/65/65 67/67/67 66/66/66
f 67/67/67 68/68/68 66/66/66
f 67/67/67 69/69/69 68/68/68
f 69/69/69 70/70/70 68/68/68
f 70/70/70 71/71/71 68/68/68
f 70/70/70 72/72/72 71/71/71
f 72/72/72 61/61/61 71/71/71
f 72/72/72 60/60/60 61/61/61
f 61/61/61 63/63/63 73/73/73
f 63/63/63 66/66/66 73/73/73
f 66/66/66 68/68/68 73/73/73
f 68/68/68 71/71/71 73/73/73
f 71/71/71 61/61/61 73/73/73
