#Tree3_(15)_1298_330.obj

v -0.566361 6.129975 -1.258504
v -1.729262 6.129975 -0.7768149
v -0.5663594 5.081509 -1.835995
v -2.137608 5.081509 -1.185159
v -2.210951 6.129975 0.3860858
v -2.788438 5.081509 0.386086
v -1.729262 6.129975 1.548989
v -2.137609 5.081509 1.957335
v -0.566359 6.129975 2.03068
v -0.5663607 5.081509 2.608169
v 0.5965419 6.129975 1.548989
v 1.004892 5.081509 1.957334
v 1.078235 6.129975 0.3860857
v 1.655726 5.081509 0.3860853
v 0.5965417 6.129975 -0.7768151
v 1.004889 5.081509 -1.185163
v -0.5663592 3.849293 -1.958106
v -2.223958 3.849293 -1.271509
v -2.910549 3.849293 0.3860858
v -2.223958 3.849293 2.043682
v -0.5663609 3.849293 2.73028
v 1.091234 3.849293 2.043683
v 1.77784 3.849293 0.3860853
v 1.091234 3.849293 -1.271509
v 0.1355084 6.610299 0.6768124
v -0.857087 6.610299 1.087963
v -0.5663601 6.703349 0.3860869
v -1.268232 6.610299 0.0953616
v -0.2756368 6.610299 -0.3157872
v 2.332232 4.214333 -0.3507325
v 1.564467 4.326895 0.02710845
v 2.205903 3.702219 -0.901402
v 1.09034 3.86577 -0.3524039
v 1.277657 4.317745 0.8410879
v 0.6736189 3.852474 0.830296
v 1.639822 4.192244 1.614385
v 1.199836 3.670126 1.953887
v 2.438807 4.023906 1.89402
v 2.360743 3.425531 2.360188
v 3.206579 3.911345 1.516179
v 3.476298 3.261982 1.811187
v 3.493386 3.920494 0.7021995
v 3.893031 3.275278 0.6284864
v 3.13122 4.045995 -0.07110176
v 3.36681 3.457628 -0.4951041
v 2.079418 3.061068 -1.08542
v 0.8719482 3.238092 -0.4911923
v 0.4208857 3.223703 0.7889559
v 0.9904523 3.026327 2.005121
v 2.247015 2.761585 2.444892
v 3.454489 2.584558 1.850666
v 3.905547 2.598948 0.5705204
v 3.335977 2.796324 -0.6456459
v 2.918181 4.291519 0.9612644
v 2.262849 4.3876 1.283773
v 2.455872 4.501337 0.8007303
v 1.953723 4.494721 0.6237187
v 2.609056 4.398644 0.3012134

vn 0.05294864 0.5420592 -0.8386706
vn -0.5555895 0.5420586 -0.6304702
vn 0.05982176 0.3140009 -0.9475361
vn -0.6277088 0.3140011 -0.7123095
vn -0.8386706 0.5420592 -0.05294864
vn -0.9475361 0.3140009 -0.05982176
vn -0.6304705 0.542059 0.5555889
vn -0.7123095 0.3140011 0.6277088
vn -0.05294864 0.5420592 0.8386706
vn -0.05982176 0.3140009 0.9475361
vn 0.5555899 0.542059 0.6304696
vn 0.6277088 0.3140011 0.7123095
vn 0.8386706 0.5420592 0.05294864
vn 0.9475361 0.3140009 0.05982176
vn 0.6304696 0.542059 -0.5555899
vn 0.7123091 0.3140009 -0.6277094
vn 0.06218293 0.1613551 -0.9849355
vn -0.6524845 0.161355 -0.7404245
vn -0.9849355 0.1613551 -0.06218293
vn -0.7404245 0.161355 0.6524845
vn -0.06218293 0.1613551 0.9849355
vn 0.6524845 0.161355 0.7404245
vn 0.9849355 0.1613551 0.06218293
vn 0.740424 0.1613549 -0.6524851
vn 0.2890557 0.9538103 0.08180955
vn -0.08181058 0.9538099 0.2890565
vn 0 1 0
vn -0.2890565 0.9538099 -0.08181058
vn 0.0818096 0.95381 -0.2890566
vn 0.1081758 0.6025708 -0.7907
vn -0.4805725 0.686452 -0.5457416
vn 0.0698601 0.3881159 -0.9189589
vn -0.5953125 0.4828859 -0.6422026
vn -0.7320969 0.6796343 0.0461664
vn -0.879487 0.4751822 0.02653954
vn -0.4990584 0.5861099 0.6382914
vn -0.6161975 0.369518 0.6955264
vn 0.08203362 0.460665 0.8837749
vn 0.04032369 0.2277891 0.9728752
vn 0.6707823 0.3767832 0.6388156
vn 0.7054963 0.133019 0.6961184
vn 0.9223065 0.3836018 0.04690743
vn 0.9896704 0.140723 0.02737613
vn 0.6892672 0.4771261 -0.5452169
vn 0.726381 0.2463869 -0.6416105
vn 0.04366123 0.2415741 -0.9693997
vn -0.6477659 0.340085 -0.6817194
vn -0.9431565 0.332078 0.01341772
vn -0.6694754 0.222242 0.7088097
vn 0.01295855 0.07491998 0.9971053
vn 0.7043859 -0.02359101 0.709425
vn 0.9997765 -0.015583 0.01428688
vn 0.7260951 0.09425099 -0.681104
vn 0.4481813 0.8812572 0.1500645
vn 0.09617959 0.9252396 0.3669892
vn 0.1754501 0.9807378 0.08585243
vn -0.1127905 0.9935194 0.01405116
vn 0.2392101 0.9495373 -0.2028729

vt 0.4470215 0.4243164
vt 0.4257813 0.4155273
vt 0.4472656 0.4458008
vt 0.4106445 0.4306641
vt 0.4169922 0.3942871
vt 0.3955078 0.3942871
vt 0.4257813 0.3728027
vt 0.4106445 0.3579102
vt 0.4470215 0.3642578
vt 0.4470215 0.3427734
vt 0.4685059 0.3730469
vt 0.4833984 0.357666
vt 0.4770508 0.3942871
vt 0.4985352 0.394043
vt 0.4682617 0.4155273
vt 0.4833984 0.4306641
vt 0.4470215 0.4689941
vt 0.394043 0.4470215
vt 0.3723145 0.394043
vt 0.394043 0.3413086
vt 0.4470215 0.3193359
vt 0.5 0.3413086
vt 0.5219727 0.3942871
vt 0.5 0.4472656
vt 0.4609375 0.3884277
vt 0.4411621 0.3803711
vt 0.4470215 0.3942871
vt 0.4331055 0.3999023
vt 0.4528809 0.407959
vt 0.3144531 0.4064941
vt 0.2939453 0.3986816
vt 0.3151855 0.4223633
vt 0.2832031 0.4101563
vt 0.2856445 0.3781738
vt 0.2697754 0.3789063
vt 0.293457 0.357666
vt 0.2817383 0.3469238
vt 0.3139648 0.3493652
vt 0.3132324 0.333252
vt 0.3344727 0.3571777
vt 0.3452148 0.345459
vt 0.3427734 0.3776855
vt 0.3586426 0.3769531
vt 0.3349609 0.3981934
vt 0.3464355 0.4089355
vt 0.3132324 0.4384766
vt 0.2705078 0.420166
vt 0.253418 0.3769531
vt 0.2717285 0.3342285
vt 0.3151855 0.3171387
vt 0.357666 0.3354492
vt 0.375 0.3786621
vt 0.3564453 0.4213867
vt 0.3261719 0.3720703
vt 0.3083496 0.3659668
vt 0.314209 0.3779297
vt 0.3022461 0.3837891
vt 0.3200684 0.3898926

g Tree3_(15)_1298_330
usemtl Tree3_(15)_1298_330
usemap Tree3_(15)_1298_330
f 1/1/1 3/3/3 2/2/2
f 2/2/2 3/3/3 4/4/4
f 2/2/2 4/4/4 5/5/5
f 5/5/5 4/4/4 6/6/6
f 5/5/5 6/6/6 7/7/7
f 7/7/7 6/6/6 8/8/8
f 7/7/7 8/8/8 9/9/9
f 9/9/9 8/8/8 10/10/10
f 9/9/9 10/10/10 11/11/11
f 11/11/11 10/10/10 12/12/12
f 11/11/11 12/12/12 13/13/13
f 13/13/13 12/12/12 14/14/14
f 13/13/13 14/14/14 15/15/15
f 15/15/15 14/14/14 16/16/16
f 15/15/15 16/16/16 1/1/1
f 1/1/1 16/16/16 3/3/3
f 3/3/3 17/17/17 4/4/4
f 4/4/4 17/17/17 18/18/18
f 4/4/4 18/18/18 6/6/6
f 6/6/6 18/18/18 19/19/19
f 6/6/6 19/19/19 8/8/8
f 8/8/8 19/19/19 20/20/20
f 8/8/8 20/20/20 10/10/10
f 10/10/10 20/20/20 21/21/21
f 10/10/10 21/21/21 12/12/12
f 12/12/12 21/21/21 22/22/22
f 12/12/12 22/22/22 14/14/14
f 14/14/14 22/22/22 23/23/23
f 14/14/14 23/23/23 16/16/16
f 16/16/16 23/23/23 24/24/24
f 16/16/16 24/24/24 3/3/3
f 3/3/3 24/24/24 17/17/17
f 11/11/11 13/13/13 25/25/25
f 13/13/13 15/15/15 25/25/25
f 26/26/26 11/11/11 25/25/25
f 26/26/26 25/25/25 27/27/27
f 28/28/28 26/26/26 27/27/27
f 29/29/29 28/28/28 27/27/27
f 25/25/25 29/29/29 27/27/27
f 29/29/29 2/2/2 28/28/28
f 1/1/1 2/2/2 29/29/29
f 15/15/15 1/1/1 29/29/29
f 25/25/25 15/15/15 29/29/29
f 2/2/2 5/5/5 28/28/28
f 5/5/5 7/7/7 28/28/28
f 28/28/28 7/7/7 26/26/26
f 7/7/7 9/9/9 26/26/26
f 9/9/9 11/11/11 26/26/26
f 30/30/30 32/32/32 31/31/31
f 31/31/31 32/32/32 33/33/33
f 31/31/31 33/33/33 34/34/34
f 34/34/34 33/33/33 35/35/35
f 34/34/34 35/35/35 36/36/36
f 36/36/36 35/35/35 37/37/37
f 36/36/36 37/37/37 38/38/38
f 38/38/38 37/37/37 39/39/39
f 38/38/38 39/39/39 40/40/40
f 40/40/40 39/39/39 41/41/41
f 40/40/40 41/41/41 42/42/42
f 42/42/42 41/41/41 43/43/43
f 42/42/42 43/43/43 44/44/44
f 44/44/44 43/43/43 45/45/45
f 44/44/44 45/45/45 30/30/30
f 30/30/30 45/45/45 32/32/32
f 32/32/32 46/46/46 33/33/33
f 33/33/33 46/46/46 47/47/47
f 33/33/33 47/47/47 35/35/35
f 35/35/35 47/47/47 48/48/48
f 35/35/35 48/48/48 37/37/37
f 37/37/37 48/48/48 49/49/49
f 37/37/37 49/49/49 39/39/39
f 39/39/39 49/49/49 50/50/50
f 39/39/39 50/50/50 41/41/41
f 41/41/41 50/50/50 51/51/51
f 41/41/41 51/51/51 43/43/43
f 43/43/43 51/51/51 52/52/52
f 43/43/43 52/52/52 45/45/45
f 45/45/45 52/52/52 53/53/53
f 45/45/45 53/53/53 32/32/32
f 32/32/32 53/53/53 46/46/46
f 40/40/40 42/42/42 54/54/54
f 42/42/42 44/44/44 54/54/54
f 55/55/55 40/40/40 54/54/54
f 55/55/55 54/54/54 56/56/56
f 57/57/57 55/55/55 56/56/56
f 58/58/58 57/57/57 56/56/56
f 54/54/54 58/58/58 56/56/56
f 58/58/58 31/31/31 57/57/57
f 30/30/30 31/31/31 58/58/58
f 44/44/44 30/30/30 58/58/58
f 54/54/54 44/44/44 58/58/58
f 31/31/31 34/34/34 57/57/57
f 34/34/34 36/36/36 57/57/57
f 57/57/57 36/36/36 55/55/55
f 36/36/36 38/38/38 55/55/55
f 38/38/38 40/40/40 55/55/55
