#Tree_conf1_(105)_2370_656.obj

v 0.1324678 -0.04437639 0.02973889
v 0.05209966 0.3509289 0.01169627
v 0.0322011 0.3509289 -0.04955086
v 0.08187069 -0.04437639 -0.1259836
v -0.0321953 0.3509289 -0.04955064
v -0.08186731 -0.04437639 -0.1259829
v -0.05209612 0.3509289 0.01169511
v -0.1324633 -0.04437639 0.02973862
v 2.996774E-07 0.3509289 0.04954821
v 1.666994E-06 -0.04437639 0.1259809
v 0.05209966 0.3509289 0.01169627
v 0.1324678 -0.04437639 0.02973889
v -0.01651591 2.018247 -0.02541541
v 0.01651624 2.018247 -0.02541561
v 0.02672558 2.018247 0.005998404
v 0.02672558 2.018247 0.005998404
v 1.435141E-06 2.018247 0.02541424
v -0.02672366 2.018247 0.005999497

vn 0.8117533 0.203269 -0.5474836
vn 0.8313838 0.08719236 -0.5488155
vn -0.2655972 0.09713162 -0.9591787
vn -0.2658147 0.2244589 -0.9375292
vn -0.9944198 0.09713169 -0.04117131
vn -0.9733834 0.224459 -0.04629329
vn -0.3459907 0.0871923 0.9341778
vn -0.3491459 0.2032691 0.9147562
vn 0.7806047 0.08113931 0.6197364
vn 0.7689452 0.1898378 0.6104797
vn 0.8313838 0.08719236 -0.5488155
vn 0.8117533 0.203269 -0.5474836
vn -0.9989544 0.01723529 -0.04235101
vn -0.2677749 0.01723531 -0.9633275
vn 0.8335701 0.01552718 -0.5521955
vn 0.8335701 0.01552718 -0.5521955
vn 0.783105 0.01447244 0.6217215
vn -0.3487863 0.01552706 0.9370736

vt 0.4238281 0.003742218
vt 0.4238281 0.02593994
vt 0.4316406 0.02593994
vt 0.4316406 0.003742218
vt 0.4394531 0.02593994
vt 0.4394531 0.003740311
vt 0.4472656 0.02593994
vt 0.4472656 0.003740311
vt 0.4550781 0.02593994
vt 0.4550781 0.003740311
vt 0.4628906 0.02593994
vt 0.4628906 0.003738403
vt 0.4394531 0.1196289
vt 0.4318848 0.1196289
vt 0.4240723 0.1196289
vt 0.4628906 0.1195679
vt 0.4550781 0.1196289
vt 0.4472656 0.1196289

g Tree_conf1_(105)_2370_656
usemtl Tree_conf1_(105)_2370_656
usemap Tree_conf1_(105)_2370_656
f 1/1/1 3/3/3 2/2/2
f 1/1/1 4/4/4 3/3/3
f 4/4/4 5/5/5 3/3/3
f 4/4/4 6/6/6 5/5/5
f 6/6/6 7/7/7 5/5/5
f 6/6/6 8/8/8 7/7/7
f 8/8/8 9/9/9 7/7/7
f 8/8/8 10/10/10 9/9/9
f 10/10/10 11/11/11 9/9/9
f 10/10/10 12/12/12 11/11/11
f 3/3/3 5/5/5 13/13/13
f 3/3/3 13/13/13 14/14/14
f 2/2/2 3/3/3 14/14/14
f 2/2/2 14/14/14 15/15/15
f 9/9/9 11/11/11 16/16/16
f 9/9/9 16/16/16 17/17/17
f 7/7/7 9/9/9 17/17/17
f 7/7/7 17/17/17 18/18/18
f 5/5/5 18/18/18 13/13/13
f 5/5/5 7/7/7 18/18/18
