#Tree4_(4)_1263_338.obj

v -2.491711 6.129237 -0.465942
v -3.228823 5.983608 -0.3656042
v -2.327989 5.560323 -0.943149
v -3.285009 5.371249 -0.8128772
v -3.653041 5.739669 0.2133071
v -3.835792 5.054531 -0.06124915
v -3.51587 5.540316 0.9316716
v -3.657699 4.795703 0.8714351
v -2.897663 5.502325 1.368683
v -2.855049 4.746378 1.438824
v -2.160554 5.647953 1.268344
v -1.898023 4.935453 1.308552
v -1.736328 5.891891 0.6894346
v -1.347237 5.252171 0.5569245
v -1.873502 6.091246 -0.02893224
v -1.525335 5.511 -0.3757591
v -2.467368 6.30267 0.1721127
v -3.15107 6.167593 0.265182
v -2.765712 6.271781 0.5914754
v -3.023835 5.982682 0.9315041
v -2.340127 6.117759 0.8384326
v 2.217852 7.354592 -2.494817
v 0.8755569 7.329135 -2.83782
v 2.611902 6.5694 -2.995751
v 0.798252 6.534998 -3.459197
v -0.3162768 7.316662 -2.131088
v -0.8120828 6.518145 -2.504296
v -0.6594719 7.324482 -0.7886109
v -1.275788 6.528714 -0.6904182
v 0.04699699 7.348016 0.4032005
v -0.3212397 6.560512 0.9198949
v 1.389315 7.37348 0.7462058
v 1.492414 6.594911 1.383342
v 2.581139 7.38595 0.03947318
v 3.102754 6.611767 0.4284415
v 2.924339 7.37813 -1.303003
v 3.566459 6.601199 -1.385437
v 2.839003 5.645878 -3.269424
v 0.7632495 5.606506 -3.799846
v -1.079796 5.587218 -2.706946
v -1.610515 5.599314 -0.6309387
v -0.5180125 5.635708 1.212088
v 1.557742 5.675082 1.742514
v 3.400793 5.69437 0.6496141
v 3.931502 5.682274 -1.426399
v 1.552917 7.72575 -0.3300928
v 0.4071846 7.704019 -0.6228647
v 1.125374 7.781335 -1.050119
v 0.7001236 7.697345 -1.768742
v 1.845851 7.719076 -1.475971
v 0.4598787 6.511011 -2.618051
v -0.589408 6.526672 -1.660242
v 0.1699514 5.761833 -3.293452
v -1.247789 5.782992 -1.999314
v -0.6596579 6.420261 -0.2451824
v -1.342709 5.639215 -0.08736046
v 0.2902863 6.254119 0.7982076
v -0.05919456 5.414735 1.322411
v 1.703954 6.125566 0.8587209
v 1.850876 5.241036 1.404174
v 2.753248 6.109906 -0.0990908
v 3.268622 5.219882 0.1100291
v 2.823493 6.216312 -1.514151
v 3.363542 5.363655 -1.801925
v 1.873549 6.382455 -2.557541
v 2.080029 5.588139 -3.211692
v -0.1083953 4.862029 -3.912853
v -1.853918 4.888076 -2.319512
v -1.970766 4.711063 0.03447879
v -0.390519 4.434681 1.770181
v 1.961163 4.220828 1.870849
v 3.70669 4.194779 0.2775028
v 3.823543 4.371792 -2.076488
v 2.243289 4.648178 -3.812188
v 1.967901 6.614914 -0.8133787
v 1.072276 6.628282 0.004165371
v 1.121015 6.764997 -0.8441339
v 0.2614459 6.770093 -0.8864249
v 1.157062 6.756725 -1.703964
v -1.404488 4.948886 -2.36507
v -1.804187 4.708665 -2.8027
v -1.031502 4.433385 -2.283358
v -1.550448 4.121498 -2.851551
v -2.422603 4.545877 -2.80935
v -2.353366 3.910143 -2.860188
v -2.897482 4.555882 -2.381129
v -2.969918 3.923131 -2.304208
v -2.950642 4.732815 -1.768878
v -3.038937 4.152854 -1.509293
v -2.550946 4.973035 -1.331251
v -2.519992 4.464743 -0.9410977
v -1.932524 5.135823 -1.324594
v -1.717073 4.676098 -0.9324622
v -1.457649 5.125819 -1.752824
v -1.10052 4.663109 -1.488444
v -1.842206 5.217912 -2.146827
v -2.212945 4.995097 -2.552751
v -2.275557 5.217892 -2.184449
v -2.653416 5.004375 -2.155545
v -2.282674 5.22719 -1.749625

vn -0.3099155 0.7784641 -0.5458444
vn -0.7499306 0.6549021 -0.09331292
vn -0.3689757 0.5973637 -0.7120489
vn -0.8661079 0.4577628 -0.2007745
vn -0.7306092 0.4479261 0.5153373
vn -0.844279 0.223919 0.4868811
vn -0.2632706 0.278779 0.9235643
vn -0.3162753 0.03281599 0.9480997
vn 0.3783256 0.2465458 0.8922359
vn 0.4086042 -0.003602002 0.9127046
vn 0.8183408 0.3701069 0.4397034
vn 0.905736 0.135999 0.4014307
vn 0.7990189 0.5770843 -0.1689458
vn 0.8839066 0.3698429 -0.2862261
vn 0.3316803 0.7462302 -0.5771731
vn 0.3559034 0.560946 -0.7474439
vn -0.01924057 0.9965098 -0.08122839
vn -0.3374608 0.8641002 0.3734314
vn 0.06310057 0.9454778 0.3195152
vn 0.1347158 0.7337341 0.6659476
vn 0.4529366 0.8661441 0.2112885
vn 0.1867585 0.5128449 -0.8379209
vn -0.2715299 0.737739 -0.6180718
vn 0.08095607 0.2558199 -0.9633287
vn -0.4867682 0.5344177 -0.6909809
vn -0.4248083 0.8987413 -0.1086368
vn -0.6766493 0.7338651 -0.05989715
vn -0.1832898 0.9015374 0.3919634
vn -0.3774564 0.7373294 0.5602428
vn 0.3115496 0.7444899 0.5904842
vn 0.2355456 0.5427799 0.8061689
vn 0.7698386 0.5195948 0.3706344
vn 0.80327 0.2641829 0.5338209
vn 0.9231169 0.3585939 -0.1388006
vn 0.9931511 0.064735 -0.09726444
vn 0.6815974 0.3557971 -0.639401
vn 0.6939587 0.06127099 -0.7174032
vn 0.00101313 0.05827697 -0.9983
vn -0.6126313 0.359409 -0.7039235
vn -0.8178709 0.5749891 -0.02179429
vn -0.4944787 0.5787333 0.648505
vn 0.1681072 0.3684478 0.9143229
vn 0.7817517 0.067316 0.6199459
vn 0.9869909 -0.1482641 -0.06218401
vn 0.6635981 -0.152008 -0.7324829
vn 0.550971 0.8233867 -0.1358875
vn 0.3302121 0.9434429 0.02958889
vn 0.3624239 0.9144735 -0.1799642
vn 0.1572836 0.9636868 -0.2157999
vn 0.378042 0.8436309 -0.3812758
vn -0.2353283 0.8238653 -0.5156226
vn -0.2818198 0.959092 0.02683752
vn -0.4883677 0.6650369 -0.5649982
vn -0.5456415 0.8316296 0.1032837
vn 0.03043188 0.8739552 0.4850528
vn -0.1609651 0.7267453 0.667781
vn 0.5185117 0.618327 0.5906076
vn 0.4403248 0.4118249 0.7978185
vn 0.8965115 0.34195 0.2816688
vn 0.9059998 0.07134299 0.4172225
vn 0.9430022 0.206723 -0.2607922
vn 0.9632739 -0.09525002 -0.2510594
vn 0.6307505 0.29186 -0.7190073
vn 0.5785964 0.009635 -0.8155572
vn 0.1426699 0.5474889 -0.8245612
vn -0.02269262 0.324556 -0.9455943
vn -0.640294 0.5162241 -0.5688026
vn -0.7020363 0.6958141 0.1516173
vn -0.2873477 0.5827472 0.760156
vn 0.3608535 0.2432561 0.9003395
vn 0.8628602 -0.123789 0.4900496
vn 0.9246028 -0.303379 -0.2303714
vn 0.509913 -0.190312 -0.8389101
vn -0.1382883 0.1491791 -0.9790924
vn 0.5965602 0.7373568 -0.3168923
vn 0.6191765 0.7851081 -0.01502699
vn 0.4859769 0.8568879 -0.1719585
vn 0.3523001 0.9356971 -0.0188538
vn 0.3296835 0.8879461 -0.3207188
vn 0.2281976 0.6109444 -0.7580718
vn -0.3596248 0.3693524 -0.8568832
vn 0.3675129 0.4137206 -0.8329283
vn -0.2966141 0.1407688 -0.9445657
vn -0.8535028 0.2056359 -0.4787974
vn -0.8545997 -0.04420039 -0.5174028
vn -0.9641272 0.2156964 0.1547059
vn -0.9795842 -0.03283307 0.1983351
vn -0.6266968 0.3936419 0.6725305
vn -0.598353 0.1682102 0.7833768
vn -0.0388734 0.6352329 0.7713417
vn 0.06577349 0.4411621 0.8950139
vn 0.4550035 0.7989506 0.3932554
vn 0.6237597 0.6261312 0.4678499
vn 0.5656281 0.7888891 -0.2402475
vn 0.7487437 0.6147642 -0.2478872
vn -0.0648171 0.9311942 -0.3587146
vn -0.595262 0.7211424 -0.3544247
vn -0.3675804 0.9266384 -0.078905
vn -0.6078624 0.764573 0.2143166
vn -0.07741788 0.9746255 0.2100275

vt 0.3613281 0.484375
vt 0.3461914 0.479248
vt 0.3603516 0.498291
vt 0.3356934 0.4875488
vt 0.3395996 0.463623
vt 0.3259277 0.4626465
vt 0.3447266 0.4484863
vt 0.3364258 0.4379883
vt 0.3603516 0.4418945
vt 0.3613281 0.4282227
vt 0.3754883 0.4470215
vt 0.3859863 0.4387207
vt 0.3820801 0.4626465
vt 0.395752 0.463623
vt 0.3769531 0.4780273
vt 0.3852539 0.4882813
vt 0.3652344 0.4726563
vt 0.3513184 0.4677734
vt 0.3608398 0.4631348
vt 0.3564453 0.4538574
vt 0.3701172 0.4587402
vt 0.4470215 0.4243164
vt 0.4257813 0.4155273
vt 0.4472656 0.4458008
vt 0.4106445 0.4306641
vt 0.4169922 0.3942871
vt 0.3955078 0.3942871
vt 0.4257813 0.3728027
vt 0.4106445 0.3579102
vt 0.4470215 0.3642578
vt 0.4470215 0.3427734
vt 0.4685059 0.3730469
vt 0.4833984 0.357666
vt 0.4770508 0.3942871
vt 0.4985352 0.394043
vt 0.4682617 0.4155273
vt 0.4833984 0.4306641
vt 0.4470215 0.4689941
vt 0.394043 0.4470215
vt 0.3723145 0.394043
vt 0.394043 0.3413086
vt 0.4470215 0.3193359
vt 0.5 0.3413086
vt 0.5219727 0.3942871
vt 0.5 0.4472656
vt 0.4609375 0.3884277
vt 0.4411621 0.3803711
vt 0.4470215 0.3942871
vt 0.4331055 0.3999023
vt 0.4528809 0.407959
vt 0.4470215 0.4243164
vt 0.4257813 0.4155273
vt 0.4472656 0.4458008
vt 0.4106445 0.4306641
vt 0.4169922 0.3942871
vt 0.3955078 0.3942871
vt 0.4257813 0.3728027
vt 0.4106445 0.3579102
vt 0.4470215 0.3642578
vt 0.4470215 0.3427734
vt 0.4685059 0.3730469
vt 0.4833984 0.357666
vt 0.4770508 0.3942871
vt 0.4985352 0.394043
vt 0.4682617 0.4155273
vt 0.4833984 0.4306641
vt 0.4470215 0.4689941
vt 0.394043 0.4470215
vt 0.3723145 0.394043
vt 0.394043 0.3413086
vt 0.4470215 0.3193359
vt 0.5 0.3413086
vt 0.5219727 0.3942871
vt 0.5 0.4472656
vt 0.4609375 0.3884277
vt 0.4411621 0.3803711
vt 0.4470215 0.3942871
vt 0.4331055 0.3999023
vt 0.4528809 0.407959
vt 0.3613281 0.484375
vt 0.3461914 0.479248
vt 0.3603516 0.498291
vt 0.3356934 0.4875488
vt 0.3395996 0.463623
vt 0.3259277 0.4626465
vt 0.3447266 0.4484863
vt 0.3364258 0.4379883
vt 0.3603516 0.4418945
vt 0.3613281 0.4282227
vt 0.3754883 0.4470215
vt 0.3859863 0.4387207
vt 0.3820801 0.4626465
vt 0.395752 0.463623
vt 0.3769531 0.4780273
vt 0.3852539 0.4882813
vt 0.3652344 0.4726563
vt 0.3513184 0.4677734
vt 0.3608398 0.4631348
vt 0.3564453 0.4538574
vt 0.3701172 0.4587402

g Tree4_(4)_1263_338
usemtl Tree4_(4)_1263_338
usemap Tree4_(4)_1263_338
f 1/1/1 3/3/3 2/2/2
f 2/2/2 3/3/3 4/4/4
f 2/2/2 4/4/4 5/5/5
f 5/5/5 4/4/4 6/6/6
f 5/5/5 6/6/6 7/7/7
f 7/7/7 6/6/6 8/8/8
f 7/7/7 8/8/8 9/9/9
f 9/9/9 8/8/8 10/10/10
f 9/9/9 10/10/10 11/11/11
f 11/11/11 10/10/10 12/12/12
f 11/11/11 12/12/12 13/13/13
f 13/13/13 12/12/12 14/14/14
f 13/13/13 14/14/14 15/15/15
f 15/15/15 14/14/14 16/16/16
f 15/15/15 16/16/16 1/1/1
f 1/1/1 16/16/16 3/3/3
f 15/15/15 1/1/1 17/17/17
f 1/1/1 2/2/2 17/17/17
f 17/17/17 2/2/2 18/18/18
f 2/2/2 5/5/5 18/18/18
f 5/5/5 7/7/7 18/18/18
f 17/17/17 18/18/18 19/19/19
f 18/18/18 20/20/20 19/19/19
f 18/18/18 7/7/7 20/20/20
f 7/7/7 9/9/9 20/20/20
f 9/9/9 11/11/11 20/20/20
f 20/20/20 21/21/21 19/19/19
f 21/21/21 17/17/17 19/19/19
f 20/20/20 11/11/11 21/21/21
f 11/11/11 13/13/13 21/21/21
f 13/13/13 15/15/15 21/21/21
f 21/21/21 15/15/15 17/17/17
f 22/22/22 24/24/24 23/23/23
f 23/23/23 24/24/24 25/25/25
f 23/23/23 25/25/25 26/26/26
f 26/26/26 25/25/25 27/27/27
f 26/26/26 27/27/27 28/28/28
f 28/28/28 27/27/27 29/29/29
f 28/28/28 29/29/29 30/30/30
f 30/30/30 29/29/29 31/31/31
f 30/30/30 31/31/31 32/32/32
f 32/32/32 31/31/31 33/33/33
f 32/32/32 33/33/33 34/34/34
f 34/34/34 33/33/33 35/35/35
f 34/34/34 35/35/35 36/36/36
f 36/36/36 35/35/35 37/37/37
f 36/36/36 37/37/37 22/22/22
f 22/22/22 37/37/37 24/24/24
f 24/24/24 38/38/38 25/25/25
f 25/25/25 38/38/38 39/39/39
f 25/25/25 39/39/39 27/27/27
f 27/27/27 39/39/39 40/40/40
f 27/27/27 40/40/40 29/29/29
f 29/29/29 40/40/40 41/41/41
f 29/29/29 41/41/41 31/31/31
f 31/31/31 41/41/41 42/42/42
f 31/31/31 42/42/42 33/33/33
f 33/33/33 42/42/42 43/43/43
f 33/33/33 43/43/43 35/35/35
f 35/35/35 43/43/43 44/44/44
f 35/35/35 44/44/44 37/37/37
f 37/37/37 44/44/44 45/45/45
f 37/37/37 45/45/45 24/24/24
f 24/24/24 45/45/45 38/38/38
f 32/32/32 34/34/34 46/46/46
f 34/34/34 36/36/36 46/46/46
f 47/47/47 32/32/32 46/46/46
f 47/47/47 46/46/46 48/48/48
f 49/49/49 47/47/47 48/48/48
f 50/50/50 49/49/49 48/48/48
f 46/46/46 50/50/50 48/48/48
f 50/50/50 23/23/23 49/49/49
f 22/22/22 23/23/23 50/50/50
f 36/36/36 22/22/22 50/50/50
f 46/46/46 36/36/36 50/50/50
f 23/23/23 26/26/26 49/49/49
f 26/26/26 28/28/28 49/49/49
f 49/49/49 28/28/28 47/47/47
f 28/28/28 30/30/30 47/47/47
f 30/30/30 32/32/32 47/47/47
f 51/51/51 53/53/53 52/52/52
f 52/52/52 53/53/53 54/54/54
f 52/52/52 54/54/54 55/55/55
f 55/55/55 54/54/54 56/56/56
f 55/55/55 56/56/56 57/57/57
f 57/57/57 56/56/56 58/58/58
f 57/57/57 58/58/58 59/59/59
f 59/59/59 58/58/58 60/60/60
f 59/59/59 60/60/60 61/61/61
f 61/61/61 60/60/60 62/62/62
f 61/61/61 62/62/62 63/63/63
f 63/63/63 62/62/62 64/64/64
f 63/63/63 64/64/64 65/65/65
f 65/65/65 64/64/64 66/66/66
f 65/65/65 66/66/66 51/51/51
f 51/51/51 66/66/66 53/53/53
f 53/53/53 67/67/67 54/54/54
f 54/54/54 67/67/67 68/68/68
f 54/54/54 68/68/68 56/56/56
f 56/56/56 68/68/68 69/69/69
f 56/56/56 69/69/69 58/58/58
f 58/58/58 69/69/69 70/70/70
f 58/58/58 70/70/70 60/60/60
f 60/60/60 70/70/70 71/71/71
f 60/60/60 71/71/71 62/62/62
f 62/62/62 71/71/71 72/72/72
f 62/62/62 72/72/72 64/64/64
f 64/64/64 72/72/72 73/73/73
f 64/64/64 73/73/73 66/66/66
f 66/66/66 73/73/73 74/74/74
f 66/66/66 74/74/74 53/53/53
f 53/53/53 74/74/74 67/67/67
f 61/61/61 63/63/63 75/75/75
f 63/63/63 65/65/65 75/75/75
f 76/76/76 61/61/61 75/75/75
f 76/76/76 75/75/75 77/77/77
f 78/78/78 76/76/76 77/77/77
f 79/79/79 78/78/78 77/77/77
f 75/75/75 79/79/79 77/77/77
f 79/79/79 52/52/52 78/78/78
f 51/51/51 52/52/52 79/79/79
f 65/65/65 51/51/51 79/79/79
f 75/75/75 65/65/65 79/79/79
f 52/52/52 55/55/55 78/78/78
f 55/55/55 57/57/57 78/78/78
f 78/78/78 57/57/57 76/76/76
f 57/57/57 59/59/59 76/76/76
f 59/59/59 61/61/61 76/76/76
f 80/80/80 82/82/82 81/81/81
f 81/81/81 82/82/82 83/83/83
f 81/81/81 83/83/83 84/84/84
f 84/84/84 83/83/83 85/85/85
f 84/84/84 85/85/85 86/86/86
f 86/86/86 85/85/85 87/87/87
f 86/86/86 87/87/87 88/88/88
f 88/88/88 87/87/87 89/89/89
f 88/88/88 89/89/89 90/90/90
f 90/90/90 89/89/89 91/91/91
f 90/90/90 91/91/91 92/92/92
f 92/92/92 91/91/91 93/93/93
f 92/92/92 93/93/93 94/94/94
f 94/94/94 93/93/93 95/95/95
f 94/94/94 95/95/95 80/80/80
f 80/80/80 95/95/95 82/82/82
f 94/94/94 80/80/80 96/96/96
f 80/80/80 81/81/81 96/96/96
f 96/96/96 81/81/81 97/97/97
f 81/81/81 84/84/84 97/97/97
f 84/84/84 86/86/86 97/97/97
f 96/96/96 97/97/97 98/98/98
f 97/97/97 99/99/99 98/98/98
f 97/97/97 86/86/86 99/99/99
f 86/86/86 88/88/88 99/99/99
f 88/88/88 90/90/90 99/99/99
f 99/99/99 100/100/100 98/98/98
f 100/100/100 96/96/96 98/98/98
f 99/99/99 90/90/90 100/100/100
f 90/90/90 92/92/92 100/100/100
f 92/92/92 94/94/94 100/100/100
f 100/100/100 94/94/94 96/96/96
