#Tree_conf1_(3)_1903_316.obj

v 0.1324657 -0.04437639 0.02974061
v 0.05209816 0.3509289 0.01169678
v 0.03219882 0.3509289 -0.04954785
v 0.08186804 -0.04437639 -0.1259822
v -0.03219813 0.3509289 -0.04954796
v -0.0818684 -0.04437639 -0.1259822
v -0.05209824 0.3509289 0.01169685
v -0.1324653 -0.04437639 0.02974033
v -3.915999E-07 0.3509289 0.04954795
v 1.374048E-07 -0.04437639 0.1259822
v 0.05209816 0.3509289 0.01169678
v 0.1324657 -0.04437639 0.02974061
v -0.01651632 2.018247 -0.02541573
v 0.01651628 2.018247 -0.02541539
v 0.02672347 2.018247 0.005999694
v 0.02672347 2.018247 0.005999694
v 3.433336E-07 2.018247 0.02541596
v -0.02672381 2.018247 0.005999672

vn 0.4392577 0.203269 0.8750625
vn 0.4380699 0.08719235 0.8947023
vn 0.9852557 0.0971316 -0.1408422
vn 0.9638115 0.2244588 -0.1438246
vn 0.1679143 0.09713166 -0.9810047
vn 0.170306 0.224459 -0.9594863
vn -0.8823026 0.08719229 -0.462536
vn -0.8626371 0.203269 -0.4631835
vn -0.7144113 0.0811393 0.6950056
vn -0.7037405 0.1898378 0.6846246
vn 0.4380699 0.08719235 0.8947023
vn 0.4392577 0.203269 0.8750625
vn 0.1696638 0.01723529 -0.9853513
vn 0.9896488 0.01723531 -0.1424718
vn 0.4411427 0.01552718 0.8973026
vn 0.4411427 0.01552718 0.8973026
vn -0.7166997 0.01447243 0.6972318
vn -0.8848175 0.01552705 -0.4656788

vt 0.4238281 0.003742218
vt 0.4238281 0.02593994
vt 0.4316406 0.02593994
vt 0.4316406 0.003742218
vt 0.4394531 0.02593994
vt 0.4394531 0.003740311
vt 0.4472656 0.02593994
vt 0.4472656 0.003740311
vt 0.4550781 0.02593994
vt 0.4550781 0.003740311
vt 0.4628906 0.02593994
vt 0.4628906 0.003738403
vt 0.4394531 0.1196289
vt 0.4318848 0.1196289
vt 0.4240723 0.1196289
vt 0.4628906 0.1195679
vt 0.4550781 0.1196289
vt 0.4472656 0.1196289

g Tree_conf1_(3)_1903_316
usemtl Tree_conf1_(3)_1903_316
usemap Tree_conf1_(3)_1903_316
f 1/1/1 3/3/3 2/2/2
f 1/1/1 4/4/4 3/3/3
f 4/4/4 5/5/5 3/3/3
f 4/4/4 6/6/6 5/5/5
f 6/6/6 7/7/7 5/5/5
f 6/6/6 8/8/8 7/7/7
f 8/8/8 9/9/9 7/7/7
f 8/8/8 10/10/10 9/9/9
f 10/10/10 11/11/11 9/9/9
f 10/10/10 12/12/12 11/11/11
f 3/3/3 5/5/5 13/13/13
f 3/3/3 13/13/13 14/14/14
f 2/2/2 3/3/3 14/14/14
f 2/2/2 14/14/14 15/15/15
f 9/9/9 11/11/11 16/16/16
f 9/9/9 16/16/16 17/17/17
f 7/7/7 9/9/9 17/17/17
f 7/7/7 17/17/17 18/18/18
f 5/5/5 18/18/18 13/13/13
f 5/5/5 7/7/7 18/18/18
