#Tree_conf2_(177)_2561_580.obj

v 0.1189073 -0.1466557 -0.4504045
v 0.05755505 1.159755 -0.1771422
v -0.1506872 1.159755 -0.1094852
v -0.4105735 -0.1466557 -0.2783687
v -0.1506885 1.159755 0.1094763
v -0.4105753 -0.1466557 0.2783618
v 0.05755422 1.159755 0.1771366
v 0.1189061 -0.1466557 0.450399
v 0.1862566 1.159755 -1.892813E-06
v 0.4461451 -0.1466557 3.406793E-07
v 0.05755505 1.159755 -0.1771422
v 0.1189073 -0.1466557 -0.4504045
v -0.06863427 6.66993 0.05615134
v -0.06863265 6.66993 -0.05615724
v 0.03818291 6.66993 -0.09086847
v 0.03818291 6.66993 -0.09086847
v 0.1042002 6.66993 -6.64596E-06
v 0.03818434 6.66993 0.09086026

vn 0.7334088 0.2088854 -0.6468992
vn 0.7536082 0.08978422 -0.6511633
vn -0.3868204 0.1000239 -0.9167143
vn -0.3839571 0.2305968 -0.8940928
vn -0.9911473 0.1000239 0.08730549
vn -0.969817 0.2305969 0.07924634
vn -0.2226378 0.08978421 0.9707581
vn -0.2283253 0.2088854 0.9509124
vn 0.8537756 0.08355004 0.5138936
vn 0.8403054 0.1951094 0.5057858
vn 0.7536082 0.08978422 -0.6511633
vn 0.7334088 0.2088854 -0.6468992
vn -0.9960751 0.01773245 0.08671832
vn -0.3896458 0.01773245 -0.9207941
vn 0.7554817 0.01597498 -0.6549751
vn 0.7554817 0.01597498 -0.6549751
vn 0.8566762 0.01488988 0.5156395
vn -0.2251291 0.01597498 0.974198

vt 0.4238281 0.003742218
vt 0.4238281 0.02593994
vt 0.4316406 0.02593994
vt 0.4316406 0.003742218
vt 0.4394531 0.02593994
vt 0.4394531 0.003740311
vt 0.4472656 0.02593994
vt 0.4472656 0.003740311
vt 0.4550781 0.02593994
vt 0.4550781 0.003740311
vt 0.4628906 0.02593994
vt 0.4628906 0.003738403
vt 0.4394531 0.1196289
vt 0.4318848 0.1196289
vt 0.4240723 0.1196289
vt 0.4628906 0.1195679
vt 0.4550781 0.1196289
vt 0.4472656 0.1196289

g Tree_conf2_(177)_2561_580
usemtl Tree_conf2_(177)_2561_580
usemap Tree_conf2_(177)_2561_580
f 1/1/1 3/3/3 2/2/2
f 1/1/1 4/4/4 3/3/3
f 4/4/4 5/5/5 3/3/3
f 4/4/4 6/6/6 5/5/5
f 6/6/6 7/7/7 5/5/5
f 6/6/6 8/8/8 7/7/7
f 8/8/8 9/9/9 7/7/7
f 8/8/8 10/10/10 9/9/9
f 10/10/10 11/11/11 9/9/9
f 10/10/10 12/12/12 11/11/11
f 3/3/3 5/5/5 13/13/13
f 3/3/3 13/13/13 14/14/14
f 2/2/2 3/3/3 14/14/14
f 2/2/2 14/14/14 15/15/15
f 9/9/9 11/11/11 16/16/16
f 9/9/9 16/16/16 17/17/17
f 7/7/7 9/9/9 17/17/17
f 7/7/7 17/17/17 18/18/18
f 5/5/5 18/18/18 13/13/13
f 5/5/5 7/7/7 18/18/18
