#Tree2_(2)_1073_334.obj

v 0.7752663 1.310929 0.07278309
v 1.306419 2.346469 -0.3110511
v 1.184129 2.31463 -0.5785217
v 0.4093678 1.223058 -0.1454417
v 0.587923 1.480954 0.5344532
v 1.15513 2.463786 -0.08553943
v 0.3771314 1.588565 0.7732872
v 1.064945 4.630815 -1.694032
v 1.167387 4.630815 -1.446714
v 1.064946 4.630815 -1.199392
v 0.7982605 2.602398 -0.01764672
v 0.05036826 1.736241 0.6994726
v 0.4403856 2.6719 -0.1771042
v -0.5084186 1.564545 0.3430361
v 0.2979112 2.670999 -0.3412515
v -0.3605435 1.480954 -0.01388531
v 0.4708386 2.515306 -0.694663
v -0.01739212 1.301476 -0.4783588
v 0.467866 4.630815 -1.446714
v 0.5702857 4.630815 -1.694032
v 0.8413217 2.380942 -0.7495846
v -0.01739212 1.301476 -0.4783588
v 0.8176168 4.630815 -1.796473
v 1.184129 2.31463 -0.5785217
v 0.4093678 1.223058 -0.1454417
v -0.01739212 1.301476 -0.4783588
v 1.064945 4.630815 -1.694032
v 0.5702863 4.630815 -1.199392
v 0.8176183 4.630815 -1.096949
v -0.4733661 0.3292439 -0.1358119
v -0.6694384 0.4708683 0.2543006
v -0.473365 0.6728067 0.6444126
v -2.661422E-07 0.4708683 0.8060014
v 0.4733792 0.4910424 -0.2004462
v 8.529271E-07 0.8423996 -0.692016
v 0.561094 0.7986991 0.5659739
v 0.8372402 0.6728067 0.1318405
v 0.4733792 0.4910424 -0.2004462
v -0.9349047 0.2222972 0.7275572
v -0.5725105 0.1527944 0.9643092
v -0.02356416 -0.1077578 0.7724617
v -0.5089781 -0.1176493 0.8692782
v -0.8674619 -0.1360745 1.196745
v -0.7166181 -0.3318532 1.150716
v -0.8674619 -0.1360745 1.196745
v -1.033335 -0.5150276 1.527069
v 0.7858701 0.2580049 0.7238576
v 0.4410264 -0.2057266 0.9391018
v 0.7991857 -0.1077578 0.2311969
v 0.9088855 -0.2057266 0.5832498
v 0.9399613 -0.5151595 1.170653
v -0.9349047 0.2222972 0.7275572
v -0.8674619 -0.1360745 1.196745
v -1.094448 -0.3417804 1.009755
v -1.033335 -0.5150276 1.527069
v -0.9696431 -0.1331239 0.4415196
v -0.9349047 0.2222972 0.7275572
v -0.8137767 -0.1077578 0.171424
v -1.428053 -0.3506457 -0.2965564
v -1.428053 -0.3506457 -0.2965564
v 0.02662317 0.309643 -0.6717803
v -0.582334 -0.1077578 -0.2535743
v -0.3954285 -0.2645998 -0.6329508
v 0.07547865 -0.6410102 -1.310643
v 0.2633095 -0.2645998 -0.6329517
v 0.5026537 -0.1077578 -0.3133498
v 8.529271E-07 0.8423996 -0.692016
v -1.428053 -0.3506457 -0.2965564
v 0.5026537 -0.1077578 -0.3133498
v 1.175219 -0.4948694 -0.213934
v 1.175219 -0.4948694 -0.213934
v -0.05483685 1.150024 0.06832087
v -0.6271825 1.569091 0.08067967
v -0.7951826 1.419268 0.03679904
v -0.1862161 1.032856 0.03400257
v -0.337721 0.984323 0.1168537
v -0.02051593 1.267193 0.1997038
v -0.1033786 1.315726 0.3511933
v -0.7331272 1.631149 0.2743836
v -0.2548591 1.267193 0.4340425
v -0.3862425 1.150024 0.3997237
v -0.9011276 1.481326 0.2305037
v -0.4205623 1.032856 0.2683392
v -0.838121 1.816107 -0.521069
v -0.7044649 1.935304 -0.4861575
v -0.7044649 1.935304 -0.4861575
v -1.142114 2.360987 -0.6409961
v -0.337721 0.984323 0.1168537
v -0.9011276 1.481326 0.2305037
v -0.7951826 1.419268 0.03679904
v -0.9224117 1.86548 -0.3669617
v -0.838121 1.816107 -0.521069
v -0.9224117 1.86548 -0.3669617
v -1.214082 2.403146 -0.5094071
v -1.142114 2.360987 -0.6409961
v -0.7044649 1.935304 -0.4861575
v -1.027984 2.462767 -0.6111851
v -1.214082 2.403146 -0.5094071
v -1.099951 2.504926 -0.4795976
v -0.7887528 1.984677 -0.3320478
v -0.7887528 1.984677 -0.3320478
v -1.099951 2.504926 -0.4795976
v -0.7044649 1.935304 -0.4861575
v -0.9011276 1.481326 0.2305037
v -0.7887528 1.984677 -0.3320478
v -0.9224117 1.86548 -0.3669617

vn 0.8182383 -0.3371709 -0.46562
vn 0.7402459 -0.352839 -0.5723116
vn 0.09394127 -0.441645 -0.8922583
vn -0.04850662 -0.246164 -0.9680136
vn 0.9596914 0.08349802 0.2683666
vn 0.9893236 0.134854 0.05525699
vn 0.6200327 0.2369131 0.7479516
vn 0.03333041 -0.251435 -0.9673001
vn 0.756862 0.021219 -0.6532302
vn 0.9613442 0.274749 -0.01817587
vn 0.7337805 0.44408 0.5141587
vn 0.003609538 0.3261311 0.9453176
vn 0.1476622 0.5701939 0.8081304
vn -0.7025908 0.352136 0.6183578
vn -0.6659748 0.3675431 0.6491454
vn -0.9813386 0.190888 -0.02315959
vn -0.994829 -0.08098095 -0.0612976
vn -0.7698854 -0.143503 -0.6218387
vn -0.8333755 0.06846599 0.5484502
vn -0.9606816 -0.2562009 -0.1070144
vn -0.6524037 -0.327403 -0.6835034
vn -0.7698854 -0.143503 -0.6218387
vn -0.6552528 -0.351269 -0.6687704
vn 0.09394127 -0.441645 -0.8922583
vn -0.04850662 -0.246164 -0.9680136
vn -0.7698854 -0.143503 -0.6218387
vn 0.03333041 -0.251435 -0.9673001
vn 0.003904045 0.475129 0.8799075
vn 0.693482 0.4572679 0.5567665
vn -0.9142061 0.3460911 -0.2108274
vn -0.7235548 0.452247 0.5214797
vn -0.05688074 0.4481292 0.8921574
vn 0.6334999 0.167681 0.7553549
vn 0.01723203 0.195953 -0.980462
vn -0.5745824 0.2755259 -0.7706754
vn 0.9560087 0.208623 0.2062133
vn 0.7854827 0.221386 -0.5779318
vn 0.01723203 0.195953 -0.980462
vn -0.432934 0.6389848 0.6358197
vn 0.6359415 0.3673829 0.6786813
vn 0.6664592 0.02434001 0.7451441
vn 0.5916182 -0.019511 0.8059822
vn 0.2623497 0.6323718 0.7288886
vn 0.5916182 -0.019511 0.8059822
vn 0.2623497 0.6323718 0.7288886
vn 0.3376499 0.676885 0.654079
vn 0.8974398 0.3803267 0.2235025
vn 0.5916182 -0.019511 0.8059822
vn 0.9602773 0.05863598 -0.2728175
vn 0.7558995 -0.016972 -0.6544677
vn 0.8499656 0.489 0.1960548
vn -0.432934 0.6389848 0.6358197
vn 0.2623497 0.6323718 0.7288886
vn -0.8266842 0.173637 0.5352041
vn 0.3376499 0.676885 0.654079
vn -0.8266842 0.173637 0.5352041
vn -0.432934 0.6389848 0.6358197
vn -0.6274811 0.2254061 0.7452917
vn -0.8266842 0.173637 0.5352041
vn -0.8266842 0.173637 0.5352041
vn -0.4478616 0.4164998 -0.7911687
vn -0.8291254 0.274373 -0.4871043
vn -0.9812127 0.153429 -0.1169669
vn -0.3195538 0.5555828 -0.7676022
vn 0.01670149 0.01699201 -0.9997162
vn -0.07217747 0.1688749 -0.9829912
vn -0.5745824 0.2755259 -0.7706754
vn -0.8266842 0.173637 0.5352041
vn -0.07217747 0.1688749 -0.9829912
vn 0.3285016 0.3062461 -0.8934764
vn 0.3285016 0.3062461 -0.8934764
vn -0.2295141 0.4029588 -0.8859726
vn 0.1582589 0.02636 -0.9870458
vn -0.4187409 -0.5568762 -0.7173179
vn -0.5821676 -0.1007939 -0.8067971
vn -0.7289115 -0.6331879 -0.2603094
vn 0.1666473 0.7606381 -0.627422
vn 0.5247498 0.8510838 -0.01714893
vn 0.2240036 0.539537 0.8116171
vn 0.5529935 0.4079698 0.7264701
vn 0.1418963 -0.2859819 0.9476707
vn -0.621931 -0.4238028 0.6584778
vn -0.4022066 -0.7340966 0.5471125
vn -0.3096277 -0.5169717 -0.798042
vn 0.2449215 -0.117654 -0.9623778
vn 0.2449215 -0.117654 -0.9623778
vn -0.5725403 -0.223248 -0.7888967
vn -0.7289115 -0.6331879 -0.2603094
vn -0.621931 -0.4238028 0.6584778
vn -0.4187409 -0.5568762 -0.7173179
vn -0.8021941 -0.3610662 0.4755164
vn -0.3096277 -0.5169717 -0.798042
vn -0.8021941 -0.3610662 0.4755164
vn -0.6218954 -0.425273 0.6575629
vn -0.5725403 -0.223248 -0.7888967
vn 0.2449215 -0.117654 -0.9623778
vn 0.07147193 0.198859 -0.9774184
vn -0.6218954 -0.425273 0.6575629
vn 0.5500993 0.282481 0.7858723
vn 0.3059407 0.5991837 0.7398508
vn 0.3059407 0.5991837 0.7398508
vn 0.5500993 0.282481 0.7858723
vn 0.2449215 -0.117654 -0.9623778
vn -0.621931 -0.4238028 0.6584778
vn 0.3059407 0.5991837 0.7398508
vn -0.8021941 -0.3610662 0.4755164

vt 0.1541748 0.3811035
vt 0.1590576 0.4104004
vt 0.1722412 0.4101563
vt 0.1663818 0.376709
vt 0.1364746 0.3845215
vt 0.1468506 0.4121094
vt 0.126709 0.3862305
vt 0.1921387 0.473877
vt 0.1811523 0.4743652
vt 0.168335 0.4765625
vt 0.1317139 0.4157715
vt 0.1170654 0.3901367
vt 0.1200562 0.4199219
vt 0.1000366 0.3901367
vt 0.1082153 0.4238281
vt 0.09014893 0.3935547
vt 0.09667969 0.4287109
vt 0.0737915 0.3967285
vt 0.1230469 0.4912109
vt 0.1109619 0.4958496
vt 0.07879639 0.4335938
vt 0.0737915 0.3967285
vt 0.09790039 0.4995117
vt 0.06658936 0.4365234
vt 0.06036377 0.4016113
vt 0.0737915 0.3967285
vt 0.08673096 0.5014648
vt 0.1363525 0.4863281
vt 0.1523438 0.4812012
vt 0.07971191 0.3654785
vt 0.09265137 0.3664551
vt 0.1063843 0.3684082
vt 0.1200562 0.361084
vt 0.05514526 0.3876953
vt 0.06793213 0.3845215
vt 0.1364746 0.3662109
vt 0.1503906 0.3605957
vt 0.1633301 0.3591309
vt 0.1005859 0.3500977
vt 0.1080933 0.3491211
vt 0.1171875 0.3447266
vt 0.1099243 0.3425293
vt 0.1017456 0.3344727
vt 0.1046753 0.3322754
vt 0.1017456 0.3344727
vt 0.0958252 0.3178711
vt 0.1339111 0.3461914
vt 0.1220703 0.3371582
vt 0.1396484 0.333252
vt 0.1322021 0.3295898
vt 0.1195679 0.3183594
vt 0.1005859 0.3500977
vt 0.1017456 0.3344727
vt 0.09527588 0.3286133
vt 0.0958252 0.3178711
vt 0.09289551 0.3415527
vt 0.1005859 0.3500977
vt 0.08953857 0.3452148
vt 0.07525635 0.3251953
vt 0.07525635 0.3251953
vt 0.06292725 0.369873
vt 0.07281494 0.3515625
vt 0.06408691 0.3474121
vt 0.04751587 0.3354492
vt 0.05215454 0.3608398
vt 0.05004883 0.3742676
vt 0.06793213 0.3845215
vt 0.07525635 0.3251953
vt 0.163208 0.3413086
vt 0.1427002 0.314209
vt 0.1427002 0.314209
vt 0.1293945 0.354248
vt 0.1226807 0.392334
vt 0.1434326 0.3952637
vt 0.1375732 0.3566895
vt 0.1451416 0.3615723
vt 0.1209106 0.3537598
vt 0.1124878 0.3549805
vt 0.1031494 0.3913574
vt 0.1035767 0.3566895
vt 0.09338379 0.3581543
vt 0.08624268 0.3920898
vt 0.08288574 0.3581543
vt 0.1407471 0.4306641
vt 0.1242676 0.4301758
vt 0.1242676 0.4301758
vt 0.1412354 0.4660645
vt 0.07305908 0.3564453
vt 0.08624268 0.3920898
vt 0.07385254 0.3935547
vt 0.0859375 0.4306641
vt 0.07189941 0.4326172
vt 0.0859375 0.4306641
vt 0.08843994 0.4650879
vt 0.07489014 0.465332
vt 0.1242676 0.4301758
vt 0.1218262 0.4648438
vt 0.08843994 0.4650879
vt 0.1048584 0.465332
vt 0.1066284 0.4301758
vt 0.1066284 0.4301758
vt 0.1048584 0.465332
vt 0.1242676 0.4301758
vt 0.08624268 0.3920898
vt 0.1066284 0.4301758
vt 0.0859375 0.4306641

g Tree2_(2)_1073_334
usemtl Tree2_(2)_1073_334
usemap Tree2_(2)_1073_334
f 1/1/1 3/3/3 2/2/2
f 1/1/1 4/4/4 3/3/3
f 5/5/5 1/1/1 2/2/2
f 5/5/5 2/2/2 6/6/6
f 7/7/7 5/5/5 6/6/6
f 2/2/2 3/3/3 8/8/8
f 2/2/2 8/8/8 9/9/9
f 6/6/6 2/2/2 9/9/9
f 6/6/6 9/9/9 10/10/10
f 11/11/11 6/6/6 10/10/10
f 7/7/7 6/6/6 11/11/11
f 12/12/12 7/7/7 11/11/11
f 12/12/12 11/11/11 13/13/13
f 14/14/14 12/12/12 13/13/13
f 14/14/14 13/13/13 15/15/15
f 16/16/16 14/14/14 15/15/15
f 16/16/16 15/15/15 17/17/17
f 18/18/18 16/16/16 17/17/17
f 17/17/17 15/15/15 19/19/19
f 17/17/17 19/19/19 20/20/20
f 21/21/21 17/17/17 20/20/20
f 22/22/22 17/17/17 21/21/21
f 21/21/21 20/20/20 23/23/23
f 24/24/24 21/21/21 23/23/23
f 25/25/25 21/21/21 24/24/24
f 25/25/25 26/26/26 21/21/21
f 24/24/24 23/23/23 27/27/27
f 15/15/15 28/28/28 19/19/19
f 15/15/15 13/13/13 28/28/28
f 13/13/13 29/29/29 28/28/28
f 30/30/30 14/14/14 16/16/16
f 30/30/30 31/31/31 14/14/14
f 31/31/31 12/12/12 14/14/14
f 31/31/31 32/32/32 12/12/12
f 32/32/32 7/7/7 12/12/12
f 32/32/32 33/33/33 7/7/7
f 34/34/34 22/22/22 25/25/25
f 34/34/34 35/35/35 22/22/22
f 35/35/35 30/30/30 16/16/16
f 35/35/35 16/16/16 18/18/18
f 33/33/33 5/5/5 7/7/7
f 33/33/33 36/36/36 5/5/5
f 36/36/36 1/1/1 5/5/5
f 36/36/36 37/37/37 1/1/1
f 37/37/37 4/4/4 1/1/1
f 37/37/37 38/38/38 4/4/4
f 32/32/32 31/31/31 39/39/39
f 33/33/33 39/39/39 40/40/40
f 41/41/41 33/33/33 40/40/40
f 41/41/41 40/40/40 42/42/42
f 42/42/42 40/40/40 43/43/43
f 42/42/42 43/43/43 44/44/44
f 40/40/40 39/39/39 45/45/45
f 44/44/44 43/43/43 46/46/46
f 37/37/37 36/36/36 47/47/47
f 36/36/36 33/33/33 47/47/47
f 33/33/33 48/48/48 47/47/47
f 33/33/33 41/41/41 48/48/48
f 49/49/49 37/37/37 47/47/47
f 49/49/49 47/47/47 50/50/50
f 47/47/47 48/48/48 51/51/51
f 50/50/50 47/47/47 51/51/51
f 33/33/33 32/32/32 52/52/52
f 39/39/39 54/54/54 53/53/53
f 53/53/53 54/54/54 55/55/55
f 39/39/39 56/56/56 54/54/54
f 31/31/31 56/56/56 57/57/57
f 31/31/31 58/58/58 56/56/56
f 58/58/58 31/31/31 59/59/59
f 31/31/31 30/30/30 60/60/60
f 61/61/61 62/62/62 30/30/30
f 62/62/62 61/61/61 63/63/63
f 61/61/61 30/30/30 35/35/35
f 64/64/64 63/63/63 61/61/61
f 64/64/64 61/61/61 65/65/65
f 61/61/61 66/66/66 65/65/65
f 66/66/66 61/61/61 34/34/34
f 34/34/34 61/61/61 67/67/67
f 30/30/30 62/62/62 68/68/68
f 13/13/13 11/11/11 29/29/29
f 11/11/11 10/10/10 29/29/29
f 69/69/69 38/38/38 70/70/70
f 38/38/38 37/37/37 70/70/70
f 37/37/37 49/49/49 71/71/71
f 72/72/72 74/74/74 73/73/73
f 72/72/72 75/75/75 74/74/74
f 75/75/75 76/76/76 74/74/74
f 77/77/77 72/72/72 73/73/73
f 78/78/78 77/77/77 73/73/73
f 78/78/78 73/73/73 79/79/79
f 80/80/80 78/78/78 79/79/79
f 81/81/81 80/80/80 79/79/79
f 81/81/81 79/79/79 82/82/82
f 83/83/83 81/81/81 82/82/82
f 73/73/73 74/74/74 84/84/84
f 73/73/73 84/84/84 85/85/85
f 79/79/79 73/73/73 86/86/86
f 85/85/85 84/84/84 87/87/87
f 88/88/88 83/83/83 89/89/89
f 88/88/88 89/89/89 90/90/90
f 90/90/90 82/82/82 91/91/91
f 90/90/90 93/93/93 92/92/92
f 92/92/92 91/91/91 94/94/94
f 92/92/92 94/94/94 95/95/95
f 96/96/96 87/87/87 97/97/97
f 93/93/93 99/99/99 98/98/98
f 93/93/93 100/100/100 99/99/99
f 101/101/101 97/97/97 102/102/102
f 101/101/101 103/103/103 97/97/97
f 79/79/79 103/103/103 101/101/101
f 104/104/104 79/79/79 105/105/105
f 104/104/104 105/105/105 106/106/106
