#Tree2_big_(40)_2910_732.obj

v -1.326755 3.630331 -1.746022
v -2.004638 3.440317 -1.65994
v -1.063578 2.998448 -1.940072
v -1.943715 2.751745 -1.828301
v -2.440458 3.37485 -1.104209
v -2.509549 2.666747 -1.106776
v -2.378893 3.472283 -0.4043743
v -2.429621 2.793247 -0.1981482
v -1.856025 3.675538 0.02961026
v -1.750753 3.057143 0.3653148
v -1.178132 3.865554 -0.05647169
v -0.8706189 3.303849 0.2535514
v -0.7423229 3.93102 -0.6122033
v -0.304782 3.388846 -0.4679809
v -0.8038848 3.833587 -1.312035
v -0.3847106 3.262346 -1.376609
v -1.396468 4.004364 -1.257647
v -2.025239 3.828116 -1.1778
v -1.718206 4.083265 -0.9069632
v -1.96814 3.91849 -0.5286689
v -1.339363 4.094739 -0.6085206
v 2.908269 7.935544 -3.116209
v 1.709955 7.757944 -3.923374
v 3.521806 7.110799 -3.384662
v 1.902711 6.870834 -4.475269
v 0.2822835 7.694744 -3.646298
v -0.02628231 6.785442 -4.100896
v -0.5384386 7.782967 -2.447283
v -1.1352 6.904644 -2.480848
v -0.2714474 7.970934 -1.028688
v -0.7744545 7.158614 -0.5641241
v 0.9268668 8.148536 -0.2215168
v 0.8446423 7.398579 0.5264857
v 2.354546 8.211735 -0.4985954
v 2.773636 7.483972 0.1521135
v 3.175268 8.123513 -1.697611
v 3.882559 7.36477 -1.46794
v 3.897192 6.145361 -3.473228
v 2.044111 5.870717 -4.721441
v -0.1636472 5.772985 -4.29296
v -1.432816 5.909414 -2.438799
v -1.019935 6.200086 -0.2450789
v 0.8331409 6.47473 1.003139
v 3.04091 6.572463 0.5746641
v 4.310071 6.436034 -1.279511
v 1.454244 8.441672 -1.26117
v 0.4314164 8.290079 -1.950137
v 1.288188 8.400867 -2.126074
v 1.131951 8.214775 -2.973568
v 2.154768 8.36637 -2.2846
v 1.268581 6.884712 -3.764274
v -0.1103821 6.884712 -3.19309
v 1.268583 6.020607 -4.44906
v -0.5946008 6.020607 -3.677306
v -0.6815679 6.884712 -1.814117
v -1.366354 6.020607 -1.814119
v -0.1103811 6.884712 -0.4351566
v -0.5946031 6.020607 0.04906199
v 1.268583 6.884712 0.1360317
v 1.268584 6.020607 0.8208209
v 2.647555 6.884712 -0.4351547
v 3.131771 6.020607 0.04905912
v 3.218738 6.884712 -1.814119
v 3.903524 6.020607 -1.814123
v 2.647554 6.884712 -3.193088
v 3.131768 6.020607 -3.677304
v 1.268584 5.00506 -5.05825
v -1.025364 5.00506 -4.108068
v -1.975541 5.00506 -1.814117
v -1.025364 5.00506 0.4798254
v 1.268583 5.00506 1.430011
v 3.562537 5.00506 0.4798231
v 4.51272 5.00506 -1.814127
v 3.562526 5.00506 -4.10807
v 2.100866 7.280575 -1.46938
v 0.9238437 7.280575 -0.9818397
v 1.268582 7.357262 -1.814121
v 0.4363009 7.280575 -2.15886
v 1.613323 7.280575 -2.6464

vn -0.5680387 0.4964109 -0.656436
vn -0.9331145 0.324102 -0.1557413
vn -0.5607718 0.2762739 -0.7805176
vn -0.973237 0.08159798 -0.2148293
vn -0.837774 0.2647371 0.4775447
vn -0.8655205 0.01452599 0.5006628
vn -0.3378674 0.3530899 0.8724524
vn -0.3007213 0.114349 0.9468322
vn 0.273769 0.5374057 0.7976502
vn 0.3903093 0.32259 0.8623192
vn 0.6388457 0.7097141 0.296955
vn 0.8027746 0.5172651 0.2966308
vn 0.5435046 0.7690797 -0.3363321
vn 0.6950575 0.5843368 -0.4188622
vn 0.04359701 0.6807265 -0.7312393
vn 0.1302588 0.484515 -0.8650306
vn -0.3693667 0.8906247 -0.2652467
vn -0.6173174 0.7524443 0.2296669
vn -0.2714371 0.9536011 0.130257
vn -0.1273696 0.8544849 0.5036194
vn 0.1205808 0.9926653 0.00870711
vn 0.03581476 0.6742987 -0.7375897
vn -0.502356 0.6064851 -0.6162908
vn 0.09923691 0.4242049 -0.9001123
vn -0.5674444 0.3401981 -0.7498481
vn -0.7995006 0.5823539 -0.1471825
vn -0.9355451 0.310304 -0.1687208
vn -0.6815569 0.6160398 0.394937
vn -0.7894368 0.352034 0.5028536
vn -0.2176127 0.6878113 0.692503
vn -0.2147067 0.4409437 0.8714756
vn 0.3205582 0.7556249 0.5712035
vn 0.451975 0.5249509 0.721211
vn 0.617703 0.7797561 0.1020951
vn 0.8200756 0.554845 0.1400826
vn 0.4997579 0.7460701 -0.4400244
vn 0.6739668 0.513114 -0.5314912
vn 0.1388184 0.2220959 -0.9650922
vn -0.5817878 0.131294 -0.8026736
vn -0.9796621 0.09898195 -0.1745418
vn -0.8217353 0.144088 0.5513527
vn -0.2005191 0.240189 0.9497901
vn 0.5200875 0.3309911 0.7873715
vn 0.9179618 0.363303 0.1592393
vn 0.7600347 0.3181969 -0.5666552
vn 0.06584176 0.9966761 0.04797383
vn -0.2094068 0.9638119 0.164971
vn -0.1322247 0.9906772 -0.03279244
vn -0.3242359 0.9393159 -0.1120568
vn -0.04898731 0.9721802 -0.229054
vn -0.5331327 0.6802621 -0.5030041
vn -0.7326603 0.6802611 0.02130419
vn -0.6567919 0.4296829 -0.619675
vn -0.9025983 0.4296831 0.02624565
vn -0.5030041 0.6802621 0.5331327
vn -0.619675 0.4296829 0.6567919
vn 0.0213035 0.6802614 0.7326599
vn 0.02624565 0.4296831 0.9025983
vn 0.5331327 0.6802621 0.5030041
vn 0.6567919 0.4296829 0.619675
vn 0.7326599 0.6802614 -0.02130491
vn 0.9025983 0.4296831 -0.02624565
vn 0.5030041 0.6802621 -0.5331327
vn 0.619675 0.4296829 -0.6567919
vn -0.02130491 0.6802614 -0.7326599
vn -0.02624646 0.4296827 -0.9025984
vn -0.7080339 0.228989 -0.6680211
vn -0.9730178 0.2289891 0.02829328
vn -0.6680211 0.228989 0.7080339
vn 0.02829328 0.2289891 0.9730178
vn 0.7080339 0.228989 0.6680211
vn 0.9730178 0.2289891 -0.02829328
vn 0.6680211 0.228989 -0.7080339
vn -0.02829409 0.228988 -0.9730181
vn 0.1786915 0.9762389 -0.1225843
vn 0.1225843 0.9762389 0.1786915
vn 0 1 0
vn -0.1786915 0.9762389 0.1225843
vn -0.122585 0.976239 -0.1786908

vt 0.3613281 0.484375
vt 0.3461914 0.479248
vt 0.3603516 0.498291
vt 0.3356934 0.4875488
vt 0.3395996 0.463623
vt 0.3259277 0.4626465
vt 0.3447266 0.4484863
vt 0.3364258 0.4379883
vt 0.3603516 0.4418945
vt 0.3613281 0.4282227
vt 0.3754883 0.4470215
vt 0.3859863 0.4387207
vt 0.3820801 0.4626465
vt 0.395752 0.463623
vt 0.3769531 0.4780273
vt 0.3852539 0.4882813
vt 0.3652344 0.4726563
vt 0.3513184 0.4677734
vt 0.3608398 0.4631348
vt 0.3564453 0.4538574
vt 0.3701172 0.4587402
vt 0.4470215 0.4243164
vt 0.4257813 0.4155273
vt 0.4472656 0.4458008
vt 0.4106445 0.4306641
vt 0.4169922 0.3942871
vt 0.3955078 0.3942871
vt 0.4257813 0.3728027
vt 0.4106445 0.3579102
vt 0.4470215 0.3642578
vt 0.4470215 0.3427734
vt 0.4685059 0.3730469
vt 0.4833984 0.357666
vt 0.4770508 0.3942871
vt 0.4985352 0.394043
vt 0.4682617 0.4155273
vt 0.4833984 0.4306641
vt 0.4470215 0.4689941
vt 0.394043 0.4470215
vt 0.3723145 0.394043
vt 0.394043 0.3413086
vt 0.4470215 0.3193359
vt 0.5 0.3413086
vt 0.5219727 0.3942871
vt 0.5 0.4472656
vt 0.4609375 0.3884277
vt 0.4411621 0.3803711
vt 0.4470215 0.3942871
vt 0.4331055 0.3999023
vt 0.4528809 0.407959
vt 0.4470215 0.4243164
vt 0.4257813 0.4155273
vt 0.4472656 0.4458008
vt 0.4106445 0.4306641
vt 0.4169922 0.3942871
vt 0.3955078 0.3942871
vt 0.4257813 0.3728027
vt 0.4106445 0.3579102
vt 0.4470215 0.3642578
vt 0.4470215 0.3427734
vt 0.4685059 0.3730469
vt 0.4833984 0.357666
vt 0.4770508 0.3942871
vt 0.4985352 0.394043
vt 0.4682617 0.4155273
vt 0.4833984 0.4306641
vt 0.4470215 0.4689941
vt 0.394043 0.4470215
vt 0.3723145 0.394043
vt 0.394043 0.3413086
vt 0.4470215 0.3193359
vt 0.5 0.3413086
vt 0.5219727 0.3942871
vt 0.5 0.4472656
vt 0.4609375 0.3884277
vt 0.4411621 0.3803711
vt 0.4470215 0.3942871
vt 0.4331055 0.3999023
vt 0.4528809 0.407959

g Tree2_big_(40)_2910_732
usemtl Tree2_big_(40)_2910_732
usemap Tree2_big_(40)_2910_732
f 1/1/1 3/3/3 2/2/2
f 2/2/2 3/3/3 4/4/4
f 2/2/2 4/4/4 5/5/5
f 5/5/5 4/4/4 6/6/6
f 5/5/5 6/6/6 7/7/7
f 7/7/7 6/6/6 8/8/8
f 7/7/7 8/8/8 9/9/9
f 9/9/9 8/8/8 10/10/10
f 9/9/9 10/10/10 11/11/11
f 11/11/11 10/10/10 12/12/12
f 11/11/11 12/12/12 13/13/13
f 13/13/13 12/12/12 14/14/14
f 13/13/13 14/14/14 15/15/15
f 15/15/15 14/14/14 16/16/16
f 15/15/15 16/16/16 1/1/1
f 1/1/1 16/16/16 3/3/3
f 15/15/15 1/1/1 17/17/17
f 1/1/1 2/2/2 17/17/17
f 17/17/17 2/2/2 18/18/18
f 2/2/2 5/5/5 18/18/18
f 5/5/5 7/7/7 18/18/18
f 17/17/17 18/18/18 19/19/19
f 18/18/18 20/20/20 19/19/19
f 18/18/18 7/7/7 20/20/20
f 7/7/7 9/9/9 20/20/20
f 9/9/9 11/11/11 20/20/20
f 20/20/20 21/21/21 19/19/19
f 21/21/21 17/17/17 19/19/19
f 20/20/20 11/11/11 21/21/21
f 11/11/11 13/13/13 21/21/21
f 13/13/13 15/15/15 21/21/21
f 21/21/21 15/15/15 17/17/17
f 22/22/22 24/24/24 23/23/23
f 23/23/23 24/24/24 25/25/25
f 23/23/23 25/25/25 26/26/26
f 26/26/26 25/25/25 27/27/27
f 26/26/26 27/27/27 28/28/28
f 28/28/28 27/27/27 29/29/29
f 28/28/28 29/29/29 30/30/30
f 30/30/30 29/29/29 31/31/31
f 30/30/30 31/31/31 32/32/32
f 32/32/32 31/31/31 33/33/33
f 32/32/32 33/33/33 34/34/34
f 34/34/34 33/33/33 35/35/35
f 34/34/34 35/35/35 36/36/36
f 36/36/36 35/35/35 37/37/37
f 36/36/36 37/37/37 22/22/22
f 22/22/22 37/37/37 24/24/24
f 24/24/24 38/38/38 25/25/25
f 25/25/25 38/38/38 39/39/39
f 25/25/25 39/39/39 27/27/27
f 27/27/27 39/39/39 40/40/40
f 27/27/27 40/40/40 29/29/29
f 29/29/29 40/40/40 41/41/41
f 29/29/29 41/41/41 31/31/31
f 31/31/31 41/41/41 42/42/42
f 31/31/31 42/42/42 33/33/33
f 33/33/33 42/42/42 43/43/43
f 33/33/33 43/43/43 35/35/35
f 35/35/35 43/43/43 44/44/44
f 35/35/35 44/44/44 37/37/37
f 37/37/37 44/44/44 45/45/45
f 37/37/37 45/45/45 24/24/24
f 24/24/24 45/45/45 38/38/38
f 32/32/32 34/34/34 46/46/46
f 34/34/34 36/36/36 46/46/46
f 47/47/47 32/32/32 46/46/46
f 47/47/47 46/46/46 48/48/48
f 49/49/49 47/47/47 48/48/48
f 50/50/50 49/49/49 48/48/48
f 46/46/46 50/50/50 48/48/48
f 50/50/50 23/23/23 49/49/49
f 22/22/22 23/23/23 50/50/50
f 36/36/36 22/22/22 50/50/50
f 46/46/46 36/36/36 50/50/50
f 23/23/23 26/26/26 49/49/49
f 26/26/26 28/28/28 49/49/49
f 49/49/49 28/28/28 47/47/47
f 28/28/28 30/30/30 47/47/47
f 30/30/30 32/32/32 47/47/47
f 51/51/51 53/53/53 52/52/52
f 52/52/52 53/53/53 54/54/54
f 52/52/52 54/54/54 55/55/55
f 55/55/55 54/54/54 56/56/56
f 55/55/55 56/56/56 57/57/57
f 57/57/57 56/56/56 58/58/58
f 57/57/57 58/58/58 59/59/59
f 59/59/59 58/58/58 60/60/60
f 59/59/59 60/60/60 61/61/61
f 61/61/61 60/60/60 62/62/62
f 61/61/61 62/62/62 63/63/63
f 63/63/63 62/62/62 64/64/64
f 63/63/63 64/64/64 65/65/65
f 65/65/65 64/64/64 66/66/66
f 65/65/65 66/66/66 51/51/51
f 51/51/51 66/66/66 53/53/53
f 53/53/53 67/67/67 54/54/54
f 54/54/54 67/67/67 68/68/68
f 54/54/54 68/68/68 56/56/56
f 56/56/56 68/68/68 69/69/69
f 56/56/56 69/69/69 58/58/58
f 58/58/58 69/69/69 70/70/70
f 58/58/58 70/70/70 60/60/60
f 60/60/60 70/70/70 71/71/71
f 60/60/60 71/71/71 62/62/62
f 62/62/62 71/71/71 72/72/72
f 62/62/62 72/72/72 64/64/64
f 64/64/64 72/72/72 73/73/73
f 64/64/64 73/73/73 66/66/66
f 66/66/66 73/73/73 74/74/74
f 66/66/66 74/74/74 53/53/53
f 53/53/53 74/74/74 67/67/67
f 61/61/61 63/63/63 75/75/75
f 63/63/63 65/65/65 75/75/75
f 76/76/76 61/61/61 75/75/75
f 76/76/76 75/75/75 77/77/77
f 78/78/78 76/76/76 77/77/77
f 79/79/79 78/78/78 77/77/77
f 75/75/75 79/79/79 77/77/77
f 79/79/79 52/52/52 78/78/78
f 51/51/51 52/52/52 79/79/79
f 65/65/65 51/51/51 79/79/79
f 75/75/75 65/65/65 79/79/79
f 52/52/52 55/55/55 78/78/78
f 55/55/55 57/57/57 78/78/78
f 78/78/78 57/57/57 76/76/76
f 57/57/57 59/59/59 76/76/76
f 59/59/59 61/61/61 76/76/76
