#Tree_conf1_(19)_1452_194.obj

v 0.1094554 1.578246 0.3661348
v 0.03892445 1.930737 0.1420329
v 0.1273193 1.938304 0.07318428
v 0.3483655 1.598699 0.1800521
v 0.140988 1.947921 -0.03793297
v 0.3853087 1.62469 -0.1202715
v 0.07192381 1.953953 -0.1262273
v 0.1986429 1.640992 -0.3589085
v -0.03941846 1.952867 -0.1399769
v -0.1022847 1.638057 -0.3960703
v -0.1278132 1.945299 -0.07112724
v -0.3411968 1.617603 -0.2099875
v -0.141482 1.935683 0.03999002
v -0.3781381 1.591613 0.09033499
v -0.07241572 1.929651 0.1282842
v -0.1914723 1.575311 0.328972
v -0.003585273 2.232561 0.01496879
v -0.562158 0.6246041 0.6367046
v -0.1598653 0.8499572 0.4109192
v 0.04298838 0.6214361 0.8242586
v 0.3784054 0.8471393 0.1273567
v 0.6035101 0.6185019 0.5289744
v 0.7910634 0.61752 -0.07617688
v 0.2650532 0.8477322 -0.358166
v 0.4957803 0.6190663 -0.6367037
v -0.2330175 0.8503399 -0.3806182
v -0.1093641 0.6222342 -0.8242583
v -0.6698879 0.6251685 -0.5289735
v -0.4961772 0.8517178 0.04285187
v -0.8574412 0.6261504 0.07617678
v -0.04382646 1.230687 -3.345063E-07
v -0.3161322 1.416121 -0.4689029
v -0.2401672 1.556894 -0.1451858
v -0.558153 1.37267 -0.1078458
v -0.1586024 1.489291 0.2622043
v -0.4732158 1.302272 0.316386
v -0.1110745 1.246167 0.5552826
v 0.1835747 1.468477 0.2808055
v 0.3161322 1.23722 0.4689029
v 0.2958269 1.512721 -0.04162179
v 0.5581529 1.280672 0.1078448
v 0.4732158 1.351068 -0.316386
v 0.06822204 1.564082 -0.2953311
v 0.1110745 1.407173 -0.5552826
v 0.02009241 1.826264 0.05963299
v 0.3820783 1.057775 0.6121228
v 0.3001455 1.251559 0.2239776
v 0.6914653 1.055051 0.1637034
v 0.205735 1.249136 -0.2905999
v 0.5931512 1.052527 -0.372146
v 0.1447274 1.051683 -0.6815337
v -0.2218244 1.249646 -0.3223173
v -0.3911244 1.053012 -0.5832224
v -0.3682123 1.251888 0.08064874
v -0.7005135 1.055737 -0.1348039
v -0.6021993 1.05826 0.4010465
v -0.08830722 1.253073 0.4054054
v -0.1537756 1.059104 0.7104332
v -0.007257706 1.578955 0.02317931

vn 0.1696654 0.4115616 0.8954504
vn 0.1527383 0.5340776 0.8315243
vn 0.6668249 0.563252 0.4879467
vn 0.7305374 0.4410968 0.5212954
vn 0.7893932 0.6014433 -0.1229821
vn 0.8652565 0.4797609 -0.1454678
vn 0.4375876 0.6261114 -0.6453698
vn 0.4815612 0.5047329 -0.7164803
vn -0.1841183 0.6216265 -0.7613683
vn -0.197615 0.500193 -0.8430634
vn -0.6993095 0.5908971 -0.4022527
vn -0.7598308 0.4690856 -0.4501289
vn -0.8062816 0.5530605 0.2098434
vn -0.8757221 0.4307802 0.2180354
vn -0.453336 0.5299492 0.7166874
vn -0.4906469 0.407383 0.7702631
vn -0.02529726 0.9962851 0.08232225
vn -0.459446 0.6754407 0.5767927
vn -0.09961833 0.8853253 0.4541764
vn 0.09850098 0.6235925 0.7755195
vn 0.4115246 0.8844004 0.2201912
vn 0.6245177 0.5780545 0.5251964
vn 0.8260735 0.5632926 -0.01744608
vn 0.3432768 0.8687783 -0.356912
vn 0.5954908 0.5866376 -0.5488602
vn -0.2024962 0.8619231 -0.4648491
vn 0.05447059 0.6363673 -0.7694612
vn -0.4931555 0.684996 -0.5362636
vn -0.4915244 0.870737 0.01488691
vn -0.7117286 0.7018853 0.02828155
vn 0.120604 0.992672 0.007614216
vn -0.4219638 0.5518388 -0.7193198
vn -0.4409073 0.8873519 -0.1349377
vn -0.8070102 0.5518373 -0.2102627
vn -0.343617 0.79363 0.5020752
vn -0.7193196 0.5518388 0.421964
vn -0.2102624 0.5518389 0.8070094
vn 0.3136953 0.7350744 0.6010504
vn 0.4219638 0.5518388 0.7193198
vn 0.6085205 0.792303 0.04426395
vn 0.8070102 0.5518373 0.2102627
vn 0.7193196 0.5518388 -0.421964
vn 0.183648 0.8842499 -0.4293906
vn 0.2102624 0.5518389 -0.8070094
vn 0 1 0
vn 0.4131778 0.6754407 0.61079
vn 0.4036684 0.8853253 0.2307632
vn 0.7695265 0.6235925 0.1377012
vn 0.3330857 0.8844004 -0.3269413
vn 0.6877959 0.5780545 -0.439079
vn 0.2301581 0.5632926 -0.7935549
vn -0.2380484 0.8687783 -0.4342328
vn -0.3458749 0.5866377 -0.7322755
vn -0.504117 0.8619231 0.05436333
vn -0.7180412 0.6363672 -0.2818757
vn -0.6591103 0.684996 0.3104104
vn -0.1326466 0.8707369 0.4735219
vn -0.1856545 0.7018854 0.6876701
vn 0.04329948 0.992672 -0.1128205

vt 0.3461914 0.0803833
vt 0.3190918 0.06854248
vt 0.3068848 0.08081055
vt 0.3181152 0.1083374
vt 0.2895508 0.08081055
vt 0.2785645 0.1083374
vt 0.2770996 0.06854248
vt 0.2504883 0.08032227
vt 0.2770996 0.05114746
vt 0.2504883 0.04064941
vt 0.2895508 0.03884888
vt 0.2785645 0.01256561
vt 0.3068848 0.03887939
vt 0.3183594 0.01262665
vt 0.3190918 0.0512085
vt 0.3464355 0.04077148
vt 0.2978516 0.05935669
vt 0.2459717 0.0847168
vt 0.213623 0.08380127
vt 0.2144775 0.1161499
vt 0.1708984 0.08374023
vt 0.1700439 0.1160889
vt 0.1385498 0.08459473
vt 0.1621094 0.04983521
vt 0.1385498 0.0401001
vt 0.1923828 0.03216553
vt 0.1700439 0.008682251
vt 0.2145996 0.008712769
vt 0.2225342 0.04989624
vt 0.2460938 0.04019165
vt 0.1922607 0.06237793
vt 0.2459717 0.0847168
vt 0.213623 0.08380127
vt 0.2144775 0.1161499
vt 0.1708984 0.08374023
vt 0.1700439 0.1160889
vt 0.1385498 0.08459473
vt 0.1621094 0.04983521
vt 0.1385498 0.0401001
vt 0.1923828 0.03216553
vt 0.1700439 0.008682251
vt 0.2145996 0.008712769
vt 0.2225342 0.04989624
vt 0.2460938 0.04019165
vt 0.1922607 0.06237793
vt 0.2459717 0.0847168
vt 0.213623 0.08380127
vt 0.2144775 0.1161499
vt 0.1708984 0.08374023
vt 0.1700439 0.1160889
vt 0.1385498 0.08459473
vt 0.1621094 0.04983521
vt 0.1385498 0.0401001
vt 0.1923828 0.03216553
vt 0.1700439 0.008682251
vt 0.2145996 0.008712769
vt 0.2225342 0.04989624
vt 0.2460938 0.04019165
vt 0.1922607 0.06237793

g Tree_conf1_(19)_1452_194
usemtl Tree_conf1_(19)_1452_194
usemap Tree_conf1_(19)_1452_194
f 1/1/1 3/3/3 2/2/2
f 1/1/1 4/4/4 3/3/3
f 4/4/4 5/5/5 3/3/3
f 4/4/4 6/6/6 5/5/5
f 6/6/6 7/7/7 5/5/5
f 6/6/6 8/8/8 7/7/7
f 8/8/8 9/9/9 7/7/7
f 8/8/8 10/10/10 9/9/9
f 10/10/10 11/11/11 9/9/9
f 10/10/10 12/12/12 11/11/11
f 12/12/12 13/13/13 11/11/11
f 12/12/12 14/14/14 13/13/13
f 14/14/14 15/15/15 13/13/13
f 14/14/14 16/16/16 15/15/15
f 16/16/16 2/2/2 15/15/15
f 16/16/16 1/1/1 2/2/2
f 2/2/2 3/3/3 17/17/17
f 3/3/3 5/5/5 17/17/17
f 5/5/5 7/7/7 17/17/17
f 7/7/7 9/9/9 17/17/17
f 9/9/9 11/11/11 17/17/17
f 11/11/11 13/13/13 17/17/17
f 13/13/13 15/15/15 17/17/17
f 15/15/15 2/2/2 17/17/17
f 18/18/18 20/20/20 19/19/19
f 20/20/20 21/21/21 19/19/19
f 20/20/20 22/22/22 21/21/21
f 22/22/22 23/23/23 21/21/21
f 23/23/23 24/24/24 21/21/21
f 23/23/23 25/25/25 24/24/24
f 25/25/25 26/26/26 24/24/24
f 25/25/25 27/27/27 26/26/26
f 27/27/27 28/28/28 26/26/26
f 28/28/28 29/29/29 26/26/26
f 28/28/28 30/30/30 29/29/29
f 30/30/30 19/19/19 29/29/29
f 30/30/30 18/18/18 19/19/19
f 19/19/19 21/21/21 31/31/31
f 21/21/21 24/24/24 31/31/31
f 24/24/24 26/26/26 31/31/31
f 26/26/26 29/29/29 31/31/31
f 29/29/29 19/19/19 31/31/31
f 32/32/32 34/34/34 33/33/33
f 34/34/34 35/35/35 33/33/33
f 34/34/34 36/36/36 35/35/35
f 36/36/36 37/37/37 35/35/35
f 37/37/37 38/38/38 35/35/35
f 37/37/37 39/39/39 38/38/38
f 39/39/39 40/40/40 38/38/38
f 39/39/39 41/41/41 40/40/40
f 41/41/41 42/42/42 40/40/40
f 42/42/42 43/43/43 40/40/40
f 42/42/42 44/44/44 43/43/43
f 44/44/44 33/33/33 43/43/43
f 44/44/44 32/32/32 33/33/33
f 33/33/33 35/35/35 45/45/45
f 35/35/35 38/38/38 45/45/45
f 38/38/38 40/40/40 45/45/45
f 40/40/40 43/43/43 45/45/45
f 43/43/43 33/33/33 45/45/45
f 46/46/46 48/48/48 47/47/47
f 48/48/48 49/49/49 47/47/47
f 48/48/48 50/50/50 49/49/49
f 50/50/50 51/51/51 49/49/49
f 51/51/51 52/52/52 49/49/49
f 51/51/51 53/53/53 52/52/52
f 53/53/53 54/54/54 52/52/52
f 53/53/53 55/55/55 54/54/54
f 55/55/55 56/56/56 54/54/54
f 56/56/56 57/57/57 54/54/54
f 56/56/56 58/58/58 57/57/57
f 58/58/58 47/47/47 57/57/57
f 58/58/58 46/46/46 47/47/47
f 47/47/47 49/49/49 59/59/59
f 49/49/49 52/52/52 59/59/59
f 52/52/52 54/54/54 59/59/59
f 54/54/54 57/57/57 59/59/59
f 57/57/57 47/47/47 59/59/59
