#Tree_conf1_(12)_1319_217.obj

v 0.1324657 -0.04437639 0.02973874
v 0.05209716 0.3509289 0.01169795
v 0.03219941 0.3509289 -0.04954846
v 0.08186895 -0.04437639 -0.1259832
v -0.03219834 0.3509289 -0.04955019
v -0.08186725 -0.04437639 -0.1259818
v -0.0520982 0.3509289 0.01169477
v -0.1324657 -0.04437639 0.02973886
v -5.362492E-07 0.3509289 0.04954933
v 1.521828E-07 -0.04437639 0.1259827
v 0.05209716 0.3509289 0.01169795
v 0.1324657 -0.04437639 0.02973874
v -0.01651543 2.018247 -0.02541538
v 0.01651654 2.018247 -0.02541382
v 0.02672453 2.018247 0.005998453
v 0.02672453 2.018247 0.005998453
v 6.582589E-08 2.018247 0.0254168
v -0.02672326 2.018247 0.005999541

vn 0.9722844 0.203269 0.1155199
vn 0.9880204 0.08719238 0.1273314
vn 0.4252712 0.09713163 -0.899839
vn 0.4109679 0.2244589 -0.883586
vn -0.7261866 0.0971317 -0.680602
vn -0.7069108 0.2244591 -0.6707427
vn -0.8720994 0.08719232 0.4814978
vn -0.8618054 0.2032691 0.4647293
vn 0.1864226 0.08113933 0.9791138
vn 0.1836381 0.1898378 0.9644892
vn 0.9880204 0.08719238 0.1273314
vn 0.9722844 0.203269 0.1155199
vn -0.7288502 0.01723529 -0.6844567
vn 0.4263315 0.01723532 -0.9044031
vn 0.9918833 0.01552718 0.1261995
vn 0.9918833 0.01552718 0.1261995
vn 0.1870198 0.01447244 0.98225
vn -0.8761079 0.01552706 0.4818652

vt 0.4238281 0.003742218
vt 0.4238281 0.02593994
vt 0.4316406 0.02593994
vt 0.4316406 0.003742218
vt 0.4394531 0.02593994
vt 0.4394531 0.003740311
vt 0.4472656 0.02593994
vt 0.4472656 0.003740311
vt 0.4550781 0.02593994
vt 0.4550781 0.003740311
vt 0.4628906 0.02593994
vt 0.4628906 0.003738403
vt 0.4394531 0.1196289
vt 0.4318848 0.1196289
vt 0.4240723 0.1196289
vt 0.4628906 0.1195679
vt 0.4550781 0.1196289
vt 0.4472656 0.1196289

g Tree_conf1_(12)_1319_217
usemtl Tree_conf1_(12)_1319_217
usemap Tree_conf1_(12)_1319_217
f 1/1/1 3/3/3 2/2/2
f 1/1/1 4/4/4 3/3/3
f 4/4/4 5/5/5 3/3/3
f 4/4/4 6/6/6 5/5/5
f 6/6/6 7/7/7 5/5/5
f 6/6/6 8/8/8 7/7/7
f 8/8/8 9/9/9 7/7/7
f 8/8/8 10/10/10 9/9/9
f 10/10/10 11/11/11 9/9/9
f 10/10/10 12/12/12 11/11/11
f 3/3/3 5/5/5 13/13/13
f 3/3/3 13/13/13 14/14/14
f 2/2/2 3/3/3 14/14/14
f 2/2/2 14/14/14 15/15/15
f 9/9/9 11/11/11 16/16/16
f 9/9/9 16/16/16 17/17/17
f 7/7/7 9/9/9 17/17/17
f 7/7/7 17/17/17 18/18/18
f 5/5/5 18/18/18 13/13/13
f 5/5/5 7/7/7 18/18/18
