#Tree2_1088_284.obj

v -0.947684 2.593094 -1.247158
v -1.431888 2.457369 -1.185669
v -0.7597027 2.141749 -1.385763
v -1.38837 1.965532 -1.305929
v -1.743185 2.410607 -0.7887204
v -1.792537 1.904819 -0.7905527
v -1.699211 2.480202 -0.2888382
v -1.735445 1.995176 -0.1415335
v -1.325736 2.625384 0.02115537
v -1.250543 2.183674 0.2609417
v -0.8415273 2.76111 -0.04033429
v -0.6218713 2.359892 0.1811074
v -0.5302329 2.807871 -0.4372862
v -0.2177048 2.420604 -0.3342703
v -0.5742028 2.738276 -0.9371691
v -0.2747961 2.330247 -0.983288
v -0.9974794 2.86026 -0.8983182
v -1.446603 2.734369 -0.841283
v -1.227294 2.916618 -0.6478285
v -1.405815 2.798922 -0.3776194
v -0.9566905 2.924814 -0.4346539
v 2.077333 5.668246 -2.22586
v 1.221397 5.541389 -2.802409
v 2.515575 5.079143 -2.417615
v 1.359081 4.907739 -3.196619
v 0.2016317 5.496245 -2.604497
v -0.01877372 4.846745 -2.929209
v -0.3846019 5.559262 -1.748054
v -0.8108592 4.931889 -1.77203
v -0.193892 5.693524 -0.7347773
v -0.5531861 5.113296 -0.4029407
v 0.6620477 5.820383 -0.1582237
v 0.6033164 5.284699 0.3760613
v 1.681813 5.865525 -0.3561362
v 1.981169 5.345695 0.1086549
v 2.268047 5.802509 -1.212578
v 2.773253 5.26055 -1.048525
v 2.783705 4.389544 -2.480873
v 1.46008 4.193369 -3.372457
v -0.1168891 4.123561 -3.0664
v -1.023444 4.22101 -1.741995
v -0.7285299 4.428633 -0.1750527
v 0.5951 4.624807 0.7165312
v 2.172075 4.694616 0.4104755
v 3.078622 4.597167 -0.9139339
v 1.038743 6.029766 -0.9008337
v 0.3081498 5.921485 -1.392952
v 0.9201342 6.000619 -1.518622
v 0.808534 5.867697 -2.123972
v 1.539121 5.975979 -1.631857
v 0.9061294 4.917651 -2.688766
v -0.07884441 4.917651 -2.280776
v 0.9061296 4.300433 -3.177898
v -0.4247167 4.300433 -2.626643
v -0.4868342 4.917651 -1.295799
v -0.975966 4.300433 -1.2958
v -0.07884463 4.917651 -0.310823
v -0.4247169 4.300433 0.0350458
v 0.9061302 4.917651 0.09716795
v 0.9061311 4.300433 0.5863013
v 1.891109 4.917651 -0.3108212
v 2.236976 4.300433 0.0350453
v 2.299098 4.917651 -1.295799
v 2.78823 4.300433 -1.295799
v 1.891109 4.917651 -2.280775
v 2.236976 4.300433 -2.626644
v 0.9061292 3.575043 -3.613034
v -0.7324048 3.575043 -2.934332
v -1.411104 3.575043 -1.295797
v -0.7324055 3.575043 0.3427326
v 0.9061315 3.575043 1.021438
v 2.544668 3.575043 0.3427327
v 3.223368 3.575043 -1.2958
v 2.54466 3.575043 -2.934331
v 1.500618 5.200411 -1.049556
v 0.6598865 5.200411 -0.7013128
v 0.9061304 5.255187 -1.295798
v 0.3116447 5.200411 -1.542044
v 1.152374 5.200411 -1.890283

vn 0.581152 0.4964109 -0.6448555
vn 0.03915405 0.324102 -0.9452116
vn 0.7051798 0.2762739 -0.6529887
vn 0.0928269 0.08159798 -0.9923332
vn -0.5774809 0.2647371 -0.7722889
vn -0.6038528 0.01452599 -0.7969635
vn -0.9075375 0.3530899 -0.2273839
vn -0.9767526 0.114349 -0.1813248
vn -0.7576725 0.5374057 0.3703074
vn -0.8074335 0.32259 0.4939505
vn -0.215674 0.7097141 0.6706644
vn -0.1950803 0.5172651 0.833295
vn 0.400962 0.7690797 0.4977409
vn 0.5016 0.5843369 0.6379247
vn 0.7310178 0.6807264 -0.04716486
vn 0.8744991 0.484515 0.02228659
vn 0.2175338 0.8906247 -0.3993328
vn -0.3042434 0.7524443 -0.5841777
vn -0.162824 0.9536011 -0.2532457
vn -0.5155047 0.8544849 -0.06411284
vn 0.006271109 0.9926653 0.120732
vn 0.7363572 0.6742987 -0.05567271
vn 0.5494375 0.6064851 -0.5747125
vn 0.9054752 0.424205 -0.01283544
vn 0.6739206 0.3401981 -0.6558174
vn 0.04718405 0.5823539 -0.8115649
vn 0.05173346 0.310304 -0.9492288
vn -0.476189 0.6160398 -0.6274863
vn -0.5966181 0.352034 -0.7211928
vn -0.7140982 0.6878113 -0.1303053
vn -0.8913376 0.4409437 -0.1052893
vn -0.5271779 0.7556249 0.3887345
vn -0.6597825 0.5249509 0.537693
vn -0.0249244 0.7797561 0.625587
vn -0.03759423 0.554845 0.831104
vn 0.4984485 0.7460701 0.4415072
vn 0.6107564 0.513114 0.6030678
vn 0.9748511 0.2220959 0.0184066
vn 0.7245669 0.131294 -0.6765833
vn 0.05205399 0.09898195 -0.9937268
vn -0.648739 0.144088 -0.7472459
vn -0.9672966 0.2401891 -0.08152601
vn -0.7170123 0.3309911 0.6134642
vn -0.04449901 0.363303 0.9306077
vn 0.6562939 0.3181969 0.6841265
vn -0.03946341 0.9966761 0.07126897
vn -0.1896006 0.9638119 -0.1873987
vn 0.01618942 0.9906772 -0.135265
vn 0.0711007 0.9393159 -0.3356045
vn 0.2212379 0.9721802 -0.07693683
vn 0.4332143 0.6802621 -0.5912436
vn -0.1117437 0.6802611 -0.7244021
vn 0.5336976 0.4296829 -0.7283815
vn -0.1376623 0.4296831 -0.8924246
vn -0.5912436 0.6802621 -0.4332143
vn -0.7283815 0.4296829 -0.5336976
vn -0.7244018 0.6802614 0.1117429
vn -0.8924246 0.4296831 0.1376623
vn -0.4332143 0.6802621 0.5912436
vn -0.5336976 0.4296829 0.7283815
vn 0.1117443 0.6802614 0.7244016
vn 0.1376623 0.4296831 0.8924246
vn 0.5912436 0.6802621 0.4332143
vn 0.7283815 0.4296829 0.5336976
vn 0.7244016 0.6802614 -0.1117443
vn 0.8924246 0.4296827 -0.1376631
vn 0.5753359 0.228989 -0.7852087
vn -0.1484025 0.2289891 -0.9620503
vn -0.7852087 0.228989 -0.5753359
vn -0.9620503 0.2289891 0.1484025
vn -0.5753359 0.228989 0.7852087
vn 0.1484025 0.2289891 0.9620503
vn 0.7852087 0.228989 0.5753359
vn 0.9620505 0.228988 -0.1484033
vn 0.1437409 0.9762389 0.1621608
vn -0.1621608 0.9762389 0.1437409
vn 0 1 0
vn -0.1437409 0.9762389 -0.1621608
vn 0.1621599 0.976239 -0.1437415

vt 0.3613281 0.484375
vt 0.3461914 0.479248
vt 0.3603516 0.498291
vt 0.3356934 0.4875488
vt 0.3395996 0.463623
vt 0.3259277 0.4626465
vt 0.3447266 0.4484863
vt 0.3364258 0.4379883
vt 0.3603516 0.4418945
vt 0.3613281 0.4282227
vt 0.3754883 0.4470215
vt 0.3859863 0.4387207
vt 0.3820801 0.4626465
vt 0.395752 0.463623
vt 0.3769531 0.4780273
vt 0.3852539 0.4882813
vt 0.3652344 0.4726563
vt 0.3513184 0.4677734
vt 0.3608398 0.4631348
vt 0.3564453 0.4538574
vt 0.3701172 0.4587402
vt 0.4470215 0.4243164
vt 0.4257813 0.4155273
vt 0.4472656 0.4458008
vt 0.4106445 0.4306641
vt 0.4169922 0.3942871
vt 0.3955078 0.3942871
vt 0.4257813 0.3728027
vt 0.4106445 0.3579102
vt 0.4470215 0.3642578
vt 0.4470215 0.3427734
vt 0.4685059 0.3730469
vt 0.4833984 0.357666
vt 0.4770508 0.3942871
vt 0.4985352 0.394043
vt 0.4682617 0.4155273
vt 0.4833984 0.4306641
vt 0.4470215 0.4689941
vt 0.394043 0.4470215
vt 0.3723145 0.394043
vt 0.394043 0.3413086
vt 0.4470215 0.3193359
vt 0.5 0.3413086
vt 0.5219727 0.3942871
vt 0.5 0.4472656
vt 0.4609375 0.3884277
vt 0.4411621 0.3803711
vt 0.4470215 0.3942871
vt 0.4331055 0.3999023
vt 0.4528809 0.407959
vt 0.4470215 0.4243164
vt 0.4257813 0.4155273
vt 0.4472656 0.4458008
vt 0.4106445 0.4306641
vt 0.4169922 0.3942871
vt 0.3955078 0.3942871
vt 0.4257813 0.3728027
vt 0.4106445 0.3579102
vt 0.4470215 0.3642578
vt 0.4470215 0.3427734
vt 0.4685059 0.3730469
vt 0.4833984 0.357666
vt 0.4770508 0.3942871
vt 0.4985352 0.394043
vt 0.4682617 0.4155273
vt 0.4833984 0.4306641
vt 0.4470215 0.4689941
vt 0.394043 0.4470215
vt 0.3723145 0.394043
vt 0.394043 0.3413086
vt 0.4470215 0.3193359
vt 0.5 0.3413086
vt 0.5219727 0.3942871
vt 0.5 0.4472656
vt 0.4609375 0.3884277
vt 0.4411621 0.3803711
vt 0.4470215 0.3942871
vt 0.4331055 0.3999023
vt 0.4528809 0.407959

g Tree2_1088_284
usemtl Tree2_1088_284
usemap Tree2_1088_284
f 1/1/1 3/3/3 2/2/2
f 2/2/2 3/3/3 4/4/4
f 2/2/2 4/4/4 5/5/5
f 5/5/5 4/4/4 6/6/6
f 5/5/5 6/6/6 7/7/7
f 7/7/7 6/6/6 8/8/8
f 7/7/7 8/8/8 9/9/9
f 9/9/9 8/8/8 10/10/10
f 9/9/9 10/10/10 11/11/11
f 11/11/11 10/10/10 12/12/12
f 11/11/11 12/12/12 13/13/13
f 13/13/13 12/12/12 14/14/14
f 13/13/13 14/14/14 15/15/15
f 15/15/15 14/14/14 16/16/16
f 15/15/15 16/16/16 1/1/1
f 1/1/1 16/16/16 3/3/3
f 15/15/15 1/1/1 17/17/17
f 1/1/1 2/2/2 17/17/17
f 17/17/17 2/2/2 18/18/18
f 2/2/2 5/5/5 18/18/18
f 5/5/5 7/7/7 18/18/18
f 17/17/17 18/18/18 19/19/19
f 18/18/18 20/20/20 19/19/19
f 18/18/18 7/7/7 20/20/20
f 7/7/7 9/9/9 20/20/20
f 9/9/9 11/11/11 20/20/20
f 20/20/20 21/21/21 19/19/19
f 21/21/21 17/17/17 19/19/19
f 20/20/20 11/11/11 21/21/21
f 11/11/11 13/13/13 21/21/21
f 13/13/13 15/15/15 21/21/21
f 21/21/21 15/15/15 17/17/17
f 22/22/22 24/24/24 23/23/23
f 23/23/23 24/24/24 25/25/25
f 23/23/23 25/25/25 26/26/26
f 26/26/26 25/25/25 27/27/27
f 26/26/26 27/27/27 28/28/28
f 28/28/28 27/27/27 29/29/29
f 28/28/28 29/29/29 30/30/30
f 30/30/30 29/29/29 31/31/31
f 30/30/30 31/31/31 32/32/32
f 32/32/32 31/31/31 33/33/33
f 32/32/32 33/33/33 34/34/34
f 34/34/34 33/33/33 35/35/35
f 34/34/34 35/35/35 36/36/36
f 36/36/36 35/35/35 37/37/37
f 36/36/36 37/37/37 22/22/22
f 22/22/22 37/37/37 24/24/24
f 24/24/24 38/38/38 25/25/25
f 25/25/25 38/38/38 39/39/39
f 25/25/25 39/39/39 27/27/27
f 27/27/27 39/39/39 40/40/40
f 27/27/27 40/40/40 29/29/29
f 29/29/29 40/40/40 41/41/41
f 29/29/29 41/41/41 31/31/31
f 31/31/31 41/41/41 42/42/42
f 31/31/31 42/42/42 33/33/33
f 33/33/33 42/42/42 43/43/43
f 33/33/33 43/43/43 35/35/35
f 35/35/35 43/43/43 44/44/44
f 35/35/35 44/44/44 37/37/37
f 37/37/37 44/44/44 45/45/45
f 37/37/37 45/45/45 24/24/24
f 24/24/24 45/45/45 38/38/38
f 32/32/32 34/34/34 46/46/46
f 34/34/34 36/36/36 46/46/46
f 47/47/47 32/32/32 46/46/46
f 47/47/47 46/46/46 48/48/48
f 49/49/49 47/47/47 48/48/48
f 50/50/50 49/49/49 48/48/48
f 46/46/46 50/50/50 48/48/48
f 50/50/50 23/23/23 49/49/49
f 22/22/22 23/23/23 50/50/50
f 36/36/36 22/22/22 50/50/50
f 46/46/46 36/36/36 50/50/50
f 23/23/23 26/26/26 49/49/49
f 26/26/26 28/28/28 49/49/49
f 49/49/49 28/28/28 47/47/47
f 28/28/28 30/30/30 47/47/47
f 30/30/30 32/32/32 47/47/47
f 51/51/51 53/53/53 52/52/52
f 52/52/52 53/53/53 54/54/54
f 52/52/52 54/54/54 55/55/55
f 55/55/55 54/54/54 56/56/56
f 55/55/55 56/56/56 57/57/57
f 57/57/57 56/56/56 58/58/58
f 57/57/57 58/58/58 59/59/59
f 59/59/59 58/58/58 60/60/60
f 59/59/59 60/60/60 61/61/61
f 61/61/61 60/60/60 62/62/62
f 61/61/61 62/62/62 63/63/63
f 63/63/63 62/62/62 64/64/64
f 63/63/63 64/64/64 65/65/65
f 65/65/65 64/64/64 66/66/66
f 65/65/65 66/66/66 51/51/51
f 51/51/51 66/66/66 53/53/53
f 53/53/53 67/67/67 54/54/54
f 54/54/54 67/67/67 68/68/68
f 54/54/54 68/68/68 56/56/56
f 56/56/56 68/68/68 69/69/69
f 56/56/56 69/69/69 58/58/58
f 58/58/58 69/69/69 70/70/70
f 58/58/58 70/70/70 60/60/60
f 60/60/60 70/70/70 71/71/71
f 60/60/60 71/71/71 62/62/62
f 62/62/62 71/71/71 72/72/72
f 62/62/62 72/72/72 64/64/64
f 64/64/64 72/72/72 73/73/73
f 64/64/64 73/73/73 66/66/66
f 66/66/66 73/73/73 74/74/74
f 66/66/66 74/74/74 53/53/53
f 53/53/53 74/74/74 67/67/67
f 61/61/61 63/63/63 75/75/75
f 63/63/63 65/65/65 75/75/75
f 76/76/76 61/61/61 75/75/75
f 76/76/76 75/75/75 77/77/77
f 78/78/78 76/76/76 77/77/77
f 79/79/79 78/78/78 77/77/77
f 75/75/75 79/79/79 77/77/77
f 79/79/79 52/52/52 78/78/78
f 51/51/51 52/52/52 79/79/79
f 65/65/65 51/51/51 79/79/79
f 75/75/75 65/65/65 79/79/79
f 52/52/52 55/55/55 78/78/78
f 55/55/55 57/57/57 78/78/78
f 78/78/78 57/57/57 76/76/76
f 57/57/57 59/59/59 76/76/76
f 59/59/59 61/61/61 76/76/76
