#Tree_conf1_(7)_1808_185.obj

v 0.1094567 1.578246 0.3661361
v 0.03892506 1.930737 0.1420334
v 0.1273201 1.938304 0.07318456
v 0.3483664 1.598699 0.1800525
v 0.1409893 1.947921 -0.03793167
v 0.3853087 1.62469 -0.1202713
v 0.07192387 1.953952 -0.1262262
v 0.1986423 1.640992 -0.3589098
v -0.0394171 1.952867 -0.1399762
v -0.1022861 1.638057 -0.3960718
v -0.1278126 1.945299 -0.07112703
v -0.3411967 1.617604 -0.2099877
v -0.1414818 1.935683 0.03998921
v -0.3781381 1.591613 0.09033555
v -0.07241634 1.929651 0.1282838
v -0.1914717 1.575311 0.3289741
v -0.003585741 2.232562 0.01496814
v -0.5621572 0.6246044 0.6367063
v -0.1598649 0.849957 0.4109192
v 0.0429884 0.6214363 0.8242594
v 0.3784067 0.8471389 0.1273567
v 0.6035116 0.6185017 0.5289752
v 0.7910626 0.61752 -0.07617861
v 0.2650527 0.8477323 -0.3581658
v 0.4957813 0.6190658 -0.6367033
v -0.2330168 0.8503399 -0.3806169
v -0.109366 0.622234 -0.8242602
v -0.6698875 0.6251684 -0.5289723
v -0.4961777 0.8517178 0.04285214
v -0.8574402 0.6261503 0.07617786
v -0.04382544 1.230687 1.116834E-06
v -0.3161338 1.416121 -0.4689026
v -0.2401684 1.556894 -0.1451868
v -0.5581531 1.372669 -0.1078443
v -0.158601 1.489291 0.2622053
v -0.4732163 1.302272 0.3163856
v -0.1110746 1.246167 0.5552821
v 0.1835738 1.468478 0.2808059
v 0.3161329 1.23722 0.4689032
v 0.2958275 1.512721 -0.04162281
v 0.5581531 1.280672 0.1078443
v 0.4732158 1.351069 -0.3163853
v 0.06822181 1.564082 -0.2953303
v 0.1110746 1.407174 -0.5552821
v 0.02009071 1.826264 0.05963119
v 0.3820776 1.057775 0.6121219
v 0.3001454 1.251559 0.2239764
v 0.6914659 1.055051 0.1637052
v 0.2057349 1.249136 -0.2906006
v 0.593151 1.052527 -0.3721467
v 0.144727 1.051683 -0.6815335
v -0.2218244 1.249646 -0.3223158
v -0.3911251 1.053012 -0.5832223
v -0.3682136 1.251888 0.08064783
v -0.7005117 1.055737 -0.1348019
v -0.602199 1.05826 0.4010464
v -0.08830781 1.253073 0.4054058
v -0.1537753 1.059104 0.7104335
v -0.007255819 1.578954 0.02318092

vn 0.8724973 0.4115615 0.2633762
vn 0.8079847 0.5340775 0.2488435
vn 0.7408867 0.5632519 -0.3658342
vn 0.7999053 0.4410968 -0.4069223
vn 0.25576 0.6014432 -0.7568707
vn 0.2708802 0.4797609 -0.834538
vn -0.3700817 0.6261114 -0.6863128
vn -0.41282 0.5047328 -0.7581725
vn -0.7602726 0.6216264 -0.1885929
vn -0.8389574 0.5001929 -0.2143797
vn -0.6799061 0.5908971 0.4342453
vn -0.7503328 0.4690856 0.4657895
vn -0.1865364 0.5530605 0.8119906
vn -0.2113638 0.4307802 0.8773564
vn 0.4260481 0.5299491 0.733238
vn 0.4563157 0.4073829 0.7910856
vn 0.06131221 0.996285 0.06047913
vn 0.2991655 0.6754407 0.6740036
vn 0.3567249 0.8853252 0.2982408
vn 0.7332537 0.6235924 0.2710584
vn 0.3854531 0.8844003 -0.263178
vn 0.7543674 0.5780544 -0.311101
vn 0.3663014 0.5632925 -0.7406249
vn -0.1578633 0.8687782 -0.4693661
vn -0.2115215 0.5866376 -0.7817391
vn -0.5058128 0.861923 -0.03525798
vn -0.6571848 0.6363672 -0.4039137
vn -0.7034723 0.6849959 0.1894943
vn -0.2139579 0.8707369 0.442764
vn -0.3038476 0.7018852 0.6442314
vn 0.06248982 0.9926718 -0.1034327
vn -0.8329052 0.5518387 0.0417614
vn -0.3234296 0.8873518 0.3286347
vn -0.5594234 0.5518372 0.6184832
vn 0.2864369 0.7936299 0.5367554
vn 0.04176199 0.5518387 0.8329049
vn 0.6184829 0.5518389 0.5594229
vn 0.6779871 0.7350743 -0.0004074574
vn 0.8329052 0.5518387 -0.0417614
vn 0.320483 0.792303 -0.5191793
vn 0.5594234 0.5518372 -0.6184832
vn -0.04176199 0.5518387 -0.8329049
vn -0.2959103 0.8842498 -0.3613034
vn -0.6184829 0.5518389 -0.5594229
vn 0 1 0
vn 0.7326004 0.6754406 -0.08412746
vn 0.3911976 0.8853251 -0.2513252
vn 0.4777527 0.6235924 -0.6187772
vn -0.1359951 0.8844003 -0.4464775
vn -0.07150841 0.5780544 -0.8128594
vn -0.5973566 0.5632924 -0.5708484
vn -0.4950927 0.8687782 0.01041916
vn -0.8092296 0.5866376 -0.03170177
vn -0.1847698 0.861923 0.4721752
vn -0.5818126 0.6363671 0.5064893
vn -0.02933785 0.6849959 0.7279564
vn 0.3586164 0.8707368 0.3364709
vn 0.5240253 0.7018853 0.4824476
vn -0.08003828 0.9926718 -0.09053838

vt 0.3461914 0.0803833
vt 0.3190918 0.06854248
vt 0.3068848 0.08081055
vt 0.3181152 0.1083374
vt 0.2895508 0.08081055
vt 0.2785645 0.1083374
vt 0.2770996 0.06854248
vt 0.2504883 0.08032227
vt 0.2770996 0.05114746
vt 0.2504883 0.04064941
vt 0.2895508 0.03884888
vt 0.2785645 0.01256561
vt 0.3068848 0.03887939
vt 0.3183594 0.01262665
vt 0.3190918 0.0512085
vt 0.3464355 0.04077148
vt 0.2978516 0.05935669
vt 0.2459717 0.0847168
vt 0.213623 0.08380127
vt 0.2144775 0.1161499
vt 0.1708984 0.08374023
vt 0.1700439 0.1160889
vt 0.1385498 0.08459473
vt 0.1621094 0.04983521
vt 0.1385498 0.0401001
vt 0.1923828 0.03216553
vt 0.1700439 0.008682251
vt 0.2145996 0.008712769
vt 0.2225342 0.04989624
vt 0.2460938 0.04019165
vt 0.1922607 0.06237793
vt 0.2459717 0.0847168
vt 0.213623 0.08380127
vt 0.2144775 0.1161499
vt 0.1708984 0.08374023
vt 0.1700439 0.1160889
vt 0.1385498 0.08459473
vt 0.1621094 0.04983521
vt 0.1385498 0.0401001
vt 0.1923828 0.03216553
vt 0.1700439 0.008682251
vt 0.2145996 0.008712769
vt 0.2225342 0.04989624
vt 0.2460938 0.04019165
vt 0.1922607 0.06237793
vt 0.2459717 0.0847168
vt 0.213623 0.08380127
vt 0.2144775 0.1161499
vt 0.1708984 0.08374023
vt 0.1700439 0.1160889
vt 0.1385498 0.08459473
vt 0.1621094 0.04983521
vt 0.1385498 0.0401001
vt 0.1923828 0.03216553
vt 0.1700439 0.008682251
vt 0.2145996 0.008712769
vt 0.2225342 0.04989624
vt 0.2460938 0.04019165
vt 0.1922607 0.06237793

g Tree_conf1_(7)_1808_185
usemtl Tree_conf1_(7)_1808_185
usemap Tree_conf1_(7)_1808_185
f 1/1/1 3/3/3 2/2/2
f 1/1/1 4/4/4 3/3/3
f 4/4/4 5/5/5 3/3/3
f 4/4/4 6/6/6 5/5/5
f 6/6/6 7/7/7 5/5/5
f 6/6/6 8/8/8 7/7/7
f 8/8/8 9/9/9 7/7/7
f 8/8/8 10/10/10 9/9/9
f 10/10/10 11/11/11 9/9/9
f 10/10/10 12/12/12 11/11/11
f 12/12/12 13/13/13 11/11/11
f 12/12/12 14/14/14 13/13/13
f 14/14/14 15/15/15 13/13/13
f 14/14/14 16/16/16 15/15/15
f 16/16/16 2/2/2 15/15/15
f 16/16/16 1/1/1 2/2/2
f 2/2/2 3/3/3 17/17/17
f 3/3/3 5/5/5 17/17/17
f 5/5/5 7/7/7 17/17/17
f 7/7/7 9/9/9 17/17/17
f 9/9/9 11/11/11 17/17/17
f 11/11/11 13/13/13 17/17/17
f 13/13/13 15/15/15 17/17/17
f 15/15/15 2/2/2 17/17/17
f 18/18/18 20/20/20 19/19/19
f 20/20/20 21/21/21 19/19/19
f 20/20/20 22/22/22 21/21/21
f 22/22/22 23/23/23 21/21/21
f 23/23/23 24/24/24 21/21/21
f 23/23/23 25/25/25 24/24/24
f 25/25/25 26/26/26 24/24/24
f 25/25/25 27/27/27 26/26/26
f 27/27/27 28/28/28 26/26/26
f 28/28/28 29/29/29 26/26/26
f 28/28/28 30/30/30 29/29/29
f 30/30/30 19/19/19 29/29/29
f 30/30/30 18/18/18 19/19/19
f 19/19/19 21/21/21 31/31/31
f 21/21/21 24/24/24 31/31/31
f 24/24/24 26/26/26 31/31/31
f 26/26/26 29/29/29 31/31/31
f 29/29/29 19/19/19 31/31/31
f 32/32/32 34/34/34 33/33/33
f 34/34/34 35/35/35 33/33/33
f 34/34/34 36/36/36 35/35/35
f 36/36/36 37/37/37 35/35/35
f 37/37/37 38/38/38 35/35/35
f 37/37/37 39/39/39 38/38/38
f 39/39/39 40/40/40 38/38/38
f 39/39/39 41/41/41 40/40/40
f 41/41/41 42/42/42 40/40/40
f 42/42/42 43/43/43 40/40/40
f 42/42/42 44/44/44 43/43/43
f 44/44/44 33/33/33 43/43/43
f 44/44/44 32/32/32 33/33/33
f 33/33/33 35/35/35 45/45/45
f 35/35/35 38/38/38 45/45/45
f 38/38/38 40/40/40 45/45/45
f 40/40/40 43/43/43 45/45/45
f 43/43/43 33/33/33 45/45/45
f 46/46/46 48/48/48 47/47/47
f 48/48/48 49/49/49 47/47/47
f 48/48/48 50/50/50 49/49/49
f 50/50/50 51/51/51 49/49/49
f 51/51/51 52/52/52 49/49/49
f 51/51/51 53/53/53 52/52/52
f 53/53/53 54/54/54 52/52/52
f 53/53/53 55/55/55 54/54/54
f 55/55/55 56/56/56 54/54/54
f 56/56/56 57/57/57 54/54/54
f 56/56/56 58/58/58 57/57/57
f 58/58/58 47/47/47 57/57/57
f 58/58/58 46/46/46 47/47/47
f 47/47/47 49/49/49 59/59/59
f 49/49/49 52/52/52 59/59/59
f 52/52/52 54/54/54 59/59/59
f 54/54/54 57/57/57 59/59/59
f 57/57/57 47/47/47 59/59/59
