#Tree_conf2_1353_168.obj

v 0.1189085 -0.1466557 -0.450405
v 0.05755667 1.159755 -0.1771416
v -0.1506863 1.159755 -0.1094798
v -0.4105737 -0.1466557 -0.2783654
v -0.1506854 1.159755 0.1094786
v -0.4105728 -0.1466557 0.2783636
v 0.05755743 1.159755 0.1771413
v 0.1189084 -0.1466557 0.4504039
v 0.1862579 1.159755 8.731012E-07
v 0.4461457 -0.1466557 4.853893E-07
v 0.05755667 1.159755 -0.1771416
v 0.1189085 -0.1466557 -0.450405
v -0.06863101 6.66993 0.05615705
v -0.0686319 6.66993 -0.0561563
v 0.03818731 6.66993 -0.09086607
v 0.03818731 6.66993 -0.09086607
v 0.1042031 6.66993 8.991617E-07
v 0.03818625 6.66993 0.09086491

vn -0.1718073 0.2202612 -0.9601912
vn -0.1656597 0.1013408 -0.9809623
vn -0.9838619 0.1071745 -0.1432805
vn -0.962291 0.2375189 -0.1325922
vn -0.4385689 0.09285838 0.8938874
vn -0.4336609 0.2236404 0.8728822
vn 0.715222 0.07821421 0.6945071
vn 0.6959801 0.1974784 0.6903722
vn 0.882504 0.08354381 -0.4628253
vn 0.8692222 0.1950949 -0.4543026
vn -0.1656597 0.1013408 -0.9809623
vn -0.1718073 0.2202612 -0.9601912
vn -0.4420933 0.01054818 0.8969072
vn -0.9892832 0.02491407 -0.1438688
vn -0.1683678 0.02758879 -0.9853382
vn -0.1683678 0.02758879 -0.9853382
vn 0.8851103 0.01488877 -0.4651432
vn 0.7164525 0.004358781 0.6976222

vt 0.4238281 0.003742218
vt 0.4238281 0.02593994
vt 0.4316406 0.02593994
vt 0.4316406 0.003742218
vt 0.4394531 0.02593994
vt 0.4394531 0.003740311
vt 0.4472656 0.02593994
vt 0.4472656 0.003740311
vt 0.4550781 0.02593994
vt 0.4550781 0.003740311
vt 0.4628906 0.02593994
vt 0.4628906 0.003738403
vt 0.4394531 0.1196289
vt 0.4318848 0.1196289
vt 0.4240723 0.1196289
vt 0.4628906 0.1195679
vt 0.4550781 0.1196289
vt 0.4472656 0.1196289

g Tree_conf2_1353_168
usemtl Tree_conf2_1353_168
usemap Tree_conf2_1353_168
f 1/1/1 3/3/3 2/2/2
f 1/1/1 4/4/4 3/3/3
f 4/4/4 5/5/5 3/3/3
f 4/4/4 6/6/6 5/5/5
f 6/6/6 7/7/7 5/5/5
f 6/6/6 8/8/8 7/7/7
f 8/8/8 9/9/9 7/7/7
f 8/8/8 10/10/10 9/9/9
f 10/10/10 11/11/11 9/9/9
f 10/10/10 12/12/12 11/11/11
f 3/3/3 5/5/5 13/13/13
f 3/3/3 13/13/13 14/14/14
f 2/2/2 3/3/3 14/14/14
f 2/2/2 14/14/14 15/15/15
f 9/9/9 11/11/11 16/16/16
f 9/9/9 16/16/16 17/17/17
f 7/7/7 9/9/9 17/17/17
f 7/7/7 17/17/17 18/18/18
f 5/5/5 18/18/18 13/13/13
f 5/5/5 7/7/7 18/18/18
