#Tree1_1358_156.obj

v -0.4416065 6.484625 -1.577854
v -1.397589 6.484625 -1.181874
v -0.4416055 5.622716 -2.052587
v -1.733276 5.622716 -1.51756
v -1.793569 6.484625 -0.225891
v -2.268301 5.622716 -0.2258919
v -1.397586 6.484625 0.7300879
v -1.733279 5.622716 1.065778
v -0.4416085 6.484625 1.12607
v -0.4416076 5.622716 1.600807
v 0.5143772 6.484625 0.7300889
v 0.8500617 5.622716 1.065778
v 0.910358 6.484625 -0.2258924
v 1.38509 5.622716 -0.2258932
v 0.5143749 6.484625 -1.181873
v 0.8500643 5.622716 -1.517562
v -0.4416075 4.609753 -2.152972
v -1.804262 4.609753 -1.588544
v -2.368684 4.609753 -0.2258918
v -1.804262 4.609753 1.136759
v -0.4416075 4.609753 1.701189
v 0.9210457 4.609753 1.13676
v 1.485477 4.609753 -0.2258918
v 0.921042 4.609753 -1.588544
v 0.1353805 6.879482 0.01310412
v -0.6806016 6.879482 0.3510954
v -0.4416075 6.955975 -0.2258916
v -1.018591 6.879482 -0.4648876
v -0.2026125 6.879482 -0.8028771
v -0.496307 5.42801 1.78126
v -1.262318 5.284224 2.032506
v -0.4443539 5.091809 1.142741
v -1.557362 4.882892 1.507797
v -1.602621 5.008309 2.724354
v -2.05182 4.481992 2.513034
v -1.317865 4.761891 3.451519
v -1.638069 4.12395 3.569593
v -0.5748537 4.689319 3.788048
v -0.5584879 4.018503 4.058561
v 0.1911636 4.833102 3.536796
v 0.5545214 4.22742 3.693506
v 0.5314659 5.109017 2.844955
v 1.048976 4.628322 2.688265
v 0.246708 5.355435 2.117786
v 0.6352266 4.986362 1.631707
v -0.3995076 4.544276 0.8063715
v -1.60422 4.318147 1.201502
v -2.139411 3.884214 2.289566
v -1.691574 3.496673 3.43318
v -0.5230436 3.382539 3.962437
v 0.6816727 3.608668 3.567298
v 1.216862 4.0426 2.479237
v 0.7690246 4.43014 1.335623
v -0.1039891 5.263332 3.078568
v -0.7578299 5.140604 3.29302
v -0.5590961 5.405268 2.911319
v -1.000882 5.350937 2.672342
v -0.3470498 5.473663 2.457891
v 3.467296 4.289501 -0.06889124
v 2.692066 4.465175 -0.7313507
v 3.661677 3.344652 -0.2631513
v 2.614223 3.582012 -1.158229
v 1.693771 4.720965 -0.6381459
v 1.265387 3.927623 -1.032294
v 1.05721 4.907035 0.156126
v 0.4052988 4.179029 0.04087864
v 1.155264 4.914389 1.186188
v 0.5377818 4.188965 1.432645
v 1.930499 4.738715 1.848649
v 1.585239 3.951605 2.327727
v 2.92879 4.482923 1.755444
v 2.934073 3.605994 2.201791
v 3.565355 4.296852 0.9611723
v 3.794165 3.354586 1.128617
v 3.498887 2.339955 -0.2790726
v 2.393873 2.590358 -1.223339
v 0.9709142 2.954962 -1.090485
v 0.06355761 3.220185 0.04166286
v 0.2033236 3.230666 1.509915
v 1.308343 2.980261 2.454183
v 2.731302 2.615658 2.321331
v 3.638654 2.350435 1.189175
v 2.467376 4.988973 1.168393
v 1.80567 5.13892 0.6029485
v 2.426969 5.058652 0.544375
v 2.349014 4.980098 -0.07500514
v 3.010714 4.830153 0.4904364

vn 0.4008419 0.5420592 -0.7385781
vn -0.2388157 0.5420586 -0.805692
vn 0.4528741 0.3140009 -0.834451
vn -0.2698156 0.3140011 -0.9102762
vn -0.7385781 0.5420592 -0.4008419
vn -0.834451 0.3140009 -0.4528741
vn -0.805692 0.542059 0.238815
vn -0.9102762 0.3140011 0.2698156
vn -0.4008419 0.5420592 0.7385781
vn -0.4528741 0.3140009 0.834451
vn 0.2388163 0.542059 0.8056915
vn 0.2698156 0.3140011 0.9102762
vn 0.7385781 0.5420592 0.4008419
vn 0.834451 0.3140009 0.4528741
vn 0.8056915 0.542059 -0.2388163
vn 0.9102762 0.3140009 -0.2698164
vn 0.4707491 0.1613551 -0.8673869
vn -0.2804653 0.161355 -0.9462049
vn -0.8673869 0.1613551 -0.4707491
vn -0.9462049 0.161355 0.2804653
vn -0.4707491 0.1613551 0.8673869
vn 0.2804653 0.161355 0.9462049
vn 0.8673869 0.1613551 0.4707491
vn 0.9462048 0.1613549 -0.2804659
vn 0.2278198 0.9538103 0.1958166
vn -0.1958175 0.9538102 0.2278193
vn 0 1 0
vn -0.2278206 0.95381 -0.1958171
vn 0.1958166 0.9538103 -0.2278198
vn 0.2841597 0.7981869 -0.5311788
vn -0.3387529 0.6852556 -0.6447256
vn 0.3864853 0.6220729 -0.6809217
vn -0.3172858 0.4944831 -0.8092072
vn -0.8328583 0.468548 -0.2946352
vn -0.8755298 0.249645 -0.4136725
vn -0.9087166 0.275008 0.3140137
vn -0.9612352 0.030982 0.2739838
vn -0.5218906 0.2180079 0.8246834
vn -0.5241968 -0.03341699 0.8509413
vn 0.1010229 0.3309391 0.9382291
vn 0.1795742 0.09417298 0.9792265
vn 0.5951275 0.547647 0.5881378
vn 0.7378188 0.339011 0.583691
vn 0.6709855 0.7411867 -0.02051106
vn 0.8235233 0.557674 -0.1039657
vn 0.43793 0.491927 -0.7524794
vn -0.2936183 0.3593008 -0.885828
vn -0.8738964 0.1047991 -0.4746813
vn -0.9629846 -0.122495 0.2401163
vn -0.5086958 -0.189435 0.839847
vn 0.2228531 -0.056809 0.9731954
vn 0.8031311 0.1976929 0.562048
vn 0.8922188 0.424986 -0.1527495
vn 0.0007445961 0.885857 0.4639578
vn -0.404654 0.7939746 0.4537175
vn -0.2192854 0.9373471 0.2707293
vn -0.4199306 0.9059739 0.05356939
vn -0.01453317 0.9978563 0.06380986
vn 0.9423543 0.3310159 0.04895699
vn 0.7152555 0.4402091 -0.5427943
vn 0.9959928 0.08483202 0.02831578
vn 0.7394149 0.2082001 -0.6402487
vn 0.1422536 0.5992017 -0.7878587
vn 0.09203377 0.3878301 -0.9171246
vn -0.4409935 0.714857 -0.5426825
vn -0.5669239 0.5184991 -0.6401219
vn -0.6928293 0.719427 0.04911551
vn -0.8514495 0.523662 0.02849478
vn -0.4657294 0.610234 0.6408671
vn -0.5948717 0.4002951 0.6970592
vn 0.1072727 0.4512419 0.8859308
vn 0.05251104 0.2206639 0.9739354
vn 0.6905196 0.335586 0.6407534
vn 0.7114682 0.08999498 0.6969318
vn 0.9973185 -0.07173201 0.01450366
vn 0.7306135 0.05650397 -0.6804494
vn 0.05768025 0.243225 -0.9682534
vn -0.6272863 0.379052 -0.6803172
vn -0.9230422 0.384418 0.01469025
vn -0.6563371 0.2561819 0.7096425
vn 0.0165976 0.06946103 0.9974466
vn 0.701563 -0.06636602 0.7095104
vn 0.1517048 0.9129925 0.3787222
vn -0.06483356 0.9976278 0.02313726
vn 0.2301648 0.9689379 0.0904621
vn 0.287362 0.9353735 -0.2061541
vn 0.5039002 0.850738 0.1494306

vt 0.4470215 0.4243164
vt 0.4257813 0.4155273
vt 0.4472656 0.4458008
vt 0.4106445 0.4306641
vt 0.4169922 0.3942871
vt 0.3955078 0.3942871
vt 0.4257813 0.3728027
vt 0.4106445 0.3579102
vt 0.4470215 0.3642578
vt 0.4470215 0.3427734
vt 0.4685059 0.3730469
vt 0.4833984 0.357666
vt 0.4770508 0.3942871
vt 0.4985352 0.394043
vt 0.4682617 0.4155273
vt 0.4833984 0.4306641
vt 0.4470215 0.4689941
vt 0.394043 0.4470215
vt 0.3723145 0.394043
vt 0.394043 0.3413086
vt 0.4470215 0.3193359
vt 0.5 0.3413086
vt 0.5219727 0.3942871
vt 0.5 0.4472656
vt 0.4609375 0.3884277
vt 0.4411621 0.3803711
vt 0.4470215 0.3942871
vt 0.4331055 0.3999023
vt 0.4528809 0.407959
vt 0.3144531 0.4064941
vt 0.2939453 0.3986816
vt 0.3151855 0.4223633
vt 0.2832031 0.4101563
vt 0.2856445 0.3781738
vt 0.2697754 0.3789063
vt 0.293457 0.357666
vt 0.2817383 0.3469238
vt 0.3139648 0.3493652
vt 0.3132324 0.333252
vt 0.3344727 0.3571777
vt 0.3452148 0.345459
vt 0.3427734 0.3776855
vt 0.3586426 0.3769531
vt 0.3349609 0.3981934
vt 0.3464355 0.4089355
vt 0.3132324 0.4384766
vt 0.2705078 0.420166
vt 0.253418 0.3769531
vt 0.2717285 0.3342285
vt 0.3151855 0.3171387
vt 0.357666 0.3354492
vt 0.375 0.3786621
vt 0.3564453 0.4213867
vt 0.3261719 0.3720703
vt 0.3083496 0.3659668
vt 0.314209 0.3779297
vt 0.3022461 0.3837891
vt 0.3200684 0.3898926
vt 0.4470215 0.4243164
vt 0.4257813 0.4155273
vt 0.4472656 0.4458008
vt 0.4106445 0.4306641
vt 0.4169922 0.3942871
vt 0.3955078 0.3942871
vt 0.4257813 0.3728027
vt 0.4106445 0.3579102
vt 0.4470215 0.3642578
vt 0.4470215 0.3427734
vt 0.4685059 0.3730469
vt 0.4833984 0.357666
vt 0.4770508 0.3942871
vt 0.4985352 0.394043
vt 0.4682617 0.4155273
vt 0.4833984 0.4306641
vt 0.4470215 0.4689941
vt 0.394043 0.4470215
vt 0.3723145 0.394043
vt 0.394043 0.3413086
vt 0.4470215 0.3193359
vt 0.5 0.3413086
vt 0.5219727 0.3942871
vt 0.5 0.4472656
vt 0.4609375 0.3884277
vt 0.4411621 0.3803711
vt 0.4470215 0.3942871
vt 0.4331055 0.3999023
vt 0.4528809 0.407959

g Tree1_1358_156
usemtl Tree1_1358_156
usemap Tree1_1358_156
f 1/1/1 3/3/3 2/2/2
f 2/2/2 3/3/3 4/4/4
f 2/2/2 4/4/4 5/5/5
f 5/5/5 4/4/4 6/6/6
f 5/5/5 6/6/6 7/7/7
f 7/7/7 6/6/6 8/8/8
f 7/7/7 8/8/8 9/9/9
f 9/9/9 8/8/8 10/10/10
f 9/9/9 10/10/10 11/11/11
f 11/11/11 10/10/10 12/12/12
f 11/11/11 12/12/12 13/13/13
f 13/13/13 12/12/12 14/14/14
f 13/13/13 14/14/14 15/15/15
f 15/15/15 14/14/14 16/16/16
f 15/15/15 16/16/16 1/1/1
f 1/1/1 16/16/16 3/3/3
f 3/3/3 17/17/17 4/4/4
f 4/4/4 17/17/17 18/18/18
f 4/4/4 18/18/18 6/6/6
f 6/6/6 18/18/18 19/19/19
f 6/6/6 19/19/19 8/8/8
f 8/8/8 19/19/19 20/20/20
f 8/8/8 20/20/20 10/10/10
f 10/10/10 20/20/20 21/21/21
f 10/10/10 21/21/21 12/12/12
f 12/12/12 21/21/21 22/22/22
f 12/12/12 22/22/22 14/14/14
f 14/14/14 22/22/22 23/23/23
f 14/14/14 23/23/23 16/16/16
f 16/16/16 23/23/23 24/24/24
f 16/16/16 24/24/24 3/3/3
f 3/3/3 24/24/24 17/17/17
f 11/11/11 13/13/13 25/25/25
f 13/13/13 15/15/15 25/25/25
f 26/26/26 11/11/11 25/25/25
f 26/26/26 25/25/25 27/27/27
f 28/28/28 26/26/26 27/27/27
f 29/29/29 28/28/28 27/27/27
f 25/25/25 29/29/29 27/27/27
f 29/29/29 2/2/2 28/28/28
f 1/1/1 2/2/2 29/29/29
f 15/15/15 1/1/1 29/29/29
f 25/25/25 15/15/15 29/29/29
f 2/2/2 5/5/5 28/28/28
f 5/5/5 7/7/7 28/28/28
f 28/28/28 7/7/7 26/26/26
f 7/7/7 9/9/9 26/26/26
f 9/9/9 11/11/11 26/26/26
f 30/30/30 32/32/32 31/31/31
f 31/31/31 32/32/32 33/33/33
f 31/31/31 33/33/33 34/34/34
f 34/34/34 33/33/33 35/35/35
f 34/34/34 35/35/35 36/36/36
f 36/36/36 35/35/35 37/37/37
f 36/36/36 37/37/37 38/38/38
f 38/38/38 37/37/37 39/39/39
f 38/38/38 39/39/39 40/40/40
f 40/40/40 39/39/39 41/41/41
f 40/40/40 41/41/41 42/42/42
f 42/42/42 41/41/41 43/43/43
f 42/42/42 43/43/43 44/44/44
f 44/44/44 43/43/43 45/45/45
f 44/44/44 45/45/45 30/30/30
f 30/30/30 45/45/45 32/32/32
f 32/32/32 46/46/46 33/33/33
f 33/33/33 46/46/46 47/47/47
f 33/33/33 47/47/47 35/35/35
f 35/35/35 47/47/47 48/48/48
f 35/35/35 48/48/48 37/37/37
f 37/37/37 48/48/48 49/49/49
f 37/37/37 49/49/49 39/39/39
f 39/39/39 49/49/49 50/50/50
f 39/39/39 50/50/50 41/41/41
f 41/41/41 50/50/50 51/51/51
f 41/41/41 51/51/51 43/43/43
f 43/43/43 51/51/51 52/52/52
f 43/43/43 52/52/52 45/45/45
f 45/45/45 52/52/52 53/53/53
f 45/45/45 53/53/53 32/32/32
f 32/32/32 53/53/53 46/46/46
f 40/40/40 42/42/42 54/54/54
f 42/42/42 44/44/44 54/54/54
f 55/55/55 40/40/40 54/54/54
f 55/55/55 54/54/54 56/56/56
f 57/57/57 55/55/55 56/56/56
f 58/58/58 57/57/57 56/56/56
f 54/54/54 58/58/58 56/56/56
f 58/58/58 31/31/31 57/57/57
f 30/30/30 31/31/31 58/58/58
f 44/44/44 30/30/30 58/58/58
f 54/54/54 44/44/44 58/58/58
f 31/31/31 34/34/34 57/57/57
f 34/34/34 36/36/36 57/57/57
f 57/57/57 36/36/36 55/55/55
f 36/36/36 38/38/38 55/55/55
f 38/38/38 40/40/40 55/55/55
f 59/59/59 61/61/61 60/60/60
f 60/60/60 61/61/61 62/62/62
f 60/60/60 62/62/62 63/63/63
f 63/63/63 62/62/62 64/64/64
f 63/63/63 64/64/64 65/65/65
f 65/65/65 64/64/64 66/66/66
f 65/65/65 66/66/66 67/67/67
f 67/67/67 66/66/66 68/68/68
f 67/67/67 68/68/68 69/69/69
f 69/69/69 68/68/68 70/70/70
f 69/69/69 70/70/70 71/71/71
f 71/71/71 70/70/70 72/72/72
f 71/71/71 72/72/72 73/73/73
f 73/73/73 72/72/72 74/74/74
f 73/73/73 74/74/74 59/59/59
f 59/59/59 74/74/74 61/61/61
f 61/61/61 75/75/75 62/62/62
f 62/62/62 75/75/75 76/76/76
f 62/62/62 76/76/76 64/64/64
f 64/64/64 76/76/76 77/77/77
f 64/64/64 77/77/77 66/66/66
f 66/66/66 77/77/77 78/78/78
f 66/66/66 78/78/78 68/68/68
f 68/68/68 78/78/78 79/79/79
f 68/68/68 79/79/79 70/70/70
f 70/70/70 79/79/79 80/80/80
f 70/70/70 80/80/80 72/72/72
f 72/72/72 80/80/80 81/81/81
f 72/72/72 81/81/81 74/74/74
f 74/74/74 81/81/81 82/82/82
f 74/74/74 82/82/82 61/61/61
f 61/61/61 82/82/82 75/75/75
f 69/69/69 71/71/71 83/83/83
f 71/71/71 73/73/73 83/83/83
f 84/84/84 69/69/69 83/83/83
f 84/84/84 83/83/83 85/85/85
f 86/86/86 84/84/84 85/85/85
f 87/87/87 86/86/86 85/85/85
f 83/83/83 87/87/87 85/85/85
f 87/87/87 60/60/60 86/86/86
f 59/59/59 60/60/60 87/87/87
f 73/73/73 59/59/59 87/87/87
f 83/83/83 73/73/73 87/87/87
f 60/60/60 63/63/63 86/86/86
f 63/63/63 65/65/65 86/86/86
f 86/86/86 65/65/65 84/84/84
f 65/65/65 67/67/67 84/84/84
f 67/67/67 69/69/69 84/84/84
