#Tree_conf1_(11)_1843_158.obj

v 0.1324647 -0.04437639 0.0297414
v 0.05209754 0.3509289 0.01169734
v 0.03219697 0.3509289 -0.0495468
v 0.08186905 -0.04437639 -0.125983
v -0.03219794 0.3509289 -0.0495492
v -0.08186796 -0.04437639 -0.1259821
v -0.05209687 0.3509289 0.01169561
v -0.1324664 -0.04437639 0.02974135
v -9.409624E-07 0.3509289 0.04954946
v -1.793089E-07 -0.04437639 0.1259829
v 0.05209754 0.3509289 0.01169734
v 0.1324647 -0.04437639 0.0297414
v -0.0165162 2.018247 -0.02541534
v 0.01651699 2.018247 -0.02541736
v 0.02672225 2.018247 0.006000844
v 0.02672225 2.018247 0.006000844
v -7.589773E-07 2.018247 0.025416
v -0.02672459 2.018247 0.006000959

vn 0.4403731 0.203269 0.8745017
vn 0.4392104 0.08719235 0.894143
vn 0.9850755 0.0971316 -0.1420986
vn 0.9636275 0.2244588 -0.1450537
vn 0.1666634 0.09713166 -0.9812181
vn 0.1690825 0.224459 -0.9597028
vn -0.8828918 0.08719229 -0.4614105
vn -0.8632271 0.203269 -0.462083
vn -0.7135247 0.0811393 0.6959162
vn -0.702867 0.1898378 0.6855216
vn 0.4392104 0.08719235 0.894143
vn 0.4403731 0.203269 0.8745017
vn 0.1684073 0.01723529 -0.985567
vn 0.9894664 0.01723531 -0.1437338
vn 0.4422866 0.01552718 0.8967394
vn 0.4422866 0.01552718 0.8967394
vn -0.7158101 0.01447243 0.6981453
vn -0.8854107 0.01552705 -0.4645501

vt 0.4238281 0.003742218
vt 0.4238281 0.02593994
vt 0.4316406 0.02593994
vt 0.4316406 0.003742218
vt 0.4394531 0.02593994
vt 0.4394531 0.003740311
vt 0.4472656 0.02593994
vt 0.4472656 0.003740311
vt 0.4550781 0.02593994
vt 0.4550781 0.003740311
vt 0.4628906 0.02593994
vt 0.4628906 0.003738403
vt 0.4394531 0.1196289
vt 0.4318848 0.1196289
vt 0.4240723 0.1196289
vt 0.4628906 0.1195679
vt 0.4550781 0.1196289
vt 0.4472656 0.1196289

g Tree_conf1_(11)_1843_158
usemtl Tree_conf1_(11)_1843_158
usemap Tree_conf1_(11)_1843_158
f 1/1/1 3/3/3 2/2/2
f 1/1/1 4/4/4 3/3/3
f 4/4/4 5/5/5 3/3/3
f 4/4/4 6/6/6 5/5/5
f 6/6/6 7/7/7 5/5/5
f 6/6/6 8/8/8 7/7/7
f 8/8/8 9/9/9 7/7/7
f 8/8/8 10/10/10 9/9/9
f 10/10/10 11/11/11 9/9/9
f 10/10/10 12/12/12 11/11/11
f 3/3/3 5/5/5 13/13/13
f 3/3/3 13/13/13 14/14/14
f 2/2/2 3/3/3 14/14/14
f 2/2/2 14/14/14 15/15/15
f 9/9/9 11/11/11 16/16/16
f 9/9/9 16/16/16 17/17/17
f 7/7/7 9/9/9 17/17/17
f 7/7/7 17/17/17 18/18/18
f 5/5/5 18/18/18 13/13/13
f 5/5/5 7/7/7 18/18/18
