#Tree4_(17)_3128_519.obj

v -2.491712 6.129237 -0.4659443
v -3.228826 5.983608 -0.3656052
v -2.327987 5.560323 -0.9431496
v -3.285009 5.371249 -0.8128766
v -3.653043 5.739669 0.213305
v -3.835793 5.054531 -0.06125071
v -3.515868 5.540316 0.9316701
v -3.6577 4.795703 0.8714334
v -2.897661 5.502325 1.368683
v -2.855046 4.746378 1.438823
v -2.160555 5.647953 1.268343
v -1.898024 4.935453 1.308551
v -1.73633 5.891891 0.6894333
v -1.347236 5.252171 0.5569248
v -1.873505 6.091246 -0.0289328
v -1.525333 5.511 -0.3757594
v -2.46737 6.30267 0.172112
v -3.15107 6.167593 0.2651811
v -2.765712 6.271781 0.5914756
v -3.023834 5.982682 0.9315016
v -2.340127 6.117759 0.8384309
v 2.217853 7.354592 -2.494817
v 0.875558 7.329135 -2.837819
v 2.611904 6.5694 -2.995751
v 0.7982515 6.534998 -3.459197
v -0.316275 7.316662 -2.131085
v -0.8120822 6.518145 -2.504297
v -0.6594725 7.324482 -0.7886119
v -1.275789 6.528714 -0.6904181
v 0.04699817 7.348016 0.403201
v -0.3212405 6.560512 0.9198964
v 1.389313 7.37348 0.7462069
v 1.492416 6.594911 1.383343
v 2.581138 7.38595 0.03947319
v 3.102754 6.611767 0.4284437
v 2.924339 7.37813 -1.303002
v 3.566461 6.601199 -1.385437
v 2.839005 5.645878 -3.269423
v 0.7632519 5.606506 -3.799846
v -1.079797 5.587218 -2.706947
v -1.610514 5.599314 -0.6309397
v -0.518011 5.635708 1.212089
v 1.557739 5.675082 1.742514
v 3.400792 5.69437 0.6496152
v 3.931503 5.682274 -1.426398
v 1.552916 7.72575 -0.3300913
v 0.4071846 7.704019 -0.6228655
v 1.125376 7.781335 -1.050118
v 0.7001254 7.697345 -1.768741
v 1.845853 7.719076 -1.47597
v 0.4598767 6.511011 -2.618052
v -0.5894083 6.526672 -1.660243
v 0.1699535 5.761833 -3.293452
v -1.247789 5.782992 -1.999313
v -0.6596588 6.420261 -0.2451822
v -1.342707 5.639215 -0.08736059
v 0.2902842 6.254119 0.7982059
v -0.0591946 5.414735 1.32241
v 1.703952 6.125566 0.8587207
v 1.850873 5.241036 1.404173
v 2.753248 6.109906 -0.09909183
v 3.268623 5.219882 0.1100307
v 2.823492 6.216312 -1.514151
v 3.363544 5.363655 -1.801924
v 1.873548 6.382455 -2.557539
v 2.080029 5.588139 -3.211691
v -0.1083918 4.862029 -3.912852
v -1.853917 4.888076 -2.319512
v -1.970767 4.711063 0.03447691
v -0.3905206 4.434681 1.770182
v 1.961161 4.220828 1.870848
v 3.706689 4.194779 0.2775046
v 3.823543 4.371792 -2.076486
v 2.243294 4.648178 -3.812186
v 1.967901 6.614914 -0.8133783
v 1.072276 6.628282 0.004165769
v 1.121015 6.764997 -0.8441345
v 0.2614477 6.770093 -0.8864244
v 1.157062 6.756725 -1.703964
v -1.404487 4.948886 -2.365072
v -1.804187 4.708665 -2.802702
v -1.031502 4.433385 -2.283358
v -1.550448 4.121498 -2.851552
v -2.422605 4.545877 -2.809351
v -2.353363 3.910143 -2.860188
v -2.89748 4.555882 -2.381128
v -2.969916 3.923131 -2.304209
v -2.950641 4.732815 -1.768878
v -3.038935 4.152854 -1.509293
v -2.550946 4.973035 -1.33125
v -2.519992 4.464743 -0.9410976
v -1.932523 5.135823 -1.324596
v -1.71707 4.676098 -0.9324617
v -1.457648 5.125819 -1.752824
v -1.100522 4.663109 -1.488445
v -1.842203 5.217912 -2.146828
v -2.212941 4.995097 -2.552751
v -2.275554 5.217892 -2.184449
v -2.653413 5.004375 -2.155546
v -2.282671 5.22719 -1.749626

vn 0.2287146 0.7784641 -0.5845369
vn -0.3999227 0.6549021 -0.6412216
vn 0.3205961 0.5973637 -0.7351019
vn -0.3896437 0.4577628 -0.7991439
vn -0.8604667 0.4479261 -0.2428153
vn -0.9099686 0.223919 -0.3490233
vn -0.8831355 0.278779 0.3772982
vn -0.9355799 0.03281599 0.3515869
vn -0.4546507 0.2465458 0.8558667
vn -0.4514748 -0.003602002 0.8922765
vn 0.1739875 0.3701069 0.9125509
vn 0.2587643 0.135999 0.9563186
vn 0.6345305 0.5770843 0.5141448
vn 0.7790898 0.3698429 0.5061967
vn 0.6571994 0.7462302 -0.1059688
vn 0.8047007 0.560946 -0.1944125
vn 0.05096694 0.9965098 -0.06611067
vn -0.5026025 0.8641002 -0.02686132
vn -0.2084068 0.9454778 0.2502763
vn -0.4323556 0.7337341 0.5241212
vn 0.1212137 0.8661441 0.4848728
vn 0.7684232 0.5128449 -0.3827739
vn 0.3089907 0.737739 -0.6002216
vn 0.7991757 0.2558199 -0.5439432
vn 0.2300337 0.5344177 -0.8133156
vn -0.1832207 0.8987413 -0.3983644
vn -0.3797142 0.7338651 -0.5632576
vn -0.4198803 0.9015374 0.104551
vn -0.6728857 0.7373294 0.05975163
vn -0.2623553 0.7444899 0.6139255
vn -0.4777455 0.5427799 0.6907599
vn 0.1970782 0.5195948 0.8313732
vn 0.09139681 0.2641829 0.9601323
vn 0.6892895 0.3585939 0.629516
vn 0.7011458 0.064735 0.7100732
vn 0.9259487 0.3557971 0.1265997
vn 0.9943166 0.06127099 0.08706518
vn 0.775979 0.05827697 -0.6280608
vn 0.1608021 0.359409 -0.9192213
vn -0.4982652 0.5749891 -0.6489371
vn -0.8151499 0.5787333 0.02446297
vn -0.6042252 0.3684478 0.7065113
vn 0.01095203 0.067316 0.9976715
vn 0.6700197 -0.1482641 0.7273866
vn 0.9869037 -0.152008 0.05398633
vn 0.4526055 0.8233867 0.3423197
vn 0.1850262 0.9434429 0.2751015
vn 0.3680687 0.9144735 0.1681178
vn 0.2666793 0.9636868 -0.01378032
vn 0.5342577 0.8436309 0.05343776
vn 0.2522264 0.8238653 -0.5075706
vn -0.1983672 0.959092 -0.2019731
vn 0.1311802 0.6650369 -0.735199
vn -0.4239261 0.8316296 -0.3587182
vn -0.3575521 0.8739552 0.329179
vn -0.6200345 0.7267453 0.2956324
vn -0.1320819 0.618327 0.7747425
vn -0.3422659 0.4118249 0.8445438
vn 0.345968 0.34195 0.873714
vn 0.2466655 0.07134299 0.966471
vn 0.7965617 0.206723 0.5681154
vn 0.8017722 -0.09525002 0.5899905
vn 0.9557465 0.29186 0.03696337
vn 0.9978801 0.009635 -0.0643613
vn 0.730275 0.5474889 -0.4086003
vn 0.7201118 0.324556 -0.6132719
vn 0.03843378 0.5162241 -0.8555907
vn -0.5599809 0.6958141 -0.4497377
vn -0.7713893 0.5827472 0.2556646
vn -0.4719504 0.2432561 0.8474015
vn 0.1629292 -0.123789 0.9788413
vn 0.7613449 -0.303379 0.5729878
vn 0.9727526 -0.190312 -0.1324154
vn 0.6733127 0.1491791 -0.7241516
vn 0.6219023 0.7373568 0.2637088
vn 0.4017016 0.7851081 0.4714246
vn 0.4396794 0.8568879 0.2691195
vn 0.2365634 0.9356971 0.2617415
vn 0.4567636 0.8879461 0.05402563
vn 0.7325108 0.6109444 -0.3002912
vn 0.4389735 0.3693524 -0.8190733
vn 0.8784062 0.4137206 -0.2392441
vn 0.5467647 0.1407688 -0.825368
vn -0.1657739 0.2056359 -0.9644858
vn -0.1364816 -0.04420039 -0.989656
vn -0.7274756 0.2156964 -0.6513481
vn -0.7710974 -0.03283307 -0.63587
vn -0.9170962 0.3936419 -0.06309168
vn -0.9853318 0.1682102 0.02874604
vn -0.6235582 0.6352329 0.455691
vn -0.6536906 0.4411621 0.6148696
vn -0.01881111 0.7989506 0.6011024
vn 0.02955697 0.6261312 0.7791572
vn 0.5428905 0.7888891 0.287965
vn 0.6641718 0.6147642 0.4253714
vn 0.2377702 0.9311942 -0.2763019
vn -0.09969863 0.7211424 -0.6855756
vn -0.1702632 0.9266384 -0.3351891
vn -0.5493551 0.764573 -0.337101
vn -0.2118872 0.9746255 0.07217279

vt 0.3613281 0.484375
vt 0.3461914 0.479248
vt 0.3603516 0.498291
vt 0.3356934 0.4875488
vt 0.3395996 0.463623
vt 0.3259277 0.4626465
vt 0.3447266 0.4484863
vt 0.3364258 0.4379883
vt 0.3603516 0.4418945
vt 0.3613281 0.4282227
vt 0.3754883 0.4470215
vt 0.3859863 0.4387207
vt 0.3820801 0.4626465
vt 0.395752 0.463623
vt 0.3769531 0.4780273
vt 0.3852539 0.4882813
vt 0.3652344 0.4726563
vt 0.3513184 0.4677734
vt 0.3608398 0.4631348
vt 0.3564453 0.4538574
vt 0.3701172 0.4587402
vt 0.4470215 0.4243164
vt 0.4257813 0.4155273
vt 0.4472656 0.4458008
vt 0.4106445 0.4306641
vt 0.4169922 0.3942871
vt 0.3955078 0.3942871
vt 0.4257813 0.3728027
vt 0.4106445 0.3579102
vt 0.4470215 0.3642578
vt 0.4470215 0.3427734
vt 0.4685059 0.3730469
vt 0.4833984 0.357666
vt 0.4770508 0.3942871
vt 0.4985352 0.394043
vt 0.4682617 0.4155273
vt 0.4833984 0.4306641
vt 0.4470215 0.4689941
vt 0.394043 0.4470215
vt 0.3723145 0.394043
vt 0.394043 0.3413086
vt 0.4470215 0.3193359
vt 0.5 0.3413086
vt 0.5219727 0.3942871
vt 0.5 0.4472656
vt 0.4609375 0.3884277
vt 0.4411621 0.3803711
vt 0.4470215 0.3942871
vt 0.4331055 0.3999023
vt 0.4528809 0.407959
vt 0.4470215 0.4243164
vt 0.4257813 0.4155273
vt 0.4472656 0.4458008
vt 0.4106445 0.4306641
vt 0.4169922 0.3942871
vt 0.3955078 0.3942871
vt 0.4257813 0.3728027
vt 0.4106445 0.3579102
vt 0.4470215 0.3642578
vt 0.4470215 0.3427734
vt 0.4685059 0.3730469
vt 0.4833984 0.357666
vt 0.4770508 0.3942871
vt 0.4985352 0.394043
vt 0.4682617 0.4155273
vt 0.4833984 0.4306641
vt 0.4470215 0.4689941
vt 0.394043 0.4470215
vt 0.3723145 0.394043
vt 0.394043 0.3413086
vt 0.4470215 0.3193359
vt 0.5 0.3413086
vt 0.5219727 0.3942871
vt 0.5 0.4472656
vt 0.4609375 0.3884277
vt 0.4411621 0.3803711
vt 0.4470215 0.3942871
vt 0.4331055 0.3999023
vt 0.4528809 0.407959
vt 0.3613281 0.484375
vt 0.3461914 0.479248
vt 0.3603516 0.498291
vt 0.3356934 0.4875488
vt 0.3395996 0.463623
vt 0.3259277 0.4626465
vt 0.3447266 0.4484863
vt 0.3364258 0.4379883
vt 0.3603516 0.4418945
vt 0.3613281 0.4282227
vt 0.3754883 0.4470215
vt 0.3859863 0.4387207
vt 0.3820801 0.4626465
vt 0.395752 0.463623
vt 0.3769531 0.4780273
vt 0.3852539 0.4882813
vt 0.3652344 0.4726563
vt 0.3513184 0.4677734
vt 0.3608398 0.4631348
vt 0.3564453 0.4538574
vt 0.3701172 0.4587402

g Tree4_(17)_3128_519
usemtl Tree4_(17)_3128_519
usemap Tree4_(17)_3128_519
f 1/1/1 3/3/3 2/2/2
f 2/2/2 3/3/3 4/4/4
f 2/2/2 4/4/4 5/5/5
f 5/5/5 4/4/4 6/6/6
f 5/5/5 6/6/6 7/7/7
f 7/7/7 6/6/6 8/8/8
f 7/7/7 8/8/8 9/9/9
f 9/9/9 8/8/8 10/10/10
f 9/9/9 10/10/10 11/11/11
f 11/11/11 10/10/10 12/12/12
f 11/11/11 12/12/12 13/13/13
f 13/13/13 12/12/12 14/14/14
f 13/13/13 14/14/14 15/15/15
f 15/15/15 14/14/14 16/16/16
f 15/15/15 16/16/16 1/1/1
f 1/1/1 16/16/16 3/3/3
f 15/15/15 1/1/1 17/17/17
f 1/1/1 2/2/2 17/17/17
f 17/17/17 2/2/2 18/18/18
f 2/2/2 5/5/5 18/18/18
f 5/5/5 7/7/7 18/18/18
f 17/17/17 18/18/18 19/19/19
f 18/18/18 20/20/20 19/19/19
f 18/18/18 7/7/7 20/20/20
f 7/7/7 9/9/9 20/20/20
f 9/9/9 11/11/11 20/20/20
f 20/20/20 21/21/21 19/19/19
f 21/21/21 17/17/17 19/19/19
f 20/20/20 11/11/11 21/21/21
f 11/11/11 13/13/13 21/21/21
f 13/13/13 15/15/15 21/21/21
f 21/21/21 15/15/15 17/17/17
f 22/22/22 24/24/24 23/23/23
f 23/23/23 24/24/24 25/25/25
f 23/23/23 25/25/25 26/26/26
f 26/26/26 25/25/25 27/27/27
f 26/26/26 27/27/27 28/28/28
f 28/28/28 27/27/27 29/29/29
f 28/28/28 29/29/29 30/30/30
f 30/30/30 29/29/29 31/31/31
f 30/30/30 31/31/31 32/32/32
f 32/32/32 31/31/31 33/33/33
f 32/32/32 33/33/33 34/34/34
f 34/34/34 33/33/33 35/35/35
f 34/34/34 35/35/35 36/36/36
f 36/36/36 35/35/35 37/37/37
f 36/36/36 37/37/37 22/22/22
f 22/22/22 37/37/37 24/24/24
f 24/24/24 38/38/38 25/25/25
f 25/25/25 38/38/38 39/39/39
f 25/25/25 39/39/39 27/27/27
f 27/27/27 39/39/39 40/40/40
f 27/27/27 40/40/40 29/29/29
f 29/29/29 40/40/40 41/41/41
f 29/29/29 41/41/41 31/31/31
f 31/31/31 41/41/41 42/42/42
f 31/31/31 42/42/42 33/33/33
f 33/33/33 42/42/42 43/43/43
f 33/33/33 43/43/43 35/35/35
f 35/35/35 43/43/43 44/44/44
f 35/35/35 44/44/44 37/37/37
f 37/37/37 44/44/44 45/45/45
f 37/37/37 45/45/45 24/24/24
f 24/24/24 45/45/45 38/38/38
f 32/32/32 34/34/34 46/46/46
f 34/34/34 36/36/36 46/46/46
f 47/47/47 32/32/32 46/46/46
f 47/47/47 46/46/46 48/48/48
f 49/49/49 47/47/47 48/48/48
f 50/50/50 49/49/49 48/48/48
f 46/46/46 50/50/50 48/48/48
f 50/50/50 23/23/23 49/49/49
f 22/22/22 23/23/23 50/50/50
f 36/36/36 22/22/22 50/50/50
f 46/46/46 36/36/36 50/50/50
f 23/23/23 26/26/26 49/49/49
f 26/26/26 28/28/28 49/49/49
f 49/49/49 28/28/28 47/47/47
f 28/28/28 30/30/30 47/47/47
f 30/30/30 32/32/32 47/47/47
f 51/51/51 53/53/53 52/52/52
f 52/52/52 53/53/53 54/54/54
f 52/52/52 54/54/54 55/55/55
f 55/55/55 54/54/54 56/56/56
f 55/55/55 56/56/56 57/57/57
f 57/57/57 56/56/56 58/58/58
f 57/57/57 58/58/58 59/59/59
f 59/59/59 58/58/58 60/60/60
f 59/59/59 60/60/60 61/61/61
f 61/61/61 60/60/60 62/62/62
f 61/61/61 62/62/62 63/63/63
f 63/63/63 62/62/62 64/64/64
f 63/63/63 64/64/64 65/65/65
f 65/65/65 64/64/64 66/66/66
f 65/65/65 66/66/66 51/51/51
f 51/51/51 66/66/66 53/53/53
f 53/53/53 67/67/67 54/54/54
f 54/54/54 67/67/67 68/68/68
f 54/54/54 68/68/68 56/56/56
f 56/56/56 68/68/68 69/69/69
f 56/56/56 69/69/69 58/58/58
f 58/58/58 69/69/69 70/70/70
f 58/58/58 70/70/70 60/60/60
f 60/60/60 70/70/70 71/71/71
f 60/60/60 71/71/71 62/62/62
f 62/62/62 71/71/71 72/72/72
f 62/62/62 72/72/72 64/64/64
f 64/64/64 72/72/72 73/73/73
f 64/64/64 73/73/73 66/66/66
f 66/66/66 73/73/73 74/74/74
f 66/66/66 74/74/74 53/53/53
f 53/53/53 74/74/74 67/67/67
f 61/61/61 63/63/63 75/75/75
f 63/63/63 65/65/65 75/75/75
f 76/76/76 61/61/61 75/75/75
f 76/76/76 75/75/75 77/77/77
f 78/78/78 76/76/76 77/77/77
f 79/79/79 78/78/78 77/77/77
f 75/75/75 79/79/79 77/77/77
f 79/79/79 52/52/52 78/78/78
f 51/51/51 52/52/52 79/79/79
f 65/65/65 51/51/51 79/79/79
f 75/75/75 65/65/65 79/79/79
f 52/52/52 55/55/55 78/78/78
f 55/55/55 57/57/57 78/78/78
f 78/78/78 57/57/57 76/76/76
f 57/57/57 59/59/59 76/76/76
f 59/59/59 61/61/61 76/76/76
f 80/80/80 82/82/82 81/81/81
f 81/81/81 82/82/82 83/83/83
f 81/81/81 83/83/83 84/84/84
f 84/84/84 83/83/83 85/85/85
f 84/84/84 85/85/85 86/86/86
f 86/86/86 85/85/85 87/87/87
f 86/86/86 87/87/87 88/88/88
f 88/88/88 87/87/87 89/89/89
f 88/88/88 89/89/89 90/90/90
f 90/90/90 89/89/89 91/91/91
f 90/90/90 91/91/91 92/92/92
f 92/92/92 91/91/91 93/93/93
f 92/92/92 93/93/93 94/94/94
f 94/94/94 93/93/93 95/95/95
f 94/94/94 95/95/95 80/80/80
f 80/80/80 95/95/95 82/82/82
f 94/94/94 80/80/80 96/96/96
f 80/80/80 81/81/81 96/96/96
f 96/96/96 81/81/81 97/97/97
f 81/81/81 84/84/84 97/97/97
f 84/84/84 86/86/86 97/97/97
f 96/96/96 97/97/97 98/98/98
f 97/97/97 99/99/99 98/98/98
f 97/97/97 86/86/86 99/99/99
f 86/86/86 88/88/88 99/99/99
f 88/88/88 90/90/90 99/99/99
f 99/99/99 100/100/100 98/98/98
f 100/100/100 96/96/96 98/98/98
f 99/99/99 90/90/90 100/100/100
f 90/90/90 92/92/92 100/100/100
f 92/92/92 94/94/94 100/100/100
f 100/100/100 94/94/94 96/96/96
