#Tree3_(7)_1574_223.obj

v 0.8980951 -0.2467098 0.2916004
v 0.5627118 1.493185 0.4763363
v 0.388085 1.493185 0.08865663
v 0.644622 -0.2467098 -0.1738398
v 0.2988222 -0.2467098 -0.2453805
v -0.03350855 1.493185 -0.07192464
v -0.04980395 0.9535935 -0.1633223
v 0.4182095 1.112749 0.8406225
v 0.3880849 1.493185 0.8640113
v 0.2328199 -0.2360249 0.822773
v -0.03350508 1.493185 1.024593
v -0.08605152 -0.2467098 0.9498302
v -0.3927083 3.338958 -0.07598113
v -0.2825029 3.369289 0.299297
v -0.6720327 3.252133 -0.2578875
v -0.392707 3.338958 0.6745768
v -0.6720283 3.252133 0.8564799
v -0.4551062 1.493185 0.8640115
v -0.9610656 3.155363 0.6932857
v -0.6297331 1.493185 0.4763375
v -1.080791 3.11528 0.4763373
v -0.4551062 1.493185 0.08865677
v -0.7989345 -0.2467098 -0.1738394
v -0.5550159 -0.2467098 -0.2188839
v -0.04980395 0.9535935 -0.1633223
v -0.03350855 1.493185 -0.07192464
v -0.9514656 -0.2467098 0.2916008
v -0.9610665 3.155363 -0.09469057
v -0.6720327 3.252133 -0.2578875
v -0.9104419 6.154762 0.1526994
v -0.6790481 6.154762 0.1140658
v -1.015425 6.154762 0.464173
v -0.9104427 6.154762 0.6148454
v -0.6790497 6.154762 0.7348065
v -0.4742334 6.154762 0.6568296
v -0.3961831 6.154762 0.461178
v -0.4742311 6.154762 0.2476248
v -0.6790481 6.154762 0.1140658
v -0.7402921 -0.2467098 0.5776011
v -0.5274093 0.9751863 0.8321651
v -0.7940699 -0.4677124 1.269511
v -0.3652812 -0.2467098 0.8304166
v -0.7940699 -0.4677124 1.269511
v -0.5274093 0.9751863 0.8321651
v -0.08604718 -0.2467098 -0.9542072
v -0.08604718 -0.2467098 -0.9542072
v 1.052337 -0.5420864 1.04177
v 1.052337 -0.5420864 1.04177
v 0.3649835 0.9880412 0.2978568
v 0.8266056 1.692036 0.5149961
v 0.7412924 1.647383 0.3210479
v 0.2852591 1.035575 0.07437156
v 0.5962493 1.812386 0.2134469
v 0.0997561 1.159606 -0.01835599
v 0.3977743 1.887208 0.3212334
v -0.08286685 1.287479 0.07398929
v 0.434956 1.966669 0.5139675
v -0.1556221 1.344287 0.2973109
v 0.3783849 1.883636 0.6549171
v -0.07589768 1.296754 0.5207962
v 0.5956059 1.668309 0.7647386
v 0.1095977 1.172722 0.6135255
v 0.7720934 1.6095 0.6538056
v 0.2922282 1.044849 0.5211803
v 0.8266056 1.692036 0.5149961
v 0.3649835 0.9880412 0.2978568
v 1.656432 2.454257 0.1529118
v 1.468842 2.584558 0.24744
v 1.39353 2.641651 0.4760516
v 1.474612 2.592094 0.7048343
v 1.664579 2.464917 0.7997609
v 1.852161 2.334618 0.7052288
v 1.927473 2.277522 0.4766191
v 1.949488 3.38979 0.4636137
v 2.120274 3.410829 0.4620108
v 1.846398 2.327078 0.2478384
v 1.927473 2.277522 0.4766191
v 2.290676 3.447176 0.5720889
v 2.367411 3.477539 0.7393101
v 1.945511 3.508565 0.6701325
v 2.014071 3.510238 0.8324559
v 2.14835 3.463095 0.9026107
v 2.309749 3.484134 0.8772559
v 2.367411 3.477539 0.7393101

vn 0.9926014 0.115254 -0.03819675
vn 0.9918074 0.126627 0.01684623
vn 0.6900756 0.09115901 -0.7179732
vn 0.6347707 0.164291 -0.7550328
vn 0.6022377 0.237761 -0.762089
vn -0.0111969 0.04265301 -0.9990273
vn 0.00765488 0.324559 -0.9458345
vn 0.6061313 0.05652802 0.7933534
vn 0.6957945 0.08713903 0.7129354
vn 0.1716996 -0.03089199 0.9846649
vn 0.05052011 0.03889001 0.9979656
vn 0.003884701 -0.03331299 0.9994375
vn 0.7023207 0.047315 -0.7102866
vn 0.9933512 0.1062549 -0.04430968
vn 0.06889772 0.06419402 -0.9955563
vn 0.748441 0.07829998 0.658563
vn 0.002617534 -0.012572 0.9999176
vn -0.6248071 0.03390702 0.7800427
vn -0.6811264 -0.04222897 0.7309471
vn -0.9952878 0.06695198 0.07014079
vn -0.9931275 0.030462 0.113004
vn -0.7081603 0.06118899 -0.7033953
vn -0.6530184 0.2019731 -0.7299137
vn -0.5822294 0.2847561 -0.7615267
vn 0.00765488 0.324559 -0.9458345
vn -0.0111969 0.04265301 -0.9990273
vn -0.9846642 0.173637 -0.01693013
vn -0.6540332 0.121351 -0.746669
vn 0.06889772 0.06419402 -0.9955563
vn -0.6663413 0.2468529 -0.7036
vn 0.2276147 0.2529961 -0.9403109
vn -0.9768208 0.06183 0.2049344
vn -0.6311498 -0.07486501 0.7720396
vn -0.05056605 -0.116526 0.9918996
vn 0.6854355 -0.06800602 0.7249507
vn 0.9981486 0.042641 0.0433729
vn 0.7967961 0.154694 -0.5841112
vn 0.2276147 0.2529961 -0.9403109
vn -0.9277058 0.106873 0.3576873
vn -0.5452725 0.08505797 0.8339323
vn -0.6746628 0.051948 0.7362958
vn 0.1253626 0.022652 0.9918523
vn -0.6746628 0.051948 0.7362958
vn -0.5452725 0.08505797 0.8339323
vn -0.01579512 0.176202 -0.9842273
vn -0.01579512 0.176202 -0.9842273
vn 0.6829104 0.009463004 0.7304409
vn 0.6829104 0.009463004 0.7304409
vn 0.8282048 -0.5490681 -0.1122541
vn 0.6203838 -0.7834702 -0.03603242
vn 0.5888146 -0.4675329 -0.6593257
vn 0.6732441 -0.232616 -0.7018776
vn 0.01195781 0.14151 -0.9898646
vn 0.1429068 0.251613 -0.9572192
vn -0.4954486 0.6481669 -0.5782822
vn -0.4422177 0.6197538 -0.648343
vn -0.6340948 0.7724905 0.03438123
vn -0.7369145 0.6739743 -0.05211309
vn -0.5627276 0.479693 0.6732253
vn -0.6617342 0.410288 0.6275122
vn -0.03272304 -0.121057 0.992106
vn -0.0984813 -0.17088 0.9803579
vn 0.5074184 -0.6206129 0.5978011
vn 0.5665023 -0.5936821 0.5715041
vn 0.6203838 -0.7834702 -0.03603242
vn 0.8282048 -0.5490681 -0.1122541
vn 0.1489367 0.218502 -0.9644039
vn -0.3127496 0.6673079 -0.6759347
vn -0.6436951 0.7606009 -0.08451598
vn -0.654561 0.2733921 0.7048452
vn -0.08472081 -0.3617901 0.928402
vn 0.5082822 -0.6864228 0.5200703
vn 0.7733341 -0.624091 -0.1116461
vn -0.3115642 0.7714701 -0.5547627
vn 0.3594395 0.5219939 -0.7735151
vn 0.6396942 -0.3145871 -0.7013032
vn 0.7733341 -0.624091 -0.1116461
vn 0.8643844 -0.001752001 -0.5028287
vn 0.852939 -0.4938701 0.1690783
vn -0.9078262 0.3227668 0.2677186
vn -0.6867059 -0.1897499 0.7017335
vn -0.1557544 -0.539331 0.8275644
vn 0.4500849 -0.6452188 0.6173462
vn 0.852939 -0.4938701 0.1690783

vt 0.126709 0.3288574
vt 0.1293945 0.3742676
vt 0.1407471 0.3754883
vt 0.1362305 0.3291016
vt 0.1413574 0.3303223
vt 0.1525879 0.3789063
vt 0.15271 0.3623047
vt 0.1174927 0.3647461
vt 0.118103 0.3754883
vt 0.1054077 0.3300781
vt 0.1060181 0.3786621
vt 0.1013794 0.3305664
vt 0.149292 0.4240723
vt 0.1358643 0.4257813
vt 0.15979 0.4228516
vt 0.121521 0.4277344
vt 0.1089478 0.4287109
vt 0.09356689 0.3813477
vt 0.09710693 0.4299316
vt 0.08105469 0.3840332
vt 0.08880615 0.4311523
vt 0.06884766 0.3857422
vt 0.0670166 0.3334961
vt 0.06384277 0.3349609
vt 0.05545044 0.3713379
vt 0.05654907 0.3869629
vt 0.07647705 0.3317871
vt 0.07189941 0.435791
vt 0.0625 0.4394531
vt 0.074646 0.4926758
vt 0.06512451 0.4936523
vt 0.09069824 0.4914551
vt 0.1012573 0.4904785
vt 0.1171875 0.4887695
vt 0.1308594 0.4870605
vt 0.1435547 0.4853516
vt 0.1560059 0.4838867
vt 0.1673584 0.4829102
vt 0.08154297 0.3320313
vt 0.09130859 0.3662109
vt 0.0892334 0.3222656
vt 0.097229 0.3310547
vt 0.0892334 0.3222656
vt 0.09130859 0.3662109
vt 0.1542969 0.3291016
vt 0.04974365 0.3359375
vt 0.1149902 0.3195801
vt 0.1149902 0.3195801
vt 0.050354 0.3269043
vt 0.05477905 0.3681641
vt 0.06396484 0.3632813
vt 0.06066895 0.3205566
vt 0.07598877 0.3637695
vt 0.07141113 0.3161621
vt 0.08642578 0.3591309
vt 0.08282471 0.3151855
vt 0.09460449 0.3659668
vt 0.09399414 0.3178711
vt 0.1016846 0.3613281
vt 0.1053467 0.3225098
vt 0.1165771 0.3642578
vt 0.1170654 0.3259277
vt 0.1252441 0.3696289
vt 0.1287842 0.3276367
vt 0.131958 0.3745117
vt 0.1402588 0.3256836
vt 0.06628418 0.4277344
vt 0.07714844 0.4272461
vt 0.08837891 0.4291992
vt 0.09985352 0.4318848
vt 0.1115112 0.4338379
vt 0.1234131 0.4348145
vt 0.1357422 0.4345703
vt 0.0758667 0.472168
vt 0.06762695 0.4794922
vt 0.05535889 0.4287109
vt 0.04382324 0.4294434
vt 0.05892944 0.4885254
vt 0.05099487 0.494873
vt 0.08605957 0.4821777
vt 0.09484863 0.4853516
vt 0.1034546 0.4858398
vt 0.1099854 0.4914551
vt 0.1179199 0.4924316

g Tree3_(7)_1574_223
usemtl Tree3_(7)_1574_223
usemap Tree3_(7)_1574_223
f 1/1/1 3/3/3 2/2/2
f 1/1/1 4/4/4 3/3/3
f 5/5/5 3/3/3 4/4/4
f 3/3/3 5/5/5 6/6/6
f 6/6/6 5/5/5 7/7/7
f 8/8/8 1/1/1 2/2/2
f 8/8/8 2/2/2 9/9/9
f 9/9/9 10/10/10 8/8/8
f 10/10/10 9/9/9 11/11/11
f 10/10/10 11/11/11 12/12/12
f 2/2/2 3/3/3 13/13/13
f 2/2/2 13/13/13 14/14/14
f 9/9/9 2/2/2 14/14/14
f 3/3/3 15/15/15 13/13/13
f 3/3/3 6/6/6 15/15/15
f 11/11/11 9/9/9 16/16/16
f 9/9/9 14/14/14 16/16/16
f 11/11/11 16/16/16 17/17/17
f 18/18/18 11/11/11 17/17/17
f 18/18/18 12/12/12 11/11/11
f 18/18/18 17/17/17 19/19/19
f 20/20/20 18/18/18 19/19/19
f 20/20/20 19/19/19 21/21/21
f 22/22/22 20/20/20 21/21/21
f 23/23/23 20/20/20 22/22/22
f 22/22/22 24/24/24 23/23/23
f 22/22/22 25/25/25 24/24/24
f 25/25/25 22/22/22 26/26/26
f 23/23/23 27/27/27 20/20/20
f 26/26/26 22/22/22 28/28/28
f 22/22/22 21/21/21 28/28/28
f 26/26/26 28/28/28 29/29/29
f 29/29/29 28/28/28 30/30/30
f 29/29/29 30/30/30 31/31/31
f 28/28/28 32/32/32 30/30/30
f 28/28/28 21/21/21 32/32/32
f 21/21/21 33/33/33 32/32/32
f 21/21/21 19/19/19 33/33/33
f 19/19/19 34/34/34 33/33/33
f 19/19/19 17/17/17 34/34/34
f 17/17/17 35/35/35 34/34/34
f 17/17/17 16/16/16 35/35/35
f 16/16/16 36/36/36 35/35/35
f 16/16/16 14/14/14 36/36/36
f 14/14/14 37/37/37 36/36/36
f 14/14/14 13/13/13 37/37/37
f 13/13/13 38/38/38 37/37/37
f 13/13/13 15/15/15 38/38/38
f 39/39/39 41/41/41 40/40/40
f 40/40/40 27/27/27 39/39/39
f 27/27/27 40/40/40 20/20/20
f 20/20/20 40/40/40 18/18/18
f 42/42/42 18/18/18 40/40/40
f 12/12/12 18/18/18 42/42/42
f 43/43/43 42/42/42 44/44/44
f 5/5/5 45/45/45 7/7/7
f 46/46/46 24/24/24 25/25/25
f 10/10/10 47/47/47 8/8/8
f 48/48/48 1/1/1 8/8/8
f 49/49/49 51/51/51 50/50/50
f 49/49/49 52/52/52 51/51/51
f 52/52/52 53/53/53 51/51/51
f 52/52/52 54/54/54 53/53/53
f 54/54/54 55/55/55 53/53/53
f 54/54/54 56/56/56 55/55/55
f 56/56/56 57/57/57 55/55/55
f 56/56/56 58/58/58 57/57/57
f 58/58/58 59/59/59 57/57/57
f 58/58/58 60/60/60 59/59/59
f 60/60/60 61/61/61 59/59/59
f 60/60/60 62/62/62 61/61/61
f 62/62/62 63/63/63 61/61/61
f 62/62/62 64/64/64 63/63/63
f 64/64/64 65/65/65 63/63/63
f 64/64/64 66/66/66 65/65/65
f 51/51/51 53/53/53 67/67/67
f 53/53/53 68/68/68 67/67/67
f 53/53/53 55/55/55 68/68/68
f 55/55/55 69/69/69 68/68/68
f 55/55/55 57/57/57 69/69/69
f 57/57/57 70/70/70 69/69/69
f 57/57/57 59/59/59 70/70/70
f 59/59/59 71/71/71 70/70/70
f 59/59/59 61/61/61 71/71/71
f 61/61/61 72/72/72 71/71/71
f 61/61/61 63/63/63 72/72/72
f 63/63/63 73/73/73 72/72/72
f 63/63/63 65/65/65 73/73/73
f 67/67/67 68/68/68 74/74/74
f 67/67/67 74/74/74 75/75/75
f 76/76/76 67/67/67 75/75/75
f 51/51/51 67/67/67 76/76/76
f 50/50/50 51/51/51 76/76/76
f 50/50/50 76/76/76 77/77/77
f 77/77/77 76/76/76 78/78/78
f 76/76/76 75/75/75 78/78/78
f 77/77/77 78/78/78 79/79/79
f 68/68/68 80/80/80 74/74/74
f 68/68/68 69/69/69 80/80/80
f 69/69/69 81/81/81 80/80/80
f 69/69/69 70/70/70 81/81/81
f 70/70/70 82/82/82 81/81/81
f 70/70/70 71/71/71 82/82/82
f 71/71/71 83/83/83 82/82/82
f 71/71/71 72/72/72 83/83/83
f 72/72/72 84/84/84 83/83/83
f 72/72/72 73/73/73 84/84/84
