#Tree_conf1_(105)_2370_655.obj

v 0.1094562 1.578246 0.3661337
v 0.03892717 1.930737 0.1420311
v 0.1273223 1.938304 0.0731831
v 0.3483669 1.598699 0.1800509
v 0.1409901 1.947921 -0.03793386
v 0.3853112 1.62469 -0.1202729
v 0.07192414 1.953952 -0.1262276
v 0.198646 1.640992 -0.3589109
v -0.03941457 1.952867 -0.1399794
v -0.1022831 1.638057 -0.3960724
v -0.1278123 1.945299 -0.07112803
v -0.3411938 1.617604 -0.2099896
v -0.1414804 1.935683 0.03998854
v -0.3781377 1.591613 0.0903346
v -0.07241444 1.929651 0.1282823
v -0.1914693 1.575311 0.32897
v -0.003584968 2.232562 0.01496809
v -0.5621578 0.6246044 0.6367044
v -0.1598635 0.849957 0.4109184
v 0.04298875 0.6214363 0.8242581
v 0.3784072 0.8471389 0.1273548
v 0.603511 0.6185017 0.5289735
v 0.7910654 0.61752 -0.0761786
v 0.2650553 0.8477323 -0.3581681
v 0.4957839 0.6190658 -0.6367065
v -0.2330168 0.8503399 -0.3806186
v -0.1093629 0.622234 -0.8242606
v -0.6698852 0.6251684 -0.528976
v -0.4961772 0.8517178 0.04285177
v -0.8574395 0.6261503 0.0761761
v -0.04382535 1.230687 -4.122941E-07
v -0.3161302 1.416121 -0.4689051
v -0.2401681 1.556894 -0.1451863
v -0.558152 1.372669 -0.1078462
v -0.1585995 1.489291 0.2622026
v -0.4732143 1.302272 0.3163858
v -0.1110712 1.246167 0.5552807
v 0.1835736 1.468478 0.2808053
v 0.3161331 1.23722 0.4689021
v 0.2958301 1.512721 -0.04162448
v 0.5581555 1.280672 0.107844
v 0.4732175 1.351069 -0.3163884
v 0.06822362 1.564082 -0.2953325
v 0.1110744 1.407174 -0.5552832
v 0.02009361 1.826264 0.05963144
v 0.3820798 1.057775 0.6121216
v 0.3001469 1.251559 0.2239776
v 0.6914663 1.055051 0.1637026
v 0.2057358 1.249136 -0.2906007
v 0.593152 1.052527 -0.3721471
v 0.1447278 1.051683 -0.6815335
v -0.2218229 1.249646 -0.322319
v -0.3911228 1.053012 -0.5832251
v -0.36821 1.251888 0.0806473
v -0.7005126 1.055737 -0.1348035
v -0.6021983 1.05826 0.4010462
v -0.08830506 1.253073 0.4054029
v -0.1537741 1.059104 0.7104325
v -0.007256701 1.578954 0.02317916

vn 0.8319067 0.4115615 0.3722215
vn 0.7697669 0.5340774 0.3496007
vn 0.7814035 0.5632518 -0.2686188
vn 0.8451692 0.4410967 -0.3018657
vn 0.3499594 0.6014431 -0.7181885
vn 0.3748363 0.4797608 -0.7933016
vn -0.2797734 0.6261112 -0.7278131
vn -0.3130237 0.5047327 -0.8045256
vn -0.7301066 0.6216263 -0.2837703
vn -0.8048719 0.5001928 -0.3193566
vn -0.7296205 0.5908969 0.3442311
vn -0.8034877 0.4690855 0.3665605
vn -0.2883096 0.5530604 0.7816661
vn -0.3212501 0.4307801 0.8433428
vn 0.329316 0.529949 0.7814764
vn 0.3519793 0.4073828 0.8427041
vn 0.05312092 0.9962848 0.06778697
vn 0.2109992 0.6754405 0.7065831
vn 0.3158895 0.885325 0.3411947
vn 0.6928172 0.6235923 0.362129
vn 0.4157991 0.8844001 -0.212009
vn 0.7878124 0.5780542 -0.2126154
vn 0.4575362 0.5632924 -0.6880134
vn -0.09687558 0.868778 -0.4856339
vn -0.1103627 0.5866374 -0.8022948
vn -0.4972186 0.8619228 -0.09931281
vn -0.6004664 0.636367 -0.4842288
vn -0.7218618 0.6849958 0.09847069
vn -0.2685412 0.8707367 0.4119509
vn -0.3833281 0.701885 0.6003475
vn 0.07513924 0.9926716 -0.09464353
vn -0.8314511 0.5518386 -0.06452647
vn -0.3626058 0.8873516 0.2848235
vn -0.6335524 0.5518371 0.5422981
vn 0.2158324 0.7936298 0.5688308
vn -0.06452626 0.5518386 0.831451
vn 0.5422976 0.5518388 0.6335517
vn 0.6725311 0.7350741 0.08583832
vn 0.8314511 0.5518386 0.06452647
vn 0.3839212 0.7923028 -0.4741951
vn 0.6335524 0.5518371 -0.5422981
vn 0.06452626 0.5518386 -0.831451
vn -0.2475471 0.8842496 -0.3960092
vn -0.5422976 0.5518388 -0.6335517
vn 0 1 0
vn 0.7373502 0.6754404 0.009745479
vn 0.4199892 0.885325 -0.1995217
vn 0.5525826 0.6235923 -0.5529786
vn -0.07809652 0.8844001 -0.4601496
vn 0.0324716 0.5780542 -0.8153521
vn -0.5198895 0.5632923 -0.642197
vn -0.492396 0.868778 -0.05264312
vn -0.798623 0.5866374 -0.1343812
vn -0.2433314 0.8619228 0.444836
vn -0.6415136 0.636367 0.4283659
vn -0.1216986 0.6849958 0.7183108
vn 0.3129026 0.8707366 0.3793548
vn 0.4583989 0.7018851 0.5451863
vn -0.06787121 0.9926716 -0.09998403

vt 0.3461914 0.0803833
vt 0.3190918 0.06854248
vt 0.3068848 0.08081055
vt 0.3181152 0.1083374
vt 0.2895508 0.08081055
vt 0.2785645 0.1083374
vt 0.2770996 0.06854248
vt 0.2504883 0.08032227
vt 0.2770996 0.05114746
vt 0.2504883 0.04064941
vt 0.2895508 0.03884888
vt 0.2785645 0.01256561
vt 0.3068848 0.03887939
vt 0.3183594 0.01262665
vt 0.3190918 0.0512085
vt 0.3464355 0.04077148
vt 0.2978516 0.05935669
vt 0.2459717 0.0847168
vt 0.213623 0.08380127
vt 0.2144775 0.1161499
vt 0.1708984 0.08374023
vt 0.1700439 0.1160889
vt 0.1385498 0.08459473
vt 0.1621094 0.04983521
vt 0.1385498 0.0401001
vt 0.1923828 0.03216553
vt 0.1700439 0.008682251
vt 0.2145996 0.008712769
vt 0.2225342 0.04989624
vt 0.2460938 0.04019165
vt 0.1922607 0.06237793
vt 0.2459717 0.0847168
vt 0.213623 0.08380127
vt 0.2144775 0.1161499
vt 0.1708984 0.08374023
vt 0.1700439 0.1160889
vt 0.1385498 0.08459473
vt 0.1621094 0.04983521
vt 0.1385498 0.0401001
vt 0.1923828 0.03216553
vt 0.1700439 0.008682251
vt 0.2145996 0.008712769
vt 0.2225342 0.04989624
vt 0.2460938 0.04019165
vt 0.1922607 0.06237793
vt 0.2459717 0.0847168
vt 0.213623 0.08380127
vt 0.2144775 0.1161499
vt 0.1708984 0.08374023
vt 0.1700439 0.1160889
vt 0.1385498 0.08459473
vt 0.1621094 0.04983521
vt 0.1385498 0.0401001
vt 0.1923828 0.03216553
vt 0.1700439 0.008682251
vt 0.2145996 0.008712769
vt 0.2225342 0.04989624
vt 0.2460938 0.04019165
vt 0.1922607 0.06237793

g Tree_conf1_(105)_2370_655
usemtl Tree_conf1_(105)_2370_655
usemap Tree_conf1_(105)_2370_655
f 1/1/1 3/3/3 2/2/2
f 1/1/1 4/4/4 3/3/3
f 4/4/4 5/5/5 3/3/3
f 4/4/4 6/6/6 5/5/5
f 6/6/6 7/7/7 5/5/5
f 6/6/6 8/8/8 7/7/7
f 8/8/8 9/9/9 7/7/7
f 8/8/8 10/10/10 9/9/9
f 10/10/10 11/11/11 9/9/9
f 10/10/10 12/12/12 11/11/11
f 12/12/12 13/13/13 11/11/11
f 12/12/12 14/14/14 13/13/13
f 14/14/14 15/15/15 13/13/13
f 14/14/14 16/16/16 15/15/15
f 16/16/16 2/2/2 15/15/15
f 16/16/16 1/1/1 2/2/2
f 2/2/2 3/3/3 17/17/17
f 3/3/3 5/5/5 17/17/17
f 5/5/5 7/7/7 17/17/17
f 7/7/7 9/9/9 17/17/17
f 9/9/9 11/11/11 17/17/17
f 11/11/11 13/13/13 17/17/17
f 13/13/13 15/15/15 17/17/17
f 15/15/15 2/2/2 17/17/17
f 18/18/18 20/20/20 19/19/19
f 20/20/20 21/21/21 19/19/19
f 20/20/20 22/22/22 21/21/21
f 22/22/22 23/23/23 21/21/21
f 23/23/23 24/24/24 21/21/21
f 23/23/23 25/25/25 24/24/24
f 25/25/25 26/26/26 24/24/24
f 25/25/25 27/27/27 26/26/26
f 27/27/27 28/28/28 26/26/26
f 28/28/28 29/29/29 26/26/26
f 28/28/28 30/30/30 29/29/29
f 30/30/30 19/19/19 29/29/29
f 30/30/30 18/18/18 19/19/19
f 19/19/19 21/21/21 31/31/31
f 21/21/21 24/24/24 31/31/31
f 24/24/24 26/26/26 31/31/31
f 26/26/26 29/29/29 31/31/31
f 29/29/29 19/19/19 31/31/31
f 32/32/32 34/34/34 33/33/33
f 34/34/34 35/35/35 33/33/33
f 34/34/34 36/36/36 35/35/35
f 36/36/36 37/37/37 35/35/35
f 37/37/37 38/38/38 35/35/35
f 37/37/37 39/39/39 38/38/38
f 39/39/39 40/40/40 38/38/38
f 39/39/39 41/41/41 40/40/40
f 41/41/41 42/42/42 40/40/40
f 42/42/42 43/43/43 40/40/40
f 42/42/42 44/44/44 43/43/43
f 44/44/44 33/33/33 43/43/43
f 44/44/44 32/32/32 33/33/33
f 33/33/33 35/35/35 45/45/45
f 35/35/35 38/38/38 45/45/45
f 38/38/38 40/40/40 45/45/45
f 40/40/40 43/43/43 45/45/45
f 43/43/43 33/33/33 45/45/45
f 46/46/46 48/48/48 47/47/47
f 48/48/48 49/49/49 47/47/47
f 48/48/48 50/50/50 49/49/49
f 50/50/50 51/51/51 49/49/49
f 51/51/51 52/52/52 49/49/49
f 51/51/51 53/53/53 52/52/52
f 53/53/53 54/54/54 52/52/52
f 53/53/53 55/55/55 54/54/54
f 55/55/55 56/56/56 54/54/54
f 56/56/56 57/57/57 54/54/54
f 56/56/56 58/58/58 57/57/57
f 58/58/58 47/47/47 57/57/57
f 58/58/58 46/46/46 47/47/47
f 47/47/47 49/49/49 59/59/59
f 49/49/49 52/52/52 59/59/59
f 52/52/52 54/54/54 59/59/59
f 54/54/54 57/57/57 59/59/59
f 57/57/57 47/47/47 59/59/59
