#Tree_conf1_1419_226.obj

v 0.1324653 -0.04437639 0.02974031
v 0.05209842 0.3509289 0.01169685
v 0.03219823 0.3509289 -0.04954817
v 0.08186824 -0.04437639 -0.1259819
v -0.03219854 0.3509289 -0.04954818
v -0.08186831 -0.04437639 -0.125982
v -0.05209831 0.3509289 0.01169676
v -0.1324654 -0.04437639 0.02974033
v 2.844802E-09 0.3509289 0.04954827
v 1.758043E-08 -0.04437639 0.125982
v 0.05209842 0.3509289 0.01169685
v 0.1324653 -0.04437639 0.02974031
v -0.01651626 2.018247 -0.02541571
v 0.01651619 2.018247 -0.02541566
v 0.02672341 2.018247 0.005999683
v 0.02672341 2.018247 0.005999683
v 3.216973E-08 2.018247 0.02541568
v -0.02672358 2.018247 0.005999761

vn 0.9755447 0.203269 0.08363247
vn 0.9916589 0.08719236 0.09492253
vn 0.395589 0.09713161 -0.9132773
vn 0.3818254 0.2244589 -0.8965647
vn -0.7480755 0.09713168 -0.6564672
vn -0.7284873 0.224459 -0.6472442
vn -0.8558713 0.0871923 0.5097861
vn -0.8461317 0.2032691 0.4926896
vn 0.2183719 0.0811393 0.9724872
vn 0.2151102 0.1898378 0.9579615
vn 0.9916589 0.08719236 0.09492253
vn 0.9755447 0.203269 0.08363247
vn -0.7508639 0.01723529 -0.6602327
vn 0.3964994 0.01723531 -0.9178736
vn 0.9954827 0.01552718 0.09366482
vn 0.9954827 0.01552718 0.09366482
vn 0.2190714 0.01447243 0.9756021
vn -0.8598655 0.01552706 0.5102845

vt 0.4238281 0.003742218
vt 0.4238281 0.02593994
vt 0.4316406 0.02593994
vt 0.4316406 0.003742218
vt 0.4394531 0.02593994
vt 0.4394531 0.003740311
vt 0.4472656 0.02593994
vt 0.4472656 0.003740311
vt 0.4550781 0.02593994
vt 0.4550781 0.003740311
vt 0.4628906 0.02593994
vt 0.4628906 0.003738403
vt 0.4394531 0.1196289
vt 0.4318848 0.1196289
vt 0.4240723 0.1196289
vt 0.4628906 0.1195679
vt 0.4550781 0.1196289
vt 0.4472656 0.1196289

g Tree_conf1_1419_226
usemtl Tree_conf1_1419_226
usemap Tree_conf1_1419_226
f 1/1/1 3/3/3 2/2/2
f 1/1/1 4/4/4 3/3/3
f 4/4/4 5/5/5 3/3/3
f 4/4/4 6/6/6 5/5/5
f 6/6/6 7/7/7 5/5/5
f 6/6/6 8/8/8 7/7/7
f 8/8/8 9/9/9 7/7/7
f 8/8/8 10/10/10 9/9/9
f 10/10/10 11/11/11 9/9/9
f 10/10/10 12/12/12 11/11/11
f 3/3/3 5/5/5 13/13/13
f 3/3/3 13/13/13 14/14/14
f 2/2/2 3/3/3 14/14/14
f 2/2/2 14/14/14 15/15/15
f 9/9/9 11/11/11 16/16/16
f 9/9/9 16/16/16 17/17/17
f 7/7/7 9/9/9 17/17/17
f 7/7/7 17/17/17 18/18/18
f 5/5/5 18/18/18 13/13/13
f 5/5/5 7/7/7 18/18/18
