#Tree2_big_(1)_1149_221.obj

v 1.085373 1.8353 0.1018963
v 1.828987 3.285057 -0.4354706
v 1.657782 3.240481 -0.8099289
v 0.5731163 1.712281 -0.2036171
v 0.8230915 2.073336 0.7482338
v 1.61718 3.449301 -0.1197548
v 0.5279827 2.223991 1.082602
v 1.490923 6.48314 -2.371645
v 1.634342 6.48314 -2.025398
v 1.490923 6.48314 -1.67915
v 1.117567 3.643358 -0.02470398
v 0.07051659 2.430738 0.9792633
v 0.6165409 3.74066 -0.2479458
v -0.7117882 2.190363 0.4802494
v 0.417078 3.739399 -0.4777508
v -0.5047607 2.073336 -0.01943779
v 0.659174 3.521428 -0.9725285
v -0.02434731 1.822066 -0.6697006
v 0.655014 6.48314 -2.025398
v 0.7984009 6.48314 -2.371645
v 1.177851 3.333319 -1.049417
v -0.02434731 1.822066 -0.6697006
v 1.144665 6.48314 -2.515062
v 1.657782 3.240481 -0.8099289
v 0.5731163 1.712281 -0.2036171
v -0.02434731 1.822066 -0.6697006
v 1.490923 6.48314 -2.371645
v 0.7984009 6.48314 -1.67915
v 1.144665 6.48314 -1.535728
v -0.6627121 0.4609415 -0.190136
v -0.9372139 0.6592157 0.3560219
v -0.6627121 0.9419294 0.9021759
v 0 0.6592157 1.128403
v 0.6627312 0.6874593 -0.2806244
v 0 1.179359 -0.9688225
v 0.785532 1.118179 0.7923641
v 1.172136 0.9419294 0.1845779
v 0.6627312 0.6874593 -0.2806244
v -1.308868 0.3112161 1.018579
v -0.8015137 0.2139121 1.350033
v -0.03299141 -0.1508609 1.081446
v -0.7125702 -0.164709 1.216988
v -1.214447 -0.1905044 1.675444
v -1.003265 -0.4645944 1.611
v -1.214447 -0.1905044 1.675444
v -1.446671 -0.7210387 2.137897
v 1.10022 0.3612069 1.013403
v 0.6174374 -0.2880173 1.314743
v 1.118858 -0.1508609 0.3236752
v 1.272438 -0.2880173 0.8165493
v 1.315945 -0.7212233 1.638914
v -1.308868 0.3112161 1.018579
v -1.214447 -0.1905044 1.675444
v -1.53223 -0.4784926 1.413656
v -1.446671 -0.7210387 2.137897
v -1.357498 -0.1863734 0.6181278
v -1.308868 0.3112161 1.018579
v -1.13929 -0.1508609 0.2399921
v -1.999275 -0.4909039 -0.4151783
v -1.999275 -0.4909039 -0.4151783
v 0.0372715 0.4335002 -0.9404926
v -0.8152657 -0.1508609 -0.3550034
v -0.5536003 -0.3704397 -0.8861332
v 0.1056709 -0.8974142 -1.8349
v 0.3686333 -0.3704397 -0.8861332
v 0.7037163 -0.1508609 -0.4386883
v 0 1.179359 -0.9688225
v -1.999275 -0.4909039 -0.4151783
v 0.7037163 -0.1508609 -0.4386883
v 1.645309 -0.6928171 -0.2995071
v 1.645309 -0.6928171 -0.2995071
v -0.07677078 1.610034 0.09564972
v -0.8780556 2.196727 0.1129513
v -1.113258 1.986975 0.05151749
v -0.2607021 1.445998 0.04760361
v -0.4728088 1.378052 0.1635952
v -0.02872086 1.77407 0.2795868
v -0.1447296 1.842016 0.4916706
v -1.026375 2.283609 0.3841381
v -0.3568039 1.77407 0.6076584
v -0.5407372 1.610034 0.5596142
v -1.261578 2.073857 0.3227062
v -0.5887833 1.445998 0.3756752
v -1.17337 2.542549 -0.7294979
v -0.9862518 2.709425 -0.6806221
v -0.9862518 2.709425 -0.6806221
v -1.598961 3.305381 -0.8973961
v -0.4728088 1.378052 0.1635952
v -1.261578 2.073857 0.3227062
v -1.113258 1.986975 0.05151749
v -1.291374 2.611672 -0.5137463
v -1.17337 2.542549 -0.7294979
v -1.291374 2.611672 -0.5137463
v -1.699715 3.364405 -0.713171
v -1.598961 3.305381 -0.8973961
v -0.9862518 2.709425 -0.6806221
v -1.439178 3.447873 -0.8556595
v -1.699715 3.364405 -0.713171
v -1.539932 3.506896 -0.6714363
v -1.104256 2.778548 -0.4648685
v -1.104256 2.778548 -0.4648685
v -1.539932 3.506896 -0.6714363
v -0.9862518 2.709425 -0.6806221
v -1.261578 2.073857 0.3227062
v -1.104256 2.778548 -0.4648685
v -1.291374 2.611672 -0.5137463

vn 0.9380767 -0.3371709 0.07954797
vn 0.934207 -0.352839 -0.05255401
vn 0.5826709 -0.4416449 -0.6822348
vn 0.508157 -0.246164 -0.8253361
vn 0.6390471 0.08349802 0.7646221
vn 0.7841443 0.134854 0.6057492
vn 0.08752403 0.2369131 0.9675804
vn 0.5752059 -0.251435 -0.7784078
vn 0.9937227 0.021219 -0.109841
vn 0.8026641 0.274749 0.5293801
vn 0.313664 0.44408 0.8392901
vn -0.5323112 0.3261311 0.7812063
vn -0.3358959 0.5701939 0.7497019
vn -0.929244 0.352136 0.111829
vn -0.9164973 0.3675431 0.157939
vn -0.795738 0.190888 -0.574772
vn -0.7852616 -0.08098095 -0.6138456
vn -0.282449 -0.143503 -0.9484879
vn -0.997456 0.06846599 -0.019848
vn -0.7312289 -0.2562009 -0.6321909
vn -0.150699 -0.327403 -0.93279
vn -0.282449 -0.143503 -0.9484879
vn -0.16139 -0.3512689 -0.9222599
vn 0.5826709 -0.4416449 -0.6822348
vn 0.508157 -0.246164 -0.8253361
vn -0.282449 -0.143503 -0.9484879
vn 0.5752059 -0.251435 -0.7784078
vn -0.4950299 0.475129 0.7274598
vn 0.2563219 0.4572679 0.8515897
vn -0.6341382 0.3460911 -0.6914403
vn -0.8916661 0.4522469 0.020108
vn -0.5520673 0.4481292 0.7031373
vn 0.09443203 0.167681 0.9813082
vn 0.5693899 0.1959529 -0.7983719
vn -0.037195 0.2755259 -0.9605738
vn 0.671206 0.208623 0.7113079
vn 0.9746751 0.221386 -0.031571
vn 0.5693899 0.1959529 -0.7983719
vn -0.7168717 0.6389848 0.2789148
vn 0.139861 0.3673829 0.9194937
vn 0.12738 0.02434001 0.9915553
vn 0.03124401 -0.019511 0.9993213
vn -0.1964959 0.6323718 0.7493299
vn 0.03124401 -0.019511 0.9993213
vn -0.1964959 0.6323718 0.7493299
vn -0.09206998 0.676885 0.7303081
vn 0.6131416 0.3803267 0.6923936
vn 0.03124401 -0.019511 0.9993213
vn 0.9459756 0.05863598 0.3188919
vn 0.9936301 -0.016972 -0.111406
vn 0.589554 0.489 0.6428881
vn -0.7168717 0.6389848 0.2789148
vn -0.1964959 0.6323718 0.7493299
vn -0.9844401 0.173637 -0.026977
vn -0.09206998 0.676885 0.7303081
vn -0.9844401 0.173637 -0.026977
vn -0.7168717 0.6389848 0.2789148
vn -0.9392124 0.2254061 0.2589831
vn -0.9844401 0.173637 -0.026977
vn -0.9844401 0.173637 -0.026977
vn 0.07885696 0.4164998 -0.9057094
vn -0.40757 0.274373 -0.87098
vn -0.7425158 0.153429 -0.6520199
vn 0.171268 0.5555828 -0.8136308
vn 0.5798553 0.01699201 -0.8145423
vn 0.4971278 0.1688749 -0.8510847
vn -0.037195 0.2755259 -0.9605738
vn -0.9844401 0.173637 -0.026977
vn 0.4971278 0.1688749 -0.8510847
vn 0.7766931 0.3062461 -0.550419
vn 0.7766931 0.3062461 -0.550419
vn 0.3125089 0.4029588 -0.8602107
vn 0.689357 0.02636 -0.723942
vn 0.06104105 -0.5568762 -0.8283495
vn -0.02299299 -0.1007939 -0.9946416
vn -0.453393 -0.6331879 -0.6273019
vn 0.4926341 0.7606381 -0.4227781
vn 0.4422269 0.8510838 0.2830049
vn -0.274947 0.539537 0.795804
vn 0.04443198 0.4079698 0.9119136
vn -0.419663 -0.2859819 0.8614507
vn -0.8854795 -0.4238028 0.1905709
vn -0.6413147 -0.7340966 0.2231988
vn 0.1966859 -0.5169717 -0.8330995
vn 0.7468191 -0.117654 -0.6545371
vn 0.7468191 -0.117654 -0.6545371
vn -0.025194 -0.223248 -0.974436
vn -0.453393 -0.6331879 -0.6273019
vn -0.8854795 -0.4238028 0.1905709
vn 0.06104105 -0.5568762 -0.8283495
vn -0.9304564 -0.3610662 -0.06230603
vn 0.1966859 -0.5169717 -0.8330995
vn -0.9304564 -0.3610662 -0.06230603
vn -0.884932 -0.425273 0.189837
vn -0.025194 -0.223248 -0.974436
vn 0.7468191 -0.117654 -0.6545371
vn 0.6123729 0.198859 -0.76515
vn -0.884932 -0.425273 0.189837
vn 0.008409998 0.282481 0.959236
vn -0.166774 0.5991837 0.7830487
vn -0.166774 0.5991837 0.7830487
vn 0.008409998 0.282481 0.959236
vn 0.7468191 -0.117654 -0.6545371
vn -0.8854795 -0.4238028 0.1905709
vn -0.166774 0.5991837 0.7830487
vn -0.9304564 -0.3610662 -0.06230603

vt 0.1541748 0.3811035
vt 0.1590576 0.4104004
vt 0.1722412 0.4101563
vt 0.1663818 0.376709
vt 0.1364746 0.3845215
vt 0.1468506 0.4121094
vt 0.126709 0.3862305
vt 0.1921387 0.473877
vt 0.1811523 0.4743652
vt 0.168335 0.4765625
vt 0.1317139 0.4157715
vt 0.1170654 0.3901367
vt 0.1200562 0.4199219
vt 0.1000366 0.3901367
vt 0.1082153 0.4238281
vt 0.09014893 0.3935547
vt 0.09667969 0.4287109
vt 0.0737915 0.3967285
vt 0.1230469 0.4912109
vt 0.1109619 0.4958496
vt 0.07879639 0.4335938
vt 0.0737915 0.3967285
vt 0.09790039 0.4995117
vt 0.06658936 0.4365234
vt 0.06036377 0.4016113
vt 0.0737915 0.3967285
vt 0.08673096 0.5014648
vt 0.1363525 0.4863281
vt 0.1523438 0.4812012
vt 0.07971191 0.3654785
vt 0.09265137 0.3664551
vt 0.1063843 0.3684082
vt 0.1200562 0.361084
vt 0.05514526 0.3876953
vt 0.06793213 0.3845215
vt 0.1364746 0.3662109
vt 0.1503906 0.3605957
vt 0.1633301 0.3591309
vt 0.1005859 0.3500977
vt 0.1080933 0.3491211
vt 0.1171875 0.3447266
vt 0.1099243 0.3425293
vt 0.1017456 0.3344727
vt 0.1046753 0.3322754
vt 0.1017456 0.3344727
vt 0.0958252 0.3178711
vt 0.1339111 0.3461914
vt 0.1220703 0.3371582
vt 0.1396484 0.333252
vt 0.1322021 0.3295898
vt 0.1195679 0.3183594
vt 0.1005859 0.3500977
vt 0.1017456 0.3344727
vt 0.09527588 0.3286133
vt 0.0958252 0.3178711
vt 0.09289551 0.3415527
vt 0.1005859 0.3500977
vt 0.08953857 0.3452148
vt 0.07525635 0.3251953
vt 0.07525635 0.3251953
vt 0.06292725 0.369873
vt 0.07281494 0.3515625
vt 0.06408691 0.3474121
vt 0.04751587 0.3354492
vt 0.05215454 0.3608398
vt 0.05004883 0.3742676
vt 0.06793213 0.3845215
vt 0.07525635 0.3251953
vt 0.163208 0.3413086
vt 0.1427002 0.314209
vt 0.1427002 0.314209
vt 0.1293945 0.354248
vt 0.1226807 0.392334
vt 0.1434326 0.3952637
vt 0.1375732 0.3566895
vt 0.1451416 0.3615723
vt 0.1209106 0.3537598
vt 0.1124878 0.3549805
vt 0.1031494 0.3913574
vt 0.1035767 0.3566895
vt 0.09338379 0.3581543
vt 0.08624268 0.3920898
vt 0.08288574 0.3581543
vt 0.1407471 0.4306641
vt 0.1242676 0.4301758
vt 0.1242676 0.4301758
vt 0.1412354 0.4660645
vt 0.07305908 0.3564453
vt 0.08624268 0.3920898
vt 0.07385254 0.3935547
vt 0.0859375 0.4306641
vt 0.07189941 0.4326172
vt 0.0859375 0.4306641
vt 0.08843994 0.4650879
vt 0.07489014 0.465332
vt 0.1242676 0.4301758
vt 0.1218262 0.4648438
vt 0.08843994 0.4650879
vt 0.1048584 0.465332
vt 0.1066284 0.4301758
vt 0.1066284 0.4301758
vt 0.1048584 0.465332
vt 0.1242676 0.4301758
vt 0.08624268 0.3920898
vt 0.1066284 0.4301758
vt 0.0859375 0.4306641

g Tree2_big_(1)_1149_221
usemtl Tree2_big_(1)_1149_221
usemap Tree2_big_(1)_1149_221
f 1/1/1 3/3/3 2/2/2
f 1/1/1 4/4/4 3/3/3
f 5/5/5 1/1/1 2/2/2
f 5/5/5 2/2/2 6/6/6
f 7/7/7 5/5/5 6/6/6
f 2/2/2 3/3/3 8/8/8
f 2/2/2 8/8/8 9/9/9
f 6/6/6 2/2/2 9/9/9
f 6/6/6 9/9/9 10/10/10
f 11/11/11 6/6/6 10/10/10
f 7/7/7 6/6/6 11/11/11
f 12/12/12 7/7/7 11/11/11
f 12/12/12 11/11/11 13/13/13
f 14/14/14 12/12/12 13/13/13
f 14/14/14 13/13/13 15/15/15
f 16/16/16 14/14/14 15/15/15
f 16/16/16 15/15/15 17/17/17
f 18/18/18 16/16/16 17/17/17
f 17/17/17 15/15/15 19/19/19
f 17/17/17 19/19/19 20/20/20
f 21/21/21 17/17/17 20/20/20
f 22/22/22 17/17/17 21/21/21
f 21/21/21 20/20/20 23/23/23
f 24/24/24 21/21/21 23/23/23
f 25/25/25 21/21/21 24/24/24
f 25/25/25 26/26/26 21/21/21
f 24/24/24 23/23/23 27/27/27
f 15/15/15 28/28/28 19/19/19
f 15/15/15 13/13/13 28/28/28
f 13/13/13 29/29/29 28/28/28
f 30/30/30 14/14/14 16/16/16
f 30/30/30 31/31/31 14/14/14
f 31/31/31 12/12/12 14/14/14
f 31/31/31 32/32/32 12/12/12
f 32/32/32 7/7/7 12/12/12
f 32/32/32 33/33/33 7/7/7
f 34/34/34 22/22/22 25/25/25
f 34/34/34 35/35/35 22/22/22
f 35/35/35 30/30/30 16/16/16
f 35/35/35 16/16/16 18/18/18
f 33/33/33 5/5/5 7/7/7
f 33/33/33 36/36/36 5/5/5
f 36/36/36 1/1/1 5/5/5
f 36/36/36 37/37/37 1/1/1
f 37/37/37 4/4/4 1/1/1
f 37/37/37 38/38/38 4/4/4
f 32/32/32 31/31/31 39/39/39
f 33/33/33 39/39/39 40/40/40
f 41/41/41 33/33/33 40/40/40
f 41/41/41 40/40/40 42/42/42
f 42/42/42 40/40/40 43/43/43
f 42/42/42 43/43/43 44/44/44
f 40/40/40 39/39/39 45/45/45
f 44/44/44 43/43/43 46/46/46
f 37/37/37 36/36/36 47/47/47
f 36/36/36 33/33/33 47/47/47
f 33/33/33 48/48/48 47/47/47
f 33/33/33 41/41/41 48/48/48
f 49/49/49 37/37/37 47/47/47
f 49/49/49 47/47/47 50/50/50
f 47/47/47 48/48/48 51/51/51
f 50/50/50 47/47/47 51/51/51
f 33/33/33 32/32/32 52/52/52
f 39/39/39 54/54/54 53/53/53
f 53/53/53 54/54/54 55/55/55
f 39/39/39 56/56/56 54/54/54
f 31/31/31 56/56/56 57/57/57
f 31/31/31 58/58/58 56/56/56
f 58/58/58 31/31/31 59/59/59
f 31/31/31 30/30/30 60/60/60
f 61/61/61 62/62/62 30/30/30
f 62/62/62 61/61/61 63/63/63
f 61/61/61 30/30/30 35/35/35
f 64/64/64 63/63/63 61/61/61
f 64/64/64 61/61/61 65/65/65
f 61/61/61 66/66/66 65/65/65
f 66/66/66 61/61/61 34/34/34
f 34/34/34 61/61/61 67/67/67
f 30/30/30 62/62/62 68/68/68
f 13/13/13 11/11/11 29/29/29
f 11/11/11 10/10/10 29/29/29
f 69/69/69 38/38/38 70/70/70
f 38/38/38 37/37/37 70/70/70
f 37/37/37 49/49/49 71/71/71
f 72/72/72 74/74/74 73/73/73
f 72/72/72 75/75/75 74/74/74
f 75/75/75 76/76/76 74/74/74
f 77/77/77 72/72/72 73/73/73
f 78/78/78 77/77/77 73/73/73
f 78/78/78 73/73/73 79/79/79
f 80/80/80 78/78/78 79/79/79
f 81/81/81 80/80/80 79/79/79
f 81/81/81 79/79/79 82/82/82
f 83/83/83 81/81/81 82/82/82
f 73/73/73 74/74/74 84/84/84
f 73/73/73 84/84/84 85/85/85
f 79/79/79 73/73/73 86/86/86
f 85/85/85 84/84/84 87/87/87
f 88/88/88 83/83/83 89/89/89
f 88/88/88 89/89/89 90/90/90
f 90/90/90 82/82/82 91/91/91
f 90/90/90 93/93/93 92/92/92
f 92/92/92 91/91/91 94/94/94
f 92/92/92 94/94/94 95/95/95
f 96/96/96 87/87/87 97/97/97
f 93/93/93 99/99/99 98/98/98
f 93/93/93 100/100/100 99/99/99
f 101/101/101 97/97/97 102/102/102
f 101/101/101 103/103/103 97/97/97
f 79/79/79 103/103/103 101/101/101
f 104/104/104 79/79/79 105/105/105
f 104/104/104 105/105/105 106/106/106
