#Tree3_1357_310.obj

v -0.5663607 6.129975 -1.258505
v -1.729265 6.129975 -0.7768149
v -0.5663598 5.081509 -1.835994
v -2.137609 5.081509 -1.18516
v -2.210951 6.129975 0.3860877
v -2.788435 5.081509 0.3860877
v -1.729264 6.129975 1.548988
v -2.137609 5.081509 1.957334
v -0.5663617 6.129975 2.030679
v -0.5663594 5.081509 2.60817
v 0.5965427 6.129975 1.548988
v 1.004891 5.081509 1.957334
v 1.078237 6.129975 0.3860869
v 1.655726 5.081509 0.3860847
v 0.5965422 6.129975 -0.7768146
v 1.004889 5.081509 -1.185164
v -0.5663602 3.849293 -1.958106
v -2.223957 3.849293 -1.27151
v -2.910548 3.849293 0.3860873
v -2.223958 3.849293 2.043682
v -0.5663586 3.849293 2.730281
v 1.091236 3.849293 2.043682
v 1.77784 3.849293 0.3860852
v 1.091232 3.849293 -1.27151
v 0.1355079 6.610299 0.6768123
v -0.8570847 6.610299 1.087964
v -0.5663592 6.703349 0.3860872
v -1.26823 6.610299 0.09536195
v -0.275639 6.610299 -0.3157874
v 2.332233 4.214332 -0.3507334
v 1.564468 4.326895 0.02710755
v 2.205902 3.702219 -0.9014018
v 1.090339 3.865771 -0.3524048
v 1.277658 4.317745 0.8410878
v 0.6736184 3.852475 0.8302954
v 1.639822 4.192243 1.614386
v 1.199838 3.670125 1.953886
v 2.438806 4.023906 1.89402
v 2.360746 3.425532 2.360188
v 3.206577 3.911345 1.516177
v 3.476298 3.261982 1.811187
v 3.493386 3.920494 0.7021987
v 3.893032 3.275279 0.628486
v 3.131223 4.045995 -0.0711012
v 3.366809 3.457629 -0.4951047
v 2.079418 3.061067 -1.08542
v 0.8719499 3.238093 -0.4911912
v 0.4208857 3.223703 0.7889549
v 0.9904536 3.026327 2.005122
v 2.247016 2.761585 2.444892
v 3.454491 2.584558 1.850666
v 3.905547 2.598947 0.5705192
v 3.335974 2.796325 -0.6456463
v 2.918181 4.291519 0.9612625
v 2.262849 4.3876 1.283774
v 2.455871 4.501337 0.800729
v 1.953723 4.494721 0.6237186
v 2.609053 4.398644 0.301213

vn -0.3778914 0.5420592 -0.7505797
vn -0.7979499 0.5420586 -0.2635305
vn -0.4269445 0.3140009 -0.8480105
vn -0.9015293 0.3140011 -0.2977386
vn -0.7505797 0.5420592 0.3778914
vn -0.8480105 0.3140009 0.4269445
vn -0.2635311 0.542059 0.7979496
vn -0.2977386 0.3140011 0.9015293
vn 0.3778914 0.5420592 0.7505797
vn 0.4269445 0.3140009 0.8480105
vn 0.79795 0.542059 0.2635298
vn 0.9015293 0.3140011 0.2977386
vn 0.7505797 0.5420592 -0.3778914
vn 0.8480105 0.3140009 -0.4269445
vn 0.2635298 0.542059 -0.79795
vn 0.297738 0.3140009 -0.9015296
vn -0.443796 0.1613551 -0.8814815
vn -0.9371127 0.161355 -0.3094904
vn -0.8814815 0.1613551 0.443796
vn -0.3094904 0.161355 0.9371127
vn 0.443796 0.1613551 0.8814815
vn 0.9371127 0.161355 0.3094904
vn 0.8814815 0.1613551 -0.443796
vn 0.3094897 0.1613549 -0.937113
vn 0.290797 0.9538103 -0.07538644
vn 0.07538597 0.9538099 0.2907982
vn 0 1 0
vn -0.2907982 0.9538099 0.07538597
vn -0.07538687 0.95381 -0.2907978
vn -0.3059975 0.6025708 -0.7370712
vn -0.6904103 0.686452 -0.2282923
vn -0.4038471 0.3881159 -0.8284163
vn -0.8381596 0.4828859 -0.2535934
vn -0.6085382 0.6796343 0.4096078
vn -0.7456601 0.4751822 0.4671111
vn -0.1083416 0.5861099 0.8029554
vn -0.1805337 0.369518 0.9115174
vn 0.5171725 0.460665 0.7213324
vn 0.5261758 0.2277891 0.8192992
vn 0.9015852 0.3767832 0.2125524
vn 0.9604881 0.133019 0.244476
vn 0.8197127 0.3836018 -0.4253478
vn 0.8679882 0.140723 -0.4762285
vn 0.3195157 0.4771261 -0.8186944
vn 0.302862 0.2463869 -0.9206346
vn -0.451935 0.2415741 -0.8587182
vn -0.9033899 0.340085 -0.2612067
vn -0.8072392 0.332078 0.4879438
vn -0.2198075 0.222242 0.9498911
vn 0.5147955 0.07491998 0.8540331
vn 0.9662505 -0.02359101 0.2565216
vn 0.8700994 -0.015583 -0.4926298
vn 0.2826681 0.09425099 -0.9545761
vn 0.4626082 0.8812572 -0.09684732
vn 0.2683668 0.9252396 0.268162
vn 0.1947887 0.9807378 -0.01451798
vn -0.09024997 0.9935194 0.06909471
vn 0.1039909 0.9495373 -0.2959135

vt 0.4470215 0.4243164
vt 0.4257813 0.4155273
vt 0.4472656 0.4458008
vt 0.4106445 0.4306641
vt 0.4169922 0.3942871
vt 0.3955078 0.3942871
vt 0.4257813 0.3728027
vt 0.4106445 0.3579102
vt 0.4470215 0.3642578
vt 0.4470215 0.3427734
vt 0.4685059 0.3730469
vt 0.4833984 0.357666
vt 0.4770508 0.3942871
vt 0.4985352 0.394043
vt 0.4682617 0.4155273
vt 0.4833984 0.4306641
vt 0.4470215 0.4689941
vt 0.394043 0.4470215
vt 0.3723145 0.394043
vt 0.394043 0.3413086
vt 0.4470215 0.3193359
vt 0.5 0.3413086
vt 0.5219727 0.3942871
vt 0.5 0.4472656
vt 0.4609375 0.3884277
vt 0.4411621 0.3803711
vt 0.4470215 0.3942871
vt 0.4331055 0.3999023
vt 0.4528809 0.407959
vt 0.3144531 0.4064941
vt 0.2939453 0.3986816
vt 0.3151855 0.4223633
vt 0.2832031 0.4101563
vt 0.2856445 0.3781738
vt 0.2697754 0.3789063
vt 0.293457 0.357666
vt 0.2817383 0.3469238
vt 0.3139648 0.3493652
vt 0.3132324 0.333252
vt 0.3344727 0.3571777
vt 0.3452148 0.345459
vt 0.3427734 0.3776855
vt 0.3586426 0.3769531
vt 0.3349609 0.3981934
vt 0.3464355 0.4089355
vt 0.3132324 0.4384766
vt 0.2705078 0.420166
vt 0.253418 0.3769531
vt 0.2717285 0.3342285
vt 0.3151855 0.3171387
vt 0.357666 0.3354492
vt 0.375 0.3786621
vt 0.3564453 0.4213867
vt 0.3261719 0.3720703
vt 0.3083496 0.3659668
vt 0.314209 0.3779297
vt 0.3022461 0.3837891
vt 0.3200684 0.3898926

g Tree3_1357_310
usemtl Tree3_1357_310
usemap Tree3_1357_310
f 1/1/1 3/3/3 2/2/2
f 2/2/2 3/3/3 4/4/4
f 2/2/2 4/4/4 5/5/5
f 5/5/5 4/4/4 6/6/6
f 5/5/5 6/6/6 7/7/7
f 7/7/7 6/6/6 8/8/8
f 7/7/7 8/8/8 9/9/9
f 9/9/9 8/8/8 10/10/10
f 9/9/9 10/10/10 11/11/11
f 11/11/11 10/10/10 12/12/12
f 11/11/11 12/12/12 13/13/13
f 13/13/13 12/12/12 14/14/14
f 13/13/13 14/14/14 15/15/15
f 15/15/15 14/14/14 16/16/16
f 15/15/15 16/16/16 1/1/1
f 1/1/1 16/16/16 3/3/3
f 3/3/3 17/17/17 4/4/4
f 4/4/4 17/17/17 18/18/18
f 4/4/4 18/18/18 6/6/6
f 6/6/6 18/18/18 19/19/19
f 6/6/6 19/19/19 8/8/8
f 8/8/8 19/19/19 20/20/20
f 8/8/8 20/20/20 10/10/10
f 10/10/10 20/20/20 21/21/21
f 10/10/10 21/21/21 12/12/12
f 12/12/12 21/21/21 22/22/22
f 12/12/12 22/22/22 14/14/14
f 14/14/14 22/22/22 23/23/23
f 14/14/14 23/23/23 16/16/16
f 16/16/16 23/23/23 24/24/24
f 16/16/16 24/24/24 3/3/3
f 3/3/3 24/24/24 17/17/17
f 11/11/11 13/13/13 25/25/25
f 13/13/13 15/15/15 25/25/25
f 26/26/26 11/11/11 25/25/25
f 26/26/26 25/25/25 27/27/27
f 28/28/28 26/26/26 27/27/27
f 29/29/29 28/28/28 27/27/27
f 25/25/25 29/29/29 27/27/27
f 29/29/29 2/2/2 28/28/28
f 1/1/1 2/2/2 29/29/29
f 15/15/15 1/1/1 29/29/29
f 25/25/25 15/15/15 29/29/29
f 2/2/2 5/5/5 28/28/28
f 5/5/5 7/7/7 28/28/28
f 28/28/28 7/7/7 26/26/26
f 7/7/7 9/9/9 26/26/26
f 9/9/9 11/11/11 26/26/26
f 30/30/30 32/32/32 31/31/31
f 31/31/31 32/32/32 33/33/33
f 31/31/31 33/33/33 34/34/34
f 34/34/34 33/33/33 35/35/35
f 34/34/34 35/35/35 36/36/36
f 36/36/36 35/35/35 37/37/37
f 36/36/36 37/37/37 38/38/38
f 38/38/38 37/37/37 39/39/39
f 38/38/38 39/39/39 40/40/40
f 40/40/40 39/39/39 41/41/41
f 40/40/40 41/41/41 42/42/42
f 42/42/42 41/41/41 43/43/43
f 42/42/42 43/43/43 44/44/44
f 44/44/44 43/43/43 45/45/45
f 44/44/44 45/45/45 30/30/30
f 30/30/30 45/45/45 32/32/32
f 32/32/32 46/46/46 33/33/33
f 33/33/33 46/46/46 47/47/47
f 33/33/33 47/47/47 35/35/35
f 35/35/35 47/47/47 48/48/48
f 35/35/35 48/48/48 37/37/37
f 37/37/37 48/48/48 49/49/49
f 37/37/37 49/49/49 39/39/39
f 39/39/39 49/49/49 50/50/50
f 39/39/39 50/50/50 41/41/41
f 41/41/41 50/50/50 51/51/51
f 41/41/41 51/51/51 43/43/43
f 43/43/43 51/51/51 52/52/52
f 43/43/43 52/52/52 45/45/45
f 45/45/45 52/52/52 53/53/53
f 45/45/45 53/53/53 32/32/32
f 32/32/32 53/53/53 46/46/46
f 40/40/40 42/42/42 54/54/54
f 42/42/42 44/44/44 54/54/54
f 55/55/55 40/40/40 54/54/54
f 55/55/55 54/54/54 56/56/56
f 57/57/57 55/55/55 56/56/56
f 58/58/58 57/57/57 56/56/56
f 54/54/54 58/58/58 56/56/56
f 58/58/58 31/31/31 57/57/57
f 30/30/30 31/31/31 58/58/58
f 44/44/44 30/30/30 58/58/58
f 54/54/54 44/44/44 58/58/58
f 31/31/31 34/34/34 57/57/57
f 34/34/34 36/36/36 57/57/57
f 57/57/57 36/36/36 55/55/55
f 36/36/36 38/38/38 55/55/55
f 38/38/38 40/40/40 55/55/55
