#Tree2_big_(22)_2382_651.obj

v -1.354207 3.623021 -1.74012
v -2.030581 3.435916 -1.637373
v -1.097584 2.988947 -1.935787
v -1.975751 2.746021 -1.802385
v -2.453863 3.375688 -1.071458
v -2.525313 2.667824 -1.067633
v -2.376088 3.477619 -0.3738792
v -2.424338 2.800164 -0.161938
v -1.842829 3.681997 0.0467289
v -1.73198 3.065519 0.3841553
v -1.166449 3.869103 -0.05602029
v -0.8538068 3.308447 0.2507533
v -0.7431726 3.929332 -0.621936
v -0.3042453 3.386644 -0.4840003
v -0.8209419 3.8274 -1.319514
v -0.4052199 3.254303 -1.389695
v -1.411575 4.000571 -1.252847
v -2.038944 3.827021 -1.157542
v -1.725 4.082933 -0.8954907
v -1.966806 3.921567 -0.5105047
v -1.339434 4.095118 -0.6058112
v 2.862653 7.904365 -3.235406
v 1.645729 7.725442 -4.013927
v 3.467224 7.075731 -3.512103
v 1.822982 6.833982 -4.564
v 0.2245252 7.669005 -3.704076
v -0.0972732 6.757728 -4.145345
v -0.5684402 7.768113 -2.487356
v -1.168684 6.891635 -2.50138
v -0.2686568 7.964711 -1.076509
v -0.7636318 7.157267 -0.5951174
v 0.9482729 8.143633 -0.2979836
v 0.8806182 7.399016 0.4567805
v 2.36948 8.200069 -0.6078353
v 2.800874 7.475272 0.03812814
v 3.162445 8.100964 -1.824552
v 3.872281 7.341363 -1.60584
v 3.837337 6.108437 -3.602593
v 1.955473 5.83175 -4.806504
v -0.2422811 5.744477 -4.327344
v -1.468526 5.897738 -2.445809
v -1.004936 6.201756 -0.2640616
v 0.8769269 6.478443 0.9398553
v 3.074692 6.565717 0.4606981
v 4.300926 6.412456 -1.420848
v 1.452837 8.427954 -1.351318
v 0.4141196 8.275233 -2.015831
v 1.267032 8.381895 -2.211928
v 1.090961 8.190639 -3.054367
v 2.129668 8.343361 -2.389856
v 1.205228 6.85482 -3.8389
v -0.1603907 6.863395 -3.23656
v 1.186831 5.986129 -4.517609
v -0.6583193 5.997714 -3.703759
v -0.7000793 6.874638 -1.845008
v -1.387513 6.012905 -1.823575
v -0.09769832 6.881963 -0.4794021
v -0.5736133 6.022804 0.02155863
v 1.293888 6.881081 0.06030997
v 1.306624 6.021611 0.7507907
v 2.659512 6.872507 -0.5420305
v 3.151775 6.010026 -0.06306311
v 3.199198 6.861263 -1.93358
v 3.880974 5.994834 -1.943249
v 2.59682 6.853938 -3.29919
v 3.067069 5.984937 -3.788381
v 1.169658 4.96651 -5.119713
v -1.102087 4.980774 -4.117705
v -1.999867 4.999477 -1.802826
v -0.9977964 5.011663 0.4688944
v 1.317146 5.010195 1.366724
v 3.588896 4.995932 0.3647096
v 4.486681 4.977229 -1.950171
v 3.484595 4.965043 -4.221891
v 2.090755 7.26327 -1.566247
v 0.9251223 7.270588 -1.052114
v 1.251105 7.340487 -1.892512
v 0.4109567 7.264336 -2.217735
v 1.576587 7.257017 -2.731864

vn 0.08191267 0.7019857 -0.7074648
vn -0.540912 0.5661461 -0.6220071
vn 0.1484607 0.5044893 -0.8505586
vn -0.5552108 0.3510167 -0.7540081
vn -0.9063731 0.4057679 -0.117644
vn -0.9681122 0.1698191 -0.1841745
vn -0.8003899 0.3147973 0.5101751
vn -0.8483705 0.06704083 0.525141
vn -0.2850443 0.3465241 0.8936839
vn -0.2661292 0.1028859 0.9584309
vn 0.3377812 0.482363 0.8082263
vn 0.4375424 0.2563577 0.8618802
vn 0.7032427 0.6427422 0.3038622
vn 0.8504438 0.4375553 0.2920455
vn 0.5972584 0.7337126 -0.3239572
vn 0.730702 0.5403345 -0.4172688
vn 0.002556127 0.9810178 -0.193901
vn -0.5274876 0.8490637 -0.02911437
vn -0.1873704 0.9671543 0.1717699
vn -0.3454483 0.7888948 0.5082425
vn 0.1845944 0.9208487 0.3434567
vn 0.5952235 0.7303067 -0.3352029
vn 0.1139685 0.7859751 -0.6076631
vn 0.7256171 0.4947016 -0.4782782
vn 0.1294424 0.5636631 -0.8157994
vn -0.422654 0.7791017 -0.4629946
vn -0.5353212 0.555148 -0.636586
vn -0.700298 0.7137123 0.01405558
vn -0.8792647 0.4741439 -0.04561859
vn -0.5563229 0.6281115 0.544041
vn -0.7009096 0.3681024 0.6109226
vn -0.07506742 0.5724432 0.8165008
vn -0.1047342 0.299141 0.9484437
vn 0.4615552 0.5793167 0.6718326
vn 0.56003 0.3076564 0.7692294
vn 0.7391982 0.6447063 0.1947814
vn 0.9039726 0.3886595 0.1782619
vn 0.7775567 0.2989354 -0.5532117
vn 0.13316 0.3734747 -0.9180333
vn -0.5853729 0.3642708 -0.724324
vn -0.9571357 0.2767153 -0.08555594
vn -0.7643546 0.1620968 0.6240886
vn -0.1199576 0.08755748 0.9889104
vn 0.5985756 0.09676135 0.7952008
vn 0.9703382 0.1843168 0.1564326
vn 0.118539 0.9336029 0.3381331
vn -0.1646235 0.9569345 0.2391138
vn 0.02829221 0.9879925 0.1518892
vn -0.0632497 0.9971424 -0.04130885
vn 0.2199128 0.973811 0.0577105
vn 0.02246757 0.8503395 -0.5257547
vn -0.4779108 0.8350461 -0.2725791
vn -0.01454295 0.6557758 -0.7548156
vn -0.6309822 0.6369362 -0.4429151
vn -0.6571337 0.7129177 0.2447933
vn -0.8517765 0.4864793 0.1944598
vn -0.4102177 0.5554929 0.7232903
vn -0.5475875 0.292541 0.7839437
vn 0.1182003 0.4549914 0.8826163
vn 0.1033949 0.1687275 0.9802247
vn 0.6185787 0.4702832 0.6294394
vn 0.7198341 0.1875673 0.6683243
vn 0.7978016 0.5924132 0.1120682
vn 0.9406285 0.338024 0.03094935
vn 0.5508844 0.7498369 -0.3664301
vn 0.636439 0.5319624 -0.558535
vn -0.03989385 0.482223 -0.8751397
vn -0.7044268 0.4619136 -0.5389052
vn -0.9424472 0.2997182 0.1481968
vn -0.6145259 0.09064916 0.7836713
vn 0.0872453 -0.04282418 0.995266
vn 0.7517783 -0.02251448 0.6590316
vn 0.9897987 0.1396806 -0.02807051
vn 0.6618768 0.348749 -0.6635459
vn 0.3141312 0.9068602 0.2809377
vn 0.0692618 0.8832862 0.4636898
vn 0.1033924 0.9594322 0.2622971
vn -0.1122598 0.9664099 0.2311915
vn 0.1326086 0.9899841 0.04843958

vt 0.3613281 0.484375
vt 0.3461914 0.479248
vt 0.3603516 0.498291
vt 0.3356934 0.4875488
vt 0.3395996 0.463623
vt 0.3259277 0.4626465
vt 0.3447266 0.4484863
vt 0.3364258 0.4379883
vt 0.3603516 0.4418945
vt 0.3613281 0.4282227
vt 0.3754883 0.4470215
vt 0.3859863 0.4387207
vt 0.3820801 0.4626465
vt 0.395752 0.463623
vt 0.3769531 0.4780273
vt 0.3852539 0.4882813
vt 0.3652344 0.4726563
vt 0.3513184 0.4677734
vt 0.3608398 0.4631348
vt 0.3564453 0.4538574
vt 0.3701172 0.4587402
vt 0.4470215 0.4243164
vt 0.4257813 0.4155273
vt 0.4472656 0.4458008
vt 0.4106445 0.4306641
vt 0.4169922 0.3942871
vt 0.3955078 0.3942871
vt 0.4257813 0.3728027
vt 0.4106445 0.3579102
vt 0.4470215 0.3642578
vt 0.4470215 0.3427734
vt 0.4685059 0.3730469
vt 0.4833984 0.357666
vt 0.4770508 0.3942871
vt 0.4985352 0.394043
vt 0.4682617 0.4155273
vt 0.4833984 0.4306641
vt 0.4470215 0.4689941
vt 0.394043 0.4470215
vt 0.3723145 0.394043
vt 0.394043 0.3413086
vt 0.4470215 0.3193359
vt 0.5 0.3413086
vt 0.5219727 0.3942871
vt 0.5 0.4472656
vt 0.4609375 0.3884277
vt 0.4411621 0.3803711
vt 0.4470215 0.3942871
vt 0.4331055 0.3999023
vt 0.4528809 0.407959
vt 0.4470215 0.4243164
vt 0.4257813 0.4155273
vt 0.4472656 0.4458008
vt 0.4106445 0.4306641
vt 0.4169922 0.3942871
vt 0.3955078 0.3942871
vt 0.4257813 0.3728027
vt 0.4106445 0.3579102
vt 0.4470215 0.3642578
vt 0.4470215 0.3427734
vt 0.4685059 0.3730469
vt 0.4833984 0.357666
vt 0.4770508 0.3942871
vt 0.4985352 0.394043
vt 0.4682617 0.4155273
vt 0.4833984 0.4306641
vt 0.4470215 0.4689941
vt 0.394043 0.4470215
vt 0.3723145 0.394043
vt 0.394043 0.3413086
vt 0.4470215 0.3193359
vt 0.5 0.3413086
vt 0.5219727 0.3942871
vt 0.5 0.4472656
vt 0.4609375 0.3884277
vt 0.4411621 0.3803711
vt 0.4470215 0.3942871
vt 0.4331055 0.3999023
vt 0.4528809 0.407959

g Tree2_big_(22)_2382_651
usemtl Tree2_big_(22)_2382_651
usemap Tree2_big_(22)_2382_651
f 1/1/1 3/3/3 2/2/2
f 2/2/2 3/3/3 4/4/4
f 2/2/2 4/4/4 5/5/5
f 5/5/5 4/4/4 6/6/6
f 5/5/5 6/6/6 7/7/7
f 7/7/7 6/6/6 8/8/8
f 7/7/7 8/8/8 9/9/9
f 9/9/9 8/8/8 10/10/10
f 9/9/9 10/10/10 11/11/11
f 11/11/11 10/10/10 12/12/12
f 11/11/11 12/12/12 13/13/13
f 13/13/13 12/12/12 14/14/14
f 13/13/13 14/14/14 15/15/15
f 15/15/15 14/14/14 16/16/16
f 15/15/15 16/16/16 1/1/1
f 1/1/1 16/16/16 3/3/3
f 15/15/15 1/1/1 17/17/17
f 1/1/1 2/2/2 17/17/17
f 17/17/17 2/2/2 18/18/18
f 2/2/2 5/5/5 18/18/18
f 5/5/5 7/7/7 18/18/18
f 17/17/17 18/18/18 19/19/19
f 18/18/18 20/20/20 19/19/19
f 18/18/18 7/7/7 20/20/20
f 7/7/7 9/9/9 20/20/20
f 9/9/9 11/11/11 20/20/20
f 20/20/20 21/21/21 19/19/19
f 21/21/21 17/17/17 19/19/19
f 20/20/20 11/11/11 21/21/21
f 11/11/11 13/13/13 21/21/21
f 13/13/13 15/15/15 21/21/21
f 21/21/21 15/15/15 17/17/17
f 22/22/22 24/24/24 23/23/23
f 23/23/23 24/24/24 25/25/25
f 23/23/23 25/25/25 26/26/26
f 26/26/26 25/25/25 27/27/27
f 26/26/26 27/27/27 28/28/28
f 28/28/28 27/27/27 29/29/29
f 28/28/28 29/29/29 30/30/30
f 30/30/30 29/29/29 31/31/31
f 30/30/30 31/31/31 32/32/32
f 32/32/32 31/31/31 33/33/33
f 32/32/32 33/33/33 34/34/34
f 34/34/34 33/33/33 35/35/35
f 34/34/34 35/35/35 36/36/36
f 36/36/36 35/35/35 37/37/37
f 36/36/36 37/37/37 22/22/22
f 22/22/22 37/37/37 24/24/24
f 24/24/24 38/38/38 25/25/25
f 25/25/25 38/38/38 39/39/39
f 25/25/25 39/39/39 27/27/27
f 27/27/27 39/39/39 40/40/40
f 27/27/27 40/40/40 29/29/29
f 29/29/29 40/40/40 41/41/41
f 29/29/29 41/41/41 31/31/31
f 31/31/31 41/41/41 42/42/42
f 31/31/31 42/42/42 33/33/33
f 33/33/33 42/42/42 43/43/43
f 33/33/33 43/43/43 35/35/35
f 35/35/35 43/43/43 44/44/44
f 35/35/35 44/44/44 37/37/37
f 37/37/37 44/44/44 45/45/45
f 37/37/37 45/45/45 24/24/24
f 24/24/24 45/45/45 38/38/38
f 32/32/32 34/34/34 46/46/46
f 34/34/34 36/36/36 46/46/46
f 47/47/47 32/32/32 46/46/46
f 47/47/47 46/46/46 48/48/48
f 49/49/49 47/47/47 48/48/48
f 50/50/50 49/49/49 48/48/48
f 46/46/46 50/50/50 48/48/48
f 50/50/50 23/23/23 49/49/49
f 22/22/22 23/23/23 50/50/50
f 36/36/36 22/22/22 50/50/50
f 46/46/46 36/36/36 50/50/50
f 23/23/23 26/26/26 49/49/49
f 26/26/26 28/28/28 49/49/49
f 49/49/49 28/28/28 47/47/47
f 28/28/28 30/30/30 47/47/47
f 30/30/30 32/32/32 47/47/47
f 51/51/51 53/53/53 52/52/52
f 52/52/52 53/53/53 54/54/54
f 52/52/52 54/54/54 55/55/55
f 55/55/55 54/54/54 56/56/56
f 55/55/55 56/56/56 57/57/57
f 57/57/57 56/56/56 58/58/58
f 57/57/57 58/58/58 59/59/59
f 59/59/59 58/58/58 60/60/60
f 59/59/59 60/60/60 61/61/61
f 61/61/61 60/60/60 62/62/62
f 61/61/61 62/62/62 63/63/63
f 63/63/63 62/62/62 64/64/64
f 63/63/63 64/64/64 65/65/65
f 65/65/65 64/64/64 66/66/66
f 65/65/65 66/66/66 51/51/51
f 51/51/51 66/66/66 53/53/53
f 53/53/53 67/67/67 54/54/54
f 54/54/54 67/67/67 68/68/68
f 54/54/54 68/68/68 56/56/56
f 56/56/56 68/68/68 69/69/69
f 56/56/56 69/69/69 58/58/58
f 58/58/58 69/69/69 70/70/70
f 58/58/58 70/70/70 60/60/60
f 60/60/60 70/70/70 71/71/71
f 60/60/60 71/71/71 62/62/62
f 62/62/62 71/71/71 72/72/72
f 62/62/62 72/72/72 64/64/64
f 64/64/64 72/72/72 73/73/73
f 64/64/64 73/73/73 66/66/66
f 66/66/66 73/73/73 74/74/74
f 66/66/66 74/74/74 53/53/53
f 53/53/53 74/74/74 67/67/67
f 61/61/61 63/63/63 75/75/75
f 63/63/63 65/65/65 75/75/75
f 76/76/76 61/61/61 75/75/75
f 76/76/76 75/75/75 77/77/77
f 78/78/78 76/76/76 77/77/77
f 79/79/79 78/78/78 77/77/77
f 75/75/75 79/79/79 77/77/77
f 79/79/79 52/52/52 78/78/78
f 51/51/51 52/52/52 79/79/79
f 65/65/65 51/51/51 79/79/79
f 75/75/75 65/65/65 79/79/79
f 52/52/52 55/55/55 78/78/78
f 55/55/55 57/57/57 78/78/78
f 78/78/78 57/57/57 76/76/76
f 57/57/57 59/59/59 76/76/76
f 59/59/59 61/61/61 76/76/76
