#Tree_conf1_(18)_2793_22.obj

v 0.1324652 -0.04437639 0.02974062
v 0.05209814 0.3509289 0.01169723
v 0.03219825 0.3509289 -0.04954865
v 0.08186734 -0.04437639 -0.1259823
v -0.03219825 0.3509289 -0.04954865
v -0.08186734 -0.04437639 -0.1259823
v -0.05209814 0.3509289 0.01169723
v -0.1324652 -0.04437639 0.02974062
v 0 0.3509289 0.04954865
v 0 -0.04437639 0.1259823
v 0.05209814 0.3509289 0.01169723
v 0.1324652 -0.04437639 0.02974062
v -0.01651554 2.018247 -0.02541527
v 0.01651554 2.018247 -0.02541527
v 0.0267237 2.018247 0.006000176
v 0.0267237 2.018247 0.006000176
v 0 2.018247 0.02541527
v -0.0267237 2.018247 0.006000176

vn 0.9335192 0.203269 0.2953365
vn 0.9467682 0.08719236 0.3098828
vn 0.5860714 0.09713161 -0.8044164
vn 0.5689806 0.2244589 -0.7911254
vn -0.5860719 0.09713168 -0.8044161
vn -0.5689803 0.224459 -0.7911255
vn -0.946768 0.0871923 0.3098836
vn -0.9335192 0.2032691 0.2953364
vn 0 0.0811393 0.9967028
vn 0 0.1898378 0.9818155
vn 0.9467682 0.08719236 0.3098828
vn 0.9335192 0.203269 0.2953365
vn -0.5879675 0.01723529 -0.808701
vn 0.5879667 0.01723531 -0.8087015
vn 0.9507748 0.01552718 0.3094934
vn 0.9507748 0.01552718 0.3094934
vn 0 0.01447243 0.9998953
vn -0.9507744 0.01552706 0.3094948

vt 0.4238281 0.003742218
vt 0.4238281 0.02593994
vt 0.4316406 0.02593994
vt 0.4316406 0.003742218
vt 0.4394531 0.02593994
vt 0.4394531 0.003740311
vt 0.4472656 0.02593994
vt 0.4472656 0.003740311
vt 0.4550781 0.02593994
vt 0.4550781 0.003740311
vt 0.4628906 0.02593994
vt 0.4628906 0.003738403
vt 0.4394531 0.1196289
vt 0.4318848 0.1196289
vt 0.4240723 0.1196289
vt 0.4628906 0.1195679
vt 0.4550781 0.1196289
vt 0.4472656 0.1196289

g Tree_conf1_(18)_2793_22
usemtl Tree_conf1_(18)_2793_22
usemap Tree_conf1_(18)_2793_22
f 1/1/1 3/3/3 2/2/2
f 1/1/1 4/4/4 3/3/3
f 4/4/4 5/5/5 3/3/3
f 4/4/4 6/6/6 5/5/5
f 6/6/6 7/7/7 5/5/5
f 6/6/6 8/8/8 7/7/7
f 8/8/8 9/9/9 7/7/7
f 8/8/8 10/10/10 9/9/9
f 10/10/10 11/11/11 9/9/9
f 10/10/10 12/12/12 11/11/11
f 3/3/3 5/5/5 13/13/13
f 3/3/3 13/13/13 14/14/14
f 2/2/2 3/3/3 14/14/14
f 2/2/2 14/14/14 15/15/15
f 9/9/9 11/11/11 16/16/16
f 9/9/9 16/16/16 17/17/17
f 7/7/7 9/9/9 17/17/17
f 7/7/7 17/17/17 18/18/18
f 5/5/5 18/18/18 13/13/13
f 5/5/5 7/7/7 18/18/18
