#Tree1_big_(1)_1576_244.obj

v -0.6182497 9.078475 -2.208994
v -1.956624 9.078475 -1.654623
v -0.6182508 7.871802 -2.873622
v -2.426589 7.871802 -2.124583
v -2.510994 9.078475 -0.3162475
v -3.175622 7.871802 -0.3162483
v -1.956623 9.078475 1.022125
v -2.426589 7.871802 1.492088
v -0.6182505 9.078475 1.576499
v -0.6182508 7.871802 2.241131
v 0.7201252 9.078475 1.022125
v 1.190089 7.871802 1.49209
v 1.274499 9.078475 -0.3162467
v 1.939127 7.871802 -0.3162496
v 0.7201259 9.078475 -1.654622
v 1.190088 7.871802 -2.124588
v -0.6182513 6.453654 -3.014159
v -2.525964 6.453654 -2.223962
v -3.316159 6.453654 -0.3162479
v -2.525964 6.453654 1.591462
v -0.6182509 6.453654 2.381664
v 1.289466 6.453654 1.591463
v 2.079667 6.453654 -0.3162506
v 1.289461 6.453654 -2.223963
v 0.1895352 9.631275 0.01834434
v -0.9528437 9.631275 0.491533
v -0.61825 9.738364 -0.3162467
v -1.42603 9.631275 -0.6508423
v -0.2836582 9.631275 -1.124026
v -0.6948277 7.599214 2.493763
v -1.767247 7.397913 2.84551
v -0.6220942 7.128533 1.599835
v -2.180308 6.836048 2.110916
v -2.24367 7.011633 3.814095
v -2.872546 6.274789 3.518245
v -1.845009 6.666648 4.832127
v -2.293295 5.77353 4.997432
v -0.8047968 6.565045 5.303267
v -0.7818826 5.625905 5.681985
v 0.2676273 6.766343 4.951515
v 0.7763317 5.918387 5.170908
v 0.7440514 7.152624 3.982937
v 1.468567 6.47965 3.763571
v 0.3453877 7.497609 2.964901
v 0.8893178 6.980906 2.284388
v -0.5593095 6.361987 1.12892
v -2.245909 6.045405 1.682103
v -2.995174 5.4379 3.205391
v -2.368204 4.895343 4.806452
v -0.7322606 4.735555 5.547409
v 0.9543415 5.052135 4.994217
v 1.703609 5.659639 3.47093
v 1.076634 6.202197 1.869874
v -0.1455861 7.368665 4.309996
v -1.06096 7.196845 4.610225
v -0.7827329 7.567374 4.075843
v -1.401235 7.491311 3.74128
v -0.4858702 7.663129 3.441048
v 4.854212 6.005301 -0.09644761
v 3.768889 6.251245 -1.023892
v 5.12635 4.682513 -0.3684112
v 3.659913 5.014816 -1.621521
v 2.371278 6.609351 -0.8934041
v 1.771544 5.498672 -1.445213
v 1.480096 6.869849 0.2185753
v 0.5674195 5.850641 0.05723144
v 1.61737 6.880144 1.660662
v 0.7528961 5.864551 2.005701
v 2.702699 6.634201 2.588107
v 2.219335 5.532247 3.258818
v 4.100303 6.276092 2.457623
v 4.107705 5.048391 3.08251
v 4.991495 6.015594 1.345642
v 5.311831 4.69642 1.580064
v 4.898443 3.275937 -0.3907042
v 3.351423 3.626502 -1.712677
v 1.359279 4.136947 -1.526677
v 0.08898239 4.50826 0.05832767
v 0.2846546 4.522932 2.113879
v 1.831679 4.172366 3.435857
v 3.823824 3.661921 3.24986
v 5.094117 3.290608 1.664844
v 3.454329 6.984561 1.63575
v 2.52794 7.194488 0.8441253
v 3.397758 7.082112 0.7621234
v 3.28862 6.972136 -0.1050082
v 4.214998 6.762214 0.686612

vn 0.1081451 0.5420592 -0.8333526
vn -0.5127993 0.5420586 -0.6657396
vn 0.1221831 0.3140009 -0.9415278
vn -0.5793642 0.3140011 -0.7521572
vn -0.8333526 0.5420592 -0.1081451
vn -0.9415278 0.3140009 -0.1221831
vn -0.6657399 0.542059 0.5127987
vn -0.7521572 0.3140011 0.5793642
vn -0.1081451 0.5420592 0.8333526
vn -0.1221831 0.3140009 0.9415278
vn 0.5127997 0.542059 0.6657391
vn 0.5793642 0.3140011 0.7521572
vn 0.8333526 0.5420592 0.1081451
vn 0.9415278 0.3140009 0.1221831
vn 0.6657391 0.542059 -0.5127997
vn 0.7521569 0.3140009 -0.5793648
vn 0.1270057 0.1613551 -0.97869
vn -0.6022317 0.161355 -0.7818449
vn -0.97869 0.1613551 -0.1270057
vn -0.7818449 0.161355 0.6022317
vn -0.1270057 0.1613551 0.97869
vn 0.6022317 0.161355 0.7818449
vn 0.97869 0.1613551 0.1270057
vn 0.7818445 0.1613549 -0.6022323
vn 0.2830309 0.9538103 0.1006951
vn -0.1006961 0.9538102 0.2830308
vn 0 1 0
vn -0.2830319 0.95381 -0.1006953
vn 0.1006951 0.9538103 -0.2830309
vn 0.07393106 0.7981869 -0.597856
vn -0.548103 0.6852556 -0.4795913
vn 0.1155026 0.6220729 -0.774393
vn -0.5872757 0.4944831 -0.640776
vn -0.8830876 0.468548 0.02487755
vn -0.965744 0.249645 -0.07082346
vn -0.7347941 0.275008 0.6200389
vn -0.7982007 0.030982 0.6015944
vn -0.1900898 0.2180079 0.9572557
vn -0.1827906 -0.03341699 0.9825838
vn 0.4319446 0.330939 0.8389894
vn 0.5199875 0.09417299 0.8489667
vn 0.7669283 0.547647 0.3345202
vn 0.898456 0.339011 0.2790132
vn 0.6186343 0.7411867 -0.2606409
vn 0.7309119 0.557674 -0.3934048
vn 0.1377442 0.4919271 -0.8596711
vn -0.5927721 0.3593008 -0.7207803
vn -0.9861786 0.1047991 -0.1283314
vn -0.8120225 -0.122495 0.5706264
vn -0.1723215 -0.189435 0.9666538
vn 0.5581953 -0.056809 0.8277626
vn 0.9516014 0.1976929 0.2353131
vn 0.777445 0.4249861 -0.4636444
vn 0.1676848 0.885857 0.4325959
vn -0.2142303 0.7939746 0.568955
vn -0.1071469 0.9373471 0.3315117
vn -0.3725064 0.9059739 0.2011228
vn 0.009407594 0.9978563 0.06476424
vn 0.8968197 0.331016 -0.293501
vn 0.4719546 0.4402091 -0.7638552
vn 0.9394342 0.08483202 -0.3320647
vn 0.4594186 0.2082001 -0.863474
vn -0.1508501 0.5992017 -0.7862579
vn -0.2442304 0.3878301 -0.8887853
vn -0.6067636 0.714857 -0.3475879
vn -0.7593253 0.5184991 -0.3931715
vn -0.6287187 0.719427 0.2951905
vn -0.7841303 0.523662 0.3330432
vn -0.2038526 0.610234 0.7655447
vn -0.304115 0.4002951 0.8644524
vn 0.4189522 0.4512419 0.7879466
vn 0.3995356 0.2206639 0.8897634
vn 0.874865 0.335586 0.3492755
vn 0.9146297 0.08999498 0.394149
vn 0.9356996 -0.07173201 -0.3454284
vn 0.4367378 0.05650397 -0.8978126
vn -0.2946842 0.243225 -0.9241228
vn -0.8301095 0.379052 -0.408947
vn -0.8558937 0.384418 0.3459318
vn -0.356932 0.2561819 0.8983153
vn 0.3744914 0.06946103 0.924625
vn 0.9099156 -0.06636602 0.4094497
vn 0.2778494 0.9129925 0.2987383
vn -0.0521608 0.9976278 0.04492185
vn 0.247299 0.9689379 0.001557352
vn 0.1939033 0.9353735 -0.2957667
vn 0.5239132 0.850738 -0.04195037

vt 0.4470215 0.4243164
vt 0.4257813 0.4155273
vt 0.4472656 0.4458008
vt 0.4106445 0.4306641
vt 0.4169922 0.3942871
vt 0.3955078 0.3942871
vt 0.4257813 0.3728027
vt 0.4106445 0.3579102
vt 0.4470215 0.3642578
vt 0.4470215 0.3427734
vt 0.4685059 0.3730469
vt 0.4833984 0.357666
vt 0.4770508 0.3942871
vt 0.4985352 0.394043
vt 0.4682617 0.4155273
vt 0.4833984 0.4306641
vt 0.4470215 0.4689941
vt 0.394043 0.4470215
vt 0.3723145 0.394043
vt 0.394043 0.3413086
vt 0.4470215 0.3193359
vt 0.5 0.3413086
vt 0.5219727 0.3942871
vt 0.5 0.4472656
vt 0.4609375 0.3884277
vt 0.4411621 0.3803711
vt 0.4470215 0.3942871
vt 0.4331055 0.3999023
vt 0.4528809 0.407959
vt 0.3144531 0.4064941
vt 0.2939453 0.3986816
vt 0.3151855 0.4223633
vt 0.2832031 0.4101563
vt 0.2856445 0.3781738
vt 0.2697754 0.3789063
vt 0.293457 0.357666
vt 0.2817383 0.3469238
vt 0.3139648 0.3493652
vt 0.3132324 0.333252
vt 0.3344727 0.3571777
vt 0.3452148 0.345459
vt 0.3427734 0.3776855
vt 0.3586426 0.3769531
vt 0.3349609 0.3981934
vt 0.3464355 0.4089355
vt 0.3132324 0.4384766
vt 0.2705078 0.420166
vt 0.253418 0.3769531
vt 0.2717285 0.3342285
vt 0.3151855 0.3171387
vt 0.357666 0.3354492
vt 0.375 0.3786621
vt 0.3564453 0.4213867
vt 0.3261719 0.3720703
vt 0.3083496 0.3659668
vt 0.314209 0.3779297
vt 0.3022461 0.3837891
vt 0.3200684 0.3898926
vt 0.4470215 0.4243164
vt 0.4257813 0.4155273
vt 0.4472656 0.4458008
vt 0.4106445 0.4306641
vt 0.4169922 0.3942871
vt 0.3955078 0.3942871
vt 0.4257813 0.3728027
vt 0.4106445 0.3579102
vt 0.4470215 0.3642578
vt 0.4470215 0.3427734
vt 0.4685059 0.3730469
vt 0.4833984 0.357666
vt 0.4770508 0.3942871
vt 0.4985352 0.394043
vt 0.4682617 0.4155273
vt 0.4833984 0.4306641
vt 0.4470215 0.4689941
vt 0.394043 0.4470215
vt 0.3723145 0.394043
vt 0.394043 0.3413086
vt 0.4470215 0.3193359
vt 0.5 0.3413086
vt 0.5219727 0.3942871
vt 0.5 0.4472656
vt 0.4609375 0.3884277
vt 0.4411621 0.3803711
vt 0.4470215 0.3942871
vt 0.4331055 0.3999023
vt 0.4528809 0.407959

g Tree1_big_(1)_1576_244
usemtl Tree1_big_(1)_1576_244
usemap Tree1_big_(1)_1576_244
f 1/1/1 3/3/3 2/2/2
f 2/2/2 3/3/3 4/4/4
f 2/2/2 4/4/4 5/5/5
f 5/5/5 4/4/4 6/6/6
f 5/5/5 6/6/6 7/7/7
f 7/7/7 6/6/6 8/8/8
f 7/7/7 8/8/8 9/9/9
f 9/9/9 8/8/8 10/10/10
f 9/9/9 10/10/10 11/11/11
f 11/11/11 10/10/10 12/12/12
f 11/11/11 12/12/12 13/13/13
f 13/13/13 12/12/12 14/14/14
f 13/13/13 14/14/14 15/15/15
f 15/15/15 14/14/14 16/16/16
f 15/15/15 16/16/16 1/1/1
f 1/1/1 16/16/16 3/3/3
f 3/3/3 17/17/17 4/4/4
f 4/4/4 17/17/17 18/18/18
f 4/4/4 18/18/18 6/6/6
f 6/6/6 18/18/18 19/19/19
f 6/6/6 19/19/19 8/8/8
f 8/8/8 19/19/19 20/20/20
f 8/8/8 20/20/20 10/10/10
f 10/10/10 20/20/20 21/21/21
f 10/10/10 21/21/21 12/12/12
f 12/12/12 21/21/21 22/22/22
f 12/12/12 22/22/22 14/14/14
f 14/14/14 22/22/22 23/23/23
f 14/14/14 23/23/23 16/16/16
f 16/16/16 23/23/23 24/24/24
f 16/16/16 24/24/24 3/3/3
f 3/3/3 24/24/24 17/17/17
f 11/11/11 13/13/13 25/25/25
f 13/13/13 15/15/15 25/25/25
f 26/26/26 11/11/11 25/25/25
f 26/26/26 25/25/25 27/27/27
f 28/28/28 26/26/26 27/27/27
f 29/29/29 28/28/28 27/27/27
f 25/25/25 29/29/29 27/27/27
f 29/29/29 2/2/2 28/28/28
f 1/1/1 2/2/2 29/29/29
f 15/15/15 1/1/1 29/29/29
f 25/25/25 15/15/15 29/29/29
f 2/2/2 5/5/5 28/28/28
f 5/5/5 7/7/7 28/28/28
f 28/28/28 7/7/7 26/26/26
f 7/7/7 9/9/9 26/26/26
f 9/9/9 11/11/11 26/26/26
f 30/30/30 32/32/32 31/31/31
f 31/31/31 32/32/32 33/33/33
f 31/31/31 33/33/33 34/34/34
f 34/34/34 33/33/33 35/35/35
f 34/34/34 35/35/35 36/36/36
f 36/36/36 35/35/35 37/37/37
f 36/36/36 37/37/37 38/38/38
f 38/38/38 37/37/37 39/39/39
f 38/38/38 39/39/39 40/40/40
f 40/40/40 39/39/39 41/41/41
f 40/40/40 41/41/41 42/42/42
f 42/42/42 41/41/41 43/43/43
f 42/42/42 43/43/43 44/44/44
f 44/44/44 43/43/43 45/45/45
f 44/44/44 45/45/45 30/30/30
f 30/30/30 45/45/45 32/32/32
f 32/32/32 46/46/46 33/33/33
f 33/33/33 46/46/46 47/47/47
f 33/33/33 47/47/47 35/35/35
f 35/35/35 47/47/47 48/48/48
f 35/35/35 48/48/48 37/37/37
f 37/37/37 48/48/48 49/49/49
f 37/37/37 49/49/49 39/39/39
f 39/39/39 49/49/49 50/50/50
f 39/39/39 50/50/50 41/41/41
f 41/41/41 50/50/50 51/51/51
f 41/41/41 51/51/51 43/43/43
f 43/43/43 51/51/51 52/52/52
f 43/43/43 52/52/52 45/45/45
f 45/45/45 52/52/52 53/53/53
f 45/45/45 53/53/53 32/32/32
f 32/32/32 53/53/53 46/46/46
f 40/40/40 42/42/42 54/54/54
f 42/42/42 44/44/44 54/54/54
f 55/55/55 40/40/40 54/54/54
f 55/55/55 54/54/54 56/56/56
f 57/57/57 55/55/55 56/56/56
f 58/58/58 57/57/57 56/56/56
f 54/54/54 58/58/58 56/56/56
f 58/58/58 31/31/31 57/57/57
f 30/30/30 31/31/31 58/58/58
f 44/44/44 30/30/30 58/58/58
f 54/54/54 44/44/44 58/58/58
f 31/31/31 34/34/34 57/57/57
f 34/34/34 36/36/36 57/57/57
f 57/57/57 36/36/36 55/55/55
f 36/36/36 38/38/38 55/55/55
f 38/38/38 40/40/40 55/55/55
f 59/59/59 61/61/61 60/60/60
f 60/60/60 61/61/61 62/62/62
f 60/60/60 62/62/62 63/63/63
f 63/63/63 62/62/62 64/64/64
f 63/63/63 64/64/64 65/65/65
f 65/65/65 64/64/64 66/66/66
f 65/65/65 66/66/66 67/67/67
f 67/67/67 66/66/66 68/68/68
f 67/67/67 68/68/68 69/69/69
f 69/69/69 68/68/68 70/70/70
f 69/69/69 70/70/70 71/71/71
f 71/71/71 70/70/70 72/72/72
f 71/71/71 72/72/72 73/73/73
f 73/73/73 72/72/72 74/74/74
f 73/73/73 74/74/74 59/59/59
f 59/59/59 74/74/74 61/61/61
f 61/61/61 75/75/75 62/62/62
f 62/62/62 75/75/75 76/76/76
f 62/62/62 76/76/76 64/64/64
f 64/64/64 76/76/76 77/77/77
f 64/64/64 77/77/77 66/66/66
f 66/66/66 77/77/77 78/78/78
f 66/66/66 78/78/78 68/68/68
f 68/68/68 78/78/78 79/79/79
f 68/68/68 79/79/79 70/70/70
f 70/70/70 79/79/79 80/80/80
f 70/70/70 80/80/80 72/72/72
f 72/72/72 80/80/80 81/81/81
f 72/72/72 81/81/81 74/74/74
f 74/74/74 81/81/81 82/82/82
f 74/74/74 82/82/82 61/61/61
f 61/61/61 82/82/82 75/75/75
f 69/69/69 71/71/71 83/83/83
f 71/71/71 73/73/73 83/83/83
f 84/84/84 69/69/69 83/83/83
f 84/84/84 83/83/83 85/85/85
f 86/86/86 84/84/84 85/85/85
f 87/87/87 86/86/86 85/85/85
f 83/83/83 87/87/87 85/85/85
f 87/87/87 60/60/60 86/86/86
f 59/59/59 60/60/60 87/87/87
f 73/73/73 59/59/59 87/87/87
f 83/83/83 73/73/73 87/87/87
f 60/60/60 63/63/63 86/86/86
f 63/63/63 65/65/65 86/86/86
f 86/86/86 65/65/65 84/84/84
f 65/65/65 67/67/67 84/84/84
f 67/67/67 69/69/69 84/84/84
