#Tree_conf1_(52)_2657_628.obj

v 0.132465 -0.04437639 0.02974014
v 0.05209954 0.3509289 0.01169473
v 0.03219862 0.3509289 -0.04954857
v 0.08186823 -0.04437639 -0.1259825
v -0.03219823 0.3509289 -0.04954954
v -0.08186778 -0.04437639 -0.1259834
v -0.05209801 0.3509289 0.01169626
v -0.1324651 -0.04437639 0.02973867
v 1.14666E-06 0.3509289 0.04954519
v 6.314664E-07 -0.04437639 0.1259789
v 0.05209954 0.3509289 0.01169473
v 0.132465 -0.04437639 0.02974014
v -0.01651653 2.018247 -0.02541578
v 0.01651727 2.018247 -0.02541886
v 0.02672504 2.018247 0.005996686
v 0.02672504 2.018247 0.005996686
v 3.00932E-07 2.018247 0.02541539
v -0.02672275 2.018247 0.005997551

vn 0.9787372 0.203269 -0.02748072
vn 0.9960271 0.08719235 -0.01808989
vn 0.2895238 0.0971316 -0.9522294
vn 0.2777431 0.2244588 -0.9340644
vn -0.8176621 0.09713166 -0.5674446
vn -0.7971548 0.224459 -0.5605013
vn -0.7925737 0.08719229 0.60351
vn -0.7848347 0.203269 0.5854198
vn 0.3271917 0.0811393 0.9414675
vn 0.3223045 0.1898378 0.9274052
vn 0.9960271 0.08719235 -0.01808989
vn 0.9787372 0.203269 -0.02748072
vn -0.8208593 0.01723529 -0.5708698
vn 0.2899073 0.01723531 -0.9568992
vn 0.9996839 0.01552718 -0.01977295
vn 0.9996839 0.01552718 -0.01977295
vn 0.3282396 0.01447243 0.944483
vn -0.7964857 0.01552705 0.6044579

vt 0.4238281 0.003742218
vt 0.4238281 0.02593994
vt 0.4316406 0.02593994
vt 0.4316406 0.003742218
vt 0.4394531 0.02593994
vt 0.4394531 0.003740311
vt 0.4472656 0.02593994
vt 0.4472656 0.003740311
vt 0.4550781 0.02593994
vt 0.4550781 0.003740311
vt 0.4628906 0.02593994
vt 0.4628906 0.003738403
vt 0.4394531 0.1196289
vt 0.4318848 0.1196289
vt 0.4240723 0.1196289
vt 0.4628906 0.1195679
vt 0.4550781 0.1196289
vt 0.4472656 0.1196289

g Tree_conf1_(52)_2657_628
usemtl Tree_conf1_(52)_2657_628
usemap Tree_conf1_(52)_2657_628
f 1/1/1 3/3/3 2/2/2
f 1/1/1 4/4/4 3/3/3
f 4/4/4 5/5/5 3/3/3
f 4/4/4 6/6/6 5/5/5
f 6/6/6 7/7/7 5/5/5
f 6/6/6 8/8/8 7/7/7
f 8/8/8 9/9/9 7/7/7
f 8/8/8 10/10/10 9/9/9
f 10/10/10 11/11/11 9/9/9
f 10/10/10 12/12/12 11/11/11
f 3/3/3 5/5/5 13/13/13
f 3/3/3 13/13/13 14/14/14
f 2/2/2 3/3/3 14/14/14
f 2/2/2 14/14/14 15/15/15
f 9/9/9 11/11/11 16/16/16
f 9/9/9 16/16/16 17/17/17
f 7/7/7 9/9/9 17/17/17
f 7/7/7 17/17/17 18/18/18
f 5/5/5 18/18/18 13/13/13
f 5/5/5 7/7/7 18/18/18
