#Tree_conf1_(70)_3034_466.obj

v 0.1094561 1.578246 0.366134
v 0.03892439 1.930737 0.1420341
v 0.1273208 1.938304 0.07318385
v 0.3483662 1.598699 0.1800515
v 0.1409891 1.947921 -0.03793333
v 0.3853084 1.62469 -0.120271
v 0.0719235 1.953952 -0.1262281
v 0.1986424 1.640992 -0.3589094
v -0.03941667 1.952867 -0.1399767
v -0.1022859 1.638057 -0.3960706
v -0.1278131 1.945299 -0.0711264
v -0.341196 1.617604 -0.2099881
v -0.1414814 1.935683 0.03999078
v -0.3781382 1.591613 0.09033442
v -0.07241709 1.929651 0.128284
v -0.1914722 1.575311 0.3289728
v -0.003585904 2.232562 0.01496893
v -0.5621588 0.6246044 0.6367053
v -0.1598653 0.849957 0.4109197
v 0.04298866 0.6214363 0.8242583
v 0.3784055 0.8471389 0.1273566
v 0.6035107 0.6185017 0.5289732
v 0.791064 0.61752 -0.07617708
v 0.2650524 0.8477323 -0.3581663
v 0.4957807 0.6190658 -0.6367033
v -0.2330177 0.8503399 -0.3806184
v -0.1093652 0.622234 -0.8242576
v -0.6698886 0.6251684 -0.5289741
v -0.4961773 0.8517178 0.04285157
v -0.8574405 0.6261503 0.07617783
v -0.0438257 1.230687 -3.581889E-07
v -0.3161328 1.416121 -0.4689021
v -0.2401686 1.556894 -0.1451867
v -0.5581536 1.372669 -0.107845
v -0.1586019 1.489291 0.2622054
v -0.4732153 1.302272 0.3163866
v -0.1110734 1.246167 0.5552832
v 0.1835748 1.468478 0.2808055
v 0.3161328 1.23722 0.4689021
v 0.295827 1.512721 -0.04162243
v 0.5581536 1.280672 0.107845
v 0.4732153 1.351069 -0.3163866
v 0.06822182 1.564082 -0.2953317
v 0.1110734 1.407174 -0.5552832
v 0.0200923 1.826264 0.05963241
v 0.3820779 1.057775 0.6121239
v 0.3001455 1.251559 0.223978
v 0.6914652 1.055051 0.1637027
v 0.2057354 1.249136 -0.290599
v 0.5931509 1.052527 -0.3721459
v 0.1447268 1.051683 -0.6815335
v -0.221825 1.249646 -0.3223175
v -0.3911257 1.053012 -0.5832239
v -0.3682122 1.251888 0.08064882
v -0.700513 1.055737 -0.1348026
v -0.6021987 1.05826 0.4010459
v -0.08830737 1.253073 0.4054058
v -0.1537746 1.059104 0.7104335
v -0.007256655 1.578954 0.02318039

vn 0.8238184 0.4115614 0.3897955
vn 0.7621728 0.5340773 0.3658608
vn 0.7869291 0.5632517 -0.2519724
vn 0.8513861 0.4410966 -0.2838583
vn 0.3651248 0.601443 -0.7105985
vn 0.3915904 0.4797607 -0.7851666
vn -0.2642618 0.6261111 -0.7335876
vn -0.2958763 0.5047327 -0.8109884
vn -0.7239187 0.6216262 -0.2992034
vn -0.7979119 0.5001928 -0.3363686
vn -0.7367626 0.5908968 0.3286667
vn -0.8110872 0.4690854 0.3494233
vn -0.3048362 0.5530603 0.7753704
vn -0.3390785 0.43078 0.8363339
vn 0.3126541 0.5299489 0.7882903
vn 0.3340127 0.4073828 0.8499852
vn 0.05167011 0.9962847 0.06889922
vn 0.1959537 0.6754404 0.7109026
vn 0.3085761 0.8853249 0.3478228
vn 0.6849744 0.6235922 0.3767529
vn 0.4202054 0.8844 -0.2031356
vn 0.7921478 0.5780542 -0.1958456
vn 0.4720368 0.5632923 -0.6781468
vn -0.08654568 0.8687779 -0.4875807
vn -0.09330833 0.5866373 -0.8044565
vn -0.4949986 0.8619227 -0.1098443
vn -0.5900528 0.636367 -0.496865
vn -0.7237893 0.6849957 0.0831264
vn -0.2772247 0.8707366 0.4061581
vn -0.3959846 0.701885 0.5920757
vn 0.07713121 0.9926715 -0.09302732
vn -0.829894 0.5518385 -0.08216009
vn -0.3685697 0.8873515 0.2770628
vn -0.6449205 0.551837 0.5287283
vn 0.2037097 0.7936296 0.5732839
vn -0.08216009 0.5518385 0.829894
vn 0.5287275 0.5518387 0.6449195
vn 0.6705575 0.735074 0.100094
vn 0.829894 0.5518385 0.08216009
vn 0.3939 0.7923027 -0.4659392
vn 0.6449205 0.551837 -0.5287283
vn 0.08216009 0.5518385 -0.829894
vn -0.2390856 0.8842495 -0.4011744
vn -0.5287275 0.5518387 -0.6449195
vn 0 1 0
vn 0.7369772 0.6754404 0.02539408
vn 0.4241296 0.8853248 -0.1905622
vn 0.5641955 0.6235922 -0.5411249
vn -0.0683118 0.8844 -0.4617035
vn 0.04977092 0.5780542 -0.8144791
vn -0.5061411 0.5632923 -0.6530873
vn -0.4911677 0.8687779 -0.06308272
vn -0.7955905 0.5866374 -0.1513023
vn -0.2527187 0.8619227 0.4395708
vn -0.6504615 0.6363669 0.4146529
vn -0.136918 0.6849957 0.7155658
vn 0.3047799 0.8707365 0.3859109
vn 0.4467235 0.701885 0.5547933
vn -0.06573364 0.9926715 -0.1014021

vt 0.3461914 0.0803833
vt 0.3190918 0.06854248
vt 0.3068848 0.08081055
vt 0.3181152 0.1083374
vt 0.2895508 0.08081055
vt 0.2785645 0.1083374
vt 0.2770996 0.06854248
vt 0.2504883 0.08032227
vt 0.2770996 0.05114746
vt 0.2504883 0.04064941
vt 0.2895508 0.03884888
vt 0.2785645 0.01256561
vt 0.3068848 0.03887939
vt 0.3183594 0.01262665
vt 0.3190918 0.0512085
vt 0.3464355 0.04077148
vt 0.2978516 0.05935669
vt 0.2459717 0.0847168
vt 0.213623 0.08380127
vt 0.2144775 0.1161499
vt 0.1708984 0.08374023
vt 0.1700439 0.1160889
vt 0.1385498 0.08459473
vt 0.1621094 0.04983521
vt 0.1385498 0.0401001
vt 0.1923828 0.03216553
vt 0.1700439 0.008682251
vt 0.2145996 0.008712769
vt 0.2225342 0.04989624
vt 0.2460938 0.04019165
vt 0.1922607 0.06237793
vt 0.2459717 0.0847168
vt 0.213623 0.08380127
vt 0.2144775 0.1161499
vt 0.1708984 0.08374023
vt 0.1700439 0.1160889
vt 0.1385498 0.08459473
vt 0.1621094 0.04983521
vt 0.1385498 0.0401001
vt 0.1923828 0.03216553
vt 0.1700439 0.008682251
vt 0.2145996 0.008712769
vt 0.2225342 0.04989624
vt 0.2460938 0.04019165
vt 0.1922607 0.06237793
vt 0.2459717 0.0847168
vt 0.213623 0.08380127
vt 0.2144775 0.1161499
vt 0.1708984 0.08374023
vt 0.1700439 0.1160889
vt 0.1385498 0.08459473
vt 0.1621094 0.04983521
vt 0.1385498 0.0401001
vt 0.1923828 0.03216553
vt 0.1700439 0.008682251
vt 0.2145996 0.008712769
vt 0.2225342 0.04989624
vt 0.2460938 0.04019165
vt 0.1922607 0.06237793

g Tree_conf1_(70)_3034_466
usemtl Tree_conf1_(70)_3034_466
usemap Tree_conf1_(70)_3034_466
f 1/1/1 3/3/3 2/2/2
f 1/1/1 4/4/4 3/3/3
f 4/4/4 5/5/5 3/3/3
f 4/4/4 6/6/6 5/5/5
f 6/6/6 7/7/7 5/5/5
f 6/6/6 8/8/8 7/7/7
f 8/8/8 9/9/9 7/7/7
f 8/8/8 10/10/10 9/9/9
f 10/10/10 11/11/11 9/9/9
f 10/10/10 12/12/12 11/11/11
f 12/12/12 13/13/13 11/11/11
f 12/12/12 14/14/14 13/13/13
f 14/14/14 15/15/15 13/13/13
f 14/14/14 16/16/16 15/15/15
f 16/16/16 2/2/2 15/15/15
f 16/16/16 1/1/1 2/2/2
f 2/2/2 3/3/3 17/17/17
f 3/3/3 5/5/5 17/17/17
f 5/5/5 7/7/7 17/17/17
f 7/7/7 9/9/9 17/17/17
f 9/9/9 11/11/11 17/17/17
f 11/11/11 13/13/13 17/17/17
f 13/13/13 15/15/15 17/17/17
f 15/15/15 2/2/2 17/17/17
f 18/18/18 20/20/20 19/19/19
f 20/20/20 21/21/21 19/19/19
f 20/20/20 22/22/22 21/21/21
f 22/22/22 23/23/23 21/21/21
f 23/23/23 24/24/24 21/21/21
f 23/23/23 25/25/25 24/24/24
f 25/25/25 26/26/26 24/24/24
f 25/25/25 27/27/27 26/26/26
f 27/27/27 28/28/28 26/26/26
f 28/28/28 29/29/29 26/26/26
f 28/28/28 30/30/30 29/29/29
f 30/30/30 19/19/19 29/29/29
f 30/30/30 18/18/18 19/19/19
f 19/19/19 21/21/21 31/31/31
f 21/21/21 24/24/24 31/31/31
f 24/24/24 26/26/26 31/31/31
f 26/26/26 29/29/29 31/31/31
f 29/29/29 19/19/19 31/31/31
f 32/32/32 34/34/34 33/33/33
f 34/34/34 35/35/35 33/33/33
f 34/34/34 36/36/36 35/35/35
f 36/36/36 37/37/37 35/35/35
f 37/37/37 38/38/38 35/35/35
f 37/37/37 39/39/39 38/38/38
f 39/39/39 40/40/40 38/38/38
f 39/39/39 41/41/41 40/40/40
f 41/41/41 42/42/42 40/40/40
f 42/42/42 43/43/43 40/40/40
f 42/42/42 44/44/44 43/43/43
f 44/44/44 33/33/33 43/43/43
f 44/44/44 32/32/32 33/33/33
f 33/33/33 35/35/35 45/45/45
f 35/35/35 38/38/38 45/45/45
f 38/38/38 40/40/40 45/45/45
f 40/40/40 43/43/43 45/45/45
f 43/43/43 33/33/33 45/45/45
f 46/46/46 48/48/48 47/47/47
f 48/48/48 49/49/49 47/47/47
f 48/48/48 50/50/50 49/49/49
f 50/50/50 51/51/51 49/49/49
f 51/51/51 52/52/52 49/49/49
f 51/51/51 53/53/53 52/52/52
f 53/53/53 54/54/54 52/52/52
f 53/53/53 55/55/55 54/54/54
f 55/55/55 56/56/56 54/54/54
f 56/56/56 57/57/57 54/54/54
f 56/56/56 58/58/58 57/57/57
f 58/58/58 47/47/47 57/57/57
f 58/58/58 46/46/46 47/47/47
f 47/47/47 49/49/49 59/59/59
f 49/49/49 52/52/52 59/59/59
f 52/52/52 54/54/54 59/59/59
f 54/54/54 57/57/57 59/59/59
f 57/57/57 47/47/47 59/59/59
