#Tree2_(2)_2540_6.obj

v 0.7752668 1.310929 0.07278393
v 1.306421 2.346469 -0.3110485
v 1.184128 2.31463 -0.5785239
v 0.4093682 1.223058 -0.145441
v 0.5879225 1.480954 0.5344523
v 1.15513 2.463786 -0.08553857
v 0.3771304 1.588565 0.773286
v 1.064944 4.630815 -1.694033
v 1.167389 4.630815 -1.446711
v 1.064945 4.630815 -1.199391
v 0.7982636 2.602398 -0.01764339
v 0.05036815 1.736241 0.6994722
v 0.4403843 2.6719 -0.1771069
v -0.5084209 1.564545 0.3430327
v 0.297912 2.670999 -0.341251
v -0.3605404 1.480954 -0.01388156
v 0.4708399 2.515306 -0.6946605
v -0.01738962 1.301476 -0.4783559
v 0.4678686 4.630815 -1.44671
v 0.5702863 4.630815 -1.694031
v 0.8413228 2.380942 -0.7495837
v -0.01738962 1.301476 -0.4783559
v 0.8176166 4.630815 -1.796474
v 1.184128 2.31463 -0.5785239
v 0.4093682 1.223058 -0.145441
v -0.01738962 1.301476 -0.4783559
v 1.064944 4.630815 -1.694033
v 0.570284 4.630815 -1.199396
v 0.8176175 4.630815 -1.09695
v -0.4733658 0.3292439 -0.1358122
v -0.6694379 0.4708683 0.2543004
v -0.4733654 0.6728067 0.6444134
v 1.614704E-06 0.4708683 0.8060045
v 0.4733767 0.4910424 -0.200449
v 2.083721E-06 0.8423996 -0.6920137
v 0.561094 0.7986991 0.565973
v 0.8372397 0.6728067 0.1318396
v 0.4733767 0.4910424 -0.200449
v -0.9349064 0.2222972 0.7275547
v -0.5725077 0.1527944 0.9643123
v -0.023563 -0.1077578 0.7724637
v -0.5089799 -0.1176493 0.8692776
v -0.8674645 -0.1360745 1.196742
v -0.7166205 -0.3318532 1.150714
v -0.8674645 -0.1360745 1.196742
v -1.033333 -0.5150276 1.527072
v 0.7858714 0.2580049 0.7238595
v 0.4410261 -0.2057266 0.939102
v 0.7991842 -0.1077578 0.2311959
v 0.9088821 -0.2057266 0.583247
v 0.9399624 -0.5151595 1.170655
v -0.9349064 0.2222972 0.7275547
v -0.8674645 -0.1360745 1.196742
v -1.094451 -0.3417804 1.009753
v -1.033333 -0.5150276 1.527072
v -0.9696437 -0.1331239 0.4415183
v -0.9349064 0.2222972 0.7275547
v -0.8137791 -0.1077578 0.171422
v -1.428053 -0.3506457 -0.2965559
v -1.428053 -0.3506457 -0.2965559
v 0.02662176 0.309643 -0.6717812
v -0.5823331 -0.1077578 -0.2535739
v -0.3954318 -0.2645998 -0.6329547
v 0.0754801 -0.6410102 -1.310641
v 0.2633078 -0.2645998 -0.632955
v 0.5026558 -0.1077578 -0.3133475
v 2.083721E-06 0.8423996 -0.6920137
v -1.428053 -0.3506457 -0.2965559
v 0.5026558 -0.1077578 -0.3133475
v 1.175221 -0.4948694 -0.2139316
v 1.175221 -0.4948694 -0.2139316
v -0.05483475 1.150024 0.06832267
v -0.6271837 1.569091 0.08067697
v -0.7951847 1.419268 0.03679586
v -0.1862151 1.032856 0.0340041
v -0.337722 0.984323 0.116852
v -0.02051639 1.267193 0.1997027
v -0.1033768 1.315726 0.351196
v -0.7331259 1.631149 0.2743835
v -0.2548577 1.267193 0.434045
v -0.3862439 1.150024 0.3997211
v -0.9011278 1.481326 0.2305029
v -0.4205607 1.032856 0.2683401
v -0.8381229 1.816107 -0.5210722
v -0.7044663 1.935304 -0.4861597
v -0.7044663 1.935304 -0.4861597
v -1.142114 2.360987 -0.6409969
v -0.337722 0.984323 0.116852
v -0.9011278 1.481326 0.2305029
v -0.7951847 1.419268 0.03679586
v -0.9224114 1.86548 -0.3669623
v -0.8381229 1.816107 -0.5210722
v -0.9224114 1.86548 -0.3669623
v -1.214081 2.403146 -0.5094056
v -1.142114 2.360987 -0.6409969
v -0.7044663 1.935304 -0.4861597
v -1.027986 2.462767 -0.6111873
v -1.214081 2.403146 -0.5094056
v -1.099951 2.504926 -0.4795976
v -0.7887548 1.984677 -0.3320498
v -0.7887548 1.984677 -0.3320498
v -1.099951 2.504926 -0.4795976
v -0.7044663 1.935304 -0.4861597
v -0.9011278 1.481326 0.2305029
v -0.7887548 1.984677 -0.3320498
v -0.9224114 1.86548 -0.3669623

vn 0.7371851 -0.3371709 0.5855545
vn 0.8070924 -0.352839 0.4733989
vn 0.8629199 -0.441645 -0.2455996
vn 0.8800845 -0.246164 -0.406023
vn 0.1089074 0.08349802 0.990539
vn 0.317693 0.134854 0.938555
vn -0.4627513 0.2369131 0.8542444
vn 0.9099432 -0.251435 -0.3298241
vn 0.8883699 0.021219 0.458638
vn 0.3753932 0.274749 0.8852079
vn -0.203404 0.44408 0.8725938
vn -0.8757701 0.3261311 0.3559007
vn -0.6947567 0.5701939 0.4383971
vn -0.8357732 0.352136 -0.4212878
vn -0.8506838 0.3675431 -0.3758314
vn -0.3444968 0.190888 -0.9191756
vn -0.3141414 -0.08098095 -0.9459162
vn 0.2898502 -0.143503 -0.9462525
vn -0.8196847 0.06846599 -0.5687085
vn -0.2589877 -0.2562009 -0.9312822
vn 0.3908802 -0.327403 -0.8602442
vn 0.2898502 -0.143503 -0.9462525
vn 0.3761476 -0.351269 -0.8573932
vn 0.8629199 -0.441645 -0.2455996
vn 0.8800845 -0.246164 -0.406023
vn 0.2898502 -0.143503 -0.9462525
vn 0.9099432 -0.251435 -0.3298241
vn -0.8149692 0.475129 0.3317795
vn -0.257967 0.4572679 0.8510929
vn -0.1453318 0.3460911 -0.9268763
vn -0.7537029 0.452247 -0.4768696
vn -0.8490047 0.4481292 0.2799488
vn -0.4645979 0.167681 0.8695009
vn 0.9161515 0.195953 -0.3496697
vn 0.5007861 0.2755259 -0.8205478
vn 0.165203 0.208623 0.9639422
vn 0.8291779 0.221386 0.513276
vn 0.9161515 0.195953 -0.3496697
vn -0.751408 0.6389848 -0.1645735
vn -0.3925454 0.3673829 0.8431714
vn -0.4428318 0.02434001 0.8962743
vn -0.5271922 -0.019511 0.8495221
vn -0.5784597 0.6323718 0.5152574
vn -0.5271922 -0.019511 0.8495221
vn -0.5784597 0.6323718 0.5152574
vn -0.4809645 0.676885 0.5572251
vn 0.1273183 0.3803267 0.9160467
vn -0.5271922 -0.019511 0.8495221
vn 0.6112654 0.05863598 0.7892507
vn 0.8891591 -0.016972 0.4572834
vn 0.1350804 0.489 0.8617612
vn -0.751408 0.6389848 -0.1645735
vn -0.5784597 0.6323718 0.5152574
vn -0.8048987 0.173637 -0.56744
vn -0.4809645 0.676885 0.5572251
vn -0.8048987 0.173637 -0.56744
vn -0.751408 0.6389848 -0.1645735
vn -0.9255375 0.2254061 -0.3042576
vn -0.8048987 0.173637 -0.56744
vn -0.8048987 0.173637 -0.56744
vn 0.5670609 0.4164998 -0.7106124
vn 0.1427431 0.274373 -0.9509699
vn -0.2574103 0.153429 -0.9540437
vn 0.5930463 0.5555828 -0.5827726
vn 0.9338188 0.01699201 -0.3573427
vn 0.8851535 0.1688749 -0.4335719
vn 0.5007861 0.2755259 -0.8205478
vn -0.8048987 0.173637 -0.56744
vn 0.8851535 0.1688749 -0.4335719
vn 0.9515282 0.3062461 -0.02841628
vn 0.9515282 0.3062461 -0.02841628
vn 0.7364565 0.4029588 -0.5433745
vn 0.9748557 0.02636 -0.2212729
vn 0.5093985 -0.5568762 -0.6560504
vn 0.5314729 -0.1007939 -0.8410572
vn -0.03031498 -0.6331879 -0.7734041
vn 0.6443059 0.7606381 -0.07936966
vn 0.2116146 0.8510838 0.4804953
vn -0.6695206 0.539537 0.5105311
vn -0.4678215 0.4079698 0.7840304
vn -0.82638 -0.2859819 0.4850882
vn -0.842917 -0.4238028 -0.3314848
vn -0.6576412 -0.7340966 -0.1691459
vn 0.6249919 -0.5169717 -0.5849149
vn 0.9842878 -0.117654 -0.1316628
vn 0.9842878 -0.117654 -0.1316628
vn 0.5184544 -0.223248 -0.8254486
vn -0.03031498 -0.6331879 -0.7734041
vn -0.842917 -0.4238028 -0.3314848
vn 0.5093985 -0.5568762 -0.6560504
vn -0.7403839 -0.3610662 -0.5669771
vn 0.6249919 -0.5169717 -0.5849149
vn -0.7403839 -0.3610662 -0.5669771
vn -0.8420548 -0.425273 -0.3317929
vn 0.5184544 -0.223248 -0.8254486
vn 0.9842878 -0.117654 -0.1316628
vn 0.9335561 0.198859 -0.2982079
vn -0.8420548 -0.425273 -0.3317929
vn -0.5240174 0.282481 0.8034987
vn -0.5723739 0.5991837 0.5597919
vn -0.5723739 0.5991837 0.5597919
vn -0.5240174 0.282481 0.8034987
vn 0.9842878 -0.117654 -0.1316628
vn -0.842917 -0.4238028 -0.3314848
vn -0.5723739 0.5991837 0.5597919
vn -0.7403839 -0.3610662 -0.5669771

vt 0.1541748 0.3811035
vt 0.1590576 0.4104004
vt 0.1722412 0.4101563
vt 0.1663818 0.376709
vt 0.1364746 0.3845215
vt 0.1468506 0.4121094
vt 0.126709 0.3862305
vt 0.1921387 0.473877
vt 0.1811523 0.4743652
vt 0.168335 0.4765625
vt 0.1317139 0.4157715
vt 0.1170654 0.3901367
vt 0.1200562 0.4199219
vt 0.1000366 0.3901367
vt 0.1082153 0.4238281
vt 0.09014893 0.3935547
vt 0.09667969 0.4287109
vt 0.0737915 0.3967285
vt 0.1230469 0.4912109
vt 0.1109619 0.4958496
vt 0.07879639 0.4335938
vt 0.0737915 0.3967285
vt 0.09790039 0.4995117
vt 0.06658936 0.4365234
vt 0.06036377 0.4016113
vt 0.0737915 0.3967285
vt 0.08673096 0.5014648
vt 0.1363525 0.4863281
vt 0.1523438 0.4812012
vt 0.07971191 0.3654785
vt 0.09265137 0.3664551
vt 0.1063843 0.3684082
vt 0.1200562 0.361084
vt 0.05514526 0.3876953
vt 0.06793213 0.3845215
vt 0.1364746 0.3662109
vt 0.1503906 0.3605957
vt 0.1633301 0.3591309
vt 0.1005859 0.3500977
vt 0.1080933 0.3491211
vt 0.1171875 0.3447266
vt 0.1099243 0.3425293
vt 0.1017456 0.3344727
vt 0.1046753 0.3322754
vt 0.1017456 0.3344727
vt 0.0958252 0.3178711
vt 0.1339111 0.3461914
vt 0.1220703 0.3371582
vt 0.1396484 0.333252
vt 0.1322021 0.3295898
vt 0.1195679 0.3183594
vt 0.1005859 0.3500977
vt 0.1017456 0.3344727
vt 0.09527588 0.3286133
vt 0.0958252 0.3178711
vt 0.09289551 0.3415527
vt 0.1005859 0.3500977
vt 0.08953857 0.3452148
vt 0.07525635 0.3251953
vt 0.07525635 0.3251953
vt 0.06292725 0.369873
vt 0.07281494 0.3515625
vt 0.06408691 0.3474121
vt 0.04751587 0.3354492
vt 0.05215454 0.3608398
vt 0.05004883 0.3742676
vt 0.06793213 0.3845215
vt 0.07525635 0.3251953
vt 0.163208 0.3413086
vt 0.1427002 0.314209
vt 0.1427002 0.314209
vt 0.1293945 0.354248
vt 0.1226807 0.392334
vt 0.1434326 0.3952637
vt 0.1375732 0.3566895
vt 0.1451416 0.3615723
vt 0.1209106 0.3537598
vt 0.1124878 0.3549805
vt 0.1031494 0.3913574
vt 0.1035767 0.3566895
vt 0.09338379 0.3581543
vt 0.08624268 0.3920898
vt 0.08288574 0.3581543
vt 0.1407471 0.4306641
vt 0.1242676 0.4301758
vt 0.1242676 0.4301758
vt 0.1412354 0.4660645
vt 0.07305908 0.3564453
vt 0.08624268 0.3920898
vt 0.07385254 0.3935547
vt 0.0859375 0.4306641
vt 0.07189941 0.4326172
vt 0.0859375 0.4306641
vt 0.08843994 0.4650879
vt 0.07489014 0.465332
vt 0.1242676 0.4301758
vt 0.1218262 0.4648438
vt 0.08843994 0.4650879
vt 0.1048584 0.465332
vt 0.1066284 0.4301758
vt 0.1066284 0.4301758
vt 0.1048584 0.465332
vt 0.1242676 0.4301758
vt 0.08624268 0.3920898
vt 0.1066284 0.4301758
vt 0.0859375 0.4306641

g Tree2_(2)_2540_6
usemtl Tree2_(2)_2540_6
usemap Tree2_(2)_2540_6
f 1/1/1 3/3/3 2/2/2
f 1/1/1 4/4/4 3/3/3
f 5/5/5 1/1/1 2/2/2
f 5/5/5 2/2/2 6/6/6
f 7/7/7 5/5/5 6/6/6
f 2/2/2 3/3/3 8/8/8
f 2/2/2 8/8/8 9/9/9
f 6/6/6 2/2/2 9/9/9
f 6/6/6 9/9/9 10/10/10
f 11/11/11 6/6/6 10/10/10
f 7/7/7 6/6/6 11/11/11
f 12/12/12 7/7/7 11/11/11
f 12/12/12 11/11/11 13/13/13
f 14/14/14 12/12/12 13/13/13
f 14/14/14 13/13/13 15/15/15
f 16/16/16 14/14/14 15/15/15
f 16/16/16 15/15/15 17/17/17
f 18/18/18 16/16/16 17/17/17
f 17/17/17 15/15/15 19/19/19
f 17/17/17 19/19/19 20/20/20
f 21/21/21 17/17/17 20/20/20
f 22/22/22 17/17/17 21/21/21
f 21/21/21 20/20/20 23/23/23
f 24/24/24 21/21/21 23/23/23
f 25/25/25 21/21/21 24/24/24
f 25/25/25 26/26/26 21/21/21
f 24/24/24 23/23/23 27/27/27
f 15/15/15 28/28/28 19/19/19
f 15/15/15 13/13/13 28/28/28
f 13/13/13 29/29/29 28/28/28
f 30/30/30 14/14/14 16/16/16
f 30/30/30 31/31/31 14/14/14
f 31/31/31 12/12/12 14/14/14
f 31/31/31 32/32/32 12/12/12
f 32/32/32 7/7/7 12/12/12
f 32/32/32 33/33/33 7/7/7
f 34/34/34 22/22/22 25/25/25
f 34/34/34 35/35/35 22/22/22
f 35/35/35 30/30/30 16/16/16
f 35/35/35 16/16/16 18/18/18
f 33/33/33 5/5/5 7/7/7
f 33/33/33 36/36/36 5/5/5
f 36/36/36 1/1/1 5/5/5
f 36/36/36 37/37/37 1/1/1
f 37/37/37 4/4/4 1/1/1
f 37/37/37 38/38/38 4/4/4
f 32/32/32 31/31/31 39/39/39
f 33/33/33 39/39/39 40/40/40
f 41/41/41 33/33/33 40/40/40
f 41/41/41 40/40/40 42/42/42
f 42/42/42 40/40/40 43/43/43
f 42/42/42 43/43/43 44/44/44
f 40/40/40 39/39/39 45/45/45
f 44/44/44 43/43/43 46/46/46
f 37/37/37 36/36/36 47/47/47
f 36/36/36 33/33/33 47/47/47
f 33/33/33 48/48/48 47/47/47
f 33/33/33 41/41/41 48/48/48
f 49/49/49 37/37/37 47/47/47
f 49/49/49 47/47/47 50/50/50
f 47/47/47 48/48/48 51/51/51
f 50/50/50 47/47/47 51/51/51
f 33/33/33 32/32/32 52/52/52
f 39/39/39 54/54/54 53/53/53
f 53/53/53 54/54/54 55/55/55
f 39/39/39 56/56/56 54/54/54
f 31/31/31 56/56/56 57/57/57
f 31/31/31 58/58/58 56/56/56
f 58/58/58 31/31/31 59/59/59
f 31/31/31 30/30/30 60/60/60
f 61/61/61 62/62/62 30/30/30
f 62/62/62 61/61/61 63/63/63
f 61/61/61 30/30/30 35/35/35
f 64/64/64 63/63/63 61/61/61
f 64/64/64 61/61/61 65/65/65
f 61/61/61 66/66/66 65/65/65
f 66/66/66 61/61/61 34/34/34
f 34/34/34 61/61/61 67/67/67
f 30/30/30 62/62/62 68/68/68
f 13/13/13 11/11/11 29/29/29
f 11/11/11 10/10/10 29/29/29
f 69/69/69 38/38/38 70/70/70
f 38/38/38 37/37/37 70/70/70
f 37/37/37 49/49/49 71/71/71
f 72/72/72 74/74/74 73/73/73
f 72/72/72 75/75/75 74/74/74
f 75/75/75 76/76/76 74/74/74
f 77/77/77 72/72/72 73/73/73
f 78/78/78 77/77/77 73/73/73
f 78/78/78 73/73/73 79/79/79
f 80/80/80 78/78/78 79/79/79
f 81/81/81 80/80/80 79/79/79
f 81/81/81 79/79/79 82/82/82
f 83/83/83 81/81/81 82/82/82
f 73/73/73 74/74/74 84/84/84
f 73/73/73 84/84/84 85/85/85
f 79/79/79 73/73/73 86/86/86
f 85/85/85 84/84/84 87/87/87
f 88/88/88 83/83/83 89/89/89
f 88/88/88 89/89/89 90/90/90
f 90/90/90 82/82/82 91/91/91
f 90/90/90 93/93/93 92/92/92
f 92/92/92 91/91/91 94/94/94
f 92/92/92 94/94/94 95/95/95
f 96/96/96 87/87/87 97/97/97
f 93/93/93 99/99/99 98/98/98
f 93/93/93 100/100/100 99/99/99
f 101/101/101 97/97/97 102/102/102
f 101/101/101 103/103/103 97/97/97
f 79/79/79 103/103/103 101/101/101
f 104/104/104 79/79/79 105/105/105
f 104/104/104 105/105/105 106/106/106
