#Tree3_(1)_2176_33.obj

v -0.5663616 6.129975 -1.258505
v -1.729262 6.129975 -0.7768117
v -0.5663609 5.081509 -1.835995
v -2.137606 5.081509 -1.185158
v -2.210953 6.129975 0.3860879
v -2.788437 5.081509 0.386083
v -1.729264 6.129975 1.54899
v -2.137605 5.081509 1.957336
v -0.566361 6.129975 2.03068
v -0.5663617 5.081509 2.60817
v 0.5965393 6.129975 1.548987
v 1.004891 5.081509 1.957338
v 1.078234 6.129975 0.3860852
v 1.655727 5.081509 0.3860838
v 0.5965412 6.129975 -0.7768151
v 1.004889 5.081509 -1.185165
v -0.566362 3.849293 -1.958107
v -2.223954 3.849293 -1.271508
v -2.910549 3.849293 0.3860841
v -2.223957 3.849293 2.043681
v -0.5663606 3.849293 2.730282
v 1.091235 3.849293 2.043681
v 1.777839 3.849293 0.3860827
v 1.09123 3.849293 -1.271512
v 0.1355087 6.610299 0.6768144
v -0.8570861 6.610299 1.087961
v -0.5663613 6.703349 0.3860876
v -1.268231 6.610299 0.09536075
v -0.2756366 6.610299 -0.3157856
v 2.332231 4.214332 -0.3507326
v 1.56447 4.326895 0.02710722
v 2.205901 3.702219 -0.9014044
v 1.090341 3.865771 -0.3524043
v 1.277657 4.317745 0.8410888
v 0.6736175 3.852475 0.8302963
v 1.639821 4.192243 1.614387
v 1.199839 3.670125 1.953887
v 2.438803 4.023906 1.89402
v 2.360743 3.425532 2.360184
v 3.206578 3.911345 1.51618
v 3.4763 3.261982 1.811186
v 3.493387 3.920494 0.7022009
v 3.893034 3.275279 0.6284878
v 3.13122 4.045995 -0.07110324
v 3.366813 3.457629 -0.4951026
v 2.079417 3.061067 -1.085421
v 0.8719518 3.238093 -0.4911895
v 0.4208871 3.223703 0.788956
v 0.9904509 3.026327 2.005121
v 2.247016 2.761585 2.444895
v 3.454489 2.584558 1.850668
v 3.905547 2.598947 0.5705178
v 3.335976 2.796325 -0.6456425
v 2.918184 4.291519 0.9612664
v 2.262847 4.3876 1.283771
v 2.455871 4.501337 0.8007265
v 1.953725 4.494721 0.6237196
v 2.609058 4.398644 0.3012169

vn -0.7061649 0.5420592 -0.455525
vn -0.8214391 0.5420586 0.1772292
vn -0.7978303 0.3140009 -0.5146555
vn -0.9280676 0.3140011 0.2002348
vn -0.455525 0.5420592 0.7061649
vn -0.5146555 0.3140009 0.7978303
vn 0.1772285 0.542059 0.8214391
vn 0.2002348 0.3140011 0.9280676
vn 0.7061649 0.5420592 0.455525
vn 0.7978303 0.3140009 0.5146555
vn 0.8214388 0.542059 -0.1772298
vn 0.9280676 0.3140011 -0.2002348
vn 0.455525 0.5420592 -0.7061649
vn 0.5146555 0.3140009 -0.7978303
vn -0.1772298 0.542059 -0.8214388
vn -0.2002355 0.3140009 -0.9280676
vn -0.8293207 0.1613551 -0.534969
vn -0.9646984 0.161355 0.208138
vn -0.534969 0.1613551 0.8293207
vn 0.208138 0.161355 0.9646984
vn 0.8293207 0.1613551 0.534969
vn 0.9646984 0.161355 -0.208138
vn 0.534969 0.1613551 -0.8293207
vn -0.2081388 0.1613549 -0.9646984
vn 0.2124776 0.9538103 -0.212366
vn 0.2123662 0.9538099 0.2124788
vn 0 1 0
vn -0.2124788 0.9538099 0.2123662
vn -0.2123668 0.95381 -0.212478
vn -0.6373419 0.6025708 -0.4803164
vn -0.7108747 0.686452 0.1531045
vn -0.7679884 0.3881159 -0.5094702
vn -0.8510661 0.4828859 0.2061742
vn -0.3170027 0.6796343 0.6615183
vn -0.4060667 0.4751822 0.7805842
vn 0.3135479 0.5861099 0.7471031
vn 0.3063343 0.369518 0.8772774
vn 0.8114105 0.460665 0.3597233
vn 0.8688223 0.2277891 0.4396136
vn 0.8849427 0.3767832 -0.2736986
vn 0.9518996 0.133019 -0.2760311
vn 0.4910704 0.3836018 -0.7821122
vn 0.5068999 0.140723 -0.8504408
vn -0.1394801 0.4771261 -0.8676958
vn -0.2055009 0.2463869 -0.9471341
vn -0.8248003 0.2415741 -0.5112208
vn -0.9111568 0.340085 0.2326704
vn -0.4485934 0.332078 0.829752
vn 0.2919261 0.222242 0.9302622
vn 0.8766153 0.07491998 0.4753237
vn 0.9629719 -0.02359101 -0.2685676
vn 0.5004076 -0.015583 -0.8656498
vn -0.2401111 0.09425099 -0.9661592
vn 0.3497123 0.8812572 -0.317942
vn 0.3672548 0.9252396 0.09516074
vn 0.1605614 0.9807378 -0.1112359
vn -0.04278297 0.9935194 0.1053032
vn -0.06032527 0.9495373 -0.3077983

vt 0.4470215 0.4243164
vt 0.4257813 0.4155273
vt 0.4472656 0.4458008
vt 0.4106445 0.4306641
vt 0.4169922 0.3942871
vt 0.3955078 0.3942871
vt 0.4257813 0.3728027
vt 0.4106445 0.3579102
vt 0.4470215 0.3642578
vt 0.4470215 0.3427734
vt 0.4685059 0.3730469
vt 0.4833984 0.357666
vt 0.4770508 0.3942871
vt 0.4985352 0.394043
vt 0.4682617 0.4155273
vt 0.4833984 0.4306641
vt 0.4470215 0.4689941
vt 0.394043 0.4470215
vt 0.3723145 0.394043
vt 0.394043 0.3413086
vt 0.4470215 0.3193359
vt 0.5 0.3413086
vt 0.5219727 0.3942871
vt 0.5 0.4472656
vt 0.4609375 0.3884277
vt 0.4411621 0.3803711
vt 0.4470215 0.3942871
vt 0.4331055 0.3999023
vt 0.4528809 0.407959
vt 0.3144531 0.4064941
vt 0.2939453 0.3986816
vt 0.3151855 0.4223633
vt 0.2832031 0.4101563
vt 0.2856445 0.3781738
vt 0.2697754 0.3789063
vt 0.293457 0.357666
vt 0.2817383 0.3469238
vt 0.3139648 0.3493652
vt 0.3132324 0.333252
vt 0.3344727 0.3571777
vt 0.3452148 0.345459
vt 0.3427734 0.3776855
vt 0.3586426 0.3769531
vt 0.3349609 0.3981934
vt 0.3464355 0.4089355
vt 0.3132324 0.4384766
vt 0.2705078 0.420166
vt 0.253418 0.3769531
vt 0.2717285 0.3342285
vt 0.3151855 0.3171387
vt 0.357666 0.3354492
vt 0.375 0.3786621
vt 0.3564453 0.4213867
vt 0.3261719 0.3720703
vt 0.3083496 0.3659668
vt 0.314209 0.3779297
vt 0.3022461 0.3837891
vt 0.3200684 0.3898926

g Tree3_(1)_2176_33
usemtl Tree3_(1)_2176_33
usemap Tree3_(1)_2176_33
f 1/1/1 3/3/3 2/2/2
f 2/2/2 3/3/3 4/4/4
f 2/2/2 4/4/4 5/5/5
f 5/5/5 4/4/4 6/6/6
f 5/5/5 6/6/6 7/7/7
f 7/7/7 6/6/6 8/8/8
f 7/7/7 8/8/8 9/9/9
f 9/9/9 8/8/8 10/10/10
f 9/9/9 10/10/10 11/11/11
f 11/11/11 10/10/10 12/12/12
f 11/11/11 12/12/12 13/13/13
f 13/13/13 12/12/12 14/14/14
f 13/13/13 14/14/14 15/15/15
f 15/15/15 14/14/14 16/16/16
f 15/15/15 16/16/16 1/1/1
f 1/1/1 16/16/16 3/3/3
f 3/3/3 17/17/17 4/4/4
f 4/4/4 17/17/17 18/18/18
f 4/4/4 18/18/18 6/6/6
f 6/6/6 18/18/18 19/19/19
f 6/6/6 19/19/19 8/8/8
f 8/8/8 19/19/19 20/20/20
f 8/8/8 20/20/20 10/10/10
f 10/10/10 20/20/20 21/21/21
f 10/10/10 21/21/21 12/12/12
f 12/12/12 21/21/21 22/22/22
f 12/12/12 22/22/22 14/14/14
f 14/14/14 22/22/22 23/23/23
f 14/14/14 23/23/23 16/16/16
f 16/16/16 23/23/23 24/24/24
f 16/16/16 24/24/24 3/3/3
f 3/3/3 24/24/24 17/17/17
f 11/11/11 13/13/13 25/25/25
f 13/13/13 15/15/15 25/25/25
f 26/26/26 11/11/11 25/25/25
f 26/26/26 25/25/25 27/27/27
f 28/28/28 26/26/26 27/27/27
f 29/29/29 28/28/28 27/27/27
f 25/25/25 29/29/29 27/27/27
f 29/29/29 2/2/2 28/28/28
f 1/1/1 2/2/2 29/29/29
f 15/15/15 1/1/1 29/29/29
f 25/25/25 15/15/15 29/29/29
f 2/2/2 5/5/5 28/28/28
f 5/5/5 7/7/7 28/28/28
f 28/28/28 7/7/7 26/26/26
f 7/7/7 9/9/9 26/26/26
f 9/9/9 11/11/11 26/26/26
f 30/30/30 32/32/32 31/31/31
f 31/31/31 32/32/32 33/33/33
f 31/31/31 33/33/33 34/34/34
f 34/34/34 33/33/33 35/35/35
f 34/34/34 35/35/35 36/36/36
f 36/36/36 35/35/35 37/37/37
f 36/36/36 37/37/37 38/38/38
f 38/38/38 37/37/37 39/39/39
f 38/38/38 39/39/39 40/40/40
f 40/40/40 39/39/39 41/41/41
f 40/40/40 41/41/41 42/42/42
f 42/42/42 41/41/41 43/43/43
f 42/42/42 43/43/43 44/44/44
f 44/44/44 43/43/43 45/45/45
f 44/44/44 45/45/45 30/30/30
f 30/30/30 45/45/45 32/32/32
f 32/32/32 46/46/46 33/33/33
f 33/33/33 46/46/46 47/47/47
f 33/33/33 47/47/47 35/35/35
f 35/35/35 47/47/47 48/48/48
f 35/35/35 48/48/48 37/37/37
f 37/37/37 48/48/48 49/49/49
f 37/37/37 49/49/49 39/39/39
f 39/39/39 49/49/49 50/50/50
f 39/39/39 50/50/50 41/41/41
f 41/41/41 50/50/50 51/51/51
f 41/41/41 51/51/51 43/43/43
f 43/43/43 51/51/51 52/52/52
f 43/43/43 52/52/52 45/45/45
f 45/45/45 52/52/52 53/53/53
f 45/45/45 53/53/53 32/32/32
f 32/32/32 53/53/53 46/46/46
f 40/40/40 42/42/42 54/54/54
f 42/42/42 44/44/44 54/54/54
f 55/55/55 40/40/40 54/54/54
f 55/55/55 54/54/54 56/56/56
f 57/57/57 55/55/55 56/56/56
f 58/58/58 57/57/57 56/56/56
f 54/54/54 58/58/58 56/56/56
f 58/58/58 31/31/31 57/57/57
f 30/30/30 31/31/31 58/58/58
f 44/44/44 30/30/30 58/58/58
f 54/54/54 44/44/44 58/58/58
f 31/31/31 34/34/34 57/57/57
f 34/34/34 36/36/36 57/57/57
f 57/57/57 36/36/36 55/55/55
f 36/36/36 38/38/38 55/55/55
f 38/38/38 40/40/40 55/55/55
