#Tree2_big_(13)_2822_20.obj

v 1.085377 1.8353 0.1018969
v 1.828991 3.285057 -0.4354706
v 1.657787 3.240481 -0.8099291
v 0.5731163 1.712281 -0.2036176
v 0.8230934 2.073336 0.7482347
v 1.617184 3.449301 -0.1197557
v 0.5279884 2.223991 1.082602
v 1.490925 6.483141 -2.371644
v 1.634342 6.483141 -2.025399
v 1.490925 6.483141 -1.679149
v 1.117573 3.643358 -0.02470422
v 0.07052231 2.430737 0.9792627
v 0.6165428 3.74066 -0.2479455
v -0.7117805 2.190363 0.48025
v 0.4170799 3.739399 -0.4777505
v -0.5047569 2.073336 -0.01943827
v 0.6591759 3.521428 -0.9725282
v -0.02434158 1.822066 -0.6697016
v 0.6550179 6.483141 -2.025399
v 0.7984047 6.483141 -2.371644
v 1.177853 3.333319 -1.049418
v -0.02434158 1.822066 -0.6697016
v 1.144665 6.483141 -2.515061
v 1.657787 3.240481 -0.8099291
v 0.5731163 1.712281 -0.2036176
v -0.02434158 1.822066 -0.6697016
v 1.490925 6.483141 -2.371644
v 0.7984047 6.483141 -1.679149
v 1.144665 6.483141 -1.535729
v -0.6627083 0.4609416 -0.1901364
v -0.9372063 0.6592159 0.3560215
v -0.6627083 0.9419293 0.9021769
v 3.814697E-06 0.6592159 1.128402
v 0.6627312 0.6874595 -0.2806246
v 3.814697E-06 1.179359 -0.9688232
v 0.7855339 1.118179 0.7923639
v 1.172138 0.9419293 0.184577
v 0.6627312 0.6874595 -0.2806246
v -1.308865 0.3112161 1.018579
v -0.8015099 0.213912 1.350034
v -0.03298569 -0.150861 1.081445
v -0.7125664 -0.1647091 1.216988
v -1.214443 -0.1905043 1.675443
v -1.003262 -0.4645944 1.611001
v -1.214443 -0.1905043 1.675443
v -1.446667 -0.7210388 2.137897
v 1.100224 0.3612068 1.013402
v 0.6174431 -0.2880173 1.314743
v 1.118862 -0.150861 0.3236749
v 1.272442 -0.2880173 0.8165487
v 1.315952 -0.7212234 1.638913
v -1.308865 0.3112161 1.018579
v -1.214443 -0.1905043 1.675443
v -1.532223 -0.4784925 1.413656
v -1.446667 -0.7210388 2.137897
v -1.357494 -0.1863735 0.6181276
v -1.308865 0.3112161 1.018579
v -1.139286 -0.150861 0.2399921
v -1.999271 -0.4909039 -0.415179
v -1.999271 -0.4909039 -0.415179
v 0.03727341 0.4335003 -0.9404929
v -0.815258 -0.150861 -0.3550029
v -0.5536003 -0.3704398 -0.8861325
v 0.1056786 -0.8974142 -1.834899
v 0.3686409 -0.3704398 -0.8861325
v 0.7037239 -0.150861 -0.4386883
v 3.814697E-06 1.179359 -0.9688232
v -1.999271 -0.4909039 -0.415179
v 0.7037239 -0.150861 -0.4386883
v 1.645313 -0.6928172 -0.2995062
v 1.645313 -0.6928172 -0.2995062
v -0.07676315 1.610034 0.09564972
v -0.8780479 2.196727 0.1129519
v -1.113255 1.986975 0.05151784
v -0.2607002 1.445998 0.04760325
v -0.472805 1.378052 0.1635952
v -0.02872086 1.77407 0.2795858
v -0.1447258 1.842016 0.4916708
v -1.026371 2.283609 0.3841383
v -0.3568001 1.77407 0.6076587
v -0.5407372 1.610034 0.5596136
v -1.261578 2.073856 0.3227056
v -0.5887794 1.445998 0.3756762
v -1.173367 2.542549 -0.7294974
v -0.986248 2.709425 -0.6806216
v -0.986248 2.709425 -0.6806216
v -1.598957 3.305381 -0.8973956
v -0.472805 1.378052 0.1635952
v -1.261578 2.073856 0.3227056
v -1.113255 1.986975 0.05151784
v -1.29137 2.611672 -0.513746
v -1.173367 2.542549 -0.7294974
v -1.29137 2.611672 -0.513746
v -1.699711 3.364405 -0.7131712
v -1.598957 3.305381 -0.8973956
v -0.986248 2.709425 -0.6806216
v -1.439175 3.447873 -0.8556604
v -1.699711 3.364405 -0.7131712
v -1.539928 3.506896 -0.6714373
v -1.104252 2.778548 -0.4648678
v -1.104252 2.778548 -0.4648678
v -1.539928 3.506896 -0.6714373
v -0.986248 2.709425 -0.6806216
v -1.261578 2.073856 0.3227056
v -1.104252 2.778548 -0.4648678
v -1.29137 2.611672 -0.513746

vn 0.9380767 -0.3371709 0.07954797
vn 0.934207 -0.352839 -0.05255401
vn 0.5826709 -0.4416449 -0.6822348
vn 0.508157 -0.246164 -0.8253361
vn 0.6390471 0.08349802 0.7646221
vn 0.7841443 0.134854 0.6057492
vn 0.08752403 0.2369131 0.9675804
vn 0.5752059 -0.251435 -0.7784078
vn 0.9937227 0.021219 -0.109841
vn 0.8026641 0.274749 0.5293801
vn 0.313664 0.44408 0.8392901
vn -0.5323112 0.3261311 0.7812063
vn -0.3358959 0.5701939 0.7497019
vn -0.929244 0.352136 0.111829
vn -0.9164973 0.3675431 0.157939
vn -0.795738 0.190888 -0.574772
vn -0.7852616 -0.08098095 -0.6138456
vn -0.282449 -0.143503 -0.9484879
vn -0.997456 0.06846599 -0.019848
vn -0.7312289 -0.2562009 -0.6321909
vn -0.150699 -0.327403 -0.93279
vn -0.282449 -0.143503 -0.9484879
vn -0.16139 -0.3512689 -0.9222599
vn 0.5826709 -0.4416449 -0.6822348
vn 0.508157 -0.246164 -0.8253361
vn -0.282449 -0.143503 -0.9484879
vn 0.5752059 -0.251435 -0.7784078
vn -0.4950299 0.475129 0.7274598
vn 0.2563219 0.4572679 0.8515897
vn -0.6341382 0.3460911 -0.6914403
vn -0.8916661 0.4522469 0.020108
vn -0.5520673 0.4481292 0.7031373
vn 0.09443203 0.167681 0.9813082
vn 0.5693899 0.1959529 -0.7983719
vn -0.037195 0.2755259 -0.9605738
vn 0.671206 0.208623 0.7113079
vn 0.9746751 0.221386 -0.031571
vn 0.5693899 0.1959529 -0.7983719
vn -0.7168717 0.6389848 0.2789148
vn 0.139861 0.3673829 0.9194937
vn 0.12738 0.02434001 0.9915553
vn 0.03124401 -0.019511 0.9993213
vn -0.1964959 0.6323718 0.7493299
vn 0.03124401 -0.019511 0.9993213
vn -0.1964959 0.6323718 0.7493299
vn -0.09206998 0.676885 0.7303081
vn 0.6131416 0.3803267 0.6923936
vn 0.03124401 -0.019511 0.9993213
vn 0.9459756 0.05863598 0.3188919
vn 0.9936301 -0.016972 -0.111406
vn 0.589554 0.489 0.6428881
vn -0.7168717 0.6389848 0.2789148
vn -0.1964959 0.6323718 0.7493299
vn -0.9844401 0.173637 -0.026977
vn -0.09206998 0.676885 0.7303081
vn -0.9844401 0.173637 -0.026977
vn -0.7168717 0.6389848 0.2789148
vn -0.9392124 0.2254061 0.2589831
vn -0.9844401 0.173637 -0.026977
vn -0.9844401 0.173637 -0.026977
vn 0.07885696 0.4164998 -0.9057094
vn -0.40757 0.274373 -0.87098
vn -0.7425158 0.153429 -0.6520199
vn 0.171268 0.5555828 -0.8136308
vn 0.5798553 0.01699201 -0.8145423
vn 0.4971278 0.1688749 -0.8510847
vn -0.037195 0.2755259 -0.9605738
vn -0.9844401 0.173637 -0.026977
vn 0.4971278 0.1688749 -0.8510847
vn 0.7766931 0.3062461 -0.550419
vn 0.7766931 0.3062461 -0.550419
vn 0.3125089 0.4029588 -0.8602107
vn 0.689357 0.02636 -0.723942
vn 0.06104105 -0.5568762 -0.8283495
vn -0.02299299 -0.1007939 -0.9946416
vn -0.453393 -0.6331879 -0.6273019
vn 0.4926341 0.7606381 -0.4227781
vn 0.4422269 0.8510838 0.2830049
vn -0.274947 0.539537 0.795804
vn 0.04443198 0.4079698 0.9119136
vn -0.419663 -0.2859819 0.8614507
vn -0.8854795 -0.4238028 0.1905709
vn -0.6413147 -0.7340966 0.2231988
vn 0.1966859 -0.5169717 -0.8330995
vn 0.7468191 -0.117654 -0.6545371
vn 0.7468191 -0.117654 -0.6545371
vn -0.025194 -0.223248 -0.974436
vn -0.453393 -0.6331879 -0.6273019
vn -0.8854795 -0.4238028 0.1905709
vn 0.06104105 -0.5568762 -0.8283495
vn -0.9304564 -0.3610662 -0.06230603
vn 0.1966859 -0.5169717 -0.8330995
vn -0.9304564 -0.3610662 -0.06230603
vn -0.884932 -0.425273 0.189837
vn -0.025194 -0.223248 -0.974436
vn 0.7468191 -0.117654 -0.6545371
vn 0.6123729 0.198859 -0.76515
vn -0.884932 -0.425273 0.189837
vn 0.008409998 0.282481 0.959236
vn -0.166774 0.5991837 0.7830487
vn -0.166774 0.5991837 0.7830487
vn 0.008409998 0.282481 0.959236
vn 0.7468191 -0.117654 -0.6545371
vn -0.8854795 -0.4238028 0.1905709
vn -0.166774 0.5991837 0.7830487
vn -0.9304564 -0.3610662 -0.06230603

vt 0.154295 0.381273
vt 0.159128 0.410517
vt 0.17228 0.410259
vt 0.166424 0.376897
vt 0.136491 0.384707
vt 0.146871 0.412198
vt 0.12683 0.386314
vt 0.192254 0.473936
vt 0.181254 0.474556
vt 0.168413 0.476637
vt 0.131719 0.41594
vt 0.117122 0.390287
vt 0.120103 0.420156
vt 0.100047 0.390223
vt 0.108234 0.424048
vt 0.090167 0.393577
vt 0.096686 0.428718
vt 0.073821 0.396748
vt 0.123101 0.491314
vt 0.110972 0.495948
vt 0.078801 0.433794
vt 0.073821 0.396748
vt 0.097919 0.499721
vt 0.066625 0.436664
vt 0.060381 0.401819
vt 0.073821 0.396748
vt 0.086753 0.5015
vt 0.136399 0.486556
vt 0.152369 0.48123
vt 0.079724 0.365585
vt 0.092659 0.366534
vt 0.106425 0.368502
vt 0.120096 0.361226
vt 0.055162 0.387704
vt 0.06798 0.384748
vt 0.136485 0.366298
vt 0.150423 0.360808
vt 0.163406 0.359186
vt 0.100635 0.350167
vt 0.108148 0.349258
vt 0.117231 0.344737
vt 0.109961 0.342623
vt 0.101759 0.334497
vt 0.104734 0.332411
vt 0.101759 0.334497
vt 0.095854 0.317933
vt 0.13403 0.346364
vt 0.122101 0.337352
vt 0.139689 0.333394
vt 0.132319 0.329673
vt 0.119615 0.318475
vt 0.100635 0.350167
vt 0.101759 0.334497
vt 0.095285 0.328763
vt 0.095854 0.317933
vt 0.092899 0.341579
vt 0.100635 0.350167
vt 0.089569 0.345354
vt 0.075295 0.325316
vt 0.075295 0.325316
vt 0.062934 0.370058
vt 0.072841 0.351651
vt 0.064113 0.347567
vt 0.047533 0.335584
vt 0.052178 0.361016
vt 0.050075 0.374478
vt 0.06798 0.384748
vt 0.075295 0.325316
vt 0.163234 0.341358
vt 0.142723 0.314398
vt 0.142723 0.314398
vt 0.129397 0.354327
vt 0.122735 0.392466
vt 0.143501 0.395416
vt 0.137597 0.356732
vt 0.145174 0.361782
vt 0.120932 0.353878
vt 0.112512 0.355045
vt 0.103168 0.391441
vt 0.103586 0.356853
vt 0.093407 0.358155
vt 0.086303 0.392312
vt 0.082886 0.35836
vt 0.140757 0.430839
vt 0.124326 0.430285
vt 0.124326 0.430285
vt 0.141264 0.46615
vt 0.073094 0.356576
vt 0.086303 0.392312
vt 0.073859 0.393798
vt 0.085948 0.430799
vt 0.071954 0.432805
vt 0.085948 0.430799
vt 0.08847 0.465304
vt 0.074933 0.465428
vt 0.124326 0.430285
vt 0.121882 0.464925
vt 0.08847 0.465304
vt 0.104906 0.465439
vt 0.106639 0.430362
vt 0.106639 0.430362
vt 0.104906 0.465439
vt 0.124326 0.430285
vt 0.086303 0.392312
vt 0.106639 0.430362
vt 0.085948 0.430799

g Tree2_big_(13)_2822_20
usemtl Tree2_big_(13)_2822_20
usemap Tree2_big_(13)_2822_20
f 1/1/1 3/3/3 2/2/2
f 1/1/1 4/4/4 3/3/3
f 5/5/5 1/1/1 2/2/2
f 5/5/5 2/2/2 6/6/6
f 7/7/7 5/5/5 6/6/6
f 2/2/2 3/3/3 8/8/8
f 2/2/2 8/8/8 9/9/9
f 6/6/6 2/2/2 9/9/9
f 6/6/6 9/9/9 10/10/10
f 11/11/11 6/6/6 10/10/10
f 7/7/7 6/6/6 11/11/11
f 12/12/12 7/7/7 11/11/11
f 12/12/12 11/11/11 13/13/13
f 14/14/14 12/12/12 13/13/13
f 14/14/14 13/13/13 15/15/15
f 16/16/16 14/14/14 15/15/15
f 16/16/16 15/15/15 17/17/17
f 18/18/18 16/16/16 17/17/17
f 17/17/17 15/15/15 19/19/19
f 17/17/17 19/19/19 20/20/20
f 21/21/21 17/17/17 20/20/20
f 22/22/22 17/17/17 21/21/21
f 21/21/21 20/20/20 23/23/23
f 24/24/24 21/21/21 23/23/23
f 25/25/25 21/21/21 24/24/24
f 25/25/25 26/26/26 21/21/21
f 24/24/24 23/23/23 27/27/27
f 15/15/15 28/28/28 19/19/19
f 15/15/15 13/13/13 28/28/28
f 13/13/13 29/29/29 28/28/28
f 30/30/30 14/14/14 16/16/16
f 30/30/30 31/31/31 14/14/14
f 31/31/31 12/12/12 14/14/14
f 31/31/31 32/32/32 12/12/12
f 32/32/32 7/7/7 12/12/12
f 32/32/32 33/33/33 7/7/7
f 34/34/34 22/22/22 25/25/25
f 34/34/34 35/35/35 22/22/22
f 35/35/35 30/30/30 16/16/16
f 35/35/35 16/16/16 18/18/18
f 33/33/33 5/5/5 7/7/7
f 33/33/33 36/36/36 5/5/5
f 36/36/36 1/1/1 5/5/5
f 36/36/36 37/37/37 1/1/1
f 37/37/37 4/4/4 1/1/1
f 37/37/37 38/38/38 4/4/4
f 32/32/32 31/31/31 39/39/39
f 33/33/33 39/39/39 40/40/40
f 41/41/41 33/33/33 40/40/40
f 41/41/41 40/40/40 42/42/42
f 42/42/42 40/40/40 43/43/43
f 42/42/42 43/43/43 44/44/44
f 40/40/40 39/39/39 45/45/45
f 44/44/44 43/43/43 46/46/46
f 37/37/37 36/36/36 47/47/47
f 36/36/36 33/33/33 47/47/47
f 33/33/33 48/48/48 47/47/47
f 33/33/33 41/41/41 48/48/48
f 49/49/49 37/37/37 47/47/47
f 49/49/49 47/47/47 50/50/50
f 47/47/47 48/48/48 51/51/51
f 50/50/50 47/47/47 51/51/51
f 33/33/33 32/32/32 52/52/52
f 39/39/39 54/54/54 53/53/53
f 53/53/53 54/54/54 55/55/55
f 39/39/39 56/56/56 54/54/54
f 31/31/31 56/56/56 57/57/57
f 31/31/31 58/58/58 56/56/56
f 58/58/58 31/31/31 59/59/59
f 31/31/31 30/30/30 60/60/60
f 61/61/61 62/62/62 30/30/30
f 62/62/62 61/61/61 63/63/63
f 61/61/61 30/30/30 35/35/35
f 64/64/64 63/63/63 61/61/61
f 64/64/64 61/61/61 65/65/65
f 61/61/61 66/66/66 65/65/65
f 66/66/66 61/61/61 34/34/34
f 34/34/34 61/61/61 67/67/67
f 30/30/30 62/62/62 68/68/68
f 13/13/13 11/11/11 29/29/29
f 11/11/11 10/10/10 29/29/29
f 69/69/69 38/38/38 70/70/70
f 38/38/38 37/37/37 70/70/70
f 37/37/37 49/49/49 71/71/71
f 72/72/72 74/74/74 73/73/73
f 72/72/72 75/75/75 74/74/74
f 75/75/75 76/76/76 74/74/74
f 77/77/77 72/72/72 73/73/73
f 78/78/78 77/77/77 73/73/73
f 78/78/78 73/73/73 79/79/79
f 80/80/80 78/78/78 79/79/79
f 81/81/81 80/80/80 79/79/79
f 81/81/81 79/79/79 82/82/82
f 83/83/83 81/81/81 82/82/82
f 73/73/73 74/74/74 84/84/84
f 73/73/73 84/84/84 85/85/85
f 79/79/79 73/73/73 86/86/86
f 85/85/85 84/84/84 87/87/87
f 88/88/88 83/83/83 89/89/89
f 88/88/88 89/89/89 90/90/90
f 90/90/90 82/82/82 91/91/91
f 90/90/90 93/93/93 92/92/92
f 92/92/92 91/91/91 94/94/94
f 92/92/92 94/94/94 95/95/95
f 96/96/96 87/87/87 97/97/97
f 93/93/93 99/99/99 98/98/98
f 93/93/93 100/100/100 99/99/99
f 101/101/101 97/97/97 102/102/102
f 101/101/101 103/103/103 97/97/97
f 79/79/79 103/103/103 101/101/101
f 104/104/104 79/79/79 105/105/105
f 104/104/104 105/105/105 106/106/106
