#Tree1_big_(3)_2861_73.obj

v 1.372651 -0.5468957 -0.9689527
v 1.550479 1.136109 -0.6640868
v 0.4346112 1.136109 -1.246851
v -0.3102288 -0.5468957 -1.773291
v 0.6773489 -0.5468957 1.145379
v 0.9894577 1.136109 0.7613863
v -0.8179937 -0.5468957 0.8729074
v -0.2071486 1.136109 0.7694481
v -1.23836 -0.5468957 -0.7514744
v -0.4405754 1.136109 -0.5947362
v -0.3102288 -0.5468957 -1.773291
v 0.4346112 1.136109 -1.246851
v 0.4942451 2.328596 -0.6577065
v -0.2785292 2.328596 -0.2110399
v -1.010017 3.727932 0.8624006
v -0.5057566 3.727932 0.5276898
v -0.6431119 4.680657 0.373381
v -1.132414 4.680657 0.7000663
v -0.8816068 3.727933 1.415717
v -1.014152 4.680658 1.23533
v -0.250473 3.727932 1.539211
v -0.4086363 4.680657 1.358829
v 0.03110487 3.727932 0.9272448
v -0.1408938 4.680657 0.766017
v -0.5057566 3.727932 0.5276898
v -0.6431119 4.680657 0.373381
v -0.02248096 8.350024 0.121323
v 0.1932642 8.350024 -0.3994626
v -0.5316558 8.350024 -0.002186589
v -0.6117264 8.350024 -0.4695767
v -0.178692 8.350024 -0.7660722
v -0.178692 8.350024 -0.7660722
v 1.274342 2.328596 -0.1965027
v 0.4942451 2.328596 -0.6577065
v 0.824756 2.328596 0.796351
v -0.136542 2.328597 0.8768007
v 1.124877 1.367724 -0.1166432
v 2.268523 3.302403 0.3345928
v 1.933816 3.35422 0.1460781
v 2.596601 5.641139 0.4054737
v 2.770586 5.613056 0.5191771
v 2.161121 3.29171 0.6476217
v 0.8883923 1.363157 0.3131717
v 0.4146751 1.410002 0.4085426
v 1.83211 3.328365 0.6575639
v 0.2772259 1.448805 0.09155378
v 1.687762 3.364986 0.3810923
v 0.6925514 1.428324 -0.2736205
v 1.933816 3.35422 0.1460781
v 1.124877 1.367724 -0.1166432
v 2.448817 5.651249 0.4967959
v 2.596601 5.641139 0.4054737
v 2.544552 5.627417 0.6739548
v 2.722338 5.607681 0.6675974
v 1.124877 1.367724 -0.1166432
v 0.6925514 1.428324 -0.2736205
v -0.5241032 3.556955 1.088989
v -0.826039 4.823697 2.702232
v -0.651127 4.945643 2.477125
v -0.7263684 6.447114 3.664757
v -0.8298454 6.384369 3.78094
v -1.068463 4.87802 2.610417
v -0.8609008 3.748155 1.025606
v -0.9219617 4.107923 0.8927627
v -1.052587 5.005831 2.3789
v -0.6634546 4.20186 0.8515729
v -0.8211525 5.050483 2.292052
v -0.3842726 3.877894 0.965881
v -0.651127 4.945643 2.477125
v -0.5241032 3.556955 1.088989
v -0.7886623 6.508055 3.556216
v -0.7263684 6.447114 3.664757
v -0.9371963 6.478194 3.614134
v -0.9449863 6.409091 3.73929
v -0.5241032 3.556955 1.088989
v -0.3842726 3.877894 0.965881

vn 0.695388 0.410459 -0.5898805
vn 0.7117717 0.2508199 -0.6561026
vn 0.7117717 0.2508199 -0.6561026
vn 0.1050437 0.5708936 -0.8142765
vn -0.2476403 -0.2251669 0.9423239
vn -0.3640563 0.05578002 0.9297051
vn -0.9361326 0.143698 0.3209467
vn -0.9618504 0.223389 -0.1579283
vn -0.3715208 0.5665582 -0.7355162
vn -0.2910008 0.3924479 -0.8725269
vn 0.1050437 0.5708936 -0.8142765
vn 0.7117717 0.2508199 -0.6561026
vn -0.2071123 0.3538041 -0.9121004
vn -0.2071123 0.3538041 -0.9121004
vn -0.5009794 -0.03859802 -0.8645982
vn 0.3615631 0.2217219 -0.9056001
vn 0.8443333 -0.16555 -0.5096024
vn -0.2383867 -0.195815 -0.9512247
vn -0.874864 -0.141718 0.4631729
vn -0.9894014 0.05235 -0.1354419
vn -0.3699956 -0.02649699 0.9286557
vn -0.5088428 0.245263 0.8251819
vn 0.8491864 0.364055 -0.3825528
vn 0.8443333 -0.16555 -0.5096024
vn 0.3615631 0.2217219 -0.9056001
vn 0.8443333 -0.16555 -0.5096024
vn 0.4392287 0.180287 0.8800994
vn 0.9593998 -0.05039701 0.277511
vn -0.856244 0.2641659 0.4439173
vn -0.9527496 0.100391 -0.286688
vn 0.4517909 -0.2745639 -0.8488226
vn 0.4517909 -0.2745639 -0.8488226
vn 0.6241715 0.5868669 -0.5157492
vn -0.2071123 0.3538041 -0.9121004
vn 0.5174492 0.004428001 0.8557025
vn -0.3198632 -0.2483708 0.9143301
vn 0.8926865 -0.1270489 -0.4323997
vn 0.9516732 -0.1958209 -0.2365845
vn 0.4864751 0.174408 -0.8561097
vn 0.5144144 0.048455 -0.8561717
vn 0.9555977 -0.09748995 -0.2780806
vn 0.2474417 -0.3380539 0.9080156
vn 0.1733378 -0.546424 0.8193747
vn -0.8888261 0.4134237 0.1976593
vn -0.8899289 0.218577 0.4003132
vn -0.651036 0.6240191 -0.4321485
vn -0.7637785 0.466799 -0.4458039
vn 0.3052255 0.388291 -0.8695215
vn 0.4864751 0.174408 -0.8561097
vn 0.8926865 -0.1270489 -0.4323997
vn -0.8251927 0.257086 -0.5029551
vn 0.5144144 0.048455 -0.8561717
vn -0.9149817 0.1828601 0.3596815
vn 0.2837978 -0.113937 0.952091
vn 0.8926865 -0.1270489 -0.4323997
vn 0.3052255 0.388291 -0.8695215
vn 0.3899643 -0.4637033 0.7955546
vn 0.1943718 -0.5536762 0.8097298
vn 0.8214119 -0.018269 0.5700427
vn 0.8252707 -0.1449309 0.5458236
vn 0.2314606 -0.4642898 0.8549041
vn -0.9048173 -0.4244199 0.03425676
vn -0.8037886 -0.584596 -0.110324
vn -0.1679162 0.7290349 -0.6635603
vn -0.3619171 0.5471466 -0.7547493
vn 0.4392201 0.8388157 -0.3216735
vn 0.4653193 0.7396073 -0.4862706
vn 0.8353547 0.2502251 0.4894588
vn 0.8214119 -0.018269 0.5700427
vn 0.3899643 -0.4637033 0.7955546
vn 0.5343205 0.5726039 -0.6217929
vn 0.8252707 -0.1449309 0.5458236
vn -0.3185723 0.5250439 -0.7892025
vn -0.960061 -0.234014 0.1533637
vn 0.3899643 -0.4637033 0.7955546
vn 0.8353547 0.2502251 0.4894588

vt 0.1055908 0.3232422
vt 0.1096802 0.3532715
vt 0.1278076 0.3532715
vt 0.1287842 0.3232422
vt 0.07672119 0.3232422
vt 0.08624268 0.3532715
vt 0.05950928 0.3232422
vt 0.06634521 0.3532715
vt 0.04046631 0.3232422
vt 0.04293823 0.3532715
vt 0.02571106 0.3232422
vt 0.02592468 0.3532715
vt 0.02734375 0.3781738
vt 0.04507446 0.3779297
vt 0.04846191 0.4140625
vt 0.0319519 0.4150391
vt 0.03213501 0.4318848
vt 0.04855347 0.4309082
vt 0.06231689 0.4130859
vt 0.06256104 0.4299316
vt 0.07836914 0.4121094
vt 0.07855225 0.4289551
vt 0.1002808 0.4121094
vt 0.09954834 0.4289551
vt 0.1193237 0.4147949
vt 0.1175537 0.4313965
vt 0.0793457 0.4919434
vt 0.09680176 0.4921875
vt 0.06341553 0.4929199
vt 0.04891968 0.4938965
vt 0.03283691 0.494873
vt 0.1108398 0.4936523
vt 0.1090088 0.3774414
vt 0.1254883 0.3781738
vt 0.08795166 0.3774414
vt 0.06793213 0.3776855
vt 0.1115723 0.3449707
vt 0.1104736 0.4145508
vt 0.1217041 0.4125977
vt 0.1165771 0.4851074
vt 0.1097412 0.4863281
vt 0.1027222 0.4145508
vt 0.1022949 0.3449707
vt 0.09362793 0.3449707
vt 0.09539795 0.4125977
vt 0.08660889 0.3449707
vt 0.08764648 0.411377
vt 0.08013916 0.3449707
vt 0.0814209 0.4123535
vt 0.1115723 0.3449707
vt 0.08782959 0.484375
vt 0.08465576 0.4846191
vt 0.09527588 0.4853516
vt 0.1028442 0.4865723
vt 0.1115723 0.3449707
vt 0.1218872 0.3449707
vt 0.09686279 0.4006348
vt 0.0960083 0.4465332
vt 0.1040649 0.4453125
vt 0.1004028 0.4931641
vt 0.09552002 0.4938965
vt 0.09051514 0.4465332
vt 0.09020996 0.4006348
vt 0.08398438 0.4006348
vt 0.08526611 0.4453125
vt 0.07897949 0.4006348
vt 0.07971191 0.4443359
vt 0.07434082 0.4006348
vt 0.07525635 0.4450684
vt 0.09686279 0.4006348
vt 0.07983398 0.4926758
vt 0.07757568 0.4926758
vt 0.08520508 0.4931641
vt 0.09057617 0.4941406
vt 0.09686279 0.4006348
vt 0.104248 0.4006348

g Tree1_big_(3)_2861_73
usemtl Tree1_big_(3)_2861_73
usemap Tree1_big_(3)_2861_73
f 1/1/1 3/3/3 2/2/2
f 1/1/1 4/4/4 3/3/3
f 5/5/5 1/1/1 2/2/2
f 5/5/5 2/2/2 6/6/6
f 7/7/7 5/5/5 6/6/6
f 7/7/7 6/6/6 8/8/8
f 9/9/9 7/7/7 8/8/8
f 9/9/9 8/8/8 10/10/10
f 11/11/11 9/9/9 10/10/10
f 11/11/11 10/10/10 12/12/12
f 13/13/13 12/12/12 10/10/10
f 13/13/13 10/10/10 14/14/14
f 14/14/14 10/10/10 8/8/8
f 13/13/13 14/14/14 15/15/15
f 13/13/13 15/15/15 16/16/16
f 15/15/15 17/17/17 16/16/16
f 15/15/15 18/18/18 17/17/17
f 19/19/19 18/18/18 15/15/15
f 14/14/14 19/19/19 15/15/15
f 19/19/19 20/20/20 18/18/18
f 21/21/21 20/20/20 19/19/19
f 21/21/21 22/22/22 20/20/20
f 23/23/23 22/22/22 21/21/21
f 23/23/23 24/24/24 22/22/22
f 25/25/25 24/24/24 23/23/23
f 25/25/25 26/26/26 24/24/24
f 24/24/24 27/27/27 22/22/22
f 20/20/20 22/22/22 27/27/27
f 24/24/24 28/28/28 27/27/27
f 20/20/20 27/27/27 29/29/29
f 18/18/18 20/20/20 29/29/29
f 18/18/18 29/29/29 30/30/30
f 17/17/17 18/18/18 30/30/30
f 17/17/17 30/30/30 31/31/31
f 24/24/24 32/32/32 28/28/28
f 24/24/24 26/26/26 32/32/32
f 33/33/33 25/25/25 23/23/23
f 33/33/33 34/34/34 25/25/25
f 35/35/35 23/23/23 21/21/21
f 35/35/35 33/33/33 23/23/23
f 36/36/36 35/35/35 21/21/21
f 36/36/36 21/21/21 19/19/19
f 14/14/14 36/36/36 19/19/19
f 33/33/33 3/3/3 34/34/34
f 33/33/33 2/2/2 3/3/3
f 35/35/35 2/2/2 33/33/33
f 35/35/35 6/6/6 2/2/2
f 36/36/36 6/6/6 35/35/35
f 36/36/36 8/8/8 6/6/6
f 14/14/14 8/8/8 36/36/36
f 37/37/37 39/39/39 38/38/38
f 38/38/38 39/39/39 40/40/40
f 38/38/38 40/40/40 41/41/41
f 42/42/42 38/38/38 41/41/41
f 43/43/43 38/38/38 42/42/42
f 44/44/44 43/43/43 42/42/42
f 44/44/44 42/42/42 45/45/45
f 46/46/46 44/44/44 45/45/45
f 46/46/46 45/45/45 47/47/47
f 48/48/48 46/46/46 47/47/47
f 48/48/48 47/47/47 49/49/49
f 43/43/43 50/50/50 38/38/38
f 49/49/49 47/47/47 51/51/51
f 49/49/49 51/51/51 52/52/52
f 47/47/47 53/53/53 51/51/51
f 47/47/47 45/45/45 53/53/53
f 45/45/45 54/54/54 53/53/53
f 45/45/45 42/42/42 54/54/54
f 42/42/42 41/41/41 54/54/54
f 55/55/55 56/56/56 39/39/39
f 57/57/57 59/59/59 58/58/58
f 58/58/58 59/59/59 60/60/60
f 58/58/58 60/60/60 61/61/61
f 62/62/62 58/58/58 61/61/61
f 63/63/63 58/58/58 62/62/62
f 64/64/64 63/63/63 62/62/62
f 64/64/64 62/62/62 65/65/65
f 66/66/66 64/64/64 65/65/65
f 66/66/66 65/65/65 67/67/67
f 68/68/68 66/66/66 67/67/67
f 68/68/68 67/67/67 69/69/69
f 63/63/63 70/70/70 58/58/58
f 69/69/69 67/67/67 71/71/71
f 69/69/69 71/71/71 72/72/72
f 67/67/67 73/73/73 71/71/71
f 67/67/67 65/65/65 73/73/73
f 65/65/65 74/74/74 73/73/73
f 65/65/65 62/62/62 74/74/74
f 62/62/62 61/61/61 74/74/74
f 75/75/75 76/76/76 59/59/59
