#Tree_conf2_1353_167.obj

v 2.229059 2.41453 -0.01389056
v 1.067521 2.895795 -0.4499941
v 1.56636 2.41453 -1.586003
v -0.4499958 2.895795 -1.067522
v -0.0138901 2.41453 -2.229059
v -1.586005 2.41453 -1.56636
v -1.253917 2.895795 0.007814452
v -2.229059 2.41453 0.013889
v -0.4366574 2.895794 1.073048
v -1.566361 2.41453 1.586005
v 0.01388919 2.41453 2.229061
v 0.8921775 2.895794 0.8811269
v 1.586003 2.41453 1.566362
v -3.21092E-07 3.673443 1.036801E-06
v 0.7697459 5.456536 -0.7697454
v 0.2848009 6.349499 -0.2848007
v 3.317881E-07 6.349499 -0.4027679
v 1.463975E-06 5.456536 -1.088587
v -0.2848004 6.349499 -0.2847997
v -0.7697474 5.456536 -0.7697459
v -0.4027681 6.349499 -8.549825E-08
v -1.088586 5.456536 3.499572E-07
v -0.2847993 6.349498 0.2847993
v -0.7697459 5.456536 0.7697448
v 8.443244E-08 6.349499 0.4027703
v 2.466474E-07 5.456536 1.088587
v 0.2848004 6.349498 0.2848018
v 0.7697474 5.456536 0.7697453
v 0.4027703 6.349499 -9.529538E-07
v 1.088586 5.456536 -9.240885E-07
v 8.953453E-07 7.127673 2.001705E-07
v 1.48231 3.35846 1.321719
v 0.9566585 3.86839 0.3851414
v 1.918955 3.351292 -0.08711977
v 0.2964976 3.862013 -0.8680066
v 1.231503 3.344651 -1.392073
v -0.177347 3.34243 -1.828716
v -0.8338455 3.863356 -0.6041096
v -1.482309 3.345927 -1.141268
v -0.8861163 3.869257 0.5554472
v -1.918956 3.353096 0.2675739
v -1.231502 3.359736 1.572524
v 0.09976441 3.872375 1.168108
v 0.1773468 3.361958 2.009166
v -8.932611E-07 4.729911 0.1149917
v -1.323043 5.128105 0.9046348
v -0.5031174 5.474663 0.712225
v -0.4085394 5.021135 1.517635
v 0.5287398 5.308237 0.5056294
v 0.6659754 4.847831 1.302498
v 1.271062 4.709711 0.3852509
v 0.5758548 5.256999 -0.3610486
v 1.052275 4.687684 -0.6968004
v -0.2408057 5.365918 -0.6453708
v 0.137771 4.794655 -1.309801
v -0.9367417 4.967959 -1.094667
v -0.8834124 5.49236 -0.06887677
v -1.541831 5.10608 -0.1774168
v 0.01565761 6.137803 0.05302683
v 1.425082 4.340247 -0.8985667
v 0.5214427 4.778743 -0.7078233
v 0.3811186 4.334083 -1.61885
v -0.6765445 4.77326 -0.4880255
v -0.8663931 4.328372 -1.389966
v -1.586676 4.326462 -0.3459927
v -0.7503853 4.774414 0.5073769
v -1.3578 4.32947 0.9015262
v 0.1877596 4.779488 0.8481821
v -0.3138359 4.335634 1.62181
v 0.9336751 4.341344 1.392926
v 0.9438245 4.78217 0.196536
v 1.653958 4.343255 0.3489523
v 0.05396421 5.519577 0.007841573

vn 0.6150133 0.7214347 -0.318262
vn 0.2044467 0.9287702 -0.3091722
vn 0.2055372 0.7273996 -0.6547092
vn -0.2520067 0.930882 -0.2644829
vn -0.3219378 0.7298416 -0.6030651
vn -0.6584228 0.7273268 -0.1935851
vn -0.3500709 0.9152282 0.1995189
vn -0.6068105 0.7213293 0.333864
vn 0.04558839 0.9050448 0.422866
vn -0.1973344 0.7153615 0.6703112
vn 0.3301406 0.7129225 0.6186671
vn 0.3904935 0.9118018 0.1270133
vn 0.6666256 0.7154377 0.2091871
vn 0.005685022 0.9999254 0.01081312
vn 0.2652253 0.4740585 -0.8395976
vn 0.2431634 0.5962954 -0.7650512
vn -0.3725682 0.5991865 -0.7086384
vn -0.4089462 0.4772238 -0.7778306
vn -0.768091 0.596296 -0.2333821
vn -0.8420092 0.4740585 -0.2574666
vn -0.7117139 0.5893174 0.3823196
vn -0.7802811 0.4664178 0.4166725
vn -0.2364615 0.5823386 0.7777967
vn -0.2599217 0.4587764 0.8496852
vn 0.3792693 0.5794477 0.7213841
vn 0.4142497 0.4556117 0.7879182
vn 0.7747927 0.5823379 0.2461274
vn 0.8473128 0.4587764 0.2675543
vn 0.7184154 0.5893167 -0.3695741
vn 0.7855847 0.4664178 -0.4065849
vn 0.005685022 0.9999254 0.01081312
vn 0.7259171 0.6806896 0.09851822
vn 0.4348745 0.8898527 -0.1380085
vn 0.60786 0.636135 -0.4752248
vn -0.02053905 0.8948696 -0.4458549
vn 0.1258445 0.5968973 -0.7923868
vn -0.4372589 0.5841597 -0.6837851
vn -0.4678543 0.8786092 -0.09569895
vn -0.7673838 0.6042997 -0.2143456
vn -0.2805568 0.8653398 0.4153011
vn -0.6738265 0.6471255 0.3566321
vn -0.1948065 0.6888849 0.6982034
vn 0.2674768 0.8708368 0.4124312
vn 0.3928523 0.7033569 0.5924155
vn -0.04903083 0.9944339 -0.09325845
vn -0.3881681 0.5570765 0.7341603
vn 0.1163928 0.8874336 0.4459981
vn 0.2412926 0.5528101 0.7976083
vn 0.6012248 0.7980641 0.04028195
vn 0.731281 0.5543537 0.3973914
vn 0.7947694 0.5607997 -0.2320462
vn 0.3489 0.7488962 -0.5634032
vn 0.3945668 0.568373 -0.7219898
vn -0.269143 0.8078964 -0.5242762
vn -0.2348939 0.5726364 -0.7854377
vn -0.7248824 0.5710957 -0.3852209
vn -0.446664 0.8915864 0.07459903
vn -0.7883707 0.5646502 0.2442168
vn 0.005685022 0.9999254 0.01081312
vn 0.3066046 0.6912155 -0.6543812
vn -0.007398456 0.895683 -0.4446315
vn -0.275909 0.6437393 -0.7137745
vn -0.437282 0.8935207 -0.1020068
vn -0.7223505 0.5969263 -0.3491258
vn -0.7868837 0.5763688 0.2204836
vn -0.2366817 0.8716178 0.42926
vn -0.4376662 0.5927964 0.6760479
vn 0.3070114 0.8621312 0.4030803
vn 0.1348991 0.6381874 0.7579703
vn 0.6037233 0.6875317 0.4035075
vn 0.4679871 0.8754614 -0.1206454
vn 0.6782677 0.7101808 -0.1886695
vn -0.1099441 0.9934273 0.03184997

vt 0.2459717 0.0847168
vt 0.213623 0.08380127
vt 0.2144775 0.1161499
vt 0.1708984 0.08374023
vt 0.1700439 0.1160889
vt 0.1385498 0.08459473
vt 0.1621094 0.04983521
vt 0.1385498 0.0401001
vt 0.1923828 0.03216553
vt 0.1700439 0.008682251
vt 0.2145996 0.008712769
vt 0.2225342 0.04989624
vt 0.2460938 0.04019165
vt 0.1922607 0.06237793
vt 0.3461914 0.0803833
vt 0.3190918 0.06854248
vt 0.3068848 0.08081055
vt 0.3181152 0.1083374
vt 0.2895508 0.08081055
vt 0.2785645 0.1083374
vt 0.2770996 0.06854248
vt 0.2504883 0.08032227
vt 0.2770996 0.05114746
vt 0.2504883 0.04064941
vt 0.2895508 0.03884888
vt 0.2785645 0.01256561
vt 0.3068848 0.03887939
vt 0.3183594 0.01262665
vt 0.3190918 0.0512085
vt 0.3464355 0.04077148
vt 0.2978516 0.05935669
vt 0.2459717 0.0847168
vt 0.213623 0.08380127
vt 0.2144775 0.1161499
vt 0.1708984 0.08374023
vt 0.1700439 0.1160889
vt 0.1385498 0.08459473
vt 0.1621094 0.04983521
vt 0.1385498 0.0401001
vt 0.1923828 0.03216553
vt 0.1700439 0.008682251
vt 0.2145996 0.008712769
vt 0.2225342 0.04989624
vt 0.2460938 0.04019165
vt 0.1922607 0.06237793
vt 0.2459717 0.0847168
vt 0.213623 0.08380127
vt 0.2144775 0.1161499
vt 0.1708984 0.08374023
vt 0.1700439 0.1160889
vt 0.1385498 0.08459473
vt 0.1621094 0.04983521
vt 0.1385498 0.0401001
vt 0.1923828 0.03216553
vt 0.1700439 0.008682251
vt 0.2145996 0.008712769
vt 0.2225342 0.04989624
vt 0.2460938 0.04019165
vt 0.1922607 0.06237793
vt 0.2459717 0.0847168
vt 0.213623 0.08380127
vt 0.2144775 0.1161499
vt 0.1708984 0.08374023
vt 0.1700439 0.1160889
vt 0.1385498 0.08459473
vt 0.1621094 0.04983521
vt 0.1385498 0.0401001
vt 0.1923828 0.03216553
vt 0.1700439 0.008682251
vt 0.2145996 0.008712769
vt 0.2225342 0.04989624
vt 0.2460938 0.04019165
vt 0.1922607 0.06237793

g Tree_conf2_1353_167
usemtl Tree_conf2_1353_167
usemap Tree_conf2_1353_167
f 1/1/1 3/3/3 2/2/2
f 3/3/3 4/4/4 2/2/2
f 3/3/3 5/5/5 4/4/4
f 5/5/5 6/6/6 4/4/4
f 6/6/6 7/7/7 4/4/4
f 6/6/6 8/8/8 7/7/7
f 8/8/8 9/9/9 7/7/7
f 8/8/8 10/10/10 9/9/9
f 10/10/10 11/11/11 9/9/9
f 11/11/11 12/12/12 9/9/9
f 11/11/11 13/13/13 12/12/12
f 13/13/13 2/2/2 12/12/12
f 13/13/13 1/1/1 2/2/2
f 2/2/2 4/4/4 14/14/14
f 4/4/4 7/7/7 14/14/14
f 7/7/7 9/9/9 14/14/14
f 9/9/9 12/12/12 14/14/14
f 12/12/12 2/2/2 14/14/14
f 15/15/15 17/17/17 16/16/16
f 15/15/15 18/18/18 17/17/17
f 18/18/18 19/19/19 17/17/17
f 18/18/18 20/20/20 19/19/19
f 20/20/20 21/21/21 19/19/19
f 20/20/20 22/22/22 21/21/21
f 22/22/22 23/23/23 21/21/21
f 22/22/22 24/24/24 23/23/23
f 24/24/24 25/25/25 23/23/23
f 24/24/24 26/26/26 25/25/25
f 26/26/26 27/27/27 25/25/25
f 26/26/26 28/28/28 27/27/27
f 28/28/28 29/29/29 27/27/27
f 28/28/28 30/30/30 29/29/29
f 30/30/30 16/16/16 29/29/29
f 30/30/30 15/15/15 16/16/16
f 16/16/16 17/17/17 31/31/31
f 17/17/17 19/19/19 31/31/31
f 19/19/19 21/21/21 31/31/31
f 21/21/21 23/23/23 31/31/31
f 23/23/23 25/25/25 31/31/31
f 25/25/25 27/27/27 31/31/31
f 27/27/27 29/29/29 31/31/31
f 29/29/29 16/16/16 31/31/31
f 32/32/32 34/34/34 33/33/33
f 34/34/34 35/35/35 33/33/33
f 34/34/34 36/36/36 35/35/35
f 36/36/36 37/37/37 35/35/35
f 37/37/37 38/38/38 35/35/35
f 37/37/37 39/39/39 38/38/38
f 39/39/39 40/40/40 38/38/38
f 39/39/39 41/41/41 40/40/40
f 41/41/41 42/42/42 40/40/40
f 42/42/42 43/43/43 40/40/40
f 42/42/42 44/44/44 43/43/43
f 44/44/44 33/33/33 43/43/43
f 44/44/44 32/32/32 33/33/33
f 33/33/33 35/35/35 45/45/45
f 35/35/35 38/38/38 45/45/45
f 38/38/38 40/40/40 45/45/45
f 40/40/40 43/43/43 45/45/45
f 43/43/43 33/33/33 45/45/45
f 46/46/46 48/48/48 47/47/47
f 48/48/48 49/49/49 47/47/47
f 48/48/48 50/50/50 49/49/49
f 50/50/50 51/51/51 49/49/49
f 51/51/51 52/52/52 49/49/49
f 51/51/51 53/53/53 52/52/52
f 53/53/53 54/54/54 52/52/52
f 53/53/53 55/55/55 54/54/54
f 55/55/55 56/56/56 54/54/54
f 56/56/56 57/57/57 54/54/54
f 56/56/56 58/58/58 57/57/57
f 58/58/58 47/47/47 57/57/57
f 58/58/58 46/46/46 47/47/47
f 47/47/47 49/49/49 59/59/59
f 49/49/49 52/52/52 59/59/59
f 52/52/52 54/54/54 59/59/59
f 54/54/54 57/57/57 59/59/59
f 57/57/57 47/47/47 59/59/59
f 60/60/60 62/62/62 61/61/61
f 62/62/62 63/63/63 61/61/61
f 62/62/62 64/64/64 63/63/63
f 64/64/64 65/65/65 63/63/63
f 65/65/65 66/66/66 63/63/63
f 65/65/65 67/67/67 66/66/66
f 67/67/67 68/68/68 66/66/66
f 67/67/67 69/69/69 68/68/68
f 69/69/69 70/70/70 68/68/68
f 70/70/70 71/71/71 68/68/68
f 70/70/70 72/72/72 71/71/71
f 72/72/72 61/61/61 71/71/71
f 72/72/72 60/60/60 61/61/61
f 61/61/61 63/63/63 73/73/73
f 63/63/63 66/66/66 73/73/73
f 66/66/66 68/68/68 73/73/73
f 68/68/68 71/71/71 73/73/73
f 71/71/71 61/61/61 73/73/73
