#Tree_conf2_(80)_2513_688.obj

v 2.229062 2.41453 -0.01389567
v 1.067524 2.895794 -0.4499984
v 1.566361 2.41453 -1.586007
v -0.4499936 2.895794 -1.067526
v -0.01389027 2.41453 -2.22906
v -1.586002 2.41453 -1.566368
v -1.253914 2.895794 0.00780763
v -2.229059 2.41453 0.01388847
v -0.4366553 2.895794 1.07304
v -1.56636 2.41453 1.585999
v 0.01389277 2.41453 2.229053
v 0.8921779 2.895794 0.8811262
v 1.586003 2.41453 1.56636
v 1.252267E-06 3.673443 -3.603296E-06
v 0.7697473 5.456536 -0.7697476
v 0.2848026 6.349499 -0.2848043
v 2.086885E-06 6.349499 -0.4027711
v 2.714054E-06 5.456536 -1.088589
v -0.2847989 6.349499 -0.2848008
v -0.7697457 5.456536 -0.7697527
v -0.4027663 6.349499 -4.437914E-06
v -1.088584 5.456536 -5.065083E-06
v -0.2847983 6.349499 0.2847977
v -0.7697448 5.456536 0.7697404
v 2.219297E-06 6.349499 0.4027645
v 1.592128E-06 5.456536 1.088583
v 0.2848032 6.349499 0.2847942
v 0.7697464 5.456536 0.7697449
v 0.4027705 6.349499 -2.142544E-06
v 1.088587 5.456536 -2.141509E-06
v 1.252267E-06 7.127673 -3.603296E-06
v 1.482311 3.35846 1.321718
v 0.95666 3.86839 0.3851377
v 1.918956 3.351292 -0.08712268
v 0.2964995 3.862013 -0.86801
v 1.231504 3.344651 -1.392078
v -0.177347 3.34243 -1.828717
v -0.8338463 3.863356 -0.6041103
v -1.482309 3.345927 -1.14127
v -0.8861139 3.869257 0.5554407
v -1.918954 3.353096 0.2675716
v -1.2315 3.359736 1.57252
v 0.0997653 3.872375 1.168105
v 0.177347 3.361958 2.009165
v 6.225489E-07 4.729911 0.1149885
v -1.32304 5.128105 0.9046267
v -0.503115 5.474663 0.7122195
v -0.4085379 5.021135 1.517629
v 0.5287395 5.308237 0.5056273
v 0.6659753 4.847831 1.302496
v 1.271065 4.709711 0.3852434
v 0.5758544 5.256999 -0.3610492
v 1.052275 4.687684 -0.6968004
v -0.2408046 5.365918 -0.6453745
v 0.1377725 4.794655 -1.309803
v -0.9367408 4.967959 -1.094669
v -0.8834105 5.49236 -0.0688847
v -1.541828 5.10608 -0.1774243
v 0.01565816 6.137804 0.0530274
v 1.425085 4.340247 -0.8985712
v 0.5214442 4.778743 -0.7078283
v 0.3811207 4.334083 -1.618856
v -0.6765455 4.77326 -0.4880254
v -0.8663906 4.328372 -1.389973
v -1.586675 4.326462 -0.3459967
v -0.7503847 4.774414 0.5073752
v -1.357798 4.32947 0.9015206
v 0.1877619 4.779488 0.8481776
v -0.3138345 4.335634 1.621805
v 0.9336768 4.341344 1.392922
v 0.9438238 4.782169 0.1965372
v 1.65396 4.343255 0.3489455
v 0.05396435 5.519577 0.00783836

vn 0.6526766 0.7214358 -0.2313953
vn 0.2445118 0.92652 -0.2859624
vn 0.2978914 0.7214344 -0.6251345
vn -0.2135091 0.92652 -0.3097975
vn -0.2313952 0.7214358 -0.6526766
vn -0.6251329 0.721436 -0.2978908
vn -0.3795627 0.9153271 0.1345676
vn -0.6526766 0.7214358 0.2313953
vn -0.02156831 0.9098089 0.4144666
vn -0.2978914 0.7214344 0.6251345
vn 0.2313952 0.7214358 0.6526766
vn 0.363545 0.9153271 0.1732379
vn 0.6251329 0.721436 0.2978908
vn 0 1 0
vn 0.3854815 0.4664523 -0.796132
vn 0.3520667 0.5893607 -0.7271197
vn -0.2652028 0.5893612 -0.7630995
vn -0.2903737 0.4664526 -0.8355268
vn -0.7271193 0.5893613 -0.3520663
vn -0.796132 0.4664523 -0.3854815
vn -0.7630994 0.5893614 0.2652027
vn -0.8355268 0.4664526 0.2903737
vn -0.3520658 0.5893613 0.7271196
vn -0.3854815 0.4664523 0.796132
vn 0.2652028 0.5893611 0.7630996
vn 0.2903737 0.4664526 0.8355268
vn 0.72712 0.5893606 0.352066
vn 0.796132 0.4664523 0.3854815
vn 0.7630998 0.5893607 -0.2652029
vn 0.8355268 0.4664526 -0.2903737
vn 0 1 0
vn 0.7003936 0.685831 0.1976979
vn 0.447013 0.8907663 -0.08194406
vn 0.6693367 0.6344045 -0.3866774
vn 0.04254538 0.889865 -0.4542359
vn 0.2401302 0.589 -0.7716324
vn -0.332814 0.5742365 -0.7479888
vn -0.4518881 0.874849 -0.17446
vn -0.729289 0.5975742 -0.3332305
vn -0.3427823 0.8681709 0.3588587
vn -0.722039 0.6471028 0.2447807
vn -0.2994422 0.6952757 0.6533958
vn 0.1995327 0.8767521 0.4375986
vn 0.2973567 0.7119436 0.6361723
vn -0.0385731 0.9930726 -0.110991
vn -0.4954729 0.5627667 0.6616647
vn 0.04506817 0.8928517 0.44809
vn 0.1175154 0.5627652 0.8182209
vn 0.5853027 0.8018581 0.1201854
vn 0.6616647 0.5627667 0.4954729
vn 0.8182198 0.562767 -0.1175153
vn 0.4259591 0.7447317 -0.5137447
vn 0.4954729 0.5627667 -0.6616647
vn -0.1912449 0.8006369 -0.567808
vn -0.1175154 0.5627652 -0.8182209
vn -0.6616647 0.5627667 -0.4954729
vn -0.4563654 0.8897872 -0.003066763
vn -0.8182198 0.562767 0.1175153
vn 0 1 0
vn 0.3979257 0.6858311 -0.6093364
vn 0.05535354 0.8907662 -0.4510781
vn -0.169037 0.6344045 -0.7542926
vn -0.4207772 0.889865 -0.1763148
vn -0.6646437 0.589 -0.4597039
vn -0.8132595 0.5742365 0.09413485
vn -0.3015029 0.8748488 0.3791246
vn -0.535901 0.5975742 0.5964186
vn 0.240054 0.8681709 0.4343426
vn 0.01787554 0.6471027 0.7621931
vn 0.5340868 0.6952757 0.4809812
vn 0.4772258 0.8767521 -0.05967699
vn 0.6959566 0.7119437 -0.09370463
vn -0.117446 0.9930726 0.003650311

vt 0.2459717 0.0847168
vt 0.213623 0.08380127
vt 0.2144775 0.1161499
vt 0.1708984 0.08374023
vt 0.1700439 0.1160889
vt 0.1385498 0.08459473
vt 0.1621094 0.04983521
vt 0.1385498 0.0401001
vt 0.1923828 0.03216553
vt 0.1700439 0.008682251
vt 0.2145996 0.008712769
vt 0.2225342 0.04989624
vt 0.2460938 0.04019165
vt 0.1922607 0.06237793
vt 0.3461914 0.0803833
vt 0.3190918 0.06854248
vt 0.3068848 0.08081055
vt 0.3181152 0.1083374
vt 0.2895508 0.08081055
vt 0.2785645 0.1083374
vt 0.2770996 0.06854248
vt 0.2504883 0.08032227
vt 0.2770996 0.05114746
vt 0.2504883 0.04064941
vt 0.2895508 0.03884888
vt 0.2785645 0.01256561
vt 0.3068848 0.03887939
vt 0.3183594 0.01262665
vt 0.3190918 0.0512085
vt 0.3464355 0.04077148
vt 0.2978516 0.05935669
vt 0.2459717 0.0847168
vt 0.213623 0.08380127
vt 0.2144775 0.1161499
vt 0.1708984 0.08374023
vt 0.1700439 0.1160889
vt 0.1385498 0.08459473
vt 0.1621094 0.04983521
vt 0.1385498 0.0401001
vt 0.1923828 0.03216553
vt 0.1700439 0.008682251
vt 0.2145996 0.008712769
vt 0.2225342 0.04989624
vt 0.2460938 0.04019165
vt 0.1922607 0.06237793
vt 0.2459717 0.0847168
vt 0.213623 0.08380127
vt 0.2144775 0.1161499
vt 0.1708984 0.08374023
vt 0.1700439 0.1160889
vt 0.1385498 0.08459473
vt 0.1621094 0.04983521
vt 0.1385498 0.0401001
vt 0.1923828 0.03216553
vt 0.1700439 0.008682251
vt 0.2145996 0.008712769
vt 0.2225342 0.04989624
vt 0.2460938 0.04019165
vt 0.1922607 0.06237793
vt 0.2459717 0.0847168
vt 0.213623 0.08380127
vt 0.2144775 0.1161499
vt 0.1708984 0.08374023
vt 0.1700439 0.1160889
vt 0.1385498 0.08459473
vt 0.1621094 0.04983521
vt 0.1385498 0.0401001
vt 0.1923828 0.03216553
vt 0.1700439 0.008682251
vt 0.2145996 0.008712769
vt 0.2225342 0.04989624
vt 0.2460938 0.04019165
vt 0.1922607 0.06237793

g Tree_conf2_(80)_2513_688
usemtl Tree_conf2_(80)_2513_688
usemap Tree_conf2_(80)_2513_688
f 1/1/1 3/3/3 2/2/2
f 3/3/3 4/4/4 2/2/2
f 3/3/3 5/5/5 4/4/4
f 5/5/5 6/6/6 4/4/4
f 6/6/6 7/7/7 4/4/4
f 6/6/6 8/8/8 7/7/7
f 8/8/8 9/9/9 7/7/7
f 8/8/8 10/10/10 9/9/9
f 10/10/10 11/11/11 9/9/9
f 11/11/11 12/12/12 9/9/9
f 11/11/11 13/13/13 12/12/12
f 13/13/13 2/2/2 12/12/12
f 13/13/13 1/1/1 2/2/2
f 2/2/2 4/4/4 14/14/14
f 4/4/4 7/7/7 14/14/14
f 7/7/7 9/9/9 14/14/14
f 9/9/9 12/12/12 14/14/14
f 12/12/12 2/2/2 14/14/14
f 15/15/15 17/17/17 16/16/16
f 15/15/15 18/18/18 17/17/17
f 18/18/18 19/19/19 17/17/17
f 18/18/18 20/20/20 19/19/19
f 20/20/20 21/21/21 19/19/19
f 20/20/20 22/22/22 21/21/21
f 22/22/22 23/23/23 21/21/21
f 22/22/22 24/24/24 23/23/23
f 24/24/24 25/25/25 23/23/23
f 24/24/24 26/26/26 25/25/25
f 26/26/26 27/27/27 25/25/25
f 26/26/26 28/28/28 27/27/27
f 28/28/28 29/29/29 27/27/27
f 28/28/28 30/30/30 29/29/29
f 30/30/30 16/16/16 29/29/29
f 30/30/30 15/15/15 16/16/16
f 16/16/16 17/17/17 31/31/31
f 17/17/17 19/19/19 31/31/31
f 19/19/19 21/21/21 31/31/31
f 21/21/21 23/23/23 31/31/31
f 23/23/23 25/25/25 31/31/31
f 25/25/25 27/27/27 31/31/31
f 27/27/27 29/29/29 31/31/31
f 29/29/29 16/16/16 31/31/31
f 32/32/32 34/34/34 33/33/33
f 34/34/34 35/35/35 33/33/33
f 34/34/34 36/36/36 35/35/35
f 36/36/36 37/37/37 35/35/35
f 37/37/37 38/38/38 35/35/35
f 37/37/37 39/39/39 38/38/38
f 39/39/39 40/40/40 38/38/38
f 39/39/39 41/41/41 40/40/40
f 41/41/41 42/42/42 40/40/40
f 42/42/42 43/43/43 40/40/40
f 42/42/42 44/44/44 43/43/43
f 44/44/44 33/33/33 43/43/43
f 44/44/44 32/32/32 33/33/33
f 33/33/33 35/35/35 45/45/45
f 35/35/35 38/38/38 45/45/45
f 38/38/38 40/40/40 45/45/45
f 40/40/40 43/43/43 45/45/45
f 43/43/43 33/33/33 45/45/45
f 46/46/46 48/48/48 47/47/47
f 48/48/48 49/49/49 47/47/47
f 48/48/48 50/50/50 49/49/49
f 50/50/50 51/51/51 49/49/49
f 51/51/51 52/52/52 49/49/49
f 51/51/51 53/53/53 52/52/52
f 53/53/53 54/54/54 52/52/52
f 53/53/53 55/55/55 54/54/54
f 55/55/55 56/56/56 54/54/54
f 56/56/56 57/57/57 54/54/54
f 56/56/56 58/58/58 57/57/57
f 58/58/58 47/47/47 57/57/57
f 58/58/58 46/46/46 47/47/47
f 47/47/47 49/49/49 59/59/59
f 49/49/49 52/52/52 59/59/59
f 52/52/52 54/54/54 59/59/59
f 54/54/54 57/57/57 59/59/59
f 57/57/57 47/47/47 59/59/59
f 60/60/60 62/62/62 61/61/61
f 62/62/62 63/63/63 61/61/61
f 62/62/62 64/64/64 63/63/63
f 64/64/64 65/65/65 63/63/63
f 65/65/65 66/66/66 63/63/63
f 65/65/65 67/67/67 66/66/66
f 67/67/67 68/68/68 66/66/66
f 67/67/67 69/69/69 68/68/68
f 69/69/69 70/70/70 68/68/68
f 70/70/70 71/71/71 68/68/68
f 70/70/70 72/72/72 71/71/71
f 72/72/72 61/61/61 71/71/71
f 72/72/72 60/60/60 61/61/61
f 61/61/61 63/63/63 73/73/73
f 63/63/63 66/66/66 73/73/73
f 66/66/66 68/68/68 73/73/73
f 68/68/68 71/71/71 73/73/73
f 71/71/71 61/61/61 73/73/73
