#Tree2_(2)_1678_291.obj

v -0.9476849 2.593094 -1.247157
v -1.431888 2.457369 -1.185668
v -0.7597036 2.141749 -1.385763
v -1.388368 1.965532 -1.305929
v -1.743185 2.410607 -0.7887197
v -1.792535 1.904819 -0.7905514
v -1.699212 2.480202 -0.2888392
v -1.735446 1.995176 -0.1415333
v -1.325734 2.625384 0.02115346
v -1.250543 2.183674 0.2609415
v -0.8415268 2.76111 -0.04033588
v -0.6218711 2.359892 0.1811061
v -0.5302337 2.807871 -0.4372838
v -0.2177042 2.420604 -0.3342711
v -0.5742037 2.738276 -0.9371687
v -0.2747969 2.330247 -0.9832888
v -0.9974796 2.86026 -0.8983203
v -1.446601 2.734369 -0.8412833
v -1.227294 2.916618 -0.6478305
v -1.405816 2.798922 -0.3776173
v -0.9566908 2.924814 -0.4346549
v 2.077332 5.668246 -2.225859
v 1.221398 5.541389 -2.802408
v 2.515574 5.079143 -2.417614
v 1.35908 4.907739 -3.196619
v 0.2016295 5.496245 -2.604498
v -0.01877423 4.846745 -2.929207
v -0.3846005 5.559262 -1.748056
v -0.8108611 4.931889 -1.77203
v -0.1938943 5.693524 -0.7347775
v -0.5531834 5.113296 -0.4029433
v 0.6620483 5.820383 -0.1582218
v 0.603314 5.284699 0.3760614
v 1.681813 5.865525 -0.3561347
v 1.981169 5.345695 0.1086535
v 2.268047 5.802509 -1.212577
v 2.773251 5.26055 -1.048527
v 2.783708 4.389544 -2.480872
v 1.46008 4.193369 -3.372456
v -0.1168892 4.123561 -3.066399
v -1.023441 4.22101 -1.741995
v -0.7285278 4.428633 -0.1750552
v 0.5951002 4.624807 0.7165325
v 2.172074 4.694616 0.4104781
v 3.078621 4.597167 -0.9139328
v 1.038743 6.029766 -0.9008357
v 0.308152 5.921485 -1.392955
v 0.920135 6.000619 -1.51862
v 0.8085335 5.867697 -2.123974
v 1.539121 5.975979 -1.631854
v 0.906131 4.917651 -2.688766
v -0.07884706 4.917651 -2.280776
v 0.9061301 4.300433 -3.177897
v -0.4247164 4.300433 -2.626644
v -0.486836 4.917651 -1.295797
v -0.9759682 4.300433 -1.2958
v -0.07884681 4.917651 -0.3108226
v -0.4247184 4.300433 0.03504723
v 0.9061285 4.917651 0.09716689
v 0.9061299 4.300433 0.5863023
v 1.89111 4.917651 -0.3108234
v 2.236976 4.300433 0.03504491
v 2.299096 4.917651 -1.295798
v 2.788231 4.300433 -1.2958
v 1.89111 4.917651 -2.280777
v 2.236978 4.300433 -2.626646
v 0.9061303 3.575043 -3.613036
v -0.732406 3.575043 -2.934331
v -1.411102 3.575043 -1.295797
v -0.7324062 3.575043 0.3427331
v 0.9061291 3.575043 1.021437
v 2.544669 3.575043 0.3427317
v 3.22337 3.575043 -1.295799
v 2.544662 3.575043 -2.934331
v 1.500618 5.200411 -1.049555
v 0.6598857 5.200411 -0.7013108
v 0.9061297 5.255187 -1.295799
v 0.3116449 5.200411 -1.542044
v 1.152374 5.200411 -1.890284

vn 0.2092409 0.4964109 -0.842493
vn -0.4103376 0.324102 -0.8523972
vn 0.3148436 0.2762739 -0.9080452
vn -0.3851603 0.08159798 -0.9192352
vn -0.8730104 0.2647371 -0.4095939
vn -0.9078922 0.01452599 -0.418952
vn -0.9077513 0.3530899 0.2265286
vn -0.9471418 0.114349 0.2997445
vn -0.4942082 0.5374057 0.6833399
vn -0.4799176 0.32259 0.8158522
vn 0.1253711 0.7097141 0.6932446
vn 0.2200866 0.5172651 0.8270422
vn 0.5880445 0.7690797 0.25044
vn 0.7428187 0.5843369 0.3267581
vn 0.6227843 0.6807264 -0.3856828
vn 0.7820678 0.484515 -0.3919376
vn 0.003977615 0.8906247 -0.4547216
vn -0.5433921 0.7524443 -0.3722267
vn -0.2628564 0.9536011 -0.1468044
vn -0.4850104 0.8544849 0.1860657
vn 0.06235809 0.9926653 0.1035713
vn 0.6234909 0.6742987 -0.3957024
vn 0.2142731 0.6064851 -0.7656781
vn 0.7928675 0.424205 -0.4375056
vn 0.2859319 0.3401981 -0.8958282
vn -0.340349 0.5823539 -0.738259
vn -0.4011294 0.310304 -0.8618622
vn -0.7154853 0.6160398 -0.3295085
vn -0.8658457 0.352034 -0.355504
vn -0.691386 0.6878113 0.2211357
vn -0.8359916 0.4409437 0.326629
vn -0.2821677 0.7556249 0.5911111
vn -0.3290555 0.5249509 0.7849516
vn 0.2724546 0.7797561 0.5636922
vn 0.3580067 0.554845 0.7509849
vn 0.64759 0.7460701 0.1549405
vn 0.8227221 0.513114 0.2446267
vn 0.8687831 0.2220959 -0.4425937
vn 0.3208436 0.131294 -0.9379879
vn -0.4217906 0.09898195 -0.9012743
vn -0.924095 0.144088 -0.3539591
vn -0.8918262 0.2401891 0.3833472
vn -0.3438866 0.3309911 0.8787417
vn 0.3987481 0.363303 0.8420278
vn 0.9010523 0.3181969 0.2947124
vn -0.001274684 0.9966761 0.08145551
vn -0.2554894 0.9638119 -0.076104
vn -0.04938123 0.9906772 -0.1269654
vn -0.09522647 0.9393159 -0.3295718
vn 0.1589883 0.9721802 -0.1720123
vn 0.1039477 0.6802621 -0.7255607
vn -0.4395474 0.6802611 -0.5865518
vn 0.1280582 0.4296829 -0.8938533
vn -0.5414989 0.4296831 -0.7226005
vn -0.7255607 0.6802621 -0.1039477
vn -0.8938533 0.4296829 -0.1280582
vn -0.5865519 0.6802614 0.4395466
vn -0.7226005 0.4296831 0.5414989
vn -0.1039477 0.6802621 0.7255607
vn -0.1280582 0.4296829 0.8938533
vn 0.4395477 0.6802614 0.5865511
vn 0.5414989 0.4296831 0.7226005
vn 0.7255607 0.6802621 0.1039477
vn 0.8938533 0.4296829 0.1280582
vn 0.5865511 0.6802614 -0.4395477
vn 0.7226002 0.4296827 -0.5414996
vn 0.1380491 0.228989 -0.9635904
vn -0.5837459 0.2289891 -0.7789767
vn -0.9635904 0.228989 -0.1380491
vn -0.7789767 0.2289891 0.5837459
vn -0.1380491 0.228989 0.9635904
vn 0.5837459 0.2289891 0.7789767
vn 0.9635904 0.228989 0.1380491
vn 0.7789765 0.228988 -0.5837467
vn 0.2031482 0.9762389 0.07542121
vn -0.07542121 0.9762389 0.2031482
vn 0 1 0
vn -0.2031482 0.9762389 -0.07542121
vn 0.07542022 0.976239 -0.2031483

vt 0.3613281 0.484375
vt 0.3461914 0.479248
vt 0.3603516 0.498291
vt 0.3356934 0.4875488
vt 0.3395996 0.463623
vt 0.3259277 0.4626465
vt 0.3447266 0.4484863
vt 0.3364258 0.4379883
vt 0.3603516 0.4418945
vt 0.3613281 0.4282227
vt 0.3754883 0.4470215
vt 0.3859863 0.4387207
vt 0.3820801 0.4626465
vt 0.395752 0.463623
vt 0.3769531 0.4780273
vt 0.3852539 0.4882813
vt 0.3652344 0.4726563
vt 0.3513184 0.4677734
vt 0.3608398 0.4631348
vt 0.3564453 0.4538574
vt 0.3701172 0.4587402
vt 0.4470215 0.4243164
vt 0.4257813 0.4155273
vt 0.4472656 0.4458008
vt 0.4106445 0.4306641
vt 0.4169922 0.3942871
vt 0.3955078 0.3942871
vt 0.4257813 0.3728027
vt 0.4106445 0.3579102
vt 0.4470215 0.3642578
vt 0.4470215 0.3427734
vt 0.4685059 0.3730469
vt 0.4833984 0.357666
vt 0.4770508 0.3942871
vt 0.4985352 0.394043
vt 0.4682617 0.4155273
vt 0.4833984 0.4306641
vt 0.4470215 0.4689941
vt 0.394043 0.4470215
vt 0.3723145 0.394043
vt 0.394043 0.3413086
vt 0.4470215 0.3193359
vt 0.5 0.3413086
vt 0.5219727 0.3942871
vt 0.5 0.4472656
vt 0.4609375 0.3884277
vt 0.4411621 0.3803711
vt 0.4470215 0.3942871
vt 0.4331055 0.3999023
vt 0.4528809 0.407959
vt 0.4470215 0.4243164
vt 0.4257813 0.4155273
vt 0.4472656 0.4458008
vt 0.4106445 0.4306641
vt 0.4169922 0.3942871
vt 0.3955078 0.3942871
vt 0.4257813 0.3728027
vt 0.4106445 0.3579102
vt 0.4470215 0.3642578
vt 0.4470215 0.3427734
vt 0.4685059 0.3730469
vt 0.4833984 0.357666
vt 0.4770508 0.3942871
vt 0.4985352 0.394043
vt 0.4682617 0.4155273
vt 0.4833984 0.4306641
vt 0.4470215 0.4689941
vt 0.394043 0.4470215
vt 0.3723145 0.394043
vt 0.394043 0.3413086
vt 0.4470215 0.3193359
vt 0.5 0.3413086
vt 0.5219727 0.3942871
vt 0.5 0.4472656
vt 0.4609375 0.3884277
vt 0.4411621 0.3803711
vt 0.4470215 0.3942871
vt 0.4331055 0.3999023
vt 0.4528809 0.407959

g Tree2_(2)_1678_291
usemtl Tree2_(2)_1678_291
usemap Tree2_(2)_1678_291
f 1/1/1 3/3/3 2/2/2
f 2/2/2 3/3/3 4/4/4
f 2/2/2 4/4/4 5/5/5
f 5/5/5 4/4/4 6/6/6
f 5/5/5 6/6/6 7/7/7
f 7/7/7 6/6/6 8/8/8
f 7/7/7 8/8/8 9/9/9
f 9/9/9 8/8/8 10/10/10
f 9/9/9 10/10/10 11/11/11
f 11/11/11 10/10/10 12/12/12
f 11/11/11 12/12/12 13/13/13
f 13/13/13 12/12/12 14/14/14
f 13/13/13 14/14/14 15/15/15
f 15/15/15 14/14/14 16/16/16
f 15/15/15 16/16/16 1/1/1
f 1/1/1 16/16/16 3/3/3
f 15/15/15 1/1/1 17/17/17
f 1/1/1 2/2/2 17/17/17
f 17/17/17 2/2/2 18/18/18
f 2/2/2 5/5/5 18/18/18
f 5/5/5 7/7/7 18/18/18
f 17/17/17 18/18/18 19/19/19
f 18/18/18 20/20/20 19/19/19
f 18/18/18 7/7/7 20/20/20
f 7/7/7 9/9/9 20/20/20
f 9/9/9 11/11/11 20/20/20
f 20/20/20 21/21/21 19/19/19
f 21/21/21 17/17/17 19/19/19
f 20/20/20 11/11/11 21/21/21
f 11/11/11 13/13/13 21/21/21
f 13/13/13 15/15/15 21/21/21
f 21/21/21 15/15/15 17/17/17
f 22/22/22 24/24/24 23/23/23
f 23/23/23 24/24/24 25/25/25
f 23/23/23 25/25/25 26/26/26
f 26/26/26 25/25/25 27/27/27
f 26/26/26 27/27/27 28/28/28
f 28/28/28 27/27/27 29/29/29
f 28/28/28 29/29/29 30/30/30
f 30/30/30 29/29/29 31/31/31
f 30/30/30 31/31/31 32/32/32
f 32/32/32 31/31/31 33/33/33
f 32/32/32 33/33/33 34/34/34
f 34/34/34 33/33/33 35/35/35
f 34/34/34 35/35/35 36/36/36
f 36/36/36 35/35/35 37/37/37
f 36/36/36 37/37/37 22/22/22
f 22/22/22 37/37/37 24/24/24
f 24/24/24 38/38/38 25/25/25
f 25/25/25 38/38/38 39/39/39
f 25/25/25 39/39/39 27/27/27
f 27/27/27 39/39/39 40/40/40
f 27/27/27 40/40/40 29/29/29
f 29/29/29 40/40/40 41/41/41
f 29/29/29 41/41/41 31/31/31
f 31/31/31 41/41/41 42/42/42
f 31/31/31 42/42/42 33/33/33
f 33/33/33 42/42/42 43/43/43
f 33/33/33 43/43/43 35/35/35
f 35/35/35 43/43/43 44/44/44
f 35/35/35 44/44/44 37/37/37
f 37/37/37 44/44/44 45/45/45
f 37/37/37 45/45/45 24/24/24
f 24/24/24 45/45/45 38/38/38
f 32/32/32 34/34/34 46/46/46
f 34/34/34 36/36/36 46/46/46
f 47/47/47 32/32/32 46/46/46
f 47/47/47 46/46/46 48/48/48
f 49/49/49 47/47/47 48/48/48
f 50/50/50 49/49/49 48/48/48
f 46/46/46 50/50/50 48/48/48
f 50/50/50 23/23/23 49/49/49
f 22/22/22 23/23/23 50/50/50
f 36/36/36 22/22/22 50/50/50
f 46/46/46 36/36/36 50/50/50
f 23/23/23 26/26/26 49/49/49
f 26/26/26 28/28/28 49/49/49
f 49/49/49 28/28/28 47/47/47
f 28/28/28 30/30/30 47/47/47
f 30/30/30 32/32/32 47/47/47
f 51/51/51 53/53/53 52/52/52
f 52/52/52 53/53/53 54/54/54
f 52/52/52 54/54/54 55/55/55
f 55/55/55 54/54/54 56/56/56
f 55/55/55 56/56/56 57/57/57
f 57/57/57 56/56/56 58/58/58
f 57/57/57 58/58/58 59/59/59
f 59/59/59 58/58/58 60/60/60
f 59/59/59 60/60/60 61/61/61
f 61/61/61 60/60/60 62/62/62
f 61/61/61 62/62/62 63/63/63
f 63/63/63 62/62/62 64/64/64
f 63/63/63 64/64/64 65/65/65
f 65/65/65 64/64/64 66/66/66
f 65/65/65 66/66/66 51/51/51
f 51/51/51 66/66/66 53/53/53
f 53/53/53 67/67/67 54/54/54
f 54/54/54 67/67/67 68/68/68
f 54/54/54 68/68/68 56/56/56
f 56/56/56 68/68/68 69/69/69
f 56/56/56 69/69/69 58/58/58
f 58/58/58 69/69/69 70/70/70
f 58/58/58 70/70/70 60/60/60
f 60/60/60 70/70/70 71/71/71
f 60/60/60 71/71/71 62/62/62
f 62/62/62 71/71/71 72/72/72
f 62/62/62 72/72/72 64/64/64
f 64/64/64 72/72/72 73/73/73
f 64/64/64 73/73/73 66/66/66
f 66/66/66 73/73/73 74/74/74
f 66/66/66 74/74/74 53/53/53
f 53/53/53 74/74/74 67/67/67
f 61/61/61 63/63/63 75/75/75
f 63/63/63 65/65/65 75/75/75
f 76/76/76 61/61/61 75/75/75
f 76/76/76 75/75/75 77/77/77
f 78/78/78 76/76/76 77/77/77
f 79/79/79 78/78/78 77/77/77
f 75/75/75 79/79/79 77/77/77
f 79/79/79 52/52/52 78/78/78
f 51/51/51 52/52/52 79/79/79
f 65/65/65 51/51/51 79/79/79
f 75/75/75 65/65/65 79/79/79
f 52/52/52 55/55/55 78/78/78
f 55/55/55 57/57/57 78/78/78
f 78/78/78 57/57/57 76/76/76
f 57/57/57 59/59/59 76/76/76
f 59/59/59 61/61/61 76/76/76
