#Tree3_(33)_2832_767.obj

v -0.5663608 6.129975 -1.258505
v -1.729263 6.129975 -0.7768147
v -0.5663603 5.081509 -1.835993
v -2.137608 5.081509 -1.185159
v -2.210952 6.129975 0.3860847
v -2.788437 5.081509 0.386086
v -1.729264 6.129975 1.548988
v -2.137606 5.081509 1.957333
v -0.5663597 6.129975 2.030679
v -0.5663619 5.081509 2.608171
v 0.5965424 6.129975 1.548989
v 1.004891 5.081509 1.957335
v 1.078235 6.129975 0.3860871
v 1.655728 5.081509 0.3860858
v 0.5965421 6.129975 -0.7768142
v 1.004891 5.081509 -1.185165
v -0.5663599 3.849293 -1.958106
v -2.223956 3.849293 -1.271512
v -2.91055 3.849293 0.3860856
v -2.223957 3.849293 2.043681
v -0.5663605 3.849293 2.73028
v 1.091236 3.849293 2.043682
v 1.777839 3.849293 0.3860853
v 1.091231 3.849293 -1.271509
v 0.1355095 6.610299 0.6768134
v -0.8570861 6.610299 1.087962
v -0.5663611 6.703349 0.3860867
v -1.26823 6.610299 0.09536088
v -0.2756395 6.610299 -0.3157864
v 2.332233 4.214332 -0.3507343
v 1.564469 4.326895 0.02710931
v 2.205903 3.702219 -0.9014027
v 1.09034 3.865771 -0.3524055
v 1.277656 4.317745 0.8410879
v 0.6736181 3.852475 0.8302961
v 1.63982 4.192243 1.614384
v 1.199837 3.670125 1.953887
v 2.438806 4.023906 1.894021
v 2.360746 3.425532 2.360188
v 3.206576 3.911345 1.51618
v 3.476299 3.261982 1.811186
v 3.493386 3.920494 0.7021992
v 3.893032 3.275279 0.6284862
v 3.131223 4.045995 -0.07110057
v 3.36681 3.457629 -0.4951027
v 2.079418 3.061067 -1.08542
v 0.8719477 3.238093 -0.4911912
v 0.4208876 3.223703 0.7889553
v 0.9904518 3.026327 2.005121
v 2.247015 2.761585 2.444893
v 3.454491 2.584558 1.850667
v 3.905547 2.598947 0.5705188
v 3.335977 2.796325 -0.6456462
v 2.918181 4.291519 0.9612632
v 2.262849 4.3876 1.283773
v 2.45587 4.501337 0.8007306
v 1.953723 4.494721 0.6237204
v 2.609054 4.398644 0.3012149

vn 0.7505799 0.5420592 -0.3778912
vn 0.2635308 0.5420586 -0.7979499
vn 0.8480107 0.3140009 -0.4269443
vn 0.2977389 0.3140011 -0.9015292
vn -0.3778912 0.5420592 -0.7505799
vn -0.4269443 0.3140009 -0.8480107
vn -0.7979495 0.542059 -0.2635314
vn -0.9015292 0.3140011 -0.2977389
vn -0.7505799 0.5420592 0.3778912
vn -0.8480107 0.3140009 0.4269443
vn -0.2635301 0.542059 0.79795
vn -0.2977389 0.3140011 0.9015292
vn 0.3778912 0.5420592 0.7505799
vn 0.4269443 0.3140009 0.8480107
vn 0.79795 0.542059 0.2635301
vn 0.9015296 0.3140009 0.2977383
vn 0.8814817 0.1613551 -0.4437958
vn 0.3094906 0.161355 -0.9371126
vn -0.4437958 0.1613551 -0.8814817
vn -0.9371126 0.161355 -0.3094906
vn -0.8814817 0.1613551 0.4437958
vn -0.3094906 0.161355 0.9371126
vn 0.4437958 0.1613551 0.8814817
vn 0.9371129 0.1613549 0.30949
vn 0.07538636 0.9538103 0.290797
vn -0.2907983 0.9538099 0.07538588
vn 0 1 0
vn -0.07538588 0.9538099 -0.2907983
vn 0.2907979 0.95381 -0.07538678
vn 0.7370713 0.6025708 -0.3059973
vn 0.2282926 0.686452 -0.6904103
vn 0.8284165 0.3881159 -0.4038469
vn 0.2535937 0.4828859 -0.8381596
vn -0.4096076 0.6796343 -0.6085383
vn -0.4671109 0.4751822 -0.7456603
vn -0.8029554 0.5861099 -0.1083418
vn -0.9115174 0.369518 -0.180534
vn -0.7213326 0.460665 0.5171723
vn -0.8192995 0.2277891 0.5261756
vn -0.2125527 0.3767832 0.9015852
vn -0.2444763 0.133019 0.9604881
vn 0.4253476 0.3836018 0.8197129
vn 0.4762282 0.140723 0.8679883
vn 0.8186942 0.4771261 0.319516
vn 0.9206346 0.2463869 0.3028623
vn 0.8587183 0.2415741 -0.4519347
vn 0.261207 0.340085 -0.9033899
vn -0.4879435 0.332078 -0.8072394
vn -0.9498911 0.222242 -0.2198078
vn -0.8540333 0.07491998 0.5147954
vn -0.2565219 -0.02359101 0.9662506
vn 0.4926296 -0.015583 0.8700996
vn 0.9545761 0.09425099 0.2826684
vn 0.09684719 0.8812572 0.4626083
vn -0.2681621 0.9252396 0.2683668
vn 0.01451792 0.9807378 0.1947887
vn -0.06909469 0.9935194 -0.09024999
vn 0.2959135 0.9495373 0.103991

vt 0.4470215 0.4243164
vt 0.4257813 0.4155273
vt 0.4472656 0.4458008
vt 0.4106445 0.4306641
vt 0.4169922 0.3942871
vt 0.3955078 0.3942871
vt 0.4257813 0.3728027
vt 0.4106445 0.3579102
vt 0.4470215 0.3642578
vt 0.4470215 0.3427734
vt 0.4685059 0.3730469
vt 0.4833984 0.357666
vt 0.4770508 0.3942871
vt 0.4985352 0.394043
vt 0.4682617 0.4155273
vt 0.4833984 0.4306641
vt 0.4470215 0.4689941
vt 0.394043 0.4470215
vt 0.3723145 0.394043
vt 0.394043 0.3413086
vt 0.4470215 0.3193359
vt 0.5 0.3413086
vt 0.5219727 0.3942871
vt 0.5 0.4472656
vt 0.4609375 0.3884277
vt 0.4411621 0.3803711
vt 0.4470215 0.3942871
vt 0.4331055 0.3999023
vt 0.4528809 0.407959
vt 0.3144531 0.4064941
vt 0.2939453 0.3986816
vt 0.3151855 0.4223633
vt 0.2832031 0.4101563
vt 0.2856445 0.3781738
vt 0.2697754 0.3789063
vt 0.293457 0.357666
vt 0.2817383 0.3469238
vt 0.3139648 0.3493652
vt 0.3132324 0.333252
vt 0.3344727 0.3571777
vt 0.3452148 0.345459
vt 0.3427734 0.3776855
vt 0.3586426 0.3769531
vt 0.3349609 0.3981934
vt 0.3464355 0.4089355
vt 0.3132324 0.4384766
vt 0.2705078 0.420166
vt 0.253418 0.3769531
vt 0.2717285 0.3342285
vt 0.3151855 0.3171387
vt 0.357666 0.3354492
vt 0.375 0.3786621
vt 0.3564453 0.4213867
vt 0.3261719 0.3720703
vt 0.3083496 0.3659668
vt 0.314209 0.3779297
vt 0.3022461 0.3837891
vt 0.3200684 0.3898926

g Tree3_(33)_2832_767
usemtl Tree3_(33)_2832_767
usemap Tree3_(33)_2832_767
f 1/1/1 3/3/3 2/2/2
f 2/2/2 3/3/3 4/4/4
f 2/2/2 4/4/4 5/5/5
f 5/5/5 4/4/4 6/6/6
f 5/5/5 6/6/6 7/7/7
f 7/7/7 6/6/6 8/8/8
f 7/7/7 8/8/8 9/9/9
f 9/9/9 8/8/8 10/10/10
f 9/9/9 10/10/10 11/11/11
f 11/11/11 10/10/10 12/12/12
f 11/11/11 12/12/12 13/13/13
f 13/13/13 12/12/12 14/14/14
f 13/13/13 14/14/14 15/15/15
f 15/15/15 14/14/14 16/16/16
f 15/15/15 16/16/16 1/1/1
f 1/1/1 16/16/16 3/3/3
f 3/3/3 17/17/17 4/4/4
f 4/4/4 17/17/17 18/18/18
f 4/4/4 18/18/18 6/6/6
f 6/6/6 18/18/18 19/19/19
f 6/6/6 19/19/19 8/8/8
f 8/8/8 19/19/19 20/20/20
f 8/8/8 20/20/20 10/10/10
f 10/10/10 20/20/20 21/21/21
f 10/10/10 21/21/21 12/12/12
f 12/12/12 21/21/21 22/22/22
f 12/12/12 22/22/22 14/14/14
f 14/14/14 22/22/22 23/23/23
f 14/14/14 23/23/23 16/16/16
f 16/16/16 23/23/23 24/24/24
f 16/16/16 24/24/24 3/3/3
f 3/3/3 24/24/24 17/17/17
f 11/11/11 13/13/13 25/25/25
f 13/13/13 15/15/15 25/25/25
f 26/26/26 11/11/11 25/25/25
f 26/26/26 25/25/25 27/27/27
f 28/28/28 26/26/26 27/27/27
f 29/29/29 28/28/28 27/27/27
f 25/25/25 29/29/29 27/27/27
f 29/29/29 2/2/2 28/28/28
f 1/1/1 2/2/2 29/29/29
f 15/15/15 1/1/1 29/29/29
f 25/25/25 15/15/15 29/29/29
f 2/2/2 5/5/5 28/28/28
f 5/5/5 7/7/7 28/28/28
f 28/28/28 7/7/7 26/26/26
f 7/7/7 9/9/9 26/26/26
f 9/9/9 11/11/11 26/26/26
f 30/30/30 32/32/32 31/31/31
f 31/31/31 32/32/32 33/33/33
f 31/31/31 33/33/33 34/34/34
f 34/34/34 33/33/33 35/35/35
f 34/34/34 35/35/35 36/36/36
f 36/36/36 35/35/35 37/37/37
f 36/36/36 37/37/37 38/38/38
f 38/38/38 37/37/37 39/39/39
f 38/38/38 39/39/39 40/40/40
f 40/40/40 39/39/39 41/41/41
f 40/40/40 41/41/41 42/42/42
f 42/42/42 41/41/41 43/43/43
f 42/42/42 43/43/43 44/44/44
f 44/44/44 43/43/43 45/45/45
f 44/44/44 45/45/45 30/30/30
f 30/30/30 45/45/45 32/32/32
f 32/32/32 46/46/46 33/33/33
f 33/33/33 46/46/46 47/47/47
f 33/33/33 47/47/47 35/35/35
f 35/35/35 47/47/47 48/48/48
f 35/35/35 48/48/48 37/37/37
f 37/37/37 48/48/48 49/49/49
f 37/37/37 49/49/49 39/39/39
f 39/39/39 49/49/49 50/50/50
f 39/39/39 50/50/50 41/41/41
f 41/41/41 50/50/50 51/51/51
f 41/41/41 51/51/51 43/43/43
f 43/43/43 51/51/51 52/52/52
f 43/43/43 52/52/52 45/45/45
f 45/45/45 52/52/52 53/53/53
f 45/45/45 53/53/53 32/32/32
f 32/32/32 53/53/53 46/46/46
f 40/40/40 42/42/42 54/54/54
f 42/42/42 44/44/44 54/54/54
f 55/55/55 40/40/40 54/54/54
f 55/55/55 54/54/54 56/56/56
f 57/57/57 55/55/55 56/56/56
f 58/58/58 57/57/57 56/56/56
f 54/54/54 58/58/58 56/56/56
f 58/58/58 31/31/31 57/57/57
f 30/30/30 31/31/31 58/58/58
f 44/44/44 30/30/30 58/58/58
f 54/54/54 44/44/44 58/58/58
f 31/31/31 34/34/34 57/57/57
f 34/34/34 36/36/36 57/57/57
f 57/57/57 36/36/36 55/55/55
f 36/36/36 38/38/38 55/55/55
f 38/38/38 40/40/40 55/55/55
