#Tree2_1088_285.obj

v 0.7752661 1.310929 0.07278364
v 1.306419 2.346469 -0.3110502
v 1.184129 2.31463 -0.5785196
v 0.4093691 1.223058 -0.1454411
v 0.5879228 1.480954 0.5344536
v 1.15513 2.463786 -0.08554076
v 0.3771296 1.588565 0.773288
v 1.064946 4.630815 -1.694032
v 1.167387 4.630815 -1.446714
v 1.064947 4.630815 -1.199394
v 0.7982632 2.602398 -0.01764695
v 0.05036908 1.736241 0.6994738
v 0.4403842 2.6719 -0.1771033
v -0.5084204 1.564545 0.3430364
v 0.2979122 2.670999 -0.3412505
v -0.360543 1.480954 -0.0138837
v 0.4708377 2.515306 -0.6946623
v -0.01739209 1.301476 -0.4783579
v 0.4678673 4.630815 -1.446714
v 0.570286 4.630815 -1.694032
v 0.8413231 2.380942 -0.7495845
v -0.01739209 1.301476 -0.4783579
v 0.8176184 4.630815 -1.796473
v 1.184129 2.31463 -0.5785196
v 0.4093691 1.223058 -0.1454411
v -0.01739209 1.301476 -0.4783579
v 1.064946 4.630815 -1.694032
v 0.5702866 4.630815 -1.199394
v 0.8176166 4.630815 -1.096949
v -0.4733663 0.3292439 -0.1358115
v -0.6694386 0.4708683 0.254302
v -0.4733662 0.6728067 0.644412
v 3.066469E-07 0.4708683 0.8060018
v 0.4733803 0.4910424 -0.2004466
v -1.286051E-06 0.8423996 -0.6920154
v 0.5610936 0.7986991 0.5659747
v 0.8372415 0.6728067 0.1318403
v 0.4733803 0.4910424 -0.2004466
v -0.9349068 0.2222972 0.7275571
v -0.5725107 0.1527944 0.9643101
v -0.02356449 -0.1077578 0.7724598
v -0.5089805 -0.1176493 0.8692775
v -0.8674613 -0.1360745 1.196744
v -0.7166201 -0.3318532 1.150715
v -0.8674613 -0.1360745 1.196744
v -1.033335 -0.5150276 1.52707
v 0.7858727 0.2580049 0.7238572
v 0.4410285 -0.2057266 0.9391019
v 0.7991858 -0.1077578 0.2311955
v 0.9088837 -0.2057266 0.5832488
v 0.9399588 -0.5151595 1.170653
v -0.9349068 0.2222972 0.7275571
v -0.8674613 -0.1360745 1.196744
v -1.094449 -0.3417804 1.009754
v -1.033335 -0.5150276 1.52707
v -0.9696421 -0.1331239 0.4415196
v -0.9349068 0.2222972 0.7275571
v -0.813777 -0.1077578 0.1714218
v -1.428053 -0.3506457 -0.2965567
v -1.428053 -0.3506457 -0.2965567
v 0.0266235 0.309643 -0.6717816
v -0.5823331 -0.1077578 -0.2535731
v -0.3954293 -0.2645998 -0.6329514
v 0.07548102 -0.6410102 -1.310643
v 0.2633111 -0.2645998 -0.6329525
v 0.5026543 -0.1077578 -0.3133489
v -1.286051E-06 0.8423996 -0.6920154
v -1.428053 -0.3506457 -0.2965567
v 0.5026543 -0.1077578 -0.3133489
v 1.17522 -0.4948694 -0.2139326
v 1.17522 -0.4948694 -0.2139326
v -0.05483624 1.150024 0.0683212
v -0.6271818 1.569091 0.08068029
v -0.795183 1.419268 0.03679871
v -0.1862169 1.032856 0.03400238
v -0.3377201 0.984323 0.1168531
v -0.02051621 1.267193 0.1997043
v -0.1033777 1.315726 0.3511936
v -0.7331271 1.631149 0.2743853
v -0.2548593 1.267193 0.4340414
v -0.3862431 1.150024 0.3997249
v -0.9011276 1.481326 0.2305045
v -0.42056 1.032856 0.2683395
v -0.838122 1.816107 -0.5210689
v -0.7044671 1.935304 -0.486157
v -0.7044671 1.935304 -0.486157
v -1.142115 2.360987 -0.6409966
v -0.3377201 0.984323 0.1168531
v -0.9011276 1.481326 0.2305045
v -0.795183 1.419268 0.03679871
v -0.9224124 1.86548 -0.3669601
v -0.838122 1.816107 -0.5210689
v -0.9224124 1.86548 -0.3669601
v -1.214083 2.403146 -0.5094081
v -1.142115 2.360987 -0.6409966
v -0.7044671 1.935304 -0.486157
v -1.027984 2.462767 -0.6111863
v -1.214083 2.403146 -0.5094081
v -1.099952 2.504926 -0.4795978
v -0.7887534 1.984677 -0.332049
v -0.7887534 1.984677 -0.332049
v -1.099952 2.504926 -0.4795978
v -0.7044671 1.935304 -0.486157
v -0.9011276 1.481326 0.2305045
v -0.7887534 1.984677 -0.332049
v -0.9224124 1.86548 -0.3669601

vn 0.709676 -0.3371709 0.618608
vn 0.7846321 -0.352839 0.5097618
vn 0.8732352 -0.441645 -0.2059372
vn 0.8977078 -0.246164 -0.3654094
vn 0.06355968 0.08349802 0.994479
vn 0.2745014 0.134854 0.9520838
vn -0.5012786 0.2369131 0.8322212
vn 0.9240557 -0.251435 -0.2879264
vn 0.8664989 0.021219 0.4987279
vn 0.3345775 0.274749 0.9014271
vn -0.2430398 0.44408 0.8623947
vn -0.891109 0.3261311 0.3155364
vn -0.7140518 0.5701939 0.4062129
vn -0.8156627 0.352136 -0.4590148
vn -0.8326336 0.3675431 -0.4142868
vn -0.3021622 0.190888 -0.9339485
vn -0.2706174 -0.08098095 -0.959275
vn 0.3327595 -0.143503 -0.932029
vn -0.7928589 0.06846599 -0.605547
vn -0.2161895 -0.2562009 -0.9421376
vn 0.4297565 -0.327403 -0.8414968
vn 0.3327595 -0.143503 -0.932029
vn 0.4149089 -0.351269 -0.8393216
vn 0.8732352 -0.441645 -0.2059372
vn 0.8977078 -0.246164 -0.3654094
vn 0.3327595 -0.143503 -0.932029
vn 0.9240557 -0.251435 -0.2879264
vn -0.8292701 0.475129 0.294217
vn -0.296564 0.4572679 0.8384247
vn -0.1028533 0.3460911 -0.9325461
vn -0.7311399 0.452247 -0.5107907
vn -0.8609033 0.4481292 0.2408859
vn -0.5038199 0.167681 0.8473775
vn 0.9311638 0.195953 -0.3074678
vn 0.5377349 0.2755259 -0.7968229
vn 0.1210112 0.208623 0.9704808
vn 0.8048736 0.221386 0.5506059
vn 0.9311638 0.195953 -0.3074678
vn -0.7431087 0.6389848 -0.1987157
vn -0.4306403 0.3673829 0.8243657
vn -0.4832992 0.02434001 0.8751169
vn -0.5654365 -0.019511 0.8245611
vn -0.6013861 0.6323718 0.4883039
vn -0.5654365 -0.019511 0.8245611
vn -0.6013861 0.6323718 0.4883039
vn -0.5059091 0.676885 0.5346801
vn 0.08535314 0.3803267 0.9209052
vn -0.5654365 -0.019511 0.8245611
vn 0.5745857 0.05863598 0.8163414
vn 0.8673491 -0.016972 0.4974108
vn 0.09558618 0.489 0.8670307
vn -0.7431087 0.6389848 -0.1987157
vn -0.6013861 0.6323718 0.4883039
vn -0.7781463 0.173637 -0.6036047
vn -0.5059091 0.676885 0.5346801
vn -0.7781463 0.173637 -0.6036047
vn -0.7431087 0.6389848 -0.1987157
vn -0.9106777 0.2254061 -0.3462059
vn -0.7781463 0.173637 -0.6036047
vn -0.7781463 0.173637 -0.6036047
vn 0.5989202 0.4164998 -0.6839756
vn 0.1860213 0.274373 -0.9434594
vn -0.2135743 0.153429 -0.9648035
vn 0.6190406 0.5555828 -0.5550824
vn 0.9491631 0.01699201 -0.314326
vn 0.9040296 0.1688749 -0.3926981
vn 0.5377349 0.2755259 -0.7968229
vn -0.7781463 0.173637 -0.6036047
vn 0.9040296 0.1688749 -0.3926981
vn 0.9518332 0.3062461 0.01506597
vn 0.9518332 0.3062461 0.01506597
vn 0.760502 0.4029588 -0.5091766
vn 0.9839433 0.02636 -0.1765242
vn 0.5388263 -0.5568762 -0.6321037
vn 0.5693263 -0.1007939 -0.8159095
vn 0.005035013 -0.6331879 -0.7739817
vn 0.6472583 0.7606381 -0.0498639
vn 0.1894514 0.8510838 0.4896577
vn -0.6921362 0.539537 0.4794242
vn -0.5031371 0.4079698 0.7618489
vn -0.84767 -0.2859819 0.4468446
vn -0.8269001 -0.4238028 -0.3696317
vn -0.6492308 -0.7340966 -0.1990013
vn 0.6510507 -0.5169717 -0.5557638
vn 0.9892735 -0.117654 -0.08657685
vn 0.9892735 -0.117654 -0.08657685
vn 0.5556085 -0.223248 -0.8009117
vn 0.005035013 -0.6331879 -0.7739817
vn -0.8269001 -0.4238028 -0.3696317
vn 0.5388263 -0.5568762 -0.6321037
vn -0.7137198 -0.3610662 -0.600196
vn 0.6510507 -0.5169717 -0.5557638
vn -0.7137198 -0.3610662 -0.600196
vn -0.8260247 -0.425273 -0.3699002
vn 0.5556085 -0.223248 -0.8009117
vn 0.9892735 -0.117654 -0.08657685
vn 0.9462003 0.198859 -0.255265
vn -0.8260247 -0.425273 -0.3699002
vn -0.5601634 0.282481 0.7787308
vn -0.5973403 0.5991837 0.5330698
vn -0.5973403 0.5991837 0.5330698
vn -0.5601634 0.282481 0.7787308
vn 0.9892735 -0.117654 -0.08657685
vn -0.8269001 -0.4238028 -0.3696317
vn -0.5973403 0.5991837 0.5330698
vn -0.7137198 -0.3610662 -0.600196

vt 0.1541748 0.3811035
vt 0.1590576 0.4104004
vt 0.1722412 0.4101563
vt 0.1663818 0.376709
vt 0.1364746 0.3845215
vt 0.1468506 0.4121094
vt 0.126709 0.3862305
vt 0.1921387 0.473877
vt 0.1811523 0.4743652
vt 0.168335 0.4765625
vt 0.1317139 0.4157715
vt 0.1170654 0.3901367
vt 0.1200562 0.4199219
vt 0.1000366 0.3901367
vt 0.1082153 0.4238281
vt 0.09014893 0.3935547
vt 0.09667969 0.4287109
vt 0.0737915 0.3967285
vt 0.1230469 0.4912109
vt 0.1109619 0.4958496
vt 0.07879639 0.4335938
vt 0.0737915 0.3967285
vt 0.09790039 0.4995117
vt 0.06658936 0.4365234
vt 0.06036377 0.4016113
vt 0.0737915 0.3967285
vt 0.08673096 0.5014648
vt 0.1363525 0.4863281
vt 0.1523438 0.4812012
vt 0.07971191 0.3654785
vt 0.09265137 0.3664551
vt 0.1063843 0.3684082
vt 0.1200562 0.361084
vt 0.05514526 0.3876953
vt 0.06793213 0.3845215
vt 0.1364746 0.3662109
vt 0.1503906 0.3605957
vt 0.1633301 0.3591309
vt 0.1005859 0.3500977
vt 0.1080933 0.3491211
vt 0.1171875 0.3447266
vt 0.1099243 0.3425293
vt 0.1017456 0.3344727
vt 0.1046753 0.3322754
vt 0.1017456 0.3344727
vt 0.0958252 0.3178711
vt 0.1339111 0.3461914
vt 0.1220703 0.3371582
vt 0.1396484 0.333252
vt 0.1322021 0.3295898
vt 0.1195679 0.3183594
vt 0.1005859 0.3500977
vt 0.1017456 0.3344727
vt 0.09527588 0.3286133
vt 0.0958252 0.3178711
vt 0.09289551 0.3415527
vt 0.1005859 0.3500977
vt 0.08953857 0.3452148
vt 0.07525635 0.3251953
vt 0.07525635 0.3251953
vt 0.06292725 0.369873
vt 0.07281494 0.3515625
vt 0.06408691 0.3474121
vt 0.04751587 0.3354492
vt 0.05215454 0.3608398
vt 0.05004883 0.3742676
vt 0.06793213 0.3845215
vt 0.07525635 0.3251953
vt 0.163208 0.3413086
vt 0.1427002 0.314209
vt 0.1427002 0.314209
vt 0.1293945 0.354248
vt 0.1226807 0.392334
vt 0.1434326 0.3952637
vt 0.1375732 0.3566895
vt 0.1451416 0.3615723
vt 0.1209106 0.3537598
vt 0.1124878 0.3549805
vt 0.1031494 0.3913574
vt 0.1035767 0.3566895
vt 0.09338379 0.3581543
vt 0.08624268 0.3920898
vt 0.08288574 0.3581543
vt 0.1407471 0.4306641
vt 0.1242676 0.4301758
vt 0.1242676 0.4301758
vt 0.1412354 0.4660645
vt 0.07305908 0.3564453
vt 0.08624268 0.3920898
vt 0.07385254 0.3935547
vt 0.0859375 0.4306641
vt 0.07189941 0.4326172
vt 0.0859375 0.4306641
vt 0.08843994 0.4650879
vt 0.07489014 0.465332
vt 0.1242676 0.4301758
vt 0.1218262 0.4648438
vt 0.08843994 0.4650879
vt 0.1048584 0.465332
vt 0.1066284 0.4301758
vt 0.1066284 0.4301758
vt 0.1048584 0.465332
vt 0.1242676 0.4301758
vt 0.08624268 0.3920898
vt 0.1066284 0.4301758
vt 0.0859375 0.4306641

g Tree2_1088_285
usemtl Tree2_1088_285
usemap Tree2_1088_285
f 1/1/1 3/3/3 2/2/2
f 1/1/1 4/4/4 3/3/3
f 5/5/5 1/1/1 2/2/2
f 5/5/5 2/2/2 6/6/6
f 7/7/7 5/5/5 6/6/6
f 2/2/2 3/3/3 8/8/8
f 2/2/2 8/8/8 9/9/9
f 6/6/6 2/2/2 9/9/9
f 6/6/6 9/9/9 10/10/10
f 11/11/11 6/6/6 10/10/10
f 7/7/7 6/6/6 11/11/11
f 12/12/12 7/7/7 11/11/11
f 12/12/12 11/11/11 13/13/13
f 14/14/14 12/12/12 13/13/13
f 14/14/14 13/13/13 15/15/15
f 16/16/16 14/14/14 15/15/15
f 16/16/16 15/15/15 17/17/17
f 18/18/18 16/16/16 17/17/17
f 17/17/17 15/15/15 19/19/19
f 17/17/17 19/19/19 20/20/20
f 21/21/21 17/17/17 20/20/20
f 22/22/22 17/17/17 21/21/21
f 21/21/21 20/20/20 23/23/23
f 24/24/24 21/21/21 23/23/23
f 25/25/25 21/21/21 24/24/24
f 25/25/25 26/26/26 21/21/21
f 24/24/24 23/23/23 27/27/27
f 15/15/15 28/28/28 19/19/19
f 15/15/15 13/13/13 28/28/28
f 13/13/13 29/29/29 28/28/28
f 30/30/30 14/14/14 16/16/16
f 30/30/30 31/31/31 14/14/14
f 31/31/31 12/12/12 14/14/14
f 31/31/31 32/32/32 12/12/12
f 32/32/32 7/7/7 12/12/12
f 32/32/32 33/33/33 7/7/7
f 34/34/34 22/22/22 25/25/25
f 34/34/34 35/35/35 22/22/22
f 35/35/35 30/30/30 16/16/16
f 35/35/35 16/16/16 18/18/18
f 33/33/33 5/5/5 7/7/7
f 33/33/33 36/36/36 5/5/5
f 36/36/36 1/1/1 5/5/5
f 36/36/36 37/37/37 1/1/1
f 37/37/37 4/4/4 1/1/1
f 37/37/37 38/38/38 4/4/4
f 32/32/32 31/31/31 39/39/39
f 33/33/33 39/39/39 40/40/40
f 41/41/41 33/33/33 40/40/40
f 41/41/41 40/40/40 42/42/42
f 42/42/42 40/40/40 43/43/43
f 42/42/42 43/43/43 44/44/44
f 40/40/40 39/39/39 45/45/45
f 44/44/44 43/43/43 46/46/46
f 37/37/37 36/36/36 47/47/47
f 36/36/36 33/33/33 47/47/47
f 33/33/33 48/48/48 47/47/47
f 33/33/33 41/41/41 48/48/48
f 49/49/49 37/37/37 47/47/47
f 49/49/49 47/47/47 50/50/50
f 47/47/47 48/48/48 51/51/51
f 50/50/50 47/47/47 51/51/51
f 33/33/33 32/32/32 52/52/52
f 39/39/39 54/54/54 53/53/53
f 53/53/53 54/54/54 55/55/55
f 39/39/39 56/56/56 54/54/54
f 31/31/31 56/56/56 57/57/57
f 31/31/31 58/58/58 56/56/56
f 58/58/58 31/31/31 59/59/59
f 31/31/31 30/30/30 60/60/60
f 61/61/61 62/62/62 30/30/30
f 62/62/62 61/61/61 63/63/63
f 61/61/61 30/30/30 35/35/35
f 64/64/64 63/63/63 61/61/61
f 64/64/64 61/61/61 65/65/65
f 61/61/61 66/66/66 65/65/65
f 66/66/66 61/61/61 34/34/34
f 34/34/34 61/61/61 67/67/67
f 30/30/30 62/62/62 68/68/68
f 13/13/13 11/11/11 29/29/29
f 11/11/11 10/10/10 29/29/29
f 69/69/69 38/38/38 70/70/70
f 38/38/38 37/37/37 70/70/70
f 37/37/37 49/49/49 71/71/71
f 72/72/72 74/74/74 73/73/73
f 72/72/72 75/75/75 74/74/74
f 75/75/75 76/76/76 74/74/74
f 77/77/77 72/72/72 73/73/73
f 78/78/78 77/77/77 73/73/73
f 78/78/78 73/73/73 79/79/79
f 80/80/80 78/78/78 79/79/79
f 81/81/81 80/80/80 79/79/79
f 81/81/81 79/79/79 82/82/82
f 83/83/83 81/81/81 82/82/82
f 73/73/73 74/74/74 84/84/84
f 73/73/73 84/84/84 85/85/85
f 79/79/79 73/73/73 86/86/86
f 85/85/85 84/84/84 87/87/87
f 88/88/88 83/83/83 89/89/89
f 88/88/88 89/89/89 90/90/90
f 90/90/90 82/82/82 91/91/91
f 90/90/90 93/93/93 92/92/92
f 92/92/92 91/91/91 94/94/94
f 92/92/92 94/94/94 95/95/95
f 96/96/96 87/87/87 97/97/97
f 93/93/93 99/99/99 98/98/98
f 93/93/93 100/100/100 99/99/99
f 101/101/101 97/97/97 102/102/102
f 101/101/101 103/103/103 97/97/97
f 79/79/79 103/103/103 101/101/101
f 104/104/104 79/79/79 105/105/105
f 104/104/104 105/105/105 106/106/106
