#Tree_conf2_(154)_2816_734.obj

v 2.229059 2.41453 -0.01389119
v 1.067519 2.895794 -0.4499962
v 1.566359 2.41453 -1.586004
v -0.4499962 2.895794 -1.067519
v -0.01389119 2.41453 -2.229059
v -1.586006 2.41453 -1.566362
v -1.253917 2.895794 0.007813861
v -2.229059 2.41453 0.01389119
v -0.4366565 2.895794 1.073048
v -1.566362 2.41453 1.586006
v 0.01389119 2.41453 2.229059
v 0.8921781 2.895794 0.8811269
v 1.586006 2.41453 1.566362
v 0 3.673443 0
v 0.7697464 5.456536 -0.7697458
v 0.2848009 6.349499 -0.284802
v 1.698465E-06 6.349499 -0.4027681
v 1.636607E-06 5.456536 -1.088585
v -0.284802 6.349499 -0.2848009
v -0.7697458 5.456536 -0.7697464
v -0.4027681 6.349499 -1.698465E-06
v -1.088585 5.456536 -1.636607E-06
v -0.2847979 6.349499 0.2847996
v -0.7697464 5.456536 0.7697458
v 7.363436E-07 6.349499 0.4027711
v 7.982015E-07 5.456536 1.088588
v 0.284802 6.349499 0.2848009
v 0.7697458 5.456536 0.7697464
v 0.4027711 6.349499 -7.363436E-07
v 1.088588 5.456536 -7.982015E-07
v 0 7.127673 0
v 1.482311 3.35846 1.321716
v 0.9566586 3.86839 0.385141
v 1.918954 3.351292 -0.08712016
v 0.2964981 3.862013 -0.8680091
v 1.231503 3.344651 -1.392072
v -0.1773475 3.34243 -1.828713
v -0.833846 3.863356 -0.6041076
v -1.48231 3.345927 -1.141268
v -0.8861157 3.869257 0.5554451
v -1.918955 3.353096 0.2675706
v -1.231501 3.359736 1.572525
v 0.09976459 3.872375 1.16811
v 0.1773487 3.361958 2.009167
v -4.778631E-07 4.729911 0.1149895
v -1.323041 5.128105 0.9046334
v -0.5031193 5.474663 0.7122255
v -0.4085373 5.021135 1.517633
v 0.5287391 5.308237 0.5056303
v 0.6659749 4.847831 1.302501
v 1.271063 4.709711 0.385251
v 0.5758526 5.256999 -0.3610472
v 1.052274 4.687684 -0.6967984
v -0.240807 5.365918 -0.6453686
v 0.1377728 4.794655 -1.309801
v -0.9367423 4.967959 -1.094666
v -0.8834105 5.49236 -0.06887884
v -1.541831 5.10608 -0.1774159
v 0.01565728 6.137804 0.05302852
v 1.425083 4.340247 -0.8985658
v 0.5214419 4.778743 -0.7078236
v 0.3811185 4.334083 -1.618848
v -0.6765447 4.77326 -0.4880257
v -0.8663918 4.328372 -1.389966
v -1.586675 4.326462 -0.3459907
v -0.7503862 4.774414 0.5073777
v -1.357799 4.32947 0.9015245
v 0.1877577 4.779488 0.8481824
v -0.3138373 4.335634 1.621809
v 0.933676 4.341344 1.392925
v 0.9438244 4.782169 0.196537
v 1.653957 4.343255 0.3489519
v 0.05396495 5.519577 0.007842616

vn 0.4386598 0.7214358 -0.5358246
vn 0.06118543 0.92652 -0.371237
vn -0.06870601 0.7214344 -0.6890659
vn -0.3430387 0.92652 -0.1545479
vn -0.5358246 0.7214358 -0.4386599
vn -0.6890643 0.721436 0.06870577
vn -0.2551017 0.9153271 0.3116078
vn -0.4386598 0.7214358 0.5358246
vn 0.1960837 0.9098089 0.3657854
vn 0.06870601 0.7214344 0.6890659
vn 0.5358246 0.7214358 0.4386599
vn 0.4007242 0.9153271 -0.03995572
vn 0.6890643 0.721436 -0.06870577
vn 0 1 0
vn -0.0822756 0.4664523 -0.8807117
vn -0.07514322 0.5893607 -0.8043678
vn -0.6219081 0.5893612 -0.5156391
vn -0.6809347 0.4664526 -0.5645794
vn -0.8043672 0.5893613 0.07514331
vn -0.8807117 0.4664523 0.0822756
vn -0.5156389 0.5893614 0.621908
vn -0.5645794 0.4664526 0.6809347
vn 0.07514384 0.5893613 0.8043672
vn 0.0822756 0.4664523 0.8807117
vn 0.6219082 0.5893611 0.5156391
vn 0.6809347 0.4664526 0.5645794
vn 0.8043677 0.5893606 -0.07514396
vn 0.8807117 0.4664523 -0.0822756
vn 0.5156393 0.5893607 -0.6219084
vn 0.5645794 0.4664526 -0.6809347
vn 0 1 0
vn 0.7015958 0.685831 -0.1933884
vn 0.3400519 0.8907663 -0.3014966
vn 0.3725367 0.6344045 -0.6773089
vn -0.1987211 0.889865 -0.4106705
vn -0.1939578 0.589 -0.7845122
vn -0.6719353 0.5742365 -0.4677131
vn -0.4769439 0.874849 0.08463857
vn -0.7964738 0.5975742 0.09238246
vn -0.1075336 0.8681709 0.4844748
vn -0.4910783 0.6471028 0.583181
vn 0.08200783 0.6952757 0.7140493
vn 0.3972333 0.8767521 0.2711301
vn 0.5837188 0.7119436 0.3903955
vn -0.09045503 0.9930726 -0.07499846
vn -0.08143744 0.5627667 0.8225944
vn 0.2705027 0.8928517 0.3600612
vn 0.5240777 0.5627652 0.6392478
vn 0.5630007 0.8018581 -0.2001349
vn 0.8225944 0.5627667 0.08143747
vn 0.639247 0.562767 -0.5240771
vn 0.09852779 0.7447317 -0.6600507
vn 0.08143744 0.5627667 -0.8225944
vn -0.4575416 0.8006369 -0.3868283
vn -0.5240777 0.5627652 -0.6392478
vn -0.8225944 0.5627667 -0.08143747
vn -0.3920575 0.8897872 0.2336016
vn -0.639247 0.562767 0.5240771
vn 0 1 0
vn 0.02506158 0.6858311 -0.7273291
vn -0.1861278 0.8907662 -0.4145985
vn -0.5350692 0.6344045 -0.5578815
vn -0.4512852 0.889865 0.06694788
vn -0.8066284 0.589 -0.04929116
vn -0.6471053 0.5742365 0.501505
vn -0.06172456 0.8748488 0.4804472
vn -0.1498009 0.5975742 0.7876958
vn 0.4302182 0.8681709 0.2473696
vn 0.4098237 0.6471027 0.642886
vn 0.7059364 0.6952757 0.1350755
vn 0.3774281 0.8767521 -0.2980835
vn 0.5469626 0.7119437 -0.4404181
vn -0.09859827 0.9930726 0.06391606

vt 0.2459717 0.0847168
vt 0.213623 0.08380127
vt 0.2144775 0.1161499
vt 0.1708984 0.08374023
vt 0.1700439 0.1160889
vt 0.1385498 0.08459473
vt 0.1621094 0.04983521
vt 0.1385498 0.0401001
vt 0.1923828 0.03216553
vt 0.1700439 0.008682251
vt 0.2145996 0.008712769
vt 0.2225342 0.04989624
vt 0.2460938 0.04019165
vt 0.1922607 0.06237793
vt 0.3461914 0.0803833
vt 0.3190918 0.06854248
vt 0.3068848 0.08081055
vt 0.3181152 0.1083374
vt 0.2895508 0.08081055
vt 0.2785645 0.1083374
vt 0.2770996 0.06854248
vt 0.2504883 0.08032227
vt 0.2770996 0.05114746
vt 0.2504883 0.04064941
vt 0.2895508 0.03884888
vt 0.2785645 0.01256561
vt 0.3068848 0.03887939
vt 0.3183594 0.01262665
vt 0.3190918 0.0512085
vt 0.3464355 0.04077148
vt 0.2978516 0.05935669
vt 0.2459717 0.0847168
vt 0.213623 0.08380127
vt 0.2144775 0.1161499
vt 0.1708984 0.08374023
vt 0.1700439 0.1160889
vt 0.1385498 0.08459473
vt 0.1621094 0.04983521
vt 0.1385498 0.0401001
vt 0.1923828 0.03216553
vt 0.1700439 0.008682251
vt 0.2145996 0.008712769
vt 0.2225342 0.04989624
vt 0.2460938 0.04019165
vt 0.1922607 0.06237793
vt 0.2459717 0.0847168
vt 0.213623 0.08380127
vt 0.2144775 0.1161499
vt 0.1708984 0.08374023
vt 0.1700439 0.1160889
vt 0.1385498 0.08459473
vt 0.1621094 0.04983521
vt 0.1385498 0.0401001
vt 0.1923828 0.03216553
vt 0.1700439 0.008682251
vt 0.2145996 0.008712769
vt 0.2225342 0.04989624
vt 0.2460938 0.04019165
vt 0.1922607 0.06237793
vt 0.2459717 0.0847168
vt 0.213623 0.08380127
vt 0.2144775 0.1161499
vt 0.1708984 0.08374023
vt 0.1700439 0.1160889
vt 0.1385498 0.08459473
vt 0.1621094 0.04983521
vt 0.1385498 0.0401001
vt 0.1923828 0.03216553
vt 0.1700439 0.008682251
vt 0.2145996 0.008712769
vt 0.2225342 0.04989624
vt 0.2460938 0.04019165
vt 0.1922607 0.06237793

g Tree_conf2_(154)_2816_734
usemtl Tree_conf2_(154)_2816_734
usemap Tree_conf2_(154)_2816_734
f 1/1/1 3/3/3 2/2/2
f 3/3/3 4/4/4 2/2/2
f 3/3/3 5/5/5 4/4/4
f 5/5/5 6/6/6 4/4/4
f 6/6/6 7/7/7 4/4/4
f 6/6/6 8/8/8 7/7/7
f 8/8/8 9/9/9 7/7/7
f 8/8/8 10/10/10 9/9/9
f 10/10/10 11/11/11 9/9/9
f 11/11/11 12/12/12 9/9/9
f 11/11/11 13/13/13 12/12/12
f 13/13/13 2/2/2 12/12/12
f 13/13/13 1/1/1 2/2/2
f 2/2/2 4/4/4 14/14/14
f 4/4/4 7/7/7 14/14/14
f 7/7/7 9/9/9 14/14/14
f 9/9/9 12/12/12 14/14/14
f 12/12/12 2/2/2 14/14/14
f 15/15/15 17/17/17 16/16/16
f 15/15/15 18/18/18 17/17/17
f 18/18/18 19/19/19 17/17/17
f 18/18/18 20/20/20 19/19/19
f 20/20/20 21/21/21 19/19/19
f 20/20/20 22/22/22 21/21/21
f 22/22/22 23/23/23 21/21/21
f 22/22/22 24/24/24 23/23/23
f 24/24/24 25/25/25 23/23/23
f 24/24/24 26/26/26 25/25/25
f 26/26/26 27/27/27 25/25/25
f 26/26/26 28/28/28 27/27/27
f 28/28/28 29/29/29 27/27/27
f 28/28/28 30/30/30 29/29/29
f 30/30/30 16/16/16 29/29/29
f 30/30/30 15/15/15 16/16/16
f 16/16/16 17/17/17 31/31/31
f 17/17/17 19/19/19 31/31/31
f 19/19/19 21/21/21 31/31/31
f 21/21/21 23/23/23 31/31/31
f 23/23/23 25/25/25 31/31/31
f 25/25/25 27/27/27 31/31/31
f 27/27/27 29/29/29 31/31/31
f 29/29/29 16/16/16 31/31/31
f 32/32/32 34/34/34 33/33/33
f 34/34/34 35/35/35 33/33/33
f 34/34/34 36/36/36 35/35/35
f 36/36/36 37/37/37 35/35/35
f 37/37/37 38/38/38 35/35/35
f 37/37/37 39/39/39 38/38/38
f 39/39/39 40/40/40 38/38/38
f 39/39/39 41/41/41 40/40/40
f 41/41/41 42/42/42 40/40/40
f 42/42/42 43/43/43 40/40/40
f 42/42/42 44/44/44 43/43/43
f 44/44/44 33/33/33 43/43/43
f 44/44/44 32/32/32 33/33/33
f 33/33/33 35/35/35 45/45/45
f 35/35/35 38/38/38 45/45/45
f 38/38/38 40/40/40 45/45/45
f 40/40/40 43/43/43 45/45/45
f 43/43/43 33/33/33 45/45/45
f 46/46/46 48/48/48 47/47/47
f 48/48/48 49/49/49 47/47/47
f 48/48/48 50/50/50 49/49/49
f 50/50/50 51/51/51 49/49/49
f 51/51/51 52/52/52 49/49/49
f 51/51/51 53/53/53 52/52/52
f 53/53/53 54/54/54 52/52/52
f 53/53/53 55/55/55 54/54/54
f 55/55/55 56/56/56 54/54/54
f 56/56/56 57/57/57 54/54/54
f 56/56/56 58/58/58 57/57/57
f 58/58/58 47/47/47 57/57/57
f 58/58/58 46/46/46 47/47/47
f 47/47/47 49/49/49 59/59/59
f 49/49/49 52/52/52 59/59/59
f 52/52/52 54/54/54 59/59/59
f 54/54/54 57/57/57 59/59/59
f 57/57/57 47/47/47 59/59/59
f 60/60/60 62/62/62 61/61/61
f 62/62/62 63/63/63 61/61/61
f 62/62/62 64/64/64 63/63/63
f 64/64/64 65/65/65 63/63/63
f 65/65/65 66/66/66 63/63/63
f 65/65/65 67/67/67 66/66/66
f 67/67/67 68/68/68 66/66/66
f 67/67/67 69/69/69 68/68/68
f 69/69/69 70/70/70 68/68/68
f 70/70/70 71/71/71 68/68/68
f 70/70/70 72/72/72 71/71/71
f 72/72/72 61/61/61 71/71/71
f 72/72/72 60/60/60 61/61/61
f 61/61/61 63/63/63 73/73/73
f 63/63/63 66/66/66 73/73/73
f 66/66/66 68/68/68 73/73/73
f 68/68/68 71/71/71 73/73/73
f 71/71/71 61/61/61 73/73/73
