#Tree4_(93)_3144_400.obj

v -2.491712 6.129237 -0.4659445
v -3.228823 5.983608 -0.3656051
v -2.327987 5.560323 -0.9431487
v -3.28501 5.371249 -0.8128751
v -3.653042 5.739669 0.2133066
v -3.835792 5.054531 -0.06124755
v -3.51587 5.540316 0.9316705
v -3.6577 4.795703 0.8714354
v -2.897662 5.502325 1.368682
v -2.855047 4.746378 1.438823
v -2.160553 5.647953 1.268345
v -1.898026 4.935453 1.308552
v -1.736329 5.891891 0.6894324
v -1.347236 5.252171 0.5569251
v -1.873504 6.091246 -0.0289335
v -1.525336 5.511 -0.3757583
v -2.467367 6.30267 0.1721143
v -3.151068 6.167593 0.2651835
v -2.765713 6.271781 0.591475
v -3.023835 5.982682 0.9315034
v -2.340127 6.117759 0.8384295
v 2.217851 7.354592 -2.494816
v 0.8755572 7.329135 -2.837818
v 2.6119 6.5694 -2.995752
v 0.7982527 6.534998 -3.459196
v -0.3162757 7.316662 -2.131084
v -0.8120828 6.518145 -2.504296
v -0.6594707 7.324482 -0.7886104
v -1.27579 6.528714 -0.6904173
v 0.04699844 7.348016 0.4032007
v -0.3212378 6.560512 0.9198964
v 1.389313 7.37348 0.7462064
v 1.492416 6.594911 1.383345
v 2.581137 7.38595 0.03947137
v 3.102753 6.611767 0.4284405
v 2.924338 7.37813 -1.303004
v 3.56646 6.601199 -1.385438
v 2.839003 5.645878 -3.269423
v 0.7632509 5.606506 -3.799845
v -1.079797 5.587218 -2.706945
v -1.610517 5.599314 -0.6309381
v -0.51801 5.635708 1.212089
v 1.55774 5.675082 1.742514
v 3.400791 5.69437 0.6496153
v 3.931501 5.682274 -1.426397
v 1.552917 7.72575 -0.3300935
v 0.4071808 7.704019 -0.6228639
v 1.125373 7.781335 -1.050117
v 0.700126 7.697345 -1.768741
v 1.845851 7.719076 -1.475968
v 0.4598773 6.511011 -2.61805
v -0.5894085 6.526672 -1.660244
v 0.1699535 5.761833 -3.293452
v -1.247788 5.782992 -1.999312
v -0.659659 6.420261 -0.2451812
v -1.342707 5.639215 -0.08736118
v 0.2902844 6.254119 0.7982056
v -0.05919208 5.414735 1.322409
v 1.703952 6.125566 0.8587213
v 1.850875 5.241036 1.404174
v 2.753247 6.109906 -0.09909275
v 3.268623 5.219882 0.1100286
v 2.82349 6.216312 -1.514151
v 3.36354 5.363655 -1.801924
v 1.873549 6.382455 -2.557541
v 2.080028 5.588139 -3.211692
v -0.1083959 4.862029 -3.912852
v -1.853919 4.888076 -2.319512
v -1.970766 4.711063 0.03447854
v -0.3905204 4.434681 1.770182
v 1.96116 4.220828 1.870848
v 3.70669 4.194779 0.2775033
v 3.823543 4.371792 -2.076488
v 2.24329 4.648178 -3.812187
v 1.967901 6.614914 -0.8133775
v 1.072275 6.628282 0.004165543
v 1.121012 6.764997 -0.8441346
v 0.261445 6.770093 -0.8864236
v 1.157061 6.756725 -1.703964
v -1.404489 4.948886 -2.36507
v -1.804187 4.708665 -2.802699
v -1.031506 4.433385 -2.283358
v -1.550447 4.121498 -2.85155
v -2.422603 4.545877 -2.809349
v -2.353364 3.910143 -2.860187
v -2.89748 4.555882 -2.381126
v -2.969917 3.923131 -2.304208
v -2.950641 4.732815 -1.768876
v -3.038935 4.152854 -1.509292
v -2.550946 4.973035 -1.331248
v -2.519991 4.464743 -0.941098
v -1.932523 5.135823 -1.324595
v -1.717073 4.676098 -0.9324612
v -1.457651 5.125819 -1.752825
v -1.100519 4.663109 -1.488443
v -1.842206 5.217912 -2.146825
v -2.212944 4.995097 -2.55275
v -2.275557 5.217892 -2.18445
v -2.653417 5.004375 -2.155546
v -2.282671 5.22719 -1.749626

vn -0.2319165 0.7784641 -0.5832739
vn -0.7299765 0.6549021 -0.1955443
vn -0.267562 0.5973637 -0.7560206
vn -0.8302739 0.4577628 -0.3179598
vn -0.7945297 0.4479261 0.4099813
vn -0.9032071 0.223919 0.3661655
vn -0.3877627 0.278779 0.8785911
vn -0.4436376 0.03281599 0.8956052
vn 0.2520469 0.2465458 0.9357817
vn 0.2792234 -0.003602002 0.9602194
vn 0.7501072 0.3701069 0.5480511
vn 0.8419348 0.135999 0.522159
vn 0.8146598 0.5770843 -0.05747363
vn 0.9148676 0.3698429 -0.1619675
vn 0.4078928 0.7462302 -0.5260836
vn 0.4552984 0.560946 -0.6914064
vn -0.00788866 0.9965098 -0.08310246
vn -0.3856033 0.8641002 0.3234825
vn 0.01856691 0.9454778 0.3251567
vn 0.04186639 0.7337341 0.6781457
vn 0.4195815 0.8661441 0.2715616
vn 0.3002011 0.5128449 -0.8042818
vn -0.183964 0.737739 -0.6495371
vn 0.2126476 0.2558199 -0.9430467
vn -0.3871326 0.5344177 -0.7513495
vn -0.4058353 0.8987413 -0.1660172
vn -0.6619861 0.7338651 -0.1523695
vn -0.2354448 0.9015374 0.3630373
vn -0.4509061 0.7373294 0.5030199
vn 0.227397 0.7444899 0.6277144
vn 0.1224576 0.5427799 0.8308996
vn 0.7115628 0.5195948 0.472969
vn 0.7222381 0.2641829 0.6392022
vn 0.933434 0.3585939 -0.01055083
vn 0.9970917 0.064735 0.04022071
vn 0.7630426 0.3557971 -0.5396059
vn 0.7860121 0.06127099 -0.6151674
vn 0.1382727 0.05827697 -0.9886782
vn -0.5100206 0.359409 -0.7814757
vn -0.8071054 0.5749891 -0.1340469
vn -0.5789531 0.5787333 0.5743527
vn 0.04078826 0.3684478 0.9287532
vn 0.6890817 0.067316 0.7215504
vn 0.9861662 -0.1482641 0.07412082
vn 0.7580134 -0.152008 -0.6342785
vn 0.5644224 0.8233867 -0.05883664
vn 0.323007 0.9434429 0.07471298
vn 0.383727 0.9144735 -0.1284204
vn 0.1854627 0.9636868 -0.1921231
vn 0.4268776 0.8436309 -0.3256723
vn -0.1621933 0.8238653 -0.5430832
vn -0.2828331 0.959092 -0.01216846
vn -0.4060399 0.6650369 -0.6267834
vn -0.5546604 0.8316296 0.02727531
vn -0.0365534 0.8739552 0.4846299
vn -0.251258 0.7267453 0.6393048
vn 0.4323762 0.618327 0.6562945
vn 0.3264399 0.4118249 0.8507863
vn 0.8492655 0.34195 0.4022663
vn 0.8400246 0.07134299 0.5378371
vn 0.9699045 0.206723 -0.1286493
vn 0.9886456 -0.09525002 -0.1162216
vn 0.7236249 0.29186 -0.6254476
vn 0.685242 0.009635 -0.7282518
vn 0.2546943 0.5474889 -0.7971115
vn 0.1075449 0.324556 -0.9397327
vn -0.556 0.5162241 -0.651442
vn -0.7162157 0.6958141 0.0536451
vn -0.389142 0.5827472 0.7134244
vn 0.2336265 0.2432561 0.941406
vn 0.7872809 -0.123789 0.6040406
vn 0.947497 -0.303379 -0.1010475
vn 0.6204221 -0.190312 -0.760827
vn -0.002346545 0.1491791 -0.9888073
vn 0.6344673 0.7373568 -0.2318535
vn 0.6153614 0.7851081 0.07025439
vn 0.5050055 0.8568879 -0.1035019
vn 0.3515462 0.9356971 0.0297676
vn 0.3706517 0.8879461 -0.2723399
vn 0.3302673 0.6109444 -0.7194933
vn -0.2383849 0.3693524 -0.8981934
vn 0.4785521 0.4137206 -0.7744825
vn -0.1639161 0.1407688 -0.9763788
vn -0.7795596 0.2056359 -0.5916086
vn -0.7753377 -0.04420039 -0.6299981
vn -0.9762418 0.2156964 0.02066597
vn -0.9975511 -0.03283307 0.06175545
vn -0.713219 0.3936419 0.5799696
vn -0.700386 0.1682102 0.6936604
vn -0.1445659 0.6352329 0.7586697
vn -0.05791837 0.4411621 0.8955565
vn 0.3966077 0.7989506 0.4520844
vn 0.553504 0.6261312 0.5491748
vn 0.5932901 0.7888891 -0.1601899
vn 0.7757168 0.6147642 -0.1425781
vn -0.0148771 0.9311942 -0.3642198
vn -0.5408733 0.7211424 -0.4329085
vn -0.3532391 0.9266384 -0.1286989
vn -0.6315576 0.764573 0.128698
vn -0.1055619 0.9746255 0.1973874

vt 0.3613281 0.484375
vt 0.3461914 0.479248
vt 0.3603516 0.498291
vt 0.3356934 0.4875488
vt 0.3395996 0.463623
vt 0.3259277 0.4626465
vt 0.3447266 0.4484863
vt 0.3364258 0.4379883
vt 0.3603516 0.4418945
vt 0.3613281 0.4282227
vt 0.3754883 0.4470215
vt 0.3859863 0.4387207
vt 0.3820801 0.4626465
vt 0.395752 0.463623
vt 0.3769531 0.4780273
vt 0.3852539 0.4882813
vt 0.3652344 0.4726563
vt 0.3513184 0.4677734
vt 0.3608398 0.4631348
vt 0.3564453 0.4538574
vt 0.3701172 0.4587402
vt 0.4470215 0.4243164
vt 0.4257813 0.4155273
vt 0.4472656 0.4458008
vt 0.4106445 0.4306641
vt 0.4169922 0.3942871
vt 0.3955078 0.3942871
vt 0.4257813 0.3728027
vt 0.4106445 0.3579102
vt 0.4470215 0.3642578
vt 0.4470215 0.3427734
vt 0.4685059 0.3730469
vt 0.4833984 0.357666
vt 0.4770508 0.3942871
vt 0.4985352 0.394043
vt 0.4682617 0.4155273
vt 0.4833984 0.4306641
vt 0.4470215 0.4689941
vt 0.394043 0.4470215
vt 0.3723145 0.394043
vt 0.394043 0.3413086
vt 0.4470215 0.3193359
vt 0.5 0.3413086
vt 0.5219727 0.3942871
vt 0.5 0.4472656
vt 0.4609375 0.3884277
vt 0.4411621 0.3803711
vt 0.4470215 0.3942871
vt 0.4331055 0.3999023
vt 0.4528809 0.407959
vt 0.4470215 0.4243164
vt 0.4257813 0.4155273
vt 0.4472656 0.4458008
vt 0.4106445 0.4306641
vt 0.4169922 0.3942871
vt 0.3955078 0.3942871
vt 0.4257813 0.3728027
vt 0.4106445 0.3579102
vt 0.4470215 0.3642578
vt 0.4470215 0.3427734
vt 0.4685059 0.3730469
vt 0.4833984 0.357666
vt 0.4770508 0.3942871
vt 0.4985352 0.394043
vt 0.4682617 0.4155273
vt 0.4833984 0.4306641
vt 0.4470215 0.4689941
vt 0.394043 0.4470215
vt 0.3723145 0.394043
vt 0.394043 0.3413086
vt 0.4470215 0.3193359
vt 0.5 0.3413086
vt 0.5219727 0.3942871
vt 0.5 0.4472656
vt 0.4609375 0.3884277
vt 0.4411621 0.3803711
vt 0.4470215 0.3942871
vt 0.4331055 0.3999023
vt 0.4528809 0.407959
vt 0.3613281 0.484375
vt 0.3461914 0.479248
vt 0.3603516 0.498291
vt 0.3356934 0.4875488
vt 0.3395996 0.463623
vt 0.3259277 0.4626465
vt 0.3447266 0.4484863
vt 0.3364258 0.4379883
vt 0.3603516 0.4418945
vt 0.3613281 0.4282227
vt 0.3754883 0.4470215
vt 0.3859863 0.4387207
vt 0.3820801 0.4626465
vt 0.395752 0.463623
vt 0.3769531 0.4780273
vt 0.3852539 0.4882813
vt 0.3652344 0.4726563
vt 0.3513184 0.4677734
vt 0.3608398 0.4631348
vt 0.3564453 0.4538574
vt 0.3701172 0.4587402

g Tree4_(93)_3144_400
usemtl Tree4_(93)_3144_400
usemap Tree4_(93)_3144_400
f 1/1/1 3/3/3 2/2/2
f 2/2/2 3/3/3 4/4/4
f 2/2/2 4/4/4 5/5/5
f 5/5/5 4/4/4 6/6/6
f 5/5/5 6/6/6 7/7/7
f 7/7/7 6/6/6 8/8/8
f 7/7/7 8/8/8 9/9/9
f 9/9/9 8/8/8 10/10/10
f 9/9/9 10/10/10 11/11/11
f 11/11/11 10/10/10 12/12/12
f 11/11/11 12/12/12 13/13/13
f 13/13/13 12/12/12 14/14/14
f 13/13/13 14/14/14 15/15/15
f 15/15/15 14/14/14 16/16/16
f 15/15/15 16/16/16 1/1/1
f 1/1/1 16/16/16 3/3/3
f 15/15/15 1/1/1 17/17/17
f 1/1/1 2/2/2 17/17/17
f 17/17/17 2/2/2 18/18/18
f 2/2/2 5/5/5 18/18/18
f 5/5/5 7/7/7 18/18/18
f 17/17/17 18/18/18 19/19/19
f 18/18/18 20/20/20 19/19/19
f 18/18/18 7/7/7 20/20/20
f 7/7/7 9/9/9 20/20/20
f 9/9/9 11/11/11 20/20/20
f 20/20/20 21/21/21 19/19/19
f 21/21/21 17/17/17 19/19/19
f 20/20/20 11/11/11 21/21/21
f 11/11/11 13/13/13 21/21/21
f 13/13/13 15/15/15 21/21/21
f 21/21/21 15/15/15 17/17/17
f 22/22/22 24/24/24 23/23/23
f 23/23/23 24/24/24 25/25/25
f 23/23/23 25/25/25 26/26/26
f 26/26/26 25/25/25 27/27/27
f 26/26/26 27/27/27 28/28/28
f 28/28/28 27/27/27 29/29/29
f 28/28/28 29/29/29 30/30/30
f 30/30/30 29/29/29 31/31/31
f 30/30/30 31/31/31 32/32/32
f 32/32/32 31/31/31 33/33/33
f 32/32/32 33/33/33 34/34/34
f 34/34/34 33/33/33 35/35/35
f 34/34/34 35/35/35 36/36/36
f 36/36/36 35/35/35 37/37/37
f 36/36/36 37/37/37 22/22/22
f 22/22/22 37/37/37 24/24/24
f 24/24/24 38/38/38 25/25/25
f 25/25/25 38/38/38 39/39/39
f 25/25/25 39/39/39 27/27/27
f 27/27/27 39/39/39 40/40/40
f 27/27/27 40/40/40 29/29/29
f 29/29/29 40/40/40 41/41/41
f 29/29/29 41/41/41 31/31/31
f 31/31/31 41/41/41 42/42/42
f 31/31/31 42/42/42 33/33/33
f 33/33/33 42/42/42 43/43/43
f 33/33/33 43/43/43 35/35/35
f 35/35/35 43/43/43 44/44/44
f 35/35/35 44/44/44 37/37/37
f 37/37/37 44/44/44 45/45/45
f 37/37/37 45/45/45 24/24/24
f 24/24/24 45/45/45 38/38/38
f 32/32/32 34/34/34 46/46/46
f 34/34/34 36/36/36 46/46/46
f 47/47/47 32/32/32 46/46/46
f 47/47/47 46/46/46 48/48/48
f 49/49/49 47/47/47 48/48/48
f 50/50/50 49/49/49 48/48/48
f 46/46/46 50/50/50 48/48/48
f 50/50/50 23/23/23 49/49/49
f 22/22/22 23/23/23 50/50/50
f 36/36/36 22/22/22 50/50/50
f 46/46/46 36/36/36 50/50/50
f 23/23/23 26/26/26 49/49/49
f 26/26/26 28/28/28 49/49/49
f 49/49/49 28/28/28 47/47/47
f 28/28/28 30/30/30 47/47/47
f 30/30/30 32/32/32 47/47/47
f 51/51/51 53/53/53 52/52/52
f 52/52/52 53/53/53 54/54/54
f 52/52/52 54/54/54 55/55/55
f 55/55/55 54/54/54 56/56/56
f 55/55/55 56/56/56 57/57/57
f 57/57/57 56/56/56 58/58/58
f 57/57/57 58/58/58 59/59/59
f 59/59/59 58/58/58 60/60/60
f 59/59/59 60/60/60 61/61/61
f 61/61/61 60/60/60 62/62/62
f 61/61/61 62/62/62 63/63/63
f 63/63/63 62/62/62 64/64/64
f 63/63/63 64/64/64 65/65/65
f 65/65/65 64/64/64 66/66/66
f 65/65/65 66/66/66 51/51/51
f 51/51/51 66/66/66 53/53/53
f 53/53/53 67/67/67 54/54/54
f 54/54/54 67/67/67 68/68/68
f 54/54/54 68/68/68 56/56/56
f 56/56/56 68/68/68 69/69/69
f 56/56/56 69/69/69 58/58/58
f 58/58/58 69/69/69 70/70/70
f 58/58/58 70/70/70 60/60/60
f 60/60/60 70/70/70 71/71/71
f 60/60/60 71/71/71 62/62/62
f 62/62/62 71/71/71 72/72/72
f 62/62/62 72/72/72 64/64/64
f 64/64/64 72/72/72 73/73/73
f 64/64/64 73/73/73 66/66/66
f 66/66/66 73/73/73 74/74/74
f 66/66/66 74/74/74 53/53/53
f 53/53/53 74/74/74 67/67/67
f 61/61/61 63/63/63 75/75/75
f 63/63/63 65/65/65 75/75/75
f 76/76/76 61/61/61 75/75/75
f 76/76/76 75/75/75 77/77/77
f 78/78/78 76/76/76 77/77/77
f 79/79/79 78/78/78 77/77/77
f 75/75/75 79/79/79 77/77/77
f 79/79/79 52/52/52 78/78/78
f 51/51/51 52/52/52 79/79/79
f 65/65/65 51/51/51 79/79/79
f 75/75/75 65/65/65 79/79/79
f 52/52/52 55/55/55 78/78/78
f 55/55/55 57/57/57 78/78/78
f 78/78/78 57/57/57 76/76/76
f 57/57/57 59/59/59 76/76/76
f 59/59/59 61/61/61 76/76/76
f 80/80/80 82/82/82 81/81/81
f 81/81/81 82/82/82 83/83/83
f 81/81/81 83/83/83 84/84/84
f 84/84/84 83/83/83 85/85/85
f 84/84/84 85/85/85 86/86/86
f 86/86/86 85/85/85 87/87/87
f 86/86/86 87/87/87 88/88/88
f 88/88/88 87/87/87 89/89/89
f 88/88/88 89/89/89 90/90/90
f 90/90/90 89/89/89 91/91/91
f 90/90/90 91/91/91 92/92/92
f 92/92/92 91/91/91 93/93/93
f 92/92/92 93/93/93 94/94/94
f 94/94/94 93/93/93 95/95/95
f 94/94/94 95/95/95 80/80/80
f 80/80/80 95/95/95 82/82/82
f 94/94/94 80/80/80 96/96/96
f 80/80/80 81/81/81 96/96/96
f 96/96/96 81/81/81 97/97/97
f 81/81/81 84/84/84 97/97/97
f 84/84/84 86/86/86 97/97/97
f 96/96/96 97/97/97 98/98/98
f 97/97/97 99/99/99 98/98/98
f 97/97/97 86/86/86 99/99/99
f 86/86/86 88/88/88 99/99/99
f 88/88/88 90/90/90 99/99/99
f 99/99/99 100/100/100 98/98/98
f 100/100/100 96/96/96 98/98/98
f 99/99/99 90/90/90 100/100/100
f 90/90/90 92/92/92 100/100/100
f 92/92/92 94/94/94 100/100/100
f 100/100/100 94/94/94 96/96/96
