#Tree3_(1)_1238_244.obj

v 0.898093 -0.2467098 0.2916024
v 0.5627154 1.493185 0.4763377
v 0.388088 1.493185 0.08865583
v 0.6446233 -0.2467098 -0.1738407
v 0.2988259 -0.2467098 -0.2453802
v -0.03350799 1.493185 -0.07192611
v -0.04980024 0.9535935 -0.1633226
v 0.4182128 1.112749 0.8406234
v 0.3880891 1.493185 0.8640113
v 0.2328216 -0.2360249 0.8227741
v -0.03350805 1.493185 1.024593
v -0.08604917 -0.2467098 0.9498328
v -0.392707 3.338958 -0.07598069
v -0.2825044 3.369289 0.2992977
v -0.6720306 3.252133 -0.2578877
v -0.392707 3.338958 0.6745785
v -0.6720294 3.252133 0.8564802
v -0.455104 1.493185 0.8640108
v -0.9610657 3.155363 0.6932841
v -0.6297332 1.493185 0.4763372
v -1.080788 3.11528 0.4763381
v -0.4551042 1.493185 0.08865896
v -0.7989367 -0.2467098 -0.1738414
v -0.5550215 -0.2467098 -0.2188842
v -0.04980024 0.9535935 -0.1633226
v -0.03350799 1.493185 -0.07192611
v -0.9514639 -0.2467098 0.2916023
v -0.961067 3.155363 -0.0946907
v -0.6720306 3.252133 -0.2578877
v -0.9104428 6.154762 0.1526982
v -0.6790487 6.154762 0.1140673
v -1.015423 6.154762 0.4641728
v -0.9104414 6.154762 0.6148443
v -0.6790515 6.154762 0.7348067
v -0.4742315 6.154762 0.6568299
v -0.3961831 6.154762 0.4611797
v -0.4742326 6.154762 0.2476241
v -0.6790487 6.154762 0.1140673
v -0.7402945 -0.2467098 0.5776014
v -0.5274143 0.9751863 0.8321639
v -0.7940706 -0.4677124 1.26951
v -0.3652848 -0.2467098 0.8304148
v -0.7940706 -0.4677124 1.26951
v -0.5274143 0.9751863 0.8321639
v -0.0860492 -0.2467098 -0.9542078
v -0.0860492 -0.2467098 -0.9542078
v 1.052338 -0.5420864 1.041771
v 1.052338 -0.5420864 1.041771
v 0.3649879 0.9880412 0.2978556
v 0.8266038 1.692036 0.5149945
v 0.741295 1.647383 0.3210487
v 0.2852582 1.035575 0.07437337
v 0.5962488 1.812386 0.2134446
v 0.09975268 1.159606 -0.01835617
v 0.3977764 1.887208 0.3212325
v -0.08286802 1.287479 0.07399106
v 0.4349588 1.966669 0.5139697
v -0.1556195 1.344287 0.2973122
v 0.3783841 1.883636 0.6549172
v -0.07589719 1.296754 0.5207964
v 0.5956064 1.668309 0.7647365
v 0.1096 1.172722 0.6135242
v 0.7720904 1.6095 0.6538072
v 0.2922291 1.044849 0.5211787
v 0.8266038 1.692036 0.5149945
v 0.3649879 0.9880412 0.2978556
v 1.656431 2.454257 0.1529123
v 1.468845 2.584558 0.2474404
v 1.393528 2.641651 0.4760499
v 1.474612 2.592094 0.7048324
v 1.664578 2.464917 0.7997588
v 1.852161 2.334618 0.7052317
v 1.927473 2.277522 0.4766194
v 1.94949 3.38979 0.4636129
v 2.120275 3.410829 0.4620097
v 1.846397 2.327078 0.2478386
v 1.927473 2.277522 0.4766194
v 2.290673 3.447176 0.5720898
v 2.367408 3.477539 0.739311
v 1.945512 3.508565 0.6701322
v 2.014069 3.510238 0.8324583
v 2.148347 3.463095 0.9026083
v 2.309747 3.484134 0.8772555
v 2.367408 3.477539 0.739311

vn 0.9668105 0.115254 0.2280218
vn 0.9513594 0.126627 0.2808576
vn 0.8566211 0.09115901 -0.507829
vn 0.8132088 0.164291 -0.5583009
vn 0.7837378 0.237761 -0.5737813
vn 0.2557573 0.04265301 -0.9657997
vn 0.2597335 0.324559 -0.9095054
vn 0.3724859 0.05652802 0.9263147
vn 0.480355 0.08713903 0.8727347
vn -0.09724087 -0.03089199 0.9947814
vn -0.2175763 0.03889001 0.9752682
vn -0.2629139 -0.03331299 0.964244
vn 0.8663714 0.047315 -0.4971538
vn 0.9691641 0.1062549 0.2223305
vn 0.3320224 0.06419402 -0.9410846
vn 0.5455999 0.07829998 0.8343799
vn -0.2642632 -0.012572 0.9643686
vn -0.8102791 0.03390702 0.5850625
vn -0.8514578 -0.04222897 0.5227202
vn -0.9779224 0.06695198 -0.1979524
vn -0.9872767 0.030462 -0.1560667
vn -0.4948179 0.06118899 -0.8668398
vn -0.4345996 0.2019731 -0.8776845
vn -0.3579421 0.2847561 -0.8892645
vn 0.2597335 0.324559 -0.9095054
vn 0.2557573 0.04265301 -0.9657997
vn -0.9444528 0.173637 -0.2790326
vn -0.4311071 0.121351 -0.8941032
vn 0.3320224 0.06419402 -0.9410846
vn -0.4544602 0.2468529 -0.8558794
vn 0.470246 0.2529961 -0.8454949
vn -0.9960889 0.06183 -0.06311797
vn -0.8142567 -0.07486501 0.5756572
vn -0.3133796 -0.116526 0.9424515
vn 0.4671657 -0.06800602 0.8815506
vn 0.9503933 0.042641 0.3081145
vn 0.9237574 0.154694 -0.3503455
vn 0.470246 0.2529961 -0.8454949
vn -0.98951 0.106873 0.09720182
vn -0.7480059 0.08505797 0.658219
vn -0.8466557 0.051948 0.5295995
vn -0.1438158 0.022652 0.9893451
vn -0.8466557 0.051948 0.5295995
vn -0.7480059 0.08505797 0.658219
vn 0.247377 0.176202 -0.9527631
vn 0.247377 0.176202 -0.9527631
vn 0.4632673 0.009463004 0.886168
vn 0.4632673 0.009463004 0.886168
vn 0.8281325 -0.5490681 0.1127867
vn 0.6075085 -0.7834702 0.130797
vn 0.7433832 -0.4675329 -0.4783246
vn 0.8361053 -0.232616 -0.4968075
vn 0.275628 0.14151 -0.9507913
vn 0.39312 0.251613 -0.8843911
vn -0.3231982 0.6481669 -0.689509
vn -0.2532042 0.6197538 -0.7428276
vn -0.6202819 0.7724905 -0.1360466
vn -0.696297 0.6739743 -0.2468386
vn -0.7219504 0.479693 0.4986806
vn -0.8051714 0.410288 0.4282089
vn -0.2962385 -0.121057 0.9474111
vn -0.3564785 -0.17088 0.918544
vn 0.3295263 -0.6206129 0.7115139
vn 0.3934847 -0.5936821 0.7019341
vn 0.6075085 -0.7834702 0.130797
vn 0.8281325 -0.5490681 0.1127867
vn 0.4008483 0.218502 -0.8897065
vn -0.1210677 0.6673079 -0.734876
vn -0.5978114 0.7606009 -0.2531952
vn -0.8188912 0.2733921 0.5046523
vn -0.3293546 -0.3617901 0.872143
vn 0.3510979 -0.6864228 0.6368313
vn 0.7750886 -0.624091 0.09873271
vn -0.1522549 0.7714701 -0.6177801
vn 0.5527896 0.5219939 -0.6495737
vn 0.8036183 -0.3145871 -0.5052054
vn 0.7750886 -0.624091 0.09873271
vn 0.9672088 -0.001752001 -0.2539764
vn 0.7769083 -0.4938701 0.39052
vn -0.9463466 0.3227668 0.01579848
vn -0.8490406 -0.1897499 0.4930769
vn -0.370909 -0.539331 0.7560084
vn 0.2690564 -0.6452188 0.7150534
vn 0.7769083 -0.4938701 0.39052

vt 0.126709 0.3288574
vt 0.1293945 0.3742676
vt 0.1407471 0.3754883
vt 0.1362305 0.3291016
vt 0.1413574 0.3303223
vt 0.1525879 0.3789063
vt 0.15271 0.3623047
vt 0.1174927 0.3647461
vt 0.118103 0.3754883
vt 0.1054077 0.3300781
vt 0.1060181 0.3786621
vt 0.1013794 0.3305664
vt 0.149292 0.4240723
vt 0.1358643 0.4257813
vt 0.15979 0.4228516
vt 0.121521 0.4277344
vt 0.1089478 0.4287109
vt 0.09356689 0.3813477
vt 0.09710693 0.4299316
vt 0.08105469 0.3840332
vt 0.08880615 0.4311523
vt 0.06884766 0.3857422
vt 0.0670166 0.3334961
vt 0.06384277 0.3349609
vt 0.05545044 0.3713379
vt 0.05654907 0.3869629
vt 0.07647705 0.3317871
vt 0.07189941 0.435791
vt 0.0625 0.4394531
vt 0.074646 0.4926758
vt 0.06512451 0.4936523
vt 0.09069824 0.4914551
vt 0.1012573 0.4904785
vt 0.1171875 0.4887695
vt 0.1308594 0.4870605
vt 0.1435547 0.4853516
vt 0.1560059 0.4838867
vt 0.1673584 0.4829102
vt 0.08154297 0.3320313
vt 0.09130859 0.3662109
vt 0.0892334 0.3222656
vt 0.097229 0.3310547
vt 0.0892334 0.3222656
vt 0.09130859 0.3662109
vt 0.1542969 0.3291016
vt 0.04974365 0.3359375
vt 0.1149902 0.3195801
vt 0.1149902 0.3195801
vt 0.050354 0.3269043
vt 0.05477905 0.3681641
vt 0.06396484 0.3632813
vt 0.06066895 0.3205566
vt 0.07598877 0.3637695
vt 0.07141113 0.3161621
vt 0.08642578 0.3591309
vt 0.08282471 0.3151855
vt 0.09460449 0.3659668
vt 0.09399414 0.3178711
vt 0.1016846 0.3613281
vt 0.1053467 0.3225098
vt 0.1165771 0.3642578
vt 0.1170654 0.3259277
vt 0.1252441 0.3696289
vt 0.1287842 0.3276367
vt 0.131958 0.3745117
vt 0.1402588 0.3256836
vt 0.06628418 0.4277344
vt 0.07714844 0.4272461
vt 0.08837891 0.4291992
vt 0.09985352 0.4318848
vt 0.1115112 0.4338379
vt 0.1234131 0.4348145
vt 0.1357422 0.4345703
vt 0.0758667 0.472168
vt 0.06762695 0.4794922
vt 0.05535889 0.4287109
vt 0.04382324 0.4294434
vt 0.05892944 0.4885254
vt 0.05099487 0.494873
vt 0.08605957 0.4821777
vt 0.09484863 0.4853516
vt 0.1034546 0.4858398
vt 0.1099854 0.4914551
vt 0.1179199 0.4924316

g Tree3_(1)_1238_244
usemtl Tree3_(1)_1238_244
usemap Tree3_(1)_1238_244
f 1/1/1 3/3/3 2/2/2
f 1/1/1 4/4/4 3/3/3
f 5/5/5 3/3/3 4/4/4
f 3/3/3 5/5/5 6/6/6
f 6/6/6 5/5/5 7/7/7
f 8/8/8 1/1/1 2/2/2
f 8/8/8 2/2/2 9/9/9
f 9/9/9 10/10/10 8/8/8
f 10/10/10 9/9/9 11/11/11
f 10/10/10 11/11/11 12/12/12
f 2/2/2 3/3/3 13/13/13
f 2/2/2 13/13/13 14/14/14
f 9/9/9 2/2/2 14/14/14
f 3/3/3 15/15/15 13/13/13
f 3/3/3 6/6/6 15/15/15
f 11/11/11 9/9/9 16/16/16
f 9/9/9 14/14/14 16/16/16
f 11/11/11 16/16/16 17/17/17
f 18/18/18 11/11/11 17/17/17
f 18/18/18 12/12/12 11/11/11
f 18/18/18 17/17/17 19/19/19
f 20/20/20 18/18/18 19/19/19
f 20/20/20 19/19/19 21/21/21
f 22/22/22 20/20/20 21/21/21
f 23/23/23 20/20/20 22/22/22
f 22/22/22 24/24/24 23/23/23
f 22/22/22 25/25/25 24/24/24
f 25/25/25 22/22/22 26/26/26
f 23/23/23 27/27/27 20/20/20
f 26/26/26 22/22/22 28/28/28
f 22/22/22 21/21/21 28/28/28
f 26/26/26 28/28/28 29/29/29
f 29/29/29 28/28/28 30/30/30
f 29/29/29 30/30/30 31/31/31
f 28/28/28 32/32/32 30/30/30
f 28/28/28 21/21/21 32/32/32
f 21/21/21 33/33/33 32/32/32
f 21/21/21 19/19/19 33/33/33
f 19/19/19 34/34/34 33/33/33
f 19/19/19 17/17/17 34/34/34
f 17/17/17 35/35/35 34/34/34
f 17/17/17 16/16/16 35/35/35
f 16/16/16 36/36/36 35/35/35
f 16/16/16 14/14/14 36/36/36
f 14/14/14 37/37/37 36/36/36
f 14/14/14 13/13/13 37/37/37
f 13/13/13 38/38/38 37/37/37
f 13/13/13 15/15/15 38/38/38
f 39/39/39 41/41/41 40/40/40
f 40/40/40 27/27/27 39/39/39
f 27/27/27 40/40/40 20/20/20
f 20/20/20 40/40/40 18/18/18
f 42/42/42 18/18/18 40/40/40
f 12/12/12 18/18/18 42/42/42
f 43/43/43 42/42/42 44/44/44
f 5/5/5 45/45/45 7/7/7
f 46/46/46 24/24/24 25/25/25
f 10/10/10 47/47/47 8/8/8
f 48/48/48 1/1/1 8/8/8
f 49/49/49 51/51/51 50/50/50
f 49/49/49 52/52/52 51/51/51
f 52/52/52 53/53/53 51/51/51
f 52/52/52 54/54/54 53/53/53
f 54/54/54 55/55/55 53/53/53
f 54/54/54 56/56/56 55/55/55
f 56/56/56 57/57/57 55/55/55
f 56/56/56 58/58/58 57/57/57
f 58/58/58 59/59/59 57/57/57
f 58/58/58 60/60/60 59/59/59
f 60/60/60 61/61/61 59/59/59
f 60/60/60 62/62/62 61/61/61
f 62/62/62 63/63/63 61/61/61
f 62/62/62 64/64/64 63/63/63
f 64/64/64 65/65/65 63/63/63
f 64/64/64 66/66/66 65/65/65
f 51/51/51 53/53/53 67/67/67
f 53/53/53 68/68/68 67/67/67
f 53/53/53 55/55/55 68/68/68
f 55/55/55 69/69/69 68/68/68
f 55/55/55 57/57/57 69/69/69
f 57/57/57 70/70/70 69/69/69
f 57/57/57 59/59/59 70/70/70
f 59/59/59 71/71/71 70/70/70
f 59/59/59 61/61/61 71/71/71
f 61/61/61 72/72/72 71/71/71
f 61/61/61 63/63/63 72/72/72
f 63/63/63 73/73/73 72/72/72
f 63/63/63 65/65/65 73/73/73
f 67/67/67 68/68/68 74/74/74
f 67/67/67 74/74/74 75/75/75
f 76/76/76 67/67/67 75/75/75
f 51/51/51 67/67/67 76/76/76
f 50/50/50 51/51/51 76/76/76
f 50/50/50 76/76/76 77/77/77
f 77/77/77 76/76/76 78/78/78
f 76/76/76 75/75/75 78/78/78
f 77/77/77 78/78/78 79/79/79
f 68/68/68 80/80/80 74/74/74
f 68/68/68 69/69/69 80/80/80
f 69/69/69 81/81/81 80/80/80
f 69/69/69 70/70/70 81/81/81
f 70/70/70 82/82/82 81/81/81
f 70/70/70 71/71/71 82/82/82
f 71/71/71 83/83/83 82/82/82
f 71/71/71 72/72/72 83/83/83
f 72/72/72 84/84/84 83/83/83
f 72/72/72 73/73/73 84/84/84
