#Tree2_(1)_1714_165.obj

v -0.9476834 2.593094 -1.247158
v -1.431888 2.457369 -1.18567
v -0.7597025 2.141749 -1.385763
v -1.388368 1.965532 -1.305932
v -1.743186 2.410607 -0.7887171
v -1.792536 1.904819 -0.7905521
v -1.699211 2.480202 -0.2888379
v -1.735446 1.995176 -0.1415309
v -1.325735 2.625384 0.02115368
v -1.250541 2.183674 0.2609379
v -0.8415267 2.76111 -0.04033295
v -0.6218719 2.359892 0.1811073
v -0.530233 2.807871 -0.4372874
v -0.217704 2.420604 -0.3342724
v -0.574204 2.738276 -0.9371656
v -0.2747963 2.330247 -0.9832864
v -0.9974777 2.86026 -0.8983232
v -1.446602 2.734369 -0.8412841
v -1.227293 2.916618 -0.6478295
v -1.405815 2.798922 -0.3776192
v -0.9566888 2.924814 -0.4346577
v 2.077334 5.668246 -2.225862
v 1.221398 5.541389 -2.802411
v 2.515573 5.079143 -2.417611
v 1.35908 4.907739 -3.19662
v 0.201632 5.496245 -2.604497
v -0.01877339 4.846745 -2.929211
v -0.3846016 5.559262 -1.748055
v -0.8108587 4.931889 -1.772034
v -0.1938944 5.693524 -0.7347734
v -0.5531839 5.113296 -0.4029437
v 0.6620466 5.820383 -0.1582232
v 0.6033161 5.284699 0.3760597
v 1.681814 5.865525 -0.3561364
v 1.981168 5.345695 0.1086579
v 2.268048 5.802509 -1.212579
v 2.773253 5.26055 -1.048527
v 2.783706 4.389544 -2.480872
v 1.460079 4.193369 -3.372453
v -0.1168899 4.123561 -3.066397
v -1.023443 4.22101 -1.741998
v -0.72853 4.428633 -0.1750503
v 0.5950984 4.624807 0.716531
v 2.172075 4.694616 0.4104779
v 3.078621 4.597167 -0.9139319
v 1.038745 6.029766 -0.900837
v 0.3081509 5.921485 -1.392952
v 0.9201343 6.000619 -1.518622
v 0.8085357 5.867697 -2.123975
v 1.53912 5.975979 -1.631855
v 0.9061311 4.917651 -2.688768
v -0.07884657 4.917651 -2.280772
v 0.90613 4.300433 -3.177897
v -0.4247169 4.300433 -2.626643
v -0.4868353 4.917651 -1.295799
v -0.9759671 4.300433 -1.295799
v -0.07884548 4.917651 -0.3108248
v -0.4247164 4.300433 0.03504318
v 0.9061301 4.917651 0.09716774
v 0.9061297 4.300433 0.5863043
v 1.891109 4.917651 -0.3108203
v 2.236978 4.300433 0.03504283
v 2.299098 4.917651 -1.295801
v 2.788232 4.300433 -1.295801
v 1.89111 4.917651 -2.280775
v 2.236977 4.300433 -2.626644
v 0.906131 3.575043 -3.613037
v -0.7324047 3.575043 -2.934332
v -1.411103 3.575043 -1.295796
v -0.7324051 3.575043 0.3427324
v 0.9061303 3.575043 1.021436
v 2.544669 3.575043 0.342732
v 3.223371 3.575043 -1.295803
v 2.544662 3.575043 -2.934334
v 1.500618 5.200411 -1.049555
v 0.659886 5.200411 -0.7013145
v 0.9061306 5.255187 -1.2958
v 0.3116444 5.200411 -1.542045
v 1.152375 5.200411 -1.890286

vn 0.8545666 0.4964109 -0.1526178
vn 0.6108785 0.324102 -0.7223473
vn 0.9574935 0.2762739 -0.08293924
vn 0.6821731 0.08159798 -0.7266236
vn 0.01786089 0.2647371 -0.9641553
vn 0.01217657 0.01452599 -0.9998205
vn -0.5771048 0.3530899 -0.7363951
vn -0.6600203 0.114349 -0.7424943
vn -0.8254966 0.5374057 -0.1724839
vn -0.9406542 0.32259 -0.1053833
vn -0.5818086 0.7097141 0.3972467
vn -0.6653337 0.5172651 0.5383012
vn 0.01121038 0.7690797 0.6390547
vn 0.004663885 0.5843369 0.8114979
vn 0.6061759 0.6807264 0.4112935
vn 0.6768597 0.484515 0.5541717
vn 0.4167939 0.8906247 -0.1818529
vn 0.1181977 0.7524443 -0.6479637
vn 0.02681462 0.9536011 -0.2998766
vn -0.3677219 0.8544849 -0.366928
vn -0.06912663 0.9926653 0.09918193
vn 0.6156123 0.6742987 0.4078515
vn 0.7864856 0.6064851 -0.1166898
vn 0.7228697 0.424205 0.5454444
vn 0.9345458 0.3401981 -0.1043529
vn 0.5352166 0.5823539 -0.6118882
vn 0.6232764 0.310304 -0.7178009
vn 0.0089968 0.6160398 -0.7876638
vn -0.02860187 0.352034 -0.9355502
vn -0.4839239 0.6878113 -0.5410485
vn -0.6392274 0.4409437 -0.6300453
vn -0.6547966 0.7556249 -0.01650679
vn -0.8509033 0.5249509 0.01975265
vn -0.4035276 0.7797561 0.4786918
vn -0.5396329 0.554845 0.6332011
vn 0.1226928 0.7460701 0.6544662
vn 0.112245 0.513114 0.8509496
vn 0.7584817 0.2220959 0.6126817
vn 0.9872794 0.131294 -0.08967492
vn 0.6508327 0.09898195 -0.7527415
vn -0.05377275 0.144088 -0.9881029
vn -0.7137879 0.2401891 -0.6578877
vn -0.9425855 0.3309911 0.04446925
vn -0.6061384 0.363303 0.707536
vn 0.09846704 0.3181969 0.9428972
vn -0.07489073 0.9966761 0.03206253
vn -0.03473142 0.9638119 -0.2643112
vn 0.09577936 0.9906772 -0.0968764
vn 0.2620631 0.9393159 -0.2213789
vn 0.2219038 0.9721802 0.07499479
vn 0.7048548 0.6802621 -0.2010553
vn 0.3562406 0.6802611 -0.6405761
vn 0.8683447 0.4296829 -0.2476897
vn 0.4388694 0.4296831 -0.7891555
vn -0.2010553 0.6802621 -0.7048548
vn -0.2476897 0.4296829 -0.8683447
vn -0.6405754 0.6802614 -0.356241
vn -0.7891555 0.4296831 -0.4388694
vn -0.7048548 0.6802621 0.2010553
vn -0.8683447 0.4296829 0.2476897
vn -0.3562397 0.6802614 0.6405761
vn -0.4388694 0.4296831 0.7891555
vn 0.2010553 0.6802621 0.7048548
vn 0.2476897 0.4296829 0.8683447
vn 0.6405761 0.6802614 0.3562397
vn 0.789156 0.4296827 0.4388688
vn 0.9360917 0.228989 -0.2670141
vn 0.4731093 0.2289891 -0.8507243
vn -0.2670141 0.228989 -0.9360917
vn -0.8507243 0.2289891 -0.4731093
vn -0.9360917 0.228989 0.2670141
vn -0.4731093 0.2289891 0.8507243
vn 0.2670141 0.228989 0.9360917
vn 0.8507248 0.228988 0.4731088
vn 0.01400442 0.9762389 0.2162439
vn -0.2162439 0.9762389 0.01400442
vn 0 1 0
vn -0.01400442 0.9762389 -0.2162439
vn 0.2162436 0.976239 -0.01400539

vt 0.3613281 0.484375
vt 0.3461914 0.479248
vt 0.3603516 0.498291
vt 0.3356934 0.4875488
vt 0.3395996 0.463623
vt 0.3259277 0.4626465
vt 0.3447266 0.4484863
vt 0.3364258 0.4379883
vt 0.3603516 0.4418945
vt 0.3613281 0.4282227
vt 0.3754883 0.4470215
vt 0.3859863 0.4387207
vt 0.3820801 0.4626465
vt 0.395752 0.463623
vt 0.3769531 0.4780273
vt 0.3852539 0.4882813
vt 0.3652344 0.4726563
vt 0.3513184 0.4677734
vt 0.3608398 0.4631348
vt 0.3564453 0.4538574
vt 0.3701172 0.4587402
vt 0.4470215 0.4243164
vt 0.4257813 0.4155273
vt 0.4472656 0.4458008
vt 0.4106445 0.4306641
vt 0.4169922 0.3942871
vt 0.3955078 0.3942871
vt 0.4257813 0.3728027
vt 0.4106445 0.3579102
vt 0.4470215 0.3642578
vt 0.4470215 0.3427734
vt 0.4685059 0.3730469
vt 0.4833984 0.357666
vt 0.4770508 0.3942871
vt 0.4985352 0.394043
vt 0.4682617 0.4155273
vt 0.4833984 0.4306641
vt 0.4470215 0.4689941
vt 0.394043 0.4470215
vt 0.3723145 0.394043
vt 0.394043 0.3413086
vt 0.4470215 0.3193359
vt 0.5 0.3413086
vt 0.5219727 0.3942871
vt 0.5 0.4472656
vt 0.4609375 0.3884277
vt 0.4411621 0.3803711
vt 0.4470215 0.3942871
vt 0.4331055 0.3999023
vt 0.4528809 0.407959
vt 0.4470215 0.4243164
vt 0.4257813 0.4155273
vt 0.4472656 0.4458008
vt 0.4106445 0.4306641
vt 0.4169922 0.3942871
vt 0.3955078 0.3942871
vt 0.4257813 0.3728027
vt 0.4106445 0.3579102
vt 0.4470215 0.3642578
vt 0.4470215 0.3427734
vt 0.4685059 0.3730469
vt 0.4833984 0.357666
vt 0.4770508 0.3942871
vt 0.4985352 0.394043
vt 0.4682617 0.4155273
vt 0.4833984 0.4306641
vt 0.4470215 0.4689941
vt 0.394043 0.4470215
vt 0.3723145 0.394043
vt 0.394043 0.3413086
vt 0.4470215 0.3193359
vt 0.5 0.3413086
vt 0.5219727 0.3942871
vt 0.5 0.4472656
vt 0.4609375 0.3884277
vt 0.4411621 0.3803711
vt 0.4470215 0.3942871
vt 0.4331055 0.3999023
vt 0.4528809 0.407959

g Tree2_(1)_1714_165
usemtl Tree2_(1)_1714_165
usemap Tree2_(1)_1714_165
f 1/1/1 3/3/3 2/2/2
f 2/2/2 3/3/3 4/4/4
f 2/2/2 4/4/4 5/5/5
f 5/5/5 4/4/4 6/6/6
f 5/5/5 6/6/6 7/7/7
f 7/7/7 6/6/6 8/8/8
f 7/7/7 8/8/8 9/9/9
f 9/9/9 8/8/8 10/10/10
f 9/9/9 10/10/10 11/11/11
f 11/11/11 10/10/10 12/12/12
f 11/11/11 12/12/12 13/13/13
f 13/13/13 12/12/12 14/14/14
f 13/13/13 14/14/14 15/15/15
f 15/15/15 14/14/14 16/16/16
f 15/15/15 16/16/16 1/1/1
f 1/1/1 16/16/16 3/3/3
f 15/15/15 1/1/1 17/17/17
f 1/1/1 2/2/2 17/17/17
f 17/17/17 2/2/2 18/18/18
f 2/2/2 5/5/5 18/18/18
f 5/5/5 7/7/7 18/18/18
f 17/17/17 18/18/18 19/19/19
f 18/18/18 20/20/20 19/19/19
f 18/18/18 7/7/7 20/20/20
f 7/7/7 9/9/9 20/20/20
f 9/9/9 11/11/11 20/20/20
f 20/20/20 21/21/21 19/19/19
f 21/21/21 17/17/17 19/19/19
f 20/20/20 11/11/11 21/21/21
f 11/11/11 13/13/13 21/21/21
f 13/13/13 15/15/15 21/21/21
f 21/21/21 15/15/15 17/17/17
f 22/22/22 24/24/24 23/23/23
f 23/23/23 24/24/24 25/25/25
f 23/23/23 25/25/25 26/26/26
f 26/26/26 25/25/25 27/27/27
f 26/26/26 27/27/27 28/28/28
f 28/28/28 27/27/27 29/29/29
f 28/28/28 29/29/29 30/30/30
f 30/30/30 29/29/29 31/31/31
f 30/30/30 31/31/31 32/32/32
f 32/32/32 31/31/31 33/33/33
f 32/32/32 33/33/33 34/34/34
f 34/34/34 33/33/33 35/35/35
f 34/34/34 35/35/35 36/36/36
f 36/36/36 35/35/35 37/37/37
f 36/36/36 37/37/37 22/22/22
f 22/22/22 37/37/37 24/24/24
f 24/24/24 38/38/38 25/25/25
f 25/25/25 38/38/38 39/39/39
f 25/25/25 39/39/39 27/27/27
f 27/27/27 39/39/39 40/40/40
f 27/27/27 40/40/40 29/29/29
f 29/29/29 40/40/40 41/41/41
f 29/29/29 41/41/41 31/31/31
f 31/31/31 41/41/41 42/42/42
f 31/31/31 42/42/42 33/33/33
f 33/33/33 42/42/42 43/43/43
f 33/33/33 43/43/43 35/35/35
f 35/35/35 43/43/43 44/44/44
f 35/35/35 44/44/44 37/37/37
f 37/37/37 44/44/44 45/45/45
f 37/37/37 45/45/45 24/24/24
f 24/24/24 45/45/45 38/38/38
f 32/32/32 34/34/34 46/46/46
f 34/34/34 36/36/36 46/46/46
f 47/47/47 32/32/32 46/46/46
f 47/47/47 46/46/46 48/48/48
f 49/49/49 47/47/47 48/48/48
f 50/50/50 49/49/49 48/48/48
f 46/46/46 50/50/50 48/48/48
f 50/50/50 23/23/23 49/49/49
f 22/22/22 23/23/23 50/50/50
f 36/36/36 22/22/22 50/50/50
f 46/46/46 36/36/36 50/50/50
f 23/23/23 26/26/26 49/49/49
f 26/26/26 28/28/28 49/49/49
f 49/49/49 28/28/28 47/47/47
f 28/28/28 30/30/30 47/47/47
f 30/30/30 32/32/32 47/47/47
f 51/51/51 53/53/53 52/52/52
f 52/52/52 53/53/53 54/54/54
f 52/52/52 54/54/54 55/55/55
f 55/55/55 54/54/54 56/56/56
f 55/55/55 56/56/56 57/57/57
f 57/57/57 56/56/56 58/58/58
f 57/57/57 58/58/58 59/59/59
f 59/59/59 58/58/58 60/60/60
f 59/59/59 60/60/60 61/61/61
f 61/61/61 60/60/60 62/62/62
f 61/61/61 62/62/62 63/63/63
f 63/63/63 62/62/62 64/64/64
f 63/63/63 64/64/64 65/65/65
f 65/65/65 64/64/64 66/66/66
f 65/65/65 66/66/66 51/51/51
f 51/51/51 66/66/66 53/53/53
f 53/53/53 67/67/67 54/54/54
f 54/54/54 67/67/67 68/68/68
f 54/54/54 68/68/68 56/56/56
f 56/56/56 68/68/68 69/69/69
f 56/56/56 69/69/69 58/58/58
f 58/58/58 69/69/69 70/70/70
f 58/58/58 70/70/70 60/60/60
f 60/60/60 70/70/70 71/71/71
f 60/60/60 71/71/71 62/62/62
f 62/62/62 71/71/71 72/72/72
f 62/62/62 72/72/72 64/64/64
f 64/64/64 72/72/72 73/73/73
f 64/64/64 73/73/73 66/66/66
f 66/66/66 73/73/73 74/74/74
f 66/66/66 74/74/74 53/53/53
f 53/53/53 74/74/74 67/67/67
f 61/61/61 63/63/63 75/75/75
f 63/63/63 65/65/65 75/75/75
f 76/76/76 61/61/61 75/75/75
f 76/76/76 75/75/75 77/77/77
f 78/78/78 76/76/76 77/77/77
f 79/79/79 78/78/78 77/77/77
f 75/75/75 79/79/79 77/77/77
f 79/79/79 52/52/52 78/78/78
f 51/51/51 52/52/52 79/79/79
f 65/65/65 51/51/51 79/79/79
f 75/75/75 65/65/65 79/79/79
f 52/52/52 55/55/55 78/78/78
f 55/55/55 57/57/57 78/78/78
f 78/78/78 57/57/57 76/76/76
f 57/57/57 59/59/59 76/76/76
f 59/59/59 61/61/61 76/76/76
