#Tree1_(1)_1717_190.obj

v 0.9804615 -0.3906398 -0.6921087
v 1.107485 0.8115063 -0.4743491
v 0.3104357 0.8115063 -0.8906077
v -0.2215883 -0.3906398 -1.266636
v 0.4838186 -0.3906398 0.8181289
v 0.7067525 0.8115063 0.543847
v -0.5842797 -0.3906398 0.6235053
v -0.147965 0.8115063 0.5496058
v -0.8845452 -0.3906398 -0.5367666
v -0.3146984 0.8115063 -0.4248113
v -0.2215883 -0.3906398 -1.266636
v 0.3104357 0.8115063 -0.8906077
v 0.3530318 1.663283 -0.4697904
v -0.1989463 1.663283 -0.1507433
v -0.7214429 2.662808 0.6160005
v -0.361255 2.662808 0.3769216
v -0.4593672 3.343327 0.2667011
v -0.8088661 3.343327 0.500047
v -0.6297187 2.662809 1.011225
v -0.7243946 3.343328 0.8823786
v -0.1789086 2.662808 1.099435
v -0.2918811 3.343327 0.9705908
v 0.02221639 2.662808 0.6623187
v -0.1006365 3.343327 0.547154
v -0.361255 2.662808 0.3769216
v -0.4593672 3.343327 0.2667011
v -0.01605691 5.964303 0.08665917
v 0.1380439 5.964303 -0.2853305
v -0.3797532 5.964303 -0.001562297
v -0.4369448 5.964303 -0.3354121
v -0.1276398 5.964303 -0.5471947
v -0.1276398 5.964303 -0.5471947
v 0.9102452 1.663283 -0.1403587
v 0.3530318 1.663283 -0.4697904
v 0.5891086 1.663283 0.5688231
v -0.09752981 1.663283 0.6262865
v 0.803484 0.9769454 -0.08331732
v 1.620376 2.358859 0.2389951
v 1.381297 2.395871 0.1043411
v 1.854715 4.029385 0.2896228
v 1.978988 4.009326 0.3708406
v 1.54366 2.351222 0.4625866
v 0.6345619 0.9736834 0.2236938
v 0.2961973 1.007144 0.2918153
v 1.308648 2.377404 0.4696873
v 0.1980181 1.034861 0.06539765
v 1.205542 2.403562 0.2722097
v 0.4946794 1.020232 -0.1954429
v 1.381297 2.395871 0.1043411
v 0.803484 0.9769454 -0.08331732
v 1.749156 4.036607 0.3548527
v 1.854715 4.029385 0.2896228
v 1.817533 4.019584 0.4813959
v 1.944527 4.005486 0.4768558
v 0.803484 0.9769454 -0.08331732
v 0.4946794 1.020232 -0.1954429
v -0.3743585 2.540682 0.7778488
v -0.59003 3.445498 1.930165
v -0.4650886 3.532602 1.769376
v -0.518836 4.605082 2.617683
v -0.5927473 4.560264 2.700673
v -0.7631893 3.4843 1.864585
v -0.6149269 2.677254 0.7325763
v -0.6585448 2.934231 0.6376883
v -0.7518496 3.575594 1.699215
v -0.4738974 3.001329 0.6082668
v -0.5865407 3.607488 1.637179
v -0.2744788 2.769924 0.6899159
v -0.4650886 3.532602 1.769376
v -0.3743585 2.540682 0.7778488
v -0.5633295 4.648611 2.540154
v -0.518836 4.605082 2.617683
v -0.6694228 4.627281 2.581524
v -0.6749911 4.577922 2.670921
v -0.3743585 2.540682 0.7778488
v -0.2744788 2.769924 0.6899159

vn 0.1467761 0.410459 -0.899989
vn 0.1163008 0.2508199 -0.9610221
vn 0.1163008 0.2508199 -0.9610221
vn -0.4481173 0.5708936 -0.6879472
vn 0.4226149 -0.2251669 0.8778933
vn 0.3258159 0.05578002 0.9437863
vn -0.5044394 0.143698 0.8514057
vn -0.8345765 0.223389 0.5035666
vn -0.7597985 0.5665582 -0.3189325
vn -0.7873614 0.3924478 -0.4754436
vn -0.4481173 0.5708936 -0.6879472
vn 0.1163008 0.2508199 -0.9610221
vn -0.7491702 0.3538041 -0.5599703
vn -0.7491702 0.3538041 -0.5599703
vn -0.9420543 -0.03859802 -0.3332325
vn -0.3120812 0.2217219 -0.9238207
vn 0.3122147 -0.16555 -0.9354759
vn -0.798349 -0.195815 -0.5694693
vn -0.3655652 -0.141718 0.9199338
vn -0.8409654 0.05235 0.5385507
vn 0.3206145 -0.02649699 0.9468392
vn 0.1478195 0.245263 0.9581208
vn 0.3983034 0.364055 -0.8419135
vn 0.3122147 -0.16555 -0.9354759
vn -0.3120812 0.2217219 -0.9238207
vn 0.3122147 -0.16555 -0.9354759
vn 0.9051028 0.1802871 0.3850786
vn 0.9102632 -0.05039701 -0.4109515
vn -0.3638794 0.2641658 0.8932011
vn -0.9111525 0.100391 0.3996532
vn -0.2065787 -0.2745639 -0.9391165
vn -0.2065787 -0.2745639 -0.9391165
vn 0.1406422 0.5868669 -0.7973751
vn -0.7491702 0.3538041 -0.5599703
vn 0.9488221 0.004428001 0.3157801
vn 0.3494846 -0.2483708 0.9034227
vn 0.3990887 -0.1270489 -0.9080677
vn 0.5709796 -0.1958209 -0.7972682
vn -0.1849031 0.174408 -0.9671571
vn -0.1636759 0.048455 -0.9853235
vn 0.5470557 -0.09748995 -0.8313999
vn 0.7772197 -0.3380539 0.5307064
vn 0.6633265 -0.546424 0.5112913
vn -0.5483844 0.4134237 0.7268807
vn -0.4177984 0.218577 0.8818551
vn -0.7758238 0.6240191 0.09326139
vn -0.8704987 0.466799 0.155983
vn -0.3315673 0.3882911 -0.8598216
vn -0.1849031 0.174408 -0.9671571
vn 0.3990887 -0.1270489 -0.9080677
vn -0.9543108 0.257086 0.1523082
vn -0.1636759 0.048455 -0.9853235
vn -0.463219 0.1828601 0.8671738
vn 0.8334776 -0.113937 0.5406787
vn 0.3990887 -0.1270489 -0.9080677
vn -0.3315673 0.3882911 -0.8598216
vn 0.8127738 -0.4637033 0.3526725
vn 0.6730825 -0.5536762 0.4903087
vn 0.9949406 -0.018269 -0.09878942
vn 0.9821713 -0.1449309 -0.1197275
vn 0.7306109 -0.4642898 0.5006422
vn -0.666527 -0.4244199 0.61287
vn -0.6833882 -0.584596 0.4372963
vn -0.5581505 0.7290349 -0.3962021
vn -0.7649614 0.5471467 -0.339801
vn 0.1257202 0.8388157 -0.5297005
vn 0.03884202 0.7396072 -0.6719169
vn 0.9532934 0.2502251 -0.1691718
vn 0.9949406 -0.018269 -0.09878942
vn 0.8127738 -0.4637033 0.3526725
vn 0.003476232 0.5726039 -0.8198248
vn 0.9821713 -0.1449309 -0.1197275
vn -0.7543111 0.5250439 -0.3941366
vn -0.6313348 -0.2340141 0.7393605
vn 0.8127738 -0.4637033 0.3526725
vn 0.9532934 0.2502251 -0.1691718

vt 0.1055908 0.3232422
vt 0.1096802 0.3532715
vt 0.1278076 0.3532715
vt 0.1287842 0.3232422
vt 0.07672119 0.3232422
vt 0.08624268 0.3532715
vt 0.05950928 0.3232422
vt 0.06634521 0.3532715
vt 0.04046631 0.3232422
vt 0.04293823 0.3532715
vt 0.02571106 0.3232422
vt 0.02592468 0.3532715
vt 0.02734375 0.3781738
vt 0.04507446 0.3779297
vt 0.04846191 0.4140625
vt 0.0319519 0.4150391
vt 0.03213501 0.4318848
vt 0.04855347 0.4309082
vt 0.06231689 0.4130859
vt 0.06256104 0.4299316
vt 0.07836914 0.4121094
vt 0.07855225 0.4289551
vt 0.1002808 0.4121094
vt 0.09954834 0.4289551
vt 0.1193237 0.4147949
vt 0.1175537 0.4313965
vt 0.0793457 0.4919434
vt 0.09680176 0.4921875
vt 0.06341553 0.4929199
vt 0.04891968 0.4938965
vt 0.03283691 0.494873
vt 0.1108398 0.4936523
vt 0.1090088 0.3774414
vt 0.1254883 0.3781738
vt 0.08795166 0.3774414
vt 0.06793213 0.3776855
vt 0.1115723 0.3449707
vt 0.1104736 0.4145508
vt 0.1217041 0.4125977
vt 0.1165771 0.4851074
vt 0.1097412 0.4863281
vt 0.1027222 0.4145508
vt 0.1022949 0.3449707
vt 0.09362793 0.3449707
vt 0.09539795 0.4125977
vt 0.08660889 0.3449707
vt 0.08764648 0.411377
vt 0.08013916 0.3449707
vt 0.0814209 0.4123535
vt 0.1115723 0.3449707
vt 0.08782959 0.484375
vt 0.08465576 0.4846191
vt 0.09527588 0.4853516
vt 0.1028442 0.4865723
vt 0.1115723 0.3449707
vt 0.1218872 0.3449707
vt 0.09686279 0.4006348
vt 0.0960083 0.4465332
vt 0.1040649 0.4453125
vt 0.1004028 0.4931641
vt 0.09552002 0.4938965
vt 0.09051514 0.4465332
vt 0.09020996 0.4006348
vt 0.08398438 0.4006348
vt 0.08526611 0.4453125
vt 0.07897949 0.4006348
vt 0.07971191 0.4443359
vt 0.07434082 0.4006348
vt 0.07525635 0.4450684
vt 0.09686279 0.4006348
vt 0.07983398 0.4926758
vt 0.07757568 0.4926758
vt 0.08520508 0.4931641
vt 0.09057617 0.4941406
vt 0.09686279 0.4006348
vt 0.104248 0.4006348

g Tree1_(1)_1717_190
usemtl Tree1_(1)_1717_190
usemap Tree1_(1)_1717_190
f 1/1/1 3/3/3 2/2/2
f 1/1/1 4/4/4 3/3/3
f 5/5/5 1/1/1 2/2/2
f 5/5/5 2/2/2 6/6/6
f 7/7/7 5/5/5 6/6/6
f 7/7/7 6/6/6 8/8/8
f 9/9/9 7/7/7 8/8/8
f 9/9/9 8/8/8 10/10/10
f 11/11/11 9/9/9 10/10/10
f 11/11/11 10/10/10 12/12/12
f 13/13/13 12/12/12 10/10/10
f 13/13/13 10/10/10 14/14/14
f 14/14/14 10/10/10 8/8/8
f 13/13/13 14/14/14 15/15/15
f 13/13/13 15/15/15 16/16/16
f 15/15/15 17/17/17 16/16/16
f 15/15/15 18/18/18 17/17/17
f 19/19/19 18/18/18 15/15/15
f 14/14/14 19/19/19 15/15/15
f 19/19/19 20/20/20 18/18/18
f 21/21/21 20/20/20 19/19/19
f 21/21/21 22/22/22 20/20/20
f 23/23/23 22/22/22 21/21/21
f 23/23/23 24/24/24 22/22/22
f 25/25/25 24/24/24 23/23/23
f 25/25/25 26/26/26 24/24/24
f 24/24/24 27/27/27 22/22/22
f 20/20/20 22/22/22 27/27/27
f 24/24/24 28/28/28 27/27/27
f 20/20/20 27/27/27 29/29/29
f 18/18/18 20/20/20 29/29/29
f 18/18/18 29/29/29 30/30/30
f 17/17/17 18/18/18 30/30/30
f 17/17/17 30/30/30 31/31/31
f 24/24/24 32/32/32 28/28/28
f 24/24/24 26/26/26 32/32/32
f 33/33/33 25/25/25 23/23/23
f 33/33/33 34/34/34 25/25/25
f 35/35/35 23/23/23 21/21/21
f 35/35/35 33/33/33 23/23/23
f 36/36/36 35/35/35 21/21/21
f 36/36/36 21/21/21 19/19/19
f 14/14/14 36/36/36 19/19/19
f 33/33/33 3/3/3 34/34/34
f 33/33/33 2/2/2 3/3/3
f 35/35/35 2/2/2 33/33/33
f 35/35/35 6/6/6 2/2/2
f 36/36/36 6/6/6 35/35/35
f 36/36/36 8/8/8 6/6/6
f 14/14/14 8/8/8 36/36/36
f 37/37/37 39/39/39 38/38/38
f 38/38/38 39/39/39 40/40/40
f 38/38/38 40/40/40 41/41/41
f 42/42/42 38/38/38 41/41/41
f 43/43/43 38/38/38 42/42/42
f 44/44/44 43/43/43 42/42/42
f 44/44/44 42/42/42 45/45/45
f 46/46/46 44/44/44 45/45/45
f 46/46/46 45/45/45 47/47/47
f 48/48/48 46/46/46 47/47/47
f 48/48/48 47/47/47 49/49/49
f 43/43/43 50/50/50 38/38/38
f 49/49/49 47/47/47 51/51/51
f 49/49/49 51/51/51 52/52/52
f 47/47/47 53/53/53 51/51/51
f 47/47/47 45/45/45 53/53/53
f 45/45/45 54/54/54 53/53/53
f 45/45/45 42/42/42 54/54/54
f 42/42/42 41/41/41 54/54/54
f 55/55/55 56/56/56 39/39/39
f 57/57/57 59/59/59 58/58/58
f 58/58/58 59/59/59 60/60/60
f 58/58/58 60/60/60 61/61/61
f 62/62/62 58/58/58 61/61/61
f 63/63/63 58/58/58 62/62/62
f 64/64/64 63/63/63 62/62/62
f 64/64/64 62/62/62 65/65/65
f 66/66/66 64/64/64 65/65/65
f 66/66/66 65/65/65 67/67/67
f 68/68/68 66/66/66 67/67/67
f 68/68/68 67/67/67 69/69/69
f 63/63/63 70/70/70 58/58/58
f 69/69/69 67/67/67 71/71/71
f 69/69/69 71/71/71 72/72/72
f 67/67/67 73/73/73 71/71/71
f 67/67/67 65/65/65 73/73/73
f 65/65/65 74/74/74 73/73/73
f 65/65/65 62/62/62 74/74/74
f 62/62/62 61/61/61 74/74/74
f 75/75/75 76/76/76 59/59/59
