#Tree2_(3)_1274_367.obj

v -0.947683 2.593094 -1.247158
v -1.431889 2.457369 -1.185668
v -0.7597021 2.141749 -1.385765
v -1.388368 1.965532 -1.30593
v -1.743185 2.410607 -0.7887203
v -1.792536 1.904819 -0.7905529
v -1.699211 2.480202 -0.2888388
v -1.735445 1.995176 -0.141535
v -1.325735 2.625384 0.02115504
v -1.250542 2.183674 0.260942
v -0.8415252 2.76111 -0.04033728
v -0.6218727 2.359892 0.1811091
v -0.5302326 2.807871 -0.4372869
v -0.2177043 2.420604 -0.3342721
v -0.574204 2.738276 -0.9371672
v -0.2747954 2.330247 -0.98329
v -0.9974779 2.86026 -0.8983206
v -1.446602 2.734369 -0.8412829
v -1.227293 2.916618 -0.6478301
v -1.405815 2.798922 -0.3776171
v -0.9566904 2.924814 -0.4346544
v 2.077333 5.668246 -2.225861
v 1.221397 5.541389 -2.802408
v 2.515573 5.079143 -2.417614
v 1.359079 4.907739 -3.196618
v 0.2016307 5.496245 -2.604496
v -0.01877459 4.846745 -2.929209
v -0.3846022 5.559262 -1.748054
v -0.8108603 4.931889 -1.772028
v -0.1938932 5.693524 -0.7347772
v -0.5531841 5.113296 -0.4029418
v 0.6620464 5.820383 -0.1582235
v 0.6033161 5.284699 0.3760614
v 1.681813 5.865525 -0.3561361
v 1.981168 5.345695 0.1086552
v 2.268046 5.802509 -1.212577
v 2.773253 5.26055 -1.048527
v 2.783706 4.389544 -2.480874
v 1.460079 4.193369 -3.372455
v -0.1168908 4.123561 -3.066398
v -1.023444 4.22101 -1.741995
v -0.7285295 4.428633 -0.1750518
v 0.5950989 4.624807 0.7165323
v 2.172075 4.694616 0.4104778
v 3.07862 4.597167 -0.913933
v 1.038743 6.029766 -0.9008334
v 0.308152 5.921485 -1.392954
v 0.9201338 6.000619 -1.518623
v 0.8085345 5.867697 -2.123972
v 1.53912 5.975979 -1.631857
v 0.9061289 4.917651 -2.688765
v -0.07884548 4.917651 -2.280777
v 0.9061297 4.300433 -3.177899
v -0.4247174 4.300433 -2.626643
v -0.486835 4.917651 -1.295799
v -0.9759671 4.300433 -1.295799
v -0.07884684 4.917651 -0.3108211
v -0.4247167 4.300433 0.03504628
v 0.9061306 4.917651 0.09716718
v 0.9061299 4.300433 0.5863036
v 1.89111 4.917651 -0.3108232
v 2.236977 4.300433 0.03504544
v 2.299097 4.917651 -1.295798
v 2.788232 4.300433 -1.2958
v 1.891109 4.917651 -2.280776
v 2.236976 4.300433 -2.626644
v 0.9061293 3.575043 -3.613034
v -0.7324041 3.575043 -2.934333
v -1.411102 3.575043 -1.295799
v -0.7324044 3.575043 0.3427308
v 0.9061295 3.575043 1.02144
v 2.544668 3.575043 0.3427328
v 3.22337 3.575043 -1.295801
v 2.54466 3.575043 -2.934332
v 1.500618 5.200411 -1.049556
v 0.6598861 5.200411 -0.7013128
v 0.906129 5.255187 -1.295797
v 0.3116445 5.200411 -1.542044
v 1.152374 5.200411 -1.890285

vn -0.2747747 0.4964109 -0.8234531
vn -0.8032042 0.324102 -0.4998209
vn -0.2207377 0.2762739 -0.9353863
vn -0.8177609 0.08159798 -0.5697445
vn -0.9565766 0.2647371 0.1219651
vn -0.9910424 0.01452599 0.1327549
vn -0.6450495 0.3530899 0.6776716
vn -0.6390758 0.114349 0.7605962
vn -0.05110943 0.5374057 0.8417737
vn 0.03196183 0.32259 0.9459991
vn 0.4773211 0.7097141 0.5181414
vn 0.6289853 0.5172651 0.5803571
vn 0.6306933 0.7690797 -0.1036459
vn 0.8022664 0.5843369 -0.1221432
vn 0.3191652 0.6807264 -0.659352
vn 0.4502999 0.484515 -0.7499835
vn -0.2402994 0.8906247 -0.3860619
vn -0.6582505 0.7524443 -0.02310748
vn -0.3005984 0.9536011 0.01689894
vn -0.3098026 0.8544849 0.4169866
vn 0.1081478 0.9926653 0.05403338
vn 0.3143929 0.6742987 -0.6681904
vn -0.2293655 0.6064851 -0.7612932
vn 0.435001 0.424205 -0.7942444
vn -0.2386021 0.3401981 -0.9095793
vn -0.6829517 0.5823539 -0.4409544
vn -0.8005013 0.310304 -0.5127466
vn -0.7806621 0.6160398 0.1051746
vn -0.9215439 0.352034 0.1637952
vn -0.4652578 0.6878113 0.5571812
vn -0.5308237 0.4409437 0.7237366
vn 0.07850084 0.7556249 0.6502835
vn 0.1427799 0.5249509 0.8390712
vn 0.5320873 0.7797561 0.3299446
vn 0.7046795 0.554845 0.4422374
vn 0.6297964 0.7460701 -0.216185
vn 0.8257213 0.513114 -0.2343038
vn 0.4963717 0.2220959 -0.839219
vn -0.2317162 0.131294 -0.9638825
vn -0.8390645 0.09898195 -0.5349518
vn -0.9698971 0.144088 0.1963118
vn -0.5475741 0.2401891 0.8015434
vn 0.1805142 0.3309911 0.9262071
vn 0.7878627 0.363303 0.4972759
vn 0.9186949 0.3181969 -0.2339877
vn 0.04257084 0.9966761 0.06945755
vn -0.2564943 0.9638119 0.07264517
vn -0.1097266 0.9906772 -0.08073901
vn -0.2569992 0.9393159 -0.227238
vn 0.04206599 0.9721802 -0.2304256
vn -0.301019 0.6802621 -0.6683047
vn -0.6854162 0.6802611 -0.2597106
vn -0.3708398 0.4296829 -0.8233168
vn -0.8443961 0.4296831 -0.3199495
vn -0.6683047 0.6802621 0.301019
vn -0.8233168 0.4296829 0.3708398
vn -0.2597111 0.6802614 0.6854156
vn -0.3199495 0.4296831 0.8443961
vn 0.301019 0.6802621 0.6683047
vn 0.3708398 0.4296829 0.8233168
vn 0.6854161 0.6802614 0.2597097
vn 0.8443961 0.4296831 0.3199495
vn 0.6683047 0.6802621 -0.301019
vn 0.8233168 0.4296829 -0.3708398
vn 0.2597097 0.6802614 -0.6854161
vn 0.3199489 0.4296827 -0.8443965
vn -0.3997721 0.228989 -0.8875507
vn -0.9102747 0.2289891 -0.3449116
vn -0.8875507 0.228989 0.3997721
vn -0.3449116 0.2289891 0.9102747
vn 0.3997721 0.228989 0.8875507
vn 0.9102747 0.2289891 0.3449116
vn 0.8875507 0.228989 -0.3997721
vn 0.3449109 0.228988 -0.9102752
vn 0.2119357 0.9762389 -0.04517517
vn 0.04517517 0.9762389 0.2119357
vn 0 1 0
vn -0.2119357 0.9762389 0.04517517
vn -0.04517609 0.976239 -0.2119353

vt 0.3613281 0.484375
vt 0.3461914 0.479248
vt 0.3603516 0.498291
vt 0.3356934 0.4875488
vt 0.3395996 0.463623
vt 0.3259277 0.4626465
vt 0.3447266 0.4484863
vt 0.3364258 0.4379883
vt 0.3603516 0.4418945
vt 0.3613281 0.4282227
vt 0.3754883 0.4470215
vt 0.3859863 0.4387207
vt 0.3820801 0.4626465
vt 0.395752 0.463623
vt 0.3769531 0.4780273
vt 0.3852539 0.4882813
vt 0.3652344 0.4726563
vt 0.3513184 0.4677734
vt 0.3608398 0.4631348
vt 0.3564453 0.4538574
vt 0.3701172 0.4587402
vt 0.4470215 0.4243164
vt 0.4257813 0.4155273
vt 0.4472656 0.4458008
vt 0.4106445 0.4306641
vt 0.4169922 0.3942871
vt 0.3955078 0.3942871
vt 0.4257813 0.3728027
vt 0.4106445 0.3579102
vt 0.4470215 0.3642578
vt 0.4470215 0.3427734
vt 0.4685059 0.3730469
vt 0.4833984 0.357666
vt 0.4770508 0.3942871
vt 0.4985352 0.394043
vt 0.4682617 0.4155273
vt 0.4833984 0.4306641
vt 0.4470215 0.4689941
vt 0.394043 0.4470215
vt 0.3723145 0.394043
vt 0.394043 0.3413086
vt 0.4470215 0.3193359
vt 0.5 0.3413086
vt 0.5219727 0.3942871
vt 0.5 0.4472656
vt 0.4609375 0.3884277
vt 0.4411621 0.3803711
vt 0.4470215 0.3942871
vt 0.4331055 0.3999023
vt 0.4528809 0.407959
vt 0.4470215 0.4243164
vt 0.4257813 0.4155273
vt 0.4472656 0.4458008
vt 0.4106445 0.4306641
vt 0.4169922 0.3942871
vt 0.3955078 0.3942871
vt 0.4257813 0.3728027
vt 0.4106445 0.3579102
vt 0.4470215 0.3642578
vt 0.4470215 0.3427734
vt 0.4685059 0.3730469
vt 0.4833984 0.357666
vt 0.4770508 0.3942871
vt 0.4985352 0.394043
vt 0.4682617 0.4155273
vt 0.4833984 0.4306641
vt 0.4470215 0.4689941
vt 0.394043 0.4470215
vt 0.3723145 0.394043
vt 0.394043 0.3413086
vt 0.4470215 0.3193359
vt 0.5 0.3413086
vt 0.5219727 0.3942871
vt 0.5 0.4472656
vt 0.4609375 0.3884277
vt 0.4411621 0.3803711
vt 0.4470215 0.3942871
vt 0.4331055 0.3999023
vt 0.4528809 0.407959

g Tree2_(3)_1274_367
usemtl Tree2_(3)_1274_367
usemap Tree2_(3)_1274_367
f 1/1/1 3/3/3 2/2/2
f 2/2/2 3/3/3 4/4/4
f 2/2/2 4/4/4 5/5/5
f 5/5/5 4/4/4 6/6/6
f 5/5/5 6/6/6 7/7/7
f 7/7/7 6/6/6 8/8/8
f 7/7/7 8/8/8 9/9/9
f 9/9/9 8/8/8 10/10/10
f 9/9/9 10/10/10 11/11/11
f 11/11/11 10/10/10 12/12/12
f 11/11/11 12/12/12 13/13/13
f 13/13/13 12/12/12 14/14/14
f 13/13/13 14/14/14 15/15/15
f 15/15/15 14/14/14 16/16/16
f 15/15/15 16/16/16 1/1/1
f 1/1/1 16/16/16 3/3/3
f 15/15/15 1/1/1 17/17/17
f 1/1/1 2/2/2 17/17/17
f 17/17/17 2/2/2 18/18/18
f 2/2/2 5/5/5 18/18/18
f 5/5/5 7/7/7 18/18/18
f 17/17/17 18/18/18 19/19/19
f 18/18/18 20/20/20 19/19/19
f 18/18/18 7/7/7 20/20/20
f 7/7/7 9/9/9 20/20/20
f 9/9/9 11/11/11 20/20/20
f 20/20/20 21/21/21 19/19/19
f 21/21/21 17/17/17 19/19/19
f 20/20/20 11/11/11 21/21/21
f 11/11/11 13/13/13 21/21/21
f 13/13/13 15/15/15 21/21/21
f 21/21/21 15/15/15 17/17/17
f 22/22/22 24/24/24 23/23/23
f 23/23/23 24/24/24 25/25/25
f 23/23/23 25/25/25 26/26/26
f 26/26/26 25/25/25 27/27/27
f 26/26/26 27/27/27 28/28/28
f 28/28/28 27/27/27 29/29/29
f 28/28/28 29/29/29 30/30/30
f 30/30/30 29/29/29 31/31/31
f 30/30/30 31/31/31 32/32/32
f 32/32/32 31/31/31 33/33/33
f 32/32/32 33/33/33 34/34/34
f 34/34/34 33/33/33 35/35/35
f 34/34/34 35/35/35 36/36/36
f 36/36/36 35/35/35 37/37/37
f 36/36/36 37/37/37 22/22/22
f 22/22/22 37/37/37 24/24/24
f 24/24/24 38/38/38 25/25/25
f 25/25/25 38/38/38 39/39/39
f 25/25/25 39/39/39 27/27/27
f 27/27/27 39/39/39 40/40/40
f 27/27/27 40/40/40 29/29/29
f 29/29/29 40/40/40 41/41/41
f 29/29/29 41/41/41 31/31/31
f 31/31/31 41/41/41 42/42/42
f 31/31/31 42/42/42 33/33/33
f 33/33/33 42/42/42 43/43/43
f 33/33/33 43/43/43 35/35/35
f 35/35/35 43/43/43 44/44/44
f 35/35/35 44/44/44 37/37/37
f 37/37/37 44/44/44 45/45/45
f 37/37/37 45/45/45 24/24/24
f 24/24/24 45/45/45 38/38/38
f 32/32/32 34/34/34 46/46/46
f 34/34/34 36/36/36 46/46/46
f 47/47/47 32/32/32 46/46/46
f 47/47/47 46/46/46 48/48/48
f 49/49/49 47/47/47 48/48/48
f 50/50/50 49/49/49 48/48/48
f 46/46/46 50/50/50 48/48/48
f 50/50/50 23/23/23 49/49/49
f 22/22/22 23/23/23 50/50/50
f 36/36/36 22/22/22 50/50/50
f 46/46/46 36/36/36 50/50/50
f 23/23/23 26/26/26 49/49/49
f 26/26/26 28/28/28 49/49/49
f 49/49/49 28/28/28 47/47/47
f 28/28/28 30/30/30 47/47/47
f 30/30/30 32/32/32 47/47/47
f 51/51/51 53/53/53 52/52/52
f 52/52/52 53/53/53 54/54/54
f 52/52/52 54/54/54 55/55/55
f 55/55/55 54/54/54 56/56/56
f 55/55/55 56/56/56 57/57/57
f 57/57/57 56/56/56 58/58/58
f 57/57/57 58/58/58 59/59/59
f 59/59/59 58/58/58 60/60/60
f 59/59/59 60/60/60 61/61/61
f 61/61/61 60/60/60 62/62/62
f 61/61/61 62/62/62 63/63/63
f 63/63/63 62/62/62 64/64/64
f 63/63/63 64/64/64 65/65/65
f 65/65/65 64/64/64 66/66/66
f 65/65/65 66/66/66 51/51/51
f 51/51/51 66/66/66 53/53/53
f 53/53/53 67/67/67 54/54/54
f 54/54/54 67/67/67 68/68/68
f 54/54/54 68/68/68 56/56/56
f 56/56/56 68/68/68 69/69/69
f 56/56/56 69/69/69 58/58/58
f 58/58/58 69/69/69 70/70/70
f 58/58/58 70/70/70 60/60/60
f 60/60/60 70/70/70 71/71/71
f 60/60/60 71/71/71 62/62/62
f 62/62/62 71/71/71 72/72/72
f 62/62/62 72/72/72 64/64/64
f 64/64/64 72/72/72 73/73/73
f 64/64/64 73/73/73 66/66/66
f 66/66/66 73/73/73 74/74/74
f 66/66/66 74/74/74 53/53/53
f 53/53/53 74/74/74 67/67/67
f 61/61/61 63/63/63 75/75/75
f 63/63/63 65/65/65 75/75/75
f 76/76/76 61/61/61 75/75/75
f 76/76/76 75/75/75 77/77/77
f 78/78/78 76/76/76 77/77/77
f 79/79/79 78/78/78 77/77/77
f 75/75/75 79/79/79 77/77/77
f 79/79/79 52/52/52 78/78/78
f 51/51/51 52/52/52 79/79/79
f 65/65/65 51/51/51 79/79/79
f 75/75/75 65/65/65 79/79/79
f 52/52/52 55/55/55 78/78/78
f 55/55/55 57/57/57 78/78/78
f 78/78/78 57/57/57 76/76/76
f 57/57/57 59/59/59 76/76/76
f 59/59/59 61/61/61 76/76/76
