#Tree2_(3)_1274_368.obj

v 0.7752677 1.310929 0.07278188
v 1.306419 2.346469 -0.311049
v 1.18413 2.31463 -0.5785213
v 0.4093684 1.223058 -0.1454417
v 0.5879223 1.480954 0.5344548
v 1.155129 2.463786 -0.08554054
v 0.3771313 1.588565 0.7732854
v 1.064946 4.630815 -1.694033
v 1.167387 4.630815 -1.446713
v 1.064946 4.630815 -1.199394
v 0.7982616 2.602398 -0.01764476
v 0.05036957 1.736241 0.699472
v 0.4403858 2.6719 -0.1771035
v -0.5084187 1.564545 0.343036
v 0.2979121 2.670999 -0.3412487
v -0.3605425 1.480954 -0.01388373
v 0.4708382 2.515306 -0.694663
v -0.01739157 1.301476 -0.4783565
v 0.467867 4.630815 -1.446714
v 0.5702852 4.630815 -1.69403
v 0.8413225 2.380942 -0.7495849
v -0.01739157 1.301476 -0.4783565
v 0.8176174 4.630815 -1.796473
v 1.18413 2.31463 -0.5785213
v 0.4093684 1.223058 -0.1454417
v -0.01739157 1.301476 -0.4783565
v 1.064946 4.630815 -1.694033
v 0.5702852 4.630815 -1.199391
v 0.817617 4.630815 -1.09695
v -0.4733649 0.3292439 -0.1358135
v -0.6694375 0.4708683 0.2543015
v -0.4733651 0.6728067 0.6444112
v 5.819712E-07 0.4708683 0.8060014
v 0.4733788 0.4910424 -0.200445
v 1.560683E-07 0.8423996 -0.6920176
v 0.5610942 0.7986991 0.5659745
v 0.8372408 0.6728067 0.1318401
v 0.4733788 0.4910424 -0.200445
v -0.9349058 0.2222972 0.7275569
v -0.5725099 0.1527944 0.9643099
v -0.02356458 -0.1077578 0.7724599
v -0.5089796 -0.1176493 0.8692772
v -0.867462 -0.1360745 1.196745
v -0.7166198 -0.3318532 1.150716
v -0.867462 -0.1360745 1.196745
v -1.033335 -0.5150276 1.52707
v 0.7858716 0.2580049 0.7238594
v 0.4410272 -0.2057266 0.9391018
v 0.7991846 -0.1077578 0.2311968
v 0.9088849 -0.2057266 0.5832477
v 0.939961 -0.5151595 1.170652
v -0.9349058 0.2222972 0.7275569
v -0.867462 -0.1360745 1.196745
v -1.094449 -0.3417804 1.009754
v -1.033335 -0.5150276 1.52707
v -0.9696426 -0.1331239 0.4415199
v -0.9349058 0.2222972 0.7275569
v -0.8137773 -0.1077578 0.1714229
v -1.428053 -0.3506457 -0.2965561
v -1.428053 -0.3506457 -0.2965561
v 0.02662272 0.309643 -0.6717799
v -0.5823332 -0.1077578 -0.2535723
v -0.3954294 -0.2645998 -0.6329521
v 0.07548004 -0.6410102 -1.310643
v 0.2633096 -0.2645998 -0.6329529
v 0.5026556 -0.1077578 -0.3133496
v 1.560683E-07 0.8423996 -0.6920176
v -1.428053 -0.3506457 -0.2965561
v 0.5026556 -0.1077578 -0.3133496
v 1.17522 -0.4948694 -0.2139329
v 1.17522 -0.4948694 -0.2139329
v -0.05483721 1.150024 0.0683228
v -0.6271814 1.569091 0.08067891
v -0.7951841 1.419268 0.03679955
v -0.1862165 1.032856 0.03400267
v -0.3377216 0.984323 0.1168553
v -0.02051506 1.267193 0.1997029
v -0.1033787 1.315726 0.3511943
v -0.7331262 1.631149 0.2743854
v -0.2548593 1.267193 0.4340413
v -0.3862419 1.150024 0.3997238
v -0.9011266 1.481326 0.2305029
v -0.4205608 1.032856 0.2683411
v -0.8381206 1.816107 -0.5210707
v -0.7044669 1.935304 -0.4861571
v -0.7044669 1.935304 -0.4861571
v -1.142114 2.360987 -0.6409972
v -0.3377216 0.984323 0.1168553
v -0.9011266 1.481326 0.2305029
v -0.7951841 1.419268 0.03679955
v -0.9224108 1.86548 -0.3669626
v -0.8381206 1.816107 -0.5210707
v -0.9224108 1.86548 -0.3669626
v -1.214083 2.403146 -0.5094082
v -1.142114 2.360987 -0.6409972
v -0.7044669 1.935304 -0.4861571
v -1.027984 2.462767 -0.6111875
v -1.214083 2.403146 -0.5094082
v -1.099951 2.504926 -0.4795977
v -0.7887536 1.984677 -0.3320474
v -0.7887536 1.984677 -0.3320474
v -1.099951 2.504926 -0.4795977
v -0.7044669 1.935304 -0.4861571
v -0.9011266 1.481326 0.2305029
v -0.7887536 1.984677 -0.3320474
v -0.9224108 1.86548 -0.3669626

vn 0.8879864 -0.3371709 -0.3127235
vn 0.8302058 -0.352839 -0.4315818
vn 0.251083 -0.441645 -0.8613403
vn 0.1243735 -0.246164 -0.9612151
vn 0.8966873 0.08349802 0.4347185
vn 0.963737 0.134854 0.2302727
vn 0.4771726 0.2369131 0.8462733
vn 0.2047798 -0.251435 -0.9459628
vn 0.860944 0.021219 -0.508257
vn 0.9492593 0.274749 0.1530352
vn 0.6306752 0.44408 0.636429
vn -0.1645201 0.3261311 0.9308982
vn 0.001628548 0.5701939 0.8215085
vn -0.8013374 0.352136 0.4835892
vn -0.7707787 0.3675431 0.5203965
vn -0.961586 0.190888 -0.197267
vn -0.9680807 -0.08098095 -0.2371959
vn -0.6470599 -0.143503 -0.7488126
vn -0.9176092 0.06846599 0.3915427
vn -0.926349 -0.2562009 -0.2761132
vn -0.5204864 -0.327403 -0.7886072
vn -0.6470599 -0.143503 -0.7488126
vn -0.5259095 -0.351269 -0.7746155
vn 0.251083 -0.441645 -0.8613403
vn 0.1243735 -0.246164 -0.9612151
vn -0.6470599 -0.143503 -0.7488126
vn 0.2047798 -0.251435 -0.9459628
vn -0.1526007 0.475129 0.8665826
vn 0.5834433 0.4572679 0.6711931
vn -0.8621568 0.3460911 -0.3700091
vn -0.8047431 0.452247 0.3845274
vn -0.214595 0.4481292 0.8678303
vn 0.489109 0.167681 0.855953
vn 0.191278 0.195953 -0.9617771
vn -0.4284063 0.2755259 -0.8605542
vn 0.9041137 0.208623 0.3729008
vn 0.8757211 0.221386 -0.4290696
vn 0.191278 0.195953 -0.9617771
vn -0.5390815 0.6389848 0.5487164
vn 0.5051439 0.3673829 0.780935
vn 0.5233586 0.02434001 0.8517649
vn 0.4388933 -0.019511 0.8983274
vn 0.1285776 0.6323718 0.76392
vn 0.4388933 -0.019511 0.8983274
vn 0.1285776 0.6323718 0.76392
vn 0.2159788 0.676885 0.7036902
vn 0.8434041 0.3803267 0.3795013
vn 0.4388933 -0.019511 0.8983274
vn 0.9934833 0.05863598 -0.09773898
vn 0.8602169 -0.016972 -0.5096459
vn 0.8015662 0.489 0.3440503
vn -0.5390815 0.6389848 0.5487164
vn 0.1285776 0.6323718 0.76392
vn -0.9086695 0.173637 0.3796972
vn 0.2159788 0.676885 0.7036902
vn -0.9086695 0.173637 0.3796972
vn -0.5390815 0.6389848 0.5487164
vn -0.7499924 0.2254061 0.6218548
vn -0.9086695 0.173637 0.3796972
vn -0.9086695 0.173637 0.3796972
vn -0.3000607 0.4164998 -0.8581908
vn -0.7293111 0.274373 -0.6267573
vn -0.9447836 0.153429 -0.2895574
vn -0.1779872 0.5555828 -0.8121873
vn 0.1941792 0.01699201 -0.9808189
vn 0.1037427 0.1688749 -0.9801626
vn -0.4284063 0.2755259 -0.8605542
vn -0.9086695 0.173637 0.3796972
vn 0.1037427 0.1688749 -0.9801626
vn 0.4821228 0.3062461 -0.8208355
vn 0.4821228 0.3062461 -0.8208355
vn -0.06833652 0.4029588 -0.9126632
vn 0.3312286 0.02636 -0.9431823
vn -0.2845344 -0.5568762 -0.7803391
vn -0.4294483 -0.1007939 -0.897449
vn -0.6710167 -0.6331879 -0.3857584
vn 0.2755443 0.7606381 -0.5877967
vn 0.5194383 0.8510838 0.07642183
vn 0.07613382 0.539537 0.8385127
vn 0.4150208 0.4079698 0.8132148
vn -0.02885485 -0.2859819 0.9578005
vn -0.7290959 -0.4238028 0.5374109
vn -0.493072 -0.7340966 0.4668856
vn -0.1628072 -0.5169717 -0.8403774
vn 0.4121247 -0.117654 -0.9034992
vn 0.4121247 -0.117654 -0.9034992
vn -0.423157 -0.223248 -0.8781222
vn -0.6710167 -0.6331879 -0.3857584
vn -0.7290959 -0.4238028 0.5374109
vn -0.2845344 -0.5568762 -0.7803391
vn -0.8739573 -0.3610662 0.3253147
vn -0.1628072 -0.5169717 -0.8403774
vn -0.8739573 -0.3610662 0.3253147
vn -0.728898 -0.425273 0.5365169
vn -0.423157 -0.223248 -0.8781222
vn 0.4121247 -0.117654 -0.9034992
vn 0.2441126 0.198859 -0.9491386
vn -0.728898 -0.425273 0.5365169
vn 0.4016114 0.282481 0.871156
vn 0.1695252 0.5991837 0.7824576
vn 0.1695252 0.5991837 0.7824576
vn 0.4016114 0.282481 0.871156
vn 0.4121247 -0.117654 -0.9034992
vn -0.7290959 -0.4238028 0.5374109
vn 0.1695252 0.5991837 0.7824576
vn -0.8739573 -0.3610662 0.3253147

vt 0.1541748 0.3811035
vt 0.1590576 0.4104004
vt 0.1722412 0.4101563
vt 0.1663818 0.376709
vt 0.1364746 0.3845215
vt 0.1468506 0.4121094
vt 0.126709 0.3862305
vt 0.1921387 0.473877
vt 0.1811523 0.4743652
vt 0.168335 0.4765625
vt 0.1317139 0.4157715
vt 0.1170654 0.3901367
vt 0.1200562 0.4199219
vt 0.1000366 0.3901367
vt 0.1082153 0.4238281
vt 0.09014893 0.3935547
vt 0.09667969 0.4287109
vt 0.0737915 0.3967285
vt 0.1230469 0.4912109
vt 0.1109619 0.4958496
vt 0.07879639 0.4335938
vt 0.0737915 0.3967285
vt 0.09790039 0.4995117
vt 0.06658936 0.4365234
vt 0.06036377 0.4016113
vt 0.0737915 0.3967285
vt 0.08673096 0.5014648
vt 0.1363525 0.4863281
vt 0.1523438 0.4812012
vt 0.07971191 0.3654785
vt 0.09265137 0.3664551
vt 0.1063843 0.3684082
vt 0.1200562 0.361084
vt 0.05514526 0.3876953
vt 0.06793213 0.3845215
vt 0.1364746 0.3662109
vt 0.1503906 0.3605957
vt 0.1633301 0.3591309
vt 0.1005859 0.3500977
vt 0.1080933 0.3491211
vt 0.1171875 0.3447266
vt 0.1099243 0.3425293
vt 0.1017456 0.3344727
vt 0.1046753 0.3322754
vt 0.1017456 0.3344727
vt 0.0958252 0.3178711
vt 0.1339111 0.3461914
vt 0.1220703 0.3371582
vt 0.1396484 0.333252
vt 0.1322021 0.3295898
vt 0.1195679 0.3183594
vt 0.1005859 0.3500977
vt 0.1017456 0.3344727
vt 0.09527588 0.3286133
vt 0.0958252 0.3178711
vt 0.09289551 0.3415527
vt 0.1005859 0.3500977
vt 0.08953857 0.3452148
vt 0.07525635 0.3251953
vt 0.07525635 0.3251953
vt 0.06292725 0.369873
vt 0.07281494 0.3515625
vt 0.06408691 0.3474121
vt 0.04751587 0.3354492
vt 0.05215454 0.3608398
vt 0.05004883 0.3742676
vt 0.06793213 0.3845215
vt 0.07525635 0.3251953
vt 0.163208 0.3413086
vt 0.1427002 0.314209
vt 0.1427002 0.314209
vt 0.1293945 0.354248
vt 0.1226807 0.392334
vt 0.1434326 0.3952637
vt 0.1375732 0.3566895
vt 0.1451416 0.3615723
vt 0.1209106 0.3537598
vt 0.1124878 0.3549805
vt 0.1031494 0.3913574
vt 0.1035767 0.3566895
vt 0.09338379 0.3581543
vt 0.08624268 0.3920898
vt 0.08288574 0.3581543
vt 0.1407471 0.4306641
vt 0.1242676 0.4301758
vt 0.1242676 0.4301758
vt 0.1412354 0.4660645
vt 0.07305908 0.3564453
vt 0.08624268 0.3920898
vt 0.07385254 0.3935547
vt 0.0859375 0.4306641
vt 0.07189941 0.4326172
vt 0.0859375 0.4306641
vt 0.08843994 0.4650879
vt 0.07489014 0.465332
vt 0.1242676 0.4301758
vt 0.1218262 0.4648438
vt 0.08843994 0.4650879
vt 0.1048584 0.465332
vt 0.1066284 0.4301758
vt 0.1066284 0.4301758
vt 0.1048584 0.465332
vt 0.1242676 0.4301758
vt 0.08624268 0.3920898
vt 0.1066284 0.4301758
vt 0.0859375 0.4306641

g Tree2_(3)_1274_368
usemtl Tree2_(3)_1274_368
usemap Tree2_(3)_1274_368
f 1/1/1 3/3/3 2/2/2
f 1/1/1 4/4/4 3/3/3
f 5/5/5 1/1/1 2/2/2
f 5/5/5 2/2/2 6/6/6
f 7/7/7 5/5/5 6/6/6
f 2/2/2 3/3/3 8/8/8
f 2/2/2 8/8/8 9/9/9
f 6/6/6 2/2/2 9/9/9
f 6/6/6 9/9/9 10/10/10
f 11/11/11 6/6/6 10/10/10
f 7/7/7 6/6/6 11/11/11
f 12/12/12 7/7/7 11/11/11
f 12/12/12 11/11/11 13/13/13
f 14/14/14 12/12/12 13/13/13
f 14/14/14 13/13/13 15/15/15
f 16/16/16 14/14/14 15/15/15
f 16/16/16 15/15/15 17/17/17
f 18/18/18 16/16/16 17/17/17
f 17/17/17 15/15/15 19/19/19
f 17/17/17 19/19/19 20/20/20
f 21/21/21 17/17/17 20/20/20
f 22/22/22 17/17/17 21/21/21
f 21/21/21 20/20/20 23/23/23
f 24/24/24 21/21/21 23/23/23
f 25/25/25 21/21/21 24/24/24
f 25/25/25 26/26/26 21/21/21
f 24/24/24 23/23/23 27/27/27
f 15/15/15 28/28/28 19/19/19
f 15/15/15 13/13/13 28/28/28
f 13/13/13 29/29/29 28/28/28
f 30/30/30 14/14/14 16/16/16
f 30/30/30 31/31/31 14/14/14
f 31/31/31 12/12/12 14/14/14
f 31/31/31 32/32/32 12/12/12
f 32/32/32 7/7/7 12/12/12
f 32/32/32 33/33/33 7/7/7
f 34/34/34 22/22/22 25/25/25
f 34/34/34 35/35/35 22/22/22
f 35/35/35 30/30/30 16/16/16
f 35/35/35 16/16/16 18/18/18
f 33/33/33 5/5/5 7/7/7
f 33/33/33 36/36/36 5/5/5
f 36/36/36 1/1/1 5/5/5
f 36/36/36 37/37/37 1/1/1
f 37/37/37 4/4/4 1/1/1
f 37/37/37 38/38/38 4/4/4
f 32/32/32 31/31/31 39/39/39
f 33/33/33 39/39/39 40/40/40
f 41/41/41 33/33/33 40/40/40
f 41/41/41 40/40/40 42/42/42
f 42/42/42 40/40/40 43/43/43
f 42/42/42 43/43/43 44/44/44
f 40/40/40 39/39/39 45/45/45
f 44/44/44 43/43/43 46/46/46
f 37/37/37 36/36/36 47/47/47
f 36/36/36 33/33/33 47/47/47
f 33/33/33 48/48/48 47/47/47
f 33/33/33 41/41/41 48/48/48
f 49/49/49 37/37/37 47/47/47
f 49/49/49 47/47/47 50/50/50
f 47/47/47 48/48/48 51/51/51
f 50/50/50 47/47/47 51/51/51
f 33/33/33 32/32/32 52/52/52
f 39/39/39 54/54/54 53/53/53
f 53/53/53 54/54/54 55/55/55
f 39/39/39 56/56/56 54/54/54
f 31/31/31 56/56/56 57/57/57
f 31/31/31 58/58/58 56/56/56
f 58/58/58 31/31/31 59/59/59
f 31/31/31 30/30/30 60/60/60
f 61/61/61 62/62/62 30/30/30
f 62/62/62 61/61/61 63/63/63
f 61/61/61 30/30/30 35/35/35
f 64/64/64 63/63/63 61/61/61
f 64/64/64 61/61/61 65/65/65
f 61/61/61 66/66/66 65/65/65
f 66/66/66 61/61/61 34/34/34
f 34/34/34 61/61/61 67/67/67
f 30/30/30 62/62/62 68/68/68
f 13/13/13 11/11/11 29/29/29
f 11/11/11 10/10/10 29/29/29
f 69/69/69 38/38/38 70/70/70
f 38/38/38 37/37/37 70/70/70
f 37/37/37 49/49/49 71/71/71
f 72/72/72 74/74/74 73/73/73
f 72/72/72 75/75/75 74/74/74
f 75/75/75 76/76/76 74/74/74
f 77/77/77 72/72/72 73/73/73
f 78/78/78 77/77/77 73/73/73
f 78/78/78 73/73/73 79/79/79
f 80/80/80 78/78/78 79/79/79
f 81/81/81 80/80/80 79/79/79
f 81/81/81 79/79/79 82/82/82
f 83/83/83 81/81/81 82/82/82
f 73/73/73 74/74/74 84/84/84
f 73/73/73 84/84/84 85/85/85
f 79/79/79 73/73/73 86/86/86
f 85/85/85 84/84/84 87/87/87
f 88/88/88 83/83/83 89/89/89
f 88/88/88 89/89/89 90/90/90
f 90/90/90 82/82/82 91/91/91
f 90/90/90 93/93/93 92/92/92
f 92/92/92 91/91/91 94/94/94
f 92/92/92 94/94/94 95/95/95
f 96/96/96 87/87/87 97/97/97
f 93/93/93 99/99/99 98/98/98
f 93/93/93 100/100/100 99/99/99
f 101/101/101 97/97/97 102/102/102
f 101/101/101 103/103/103 97/97/97
f 79/79/79 103/103/103 101/101/101
f 104/104/104 79/79/79 105/105/105
f 104/104/104 105/105/105 106/106/106
