#Tree_conf1_(3)_1903_315.obj

v 0.1094557 1.578246 0.3661345
v 0.0389247 1.930737 0.1420331
v 0.1273201 1.938304 0.07318438
v 0.3483662 1.598699 0.1800522
v 0.1409881 1.947921 -0.03793324
v 0.3853087 1.62469 -0.1202711
v 0.07192365 1.953952 -0.1262267
v 0.1986428 1.640992 -0.3589089
v -0.0394174 1.952867 -0.1399767
v -0.102285 1.638057 -0.3960706
v -0.1278131 1.945299 -0.07112764
v -0.3411962 1.617604 -0.2099875
v -0.1414817 1.935683 0.03998917
v -0.378139 1.591613 0.09033465
v -0.07241606 1.929651 0.1282843
v -0.1914729 1.575311 0.3289722
v -0.003585166 2.232562 0.01496856
v -0.5621589 0.6246044 0.6367043
v -0.1598651 0.849957 0.410919
v 0.04298802 0.6214363 0.8242593
v 0.378406 0.8471389 0.1273564
v 0.6035106 0.6185017 0.5289741
v 0.7910634 0.61752 -0.0761774
v 0.2650526 0.8477323 -0.3581662
v 0.495781 0.6190658 -0.6367041
v -0.2330174 0.8503399 -0.3806184
v -0.1093648 0.622234 -0.8242588
v -0.6698883 0.6251684 -0.5289741
v -0.496177 0.8517178 0.04285236
v -0.8574408 0.6261503 0.07617714
v -0.043826 1.230687 -5.267379E-08
v -0.3161332 1.416121 -0.4689027
v -0.240168 1.556894 -0.1451859
v -0.5581535 1.372669 -0.1078452
v -0.1586018 1.489291 0.2622044
v -0.4732159 1.302272 0.3163861
v -0.1110746 1.246167 0.5552827
v 0.1835733 1.468478 0.2808055
v 0.3161322 1.23722 0.4689023
v 0.2958274 1.512721 -0.04162242
v 0.5581536 1.280672 0.1078451
v 0.4732151 1.351069 -0.3163868
v 0.06822138 1.564082 -0.295331
v 0.1110739 1.407174 -0.5552834
v 0.02009169 1.826264 0.05963302
v 0.3820777 1.057775 0.612123
v 0.3001461 1.251559 0.2239777
v 0.6914645 1.055051 0.1637037
v 0.2057358 1.249136 -0.2905995
v 0.5931513 1.052527 -0.3721462
v 0.1447275 1.051683 -0.6815334
v -0.221825 1.249646 -0.3223174
v -0.3911254 1.053012 -0.5832229
v -0.3682126 1.251888 0.08064923
v -0.7005124 1.055737 -0.1348034
v -0.6021991 1.05826 0.4010464
v -0.08830843 1.253073 0.4054052
v -0.1537753 1.059105 0.7104337
v -0.007256885 1.578954 0.02317913

vn -0.4754819 0.4115613 0.7775179
vn -0.4451056 0.5340773 0.7187784
vn 0.1665578 0.5632517 0.8093244
vn 0.1913832 0.4410965 0.8768159
vn 0.6675771 0.6014429 0.4388701
vn 0.7388952 0.4797606 0.473142
vn 0.7575988 0.6261111 -0.1844693
vn 0.8379314 0.5047326 -0.2076436
vn 0.3747466 0.6216261 -0.687856
vn 0.4195957 0.5001927 -0.7574607
vn -0.2481677 0.5908968 -0.7676287
vn -0.2608742 0.4690853 -0.8437438
vn -0.7384127 0.5530602 -0.3858379
vn -0.7953741 0.43078 -0.4263902
vn -0.8171533 0.5299489 0.2267478
vn -0.8807752 0.4073827 0.2414008
vn -0.07401967 0.9962845 0.0440226
vn -0.727754 0.6754404 0.118972
vn -0.3787658 0.8853248 0.2696967
vn -0.4476974 0.6235921 0.6408585
vn 0.1571341 0.8843999 0.4394832
vn 0.1101947 0.5780541 0.8085237
vn 0.6239018 0.5632923 0.5417086
vn 0.4940321 0.8687778 -0.03402014
vn 0.8098201 0.5866373 -0.006929338
vn 0.1620399 0.8619226 -0.4804502
vn 0.5569943 0.6363669 -0.5336615
vn -0.00541386 0.6849957 -0.728527
vn -0.3742553 0.8707365 -0.3189841
vn -0.546438 0.7018849 -0.4569058
vn 0.08426519 0.9926714 0.08661802
vn 0.1702516 0.5518385 -0.8163875
vn -0.2361494 0.8873513 -0.3960314
vn -0.4568876 0.551837 -0.6976601
vn -0.5917488 0.7936295 0.1413695
vn -0.8163875 0.5518385 -0.1702516
vn -0.6976591 0.5518386 0.456887
vn -0.1710797 0.735074 0.6560471
vn -0.1702516 0.5518385 0.8163875
vn 0.4212443 0.7923025 0.4413726
vn 0.4568876 0.551837 0.6976601
vn 0.8163875 0.5518385 0.1702516
vn 0.4243972 0.8842494 -0.1949098
vn 0.6976591 0.5518386 -0.456887
vn 0 0.9999999 0
vn -0.1038943 0.6754403 0.730059
vn 0.1442138 0.8853247 0.4420432
vn 0.4778279 0.6235921 0.618719
vn 0.4663569 0.8843999 -0.01865183
vn 0.8045171 0.5780541 0.1364024
vn 0.70337 0.5632922 -0.4335578
vn 0.1151366 0.8687778 -0.4816312
vn 0.2353384 0.5866373 -0.7749016
vn -0.4100924 0.8619226 -0.2981836
vn -0.3428722 0.6363668 -0.6909962
vn -0.6968688 0.6849957 -0.2124965
vn -0.4162313 0.8707364 0.2618577
vn -0.5992966 0.701885 0.3849688
vn 0.1078377 0.9926714 -0.05453734

vt 0.3461914 0.0803833
vt 0.3190918 0.06854248
vt 0.3068848 0.08081055
vt 0.3181152 0.1083374
vt 0.2895508 0.08081055
vt 0.2785645 0.1083374
vt 0.2770996 0.06854248
vt 0.2504883 0.08032227
vt 0.2770996 0.05114746
vt 0.2504883 0.04064941
vt 0.2895508 0.03884888
vt 0.2785645 0.01256561
vt 0.3068848 0.03887939
vt 0.3183594 0.01262665
vt 0.3190918 0.0512085
vt 0.3464355 0.04077148
vt 0.2978516 0.05935669
vt 0.2459717 0.0847168
vt 0.213623 0.08380127
vt 0.2144775 0.1161499
vt 0.1708984 0.08374023
vt 0.1700439 0.1160889
vt 0.1385498 0.08459473
vt 0.1621094 0.04983521
vt 0.1385498 0.0401001
vt 0.1923828 0.03216553
vt 0.1700439 0.008682251
vt 0.2145996 0.008712769
vt 0.2225342 0.04989624
vt 0.2460938 0.04019165
vt 0.1922607 0.06237793
vt 0.2459717 0.0847168
vt 0.213623 0.08380127
vt 0.2144775 0.1161499
vt 0.1708984 0.08374023
vt 0.1700439 0.1160889
vt 0.1385498 0.08459473
vt 0.1621094 0.04983521
vt 0.1385498 0.0401001
vt 0.1923828 0.03216553
vt 0.1700439 0.008682251
vt 0.2145996 0.008712769
vt 0.2225342 0.04989624
vt 0.2460938 0.04019165
vt 0.1922607 0.06237793
vt 0.2459717 0.0847168
vt 0.213623 0.08380127
vt 0.2144775 0.1161499
vt 0.1708984 0.08374023
vt 0.1700439 0.1160889
vt 0.1385498 0.08459473
vt 0.1621094 0.04983521
vt 0.1385498 0.0401001
vt 0.1923828 0.03216553
vt 0.1700439 0.008682251
vt 0.2145996 0.008712769
vt 0.2225342 0.04989624
vt 0.2460938 0.04019165
vt 0.1922607 0.06237793

g Tree_conf1_(3)_1903_315
usemtl Tree_conf1_(3)_1903_315
usemap Tree_conf1_(3)_1903_315
f 1/1/1 3/3/3 2/2/2
f 1/1/1 4/4/4 3/3/3
f 4/4/4 5/5/5 3/3/3
f 4/4/4 6/6/6 5/5/5
f 6/6/6 7/7/7 5/5/5
f 6/6/6 8/8/8 7/7/7
f 8/8/8 9/9/9 7/7/7
f 8/8/8 10/10/10 9/9/9
f 10/10/10 11/11/11 9/9/9
f 10/10/10 12/12/12 11/11/11
f 12/12/12 13/13/13 11/11/11
f 12/12/12 14/14/14 13/13/13
f 14/14/14 15/15/15 13/13/13
f 14/14/14 16/16/16 15/15/15
f 16/16/16 2/2/2 15/15/15
f 16/16/16 1/1/1 2/2/2
f 2/2/2 3/3/3 17/17/17
f 3/3/3 5/5/5 17/17/17
f 5/5/5 7/7/7 17/17/17
f 7/7/7 9/9/9 17/17/17
f 9/9/9 11/11/11 17/17/17
f 11/11/11 13/13/13 17/17/17
f 13/13/13 15/15/15 17/17/17
f 15/15/15 2/2/2 17/17/17
f 18/18/18 20/20/20 19/19/19
f 20/20/20 21/21/21 19/19/19
f 20/20/20 22/22/22 21/21/21
f 22/22/22 23/23/23 21/21/21
f 23/23/23 24/24/24 21/21/21
f 23/23/23 25/25/25 24/24/24
f 25/25/25 26/26/26 24/24/24
f 25/25/25 27/27/27 26/26/26
f 27/27/27 28/28/28 26/26/26
f 28/28/28 29/29/29 26/26/26
f 28/28/28 30/30/30 29/29/29
f 30/30/30 19/19/19 29/29/29
f 30/30/30 18/18/18 19/19/19
f 19/19/19 21/21/21 31/31/31
f 21/21/21 24/24/24 31/31/31
f 24/24/24 26/26/26 31/31/31
f 26/26/26 29/29/29 31/31/31
f 29/29/29 19/19/19 31/31/31
f 32/32/32 34/34/34 33/33/33
f 34/34/34 35/35/35 33/33/33
f 34/34/34 36/36/36 35/35/35
f 36/36/36 37/37/37 35/35/35
f 37/37/37 38/38/38 35/35/35
f 37/37/37 39/39/39 38/38/38
f 39/39/39 40/40/40 38/38/38
f 39/39/39 41/41/41 40/40/40
f 41/41/41 42/42/42 40/40/40
f 42/42/42 43/43/43 40/40/40
f 42/42/42 44/44/44 43/43/43
f 44/44/44 33/33/33 43/43/43
f 44/44/44 32/32/32 33/33/33
f 33/33/33 35/35/35 45/45/45
f 35/35/35 38/38/38 45/45/45
f 38/38/38 40/40/40 45/45/45
f 40/40/40 43/43/43 45/45/45
f 43/43/43 33/33/33 45/45/45
f 46/46/46 48/48/48 47/47/47
f 48/48/48 49/49/49 47/47/47
f 48/48/48 50/50/50 49/49/49
f 50/50/50 51/51/51 49/49/49
f 51/51/51 52/52/52 49/49/49
f 51/51/51 53/53/53 52/52/52
f 53/53/53 54/54/54 52/52/52
f 53/53/53 55/55/55 54/54/54
f 55/55/55 56/56/56 54/54/54
f 56/56/56 57/57/57 54/54/54
f 56/56/56 58/58/58 57/57/57
f 58/58/58 47/47/47 57/57/57
f 58/58/58 46/46/46 47/47/47
f 47/47/47 49/49/49 59/59/59
f 49/49/49 52/52/52 59/59/59
f 52/52/52 54/54/54 59/59/59
f 54/54/54 57/57/57 59/59/59
f 57/57/57 47/47/47 59/59/59
