#Tree2_(68)_2721_598.obj

v 0.7752663 1.310929 0.07278335
v 1.306419 2.346469 -0.3110505
v 1.184129 2.31463 -0.578522
v 0.4093682 1.223058 -0.145441
v 0.5879234 1.480954 0.5344527
v 1.155128 2.463786 -0.0855406
v 0.377131 1.588565 0.7732869
v 1.064944 4.630815 -1.694033
v 1.167387 4.630815 -1.446714
v 1.064945 4.630815 -1.199393
v 0.7982616 2.602398 -0.01764553
v 0.05036925 1.736241 0.6994739
v 0.4403861 2.6719 -0.1771041
v -0.5084189 1.564545 0.3430364
v 0.2979125 2.670999 -0.3412511
v -0.3605423 1.480954 -0.01388401
v 0.4708384 2.515306 -0.6946625
v -0.01739164 1.301476 -0.478358
v 0.4678664 4.630815 -1.446713
v 0.5702851 4.630815 -1.694033
v 0.8413225 2.380942 -0.7495842
v -0.01739164 1.301476 -0.478358
v 0.8176167 4.630815 -1.796473
v 1.184129 2.31463 -0.578522
v 0.4093682 1.223058 -0.145441
v -0.01739164 1.301476 -0.478358
v 1.064944 4.630815 -1.694033
v 0.5702854 4.630815 -1.199393
v 0.8176174 4.630815 -1.096949
v -0.4733656 0.3292439 -0.1358111
v -0.6694371 0.4708683 0.254301
v -0.4733656 0.6728067 0.6444127
v 4.825866E-07 0.4708683 0.8060023
v 0.4733786 0.4910424 -0.2004471
v 4.86695E-07 0.8423996 -0.6920164
v 0.5610943 0.7986991 0.5659735
v 0.8372403 0.6728067 0.1318405
v 0.4733786 0.4910424 -0.2004471
v -0.9349058 0.2222972 0.7275556
v -0.5725096 0.1527944 0.9643095
v -0.02356534 -0.1077578 0.77246
v -0.5089791 -0.1176493 0.8692781
v -0.8674613 -0.1360745 1.196745
v -0.7166185 -0.3318532 1.150715
v -0.8674613 -0.1360745 1.196745
v -1.033335 -0.5150276 1.527069
v 0.785872 0.2580049 0.7238586
v 0.4410265 -0.2057266 0.9391019
v 0.7991847 -0.1077578 0.2311959
v 0.9088841 -0.2057266 0.5832483
v 0.9399607 -0.5151595 1.170652
v -0.9349058 0.2222972 0.7275556
v -0.8674613 -0.1360745 1.196745
v -1.09445 -0.3417804 1.009755
v -1.033335 -0.5150276 1.527069
v -0.9696426 -0.1331239 0.4415197
v -0.9349058 0.2222972 0.7275556
v -0.8137779 -0.1077578 0.1714226
v -1.428053 -0.3506457 -0.2965566
v -1.428053 -0.3506457 -0.2965566
v 0.02662207 0.309643 -0.6717809
v -0.5823323 -0.1077578 -0.2535725
v -0.3954293 -0.2645998 -0.6329514
v 0.07547917 -0.6410102 -1.310643
v 0.2633086 -0.2645998 -0.6329525
v 0.5026554 -0.1077578 -0.3133489
v 4.86695E-07 0.8423996 -0.6920164
v -1.428053 -0.3506457 -0.2965566
v 0.5026554 -0.1077578 -0.3133489
v 1.17522 -0.4948694 -0.2139332
v 1.17522 -0.4948694 -0.2139332
v -0.05483632 1.150024 0.06832094
v -0.6271816 1.569091 0.08068085
v -0.7951826 1.419268 0.03679901
v -0.1862159 1.032856 0.03400302
v -0.3377207 0.984323 0.1168543
v -0.02051558 1.267193 0.1997042
v -0.1033775 1.315726 0.3511941
v -0.7331254 1.631149 0.2743857
v -0.2548595 1.267193 0.4340421
v -0.3862417 1.150024 0.3997239
v -0.9011272 1.481326 0.2305044
v -0.4205609 1.032856 0.2683394
v -0.8381213 1.816107 -0.5210686
v -0.7044657 1.935304 -0.4861576
v -0.7044657 1.935304 -0.4861576
v -1.142115 2.360987 -0.6409965
v -0.3377207 0.984323 0.1168543
v -0.9011272 1.481326 0.2305044
v -0.7951826 1.419268 0.03679901
v -0.9224109 1.86548 -0.3669612
v -0.8381213 1.816107 -0.5210686
v -0.9224109 1.86548 -0.3669612
v -1.214082 2.403146 -0.5094075
v -1.142115 2.360987 -0.6409965
v -0.7044657 1.935304 -0.4861576
v -1.027985 2.462767 -0.611185
v -1.214082 2.403146 -0.5094075
v -1.099951 2.504926 -0.4795971
v -0.7887542 1.984677 -0.3320487
v -0.7887542 1.984677 -0.3320487
v -1.099951 2.504926 -0.4795971
v -0.7044657 1.935304 -0.4861576
v -0.9011272 1.481326 0.2305044
v -0.7887542 1.984677 -0.3320487
v -0.9224109 1.86548 -0.3669612

vn 0.6405022 -0.3371709 -0.6899803
vn 0.5340537 -0.352839 -0.7683041
vn -0.1785238 -0.441645 -0.8792492
vn -0.3371525 -0.246164 -0.9086977
vn 0.9959804 0.08349802 -0.03242376
vn 0.9602036 0.134854 -0.2445883
vn 0.8161352 0.2369131 0.5270631
vn -0.2588834 -0.251435 -0.9326091
vn 0.5255858 0.021219 -0.850476
vn 0.9114509 0.274749 -0.3062195
vn 0.8543711 0.44408 0.2698944
vn 0.2875104 0.3261311 0.9005422
vn 0.3836804 0.5701939 0.7264078
vn -0.4843021 0.352136 0.8009068
vn -0.4401267 0.3675431 0.8192683
vn -0.9429424 0.190888 0.2728028
vn -0.9672698 -0.08098095 0.2404813
vn -0.921165 -0.143503 -0.3617482
vn -0.6300494 0.06846599 0.773531
vn -0.9484385 -0.2562009 0.1866161
vn -0.8276433 -0.327403 -0.4558661
vn -0.921165 -0.143503 -0.3617482
vn -0.8259336 -0.351269 -0.4409578
vn -0.1785238 -0.441645 -0.8792492
vn -0.3371525 -0.246164 -0.9086977
vn -0.921165 -0.143503 -0.3617482
vn -0.2588834 -0.251435 -0.9326091
vn 0.2681355 0.475129 0.8380667
vn 0.8287387 0.4572679 0.3226427
vn -0.9353069 0.3460911 0.07363528
vn -0.5334091 0.452247 0.7148059
vn 0.2138412 0.4481292 0.8680162
vn 0.8312047 0.167681 0.5300773
vn -0.2781929 0.195953 -0.940325
vn -0.779614 0.2755259 -0.5623944
vn 0.9737908 0.208623 -0.09059778
vn 0.5755109 0.221386 -0.7872582
vn -0.2781929 0.195953 -0.940325
vn -0.221861 0.6389848 0.7365298
vn 0.8104931 0.3673829 0.4562136
vn 0.8595723 0.02434001 0.5104342
vn 0.8064722 -0.019511 0.5909501
vn 0.4692551 0.6323718 0.6163648
vn 0.8064722 -0.019511 0.5909501
vn 0.4692551 0.6323718 0.6163648
vn 0.5185949 0.676885 0.522385
vn 0.9231242 0.3803267 -0.05650777
vn 0.8064722 -0.019511 0.5909501
vn 0.8339136 0.05863598 -0.5487714
vn 0.5242959 -0.016972 -0.851367
vn 0.8695962 0.489 -0.06842086
vn -0.221861 0.6389848 0.7365298
vn 0.4692551 0.6323718 0.6163648
vn -0.6276479 0.173637 0.7588863
vn 0.5185949 0.676885 0.522385
vn -0.6276479 0.173637 0.7588863
vn -0.221861 0.6389848 0.7365298
vn -0.3745202 0.2254061 0.8994036
vn -0.6276479 0.173637 0.7588863
vn -0.6276479 0.173637 0.7588863
vn -0.6649082 0.4164998 -0.6200202
vn -0.9371794 0.274373 -0.2154393
vn -0.9710114 0.153429 0.1832932
vn -0.5354488 0.5555828 -0.6360993
vn -0.2844848 0.01699201 -0.9585299
vn -0.3642301 0.1688749 -0.9158699
vn -0.779614 0.2755259 -0.5623944
vn -0.6276479 0.173637 0.7588863
vn -0.3642301 0.1688749 -0.9158699
vn 0.04482955 0.3062461 -0.9508963
vn 0.04482955 0.3062461 -0.9508963
vn -0.4851409 0.4029588 -0.7760557
vn -0.1456625 0.02636 -0.9889832
vn -0.6149414 -0.5568762 -0.5583333
vn -0.7977031 -0.1007939 -0.5945674
vn -0.7734455 -0.6331879 -0.02924076
vn -0.02959487 0.7606381 -0.6485012
vn 0.4953436 0.8510838 -0.1740435
vn 0.4575413 0.539537 0.7067927
vn 0.7457392 0.4079698 0.5267197
vn 0.4201129 -0.2859819 0.8612314
vn -0.3953142 -0.4238028 0.8149343
vn -0.2192103 -0.7340966 0.6426889
vn -0.5351286 -0.5169717 -0.668115
vn -0.05559245 -0.117654 -0.9914973
vn -0.05559245 -0.117654 -0.9914973
vn -0.7831418 -0.223248 -0.5803872
vn -0.7734455 -0.6331879 -0.02924076
vn -0.3953142 -0.4238028 0.8149343
vn -0.6149414 -0.5568762 -0.5583333
vn -0.6222257 -0.3610662 0.694598
vn -0.5351286 -0.5169717 -0.668115
vn -0.6222257 -0.3610662 0.694598
vn -0.3955551 -0.425273 0.814051
vn -0.7831418 -0.223248 -0.5803872
vn -0.05559245 -0.117654 -0.9914973
vn -0.2255453 0.198859 -0.9537213
vn -0.3955551 -0.425273 0.814051
vn 0.7608292 0.282481 0.5842461
vn 0.5141257 0.5991837 0.6137211
vn 0.5141257 0.5991837 0.6137211
vn 0.7608292 0.282481 0.5842461
vn -0.05559245 -0.117654 -0.9914973
vn -0.3953142 -0.4238028 0.8149343
vn 0.5141257 0.5991837 0.6137211
vn -0.6222257 -0.3610662 0.694598

vt 0.1541748 0.3811035
vt 0.1590576 0.4104004
vt 0.1722412 0.4101563
vt 0.1663818 0.376709
vt 0.1364746 0.3845215
vt 0.1468506 0.4121094
vt 0.126709 0.3862305
vt 0.1921387 0.473877
vt 0.1811523 0.4743652
vt 0.168335 0.4765625
vt 0.1317139 0.4157715
vt 0.1170654 0.3901367
vt 0.1200562 0.4199219
vt 0.1000366 0.3901367
vt 0.1082153 0.4238281
vt 0.09014893 0.3935547
vt 0.09667969 0.4287109
vt 0.0737915 0.3967285
vt 0.1230469 0.4912109
vt 0.1109619 0.4958496
vt 0.07879639 0.4335938
vt 0.0737915 0.3967285
vt 0.09790039 0.4995117
vt 0.06658936 0.4365234
vt 0.06036377 0.4016113
vt 0.0737915 0.3967285
vt 0.08673096 0.5014648
vt 0.1363525 0.4863281
vt 0.1523438 0.4812012
vt 0.07971191 0.3654785
vt 0.09265137 0.3664551
vt 0.1063843 0.3684082
vt 0.1200562 0.361084
vt 0.05514526 0.3876953
vt 0.06793213 0.3845215
vt 0.1364746 0.3662109
vt 0.1503906 0.3605957
vt 0.1633301 0.3591309
vt 0.1005859 0.3500977
vt 0.1080933 0.3491211
vt 0.1171875 0.3447266
vt 0.1099243 0.3425293
vt 0.1017456 0.3344727
vt 0.1046753 0.3322754
vt 0.1017456 0.3344727
vt 0.0958252 0.3178711
vt 0.1339111 0.3461914
vt 0.1220703 0.3371582
vt 0.1396484 0.333252
vt 0.1322021 0.3295898
vt 0.1195679 0.3183594
vt 0.1005859 0.3500977
vt 0.1017456 0.3344727
vt 0.09527588 0.3286133
vt 0.0958252 0.3178711
vt 0.09289551 0.3415527
vt 0.1005859 0.3500977
vt 0.08953857 0.3452148
vt 0.07525635 0.3251953
vt 0.07525635 0.3251953
vt 0.06292725 0.369873
vt 0.07281494 0.3515625
vt 0.06408691 0.3474121
vt 0.04751587 0.3354492
vt 0.05215454 0.3608398
vt 0.05004883 0.3742676
vt 0.06793213 0.3845215
vt 0.07525635 0.3251953
vt 0.163208 0.3413086
vt 0.1427002 0.314209
vt 0.1427002 0.314209
vt 0.1293945 0.354248
vt 0.1226807 0.392334
vt 0.1434326 0.3952637
vt 0.1375732 0.3566895
vt 0.1451416 0.3615723
vt 0.1209106 0.3537598
vt 0.1124878 0.3549805
vt 0.1031494 0.3913574
vt 0.1035767 0.3566895
vt 0.09338379 0.3581543
vt 0.08624268 0.3920898
vt 0.08288574 0.3581543
vt 0.1407471 0.4306641
vt 0.1242676 0.4301758
vt 0.1242676 0.4301758
vt 0.1412354 0.4660645
vt 0.07305908 0.3564453
vt 0.08624268 0.3920898
vt 0.07385254 0.3935547
vt 0.0859375 0.4306641
vt 0.07189941 0.4326172
vt 0.0859375 0.4306641
vt 0.08843994 0.4650879
vt 0.07489014 0.465332
vt 0.1242676 0.4301758
vt 0.1218262 0.4648438
vt 0.08843994 0.4650879
vt 0.1048584 0.465332
vt 0.1066284 0.4301758
vt 0.1066284 0.4301758
vt 0.1048584 0.465332
vt 0.1242676 0.4301758
vt 0.08624268 0.3920898
vt 0.1066284 0.4301758
vt 0.0859375 0.4306641

g Tree2_(68)_2721_598
usemtl Tree2_(68)_2721_598
usemap Tree2_(68)_2721_598
f 1/1/1 3/3/3 2/2/2
f 1/1/1 4/4/4 3/3/3
f 5/5/5 1/1/1 2/2/2
f 5/5/5 2/2/2 6/6/6
f 7/7/7 5/5/5 6/6/6
f 2/2/2 3/3/3 8/8/8
f 2/2/2 8/8/8 9/9/9
f 6/6/6 2/2/2 9/9/9
f 6/6/6 9/9/9 10/10/10
f 11/11/11 6/6/6 10/10/10
f 7/7/7 6/6/6 11/11/11
f 12/12/12 7/7/7 11/11/11
f 12/12/12 11/11/11 13/13/13
f 14/14/14 12/12/12 13/13/13
f 14/14/14 13/13/13 15/15/15
f 16/16/16 14/14/14 15/15/15
f 16/16/16 15/15/15 17/17/17
f 18/18/18 16/16/16 17/17/17
f 17/17/17 15/15/15 19/19/19
f 17/17/17 19/19/19 20/20/20
f 21/21/21 17/17/17 20/20/20
f 22/22/22 17/17/17 21/21/21
f 21/21/21 20/20/20 23/23/23
f 24/24/24 21/21/21 23/23/23
f 25/25/25 21/21/21 24/24/24
f 25/25/25 26/26/26 21/21/21
f 24/24/24 23/23/23 27/27/27
f 15/15/15 28/28/28 19/19/19
f 15/15/15 13/13/13 28/28/28
f 13/13/13 29/29/29 28/28/28
f 30/30/30 14/14/14 16/16/16
f 30/30/30 31/31/31 14/14/14
f 31/31/31 12/12/12 14/14/14
f 31/31/31 32/32/32 12/12/12
f 32/32/32 7/7/7 12/12/12
f 32/32/32 33/33/33 7/7/7
f 34/34/34 22/22/22 25/25/25
f 34/34/34 35/35/35 22/22/22
f 35/35/35 30/30/30 16/16/16
f 35/35/35 16/16/16 18/18/18
f 33/33/33 5/5/5 7/7/7
f 33/33/33 36/36/36 5/5/5
f 36/36/36 1/1/1 5/5/5
f 36/36/36 37/37/37 1/1/1
f 37/37/37 4/4/4 1/1/1
f 37/37/37 38/38/38 4/4/4
f 32/32/32 31/31/31 39/39/39
f 33/33/33 39/39/39 40/40/40
f 41/41/41 33/33/33 40/40/40
f 41/41/41 40/40/40 42/42/42
f 42/42/42 40/40/40 43/43/43
f 42/42/42 43/43/43 44/44/44
f 40/40/40 39/39/39 45/45/45
f 44/44/44 43/43/43 46/46/46
f 37/37/37 36/36/36 47/47/47
f 36/36/36 33/33/33 47/47/47
f 33/33/33 48/48/48 47/47/47
f 33/33/33 41/41/41 48/48/48
f 49/49/49 37/37/37 47/47/47
f 49/49/49 47/47/47 50/50/50
f 47/47/47 48/48/48 51/51/51
f 50/50/50 47/47/47 51/51/51
f 33/33/33 32/32/32 52/52/52
f 39/39/39 54/54/54 53/53/53
f 53/53/53 54/54/54 55/55/55
f 39/39/39 56/56/56 54/54/54
f 31/31/31 56/56/56 57/57/57
f 31/31/31 58/58/58 56/56/56
f 58/58/58 31/31/31 59/59/59
f 31/31/31 30/30/30 60/60/60
f 61/61/61 62/62/62 30/30/30
f 62/62/62 61/61/61 63/63/63
f 61/61/61 30/30/30 35/35/35
f 64/64/64 63/63/63 61/61/61
f 64/64/64 61/61/61 65/65/65
f 61/61/61 66/66/66 65/65/65
f 66/66/66 61/61/61 34/34/34
f 34/34/34 61/61/61 67/67/67
f 30/30/30 62/62/62 68/68/68
f 13/13/13 11/11/11 29/29/29
f 11/11/11 10/10/10 29/29/29
f 69/69/69 38/38/38 70/70/70
f 38/38/38 37/37/37 70/70/70
f 37/37/37 49/49/49 71/71/71
f 72/72/72 74/74/74 73/73/73
f 72/72/72 75/75/75 74/74/74
f 75/75/75 76/76/76 74/74/74
f 77/77/77 72/72/72 73/73/73
f 78/78/78 77/77/77 73/73/73
f 78/78/78 73/73/73 79/79/79
f 80/80/80 78/78/78 79/79/79
f 81/81/81 80/80/80 79/79/79
f 81/81/81 79/79/79 82/82/82
f 83/83/83 81/81/81 82/82/82
f 73/73/73 74/74/74 84/84/84
f 73/73/73 84/84/84 85/85/85
f 79/79/79 73/73/73 86/86/86
f 85/85/85 84/84/84 87/87/87
f 88/88/88 83/83/83 89/89/89
f 88/88/88 89/89/89 90/90/90
f 90/90/90 82/82/82 91/91/91
f 90/90/90 93/93/93 92/92/92
f 92/92/92 91/91/91 94/94/94
f 92/92/92 94/94/94 95/95/95
f 96/96/96 87/87/87 97/97/97
f 93/93/93 99/99/99 98/98/98
f 93/93/93 100/100/100 99/99/99
f 101/101/101 97/97/97 102/102/102
f 101/101/101 103/103/103 97/97/97
f 79/79/79 103/103/103 101/101/101
f 104/104/104 79/79/79 105/105/105
f 104/104/104 105/105/105 106/106/106
