#Tree1_(2)_692_101.obj

v -0.4416066 6.484625 -1.577855
v -1.397587 6.484625 -1.181874
v -0.4416065 5.622716 -2.052588
v -1.733278 5.622716 -1.517559
v -1.793568 6.484625 -0.22589
v -2.268301 5.622716 -0.2258911
v -1.397588 6.484625 0.7300897
v -1.733277 5.622716 1.065777
v -0.4416077 6.484625 1.12607
v -0.441608 5.622716 1.600808
v 0.514375 6.484625 0.7300906
v 0.850063 5.622716 1.065778
v 0.9103574 6.484625 -0.2258924
v 1.38509 5.622716 -0.2258917
v 0.5143759 6.484625 -1.181873
v 0.8500633 5.622716 -1.517561
v -0.4416082 4.609753 -2.15297
v -1.80426 4.609753 -1.588545
v -2.368685 4.609753 -0.2258913
v -1.804261 4.609753 1.13676
v -0.4416075 4.609753 1.701189
v 0.9210466 4.609753 1.13676
v 1.485478 4.609753 -0.2258937
v 0.9210445 4.609753 -1.588546
v 0.1353817 6.879482 0.01310355
v -0.6806028 6.879482 0.3510947
v -0.4416069 6.955975 -0.2258922
v -1.018594 6.879482 -0.4648868
v -0.2026132 6.879482 -0.802876
v -0.496305 5.42801 1.781258
v -1.262318 5.284224 2.032506
v -0.4443536 5.091809 1.14274
v -1.557364 4.882892 1.507797
v -1.602622 5.008309 2.724353
v -2.051819 4.481992 2.513033
v -1.317864 4.761891 3.451519
v -1.638069 4.12395 3.569593
v -0.5748557 4.689319 3.788048
v -0.5584877 4.018503 4.058561
v 0.191161 4.833102 3.536798
v 0.5545229 4.22742 3.693505
v 0.531465 5.109017 2.844957
v 1.048975 4.628322 2.688267
v 0.246705 5.355435 2.117788
v 0.6352264 4.986362 1.631707
v -0.3995074 4.544276 0.8063719
v -1.604221 4.318147 1.201501
v -2.139411 3.884214 2.289565
v -1.691574 3.496673 3.433179
v -0.5230435 3.382539 3.962435
v 0.6816724 3.608668 3.567299
v 1.216864 4.0426 2.479236
v 0.7690238 4.43014 1.335625
v -0.1039909 5.263332 3.078571
v -0.7578294 5.140604 3.293019
v -0.559096 5.405268 2.911318
v -1.000883 5.350937 2.672343
v -0.3470512 5.473663 2.457892
v 3.467294 4.289501 -0.06888997
v 2.692065 4.465175 -0.7313521
v 3.661679 3.344652 -0.2631505
v 2.614224 3.582012 -1.158229
v 1.693771 4.720965 -0.6381465
v 1.265388 3.927623 -1.032294
v 1.057212 4.907035 0.1561238
v 0.405299 4.179029 0.04087964
v 1.155264 4.914389 1.186189
v 0.5377825 4.188965 1.432644
v 1.930498 4.738715 1.848649
v 1.585238 3.951605 2.327727
v 2.928789 4.482923 1.755446
v 2.934074 3.605994 2.201793
v 3.565354 4.296852 0.9611743
v 3.794164 3.354586 1.12862
v 3.498888 2.339955 -0.2790723
v 2.393873 2.590358 -1.223339
v 0.9709139 2.954962 -1.090484
v 0.06355868 3.220185 0.04166212
v 0.2033253 3.230666 1.509914
v 1.308344 2.980261 2.454183
v 2.731303 2.615658 2.321329
v 3.638655 2.350435 1.189176
v 2.467379 4.988973 1.168393
v 1.805672 5.13892 0.6029472
v 2.42697 5.058652 0.5443745
v 2.349015 4.980098 -0.07500701
v 3.010713 4.830153 0.4904381

vn 0.7252402 0.5420592 -0.4244981
vn 0.2126569 0.5420586 -0.812988
vn 0.8193817 0.3140009 -0.4796011
vn 0.2402612 0.3140011 -0.9185195
vn -0.4244981 0.5420592 -0.7252402
vn -0.4796011 0.3140009 -0.8193817
vn -0.8129877 0.542059 -0.2126575
vn -0.9185195 0.3140011 -0.2402612
vn -0.7252402 0.5420592 0.4244981
vn -0.8193817 0.3140009 0.4796011
vn -0.2126562 0.542059 0.8129881
vn -0.2402612 0.3140011 0.9185195
vn 0.4244981 0.5420592 0.7252402
vn 0.4796011 0.3140009 0.8193817
vn 0.8129881 0.542059 0.2126562
vn 0.9185198 0.3140009 0.2402605
vn 0.8517228 0.1613551 -0.498531
vn 0.2497444 0.161355 -0.9547735
vn -0.498531 0.1613551 -0.8517228
vn -0.9547735 0.161355 -0.2497444
vn -0.8517228 0.1613551 0.498531
vn -0.2497444 0.161355 0.9547735
vn 0.498531 0.1613551 0.8517228
vn 0.9547737 0.1613549 0.2497437
vn 0.09358475 0.9538103 0.2854609
vn -0.2854614 0.9538102 0.0935839
vn 0 1 0
vn -0.09358525 0.95381 -0.2854617
vn 0.2854609 0.9538103 -0.09358475
vn 0.5180592 0.7981869 -0.3074287
vn 0.04383573 0.6852556 -0.7269822
vn 0.6831152 0.6220729 -0.3825952
vn 0.1473338 0.4944831 -0.8566092
vn -0.5601372 0.468548 -0.6831613
vn -0.5350392 0.249645 -0.8071001
vn -0.9400604 0.275008 -0.2016362
vn -0.9642794 0.030982 -0.2630693
vn -0.8733799 0.2180079 0.4355229
vn -0.8889434 -0.03341699 0.4567966
vn -0.3991551 0.3309391 0.8550759
vn -0.353162 0.09417298 0.9308105
vn 0.2048175 0.547647 0.8112538
vn 0.329212 0.339011 0.8813009
vn 0.5847404 0.7411867 0.3297286
vn 0.7584518 0.557674 0.3372694
vn 0.7641692 0.491927 -0.417197
vn 0.2072411 0.3593008 -0.9099199
vn -0.5020656 0.1047991 -0.8584565
vn -0.9482477 -0.122495 -0.2929532
vn -0.869938 -0.189435 0.4553267
vn -0.3130092 -0.056809 0.9480497
vn 0.3962977 0.1976929 0.8965856
vn 0.8424794 0.424986 0.3310822
vn -0.2394913 0.885857 0.397368
vn -0.5810681 0.7939746 0.1787857
vn -0.3277503 0.9373471 0.1181534
vn -0.3870367 0.9059739 -0.1715052
vn -0.04546098 0.9978563 0.04707665
vn 0.7809813 0.3310159 0.5296195
vn 0.8929355 0.4402091 -0.09424725
vn 0.8375599 0.08483202 0.5397195
vn 0.9640463 0.2082001 -0.1651295
vn 0.5294867 0.5992017 -0.6005009
vn 0.5534199 0.3878301 -0.7370986
vn -0.09645976 0.714857 -0.6925858
vn -0.1537801 0.5184991 -0.8411364
vn -0.6182356 0.719427 -0.3165589
vn -0.7432854 0.523662 -0.4162993
vn -0.730189 0.610234 0.3073087
vn -0.869772 0.4002951 0.2885495
vn -0.3667397 0.4512419 0.8135619
vn -0.4591443 0.2206639 0.8605198
vn 0.2592072 0.335586 0.9056455
vn 0.2480557 0.08999498 0.9645566
vn 0.8458428 -0.07173201 0.5285873
vn 0.9773218 0.05650397 -0.2040822
vn 0.550488 0.243225 -0.7986268
vn -0.1846252 0.379052 -0.9067708
vn -0.7973986 0.384418 -0.4651649
vn -0.9288771 0.2561819 0.267504
vn -0.502042 0.06946103 0.8620494
vn 0.2330702 -0.06636602 0.9701928
vn -0.06620809 0.9129925 0.4025685
vn -0.06744948 0.9976278 -0.01375834
vn 0.1501191 0.9689379 0.1965286
vn 0.3525777 0.9353735 -0.02766597
vn 0.353819 0.850738 0.3886606

vt 0.4470215 0.4243164
vt 0.4257813 0.4155273
vt 0.4472656 0.4458008
vt 0.4106445 0.4306641
vt 0.4169922 0.3942871
vt 0.3955078 0.3942871
vt 0.4257813 0.3728027
vt 0.4106445 0.3579102
vt 0.4470215 0.3642578
vt 0.4470215 0.3427734
vt 0.4685059 0.3730469
vt 0.4833984 0.357666
vt 0.4770508 0.3942871
vt 0.4985352 0.394043
vt 0.4682617 0.4155273
vt 0.4833984 0.4306641
vt 0.4470215 0.4689941
vt 0.394043 0.4470215
vt 0.3723145 0.394043
vt 0.394043 0.3413086
vt 0.4470215 0.3193359
vt 0.5 0.3413086
vt 0.5219727 0.3942871
vt 0.5 0.4472656
vt 0.4609375 0.3884277
vt 0.4411621 0.3803711
vt 0.4470215 0.3942871
vt 0.4331055 0.3999023
vt 0.4528809 0.407959
vt 0.3144531 0.4064941
vt 0.2939453 0.3986816
vt 0.3151855 0.4223633
vt 0.2832031 0.4101563
vt 0.2856445 0.3781738
vt 0.2697754 0.3789063
vt 0.293457 0.357666
vt 0.2817383 0.3469238
vt 0.3139648 0.3493652
vt 0.3132324 0.333252
vt 0.3344727 0.3571777
vt 0.3452148 0.345459
vt 0.3427734 0.3776855
vt 0.3586426 0.3769531
vt 0.3349609 0.3981934
vt 0.3464355 0.4089355
vt 0.3132324 0.4384766
vt 0.2705078 0.420166
vt 0.253418 0.3769531
vt 0.2717285 0.3342285
vt 0.3151855 0.3171387
vt 0.357666 0.3354492
vt 0.375 0.3786621
vt 0.3564453 0.4213867
vt 0.3261719 0.3720703
vt 0.3083496 0.3659668
vt 0.314209 0.3779297
vt 0.3022461 0.3837891
vt 0.3200684 0.3898926
vt 0.4470215 0.4243164
vt 0.4257813 0.4155273
vt 0.4472656 0.4458008
vt 0.4106445 0.4306641
vt 0.4169922 0.3942871
vt 0.3955078 0.3942871
vt 0.4257813 0.3728027
vt 0.4106445 0.3579102
vt 0.4470215 0.3642578
vt 0.4470215 0.3427734
vt 0.4685059 0.3730469
vt 0.4833984 0.357666
vt 0.4770508 0.3942871
vt 0.4985352 0.394043
vt 0.4682617 0.4155273
vt 0.4833984 0.4306641
vt 0.4470215 0.4689941
vt 0.394043 0.4470215
vt 0.3723145 0.394043
vt 0.394043 0.3413086
vt 0.4470215 0.3193359
vt 0.5 0.3413086
vt 0.5219727 0.3942871
vt 0.5 0.4472656
vt 0.4609375 0.3884277
vt 0.4411621 0.3803711
vt 0.4470215 0.3942871
vt 0.4331055 0.3999023
vt 0.4528809 0.407959

g Tree1_(2)_692_101
usemtl Tree1_(2)_692_101
usemap Tree1_(2)_692_101
f 1/1/1 3/3/3 2/2/2
f 2/2/2 3/3/3 4/4/4
f 2/2/2 4/4/4 5/5/5
f 5/5/5 4/4/4 6/6/6
f 5/5/5 6/6/6 7/7/7
f 7/7/7 6/6/6 8/8/8
f 7/7/7 8/8/8 9/9/9
f 9/9/9 8/8/8 10/10/10
f 9/9/9 10/10/10 11/11/11
f 11/11/11 10/10/10 12/12/12
f 11/11/11 12/12/12 13/13/13
f 13/13/13 12/12/12 14/14/14
f 13/13/13 14/14/14 15/15/15
f 15/15/15 14/14/14 16/16/16
f 15/15/15 16/16/16 1/1/1
f 1/1/1 16/16/16 3/3/3
f 3/3/3 17/17/17 4/4/4
f 4/4/4 17/17/17 18/18/18
f 4/4/4 18/18/18 6/6/6
f 6/6/6 18/18/18 19/19/19
f 6/6/6 19/19/19 8/8/8
f 8/8/8 19/19/19 20/20/20
f 8/8/8 20/20/20 10/10/10
f 10/10/10 20/20/20 21/21/21
f 10/10/10 21/21/21 12/12/12
f 12/12/12 21/21/21 22/22/22
f 12/12/12 22/22/22 14/14/14
f 14/14/14 22/22/22 23/23/23
f 14/14/14 23/23/23 16/16/16
f 16/16/16 23/23/23 24/24/24
f 16/16/16 24/24/24 3/3/3
f 3/3/3 24/24/24 17/17/17
f 11/11/11 13/13/13 25/25/25
f 13/13/13 15/15/15 25/25/25
f 26/26/26 11/11/11 25/25/25
f 26/26/26 25/25/25 27/27/27
f 28/28/28 26/26/26 27/27/27
f 29/29/29 28/28/28 27/27/27
f 25/25/25 29/29/29 27/27/27
f 29/29/29 2/2/2 28/28/28
f 1/1/1 2/2/2 29/29/29
f 15/15/15 1/1/1 29/29/29
f 25/25/25 15/15/15 29/29/29
f 2/2/2 5/5/5 28/28/28
f 5/5/5 7/7/7 28/28/28
f 28/28/28 7/7/7 26/26/26
f 7/7/7 9/9/9 26/26/26
f 9/9/9 11/11/11 26/26/26
f 30/30/30 32/32/32 31/31/31
f 31/31/31 32/32/32 33/33/33
f 31/31/31 33/33/33 34/34/34
f 34/34/34 33/33/33 35/35/35
f 34/34/34 35/35/35 36/36/36
f 36/36/36 35/35/35 37/37/37
f 36/36/36 37/37/37 38/38/38
f 38/38/38 37/37/37 39/39/39
f 38/38/38 39/39/39 40/40/40
f 40/40/40 39/39/39 41/41/41
f 40/40/40 41/41/41 42/42/42
f 42/42/42 41/41/41 43/43/43
f 42/42/42 43/43/43 44/44/44
f 44/44/44 43/43/43 45/45/45
f 44/44/44 45/45/45 30/30/30
f 30/30/30 45/45/45 32/32/32
f 32/32/32 46/46/46 33/33/33
f 33/33/33 46/46/46 47/47/47
f 33/33/33 47/47/47 35/35/35
f 35/35/35 47/47/47 48/48/48
f 35/35/35 48/48/48 37/37/37
f 37/37/37 48/48/48 49/49/49
f 37/37/37 49/49/49 39/39/39
f 39/39/39 49/49/49 50/50/50
f 39/39/39 50/50/50 41/41/41
f 41/41/41 50/50/50 51/51/51
f 41/41/41 51/51/51 43/43/43
f 43/43/43 51/51/51 52/52/52
f 43/43/43 52/52/52 45/45/45
f 45/45/45 52/52/52 53/53/53
f 45/45/45 53/53/53 32/32/32
f 32/32/32 53/53/53 46/46/46
f 40/40/40 42/42/42 54/54/54
f 42/42/42 44/44/44 54/54/54
f 55/55/55 40/40/40 54/54/54
f 55/55/55 54/54/54 56/56/56
f 57/57/57 55/55/55 56/56/56
f 58/58/58 57/57/57 56/56/56
f 54/54/54 58/58/58 56/56/56
f 58/58/58 31/31/31 57/57/57
f 30/30/30 31/31/31 58/58/58
f 44/44/44 30/30/30 58/58/58
f 54/54/54 44/44/44 58/58/58
f 31/31/31 34/34/34 57/57/57
f 34/34/34 36/36/36 57/57/57
f 57/57/57 36/36/36 55/55/55
f 36/36/36 38/38/38 55/55/55
f 38/38/38 40/40/40 55/55/55
f 59/59/59 61/61/61 60/60/60
f 60/60/60 61/61/61 62/62/62
f 60/60/60 62/62/62 63/63/63
f 63/63/63 62/62/62 64/64/64
f 63/63/63 64/64/64 65/65/65
f 65/65/65 64/64/64 66/66/66
f 65/65/65 66/66/66 67/67/67
f 67/67/67 66/66/66 68/68/68
f 67/67/67 68/68/68 69/69/69
f 69/69/69 68/68/68 70/70/70
f 69/69/69 70/70/70 71/71/71
f 71/71/71 70/70/70 72/72/72
f 71/71/71 72/72/72 73/73/73
f 73/73/73 72/72/72 74/74/74
f 73/73/73 74/74/74 59/59/59
f 59/59/59 74/74/74 61/61/61
f 61/61/61 75/75/75 62/62/62
f 62/62/62 75/75/75 76/76/76
f 62/62/62 76/76/76 64/64/64
f 64/64/64 76/76/76 77/77/77
f 64/64/64 77/77/77 66/66/66
f 66/66/66 77/77/77 78/78/78
f 66/66/66 78/78/78 68/68/68
f 68/68/68 78/78/78 79/79/79
f 68/68/68 79/79/79 70/70/70
f 70/70/70 79/79/79 80/80/80
f 70/70/70 80/80/80 72/72/72
f 72/72/72 80/80/80 81/81/81
f 72/72/72 81/81/81 74/74/74
f 74/74/74 81/81/81 82/82/82
f 74/74/74 82/82/82 61/61/61
f 61/61/61 82/82/82 75/75/75
f 69/69/69 71/71/71 83/83/83
f 71/71/71 73/73/73 83/83/83
f 84/84/84 69/69/69 83/83/83
f 84/84/84 83/83/83 85/85/85
f 86/86/86 84/84/84 85/85/85
f 87/87/87 86/86/86 85/85/85
f 83/83/83 87/87/87 85/85/85
f 87/87/87 60/60/60 86/86/86
f 59/59/59 60/60/60 87/87/87
f 73/73/73 59/59/59 87/87/87
f 83/83/83 73/73/73 87/87/87
f 60/60/60 63/63/63 86/86/86
f 63/63/63 65/65/65 86/86/86
f 86/86/86 65/65/65 84/84/84
f 65/65/65 67/67/67 84/84/84
f 67/67/67 69/69/69 84/84/84
