#Tree4_(24)_2818_26.obj

v 1.648995 -0.1087268 -0.2710432
v 0.9947551 1.197125 0.205472
v 0.9725463 0.9077535 -1.046141
v 1.11335 -0.007759798 -1.027272
v 0.8603941 1.998779 -0.2360934
v 0.4648585 1.998779 -1.114194
v 0.8710201 3.322641 -0.8530292
v 1.077955 3.250427 -0.3773522
v 0.2644564 3.499787 -1.126116
v -0.4900595 1.998779 -1.477913
v -0.4019081 3.677775 -0.9827648
v -1.32109 2.538194 -1.155862
v -0.7282794 3.75481 -0.3128651
v -1.69369 2.566373 -0.3302088
v -0.4807227 3.682956 -0.02716039
v -1.444986 1.998779 0.6419997
v 0.1530207 3.507116 0.225314
v -0.4900598 1.998779 1.00572
v 0.7959648 3.327577 0.05719982
v 0.4648549 1.998779 0.6419998
v 1.077955 3.250427 -0.3773522
v 0.8603941 1.998779 -0.2360934
v 1.207072 5.526218 -0.3408357
v 0.6444248 5.526218 -0.5738963
v 0.6444248 5.526218 -0.5738963
v 0.4113582 5.526218 -0.01124286
v 0.6444248 5.526218 -0.5738963
v 0.9740192 5.526218 0.2218108
v 1.207072 5.526218 -0.3408357
v 0.9740192 5.526218 0.2218108
v 0.9947551 1.197125 0.205472
v 0.7959015 0.6271882 1.412254
v 1.312921 -0.08299191 0.6160762
v 1.331272 -0.2933443 1.523448
v 0.9643121 -1.052223 2.854056
v 0.4113582 5.526218 -0.01124286
v 0.4113582 5.526218 -0.01124286
v 0.9740192 5.526218 0.2218108
v -0.3533579 1.089863 1.163906
v 0.5105639 -0.2495115 1.571657
v -0.3154337 -0.007759798 1.207775
v -1.437688 0.01500591 1.313032
v -1.155439 -0.6044034 1.360408
v -2.090554 -0.599919 2.243827
v -1.208844 0.769768 0.4236613
v -1.840532 1.998779 -0.236095
v -1.425901 1.307367 -0.412087
v -1.444986 1.998779 -1.114193
v -0.6717104 0.9077535 -1.046142
v 0.1186034 1.206413 -1.30878
v 0.2641689 0.2683377 -1.970745
v 0.8155913 -0.2463671 -1.928796
v -0.4572387 -0.1337112 -1.027271
v -0.06903486 -0.2463671 -1.928795
v -1.630361 0.07463427 -0.7411504
v -1.336921 -0.4881959 -0.969457
v -1.630361 0.07463427 -0.7411504
v 0.2641689 0.2683377 -1.970745
v -0.001975187 -0.8139682 -3.040455
v -0.001975187 -0.8139682 -3.040455
v 0.2641689 0.2683377 -1.970745
v -1.630361 0.07463427 -0.7411504
v -2.466259 -1.130942 -1.21601
v 2.12704 -0.2192227 -0.1883495
v 2.453197 0.3101302 0.2113376
v 0.9947551 1.197125 0.205472
v 3.15665 -0.826737 0.3388983
v 2.453197 0.3101302 0.2113376
v 2.089914 -0.1782409 0.4586747
v 1.312921 -0.08299191 0.6160762
v 3.15665 -0.826737 0.3388983
v -1.143343 -0.1337112 0.3631065
v -1.617383 -0.4927883 -0.4026587
v -1.630361 0.07463427 -0.7411504
v -2.466259 -1.130942 -1.21601
v -1.657251 -0.4339224 0.8776576
v -1.437688 0.01500591 1.313032
v -2.090554 -0.599919 2.243827
v -1.630361 0.07463427 -0.7411504
v -1.437688 0.01500591 1.313032
v 0.7959015 0.6271882 1.412254
v 0.9643121 -1.052223 2.854056
v -0.8967391 2.926876 -0.3255607
v -2.091599 4.022573 0.8340366
v -0.5626171 2.839557 -0.08052848
v -1.651236 4.286763 0.8074992
v -0.211787 3.16222 -0.04012113
v 0.01892993 3.308532 -0.4167119
v -1.753204 4.405365 0.3179957
v -0.2324747 3.463918 -0.7067467
v -0.2744866 3.301548 -1.000765
v -2.193566 4.141176 0.3445349
v -0.7497239 2.880481 -0.9743533
v -0.9401277 2.765478 -0.6139495
v -0.9401277 2.765478 -0.6139495
v -2.193566 4.141176 0.3445349
v -2.539771 5.52331 0.403962
v -2.475174 5.523309 0.7358146
v -2.833231 5.52331 0.4257452
v -1.753204 4.405365 0.3179957
v -2.091599 4.022573 0.8340366
v -2.475174 5.523309 0.7358146
v -2.768632 5.52331 0.7576032
v -2.833231 5.52331 0.4257452
v -0.805862 1.713094 -0.971558
v -1.940495 3.014723 -1.967193
v -1.081218 1.483486 -0.746255
v -2.036598 3.105563 -1.470271
v -1.238564 1.65237 -0.3272754
v -0.9392003 1.75097 0.01495305
v -1.568334 3.310784 -1.418388
v -0.6466311 2.019552 -0.1022561
v -0.3244016 1.91954 -0.1295051
v -1.472232 3.219944 -1.915312
v -0.1928646 1.695827 -0.7095917
v -0.4890452 1.613798 -1.000993
v -0.4890452 1.613798 -1.000993
v -1.472232 3.219944 -1.915312
v -2.014301 4.672457 -1.985742
v -2.346193 4.609434 -1.998887
v -1.987469 4.774529 -2.260436
v -1.568334 3.310784 -1.418388
v -1.940495 3.014723 -1.967193
v -2.346193 4.609434 -1.998887
v -2.319368 4.711502 -2.273577
v -1.987469 4.774529 -2.260436

vn 0.8089646 0.4752699 -0.3459694
vn 0.7888588 0.4740199 0.3911609
vn 0.8803371 0.3570758 -0.3122554
vn 0.9183687 0.3716308 -0.1359759
vn 0.91995 0.139459 0.3663923
vn 0.8408494 0.06812399 -0.536965
vn 0.8986031 -0.034691 -0.437389
vn 0.9171305 -0.229188 0.3261051
vn 0.4255622 0.2846749 -0.858986
vn 0.2873237 0.03371199 -0.9572401
vn -0.2141183 0.548427 -0.8083199
vn -0.2998126 0.2998459 -0.9056516
vn -0.7244306 0.6427877 -0.2490467
vn -0.8471074 0.4594558 -0.2670383
vn -0.7571325 0.490514 0.431447
vn -0.9002099 0.1787599 0.3970731
vn -0.3769071 0.1775949 0.9090661
vn -0.4200868 0.2419801 0.8746272
vn 0.3449615 -0.138798 0.9282978
vn 0.2881557 0.2325539 0.928916
vn 0.9171305 -0.229188 0.3261051
vn 0.91995 0.139459 0.3663923
vn 0.8338901 -0.3458401 0.4301417
vn -0.1135631 0.6795754 -0.7247626
vn -0.1135631 0.6795754 -0.7247626
vn -0.749082 0.2286319 0.6217745
vn -0.1135631 0.6795754 -0.7247626
vn 0.285489 -0.389785 0.8755362
vn 0.8338901 -0.3458401 0.4301417
vn 0.285489 -0.389785 0.8755362
vn 0.7888588 0.4740199 0.3911609
vn 0.2001925 0.360433 0.9110494
vn 0.3562701 0.4422792 0.8230801
vn 0.300663 0.6618493 0.6867003
vn -0.5316511 0.06659099 0.8443416
vn -0.749082 0.2286319 0.6217745
vn -0.749082 0.2286319 0.6217745
vn 0.285489 -0.389785 0.8755362
vn -0.5128316 0.049349 0.8570697
vn -0.5316511 0.06659099 0.8443416
vn -0.7924938 -0.3025329 -0.5295539
vn -0.5128316 0.049349 0.8570697
vn -0.5316511 0.06659099 0.8443416
vn -0.9684787 -0.191461 0.1593476
vn -0.949919 -0.1878229 0.2497528
vn -0.9169821 0.126915 -0.3782016
vn -0.7924938 -0.3025329 -0.5295539
vn -0.3682178 0.07395096 -0.9267939
vn -0.1798125 -0.251599 -0.9509813
vn 0.3435366 -0.101271 -0.9336631
vn 0.3435366 -0.101271 -0.9336631
vn 0.5801547 0.33168 -0.7439147
vn -0.2268782 0.05232403 -0.9725166
vn -0.07852504 -0.22901 -0.9702517
vn -0.7924938 -0.3025329 -0.5295539
vn -0.07852504 -0.22901 -0.9702517
vn -0.7924938 -0.3025329 -0.5295539
vn 0.3435366 -0.101271 -0.9336631
vn 0.5801547 0.33168 -0.7439147
vn 0.5801547 0.33168 -0.7439147
vn 0.3435366 -0.101271 -0.9336631
vn -0.7924938 -0.3025329 -0.5295539
vn -0.07852504 -0.22901 -0.9702517
vn 0.5764146 0.8161831 0.03989032
vn 0.7862969 0.5997311 0.1485256
vn 0.7888588 0.4740199 0.3911609
vn 0.300663 0.6618493 0.6867003
vn 0.7862969 0.5997311 0.1485256
vn 0.300663 0.6618493 0.6867003
vn 0.3562701 0.4422792 0.8230801
vn 0.300663 0.6618493 0.6867003
vn -0.9480943 0.1424 -0.284323
vn -0.9684787 -0.191461 0.1593476
vn -0.7924938 -0.3025329 -0.5295539
vn -0.07852504 -0.22901 -0.9702517
vn -0.9684787 -0.191461 0.1593476
vn -0.5128316 0.049349 0.8570697
vn -0.9684787 -0.191461 0.1593476
vn -0.7924938 -0.3025329 -0.5295539
vn -0.5128316 0.049349 0.8570697
vn 0.2001925 0.360433 0.9110494
vn -0.5316511 0.06659099 0.8443416
vn -0.49661 -0.8628667 0.09401923
vn -0.8101463 -0.5434508 0.2198276
vn -0.1588449 -0.750657 0.641313
vn 0.08896831 0.09143602 0.9918287
vn 0.3844818 -0.114192 0.9160426
vn 0.6546094 0.5856197 0.4780544
vn 0.7272322 0.6840867 -0.0562034
vn 0.5245452 0.835787 -0.1622111
vn 0.1225993 0.6189021 -0.7758412
vn -0.2512987 -0.155831 -0.9552831
vn -0.2443816 0.190956 -0.9506911
vn -0.5825694 -0.4627653 -0.6681776
vn -0.5825694 -0.4627653 -0.6681776
vn -0.2512987 -0.155831 -0.9552831
vn 0.8870952 0.370975 -0.2746628
vn -0.08953916 0.4915891 0.8662118
vn -0.1187539 -0.3125331 -0.9424546
vn 0.7272322 0.6840867 -0.0562034
vn -0.8101463 -0.5434508 0.2198276
vn -0.08953916 0.4915891 0.8662118
vn -0.7303911 0.1621339 0.663507
vn -0.1187539 -0.3125331 -0.9424546
vn 0.2376835 -0.6759275 -0.6975877
vn 0.07466552 -0.3177881 -0.9452174
vn -0.3638878 -0.8002949 -0.4765643
vn -0.9771158 -0.175644 -0.1199749
vn -0.89153 -0.4349001 0.1266342
vn -0.7221404 0.2376339 0.6496487
vn -0.257181 0.4337419 0.8635542
vn -0.1697308 0.6587548 0.7329622
vn 0.5347186 0.7206411 0.4413075
vn 0.9862744 0.1549622 -0.05700484
vn 0.8804242 0.4731117 0.03191498
vn 0.855045 -0.1000433 -0.5088118
vn 0.855045 -0.1000433 -0.5088118
vn 0.9862744 0.1549622 -0.05700484
vn 0.01522622 0.1483921 0.9888114
vn -0.946834 0.2770755 -0.1635071
vn 0.9991081 -0.03210646 0.02742776
vn -0.257181 0.4337419 0.8635542
vn 0.07466552 -0.3177881 -0.9452174
vn -0.946834 0.2770755 -0.1635071
vn -0.5611163 0.2076827 -0.8012593
vn 0.9991081 -0.03210646 0.02742776

vt 0.031284 0.347011
vt 0.020984 0.381175
vt 0.041808 0.368539
vt 0.038156 0.345992
vt 0.022767 0.396222
vt 0.043551 0.395754
vt 0.040676 0.434141
vt 0.022589 0.43594
vt 0.063863 0.43457
vt 0.062377 0.396271
vt 0.08282 0.43559
vt 0.081171 0.408111
vt 0.097694 0.436587
vt 0.099685 0.406826
vt 0.11265 0.437625
vt 0.113138 0.392958
vt 0.130207 0.439356
vt 0.130033 0.395127
vt 0.151732 0.438506
vt 0.149222 0.398956
vt 0.168296 0.437465
vt 0.167042 0.40218
vt 0.040283 0.493872
vt 0.067739 0.493081
vt 0.067739 0.493081
vt 0.105802 0.49288
vt 0.067739 0.493081
vt 0.136799 0.493597
vt 0.165266 0.494355
vt 0.136799 0.493597
vt 0.170675 0.386964
vt 0.1636 0.365878
vt 0.183222 0.380669
vt 0.18408 0.348927
vt 0.170297 0.316874
vt 0.105802 0.49288
vt 0.105802 0.49288
vt 0.136799 0.493597
vt 0.135855 0.374632
vt 0.155042 0.345231
vt 0.1452 0.350428
vt 0.126993 0.339549
vt 0.13892 0.333075
vt 0.130961 0.316928
vt 0.113345 0.364794
vt 0.099609 0.395614
vt 0.094717 0.377272
vt 0.081092 0.397959
vt 0.074217 0.368228
vt 0.058259 0.374886
vt 0.053965 0.342989
vt 0.045212 0.332207
vt 0.071062 0.345516
vt 0.059255 0.334089
vt 0.089782 0.34407
vt 0.08078 0.33354
vt 0.089782 0.34407
vt 0.053965 0.342989
vt 0.051269 0.314774
vt 0.051269 0.314774
vt 0.053965 0.342989
vt 0.089782 0.34407
vt 0.087128 0.316538
vt 0.026539 0.33414
vt 0.019936 0.344701
vt 0.020984 0.381175
vt 0.020573 0.316145
vt 0.019936 0.344701
vt 0.009072 0.337461
vt 0.004846 0.359642
vt 0.020573 0.316145
vt 0.110746 0.348253
vt 0.097859 0.335024
vt 0.089782 0.34407
vt 0.087128 0.316538
vt 0.11597 0.33502
vt 0.126993 0.339549
vt 0.130961 0.316928
vt 0.089782 0.34407
vt 0.126993 0.339549
vt 0.1636 0.365878
vt 0.170297 0.316874
vt 0.119006 0.395715
vt 0.122848 0.450455
vt 0.125395 0.393427
vt 0.13424 0.447913
vt 0.133183 0.393153
vt 0.139314 0.389513
vt 0.145356 0.448959
vt 0.145338 0.391871
vt 0.149266 0.388568
vt 0.157063 0.451213
vt 0.159426 0.389892
vt 0.164409 0.393544
vt 0.115407 0.392263
vt 0.111435 0.451993
vt 0.147113 0.49686
vt 0.134057 0.49686
vt 0.15605 0.49686
vt 0.145356 0.448959
vt 0.122848 0.450455
vt 0.134057 0.49686
vt 0.121501 0.49686
vt 0.111055 0.49686
vt 0.07355224 0.3760883
vt 0.07739423 0.4308283
vt 0.07994124 0.3738003
vt 0.08878624 0.4282863
vt 0.08772924 0.3735263
vt 0.09386023 0.3698863
vt 0.09990223 0.4293323
vt 0.09988423 0.3722443
vt 0.1038122 0.3689413
vt 0.1116092 0.4315863
vt 0.1139722 0.3702653
vt 0.1189552 0.3739173
vt 0.06995323 0.3726363
vt 0.06598124 0.4323663
vt 0.1016592 0.4772333
vt 0.08860324 0.4772333
vt 0.1105962 0.4772333
vt 0.09990223 0.4293323
vt 0.07739423 0.4308283
vt 0.08860324 0.4772333
vt 0.07604723 0.4772333
vt 0.06560124 0.4772333

g Tree4_(24)_2818_26
usemtl Tree4_(24)_2818_26
usemap Tree4_(24)_2818_26
f 1/1/1 3/3/3 2/2/2
f 1/1/1 4/4/4 3/3/3
f 3/3/3 5/5/5 2/2/2
f 3/3/3 6/6/6 5/5/5
f 5/5/5 6/6/6 7/7/7
f 5/5/5 7/7/7 8/8/8
f 6/6/6 9/9/9 7/7/7
f 6/6/6 10/10/10 9/9/9
f 10/10/10 11/11/11 9/9/9
f 10/10/10 12/12/12 11/11/11
f 12/12/12 13/13/13 11/11/11
f 12/12/12 14/14/14 13/13/13
f 14/14/14 15/15/15 13/13/13
f 14/14/14 16/16/16 15/15/15
f 16/16/16 17/17/17 15/15/15
f 16/16/16 18/18/18 17/17/17
f 18/18/18 19/19/19 17/17/17
f 18/18/18 20/20/20 19/19/19
f 20/20/20 21/21/21 19/19/19
f 20/20/20 22/22/22 21/21/21
f 8/8/8 7/7/7 23/23/23
f 7/7/7 24/24/24 23/23/23
f 7/7/7 9/9/9 24/24/24
f 9/9/9 11/11/11 25/25/25
f 11/11/11 13/13/13 26/26/26
f 11/11/11 26/26/26 27/27/27
f 17/17/17 19/19/19 28/28/28
f 19/19/19 21/21/21 29/29/29
f 19/19/19 29/29/29 30/30/30
f 31/31/31 22/22/22 20/20/20
f 20/20/20 32/32/32 31/31/31
f 33/33/33 31/31/31 32/32/32
f 33/33/33 32/32/32 34/34/34
f 34/34/34 32/32/32 35/35/35
f 13/13/13 15/15/15 36/36/36
f 15/15/15 38/38/38 37/37/37
f 15/15/15 17/17/17 38/38/38
f 39/39/39 40/40/40 32/32/32
f 39/39/39 41/41/41 40/40/40
f 41/41/41 39/39/39 42/42/42
f 41/41/41 42/42/42 43/43/43
f 43/43/43 42/42/42 44/44/44
f 39/39/39 32/32/32 20/20/20
f 39/39/39 20/20/20 18/18/18
f 39/39/39 18/18/18 16/16/16
f 39/39/39 16/16/16 45/45/45
f 45/45/45 16/16/16 46/46/46
f 45/45/45 46/46/46 47/47/47
f 47/47/47 46/46/46 48/48/48
f 47/47/47 48/48/48 49/49/49
f 49/49/49 48/48/48 10/10/10
f 49/49/49 10/10/10 50/50/50
f 50/50/50 10/10/10 6/6/6
f 50/50/50 6/6/6 3/3/3
f 50/50/50 3/3/3 51/51/51
f 49/49/49 50/50/50 51/51/51
f 3/3/3 52/52/52 51/51/51
f 3/3/3 4/4/4 52/52/52
f 53/53/53 49/49/49 51/51/51
f 53/53/53 51/51/51 54/54/54
f 47/47/47 49/49/49 55/55/55
f 49/49/49 53/53/53 56/56/56
f 49/49/49 56/56/56 57/57/57
f 10/10/10 48/48/48 12/12/12
f 48/48/48 14/14/14 12/12/12
f 48/48/48 46/46/46 14/14/14
f 46/46/46 16/16/16 14/14/14
f 58/58/58 52/52/52 59/59/59
f 54/54/54 61/61/61 60/60/60
f 62/62/62 56/56/56 63/63/63
f 1/1/1 65/65/65 64/64/64
f 1/1/1 66/66/66 65/65/65
f 64/64/64 65/65/65 67/67/67
f 2/2/2 69/69/69 68/68/68
f 2/2/2 70/70/70 69/69/69
f 68/68/68 69/69/69 71/71/71
f 72/72/72 74/74/74 73/73/73
f 72/72/72 45/45/45 74/74/74
f 73/73/73 74/74/74 75/75/75
f 45/45/45 72/72/72 76/76/76
f 45/45/45 76/76/76 77/77/77
f 77/77/77 76/76/76 78/78/78
f 45/45/45 47/47/47 79/79/79
f 39/39/39 45/45/45 80/80/80
f 81/81/81 40/40/40 82/82/82
f 83/83/83 85/85/85 84/84/84
f 85/85/85 86/86/86 84/84/84
f 85/85/85 87/87/87 86/86/86
f 87/87/87 88/88/88 86/86/86
f 88/88/88 89/89/89 86/86/86
f 88/88/88 90/90/90 89/89/89
f 90/90/90 91/91/91 89/89/89
f 91/91/91 92/92/92 89/89/89
f 91/91/91 93/93/93 92/92/92
f 93/93/93 94/94/94 92/92/92
f 95/95/95 83/83/83 84/84/84
f 95/95/95 84/84/84 96/96/96
f 86/86/86 89/89/89 97/97/97
f 86/86/86 97/97/97 98/98/98
f 89/89/89 99/99/99 97/97/97
f 100/100/100 92/92/92 99/99/99
f 101/101/101 86/86/86 102/102/102
f 84/84/84 102/102/102 103/103/103
f 96/96/96 84/84/84 103/103/103
f 96/96/96 103/103/103 104/104/104
f 105/105/105 107/107/107 106/106/106
f 107/107/107 108/108/108 106/106/106
f 107/107/107 109/109/109 108/108/108
f 109/109/109 110/110/110 108/108/108
f 110/110/110 111/111/111 108/108/108
f 110/110/110 112/112/112 111/111/111
f 112/112/112 113/113/113 111/111/111
f 113/113/113 114/114/114 111/111/111
f 113/113/113 115/115/115 114/114/114
f 115/115/115 116/116/116 114/114/114
f 117/117/117 105/105/105 106/106/106
f 117/117/117 106/106/106 118/118/118
f 108/108/108 111/111/111 119/119/119
f 108/108/108 119/119/119 120/120/120
f 111/111/111 121/121/121 119/119/119
f 122/122/122 114/114/114 121/121/121
f 123/123/123 108/108/108 124/124/124
f 106/106/106 124/124/124 125/125/125
f 118/118/118 106/106/106 125/125/125
f 118/118/118 125/125/125 126/126/126
