#Tree_conf2_(105)_3017_501.obj

v 0.1189075 -0.1466557 -0.4504029
v 0.05755666 1.159755 -0.1771431
v -0.1506858 1.159755 -0.1094807
v -0.4105746 -0.1466557 -0.2783663
v -0.1506857 1.159755 0.1094837
v -0.4105737 -0.1466557 0.2783635
v 0.05755831 1.159755 0.1771429
v 0.11891 -0.1466557 0.4504058
v 0.1862565 1.159755 -2.815994E-06
v 0.4461447 -0.1466557 -1.795475E-06
v 0.05755666 1.159755 -0.1771431
v 0.1189075 -0.1466557 -0.4504029
v -0.06863116 6.66993 0.05615482
v -0.06863164 6.66993 -0.05615617
v 0.03818598 6.66993 -0.09086373
v 0.03818598 6.66993 -0.09086373
v 0.1042024 6.66993 1.255008E-06
v 0.03818814 6.66993 0.09086666

vn 0.390725 0.2088854 -0.8964937
vn 0.4072218 0.08978422 -0.9089056
vn -0.7384285 0.1000239 -0.6668722
vn -0.7262607 0.2305968 -0.6475881
vn -0.8610665 0.1000239 0.4985576
vn -0.8451512 0.2305969 0.4822287
vn 0.2091093 0.08978421 0.9737619
vn 0.1955575 0.2088854 0.9581879
vn 0.9910317 0.08355004 0.1042859
vn 0.975396 0.1951094 0.1026406
vn 0.4072218 0.08978422 -0.9089056
vn 0.390725 0.2088854 -0.8964937
vn -0.8657798 0.01773245 0.500111
vn -0.742715 0.01773245 -0.6693729
vn 0.4073061 0.01597498 -0.913152
vn 0.4073061 0.01597498 -0.913152
vn 0.9943987 0.01488988 0.1046403
vn 0.2083079 0.01597498 0.9779328

vt 0.4238281 0.003742218
vt 0.4238281 0.02593994
vt 0.4316406 0.02593994
vt 0.4316406 0.003742218
vt 0.4394531 0.02593994
vt 0.4394531 0.003740311
vt 0.4472656 0.02593994
vt 0.4472656 0.003740311
vt 0.4550781 0.02593994
vt 0.4550781 0.003740311
vt 0.4628906 0.02593994
vt 0.4628906 0.003738403
vt 0.4394531 0.1196289
vt 0.4318848 0.1196289
vt 0.4240723 0.1196289
vt 0.4628906 0.1195679
vt 0.4550781 0.1196289
vt 0.4472656 0.1196289

g Tree_conf2_(105)_3017_501
usemtl Tree_conf2_(105)_3017_501
usemap Tree_conf2_(105)_3017_501
f 1/1/1 3/3/3 2/2/2
f 1/1/1 4/4/4 3/3/3
f 4/4/4 5/5/5 3/3/3
f 4/4/4 6/6/6 5/5/5
f 6/6/6 7/7/7 5/5/5
f 6/6/6 8/8/8 7/7/7
f 8/8/8 9/9/9 7/7/7
f 8/8/8 10/10/10 9/9/9
f 10/10/10 11/11/11 9/9/9
f 10/10/10 12/12/12 11/11/11
f 3/3/3 5/5/5 13/13/13
f 3/3/3 13/13/13 14/14/14
f 2/2/2 3/3/3 14/14/14
f 2/2/2 14/14/14 15/15/15
f 9/9/9 11/11/11 16/16/16
f 9/9/9 16/16/16 17/17/17
f 7/7/7 9/9/9 17/17/17
f 7/7/7 17/17/17 18/18/18
f 5/5/5 18/18/18 13/13/13
f 5/5/5 7/7/7 18/18/18
