#Tree_conf2_(154)_2816_735.obj

v 0.1189078 -0.1466557 -0.4504051
v 0.05755665 1.159755 -0.1771408
v -0.1506875 1.159755 -0.1094796
v -0.4105739 -0.1466557 -0.2783639
v -0.1506859 1.159755 0.1094816
v -0.4105729 -0.1466557 0.2783651
v 0.05755743 1.159755 0.1771421
v 0.118909 -0.1466557 0.450404
v 0.1862588 1.159755 2.032576E-06
v 0.446147 -0.1466557 1.237126E-06
v 0.05755665 1.159755 -0.1771408
v 0.1189078 -0.1466557 -0.4504051
v -0.06863188 6.66993 0.05615612
v -0.0686322 6.66993 -0.05615685
v 0.03818594 6.66993 -0.09086259
v 0.03818594 6.66993 -0.09086259
v 0.1042017 6.66993 4.906123E-07
v 0.03818737 6.66993 0.09086415

vn -0.5296837 0.2088854 -0.8220718
vn -0.5308726 0.08978422 -0.8426821
vn -0.9643314 0.1000239 0.2450716
vn -0.9415363 0.2305968 0.2456307
vn -0.06221551 0.1000239 0.993038
vn -0.06698707 0.2305969 0.9707408
vn 0.9264305 0.08978421 0.3656031
vn 0.9059564 0.2088854 0.3682522
vn 0.6360385 0.08355004 -0.7671209
vn 0.6260036 0.1951094 -0.7550178
vn -0.5308726 0.08978422 -0.8426821
vn -0.5296837 0.2088854 -0.8220718
vn -0.06353453 0.01773245 0.9978222
vn -0.9687885 0.01773245 0.2472538
vn -0.5343606 0.01597498 -0.8451056
vn -0.5343606 0.01597498 -0.8451056
vn 0.6381994 0.01488988 -0.7697271
vn 0.9294581 0.01597498 0.3685817

vt 0.4238281 0.003742218
vt 0.4238281 0.02593994
vt 0.4316406 0.02593994
vt 0.4316406 0.003742218
vt 0.4394531 0.02593994
vt 0.4394531 0.003740311
vt 0.4472656 0.02593994
vt 0.4472656 0.003740311
vt 0.4550781 0.02593994
vt 0.4550781 0.003740311
vt 0.4628906 0.02593994
vt 0.4628906 0.003738403
vt 0.4394531 0.1196289
vt 0.4318848 0.1196289
vt 0.4240723 0.1196289
vt 0.4628906 0.1195679
vt 0.4550781 0.1196289
vt 0.4472656 0.1196289

g Tree_conf2_(154)_2816_735
usemtl Tree_conf2_(154)_2816_735
usemap Tree_conf2_(154)_2816_735
f 1/1/1 3/3/3 2/2/2
f 1/1/1 4/4/4 3/3/3
f 4/4/4 5/5/5 3/3/3
f 4/4/4 6/6/6 5/5/5
f 6/6/6 7/7/7 5/5/5
f 6/6/6 8/8/8 7/7/7
f 8/8/8 9/9/9 7/7/7
f 8/8/8 10/10/10 9/9/9
f 10/10/10 11/11/11 9/9/9
f 10/10/10 12/12/12 11/11/11
f 3/3/3 5/5/5 13/13/13
f 3/3/3 13/13/13 14/14/14
f 2/2/2 3/3/3 14/14/14
f 2/2/2 14/14/14 15/15/15
f 9/9/9 11/11/11 16/16/16
f 9/9/9 16/16/16 17/17/17
f 7/7/7 9/9/9 17/17/17
f 7/7/7 17/17/17 18/18/18
f 5/5/5 18/18/18 13/13/13
f 5/5/5 7/7/7 18/18/18
