#Tree4_(24)_2818_25.obj

v -2.491712 6.129237 -0.4659448
v -3.228823 5.983608 -0.365606
v -2.327991 5.560323 -0.9431499
v -3.285009 5.371249 -0.8128753
v -3.65304 5.739669 0.2133039
v -3.835791 5.054531 -0.06125173
v -3.51587 5.540316 0.9316713
v -3.6577 4.795703 0.8714337
v -2.897662 5.502325 1.368682
v -2.855047 4.746378 1.438824
v -2.160555 5.647953 1.268344
v -1.898025 4.935453 1.30855
v -1.73633 5.891891 0.6894336
v -1.347236 5.252171 0.556924
v -1.873503 6.091246 -0.02893253
v -1.525334 5.511 -0.3757588
v -2.467369 6.30267 0.1721131
v -3.151068 6.167593 0.2651804
v -2.765711 6.271781 0.5914757
v -3.023834 5.982682 0.9315007
v -2.340128 6.117759 0.8384308
v 2.217855 7.354592 -2.494818
v 0.8755559 7.329135 -2.837819
v 2.611903 6.5694 -2.995753
v 0.7982528 6.534998 -3.459198
v -0.316277 7.316662 -2.131086
v -0.8120819 6.518145 -2.504296
v -0.6594706 7.324482 -0.7886125
v -1.275787 6.528714 -0.6904182
v 0.04699795 7.348016 0.4032021
v -0.3212383 6.560512 0.9198959
v 1.389318 7.37348 0.7462059
v 1.492413 6.594911 1.383343
v 2.581136 7.38595 0.03947429
v 3.102752 6.611767 0.4284436
v 2.924341 7.37813 -1.303001
v 3.566461 6.601199 -1.385438
v 2.839003 5.645878 -3.269423
v 0.7632499 5.606506 -3.799846
v -1.079795 5.587218 -2.706949
v -1.610515 5.599314 -0.6309394
v -0.5180113 5.635708 1.212088
v 1.557743 5.675082 1.742513
v 3.400792 5.69437 0.6496151
v 3.931503 5.682274 -1.426397
v 1.55292 7.72575 -0.3300935
v 0.4071847 7.704019 -0.6228649
v 1.125377 7.781335 -1.050118
v 0.7001219 7.697345 -1.76874
v 1.845849 7.719076 -1.475968
v 0.4598807 6.511011 -2.618054
v -0.5894067 6.526672 -1.660244
v 0.1699552 5.761833 -3.293454
v -1.247789 5.782992 -1.999312
v -0.6596592 6.420261 -0.2451825
v -1.342708 5.639215 -0.0873607
v 0.2902839 6.254119 0.7982063
v -0.0591939 5.414735 1.322409
v 1.703949 6.125566 0.8587217
v 1.850871 5.241036 1.404174
v 2.753247 6.109906 -0.09909257
v 3.268627 5.219882 0.1100298
v 2.823493 6.216312 -1.514151
v 3.363544 5.363655 -1.801925
v 1.873549 6.382455 -2.55754
v 2.080028 5.588139 -3.211692
v -0.1083931 4.862029 -3.912852
v -1.853919 4.888076 -2.319512
v -1.970766 4.711063 0.03447739
v -0.3905183 4.434681 1.770181
v 1.961162 4.220828 1.87085
v 3.706694 4.194779 0.2775039
v 3.823541 4.371792 -2.076484
v 2.243294 4.648178 -3.812188
v 1.967903 6.614914 -0.8133785
v 1.07228 6.628282 0.004165638
v 1.121017 6.764997 -0.844134
v 0.2614437 6.770093 -0.8864233
v 1.15706 6.756725 -1.703963
v -1.404488 4.948886 -2.365072
v -1.804186 4.708665 -2.802702
v -1.031503 4.433385 -2.283358
v -1.550447 4.121498 -2.851553
v -2.422604 4.545877 -2.809353
v -2.353364 3.910143 -2.860189
v -2.897481 4.555882 -2.381128
v -2.969918 3.923131 -2.304208
v -2.950641 4.732815 -1.768879
v -3.038935 4.152854 -1.509294
v -2.550944 4.973035 -1.331251
v -2.519991 4.464743 -0.9410972
v -1.932524 5.135823 -1.324596
v -1.717074 4.676098 -0.9324608
v -1.457649 5.125819 -1.752825
v -1.10052 4.663109 -1.488445
v -1.842203 5.217912 -2.146827
v -2.212943 4.995097 -2.55275
v -2.275556 5.217892 -2.184449
v -2.653413 5.004375 -2.155546
v -2.282673 5.22719 -1.749625

vn 0.3009862 0.7784641 -0.5508185
vn -0.3153898 0.6549021 -0.6867551
vn 0.4112173 0.5973637 -0.688518
vn -0.2851696 0.4577628 -0.8420995
vn -0.8227333 0.4479261 -0.3499601
vn -0.8583689 0.223919 -0.4615876
vn -0.9238478 0.278779 0.2622738
vn -0.9726088 0.03281599 0.2301203
vn -0.5595025 0.2465458 0.7913104
vn -0.5609689 -0.003602002 0.8278291
vn 0.05687436 0.3701069 0.9272466
vn 0.1354173 0.135999 0.9814104
vn 0.5642169 0.5770843 0.5904516
vn 0.7086173 0.3698429 0.6008974
vn 0.6653315 0.7462302 -0.02178253
vn 0.8228567 0.560946 -0.09080961
vn 0.05893822 0.9965098 -0.05911461
vn -0.4951399 0.8641002 -0.09037305
vn -0.238459 0.9454778 0.2218308
vn -0.495323 0.7337341 0.4650694
vn 0.05875485 0.8661441 0.4963288
vn 0.8107557 0.5128449 -0.2822505
vn 0.382603 0.737739 -0.5561979
vn 0.8616958 0.2558199 -0.4382197
vn 0.3313031 0.5344177 -0.7775834
vn -0.1312304 0.8987413 -0.4183809
vn -0.30523 0.7338651 -0.606858
vn -0.4297481 0.9015374 0.05046751
vn -0.6750309 0.7373294 -0.0260506
vn -0.3380817 0.7444899 0.5757044
vn -0.5614759 0.5427799 0.6246079
vn 0.09007183 0.5195948 0.8496519
vn -0.03108287 0.2641829 0.9639717
vn 0.6039052 0.3585939 0.7118349
vn 0.6054515 0.064735 0.7932453
vn 0.9024227 0.3557971 0.2429854
vn 0.9752516 0.06127099 0.2124389
vn 0.8493521 0.05827697 -0.5245997
vn 0.2760588 0.359409 -0.8914129
vn -0.4119603 0.5749891 -0.7068779
vn -0.8116724 0.5787333 -0.0790931
vn -0.6889319 0.3684478 0.6241947
vn -0.1156382 0.067316 0.9910077
vn 0.5723814 -0.1482641 0.8064722
vn 0.9720929 -0.152008 0.1786871
vn 0.4055472 0.8233867 0.3969458
vn 0.1486507 0.9434429 0.2963419
vn 0.3437811 0.9144735 0.2134309
vn 0.2662741 0.9636868 0.02014506
vn 0.5231699 0.8436309 0.1207488
vn 0.314549 0.8238653 -0.4714922
vn -0.1711565 0.959092 -0.2254952
vn 0.2233426 0.6650369 -0.7126318
vn -0.3750201 0.8316296 -0.4095755
vn -0.3964051 0.8739552 0.2811856
vn -0.6525153 0.7267453 0.2146277
vn -0.2292509 0.618327 0.7517418
vn -0.4465891 0.4118249 0.794329
vn 0.2323912 0.34195 0.9105298
vn 0.1221289 0.07134299 0.9899468
vn 0.7180971 0.206723 0.6645316
vn 0.7204918 -0.09525002 0.6868909
vn 0.9433455 0.29186 0.1578509
vn 0.9979868 0.009635 0.06268647
vn 0.7761902 0.5474889 -0.3127056
vn 0.7920607 0.324556 -0.5170139
vn 0.14661 0.5162241 -0.8438118
vn -0.4984358 0.6958141 -0.5171117
vn -0.7975807 0.5827472 0.1557911
vn -0.5755892 0.2432561 0.7807199
vn 0.0374999 -0.123789 0.9915997
vn 0.6825467 -0.303379 0.6648994
vn 0.9816911 -0.190312 -0.008004457
vn 0.7596985 0.1491791 -0.6329327
vn 0.5834453 0.7373568 0.3404357
vn 0.3386841 0.7851081 0.5185542
vn 0.402007 0.8568879 0.3226974
vn 0.201466 0.9356971 0.2896244
vn 0.4462267 0.8879461 0.1115059
vn 0.7646745 0.6109444 -0.2049873
vn 0.5392866 0.3693524 -0.7568017
vn 0.9016518 0.4137206 -0.1259337
vn 0.6470059 0.1407688 -0.7493781
vn -0.04214191 0.2056359 -0.9777209
vn -0.00989446 -0.04420039 -0.9989737
vn -0.6390149 0.2156964 -0.7383326
vn -0.6842472 -0.03283307 -0.7285106
vn -0.9016942 0.3936419 -0.1788676
vn -0.9810239 0.1682102 -0.09642318
vn -0.6763055 0.6352329 0.3729476
vn -0.7263781 0.4411621 0.5270207
vn -0.09487732 0.7989506 0.5938656
vn -0.06947647 0.6261312 0.7766162
vn 0.5019956 0.7888891 0.3544777
vn 0.6048752 0.6147642 0.5061532
vn 0.2708853 0.9311942 -0.2439232
vn -0.01196495 0.7211424 -0.6926836
vn -0.126388 0.9266384 -0.3540726
vn -0.5021777 0.764573 -0.4040368
vn -0.2193283 0.9746255 0.04472359

vt 0.36145 0.484613
vt 0.346198 0.479429
vt 0.360428 0.498301
vt 0.335797 0.487749
vt 0.33965 0.463845
vt 0.325962 0.462823
vt 0.344834 0.448592
vt 0.336515 0.438192
vt 0.360419 0.442044
vt 0.361441 0.428357
vt 0.375671 0.447229
vt 0.386072 0.438909
vt 0.382219 0.462813
vt 0.395907 0.463835
vt 0.377035 0.478066
vt 0.385355 0.488466
vt 0.365422 0.472733
vt 0.351531 0.467816
vt 0.360935 0.463329
vt 0.356448 0.453925
vt 0.370339 0.458842
vt 0.447169 0.424388
vt 0.425817 0.415571
vt 0.447271 0.445814
vt 0.410806 0.430777
vt 0.41711 0.394335
vt 0.395684 0.394437
vt 0.425927 0.372983
vt 0.410721 0.357972
vt 0.447163 0.364275
vt 0.447061 0.34285
vt 0.468515 0.373093
vt 0.483526 0.357887
vt 0.477222 0.394329
vt 0.498648 0.394227
vt 0.468405 0.415681
vt 0.483611 0.430692
vt 0.447111 0.469179
vt 0.394204 0.447221
vt 0.372319 0.394277
vt 0.394277 0.34137
vt 0.447221 0.319484
vt 0.500128 0.341442
vt 0.522014 0.394387
vt 0.500055 0.447293
vt 0.461012 0.388517
vt 0.441351 0.380485
vt 0.447166 0.394332
vt 0.43332 0.400146
vt 0.45298 0.408178
vt 0.447169 0.424388
vt 0.425817 0.415571
vt 0.447271 0.445814
vt 0.410806 0.430777
vt 0.41711 0.394335
vt 0.395684 0.394437
vt 0.425927 0.372983
vt 0.410721 0.357972
vt 0.447163 0.364275
vt 0.447061 0.34285
vt 0.468515 0.373093
vt 0.483526 0.357887
vt 0.477222 0.394329
vt 0.498648 0.394227
vt 0.468405 0.415681
vt 0.483611 0.430692
vt 0.447111 0.469179
vt 0.394204 0.447221
vt 0.372319 0.394277
vt 0.394277 0.34137
vt 0.447221 0.319484
vt 0.500128 0.341442
vt 0.522014 0.394387
vt 0.500055 0.447293
vt 0.461012 0.388517
vt 0.441351 0.380485
vt 0.447166 0.394332
vt 0.43332 0.400146
vt 0.45298 0.408178
vt 0.36145 0.484613
vt 0.346198 0.479429
vt 0.360428 0.498301
vt 0.335797 0.487749
vt 0.33965 0.463845
vt 0.325962 0.462823
vt 0.344834 0.448592
vt 0.336515 0.438192
vt 0.360419 0.442044
vt 0.361441 0.428357
vt 0.375671 0.447229
vt 0.386072 0.438909
vt 0.382219 0.462813
vt 0.395907 0.463835
vt 0.377035 0.478066
vt 0.385355 0.488466
vt 0.365422 0.472733
vt 0.351531 0.467816
vt 0.360935 0.463329
vt 0.356448 0.453925
vt 0.370339 0.458842

g Tree4_(24)_2818_25
usemtl Tree4_(24)_2818_25
usemap Tree4_(24)_2818_25
f 1/1/1 3/3/3 2/2/2
f 2/2/2 3/3/3 4/4/4
f 2/2/2 4/4/4 5/5/5
f 5/5/5 4/4/4 6/6/6
f 5/5/5 6/6/6 7/7/7
f 7/7/7 6/6/6 8/8/8
f 7/7/7 8/8/8 9/9/9
f 9/9/9 8/8/8 10/10/10
f 9/9/9 10/10/10 11/11/11
f 11/11/11 10/10/10 12/12/12
f 11/11/11 12/12/12 13/13/13
f 13/13/13 12/12/12 14/14/14
f 13/13/13 14/14/14 15/15/15
f 15/15/15 14/14/14 16/16/16
f 15/15/15 16/16/16 1/1/1
f 1/1/1 16/16/16 3/3/3
f 15/15/15 1/1/1 17/17/17
f 1/1/1 2/2/2 17/17/17
f 17/17/17 2/2/2 18/18/18
f 2/2/2 5/5/5 18/18/18
f 5/5/5 7/7/7 18/18/18
f 17/17/17 18/18/18 19/19/19
f 18/18/18 20/20/20 19/19/19
f 18/18/18 7/7/7 20/20/20
f 7/7/7 9/9/9 20/20/20
f 9/9/9 11/11/11 20/20/20
f 20/20/20 21/21/21 19/19/19
f 21/21/21 17/17/17 19/19/19
f 20/20/20 11/11/11 21/21/21
f 11/11/11 13/13/13 21/21/21
f 13/13/13 15/15/15 21/21/21
f 21/21/21 15/15/15 17/17/17
f 22/22/22 24/24/24 23/23/23
f 23/23/23 24/24/24 25/25/25
f 23/23/23 25/25/25 26/26/26
f 26/26/26 25/25/25 27/27/27
f 26/26/26 27/27/27 28/28/28
f 28/28/28 27/27/27 29/29/29
f 28/28/28 29/29/29 30/30/30
f 30/30/30 29/29/29 31/31/31
f 30/30/30 31/31/31 32/32/32
f 32/32/32 31/31/31 33/33/33
f 32/32/32 33/33/33 34/34/34
f 34/34/34 33/33/33 35/35/35
f 34/34/34 35/35/35 36/36/36
f 36/36/36 35/35/35 37/37/37
f 36/36/36 37/37/37 22/22/22
f 22/22/22 37/37/37 24/24/24
f 24/24/24 38/38/38 25/25/25
f 25/25/25 38/38/38 39/39/39
f 25/25/25 39/39/39 27/27/27
f 27/27/27 39/39/39 40/40/40
f 27/27/27 40/40/40 29/29/29
f 29/29/29 40/40/40 41/41/41
f 29/29/29 41/41/41 31/31/31
f 31/31/31 41/41/41 42/42/42
f 31/31/31 42/42/42 33/33/33
f 33/33/33 42/42/42 43/43/43
f 33/33/33 43/43/43 35/35/35
f 35/35/35 43/43/43 44/44/44
f 35/35/35 44/44/44 37/37/37
f 37/37/37 44/44/44 45/45/45
f 37/37/37 45/45/45 24/24/24
f 24/24/24 45/45/45 38/38/38
f 32/32/32 34/34/34 46/46/46
f 34/34/34 36/36/36 46/46/46
f 47/47/47 32/32/32 46/46/46
f 47/47/47 46/46/46 48/48/48
f 49/49/49 47/47/47 48/48/48
f 50/50/50 49/49/49 48/48/48
f 46/46/46 50/50/50 48/48/48
f 50/50/50 23/23/23 49/49/49
f 22/22/22 23/23/23 50/50/50
f 36/36/36 22/22/22 50/50/50
f 46/46/46 36/36/36 50/50/50
f 23/23/23 26/26/26 49/49/49
f 26/26/26 28/28/28 49/49/49
f 49/49/49 28/28/28 47/47/47
f 28/28/28 30/30/30 47/47/47
f 30/30/30 32/32/32 47/47/47
f 51/51/51 53/53/53 52/52/52
f 52/52/52 53/53/53 54/54/54
f 52/52/52 54/54/54 55/55/55
f 55/55/55 54/54/54 56/56/56
f 55/55/55 56/56/56 57/57/57
f 57/57/57 56/56/56 58/58/58
f 57/57/57 58/58/58 59/59/59
f 59/59/59 58/58/58 60/60/60
f 59/59/59 60/60/60 61/61/61
f 61/61/61 60/60/60 62/62/62
f 61/61/61 62/62/62 63/63/63
f 63/63/63 62/62/62 64/64/64
f 63/63/63 64/64/64 65/65/65
f 65/65/65 64/64/64 66/66/66
f 65/65/65 66/66/66 51/51/51
f 51/51/51 66/66/66 53/53/53
f 53/53/53 67/67/67 54/54/54
f 54/54/54 67/67/67 68/68/68
f 54/54/54 68/68/68 56/56/56
f 56/56/56 68/68/68 69/69/69
f 56/56/56 69/69/69 58/58/58
f 58/58/58 69/69/69 70/70/70
f 58/58/58 70/70/70 60/60/60
f 60/60/60 70/70/70 71/71/71
f 60/60/60 71/71/71 62/62/62
f 62/62/62 71/71/71 72/72/72
f 62/62/62 72/72/72 64/64/64
f 64/64/64 72/72/72 73/73/73
f 64/64/64 73/73/73 66/66/66
f 66/66/66 73/73/73 74/74/74
f 66/66/66 74/74/74 53/53/53
f 53/53/53 74/74/74 67/67/67
f 61/61/61 63/63/63 75/75/75
f 63/63/63 65/65/65 75/75/75
f 76/76/76 61/61/61 75/75/75
f 76/76/76 75/75/75 77/77/77
f 78/78/78 76/76/76 77/77/77
f 79/79/79 78/78/78 77/77/77
f 75/75/75 79/79/79 77/77/77
f 79/79/79 52/52/52 78/78/78
f 51/51/51 52/52/52 79/79/79
f 65/65/65 51/51/51 79/79/79
f 75/75/75 65/65/65 79/79/79
f 52/52/52 55/55/55 78/78/78
f 55/55/55 57/57/57 78/78/78
f 78/78/78 57/57/57 76/76/76
f 57/57/57 59/59/59 76/76/76
f 59/59/59 61/61/61 76/76/76
f 80/80/80 82/82/82 81/81/81
f 81/81/81 82/82/82 83/83/83
f 81/81/81 83/83/83 84/84/84
f 84/84/84 83/83/83 85/85/85
f 84/84/84 85/85/85 86/86/86
f 86/86/86 85/85/85 87/87/87
f 86/86/86 87/87/87 88/88/88
f 88/88/88 87/87/87 89/89/89
f 88/88/88 89/89/89 90/90/90
f 90/90/90 89/89/89 91/91/91
f 90/90/90 91/91/91 92/92/92
f 92/92/92 91/91/91 93/93/93
f 92/92/92 93/93/93 94/94/94
f 94/94/94 93/93/93 95/95/95
f 94/94/94 95/95/95 80/80/80
f 80/80/80 95/95/95 82/82/82
f 94/94/94 80/80/80 96/96/96
f 80/80/80 81/81/81 96/96/96
f 96/96/96 81/81/81 97/97/97
f 81/81/81 84/84/84 97/97/97
f 84/84/84 86/86/86 97/97/97
f 96/96/96 97/97/97 98/98/98
f 97/97/97 99/99/99 98/98/98
f 97/97/97 86/86/86 99/99/99
f 86/86/86 88/88/88 99/99/99
f 88/88/88 90/90/90 99/99/99
f 99/99/99 100/100/100 98/98/98
f 100/100/100 96/96/96 98/98/98
f 99/99/99 90/90/90 100/100/100
f 90/90/90 92/92/92 100/100/100
f 92/92/92 94/94/94 100/100/100
f 100/100/100 94/94/94 96/96/96
