#Tree_conf1_(5)_1521_158.obj

v 0.1324652 -0.04437619 0.02974014
v 0.05209769 0.3509291 0.01169669
v 0.03219806 0.3509291 -0.04954789
v 0.08186918 -0.04437619 -0.1259818
v -0.03219787 0.3509291 -0.04954835
v -0.08186841 -0.04437619 -0.1259818
v -0.05209747 0.3509291 0.01169679
v -0.1324651 -0.04437619 0.0297404
v 9.232887E-07 0.3509291 0.04954806
v -3.688689E-07 -0.04437619 0.1259821
v 0.05209769 0.3509291 0.01169669
v 0.1324652 -0.04437619 0.02974014
v -0.01651678 2.018247 -0.02541558
v 0.01651664 2.018247 -0.02541594
v 0.02672416 2.018247 0.00600001
v 0.02672416 2.018247 0.00600001
v -9.474669E-07 2.018247 0.02541582
v -0.02672333 2.018247 0.00599964

vn 0.9130555 0.2032691 0.3535695
vn 0.9253617 0.0871924 0.3689216
vn 0.635592 0.09713165 -0.7658907
vn 0.6176977 0.224459 -0.7537029
vn -0.5342222 0.09713172 -0.8397454
vn -0.518002 0.2244591 -0.8254043
vn -0.9644121 0.08719234 0.2496134
vn -0.950273 0.2032692 0.2359299
vn -0.06280084 0.08113934 0.9947226
vn -0.06186281 0.1898379 0.9798648
vn 0.9253617 0.0871924 0.3689216
vn 0.9130555 0.2032691 0.3535695
vn -0.5358441 0.0172353 -0.8441412
vn 0.6377535 0.01723532 -0.7700479
vn 0.9293848 0.01552719 0.3687855
vn 0.9293848 0.01552719 0.3687855
vn -0.06300199 0.01447244 0.9979087
vn -0.968386 0.01552706 0.248973

vt 0.4238281 0.003742218
vt 0.4238281 0.02593994
vt 0.4316406 0.02593994
vt 0.4316406 0.003742218
vt 0.4394531 0.02593994
vt 0.4394531 0.003740311
vt 0.4472656 0.02593994
vt 0.4472656 0.003740311
vt 0.4550781 0.02593994
vt 0.4550781 0.003740311
vt 0.4628906 0.02593994
vt 0.4628906 0.003738403
vt 0.4394531 0.1196289
vt 0.4318848 0.1196289
vt 0.4240723 0.1196289
vt 0.4628906 0.1195679
vt 0.4550781 0.1196289
vt 0.4472656 0.1196289

g Tree_conf1_(5)_1521_158
usemtl Tree_conf1_(5)_1521_158
usemap Tree_conf1_(5)_1521_158
f 1/1/1 3/3/3 2/2/2
f 1/1/1 4/4/4 3/3/3
f 4/4/4 5/5/5 3/3/3
f 4/4/4 6/6/6 5/5/5
f 6/6/6 7/7/7 5/5/5
f 6/6/6 8/8/8 7/7/7
f 8/8/8 9/9/9 7/7/7
f 8/8/8 10/10/10 9/9/9
f 10/10/10 11/11/11 9/9/9
f 10/10/10 12/12/12 11/11/11
f 3/3/3 5/5/5 13/13/13
f 3/3/3 13/13/13 14/14/14
f 2/2/2 3/3/3 14/14/14
f 2/2/2 14/14/14 15/15/15
f 9/9/9 11/11/11 16/16/16
f 9/9/9 16/16/16 17/17/17
f 7/7/7 9/9/9 17/17/17
f 7/7/7 17/17/17 18/18/18
f 5/5/5 18/18/18 13/13/13
f 5/5/5 7/7/7 18/18/18
