#Tree_conf1_806_218.obj

v 0.1324654 -0.04437639 0.02974038
v 0.05209832 0.3509289 0.01169687
v 0.03219851 0.3509289 -0.04954804
v 0.08186811 -0.04437639 -0.125982
v -0.03219845 0.3509289 -0.04954819
v -0.08186806 -0.04437639 -0.125982
v -0.05209826 0.3509289 0.01169681
v -0.1324654 -0.04437639 0.02974026
v 1.660784E-08 0.3509289 0.04954829
v -5.411303E-08 -0.04437639 0.125982
v 0.05209832 0.3509289 0.01169687
v 0.1324654 -0.04437639 0.02974038
v -0.0165162 2.018247 -0.02541565
v 0.01651593 2.018247 -0.02541571
v 0.02672364 2.018247 0.005999834
v 0.02672364 2.018247 0.005999834
v 6.796303E-09 2.018247 0.02541568
v -0.02672363 2.018247 0.005999796

vn 0.819701 0.203269 -0.5355111
vn 0.8393489 0.08719235 -0.5365547
vn -0.251491 0.0971316 -0.9629733
vn -0.2520262 0.2244588 -0.9413294
vn -0.9937082 0.09713166 -0.05576122
vn -0.972599 0.224459 -0.06057394
vn -0.359664 0.08719229 0.9289992
vn -0.3625339 0.203269 0.9095335
vn 0.7714248 0.0811393 0.631126
vn 0.7599024 0.1898378 0.6216991
vn 0.8393489 0.08719235 -0.5365547
vn 0.819701 0.203269 -0.5355111
vn -0.998225 0.01723529 -0.05700731
vn -0.2536075 0.01723531 -0.9671536
vn 0.8415846 0.01552718 -0.5399022
vn 0.8415846 0.01552718 -0.5399022
vn 0.7738957 0.01447243 0.6331475
vn -0.3625018 0.01552705 0.9318538

vt 0.4238281 0.003742218
vt 0.4238281 0.02593994
vt 0.4316406 0.02593994
vt 0.4316406 0.003742218
vt 0.4394531 0.02593994
vt 0.4394531 0.003740311
vt 0.4472656 0.02593994
vt 0.4472656 0.003740311
vt 0.4550781 0.02593994
vt 0.4550781 0.003740311
vt 0.4628906 0.02593994
vt 0.4628906 0.003738403
vt 0.4394531 0.1196289
vt 0.4318848 0.1196289
vt 0.4240723 0.1196289
vt 0.4628906 0.1195679
vt 0.4550781 0.1196289
vt 0.4472656 0.1196289

g Tree_conf1_806_218
usemtl Tree_conf1_806_218
usemap Tree_conf1_806_218
f 1/1/1 3/3/3 2/2/2
f 1/1/1 4/4/4 3/3/3
f 4/4/4 5/5/5 3/3/3
f 4/4/4 6/6/6 5/5/5
f 6/6/6 7/7/7 5/5/5
f 6/6/6 8/8/8 7/7/7
f 8/8/8 9/9/9 7/7/7
f 8/8/8 10/10/10 9/9/9
f 10/10/10 11/11/11 9/9/9
f 10/10/10 12/12/12 11/11/11
f 3/3/3 5/5/5 13/13/13
f 3/3/3 13/13/13 14/14/14
f 2/2/2 3/3/3 14/14/14
f 2/2/2 14/14/14 15/15/15
f 9/9/9 11/11/11 16/16/16
f 9/9/9 16/16/16 17/17/17
f 7/7/7 9/9/9 17/17/17
f 7/7/7 17/17/17 18/18/18
f 5/5/5 18/18/18 13/13/13
f 5/5/5 7/7/7 18/18/18
