#Tree_conf2_(20)_1112_351.obj

v 0.1189079 -0.146656 -0.450401
v 0.05755636 1.159754 -0.1771397
v -0.1506852 1.159754 -0.1094804
v -0.4105749 -0.146656 -0.2783617
v -0.150687 1.159754 0.1094809
v -0.4105739 -0.146656 0.2783687
v 0.05755683 1.159754 0.1771398
v 0.1189079 -0.146656 0.4504082
v 0.186259 1.159754 -6.624515E-07
v 0.4461454 -0.146656 -5.914388E-08
v 0.05755636 1.159754 -0.1771397
v 0.1189079 -0.146656 -0.450401
v -0.06862981 6.66993 0.0561567
v -0.06863013 6.66993 -0.05615834
v 0.0381871 6.66993 -0.09086191
v 0.0381871 6.66993 -0.09086191
v 0.1042029 6.66993 4.438677E-07
v 0.03818686 6.66993 0.09086704

vn 0.2882631 0.2088854 -0.9344898
vn 0.3032721 0.08978422 -0.9486648
vn -0.8082216 0.1000239 -0.5803216
vn -0.7939782 0.2305968 -0.5625154
vn -0.8000661 0.1000239 0.5915146
vn -0.7860719 0.2305969 0.5735121
vn 0.316447 0.08978421 0.9443517
vn 0.3012423 0.2088854 0.930387
vn 0.9964795 0.08355004 -0.00693526
vn 0.9807578 0.1951094 -0.006825841
vn 0.3032721 0.08978422 -0.9486648
vn 0.2882631 0.2088854 -0.9344898
vn -0.8045765 0.01773245 0.5935843
vn -0.8127603 0.01773245 -0.5823284
vn 0.3028821 0.01597498 -0.9528942
vn 0.3028821 0.01597498 -0.9528942
vn 0.9998649 0.01488988 -0.006958822
vn 0.316116 0.01597498 0.948586

vt 0.4238281 0.003742218
vt 0.4238281 0.02593994
vt 0.4316406 0.02593994
vt 0.4316406 0.003742218
vt 0.4394531 0.02593994
vt 0.4394531 0.003740311
vt 0.4472656 0.02593994
vt 0.4472656 0.003740311
vt 0.4550781 0.02593994
vt 0.4550781 0.003740311
vt 0.4628906 0.02593994
vt 0.4628906 0.003738403
vt 0.4394531 0.1196289
vt 0.4318848 0.1196289
vt 0.4240723 0.1196289
vt 0.4628906 0.1195679
vt 0.4550781 0.1196289
vt 0.4472656 0.1196289

g Tree_conf2_(20)_1112_351
usemtl Tree_conf2_(20)_1112_351
usemap Tree_conf2_(20)_1112_351
f 1/1/1 3/3/3 2/2/2
f 1/1/1 4/4/4 3/3/3
f 4/4/4 5/5/5 3/3/3
f 4/4/4 6/6/6 5/5/5
f 6/6/6 7/7/7 5/5/5
f 6/6/6 8/8/8 7/7/7
f 8/8/8 9/9/9 7/7/7
f 8/8/8 10/10/10 9/9/9
f 10/10/10 11/11/11 9/9/9
f 10/10/10 12/12/12 11/11/11
f 3/3/3 5/5/5 13/13/13
f 3/3/3 13/13/13 14/14/14
f 2/2/2 3/3/3 14/14/14
f 2/2/2 14/14/14 15/15/15
f 9/9/9 11/11/11 16/16/16
f 9/9/9 16/16/16 17/17/17
f 7/7/7 9/9/9 17/17/17
f 7/7/7 17/17/17 18/18/18
f 5/5/5 18/18/18 13/13/13
f 5/5/5 7/7/7 18/18/18
