#Tree1_(5)_1213_268.obj

v -0.4416087 6.484625 -1.577852
v -1.397586 6.484625 -1.181877
v -0.4416098 5.622716 -2.052585
v -1.733276 5.622716 -1.517561
v -1.793569 6.484625 -0.2258881
v -2.268298 5.622716 -0.225893
v -1.397591 6.484625 0.7300916
v -1.733276 5.622716 1.065776
v -0.441606 6.484625 1.126067
v -0.4416064 5.622716 1.600809
v 0.514379 6.484625 0.7300878
v 0.8500641 5.622716 1.065779
v 0.9103572 6.484625 -0.2258946
v 1.385091 5.622716 -0.2258957
v 0.5143759 6.484625 -1.181877
v 0.8500616 5.622716 -1.517561
v -0.4416098 4.609753 -2.152969
v -1.804264 4.609753 -1.588543
v -2.368684 4.609753 -0.22589
v -1.804261 4.609753 1.136762
v -0.4416095 4.609753 1.70119
v 0.9210491 4.609753 1.136758
v 1.485475 4.609753 -0.2258904
v 0.921046 4.609753 -1.588547
v 0.1353838 6.879482 0.01310224
v -0.6806028 6.879482 0.3510934
v -0.4416096 6.955975 -0.2258894
v -1.018595 6.879482 -0.4648849
v -0.2026119 6.879482 -0.8028783
v -0.4963035 5.42801 1.781259
v -1.262318 5.284224 2.032507
v -0.4443547 5.091809 1.14274
v -1.557363 4.882892 1.5078
v -1.602622 5.008309 2.724352
v -2.051819 4.481992 2.513032
v -1.317863 4.761891 3.45152
v -1.63807 4.12395 3.569593
v -0.5748551 4.689319 3.788051
v -0.558488 4.018503 4.058564
v 0.1911641 4.833102 3.536797
v 0.5545236 4.22742 3.693506
v 0.5314676 5.109017 2.844953
v 1.048977 4.628322 2.688263
v 0.246709 5.355435 2.117785
v 0.635224 4.986362 1.631708
v -0.399506 4.544276 0.8063697
v -1.60422 4.318147 1.201499
v -2.139407 3.884214 2.289562
v -1.691575 3.496674 3.43318
v -0.5230429 3.38254 3.962436
v 0.6816728 3.608667 3.567299
v 1.216862 4.0426 2.479238
v 0.7690226 4.43014 1.335624
v -0.103989 5.263332 3.078566
v -0.7578265 5.140604 3.293016
v -0.5590945 5.405268 2.911316
v -1.00088 5.350937 2.67234
v -0.3470498 5.473663 2.457893
v 3.467291 4.289501 -0.06889036
v 2.692062 4.465175 -0.7313491
v 3.661679 3.344652 -0.2631496
v 2.614225 3.582012 -1.158233
v 1.693771 4.720965 -0.6381443
v 1.265388 3.927623 -1.032298
v 1.057209 4.907035 0.1561268
v 0.4052994 4.179029 0.04087968
v 1.155263 4.914389 1.186188
v 0.537784 4.188965 1.432641
v 1.930498 4.738715 1.848651
v 1.585241 3.951605 2.327726
v 2.928789 4.482923 1.755446
v 2.934074 3.605993 2.201789
v 3.565352 4.296852 0.961175
v 3.794166 3.354586 1.128614
v 3.498887 2.339954 -0.279072
v 2.393873 2.590359 -1.223343
v 0.9709134 2.954962 -1.090487
v 0.06355978 3.220186 0.04166067
v 0.2033216 3.230665 1.509916
v 1.308344 2.980261 2.454183
v 2.731303 2.615658 2.321328
v 3.638654 2.350435 1.189177
v 2.467381 4.988973 1.168393
v 1.80567 5.13892 0.6029491
v 2.42697 5.058652 0.544374
v 2.349011 4.980098 -0.07500434
v 3.010716 4.830153 0.4904344

vn 0.6730376 0.5420592 -0.5031821
vn 0.1201061 0.5420586 -0.8317132
vn 0.7604029 0.3140009 -0.5684988
vn 0.1356966 0.3140011 -0.9396752
vn -0.5031821 0.5420592 -0.6730376
vn -0.5684988 0.3140009 -0.7604029
vn -0.831713 0.542059 -0.1201067
vn -0.9396752 0.3140011 -0.1356966
vn -0.6730376 0.5420592 0.5031821
vn -0.7604029 0.3140009 0.5684988
vn -0.1201054 0.542059 0.8317131
vn -0.1356966 0.3140011 0.9396752
vn 0.5031821 0.5420592 0.6730376
vn 0.5684988 0.3140009 0.7604029
vn 0.8317131 0.542059 0.1201054
vn 0.9396756 0.3140009 0.1356959
vn 0.790416 0.1613551 -0.5909375
vn 0.1410526 0.161355 -0.9767643
vn -0.5909375 0.1613551 -0.790416
vn -0.9767643 0.161355 -0.1410526
vn -0.790416 0.1613551 0.5909375
vn -0.1410526 0.161355 0.9767643
vn 0.5909375 0.1613551 0.790416
vn 0.9767645 0.1613549 0.1410519
vn 0.1250195 0.9538103 0.2731595
vn -0.2731601 0.9538102 0.1250187
vn 0 1 0
vn -0.1250201 0.95381 -0.2731603
vn 0.2731595 0.9538103 -0.1250195
vn 0.4802984 0.7981869 -0.3636084
vn -0.03800038 0.6852556 -0.7273105
vn 0.6358795 0.6220729 -0.4568178
vn 0.05030155 0.4944831 -0.8677305
vn -0.633244 0.468548 -0.616007
vn -0.6222091 0.249645 -0.7419792
vn -0.9567469 0.275008 -0.09489885
vn -0.9877052 0.030982 -0.153227
vn -0.8190053 0.2180079 0.530757
vn -0.8320837 -0.03341699 0.5536424
vn -0.3007051 0.3309391 0.8944584
vn -0.2465057 0.09417298 0.9645549
vn 0.2945381 0.547647 0.7831539
vn 0.4260058 0.339011 0.8388031
vn 0.6180407 0.7411867 0.2620455
vn 0.7915014 0.557674 0.2500502
vn 0.7125399 0.491927 -0.5002945
vn 0.1038498 0.3593008 -0.9274256
vn -0.5952053 0.1047991 -0.7967106
vn -0.9751272 -0.122495 -0.1847208
vn -0.8133632 -0.189435 0.5500495
vn -0.2046724 -0.056809 0.9771806
vn 0.4943828 0.1976929 0.8464651
vn 0.8743044 0.424986 0.2344751
vn -0.193399 0.885857 0.4217276
vn -0.5573419 0.7939746 0.2428464
vn -0.3124256 0.9373471 0.1541774
vn -0.4038342 0.9059739 -0.1270012
vn -0.0398925 0.9978563 0.05187966
vn 0.8354682 0.3310159 0.4386584
vn 0.8767246 0.4402091 -0.1938297
vn 0.8928227 0.08483202 0.4423471
vn 0.9394343 0.2082001 -0.2722423
vn 0.4587744 0.5992017 -0.6561123
vn 0.4672318 0.3878301 -0.7945327
vn -0.1735513 0.714857 -0.6773916
vn -0.2471755 0.5184991 -0.8185737
vn -0.6498469 0.719427 -0.2452012
vn -0.785297 0.523662 -0.3302826
vn -0.6911024 0.610234 0.3872877
vn -0.8319088 0.4002951 0.3843066
vn -0.2731517 0.4512419 0.8495698
vn -0.3597048 0.2206639 0.906598
vn 0.3591741 0.335586 0.8708478
vn 0.3547023 0.08999498 0.9306381
vn 0.8998045 -0.07173201 0.430356
vn 0.948256 0.05650397 -0.3124385
vn 0.4574155 0.243225 -0.8553435
vn -0.2851893 0.379052 -0.8803332
vn -0.8445508 0.384418 -0.3727689
vn -0.8930019 0.2561819 0.3700249
vn -0.4021601 0.06946103 0.9129307
vn 0.3404437 -0.06636602 0.9379198
vn -0.02062637 0.9129925 0.4074547
vn -0.06856719 0.9976278 -0.006104395
vn 0.1712197 0.9689379 0.1784462
vn 0.347248 0.9353735 -0.06704662
vn 0.3951887 0.850738 0.3465123

vt 0.4470215 0.4243164
vt 0.4257813 0.4155273
vt 0.4472656 0.4458008
vt 0.4106445 0.4306641
vt 0.4169922 0.3942871
vt 0.3955078 0.3942871
vt 0.4257813 0.3728027
vt 0.4106445 0.3579102
vt 0.4470215 0.3642578
vt 0.4470215 0.3427734
vt 0.4685059 0.3730469
vt 0.4833984 0.357666
vt 0.4770508 0.3942871
vt 0.4985352 0.394043
vt 0.4682617 0.4155273
vt 0.4833984 0.4306641
vt 0.4470215 0.4689941
vt 0.394043 0.4470215
vt 0.3723145 0.394043
vt 0.394043 0.3413086
vt 0.4470215 0.3193359
vt 0.5 0.3413086
vt 0.5219727 0.3942871
vt 0.5 0.4472656
vt 0.4609375 0.3884277
vt 0.4411621 0.3803711
vt 0.4470215 0.3942871
vt 0.4331055 0.3999023
vt 0.4528809 0.407959
vt 0.3144531 0.4064941
vt 0.2939453 0.3986816
vt 0.3151855 0.4223633
vt 0.2832031 0.4101563
vt 0.2856445 0.3781738
vt 0.2697754 0.3789063
vt 0.293457 0.357666
vt 0.2817383 0.3469238
vt 0.3139648 0.3493652
vt 0.3132324 0.333252
vt 0.3344727 0.3571777
vt 0.3452148 0.345459
vt 0.3427734 0.3776855
vt 0.3586426 0.3769531
vt 0.3349609 0.3981934
vt 0.3464355 0.4089355
vt 0.3132324 0.4384766
vt 0.2705078 0.420166
vt 0.253418 0.3769531
vt 0.2717285 0.3342285
vt 0.3151855 0.3171387
vt 0.357666 0.3354492
vt 0.375 0.3786621
vt 0.3564453 0.4213867
vt 0.3261719 0.3720703
vt 0.3083496 0.3659668
vt 0.314209 0.3779297
vt 0.3022461 0.3837891
vt 0.3200684 0.3898926
vt 0.4470215 0.4243164
vt 0.4257813 0.4155273
vt 0.4472656 0.4458008
vt 0.4106445 0.4306641
vt 0.4169922 0.3942871
vt 0.3955078 0.3942871
vt 0.4257813 0.3728027
vt 0.4106445 0.3579102
vt 0.4470215 0.3642578
vt 0.4470215 0.3427734
vt 0.4685059 0.3730469
vt 0.4833984 0.357666
vt 0.4770508 0.3942871
vt 0.4985352 0.394043
vt 0.4682617 0.4155273
vt 0.4833984 0.4306641
vt 0.4470215 0.4689941
vt 0.394043 0.4470215
vt 0.3723145 0.394043
vt 0.394043 0.3413086
vt 0.4470215 0.3193359
vt 0.5 0.3413086
vt 0.5219727 0.3942871
vt 0.5 0.4472656
vt 0.4609375 0.3884277
vt 0.4411621 0.3803711
vt 0.4470215 0.3942871
vt 0.4331055 0.3999023
vt 0.4528809 0.407959

g Tree1_(5)_1213_268
usemtl Tree1_(5)_1213_268
usemap Tree1_(5)_1213_268
f 1/1/1 3/3/3 2/2/2
f 2/2/2 3/3/3 4/4/4
f 2/2/2 4/4/4 5/5/5
f 5/5/5 4/4/4 6/6/6
f 5/5/5 6/6/6 7/7/7
f 7/7/7 6/6/6 8/8/8
f 7/7/7 8/8/8 9/9/9
f 9/9/9 8/8/8 10/10/10
f 9/9/9 10/10/10 11/11/11
f 11/11/11 10/10/10 12/12/12
f 11/11/11 12/12/12 13/13/13
f 13/13/13 12/12/12 14/14/14
f 13/13/13 14/14/14 15/15/15
f 15/15/15 14/14/14 16/16/16
f 15/15/15 16/16/16 1/1/1
f 1/1/1 16/16/16 3/3/3
f 3/3/3 17/17/17 4/4/4
f 4/4/4 17/17/17 18/18/18
f 4/4/4 18/18/18 6/6/6
f 6/6/6 18/18/18 19/19/19
f 6/6/6 19/19/19 8/8/8
f 8/8/8 19/19/19 20/20/20
f 8/8/8 20/20/20 10/10/10
f 10/10/10 20/20/20 21/21/21
f 10/10/10 21/21/21 12/12/12
f 12/12/12 21/21/21 22/22/22
f 12/12/12 22/22/22 14/14/14
f 14/14/14 22/22/22 23/23/23
f 14/14/14 23/23/23 16/16/16
f 16/16/16 23/23/23 24/24/24
f 16/16/16 24/24/24 3/3/3
f 3/3/3 24/24/24 17/17/17
f 11/11/11 13/13/13 25/25/25
f 13/13/13 15/15/15 25/25/25
f 26/26/26 11/11/11 25/25/25
f 26/26/26 25/25/25 27/27/27
f 28/28/28 26/26/26 27/27/27
f 29/29/29 28/28/28 27/27/27
f 25/25/25 29/29/29 27/27/27
f 29/29/29 2/2/2 28/28/28
f 1/1/1 2/2/2 29/29/29
f 15/15/15 1/1/1 29/29/29
f 25/25/25 15/15/15 29/29/29
f 2/2/2 5/5/5 28/28/28
f 5/5/5 7/7/7 28/28/28
f 28/28/28 7/7/7 26/26/26
f 7/7/7 9/9/9 26/26/26
f 9/9/9 11/11/11 26/26/26
f 30/30/30 32/32/32 31/31/31
f 31/31/31 32/32/32 33/33/33
f 31/31/31 33/33/33 34/34/34
f 34/34/34 33/33/33 35/35/35
f 34/34/34 35/35/35 36/36/36
f 36/36/36 35/35/35 37/37/37
f 36/36/36 37/37/37 38/38/38
f 38/38/38 37/37/37 39/39/39
f 38/38/38 39/39/39 40/40/40
f 40/40/40 39/39/39 41/41/41
f 40/40/40 41/41/41 42/42/42
f 42/42/42 41/41/41 43/43/43
f 42/42/42 43/43/43 44/44/44
f 44/44/44 43/43/43 45/45/45
f 44/44/44 45/45/45 30/30/30
f 30/30/30 45/45/45 32/32/32
f 32/32/32 46/46/46 33/33/33
f 33/33/33 46/46/46 47/47/47
f 33/33/33 47/47/47 35/35/35
f 35/35/35 47/47/47 48/48/48
f 35/35/35 48/48/48 37/37/37
f 37/37/37 48/48/48 49/49/49
f 37/37/37 49/49/49 39/39/39
f 39/39/39 49/49/49 50/50/50
f 39/39/39 50/50/50 41/41/41
f 41/41/41 50/50/50 51/51/51
f 41/41/41 51/51/51 43/43/43
f 43/43/43 51/51/51 52/52/52
f 43/43/43 52/52/52 45/45/45
f 45/45/45 52/52/52 53/53/53
f 45/45/45 53/53/53 32/32/32
f 32/32/32 53/53/53 46/46/46
f 40/40/40 42/42/42 54/54/54
f 42/42/42 44/44/44 54/54/54
f 55/55/55 40/40/40 54/54/54
f 55/55/55 54/54/54 56/56/56
f 57/57/57 55/55/55 56/56/56
f 58/58/58 57/57/57 56/56/56
f 54/54/54 58/58/58 56/56/56
f 58/58/58 31/31/31 57/57/57
f 30/30/30 31/31/31 58/58/58
f 44/44/44 30/30/30 58/58/58
f 54/54/54 44/44/44 58/58/58
f 31/31/31 34/34/34 57/57/57
f 34/34/34 36/36/36 57/57/57
f 57/57/57 36/36/36 55/55/55
f 36/36/36 38/38/38 55/55/55
f 38/38/38 40/40/40 55/55/55
f 59/59/59 61/61/61 60/60/60
f 60/60/60 61/61/61 62/62/62
f 60/60/60 62/62/62 63/63/63
f 63/63/63 62/62/62 64/64/64
f 63/63/63 64/64/64 65/65/65
f 65/65/65 64/64/64 66/66/66
f 65/65/65 66/66/66 67/67/67
f 67/67/67 66/66/66 68/68/68
f 67/67/67 68/68/68 69/69/69
f 69/69/69 68/68/68 70/70/70
f 69/69/69 70/70/70 71/71/71
f 71/71/71 70/70/70 72/72/72
f 71/71/71 72/72/72 73/73/73
f 73/73/73 72/72/72 74/74/74
f 73/73/73 74/74/74 59/59/59
f 59/59/59 74/74/74 61/61/61
f 61/61/61 75/75/75 62/62/62
f 62/62/62 75/75/75 76/76/76
f 62/62/62 76/76/76 64/64/64
f 64/64/64 76/76/76 77/77/77
f 64/64/64 77/77/77 66/66/66
f 66/66/66 77/77/77 78/78/78
f 66/66/66 78/78/78 68/68/68
f 68/68/68 78/78/78 79/79/79
f 68/68/68 79/79/79 70/70/70
f 70/70/70 79/79/79 80/80/80
f 70/70/70 80/80/80 72/72/72
f 72/72/72 80/80/80 81/81/81
f 72/72/72 81/81/81 74/74/74
f 74/74/74 81/81/81 82/82/82
f 74/74/74 82/82/82 61/61/61
f 61/61/61 82/82/82 75/75/75
f 69/69/69 71/71/71 83/83/83
f 71/71/71 73/73/73 83/83/83
f 84/84/84 69/69/69 83/83/83
f 84/84/84 83/83/83 85/85/85
f 86/86/86 84/84/84 85/85/85
f 87/87/87 86/86/86 85/85/85
f 83/83/83 87/87/87 85/85/85
f 87/87/87 60/60/60 86/86/86
f 59/59/59 60/60/60 87/87/87
f 73/73/73 59/59/59 87/87/87
f 83/83/83 73/73/73 87/87/87
f 60/60/60 63/63/63 86/86/86
f 63/63/63 65/65/65 86/86/86
f 86/86/86 65/65/65 84/84/84
f 65/65/65 67/67/67 84/84/84
f 67/67/67 69/69/69 84/84/84
