#Tree5_1509_131.obj

v 0.7036877 -0.4562376 -0.07575798
v 0.710186 0.3238553 -0.2124214
v 0.5329227 0.3238553 -0.6403465
v 0.7036877 -0.4562376 -0.07575798
v 0.5103188 -0.2624085 -0.2495232
v 0.1873055 -0.2624085 -0.6693115
v 0.5329227 0.3238553 -0.6403465
v 0.1050034 0.3238553 -0.8176003
v -0.01379871 -0.2624085 -0.7665844
v -0.3229132 0.3238553 -0.6403465
v -0.1238384 -0.2624085 -0.7133541
v 0.0468092 0.9101191 -0.5880852
v 0.4136572 0.9101191 -0.4361305
v -0.3200579 0.9101191 -0.4361305
v -0.472003 0.9101191 -0.06927681
v -0.5001726 0.3238553 -0.2124214
v -0.5519676 -0.2624085 -0.3284569
v -0.8080864 -0.3196263 -0.1044331
v -0.3200579 0.9101191 0.2975807
v -0.3229132 0.3238553 0.2155056
v -0.8080864 -0.3196263 -0.1044331
v 0.0468092 0.9101191 0.4495335
v 0.1050034 0.3238553 0.3927574
v -0.2291985 -0.2624085 0.508707
v -0.01379871 -0.3595064 0.8501701
v 0.4136572 0.9101191 0.2975807
v 0.5329227 0.3238553 0.2155056
v -0.01379871 -0.3595064 0.8501701
v 0.5656214 0.9101191 -0.06927681
v 0.710186 0.3238553 -0.2124214
v 0.5196648 -0.2624085 0.04843903
v 0.7036877 -0.4562376 -0.07575798
v 0.4136572 0.9101191 -0.4361305
v 0.5329227 0.3238553 -0.6403465
v 0.3974838 1.658291 -0.6164341
v 0.5678358 1.658291 -0.2051525
v 0.3974838 1.658291 0.2061253
v -0.01379871 1.658291 0.376482
v -0.01379871 -0.3595064 0.8501701
v 0.2676392 -0.2624085 0.4570885
v -0.4250774 1.658291 0.2061253
v -0.5954332 1.658291 -0.2051525
v -0.4250774 1.658291 -0.6164341
v -0.01379871 1.407125 -0.7867908
v 0.3974838 1.658291 -0.6164341
v -0.8080864 -0.3196263 -0.1044331
v -0.525075 -0.2624085 0.1997795
v -0.6926479 -0.3595064 0.5589733
v -0.2291985 -0.2624085 0.508707
v 0.5678358 1.658291 -0.2051525
v 0.4721947 1.658291 -0.2051525
v 0.3298483 1.658291 -0.5488052
v 0.3974838 1.658291 -0.6164341
v 0.3974838 1.658291 0.2061253
v 0.3298483 1.658291 0.1384964
v -0.01379871 1.658291 0.376482
v -0.01379871 1.658291 0.2808418
v -0.4250774 1.658291 0.2061253
v -0.3574495 1.658291 0.1384964
v 0.3974838 1.658291 -0.6164341
v 0.3298483 1.658291 -0.5488052
v -0.01379871 1.46433 -0.6911507
v -0.01379871 1.407125 -0.7867908
v -0.3574495 1.658291 -0.5488052
v -0.4250774 1.658291 -0.6164341
v -0.4997959 1.658291 -0.2051525
v -0.5954332 1.658291 -0.2051525
v -0.3574495 1.658291 0.1384964
v -0.4250774 1.658291 0.2061253
v 0.4721947 1.658291 -0.2051525
v 0.4361725 1.393366 -0.2051525
v 0.3043814 1.393366 -0.5233326
v 0.3298483 1.658291 -0.5488052
v 0.3298483 1.658291 0.1384964
v 0.3043814 1.393366 0.1130238
v -0.01379871 1.658291 0.2808418
v -0.01379871 1.393366 0.2448177
v -0.3574495 1.658291 0.1384964
v -0.3426504 1.50435 0.1236954
v 0.3298483 1.658291 -0.5488052
v 0.3043814 1.393366 -0.5233326
v -0.01379871 1.393366 -0.6551266
v -0.01379871 1.46433 -0.6911507
v -0.3443842 1.522452 -0.5357437
v -0.3574495 1.658291 -0.5488052
v -0.4784813 1.501565 -0.2051525
v -0.4997959 1.658291 -0.2051525
v -0.3426504 1.50435 0.1236954
v -0.3574495 1.658291 0.1384964
v -0.3426504 1.50435 0.1236954
v 0.4361725 1.393366 -0.2051525
v 0.3043814 1.393366 0.1130238
v -0.01379871 1.393366 0.2448177
v -0.4784813 1.501565 -0.2051525
v 0.3043814 1.393366 -0.5233326
v 0.4361725 1.393366 -0.2051525
v -0.3426504 1.50435 0.1236954
v -0.3443842 1.522452 -0.5357437
v -0.01379871 1.393366 -0.6551266
v 0.3043814 1.393366 -0.5233326
v -0.4784813 1.501565 -0.2051525
v 0.5103188 -0.2624085 -0.2495232
v 0.5329227 0.3238553 -0.6403465
v 0.8080864 -0.3881492 -0.8501701
v 0.8080864 -0.3881492 -0.8501701
v 0.1873055 -0.2624085 -0.6693115
v -0.1238384 -0.2624085 -0.7133541
v -0.5819225 -0.3595064 -0.8352089
v -0.5819225 -0.3595064 -0.8352089
v -0.5519676 -0.2624085 -0.3284569
v -0.525075 -0.2624085 0.1997795
v -0.3229132 0.3238553 0.2155056
v -0.6926479 -0.3595064 0.5589733
v 0.2676392 -0.2624085 0.4570885
v 0.803441 -0.3595064 0.6789131
v 0.803441 -0.3595064 0.6789131
v 0.5329227 0.3238553 0.2155056
v 0.5196648 -0.2624085 0.04843903

vn 0.7921803 -0.2344081 -0.5634742
vn 0.7921803 -0.2344081 -0.5634742
vn 0.7921803 -0.2344081 -0.5634742
vn 0.7921803 -0.2344081 -0.5634742
vn 0.7921803 -0.2344081 -0.5634742
vn 0.393962 -0.173024 -0.9026941
vn 0.7143703 0.05819001 -0.6973442
vn 0.03547898 0.120258 -0.9921085
vn -0.053285 -0.100353 -0.9935241
vn -0.6739032 0.1410671 -0.7252272
vn -0.3937921 -0.009724 -0.9191481
vn -0.0007250002 0.03715602 -0.9993092
vn 0.7390793 0.112172 -0.6642132
vn -0.7510918 -0.029556 -0.6595358
vn -0.9966909 -0.062248 0.052273
vn -0.9914992 0.118844 -0.052966
vn -0.8265469 0.178669 -0.5337579
vn -0.9805811 0.191185 0.043692
vn -0.6813849 -0.050471 0.7301831
vn -0.7296338 0.119297 0.6733518
vn -0.9805811 0.191185 0.043692
vn -0.002125999 1.4E-05 0.9999977
vn 0.040374 0.104253 0.993731
vn -0.5217631 0.4417732 0.7297942
vn -0.04206999 0.3076819 0.9505588
vn 0.6781921 0.06589901 0.7319241
vn 0.7654851 0.030042 0.642752
vn -0.04206999 0.3076819 0.9505588
vn 0.9915008 0.119022 0.05253499
vn 0.9987801 0.012869 -0.04767401
vn 0.83259 -0.024353 0.5533541
vn 0.977644 -0.204405 0.049302
vn 0.7390793 0.112172 -0.6642132
vn 0.7143703 0.05819001 -0.6973442
vn 0.7424828 -0.15948 -0.6506039
vn 0.9989878 -0.010893 -0.04364299
vn 0.7160174 0.09993504 0.6908922
vn -0.020204 0.095535 0.995221
vn -0.04206999 0.3076819 0.9505588
vn 0.5863547 0.2472899 0.7713857
vn -0.7376708 -0.02107 0.6748318
vn -0.984668 -0.169748 -0.040182
vn -0.7493942 -0.2729511 -0.6032462
vn -0.03151299 -0.3099158 -0.9502416
vn 0.7424828 -0.15948 -0.6506039
vn -0.9805811 0.191185 0.043692
vn -0.800056 0.3674211 0.474249
vn -0.6748575 0.3204822 0.6647245
vn 0.003178 0.447704 0.8941762
vn 0 1 0
vn 0 1 0
vn 0 1 0
vn 0 1 0
vn 0 1 0
vn 0 1 0
vn 0 1 0
vn 0 1 0
vn 0 1 0
vn 0 1 0
vn 0 1 0
vn 0 1 0
vn -0.32048 0.844693 -0.428703
vn -0.32048 0.844693 -0.428703
vn 0.32048 0.844693 -0.428703
vn 0.32048 0.844693 -0.428703
vn 0 1 0
vn 0 1 0
vn 0 1 0
vn 0 1 0
vn -0.9166741 0.124648 0.3796991
vn -0.9166741 0.124648 0.3796991
vn -0.9166741 0.124648 0.3796991
vn -0.9166741 0.124648 0.3796991
vn -0.3796991 0.124648 -0.9166741
vn -0.3796991 0.124648 -0.9166741
vn 0.3796991 0.124648 -0.9166741
vn 0.3796991 0.124648 -0.9166741
vn 0.9166741 0.124648 -0.3796991
vn 0.9166741 0.124648 -0.3796991
vn -0.9166741 0.124648 0.3796991
vn -0.9166741 0.124648 0.3796991
vn -0.4234239 0.194123 0.8848889
vn -0.4234239 0.194123 0.8848889
vn 0.4469752 0.23321 0.8636123
vn 0.4469748 0.2332099 0.8636126
vn 0.9166741 0.124648 0.3796991
vn 0.9166741 0.124648 0.3796991
vn 0.9166741 0.124648 -0.3796991
vn 0.9166741 0.124648 -0.3796991
vn 0.16933 0.9709041 0.16933
vn 0.16933 0.9709041 0.16933
vn 0.16933 0.9709041 0.16933
vn 0.16933 0.9709041 0.16933
vn 0.117312 0.991691 -0.052791
vn 0.117312 0.991691 -0.052791
vn 0.117312 0.991691 -0.052791
vn 0.117312 0.991691 -0.052791
vn 0.1956529 0.9800967 -0.03362099
vn 0.1956529 0.9800967 -0.03362099
vn 0.1956529 0.9800967 -0.03362099
vn 0.1956529 0.9800967 -0.03362099
vn 0.8904842 0.2281241 0.3936971
vn 0.8904842 0.2281241 0.3936971
vn 0.8904842 0.2281241 0.3936971
vn 0.6926299 -0.2425949 -0.6792728
vn -0.2393849 0.188187 -0.9525127
vn 0.2140771 0.1919701 -0.9577674
vn -0.7588087 0.04950098 -0.6494298
vn -0.7588087 0.04950098 -0.6494298
vn -0.9337391 0.357706 -0.013335
vn -0.8897321 0.3156471 -0.3297631
vn -0.7296338 0.119297 0.6733518
vn -0.6748575 0.3204822 0.6647245
vn -0.26455 0.467329 0.8435739
vn 0.6628792 0.07778303 0.7446752
vn 0.6628792 0.07778303 0.7446752
vn 0.7654851 0.030042 0.642752
vn 0.9132351 0.09241801 -0.3968131

vt 0.1508789 0.3220215
vt 0.1538086 0.3530273
vt 0.1724854 0.3537598
vt 0.1508789 0.3220215
vt 0.1583252 0.3217773
vt 0.03201294 0.3212891
vt 0.02078247 0.3537598
vt 0.03924561 0.3518066
vt 0.04174805 0.3215332
vt 0.05758667 0.3525391
vt 0.04672241 0.3215332
vt 0.03744507 0.3847656
vt 0.01751709 0.3847656
vt 0.05786133 0.3845215
vt 0.07769775 0.3842773
vt 0.07611084 0.3530273
vt 0.0736084 0.3215332
vt 0.07891846 0.3212891
vt 0.09698486 0.3833008
vt 0.09552002 0.3520508
vt 0.07891846 0.3212891
vt 0.1156006 0.3820801
vt 0.1152344 0.3510742
vt 0.1099243 0.3178711
vt 0.1134644 0.3178711
vt 0.1339111 0.3820801
vt 0.1348877 0.3520508
vt 0.1134644 0.3178711
vt 0.152832 0.3833008
vt 0.1538086 0.3530273
vt 0.1450195 0.3217773
vt 0.1508789 0.3220215
vt 0.1719971 0.3859863
vt 0.1724854 0.3537598
vt 0.175415 0.4265137
vt 0.1544189 0.4238281
vt 0.1341553 0.4213867
vt 0.1140137 0.4213867
vt 0.1134644 0.3178711
vt 0.1189575 0.3186035
vt 0.09460449 0.4230957
vt 0.07568359 0.4257813
vt 0.05670166 0.4279785
vt 0.03955078 0.4128418
vt 0.01812744 0.4240723
vt 0.07891846 0.3212891
vt 0.08569336 0.3200684
vt 0.09661865 0.3181152
vt 0.1099243 0.3178711
vt 0.2044678 0.4519043
vt 0.2053223 0.4399414
vt 0.189209 0.4399414
vt 0.189209 0.4519043
vt 0.2193604 0.4519043
vt 0.2198486 0.4399414
vt 0.2344971 0.4519043
vt 0.2344971 0.4399414
vt 0.2495117 0.4519043
vt 0.2492676 0.4399414
vt 0.2497559 0.4519043
vt 0.2497559 0.4399414
vt 0.2322998 0.4399414
vt 0.2325439 0.4519043
vt 0.2175293 0.4399414
vt 0.2177734 0.4519043
vt 0.2032471 0.4399414
vt 0.2034912 0.4519043
vt 0.1885986 0.4399414
vt 0.1888428 0.4519043
vt 0.2053223 0.4399414
vt 0.2064209 0.4240723
vt 0.189209 0.4240723
vt 0.189209 0.4399414
vt 0.2198486 0.4399414
vt 0.2198486 0.4240723
vt 0.2344971 0.4399414
vt 0.2338867 0.4240723
vt 0.2492676 0.4399414
vt 0.2490234 0.4240723
vt 0.2497559 0.4399414
vt 0.2497559 0.4240723
vt 0.2321777 0.4240723
vt 0.2322998 0.4399414
vt 0.2189941 0.4240723
vt 0.2175293 0.4399414
vt 0.2036133 0.4240723
vt 0.2032471 0.4399414
vt 0.1883545 0.4240723
vt 0.1885986 0.4399414
vt 0.1955566 0.4733887
vt 0.2316895 0.4606934
vt 0.2194824 0.4558105
vt 0.2020264 0.458252
vt 0.201416 0.4907227
vt 0.2376709 0.4768066
vt 0.2316895 0.4606934
vt 0.1955566 0.4733887
vt 0.2165527 0.4973145
vt 0.2324219 0.4919434
vt 0.2376709 0.4768066
vt 0.201416 0.4907227
vt 0.1583252 0.3217773
vt 0.1724854 0.3537598
vt 0.1729736 0.3208008
vt 0.02183533 0.3210449
vt 0.03201294 0.3212891
vt 0.04672241 0.3215332
vt 0.06027222 0.3217773
vt 0.06027222 0.3217773
vt 0.0736084 0.3215332
vt 0.08569336 0.3200684
vt 0.09552002 0.3520508
vt 0.09661865 0.3181152
vt 0.1189575 0.3186035
vt 0.130249 0.3205566
vt 0.130249 0.3205566
vt 0.1348877 0.3520508
vt 0.1450195 0.3217773

g Tree5_1509_131
usemtl Tree5_1509_131
usemap Tree5_1509_131
f 1/1/1 3/3/3 2/2/2
f 4/4/4 5/5/5 3/3/3
f 6/6/6 8/8/8 7/7/7
f 6/6/6 9/9/9 8/8/8
f 9/9/9 10/10/10 8/8/8
f 9/9/9 11/11/11 10/10/10
f 7/7/7 8/8/8 12/12/12
f 7/7/7 12/12/12 13/13/13
f 8/8/8 14/14/14 12/12/12
f 8/8/8 10/10/10 14/14/14
f 10/10/10 15/15/15 14/14/14
f 10/10/10 16/16/16 15/15/15
f 17/17/17 16/16/16 10/10/10
f 17/17/17 18/18/18 16/16/16
f 16/16/16 19/19/19 15/15/15
f 16/16/16 20/20/20 19/19/19
f 21/21/21 20/20/20 16/16/16
f 20/20/20 22/22/22 19/19/19
f 20/20/20 23/23/23 22/22/22
f 24/24/24 23/23/23 20/20/20
f 24/24/24 25/25/25 23/23/23
f 23/23/23 26/26/26 22/22/22
f 23/23/23 27/27/27 26/26/26
f 28/28/28 27/27/27 23/23/23
f 27/27/27 29/29/29 26/26/26
f 27/27/27 30/30/30 29/29/29
f 31/31/31 30/30/30 27/27/27
f 31/31/31 32/32/32 30/30/30
f 30/30/30 33/33/33 29/29/29
f 30/30/30 34/34/34 33/33/33
f 29/29/29 33/33/33 35/35/35
f 29/29/29 35/35/35 36/36/36
f 26/26/26 29/29/29 36/36/36
f 22/22/22 26/26/26 37/37/37
f 26/26/26 36/36/36 37/37/37
f 22/22/22 37/37/37 38/38/38
f 39/39/39 40/40/40 27/27/27
f 19/19/19 38/38/38 41/41/41
f 15/15/15 19/19/19 41/41/41
f 15/15/15 41/41/41 42/42/42
f 14/14/14 15/15/15 42/42/42
f 14/14/14 42/42/42 43/43/43
f 12/12/12 14/14/14 43/43/43
f 12/12/12 43/43/43 44/44/44
f 13/13/13 12/12/12 44/44/44
f 13/13/13 44/44/44 45/45/45
f 19/19/19 22/22/22 38/38/38
f 46/46/46 47/47/47 20/20/20
f 48/48/48 49/49/49 20/20/20
f 50/50/50 52/52/52 51/51/51
f 50/50/50 53/53/53 52/52/52
f 54/54/54 50/50/50 51/51/51
f 54/54/54 51/51/51 55/55/55
f 56/56/56 54/54/54 55/55/55
f 56/56/56 55/55/55 57/57/57
f 58/58/58 56/56/56 57/57/57
f 58/58/58 57/57/57 59/59/59
f 60/60/60 62/62/62 61/61/61
f 60/60/60 63/63/63 62/62/62
f 63/63/63 64/64/64 62/62/62
f 63/63/63 65/65/65 64/64/64
f 65/65/65 66/66/66 64/64/64
f 65/65/65 67/67/67 66/66/66
f 67/67/67 68/68/68 66/66/66
f 67/67/67 69/69/69 68/68/68
f 70/70/70 72/72/72 71/71/71
f 70/70/70 73/73/73 72/72/72
f 74/74/74 70/70/70 71/71/71
f 74/74/74 71/71/71 75/75/75
f 76/76/76 74/74/74 75/75/75
f 76/76/76 75/75/75 77/77/77
f 78/78/78 76/76/76 77/77/77
f 78/78/78 77/77/77 79/79/79
f 80/80/80 82/82/82 81/81/81
f 80/80/80 83/83/83 82/82/82
f 83/83/83 84/84/84 82/82/82
f 83/83/83 85/85/85 84/84/84
f 85/85/85 86/86/86 84/84/84
f 85/85/85 87/87/87 86/86/86
f 87/87/87 88/88/88 86/86/86
f 87/87/87 89/89/89 88/88/88
f 90/90/90 92/92/92 91/91/91
f 90/90/90 93/93/93 92/92/92
f 94/94/94 96/96/96 95/95/95
f 94/94/94 97/97/97 96/96/96
f 98/98/98 100/100/100 99/99/99
f 98/98/98 101/101/101 100/100/100
f 102/102/102 104/104/104 103/103/103
f 105/105/105 106/106/106 7/7/7
f 107/107/107 108/108/108 10/10/10
f 109/109/109 110/110/110 10/10/10
f 111/111/111 113/113/113 112/112/112
f 114/114/114 115/115/115 27/27/27
f 116/116/116 118/118/118 117/117/117
