#Tree1_(18)_2656_625.obj

v -0.4416074 6.484625 -1.577855
v -1.397584 6.484625 -1.181875
v -0.4416019 5.622716 -2.052591
v -1.733274 5.622716 -1.517563
v -1.793564 6.484625 -0.2258934
v -2.268296 5.622716 -0.2258923
v -1.397582 6.484625 0.7300869
v -1.733272 5.622716 1.065773
v -0.4416007 6.484625 1.126066
v -0.4416043 5.622716 1.600806
v 0.5143781 6.484625 0.7300895
v 0.8500655 5.622716 1.065775
v 0.9103576 6.484625 -0.2258915
v 1.385097 5.622716 -0.2258965
v 0.5143822 6.484625 -1.181876
v 0.850064 5.622716 -1.517561
v -0.4416032 4.609753 -2.152975
v -1.804257 4.609753 -1.588549
v -2.368681 4.609753 -0.225891
v -1.804258 4.609753 1.136756
v -0.4416049 4.609753 1.701187
v 0.9210466 4.609753 1.136757
v 1.485483 4.609753 -0.2258944
v 0.9210477 4.609753 -1.588547
v 0.1353824 6.879482 0.01310325
v -0.6806021 6.879482 0.3510949
v -0.4416064 6.955975 -0.2258906
v -1.018589 6.879482 -0.4648882
v -0.2026107 6.879482 -0.8028761
v -0.4962993 5.42801 1.781255
v -1.262316 5.284224 2.032507
v -0.4443509 5.091809 1.142738
v -1.557362 4.882892 1.507796
v -1.602616 5.008309 2.72435
v -2.051815 4.481992 2.513032
v -1.317861 4.761891 3.451518
v -1.638067 4.12395 3.569594
v -0.5748509 4.689319 3.788046
v -0.5584862 4.018503 4.05856
v 0.1911661 4.833102 3.536794
v 0.5545267 4.22742 3.693506
v 0.5314679 5.109017 2.844954
v 1.048977 4.628322 2.688266
v 0.2467112 5.355435 2.117783
v 0.6352295 4.986362 1.631703
v -0.3995053 4.544276 0.8063689
v -1.604218 4.318147 1.201498
v -2.139409 3.884214 2.289562
v -1.691568 3.496673 3.433176
v -0.5230408 3.382539 3.962435
v 0.6816764 3.608668 3.567299
v 1.216868 4.0426 2.479235
v 0.7690286 4.43014 1.335624
v -0.1039875 5.263332 3.078568
v -0.7578269 5.140604 3.293017
v -0.5590908 5.405268 2.911314
v -1.000877 5.350937 2.672341
v -0.3470483 5.473663 2.457889
v 3.467298 4.289501 -0.06889378
v 2.692067 4.465175 -0.7313529
v 3.661683 3.344652 -0.2631555
v 2.614224 3.582012 -1.158229
v 1.693775 4.720965 -0.6381491
v 1.265393 3.927623 -1.032299
v 1.057214 4.907035 0.1561233
v 0.405302 4.179029 0.04087909
v 1.15527 4.914389 1.186183
v 0.5377887 4.188965 1.432643
v 1.930502 4.738715 1.848646
v 1.585243 3.951605 2.327723
v 2.928795 4.482923 1.755442
v 2.934081 3.605994 2.20179
v 3.565358 4.296852 0.9611726
v 3.794165 3.354586 1.128615
v 3.498895 2.339955 -0.2790762
v 2.39388 2.590358 -1.223342
v 0.9709176 2.954962 -1.090488
v 0.06356104 3.220185 0.04165911
v 0.2033281 3.230666 1.509915
v 1.308345 2.980261 2.454185
v 2.731305 2.615658 2.321327
v 3.638658 2.350435 1.189173
v 2.46738 4.988973 1.168393
v 1.805672 5.13892 0.6029459
v 2.426973 5.058652 0.544374
v 2.349018 4.980098 -0.07500999
v 3.010716 4.830153 0.4904338

vn -0.7303796 0.5420592 -0.4155929
vn -0.8103253 0.5420586 0.2225879
vn -0.8251883 0.3140009 -0.4695399
vn -0.915511 0.3140011 0.2514813
vn -0.4155929 0.5420592 0.7303796
vn -0.4695399 0.3140009 0.8251883
vn 0.2225872 0.542059 0.8103253
vn 0.2514813 0.3140011 0.915511
vn 0.7303796 0.5420592 0.4155929
vn 0.8251883 0.3140009 0.4695399
vn 0.8103249 0.542059 -0.2225885
vn 0.915511 0.3140011 -0.2514813
vn 0.4155929 0.5420592 -0.7303796
vn 0.4695399 0.3140009 -0.8251883
vn -0.2225885 0.542059 -0.8103249
vn -0.2514821 0.3140009 -0.915511
vn -0.8577585 0.1613551 -0.4880727
vn -0.9516463 0.161355 0.2614073
vn -0.4880727 0.1613551 0.8577585
vn 0.2614073 0.161355 0.9516463
vn 0.8577585 0.1613551 0.4880727
vn 0.9516463 0.161355 -0.2614073
vn 0.4880727 0.1613551 -0.8577585
vn -0.261408 0.1613549 -0.9516462
vn 0.2003521 0.9538103 -0.2238415
vn 0.223841 0.9538102 0.200353
vn 0 1 0
vn -0.2003526 0.95381 0.2238424
vn -0.2238415 0.9538103 -0.2003521
vn -0.5253653 0.7981869 -0.2947694
vn -0.6513983 0.6852556 0.3257374
vn -0.6730232 0.6220729 -0.4000814
vn -0.8154156 0.4944831 0.3009716
vn -0.3113009 0.468548 0.8267735
vn -0.4311712 0.249645 0.8670461
vn 0.2957018 0.275008 0.9148393
vn 0.2546253 0.030982 0.9665433
vn 0.8140367 0.2180079 0.5383464
vn 0.8402429 -0.03341699 0.5411794
vn 0.9400685 0.3309391 -0.08216128
vn 0.9826351 0.09417298 -0.1598735
vn 0.5999703 0.547647 -0.5831966
vn 0.5983899 0.339011 -0.7259485
vn -0.007032394 0.7411867 -0.671262
vn -0.08740699 0.557674 -0.8254451
vn -0.7435332 0.491927 -0.4529527
vn -0.8915457 0.3593008 0.2757702
vn -0.4921348 0.1047991 0.8641878
vn 0.2207296 -0.122495 0.9676122
vn 0.8294622 -0.189435 0.5254587
vn 0.9774743 -0.056809 -0.2032648
vn 0.5780628 0.1976929 -0.7916822
vn -0.1348015 0.424986 -0.8951063
vn 0.4638792 0.885857 0.008572593
vn 0.4454999 0.7939746 0.4136838
vn 0.2662711 0.9373471 0.2246779
vn 0.04512566 0.9059739 0.4209217
vn 0.06350514 0.9978563 0.01581165
vn 0.06787115 0.3310159 -0.9411811
vn -0.5283213 0.4402091 -0.7260115
vn 0.04831129 0.08483202 -0.9952233
vn -0.6252709 0.2082001 -0.752123
vn -0.7848431 0.5992017 -0.1580465
vn -0.9150915 0.3878301 -0.1104326
vn -0.5514289 0.714857 0.4300065
vn -0.6513776 0.5184991 0.5539548
vn 0.03519243 0.719427 0.6936759
vn 0.01139051 0.523662 0.85185
vn 0.6313852 0.610234 0.4785051
vn 0.6849726 0.4002951 0.6087499
vn 0.8879063 0.4512419 -0.08946013
vn 0.9747935 0.2206639 -0.03294221
vn 0.6544909 0.335586 -0.6775129
vn 0.7110788 0.08999498 -0.6973292
vn 0.03452858 -0.07173201 -0.9968261
vn -0.6656402 0.05650397 -0.7441306
vn -0.9668998 0.243225 -0.07711279
vn -0.6927769 0.379052 0.6134979
vn -0.00384894 0.384418 0.9231511
vn 0.696319 0.2561819 0.6704555
vn 0.9975787 0.06946103 0.003436148
vn 0.7234558 -0.06636602 -0.6871734
vn 0.3816923 0.9129925 -0.1440689
vn 0.02183063 0.9976278 0.06528512
vn 0.09506594 0.9689379 -0.2283017
vn -0.2003418 0.9353735 -0.2914439
vn 0.1595196 0.850738 -0.5007977

vt 0.4470215 0.4243164
vt 0.4257813 0.4155273
vt 0.4472656 0.4458008
vt 0.4106445 0.4306641
vt 0.4169922 0.3942871
vt 0.3955078 0.3942871
vt 0.4257813 0.3728027
vt 0.4106445 0.3579102
vt 0.4470215 0.3642578
vt 0.4470215 0.3427734
vt 0.4685059 0.3730469
vt 0.4833984 0.357666
vt 0.4770508 0.3942871
vt 0.4985352 0.394043
vt 0.4682617 0.4155273
vt 0.4833984 0.4306641
vt 0.4470215 0.4689941
vt 0.394043 0.4470215
vt 0.3723145 0.394043
vt 0.394043 0.3413086
vt 0.4470215 0.3193359
vt 0.5 0.3413086
vt 0.5219727 0.3942871
vt 0.5 0.4472656
vt 0.4609375 0.3884277
vt 0.4411621 0.3803711
vt 0.4470215 0.3942871
vt 0.4331055 0.3999023
vt 0.4528809 0.407959
vt 0.3144531 0.4064941
vt 0.2939453 0.3986816
vt 0.3151855 0.4223633
vt 0.2832031 0.4101563
vt 0.2856445 0.3781738
vt 0.2697754 0.3789063
vt 0.293457 0.357666
vt 0.2817383 0.3469238
vt 0.3139648 0.3493652
vt 0.3132324 0.333252
vt 0.3344727 0.3571777
vt 0.3452148 0.345459
vt 0.3427734 0.3776855
vt 0.3586426 0.3769531
vt 0.3349609 0.3981934
vt 0.3464355 0.4089355
vt 0.3132324 0.4384766
vt 0.2705078 0.420166
vt 0.253418 0.3769531
vt 0.2717285 0.3342285
vt 0.3151855 0.3171387
vt 0.357666 0.3354492
vt 0.375 0.3786621
vt 0.3564453 0.4213867
vt 0.3261719 0.3720703
vt 0.3083496 0.3659668
vt 0.314209 0.3779297
vt 0.3022461 0.3837891
vt 0.3200684 0.3898926
vt 0.4470215 0.4243164
vt 0.4257813 0.4155273
vt 0.4472656 0.4458008
vt 0.4106445 0.4306641
vt 0.4169922 0.3942871
vt 0.3955078 0.3942871
vt 0.4257813 0.3728027
vt 0.4106445 0.3579102
vt 0.4470215 0.3642578
vt 0.4470215 0.3427734
vt 0.4685059 0.3730469
vt 0.4833984 0.357666
vt 0.4770508 0.3942871
vt 0.4985352 0.394043
vt 0.4682617 0.4155273
vt 0.4833984 0.4306641
vt 0.4470215 0.4689941
vt 0.394043 0.4470215
vt 0.3723145 0.394043
vt 0.394043 0.3413086
vt 0.4470215 0.3193359
vt 0.5 0.3413086
vt 0.5219727 0.3942871
vt 0.5 0.4472656
vt 0.4609375 0.3884277
vt 0.4411621 0.3803711
vt 0.4470215 0.3942871
vt 0.4331055 0.3999023
vt 0.4528809 0.407959

g Tree1_(18)_2656_625
usemtl Tree1_(18)_2656_625
usemap Tree1_(18)_2656_625
f 1/1/1 3/3/3 2/2/2
f 2/2/2 3/3/3 4/4/4
f 2/2/2 4/4/4 5/5/5
f 5/5/5 4/4/4 6/6/6
f 5/5/5 6/6/6 7/7/7
f 7/7/7 6/6/6 8/8/8
f 7/7/7 8/8/8 9/9/9
f 9/9/9 8/8/8 10/10/10
f 9/9/9 10/10/10 11/11/11
f 11/11/11 10/10/10 12/12/12
f 11/11/11 12/12/12 13/13/13
f 13/13/13 12/12/12 14/14/14
f 13/13/13 14/14/14 15/15/15
f 15/15/15 14/14/14 16/16/16
f 15/15/15 16/16/16 1/1/1
f 1/1/1 16/16/16 3/3/3
f 3/3/3 17/17/17 4/4/4
f 4/4/4 17/17/17 18/18/18
f 4/4/4 18/18/18 6/6/6
f 6/6/6 18/18/18 19/19/19
f 6/6/6 19/19/19 8/8/8
f 8/8/8 19/19/19 20/20/20
f 8/8/8 20/20/20 10/10/10
f 10/10/10 20/20/20 21/21/21
f 10/10/10 21/21/21 12/12/12
f 12/12/12 21/21/21 22/22/22
f 12/12/12 22/22/22 14/14/14
f 14/14/14 22/22/22 23/23/23
f 14/14/14 23/23/23 16/16/16
f 16/16/16 23/23/23 24/24/24
f 16/16/16 24/24/24 3/3/3
f 3/3/3 24/24/24 17/17/17
f 11/11/11 13/13/13 25/25/25
f 13/13/13 15/15/15 25/25/25
f 26/26/26 11/11/11 25/25/25
f 26/26/26 25/25/25 27/27/27
f 28/28/28 26/26/26 27/27/27
f 29/29/29 28/28/28 27/27/27
f 25/25/25 29/29/29 27/27/27
f 29/29/29 2/2/2 28/28/28
f 1/1/1 2/2/2 29/29/29
f 15/15/15 1/1/1 29/29/29
f 25/25/25 15/15/15 29/29/29
f 2/2/2 5/5/5 28/28/28
f 5/5/5 7/7/7 28/28/28
f 28/28/28 7/7/7 26/26/26
f 7/7/7 9/9/9 26/26/26
f 9/9/9 11/11/11 26/26/26
f 30/30/30 32/32/32 31/31/31
f 31/31/31 32/32/32 33/33/33
f 31/31/31 33/33/33 34/34/34
f 34/34/34 33/33/33 35/35/35
f 34/34/34 35/35/35 36/36/36
f 36/36/36 35/35/35 37/37/37
f 36/36/36 37/37/37 38/38/38
f 38/38/38 37/37/37 39/39/39
f 38/38/38 39/39/39 40/40/40
f 40/40/40 39/39/39 41/41/41
f 40/40/40 41/41/41 42/42/42
f 42/42/42 41/41/41 43/43/43
f 42/42/42 43/43/43 44/44/44
f 44/44/44 43/43/43 45/45/45
f 44/44/44 45/45/45 30/30/30
f 30/30/30 45/45/45 32/32/32
f 32/32/32 46/46/46 33/33/33
f 33/33/33 46/46/46 47/47/47
f 33/33/33 47/47/47 35/35/35
f 35/35/35 47/47/47 48/48/48
f 35/35/35 48/48/48 37/37/37
f 37/37/37 48/48/48 49/49/49
f 37/37/37 49/49/49 39/39/39
f 39/39/39 49/49/49 50/50/50
f 39/39/39 50/50/50 41/41/41
f 41/41/41 50/50/50 51/51/51
f 41/41/41 51/51/51 43/43/43
f 43/43/43 51/51/51 52/52/52
f 43/43/43 52/52/52 45/45/45
f 45/45/45 52/52/52 53/53/53
f 45/45/45 53/53/53 32/32/32
f 32/32/32 53/53/53 46/46/46
f 40/40/40 42/42/42 54/54/54
f 42/42/42 44/44/44 54/54/54
f 55/55/55 40/40/40 54/54/54
f 55/55/55 54/54/54 56/56/56
f 57/57/57 55/55/55 56/56/56
f 58/58/58 57/57/57 56/56/56
f 54/54/54 58/58/58 56/56/56
f 58/58/58 31/31/31 57/57/57
f 30/30/30 31/31/31 58/58/58
f 44/44/44 30/30/30 58/58/58
f 54/54/54 44/44/44 58/58/58
f 31/31/31 34/34/34 57/57/57
f 34/34/34 36/36/36 57/57/57
f 57/57/57 36/36/36 55/55/55
f 36/36/36 38/38/38 55/55/55
f 38/38/38 40/40/40 55/55/55
f 59/59/59 61/61/61 60/60/60
f 60/60/60 61/61/61 62/62/62
f 60/60/60 62/62/62 63/63/63
f 63/63/63 62/62/62 64/64/64
f 63/63/63 64/64/64 65/65/65
f 65/65/65 64/64/64 66/66/66
f 65/65/65 66/66/66 67/67/67
f 67/67/67 66/66/66 68/68/68
f 67/67/67 68/68/68 69/69/69
f 69/69/69 68/68/68 70/70/70
f 69/69/69 70/70/70 71/71/71
f 71/71/71 70/70/70 72/72/72
f 71/71/71 72/72/72 73/73/73
f 73/73/73 72/72/72 74/74/74
f 73/73/73 74/74/74 59/59/59
f 59/59/59 74/74/74 61/61/61
f 61/61/61 75/75/75 62/62/62
f 62/62/62 75/75/75 76/76/76
f 62/62/62 76/76/76 64/64/64
f 64/64/64 76/76/76 77/77/77
f 64/64/64 77/77/77 66/66/66
f 66/66/66 77/77/77 78/78/78
f 66/66/66 78/78/78 68/68/68
f 68/68/68 78/78/78 79/79/79
f 68/68/68 79/79/79 70/70/70
f 70/70/70 79/79/79 80/80/80
f 70/70/70 80/80/80 72/72/72
f 72/72/72 80/80/80 81/81/81
f 72/72/72 81/81/81 74/74/74
f 74/74/74 81/81/81 82/82/82
f 74/74/74 82/82/82 61/61/61
f 61/61/61 82/82/82 75/75/75
f 69/69/69 71/71/71 83/83/83
f 71/71/71 73/73/73 83/83/83
f 84/84/84 69/69/69 83/83/83
f 84/84/84 83/83/83 85/85/85
f 86/86/86 84/84/84 85/85/85
f 87/87/87 86/86/86 85/85/85
f 83/83/83 87/87/87 85/85/85
f 87/87/87 60/60/60 86/86/86
f 59/59/59 60/60/60 87/87/87
f 73/73/73 59/59/59 87/87/87
f 83/83/83 73/73/73 87/87/87
f 60/60/60 63/63/63 86/86/86
f 63/63/63 65/65/65 86/86/86
f 86/86/86 65/65/65 84/84/84
f 65/65/65 67/67/67 84/84/84
f 67/67/67 69/69/69 84/84/84
